<?xml version="1.0" standalone="no"?>
<!DOCTYPE svg PUBLIC "-//W3C//DTD SVG 20010904//EN"
 "http://www.w3.org/TR/2001/REC-SVG-20010904/DTD/svg10.dtd">
<svg version="1.0" xmlns="http://www.w3.org/2000/svg"
 width="1264.000000pt" height="1251.000000pt" viewBox="0 0 1264.000000 1251.000000"
 preserveAspectRatio="xMidYMid meet">
<metadata>
Created by potrace 1.16, written by Peter Selinger 2001-2019
</metadata>
<g transform="translate(0.000000,1251.000000) scale(0.100000,-0.100000)"
fill="#000000" stroke="none">
<path d="M0 6255 l0 -6255 6320 0 6320 0 0 6255 0 6255 -6320 0 -6320 0 0
-6255z m6850 6130 c475 -47 724 -88 1071 -176 905 -230 1782 -687 2484 -1293
178 -154 216 -202 112 -142 -69 40 -287 105 -353 107 -55 1 -175 18 -271 40
-23 5 -71 27 -107 50 -81 50 -141 69 -222 69 -47 0 -83 8 -141 31 -84 33 -275
84 -443 118 -58 12 -139 33 -180 46 -41 13 -95 29 -120 35 -25 7 -67 23 -95
37 -107 53 -412 147 -613 189 -121 25 -136 26 -322 19 -218 -8 -404 4 -565 37
-149 30 -572 38 -709 13 -122 -22 -201 -16 -281 20 -96 43 -361 133 -413 140
-26 4 -69 13 -97 21 -29 8 -93 13 -150 13 -55 -1 -127 4 -160 10 -33 5 -91 13
-130 16 -132 13 -194 33 -389 130 -131 65 -219 102 -278 118 -49 12 -88 24
-88 28 0 3 66 26 148 52 496 156 973 244 1512 278 128 8 702 4 800 -6z m-2520
-386 c110 -17 267 -76 414 -155 168 -90 221 -108 346 -124 52 -6 137 -18 188
-26 59 -9 120 -12 165 -8 54 4 98 1 177 -16 102 -21 330 -99 420 -145 62 -32
146 -55 196 -55 23 0 79 6 125 14 148 25 190 28 419 28 194 0 237 -3 311 -21
48 -12 109 -21 135 -21 27 0 90 -5 139 -11 67 -8 139 -8 282 1 l191 12 119
-27 c147 -33 494 -145 571 -184 75 -38 230 -85 417 -126 208 -46 365 -90 449
-126 54 -24 94 -33 169 -39 87 -7 105 -12 150 -41 29 -18 70 -42 92 -55 43
-25 179 -52 315 -63 47 -4 124 -20 172 -34 48 -14 121 -28 162 -31 76 -4 188
-35 183 -49 -1 -5 -32 -24 -67 -44 -53 -28 -83 -37 -165 -47 -66 -8 -111 -9
-131 -3 -16 5 -90 10 -164 10 -167 2 -335 -31 -463 -90 -90 -42 -63 -40 -367
-30 -86 3 -173 11 -215 21 -107 26 -204 23 -303 -10 l-83 -27 -20 22 c-15 16
-27 20 -42 15 -40 -13 -92 -24 -114 -24 -18 0 -23 6 -23 24 0 36 -16 72 -35
80 -12 4 -28 -5 -51 -30 -46 -48 -64 -42 -89 28 -24 68 -35 81 -65 76 -24 -3
-34 -15 -50 -60 l-9 -28 -36 21 c-19 12 -35 27 -35 35 0 18 -34 35 -55 28 -9
-4 -19 -20 -22 -36 -4 -20 -18 -37 -44 -54 l-39 -24 -32 20 c-24 14 -34 29
-38 52 -7 47 -30 46 -91 -2 l-53 -41 -28 30 c-37 39 -61 46 -100 27 -39 -20
-38 -21 -38 9 0 30 -25 43 -50 27 -13 -8 -29 -8 -52 -2 -52 16 -108 12 -142
-9 -28 -18 -34 -18 -56 -6 -47 27 -53 28 -70 17 -28 -17 -35 30 -14 88 21 59
14 80 -25 80 -31 0 -61 -30 -61 -60 0 -23 -60 -77 -92 -82 -16 -3 -28 -2 -28
3 0 5 27 37 60 72 64 68 70 81 44 91 -19 7 -31 -1 -96 -63 -26 -25 -50 -42
-54 -39 -3 4 8 26 24 50 29 43 36 59 33 86 -2 23 -45 12 -78 -20 l-32 -31 2
44 c3 57 -22 64 -63 17 -16 -18 -40 -46 -55 -63 l-26 -30 2 35 c2 55 0 60 -21
60 -12 0 -29 -14 -42 -35 -24 -36 -53 -48 -44 -17 16 55 17 69 2 81 -9 8 -16
22 -16 33 0 26 -27 34 -48 15 -10 -10 -27 -14 -39 -11 -16 4 -26 -1 -38 -20
-21 -32 -25 -32 -59 -1 -28 26 -51 32 -61 15 -9 -15 -25 -12 -25 4 0 52 -78
57 -117 8 -18 -21 -23 -23 -23 -9 0 23 -26 33 -45 17 -11 -9 -22 -9 -46 -1
-18 6 -45 11 -60 11 -26 0 -28 2 -26 43 2 39 0 42 -25 45 -23 3 -31 -3 -45
-32 -17 -37 -27 -44 -38 -26 -10 17 -41 11 -71 -12 l-29 -23 28 38 c30 40 30
67 0 67 -10 0 -47 -23 -82 -50 -35 -27 -67 -47 -72 -44 -5 3 3 22 17 44 28 42
29 83 1 88 -10 2 -53 -25 -101 -62 -76 -59 -106 -76 -106 -61 0 3 9 24 20 46
12 22 18 44 15 49 -13 21 -44 9 -65 -26 -26 -42 -33 -38 -34 19 -1 35 -4 42
-21 42 -11 0 -29 -14 -41 -32 l-21 -32 -6 46 c-3 27 -13 54 -25 66 -18 18 -25
19 -47 9 -16 -8 -33 -28 -42 -52 -9 -22 -20 -40 -25 -40 -11 0 -10 4 8 44 21
43 13 66 -23 66 -21 0 -33 8 -45 30 -12 22 -25 30 -44 30 -24 0 -26 -3 -22
-32 3 -18 8 -40 12 -48 7 -16 -18 -59 -28 -49 -3 3 -14 38 -24 76 -10 39 -24
78 -30 86 -16 19 -49 11 -63 -14 -11 -21 -49 -25 -67 -7 -10 10 -17 10 -33 0
-17 -11 -25 -10 -52 7 -18 11 -38 29 -45 41 -8 14 -19 19 -29 16 -14 -6 -80
15 -158 49 -16 7 -79 23 -140 35 -123 25 -124 25 -146 42 -10 6 -24 8 -35 3
-11 -4 -65 -9 -121 -11 -92 -3 -103 -1 -108 16 -16 51 -62 49 -91 -5 -10 -19
-24 -35 -30 -35 -7 0 -19 -3 -28 -6 -11 -4 -19 2 -26 21 -9 24 -14 27 -40 21
-25 -5 -30 -2 -30 15 0 40 -19 62 -50 55 -27 -5 -29 -3 -32 32 -3 32 -7 37
-27 37 -27 0 -35 -17 -46 -96 -5 -41 -9 -47 -33 -51 -15 -3 -33 -7 -41 -9 -10
-3 -17 8 -21 33 -8 43 -35 78 -61 78 -12 0 -23 -17 -37 -57 -14 -41 -21 -50
-21 -32 -1 14 -5 29 -9 35 -5 5 -7 30 -4 56 l4 46 231 116 c128 63 304 145
392 181 88 36 169 69 180 74 27 13 48 13 125 0z m-1352 -691 c-4 -45 -22 -54
-65 -34 -39 18 -39 18 9 51 40 28 59 22 56 -17z m160 -10 c3 -37 -29 -128 -45
-128 -25 1 -55 44 -66 95 -14 67 -6 77 63 73 44 -3 45 -4 48 -40z m1167 32
c211 -24 377 -82 519 -180 82 -56 214 -176 205 -185 -3 -3 -37 1 -75 9 -92 19
-204 22 -409 13 -201 -9 -341 -28 -516 -67 -294 -67 -544 -151 -779 -261 -145
-68 -153 -65 -99 43 69 137 199 292 329 393 236 183 534 268 825 235z m-1135
-20 c0 -5 -5 -10 -11 -10 -5 0 -7 5 -4 10 3 6 8 10 11 10 2 0 4 -4 4 -10z m84
-20 c15 -5 26 -17 26 -27 0 -34 -14 -42 -58 -36 -32 4 -42 10 -42 23 0 48 22
60 74 40z m130 -6 c9 -3 16 -16 16 -28 0 -18 -6 -21 -43 -21 -35 0 -42 3 -45
22 -4 26 36 41 72 27z m86 -8 c0 -2 -7 -9 -15 -16 -12 -10 -15 -10 -15 4 0 9
7 16 15 16 8 0 15 -2 15 -4z m-651 -142 c143 -19 312 -50 368 -67 l42 -12 -33
-42 c-17 -22 -50 -67 -72 -99 -21 -33 -43 -62 -49 -66 -5 -4 -35 -8 -66 -8
-38 0 -75 -8 -114 -25 -31 -14 -78 -28 -104 -32 -54 -7 -182 -73 -141 -72 14
0 39 6 55 13 19 8 54 11 95 8 57 -4 73 -1 118 22 51 26 122 33 122 13 0 -5 -5
-27 -11 -47 -9 -30 -22 -44 -58 -63 -73 -39 -139 -58 -240 -68 -55 -5 -103
-15 -115 -24 -12 -8 -41 -31 -66 -50 -35 -27 -54 -35 -88 -35 -31 0 -63 -11
-116 -40 -40 -22 -80 -40 -89 -40 -10 0 -17 -4 -17 -10 0 -18 37 -10 96 21 53
28 63 30 121 23 60 -6 66 -5 126 31 58 35 67 37 137 36 41 -1 101 5 133 14 32
8 60 15 62 15 2 0 -20 -33 -49 -74 -29 -41 -56 -86 -60 -100 -4 -18 -22 -34
-57 -51 -27 -14 -66 -41 -87 -59 -20 -18 -55 -45 -77 -59 -49 -33 -30 -35 33
-3 26 13 70 26 99 28 l52 5 0 -67 c0 -36 3 -78 6 -93 5 -19 3 -27 -6 -27 -7 0
-31 -9 -53 -20 -23 -10 -69 -24 -104 -29 -41 -7 -80 -21 -109 -41 -46 -30 -70
-35 -148 -31 -54 3 -120 -24 -146 -61 -20 -28 -24 -29 -73 -23 -62 8 -86 -8
-86 -56 0 -39 -24 -47 -105 -35 -74 11 -95 1 -95 -46 0 -25 -6 -32 -43 -48
-23 -10 -78 -26 -122 -35 -90 -18 -135 -33 -135 -46 0 -5 -28 -23 -61 -40 -34
-17 -105 -60 -159 -95 -87 -59 -99 -64 -124 -54 -24 9 -31 6 -63 -25 -20 -19
-41 -35 -46 -35 -6 0 -24 -12 -41 -27 l-29 -28 20 35 c58 100 158 264 205 335
45 67 62 84 108 107 43 21 64 26 96 22 35 -4 47 0 72 21 27 23 37 25 76 20 52
-8 94 9 158 64 24 20 81 54 128 75 100 46 98 45 81 55 -31 20 -145 -19 -263
-90 -64 -39 -69 -40 -104 -29 -35 12 -37 11 -78 -29 -23 -23 -51 -41 -63 -41
-11 0 -40 -7 -63 -15 -24 -8 -44 -14 -46 -13 -1 2 56 81 127 176 119 158 135
175 188 202 50 25 66 28 114 23 79 -8 100 0 173 68 53 49 70 60 89 55 13 -3
26 -2 30 3 3 5 -14 13 -37 16 -35 5 -55 1 -110 -24 -71 -33 -133 -40 -161 -18
-14 11 -4 25 90 127 58 63 113 118 122 122 9 4 41 7 71 8 54 0 128 26 160 55
11 10 35 14 76 12 49 -2 69 3 119 29 33 18 62 40 64 49 3 16 -2 17 -40 11 -24
-4 -84 -11 -134 -15 -70 -5 -102 -13 -143 -34 -30 -16 -63 -27 -75 -25 -17 2
-6 16 59 74 43 39 90 75 104 79 14 4 56 23 93 41 54 27 79 34 120 33 85 -2
167 18 167 42 0 12 -235 8 -265 -5 -26 -11 47 53 199 176 67 54 127 98 135 98
8 0 66 -7 130 -16z m2113 -228 c71 -14 218 -65 290 -101 46 -24 77 -54 99 -97
29 -58 26 -72 -16 -64 -50 10 -46 -10 15 -67 27 -25 57 -61 66 -79 20 -38 23
-124 6 -156 l-13 -22 -37 19 c-60 31 -134 49 -306 76 -233 37 -287 47 -282 52
2 3 45 8 95 12 50 5 94 11 98 15 33 32 -219 36 -388 6 -171 -31 -217 -38 -294
-45 -336 -29 -616 -135 -870 -329 -70 -54 -93 -66 -123 -66 -99 0 -162 -44
-218 -151 -22 -42 -53 -82 -77 -101 -37 -30 -40 -31 -52 -14 -8 10 -16 40 -20
66 -8 62 15 115 109 249 63 91 77 121 57 121 -6 0 -37 -34 -71 -75 -81 -99
-94 -99 -85 3 16 193 31 229 127 309 98 82 400 212 758 328 298 96 455 121
680 111 69 -4 150 -2 180 3 86 13 191 12 272 -3z m423 -37 c11 -17 -1 -21 -15
-4 -8 9 -8 15 -2 15 6 0 14 -5 17 -11z m234 -99 c79 -106 111 -155 111 -170 0
-11 41 -72 64 -95 9 -9 16 -24 16 -33 0 -9 16 -44 36 -77 20 -33 40 -71 44
-85 3 -14 16 -30 29 -36 55 -28 92 -84 54 -84 -25 0 -40 12 -45 35 -3 16 -11
20 -45 19 -37 0 -42 3 -57 33 -9 19 -16 40 -16 48 0 8 -4 15 -9 15 -5 0 -23
13 -39 29 -22 20 -29 34 -25 49 4 16 -1 24 -21 33 -14 7 -26 19 -26 27 0 16
-45 62 -60 62 -12 0 -26 28 -34 70 -9 47 -51 109 -82 121 -21 8 -25 14 -20 34
5 18 2 25 -8 25 -7 0 -17 11 -20 25 -4 17 -12 25 -23 23 -10 -2 -19 5 -21 15
-3 15 5 17 60 17 l63 -1 74 -99z m106 51 c49 -13 125 -89 125 -125 0 -14 11
-36 25 -48 26 -24 54 -68 80 -125 8 -18 21 -36 29 -40 17 -10 46 -66 46 -89 0
-9 27 -43 60 -76 34 -32 60 -67 60 -78 0 -11 9 -29 20 -40 l20 -20 -61 0 -61
0 -54 58 c-29 31 -54 63 -54 69 0 7 -16 30 -35 52 -19 21 -35 46 -35 56 0 9
-13 33 -30 52 -16 18 -30 44 -30 57 0 14 -10 30 -25 40 -17 11 -25 26 -25 44
0 16 -8 32 -19 39 -27 17 -75 92 -94 147 -15 44 -15 47 1 42 9 -3 35 -9 57
-15z m224 -63 c47 -55 101 -128 101 -138 0 -5 9 -15 20 -22 11 -7 20 -23 20
-35 0 -13 27 -52 66 -95 36 -40 74 -90 85 -112 21 -40 82 -106 98 -106 8 0 41
-43 41 -54 0 -7 -62 -26 -87 -26 -32 0 -105 69 -148 139 -19 32 -44 66 -56 77
-12 10 -33 42 -45 69 -13 28 -40 70 -59 95 -19 25 -39 54 -44 65 -5 11 -21 31
-35 44 -14 14 -26 34 -26 45 0 12 -12 39 -26 60 l-27 39 47 -6 c35 -5 53 -14
75 -39z m118 12 c49 -11 113 -58 113 -82 0 -5 20 -28 45 -51 25 -24 45 -51 45
-60 0 -9 13 -23 30 -32 19 -10 32 -27 39 -49 5 -19 25 -51 45 -71 20 -19 36
-43 36 -52 0 -9 7 -25 16 -34 9 -10 18 -30 20 -45 1 -14 10 -34 18 -43 9 -10
16 -27 16 -39 0 -19 -6 -22 -40 -22 -29 0 -40 4 -40 15 0 9 -14 35 -30 58 -17
23 -41 58 -53 77 -13 19 -35 41 -50 48 -15 7 -27 21 -27 31 0 10 -11 26 -25
35 -14 9 -25 24 -25 34 0 9 -19 37 -42 62 -23 25 -54 63 -69 85 -14 22 -37 52
-50 66 -13 14 -34 40 -47 58 l-23 32 23 -5 c13 -3 47 -10 75 -16z m-577 -81
c0 -14 7 -19 26 -19 15 0 23 -4 19 -11 -4 -6 2 -20 13 -32 11 -12 25 -39 31
-59 7 -21 24 -47 39 -59 15 -11 29 -30 32 -42 3 -12 16 -26 28 -32 15 -7 22
-18 22 -37 0 -15 10 -36 21 -47 l22 -20 -24 -30 c-18 -23 -31 -30 -54 -28 -26
2 -30 7 -40 47 -8 33 -18 48 -38 58 -18 9 -28 23 -33 47 -3 19 -13 40 -21 46
-26 22 -46 73 -53 139 -4 36 -11 79 -16 95 -7 27 -6 29 9 16 10 -7 17 -22 17
-32z m842 15 c9 -3 29 -21 44 -42 15 -20 49 -62 74 -92 52 -62 80 -104 80
-120 0 -7 20 -38 45 -70 25 -32 45 -66 45 -74 0 -9 5 -16 10 -16 6 0 10 -10
10 -23 0 -27 53 -112 75 -121 8 -3 15 -13 15 -22 0 -25 -48 -12 -125 35 -51
30 -71 50 -91 87 -17 33 -22 50 -15 57 18 18 12 35 -14 41 -14 4 -25 11 -25
16 0 14 -60 112 -82 133 -10 10 -18 24 -18 32 0 7 -13 23 -30 35 -18 13 -34
37 -42 62 -6 22 -17 42 -24 45 -7 3 -20 16 -29 30 l-17 26 48 -7 c27 -4 56 -9
66 -12z m200 -61 c62 -29 77 -40 73 -54 -4 -11 3 -24 20 -37 14 -11 25 -24 25
-29 0 -5 11 -19 25 -31 14 -12 25 -28 25 -35 0 -7 9 -20 20 -30 11 -9 20 -23
20 -31 0 -7 7 -19 15 -26 7 -6 17 -31 21 -55 3 -25 13 -50 21 -56 12 -11 83
-150 83 -164 0 -3 -19 -3 -42 0 -28 3 -48 12 -58 26 -8 11 -30 38 -47 59 -18
20 -33 44 -33 53 0 9 -4 18 -9 21 -4 3 -11 19 -15 36 -3 17 -19 45 -36 61 -17
17 -28 35 -25 40 4 5 -5 20 -19 33 -13 14 -27 40 -31 58 -5 20 -27 51 -56 80
-27 26 -49 57 -49 68 0 11 -7 23 -15 26 -18 7 -20 24 -3 24 7 0 47 -16 90 -37z
m4421 -227 l61 -69 -49 26 c-28 13 -124 48 -215 76 -277 87 -380 128 -327 132
64 5 107 13 197 37 l105 28 83 -80 c46 -45 111 -112 145 -150z m-3543 204 c-8
-5 -19 -10 -25 -10 -5 0 -3 5 5 10 8 5 20 10 25 10 6 0 3 -5 -5 -10z m-678
-51 c34 -9 78 -49 78 -71 0 -5 8 -21 19 -36 10 -15 26 -40 35 -56 25 -41 40
-19 18 26 -10 19 -28 48 -40 63 -12 15 -22 33 -22 40 0 21 71 -5 80 -29 11
-28 100 -114 100 -97 0 8 -11 29 -25 47 -36 48 -31 54 26 36 41 -13 57 -25 77
-57 58 -92 67 -105 75 -105 15 0 6 27 -28 77 l-35 52 47 -14 c57 -17 159 -113
169 -158 6 -30 51 -96 111 -165 25 -28 33 -33 33 -19 0 19 -80 150 -99 161 -6
4 -11 21 -11 37 0 21 -12 43 -41 74 -44 47 -44 65 -1 65 18 0 40 -15 74 -50
26 -28 48 -57 48 -66 0 -8 7 -17 15 -20 8 -4 15 -15 15 -25 0 -11 11 -29 25
-41 14 -12 25 -27 25 -33 0 -7 9 -20 19 -30 20 -17 20 -16 10 21 -6 22 -19 48
-30 60 -10 11 -19 30 -19 41 0 11 -7 26 -15 33 -8 7 -15 17 -15 22 0 6 -18 32
-40 58 l-40 48 27 10 c50 17 69 -2 132 -132 48 -100 58 -129 56 -169 -2 -67
-45 -97 -165 -116 -69 -11 -90 -4 -90 31 0 10 -10 29 -22 42 -13 12 -36 40
-53 62 -33 44 -60 74 -54 59 9 -22 61 -122 84 -163 l25 -43 -43 3 c-39 3 -43
6 -67 53 -14 28 -43 78 -65 111 -22 34 -48 76 -57 93 -9 17 -22 31 -28 31 -7
0 -5 -9 4 -22 9 -12 16 -30 16 -39 0 -28 63 -136 115 -198 l20 -24 -54 7 c-65
8 -71 12 -71 35 0 10 -6 24 -14 30 -8 7 -17 24 -21 39 -3 15 -17 38 -29 52
-13 14 -35 45 -49 70 -15 25 -27 38 -27 30 0 -19 30 -100 47 -125 7 -11 13
-27 13 -36 0 -9 10 -29 22 -44 l22 -28 -58 7 c-32 3 -63 9 -68 12 -10 6 -60
114 -77 167 -7 19 -19 41 -27 47 -7 7 -14 21 -14 32 0 11 -9 31 -20 45 -11 14
-20 32 -20 39 0 8 -5 14 -10 14 -6 0 -16 12 -22 28 -7 15 -30 49 -52 76 l-41
49 30 -7 c17 -4 47 -11 67 -17z m3573 -32 c199 -74 313 -113 447 -156 113 -35
190 -67 273 -113 114 -62 117 -65 206 -175 49 -61 89 -114 89 -117 0 -3 -6 -6
-14 -6 -7 0 -19 -7 -26 -15 -9 -10 -16 -12 -25 -5 -7 6 -18 5 -33 -5 -20 -15
-21 -14 -24 22 -2 31 -7 39 -26 41 -12 2 -20 8 -17 13 10 15 -14 10 -41 -8
-25 -16 -27 -16 -43 6 -16 21 -21 22 -55 12 -35 -9 -38 -9 -33 10 6 22 -23 42
-47 33 -13 -5 -16 1 -16 30 0 44 -14 47 -29 6 -5 -16 -16 -30 -24 -30 -8 0
-20 -7 -27 -15 -19 -23 -28 -18 -45 21 -12 28 -19 35 -34 31 -11 -3 -22 -2
-24 2 -2 3 -2 1 -1 -6 4 -18 -16 -73 -27 -73 -12 0 -11 7 2 31 23 44 1 39 -25
-6 -19 -32 -31 -43 -36 -35 -4 7 -13 9 -19 6 -6 -4 -15 3 -21 18 -13 36 -28
32 -47 -11 -40 -97 -36 -91 -40 -65 -5 26 -28 29 -37 5 -6 -14 -9 -15 -15 -4
-6 9 -11 10 -15 2 -9 -14 -53 -14 -61 -1 -4 7 -13 7 -26 0 -24 -14 -26 6 -2
32 28 31 7 31 -30 -1 -19 -17 -39 -31 -45 -31 -19 0 -31 32 -21 57 14 37 2 52
-39 50 -36 -2 -37 -1 -46 40 -7 28 -16 43 -29 47 -17 4 -18 8 -8 20 8 10 9 16
1 21 -6 4 -29 -9 -50 -29 -22 -20 -42 -36 -45 -36 -2 0 3 16 11 35 7 19 14 41
14 50 0 17 -35 21 -45 5 -10 -17 -25 -11 -25 10 0 26 -6 25 -42 -5 -29 -25
-81 -34 -93 -16 -3 5 0 21 6 35 18 39 1 45 -28 11 l-26 -30 18 30 c10 17 24
39 32 50 20 30 16 40 -8 19 -16 -14 -23 -15 -26 -6 -7 19 -23 14 -23 -7 0 -30
-17 -34 -24 -6 -4 14 -11 25 -16 25 -6 0 -10 7 -10 16 0 12 -6 11 -32 -8 -18
-12 -40 -21 -50 -20 -13 2 -21 -9 -31 -45 -11 -38 -19 -47 -33 -45 -11 2 -44
4 -74 6 l-55 3 -10 41 c-15 59 -25 62 -25 9 0 -44 -1 -46 -19 -35 -26 16 -51
-4 -51 -41 0 -30 -22 -76 -53 -109 -20 -22 -22 -22 -34 -5 -11 15 -17 15 -33
5 -25 -15 -26 -2 -5 58 20 57 19 70 -4 40 -17 -21 -21 -22 -35 -10 -13 10 -20
10 -28 2 -17 -17 -31 -15 -24 3 3 9 0 15 -10 15 -10 0 -14 6 -10 15 4 12 2 13
-13 5 -11 -5 -42 -15 -69 -20 -43 -10 -51 -15 -60 -43 l-10 -32 -1 33 c-1 40
-24 39 -29 0 -2 -15 -9 -29 -17 -32 -19 -7 -38 20 -32 44 7 27 -22 27 -57 -1
l-26 -20 0 25 c0 22 -4 26 -30 26 -24 0 -30 4 -31 23 l0 22 -11 -22 c-7 -15
-20 -23 -35 -23 -19 0 -29 -11 -48 -52 -17 -36 -25 -46 -25 -30 0 29 -26 29
-41 0 -8 -14 -14 -18 -17 -10 -7 22 -31 13 -38 -15 -4 -16 -9 -31 -11 -35 -8
-14 -32 4 -42 33 -12 34 -26 37 -42 7 l-11 -21 -18 23 c-10 13 -22 20 -29 16
-6 -4 -11 -1 -11 8 0 27 -29 17 -45 -15 -11 -20 -21 -29 -31 -25 -9 3 -29 -1
-45 -10 -30 -15 -31 -15 -74 25 -51 47 -52 47 -77 24 -17 -15 -18 -15 -18 4 0
29 15 38 105 62 44 12 114 35 155 51 241 91 294 111 385 140 55 18 109 39 120
46 27 19 89 17 198 -6 73 -15 140 -20 322 -22 l230 -3 74 38 c109 57 316 98
461 93 58 -2 123 -11 145 -19z m-2727 -74 c51 -72 112 -205 112 -243 0 -22 -4
-40 -10 -40 -5 0 -10 7 -10 14 0 8 -12 21 -27 28 -19 9 -43 45 -84 128 -32 63
-58 121 -59 128 0 7 12 12 29 12 21 0 35 -8 49 -27z m109 -8 c27 -18 91 -138
95 -178 3 -28 0 -32 -24 -34 -18 -1 -28 3 -28 12 0 16 -36 81 -61 110 -17 20
-59 99 -59 111 0 9 51 -5 77 -21z m296 -90 c20 -31 37 -61 37 -68 0 -6 7 -21
15 -31 22 -29 18 -43 -11 -50 -32 -8 -46 3 -92 74 -27 42 -72 140 -72 157 0 1
19 -5 43 -13 34 -11 51 -26 80 -69z m-154 62 c6 -8 17 -33 26 -56 8 -23 24
-54 35 -68 11 -14 20 -35 20 -46 0 -11 8 -29 17 -39 15 -17 15 -19 -3 -33 -27
-20 -38 -14 -42 24 -2 21 -10 35 -20 38 -19 5 -92 126 -92 152 0 9 -5 22 -12
29 -9 9 -4 12 24 12 19 0 41 -6 47 -13z m218 -22 c26 -5 35 -14 49 -51 9 -24
23 -49 30 -55 24 -20 17 -56 -13 -63 -28 -8 -31 -5 -63 56 -11 20 -31 53 -45
74 -29 43 -32 57 -7 50 9 -2 31 -7 49 -11z m-3022 -39 c266 -40 307 -52 349
-95 51 -53 52 -121 1 -100 -38 15 -88 9 -130 -16 -49 -28 -59 -46 -41 -71 11
-15 24 -16 87 -11 79 5 109 -3 109 -32 0 -9 -11 -48 -24 -87 l-23 -69 -69 3
c-91 5 -109 18 -125 87 -13 60 -25 76 -36 50 -16 -43 73 -229 174 -367 94
-127 112 -210 58 -264 -21 -21 -33 -24 -100 -24 -46 0 -90 6 -113 16 -24 10
-53 13 -82 10 -30 -4 -60 0 -90 12 -44 17 -45 19 -46 62 -1 52 -14 60 -42 25
-17 -21 -19 -31 -11 -53 6 -14 15 -32 21 -39 8 -10 4 -13 -20 -13 -45 0 -119
-27 -177 -65 -27 -17 -70 -43 -95 -58 -25 -14 -62 -42 -83 -61 -20 -20 -39
-36 -42 -36 -11 0 -70 -73 -117 -143 -43 -64 -96 -175 -112 -237 -7 -24 -6
-24 8 -6 8 10 17 23 19 29 1 5 8 8 14 6 8 -3 8 -14 -1 -41 -7 -20 -10 -42 -5
-49 5 -9 10 -3 15 17 4 16 10 34 14 39 4 6 19 42 34 80 15 39 48 108 72 154
24 47 44 91 44 98 0 8 7 16 15 19 8 4 15 10 15 15 0 14 50 59 65 59 12 0 13
-5 3 -27 -7 -16 -23 -41 -35 -56 -13 -16 -23 -38 -22 -50 1 -21 1 -21 7 -2 15
45 151 188 225 236 69 45 156 68 190 51 18 -10 267 -32 353 -32 30 0 38 -19
29 -66 l-6 -36 -25 23 c-13 12 -26 20 -30 17 -3 -3 5 -39 18 -79 19 -61 23
-95 22 -194 0 -111 -3 -128 -37 -228 -20 -59 -37 -116 -37 -127 0 -19 -1 -20
-25 -4 -23 15 -24 15 -29 -8 -3 -12 -7 -52 -10 -88 -4 -36 -20 -114 -36 -175
-16 -60 -30 -116 -30 -123 0 -29 34 -5 47 33 25 69 63 226 63 259 0 18 7 41
15 52 22 29 34 2 36 -81 l1 -70 12 60 c8 39 9 75 3 103 -8 40 -4 63 8 50 3 -3
11 -36 16 -73 17 -107 -18 -255 -60 -255 -14 0 -32 -20 -60 -68 -47 -80 -104
-135 -169 -163 -57 -25 -132 -36 -132 -20 0 6 5 11 10 11 6 0 10 4 10 8 0 4
-38 13 -85 19 -47 7 -109 23 -138 36 -48 22 -55 23 -75 9 -20 -13 -28 -12 -80
11 -31 14 -67 28 -80 32 -12 4 -32 25 -44 48 -19 39 -21 40 -29 19 -5 -12 -11
-22 -15 -22 -14 0 -151 111 -171 138 -69 93 -87 328 -47 606 6 39 4 48 -7 44
-43 -14 -62 -247 -35 -438 18 -128 20 -190 7 -190 -11 0 -44 17 -98 52 -93 61
-233 213 -233 255 0 8 -8 23 -19 34 -10 11 -21 34 -25 50 -5 24 -10 30 -28 27
-17 -2 -28 7 -45 37 -37 63 -29 126 34 260 64 136 101 244 108 321 6 55 5 58
-10 39 -9 -11 -29 -60 -44 -110 -40 -128 -111 -305 -122 -305 -13 0 -11 73 6
165 8 44 15 95 15 114 l0 34 -29 -39 c-77 -107 -145 -120 -218 -42 -44 47
-241 388 -253 438 -24 102 19 224 95 267 47 27 122 30 165 8 17 -9 42 -20 57
-26 l28 -10 -32 33 c-18 19 -33 37 -33 40 0 10 239 144 352 197 96 46 195 81
225 81 24 0 14 -27 -34 -91 -58 -79 -130 -151 -217 -214 -36 -27 -66 -52 -66
-57 0 -17 28 -5 100 42 41 27 77 47 82 44 10 -6 -10 -61 -40 -109 -14 -22 -59
-75 -100 -117 -42 -43 -73 -81 -69 -84 3 -3 27 9 54 27 107 74 172 168 193
278 8 42 19 64 53 100 23 25 64 80 90 122 26 42 58 81 71 87 28 13 179 40 251
46 28 2 154 2 280 1 185 -3 263 -8 400 -29z m3168 -2 c14 -14 30 -39 36 -55 9
-27 8 -31 -14 -41 -34 -15 -49 -6 -65 41 -7 23 -19 46 -27 52 -21 18 -15 29
16 29 17 0 38 -10 54 -26z m87 -11 c0 -9 7 -24 16 -34 14 -16 14 -18 -5 -28
-17 -10 -23 -8 -35 11 -7 13 -17 33 -21 46 -5 19 -3 22 19 22 18 0 26 -5 26
-17z m87 7 c22 0 11 -32 -14 -41 -18 -6 -25 -4 -33 12 -13 23 -4 43 17 35 8
-3 21 -6 30 -6z m70 -6 c-3 -3 -12 -4 -19 -1 -8 3 -5 6 6 6 11 1 17 -2 13 -5z
m-2637 -129 c0 -8 -7 -15 -15 -15 -16 0 -20 12 -8 23 11 12 23 8 23 -8z m-235
-46 c27 -17 86 -48 133 -70 48 -22 101 -55 123 -78 46 -46 101 -73 201 -100
41 -11 101 -36 133 -56 79 -47 137 -63 271 -75 75 -7 152 -22 235 -46 68 -20
153 -44 189 -54 36 -9 101 -34 145 -56 69 -33 91 -39 170 -44 77 -5 96 -10
129 -33 33 -23 68 -36 198 -73 9 -3 38 -22 63 -43 46 -38 125 -71 171 -71 12
0 26 -5 30 -11 3 -6 18 -9 33 -6 18 4 38 -2 64 -20 34 -24 183 -81 266 -103
22 -5 54 -5 85 1 53 11 346 2 346 -10 0 -4 -7 -18 -17 -31 -13 -20 -9 -18 18
8 22 19 45 32 62 32 37 0 169 -27 242 -50 33 -10 72 -21 88 -24 24 -6 26 -9
17 -27 -6 -11 -35 -30 -64 -43 -41 -18 -59 -34 -83 -73 -27 -44 -34 -49 -60
-46 -26 4 -30 0 -56 -57 -26 -56 -34 -64 -82 -85 -41 -18 -58 -34 -79 -69 -20
-34 -51 -62 -117 -107 -50 -33 -98 -74 -107 -90 -10 -16 -28 -33 -42 -38 -42
-15 -145 -105 -148 -129 -2 -12 -26 -41 -54 -65 -28 -23 -72 -60 -97 -83 -25
-22 -65 -55 -88 -73 -48 -37 -55 -67 -23 -96 17 -16 25 -17 59 -7 61 19 93 49
86 82 -5 23 0 31 32 55 21 16 92 81 158 145 66 64 135 127 153 140 18 12 37
32 42 45 4 12 40 40 78 63 71 42 132 101 132 128 0 8 19 23 43 33 39 17 117
92 117 113 0 4 9 8 19 8 20 0 66 48 93 99 10 17 25 34 35 37 60 20 77 32 106
75 36 56 40 57 149 33 40 -9 131 -18 203 -21 80 -3 160 -12 210 -24 116 -29
615 -53 725 -36 19 3 40 1 47 -5 7 -6 13 -7 13 -2 0 5 44 10 97 12 54 2 127
10 163 19 210 49 332 54 492 23 91 -18 414 -44 507 -41 19 1 75 12 125 26 115
32 128 31 147 -2 24 -42 18 -100 -20 -177 -24 -49 -31 -76 -27 -97 4 -22 1
-32 -14 -41 -27 -17 -26 -58 0 -65 21 -5 21 -6 1 -19 -11 -8 -25 -31 -31 -52
-7 -20 -28 -66 -46 -102 -21 -41 -32 -73 -28 -86 3 -13 -2 -33 -11 -48 -14
-21 -15 -29 -5 -40 6 -8 18 -12 26 -9 27 10 14 -16 -15 -32 -40 -20 -73 -64
-66 -86 5 -13 -11 -35 -54 -78 -65 -64 -74 -87 -39 -100 14 -5 17 -10 10 -15
-7 -4 -12 -17 -12 -29 0 -13 -14 -35 -31 -49 -23 -21 -30 -34 -27 -55 3 -24 8
-28 41 -31 42 -4 49 -22 14 -41 -28 -15 -81 -107 -73 -126 5 -14 -6 -19 -59
-27 -32 -5 -31 -36 2 -49 l28 -11 -21 -17 c-28 -22 -50 -153 -34 -200 3 -9
-10 -19 -37 -28 -33 -11 -43 -20 -43 -36 -1 -14 -13 -30 -33 -42 -25 -16 -33
-28 -35 -58 -3 -37 12 -72 28 -62 4 2 15 -2 25 -9 26 -19 12 -61 -30 -89 -19
-12 -35 -30 -35 -40 0 -10 -18 -35 -40 -56 -48 -45 -50 -65 -9 -90 23 -14 27
-20 15 -24 -9 -4 -16 -13 -16 -22 0 -9 -9 -15 -24 -15 -29 0 -50 -23 -42 -48
4 -13 -3 -25 -24 -40 -33 -25 -39 -64 -15 -96 13 -17 12 -21 -10 -38 -46 -36
-22 -92 65 -150 25 -17 25 -17 -30 -17 -98 -1 -132 -54 -67 -105 27 -22 29
-28 17 -36 -8 -5 -35 -10 -59 -10 -78 0 -107 -57 -55 -105 14 -13 23 -29 19
-35 -10 -17 4 -48 26 -55 10 -4 19 -10 19 -15 0 -14 -50 -36 -95 -43 -21 -4
-52 -16 -68 -28 -23 -17 -38 -20 -72 -16 -75 11 -278 107 -225 107 14 0 12 30
-2 35 -9 4 -12 22 -10 55 3 32 -1 56 -9 67 -12 13 -9 19 19 43 40 33 40 45 1
66 -30 15 -31 17 -14 32 13 13 19 14 22 4 3 -7 11 -19 20 -27 13 -13 18 -13
44 0 41 22 62 59 71 124 16 122 25 159 46 186 12 15 22 33 22 40 0 8 8 11 18
8 10 -2 24 3 31 11 8 9 22 16 32 16 26 0 33 19 15 39 -21 24 -21 26 15 76 30
42 31 46 16 68 -14 22 -13 25 34 68 54 49 58 59 29 77 -29 18 -25 30 16 49 34
17 35 20 32 62 -3 43 -2 45 62 99 69 58 96 89 86 99 -3 4 -14 -1 -24 -10 -10
-10 -24 -17 -30 -17 -19 0 23 74 52 94 30 19 33 38 10 61 -15 15 -15 18 7 41
18 19 21 29 13 42 -9 13 -5 20 20 37 39 26 45 53 15 75 -34 26 -19 52 28 48
37 -3 38 -2 38 32 -1 23 5 40 18 49 15 10 17 21 12 52 -6 35 -4 40 17 48 32
12 45 29 51 71 14 84 23 113 40 121 9 5 25 13 35 18 24 11 27 39 7 61 -20 22
-12 40 16 40 28 0 32 18 16 94 -13 65 -13 67 7 78 38 19 86 72 86 94 0 12 -9
28 -21 36 -20 13 -20 16 -7 48 8 19 22 41 31 49 10 7 17 19 17 25 0 7 11 23
25 36 29 27 31 42 10 60 -10 9 -12 17 -5 30 5 9 12 30 14 46 3 16 12 55 21 87
8 32 15 67 15 77 0 25 -19 26 -26 3 -3 -10 -10 -27 -16 -38 -6 -11 -12 -30
-14 -42 -3 -32 -23 -93 -42 -130 -12 -25 -13 -34 -4 -46 10 -12 5 -26 -26 -73
-21 -33 -44 -75 -51 -94 -10 -30 -9 -38 8 -61 19 -25 19 -28 3 -42 -9 -8 -36
-24 -59 -36 -47 -24 -49 -27 -28 -55 24 -32 19 -94 -11 -129 -19 -22 -24 -38
-20 -58 4 -22 1 -28 -18 -33 -19 -5 -24 -14 -29 -58 -6 -49 -19 -70 -51 -81
-8 -3 -7 -11 2 -26 11 -19 10 -22 -12 -31 -32 -12 -40 -27 -38 -67 2 -30 -1
-34 -28 -40 -26 -5 -31 -10 -28 -32 2 -18 -3 -29 -17 -36 -17 -9 -20 -21 -21
-75 l-1 -65 -44 -5 c-36 -4 -45 -9 -47 -27 -2 -13 0 -23 5 -23 4 0 16 -7 27
-15 16 -12 17 -17 5 -45 -9 -19 -29 -40 -52 -51 -68 -35 -102 -156 -47 -169
l25 -6 -23 -15 c-28 -17 -197 -216 -217 -256 -21 -39 -19 -80 5 -110 25 -32
27 -82 3 -89 -53 -16 -67 -54 -24 -64 22 -5 21 -6 -10 -18 -26 -9 -43 -28 -69
-74 -24 -42 -45 -65 -66 -74 -41 -17 -56 -37 -53 -71 4 -48 -11 -79 -57 -117
-48 -41 -84 -100 -84 -142 0 -16 -11 -35 -30 -52 -17 -15 -30 -36 -30 -49 0
-13 -6 -23 -15 -23 -7 0 -18 -7 -22 -15 -7 -12 -15 -11 -48 12 -22 14 -41 27
-43 28 -9 8 29 75 43 75 8 0 20 11 25 25 8 22 12 24 37 14 15 -6 36 -18 46
-26 9 -9 20 -13 24 -10 11 12 -38 56 -69 62 -35 8 -46 30 -28 59 8 11 22 37
32 56 10 19 24 35 32 35 15 0 150 198 173 255 12 27 13 42 4 72 -10 33 -9 43
12 85 13 26 27 61 31 77 4 17 38 61 78 102 75 78 84 107 35 112 -16 2 -27 9
-27 18 0 24 29 73 49 84 11 5 35 39 55 74 20 36 41 68 46 71 5 3 8 19 8 37 -1
22 6 36 25 50 14 10 36 36 48 56 12 20 31 47 42 59 16 18 18 27 10 45 -13 29
24 125 84 217 28 42 44 79 48 110 6 46 12 76 35 161 14 52 15 77 6 105 -5 15
3 33 28 65 23 29 36 56 36 76 0 22 9 39 35 61 29 26 35 38 35 73 0 22 6 53 14
68 7 15 16 42 20 61 3 19 13 42 22 52 16 18 34 111 27 139 -3 10 2 31 11 48
21 40 21 37 -16 52 -18 7 -39 20 -45 28 -12 14 -13 14 -13 0 0 -8 10 -22 22
-30 18 -12 20 -18 11 -29 -6 -8 -13 -36 -16 -64 -8 -76 -18 -118 -33 -140 -8
-11 -14 -26 -14 -35 0 -8 -11 -36 -25 -62 -14 -26 -25 -61 -25 -79 0 -21 -10
-43 -30 -66 -16 -18 -30 -42 -30 -53 0 -10 -18 -40 -41 -66 -35 -40 -40 -52
-35 -79 5 -27 1 -39 -30 -76 -32 -38 -35 -47 -30 -84 6 -34 2 -48 -23 -87 -16
-26 -34 -63 -40 -82 -5 -20 -23 -53 -39 -74 -63 -80 -113 -211 -106 -281 2
-23 -5 -48 -22 -78 -15 -24 -23 -50 -20 -60 4 -9 -7 -36 -28 -67 -91 -138
-126 -196 -149 -247 -14 -31 -30 -60 -36 -63 -6 -4 -11 -21 -11 -37 0 -16 -18
-63 -41 -104 -24 -44 -38 -82 -35 -92 4 -12 -4 -27 -22 -44 -30 -29 -119 -193
-152 -282 -12 -32 -30 -66 -40 -75 -10 -10 -28 -38 -39 -64 -11 -26 -36 -71
-55 -100 -20 -29 -36 -61 -36 -71 0 -14 -4 -16 -19 -7 -11 5 -41 10 -67 10
-56 0 -124 19 -131 37 -3 7 4 32 16 56 12 24 21 47 21 51 0 4 12 23 26 41 14
19 32 60 41 92 12 47 24 66 64 104 40 37 49 51 49 80 0 21 12 51 30 78 17 24
30 49 30 56 0 6 11 22 25 35 17 16 23 30 19 43 -4 13 5 28 35 54 23 19 52 56
65 82 13 25 38 57 56 69 65 48 75 130 22 185 -22 23 -24 29 -12 37 22 14 40
12 40 -4 0 -7 7 -19 15 -26 32 -26 64 47 34 77 -7 7 -3 9 14 6 33 -7 59 29 47
63 -11 27 -2 86 14 96 6 4 20 -2 31 -12 14 -13 25 -16 35 -10 13 8 13 13 -3
39 -9 16 -13 32 -8 35 5 3 14 26 20 51 9 38 17 48 41 57 42 14 100 103 102
154 0 24 8 46 19 57 25 24 24 45 -3 58 -22 9 -22 9 2 4 53 -13 55 -12 55 31 0
22 5 47 11 55 14 17 74 145 74 157 0 5 9 17 20 27 11 10 20 31 20 47 0 32 36
114 83 191 26 42 28 51 17 71 -10 20 -9 28 5 50 10 14 21 26 25 26 16 0 32 61
27 97 -4 22 -2 42 6 51 7 9 12 49 13 96 1 45 5 105 9 134 6 43 4 52 -8 52 -17
0 -37 -49 -37 -89 0 -15 -4 -31 -9 -37 -14 -15 -23 -82 -11 -89 17 -11 11 -44
-10 -55 -24 -13 -26 -52 -5 -70 21 -18 19 -29 -10 -42 -14 -6 -28 -23 -32 -37
-3 -14 -15 -43 -25 -65 -12 -22 -17 -48 -14 -62 4 -14 -2 -36 -13 -56 -11 -18
-31 -63 -46 -100 -15 -37 -33 -72 -41 -79 -8 -6 -14 -24 -14 -39 0 -44 -10
-59 -52 -81 -21 -11 -57 -36 -78 -55 l-39 -36 4 -73 c4 -70 3 -74 -18 -77 -12
-2 -23 -11 -25 -22 -2 -10 -19 -34 -38 -53 -38 -37 -54 -81 -34 -93 7 -4 10
-16 7 -26 -3 -11 -8 -32 -12 -49 l-7 -30 -19 24 c-11 13 -25 21 -34 17 -18 -6
-19 -22 -4 -65 10 -29 9 -34 -15 -56 -16 -15 -23 -30 -20 -40 11 -27 -15 -45
-67 -45 -37 0 -49 -4 -49 -15 0 -9 11 -20 25 -25 41 -16 31 -48 -23 -69 -36
-15 -52 -53 -33 -83 14 -23 11 -29 -68 -133 -40 -52 -67 -99 -78 -135 -11 -40
-26 -64 -54 -88 -22 -19 -39 -40 -39 -47 0 -7 -16 -37 -35 -66 -19 -29 -49
-95 -66 -147 -29 -88 -34 -96 -75 -120 -46 -28 -52 -40 -32 -60 9 -9 7 -17 -9
-34 -11 -13 -30 -43 -42 -68 -12 -25 -32 -64 -44 -87 l-22 -41 -35 18 c-19 9
-70 28 -112 40 -43 13 -78 26 -78 29 0 7 62 30 103 38 28 6 35 21 16 40 -8 8
-8 17 0 31 15 29 14 52 -5 73 -16 17 -13 22 35 74 37 42 55 72 67 113 24 85
70 160 107 176 42 17 62 42 59 75 -1 19 9 40 34 69 22 26 34 48 30 58 -3 9 3
27 14 41 12 16 17 34 14 51 -5 25 0 30 63 62 41 21 74 46 83 62 13 25 13 29
-8 57 -12 17 -22 33 -22 35 0 3 17 13 38 21 63 27 91 61 92 114 5 168 6 171
49 171 31 0 51 16 51 41 0 10 23 37 52 62 35 30 53 53 53 69 1 14 9 35 18 48
21 30 21 39 2 60 -13 15 -10 19 30 48 25 17 45 36 45 40 0 11 -119 56 -127 49
-2 -3 1 -15 7 -27 6 -12 10 -23 8 -24 -2 -1 -18 -13 -35 -25 -18 -12 -33 -27
-33 -34 0 -19 -40 -94 -60 -112 -22 -20 -25 -46 -10 -75 12 -23 -12 -40 -58
-40 -71 0 -120 -41 -91 -76 9 -12 6 -24 -21 -67 -70 -110 -102 -177 -99 -210
3 -27 -4 -40 -42 -77 -58 -59 -80 -105 -67 -139 5 -14 14 -29 21 -33 18 -11
-22 -48 -83 -75 -91 -40 -121 -80 -80 -105 18 -12 17 -15 -27 -57 -25 -25 -54
-64 -63 -86 -10 -22 -27 -49 -40 -60 -32 -29 -53 -74 -46 -100 5 -18 0 -25
-24 -35 -30 -12 -90 -72 -90 -90 0 -4 -2 -15 -6 -23 -3 -8 6 -28 20 -45 l26
-30 -42 -17 c-23 -9 -58 -30 -77 -47 -33 -29 -37 -30 -110 -26 -92 6 -118 18
-154 69 l-27 39 44 43 c24 23 57 65 74 94 17 28 51 70 76 93 25 24 46 48 46
55 0 6 18 37 40 69 22 31 40 59 40 62 0 2 16 27 35 55 19 28 35 64 35 79 0 26
31 77 57 93 7 4 13 21 13 36 0 31 38 87 93 140 24 23 39 49 47 82 7 28 18 50
26 50 8 1 19 2 25 3 7 0 17 9 22 18 9 13 7 22 -8 38 -18 19 -18 22 -2 55 9 19
23 35 30 35 7 0 27 29 45 65 17 36 36 65 42 65 12 0 45 65 55 107 4 22 17 39
37 50 16 10 38 34 49 55 10 20 36 57 58 82 25 29 42 60 46 84 8 49 18 66 41
70 41 8 34 20 -15 27 l-51 7 -53 -51 c-46 -45 -52 -55 -52 -92 0 -41 -1 -43
-43 -56 -32 -11 -44 -21 -48 -41 -9 -38 -21 -50 -55 -57 -38 -9 -53 -38 -46
-90 6 -38 4 -43 -18 -53 -16 -7 -34 -32 -50 -68 -29 -66 -91 -154 -109 -154
-7 0 -21 -9 -32 -21 -18 -20 -18 -22 -1 -51 23 -40 22 -46 -18 -106 -27 -39
-42 -52 -60 -52 -19 0 -30 -10 -45 -40 -11 -21 -20 -50 -20 -63 0 -22 -38 -83
-85 -137 -12 -14 -27 -43 -32 -65 -6 -22 -12 -46 -14 -54 -2 -8 6 -17 18 -20
20 -5 12 -18 -93 -141 -64 -74 -156 -188 -205 -254 -87 -114 -90 -120 -87
-165 3 -42 5 -46 28 -46 23 0 25 4 24 42 l-1 42 61 -31 c34 -18 97 -44 141
-59 78 -27 81 -27 109 -9 26 16 32 16 80 2 28 -8 67 -23 86 -32 19 -10 62 -26
95 -35 33 -10 80 -28 105 -41 34 -18 61 -24 109 -24 l65 0 -28 -29 c-16 -16
-42 -35 -58 -42 -16 -6 -36 -25 -44 -40 -8 -16 -19 -29 -24 -29 -5 0 -31 -22
-58 -49 -48 -48 -49 -48 -100 -43 -60 5 -82 -7 -82 -48 0 -30 25 -47 75 -53
25 -2 19 -5 -28 -16 -69 -15 -97 -38 -90 -73 4 -23 0 -26 -41 -37 -33 -8 -50
-19 -58 -36 -6 -13 -24 -28 -39 -34 -25 -8 -29 -15 -29 -45 0 -25 -5 -36 -14
-36 -8 0 -28 -11 -44 -24 -18 -16 -36 -23 -49 -20 -52 14 -87 -51 -43 -78 16
-10 18 -20 13 -53 -5 -37 -2 -44 25 -67 l30 -25 -51 -7 c-29 -3 -66 -9 -83
-12 -29 -5 -32 -3 -38 26 -4 21 -30 57 -76 104 -95 99 -94 120 8 176 54 30 75
62 67 100 -6 28 -3 31 67 66 121 61 130 69 126 121 l-3 44 55 30 c101 55 127
103 83 151 -17 19 -16 20 7 38 14 11 42 27 63 36 64 29 41 33 -53 9 -135 -34
-165 -62 -120 -110 l19 -20 -82 -44 c-45 -24 -97 -55 -114 -68 -32 -23 -43
-56 -23 -68 24 -15 5 -36 -62 -73 -91 -50 -111 -71 -106 -113 3 -30 -1 -36
-44 -62 -46 -29 -48 -29 -91 -14 -23 8 -73 35 -110 60 -134 92 -249 99 -555
36 -116 -24 -141 -39 -151 -89 -7 -38 -10 -40 -184 -120 -49 -23 -106 -57
-127 -76 -24 -22 -41 -31 -45 -24 -4 6 1 17 10 24 24 18 16 60 -12 64 -29 4
-30 19 -2 27 15 5 25 1 35 -14 9 -12 23 -21 33 -21 24 0 169 144 187 185 7 18
25 40 39 49 21 14 25 23 21 41 -6 25 -2 28 65 39 45 8 63 28 55 61 -5 20 -3
25 11 26 10 0 38 2 63 5 139 15 145 22 95 103 -38 62 -53 71 -95 61 -28 -7
-40 -51 -20 -75 9 -11 4 -15 -27 -20 -58 -9 -102 -32 -114 -59 -7 -15 -29 -31
-58 -42 -94 -35 -199 -93 -206 -114 -4 -11 -17 -28 -31 -36 -31 -21 -32 -61
-1 -74 12 -5 18 -9 12 -9 -80 -6 -192 -24 -203 -33 -7 -7 -11 -21 -8 -33 4
-16 -6 -32 -44 -68 -33 -31 -51 -57 -55 -80 -6 -30 -12 -35 -48 -45 -23 -6
-51 -13 -63 -17 -18 -6 -25 7 -73 131 l-53 137 22 17 c14 11 25 34 31 66 5 27
16 54 25 59 9 6 24 17 35 26 11 9 48 19 85 23 79 8 124 29 124 56 0 11 11 27
25 36 26 17 33 52 14 71 -7 7 -2 13 18 18 55 13 238 96 251 113 7 9 10 27 7
39 -5 22 -3 24 57 37 15 4 53 27 84 52 31 26 71 50 89 55 l33 9 -21 40 c-20
37 -25 40 -52 34 -17 -4 -57 -32 -91 -63 -48 -45 -78 -64 -148 -90 -74 -28
-90 -39 -111 -71 -18 -29 -38 -43 -89 -64 -37 -14 -76 -26 -89 -26 -23 0 -99
-70 -110 -101 -3 -9 -21 -19 -40 -23 -19 -3 -42 -15 -52 -26 -10 -11 -28 -20
-41 -20 -39 0 -73 -18 -79 -43 -4 -14 -17 -29 -29 -35 -21 -9 -25 -4 -79 127
-32 75 -57 139 -57 143 0 4 19 11 42 14 22 4 50 16 62 28 17 17 31 20 82 17
73 -3 104 10 104 44 0 18 5 25 19 25 11 0 33 11 49 25 17 14 34 25 40 25 5 0
15 7 22 15 7 8 32 24 56 35 26 11 49 29 56 44 6 14 17 26 24 26 19 0 46 31 40
47 -9 24 108 56 197 54 26 -1 64 6 85 15 20 9 47 16 60 15 26 -1 27 9 7 49
-18 34 -40 38 -75 13 -16 -12 -45 -18 -80 -19 -80 -2 -164 -19 -249 -51 -73
-28 -75 -29 -92 -78 l-18 -50 -86 0 c-65 0 -88 -4 -95 -15 -11 -17 -4 -48 17
-71 12 -15 11 -17 -9 -23 -13 -3 -58 -9 -101 -12 -67 -6 -81 -10 -94 -31 -8
-12 -25 -23 -37 -23 -11 0 -33 -6 -48 -14 l-27 -14 -51 94 c-27 52 -50 96 -50
98 0 2 13 9 29 14 16 6 53 26 83 44 29 19 68 40 87 46 19 7 50 24 70 40 32 24
44 27 116 27 74 0 87 3 165 42 47 23 102 46 123 51 21 6 53 24 73 41 25 22 45
31 72 32 61 1 93 9 137 33 42 22 42 23 30 52 -10 24 -27 35 -101 64 -78 30
-85 35 -57 38 20 2 37 12 47 28 9 13 25 24 35 24 14 0 22 12 30 44 13 52 49
99 90 115 17 8 38 30 54 59 31 57 54 82 100 111 43 27 62 67 48 104 -10 25 -7
29 42 60 72 47 121 104 146 173 25 65 37 114 28 114 -24 0 -60 -29 -77 -64
-57 -110 -54 -108 -248 -246 -23 -17 -47 -43 -53 -58 -34 -89 -118 -222 -209
-330 -33 -40 -62 -82 -63 -94 -5 -31 -40 -34 -129 -9 -40 11 -92 22 -115 26
-24 4 -43 12 -43 19 0 16 71 56 98 56 12 0 24 5 27 10 3 6 15 10 26 10 14 0
29 21 59 87 49 106 66 126 91 113 27 -15 35 -13 74 21 44 39 65 78 65 119 0
53 29 103 104 180 83 85 136 155 136 180 0 21 26 45 65 57 21 7 33 19 41 43 6
18 32 51 57 74 32 28 52 57 65 91 15 43 22 50 47 53 39 5 69 33 89 86 10 26
26 47 41 54 13 6 31 27 39 47 13 31 19 35 50 35 37 0 40 3 99 95 44 69 274
287 382 362 50 35 93 66 97 70 68 79 144 153 186 180 49 32 83 75 70 89 -3 3
-29 -6 -56 -20 -50 -25 -74 -45 -304 -253 -62 -57 -129 -116 -148 -132 -93
-77 -109 -94 -115 -111 -3 -10 -21 -25 -40 -34 -38 -18 -125 -104 -125 -124 0
-31 -31 -72 -54 -72 -40 0 -56 -11 -77 -51 -11 -22 -25 -39 -33 -39 -7 0 -27
-29 -45 -65 -17 -36 -36 -66 -43 -66 -7 -1 -20 -3 -28 -4 -8 -1 -22 -3 -31 -4
-9 0 -21 -17 -27 -39 -9 -28 -27 -49 -73 -85 -34 -26 -67 -47 -74 -47 -12 0
-45 -67 -45 -94 0 -9 -11 -21 -24 -27 -13 -7 -41 -36 -62 -66 -20 -29 -53 -67
-74 -83 -20 -16 -48 -50 -61 -75 -19 -36 -29 -45 -50 -45 -29 0 -82 -51 -94
-90 -5 -17 -12 -20 -30 -16 -26 7 -25 8 -45 -81 -11 -49 -13 -51 -35 -41 -18
8 -28 7 -46 -6 -13 -9 -31 -16 -41 -16 -34 0 -51 -30 -45 -80 4 -32 0 -58 -12
-86 -15 -33 -25 -41 -64 -53 -43 -12 -88 -50 -99 -82 -3 -9 -24 -9 -89 1 -96
15 -142 29 -119 38 26 9 110 102 110 122 0 18 48 60 68 60 19 0 43 32 37 50
-4 13 2 19 25 24 23 4 35 15 48 43 9 21 27 48 38 59 12 12 23 26 25 30 2 5 34
31 71 57 47 33 70 57 79 82 10 27 19 35 43 37 22 2 32 9 35 23 2 11 32 48 67
81 55 53 64 66 64 97 0 29 5 38 28 49 18 9 28 22 30 41 2 19 15 35 42 52 47
30 68 62 46 71 -8 3 -24 0 -36 -6 -12 -6 -28 -9 -36 -6 -9 3 -34 -15 -67 -49
-28 -30 -72 -65 -97 -78 -48 -23 -66 -61 -36 -73 9 -3 16 -11 16 -18 -1 -14
-83 -78 -144 -110 -50 -26 -196 -176 -236 -241 -18 -29 -20 -38 -10 -50 7 -8
19 -15 27 -15 13 0 13 -3 3 -15 -7 -8 -24 -15 -38 -15 -28 0 -62 -25 -62 -46
0 -17 -86 -61 -137 -72 -32 -7 -38 -12 -38 -32 0 -22 5 -25 38 -28 20 -2 35
-7 32 -13 -4 -5 -17 -6 -31 -3 -29 7 -43 -19 -26 -47 16 -26 15 -29 -10 -29
-19 0 -20 2 -8 10 12 8 9 10 -11 10 -18 0 -28 -6 -32 -19 -4 -17 -10 -18 -53
-10 -27 5 -82 21 -122 35 -68 25 -72 27 -57 44 9 10 18 34 22 53 6 39 23 54
108 97 55 28 84 62 94 111 6 30 11 35 46 40 66 9 125 47 125 81 0 10 -7 30
-16 43 -19 30 -11 49 15 34 13 -9 24 -8 47 4 40 22 354 322 380 364 12 19 31
41 43 49 11 8 21 26 21 38 0 19 12 29 53 50 36 17 64 41 86 71 18 25 50 57 72
70 21 14 60 51 86 83 35 43 63 66 104 84 47 21 59 32 79 72 13 28 37 57 59 71
53 34 111 101 118 136 4 21 14 34 32 40 54 20 73 35 98 76 20 35 30 43 55 43
22 0 44 13 86 54 31 29 77 64 101 76 43 22 211 181 211 200 0 34 -135 -21
-169 -69 -13 -18 -52 -46 -92 -66 -47 -24 -73 -45 -84 -65 -20 -39 -52 -59
-92 -58 -41 1 -57 -12 -71 -61 -11 -34 -17 -40 -55 -50 -51 -12 -72 -33 -82
-81 -10 -49 -29 -67 -86 -80 -32 -8 -57 -22 -73 -41 -14 -16 -36 -33 -49 -38
-16 -6 -29 -23 -37 -45 -8 -27 -17 -36 -38 -38 -20 -2 -29 -11 -35 -33 -15
-50 -23 -60 -51 -63 -32 -4 -44 -27 -28 -53 10 -15 8 -21 -10 -34 -13 -8 -32
-15 -43 -15 -36 -1 -67 -26 -89 -71 -18 -38 -28 -46 -71 -60 -48 -16 -50 -17
-48 -52 2 -32 -1 -36 -24 -39 -17 -2 -32 -14 -43 -33 -9 -16 -35 -43 -58 -58
-23 -16 -47 -37 -52 -48 -12 -21 -103 -93 -158 -125 -26 -14 -38 -29 -43 -51
-9 -43 -44 -86 -82 -99 -27 -9 -33 -17 -35 -45 -3 -31 -9 -37 -70 -66 -37 -17
-107 -65 -157 -107 -49 -42 -123 -93 -163 -113 -85 -44 -102 -65 -76 -94 13
-14 31 -19 71 -19 45 0 53 -3 53 -19 0 -29 -23 -43 -54 -31 -14 5 -32 7 -39 4
-7 -2 -62 11 -123 29 -103 33 -111 37 -138 78 -18 26 -25 44 -18 47 6 2 8 10
5 18 -3 8 4 17 19 23 13 5 39 21 56 36 27 23 38 26 68 20 61 -11 86 35 43 81
l-21 23 43 11 c29 8 58 26 86 55 23 24 55 51 72 60 18 9 40 34 52 58 23 46 77
107 94 107 6 0 26 11 45 25 19 14 42 25 52 25 26 0 70 68 58 91 -15 27 -13 29
33 29 51 0 80 25 75 62 -2 18 2 24 22 26 59 6 70 12 78 45 5 17 14 31 20 30
24 -6 62 17 62 37 0 14 15 27 51 45 28 15 58 39 66 54 9 15 34 37 55 50 21 12
49 39 62 60 19 29 33 39 60 44 81 13 116 41 130 107 9 40 21 51 66 61 24 6 60
24 81 42 20 18 48 40 62 49 13 9 27 31 30 47 6 30 8 31 67 31 71 0 100 21 100
73 0 47 10 56 67 61 69 6 90 19 116 74 19 41 27 47 60 53 27 4 54 22 99 65 69
65 73 70 60 78 -11 7 -103 -37 -121 -57 -7 -9 -32 -22 -55 -28 -50 -13 -73
-33 -91 -76 -15 -36 -47 -53 -101 -53 -45 0 -79 -33 -88 -86 -10 -48 -18 -54
-83 -54 -40 0 -58 -5 -81 -25 -17 -14 -34 -25 -40 -25 -5 0 -15 -6 -21 -14 -7
-8 -40 -24 -73 -35 -79 -27 -100 -45 -88 -77 10 -26 13 -23 -118 -120 -34 -25
-76 -66 -92 -90 -24 -33 -40 -46 -73 -55 -24 -6 -55 -25 -73 -44 -18 -19 -49
-38 -72 -45 -23 -6 -45 -17 -49 -24 -4 -8 -24 -21 -44 -29 -19 -8 -46 -29 -60
-47 -13 -17 -34 -42 -46 -55 -12 -14 -23 -32 -25 -42 -2 -13 -22 -23 -71 -35
-78 -18 -108 -42 -143 -110 -25 -50 -64 -78 -109 -78 -68 0 -124 -48 -128
-112 -3 -48 -11 -54 -68 -61 -63 -8 -77 -18 -90 -73 -6 -24 -16 -48 -23 -53
-6 -5 -52 -15 -101 -21 -50 -7 -97 -16 -105 -20 -11 -5 -35 8 -78 43 -54 44
-60 52 -43 58 10 4 42 24 71 45 43 31 51 41 47 62 -4 21 2 27 60 53 36 16 74
29 85 29 28 0 20 41 -11 56 -23 12 -23 12 -3 23 28 15 49 14 55 -3 4 -10 25
-14 77 -14 71 1 90 9 72 31 -5 7 -10 25 -10 41 1 33 -15 46 -57 46 l-30 1 38
35 c30 27 44 34 60 29 56 -18 80 -18 94 1 7 10 13 29 13 42 0 13 9 35 20 49
16 21 30 26 82 30 34 2 70 9 79 14 10 5 27 9 38 9 26 0 71 65 71 102 0 15 -8
31 -17 37 -26 14 -12 22 43 25 60 3 89 18 108 54 11 21 28 31 79 46 71 20 89
34 104 81 8 25 16 31 49 35 33 4 42 11 56 41 14 30 25 38 65 48 26 7 59 19 73
27 14 8 39 21 56 29 18 8 37 27 44 45 14 34 14 34 39 18 29 -18 54 -3 47 27
-6 24 -4 25 34 25 28 0 45 6 58 21 9 11 34 29 54 40 21 11 45 30 54 44 10 15
26 25 39 25 22 0 75 50 75 70 0 15 99 81 137 92 37 10 83 43 83 60 0 11 -48
10 -55 -2 -3 -5 -32 -17 -63 -26 -31 -9 -69 -26 -83 -38 -15 -11 -41 -29 -58
-38 -24 -13 -31 -24 -29 -40 2 -19 -2 -24 -27 -26 -23 -2 -35 -12 -50 -39 -13
-23 -31 -40 -50 -46 -16 -5 -39 -18 -51 -28 -14 -13 -35 -19 -66 -19 -52 0
-97 -30 -124 -81 -8 -16 -21 -29 -28 -29 -8 0 -16 -7 -20 -15 -8 -21 -32 -19
-65 6 -31 23 -51 19 -51 -10 0 -24 -90 -81 -128 -81 -32 0 -146 -76 -136 -91
3 -5 18 -9 35 -9 24 0 29 -4 29 -24 0 -34 -15 -42 -104 -56 -44 -6 -86 -14
-93 -17 -19 -7 -16 -40 4 -47 27 -11 -3 -26 -50 -26 -41 0 -101 -22 -129 -47
-10 -9 -18 -30 -18 -49 0 -34 -19 -52 -50 -49 -8 1 -27 -5 -43 -12 -20 -10
-32 -11 -47 -3 -43 23 -85 -17 -54 -51 17 -19 12 -39 -10 -39 -7 0 -27 -13
-44 -29 -18 -18 -47 -32 -69 -36 -88 -15 -127 -43 -100 -73 15 -16 14 -20 -11
-46 -15 -15 -56 -40 -92 -55 -49 -20 -66 -32 -68 -48 -3 -17 3 -24 24 -29 26
-7 26 -8 9 -20 -11 -8 -33 -14 -51 -14 -19 0 -34 -6 -37 -14 -4 -10 -24 -16
-54 -18 -34 -2 -47 -7 -45 -17 2 -7 -4 -21 -13 -31 -22 -24 0 -40 45 -34 l35
5 -25 -20 c-48 -39 -81 -37 -162 10 -40 24 -74 44 -76 45 -2 1 4 14 13 28 11
17 16 39 13 63 -6 51 20 72 89 73 63 0 93 25 93 77 0 18 5 33 11 33 23 0 79
33 79 46 0 8 -1 14 -2 14 -2 0 -24 -7 -50 -15 -84 -25 -52 0 75 59 67 32 139
71 159 87 20 16 41 29 47 29 6 0 24 14 41 30 21 21 29 36 25 49 -9 29 65 89
103 83 23 -3 39 5 76 37 32 28 57 41 76 41 45 0 71 14 134 74 32 31 68 56 79
56 11 0 41 19 67 43 45 41 66 55 161 108 26 14 61 37 77 51 17 14 47 29 68 32
61 12 254 114 264 140 10 26 29 36 70 36 26 0 60 22 60 38 0 4 25 20 56 36 58
31 150 124 135 139 -16 16 -95 -14 -128 -49 -28 -30 -38 -34 -80 -34 -54 0
-73 -12 -73 -47 0 -16 -6 -23 -18 -23 -10 0 -33 -11 -52 -25 -19 -14 -39 -25
-46 -25 -7 0 -31 -16 -55 -36 -73 -61 -129 -84 -203 -83 -78 1 -88 -4 -84 -44
3 -26 -1 -31 -26 -38 -33 -9 -76 -46 -76 -65 0 -20 -39 -42 -97 -55 -43 -10
-55 -17 -59 -36 -5 -18 -13 -23 -38 -23 -30 0 -73 -21 -88 -44 -4 -5 -2 -19 4
-30 16 -30 -16 -49 -69 -41 -26 4 -43 2 -43 -4 0 -5 -15 -26 -34 -45 -26 -28
-41 -36 -68 -36 -27 0 -46 -11 -90 -50 -31 -28 -76 -57 -99 -65 -56 -20 -67
-31 -75 -71 -6 -34 -47 -74 -75 -74 -18 0 -151 -61 -172 -79 -10 -8 -16 -23
-14 -33 3 -11 -2 -18 -17 -20 -18 -3 -21 -9 -18 -49 l3 -45 -33 4 c-24 2 -44
-4 -75 -25 -39 -26 -102 -83 -131 -117 -11 -13 -24 -10 -109 30 -109 50 -110
51 -97 62 5 5 52 46 104 93 52 47 107 90 123 97 26 11 32 25 28 64 -3 25 63
40 147 32 62 -6 71 -5 80 12 5 11 6 28 1 39 -12 31 -11 33 18 37 14 2 28 9 31
16 5 17 -97 16 -112 -2 -6 -7 -40 -21 -76 -31 -107 -29 -145 -51 -165 -96 -23
-50 -78 -99 -110 -99 -14 0 -26 -4 -26 -10 -1 -5 -2 -16 -3 -22 0 -7 -20 -16
-43 -19 -53 -7 -76 -25 -69 -55 4 -13 2 -26 -4 -29 -11 -7 -258 82 -279 101
-18 16 -10 27 53 69 39 26 64 35 94 35 22 0 44 5 47 10 4 6 23 22 43 35 21 13
66 45 100 70 35 25 84 55 108 67 24 11 58 37 74 58 18 23 46 43 68 51 20 6 51
19 67 29 17 10 47 20 69 23 52 8 83 31 100 72 15 34 16 35 71 35 31 0 69 7 84
15 25 13 61 67 61 93 0 18 26 31 75 37 85 11 114 25 175 85 58 57 103 80 157
80 12 0 30 11 40 25 10 14 25 35 33 46 9 11 46 28 88 39 93 26 157 58 217 110
61 53 101 72 205 99 81 21 136 49 153 77 4 8 26 18 48 24 74 20 115 90 54 90
-13 0 -81 -29 -152 -64 -70 -35 -148 -70 -173 -76 -63 -17 -117 -46 -173 -92
-27 -22 -89 -57 -145 -79 -168 -69 -421 -201 -471 -246 -30 -26 -71 -49 -111
-63 -65 -22 -152 -74 -185 -110 -11 -12 -31 -20 -49 -20 -41 0 -132 -25 -160
-44 -13 -8 -33 -30 -45 -49 -13 -22 -32 -37 -49 -40 -77 -16 -132 -34 -149
-49 -11 -10 -27 -18 -35 -18 -11 0 -22 -18 -33 -50 -17 -53 -18 -53 -101 -64
l-41 -6 9 48 c5 26 8 78 7 115 -2 62 0 70 26 97 l28 29 17 -21 c26 -33 65 -16
142 62 37 38 70 65 73 60 13 -22 47 -7 102 43 32 30 93 77 136 106 73 49 80
51 96 37 10 -9 22 -16 27 -16 4 0 41 32 81 72 l72 71 26 -17 c30 -20 31 -19
111 50 55 49 64 53 97 47 39 -6 85 16 160 75 32 26 47 31 92 31 60 0 87 11
193 83 40 27 101 58 135 68 70 22 137 64 137 85 0 20 -18 19 -126 -8 -75 -19
-108 -34 -190 -87 -91 -59 -103 -65 -149 -63 -56 1 -65 -2 -149 -64 -54 -40
-65 -44 -99 -39 -44 7 -59 0 -122 -54 -40 -35 -51 -40 -79 -34 -28 5 -42 -1
-97 -43 -36 -27 -77 -49 -92 -51 -16 -1 -41 -11 -57 -22 -15 -11 -39 -20 -53
-20 -33 0 -102 -25 -138 -50 -19 -15 -33 -36 -40 -65 -11 -43 -12 -44 -35 -29
-27 18 -41 12 -80 -36 -15 -19 -46 -54 -68 -77 l-40 -42 -18 29 c-10 17 -25
30 -33 30 -8 0 -35 -21 -59 -46 l-44 -46 -11 54 c-25 127 -20 147 41 187 28
19 65 37 82 42 111 29 138 40 159 64 12 15 62 43 111 64 101 42 119 60 93 89
-16 17 -16 20 -3 25 9 4 37 4 64 0 42 -5 52 -2 79 21 25 21 41 26 86 26 43 0
70 8 123 35 41 21 84 35 106 35 52 0 79 13 136 63 50 45 51 45 109 40 54 -4
62 -2 113 31 30 20 75 45 100 56 101 45 135 67 135 86 0 51 -128 15 -261 -73
-47 -31 -56 -33 -101 -27 -58 7 -79 -1 -140 -57 -36 -33 -49 -39 -87 -39 -33
0 -65 -11 -121 -40 -52 -27 -89 -40 -116 -40 -46 0 -84 -17 -118 -54 -17 -18
-35 -26 -58 -26 -36 0 -93 -24 -93 -40 0 -13 -49 -37 -92 -45 -20 -4 -61 -22
-90 -41 -29 -19 -63 -34 -76 -34 -12 0 -57 -18 -98 -41 -42 -22 -77 -39 -79
-37 -7 8 15 180 25 193 6 7 23 16 37 20 15 3 49 24 76 46 47 37 52 39 101 33
45 -5 56 -3 96 24 29 21 49 28 60 22 20 -10 50 2 79 34 25 27 104 56 150 56
15 0 34 10 46 25 14 18 42 31 97 45 43 10 90 28 105 39 16 10 50 22 76 25 27
3 62 16 79 28 17 11 65 36 107 54 90 39 101 64 36 77 -36 8 -61 2 -205 -48
-91 -31 -174 -65 -185 -75 -18 -17 -63 -38 -316 -151 -36 -16 -70 -29 -76 -29
-5 0 -37 -11 -72 -25 -51 -21 -75 -25 -139 -23 -67 3 -81 0 -109 -20 -18 -13
-33 -19 -33 -14 0 6 16 44 36 86 25 52 35 86 32 108 l-3 33 51 0 c40 0 60 6
86 25 26 19 46 25 93 26 46 1 72 8 110 30 28 16 70 31 95 34 36 4 47 10 58 32
17 37 40 48 95 46 56 -1 140 43 135 70 -4 18 -3 18 -130 5 -65 -7 -84 -14
-132 -47 -48 -33 -63 -38 -107 -37 -33 0 -64 -6 -91 -20 -22 -11 -78 -26 -125
-34 -87 -14 -116 -24 -72 -26 13 0 -5 -9 -41 -19 -74 -21 -80 -18 -83 43 -2
32 15 157 22 162 5 2 35 7 67 11 37 4 70 15 89 29 50 37 98 58 134 60 40 1 49
16 26 39 -31 30 -103 12 -192 -48 -24 -17 -51 -26 -76 -26 -45 0 -45 3 4 109
29 63 29 64 65 58 25 -4 34 -2 31 6 -2 7 -18 13 -35 15 -32 3 -32 3 -32 63 0
70 6 72 75 28z m3989 10 c-3 -5 -10 -7 -15 -3 -5 3 -7 10 -3 15 3 5 10 7 15 3
5 -3 7 -10 3 -15z m-1500 -31 c-16 -29 -26 -37 -40 -31 -20 7 -18 31 4 36 33
9 43 7 36 -5z m-2083 -15 l42 -16 -23 -19 c-19 -16 -24 -16 -34 -4 -6 8 -24
16 -41 18 -19 2 -31 9 -33 21 -5 22 33 23 89 0z m294 -42 l60 -6 -3 -75 c-4
-73 -22 -126 -22 -63 0 48 -22 60 -65 34 -20 -12 -38 -21 -40 -21 -2 0 -5 17
-7 38 -3 36 -4 37 -38 35 -19 -1 -52 -5 -72 -9 l-37 -6 2 46 2 47 80 -7 c44
-3 107 -9 140 -13z m298 8 c20 -5 37 -14 37 -18 0 -5 -29 -17 -65 -26 -59 -16
-67 -17 -83 -2 -9 8 -28 17 -41 19 -14 1 -26 8 -28 15 -3 8 14 13 54 16 32 2
65 4 73 5 8 1 32 -3 53 -9z m1641 -40 c-9 -16 -20 -10 -21 12 -2 17 1 18 12 9
8 -7 12 -16 9 -21z m166 4 c0 -20 -3 -24 -11 -16 -7 7 -9 19 -6 27 10 24 17
19 17 -11z m1780 23 c0 -3 -4 -8 -10 -11 -5 -3 -10 -1 -10 4 0 6 5 11 10 11 6
0 10 -2 10 -4z m-3304 -43 c35 -9 64 -20 64 -24 0 -6 -85 -49 -123 -63 -10 -3
-27 0 -38 7 -18 10 -24 8 -49 -20 -17 -18 -31 -33 -33 -33 -2 0 -3 21 -3 47 1
59 -22 68 -65 27 -16 -15 -29 -26 -30 -23 0 2 -2 14 -5 25 -3 19 4 24 62 40
35 9 67 21 70 26 9 13 81 9 150 -9z m938 -33 c32 -7 65 -17 72 -24 11 -12 122
-26 314 -41 104 -8 191 -25 245 -47 28 -11 72 -24 99 -29 61 -10 65 -14 29
-33 -40 -20 -93 -68 -93 -83 0 -7 -5 -13 -10 -13 -6 0 -23 -13 -40 -28 -16
-16 -63 -44 -105 -62 -41 -19 -77 -42 -80 -51 -3 -9 -20 -20 -38 -25 -22 -7
-33 -17 -35 -31 -2 -12 -12 -25 -23 -28 -10 -4 -24 -16 -30 -27 -8 -15 -14
-17 -22 -9 -16 16 -52 14 -67 -4 -12 -14 -15 -13 -35 5 -12 11 -29 20 -39 20
-13 0 -3 14 34 50 29 28 56 50 61 50 4 0 24 16 45 35 45 43 131 101 180 121
20 8 38 24 41 34 3 10 16 21 29 24 13 4 24 13 24 21 0 17 -16 20 -25 5 -3 -5
-15 -10 -27 -10 -11 0 -22 -8 -25 -20 -3 -11 -10 -20 -16 -20 -21 0 -123 -54
-174 -92 -29 -21 -82 -66 -118 -99 l-65 -61 0 46 c0 60 -23 72 -55 31 -13 -15
-28 -24 -34 -21 -19 12 -12 23 21 37 17 7 51 30 75 51 24 21 52 38 62 38 10 0
34 12 53 28 20 15 54 38 78 52 57 33 117 87 108 96 -5 4 -16 0 -25 -9 -10 -8
-38 -25 -63 -37 -73 -34 -99 -50 -126 -77 -18 -18 -33 -24 -50 -20 -20 3 -28
-2 -40 -25 -12 -22 -20 -28 -35 -23 -12 4 -27 1 -37 -8 -9 -8 -35 -22 -57 -31
-22 -9 -45 -23 -51 -31 -14 -19 -69 -27 -114 -17 l-35 8 28 18 c15 10 27 25
27 32 0 8 5 14 12 14 14 0 75 40 143 95 62 50 105 79 128 88 9 3 17 13 17 20
0 8 10 19 23 25 l22 11 -23 0 c-12 1 -30 -8 -39 -19 -10 -11 -27 -20 -38 -20
-11 0 -51 -27 -90 -60 -70 -61 -92 -76 -152 -104 -18 -8 -33 -22 -33 -30 0 -9
-4 -16 -9 -16 -4 0 -24 -11 -44 -24 l-36 -25 -3 41 c-4 49 -25 62 -33 21 -17
-79 -42 -76 -52 5 l-6 52 37 15 c20 8 36 20 36 26 0 5 14 15 30 21 17 5 35 19
41 29 5 11 20 19 34 19 15 0 31 10 41 26 9 14 29 31 44 39 15 8 30 23 33 35 6
22 -8 28 -16 6 -3 -7 -18 -17 -33 -20 -15 -4 -39 -15 -53 -25 -14 -10 -38 -21
-52 -24 -15 -4 -29 -16 -32 -27 -3 -12 -14 -20 -26 -20 -11 0 -28 -11 -37 -25
-10 -16 -35 -30 -67 -40 -46 -14 -52 -13 -69 1 -14 14 -20 14 -33 4 -8 -7 -15
-23 -15 -36 0 -34 -56 -38 -87 -6 -28 28 -22 42 18 42 18 0 33 7 41 20 7 11
19 20 27 20 16 0 84 44 113 73 10 9 24 17 31 17 8 0 22 9 32 20 10 11 24 20
32 20 8 0 30 17 49 38 l34 38 82 -8 c46 -4 110 -12 142 -18z m-304 -10 c0 -5
-9 -10 -20 -10 -10 0 -36 -11 -57 -25 -59 -38 -103 -69 -117 -81 -6 -6 -22
-15 -34 -18 -12 -4 -30 -18 -38 -32 -9 -13 -24 -24 -33 -24 -10 0 -28 -11 -41
-25 -22 -23 -22 -25 -4 -25 16 0 17 -2 4 -10 -31 -20 -49 -11 -56 28 -9 49
-21 72 -39 72 -17 0 -19 9 -6 28 13 21 170 83 236 94 61 9 198 34 203 37 1 0
2 -3 2 -9z m-366 -20 c5 -5 -15 -21 -48 -36 -35 -18 -56 -34 -56 -45 0 -23
-111 -37 -146 -18 -21 11 -31 9 -74 -11 -27 -13 -52 -21 -55 -18 -3 3 2 21 10
41 15 35 17 37 64 37 34 0 51 5 55 15 3 8 15 15 26 15 11 0 37 9 58 21 31 17
47 19 97 14 33 -4 64 -10 69 -15z m3467 -23 c-16 -16 -20 -5 -8 23 9 22 11 23
14 6 3 -10 0 -23 -6 -29z m589 -3 c0 -8 -4 -12 -10 -9 -5 3 -10 10 -10 16 0 5
5 9 10 9 6 0 10 -7 10 -16z m-735 -14 c-3 -5 -12 -10 -20 -10 -8 0 -17 5 -20
10 -4 6 5 10 20 10 15 0 24 -4 20 -10z m871 -36 c-4 -14 -12 -24 -19 -21 -14
5 -10 35 6 56 15 17 21 -1 13 -35z m-836 28 c0 -5 -7 -17 -15 -28 -15 -19 -20
-8 -9 20 6 17 24 22 24 8z m-571 -12 c19 -5 43 -17 53 -27 11 -10 41 -25 66
-33 39 -12 48 -20 50 -42 3 -22 -3 -29 -31 -43 -48 -23 -71 -50 -64 -76 6 -22
-17 -79 -31 -79 -5 0 -17 -7 -28 -15 -18 -13 -18 -14 6 -8 22 5 21 3 -10 -20
-19 -15 -50 -34 -67 -44 -18 -9 -33 -21 -33 -26 0 -17 -34 -82 -50 -95 -8 -7
-33 -22 -55 -33 -22 -12 -63 -39 -92 -60 -49 -37 -81 -51 -68 -30 3 5 1 12 -5
16 -18 11 -11 36 20 75 17 21 30 41 30 46 0 4 27 38 60 75 33 37 60 71 60 76
0 5 14 22 30 38 17 16 30 33 30 38 0 9 31 51 81 108 15 16 30 46 34 65 4 23
14 38 28 44 18 7 19 9 4 9 -27 1 -57 -18 -57 -36 0 -8 -31 -46 -70 -84 -38
-37 -70 -73 -70 -80 0 -6 -11 -24 -25 -41 -14 -16 -25 -35 -25 -41 0 -15 -153
-177 -167 -177 -5 0 -20 -11 -33 -25 -29 -31 -40 -32 -40 -2 0 13 -5 28 -11
34 -8 8 -3 23 21 57 19 25 37 46 41 46 4 0 17 17 29 38 12 20 28 41 36 45 8 4
14 14 14 21 0 8 11 21 24 29 13 9 33 36 45 61 12 24 41 62 64 83 23 22 55 58
71 81 25 36 34 42 65 42 20 0 51 -4 70 -10z m-7086 -98 c-6 -88 -7 -92 -29
-92 -27 0 -90 -52 -99 -81 -4 -10 -15 -19 -26 -19 -10 0 -38 -13 -61 -30 -42
-31 -42 -40 1 -16 16 9 45 12 85 9 55 -4 66 -2 106 25 25 16 56 32 70 35 38 9
70 -21 81 -74 15 -79 12 -97 -20 -113 -26 -14 -30 -14 -41 -1 -20 25 -45 17
-103 -30 -47 -38 -59 -44 -79 -36 -30 11 -50 1 -104 -51 -22 -21 -68 -52 -103
-68 -34 -16 -81 -43 -106 -60 -29 -20 -56 -30 -80 -30 -47 0 -112 -34 -210
-110 -78 -60 -80 -61 -94 -41 -25 39 -55 26 -129 -55 -41 -44 -73 -71 -77 -65
-12 21 -42 11 -88 -29 -25 -22 -50 -40 -56 -40 -24 0 -91 -41 -166 -101 -42
-33 -93 -67 -112 -76 -20 -8 -57 -37 -83 -64 -41 -43 -51 -49 -68 -40 -27 14
-49 -4 -123 -100 l-63 -80 -13 25 c-19 37 -56 34 -86 -6 -14 -18 -39 -59 -57
-90 -17 -32 -35 -60 -38 -62 -7 -4 -9 20 -12 109 0 22 2 75 6 118 5 65 4 77
-9 77 -19 0 -24 -26 -32 -150 -6 -89 -9 -97 -38 -127 -38 -40 -52 -42 -34 -5
15 30 15 41 4 60 -13 19 -34 14 -71 -18 l-34 -30 33 87 c72 192 78 204 109
225 17 12 45 33 61 48 17 15 47 31 67 34 21 4 51 18 67 31 16 14 38 25 50 25
11 0 38 15 58 34 31 28 44 33 71 29 38 -6 76 22 97 72 12 27 17 29 54 26 39
-2 42 0 55 31 18 41 85 78 144 78 45 0 62 18 62 65 0 25 1 26 44 20 39 -6 48
-4 70 18 14 15 26 33 26 42 0 13 6 15 30 10 41 -9 63 0 83 35 15 25 25 30 55
30 20 0 45 7 55 14 11 9 32 12 55 9 51 -6 76 14 75 61 -1 34 1 36 40 47 23 6
56 19 73 30 17 10 43 19 58 19 15 0 53 13 85 29 32 17 67 29 77 29 36 -3 92
13 105 28 11 13 8 15 -27 13 -21 -2 -56 1 -77 5 -30 7 -47 3 -92 -19 -41 -20
-63 -25 -86 -20 -23 5 -36 2 -52 -13 -21 -18 -57 -32 -119 -46 -36 -8 -58 -32
-58 -65 0 -27 -2 -27 -86 -38 -75 -9 -89 -14 -118 -42 -29 -28 -34 -30 -63
-19 -26 10 -35 9 -56 -5 -14 -9 -27 -27 -29 -39 -3 -21 -8 -23 -64 -23 -69 0
-94 -14 -94 -55 0 -24 -10 -31 -84 -68 -65 -33 -91 -41 -115 -36 -46 10 -77
-15 -84 -67 -7 -55 -21 -68 -46 -45 -28 25 -56 13 -87 -39 -23 -40 -28 -44
-56 -38 -26 5 -35 1 -62 -31 -23 -28 -42 -40 -74 -46 -23 -4 -42 -6 -42 -3 0
2 36 79 81 172 73 153 84 169 110 175 17 3 50 28 81 60 41 43 57 53 68 46 29
-18 58 -10 87 24 15 18 43 41 62 51 19 10 76 45 125 79 50 34 120 72 156 85
36 12 79 29 95 38 17 8 63 23 103 34 82 21 169 64 183 91 8 14 22 18 70 18 72
0 112 18 129 60 11 27 17 30 57 30 44 0 51 4 108 72 11 14 30 17 90 16 69 -1
83 2 147 36 51 26 91 39 145 46 41 5 82 14 91 19 9 5 18 9 19 7 1 -1 -1 -43
-4 -94z m5697 72 c0 -2 -9 -4 -20 -4 -11 0 -20 4 -20 9 0 5 9 7 20 4 11 -3 20
-7 20 -9z m1220 6 c0 -6 -31 -41 -70 -79 -38 -38 -74 -81 -80 -95 -5 -14 -16
-26 -24 -26 -8 0 -36 -27 -62 -61 -27 -33 -61 -67 -76 -75 -15 -8 -35 -28 -44
-45 -14 -29 -17 -30 -33 -15 -24 22 -34 20 -65 -9 -31 -29 -36 -30 -36 -12 0
8 11 24 25 37 14 13 25 28 25 33 0 5 14 25 30 44 17 18 30 40 30 47 0 7 18 27
40 45 22 17 40 38 40 46 0 7 12 23 26 34 19 15 24 26 19 38 -8 17 -8 17 -12 1
-2 -9 -13 -20 -23 -23 -10 -3 -26 -17 -35 -31 -9 -14 -29 -30 -43 -35 -25 -9
-64 -60 -105 -136 -14 -26 -23 -33 -47 -33 -26 0 -36 -8 -62 -50 -35 -56 -42
-59 -29 -13 7 23 5 37 -5 52 -13 18 -10 24 38 72 53 53 98 112 98 130 0 5 11
15 25 21 26 12 29 17 19 42 -5 13 -13 10 -42 -19 -20 -19 -42 -35 -48 -35 -21
0 -64 -41 -78 -74 -7 -18 -38 -54 -69 -80 -34 -29 -61 -62 -72 -88 -17 -45
-49 -90 -57 -83 -9 9 20 149 31 153 6 2 11 12 11 22 0 11 9 24 20 30 11 6 20
19 20 30 0 10 9 22 21 25 16 5 20 13 16 32 -4 20 1 29 23 41 16 9 28 24 27 34
-2 21 -15 24 -23 4 -3 -7 -23 -21 -45 -31 -21 -10 -39 -24 -39 -31 0 -7 -9
-16 -20 -19 -11 -3 -20 -14 -20 -24 0 -10 -7 -24 -15 -31 -8 -7 -15 -18 -15
-26 0 -7 -13 -22 -30 -34 l-30 -21 0 25 c0 61 -40 6 -55 -76 -4 -21 -10 -38
-13 -38 -11 0 -92 44 -92 50 0 3 41 45 90 93 50 48 90 92 90 100 0 7 20 34 45
59 36 38 40 46 21 38 -21 -8 -45 -26 -88 -68 -7 -7 -29 -27 -48 -45 -59 -55
-84 -80 -132 -136 -38 -44 -52 -54 -77 -53 -25 0 -35 -6 -48 -31 -17 -30 -18
-31 -21 -9 -2 13 -10 26 -18 29 -20 7 -17 27 6 48 11 10 20 24 20 31 0 7 17
23 38 35 60 37 102 73 102 88 0 8 7 23 16 33 13 13 14 21 5 31 -6 8 -8 17 -4
20 3 4 1 7 -5 7 -7 0 -12 -9 -12 -20 0 -11 -5 -20 -10 -20 -6 0 -14 -10 -19
-23 -6 -14 -40 -40 -90 -67 -50 -28 -83 -53 -87 -66 -8 -31 -124 -103 -157
-97 -24 5 -29 1 -43 -33 -25 -65 -48 -104 -55 -96 -11 12 13 156 28 165 7 4
13 14 13 21 0 7 16 20 35 29 19 9 35 21 35 26 0 5 9 12 19 16 11 3 33 19 50
34 16 15 41 35 55 45 14 9 26 21 26 27 0 12 51 58 64 59 6 0 22 11 36 25 24
23 30 24 59 14 26 -9 46 -9 90 2 39 9 149 14 366 15 195 1 340 7 390 15 44 7
105 12 136 11 31 -2 67 2 80 7 13 5 25 10 27 10 1 1 2 -4 2 -9z m-2734 -76
c-3 -9 -6 -20 -6 -25 0 -14 -26 -11 -40 6 -16 19 -4 35 27 35 19 0 24 -4 19
-16z m3232 -15 c13 -5 36 -9 51 -9 16 0 57 -9 91 -20 34 -11 89 -20 122 -20
41 0 80 -8 124 -26 48 -19 88 -27 152 -29 48 -2 114 -10 147 -18 141 -33 297
-70 390 -93 55 -14 143 -35 195 -48 131 -32 144 -38 172 -88 31 -53 42 -142
20 -164 -13 -13 -16 -13 -31 0 -9 8 -26 13 -37 10 -18 -5 -20 -2 -17 23 2 15
-3 46 -11 68 l-15 40 -1 -50 c-1 -56 -19 -89 -43 -79 -9 3 -29 -3 -45 -15
l-29 -21 -8 43 c-4 23 -7 64 -6 92 2 56 -9 53 -29 -7 -13 -42 -14 -43 -51 -52
-24 -5 -27 -2 -34 27 -3 17 -8 49 -10 71 -3 43 -19 67 -21 33 -4 -57 -11 -75
-43 -117 -18 -25 -38 -45 -42 -44 -5 1 -14 2 -19 3 -6 0 -8 34 -5 89 5 83 5
85 -9 47 -7 -22 -21 -67 -31 -99 -17 -59 -17 -59 -34 -37 -9 12 -26 24 -36 25
-16 3 -20 10 -18 42 3 61 9 97 17 117 5 10 4 28 -2 40 -10 22 -11 21 -11 -4
-1 -15 -8 -29 -16 -33 -8 -3 -15 -17 -15 -31 0 -14 -4 -33 -9 -43 -6 -9 -12
-28 -15 -42 -11 -49 -21 -55 -51 -31 -15 11 -34 21 -42 21 -10 0 -12 7 -9 20
3 11 8 29 12 40 11 40 22 125 17 138 -7 16 -33 -32 -33 -59 0 -11 -4 -27 -9
-37 -32 -64 -46 -89 -63 -105 -10 -10 -18 -25 -18 -35 0 -9 -18 -37 -39 -62
l-39 -45 -7 37 c-6 30 -2 46 20 85 32 57 54 134 48 167 -3 13 0 27 6 30 6 4
11 23 11 43 0 35 -9 41 -14 9 -1 -8 -9 -23 -18 -33 -15 -17 -22 -39 -35 -108
-3 -16 -12 -39 -19 -50 -8 -11 -14 -26 -14 -35 0 -8 -18 -41 -40 -74 -22 -32
-40 -65 -40 -72 0 -8 -4 -14 -8 -14 -10 0 -42 70 -42 91 0 21 29 107 56 164
13 28 24 65 24 83 0 18 5 43 11 54 7 12 7 24 2 29 -6 6 -15 -7 -23 -33 -16
-49 -48 -108 -67 -123 -7 -5 -15 -23 -17 -40 -14 -94 -25 -138 -39 -152 -13
-14 -16 -13 -21 5 -4 12 -16 24 -27 27 -15 5 -17 10 -9 26 16 29 3 41 -26 23
-32 -22 -33 1 0 35 51 55 81 131 85 216 1 44 0 77 -4 73 -4 -4 -9 -18 -10 -30
-8 -65 -58 -179 -103 -232 -13 -17 -28 -40 -33 -53 -5 -13 -15 -23 -24 -23
-14 0 -13 3 1 26 12 18 14 28 6 36 -8 8 -21 4 -47 -16 -41 -31 -55 -28 -35 8
7 14 13 34 14 45 0 11 9 26 19 33 16 12 67 119 67 142 0 5 7 17 16 27 9 10 14
24 12 33 -2 10 -25 -15 -62 -64 -32 -45 -66 -85 -76 -90 -10 -5 -21 -25 -24
-44 -9 -46 -36 -79 -59 -70 -9 3 -16 11 -15 18 2 6 -2 13 -7 16 -6 3 -25 -19
-44 -48 -31 -48 -36 -52 -43 -33 -11 30 -22 26 -62 -21 -20 -23 -36 -37 -36
-31 0 6 7 16 15 23 8 7 15 18 15 24 0 7 16 28 36 47 20 18 43 49 50 67 8 17
19 32 24 32 6 0 10 11 10 23 0 13 9 32 20 42 11 10 20 25 20 33 0 8 14 31 30
52 39 49 41 85 3 38 -15 -18 -36 -39 -45 -46 -10 -7 -18 -19 -18 -26 0 -8 -11
-21 -25 -30 -14 -9 -25 -22 -25 -28 0 -25 -52 -118 -76 -137 -36 -29 -47 -26
-39 8 7 32 -7 48 -23 28 -6 -6 -17 -38 -25 -70 -9 -33 -28 -72 -45 -91 l-30
-34 5 39 c4 27 2 39 -7 39 -7 0 -10 -6 -7 -12 6 -18 -10 -58 -24 -58 -7 0 -5
10 5 28 16 26 16 26 -8 -3 -33 -39 -34 -16 -1 50 13 28 25 55 25 61 0 7 7 14
15 18 8 3 15 14 15 24 0 10 27 44 60 74 43 39 60 62 60 80 0 14 12 42 26 63
14 21 30 48 35 59 9 20 24 45 42 74 9 14 78 8 125 -9z m-4898 -71 c0 -7 -4
-19 -9 -26 -6 -10 -10 -10 -20 2 -7 8 -10 20 -6 26 9 14 35 13 35 -2z m4690
-13 c-7 -9 -15 -13 -18 -10 -3 2 1 11 8 20 7 9 15 13 18 10 3 -2 -1 -11 -8
-20z m-6922 -48 c12 -29 49 -95 82 -146 57 -88 60 -95 54 -139 -8 -61 27 -253
67 -368 30 -86 30 -87 13 -138 -43 -133 -110 -190 -158 -137 -18 20 -64 149
-92 255 -15 58 -15 60 5 75 21 16 21 18 5 86 -27 124 -32 565 -5 565 4 0 17
-24 29 -53z m4271 -9 c0 -33 -2 -38 -9 -23 -12 28 -12 65 0 65 6 0 10 -19 9
-42z m148 -90 c-3 -8 -6 -5 -6 6 -1 11 2 17 5 13 3 -3 4 -12 1 -19z m153 7
c-14 -16 -40 -20 -40 -6 0 10 17 19 39 20 11 1 11 -2 1 -14z m1242 -50 c-2
-14 -8 -25 -13 -25 -10 0 -12 34 -2 43 13 14 20 6 15 -18z m-1262 5 c0 -5 -5
-10 -11 -10 -5 0 -7 5 -4 10 3 6 8 10 11 10 2 0 4 -4 4 -10z m783 -128 l-18
-27 -6 55 c-6 48 -4 57 15 74 l21 18 3 -47 c2 -33 -2 -55 -15 -73z m-533 43
c0 -34 -13 -47 -23 -22 -5 13 9 57 18 57 3 0 5 -16 5 -35z m740 21 c0 -3 -4
-8 -10 -11 -5 -3 -10 -1 -10 4 0 6 5 11 10 11 6 0 10 -2 10 -4z m485 -86 c-16
-16 -31 -27 -34 -24 -5 5 48 54 58 54 3 0 -8 -13 -24 -30z m245 11 c0 -5 -7
-14 -15 -21 -12 -10 -15 -10 -15 2 0 8 3 18 7 21 9 10 23 9 23 -2z m-6410 -76
l0 -75 -42 -30 c-25 -19 -48 -28 -59 -25 -22 7 -44 -4 -112 -56 -36 -27 -62
-39 -85 -39 -26 0 -49 -13 -100 -55 -58 -48 -70 -54 -98 -49 -38 7 -70 -12
-163 -98 -57 -54 -74 -78 -51 -78 5 0 44 20 86 45 54 32 80 43 88 35 25 -25
64 -10 140 55 42 36 81 63 87 60 19 -13 58 5 120 55 43 35 68 48 81 44 10 -3
37 4 59 15 l40 21 -3 -132 -3 -133 -55 -6 c-104 -11 -180 -45 -180 -79 0 -16
-7 -20 -32 -20 -55 0 -188 -41 -220 -68 -24 -20 -29 -31 -24 -53 5 -24 -3 -36
-51 -82 -55 -53 -59 -55 -115 -56 -104 -2 -155 -36 -145 -96 5 -33 5 -34 -46
-53 -29 -11 -68 -23 -87 -27 -64 -12 -70 -16 -70 -40 0 -27 28 -40 63 -30 15
5 19 4 12 -3 -5 -6 -39 -14 -75 -17 -36 -4 -72 -13 -81 -21 -8 -8 -25 -14 -37
-14 -30 0 -48 -23 -62 -79 -6 -27 -19 -56 -28 -64 -20 -17 -175 -97 -180 -93
-2 2 8 21 23 41 26 40 32 70 15 80 -7 4 -2 21 12 46 15 27 19 42 12 49 -17 17
-36 3 -123 -91 -46 -49 -85 -88 -88 -85 -2 2 23 48 56 101 94 149 106 175 76
175 -8 0 -31 -22 -51 -50 -20 -27 -39 -50 -43 -50 -3 0 -5 18 -3 41 3 29 13
50 36 72 58 59 155 125 214 147 31 12 75 38 97 59 46 44 75 61 105 61 33 0 77
27 96 59 12 21 28 31 53 36 41 8 138 63 145 82 8 19 -25 16 -84 -7 -38 -15
-56 -17 -70 -10 -32 17 -45 11 -80 -35 -26 -35 -44 -48 -84 -60 -29 -8 -78
-36 -115 -65 -36 -27 -71 -50 -78 -50 -25 0 -108 -48 -174 -102 -70 -56 -159
-149 -159 -166 0 -14 -89 -122 -100 -122 -5 0 -10 15 -12 32 -4 41 -30 48 -69
19 -15 -12 -30 -21 -32 -21 -2 0 -3 19 -3 42 1 51 -23 62 -58 29 -21 -20 -25
-20 -52 -6 -16 8 -37 15 -46 15 -25 0 -23 45 3 82 l21 29 19 -30 c10 -17 22
-31 27 -31 18 0 53 34 98 95 32 44 51 62 58 55 19 -19 41 -10 93 42 48 48 56
52 93 49 55 -4 88 19 96 67 5 28 17 46 52 74 39 31 47 35 59 22 27 -26 51 -15
109 51 54 61 59 64 75 49 31 -28 63 -10 119 66 29 38 57 70 63 70 7 0 20 -7
30 -15 11 -7 26 -11 35 -8 29 11 135 85 179 126 42 38 50 40 84 15 22 -15 72
5 88 36 18 33 140 110 178 111 25 1 42 14 84 59 36 40 55 54 62 47 22 -22 57
-10 106 33 46 41 52 44 79 34 22 -9 35 -8 58 4 16 9 32 16 37 17 4 1 7 -33 7
-74z m5810 68 c0 -5 -4 -15 -10 -23 -11 -18 -25 -7 -17 15 6 15 27 21 27 8z
m1211 -26 c-16 -16 -26 0 -10 19 9 11 15 12 17 4 2 -6 -1 -17 -7 -23z m-720
-4 c-12 -20 -14 -14 -5 12 4 9 9 14 11 11 3 -2 0 -13 -6 -23z m885 -39 c-4
-13 -11 -24 -17 -24 -19 0 -21 30 -3 58 16 23 19 24 22 9 2 -10 1 -29 -2 -43z
m-103 -22 c-11 -14 -25 -28 -31 -30 -20 -6 -13 19 15 57 23 30 28 33 31 17 2
-10 -5 -30 -15 -44z m-683 35 c0 -23 -34 -47 -50 -36 -13 8 -11 13 9 29 27 23
41 25 41 7z m-6018 -64 c17 -28 19 -43 14 -86 -11 -89 -18 -117 -26 -112 -13
8 -31 97 -39 185 -6 76 -6 79 11 63 10 -9 28 -32 40 -50z m7078 27 c-6 -11
-16 -20 -22 -20 -6 0 -3 9 7 20 10 11 20 20 22 20 2 0 -1 -9 -7 -20z m1353
-25 c4 -8 2 -17 -3 -20 -6 -4 -10 3 -10 14 0 25 6 27 13 6z m-1759 -45 c-38
-53 -52 -66 -61 -56 -7 6 75 106 88 106 5 0 -7 -22 -27 -50z m127 17 c-8 -8
-11 -7 -11 4 0 9 3 19 7 23 4 4 9 2 11 -4 3 -7 -1 -17 -7 -23z m-451 -22 c-7
-8 -17 -15 -23 -15 -5 0 -2 9 8 20 21 23 35 19 15 -5z m-6190 -25 l59 0 -1
-102 c-1 -111 15 -184 55 -249 12 -20 53 -88 92 -150 78 -128 153 -211 219
-240 25 -11 48 -24 51 -29 9 -15 95 -52 108 -47 7 2 48 -30 93 -72 106 -100
184 -145 296 -171 49 -12 98 -20 107 -18 10 2 26 -4 35 -11 10 -8 36 -17 58
-20 58 -8 64 -24 50 -123 -7 -46 -12 -137 -12 -202 0 -64 -4 -126 -10 -136
-33 -61 -354 -92 -530 -50 -123 30 -321 129 -454 229 -26 20 -70 68 -96 107
-73 107 -160 214 -312 381 -76 83 -138 156 -138 162 0 10 68 61 82 61 4 0 41
-45 83 -100 42 -54 85 -102 96 -105 10 -4 19 -11 19 -16 0 -5 7 -9 17 -9 13 0
12 4 -6 23 -32 31 -114 145 -136 186 -14 28 -16 48 -11 100 3 36 8 91 10 121
3 30 15 84 27 120 17 52 23 94 26 210 2 80 6 151 8 157 3 9 11 10 30 3 15 -6
53 -10 85 -10z m8525 -400 c54 -115 60 -165 31 -247 -15 -44 -10 -91 15 -131
13 -21 12 -24 -16 -46 -28 -22 -29 -26 -16 -49 13 -24 11 -29 -13 -57 -26 -31
-26 -35 -22 -145 3 -105 2 -116 -20 -152 -13 -21 -24 -52 -24 -69 0 -17 -7
-37 -16 -45 -24 -20 -48 -71 -46 -100 2 -18 -7 -32 -29 -48 -28 -21 -29 -24
-15 -40 21 -23 20 -38 -3 -50 -40 -22 -32 -73 13 -91 l24 -9 -30 -58 c-16 -32
-51 -79 -78 -104 -28 -25 -50 -53 -50 -62 0 -9 13 -30 29 -46 24 -24 29 -39
29 -76 0 -25 3 -64 7 -86 l7 -41 -25 16 c-31 21 -53 12 -66 -26 -12 -34 6 -90
34 -105 15 -9 16 -13 2 -39 -21 -42 -27 -100 -15 -135 9 -27 7 -34 -15 -57
-39 -43 -60 -93 -63 -152 -1 -30 -14 -95 -30 -145 -15 -50 -28 -118 -29 -153
-2 -71 -12 -86 -71 -107 -37 -13 -40 -12 -60 12 -25 31 -39 25 -48 -19 l-7
-33 -16 23 c-8 12 -22 22 -29 22 -17 0 -17 -1 -4 -34 6 -17 6 -27 -1 -32 -6
-3 -9 -15 -6 -25 10 -38 -10 -27 -38 22 -16 27 -36 49 -43 49 -8 0 -21 8 -28
17 -22 31 -28 5 -11 -54 12 -44 13 -59 4 -65 -20 -13 -27 -9 -27 12 0 11 -4
20 -10 20 -5 0 -10 -4 -10 -9 0 -6 -16 -7 -35 -4 -31 5 -35 3 -35 -15 0 -14 5
-20 13 -16 8 3 19 -2 26 -10 10 -12 9 -14 -7 -9 -24 6 -39 -14 -23 -30 6 -6
11 -18 11 -26 0 -10 -14 0 -34 24 -31 36 -37 39 -55 28 -40 -25 -44 -13 -8 21
40 36 48 74 21 96 -13 12 -12 16 13 36 24 19 26 24 14 38 -7 9 -30 17 -50 18
l-36 1 41 6 c30 4 49 15 72 42 41 46 41 75 2 97 -16 9 -30 20 -30 25 0 13 35
8 58 -9 13 -9 29 -13 37 -10 20 7 34 66 23 95 -13 37 19 93 59 103 21 6 38 19
48 38 19 37 19 110 1 136 -8 10 -12 29 -10 40 4 15 -2 27 -20 42 -22 17 -24
21 -11 32 18 15 20 51 3 68 -7 7 -23 12 -38 12 l-25 1 24 19 c13 11 36 20 53
20 25 0 32 6 49 46 17 36 29 49 64 64 23 10 45 24 47 32 8 22 -3 47 -23 53
-28 9 -23 20 14 30 39 12 46 48 10 53 -13 2 -23 6 -23 10 0 13 42 117 52 129
6 7 8 24 6 37 -4 18 2 30 24 46 19 14 28 29 26 42 -3 18 -10 25 -47 45 -2 1 6
14 18 29 11 15 21 33 21 40 0 7 12 19 27 26 37 18 41 45 9 58 -14 5 -26 14
-26 20 0 6 21 33 46 60 42 45 46 53 41 87 -5 30 -1 44 24 81 27 41 29 46 15
61 -14 14 -13 18 11 43 l27 28 -21 28 -21 28 25 28 c17 20 23 36 19 52 -5 20
1 30 39 56 36 25 45 38 45 61 0 16 9 40 20 54 11 14 20 33 20 41 0 9 7 24 17
34 13 14 14 23 6 41 -8 18 -7 28 8 45 10 13 15 30 12 38 -3 8 3 30 12 50 10
22 15 48 11 65 -5 25 -1 32 19 41 27 12 28 15 25 66 -1 18 4 39 10 47 6 8 11
22 10 32 -6 58 4 43 65 -87z m-8910 -1 c18 -33 11 -57 -10 -39 -16 13 -36 66
-28 74 9 9 22 -3 38 -35z m-156 -16 c7 -20 31 -55 53 -79 l39 -43 -28 -15
c-15 -8 -61 -49 -102 -91 -100 -103 -159 -141 -390 -252 -311 -150 -506 -250
-642 -329 -69 -41 -133 -74 -143 -74 -16 0 -16 3 3 34 12 18 21 46 21 62 0 16
8 55 17 87 15 49 21 57 38 53 26 -7 40 3 49 32 5 16 15 22 36 22 95 0 180 44
180 93 0 20 8 26 58 40 31 9 71 18 87 19 26 3 30 7 30 35 l0 31 79 7 c64 6 84
12 103 31 29 29 29 48 1 69 l-23 16 35 31 c19 16 54 38 78 49 47 21 61 42 43
70 -6 11 -7 19 -2 19 5 0 16 3 24 6 11 4 14 -3 13 -33 -1 -36 1 -38 31 -41 37
-4 81 17 140 64 22 19 53 38 67 44 29 11 34 31 11 50 -21 18 -2 30 45 30 32 0
37 -4 49 -37z m4191 33 c0 -3 -4 -8 -10 -11 -5 -3 -10 -1 -10 4 0 6 5 11 10
11 6 0 10 -2 10 -4z m-73 -42 c-3 -3 -12 -4 -19 -1 -8 3 -5 6 6 6 11 1 17 -2
13 -5z m-4327 -24 c0 -4 -7 -10 -15 -14 -10 -4 -15 1 -15 14 0 13 5 18 15 14
8 -4 15 -10 15 -14z m3154 -184 c-6 -16 -61 -32 -71 -22 -10 10 30 35 54 36
15 0 21 -4 17 -14z m6197 -73 c-9 -16 -10 -15 -11 9 0 14 3 35 8 45 6 15 8 14
10 -9 2 -15 -1 -35 -7 -45z m-4121 7 c-9 -17 -30 -28 -30 -16 0 16 15 36 26
36 12 0 12 -4 4 -20z m-375 0 c-3 -5 -14 -10 -23 -10 -15 0 -15 2 -2 10 20 13
33 13 25 0z m-4504 -22 c12 -23 89 -117 280 -343 179 -212 317 -440 399 -660
39 -104 150 -537 194 -755 42 -214 86 -563 120 -965 9 -102 21 -366 21 -455 0
-104 -14 -451 -19 -459 -2 -3 -7 -60 -10 -126 -4 -66 -9 -140 -11 -165 -8 -86
-15 -186 -20 -295 -3 -60 -10 -184 -15 -275 -11 -185 -17 -396 -25 -765 -15
-710 -30 -1149 -41 -1210 -4 -19 -9 -170 -19 -560 -2 -104 -11 -242 -20 -305
-9 -63 -25 -187 -36 -275 -10 -88 -22 -172 -25 -187 l-5 -27 -77 35 c-105 48
-387 199 -513 275 -370 223 -709 475 -1019 760 l-117 108 -8 168 c-3 92 -13
242 -20 333 -7 91 -14 224 -15 295 -1 72 -4 146 -6 165 -2 19 -7 139 -10 267
l-7 232 27 7 c17 4 32 17 38 33 15 37 21 264 11 414 l-8 129 37 52 c38 54 73
132 202 447 98 241 132 374 181 706 18 120 22 127 107 228 134 159 252 475
298 797 6 40 17 145 25 233 18 192 22 233 41 350 8 50 14 104 14 120 l-1 30
-18 -22 c-20 -23 -28 -65 -86 -423 -51 -320 -115 -561 -212 -810 -59 -149
-102 -228 -115 -206 -21 38 151 863 236 1129 14 43 14 49 0 54 -8 3 -21 -3
-29 -13 -37 -49 -219 -672 -260 -889 -13 -71 -36 -215 -50 -320 -61 -455 -96
-607 -227 -985 -103 -297 -127 -360 -138 -360 -3 0 -12 145 -19 323 -6 177
-16 410 -22 517 -5 107 -9 339 -9 515 1 176 1 352 0 390 l-2 70 -14 -33 c-9
-20 -17 -81 -20 -155 -2 -67 -9 -215 -15 -328 -11 -225 -13 -641 -5 -839 3
-69 8 -223 12 -344 3 -120 8 -230 10 -245 8 -61 16 -420 10 -444 -4 -17 -13
-27 -24 -27 -10 0 -67 27 -127 61 -161 89 -254 118 -428 130 -208 15 -446 -9
-572 -57 -28 -11 -206 393 -321 728 -68 202 -144 463 -144 497 0 36 649 1990
752 2264 22 60 38 111 35 114 -31 30 -98 -131 -331 -790 -173 -488 -190 -533
-200 -507 -7 18 3 71 79 445 101 493 143 602 353 903 201 291 465 504 862 697
557 271 762 386 922 521 68 57 131 103 140 104 10 0 23 -10 29 -22z m9170
-308 c43 -132 79 -246 79 -255 0 -9 -18 -42 -40 -72 -27 -38 -40 -67 -40 -89
0 -18 -5 -45 -12 -59 -12 -26 -6 -37 26 -48 6 -2 0 -17 -12 -34 -12 -17 -22
-41 -22 -53 0 -12 -14 -38 -31 -57 -34 -39 -34 -63 -1 -78 12 -6 20 -16 17
-23 -3 -8 -5 -25 -5 -38 0 -18 -9 -29 -35 -41 -34 -16 -46 -45 -25 -58 15 -9
12 -67 -5 -108 -8 -20 -15 -50 -15 -68 0 -17 -9 -44 -20 -60 -12 -15 -26 -42
-32 -60 -11 -31 -9 -33 37 -74 l49 -42 -54 -29 c-29 -16 -58 -37 -64 -46 -15
-25 3 -50 42 -60 40 -11 40 -21 2 -65 -19 -21 -30 -45 -30 -63 0 -16 -5 -32
-11 -36 -6 -3 -9 -17 -6 -30 2 -15 -3 -30 -14 -40 -27 -24 -23 -47 12 -73 39
-29 50 -58 33 -90 -8 -14 -11 -33 -9 -42 3 -9 -4 -24 -16 -35 -24 -21 -59 -95
-59 -124 0 -10 -5 -22 -11 -26 -8 -5 -9 8 -4 46 5 38 4 51 -4 46 -6 -4 -11
-16 -11 -27 0 -12 -10 -23 -25 -29 -20 -8 -25 -16 -25 -44 0 -22 -6 -36 -16
-40 -13 -5 -14 2 -8 52 4 31 12 83 19 115 11 56 5 74 -14 40 -5 -10 -15 -46
-21 -80 -7 -35 -16 -63 -20 -63 -12 0 -30 59 -30 96 0 19 -4 34 -9 34 -14 0
-24 -41 -21 -87 1 -26 -3 -43 -9 -43 -6 0 -11 11 -11 24 0 14 -10 30 -26 40
-23 16 -24 21 -18 62 3 25 25 77 47 116 l41 70 -18 32 c-16 31 -16 35 5 99 20
61 21 73 9 120 -11 49 -10 56 9 92 25 47 26 68 6 85 -13 11 -11 17 15 47 35
39 39 69 10 78 -27 9 -25 23 4 36 55 25 61 98 11 143 -34 31 -44 59 -26 70 9
6 43 -28 60 -61 14 -27 41 -30 41 -5 0 20 -36 82 -57 98 -23 16 -8 49 40 86
66 51 70 62 31 80 -22 10 -25 16 -19 46 3 19 14 50 23 69 l17 35 -39 33 c-48
40 -45 53 30 101 47 30 55 39 49 57 -19 60 -18 77 9 102 29 27 33 47 11 65
-13 11 -12 15 9 31 26 21 38 63 23 78 -8 8 -4 18 12 35 18 19 21 28 12 43 -7
15 -5 27 10 52 10 17 19 43 19 56 0 14 9 48 20 77 22 58 25 93 10 103 -5 3
-10 18 -10 33 l1 27 15 -28 c9 -16 51 -136 95 -267z m-10055 253 c-7 -7 -26 7
-26 19 0 6 6 6 15 -2 9 -7 13 -15 11 -17z m9891 -145 c-3 -8 -6 -5 -6 6 -1 11
2 17 5 13 3 -3 4 -12 1 -19z m-11445 -30 c-7 -7 -12 -8 -12 -2 0 14 12 26 19
19 2 -3 -1 -11 -7 -17z m5638 -32 c0 -2 -7 -7 -16 -10 -8 -3 -12 -2 -9 4 6 10
25 14 25 6z m5747 -33 c-3 -10 -5 -4 -5 12 0 17 2 24 5 18 2 -7 2 -21 0 -30z
m-11427 5 c0 -16 -49 -77 -50 -63 0 12 37 75 45 75 3 0 5 -6 5 -12z m368 -10
c2 -10 -8 -34 -22 -55 l-26 -38 0 51 c0 28 3 54 7 58 12 12 38 2 41 -16z m-85
-85 c-4 -37 -10 -53 -20 -53 -11 0 -12 11 -8 53 4 28 9 59 11 67 11 32 22 -14
17 -67z m218 19 c-27 -38 -50 -57 -59 -47 -6 6 63 75 75 75 3 0 -5 -13 -16
-28z m9001 -24 c-7 -7 -12 -8 -12 -2 0 14 12 26 19 19 2 -3 -1 -11 -7 -17z
m-5162 -133 c385 -174 796 -380 906 -453 144 -97 236 -181 297 -274 117 -176
242 -406 556 -1023 93 -182 179 -378 271 -620 88 -230 282 -805 277 -819 -3
-7 -54 -19 -135 -29 -128 -17 -222 -42 -271 -73 -67 -42 -201 -150 -201 -161
0 -21 12 -16 113 48 100 62 170 91 248 104 24 3 53 9 64 11 16 4 14 -1 -10
-21 -244 -216 -444 -473 -580 -748 -62 -125 -142 -350 -189 -530 -40 -153 -57
-350 -41 -464 8 -62 2 -64 -81 -37 -79 27 -77 24 -70 149 9 149 49 584 71 765
2 19 7 64 10 100 3 36 7 85 10 110 2 25 7 99 11 165 6 122 21 185 55 241 29
49 220 227 324 305 113 83 122 94 70 86 -49 -8 -207 -110 -357 -230 -21 -17
-41 -27 -45 -24 -11 12 -3 114 23 271 28 170 66 330 149 621 31 109 55 210 53
224 -3 26 -4 26 -22 -8 -10 -19 -27 -59 -37 -90 -30 -88 -112 -281 -119 -281
-4 0 -5 15 -4 33 10 101 14 1144 5 1157 -33 47 -38 -14 -61 -740 -6 -168 -12
-316 -14 -330 -3 -14 -7 -72 -11 -130 -3 -58 -8 -125 -10 -150 -3 -25 -14
-135 -24 -245 -21 -208 -27 -276 -36 -410 -11 -158 -18 -239 -45 -520 -25
-264 -78 -867 -85 -960 -2 -38 -7 -106 -10 -150 -3 -44 -7 -102 -10 -130 -2
-27 -7 -81 -10 -120 -3 -38 -10 -117 -15 -175 -5 -58 -12 -139 -15 -180 -4
-41 -17 -172 -31 -290 -24 -216 -77 -750 -89 -890 -3 -41 -10 -118 -15 -170
-5 -52 -12 -138 -15 -190 -4 -52 -11 -151 -16 -219 -5 -68 -9 -156 -9 -196 0
-40 -3 -87 -6 -104 l-7 -32 -56 6 c-186 21 -509 78 -738 130 l-73 17 0 37 c0
42 19 306 24 336 2 11 7 56 10 100 4 44 9 103 11 130 3 28 9 196 15 375 5 179
15 384 20 455 17 209 18 237 35 545 3 58 8 130 10 160 2 30 7 93 10 140 10
157 16 224 40 425 40 343 50 477 60 835 5 183 7 231 20 470 2 52 7 154 10 225
3 72 8 150 10 175 21 227 28 568 16 794 -7 135 -14 255 -16 268 -2 13 -6 73
-10 133 -4 61 -8 117 -10 125 -1 8 -6 60 -9 115 -4 55 -9 114 -11 130 -2 17
-7 75 -10 130 -15 255 -47 459 -124 779 -27 110 -54 228 -61 261 -22 113 -51
220 -105 392 -30 94 -52 179 -49 187 8 20 15 18 164 -49z m-3750 27 c0 -20
-27 -43 -43 -36 -22 8 -22 20 1 33 21 13 42 14 42 3z m-540 -12 c0 -5 -5 -10
-11 -10 -5 0 -7 5 -4 10 3 6 8 10 11 10 2 0 4 -4 4 -10z m1030 0 c0 -5 -4 -10
-10 -10 -5 0 -10 5 -10 10 0 6 5 10 10 10 6 0 10 -4 10 -10z m4750 -19 c0 -11
-9 -21 -22 -24 -13 -2 -30 -8 -39 -11 -11 -5 -18 -1 -22 13 -4 15 2 22 22 30
42 15 61 13 61 -8z m-5050 -9 c0 -13 -12 -22 -22 -16 -10 6 -1 24 13 24 5 0 9
-4 9 -8z m9340 -91 c0 -11 -4 -23 -10 -26 -6 -4 -10 5 -10 19 0 14 5 26 10 26
6 0 10 -9 10 -19z m-60 -40 c0 -5 -7 -11 -14 -14 -10 -4 -13 -1 -9 9 6 15 23
19 23 5z m-4890 -11 c0 -5 -4 -10 -10 -10 -5 0 -10 5 -10 10 0 6 5 10 10 10 6
0 10 -4 10 -10z m1820 -54 l-33 -31 29 42 c16 23 31 37 33 31 2 -6 -11 -24
-29 -42z m-2804 -12 c6 -33 -7 -64 -27 -64 -5 0 -9 28 -9 61 0 53 2 60 15 49
8 -7 17 -27 21 -46z m7648 -244 c50 -243 78 -429 71 -474 -3 -23 -1 -44 6 -52
9 -11 8 -18 -5 -32 -9 -10 -16 -30 -16 -44 0 -14 -6 -31 -14 -37 -25 -21 -66
-128 -73 -190 -5 -55 -3 -66 17 -93 33 -44 46 -203 19 -233 -10 -11 -23 -33
-28 -49 -10 -24 -14 -26 -26 -16 -26 22 -26 5 0 -51 25 -54 36 -159 16 -159
-5 0 -12 24 -16 53 -9 64 -43 177 -54 177 -15 0 -21 -13 -11 -25 5 -6 19 -65
30 -130 17 -102 18 -121 6 -133 -12 -12 -15 -7 -21 39 -4 30 -14 65 -22 78 -9
13 -23 56 -32 94 -9 40 -22 72 -30 75 -11 4 -12 0 -6 -14 14 -34 36 -147 33
-173 l-3 -26 -21 21 c-11 11 -27 23 -36 26 -12 5 -14 16 -7 65 4 32 15 78 24
102 18 52 18 51 4 51 -9 0 -22 -26 -43 -84 -5 -15 -9 -17 -18 -8 -9 9 -8 15 7
25 13 10 16 22 12 43 -3 17 1 47 10 73 13 34 14 47 5 62 -16 25 -16 26 18 38
36 12 40 45 12 82 -28 36 -23 121 7 153 27 29 22 56 -10 56 -18 0 -20 4 -14
28 3 15 14 35 23 46 11 11 16 33 15 60 -1 37 2 44 29 59 24 14 29 22 24 40 -4
12 -13 46 -21 76 -8 30 -22 64 -30 77 -20 30 -19 41 5 71 22 28 26 63 9 80 -8
8 -5 22 9 49 30 59 54 153 56 214 1 30 5 60 9 66 4 7 3 34 -2 60 -6 33 -6 55
2 69 9 17 13 11 29 -50 10 -38 33 -144 52 -235z m-1764 261 c0 -13 -21 -19
-45 -12 -18 4 -18 6 5 12 36 10 40 10 40 0z m-9570 -37 c-34 -14 -34 -14 30
-9 36 3 79 7 95 10 135 17 165 18 165 1 0 -9 7 -19 15 -22 45 -18 -12 -40
-120 -49 -44 -4 -83 -9 -86 -11 -3 -2 -55 -6 -115 -10 -83 -4 -129 -13 -194
-35 -77 -27 -98 -30 -230 -32 -136 -2 -149 -4 -208 -31 -34 -16 -64 -27 -66
-25 -3 2 3 37 13 78 20 88 9 83 202 100 392 34 494 43 498 47 2 2 11 4 20 3 9
0 0 -7 -19 -15z m2753 -80 c232 -117 333 -146 513 -145 147 0 239 20 349 76
49 24 93 41 98 36 4 -4 28 -99 53 -210 34 -155 42 -206 34 -221 -12 -22 -122
-81 -185 -99 -136 -39 -287 -50 -432 -30 -162 22 -331 77 -351 116 -5 10 -24
68 -41 128 -28 95 -75 221 -135 358 -9 21 -12 37 -6 37 6 0 52 -21 103 -46z
m8457 -54 c0 -5 -7 -10 -16 -10 -8 0 -12 5 -9 10 3 6 10 10 16 10 5 0 9 -4 9
-10z m-11131 -117 c-47 -49 -99 -106 -116 -129 -33 -41 -86 -67 -122 -57 -11
3 -33 -5 -51 -19 l-32 -23 -20 28 c-28 39 -63 35 -167 -18 -83 -42 -92 -45
-147 -39 -56 6 -62 4 -111 -30 -53 -36 -93 -47 -93 -23 0 15 18 134 25 165 3
12 12 22 20 22 8 0 33 16 55 36 31 29 46 35 67 31 16 -3 45 -8 65 -12 32 -6
44 -3 90 27 85 56 132 70 180 57 50 -13 96 -5 161 27 41 21 54 24 79 15 46
-16 98 -13 143 8 22 11 44 20 49 20 5 1 -29 -38 -75 -86z m8985 26 c-8 -14
-34 -11 -34 4 0 8 3 17 7 20 9 9 34 -13 27 -24z m331 -59 c3 -5 1 -10 -4 -10
-6 0 -11 5 -11 10 0 6 2 10 4 10 3 0 8 -4 11 -10z m-2548 -94 c-8 -21 -47 -41
-47 -24 0 24 31 61 42 50 6 -6 8 -17 5 -26z m-1192 4 c-10 -11 -23 -20 -29
-20 -6 1 0 10 13 20 30 26 39 26 16 0z m3354 -16 c-17 -21 -31 -17 -19 6 6 11
15 18 21 14 6 -4 6 -11 -2 -20z m-2479 -19 c-13 -14 -28 -25 -34 -25 -5 0 3
13 19 30 16 16 31 28 33 25 3 -3 -5 -16 -18 -30z m4151 -8 c-16 -16 -26 0 -10
19 9 11 15 12 17 4 2 -6 -1 -17 -7 -23z m439 -14 c-1 -18 -18 -35 -24 -24 -4
6 -4 16 -1 21 7 12 25 13 25 3z m-5584 -22 c-3 -5 -16 -11 -28 -14 -22 -6 -22
-5 -4 8 22 17 40 20 32 6z m-5666 -55 c0 -3 -27 -53 -59 -112 -33 -58 -79
-152 -102 -208 -61 -145 -63 -146 -173 -146 -95 0 -209 -22 -307 -60 -30 -11
-55 -20 -56 -20 -7 0 0 134 10 219 l12 93 53 20 53 20 55 -26 c84 -40 124 -32
144 28 12 37 44 56 63 37 33 -33 142 11 196 79 38 48 111 97 111 76z m9413
-15 c-6 -23 -50 -67 -59 -58 -7 7 44 77 56 77 5 0 6 -9 3 -19z m1818 -64 c-13
-12 -20 -15 -16 -7 14 26 28 41 33 35 3 -3 -5 -16 -17 -28z m-351 -11 c16 -20
9 -60 -11 -64 -17 -3 -28 28 -21 61 4 21 16 22 32 3z m-5210 -74 c53 -22 114
-44 135 -48 22 -4 58 -13 80 -21 22 -8 94 -25 161 -38 68 -14 148 -37 185 -54
50 -24 87 -32 170 -40 116 -11 178 -23 254 -48 l50 -17 -40 -7 c-22 -5 -62 -8
-88 -8 -40 -1 -53 -6 -75 -30 -15 -16 -43 -32 -62 -36 -19 -4 -69 -22 -110
-40 -97 -42 -121 -47 -167 -37 -51 11 -96 0 -146 -36 -23 -16 -62 -38 -87 -49
-25 -11 -74 -39 -109 -62 -76 -48 -75 -49 -120 51 -25 56 -27 69 -16 78 8 6
19 27 25 46 11 33 32 44 45 24 14 -22 46 -10 59 22 15 35 3 32 161 40 36 2 70
10 85 21 17 12 35 15 56 11 21 -4 48 1 79 15 26 12 67 21 91 21 37 0 44 3 44
19 0 16 -9 21 -45 27 -25 3 -58 3 -73 -1 -15 -4 -56 -10 -92 -14 -36 -5 -79
-14 -97 -22 -27 -11 -36 -11 -57 1 -23 12 -30 11 -59 -5 -28 -15 -40 -16 -65
-7 -28 10 -35 8 -60 -13 -22 -18 -43 -25 -88 -27 l-59 -3 -3 -35 c-4 -34 -4
-33 -43 45 -22 43 -38 83 -36 88 1 5 26 17 55 27 39 14 60 16 84 10 52 -15
138 15 138 49 0 28 -24 42 -67 40 -21 -1 -57 1 -80 5 -35 6 -49 4 -77 -13 -37
-23 -83 -27 -106 -8 -13 10 -90 132 -90 141 0 1 37 -3 83 -9 52 -8 116 -27
177 -53z m-1702 21 c25 -48 74 -347 87 -528 11 -161 46 -601 50 -637 23 -192
32 -700 16 -923 -6 -71 -13 -206 -16 -300 -3 -93 -8 -190 -10 -215 -4 -45 -10
-156 -20 -425 -22 -568 -28 -661 -75 -1120 -27 -271 -36 -391 -45 -635 -10
-255 -17 -345 -28 -356 -14 -14 -357 -57 -409 -52 l-35 3 84 119 c110 156 99
173 -30 49 -100 -96 -133 -118 -210 -139 -56 -15 -224 -9 -245 9 -14 11 -13
101 3 312 9 121 20 463 30 915 9 420 37 1049 60 1355 2 33 7 105 10 160 4 55
9 111 12 125 9 47 11 715 3 815 -57 666 -95 935 -191 1334 -21 84 -27 127 -20
134 7 7 14 7 23 0 26 -22 193 -74 282 -88 203 -33 425 -8 566 64 88 45 96 47
108 24z m4542 -20 c0 -5 -4 -15 -10 -23 -11 -18 -25 -7 -17 15 6 15 27 21 27
8z m2270 -49 c0 -14 -4 -22 -10 -19 -5 3 -10 17 -10 31 0 14 4 22 10 19 6 -3
10 -17 10 -31z m47 -6 c-3 -8 -6 -5 -6 6 -1 11 2 17 5 13 3 -3 4 -12 1 -19z
m363 -17 c0 -12 -20 -25 -27 -18 -7 7 6 27 18 27 5 0 9 -4 9 -9z m341 -188
c-12 -20 -14 -14 -5 12 4 9 9 14 11 11 3 -2 0 -13 -6 -23z m-1991 5 c0 -18
-43 -98 -52 -98 -15 0 -8 32 14 71 22 39 38 50 38 27z m-811 -60 c-8 -14 -14
-18 -17 -10 -4 13 17 46 25 38 3 -2 -1 -15 -8 -28z m1557 -52 c13 -55 -39 -88
-70 -44 -21 30 -20 35 12 51 39 21 51 20 58 -7z m-1186 -11 c-7 -8 -17 -15
-22 -15 -6 0 -5 7 2 15 7 8 17 15 22 15 6 0 5 -7 -2 -15z m2420 -25 c13 -9 12
-12 -4 -25 -22 -17 -36 -11 -36 16 0 21 16 24 40 9z m-2910 -79 c0 -6 -4 -13
-10 -16 -5 -3 -10 1 -10 9 0 9 5 16 10 16 6 0 10 -4 10 -9z m1541 -1 c22 -12
26 -50 6 -50 -19 0 -50 37 -42 49 8 14 11 14 36 1z m-10811 -10 c0 -5 -5 -10
-11 -10 -5 0 -7 5 -4 10 3 6 8 10 11 10 2 0 4 -4 4 -10z m12250 -20 c0 -5 -5
-10 -11 -10 -5 0 -7 5 -4 10 3 6 8 10 11 10 2 0 4 -4 4 -10z m-12080 -75 c0
-8 -6 -15 -14 -15 -20 0 -29 17 -14 23 22 9 28 7 28 -8z m159 -14 c17 -9 17
-15 -5 -112 -25 -109 -48 -254 -60 -379 -6 -55 -9 -67 -14 -45 -5 27 -9 30
-46 33 -26 2 -45 -2 -52 -11 -6 -7 -14 -54 -18 -103 -8 -119 -6 -116 -51 -93
-20 10 -56 19 -79 19 l-41 0 -6 53 c-4 28 -9 148 -13 265 l-7 213 41 -7 c48
-7 87 12 102 50 8 23 43 36 98 36 18 0 39 14 68 45 42 47 53 51 83 36z m11033
-33 c-2 -21 -8 -38 -14 -38 -5 0 -6 10 -3 23 4 12 9 30 12 40 8 29 11 16 5
-25z m845 -105 c-9 -9 -19 -14 -23 -11 -10 10 6 28 24 28 15 0 15 -1 -1 -17z
m-857 -13 c0 -11 -7 -20 -15 -20 -8 0 -15 9 -15 20 0 11 7 20 15 20 8 0 15 -9
15 -20z m812 -32 c-7 -7 -12 -8 -12 -2 0 14 12 26 19 19 2 -3 -1 -11 -7 -17z
m92 -47 c-6 -8 -24 12 -24 28 0 31 15 34 21 4 3 -15 4 -30 3 -32z m-449 -1
c-3 -5 -11 -10 -16 -10 -6 0 -7 5 -4 10 3 6 11 10 16 10 6 0 7 -4 4 -10z m65
-45 c0 -14 -4 -25 -10 -25 -11 0 -14 33 -3 43 11 11 13 8 13 -18z m-1730 5 c0
-5 -10 -10 -22 -10 -19 0 -20 2 -8 10 19 13 30 13 30 0z m1601 -17 c3 -49 -4
-90 -18 -105 -34 -38 -38 -17 -17 95 6 30 33 38 35 10z m-1968 -17 c40 -13 91
-35 114 -48 41 -24 41 -24 25 -50 -9 -15 -35 -34 -59 -43 -47 -18 -68 -45 -58
-75 6 -19 2 -24 -49 -62 -26 -19 -28 -25 -22 -64 5 -41 4 -45 -24 -59 -30 -16
-48 -54 -35 -76 10 -16 -14 -29 -55 -29 -20 0 -41 -5 -48 -12 -21 -21 -14 -56
15 -71 l26 -14 -44 -7 c-55 -8 -136 -52 -163 -88 -29 -40 -14 -81 33 -88 31
-5 62 -32 50 -44 -3 -3 -23 -8 -45 -12 -46 -7 -51 -10 -64 -33 -7 -14 -5 -25
10 -44 23 -29 18 -32 -50 -36 -25 -1 -51 -8 -59 -16 -20 -20 -6 -59 26 -74
l28 -13 -33 -13 c-25 -11 -32 -20 -32 -41 0 -15 6 -32 14 -38 14 -12 30 -86
18 -86 -30 -1 -151 -12 -169 -16 -12 -2 -24 -13 -28 -24 -12 -37 11 -56 97
-81 l83 -24 -64 -5 c-98 -8 -111 -50 -28 -95 20 -11 37 -23 37 -26 0 -4 -30
-17 -67 -30 -80 -28 -89 -49 -48 -103 l25 -34 -47 -11 c-56 -14 -73 -27 -73
-51 0 -24 -20 -30 -92 -30 l-60 0 9 68 c11 88 9 191 -5 230 -8 24 -8 32 4 36
8 3 14 18 14 34 0 24 -6 32 -31 42 -25 11 -28 15 -15 22 9 5 16 22 16 38 0 22
5 30 18 30 10 0 28 7 41 16 19 13 22 22 17 48 -4 17 -6 52 -6 77 1 30 -5 50
-15 59 -14 12 -13 15 14 26 17 7 36 24 43 39 9 19 19 25 45 25 20 0 41 8 53
20 24 24 24 30 5 56 -8 10 -15 30 -15 43 0 14 -14 37 -35 56 l-35 33 40 7 c30
5 44 14 55 35 8 15 26 31 40 34 27 7 55 56 55 96 0 14 10 24 30 32 32 11 50
34 50 66 0 13 10 24 30 30 29 11 42 37 37 76 -1 13 8 22 33 31 40 13 83 77 75
110 -5 23 28 85 46 85 6 0 30 19 54 43 24 23 64 58 89 77 25 19 49 43 52 53 7
23 22 22 107 -7z m2461 -7 c-4 -6 -11 -6 -20 2 -21 17 -17 31 6 19 11 -6 18
-15 14 -21z m-848 -16 c-10 -10 -19 5 -10 18 6 11 8 11 12 0 2 -7 1 -15 -2
-18z m138 -38 c6 -24 -21 -102 -31 -91 -3 2 1 14 7 26 8 14 8 30 2 48 -10 29
-5 55 8 47 4 -3 11 -16 14 -30z m-1332 -85 c21 -11 59 -22 85 -25 26 -4 83
-24 126 -46 43 -21 84 -39 92 -39 7 0 102 -29 210 -65 107 -36 204 -65 215
-65 11 0 42 -9 70 -20 28 -11 74 -20 103 -20 105 -1 380 -53 452 -85 28 -13
84 -33 125 -46 59 -18 69 -24 48 -27 -31 -4 -36 -23 -13 -42 8 -7 15 -17 15
-23 0 -5 11 -24 23 -41 48 -63 47 -65 -96 -178 -73 -57 -154 -122 -180 -146
-27 -24 -54 -41 -60 -39 -7 2 -11 19 -9 40 2 19 -3 46 -11 59 -8 13 -15 56
-16 98 -2 55 -7 80 -21 95 -12 13 -15 27 -10 40 4 11 3 34 -3 50 -6 17 -13 66
-16 110 l-6 79 -43 9 c-47 9 -66 1 -75 -33 -3 -12 4 -29 19 -45 23 -25 42 -63
58 -113 6 -17 2 -24 -17 -31 -46 -18 -46 -69 -1 -90 19 -8 24 -16 19 -31 -3
-10 -1 -28 5 -39 8 -17 5 -26 -21 -56 l-32 -36 22 -30 c12 -16 19 -35 15 -41
-4 -7 -9 -28 -11 -47 -12 -144 -15 -153 -75 -203 -29 -23 -91 -79 -138 -123
-47 -44 -102 -89 -123 -100 -34 -18 -38 -18 -53 -3 -15 15 -15 18 2 47 15 25
16 37 8 59 -8 22 -7 33 8 57 22 37 23 83 2 107 -16 16 -15 18 0 24 27 10 38
40 24 69 -9 19 -9 28 0 37 21 21 14 65 -13 86 -20 16 -23 25 -18 56 4 26 1 42
-10 54 -18 20 -24 162 -9 228 5 22 5 50 1 61 -4 12 -11 54 -15 94 -9 97 -16
109 -62 109 l-37 0 25 20 25 20 -34 -10 c-44 -12 -48 -17 -56 -61 -6 -30 -3
-40 16 -57 18 -18 20 -24 9 -37 -7 -8 -10 -24 -7 -36 3 -12 1 -30 -6 -40 -16
-26 3 -45 31 -30 15 8 21 7 25 -2 5 -14 -16 -108 -30 -130 -4 -6 -8 -32 -10
-57 -1 -25 -5 -77 -9 -116 -6 -64 -5 -73 14 -92 l21 -21 -45 -44 c-63 -63 -59
-100 15 -152 23 -15 41 -30 41 -34 -1 -3 -19 -18 -40 -33 -45 -32 -54 -69 -20
-90 29 -18 25 -25 -25 -49 -52 -25 -60 -34 -57 -70 l2 -26 -97 -6 c-54 -3
-152 -17 -218 -30 -202 -41 -180 -42 -180 6 0 33 6 48 28 69 15 15 27 34 27
43 0 16 -31 51 -66 72 -19 12 -19 13 1 25 11 7 40 20 65 28 38 13 46 20 48 43
2 17 -4 37 -14 48 -13 15 -15 22 -6 31 19 19 14 56 -9 68 -19 11 -20 13 -4 30
10 11 15 31 14 48 -2 20 3 38 16 52 18 20 19 23 3 50 -13 24 -14 31 -3 40 7 6
15 23 18 38 3 15 9 39 13 55 6 24 3 28 -25 38 -31 11 -31 12 -25 63 4 28 14
60 24 71 10 11 25 35 35 54 16 32 16 36 1 62 -16 26 -15 29 2 38 13 7 21 25
25 58 3 34 12 52 29 65 94 74 119 111 83 124 -8 4 -15 13 -15 21 0 13 -9 15
-52 10 -64 -8 -85 -25 -68 -56 11 -22 5 -61 -10 -61 -5 0 -16 -24 -26 -52 -9
-29 -30 -68 -45 -86 -34 -39 -35 -49 -8 -78 l20 -21 -33 -28 c-40 -33 -48 -52
-37 -84 8 -19 3 -30 -22 -58 -23 -27 -30 -43 -27 -64 3 -21 -2 -35 -19 -51
-27 -26 -30 -64 -5 -91 12 -14 13 -21 5 -24 -7 -2 -23 -13 -37 -24 -20 -16
-26 -29 -26 -61 0 -25 -7 -49 -17 -60 -14 -16 -15 -24 -5 -50 10 -26 9 -35 -3
-48 -12 -14 -13 -23 -5 -46 6 -16 8 -30 3 -31 -26 -9 -74 -45 -88 -67 -15 -23
-15 -27 4 -64 11 -22 28 -42 37 -46 13 -5 8 -12 -25 -37 -36 -26 -42 -34 -39
-62 3 -28 7 -32 36 -35 20 -2 32 -8 29 -15 -3 -9 -71 -12 -253 -13 -179 0
-261 -4 -292 -14 -39 -12 -44 -12 -57 6 -8 10 -15 21 -15 24 0 3 24 11 53 18
65 15 94 45 74 76 -8 12 -25 23 -38 24 -44 7 -71 52 -31 52 32 0 62 29 62 60
0 21 -10 37 -35 58 l-36 29 41 12 c28 8 44 20 50 37 7 18 17 24 39 24 20 0 34
7 41 19 15 29 13 40 -17 67 l-27 25 22 15 c24 16 28 44 12 75 -9 16 -7 21 14
29 35 13 47 39 32 74 -10 26 -9 31 16 56 16 17 30 44 34 67 4 29 14 44 33 56
36 21 58 62 43 79 -7 9 -7 19 -2 28 6 8 10 32 10 53 0 20 4 37 10 37 13 0 39
41 43 68 2 12 18 37 35 55 25 25 32 42 32 71 0 30 7 44 35 70 21 21 35 43 35
58 0 18 9 29 33 40 22 11 41 33 60 71 l28 56 67 -25 c37 -14 84 -34 104 -44z
m1745 48 c-3 -8 -6 -5 -6 6 -1 11 2 17 5 13 3 -3 4 -12 1 -19z m-619 -29 c-3
-8 -7 -3 -11 10 -4 17 -3 21 5 13 5 -5 8 -16 6 -23z m-323 -46 c-7 -17 -8 -17
-15 2 -5 11 -9 27 -9 35 -1 12 2 11 15 -2 11 -11 14 -23 9 -35z m-79 -60 c-9
-9 -56 42 -56 60 0 6 14 -3 32 -20 18 -18 28 -36 24 -40z m1203 1 c-10 -23
-13 -25 -16 -11 -3 10 1 25 8 33 17 21 21 11 8 -22z m-1412 3 c4 -7 0 -8 -11
-4 -10 4 -22 7 -27 7 -5 0 -9 4 -9 9 0 12 38 2 47 -12z m1259 -33 c-4 -20 -10
-34 -13 -30 -3 3 -2 21 1 42 4 20 10 34 13 30 3 -3 2 -21 -1 -42z m-916 9 c0
-5 -5 -15 -10 -23 -7 -11 -12 -12 -21 -3 -6 6 -8 16 -5 22 8 12 36 15 36 4z
m1040 -20 c0 -16 -41 -75 -48 -69 -7 8 28 76 40 76 4 0 8 -3 8 -7z m-254 -60
c-11 -11 -19 6 -11 24 8 17 8 17 12 0 3 -10 2 -21 -1 -24z m-11593 -143 c-3
-11 -9 -20 -14 -20 -5 0 -9 9 -9 20 0 11 6 20 14 20 9 0 12 -7 9 -20z m-192
-37 c2 -5 -7 -10 -21 -11 -21 -4 -22 -2 -11 12 13 16 24 15 32 -1z m8211 -39
c42 -27 101 -59 132 -69 63 -22 67 -33 38 -93 -11 -20 -36 -90 -57 -156 -26
-83 -47 -129 -69 -154 -34 -38 -136 -92 -176 -92 -42 0 -193 29 -203 39 -6 6
-25 85 -43 178 -35 179 -50 231 -89 301 -14 25 -25 48 -25 52 0 12 57 30 115
36 27 4 52 8 55 11 3 2 59 3 125 1 l120 -3 77 -51z m-8032 -11 c0 -23 -176
-469 -181 -460 -4 7 -16 73 -27 147 -38 238 -37 221 -5 252 19 18 48 30 93 39
36 7 69 16 75 21 11 10 45 11 45 1z m11586 -47 c22 -7 63 -17 92 -21 32 -4 52
-11 49 -18 -2 -6 -31 -28 -64 -48 l-61 -38 -12 29 c-7 17 -9 41 -6 54 5 21 1
28 -21 40 -35 19 -27 20 23 2z m194 4 c12 -8 11 -10 -7 -10 -12 0 -25 5 -28
10 -8 13 15 13 35 0z m175 -202 c-15 -101 -30 -186 -34 -191 -4 -4 -29 -3 -57
3 -55 11 -352 26 -344 17 3 -3 77 -13 165 -22 249 -25 233 -20 225 -66 -4 -22
-10 -42 -12 -44 -2 -3 -49 2 -104 10 -103 15 -331 12 -409 -4 -34 -7 -36 -9
-11 -10 109 -4 501 -33 508 -37 4 -3 8 -11 8 -18 0 -9 -25 -15 -87 -19 -122
-7 -288 -49 -410 -103 -78 -35 -103 -51 -103 -65 0 -26 21 -24 125 11 98 33
214 57 314 65 36 3 80 8 98 11 35 5 44 -2 34 -30 -7 -17 -16 -19 -72 -17 -83
4 -103 4 -164 1 -44 -2 33 -16 217 -39 6 -1 -6 -52 -63 -252 -29 -102 -32
-106 -65 -118 -29 -10 -109 -65 -183 -124 -14 -12 -13 -1 4 123 10 73 14 203
6 184 -16 -36 -61 -249 -61 -287 0 -20 -4 -38 -9 -42 -11 -6 -14 17 -32 208
-7 70 -16 130 -20 132 -9 6 -23 -238 -14 -264 16 -51 -14 -12 -62 79 l-52 100
39 0 c22 0 40 4 40 9 0 20 -287 81 -383 81 -69 0 -53 13 68 53 103 35 132 57
73 57 -39 0 -170 -31 -252 -59 -33 -12 -63 -21 -68 -21 -15 0 120 122 219 197
52 40 133 108 179 152 106 100 318 259 465 348 61 38 140 92 176 121 76 63
126 88 131 66 2 -7 -9 -96 -23 -196z m-4437 140 c25 -32 112 -341 112 -398 0
-13 -13 -26 -37 -39 -75 -37 -77 -37 -135 25 -29 31 -87 79 -128 107 -91 62
-170 139 -170 166 0 23 36 53 135 110 64 38 76 41 141 41 45 0 75 -5 82 -12z
m1857 -38 c-27 -12 -35 -12 -35 0 0 6 12 10 28 9 24 0 25 -1 7 -9z m-1042 -94
c26 -21 47 -43 47 -48 0 -17 -71 -103 -102 -122 -17 -11 -53 -23 -81 -26 l-49
-7 5 40 c10 75 97 227 121 209 6 -5 32 -26 59 -46z m-1239 -131 c15 -20 52
-52 82 -72 l55 -36 -37 -30 c-33 -28 -36 -34 -32 -72 l5 -41 -83 -23 c-88 -24
-114 -43 -114 -82 0 -33 -81 -79 -105 -59 -8 7 -33 71 -56 144 -22 72 -47 148
-55 169 -23 61 -20 67 34 67 71 0 91 20 80 83 -2 15 9 23 52 36 30 10 68 24
84 33 l30 16 16 -48 c9 -27 29 -65 44 -85z m1405 -14 c10 -6 5 -11 -18 -16
-18 -4 -43 -19 -56 -33 -34 -36 -32 -19 3 24 27 34 46 41 71 25z m-192 -152
c67 -33 131 -127 153 -226 6 -26 24 -74 40 -105 33 -63 36 -97 19 -197 -9 -49
-9 -88 1 -161 9 -71 9 -111 1 -156 -33 -181 -182 -321 -304 -284 -48 14 -208
92 -249 122 -34 23 -36 57 -7 84 19 17 42 20 208 24 153 4 186 8 186 19 0 26
-67 33 -260 28 -205 -6 -238 0 -269 44 -33 48 -7 112 56 142 57 27 307 67 416
67 107 0 132 5 132 25 0 20 -28 27 -125 31 -94 3 -262 -16 -359 -41 -122 -32
-181 -8 -174 71 2 32 6 39 23 36 183 -26 253 4 269 113 6 36 13 48 31 55 36
14 133 29 213 34 78 4 92 10 74 28 -19 19 -122 21 -213 4 -47 -9 -93 -16 -101
-16 -9 0 -35 30 -59 68 -24 37 -47 72 -51 79 -8 12 91 80 166 113 56 25 129
25 183 -1z m-471 -88 c191 -85 240 -350 66 -353 -57 -1 -110 27 -179 93 -66
63 -67 64 -117 24 -28 -21 -4 -48 36 -40 43 10 48 -18 8 -51 -31 -26 -32 -30
-25 -80 5 -40 2 -59 -9 -76 -15 -23 -17 -70 -12 -263 2 -95 -219 -431 -316
-478 -47 -23 -137 -34 -147 -18 -22 35 115 697 185 893 30 85 113 240 156 292
16 20 44 44 61 53 72 37 213 39 293 4z m2734 19 c0 -5 -4 -10 -10 -10 -5 0
-10 5 -10 10 0 6 5 10 10 10 6 0 10 -4 10 -10z m-3819 -304 c34 -29 51 -32
304 -46 105 -6 194 -15 199 -20 5 -5 -9 -66 -32 -142 -68 -220 -122 -456 -142
-613 -6 -49 -22 -150 -36 -224 -13 -74 -24 -153 -24 -176 0 -55 -15 -96 -63
-175 -45 -73 -52 -80 -81 -74 -12 2 -78 12 -147 23 -136 22 -144 24 -514 111
-137 32 -276 64 -308 70 -32 7 -61 18 -64 25 -11 30 102 325 195 511 107 213
293 463 450 605 48 43 211 149 231 149 2 0 16 -11 32 -24z m4319 -102 c96 -15
180 -32 187 -38 6 -6 27 -51 46 -101 19 -49 37 -97 41 -106 6 -13 -1 -18 -32
-23 -40 -6 -172 -86 -206 -124 -11 -12 -23 -22 -28 -22 -4 0 -9 60 -9 133 l-1
132 -14 -65 c-8 -36 -17 -105 -20 -155 -6 -83 -21 -125 -44 -125 -4 0 -13 53
-20 118 -21 185 -30 183 -26 -6 2 -117 0 -172 -7 -169 -6 2 -15 16 -19 33 -16
52 -51 128 -82 174 -37 56 -35 54 -41 48 -3 -3 6 -25 19 -49 14 -24 48 -123
77 -219 29 -96 56 -179 60 -184 13 -15 11 41 -5 106 -7 31 -10 62 -5 69 9 15
13 -1 28 -105 9 -63 23 -97 35 -85 3 3 0 50 -6 106 -12 106 -8 133 17 133 11
0 15 -11 16 -42 1 -77 13 -133 29 -136 13 -2 15 13 12 105 l-3 108 94 57 c52
31 114 62 139 68 42 11 51 9 116 -19 60 -26 83 -31 151 -31 48 0 81 -4 81 -10
0 -14 -107 -281 -164 -410 -49 -109 -231 -469 -246 -484 -4 -4 -43 -15 -87
-23 -101 -19 -111 -30 -22 -23 39 3 73 2 75 -2 6 -10 -106 -197 -219 -365
-666 -991 -1593 -1765 -2682 -2235 -601 -260 -1325 -441 -1935 -483 -47 -3
-116 -8 -155 -12 -75 -6 -654 -6 -695 1 -14 2 -38 4 -53 5 l-29 1 5 523 c3
287 7 538 10 557 3 19 8 96 11 170 4 74 13 189 21 255 8 66 20 176 25 245 20
239 101 805 118 822 8 8 28 7 74 -5 107 -27 143 -30 202 -13 128 38 241 212
306 474 10 38 14 42 42 42 17 0 108 -19 202 -41 94 -23 211 -51 260 -63 49
-12 94 -29 99 -37 7 -11 -20 -73 -101 -234 -106 -213 -135 -284 -166 -410 -51
-209 -70 -477 -42 -615 69 -341 349 -672 712 -842 144 -67 284 -95 524 -103
320 -11 666 139 930 404 174 174 273 347 307 536 18 98 10 445 -13 570 -41
224 -119 436 -278 750 -124 243 -196 367 -291 495 -68 93 -85 121 -85 143 0 8
42 40 93 71 50 31 99 62 107 68 75 63 120 189 120 337 l0 99 78 7 c42 3 120
15 174 26 53 10 113 19 133 19 22 0 72 15 118 36 89 41 32 37 502 32 102 -1
194 3 230 11 162 33 383 71 411 71 18 0 34 -5 36 -11 3 -8 49 -8 169 -1 149 9
172 12 235 40 92 39 124 50 154 51 14 1 104 -11 200 -25z m-3326 -116 c19 -27
9 -39 -31 -40 -51 -2 -66 17 -37 46 22 22 50 20 68 -6z m26 -98 c0 -21 -24
-60 -42 -66 -10 -3 -32 -2 -49 1 -43 10 -37 46 11 62 43 15 80 16 80 3z m3927
-85 c-13 -40 -26 -64 -33 -61 -7 3 -40 10 -73 17 -34 6 -64 15 -67 20 -7 12
144 83 188 88 3 1 -3 -28 -15 -64z m-3878 -91 l61 -27 0 -50 c0 -49 1 -51 79
-126 118 -113 444 -603 591 -886 125 -243 207 -467 264 -725 43 -198 46 -441
6 -580 -95 -330 -492 -708 -851 -810 -96 -27 -277 -37 -390 -21 -243 36 -480
158 -681 350 -153 146 -219 258 -255 431 -21 103 -13 364 16 512 26 129 88
328 144 458 48 111 292 555 367 666 29 42 118 158 198 258 170 211 243 320
318 469 30 59 58 107 63 107 6 0 37 -12 70 -26z m-6705 -673 c77 -21 253 -106
300 -146 24 -20 24 -24 30 -250 3 -126 7 -243 10 -260 3 -16 7 -124 10 -240 4
-115 9 -230 11 -255 17 -148 22 -217 24 -320 l2 -115 -46 45 c-60 58 -251 270
-341 380 -239 289 -503 681 -672 1001 l-62 116 58 15 c57 16 192 44 247 51 17
2 102 3 190 1 124 -2 178 -7 239 -23z m2646 -2231 c211 -21 383 -26 499 -15
89 9 93 6 86 -90 -2 -38 -7 -108 -10 -155 -7 -113 -13 -175 -30 -295 -23 -164
-24 -175 -25 -297 0 -89 -3 -116 -12 -113 -7 2 -85 25 -173 51 -182 53 -426
140 -595 212 -128 54 -119 39 -106 157 4 33 15 125 26 205 10 80 23 192 29
249 6 62 15 107 22 112 7 4 31 6 53 3 23 -2 129 -13 236 -24z"/>
<path d="M2928 10953 c6 -2 18 -2 25 0 6 3 1 5 -13 5 -14 0 -19 -2 -12 -5z"/>
<path d="M2848 10943 c-16 -2 -28 -8 -28 -13 0 -4 19 -4 42 2 70 15 61 22 -14
11z"/>
<path d="M2141 10084 c-47 -41 -48 -53 -1 -29 31 16 32 16 52 -10 18 -23 26
-26 57 -20 19 4 48 16 65 28 16 11 45 26 65 33 l36 12 -30 12 c-24 9 -41 9
-85 -4 -48 -13 -57 -13 -71 0 -24 22 -42 17 -88 -22z"/>
<path d="M4588 10706 c-1 -2 -46 -6 -98 -10 -285 -19 -504 -62 -720 -143 -179
-67 -412 -194 -469 -257 l-24 -26 27 0 c15 0 61 20 104 43 158 89 305 153 468
202 320 97 620 151 944 168 26 1 43 6 40 12 -4 9 -262 19 -272 11z"/>
<path d="M4725 10273 c-74 -17 -337 -106 -354 -121 -15 -11 -20 -23 -16 -35
10 -23 84 -23 183 2 90 23 242 45 293 44 19 0 56 -10 82 -22 75 -34 122 -2 81
57 -8 12 -23 26 -33 32 -17 9 -199 51 -211 49 -3 -1 -14 -3 -25 -6z"/>
<path d="M3640 10128 c-23 -24 -53 -56 -68 -72 l-27 -28 42 27 c23 15 53 41
66 59 52 69 46 75 -13 14z"/>
<path d="M4615 10019 c-67 -15 -157 -51 -148 -59 12 -10 141 -57 192 -70 118
-31 200 33 138 106 -20 23 -33 28 -83 30 -32 2 -77 -1 -99 -7z m55 -46 c0 -16
-3 -37 -6 -48 -5 -21 -6 -21 -60 4 -30 14 -53 30 -51 35 3 10 69 33 100 35 12
1 17 -7 17 -26z"/>
<path d="M3242 9928 c-58 -15 -89 -96 -71 -184 5 -28 16 -59 23 -69 11 -15 12
-5 8 62 -7 118 20 160 104 164 33 2 45 -4 77 -34 40 -39 51 -88 21 -105 -14
-8 -14 -10 0 -21 9 -7 23 -11 31 -7 21 8 20 79 -1 97 -9 7 -20 24 -25 36 -5
13 -17 26 -26 30 -10 3 -25 12 -33 18 -20 17 -70 23 -108 13z"/>
<path d="M3777 9785 c-10 -24 -42 -83 -70 -131 -29 -49 -65 -111 -81 -139
l-29 -50 27 25 c98 89 216 310 178 334 -4 2 -15 -15 -25 -39z"/>
<path d="M3342 9720 c-70 -75 -69 -93 5 -171 64 -67 116 -90 158 -71 38 17 34
91 -6 113 -17 9 -18 7 -9 -16 12 -32 -2 -71 -29 -80 -16 -5 -34 8 -81 56 -67
68 -68 74 -23 141 36 53 26 71 -15 28z"/>
<path d="M3440 9658 c0 -13 7 -32 15 -42 15 -20 15 -20 15 0 0 30 -11 64 -21
64 -5 0 -9 -10 -9 -22z"/>
<path d="M3758 9224 c-15 -44 -32 -112 -38 -150 -12 -73 -12 -326 0 -319 4 2
10 62 12 132 4 85 15 167 33 246 34 154 31 204 -7 91z"/>
<path d="M4644 9228 c-87 -82 -163 -259 -215 -498 -21 -99 -25 -147 -14 -158
5 -5 9 44 6 62 -1 5 5 23 13 40 8 17 33 90 56 161 51 161 113 291 179 373 28
34 51 64 51 67 0 16 -28 -1 -76 -47z"/>
<path d="M4840 9239 c-26 -36 -17 -54 11 -20 17 21 26 51 15 51 -3 0 -14 -14
-26 -31z"/>
<path d="M5007 9213 c-17 -62 -14 -80 9 -49 12 17 21 106 11 106 -2 0 -11 -26
-20 -57z"/>
<path d="M4902 9213 c-11 -21 -34 -64 -52 -97 -29 -51 -30 -57 -12 -47 26 14
98 118 108 155 10 41 -22 33 -44 -11z"/>
<path d="M5101 9148 c1 -79 1 -81 14 -53 20 43 20 135 0 135 -12 0 -15 -15
-14 -82z"/>
<path d="M5171 9188 c11 -60 11 -166 -1 -188 -9 -17 -11 -17 -51 3 -48 23 -93
26 -259 13 -149 -11 -119 -24 60 -26 125 -1 192 -8 246 -25 28 -9 35 18 35
135 1 97 -6 130 -25 130 -10 0 -11 -10 -5 -42z"/>
<path d="M4742 9122 c-46 -43 -79 -83 -91 -112 -23 -54 -111 -533 -110 -599 0
-25 4 -66 8 -91 8 -39 9 -41 10 -12 0 17 17 125 36 239 19 113 40 244 45 290
15 118 42 183 104 251 45 48 84 103 74 102 -2 0 -36 -31 -76 -68z"/>
<path d="M3901 9111 c-38 -74 -53 -166 -55 -333 -1 -104 3 -161 10 -168 8 -8
13 25 16 127 4 91 15 183 32 272 15 73 25 135 22 138 -2 3 -14 -13 -25 -36z"/>
<path d="M4980 9123 c0 -13 5 -23 10 -23 13 0 13 11 0 30 -8 12 -10 11 -10 -7z"/>
<path d="M4159 8905 c-19 -54 -21 -436 -1 -443 6 -2 12 -18 12 -34 0 -17 2
-29 5 -26 3 3 1 65 -5 139 -6 90 -6 172 1 251 13 138 9 170 -12 113z"/>
<path d="M4335 8768 c-42 -126 -97 -253 -122 -280 -15 -17 -15 -18 5 -18 12 0
26 9 32 20 21 39 40 24 41 -32 0 -29 2 -64 5 -78 12 -75 16 -92 20 -87 13 12
14 63 3 172 l-11 120 32 79 c38 95 58 192 43 207 -8 8 -22 -22 -48 -103z"/>
<path d="M4986 8860 c5 -5 32 -12 59 -15 48 -6 49 -6 25 9 -28 17 -100 22 -84
6z"/>
<path d="M4501 8735 c-27 -65 -116 -444 -105 -454 2 -3 8 0 13 5 16 16 112
415 109 448 l-4 31 -13 -30z"/>
<path d="M4713 8680 c-25 -67 -64 -243 -62 -285 l2 -30 4 30 c3 17 9 35 13 40
5 6 23 66 40 134 35 141 37 199 3 111z"/>
<path d="M4237 8704 c-4 -4 -7 -23 -6 -43 l1 -36 9 33 c11 36 9 58 -4 46z"/>
<path d="M4801 8631 c-32 -76 -51 -168 -51 -255 0 -44 2 -77 5 -75 2 3 11 48
20 99 9 52 24 122 35 155 21 68 30 125 19 125 -3 0 -16 -22 -28 -49z"/>
<path d="M5016 8580 c-4 -55 -18 -140 -31 -188 -13 -48 -26 -109 -29 -137 l-6
-50 26 53 c47 96 76 227 72 320 -6 123 -24 125 -32 2z"/>
<path d="M4895 8621 c-4 -8 -11 -42 -14 -77 -6 -49 -4 -61 5 -53 13 11 29 108
22 130 -3 10 -6 10 -13 0z"/>
<path d="M4215 8609 c-4 -6 -5 -12 -2 -15 2 -3 7 2 10 11 7 17 1 20 -8 4z"/>
<path d="M4395 8549 c-4 -6 -5 -12 -2 -15 2 -3 7 2 10 11 7 17 1 20 -8 4z"/>
<path d="M7560 9347 c-13 -7 -35 -28 -47 -46 -13 -19 -36 -43 -51 -53 -15 -10
-47 -31 -72 -48 -34 -22 -52 -28 -75 -24 -24 4 -35 0 -54 -20 -17 -19 -35 -26
-60 -26 -48 0 -150 -58 -171 -96 -11 -20 -30 -33 -61 -43 -46 -14 -74 -27
-149 -70 -24 -14 -57 -24 -72 -23 -22 2 -41 -9 -81 -46 -67 -63 -96 -82 -123
-82 -14 0 -39 -19 -68 -52 l-45 -52 -11 28 c-7 20 -16 27 -32 24 -27 -4 -118
-114 -118 -142 0 -32 -28 -56 -60 -50 -15 4 -31 1 -34 -5 -10 -15 -27 -14 -23
2 1 6 -4 12 -10 12 -17 0 -96 -97 -85 -104 5 -3 11 -14 15 -23 9 -26 29 -22
62 12 21 22 38 30 64 30 30 0 43 9 91 59 48 52 59 58 85 54 28 -4 36 2 94 71
51 60 69 76 91 76 28 0 88 39 129 84 24 25 49 37 36 16 -14 -22 19 -7 82 38
98 69 129 87 220 126 45 19 124 59 176 89 54 31 111 56 135 59 25 4 63 21 99
47 33 23 69 41 82 41 29 0 139 50 145 65 2 7 1 27 -3 46 -6 30 -11 34 -41 37
-19 1 -46 -4 -60 -11z m-360 -262 c0 -8 -143 -76 -148 -70 -9 8 11 26 56 50
43 22 92 33 92 20z"/>
<path d="M10902 9068 c-23 -30 -32 -52 -32 -79 0 -21 -5 -41 -11 -45 -6 -3 -9
-22 -6 -43 2 -23 -3 -48 -15 -71 -10 -19 -18 -42 -18 -52 0 -9 -11 -29 -24
-45 -13 -15 -22 -35 -21 -43 1 -8 -1 -40 -5 -72 -6 -44 -17 -69 -51 -113 -39
-51 -45 -68 -65 -173 -28 -141 -28 -153 -10 -146 20 8 28 32 16 54 -8 15 -4
22 25 39 25 15 35 27 35 46 0 14 -4 25 -10 25 -21 0 -8 17 25 33 36 17 44 34
24 54 -9 9 -4 23 18 57 20 30 33 65 37 100 5 35 18 71 40 105 26 40 34 66 40
120 3 38 4 76 0 84 -3 9 6 19 26 27 46 19 64 51 52 92 -6 18 -10 44 -9 58 3
40 -25 34 -61 -12z"/>
<path d="M9460 9065 c-7 -8 -23 -15 -35 -15 -23 0 -35 -17 -35 -51 0 -23 -4
-22 65 -4 83 21 161 84 86 69 -16 -4 -32 -1 -35 5 -10 16 -31 14 -46 -4z"/>
<path d="M10580 9023 c0 -10 -7 -28 -15 -40 -13 -19 -13 -21 8 -27 27 -7 49
19 45 54 -4 30 -38 42 -38 13z"/>
<path d="M9745 8849 c-827 -85 -1349 -717 -1489 -1803 -9 -66 -18 -121 -20
-124 -3 -2 -89 3 -192 12 -103 9 -190 14 -192 11 -9 -9 201 -421 296 -582 90
-152 293 -463 302 -463 3 0 34 51 69 113 164 287 351 568 503 754 l58 72 -32
5 c-18 3 -64 8 -103 11 -176 14 -202 16 -227 21 -34 7 -34 0 -3 197 113 719
389 1153 830 1304 230 78 582 72 854 -16 50 -16 93 -26 95 -22 4 7 50 284 61
367 l7 51 -82 22 c-242 66 -519 92 -735 70z"/>
<path d="M9752 8229 c-47 -8 -59 -16 -101 -62 -73 -80 -97 -109 -115 -144 -9
-18 -21 -33 -26 -33 -5 0 -22 -18 -37 -41 -15 -23 -37 -45 -50 -50 -15 -5 -23
-17 -23 -32 0 -13 -11 -34 -25 -47 -17 -16 -25 -34 -25 -57 0 -26 -6 -36 -24
-45 -27 -11 -50 -60 -61 -124 -11 -63 -15 -74 -31 -74 -24 0 -64 -47 -64 -75
0 -34 -27 -85 -45 -85 -17 0 -35 -30 -35 -59 0 -11 -9 -25 -19 -31 -11 -5 -24
-25 -30 -43 -8 -24 -25 -41 -64 -63 -40 -23 -53 -36 -55 -57 -2 -17 1 -27 10
-27 8 0 6 -4 -4 -11 -29 -16 -21 -26 27 -33 37 -6 52 -3 92 20 26 14 57 37 69
49 12 13 40 35 62 49 59 37 78 78 63 136 -14 54 -9 72 22 85 14 6 28 27 37 55
8 25 27 61 41 80 37 50 52 94 44 129 -6 30 -5 31 28 31 51 0 67 24 67 104 0
55 3 68 18 72 35 11 47 22 51 45 1 13 27 46 58 74 43 39 57 58 62 89 5 33 11
40 40 50 27 9 41 24 67 74 18 34 32 61 31 61 -1 -1 -26 -5 -55 -10z m-572
-1019 c-18 -14 -57 -47 -87 -73 -30 -27 -57 -46 -60 -43 -9 9 37 65 60 72 31
9 57 34 57 55 0 12 6 16 20 12 13 -4 22 1 27 13 5 14 8 15 11 4 3 -8 -9 -25
-28 -40z"/>
<path d="M9067 6307 c-23 -25 -53 -51 -67 -58 -14 -6 -43 -27 -66 -46 -23 -18
-46 -33 -51 -33 -5 0 -34 -13 -62 -29 -51 -27 -58 -36 -147 -192 -69 -121 -89
-165 -78 -167 28 -6 64 26 64 57 0 24 7 33 43 50 23 11 56 23 72 27 17 4 36
11 43 17 19 15 14 54 -8 70 -16 11 -18 16 -8 24 22 18 96 53 111 53 8 0 31 20
52 45 20 25 59 57 85 70 27 13 59 39 71 57 13 18 30 38 37 44 23 17 10 49 -21
52 -22 3 -36 -6 -70 -41z"/>
<path d="M3076 9533 c-11 -67 -6 -209 9 -290 20 -108 108 -363 125 -363 9 0 0
45 -38 190 -37 138 -62 300 -62 403 0 51 -4 78 -14 86 -11 9 -15 4 -20 -26z"/>
<path d="M10175 4400 c-22 -4 -38 -8 -35 -9 3 -1 82 -4 175 -7 94 -3 217 -9
275 -15 207 -20 235 -22 225 -11 -5 5 -53 18 -105 27 -102 19 -461 29 -535 15z"/>
<path d="M9771 4299 c-41 -5 -76 -11 -79 -14 -3 -3 87 -5 199 -6 112 0 215 -2
229 -4 14 -2 113 -5 220 -9 193 -5 193 4 0 18 -52 4 -122 9 -155 11 -143 10
-346 12 -414 4z"/>
<path d="M10335 3971 c10 -9 226 -59 355 -81 36 -6 162 -33 281 -61 119 -27
228 -49 243 -49 64 0 12 21 -171 68 -234 61 -350 85 -498 106 -184 25 -221 28
-210 17z"/>
<path d="M9386 3874 c-54 -7 -101 -15 -103 -18 -2 -2 132 -6 299 -9 167 -3
323 -8 348 -12 25 -3 99 -13 165 -21 66 -9 139 -18 163 -21 72 -10 46 12 -30
26 -373 66 -634 84 -842 55z"/>
<path d="M9650 3671 c-24 -5 8 -9 100 -14 407 -22 972 -105 1467 -216 103 -23
113 -24 113 -13 0 8 -59 24 -270 72 -351 79 -650 130 -915 156 -38 3 -79 8
-90 11 -37 7 -370 11 -405 4z"/>
</g>
</svg>
