<?xml version="1.0" standalone="no"?>
<!DOCTYPE svg PUBLIC "-//W3C//DTD SVG 20010904//EN"
 "http://www.w3.org/TR/2001/REC-SVG-20010904/DTD/svg10.dtd">
<svg version="1.0" xmlns="http://www.w3.org/2000/svg"
 width="1249.000000pt" height="1249.000000pt" viewBox="0 0 1249.000000 1249.000000"
 preserveAspectRatio="xMidYMid meet">
<metadata>
Created by potrace 1.16, written by Peter Selinger 2001-2019
</metadata>
<g transform="translate(0.000000,1249.000000) scale(0.100000,-0.100000)"
fill="#000000" stroke="none">
<path d="M0 6245 l0 -6245 6245 0 6245 0 0 6245 0 6245 -6245 0 -6245 0 0
-6245z m6366 6103 c-3 -29 -8 -120 -11 -203 -3 -82 -7 -181 -10 -220 -11 -161
-18 -333 -29 -745 -5 -141 -4 -143 9 -80 12 58 22 195 55 730 9 148 12 193 26
447 7 128 7 126 93 119 31 -3 94 -8 141 -11 47 -3 117 -8 155 -11 85 -7 367
-43 372 -48 2 -1 -1 -75 -6 -162 -6 -87 -13 -220 -16 -294 -3 -74 -8 -171 -10
-215 -29 -486 -47 -1050 -34 -1095 6 -20 7 -21 8 -5 1 11 7 83 15 160 8 77 17
187 21 245 3 58 7 134 10 170 6 88 14 223 20 350 3 58 8 130 10 160 2 30 7
109 10 175 3 66 10 190 16 275 5 85 9 172 9 194 l0 38 38 -6 c122 -21 402 -80
492 -104 l105 -27 -2 -420 c-2 -463 5 -490 32 -115 2 36 7 166 11 290 3 124 7
227 9 228 5 5 208 -58 216 -66 4 -4 10 -108 13 -232 3 -124 9 -313 12 -420 5
-196 18 -604 30 -955 6 -175 5 -196 -15 -266 -11 -41 -21 -84 -21 -96 0 -22
-54 -103 -69 -103 -5 0 -17 24 -27 53 -25 77 -47 116 -100 176 -116 131 -233
149 -265 41 -13 -42 -17 -31 67 -190 23 -42 44 -150 31 -150 -4 0 -34 18 -67
39 -106 69 -241 102 -413 102 -125 1 -182 -12 -262 -56 -45 -26 -74 -35 -107
-35 -176 0 -484 -162 -547 -289 -36 -71 -62 -167 -60 -222 1 -30 -2 -79 -6
-109 -5 -42 -3 -65 9 -94 26 -62 21 -91 -25 -141 -23 -25 -46 -42 -51 -39 -9
6 -8 56 7 244 2 30 7 96 10 145 10 188 16 282 20 335 25 360 37 580 32 593 -4
10 -11 17 -16 17 -18 0 -26 -46 -36 -230 -3 -63 -8 -135 -10 -160 -5 -52 -22
-314 -30 -475 -3 -60 -8 -135 -10 -165 -3 -30 -7 -95 -10 -145 -13 -209 -13
-206 -56 -246 -46 -42 -51 -82 -19 -135 l21 -33 -35 -53 c-48 -72 -54 -108
-27 -154 17 -28 20 -43 13 -67 -5 -18 -10 -57 -11 -87 -3 -70 -19 -95 -92
-149 -45 -32 -58 -48 -54 -61 4 -13 -1 -20 -15 -25 -30 -10 -35 -1 -22 44 26
83 2 106 -80 79 -40 -14 -44 -13 -59 6 -11 14 -27 20 -53 19 -40 -1 -41 0 -25
28 5 11 7 29 4 41 -7 21 -24 22 -112 3 -28 -6 -32 -4 -35 16 -3 23 -7 24 -71
23 -65 -1 -68 0 -74 25 -9 39 -24 53 -49 47 -18 -5 -36 7 -87 58 -141 141
-180 335 -117 594 18 78 26 95 45 102 30 12 41 33 50 98 6 42 10 52 26 52 83
0 8 291 -130 500 -20 30 -40 61 -44 68 -6 9 -4 13 5 11 29 -4 38 2 38 24 0 30
-23 51 -140 126 -92 59 -180 99 -268 121 -42 11 -43 12 -27 30 10 11 15 26 12
33 -15 40 -169 28 -444 -35 -50 -11 -54 -10 -117 21 -67 34 -149 51 -160 33
-3 -5 1 -26 9 -46 20 -47 20 -46 -23 -46 -89 0 -248 -59 -364 -136 -99 -66
-218 -185 -218 -219 0 -16 6 -25 15 -25 8 0 15 -2 15 -5 0 -2 -29 -41 -65 -85
-77 -95 -165 -267 -165 -322 0 -35 2 -37 34 -40 l34 -3 -49 -130 c-28 -71 -51
-137 -52 -145 -3 -23 33 -24 64 -1 15 12 32 21 37 21 5 0 12 -21 15 -47 4 -38
0 -57 -23 -102 -37 -73 -70 -193 -70 -254 0 -40 3 -50 20 -54 25 -7 25 -10 0
-77 -16 -42 -49 -86 -141 -188 -66 -73 -154 -184 -195 -246 -77 -115 -87 -124
-244 -234 -76 -53 -191 -171 -247 -254 -56 -82 -113 -200 -158 -324 -21 -58
-42 -109 -46 -113 -13 -16 -165 124 -219 204 -69 100 -141 149 -220 149 -39 0
-72 -20 -82 -51 -4 -11 -15 -10 -60 5 -85 29 -137 5 -158 -75 -12 -42 1 -118
25 -153 8 -11 15 -40 15 -64 0 -105 126 -389 206 -462 15 -14 50 -56 79 -95
29 -38 88 -106 132 -151 44 -44 82 -89 85 -100 2 -10 -6 -82 -19 -159 -12 -77
-34 -242 -48 -366 -14 -124 -52 -385 -85 -580 -96 -576 -107 -694 -69 -794 93
-248 457 -538 849 -675 52 -18 97 -35 99 -37 2 -1 -1 -21 -8 -43 -9 -31 -9
-53 0 -98 12 -55 11 -60 -14 -103 -33 -55 -34 -82 -5 -101 l21 -14 -30 -65
c-30 -63 -80 -220 -110 -344 -8 -33 -15 -99 -16 -148 -2 -77 1 -91 16 -101 15
-9 21 -7 32 9 45 64 69 94 73 91 2 -2 -6 -48 -18 -101 -11 -54 -25 -165 -30
-248 -5 -82 -13 -178 -16 -213 -8 -76 -1 -110 26 -117 19 -5 18 -9 -20 -89
-44 -91 -66 -188 -49 -219 21 -41 44 -41 109 -3 33 20 63 35 65 32 3 -2 -8
-42 -24 -89 -16 -46 -31 -106 -34 -132 -4 -44 -2 -49 20 -58 19 -7 22 -13 17
-36 -9 -39 -25 -53 -65 -59 -58 -9 -248 -76 -274 -96 -35 -27 -34 -79 1 -107
14 -11 82 -38 152 -61 94 -31 133 -49 152 -70 31 -35 51 -45 120 -59 92 -20
510 -80 595 -86 160 -11 211 -15 258 -21 31 -5 47 -3 47 5 0 6 -10 13 -22 16
-62 14 -419 78 -538 95 -74 11 -184 27 -243 36 -141 20 -165 28 -201 63 -21
20 -70 44 -153 73 -67 24 -123 48 -124 53 -2 9 174 70 223 77 21 3 23 -2 26
-44 2 -25 8 -51 15 -56 28 -22 237 -65 452 -93 50 -6 144 -28 211 -50 67 -21
179 -50 250 -65 115 -24 142 -26 249 -20 66 3 140 11 164 16 56 14 63 6 17
-21 -67 -40 -36 -61 44 -29 70 27 166 47 265 54 101 7 570 18 693 17 77 -1 92
1 92 14 0 9 -6 17 -12 20 -7 2 -101 6 -208 9 -107 3 -265 8 -351 12 -106 4
-186 2 -245 -6 -55 -8 -192 -13 -359 -12 -294 0 -371 10 -590 72 -135 38 -139
39 -273 55 -158 20 -282 44 -309 61 -38 24 -31 83 33 295 2 9 -6 30 -19 45
l-24 29 38 95 c48 118 49 158 2 177 -30 12 -37 10 -98 -21 -36 -19 -65 -30
-65 -25 0 5 16 44 36 86 100 214 174 397 166 405 -19 19 -51 -4 -109 -75 -67
-83 -72 -79 -54 48 6 44 18 134 27 200 9 66 29 161 44 210 41 135 64 245 53
256 -11 11 -117 -71 -127 -97 -3 -8 -10 -13 -15 -10 -10 7 20 157 45 226 9 25
41 94 71 154 59 119 63 149 22 154 -24 3 -27 8 -33 55 -10 89 -6 130 18 177
l24 45 45 -95 c65 -136 196 -383 247 -465 23 -38 72 -122 107 -185 81 -143
113 -189 158 -228 59 -53 126 -54 151 -4 16 31 0 106 -31 154 -42 64 -13 42
43 -32 62 -81 144 -157 188 -176 39 -17 87 -5 124 31 24 23 30 24 59 14 26 -9
39 -8 71 6 53 24 64 50 57 130 l-6 65 40 0 c32 0 47 7 71 31 29 29 30 33 25
90 -6 67 -43 138 -198 383 -49 76 -89 143 -89 147 0 5 28 9 63 9 75 0 119 23
144 75 16 34 16 36 -4 63 -15 20 -37 31 -86 43 -86 21 -140 54 -240 146 -65
59 -104 85 -187 124 -180 84 -235 115 -238 130 -4 20 105 79 144 79 16 0 53
-9 83 -21 32 -12 65 -18 79 -14 24 6 24 7 17 82 l-7 75 64 -7 c65 -8 136 -8
150 1 4 3 16 0 27 -6 19 -10 20 -6 23 52 l3 63 42 -3 c40 -2 44 0 81 50 52 69
98 112 111 104 6 -4 11 -20 11 -35 0 -15 6 -36 14 -47 14 -18 15 -18 19 6 3
14 10 57 15 95 5 39 17 87 26 108 14 34 19 38 43 33 46 -9 231 -26 288 -26 30
0 56 -4 59 -8 3 -5 -10 -107 -29 -228 -116 -751 -184 -1222 -219 -1536 -2 -21
-1 -38 3 -38 9 0 71 325 117 610 76 477 85 540 109 695 62 404 77 491 88 502
7 6 58 23 115 38 56 14 126 35 155 47 37 15 74 21 127 22 78 0 279 -38 304
-58 21 -17 31 -190 30 -541 0 -353 -4 -389 -95 -1030 -32 -231 -66 -467 -74
-525 -27 -198 -45 -400 -60 -697 -9 -164 -22 -354 -30 -423 -18 -155 -29 -296
-30 -379 l0 -64 113 -44 c170 -66 257 -82 447 -83 175 -1 179 -1 375 -83 155
-65 182 -67 768 -70 622 -2 813 9 1022 59 46 11 128 16 285 19 231 3 255 7
308 51 16 14 52 36 78 50 64 32 71 46 57 128 -6 36 -8 69 -5 73 12 11 417
-101 417 -116 0 -4 -39 -18 -87 -31 -115 -29 -135 -42 -131 -83 2 -23 14 -39
48 -65 25 -19 46 -40 48 -47 4 -18 -69 -44 -157 -56 -147 -19 -428 -36 -616
-38 -401 -4 -1006 -80 -979 -123 7 -11 59 -8 209 11 152 19 181 21 450 26 467
9 679 15 715 20 19 2 85 9 145 15 224 23 295 54 295 128 0 28 -8 42 -42 73
-23 21 -40 41 -37 44 3 2 50 16 104 29 54 14 102 30 106 38 5 7 9 25 9 40 0
57 -88 97 -341 153 -90 20 -167 42 -171 48 -4 7 -8 39 -9 72 0 33 -2 69 -4 80
-3 19 -8 143 -21 455 -2 74 -7 152 -10 173 -2 21 0 109 5 195 6 86 12 198 15
248 3 50 10 143 15 205 6 63 15 179 21 259 11 144 13 166 29 330 5 47 9 153 9
236 0 198 5 208 99 223 38 6 109 16 158 21 50 6 126 17 170 25 44 8 175 26
290 40 116 14 222 28 237 31 35 7 32 23 58 -266 50 -548 119 -1187 132 -1215
15 -35 -3 255 -47 745 -8 91 -24 269 -35 395 -11 127 -23 258 -26 291 -6 60
-5 62 20 68 33 8 53 -3 141 -74 86 -70 163 -119 235 -149 74 -32 162 -26 254
17 l66 31 5 -22 c13 -60 42 -327 38 -354 -3 -17 0 -40 7 -52 6 -12 20 -85 30
-164 115 -859 185 -1351 200 -1407 13 -50 2 146 -16 280 -7 58 -18 143 -23
190 -10 81 -46 369 -91 710 -36 283 -42 332 -37 337 3 2 25 -6 49 -20 24 -14
75 -37 115 -51 39 -14 96 -39 126 -56 30 -17 80 -37 110 -45 31 -8 92 -32 134
-54 109 -55 142 -62 255 -54 91 6 307 -11 336 -26 23 -13 -240 -429 -426 -676
-274 -363 -592 -702 -916 -980 -169 -145 -159 -139 -194 -121 -46 24 -183 55
-354 80 -160 23 -203 21 -163 -9 28 -22 87 -38 291 -80 99 -20 184 -40 191
-44 12 -6 -156 -137 -327 -253 -128 -87 -121 -84 -108 -48 14 42 3 88 -32 132
-17 20 -30 41 -30 46 0 5 17 14 38 21 106 35 108 80 5 134 -85 44 -142 61
-312 92 -146 27 -191 31 -191 15 0 -16 36 -27 195 -60 148 -30 244 -59 300
-87 l30 -16 -52 -23 c-74 -33 -78 -57 -24 -128 22 -29 41 -63 41 -76 0 -67
-167 -144 -467 -214 -168 -39 -231 -51 -458 -86 -33 -5 -98 -12 -145 -15 -47
-4 -143 -13 -215 -21 -89 -11 -272 -17 -575 -19 -245 -3 -591 -11 -770 -19
-419 -20 -793 -12 -977 19 -18 3 -33 3 -33 0 0 -12 66 -33 135 -44 305 -47
414 -52 900 -46 747 8 1000 15 1150 31 77 8 226 23 330 34 235 23 424 51 580
86 124 27 315 76 350 89 l20 7 -20 -14 c-84 -62 -450 -248 -711 -361 -148 -64
-179 -72 -369 -97 -44 -6 -130 -17 -192 -25 -123 -17 -146 -23 -137 -36 3 -6
42 -7 92 -4 48 3 116 8 152 10 l65 3 -146 -49 c-495 -165 -1054 -264 -1635
-288 -154 -6 -650 2 -739 13 -27 3 -117 13 -200 22 -689 73 -1409 286 -2050
607 -135 67 -455 244 -455 251 0 1 33 -1 73 -5 39 -4 151 -9 247 -13 225 -8
375 -16 425 -21 22 -2 85 -7 140 -11 55 -3 107 -8 115 -9 8 -2 65 -6 125 -9
61 -4 137 -9 170 -11 33 -2 107 -7 165 -11 58 -3 146 -10 195 -14 146 -11 313
-12 435 0 271 25 345 39 323 61 -5 5 -57 5 -129 -1 -173 -14 -464 -12 -654 5
-190 17 -428 32 -650 40 -182 6 -330 15 -362 20 -50 8 -360 34 -478 40 -272
13 -251 8 -378 92 -198 132 -610 452 -620 482 -2 5 34 18 80 30 46 12 104 29
131 37 55 18 64 44 15 44 -54 0 -217 -29 -256 -45 l-36 -16 -40 40 c-36 36
-38 41 -20 47 60 21 84 34 84 45 0 8 -10 9 -32 5 -112 -23 -112 -23 -173 35
-80 76 -318 335 -425 464 -550 660 -961 1439 -1193 2262 l-34 121 56 6 c90 10
558 7 661 -4 285 -30 633 -35 682 -9 21 11 24 61 5 77 -7 6 -51 13 -97 17 -47
3 -121 8 -165 11 -43 3 -83 8 -88 11 -19 11 -491 28 -784 27 -266 0 -303 2
-307 15 -37 124 -115 608 -131 811 -4 41 -8 80 -10 86 -2 7 -7 84 -11 173 -5
114 -3 161 4 161 6 0 62 -7 124 -15 323 -44 672 -134 922 -237 186 -76 297
-115 405 -143 111 -28 145 -31 139 -13 -9 27 -230 124 -563 248 -55 21 -162
60 -237 88 -75 29 -185 65 -245 81 -126 35 -388 87 -486 97 -37 4 -70 11 -73
16 -5 8 12 446 22 558 31 350 83 666 164 990 322 1283 1048 2426 2075 3267
690 564 1499 975 2360 1198 146 38 518 115 553 115 27 0 27 10 -3 -212 -40
-286 -157 -1158 -175 -1298 -6 -47 -13 -110 -16 -140 -3 -30 -7 -61 -9 -68
-10 -29 -15 -166 -6 -146 11 26 70 430 211 1449 63 456 56 422 93 429 49 9
280 36 283 33 2 -2 -119 -1103 -145 -1322 -6 -49 -22 -198 -36 -330 -29 -270
-54 -500 -60 -560 -3 -22 -14 -125 -25 -230 -11 -104 -27 -251 -35 -326 -13
-119 -34 -390 -35 -441 0 -10 3 -18 8 -18 4 0 17 66 30 148 29 185 69 524 172
1447 16 149 34 306 40 350 5 44 39 350 76 680 36 330 69 603 73 607 4 5 81 11
171 14 91 4 166 8 168 9 2 2 78 4 169 5 l165 1 -6 -53z m5143 -1128 c468 -602
851 -1097 851 -1100 0 -8 -1701 -2195 -1710 -2198 -4 -2 -175 210 -378 470
-204 260 -589 752 -856 1093 -267 341 -486 625 -486 630 0 6 246 325 546 710
300 385 685 879 856 1098 170 219 313 397 318 395 4 -2 391 -496 859 -1098z
m-3178 815 c119 -43 452 -178 466 -190 2 -1 5 -26 8 -56 3 -30 14 -153 25
-274 11 -121 25 -269 30 -330 6 -60 13 -134 15 -162 3 -29 8 -77 11 -105 8
-80 21 -253 19 -256 -2 -2 -18 5 -38 14 -20 10 -44 33 -57 55 -25 45 -46 59
-91 59 -43 0 -87 -29 -129 -85 l-35 -47 -5 45 c-8 61 -32 87 -82 87 -80 0
-124 -42 -196 -189 l-47 -96 -6 75 c-3 41 -9 201 -13 355 -4 154 -9 314 -11
355 -3 41 -7 167 -10 280 -3 113 -8 276 -11 363 -4 86 -4 157 -1 157 2 0 74
-25 158 -55z m634 -271 c211 -102 482 -259 489 -283 3 -9 10 -60 17 -115 11
-91 13 -97 25 -75 10 17 12 44 8 97 -4 39 -3 72 0 72 15 0 237 -151 234 -159
-9 -25 -744 -958 -750 -953 -6 7 -23 156 -33 302 -3 47 -8 101 -10 120 -2 19
-7 64 -10 100 -3 36 -10 110 -15 165 -13 128 -18 185 -25 265 -8 95 -34 385
-42 459 l-6 63 29 -14 c16 -8 56 -28 89 -44z m-210 -1024 c24 -26 22 -78 -6
-138 -12 -26 -55 -128 -96 -227 -40 -99 -76 -186 -79 -192 -4 -7 -1 -13 5 -13
14 0 35 42 121 240 38 89 79 175 91 191 36 51 79 33 79 -33 0 -42 -72 -251
-131 -377 -43 -92 -48 -137 -21 -171 l18 -22 49 41 c27 23 53 40 57 39 3 -2
22 -23 42 -48 l35 -44 -69 -72 c-39 -40 -70 -80 -70 -90 -2 -90 -45 -258 -90
-349 -21 -44 -71 -120 -111 -170 -77 -96 -110 -159 -184 -352 -26 -68 -50
-123 -54 -123 -3 0 -20 20 -38 43 -38 50 -35 9 -58 847 -3 102 -8 226 -11 277
-4 61 -2 99 6 114 9 17 9 23 0 29 -19 12 -6 177 24 291 31 121 79 221 132 276
44 46 63 52 88 27 24 -24 20 -56 -29 -198 -58 -169 -77 -316 -41 -316 16 0 21
12 107 223 72 178 112 251 161 292 36 30 49 31 73 5z m179 -370 c7 -73 6 -77
-24 -118 -41 -57 -128 -147 -136 -140 -3 3 15 55 39 114 44 109 65 169 88 254
l12 45 8 -40 c4 -22 10 -74 13 -115z m-4357 -6 c-16 -8 -27 -20 -25 -26 2 -6
45 -21 95 -33 87 -22 263 -96 263 -110 0 -4 -14 -5 -30 -3 -50 7 -44 -8 17
-50 104 -71 210 -204 273 -345 39 -89 42 -107 19 -107 -29 0 -31 -16 -16 -119
15 -99 17 -92 -30 -107 -7 -2 -13 -16 -13 -31 0 -15 -5 -35 -11 -43 -7 -11 -9
3 -5 50 7 71 -5 126 -47 227 -15 33 -30 80 -33 104 -6 38 -8 40 -21 24 -7 -11
-13 -29 -13 -42 0 -26 -12 -30 -30 -8 -14 17 -40 20 -40 5 0 -19 -25 -9 -64
25 -33 29 -39 41 -38 71 2 53 -22 37 -30 -20 -4 -27 -9 -50 -12 -54 -9 -8 -61
113 -91 211 -28 93 -48 109 -50 41 -2 -70 -86 -210 -198 -329 -43 -46 -69 -67
-75 -60 -6 6 -17 44 -27 86 -9 44 -26 87 -40 105 -27 34 -40 29 -25 -12 11
-28 4 -134 -9 -134 -4 0 -18 21 -31 48 -24 46 -24 47 -28 18 -2 -17 -20 -49
-40 -72 -67 -76 -100 -144 -132 -267 -38 -153 -95 -264 -168 -332 -98 -90
-153 -148 -170 -179 -21 -38 -24 -238 -5 -271 10 -17 12 -8 13 51 0 79 8 134
20 134 4 0 13 -13 20 -30 7 -16 30 -45 50 -64 l39 -35 -46 -107 c-73 -175 -85
-284 -31 -284 19 0 20 -4 14 -47 -19 -132 -19 -172 -1 -218 11 -30 15 -58 11
-79 -6 -32 -78 -126 -97 -126 -5 0 -6 21 -2 46 10 77 -18 50 -52 -49 -16 -48
-34 -87 -40 -87 -20 0 -54 30 -57 52 -2 12 -8 23 -15 25 -14 5 -48 -57 -58
-107 -14 -73 -14 -74 -36 -54 -10 9 -42 63 -70 120 -62 125 -85 138 -53 32 8
-28 -7 -21 -69 32 -32 28 -62 50 -67 50 -12 0 -20 -27 -20 -70 0 -21 -4 -41
-9 -44 -18 -12 -90 192 -91 258 0 25 -20 -15 -39 -79 -27 -92 -36 -105 -45
-68 -21 86 -28 103 -41 103 -8 0 -15 -9 -15 -20 0 -11 -5 -20 -11 -20 -14 0
-4 48 28 128 24 60 27 99 7 95 -5 -1 -17 -5 -27 -9 -17 -6 -18 -5 -4 29 29 68
85 143 210 281 148 162 166 197 174 343 5 80 4 93 -11 99 -9 3 -16 15 -16 25
0 27 41 116 94 203 25 42 46 82 46 91 0 19 -24 19 -40 0 -26 -31 -33 -16 -26
53 4 37 9 76 12 87 2 11 0 26 -5 34 -8 13 -12 13 -27 0 -20 -16 -22 -28 32
142 39 122 42 149 16 149 -10 0 -23 -5 -30 -12 -21 -21 -13 6 15 47 45 69 114
147 217 246 74 72 98 100 93 113 -5 13 -13 15 -29 10 -13 -4 -30 -9 -38 -11
-36 -11 65 66 136 103 107 56 224 94 313 101 l73 6 -5 34 -6 34 66 -37 c56
-31 67 -34 74 -21 5 9 26 21 46 28 51 17 229 47 278 48 l40 0 -28 -15z m3281
-99 c72 -67 136 -185 137 -254 1 -40 4 -45 40 -64 l39 -20 21 27 c42 56 84
101 88 96 3 -3 8 -86 11 -185 3 -99 8 -236 11 -305 14 -369 16 -522 6 -516
-13 8 -49 129 -86 286 -44 189 -148 426 -225 514 -22 26 -40 50 -41 54 -15
125 -40 203 -98 300 -33 56 -39 90 -19 110 24 24 57 12 116 -43z m-419 -270
c123 -28 294 -121 336 -183 31 -45 31 -52 4 -49 -45 5 -28 -24 38 -66 38 -24
81 -59 97 -77 66 -79 121 -227 165 -446 36 -179 47 -212 105 -318 39 -71 43
-83 31 -99 -14 -19 -12 -50 10 -134 7 -28 14 -107 14 -175 1 -68 4 -145 6
-173 6 -92 7 -376 1 -383 -8 -7 -95 28 -218 90 -54 26 -107 48 -119 48 -68 0
-228 172 -325 350 -48 87 -48 86 -1 109 56 28 135 105 158 155 27 59 25 147
-3 198 -42 74 -159 105 -207 54 -28 -30 -12 -42 28 -21 40 20 53 19 85 -6 40
-31 31 -41 -15 -18 -50 27 -79 17 -108 -38 -11 -21 -29 -49 -39 -62 -28 -35
-38 -8 -13 33 26 41 26 67 4 109 -14 25 -18 60 -19 155 -1 67 1 122 3 122 3 0
32 -24 64 -54 65 -60 162 -136 197 -155 39 -21 39 -2 1 32 -147 129 -184 165
-223 220 -90 129 -129 217 -145 331 -13 92 -46 162 -107 223 -86 85 -188 101
-288 45 -30 -18 -58 -32 -61 -32 -33 0 81 137 140 168 17 8 71 28 120 43 97
30 163 31 284 4z m-519 -73 c0 -5 -9 -17 -21 -28 -26 -23 -68 -105 -68 -130 1
-11 -2 -29 -6 -42 -7 -21 -5 -23 21 -16 41 9 103 40 144 70 30 22 42 25 84 20
59 -7 117 -42 150 -94 15 -21 40 -94 60 -175 22 -85 50 -168 75 -218 l41 -81
0 -153 c0 -131 3 -159 20 -196 27 -61 25 -80 -15 -119 -19 -19 -35 -41 -35
-50 0 -10 -16 -34 -36 -54 -31 -32 -40 -36 -69 -30 -45 8 -68 -7 -109 -69 -53
-80 -66 -89 -103 -75 -28 11 -38 8 -96 -21 -91 -46 -134 -50 -175 -17 -17 15
-37 26 -44 25 -30 -4 -36 4 -47 62 -14 71 -65 134 -134 167 -23 11 -65 43 -93
70 l-50 50 33 26 c24 20 33 35 33 57 0 37 -16 69 -34 69 -12 0 -12 -6 -3 -29
16 -44 -11 -81 -61 -80 -34 0 -35 1 -14 11 48 24 3 86 -52 72 -32 -8 -33 -16
-4 -29 12 -6 24 -17 26 -25 4 -12 2 -13 -9 -2 -7 6 -32 12 -56 12 l-43 0 0 49
0 49 68 46 c129 87 212 173 212 220 0 18 -5 15 -33 -18 -38 -44 -53 -42 -63
10 -6 32 -3 40 35 78 45 46 49 57 25 77 -12 10 -20 10 -35 1 -25 -16 -39 -15
-39 2 0 8 16 24 35 36 51 31 112 105 146 176 39 82 74 107 157 112 58 4 63 6
60 26 -2 17 -12 22 -48 27 -94 13 -161 -29 -224 -138 -47 -81 -119 -162 -130
-145 -7 12 13 71 52 148 58 114 169 189 367 248 92 27 105 29 105 18z m2054
-9 c2 -10 7 -49 11 -88 6 -80 14 -162 20 -220 3 -22 11 -125 20 -230 8 -104
17 -206 20 -225 2 -19 6 -66 10 -105 3 -38 8 -90 10 -115 3 -25 12 -117 19
-205 55 -606 76 -845 81 -880 2 -22 9 -94 15 -160 19 -218 30 -340 35 -367 2
-16 1 -28 -3 -28 -4 0 -35 37 -69 83 -119 161 -147 181 -475 337 -58 28 -113
59 -121 68 -17 19 -57 143 -57 176 0 12 15 33 35 49 19 15 35 36 35 45 0 9
-25 50 -55 90 -30 40 -55 76 -55 80 1 4 15 16 32 27 52 33 56 48 22 89 -87
108 -107 136 -137 193 l-32 62 19 53 c10 29 58 161 108 293 85 229 91 242 137
285 124 118 224 337 251 555 8 67 11 72 57 112 54 48 60 50 67 26z m-4203
-229 c27 -33 59 -11 59 42 0 34 13 30 55 -18 32 -38 38 -41 56 -30 18 11 24
11 38 -2 10 -9 22 -16 28 -16 10 0 33 -92 33 -130 0 -13 -17 -19 -82 -28 -89
-13 -128 -32 -128 -62 0 -11 -9 -46 -20 -77 -27 -78 -25 -105 12 -158 28 -40
33 -57 39 -128 3 -45 14 -108 24 -139 15 -46 16 -60 6 -72 -18 -22 -74 -30
-114 -17 -19 7 -60 12 -91 12 l-56 1 0 44 c0 51 -12 57 -30 13 -10 -23 -10
-39 -2 -67 6 -20 10 -36 9 -37 -68 -35 -112 -75 -146 -134 -50 -87 -65 -134
-57 -187 3 -24 1 -46 -4 -49 -11 -7 -102 40 -124 64 -161 176 -166 185 -172
317 -2 54 -13 120 -25 161 -17 53 -20 84 -16 141 3 39 2 72 -3 72 -4 0 -15
-12 -25 -26 -19 -30 -23 -133 -6 -178 17 -42 28 -102 36 -181 3 -38 13 -95 21
-125 12 -40 14 -74 9 -127 -8 -85 4 -95 32 -28 10 25 21 45 24 45 4 0 21 -16
39 -36 31 -35 31 -39 24 -98 -10 -90 -9 -116 5 -116 5 0 17 29 26 65 10 36 19
65 21 65 2 0 29 -16 60 -36 56 -36 56 -36 51 -78 -3 -23 -9 -50 -13 -60 -5
-14 -3 -17 11 -15 31 7 69 95 75 179 4 49 9 69 14 58 18 -39 28 -17 21 46 -5
53 -3 71 13 103 36 70 92 111 92 67 0 -23 18 -16 32 13 7 15 34 40 60 56 l47
29 53 -17 c70 -23 98 -41 98 -65 0 -26 17 -26 25 0 3 11 12 20 20 20 20 0 63
-56 76 -100 15 -48 29 -52 26 -7 -3 48 15 47 41 -3 28 -56 29 -121 1 -214 -23
-74 -28 -132 -16 -178 11 -41 27 -34 27 11 0 45 15 62 24 28 11 -40 6 -78 -44
-407 -59 -385 -58 -380 -74 -380 -31 0 -94 90 -104 151 -12 68 -36 59 -43 -16
-9 -98 -62 -226 -111 -273 l-24 -22 -22 47 c-26 56 -117 183 -132 183 -13 0
-13 -26 0 -51 9 -15 6 -26 -14 -52 -13 -17 -34 -56 -46 -84 -12 -29 -26 -53
-30 -53 -12 0 -107 170 -117 210 -6 19 -8 41 -6 47 7 20 -17 83 -32 83 -17 0
-25 -23 -25 -73 0 -23 -5 -60 -11 -81 -11 -39 -49 -106 -60 -106 -3 0 -9 22
-12 49 -3 27 -16 82 -28 121 -17 57 -20 87 -16 141 5 54 3 69 -8 69 -7 0 -19
-17 -26 -37 -15 -46 -59 -107 -69 -96 -4 4 -15 40 -24 78 -10 39 -26 90 -37
114 -13 30 -19 66 -19 114 0 81 -16 82 -31 3 -8 -46 -64 -130 -79 -121 -5 3
-8 26 -9 52 0 27 -7 68 -15 92 -24 66 -19 136 18 283 19 73 37 141 41 151 9
22 -17 23 -51 1 -13 -9 -27 -14 -30 -11 -8 7 84 295 96 302 15 9 12 53 -5 79
-14 21 -14 28 1 65 10 26 14 53 10 74 -4 17 -9 44 -13 60 -4 23 8 45 82 141
87 115 125 195 125 266 0 41 24 101 71 181 46 77 44 77 82 9 20 -37 40 -35 47
6 l6 29 11 -32 c9 -25 18 -33 36 -33 57 0 190 147 262 290 l28 55 53 -109 c29
-59 59 -114 65 -122z m4699 -402 l315 -403 27 -217 c15 -119 38 -307 53 -417
14 -110 41 -323 60 -472 36 -285 83 -621 90 -638 12 -32 1 104 -25 321 -17
137 -37 303 -44 369 -31 253 -60 489 -91 735 -29 229 -32 273 -22 259 2 -2
174 -222 382 -489 208 -267 382 -490 387 -496 5 -8 0 -26 -14 -50 -18 -31 -22
-51 -20 -106 1 -37 -1 -68 -6 -68 -4 0 -16 7 -26 15 -24 18 -95 20 -131 3 -53
-24 -87 -139 -67 -226 11 -46 12 -45 -40 -56 -44 -10 -96 -63 -109 -109 -13
-50 1 -157 36 -259 l23 -67 -54 -72 c-71 -93 -128 -213 -154 -321 -22 -92 -28
-226 -12 -268 11 -29 4 -57 -32 -128 -15 -30 -33 -52 -42 -52 -19 0 -129 77
-160 111 -12 13 -40 74 -64 134 -60 153 -253 536 -365 725 -52 86 -96 168 -99
181 -3 13 -19 186 -36 384 -17 198 -37 432 -45 520 -8 88 -17 185 -20 215 -3
30 -11 127 -20 215 -8 88 -24 264 -35 390 -11 127 -22 253 -25 280 -3 28 -12
124 -20 215 -8 91 -20 209 -25 263 -15 152 -17 150 53 61 34 -44 204 -261 377
-482z m-4420 106 c0 -7 -3 -22 -6 -34 -5 -20 -8 -20 -44 -8 -44 15 -93 5 -134
-27 -25 -20 -26 -20 -26 -2 0 35 24 53 90 67 84 18 120 19 120 4z m0 -168 c9
-41 15 -88 14 -105 -3 -39 -32 -235 -45 -302 -11 -54 -26 -66 -49 -38 -7 8
-18 15 -25 15 -10 0 -11 8 -2 35 8 28 6 48 -11 107 -13 41 -22 102 -22 138 -1
36 -7 83 -15 105 -8 22 -15 41 -15 42 0 1 26 3 58 5 l57 3 3 38 c3 29 7 37 20
35 11 -2 21 -25 32 -78z m-144 59 c10 -17 -13 -36 -27 -22 -12 12 -4 33 11 33
5 0 12 -5 16 -11z m6876 -349 c310 -640 520 -1376 583 -2040 3 -36 8 -81 10
-100 2 -19 7 -81 10 -137 l7 -102 -34 -5 c-18 -3 -78 -13 -133 -21 -259 -40
-460 -121 -784 -318 -205 -124 -285 -153 -506 -181 -60 -8 -145 -26 -188 -40
-43 -14 -92 -27 -109 -29 -32 -2 -32 -2 -29 44 4 72 56 264 82 301 12 18 64
83 114 143 262 316 311 389 325 486 5 33 21 84 37 112 26 49 28 59 27 167 l0
115 -77 231 c-69 209 -80 235 -112 263 -50 43 -111 44 -152 1 -33 -35 -37 -36
-71 -11 -15 10 -39 22 -54 27 -27 9 -23 15 465 642 444 571 493 631 505 615 7
-10 45 -83 84 -163z m-7906 41 c9 -17 9 -32 1 -55 -12 -35 -13 -95 -2 -143 6
-26 4 -34 -9 -39 -20 -8 -50 17 -82 68 -43 67 -42 82 11 144 50 58 63 62 81
25z m2454 -146 c5 -13 26 -33 47 -44 21 -11 56 -39 78 -62 22 -23 58 -50 81
-59 58 -25 103 -87 123 -168 16 -64 17 -66 54 -74 20 -4 49 -15 62 -24 33 -22
116 -15 177 14 34 17 55 21 85 16 55 -8 91 12 148 85 40 51 50 59 69 51 13 -5
32 -3 48 4 32 13 108 98 108 120 0 9 5 16 10 16 18 0 11 -28 -16 -59 -26 -31
-29 -61 -7 -69 7 -2 16 5 20 15 15 41 47 71 80 78 28 5 34 10 30 26 -7 25 10
25 18 -1 9 -28 -9 -55 -51 -75 -25 -12 -33 -20 -26 -27 15 -15 54 -3 85 26 37
34 36 75 -3 116 -30 32 -30 33 -13 54 34 41 43 45 74 34 50 -17 63 -72 34
-141 -19 -45 -19 -47 0 -47 15 0 45 49 45 75 0 8 4 15 9 15 11 0 -1 -56 -19
-90 -7 -14 -24 -38 -39 -53 -34 -37 -247 -140 -275 -134 -12 3 -31 9 -43 12
-15 5 -24 3 -27 -6 -39 -143 -45 -154 -111 -213 -36 -32 -65 -66 -65 -76 0
-19 -44 -60 -64 -60 -33 0 -90 -25 -126 -55 -53 -44 -78 -52 -95 -29 -12 17
-18 17 -116 -14 -66 -21 -110 -41 -120 -54 -15 -19 -23 -20 -75 -15 -33 4 -73
9 -90 13 -25 5 -37 1 -54 -16 -21 -21 -25 -22 -83 -9 -57 12 -61 11 -78 -9 -9
-12 -22 -22 -28 -22 -15 0 -33 47 -27 69 2 9 7 63 10 121 24 400 22 390 77
390 43 0 56 -24 36 -66 -32 -66 -16 -155 25 -142 7 3 23 -1 36 -8 40 -21 87 7
157 93 46 56 46 56 43 126 -3 69 -4 71 -33 79 -16 4 -63 35 -104 68 -41 33
-84 62 -95 65 -12 2 -38 7 -58 10 -38 6 -38 6 -38 54 0 61 28 101 71 101 22 0
32 -6 39 -25z m-1164 -132 c22 -26 30 -43 22 -43 -8 0 -22 -6 -32 -13 -15 -11
-15 -16 -3 -47 12 -30 12 -46 -1 -113 -19 -105 -38 -90 -22 17 13 86 9 117
-27 195 -21 47 -28 90 -24 141 1 8 13 -10 27 -40 14 -30 41 -73 60 -97z m1001
15 c-3 -8 -6 -5 -6 6 -1 11 2 17 5 13 3 -3 4 -12 1 -19z m151 -76 c34 -22 26
-30 -25 -25 -57 6 -71 16 -53 38 14 17 39 13 78 -13z m114 -102 c50 0 68 -20
61 -68 -3 -20 -11 -44 -18 -52 -7 -8 -15 -26 -18 -40 -4 -14 -20 -39 -38 -55
l-31 -30 -15 23 c-9 12 -24 22 -35 22 -17 0 -19 5 -14 33 19 104 19 104 -5
121 -13 9 -42 16 -66 16 -44 0 -57 9 -47 34 8 20 66 24 134 9 30 -7 72 -13 92
-13z m-990 -77 c48 6 50 6 34 -12 -9 -9 -16 -26 -16 -36 0 -15 6 -17 38 -11
112 21 108 21 115 -13 6 -26 11 -31 37 -31 31 0 37 -9 19 -27 -32 -32 30 -42
117 -19 l52 14 -2 -67 -1 -66 30 0 c17 1 43 4 59 8 28 8 28 7 -18 -44 -65 -72
-77 -129 -21 -99 21 11 28 11 38 1 10 -10 7 -16 -12 -29 -63 -43 -67 -48 -55
-81 11 -29 10 -31 -45 -79 -63 -55 -90 -97 -75 -112 7 -7 19 -4 37 10 l27 21
0 -28 c0 -38 -6 -44 -75 -77 -102 -48 -187 -120 -318 -268 -69 -79 -194 -210
-276 -293 -171 -169 -165 -169 -136 -5 11 65 20 89 37 103 22 16 22 18 5 28
-16 9 -18 19 -12 55 8 58 44 115 68 108 16 -5 17 3 16 83 -1 91 9 183 19 183
4 0 30 -23 58 -51 37 -37 57 -50 69 -45 15 5 16 13 9 49 -18 88 -1 395 23 414
10 8 17 35 20 75 3 49 9 67 24 79 21 15 21 17 4 100 -10 46 -24 102 -33 123
l-15 39 34 27 33 28 19 -30 c17 -29 21 -30 69 -25z m-177 -86 c29 -90 31 -120
10 -137 -8 -7 -15 -28 -15 -47 0 -42 -8 -40 -54 16 -28 33 -36 50 -32 70 3 14
10 62 16 106 6 44 13 87 16 95 9 25 32 -15 59 -103z m2257 1 c20 -40 56 -101
82 -135 63 -83 198 -209 257 -239 27 -13 49 -29 49 -34 0 -26 -45 -124 -82
-176 -106 -153 -200 -230 -404 -333 -159 -80 -363 -141 -473 -141 -53 0 -136
22 -195 52 -51 26 -131 101 -146 138 -15 37 -9 63 31 123 27 41 30 52 21 73
-16 33 -25 31 -66 -18 -69 -80 -69 -138 -3 -230 41 -58 78 -89 153 -127 187
-95 409 -77 679 53 189 92 310 188 420 337 58 77 76 110 90 165 10 38 21 72
24 76 6 7 277 -105 293 -120 4 -4 14 -209 22 -457 9 -247 18 -533 22 -635 3
-101 7 -192 9 -201 2 -9 7 -70 10 -135 8 -135 2 -138 -40 -24 -49 132 -63 124
-35 -19 40 -197 136 -492 226 -690 47 -102 103 -238 126 -301 22 -63 58 -150
80 -194 39 -78 39 -79 29 -145 -5 -36 -17 -122 -26 -191 -42 -321 -59 -417
-101 -580 -25 -96 -47 -176 -49 -178 -7 -8 -15 114 -25 398 -6 162 -13 331
-15 375 -3 44 -10 179 -16 300 -6 121 -12 231 -14 245 -2 14 -4 35 -4 48 -1
15 -7 22 -21 22 -22 0 -26 14 -34 109 -4 64 -18 93 -35 75 -12 -12 -13 -61 -8
-780 3 -337 8 -617 11 -623 12 -18 24 -3 30 37 8 51 25 328 27 430 1 45 5 82
9 82 5 0 11 -57 14 -127 4 -71 9 -166 11 -213 3 -47 9 -187 15 -313 l11 -227
-67 -248 c-66 -246 -87 -362 -66 -362 16 0 23 15 38 83 21 92 95 298 105 291
5 -3 7 -19 4 -37 -2 -18 -7 -72 -10 -122 -7 -114 -31 -364 -50 -525 -30 -256
-45 -490 -45 -710 -1 -256 15 -425 62 -671 17 -90 33 -178 35 -195 4 -27 -2
-36 -51 -78 -31 -26 -70 -52 -88 -57 -18 -6 -127 -12 -243 -14 -144 -2 -231
-8 -277 -19 -168 -39 -213 -46 -378 -57 -226 -15 -242 -15 -450 -6 -96 4 -294
12 -440 17 -322 11 -420 29 -570 105 -107 54 -124 57 -350 65 -173 6 -232 12
-300 30 -130 34 -138 40 -134 97 5 84 14 183 34 358 19 169 24 237 35 410 9
152 16 205 41 335 35 187 54 308 74 485 17 152 38 310 80 615 10 74 36 223 59
330 38 186 52 274 87 560 13 105 39 314 73 582 9 73 -2 96 -23 47 -24 -57 -83
-384 -116 -644 -17 -132 -32 -243 -33 -247 -7 -26 -13 1046 -8 1497 4 387 37
683 106 947 36 138 42 188 26 188 -5 0 -19 -26 -31 -57 -149 -393 -157 -454
-171 -1198 -6 -302 -13 -552 -15 -554 -3 -3 -24 0 -47 7 -51 15 -146 38 -207
50 -37 7 -41 10 -25 17 11 4 71 32 133 62 109 52 139 76 112 93 -16 10 -38 2
-270 -95 -174 -72 -377 -145 -407 -145 -7 0 -13 11 -13 24 0 14 32 231 71 483
39 252 75 485 79 518 5 33 23 146 39 250 16 105 32 210 36 234 3 23 11 55 16
69 6 14 81 98 167 187 86 88 188 196 226 240 181 208 357 370 458 421 38 19
272 84 304 84 4 0 4 -53 0 -117 -3 -65 -9 -192 -11 -283 -3 -91 -7 -210 -9
-265 -3 -69 -2 -89 4 -65 15 59 31 222 54 558 9 131 17 187 27 196 8 7 59 32
114 55 55 23 130 60 166 81 57 34 92 45 172 53 15 2 28 -25 71 -143 75 -210
102 -258 128 -232 10 10 -12 85 -96 314 -33 90 -34 98 -18 106 31 16 71 22 77
12 16 -26 109 13 198 83 33 26 41 28 63 18 23 -10 29 -7 79 44 29 30 58 55 64
55 6 0 11 8 11 18 0 10 23 40 51 67 54 53 74 85 93 149 11 38 15 41 50 44 21
1 50 9 65 17 14 8 29 14 32 15 4 0 22 -33 41 -72z m805 30 c15 -24 38 -55 52
-70 25 -29 23 -33 -24 -40 -49 -8 -21 -108 52 -189 39 -43 35 -59 -15 -59 -12
0 -25 -6 -28 -14 -3 -8 8 -56 24 -108 17 -51 29 -95 27 -97 -2 -1 -28 8 -58
22 l-54 24 -6 144 c-8 169 -9 429 -2 429 3 0 17 -19 32 -42z m-2181 -56 c-3
-20 -8 -104 -11 -187 -4 -82 -9 -158 -11 -167 -8 -27 -21 -22 -33 14 -6 17
-22 46 -36 64 -29 38 -32 82 -11 159 7 28 11 56 8 63 -5 16 77 104 90 96 4 -3
6 -22 4 -42z m-957 -231 c30 -57 34 -116 16 -206 -17 -81 -22 -195 -11 -214 4
-6 3 -11 -3 -11 -12 0 -68 71 -79 101 -11 29 38 369 53 369 3 0 13 -17 24 -39z
m-2309 -47 c0 -3 -7 -33 -16 -67 -18 -69 -12 -112 14 -104 48 13 47 15 50 -56
4 -102 42 -103 88 -2 l22 50 30 -67 c32 -69 104 -158 128 -158 17 0 18 26 3
86 -6 25 -9 47 -6 50 3 3 21 -6 41 -21 19 -14 47 -30 63 -34 16 -4 37 -21 48
-40 11 -17 39 -59 63 -92 36 -51 47 -60 70 -57 25 3 27 8 39 77 7 40 14 76 17
79 3 2 21 -9 41 -27 55 -48 72 -40 90 42 4 20 16 33 38 42 18 7 44 23 59 35
l28 21 10 -25 c14 -38 47 -38 98 0 l32 25 11 -28 c6 -15 20 -68 30 -117 11
-49 22 -93 25 -98 12 -19 54 -7 77 23 23 30 25 31 35 13 10 -20 36 -122 47
-187 11 -66 63 -63 114 8 36 50 47 55 56 25 3 -10 28 -53 55 -94 39 -59 56
-77 82 -84 46 -13 65 2 97 78 15 35 32 65 38 67 17 6 29 -24 37 -87 9 -65 19
-80 55 -80 21 0 41 15 83 63 66 74 86 112 95 172 3 25 9 45 14 45 14 0 109
-100 109 -116 0 -8 -18 -32 -40 -54 -32 -31 -40 -46 -40 -75 0 -27 -7 -43 -28
-63 -16 -15 -41 -48 -56 -74 -16 -29 -42 -57 -66 -70 -22 -13 -42 -28 -44 -35
-9 -22 24 -43 66 -43 l41 0 -5 -37 c-3 -21 -34 -96 -69 -168 l-64 -130 -115
-91 c-112 -90 -116 -92 -177 -97 -35 -2 -99 -17 -143 -33 l-80 -28 -88 22
c-48 12 -143 31 -212 42 -69 11 -154 31 -188 46 -83 34 -127 40 -158 23 -23
-12 -33 -9 -117 35 -51 27 -96 52 -100 56 -5 4 26 77 68 161 91 184 100 214
116 369 13 123 8 150 -23 138 -7 -3 -37 -79 -67 -169 -52 -157 -159 -410 -185
-437 -10 -10 -33 -1 -122 47 l-109 59 -7 94 c-8 119 -43 231 -106 334 -26 43
-68 130 -92 193 -47 120 -101 196 -146 207 -39 10 -107 -30 -135 -79 -20 -36
-24 -55 -23 -127 1 -79 9 -114 49 -212 5 -13 -3 -18 -48 -28 -49 -11 -61 -10
-120 9 -77 26 -117 54 -117 83 0 56 169 405 245 505 27 37 102 111 165 165
107 91 118 97 150 93 19 -3 42 -1 50 5 17 11 30 13 30 4z m3154 -95 c10 -17
31 -46 47 -64 28 -32 34 -48 31 -92 -2 -19 -14 -26 -74 -45 -41 -12 -97 -21
-128 -21 -30 1 -56 2 -56 2 -1 1 2 20 8 43 5 26 24 58 49 85 34 37 38 46 28
64 -12 24 -14 21 26 42 42 22 48 21 69 -14z m2396 -222 c47 -28 111 -70 143
-95 33 -25 94 -60 138 -78 188 -79 235 -130 424 -454 l116 -200 9 -93 c14
-136 20 -194 31 -272 5 -38 12 -96 15 -127 4 -32 11 -58 15 -58 5 0 7 19 4 43
-2 23 -7 101 -10 172 -3 72 -8 151 -11 178 -4 27 -2 47 4 47 28 0 372 -633
372 -686 0 -6 -17 -16 -37 -22 -21 -6 -105 -55 -188 -108 -155 -99 -185 -121
-185 -136 0 -18 35 -5 152 57 131 68 268 128 276 120 3 -2 -13 -28 -35 -57
-36 -47 -83 -128 -83 -143 0 -17 21 1 45 38 37 54 154 177 171 177 10 0 85
-47 152 -96 2 -2 -16 -31 -41 -66 -58 -81 -106 -177 -112 -225 -3 -21 -12 -68
-20 -105 -9 -37 -18 -100 -21 -140 -4 -40 -9 -102 -13 -138 -16 -167 19 -446
80 -637 66 -207 132 -339 226 -456 30 -38 53 -70 51 -73 -13 -12 -452 276
-475 312 -12 19 -12 24 2 37 19 20 19 27 -1 41 -11 9 -19 50 -30 161 -22 223
-27 250 -44 250 -11 0 -15 -12 -14 -50 0 -53 10 -180 21 -279 l6 -59 -30 6
c-17 3 -75 33 -130 66 -55 33 -122 72 -149 87 -185 102 -428 343 -518 513 -19
36 -57 128 -85 203 -28 75 -60 158 -71 183 -46 108 -101 340 -124 530 -30 244
-55 557 -56 703 0 54 -3 72 -14 72 -20 0 -27 -54 -31 -240 -3 -154 5 -332 20
-460 7 -60 -3 -60 -25 0 -10 26 -14 122 -15 365 -2 315 -12 769 -20 903 -3 53
-7 281 -6 334 1 22 13 18 121 -45z m2339 -15 c41 -53 102 -178 142 -292 29
-83 33 -108 33 -200 1 -88 -4 -118 -26 -185 -35 -105 -43 -145 -28 -145 14 0
78 136 96 205 30 110 3 276 -70 448 -41 94 -43 110 -20 167 17 41 41 52 62 28
17 -21 56 -132 117 -337 57 -189 58 -196 48 -255 -6 -34 -25 -91 -42 -128 -17
-37 -36 -93 -42 -125 -14 -76 -18 -82 -113 -182 -103 -109 -151 -172 -269
-351 -116 -177 -163 -263 -172 -312 -8 -44 9 -52 27 -13 15 33 31 32 24 -2
-13 -68 -18 -180 -20 -483 -4 -407 -17 -499 -107 -731 -29 -75 -123 -229 -139
-229 -4 0 -11 7 -14 16 -3 8 -13 14 -22 12 -11 -2 -23 -30 -39 -90 -13 -53
-33 -102 -50 -124 -28 -36 -108 -94 -131 -94 -29 0 -140 304 -182 500 -25 117
-26 141 -26 380 0 217 3 272 21 371 24 129 40 168 118 279 30 42 76 122 104
178 28 56 54 102 58 102 3 0 12 -8 19 -17 26 -37 26 -1 -1 82 -24 73 -27 96
-23 163 10 132 75 301 166 426 32 43 37 47 48 32 17 -24 26 -5 26 55 -1 30
-14 88 -32 139 -40 118 -47 168 -26 208 29 56 73 38 117 -49 43 -86 69 -196
76 -326 8 -156 20 -150 38 19 4 37 1 86 -9 135 -9 43 -18 125 -20 183 -3 78
-10 126 -30 185 -28 88 -32 137 -13 175 40 80 116 -2 185 -202 49 -138 73
-280 73 -437 0 -82 15 -114 23 -50 3 24 7 98 10 164 3 88 9 137 25 182 11 34
21 77 21 95 0 18 -25 92 -55 165 -80 191 -86 303 -16 303 22 0 37 -9 60 -38z
m-8941 -123 c14 -11 56 -59 95 -107 38 -48 90 -107 115 -132 26 -25 75 -74
108 -110 46 -48 83 -76 145 -107 95 -48 140 -53 244 -28 33 8 74 14 92 15 41
0 52 17 19 30 -14 5 -26 15 -26 22 0 7 -16 45 -35 83 -45 89 -58 191 -30 249
49 104 110 55 178 -143 20 -57 51 -126 69 -155 85 -128 114 -296 82 -465 -6
-32 -5 -34 16 -28 35 9 140 -38 367 -165 109 -60 208 -114 221 -119 30 -12 45
-49 77 -199 15 -69 56 -244 92 -388 35 -145 63 -265 61 -267 -6 -7 -198 122
-272 183 -39 32 -96 76 -126 99 -30 23 -98 81 -150 129 -113 103 -187 163
-335 269 -194 139 -179 124 -160 145 23 25 6 32 -54 20 -83 -16 -192 9 -329
73 -65 31 -135 61 -157 68 -60 18 -81 34 -196 149 -115 115 -166 190 -205 306
-28 83 -31 132 -9 140 27 11 64 -24 133 -129 92 -135 182 -218 182 -166 0 6
-22 34 -50 63 -54 57 -61 71 -30 61 41 -13 21 29 -31 65 -70 48 -88 71 -164
218 -37 70 -82 146 -100 167 -31 38 -36 40 -83 38 -48 -2 -51 -1 -61 28 -12
36 -6 56 20 64 38 12 144 -74 235 -191 60 -77 249 -264 266 -264 23 0 -4 36
-110 144 -99 102 -125 135 -165 213 -26 50 -47 100 -47 112 0 43 59 49 108 10z
m-183 -183 c28 -30 122 -195 113 -200 -1 -1 -20 -9 -40 -19 -39 -17 -43 -27
-39 -94 2 -18 0 -33 -2 -33 -3 0 -15 16 -26 36 -59 100 -111 286 -91 324 16
30 49 24 85 -14z m3292 -321 c-3 -7 -17 -15 -32 -17 -29 -6 -29 -7 5 44 25 37
25 37 28 12 2 -14 1 -31 -1 -39z m-11 -72 c-2 -10 -8 -47 -11 -82 -7 -57 -12
-69 -47 -105 -22 -23 -38 -34 -35 -26 3 8 18 43 32 77 14 34 26 79 27 100 1
45 5 53 24 53 10 0 14 -6 10 -17z m-56 -379 c0 -24 -83 -534 -90 -554 l-9 -25
-7 23 c-12 42 -73 162 -101 200 -15 20 -45 56 -67 79 -22 24 -38 44 -35 46 2
2 33 24 69 49 36 26 101 78 145 117 75 66 95 80 95 65z m-2714 -168 c28 -7 87
-30 133 -50 45 -21 125 -46 179 -57 126 -25 202 -63 298 -149 44 -39 127 -111
185 -160 59 -50 110 -97 113 -106 7 -20 -14 -115 -49 -214 -34 -100 -377 -790
-392 -790 -6 0 -35 12 -65 27 -52 26 -194 73 -233 76 -12 1 -20 -4 -20 -13 0
-9 50 -40 126 -80 85 -44 178 -103 280 -180 85 -64 183 -134 219 -155 36 -22
123 -80 193 -130 123 -88 195 -128 407 -228 58 -28 122 -68 163 -104 111 -94
183 -141 244 -159 109 -31 114 -35 111 -62 -5 -43 -50 -67 -120 -65 -74 1 -96
12 -128 65 -30 48 -120 133 -149 141 -32 8 -26 -4 30 -58 28 -28 81 -95 117
-150 36 -55 103 -158 149 -229 117 -178 156 -258 161 -326 3 -44 0 -60 -16
-79 -18 -23 -21 -24 -51 -11 -24 10 -46 37 -94 117 -34 57 -87 137 -119 176
-31 39 -80 117 -109 172 -63 122 -73 134 -66 77 8 -62 70 -187 188 -374 128
-204 143 -236 137 -299 -9 -88 -59 -108 -104 -41 -95 142 -295 427 -331 475
-43 56 -63 70 -63 45 0 -20 127 -226 182 -296 116 -148 161 -241 139 -289 -8
-17 -19 -23 -44 -23 -54 0 -147 102 -284 307 -107 162 -186 253 -219 253 -22
0 -16 -14 21 -50 21 -21 45 -60 61 -104 15 -39 53 -123 86 -186 60 -119 71
-167 42 -191 -35 -29 -101 40 -189 199 -26 48 -82 143 -123 212 -42 69 -99
175 -127 235 -28 61 -71 148 -96 195 -26 47 -55 109 -65 138 -20 56 -28 61
-55 36 -16 -14 -29 -11 -156 37 -152 57 -202 80 -313 147 -232 140 -383 288
-472 463 -30 60 -33 70 -32 164 0 68 12 168 37 310 19 116 50 316 67 445 44
339 86 630 126 878 6 37 14 38 90 18z m1565 -92 c105 -39 138 -47 233 -54 185
-14 230 -38 436 -231 171 -160 189 -174 202 -161 15 15 -34 74 -194 235 -70
70 -122 130 -115 132 200 66 243 60 327 -46 55 -70 82 -119 121 -218 l33 -83
-17 -117 c-46 -324 -108 -696 -117 -705 -6 -6 -81 -4 -222 7 -117 9 -258 19
-313 23 -102 6 -312 37 -322 48 -4 3 -1 23 6 44 7 20 15 91 18 157 5 118 4
123 -40 295 -25 96 -64 256 -87 355 -23 99 -52 215 -66 258 -26 84 -29 107
-15 107 5 0 65 -21 132 -46z m8676 -251 c-9 -380 -35 -658 -93 -976 -40 -223
-123 -579 -138 -595 -4 -3 -37 -13 -75 -23 -94 -24 -264 -92 -330 -131 -29
-18 -69 -42 -88 -54 -32 -20 -50 -21 -281 -23 -136 -1 -323 -6 -417 -12 -188
-10 -470 -10 -499 0 -17 7 -19 21 -21 196 l-2 189 38 81 c84 179 110 376 113
855 l1 215 165 42 c101 26 189 42 226 43 33 0 86 5 118 11 32 6 60 8 62 6 3
-2 -38 -39 -90 -82 -52 -43 -97 -84 -100 -92 -8 -21 22 -28 53 -12 24 13 205
135 485 328 134 93 340 194 509 251 71 23 290 68 341 69 l29 1 -6 -287z
m-9131 -346 c205 -173 191 -155 230 -302 39 -148 77 -234 131 -294 34 -38 47
-45 131 -67 51 -13 161 -34 244 -46 l150 -22 -6 -50 c-6 -55 -12 -61 -67 -70
-38 -6 -87 -44 -123 -96 l-17 -25 -19 23 c-11 13 -22 39 -26 58 -5 25 -11 34
-23 32 -14 -3 -16 -21 -18 -123 l-1 -120 -45 -3 c-25 -2 -85 6 -132 17 -126
30 -119 34 -110 -53 4 -44 3 -76 -3 -80 -5 -3 -32 1 -58 9 -77 23 -105 19
-160 -22 -27 -20 -61 -47 -75 -60 -23 -22 -27 -22 -39 -8 -11 14 -11 38 4 148
10 73 18 172 19 220 0 48 4 90 9 93 14 9 9 34 -22 100 -16 35 -48 124 -70 197
-23 72 -57 179 -77 235 -24 70 -33 114 -30 135 10 57 82 256 93 257 5 0 55
-38 110 -83z m-231 -427 c47 -170 67 -224 113 -303 l45 -79 -7 -81 c-6 -83
-41 -286 -51 -295 -15 -15 -165 88 -317 217 l-107 91 44 100 c42 97 184 374
232 453 10 17 22 -9 48 -103z m5895 -566 c162 -150 301 -256 391 -299 54 -25
95 -56 160 -121 49 -48 89 -90 89 -94 0 -5 -57 -11 -127 -14 -180 -8 -466 -42
-608 -71 -66 -14 -125 -25 -131 -25 -7 0 -7 19 2 63 17 78 41 250 49 342 3 39
13 112 21 162 7 51 14 111 14 133 0 22 3 40 8 40 4 0 63 -52 132 -116z m3160
-491 c-72 -217 -172 -469 -264 -666 -49 -105 -47 -104 -116 -80 -8 3 -81 9
-161 13 -113 6 -153 12 -179 26 -18 11 -44 25 -59 33 -14 8 -75 18 -136 23
-118 8 -135 12 -135 28 0 15 107 91 228 163 93 55 254 187 372 304 55 55 147
117 247 168 86 43 224 96 232 89 1 -1 -12 -47 -29 -101z m-556 -61 c7 -12
-298 -300 -426 -402 -120 -96 -128 -105 -128 -141 0 -43 10 -58 49 -78 35 -18
65 -23 211 -36 45 -4 76 -13 100 -30 66 -45 107 -56 251 -64 77 -4 143 -11
146 -15 7 -7 -71 -171 -86 -181 -8 -4 -137 9 -201 20 -14 3 -100 5 -192 6
l-168 1 -89 44 c-49 24 -110 48 -136 54 -25 6 -76 25 -113 44 -37 18 -100 45
-141 60 -73 26 -131 60 -131 76 0 4 32 21 71 36 75 29 87 40 71 56 -8 8 -33 6
-87 -4 -76 -15 -77 -15 -85 6 -13 33 -44 284 -44 351 1 54 24 159 40 174 3 3
108 7 233 9 125 1 277 6 337 10 157 12 512 14 518 4z"/>
<path d="M5032 10405 c0 -16 2 -22 5 -12 2 9 2 23 0 30 -3 6 -5 -1 -5 -18z"/>
<path d="M5145 1215 c-99 -23 -214 -29 -265 -12 -25 7 -57 13 -70 12 -165 -12
-232 -18 -325 -31 -60 -9 -125 -18 -142 -20 -24 -4 -33 -10 -33 -24 0 -18 6
-19 83 -14 45 3 125 12 177 19 137 21 280 24 280 6 0 -5 -21 -12 -47 -16 -68
-10 -99 -23 -85 -37 8 -8 33 -8 94 0 81 10 364 9 483 -3 33 -3 105 -2 160 2
91 8 106 7 170 -15 165 -54 193 -59 646 -113 182 -21 235 -21 211 3 -12 12
-32 16 -402 83 -307 56 -353 67 -525 122 -120 39 -153 45 -245 49 -69 2 -125
-1 -165 -11z"/>
<path d="M5647 695 c-189 -45 -529 -62 -832 -41 -210 14 -137 -15 150 -60 218
-33 706 1 818 58 12 6 17 18 15 36 -4 35 -26 36 -151 7z"/>
<path d="M10572 11763 c-146 -86 -318 -249 -414 -391 -99 -147 -168 -319 -189
-471 -6 -42 -12 -85 -14 -96 -3 -12 -35 -41 -80 -70 -87 -57 -231 -201 -290
-290 -127 -191 -211 -445 -230 -691 l-7 -91 98 -50 c199 -102 379 -145 604
-146 178 0 293 19 450 74 63 22 122 41 130 41 8 0 52 -16 97 -36 139 -62 256
-87 433 -93 182 -6 287 9 450 63 100 33 270 115 290 139 15 18 19 129 8 223
-37 337 -218 639 -497 826 -40 26 -74 53 -76 60 -1 6 -8 54 -14 108 -39 343
-278 694 -607 892 -32 20 -64 36 -69 36 -6 0 -39 -17 -73 -37z m183 -192 c139
-106 264 -257 340 -408 44 -89 95 -252 95 -304 l0 -27 -109 44 c-164 67 -297
94 -456 94 -178 0 -301 -23 -453 -85 -34 -14 -64 -25 -67 -25 -11 0 -4 53 20
136 67 230 231 451 449 605 79 56 65 58 181 -30z m32 -747 c100 -18 186 -47
316 -104 112 -49 108 -39 82 -195 -48 -299 -214 -558 -467 -729 l-87 -59 -48
28 c-165 96 -308 255 -393 439 -58 125 -86 239 -105 432 l-6 62 93 40 c93 41
211 77 297 92 79 13 231 11 318 -6z m-827 -261 c0 -61 35 -227 66 -315 77
-214 242 -437 405 -545 22 -14 36 -30 32 -34 -12 -11 -151 -47 -230 -58 -103
-16 -274 -13 -378 5 -101 17 -240 61 -315 99 -57 29 -57 29 -35 153 45 259
141 464 290 621 76 81 142 134 156 125 5 -3 9 -26 9 -51z m1440 -18 c130 -100
251 -263 311 -420 41 -104 71 -252 67 -329 l-3 -61 -65 -32 c-149 -75 -375
-127 -529 -122 -127 4 -266 31 -365 73 l-38 16 58 43 c253 186 425 464 479
774 8 47 15 90 15 94 0 15 10 10 70 -36z"/>
<path d="M3935 10190 c-88 -23 -125 -40 -125 -57 0 -17 1 -17 97 8 45 11 110
23 145 27 48 5 64 11 66 25 3 15 -5 17 -55 16 -32 0 -89 -8 -128 -19z"/>
<path d="M4077 10086 c-96 -40 -162 -98 -204 -181 -53 -104 -138 -219 -235
-316 -55 -55 -97 -103 -94 -107 13 -13 67 29 177 138 100 99 123 128 165 209
27 52 66 113 87 137 39 44 137 109 182 120 14 3 25 10 25 15 0 16 -43 9 -103
-15z"/>
<path d="M4716 10072 c-3 -5 7 -20 22 -33 54 -50 66 -54 34 -12 -38 49 -48 57
-56 45z"/>
<path d="M4770 10070 c0 -12 33 -30 54 -30 24 0 19 15 -9 28 -31 15 -45 15
-45 2z"/>
<path d="M4515 9963 c-27 -88 -72 -180 -100 -203 -19 -16 -19 -30 -1 -30 22 0
90 81 120 141 18 38 28 74 29 114 3 90 -17 80 -48 -22z"/>
<path d="M4024 9633 c-83 -189 -105 -223 -248 -378 -43 -47 -76 -88 -73 -91
20 -20 243 209 286 294 30 59 81 199 81 221 0 29 -24 5 -46 -46z"/>
<path d="M3409 9065 c-16 -37 -19 -60 -16 -123 8 -127 -6 -179 -89 -344 -70
-140 -84 -178 -59 -160 11 7 142 227 165 277 10 22 14 73 15 185 0 105 4 162
13 177 15 26 15 33 1 33 -5 0 -19 -20 -30 -45z"/>
<path d="M6763 9478 c-39 -19 -40 -49 -3 -78 100 -75 162 -145 205 -233 25
-49 45 -95 45 -102 0 -19 30 -27 47 -13 21 17 11 57 -42 163 -48 96 -151 228
-200 256 -23 13 -35 14 -52 7z"/>
<path d="M6740 9262 c-62 -23 -69 -29 -63 -52 4 -14 0 -20 -10 -20 -37 0 -49
-73 -20 -117 20 -30 90 -83 110 -83 26 0 12 29 -29 61 -53 40 -68 58 -68 80 0
15 3 15 38 -2 44 -22 222 -55 246 -46 41 16 -7 109 -81 159 -53 36 -71 39
-123 20z m75 -72 c0 -19 -41 -25 -60 -10 -22 18 -8 32 28 28 20 -2 32 -8 32
-18z m63 -42 c7 -7 12 -16 12 -20 0 -11 -41 -10 -59 1 -11 7 -10 11 5 20 24
13 28 13 42 -1z"/>
<path d="M4396 9445 l-100 -13 -69 -71 c-51 -52 -68 -76 -65 -93 5 -36 34 -33
108 12 86 52 126 62 216 54 39 -3 87 -1 108 4 36 10 38 10 58 -24 11 -19 25
-34 30 -34 16 0 1 58 -21 86 -11 14 -17 33 -14 44 14 52 -48 61 -251 35z"/>
<path d="M4385 9265 c-22 -13 -66 -39 -97 -57 -32 -18 -58 -36 -58 -40 0 -21
62 -5 103 26 79 61 82 61 97 13 8 -23 13 -46 11 -51 -1 -5 25 -7 57 -4 60 4
127 38 119 62 -2 6 -25 26 -51 44 -61 41 -122 43 -181 7z m170 -38 c21 -16 12
-37 -16 -37 -14 0 -19 7 -19 25 0 28 8 31 35 12z"/>
<path d="M4684 9099 c3 -13 12 -45 18 -71 13 -55 24 -61 33 -18 4 20 1 42 -12
67 -21 44 -50 59 -39 22z"/>
<path d="M4770 8670 c0 -6 -35 -33 -77 -60 -116 -73 -143 -131 -78 -166 29
-15 35 -23 30 -41 -6 -27 6 -29 41 -7 21 15 29 15 52 3 40 -19 62 -19 84 3 12
12 26 17 36 13 45 -19 54 -18 48 2 -5 14 3 27 26 49 18 16 39 27 46 26 20 -5
14 42 -9 66 -11 13 -51 36 -89 53 -42 19 -70 38 -73 50 -5 20 -37 27 -37 9z
m69 -80 c20 -10 54 -26 76 -35 l40 -17 -37 -32 c-21 -18 -57 -38 -80 -45 -58
-18 -146 -16 -192 3 l-38 16 22 31 c19 25 131 93 164 98 4 0 25 -8 45 -19z"/>
<path d="M7960 7733 c-43 -130 -107 -232 -248 -388 -76 -85 -160 -153 -342
-275 -96 -64 -181 -124 -189 -133 -74 -91 401 172 535 295 66 60 200 232 234
299 35 68 60 162 60 223 0 70 -24 60 -50 -21z"/>
<path d="M6455 7662 c-36 -38 -73 -120 -81 -179 -13 -98 42 -219 128 -282 67
-49 78 -37 21 22 -28 28 -61 71 -74 95 -30 59 -22 131 25 245 20 48 36 93 36
101 0 27 -30 26 -55 -2z"/>
<path d="M8136 7658 c-2 -7 -11 -42 -21 -78 -23 -89 -61 -158 -160 -285 -55
-71 -82 -112 -75 -119 16 -16 58 14 137 99 90 97 142 194 150 283 3 33 3 72
-1 86 -7 27 -24 35 -30 14z"/>
<path d="M6870 7446 c0 -21 40 -46 72 -46 34 0 75 37 60 52 -8 8 -20 7 -42 -2
-24 -10 -37 -10 -56 -1 -32 14 -34 14 -34 -3z"/>
<path d="M6296 7118 c-3 -18 -10 -80 -16 -138 -6 -58 -12 -125 -15 -150 -2
-25 -7 -97 -11 -160 -3 -63 -8 -122 -9 -130 -2 -8 -6 -71 -9 -140 -4 -69 -9
-136 -11 -150 -2 -14 -7 -79 -10 -145 -3 -66 -10 -178 -15 -250 -6 -71 -12
-168 -15 -215 -3 -47 -8 -107 -10 -135 -3 -27 -9 -131 -15 -230 -18 -328 -23
-396 -30 -400 -4 -2 -10 66 -14 153 -10 197 -18 268 -31 262 -6 -3 -10 -170
-10 -470 1 -430 14 -1345 20 -1380 1 -8 6 -64 10 -125 4 -60 8 -117 10 -125 1
-8 6 -60 9 -115 4 -55 9 -120 11 -145 2 -25 7 -90 10 -145 3 -55 8 -127 10
-160 3 -33 7 -96 10 -140 24 -355 63 -593 146 -879 44 -153 89 -263 96 -233 3
9 -7 56 -21 105 -52 180 -91 350 -107 457 -9 66 -30 337 -44 560 -3 55 -8 127
-10 160 -7 100 -15 196 -20 265 -3 36 -12 151 -20 255 -17 217 -37 763 -39
1065 -1 202 1 249 29 625 8 105 16 231 20 280 3 50 10 162 15 250 6 88 15 237
20 330 10 175 26 436 35 560 22 318 48 865 41 865 -2 0 -6 -15 -10 -32z"/>
<path d="M7379 4649 c-30 -57 -381 -1101 -481 -1429 -87 -290 -159 -609 -193
-860 -3 -25 -13 -90 -21 -145 -39 -265 -64 -491 -65 -595 -2 -162 0 -193 11
-210 16 -25 29 0 35 70 55 602 187 1210 425 1970 75 239 186 627 234 815 32
128 86 375 86 396 0 17 -19 9 -31 -12z"/>
<path d="M10823 3736 c-86 -21 -129 -60 -113 -101 12 -32 30 -42 104 -59 38
-9 92 -29 120 -45 63 -36 79 -39 241 -46 72 -3 140 -9 152 -12 16 -3 25 0 29
11 4 9 5 19 3 21 -9 9 -212 44 -294 50 -70 6 -101 14 -140 35 -27 15 -74 33
-103 40 -31 7 -51 17 -49 23 2 7 33 23 68 37 74 29 89 37 89 51 0 12 -43 10
-107 -5z"/>
</g>
</svg>
