<?xml version="1.0" standalone="no"?>
<!DOCTYPE svg PUBLIC "-//W3C//DTD SVG 20010904//EN"
 "http://www.w3.org/TR/2001/REC-SVG-20010904/DTD/svg10.dtd">
<svg version="1.0" xmlns="http://www.w3.org/2000/svg"
 width="1249.000000pt" height="1249.000000pt" viewBox="0 0 1249.000000 1249.000000"
 preserveAspectRatio="xMidYMid meet">
<metadata>
Created by potrace 1.16, written by Peter Selinger 2001-2019
</metadata>
<g transform="translate(0.000000,1249.000000) scale(0.100000,-0.100000)"
fill="#000000" stroke="none">
<path d="M0 6245 l0 -6245 6245 0 6245 0 0 6245 0 6245 -6245 0 -6245 0 0
-6245z m6625 6145 c459 -34 865 -102 1270 -215 1304 -363 2459 -1153 3272
-2238 110 -148 313 -447 313 -463 0 -5 -32 -27 -71 -49 -80 -45 -113 -84 -111
-129 0 -17 3 -74 6 -126 5 -105 -8 -273 -30 -365 -21 -93 -19 -113 21 -150
l34 -33 -22 -15 c-12 -8 -56 -31 -97 -52 l-74 -37 -70 78 c-39 44 -96 103
-128 133 -38 35 -58 62 -58 77 0 53 -32 70 -74 39 -29 -22 -49 -19 -127 20
-59 30 -233 104 -304 129 -20 7 -19 8 3 26 13 11 28 17 35 14 8 -3 12 14 13
58 2 91 13 140 30 134 19 -7 18 33 -3 85 -12 30 -13 46 -6 58 6 9 14 58 18
109 4 51 11 94 16 97 14 10 -59 167 -96 205 -25 26 -32 39 -24 47 20 20 -19
61 -77 83 -30 11 -59 20 -64 20 -5 0 -17 11 -25 24 -21 31 -49 38 -101 24 -40
-11 -46 -10 -67 10 -23 22 -77 31 -77 12 0 -5 5 -10 10 -10 6 0 10 -4 10 -10
0 -5 -26 -9 -60 -8 -65 2 -84 -9 -120 -68 -11 -17 -34 -37 -51 -44 -40 -17
-83 -99 -43 -83 14 5 14 2 0 -32 -9 -21 -16 -57 -16 -82 0 -24 -5 -53 -11 -65
-9 -16 -7 -23 10 -34 11 -8 23 -29 26 -47 10 -51 -12 -272 -29 -306 -19 -36
-21 -72 -3 -68 7 1 11 -7 9 -22 -1 -14 5 -49 13 -79 9 -30 13 -58 8 -63 -4 -4
-58 24 -119 62 l-110 70 38 39 c42 42 45 58 23 120 -23 65 -18 130 16 232 40
120 44 207 12 259 -13 20 -23 44 -23 53 0 35 -55 129 -95 162 -31 25 -64 39
-131 55 -164 39 -277 14 -350 -76 -16 -19 -43 -52 -60 -73 -69 -82 -91 -157
-70 -239 8 -32 15 -69 15 -83 0 -14 3 -46 6 -71 6 -34 3 -54 -10 -79 -42 -81
-37 -135 15 -185 37 -36 38 -45 3 -45 -16 -1 -80 -19 -143 -41 -63 -21 -122
-40 -130 -42 -22 -3 -13 30 18 72 24 31 27 44 29 120 1 47 4 118 8 157 9 88
-3 115 -93 202 -133 130 -237 179 -361 170 -41 -3 -83 -14 -110 -27 -54 -28
-133 -101 -163 -150 -12 -20 -34 -50 -49 -68 -32 -37 -55 -151 -45 -217 4 -22
11 -70 15 -104 7 -45 20 -81 45 -122 26 -43 36 -69 36 -100 0 -52 18 -119 39
-143 18 -22 20 -20 -80 -77 -115 -65 -397 -302 -434 -365 -37 -63 -74 -168
-86 -247 -6 -40 -26 -126 -45 -192 -44 -154 -178 -755 -203 -916 -34 -211 -50
-379 -66 -683 -8 -161 -20 -389 -26 -508 -12 -214 -7 -415 10 -432 19 -19 79
15 176 99 114 97 184 149 192 140 11 -10 91 -559 122 -836 21 -179 31 -324 31
-415 0 -190 18 -484 31 -517 12 -28 88 -68 132 -68 13 0 59 -9 103 -21 58 -16
109 -21 191 -21 79 0 113 -4 116 -13 3 -6 8 -36 11 -66 l6 -54 -71 -60 c-39
-33 -79 -76 -89 -96 -11 -22 -46 -56 -83 -82 -56 -40 -67 -53 -82 -99 l-17
-52 26 -23 c43 -37 126 -55 224 -51 78 3 96 8 173 46 84 40 194 117 270 187
62 57 61 113 -2 206 -23 33 -24 42 -19 117 4 45 9 85 13 88 8 9 166 -16 173
-27 3 -5 8 -31 11 -58 4 -38 0 -65 -17 -111 -15 -41 -21 -72 -17 -95 4 -22 -1
-55 -12 -88 -10 -28 -20 -82 -23 -120 -7 -80 10 -110 70 -127 110 -30 379 13
441 71 39 36 15 105 -78 229 -33 44 -41 63 -41 98 0 47 26 160 41 178 5 6 35
14 66 17 38 4 72 16 105 36 27 17 52 31 54 31 3 0 31 -18 63 -39 72 -49 159
-93 228 -115 61 -20 77 -37 76 -80 -1 -48 -22 -82 -114 -187 -113 -130 -119
-141 -119 -220 0 -108 23 -118 268 -120 249 -3 301 16 316 113 4 25 22 69 41
99 19 29 35 61 35 70 0 10 -13 70 -30 134 -36 138 -36 156 -9 181 17 16 20 29
18 99 l-2 80 44 -1 c152 -2 338 -12 347 -18 6 -3 21 -37 33 -74 27 -81 38
-242 26 -382 -11 -124 -3 -260 18 -299 8 -17 34 -41 58 -53 39 -21 55 -23 212
-23 140 0 178 3 217 18 25 10 49 25 52 33 12 32 -16 109 -63 173 -58 79 -149
262 -158 316 l-6 38 108 -6 c60 -4 110 -9 113 -11 2 -3 3 -69 3 -148 -2 -166
7 -202 51 -217 42 -15 98 -14 99 2 0 6 0 77 0 157 -1 185 5 214 44 218 120 11
233 35 266 56 58 39 65 69 41 178 -11 51 -33 138 -50 194 -38 126 -67 262 -59
270 11 11 220 35 228 27 4 -4 13 -42 20 -83 11 -67 10 -82 -6 -133 -15 -48
-16 -61 -5 -87 8 -19 11 -53 7 -89 -4 -47 -1 -66 14 -90 17 -28 159 -131 180
-131 17 0 8 -22 -75 -193 -706 -1448 -1919 -2547 -3422 -3102 -442 -164 -955
-286 -1399 -335 -55 -6 -113 -13 -130 -15 -157 -20 -802 -28 -1035 -12 -349
24 -670 76 -1098 178 l-53 13 2 215 c2 186 9 334 43 846 4 50 11 250 16 445 5
195 14 508 19 695 6 187 13 444 16 570 7 292 16 466 24 483 5 9 34 -8 95 -56
172 -135 334 -208 490 -219 66 -5 96 -2 138 12 118 38 274 154 322 239 13 22
32 66 41 96 24 75 27 78 83 72 59 -5 94 11 146 68 50 55 64 92 86 221 16 98
25 122 104 281 94 189 198 485 211 600 4 35 18 119 31 187 14 69 24 139 23
155 0 17 0 136 1 264 0 128 -2 237 -5 242 -10 17 -6 424 5 516 6 49 18 121 26
159 40 183 46 248 41 400 -7 173 -22 258 -70 405 -20 58 -44 148 -56 202 -11
53 -31 119 -45 147 -14 28 -26 65 -26 82 0 17 -9 71 -21 120 -15 65 -30 101
-59 142 -21 30 -51 80 -65 113 -46 104 -103 143 -191 129 -60 -9 -104 -49
-129 -116 -17 -46 -20 -80 -20 -219 0 -91 3 -186 7 -212 l8 -47 -44 -30 c-86
-60 -117 -169 -115 -413 l0 -158 -41 -120 c-38 -111 -41 -129 -41 -220 1 -121
12 -171 58 -274 32 -72 35 -85 30 -141 -7 -74 -55 -268 -103 -417 -42 -130
-111 -299 -193 -472 l-62 -129 -27 25 c-15 14 -41 33 -58 41 -33 17 -84 86
-84 113 0 20 76 142 170 274 98 137 120 199 137 390 13 150 7 243 -27 410 -37
183 -63 245 -130 301 -36 30 -53 54 -69 98 -34 93 -101 165 -203 217 -40 20
-53 35 -79 87 -34 67 -106 174 -148 220 -59 64 -132 76 -206 33 -25 -15 -59
-26 -80 -26 -20 0 -48 -6 -63 -14 -37 -20 -89 -75 -102 -111 -27 -69 -7 -210
45 -329 23 -52 24 -57 8 -63 -58 -19 -107 -50 -131 -81 -15 -20 -52 -61 -83
-91 -31 -31 -73 -82 -93 -113 -20 -32 -39 -58 -42 -58 -2 0 -45 24 -95 54
-117 71 -170 88 -261 85 -40 -1 -116 4 -168 11 -52 6 -125 10 -162 7 -60 -4
-80 -11 -196 -76 l-128 -71 -112 0 c-131 0 -124 -5 -126 108 l-1 76 60 21 c33
11 81 35 108 53 49 34 60 37 113 26 25 -5 39 1 76 29 63 48 81 57 121 57 28 0
42 8 70 39 56 62 78 147 84 321 l5 145 -37 60 c-20 33 -49 74 -64 90 -24 25
-27 37 -24 71 5 40 4 41 -27 48 -18 3 -51 6 -74 6 -99 0 -167 39 -215 122 -16
29 -43 66 -60 82 -27 26 -31 37 -30 76 3 75 -20 102 -134 160 l-72 37 -5 65
c-3 36 -11 72 -17 80 -24 29 -89 47 -221 62 -173 19 -210 37 -234 116 -9 30
-20 72 -23 94 -5 28 -21 54 -58 93 -28 30 -63 78 -77 106 -26 53 -128 148
-215 201 -66 40 -182 61 -330 60 -183 -2 -310 -29 -440 -94 -92 -46 -106 -50
-170 -50 -38 0 -98 -7 -132 -15 -65 -15 -188 -73 -256 -119 -21 -14 -40 -26
-42 -26 -6 0 22 64 91 210 471 983 1218 1847 2122 2454 903 606 1941 960 3032
1035 172 12 625 12 785 1z m2634 -2396 c2 -2 -2 -11 -10 -21 -13 -15 -12 -16
6 -9 11 4 40 10 65 12 56 6 112 -23 103 -54 -3 -14 1 -22 16 -27 20 -6 51 -52
51 -75 0 -7 9 -24 20 -39 24 -34 38 -96 30 -136 -4 -24 -10 -30 -30 -30 -33 0
-49 -45 -49 -138 -1 -38 -6 -88 -12 -112 -24 -93 -135 -178 -235 -179 -62 0
-192 59 -223 102 -39 55 -54 137 -48 256 6 96 5 111 -11 122 -9 7 -24 13 -32
13 -11 0 -10 -4 5 -15 18 -14 20 -27 20 -157 0 -129 2 -146 23 -187 19 -37 21
-50 13 -73 -13 -35 -35 -34 -72 2 -32 33 -41 97 -14 107 22 9 28 82 15 185 -6
52 -14 112 -17 134 -5 41 30 155 47 155 5 0 24 22 42 50 38 58 100 106 155
119 33 8 131 5 142 -5z m-893 -250 c51 -24 92 -59 81 -70 -3 -3 -15 0 -27 6
-38 20 -123 28 -208 20 -71 -8 -95 -15 -168 -55 -47 -26 -88 -45 -90 -42 -3 2
10 24 29 48 37 50 120 104 181 118 59 14 143 4 202 -25z m1596 -75 c19 -12 28
-11 23 4 -3 6 -1 18 4 25 6 11 14 8 35 -13 20 -20 33 -25 50 -21 17 4 26 1 31
-12 6 -16 7 -15 17 3 11 18 12 17 24 -15 8 -24 13 -29 14 -15 1 18 3 17 25 -8
14 -15 25 -38 25 -50 0 -13 7 -33 17 -46 13 -19 16 -48 16 -144 l0 -120 -53
-50 c-55 -51 -69 -51 -70 1 0 15 -14 33 -45 54 -39 27 -45 37 -46 67 0 33 -1
34 -11 14 -9 -18 -14 -20 -34 -11 -18 9 -28 8 -36 0 -16 -16 -24 -15 -41 3
-13 13 -12 23 9 82 21 62 35 170 15 118 -26 -64 -56 -173 -53 -192 2 -16 -10
-34 -38 -59 -22 -20 -40 -43 -40 -50 0 -26 -28 -14 -43 19 -18 38 -31 343 -15
370 5 9 18 17 28 17 10 0 22 5 25 10 3 6 19 10 35 10 16 0 32 5 35 10 4 6 11
8 16 5 17 -11 51 6 45 22 -3 8 -3 20 1 26 4 7 10 -1 14 -18 5 -15 14 -32 21
-36z m158 41 c0 -5 -5 -10 -11 -10 -5 0 -7 5 -4 10 3 6 8 10 11 10 2 0 4 -4 4
-10z m-62 -19 c3 -8 -1 -12 -9 -9 -7 2 -15 10 -17 17 -3 8 1 12 9 9 7 -2 15
-10 17 -17z m-1611 -46 c103 -46 153 -99 153 -162 0 -27 -3 -25 -58 35 -52 55
-72 71 -72 58 0 -3 23 -33 52 -67 55 -67 55 -67 -39 -3 -99 67 -230 86 -276
40 -14 -14 -57 -34 -98 -47 -101 -30 -136 -49 -189 -103 -48 -50 -70 -58 -70
-25 0 30 17 59 68 111 52 54 50 74 -3 33 -20 -15 -38 -25 -41 -22 -12 12 12
36 59 58 29 13 85 43 126 66 84 47 133 59 185 45 30 -9 36 -8 36 5 0 23 93 10
167 -22z m1083 -115 c-7 -23 -19 -49 -26 -58 -12 -15 -13 -11 -14 28 0 51 25
99 43 81 7 -7 6 -23 -3 -51z m-1085 -30 c14 -13 25 -31 25 -41 0 -15 -5 -16
-32 -8 -39 11 -93 2 -109 -17 -17 -21 -9 -24 42 -12 36 8 56 7 90 -4 41 -14
44 -17 51 -59 17 -112 6 -213 -28 -251 -17 -18 -19 -18 -56 19 -22 22 -38 47
-38 60 0 23 -14 31 -24 14 -3 -5 -34 -12 -68 -16 -35 -3 -71 -9 -80 -11 -13
-4 -18 0 -18 15 0 12 -4 21 -9 21 -15 0 -22 -30 -11 -50 8 -15 3 -29 -22 -65
l-33 -47 -51 57 c-48 53 -52 61 -57 121 -9 95 14 143 82 173 33 14 60 19 74
15 19 -6 20 -5 9 8 -21 26 -49 27 -92 6 -22 -11 -43 -18 -47 -15 -15 16 12 35
88 59 46 16 96 36 111 46 40 26 168 15 203 -18z m1915 -177 c0 -20 -3 -24 -11
-16 -7 7 -9 19 -6 27 10 24 17 19 17 -11z m-2412 -38 c19 -24 41 -160 28 -173
-10 -10 -54 16 -72 43 -12 19 -15 36 -10 70 4 25 12 45 18 45 6 0 8 -12 5 -30
-10 -46 2 -90 24 -90 11 0 19 7 19 15 0 8 -6 15 -14 15 -21 0 -30 20 -17 33
18 18 13 46 -14 72 -22 22 -22 25 -5 25 10 0 27 -11 38 -25z m1522 -9 c0 -28
16 -43 23 -24 3 8 6 6 6 -4 2 -30 -19 -62 -55 -86 l-34 -22 -10 25 c-16 42
-12 58 20 88 17 16 30 33 30 38 0 5 5 9 10 9 6 0 10 -11 10 -24z m-890 4 c0
-5 -4 -10 -10 -10 -5 0 -10 5 -10 10 0 6 5 10 10 10 6 0 10 -4 10 -10z m1777
-30 c2 -8 -2 -22 -7 -30 -9 -13 -11 -13 -20 0 -16 25 -12 52 7 48 10 -2 19
-10 20 -18z m1174 0 l86 1 38 -73 c21 -40 51 -96 66 -124 l27 -50 -24 -73
c-30 -93 -56 -135 -102 -166 -46 -31 -58 -31 -66 1 -4 14 -25 45 -46 68 -22
24 -40 53 -40 66 0 20 -2 21 -16 9 -20 -16 -74 -13 -93 6 -12 11 -10 25 14 88
14 41 25 85 23 98 -2 20 -25 39 -61 52 -5 1 -4 22 3 45 12 47 38 65 80 55 14
-3 64 -5 111 -3z m-2501 -23 c84 -56 198 -73 285 -42 22 8 43 15 46 15 6 0 20
-70 31 -155 2 -16 -13 -28 -79 -60 -45 -23 -91 -49 -102 -59 -22 -20 -75 -148
-86 -207 -14 -75 13 -45 44 49 44 134 48 141 90 148 60 11 148 61 174 99 l23
34 44 -23 c59 -32 190 -135 190 -151 0 -6 -23 -24 -51 -39 -83 -46 -225 -174
-324 -293 l-27 -33 -56 48 c-32 27 -73 59 -92 72 -43 30 -49 37 -43 61 4 15
-16 172 -32 255 -3 11 -26 34 -54 51 -27 17 -56 42 -65 56 -15 22 -15 27 3 68
10 24 22 63 26 87 4 23 10 42 14 42 3 0 22 -10 41 -23z m-443 -22 c-4 -8 -11
-15 -17 -15 -14 0 -13 27 3 33 16 6 21 1 14 -18z m1421 -11 c22 -15 52 -63 52
-83 0 -24 -41 -33 -81 -17 -22 9 -59 16 -83 16 -36 0 -47 5 -60 25 -10 15 -14
34 -11 45 8 25 21 26 28 1 15 -59 167 -86 167 -30 0 14 -14 26 -42 39 -37 16
-39 19 -18 19 14 1 36 -6 48 -15z m-1068 -47 c0 -2 -9 -14 -19 -26 -29 -33
-12 -76 52 -136 50 -45 55 -55 62 -105 4 -30 14 -84 21 -119 8 -35 12 -66 9
-69 -3 -4 -16 0 -28 8 -12 8 -62 36 -112 63 -49 27 -111 66 -136 87 -44 37
-140 82 -202 95 -35 7 -44 28 -24 58 15 23 171 88 245 103 l32 7 -25 -44 c-26
-45 -32 -114 -15 -154 6 -15 9 -7 9 30 1 57 23 107 73 164 27 33 58 52 58 38z
m2434 -33 c20 -8 21 -24 1 -24 -11 0 -14 -7 -9 -24 3 -14 -1 -36 -10 -53 -13
-24 -15 -25 -16 -7 0 26 12 114 16 114 1 0 9 -3 18 -6z m-2984 -58 c0 -8 -12
-24 -27 -36 -23 -18 -38 -21 -81 -18 -57 5 -83 21 -66 38 8 8 15 6 24 -5 24
-29 130 -16 130 16 0 11 5 19 10 19 6 0 10 -6 10 -14z m1850 -152 c-12 -53
-20 -98 -17 -100 7 -7 46 91 59 148 13 61 28 85 28 45 0 -15 8 -45 17 -68 14
-36 15 -55 6 -138 -8 -72 -14 -98 -28 -106 -9 -5 -40 -32 -68 -58 -72 -69
-119 -91 -192 -92 -71 0 -129 29 -189 96 -41 45 -42 59 -15 163 12 43 21 39
39 -17 19 -61 31 -29 15 41 -20 84 -7 104 36 61 17 -17 26 -19 47 -11 69 25
113 34 146 30 29 -3 37 0 42 15 9 29 88 111 92 97 2 -6 -6 -54 -18 -106z
m-460 29 c0 -19 -24 -16 -45 7 -10 11 -15 26 -11 36 6 15 9 14 31 -6 14 -13
25 -29 25 -37z m674 -46 c34 -19 93 -46 131 -60 39 -15 85 -36 103 -47 31 -19
32 -21 32 -91 0 -117 37 -333 77 -444 19 -55 37 -119 40 -143 3 -23 -7 -138
-21 -255 -14 -116 -28 -247 -32 -289 -4 -52 -10 -78 -18 -78 -7 0 -25 -14 -41
-30 -25 -26 -30 -40 -33 -96 -4 -60 -2 -68 22 -93 27 -28 27 -28 9 -59 -15
-26 -16 -35 -5 -64 6 -19 12 -46 12 -61 0 -17 10 -34 29 -47 27 -21 28 -25 37
-143 12 -177 11 -300 -5 -402 -17 -114 -11 -186 33 -371 19 -82 46 -210 60
-284 30 -164 113 -816 122 -955 3 -55 13 -147 21 -205 12 -83 15 -191 14 -514
-1 -225 -5 -414 -8 -419 -7 -12 -217 -1 -341 19 -134 21 -156 32 -176 90 -31
89 -56 319 -66 604 -5 151 -12 292 -15 312 -3 21 -12 192 -20 380 -8 189 -19
451 -25 583 -15 345 -71 939 -130 1390 -56 432 -67 718 -36 985 21 176 38 256
83 380 51 141 76 253 76 353 1 48 3 87 6 87 2 0 32 -15 65 -33z m1346 12 c0
-6 -4 -7 -10 -4 -5 3 -10 11 -10 16 0 6 5 7 10 4 6 -3 10 -11 10 -16z m-9946
-38 c63 -28 223 -138 237 -162 30 -57 -57 -37 -231 53 -168 87 -258 90 -348
12 -71 -61 -49 -119 24 -64 90 65 170 61 284 -16 82 -54 164 -85 250 -91 104
-8 150 -53 55 -53 -39 0 -45 -3 -51 -25 -9 -36 7 -50 79 -64 35 -7 69 -16 76
-20 6 -4 18 -33 25 -64 16 -70 8 -75 -64 -41 -28 13 -56 21 -61 18 -28 -17 68
-70 179 -98 32 -9 125 -19 205 -22 163 -8 173 -12 184 -78 7 -42 -6 -62 -48
-71 -30 -7 -50 -35 -63 -86 -9 -39 -70 -63 -108 -43 -30 16 -48 42 -48 73 0
24 -19 38 -30 22 -7 -12 4 -93 15 -112 15 -23 66 -40 102 -33 33 6 36 5 29
-12 -7 -18 -35 -141 -36 -156 0 -3 -16 -27 -35 -53 -61 -80 -82 -224 -45 -306
25 -57 26 -89 1 -89 -23 0 -37 -17 -47 -55 -16 -68 -85 -103 -209 -106 -88 -2
-113 -11 -125 -45 -10 -24 -14 -26 -53 -22 -24 3 -76 21 -117 42 -96 47 -123
47 -166 -1 -29 -32 -37 -36 -53 -26 -10 6 -35 15 -55 18 -20 4 -52 20 -73 36
-20 16 -54 32 -75 35 -64 11 -77 29 -87 116 -9 81 -25 115 -112 237 -22 30
-39 59 -39 66 0 6 -16 37 -35 69 -30 50 -35 67 -35 121 0 93 -25 215 -71 355
-52 154 -57 242 -19 328 42 96 134 152 218 134 45 -11 102 -7 163 11 50 15 60
33 26 46 -13 5 -27 20 -30 33 -8 28 -97 85 -161 101 -83 22 -78 24 159 91 82
23 103 25 233 21 112 -4 152 -9 186 -24z m7932 -73 c-44 -153 -59 -261 -52
-372 20 -313 27 -393 41 -516 9 -74 25 -191 35 -260 61 -399 75 -722 95 -2260
3 -228 10 -496 16 -595 5 -99 14 -313 19 -475 5 -162 16 -338 24 -390 12 -71
12 -96 4 -102 -45 -27 -331 -19 -433 13 -62 19 -158 72 -220 122 -45 36 -45
39 0 343 55 376 56 584 5 1280 -25 335 -27 791 -5 1015 21 215 78 548 122 714
33 127 37 152 36 261 -1 118 -36 373 -55 404 -5 9 -7 -22 -3 -82 4 -57 3 -98
-2 -98 -5 0 -24 35 -43 78 -37 87 -66 128 -54 77 12 -54 54 -157 84 -210 27
-48 30 -61 30 -145 0 -83 -5 -106 -49 -243 -28 -84 -57 -181 -66 -217 -37
-150 -29 -136 -88 -146 -66 -10 -208 -10 -409 1 -204 11 -200 7 -163 142 26
92 27 107 22 254 -4 136 -8 164 -30 218 -22 55 -23 63 -9 68 9 4 97 1 196 -5
100 -6 192 -10 206 -9 22 2 30 -7 59 -65 18 -37 38 -65 43 -62 13 8 2 74 -19
118 -15 33 -15 44 16 233 38 240 41 256 49 249 3 -3 8 -23 13 -43 5 -26 7 -7
6 62 l-1 100 50 100 c44 89 62 114 169 224 114 117 376 331 383 312 1 -4 -8
-46 -22 -93z m-1666 31 c15 -28 84 -43 136 -30 24 6 58 11 76 11 18 0 54 11
80 25 64 34 76 32 84 -11 4 -22 10 -31 14 -24 8 13 40 -24 40 -47 0 -28 -230
-120 -260 -103 -8 4 -55 6 -105 3 -92 -5 -154 5 -190 31 -18 13 -18 15 -1 60
10 25 24 46 32 46 10 0 14 13 14 50 l0 49 35 -20 c20 -12 40 -30 45 -40z
m3694 29 c8 -13 21 -49 30 -81 9 -32 25 -66 36 -77 20 -20 43 -61 54 -97 5
-16 -1 -31 -24 -57 -18 -19 -29 -40 -26 -45 11 -18 -64 -70 -130 -91 -123 -37
-249 -20 -318 44 -36 35 -44 59 -26 86 9 13 11 13 20 0 7 -11 15 -2 34 42 20
46 31 59 53 63 137 28 211 80 233 163 6 26 14 53 16 60 6 20 32 14 48 -10z
m-3051 -16 c9 -8 17 -18 17 -22 0 -12 -70 -100 -80 -100 -15 0 -42 59 -34 73
25 41 58 76 68 70 6 -3 19 -13 29 -21z m2656 -11 c23 -14 -4 -21 -42 -10 -21
5 -37 12 -37 14 0 9 65 5 79 -4z m-582 -110 c-6 -95 7 -176 50 -306 53 -165
68 -170 151 -55 82 115 100 104 33 -22 -68 -128 -88 -205 -101 -378 -6 -85
-18 -191 -26 -235 -29 -159 -34 -191 -34 -232 0 -36 -4 -43 -36 -62 -19 -12
-40 -19 -45 -16 -13 9 -11 171 5 325 8 74 18 179 22 233 5 69 10 95 17 88 6
-6 15 -11 19 -11 16 0 7 37 -27 118 -45 106 -60 161 -84 302 -25 144 -36 250
-27 283 6 26 64 70 79 60 6 -3 7 -43 4 -92z m563 82 c65 -8 80 -13 80 -28 0
-9 -11 -21 -26 -27 -20 -9 -30 -9 -52 4 -15 8 -39 18 -54 22 -20 4 -28 13 -28
27 0 18 4 20 23 14 12 -4 38 -9 57 -12z m-3440 -3 c0 -5 -5 -10 -11 -10 -5 0
-7 5 -4 10 3 6 8 10 11 10 2 0 4 -4 4 -10z m-6745 -65 c86 -24 134 -48 142
-72 3 -7 -31 -12 -94 -15 -74 -3 -108 -9 -138 -25 -153 -80 -218 -319 -139
-506 68 -162 69 -166 69 -382 0 -231 -4 -251 -103 -521 -69 -186 -72 -192
-124 -261 -42 -55 -42 -73 -2 -73 39 0 66 36 137 181 65 132 115 282 154 461
9 43 20 78 24 78 4 0 10 -13 14 -30 4 -16 35 -72 70 -125 54 -80 64 -103 70
-152 9 -83 23 -111 64 -132 20 -11 44 -28 54 -39 34 -38 -2 -35 -84 7 -100 51
-129 52 -166 6 -15 -19 -33 -52 -40 -72 l-11 -38 -1 42 c-2 81 38 123 119 123
29 0 40 4 40 15 0 21 -48 38 -88 30 -38 -7 -106 -64 -129 -109 -21 -40 -20
-139 2 -193 35 -88 156 -169 275 -187 75 -11 76 -12 63 -113 -12 -93 -53 -231
-84 -282 -12 -20 -38 -40 -74 -55 -81 -36 -189 -109 -218 -147 -14 -19 -53
-78 -86 -132 -34 -55 -83 -124 -109 -155 -52 -62 -197 -212 -204 -212 -3 0 -8
55 -11 123 -9 203 -34 248 -119 213 -14 -7 -17 4 -23 81 -14 195 -45 317 -110
423 -46 77 -66 90 -133 90 -40 0 -53 3 -49 13 22 58 31 146 28 272 -8 294 -6
340 16 475 12 74 31 161 42 192 29 85 60 251 67 362 5 85 14 125 65 279 32 98
69 192 81 207 13 15 35 48 50 73 32 54 170 175 249 217 58 31 258 84 334 89
11 0 61 -10 110 -24z m7445 -35 c13 -30 8 -60 -9 -60 -12 0 -34 67 -26 80 11
17 22 11 35 -20z m285 20 c9 -14 -81 -146 -117 -171 -27 -20 -31 -20 -46 -5
-18 18 -24 7 73 124 47 57 76 74 90 52z m-349 -65 c8 -20 24 -79 34 -132 11
-53 27 -119 35 -147 19 -64 71 -353 84 -466 5 -47 7 -109 4 -137 l-6 -53 -93
0 c-91 0 -95 -1 -106 -25 -15 -34 -24 -31 -39 12 -7 23 -39 65 -78 104 -36 37
-79 83 -94 104 -33 41 -64 57 -89 44 -39 -21 -28 -92 23 -145 19 -20 29 -39
26 -48 -6 -15 -65 -36 -102 -36 -26 0 -158 55 -209 87 -88 56 -146 60 -161 13
-6 -19 -39 -28 -48 -12 -8 12 11 238 29 341 29 171 57 265 145 488 l8 23 48
-30 c26 -17 53 -30 60 -30 18 0 17 -5 -11 -64 -38 -81 -40 -100 -11 -134 14
-17 25 -38 25 -47 0 -10 5 -34 11 -54 10 -33 8 -44 -20 -106 -37 -81 -28 -110
14 -46 31 46 40 50 55 21 14 -26 30 -26 37 0 9 34 23 18 46 -50 35 -103 48
-82 16 26 -32 107 -34 122 -18 177 8 30 15 37 34 37 20 0 25 7 31 35 3 19 1
49 -5 66 -13 36 -14 88 -3 106 4 6 34 16 68 23 33 6 96 29 140 50 43 21 85 39
92 39 7 1 20 -15 28 -34z m2397 -105 c28 -41 50 -79 50 -85 0 -11 -80 -135
-88 -135 -6 0 -53 152 -69 228 -9 40 -13 84 -10 98 l7 25 29 -28 c17 -15 53
-62 81 -103z m-1066 -7 c34 -20 63 -27 119 -31 89 -6 147 13 206 66 l38 34 -6
-33 c-4 -19 -17 -50 -30 -69 -67 -101 -124 -536 -104 -805 14 -200 39 -450 55
-550 8 -49 19 -144 25 -210 6 -66 20 -187 30 -270 43 -335 86 -918 105 -1425
15 -400 48 -1041 62 -1176 l6 -62 -32 -7 c-17 -4 -98 -2 -179 4 -81 7 -165 13
-187 14 l-40 2 -7 85 c-3 47 -7 258 -7 470 -1 212 -6 444 -11 515 -5 72 -14
414 -20 760 -16 1057 -30 1293 -100 1745 -19 122 -26 201 -56 595 -13 182 -11
270 12 425 l6 34 35 -42 c19 -23 55 -54 80 -69z m-1687 51 c0 -17 -22 -14 -28
4 -2 7 3 12 12 12 9 0 16 -7 16 -16z m896 2 c22 -17 25 -12 -61 -117 -78 -95
-166 -189 -177 -189 -5 0 -13 10 -17 23 -8 19 2 33 74 107 45 47 97 109 115
138 17 28 35 52 39 52 4 0 16 -6 27 -14z m-1280 -31 c-8 -21 -101 -45 -178
-45 -72 0 -81 7 -47 39 17 16 31 18 72 15 29 -3 75 1 102 9 50 14 62 9 51 -18z
m288 3 c-9 -31 -34 -68 -45 -68 -14 0 -11 28 6 60 19 36 50 42 39 8z m76 -69
c0 -16 -4 -29 -9 -29 -11 0 -31 55 -31 84 1 20 1 20 20 -3 11 -13 20 -36 20
-52z m3115 0 c-14 -35 -36 -101 -48 -145 -12 -45 -26 -83 -31 -85 -11 -5 -92
125 -101 161 -6 24 -1 28 55 55 33 16 80 41 102 57 23 15 44 26 46 24 2 -2 -9
-32 -23 -67z m694 -141 c61 -168 127 -382 180 -586 38 -146 39 -157 31 -239
-5 -47 -11 -87 -13 -89 -2 -2 -16 54 -31 124 -32 149 -36 165 -43 159 -5 -5
41 -345 87 -642 31 -200 46 -367 81 -885 35 -524 38 -656 18 -800 -26 -186
-41 -270 -48 -270 -6 0 -38 120 -76 295 -14 61 -32 133 -40 160 -43 148 -106
882 -105 1238 0 51 -4 87 -10 87 -15 0 -11 -547 4 -705 7 -71 12 -132 10 -133
-10 -14 -76 369 -154 893 -5 39 -19 121 -30 184 -18 99 -20 158 -20 470 0 297
3 382 20 511 24 188 69 384 85 369 2 -3 27 -66 54 -141z m-3259 111 c7 -11 10
-22 8 -23 -28 -21 -55 -36 -64 -36 -21 0 -21 34 -1 58 25 28 43 28 57 1z
m2635 -28 c20 -22 62 -50 97 -66 55 -25 76 -29 158 -29 83 0 103 3 154 27 70
33 90 34 81 8 -20 -64 -47 -271 -55 -426 -14 -275 1 -1369 25 -1785 3 -52 10
-207 15 -345 14 -352 26 -531 54 -755 45 -356 99 -604 148 -673 27 -38 17 -57
-30 -57 -31 0 -50 9 -91 41 -28 22 -51 47 -51 54 0 26 -104 329 -107 313 -2
-9 14 -83 36 -164 22 -81 39 -149 37 -152 -2 -2 -32 2 -66 9 -44 8 -119 10
-250 6 l-188 -6 -21 77 c-46 173 -115 550 -142 777 -11 94 -26 220 -34 280 -8
61 -19 162 -25 225 -12 136 -35 306 -55 410 -8 41 -21 113 -29 160 -8 47 -24
129 -35 183 -25 120 -26 147 -6 147 69 0 229 160 285 285 15 33 42 114 59 179
18 66 43 144 57 173 43 99 50 159 31 277 -9 58 -26 131 -36 163 -11 32 -25 88
-31 126 -11 70 -30 125 -83 241 l-31 68 18 69 c18 70 65 199 72 199 2 0 20
-17 39 -39z m-3291 -70 l-7 -26 -9 33 c-6 24 -5 38 4 50 12 14 13 13 16 -7 2
-13 0 -35 -4 -50z m86 28 c0 -5 -4 -9 -10 -9 -5 0 -10 7 -10 16 0 8 5 12 10 9
6 -3 10 -10 10 -16z m-629 -39 c47 -21 124 -26 176 -11 40 12 53 -3 27 -30
-23 -22 -122 -49 -180 -49 -44 0 -154 37 -154 51 0 4 5 20 12 34 14 32 57 34
119 5z m599 -52 c0 -42 -19 -83 -32 -70 -8 8 -8 26 1 68 13 58 31 59 31 2z
m3136 -307 c25 -67 26 -75 11 -86 -15 -10 -13 -15 19 -46 23 -22 41 -53 53
-94 50 -164 52 -304 6 -414 -14 -35 -42 -120 -60 -187 -19 -68 -43 -144 -53
-167 -19 -43 -130 -197 -141 -197 -3 0 -7 44 -8 98 -3 148 -45 413 -71 450
-12 16 -22 38 -22 48 0 9 -20 37 -45 61 -47 45 -52 53 -33 53 6 0 39 13 72 28
34 16 80 37 104 47 23 10 42 22 42 28 0 9 -82 3 -118 -10 -9 -3 5 17 32 45 28
28 47 54 44 58 -14 13 -53 -11 -115 -72 -48 -47 -64 -58 -60 -41 24 105 38
199 47 320 6 78 15 164 21 191 9 48 71 199 91 224 8 10 29 -21 84 -125 40 -76
85 -171 100 -212z m-2149 250 c-15 -79 -33 -104 -121 -169 -46 -34 -49 -35
-62 -17 -22 30 -16 52 19 74 41 25 95 82 137 144 17 27 34 47 36 44 2 -2 -2
-36 -9 -76z m-297 8 c15 -26 -4 -49 -61 -74 -35 -16 -42 -17 -50 -4 -17 26 -9
39 44 69 28 16 53 30 54 30 1 0 7 -9 13 -21z m-1355 -154 c64 -31 101 -31 171
0 31 14 58 25 60 25 13 0 1 -60 -15 -74 -40 -36 -209 -63 -226 -36 -3 5 -27
16 -53 23 -40 12 -47 18 -50 42 -6 51 36 58 113 20z m1450 -78 c7 -25 4 -29
-41 -49 -27 -12 -67 -22 -89 -22 -35 -1 -40 2 -43 22 -3 17 2 25 17 29 11 3
46 18 78 33 32 15 61 25 65 21 4 -3 10 -18 13 -34z m-2810 -12 c14 -13 25 -28
25 -33 0 -5 -20 -29 -44 -53 -48 -49 -69 -114 -61 -191 2 -24 7 -86 9 -138 18
-332 33 -450 57 -450 5 0 9 49 9 112 0 183 9 117 15 -112 3 -118 9 -231 12
-250 4 -19 5 -92 4 -162 -2 -84 0 -128 7 -128 14 0 19 30 32 175 18 203 50
425 68 474 16 42 20 46 52 46 31 0 36 -4 61 -54 15 -29 30 -71 33 -94 4 -22
18 -88 32 -146 41 -170 35 -355 -26 -751 -18 -114 -19 -166 -14 -585 4 -391 3
-476 -11 -570 -41 -279 -98 -469 -210 -705 -96 -202 -130 -297 -139 -390 -8
-74 -45 -152 -88 -183 -44 -32 -113 -25 -261 27 -110 40 -192 63 -311 90 l-29
7 6 107 c4 59 9 121 12 137 13 75 32 312 34 433 4 252 49 410 186 662 64 116
87 169 170 384 70 184 112 367 116 507 2 57 -4 80 -41 170 -93 225 -93 280 -6
487 25 57 27 76 32 240 6 234 9 263 34 311 15 31 26 41 44 41 27 0 25 5 51
-147 18 -109 24 -125 39 -120 13 5 14 115 2 488 -8 281 -4 331 35 370 25 25
35 24 64 -6z m-3370 -4 c27 -11 62 -22 76 -25 39 -8 68 -37 75 -73 8 -39 -6
-43 -37 -12 l-21 21 -26 -24 c-15 -14 -42 -35 -60 -47 -38 -27 -60 -66 -108
-198 -19 -54 -46 -109 -59 -123 -14 -15 -25 -35 -25 -46 0 -19 39 -85 77 -131
21 -26 146 -71 219 -79 70 -9 101 1 119 35 8 16 24 32 34 36 60 19 13 119 -81
178 -21 13 -28 26 -28 48 0 27 6 33 56 56 l56 25 38 -21 c20 -11 79 -30 129
-42 81 -18 94 -24 102 -47 6 -14 28 -41 50 -60 21 -19 53 -54 70 -79 31 -44
32 -52 27 -143 -1 -14 2 -45 6 -70 9 -56 -31 -196 -55 -193 -8 1 -27 5 -42 9
-25 6 -36 0 -86 -50 -56 -56 -58 -56 -85 -42 -36 18 -47 14 -131 -54 -93 -76
-105 -82 -142 -68 -25 9 -49 7 -129 -11 -172 -40 -178 -42 -184 -76 -5 -27 -9
-30 -45 -33 -22 -2 -65 2 -96 8 -53 11 -62 10 -136 -16 l-79 -28 -59 36 c-59
36 -76 41 -165 53 -61 9 -85 23 -167 99 -39 36 -75 66 -81 66 -5 0 -17 -11
-26 -25 -36 -55 -61 -61 -276 -71 -136 -6 -149 -5 -195 15 -59 26 -119 81
-146 133 -28 55 -23 58 10 6 42 -66 151 -126 151 -84 0 8 -15 23 -32 34 -92
57 -124 141 -74 195 30 32 49 34 111 7 45 -19 46 -20 31 -42 -22 -32 -20 -100
4 -130 25 -33 96 -44 146 -23 54 22 42 52 -14 35 -64 -18 -133 30 -116 81 7
23 8 23 16 -8 10 -37 17 -39 59 -18 25 14 36 14 67 3 20 -6 46 -20 58 -30 25
-22 54 -23 54 -2 0 28 -20 54 -42 54 -25 0 -84 35 -92 55 -8 23 13 18 46 -10
16 -14 40 -25 53 -25 12 0 36 -7 51 -15 16 -8 49 -15 73 -15 35 0 48 5 69 28
l26 28 70 -29 c48 -20 94 -32 142 -35 l71 -4 29 36 c25 31 35 36 72 36 115 0
229 55 258 126 8 18 26 39 41 46 38 18 39 45 9 134 -25 70 -25 79 -14 145 7
46 19 81 33 98 21 25 43 81 80 201 9 30 26 67 37 83 15 20 18 37 14 60 -5 28
-2 35 21 49 36 23 57 22 118 -1z m5528 -93 c93 -87 177 -189 193 -236 18 -50
20 -52 56 -52 60 0 70 -18 83 -151 4 -42 3 -69 -4 -73 -12 -8 -130 21 -149 36
-8 7 -26 7 -56 -2 -28 -8 -85 -11 -153 -8 -102 4 -112 6 -195 46 -88 42 -148
97 -148 134 0 26 14 23 90 -23 38 -22 75 -39 82 -37 7 3 -2 12 -21 22 -22 12
-30 21 -22 25 8 5 -4 14 -31 24 -42 16 -59 27 -147 94 -33 24 -49 31 -70 27
-21 -4 -30 -1 -35 11 -8 21 0 35 21 35 8 0 52 -20 97 -45 82 -44 171 -81 162
-67 -3 4 -38 25 -79 46 -75 38 -137 86 -137 106 0 28 40 16 173 -49 93 -46
156 -71 178 -71 19 0 60 12 93 28 l58 27 -36 35 c-44 42 -66 80 -66 115 0 32
30 34 63 3z m-2074 -44 c22 -28 47 -101 58 -166 6 -38 5 -38 -28 -38 -45 0
-77 -23 -99 -72 l-17 -39 -5 64 c-8 91 6 221 26 251 21 33 39 33 65 0z m1491
-26 c0 -43 -8 -54 -53 -73 -44 -18 -75 -19 -194 -3 l-93 12 0 43 c0 43 0 43
38 43 20 0 67 -7 103 -17 63 -16 67 -16 125 4 32 11 62 21 67 22 4 0 7 -14 7
-31z m1360 -3 c0 -55 -146 -123 -235 -110 -56 9 -63 35 -9 35 57 0 174 31 174
47 0 18 36 53 55 53 9 0 15 -9 15 -25z m-6206 -37 c15 -20 13 -23 -22 -46 -20
-14 -47 -34 -59 -45 -13 -11 -25 -18 -28 -15 -8 8 25 78 49 106 25 28 41 28
60 0z m145 -82 c15 -18 -10 -46 -69 -76 -40 -21 -80 -70 -80 -101 0 -9 25 -39
55 -68 30 -29 55 -57 55 -61 0 -5 -9 -14 -20 -20 -14 -8 -20 -21 -20 -45 0
-30 -3 -35 -24 -35 -36 0 -89 21 -116 46 -14 12 -37 27 -52 33 -27 10 -88 83
-88 106 0 7 19 25 41 40 23 15 70 53 104 85 61 57 105 85 155 101 38 11 46 10
59 -5z m4321 -19 c0 -25 -7 -39 -30 -55 -40 -30 -52 -28 -44 6 7 27 50 82 66
82 4 0 8 -15 8 -33z m538 -9 c39 -30 42 -35 36 -68 -4 -19 -8 -37 -10 -39 -2
-3 -24 17 -49 42 -29 30 -45 56 -45 72 0 33 18 32 68 -7z m-77 -23 c27 -56
164 -167 284 -227 80 -41 80 -41 200 -41 66 0 134 3 151 7 45 11 55 -8 64
-126 13 -147 54 -264 110 -312 32 -26 42 -30 104 -41 l39 -6 -6 -77 c-3 -42
-16 -132 -27 -200 -23 -135 -22 -141 32 -188 42 -37 361 -210 431 -233 l52
-18 8 -154 c4 -85 19 -323 33 -529 36 -529 42 -798 19 -986 -26 -218 -39 -207
-31 26 4 114 3 189 -3 180 -21 -36 -35 -218 -36 -472 l0 -267 -25 -26 c-44
-47 -113 -60 -330 -60 -142 0 -226 5 -310 19 -146 23 -244 22 -395 -5 -163
-30 -276 -30 -392 0 -51 13 -97 28 -102 35 -6 7 -12 106 -15 227 -17 778 -26
1048 -41 1234 -9 115 -19 212 -22 215 -6 5 3 -509 12 -670 8 -146 -7 -84 -54
215 -24 149 -53 326 -66 395 -13 69 -19 129 -15 134 7 7 41 5 85 -6 6 -2 12
13 15 32 4 28 10 36 30 38 14 2 29 7 33 12 18 16 28 155 36 465 7 247 14 354
31 470 12 83 26 156 30 164 4 8 10 -40 14 -105 4 -65 14 -180 22 -254 24 -222
31 -472 26 -901 -3 -264 -1 -413 6 -424 7 -13 12 38 16 181 4 109 11 298 16
419 9 232 -3 487 -35 705 -14 99 -22 181 -45 460 -13 151 -12 346 0 550 14
215 16 220 51 145z m-1500 -111 c28 -41 79 -173 79 -203 0 -16 -6 -18 -45 -13
-51 5 -75 -9 -95 -59 -26 -61 -33 -31 -28 120 3 120 7 154 22 175 22 34 34 30
67 -20z m1215 30 c47 -16 131 -16 167 0 15 7 17 3 17 -33 0 -38 -3 -43 -35
-57 -48 -20 -77 -18 -147 12 -44 18 -71 24 -95 19 -31 -6 -33 -5 -33 24 0 26
5 32 33 40 44 13 41 13 93 -5z m3274 -186 c0 -50 -4 -66 -22 -85 -28 -30 -58
-30 -58 0 1 63 42 147 72 147 4 0 8 -28 8 -62z m207 21 c42 -86 62 -142 73
-200 10 -59 10 -70 -5 -92 -18 -28 -51 -52 -93 -68 -27 -10 -27 -10 6 20 28
26 41 51 27 51 -2 0 -35 -16 -72 -35 -82 -42 -146 -58 -168 -41 -22 16 -9 45
24 52 50 10 158 56 187 79 51 41 18 38 -69 -5 -82 -41 -154 -56 -174 -37 -17
17 23 62 67 76 82 25 118 43 145 71 38 39 28 60 -12 26 -40 -34 -111 -66 -146
-66 l-29 0 26 31 c14 17 26 39 26 49 0 9 7 23 16 31 30 25 139 87 149 85 6 -2
15 -13 22 -27z m-3660 -42 c-15 -12 -50 -41 -79 -64 -54 -45 -68 -51 -68 -30
0 22 17 39 86 87 45 31 73 44 79 38 7 -6 0 -17 -18 -31z m204 -43 c24 -9 68
-16 97 -16 52 -1 52 -1 52 -33 0 -25 -5 -34 -22 -39 -39 -10 -92 -7 -148 10
-30 9 -69 14 -87 11 -32 -6 -33 -5 -33 28 0 27 5 35 28 43 39 15 64 14 113 -4z
m4766 -56 c-3 -7 -5 -2 -5 12 0 14 2 19 5 13 2 -7 2 -19 0 -25z m-7458 -22
c25 -26 394 -756 436 -863 36 -88 55 -118 66 -101 26 41 1 113 -146 411 -59
120 -105 221 -102 224 10 9 60 -36 94 -84 21 -29 50 -102 84 -207 29 -88 63
-185 75 -214 32 -74 50 -65 47 24 -2 86 7 56 33 -111 26 -166 24 -343 -5 -450
-34 -123 -46 -142 -279 -436 -122 -154 -151 -226 -232 -574 -39 -165 -90 -381
-115 -480 -24 -99 -69 -297 -100 -440 -30 -143 -63 -291 -71 -330 -31 -132
-340 -788 -426 -903 -70 -94 -169 -202 -198 -217 -34 -17 -118 -19 -172 -5
-31 9 -39 17 -48 48 -23 85 -65 430 -75 622 -4 63 -8 126 -11 140 -22 142 -10
509 22 652 14 63 22 79 58 113 58 55 92 102 171 235 155 261 242 461 329 753
105 355 104 448 -9 751 -43 115 -68 200 -76 257 -11 79 -11 92 10 175 33 132
62 188 135 258 35 33 76 81 91 106 48 75 75 100 111 100 49 0 84 -47 84 -113
0 -52 -39 -188 -87 -300 -25 -60 -28 -127 -5 -135 7 -2 21 16 34 45 11 26 31
57 42 68 26 24 116 272 116 318 0 50 -23 121 -89 282 -72 173 -84 238 -56 310
9 25 28 53 42 62 23 15 26 15 51 -4 15 -11 50 -62 78 -114 28 -52 85 -149 126
-214 42 -66 82 -134 91 -150 28 -56 58 -156 83 -278 13 -66 26 -123 29 -125
12 -12 16 10 16 89 0 154 -50 294 -164 461 -37 53 -91 143 -120 200 -29 57
-61 115 -70 130 -18 25 -17 27 3 41 27 19 67 7 99 -27z m7506 -291 c8 -77 17
-156 20 -175 3 -19 8 -101 11 -182 6 -134 6 -148 -9 -148 -10 0 -17 6 -17 13
0 6 -5 41 -10 77 -6 36 -15 186 -20 333 -5 147 -12 291 -14 320 -4 40 -2 35 9
-23 8 -41 21 -137 30 -215z m-4985 180 c0 -29 -6 -39 -39 -61 -22 -14 -60 -52
-85 -84 -46 -58 -105 -109 -107 -93 -2 12 1 44 6 79 4 24 12 34 32 39 15 3 58
40 96 81 38 41 76 74 83 74 9 0 14 -12 14 -35z m190 -45 c19 -6 56 -11 83 -11
44 -1 47 -3 47 -27 0 -52 -10 -57 -94 -42 -42 7 -96 10 -121 7 -44 -6 -45 -6
-45 20 0 56 50 76 130 53z m4338 -170 c101 -739 217 -1352 337 -1776 42 -147
42 -146 -7 -354 -27 -110 -39 -143 -67 -180 -18 -25 -43 -64 -54 -87 -12 -24
-24 -43 -29 -43 -22 0 -89 334 -117 590 -25 221 -37 430 -57 945 -8 226 -19
523 -24 660 -5 138 -12 288 -16 335 -11 139 11 82 34 -90z m-971 76 c13 -20
32 -256 42 -517 9 -208 17 -298 45 -480 51 -322 63 -432 91 -824 14 -192 32
-417 39 -500 25 -263 27 -392 11 -755 -8 -195 -15 -417 -15 -493 l0 -138 -32
3 -33 3 5 185 c3 102 5 370 5 595 -1 328 -4 432 -17 520 -9 61 -19 162 -23
225 -3 63 -14 185 -25 270 -10 85 -26 220 -35 300 -23 207 -69 483 -116 688
-40 171 -41 181 -35 302 3 69 8 155 12 192 4 42 0 112 -10 185 -9 65 -17 145
-18 177 -3 53 0 61 19 71 26 13 80 8 90 -9z m-1657 -131 c0 -19 -2 -35 -4 -35
-8 0 -101 51 -110 61 -6 5 13 9 52 9 l62 0 0 -35z m-1877 18 c3 -5 8 -33 12
-64 l7 -57 -38 -12 c-26 -9 -74 -47 -145 -117 -117 -113 -146 -127 -135 -65 3
20 6 44 6 53 0 8 17 25 38 37 44 25 110 92 141 144 36 61 99 105 114 81z m220
-19 c38 -13 47 -20 47 -39 0 -52 -7 -56 -63 -33 -29 11 -73 20 -99 21 -37 1
-49 5 -54 19 -3 11 0 25 6 33 17 20 104 19 163 -1z m-5691 -190 c17 -9 92 -29
167 -45 75 -15 164 -36 198 -46 60 -16 63 -16 82 1 17 15 30 17 73 12 65 -9
229 -9 263 0 18 4 28 15 32 35 5 25 10 29 38 29 l32 0 6 -102 c3 -57 13 -128
22 -158 25 -82 126 -290 142 -290 19 0 16 31 -7 91 -12 28 -19 54 -16 56 11
11 74 -38 91 -70 16 -30 17 -40 6 -83 -18 -72 -44 -108 -135 -185 -100 -86
-229 -152 -341 -174 -178 -36 -557 -30 -795 11 -86 15 -397 94 -545 139 -101
30 -165 71 -165 103 0 28 44 93 99 147 50 48 53 38 6 -25 -38 -51 -44 -77 -20
-86 53 -21 195 179 262 369 19 54 27 102 32 191 7 139 -5 128 151 140 89 7
158 29 175 56 3 5 30 -15 60 -45 30 -30 69 -62 87 -71z m6989 81 c41 -14 131
-53 202 -87 l127 -62 0 -61 c0 -34 -2 -64 -6 -67 -3 -3 -28 7 -57 23 -29 16
-88 41 -132 55 -44 15 -97 38 -118 51 -20 13 -62 34 -92 48 -48 21 -55 28 -55
52 1 81 15 87 131 48z m-1320 -147 c31 -17 39 -27 39 -51 0 -26 -3 -29 -22
-23 -13 4 -47 9 -75 13 l-53 6 0 38 c0 38 1 39 36 39 20 0 54 -10 75 -22z
m-151 -78 c0 -24 -15 -44 -81 -107 -87 -84 -240 -193 -272 -193 -15 0 -18 5
-13 23 3 12 6 27 6 34 0 6 26 26 57 44 32 18 104 77 160 131 109 105 143 121
143 68z m-3758 -46 c64 -44 125 -169 139 -284 42 -338 -84 -953 -323 -1579
-85 -223 -106 -301 -65 -239 31 46 193 408 245 548 77 207 181 552 197 654 7
50 22 145 32 211 12 81 18 173 17 285 0 187 -11 237 -69 334 -19 32 -35 61
-35 63 0 11 61 -7 124 -37 36 -17 91 -54 121 -82 l55 -50 0 -97 c0 -129 15
-219 46 -294 35 -80 34 -120 -4 -297 -17 -80 -45 -217 -62 -305 -76 -389 -222
-880 -320 -1074 -30 -60 -73 -103 -166 -167 l-51 -36 -64 13 c-55 10 -69 18
-98 51 -18 21 -59 52 -90 68 -42 21 -65 41 -89 77 -17 26 -45 64 -62 83 l-30
36 74 149 c173 350 271 662 335 1065 63 397 75 613 37 692 -21 45 -85 109
-148 150 -27 16 -48 34 -48 39 0 26 112 59 192 56 56 -2 74 -8 110 -33z
m-3418 -62 c8 -15 19 -57 26 -92 6 -36 17 -94 25 -130 17 -83 37 -282 34 -357
-1 -32 -1 -66 0 -75 2 -26 44 -32 86 -13 19 10 38 15 41 12 10 -10 5 -185 -6
-225 -5 -20 -41 -78 -78 -128 -92 -123 -152 -234 -172 -319 l-16 -70 -17 90
c-23 121 -64 411 -72 510 -4 44 -9 91 -12 105 -2 14 -7 165 -10 337 l-6 311
51 22 c28 12 57 28 63 36 19 23 47 16 63 -14z m3212 -104 c26 -28 47 -62 54
-89 43 -155 -62 -799 -197 -1214 -55 -171 -217 -563 -242 -588 -5 -5 -81 78
-169 185 -340 411 -622 636 -922 735 -86 28 -204 44 -237 32 -46 -17 -24 -36
85 -74 211 -73 413 -185 587 -326 142 -115 255 -230 428 -439 94 -113 199
-236 235 -273 37 -38 61 -72 56 -76 -5 -5 -34 -18 -64 -29 -52 -19 -371 -158
-452 -198 -36 -17 -52 -44 -25 -44 6 0 75 25 152 56 77 30 199 75 272 100 125
43 135 45 187 35 53 -10 105 -31 134 -54 10 -8 -4 -18 -57 -43 -38 -18 -113
-62 -166 -99 -53 -37 -126 -84 -162 -104 -66 -36 -90 -61 -59 -61 22 0 154 67
287 146 131 78 236 110 309 95 25 -5 57 -7 73 -4 32 6 31 10 12 -92 -15 -76
-22 -400 -10 -480 2 -16 13 -127 25 -245 31 -330 42 -419 71 -565 47 -238 123
-451 187 -526 19 -22 32 -42 30 -45 -11 -10 -148 27 -228 61 -77 33 -615 304
-820 413 -159 85 -215 115 -260 140 -83 48 -221 143 -390 271 -92 69 -236 169
-320 221 -375 234 -466 304 -756 581 -88 85 -197 187 -242 227 -44 39 -100 98
-124 130 -44 57 -78 78 -78 48 0 -9 23 -57 51 -107 45 -80 76 -115 258 -298
296 -295 492 -458 699 -583 159 -95 396 -256 512 -349 63 -51 150 -116 192
-146 43 -30 80 -58 83 -62 9 -15 -54 -189 -100 -278 -93 -182 -238 -418 -330
-537 -14 -18 -18 -16 -82 44 -269 250 -622 674 -856 1027 -223 336 -476 819
-529 1006 -72 259 -119 518 -133 727 -3 47 -10 144 -15 217 -12 190 6 303 74
456 24 55 224 341 361 517 45 58 96 127 114 153 l32 48 37 -32 c55 -49 117
-73 362 -139 123 -34 227 -63 230 -65 8 -5 236 -44 330 -56 47 -6 182 -12 300
-14 356 -7 493 23 650 138 83 62 139 116 165 161 78 135 42 257 -97 327 -41
21 -58 35 -58 49 0 33 53 39 314 36 l189 -3 43 -45z m8923 -55 l-2 -98 -8 80
c-7 73 -5 115 7 115 2 0 3 -44 3 -97z m-4801 67 c21 -13 32 -27 32 -43 0 -34
-6 -36 -58 -18 -53 18 -62 26 -62 59 0 17 6 22 28 22 15 0 42 -9 60 -20z
m-116 -75 c4 -15 5 -32 2 -36 -2 -4 -34 -17 -70 -29 -70 -24 -192 -101 -286
-182 l-58 -49 0 38 c0 38 0 38 94 86 51 26 124 73 162 105 139 116 142 117
156 67z m3567 -95 c14 -69 51 -346 50 -374 0 -20 0 -21 -8 -1 -5 11 -12 45
-15 75 -4 30 -16 114 -27 185 -11 72 -22 146 -24 165 -8 54 11 15 24 -50z
m-3441 -80 c13 -12 21 -29 18 -37 -3 -8 -6 -26 -6 -39 0 -36 -16 -29 -45 19
-30 53 -35 103 -7 88 9 -5 27 -19 40 -31z m-90 -152 l3 -48 -63 0 c-86 0 -160
-37 -268 -133 -47 -42 -97 -83 -112 -92 l-28 -16 0 50 c0 48 2 52 40 76 22 14
89 61 148 105 118 88 165 110 232 107 l45 -2 3 -47z m-3232 -407 c10 -93 7
-168 -7 -241 -15 -78 -83 -286 -134 -411 -50 -122 -159 -344 -174 -354 -6 -3
6 38 25 92 45 126 174 557 207 693 14 58 31 141 37 185 22 163 32 170 46 36z
m6874 -258 c16 -132 32 -247 35 -254 2 -8 18 -92 35 -187 26 -150 104 -474
209 -872 37 -138 38 -155 9 -174 -27 -16 -235 -52 -245 -42 -4 3 -2 116 4 249
12 262 4 489 -23 626 -8 42 -21 198 -29 346 -8 149 -19 328 -25 399 -11 149
-12 161 -5 154 3 -2 18 -113 35 -245z m-6002 -15 c20 -20 12 -42 -34 -82 -49
-43 -57 -33 -27 32 28 63 39 72 61 50z m104 -132 c4 -6 -12 -31 -36 -56 -23
-25 -62 -74 -85 -110 -70 -104 -173 -241 -178 -236 -2 2 10 64 27 138 32 130
33 134 81 180 85 83 167 119 191 84z m138 -81 c0 -7 -7 -32 -15 -56 -26 -72
-44 -212 -50 -378 -8 -220 -16 -361 -30 -482 -11 -100 -26 -440 -21 -482 10
-87 37 -165 72 -206 19 -21 34 -43 34 -48 0 -6 -22 -7 -53 -2 -71 9 -231 91
-382 194 -66 45 -141 94 -167 109 -37 20 -48 33 -48 51 0 14 15 91 34 172 19
82 51 225 71 318 19 94 48 221 64 283 l29 112 113 124 c63 68 147 160 188 206
72 79 121 113 148 103 7 -3 13 -11 13 -18z m6721 -626 c-5 -13 -10 -19 -10
-12 -1 15 10 45 15 40 3 -2 0 -15 -5 -28z m-283 -41 c58 -15 72 -38 72 -118 0
-51 6 -78 30 -128 17 -35 30 -67 30 -71 0 -3 -30 -12 -67 -19 -45 -8 -83 -23
-112 -43 -34 -24 -46 -28 -52 -17 -17 26 -21 79 -11 152 9 67 2 201 -13 243
-2 6 -1 13 2 16 6 7 64 -1 121 -15z m210 -187 c-11 -31 -24 -60 -28 -65 -9
-10 -30 56 -30 95 0 34 3 36 44 31 l35 -4 -21 -57z m-77 -203 c-6 -16 -22 -28
-49 -36 -23 -7 -53 -27 -72 -48 -28 -33 -34 -35 -56 -25 -13 6 -24 17 -24 25
0 18 63 74 99 88 26 10 104 26 109 23 1 -1 -2 -13 -7 -27z m-3556 -114 c-1 -5
-5 -39 -9 -76 -11 -90 -2 -136 29 -148 38 -14 55 -58 36 -89 -8 -12 -15 -9
-43 14 -42 36 -142 83 -190 91 -34 6 -39 11 -49 48 -6 22 -12 61 -13 85 -1 42
0 44 37 57 37 13 171 33 192 29 6 -1 10 -6 10 -11z m448 -41 c92 -5 107 -8
103 -22 -12 -39 -26 -109 -28 -140 l-3 -34 -72 2 c-55 2 -83 -3 -119 -18 -26
-12 -48 -21 -50 -21 -10 0 -3 54 11 87 11 26 13 53 9 101 l-7 65 24 -7 c13 -3
72 -9 132 -13z m1070 -144 c4 -24 11 -61 16 -81 4 -21 7 -38 4 -38 -2 0 -37
23 -78 52 -62 43 -83 52 -129 56 -53 4 -56 6 -56 32 l0 28 118 -2 117 -2 8
-45z m730 9 c76 -14 83 -21 88 -88 l4 -45 -80 -6 c-44 -4 -90 -10 -102 -14
-23 -7 -23 -6 -23 85 0 91 0 92 23 86 12 -3 53 -12 90 -18z m-2338 -111 c62
-30 105 -62 94 -70 -2 -2 -20 -14 -39 -27 -19 -13 -47 -35 -63 -49 l-27 -25
-28 22 c-44 36 -107 62 -162 67 -29 2 -55 7 -59 10 -3 4 17 29 46 56 50 47 54
49 110 49 46 0 74 -7 128 -33z m1501 18 c34 -14 164 -130 164 -146 0 -4 -10
-20 -22 -34 l-23 -26 -80 45 c-87 50 -116 61 -188 71 l-48 6 19 31 c41 64 106
83 178 53z m-878 -34 c20 -10 45 -28 54 -38 17 -19 15 -19 -95 -20 -82 0 -124
-4 -157 -17 -25 -10 -56 -20 -69 -23 -22 -5 -22 -4 -11 18 45 84 189 125 278
80z m1840 -86 c23 -29 47 -84 40 -91 -3 -2 -29 1 -58 7 -69 15 -152 6 -197
-21 l-36 -21 7 32 c3 17 6 42 6 55 0 18 10 27 53 43 29 11 77 20 109 20 49 1
59 -2 76 -24z m-1758 -49 c47 -14 61 -35 36 -55 -26 -21 -116 -41 -241 -51
-172 -15 -225 5 -143 52 103 60 252 83 348 54z m-930 -26 c19 -6 46 -20 60
-31 l25 -21 -23 -18 c-32 -27 -98 -34 -183 -21 -120 19 -131 26 -84 57 62 41
138 53 205 34z m1696 -51 c76 -38 130 -82 121 -97 -19 -29 -289 -49 -402 -29
-61 10 -70 15 -73 35 -4 28 11 47 63 80 96 61 187 64 291 11z m1062 -55 c63
-31 134 -110 111 -125 -28 -17 -83 -22 -220 -17 -155 6 -189 18 -189 65 0 30
16 45 85 78 69 34 144 34 213 -1z m-6263 -61 c-2 -38 -7 -185 -10 -328 -3
-143 -12 -325 -20 -405 -7 -80 -17 -230 -20 -335 -4 -104 -8 -201 -10 -215 -2
-14 -6 -79 -10 -145 -3 -66 -8 -136 -10 -155 -12 -108 -27 -372 -40 -685 -8
-190 -41 -603 -50 -613 -7 -8 -418 142 -590 216 -170 72 -438 200 -484 231
-10 7 6 32 71 113 105 130 166 219 253 373 37 66 103 174 145 240 114 177 167
282 189 370 14 56 28 86 50 109 74 76 124 244 160 535 10 74 16 90 60 156 42
64 254 480 291 573 20 51 31 37 25 -35z m-1602 -917 c716 -354 766 -375 885
-376 36 0 42 -3 42 -22 0 -28 -105 -227 -172 -326 -28 -42 -96 -151 -149 -242
-54 -91 -117 -195 -141 -232 -51 -79 -198 -257 -214 -257 -30 -2 -426 249
-419 266 2 6 92 151 199 320 199 315 215 343 199 343 -22 0 -138 -157 -381
-517 -41 -62 -79 -113 -83 -113 -19 0 -469 343 -469 357 0 3 34 48 75 98 85
105 105 138 105 178 0 50 -27 31 -145 -103 -53 -60 -101 -110 -106 -110 -6 0
-31 19 -56 43 l-45 43 60 84 c80 111 228 361 290 486 27 56 59 142 72 193 12
50 26 91 32 91 5 0 194 -92 421 -204z"/>
<path d="M9361 9834 c-40 -28 -71 -34 -51 -9 26 32 0 25 -55 -14 -32 -23 -67
-41 -78 -41 -19 0 -20 1 -2 20 23 26 5 26 -37 0 -52 -32 -91 -27 -127 17 -33
40 -37 35 -20 -31 8 -34 7 -56 -10 -118 -15 -60 -17 -85 -10 -119 14 -60 52
-123 92 -150 17 -12 39 -31 47 -41 16 -19 16 -19 42 1 36 29 82 27 111 -4 22
-25 24 -25 60 -10 73 31 127 137 127 253 0 66 9 92 31 92 22 0 25 16 5 27 -21
12 -46 64 -46 96 0 16 -4 26 -10 22 -15 -9 -12 -62 5 -96 10 -19 13 -35 7 -47
-5 -9 -12 -53 -15 -98 -3 -44 -11 -93 -17 -110 -16 -42 -57 -93 -93 -114 -31
-19 -31 -19 -53 5 -31 34 -69 41 -111 21 -34 -16 -35 -16 -73 14 -57 45 -94
126 -88 193 3 28 10 64 16 80 11 25 16 27 64 27 60 0 55 16 -6 22 -22 2 -41 9
-44 16 -3 9 20 12 83 12 47 0 107 6 133 14 26 8 63 17 83 21 36 5 89 44 89 65
0 15 -11 11 -49 -16z"/>
<path d="M9284 9695 c-17 -13 -12 -14 56 -14 68 0 73 1 56 14 -11 8 -36 15
-56 15 -20 0 -45 -7 -56 -15z"/>
<path d="M9166 9654 c-9 -25 -7 -64 4 -64 6 0 10 18 10 40 0 43 -4 50 -14 24z"/>
<path d="M9040 9646 c0 -17 24 -38 33 -29 15 15 6 43 -13 43 -11 0 -20 -6 -20
-14z"/>
<path d="M9281 9626 c-12 -14 -5 -26 16 -26 15 0 18 26 4 34 -5 3 -14 0 -20
-8z"/>
<path d="M9125 9530 c-9 -14 22 -43 36 -34 5 3 24 1 44 -5 39 -10 75 -4 75 13
0 7 -25 12 -66 13 -39 1 -70 6 -74 13 -6 9 -9 9 -15 0z"/>
<path d="M9152 9430 c32 -19 102 -23 123 -6 19 14 14 15 -60 15 -57 0 -75 -2
-63 -9z"/>
<path d="M9791 9594 c-19 -8 -32 -16 -30 -18 2 -3 33 -2 68 1 57 5 62 8 46 20
-24 16 -41 16 -84 -3z"/>
<path d="M9998 9594 c-17 -16 -6 -24 34 -24 26 0 57 -9 85 -25 52 -31 57 -17
8 21 -35 26 -112 44 -127 28z"/>
<path d="M9802 9508 c2 -12 11 -24 21 -26 14 -3 18 1 15 20 -2 12 -11 24 -21
26 -14 3 -18 -1 -15 -20z"/>
<path d="M10052 9483 c5 -26 38 -29 38 -4 0 15 -6 21 -21 21 -14 0 -19 -5 -17
-17z"/>
<path d="M8230 9390 c0 -8 -3 -25 -6 -37 -4 -13 -2 -23 4 -23 15 0 25 51 13
63 -8 8 -11 7 -11 -3z"/>
<path d="M8287 9393 c-4 -6 2 -22 13 -34 14 -18 19 -20 20 -8 0 22 -25 54 -33
42z"/>
<path d="M8114 9365 c-9 -23 15 -48 32 -34 10 8 11 16 3 30 -12 23 -28 25 -35
4z"/>
<path d="M8377 9374 c-3 -4 -2 -15 4 -26 8 -15 13 -17 24 -8 8 6 11 18 8 26
-5 14 -25 19 -36 8z"/>
<path d="M11470 9120 c-25 -16 -3 -23 75 -26 75 -2 93 6 56 26 -24 12 -111 13
-131 0z"/>
<path d="M11516 9071 c-3 -4 1 -17 9 -27 11 -15 16 -16 26 -7 10 10 9 15 -1
28 -14 17 -26 19 -34 6z"/>
<path d="M1666 8381 c-23 -26 -64 -218 -69 -331 -4 -82 20 -311 34 -324 14
-12 48 -14 63 -3 16 12 17 17 1 107 -27 154 -7 327 51 441 30 59 31 104 5 119
-30 16 -66 12 -85 -9z"/>
<path d="M1895 8170 c-38 -9 -77 -20 -86 -24 -39 -18 -89 -156 -89 -244 1 -34
27 -82 45 -82 8 0 190 156 237 203 15 16 28 39 28 53 0 33 15 30 29 -5 10 -23
9 -38 -9 -87 -38 -104 -39 -111 -25 -131 18 -24 26 -14 59 69 40 103 33 158
-29 210 -24 20 -42 23 -47 6 -7 -20 -37 -1 -31 20 7 29 -5 31 -82 12z m9 -121
c-17 -19 -74 -27 -74 -11 0 11 52 58 70 64 22 7 25 -30 4 -53z m-46 -75 c22
-6 21 -8 -15 -40 -46 -41 -53 -42 -47 -6 9 55 14 58 62 46z"/>
<path d="M2534 8075 c-19 -19 -24 -34 -22 -58 5 -57 68 -44 68 14 0 18 7 32
20 39 29 16 24 30 -10 30 -20 0 -40 -9 -56 -25z"/>
</g>
</svg>
