<?xml version="1.0" standalone="no"?>
<!DOCTYPE svg PUBLIC "-//W3C//DTD SVG 20010904//EN"
 "http://www.w3.org/TR/2001/REC-SVG-20010904/DTD/svg10.dtd">
<svg version="1.0" xmlns="http://www.w3.org/2000/svg"
 width="1249.000000pt" height="1249.000000pt" viewBox="0 0 1249.000000 1249.000000"
 preserveAspectRatio="xMidYMid meet">
<metadata>
Created by potrace 1.16, written by Peter Selinger 2001-2019
</metadata>
<g transform="translate(0.000000,1249.000000) scale(0.100000,-0.100000)"
fill="#000000" stroke="none">
<path d="M0 6245 l0 -6245 6245 0 6245 0 0 6245 0 6245 -6245 0 -6245 0 0
-6245z m6585 6149 c117 -5 140 -7 305 -24 972 -101 1919 -440 2730 -975 1550
-1024 2553 -2666 2745 -4495 28 -264 30 -319 29 -675 -1 -373 -12 -547 -54
-840 -84 -580 -238 -1119 -468 -1635 -108 -245 -326 -655 -342 -645 -14 9 -44
272 -41 355 7 176 -13 369 -43 416 -10 14 -30 33 -45 42 -15 8 -43 43 -62 76
-20 36 -77 104 -139 166 -152 153 -223 184 -488 212 -185 19 -277 -4 -499
-129 -144 -82 -200 -136 -272 -266 -58 -106 -85 -181 -95 -269 -7 -51 -10 -57
-37 -67 -51 -18 -58 -72 -19 -151 10 -19 21 -55 25 -80 10 -65 38 -124 74
-156 20 -18 31 -37 31 -55 0 -47 30 -190 65 -309 39 -134 42 -153 50 -280 7
-120 12 -144 41 -201 35 -71 102 -119 219 -159 57 -19 76 -50 59 -97 -7 -22
-26 -34 -101 -64 -124 -50 -419 -196 -521 -257 l-82 -50 -28 22 c-49 41 -515
328 -588 363 l-72 34 38 72 c51 95 71 170 72 264 1 158 -18 295 -62 448 -41
144 -42 155 -26 315 19 192 14 343 -13 445 -69 261 -223 421 -414 431 -58 3
-90 11 -148 38 -41 19 -97 40 -123 47 l-49 12 8 326 c8 366 6 379 -57 503
l-39 77 7 133 c3 73 10 137 13 141 4 4 30 10 57 13 44 5 129 25 168 40 9 3 17
-3 21 -18 21 -67 49 -110 84 -127 67 -34 93 -34 188 -2 48 17 158 51 245 75
255 73 329 123 382 258 69 179 101 363 100 593 l0 180 -53 159 c-55 164 -119
300 -256 541 -97 172 -178 348 -260 565 -94 248 -159 395 -323 730 -138 279
-308 457 -499 521 -55 18 -79 33 -128 82 -87 86 -179 144 -279 177 -22 7 -68
32 -101 55 -34 23 -83 48 -108 56 -37 10 -46 17 -41 31 3 9 -9 58 -25 108 -17
50 -31 107 -31 125 0 33 2 34 29 29 23 -5 32 -2 41 17 15 27 7 116 -16 185
-10 31 -14 63 -10 91 5 42 4 44 -34 68 -43 27 -109 105 -143 169 -17 33 -21
54 -18 111 12 244 1 413 -35 570 -55 233 -97 336 -211 509 -131 200 -275 304
-484 346 -139 29 -281 36 -361 20 -36 -8 -135 -14 -233 -15 -128 -1 -185 -6
-230 -19 -72 -20 -220 -107 -292 -171 -97 -86 -237 -324 -278 -471 -10 -38
-18 -119 -21 -224 -3 -91 -14 -217 -25 -282 -22 -134 -24 -194 -8 -298 11 -68
10 -83 -12 -160 -31 -115 -31 -162 2 -197 24 -25 26 -35 24 -98 -2 -38 -8 -83
-14 -98 -16 -42 -14 -51 24 -97 l35 -41 -17 -37 c-30 -70 -29 -90 10 -130 52
-55 57 -71 57 -185 0 -129 3 -124 -174 -257 -72 -54 -197 -147 -277 -208 -193
-145 -404 -343 -495 -463 -72 -95 -72 -95 -173 -141 -118 -55 -181 -114 -231
-214 -47 -95 -58 -169 -36 -245 17 -63 56 -138 81 -159 8 -7 15 -20 15 -29 0
-25 -72 -206 -140 -350 -65 -141 -120 -330 -120 -418 0 -42 -10 -77 -44 -156
-60 -139 -113 -307 -131 -419 -19 -115 -27 -391 -14 -478 13 -89 75 -275 110
-331 35 -56 132 -149 179 -174 94 -49 274 -22 470 69 113 53 227 96 253 96 18
0 57 44 94 105 30 51 82 173 84 197 0 7 5 0 9 -16 5 -15 10 -197 11 -403 l2
-375 -77 -154 c-83 -166 -139 -324 -176 -497 -20 -89 -27 -106 -39 -101 -102
43 -164 57 -262 62 -288 12 -490 -82 -630 -295 -91 -139 -159 -357 -164 -524
-2 -73 -6 -91 -28 -125 -43 -65 -44 -104 -2 -231 35 -111 36 -114 34 -270 -1
-176 -10 -261 -40 -376 -10 -42 -17 -88 -14 -100 6 -21 -4 -29 -85 -75 -50
-29 -92 -52 -95 -52 -8 0 -131 104 -205 174 -42 39 -100 92 -129 118 -29 25
-51 53 -49 61 1 8 23 30 48 49 59 44 87 97 120 227 15 58 41 140 58 181 38 93
46 129 73 317 20 143 39 249 60 325 7 29 16 39 42 47 49 16 91 66 134 156 30
64 38 94 41 150 3 62 1 74 -22 105 -36 50 -51 83 -81 185 -66 220 -193 394
-344 469 -197 99 -422 149 -565 126 -98 -16 -173 -47 -217 -91 -35 -35 -44
-39 -89 -39 -100 0 -197 -72 -274 -204 -27 -46 -49 -71 -74 -83 -51 -26 -68
-55 -97 -167 -35 -136 -34 -210 4 -266 27 -40 28 -46 16 -70 -19 -37 -36 -172
-34 -271 3 -117 -7 -175 -53 -307 -43 -125 -50 -197 -24 -268 l14 -42 -38 -37
c-29 -28 -52 -40 -96 -50 -33 -7 -70 -15 -84 -19 -28 -7 -23 -13 -135 170
-311 507 -551 1076 -705 1669 -75 288 -144 688 -165 955 -4 41 -9 89 -12 105
-9 56 -12 779 -3 895 9 110 28 297 35 350 2 14 11 77 20 140 165 1158 698
2292 1496 3185 951 1064 2244 1770 3634 1984 234 36 495 61 700 68 110 3 202
7 204 10 5 3 168 -2 396 -13z m-221 -750 c108 -28 216 -85 290 -155 80 -74
232 -272 275 -356 40 -79 44 -100 97 -413 44 -262 46 -282 41 -417 -4 -114 -3
-143 8 -147 8 -3 26 -31 41 -63 16 -33 51 -80 81 -110 29 -29 53 -60 53 -69 0
-9 10 -33 22 -52 24 -39 16 -37 -48 15 -41 33 -68 41 -79 23 -3 -5 10 -41 30
-79 29 -59 36 -84 40 -155 3 -47 12 -106 19 -131 13 -40 7 -61 -9 -35 -9 15
-32 12 -38 -4 -3 -8 3 -37 14 -65 29 -77 26 -85 -18 -58 -29 17 -54 22 -104
22 -57 0 -70 -4 -104 -29 -40 -31 -67 -34 -132 -17 -67 18 -75 35 -81 164 -4
101 -2 117 17 152 11 22 21 50 21 62 0 30 85 284 115 343 49 96 56 143 53 346
-2 104 -7 195 -12 203 -5 7 -45 30 -91 51 -56 26 -102 56 -146 98 -61 57 -138
166 -126 178 3 3 30 1 59 -5 53 -11 88 -7 88 9 0 5 -25 14 -55 20 -80 17 -174
68 -305 165 -135 102 -196 135 -245 135 -38 0 -85 -35 -85 -65 0 -20 5 -19 38
5 26 19 30 20 72 5 25 -9 88 -47 140 -85 52 -38 122 -86 156 -107 48 -29 64
-46 78 -81 21 -48 86 -141 149 -209 40 -44 42 -48 42 -112 0 -61 2 -66 27 -78
23 -12 25 -17 18 -41 -16 -54 -52 -138 -85 -198 -31 -56 -33 -62 -18 -77 15
-14 14 -18 -11 -49 -15 -18 -37 -49 -50 -68 -29 -46 -74 -51 -144 -16 -44 22
-51 23 -64 10 -13 -14 -21 -14 -66 1 -49 16 -82 15 -82 -2 0 -5 30 -18 66 -31
51 -18 69 -20 80 -11 11 9 25 7 65 -11 80 -34 146 -12 175 56 8 18 25 41 40
51 62 43 75 58 69 76 -4 9 -16 17 -26 17 -26 0 -25 5 16 82 44 83 75 171 75
215 0 29 -3 33 -25 33 -22 0 -25 4 -25 40 0 22 3 40 7 40 22 0 113 -45 113
-56 0 -7 -13 -50 -29 -96 -17 -45 -27 -85 -24 -88 8 -8 51 51 70 97 18 42 33
56 33 29 0 -7 -18 -52 -40 -99 -50 -107 -62 -174 -65 -362 -2 -142 -3 -155
-35 -245 -18 -52 -35 -97 -36 -99 -2 -2 -12 3 -22 12 -40 37 -54 15 -79 -123
-17 -100 -22 -109 -40 -84 -20 27 -40 10 -67 -56 -27 -65 -63 -125 -107 -174
-35 -40 -49 -45 -49 -18 0 10 -3 21 -6 25 -13 12 -63 -16 -93 -54 -38 -47 -54
-49 -71 -10 -6 16 -20 37 -31 46 -24 23 -67 13 -73 -18 -14 -66 -17 -77 -24
-77 -5 0 -32 20 -62 46 -29 25 -59 43 -66 40 -8 -4 -21 -9 -30 -12 -19 -8 -92
67 -145 151 -61 95 -65 98 -95 68 -16 -16 -18 -15 -39 11 -13 16 -33 51 -46
78 -22 47 -25 49 -54 44 -29 -6 -33 -3 -52 37 -26 54 -81 248 -98 346 -10 53
-19 79 -34 90 -11 9 -25 37 -31 64 -14 64 -42 118 -87 168 -28 30 -33 43 -24
52 8 8 24 -2 65 -46 35 -37 60 -55 69 -51 15 6 67 -58 67 -82 0 -7 16 -36 35
-65 25 -36 33 -55 25 -63 -34 -34 19 -80 117 -102 104 -23 172 -16 229 24 29
21 56 32 79 32 30 0 35 3 35 24 0 13 -6 36 -14 51 -14 27 -12 55 4 55 12 0 63
71 56 78 -4 3 -27 -14 -51 -38 -35 -34 -45 -52 -45 -76 0 -35 -39 -72 -108
-101 -37 -15 -137 -14 -219 3 -36 7 -67 34 -40 34 32 0 26 31 -13 74 -21 23
-49 64 -60 92 -12 27 -33 64 -47 82 -26 34 -26 33 -6 125 4 21 -1 37 -16 58
-12 16 -19 35 -15 42 21 34 71 87 82 87 8 0 51 18 95 40 78 38 88 40 202 46
133 7 158 15 153 47 -5 33 -45 49 -108 43 -67 -7 -254 -68 -293 -97 l-28 -20
24 48 c24 47 39 91 51 144 3 14 27 49 54 77 26 27 60 75 75 105 29 59 73 103
115 114 14 3 51 1 82 -6 30 -7 66 -15 80 -18 l25 -6 -20 23 c-33 37 -89 60
-149 60 -68 0 -100 -24 -150 -113 -40 -72 -123 -156 -183 -187 -23 -12 -83
-31 -133 -43 -49 -12 -89 -26 -87 -32 5 -13 150 -6 205 10 42 13 43 13 36 -8
-30 -98 -130 -243 -214 -312 -39 -32 -70 -61 -70 -66 0 -15 32 -10 79 11 23
11 47 18 51 15 18 -11 32 -74 21 -94 -6 -11 -11 -29 -11 -40 0 -29 -5 -27 -50
20 -30 32 -44 40 -66 37 -36 -4 -64 -49 -48 -75 17 -27 32 -109 38 -202 4 -50
14 -101 26 -128 11 -25 20 -56 20 -70 0 -39 26 -78 84 -127 37 -32 56 -56 60
-78 9 -45 67 -168 80 -169 6 -1 20 -2 31 -3 18 -1 24 -19 51 -156 20 -100 28
-161 23 -172 -6 -10 -31 -21 -66 -28 -97 -18 -154 -39 -250 -91 -50 -27 -96
-49 -101 -49 -6 0 -8 17 -5 38 2 20 0 82 -6 136 -9 89 -14 105 -45 151 l-36
51 21 53 c24 65 22 120 -6 135 -11 6 -21 11 -22 11 -1 1 3 39 9 85 6 47 12
123 13 170 1 47 4 94 6 105 3 15 -2 21 -18 23 -26 4 -29 28 -14 97 21 90 22
164 6 249 -8 47 -13 98 -11 113 22 129 36 258 40 368 7 155 15 185 114 380 82
163 113 202 202 248 36 19 90 48 121 65 76 43 162 64 251 60 69 -3 73 -4 70
-25 -4 -31 17 -30 92 7 115 57 271 75 390 44z m574 -1344 c-4 -80 -10 -118
-28 -160 -37 -86 -42 -83 -37 20 5 105 28 234 48 271 l14 24 3 -25 c2 -14 2
-72 0 -130z m-1623 -172 c4 -30 12 -48 20 -48 8 0 17 -4 20 -10 7 -11 35 -193
31 -198 -10 -9 -56 64 -62 96 -3 20 -14 60 -24 88 -10 28 -21 84 -24 125 l-6
74 19 -40 c11 -22 23 -61 26 -87z m1406 -579 c-1 -128 12 -225 39 -286 26 -58
43 -57 34 3 -6 44 -6 46 14 35 12 -6 24 -16 27 -21 4 -6 24 -19 46 -30 21 -11
39 -25 39 -31 0 -17 -88 -148 -138 -208 -26 -30 -80 -79 -122 -110 -125 -93
-234 -133 -414 -152 -116 -12 -260 6 -383 47 -76 25 -347 156 -357 173 -3 5 6
14 22 20 15 6 38 18 51 28 l23 17 -7 -33 c-5 -26 -4 -32 6 -29 8 3 26 51 42
109 23 86 27 116 22 174 -6 65 -17 131 -31 180 -5 16 -4 18 7 8 18 -17 39 -16
60 2 15 15 19 11 49 -41 17 -31 60 -86 95 -122 61 -62 65 -65 102 -59 33 6 42
3 68 -23 39 -38 87 -53 111 -36 9 7 20 33 24 57 l6 44 22 -43 c13 -24 29 -45
38 -49 21 -8 61 22 97 74 l32 45 3 -36 c2 -28 8 -36 22 -36 29 0 136 107 173
175 24 43 38 59 51 57 10 -2 24 2 33 9 23 20 60 100 68 149 17 102 28 76 26
-61z m435 -220 c64 -39 120 -128 150 -240 27 -99 25 -313 -5 -449 -33 -150
-55 -224 -124 -405 -74 -197 -88 -243 -78 -250 11 -6 23 10 46 65 10 25 50
110 88 190 118 247 155 381 164 595 7 167 -4 219 -72 354 -25 50 -45 93 -45
95 0 9 81 -23 153 -61 151 -79 182 -139 179 -343 -1 -131 -17 -222 -96 -565
-102 -444 -124 -530 -201 -766 -121 -369 -143 -433 -212 -619 -73 -194 -84
-244 -59 -253 8 -3 17 -3 20 1 4 6 128 310 212 520 100 251 234 727 355 1265
68 304 74 490 19 614 -10 24 -14 43 -9 43 16 0 108 -64 165 -114 110 -97 141
-246 120 -578 -14 -212 -75 -503 -135 -643 -28 -67 -76 -162 -127 -251 -18
-32 -64 -140 -64 -151 0 -2 6 -3 14 -3 23 0 60 52 123 170 32 60 61 110 64
110 3 0 2 -26 -3 -57 -5 -32 -14 -101 -21 -153 l-13 -94 -91 -27 c-112 -32
-181 -66 -205 -100 -25 -33 -26 -171 -2 -266 21 -85 71 -196 113 -247 17 -21
31 -42 31 -46 0 -4 -11 -15 -24 -23 -29 -20 -50 -78 -41 -114 3 -15 15 -37 25
-50 19 -24 19 -25 0 -72 -10 -27 -39 -115 -64 -197 -63 -204 -94 -280 -198
-489 -99 -198 -186 -353 -258 -460 -53 -79 -376 -513 -483 -650 -39 -49 -72
-91 -73 -93 0 -1 -26 11 -57 27 -31 16 -77 33 -101 36 -33 5 -56 18 -86 45
-54 50 -146 76 -222 65 -29 -5 -98 -9 -153 -10 -120 -2 -159 -16 -230 -84 -27
-26 -71 -55 -96 -65 -116 -42 -177 -108 -200 -215 -6 -31 -27 -75 -49 -107
-45 -65 -65 -129 -56 -187 3 -23 9 -59 12 -80 5 -31 1 -49 -22 -90 -37 -69
-38 -125 -1 -194 15 -29 27 -58 27 -65 0 -6 -11 -39 -24 -72 -38 -94 -43 -168
-16 -241 18 -47 23 -83 24 -170 1 -60 5 -121 9 -135 7 -24 1 -30 -85 -87 -51
-33 -120 -74 -153 -91 -90 -45 -219 -121 -315 -185 l-85 -57 -12 47 c-17 74
-15 122 11 193 13 36 34 92 46 125 30 81 26 222 -8 257 -19 22 -20 29 -12 88
14 95 12 255 -4 331 -29 137 -105 262 -181 299 -51 25 -64 47 -59 100 1 19 5
67 9 107 3 40 17 111 30 158 26 96 116 328 124 320 2 -3 8 -27 11 -53 4 -26
11 -66 15 -89 6 -34 5 -43 -7 -43 -20 0 -98 -68 -98 -86 0 -16 21 -19 36 -5 5
5 44 23 87 41 101 42 211 114 284 187 278 278 810 1274 1133 2118 83 218 236
562 246 552 2 -1 -13 -48 -32 -105 -48 -144 -65 -252 -71 -444 -5 -152 -4
-168 11 -168 21 0 23 8 30 103 7 103 59 355 95 464 16 49 65 192 109 320 45
127 106 332 137 455 99 396 131 473 349 858 120 212 170 322 188 419 12 68 6
157 -16 198 -8 17 -12 33 -9 37 13 13 67 5 99 -15z m-136 -127 c0 -42 -36
-162 -73 -243 -19 -41 -79 -153 -134 -249 -205 -357 -214 -381 -343 -865 -91
-343 -105 -382 -184 -500 -97 -146 -211 -378 -319 -650 -121 -305 -200 -483
-342 -770 -384 -778 -670 -1245 -857 -1401 -64 -54 -117 -88 -126 -80 -13 14
-5 142 13 197 21 63 62 148 134 274 28 50 65 124 82 165 17 41 47 105 65 142
61 121 37 148 -28 33 -22 -38 -70 -110 -107 -160 -38 -49 -84 -116 -102 -147
-19 -32 -37 -58 -41 -58 -3 0 -5 132 -3 293 3 204 0 334 -10 432 -8 77 -19
275 -25 440 -5 165 -14 324 -20 354 -9 51 -7 58 20 105 l29 51 21 -50 c20 -44
21 -61 16 -148 -7 -108 5 -123 24 -32 6 30 13 55 15 55 2 0 25 -41 51 -91 91
-176 197 -257 350 -267 113 -7 167 13 250 90 153 144 177 299 118 773 -15 121
-53 253 -97 342 -14 27 -39 93 -56 148 -84 260 -239 433 -525 585 -115 61
-419 171 -521 188 -49 8 -92 16 -93 18 -7 5 57 89 95 125 21 20 74 63 118 96
44 34 121 96 171 139 464 401 443 386 663 508 85 47 156 85 157 83 1 -1 -2
-20 -8 -42 -9 -34 -8 -47 7 -79 24 -51 79 -89 250 -174 226 -113 378 -149 593
-139 307 13 528 157 688 450 33 60 53 87 66 87 13 0 18 -8 18 -28z m1067 -352
c80 -37 209 -159 268 -255 46 -73 129 -254 233 -505 33 -80 76 -183 95 -230
20 -47 48 -128 62 -180 79 -292 109 -380 126 -363 8 8 3 38 -15 104 -25 93
-29 134 -6 62 7 -21 95 -200 196 -399 299 -587 333 -736 223 -975 -21 -47 -39
-91 -39 -97 0 -25 20 -9 56 45 21 31 39 52 42 45 12 -37 -68 -324 -119 -424
-26 -50 -93 -84 -296 -147 -87 -27 -182 -58 -210 -69 -29 -11 -53 -19 -53 -17
0 1 15 36 34 78 52 112 90 234 130 412 43 194 56 279 61 410 5 144 -15 239
-72 335 -2 3 38 6 88 7 50 1 94 4 97 7 10 11 -7 19 -50 23 -70 7 -75 12 -39
34 40 24 34 36 -9 20 -18 -6 -60 -14 -94 -17 l-63 -6 -47 62 -48 62 25 82 c36
114 38 140 23 233 -14 90 -24 104 -101 145 -84 44 -169 60 -362 65 -101 3
-183 8 -183 12 -1 3 -5 26 -10 51 -17 86 31 289 112 468 15 35 28 71 28 79 0
35 -27 -1 -86 -111 -34 -65 -64 -112 -66 -104 -7 19 19 320 38 438 13 78 -12
39 -35 -56 -20 -82 -25 -94 -35 -78 -12 20 -14 236 -2 289 3 17 9 89 12 160 6
118 -1 208 -22 314 -7 33 -7 34 22 27 16 -4 57 -20 91 -36z m-3657 -773 c63
-20 155 -52 203 -73 76 -32 90 -41 105 -73 15 -32 22 -36 70 -43 67 -10 93
-24 186 -98 82 -67 189 -192 217 -255 10 -22 22 -76 28 -119 9 -72 13 -82 49
-120 22 -22 47 -58 55 -78 31 -75 57 -191 57 -251 -1 -34 0 -72 0 -84 0 -12
12 -47 25 -78 49 -109 66 -298 38 -415 -15 -59 -23 -76 -38 -79 -11 -2 -24 -9
-28 -17 -4 -8 -15 -14 -24 -14 -13 0 -15 -9 -11 -50 5 -45 2 -52 -26 -78 -17
-17 -47 -38 -66 -47 -45 -23 -147 -31 -195 -15 -47 16 -111 72 -136 121 -10
21 -34 49 -53 64 -23 17 -43 48 -64 99 -18 41 -43 92 -57 113 l-26 38 20 14
c26 16 27 57 4 90 l-16 24 -19 -22 c-17 -22 -18 -22 -23 -5 -4 11 -13 32 -21
47 -19 38 -18 64 3 76 15 8 16 14 6 40 -11 30 -10 33 24 59 51 38 154 132 179
162 40 47 66 111 61 146 -3 19 0 40 8 50 8 12 10 25 5 35 -7 11 0 24 26 48 33
32 38 44 35 86 -3 34 -47 65 -92 65 -37 0 -51 12 -29 25 6 3 10 17 10 31 0 13
9 32 20 41 31 26 24 46 -30 97 -43 40 -53 45 -70 36 -23 -12 -24 -18 -10 -55
10 -26 10 -26 -36 -23 -43 3 -47 5 -58 38 -25 78 -114 87 -311 30 -145 -42
-237 -85 -340 -160 -95 -69 -94 -69 -161 2 -60 63 -74 88 -74 133 0 34 -5 44
-35 68 -38 30 -44 58 -24 116 8 23 22 36 50 48 46 18 59 38 59 90 0 31 30 103
43 103 2 0 41 14 87 30 79 29 92 31 185 26 77 -3 127 -12 215 -39z m3514 -242
c4 -66 14 -183 21 -260 21 -200 27 -180 -54 -194 -93 -15 -104 -14 -97 4 5 13
27 180 52 380 2 22 16 85 31 140 32 118 37 110 47 -70z m-3257 -188 c14 -13
14 -20 3 -47 -14 -34 -39 -49 -175 -100 -102 -38 -380 -191 -423 -233 -37 -35
-58 -67 -44 -67 5 0 29 15 53 34 24 19 82 55 129 79 47 24 128 67 180 95 112
60 326 141 390 149 54 6 83 -12 83 -50 0 -47 -29 -73 -140 -130 -59 -30 -148
-77 -198 -103 -49 -27 -112 -60 -139 -74 -52 -27 -150 -110 -167 -142 -19 -35
0 -33 39 4 20 19 53 46 72 60 46 33 443 249 498 271 60 24 128 23 142 -2 22
-42 -17 -88 -159 -186 -46 -32 -113 -84 -149 -116 -37 -32 -94 -72 -127 -90
-83 -44 -148 -93 -165 -123 -21 -40 -4 -42 37 -5 21 19 77 56 125 83 48 27
117 74 153 105 174 148 195 161 209 125 23 -60 -10 -113 -140 -230 -156 -139
-194 -179 -194 -204 l0 -23 25 23 c14 13 28 21 31 18 8 -8 -23 -162 -44 -217
-9 -26 -38 -65 -71 -97 -57 -57 -63 -76 -13 -50 16 8 32 12 36 9 10 -10 7
-149 -5 -248 -7 -60 -20 -111 -39 -151 -47 -103 -166 -269 -273 -381 -50 -52
-47 -56 -115 127 -134 357 -168 602 -117 830 9 41 24 86 32 99 l15 24 92 -91
c77 -76 137 -122 161 -122 15 0 1 24 -27 48 -132 107 -227 219 -242 284 -5 21
-12 27 -28 25 -17 -2 -28 11 -55 62 -32 61 -34 69 -27 129 6 61 6 64 -13 58
-18 -6 -21 -1 -27 43 -15 110 55 202 270 354 71 51 138 80 294 126 144 44 217
49 247 18z m-738 -244 c2 -1 -19 -29 -47 -61 -73 -84 -80 -122 -52 -254 25
-115 54 -182 109 -248 40 -48 61 -82 61 -100 0 -13 -210 -218 -250 -243 -17
-10 -30 -28 -30 -38 0 -18 3 -18 53 7 28 14 76 52 106 83 l53 56 -7 -45 c-34
-218 12 -493 141 -828 59 -152 126 -296 144 -307 28 -17 3 -34 -92 -65 -57
-18 -128 -45 -158 -60 -69 -35 -153 -60 -200 -60 -49 0 -133 44 -173 90 -106
124 -187 429 -167 624 26 246 84 434 256 824 12 27 12 32 0 32 -7 0 -19 -13
-26 -30 -15 -35 -30 -40 -23 -7 18 78 28 105 231 634 l16 43 26 -23 c14 -12
27 -23 29 -24z m4526 -78 c75 -20 125 -45 139 -68 16 -27 -28 -61 -69 -52 -16
3 -57 7 -90 10 l-60 3 58 -10 c31 -6 57 -14 57 -18 0 -18 -83 -28 -158 -18
-113 15 -458 3 -557 -18 -90 -20 -177 -23 -183 -5 -2 6 -13 9 -26 5 -29 -7
-72 26 -63 49 18 48 232 111 457 136 127 14 422 6 495 -14z m173 -217 c4 -58
-19 -110 -61 -140 -24 -17 -33 -19 -46 -9 -42 30 -120 61 -156 61 -22 0 -96
-14 -165 -30 -71 -18 -177 -35 -245 -40 -66 -5 -141 -16 -168 -24 -26 -8 -57
-12 -70 -9 -48 11 -125 36 -179 60 -60 27 -68 38 -68 110 l0 41 54 -19 c83
-29 275 -44 546 -43 274 1 349 11 460 63 85 40 94 38 98 -21z m-168 -160 c70
-34 178 -150 224 -241 31 -60 44 -76 57 -72 13 5 21 -6 36 -47 24 -71 24 -337
-1 -483 -17 -97 -82 -371 -92 -387 -8 -12 -42 9 -97 61 -51 48 -187 242 -187
267 0 12 14 14 90 8 63 -5 90 -4 90 4 0 18 -78 34 -185 38 -454 15 -504 19
-532 40 -35 26 -43 80 -16 113 18 22 19 22 113 8 112 -17 365 -20 433 -5 30 6
47 15 47 25 0 12 -11 14 -62 9 -182 -16 -295 -17 -378 -1 -47 8 -134 19 -195
24 -101 8 -111 11 -132 36 -41 47 -27 79 37 87 19 3 63 13 97 22 48 13 117 17
325 20 241 3 266 5 302 23 46 24 31 33 -34 21 -25 -5 -160 -7 -300 -6 -213 3
-272 0 -357 -15 -100 -18 -104 -18 -140 0 -53 25 -56 60 -9 101 47 41 205 92
285 92 33 0 72 5 88 11 15 7 91 13 168 15 138 3 229 9 293 21 24 4 32 10 32
25 0 19 -4 20 -47 14 -27 -4 -131 -9 -233 -12 -102 -2 -213 -9 -247 -15 -86
-15 -157 -4 -183 28 -58 74 15 118 220 133 80 6 174 21 247 40 131 33 170 32
243 -2z m-936 4 c3 -5 45 -21 93 -37 l88 -28 0 -68 c1 -50 -3 -69 -12 -69 -21
0 -137 55 -149 71 -10 12 -54 122 -54 134 0 8 29 5 34 -3z m1066 -22 c0 -5 -5
-10 -11 -10 -5 0 -7 5 -4 10 3 6 8 10 11 10 2 0 4 -4 4 -10z m-896 -211 c5 -5
-3 -13 -19 -19 -25 -9 -32 -7 -57 17 -15 14 -28 30 -28 34 0 9 90 -19 104 -32z
m-39 -409 c33 -34 76 -49 123 -42 l32 4 -6 -58 c-6 -57 -5 -60 30 -101 l37
-42 -16 -62 c-22 -83 -56 -149 -121 -233 -65 -82 -70 -117 -24 -169 36 -42
144 -92 230 -108 36 -6 71 -13 78 -15 9 -2 12 -34 12 -116 l-1 -113 -97 103
c-53 56 -100 102 -104 102 -5 0 -8 -11 -8 -24 0 -26 69 -126 135 -196 112
-118 138 -181 150 -368 4 -51 8 -103 11 -115 2 -12 7 -124 11 -248 l6 -226
-70 -6 c-81 -7 -195 -44 -273 -90 -30 -17 -98 -75 -151 -127 -108 -107 -168
-199 -220 -339 -29 -78 -32 -97 -33 -206 -1 -66 5 -154 13 -196 9 -52 10 -90
4 -120 -12 -60 -1 -124 40 -227 33 -83 35 -95 42 -252 7 -164 17 -212 48 -238
9 -8 23 -39 32 -70 22 -75 48 -125 90 -171 19 -21 35 -42 35 -45 0 -4 -20 -16
-45 -27 l-45 -20 -128 53 c-70 29 -262 120 -426 201 -165 81 -351 173 -415
205 -63 31 -119 64 -122 72 -4 8 -21 46 -38 83 l-30 68 62 75 c34 41 70 85 80
98 24 30 36 86 37 168 0 56 6 77 36 137 28 56 37 86 41 148 4 54 14 92 30 122
28 53 31 141 7 220 -15 51 -15 53 12 107 34 70 30 134 -15 223 l-31 61 53 73
c96 130 177 269 282 482 159 322 203 441 286 783 32 135 65 243 98 320 54 130
69 174 136 407 26 88 50 165 53 170 4 6 9 -11 12 -37 4 -34 14 -56 35 -78z
m540 -239 c26 -5 33 -15 56 -79 45 -121 78 -179 135 -237 30 -31 54 -59 54
-63 0 -4 -9 -21 -20 -39 -72 -120 -417 -149 -616 -52 -54 26 -82 75 -63 110
12 22 10 23 109 -5 59 -17 160 -22 145 -7 -6 5 -42 14 -82 20 -72 11 -123 28
-123 41 0 4 13 24 28 45 27 38 28 39 90 36 39 -1 62 2 62 8 0 6 -11 11 -24 11
-13 0 -38 3 -55 6 -25 5 -31 11 -25 23 3 9 14 37 24 64 9 26 19 49 21 51 3 3
21 1 41 -3 20 -5 42 -5 49 -1 8 5 -4 11 -32 17 -34 7 -45 13 -47 30 -3 20 2
22 50 26 87 6 191 5 223 -2z m131 -25 c3 -7 4 -38 2 -67 l-3 -54 -17 30 c-9
17 -19 47 -23 68 -7 33 -5 37 14 37 12 0 24 -6 27 -14z m54 -82 c0 -8 -4 -12
-10 -9 -5 3 -10 13 -10 21 0 8 5 12 10 9 6 -3 10 -13 10 -21z m54 -116 c20
-28 21 -69 2 -62 -7 3 -18 16 -25 30 -23 51 -6 74 23 32z m-3988 -65 c-15 -27
-15 -27 -16 -5 0 13 5 33 12 45 10 19 13 19 16 5 2 -9 -4 -29 -12 -45z m4052
-23 c3 -30 2 -32 -12 -21 -19 16 -22 65 -3 59 6 -3 13 -20 15 -38z m54 -17
c19 -17 25 -63 9 -63 -14 0 -41 41 -41 62 0 22 8 23 32 1z m-4163 -65 c-7 -13
-14 -18 -16 -11 -3 7 1 22 8 35 7 13 14 18 16 11 3 -7 -1 -22 -8 -35z m4234
-7 c4 -18 7 -35 5 -37 -9 -9 -26 15 -31 44 -9 45 14 38 26 -7z m-4283 19 c0
-5 -5 -10 -11 -10 -5 0 -7 5 -4 10 3 6 8 10 11 10 2 0 4 -4 4 -10z m4163 -10
c3 -11 1 -20 -4 -20 -5 0 -9 9 -9 20 0 11 2 20 4 20 2 0 6 -9 9 -20z m162 -9
c3 -5 1 -12 -5 -16 -5 -3 -10 1 -10 9 0 18 6 21 15 7z m-91 -44 c6 -15 7 -30
3 -33 -12 -12 -37 18 -37 43 0 32 22 25 34 -10z m-4188 -14 c-8 -15 -15 -22
-16 -15 0 17 20 55 27 49 2 -3 -2 -18 -11 -34z m-50 -10 c-11 -11 -19 6 -11
24 8 17 8 17 12 0 3 -10 2 -21 -1 -24z m4174 2 c19 -22 7 -41 -13 -21 -18 19
-22 36 -8 36 5 0 14 -7 21 -15z m127 -11 c3 -8 1 -20 -6 -27 -8 -8 -11 -8 -11
0 0 6 -3 18 -6 27 -3 9 -1 16 5 16 7 0 14 -7 18 -16z m-4344 -39 c-3 -8 -9
-15 -14 -15 -10 0 -12 24 -3 33 11 11 24 -3 17 -18z m4297 -5 c19 -19 27 -50
13 -50 -12 0 -53 43 -53 57 0 19 17 16 40 -7z m-4247 -10 c-3 -11 -9 -20 -14
-20 -10 0 -12 24 -2 33 13 13 21 7 16 -13z m-93 -19 c0 -11 -4 -23 -10 -26 -6
-4 -10 5 -10 19 0 14 5 26 10 26 6 0 10 -9 10 -19z m4280 0 c16 -30 13 -46 -6
-31 -26 22 -37 50 -20 50 9 0 20 -9 26 -19z m-4230 -25 c0 -7 -7 -19 -15 -26
-16 -13 -20 -3 -9 24 8 20 24 21 24 2z m4290 -22 c0 -8 -4 -14 -10 -14 -5 0
-10 9 -10 21 0 11 5 17 10 14 6 -3 10 -13 10 -21z m-46 -29 c18 -13 18 -15 1
-32 -13 -13 -17 -14 -13 -3 3 8 -1 23 -10 33 -18 20 -5 22 22 2z m-1368 -146
c-56 -172 -111 -302 -230 -544 -92 -187 -242 -445 -260 -445 -2 0 -15 18 -29
39 -19 28 -44 48 -85 66 -72 34 -93 68 -58 96 29 23 256 289 361 424 103 132
215 291 278 393 27 45 52 80 54 78 2 -2 -12 -50 -31 -107z m3647 -988 c68 -12
128 -29 163 -47 66 -33 159 -117 237 -212 54 -65 127 -177 127 -194 0 -13 -76
-47 -157 -69 -43 -12 -112 -35 -153 -51 -66 -26 -93 -31 -225 -38 -82 -5 -202
-16 -265 -25 -63 -9 -178 -16 -255 -16 -93 0 -159 -4 -195 -14 -69 -19 -180
-30 -213 -21 -34 8 -38 25 -20 92 32 126 127 296 210 376 71 68 297 194 403
224 67 18 220 16 343 -5z m-9278 -124 c51 -49 108 -74 251 -106 71 -16 161
-41 199 -56 39 -15 87 -31 108 -37 37 -10 51 -28 22 -28 -28 0 -15 -20 13 -21
15 0 38 -2 52 -4 14 -1 77 -6 140 -10 63 -3 135 -11 160 -16 196 -41 305 -49
410 -29 36 7 57 7 66 0 16 -15 71 9 103 44 30 32 41 33 41 2 0 -35 -20 -86
-35 -86 -8 0 -14 -19 -17 -50 -6 -57 -38 -106 -93 -140 -31 -19 -40 -20 -64
-10 -24 9 -48 8 -133 -10 -77 -16 -130 -21 -211 -18 -60 1 -110 5 -112 9 -3 3
7 11 20 17 23 11 35 32 18 32 -5 0 -61 -11 -126 -24 -179 -36 -257 -18 -532
118 -104 52 -215 104 -246 116 -31 11 -76 34 -98 51 -42 30 -81 93 -66 106 4
5 10 2 12 -4 7 -21 36 -16 30 5 -29 88 -31 102 -18 164 7 35 20 74 28 88 l16
24 14 -47 c8 -27 27 -60 48 -80z m6683 23 c40 -5 107 -24 150 -41 59 -24 95
-32 152 -33 95 -3 154 -29 218 -94 54 -55 112 -160 135 -242 26 -94 48 -217
43 -241 -3 -13 -8 -78 -11 -144 -4 -66 -8 -122 -11 -124 -2 -2 -8 8 -13 23 -6
14 -14 26 -17 26 -13 0 7 -126 41 -261 67 -266 91 -510 62 -626 -34 -131 -107
-232 -203 -279 -69 -34 -178 -42 -322 -23 -69 9 -183 13 -319 11 -271 -3 -298
6 -441 142 -89 85 -87 77 -84 346 2 136 -1 258 -8 290 -5 30 -39 114 -75 187
-76 155 -84 186 -85 319 0 149 45 276 156 446 124 186 313 298 554 327 3 0 38
-4 78 -9z m-4072 -145 c81 -23 145 -71 177 -134 15 -30 27 -65 27 -78 0 -27
17 -30 35 -7 10 14 17 10 57 -34 94 -105 123 -201 115 -385 -4 -107 -12 -161
-42 -281 -51 -207 -48 -345 16 -613 12 -52 20 -118 20 -167 0 -69 -5 -89 -31
-143 -35 -71 -65 -99 -124 -113 -42 -11 -194 -61 -256 -85 -47 -19 -141 -18
-237 0 -56 11 -106 14 -178 10 -90 -6 -108 -4 -180 19 -44 14 -114 30 -155 36
-98 14 -120 24 -166 71 l-39 40 23 87 c38 151 42 220 40 662 -2 323 0 440 10
490 39 186 104 317 222 443 62 66 87 84 174 127 89 44 114 52 211 64 121 15
203 13 281 -9z m7259 -313 c20 -95 19 -99 -8 -74 -49 46 -50 16 -2 -58 19 -30
35 -65 35 -78 0 -47 -204 -210 -310 -247 -52 -19 -49 -19 -43 5 3 11 1 20 -4
20 -6 0 -63 -19 -129 -42 l-119 -43 -264 -3 c-276 -4 -473 12 -550 44 -41 17
-65 18 -90 2 -26 -16 -68 12 -87 57 -19 46 -18 61 1 45 42 -35 23 28 -37 123
-49 76 -23 127 48 93 44 -20 119 -20 225 0 56 11 146 17 269 19 115 1 222 8
284 18 66 12 159 17 278 17 162 0 207 7 161 24 -27 11 -5 23 115 66 128 45
163 62 182 85 19 23 27 9 45 -73z m-8534 -194 c-6 -17 -11 -45 -11 -61 0 -17
-11 -72 -25 -121 -14 -50 -30 -116 -35 -147 -13 -67 -33 -100 -50 -82 -26 24
-19 91 19 195 12 32 26 89 31 128 11 81 32 127 57 132 24 5 27 -6 14 -44z
m-131 -168 c-17 -32 -22 -18 -8 21 8 22 13 28 16 17 2 -9 -2 -27 -8 -38z
m7291 -192 c22 -35 45 -62 50 -61 12 4 34 -50 52 -129 14 -62 13 -70 -5 -125
-21 -62 -49 -100 -67 -89 -6 4 -11 35 -11 69 0 119 -25 244 -64 318 -20 38
-36 71 -36 74 0 3 9 5 20 5 14 0 33 -20 61 -62z m-7326 -36 c6 -44 1 -57 -55
-177 -60 -128 -99 -195 -112 -195 -4 0 -10 9 -13 20 -3 11 -12 20 -20 20 -20
0 -29 -94 -22 -223 l7 -109 -33 22 c-34 22 -238 125 -345 174 -70 32 -76 41
-16 25 21 -6 73 -9 114 -7 63 4 87 11 148 43 45 23 90 57 120 90 56 62 141
202 179 297 16 37 31 68 35 68 3 0 9 -21 13 -48z m1905 -77 c0 -50 -21 -129
-46 -175 l-19 -35 -3 28 c-3 27 33 221 45 241 10 15 23 -18 23 -59z m2886 -25
c30 -59 38 -88 41 -145 l4 -70 -50 115 c-32 73 -51 129 -51 155 0 49 8 41 56
-55z m-4314 14 c2 -19 0 -37 -4 -40 -4 -3 -8 13 -8 35 0 51 6 53 12 5z m-1802
-154 c0 -5 -7 -10 -15 -10 -8 0 -15 5 -15 10 0 6 7 10 15 10 8 0 15 -4 15 -10z
m3926 -56 c50 -30 62 -59 44 -107 -19 -46 -18 -46 -108 -67 -149 -36 -347
-118 -502 -210 -59 -35 -70 -31 -70 26 0 28 9 37 99 97 54 36 159 99 232 139
74 41 159 90 189 110 30 20 59 37 63 37 5 1 28 -11 53 -25z m4992 -254 c57
-146 105 -189 232 -204 30 -4 91 -14 135 -23 99 -19 183 -13 290 21 43 14 81
24 82 22 2 -2 -14 -21 -34 -43 -33 -35 -52 -45 -148 -73 -60 -18 -192 -61
-293 -96 -125 -43 -184 -59 -187 -51 -2 7 -6 37 -10 67 -13 108 -56 208 -67
153 -3 -15 -6 -14 -27 7 -54 58 -120 172 -165 285 l-26 63 35 35 c19 19 35 44
35 54 0 11 3 22 6 26 10 9 114 -169 142 -243z m-8679 185 c175 -44 327 -99
542 -197 158 -72 224 -108 291 -159 103 -77 408 -357 408 -374 0 -16 -83 -63
-310 -174 -117 -57 -253 -133 -315 -175 l-109 -74 -116 108 c-217 203 -416
418 -609 660 -110 137 -281 371 -281 383 0 12 87 30 170 36 109 8 195 -1 329
-34z m4126 -10 c71 -29 156 -33 231 -10 58 18 150 19 226 4 44 -9 66 -8 118 5
35 9 64 15 65 14 1 -2 9 -25 18 -52 l17 -49 -153 7 c-83 4 -206 13 -272 21
-119 13 -417 13 -537 -1 -46 -5 -58 -3 -58 7 0 28 16 34 85 35 49 1 83 7 115
22 58 27 72 27 145 -3z m321 -129 c77 -8 184 -17 239 -20 55 -3 125 -13 155
-22 30 -9 197 -88 370 -177 173 -89 395 -200 493 -246 140 -67 175 -87 165
-97 -7 -6 -175 -94 -373 -194 -584 -297 -689 -368 -813 -554 -105 -156 -168
-287 -272 -561 l-11 -29 -41 69 c-22 39 -89 162 -148 275 -188 360 -249 449
-377 551 -154 122 -340 223 -674 365 -112 47 -208 90 -213 95 -5 5 2 33 17 68
14 33 29 84 33 112 8 60 2 56 219 163 269 132 393 173 620 199 160 19 440 20
611 3z m2827 -507 c12 -7 155 -100 317 -208 194 -129 317 -218 361 -261 75
-74 144 -174 199 -293 65 -139 79 -113 -147 -263 -284 -188 -441 -279 -718
-414 -443 -216 -911 -377 -1411 -485 -108 -24 -463 -85 -491 -85 -9 0 -12 15
-8 58 2 31 7 102 10 157 6 89 44 383 64 490 10 56 8 128 -4 132 -17 5 -85
-336 -99 -492 -3 -33 -8 -112 -12 -175 -4 -63 -8 -122 -10 -130 -1 -8 -3 -24
-4 -35 -3 -34 -18 29 -41 163 -24 149 -53 248 -76 256 -23 9 -27 1 -15 -31 16
-41 19 -63 47 -282 9 -68 15 -124 13 -126 -23 -18 -881 -46 -898 -29 -12 12
49 321 94 480 92 322 282 697 415 817 120 107 212 160 826 477 110 57 225 120
256 141 31 21 87 53 125 72 38 18 78 39 90 46 17 11 31 11 86 -3 52 -13 111
-16 271 -16 113 1 250 -4 305 -10 55 -7 147 -10 204 -8 95 3 110 6 164 35 32
17 60 32 62 32 2 1 13 -4 25 -10z m-5701 -35 c52 -47 87 -60 200 -80 51 -8
129 -27 173 -41 72 -23 91 -24 188 -19 77 4 130 1 190 -10 45 -9 114 -17 152
-17 60 0 83 5 165 40 52 23 120 46 150 52 30 7 66 18 80 25 22 13 32 10 125
-39 55 -29 150 -74 210 -100 157 -67 305 -142 420 -214 250 -158 295 -214 535
-670 142 -270 203 -407 197 -441 -33 -174 -98 -495 -102 -498 -9 -9 -445 33
-445 43 0 2 20 50 45 108 63 148 61 206 -3 75 -16 -35 -37 -72 -47 -83 l-16
-20 5 20 c3 11 10 49 15 85 10 77 -6 470 -20 485 -15 15 -29 -14 -30 -60 0
-22 -2 -47 -3 -55 -2 -8 -6 -51 -10 -95 -9 -105 -43 -346 -57 -402 l-12 -44
-46 6 c-25 4 -145 26 -266 50 -837 167 -1646 520 -2345 1021 -192 137 -440
335 -440 350 0 23 221 161 420 262 210 107 398 214 470 267 25 19 49 34 54 34
5 1 26 -15 48 -35z m6758 -480 c25 -2 107 -5 182 -7 76 -1 138 -4 138 -7 0 -3
-47 -45 -105 -94 l-105 -88 -73 7 c-102 9 -150 33 -178 87 -12 23 -30 55 -41
70 -36 51 -23 54 182 32z"/>
<path d="M6288 10850 c-47 -8 -80 -37 -76 -64 3 -20 9 -21 104 -18 109 3 229
-20 306 -59 40 -20 58 -18 58 6 0 23 -78 82 -123 93 -179 45 -220 52 -269 42z"/>
<path d="M6135 10699 c-9 -17 -15 -38 -13 -47 3 -12 11 -4 26 25 25 48 26 53
12 53 -5 0 -17 -14 -25 -31z"/>
<path d="M5930 10708 c0 -18 33 -88 42 -88 12 0 10 15 -8 60 -15 38 -34 54
-34 28z"/>
<path d="M6274 10649 c-57 -54 -67 -79 -34 -79 11 0 53 -11 93 -25 59 -19 81
-23 107 -15 45 13 160 89 160 107 0 7 -24 25 -52 38 -43 20 -69 25 -136 25
l-83 0 -55 -51z m255 10 c17 -6 31 -15 31 -19 0 -10 -59 -54 -64 -49 -8 10
-14 79 -7 79 4 0 22 -5 40 -11z m-101 -25 c4 -27 -26 -40 -46 -20 -21 20 -8
48 20 44 14 -2 24 -11 26 -24z m-109 -41 c1 -13 -36 -6 -45 9 -3 5 2 18 12 30
l19 20 6 -24 c4 -12 7 -28 8 -35z"/>
<path d="M5625 10625 c-38 -13 -105 -74 -105 -94 0 -13 152 -61 191 -61 17 0
61 14 99 30 38 17 75 30 84 30 9 0 16 6 16 13 0 18 -60 74 -93 86 -40 15 -144
13 -192 -4z m246 -61 c6 -7 -3 -14 -26 -21 -30 -10 -35 -9 -35 5 0 10 -3 28
-7 41 l-6 24 32 -19 c18 -10 37 -24 42 -30z m-246 -4 c1 -22 -2 -40 -7 -40
-14 0 -58 23 -58 31 0 8 49 49 59 49 3 0 6 -18 6 -40z m115 24 c11 -12 11 -18
-2 -30 -18 -18 -48 -8 -48 16 0 16 11 27 31 29 4 1 12 -6 19 -15z"/>
<path d="M6166 10574 c-13 -33 -5 -54 24 -69 36 -19 40 -19 40 0 0 9 -7 18
-15 21 -14 6 -31 41 -27 57 4 14 -16 7 -22 -9z"/>
<path d="M5931 10525 c-7 -16 -24 -42 -39 -57 -27 -29 -24 -35 9 -18 24 13 52
66 46 88 -3 12 -7 9 -16 -13z"/>
<path d="M6124 10371 c2 -24 9 -48 14 -53 7 -7 7 4 1 33 -14 63 -20 71 -15 20z"/>
<path d="M6028 10377 c-5 -10 -8 -37 -7 -60 0 -38 1 -40 10 -17 6 13 9 40 7
60 -2 27 -5 31 -10 17z"/>
<path d="M6170 10263 c1 -20 32 -46 62 -52 26 -5 35 -13 43 -39 10 -35 22 -41
27 -14 8 39 -5 64 -41 78 -20 8 -44 19 -53 24 -21 12 -38 13 -38 3z"/>
<path d="M6158 10147 c-33 -20 -41 -21 -93 -10 -43 9 -63 10 -78 1 -19 -10
-15 -13 43 -29 83 -23 96 -23 130 1 15 11 40 24 56 30 23 9 25 13 14 20 -21
14 -30 12 -72 -13z"/>
<path d="M6417 9994 c-3 -3 -53 -5 -112 -5 -58 1 -114 -3 -125 -9 -20 -11 -31
-12 -126 -10 -41 1 -78 -6 -115 -21 -34 -13 -75 -21 -111 -21 -54 0 -72 -8
-48 -23 6 -3 10 -18 10 -33 0 -23 13 -68 67 -229 15 -44 36 -56 47 -27 8 21 8
21 -14 27 -16 4 -20 14 -20 47 0 22 -7 54 -15 70 -9 17 -20 41 -25 54 l-9 24
43 -24 c65 -36 168 -50 275 -37 99 13 168 42 231 99 23 21 41 31 45 24 4 -6 7
-50 8 -98 1 -94 -11 -132 -43 -132 -11 0 -20 -4 -20 -10 0 -5 -7 -10 -15 -10
-8 0 -15 5 -15 10 0 6 -11 15 -25 20 -30 11 -31 21 -5 45 11 10 20 24 20 32 0
9 -17 5 -59 -17 -82 -41 -150 -48 -226 -22 -67 23 -97 14 -58 -18 20 -15 21
-21 10 -43 -7 -16 -22 -27 -37 -29 -15 -2 -26 -10 -28 -21 -6 -28 59 -19 73 9
24 49 33 53 98 48 44 -4 75 -1 107 10 l45 16 35 -40 c34 -39 62 -50 75 -30 3
6 17 7 30 4 20 -5 25 0 44 51 24 64 29 197 9 240 -9 21 -9 31 0 46 7 10 12 23
12 29 0 11 -23 14 -33 4z m-113 -91 c-4 -27 -13 -53 -22 -60 -29 -24 -201 -47
-237 -33 -17 7 -16 9 10 10 80 4 178 19 195 31 11 7 1 8 -33 3 -27 -4 -83 -9
-125 -13 -53 -4 -76 -10 -74 -19 1 -7 -8 -12 -22 -12 -24 0 -76 56 -76 82 0
10 2 10 9 -1 7 -11 13 -9 31 9 19 19 29 21 74 16 28 -4 76 -1 106 5 179 37
171 38 164 -18z"/>
<path d="M6437 6148 c-14 -18 -78 -134 -142 -258 -310 -594 -373 -692 -669
-1055 -245 -298 -483 -536 -660 -660 -87 -60 -307 -175 -384 -200 -53 -17 -61
-35 -16 -35 70 0 351 124 482 214 199 134 427 364 698 702 290 362 291 364
645 1116 86 183 105 254 46 176z"/>
<path d="M4454 7986 c-15 -11 -12 -16 31 -39 52 -29 85 -35 85 -14 0 35 -87
74 -116 53z"/>
<path d="M4145 7970 c-13 -20 38 -61 83 -67 51 -7 67 16 35 49 -25 24 -106 37
-118 18z"/>
<path d="M4354 7789 c-8 -14 65 -89 87 -89 25 0 31 15 18 43 -19 41 -89 72
-105 46z"/>
<path d="M4117 7743 c-13 -13 -7 -50 11 -66 23 -21 65 -22 82 -2 18 22 6 42
-36 60 -41 17 -48 18 -57 8z"/>
<path d="M5116 7314 c-31 -30 10 -116 57 -122 49 -6 46 58 -6 116 -24 26 -31
27 -51 6z"/>
<path d="M5040 7095 c-10 -12 -6 -25 21 -71 36 -59 54 -73 71 -56 19 19 -43
142 -73 142 -3 0 -12 -7 -19 -15z"/>
<path d="M4811 6911 c-11 -7 -11 -17 4 -60 9 -28 20 -53 24 -56 30 -18 66 80
41 110 -14 17 -47 20 -69 6z"/>
<path d="M5222 6810 c-4 -11 -5 -44 -2 -73 5 -55 25 -72 55 -47 17 14 20 92 5
121 -14 25 -49 24 -58 -1z"/>
<path d="M5007 6734 c-10 -11 -8 -89 3 -118 6 -16 17 -26 29 -26 25 0 31 10
33 55 2 48 -44 110 -65 89z"/>
<path d="M4930 6501 c0 -34 19 -71 36 -71 13 0 15 6 10 32 -10 50 -46 81 -46
39z"/>
<path d="M5123 6344 c-8 -21 5 -106 18 -119 7 -7 16 -3 30 14 21 26 24 56 9
95 -11 29 -47 36 -57 10z"/>
</g>
</svg>
