<?xml version="1.0" standalone="no"?>
<!DOCTYPE svg PUBLIC "-//W3C//DTD SVG 20010904//EN"
 "http://www.w3.org/TR/2001/REC-SVG-20010904/DTD/svg10.dtd">
<svg version="1.0" xmlns="http://www.w3.org/2000/svg"
 width="1249.000000pt" height="1257.000000pt" viewBox="0 0 1249.000000 1257.000000"
 preserveAspectRatio="xMidYMid meet">
<metadata>
Created by potrace 1.16, written by Peter Selinger 2001-2019
</metadata>
<g transform="translate(0.000000,1257.000000) scale(0.100000,-0.100000)"
fill="#000000" stroke="none">
<path d="M0 6285 l0 -6285 6245 0 6245 0 0 6285 0 6285 -6245 0 -6245 0 0
-6285z m10732 6028 c46 -60 255 -326 463 -593 208 -267 433 -555 500 -640 342
-436 662 -847 668 -857 4 -6 -19 -44 -51 -84 -157 -201 -1656 -2105 -1662
-2112 -6 -7 -1715 2117 -1725 2146 -3 6 345 467 772 1022 981 1274 943 1225
947 1225 2 0 42 -48 88 -107z m-4057 72 c1076 -92 1970 -385 2846 -933 183
-114 176 -109 162 -131 -6 -10 -200 -264 -431 -563 -231 -300 -426 -554 -433
-565 -11 -18 79 -133 890 -1147 496 -620 904 -1133 907 -1140 2 -6 -20 -61
-50 -121 -108 -219 -119 -352 -42 -509 98 -198 83 -328 -57 -496 -30 -36 -190
-204 -357 -375 -398 -408 -466 -492 -505 -629 -34 -117 0 -233 94 -325 45 -44
70 -58 255 -147 92 -44 156 -100 156 -135 0 -13 -7 -79 -17 -146 l-17 -122 30
-58 c22 -43 42 -66 79 -90 52 -34 229 -102 388 -148 61 -18 93 -32 85 -36 -8
-4 -90 -19 -183 -33 -275 -41 -289 -46 -324 -120 -26 -53 -30 -156 -8 -208 25
-59 77 -251 77 -282 0 -19 -27 -70 -75 -146 -85 -133 -115 -200 -140 -314 -22
-99 -16 -176 24 -294 49 -147 131 -266 256 -370 75 -62 136 -98 247 -146 93
-39 327 -101 496 -131 56 -10 102 -21 102 -24 -1 -9 -147 -189 -248 -306 -186
-214 -477 -498 -707 -690 -919 -767 -2115 -1272 -3280 -1385 -60 -6 -126 -13
-145 -15 -58 -7 -377 -20 -500 -20 -125 0 -474 13 -506 19 -10 2 -57 7 -104
11 -217 18 -576 78 -836 140 -477 114 -897 270 -1356 502 l-187 94 6 52 c3 29
12 88 19 132 8 44 30 190 49 325 20 135 51 349 70 475 32 217 47 337 60 500
11 139 17 185 24 185 4 0 35 -18 70 -41 98 -64 220 -118 291 -130 65 -11 204
-7 370 10 184 20 746 126 1040 197 80 19 249 59 375 89 542 126 636 167 701
307 l29 63 5 335 c4 184 10 342 14 351 4 9 75 67 157 130 83 62 172 136 198
165 68 74 140 171 157 213 23 54 54 223 54 294 0 69 36 228 74 330 14 37 59
142 100 235 96 216 107 261 111 442 2 80 7 212 11 294 8 181 -4 261 -49 337
-57 94 -169 132 -277 94 -23 -8 -63 -15 -89 -15 -113 -2 -178 -54 -309 -250
-70 -105 -226 -393 -288 -530 -28 -63 -74 -160 -101 -215 -82 -163 -159 -421
-175 -590 -3 -26 -9 -31 -63 -48 -33 -10 -143 -35 -245 -57 -102 -21 -230 -50
-285 -64 -112 -28 -408 -84 -588 -112 -83 -13 -124 -15 -135 -8 -23 14 -84
130 -128 244 -48 124 -142 336 -197 447 -103 205 -206 464 -332 833 -110 322
-161 427 -280 575 -84 105 -125 143 -345 320 -208 167 -316 267 -355 330 -10
17 -30 43 -44 58 l-26 28 57 54 c66 62 73 82 64 172 l-7 65 42 39 c41 38 41
39 37 94 -4 42 -12 65 -36 98 -44 57 -88 144 -95 187 -8 44 17 167 41 200 47
63 56 170 21 250 l-21 48 28 42 c21 32 29 58 32 105 5 76 -12 133 -68 229 -44
75 -64 137 -55 167 4 11 26 42 50 70 57 63 70 110 54 188 -12 56 -11 64 28
202 66 230 77 332 48 442 -15 59 -48 120 -81 149 -67 58 -290 139 -462 166
l-104 17 -23 45 c-45 88 -125 140 -276 182 -75 20 -106 23 -285 23 l-202 0 18
25 c26 35 275 279 400 391 668 600 1482 1055 2347 1313 434 129 962 221 1409
245 163 9 656 6 779 -4z m-4480 -2177 c88 -38 126 -76 185 -182 29 -53 57 -96
61 -96 4 0 9 12 11 28 3 26 5 27 53 25 85 -4 319 -68 366 -99 67 -46 83 -75
87 -157 4 -67 -28 -297 -47 -350 -8 -21 -8 -21 -23 4 -9 13 -28 83 -43 154
-36 176 -51 220 -86 249 -41 35 -103 50 -159 40 -70 -14 -59 -35 33 -60 75
-21 109 -41 128 -75 5 -10 16 -64 24 -121 18 -120 37 -191 72 -271 14 -31 24
-60 21 -63 -3 -3 -24 -7 -46 -9 -67 -6 -109 -38 -97 -74 5 -16 16 -21 62 -23
32 -2 58 -8 60 -15 8 -23 -51 -75 -92 -82 -27 -4 -41 -12 -43 -24 -7 -35 104
-265 174 -364 24 -34 44 -70 44 -81 0 -11 -12 -31 -26 -46 -25 -25 -32 -26
-131 -26 -122 0 -170 16 -158 53 29 97 9 126 -38 57 -27 -39 -21 -75 18 -114
19 -19 31 -37 27 -39 -4 -3 -27 -8 -52 -12 -25 -4 -73 -22 -107 -41 -35 -19
-76 -34 -95 -34 -75 0 -162 -62 -232 -166 -33 -48 -34 -49 -87 -51 -30 0 -70
-4 -91 -8 -33 -6 -40 -3 -83 36 -26 24 -56 61 -67 84 -11 22 -30 50 -41 63
-20 21 -27 23 -84 16 l-63 -6 -20 43 c-11 24 -20 59 -20 77 0 19 -14 68 -31
110 -52 130 -58 158 -52 246 4 67 2 91 -16 141 -11 32 -21 67 -21 76 0 9 15
45 34 80 18 35 43 94 55 132 20 60 29 72 81 112 101 78 152 159 293 466 19 41
48 91 66 111 64 73 163 97 246 59 37 -16 54 -33 138 -129 29 -35 57 -42 57
-16 0 21 -101 153 -151 199 -98 88 -261 69 -341 -41 -20 -27 -59 -100 -87
-163 -120 -265 -209 -369 -400 -465 -62 -31 -151 -67 -199 -82 -119 -35 -132
-41 -132 -60 0 -14 9 -15 73 -10 83 8 249 34 272 42 24 10 19 -43 -9 -90 -43
-73 -51 -117 -35 -188 7 -35 12 -72 11 -83 -16 -108 -14 -144 12 -208 16 -40
26 -85 26 -115 0 -35 5 -54 19 -66 10 -9 24 -43 30 -75 20 -102 73 -162 156
-177 20 -3 55 -30 103 -79 92 -92 141 -118 219 -114 32 1 75 -1 96 -5 46 -10
54 -4 103 81 62 105 154 172 237 173 24 0 67 14 110 35 41 20 86 35 107 35 23
0 49 9 70 25 19 14 40 25 48 25 30 0 90 -75 105 -130 24 -88 27 -104 17 -120
-8 -12 -12 -11 -32 7 -57 52 -180 57 -311 11 -51 -17 -119 -34 -152 -37 l-60
-6 -28 -84 -28 -85 25 -50 c14 -28 26 -58 26 -66 0 -22 54 -133 72 -147 8 -7
51 -15 95 -18 75 -4 81 -3 91 18 12 23 21 81 22 133 0 16 6 39 14 49 12 17 17
18 42 5 16 -7 49 -16 74 -19 l45 -6 6 -56 c4 -36 18 -78 40 -118 29 -53 32
-64 21 -82 -10 -16 -11 -32 -2 -74 9 -45 8 -66 -5 -117 -16 -62 -55 -118 -81
-118 -7 0 -37 -23 -66 -51 -66 -63 -124 -95 -143 -79 -8 6 -17 25 -20 41 -9
40 -31 49 -119 49 -74 0 -76 1 -91 30 -20 38 -43 50 -101 50 -76 0 -121 19
-167 70 -23 26 -64 62 -92 80 -27 18 -76 55 -107 82 -42 35 -65 48 -88 48 -35
0 -58 21 -127 112 -31 42 -50 58 -75 63 -50 11 -76 42 -98 114 -11 36 -42 104
-69 150 -28 47 -53 96 -55 110 -3 14 -10 55 -16 92 -15 85 -25 102 -47 72 -17
-26 -57 -30 -98 -11 -15 7 -46 44 -76 94 -56 93 -79 151 -79 200 0 19 -12 68
-26 110 -41 117 -26 200 47 273 44 44 84 62 148 68 63 5 79 -4 120 -71 13 -20
26 -36 31 -36 22 0 20 25 -5 77 -33 67 -79 92 -166 93 -132 0 -244 -108 -256
-250 -4 -44 0 -73 20 -131 14 -41 30 -102 36 -137 9 -58 40 -130 97 -228 31
-52 32 -88 6 -189 -28 -110 -40 -180 -52 -320 -13 -138 -29 -210 -72 -312 -38
-93 -72 -123 -138 -123 -27 0 -93 -11 -147 -25 -54 -14 -156 -34 -228 -46 -71
-11 -150 -24 -173 -29 -37 -7 -47 -5 -63 11 -24 24 -24 36 6 177 158 735 467
1464 886 2094 84 127 285 400 349 477 23 27 191 81 313 101 39 7 79 13 87 15
8 2 74 3 145 1 114 -2 137 -6 190 -28z m-918 -1920 c9 -7 11 -27 6 -68 -7 -75
6 -113 72 -195 32 -40 62 -92 75 -129 39 -111 48 -126 85 -142 27 -11 52 -40
114 -132 105 -157 156 -199 191 -157 30 36 83 7 120 -65 11 -22 32 -47 46 -57
23 -15 25 -21 20 -58 -5 -33 -2 -47 14 -68 24 -30 45 -34 85 -13 23 12 33 12
64 2 20 -7 52 -16 72 -20 73 -13 76 -39 24 -192 -26 -75 -39 -132 -42 -184 -2
-41 -6 -84 -8 -96 -11 -53 -222 -121 -411 -131 -216 -12 -428 29 -597 116
-187 95 -331 209 -400 316 -27 42 -32 58 -31 110 0 75 39 178 69 183 11 2 32
16 48 30 l27 26 0 -32 c0 -58 26 -35 73 66 63 136 75 183 92 372 8 91 26 237
40 324 14 88 25 163 25 167 0 31 97 52 127 27z m1497 -121 c21 -16 18 -45 -6
-60 -13 -8 -29 -5 -67 13 -58 27 -63 37 -23 46 15 3 32 7 37 9 22 7 42 4 59
-8z m-302 -71 c35 -8 88 -17 118 -21 36 -4 83 -21 135 -48 66 -35 80 -46 80
-66 0 -38 -34 -43 -96 -15 -29 14 -62 24 -72 22 -31 -5 -56 -47 -68 -115 -6
-35 -15 -63 -20 -63 -4 0 -20 5 -34 12 -22 10 -28 8 -48 -10 -13 -12 -26 -22
-30 -22 -3 0 -13 26 -23 58 -9 31 -23 79 -31 105 -14 49 -10 123 9 160 10 20
3 20 80 3z m-1749 -792 c3 -3 -1 -24 -9 -46 -49 -140 18 -303 181 -437 141
-116 275 -192 438 -250 406 -143 906 -78 1037 135 12 19 26 34 31 34 13 0 47
-122 63 -225 46 -293 -32 -931 -172 -1415 -82 -283 -325 -1018 -359 -1085 -38
-76 -203 -326 -347 -525 -185 -256 -490 -620 -507 -603 -4 4 -57 90 -118 191
-228 381 -420 798 -561 1222 -59 177 -140 460 -140 489 0 9 104 147 231 306
304 382 369 469 369 494 0 34 -34 25 -78 -21 -22 -24 -75 -84 -119 -134 -43
-49 -125 -142 -182 -205 -56 -63 -126 -144 -154 -182 -27 -37 -52 -66 -54 -63
-2 2 14 48 35 102 59 148 97 272 163 538 46 183 61 260 62 318 1 76 -10 107
-31 94 -6 -3 -13 -25 -17 -49 -4 -23 -16 -78 -26 -122 -26 -106 -250 -775
-259 -775 -16 0 -16 50 1 121 36 146 79 392 79 449 0 38 -5 62 -15 70 -19 16
-23 5 -71 -192 -21 -87 -41 -158 -45 -158 -3 0 -9 28 -12 63 -4 34 -11 100
-16 147 -41 363 -45 832 -11 1210 9 93 50 420 54 427 1 1 73 11 161 22 88 12
205 30 260 40 113 22 129 23 138 15z m1962 -319 c141 -163 198 -306 213 -535
9 -154 9 -640 -1 -765 -9 -113 -42 -377 -57 -456 -19 -100 -9 -147 25 -119 29
24 58 155 105 479 17 120 21 190 20 422 0 308 -16 503 -56 689 -27 130 -27
133 -15 128 16 -6 149 -166 174 -210 13 -23 50 -89 81 -145 105 -186 182 -403
242 -676 23 -105 27 -150 30 -317 3 -237 -6 -328 -81 -740 -86 -481 -89 -492
-302 -1164 -149 -473 -188 -585 -266 -766 -84 -196 -273 -570 -288 -570 -4 0
13 57 38 128 68 195 177 543 249 792 95 333 159 668 132 696 -17 17 -37 -8
-43 -53 -20 -151 -80 -379 -186 -702 -126 -382 -232 -674 -339 -936 -54 -132
-117 -287 -140 -344 -22 -57 -49 -119 -59 -138 l-18 -35 -134 125 c-141 132
-351 355 -491 522 -97 117 -218 271 -218 278 0 3 35 58 79 124 117 177 211
342 341 603 213 424 284 615 523 1405 178 584 236 811 291 1142 57 339 68 583
32 748 -38 177 -111 359 -165 409 -36 34 -40 63 -11 74 11 4 62 7 114 7 l94 0
87 -100z m791 -632 c108 -106 169 -175 188 -210 15 -29 82 -218 150 -420 189
-562 436 -1198 558 -1435 27 -54 47 -102 44 -107 -4 -5 -36 -26 -73 -47 -37
-21 -88 -59 -113 -85 -53 -55 -133 -199 -128 -231 6 -39 26 -30 69 33 41 61
163 189 180 189 13 0 11 -30 -7 -106 -18 -79 -16 -139 6 -139 9 0 32 48 67
144 29 79 58 150 65 158 9 11 25 13 62 9 219 -25 263 -18 919 146 306 77 490
118 496 112 6 -5 6 -27 1 -55 -19 -102 -22 -335 -6 -574 28 -409 50 -563 102
-692 14 -36 22 -68 18 -73 -19 -17 -359 -89 -494 -104 -102 -12 -292 -47 -419
-77 -348 -83 -618 -133 -831 -154 -36 -4 -96 -11 -135 -16 -110 -13 -286 -11
-367 6 -141 30 -228 86 -392 254 l-89 91 7 83 c4 45 15 163 26 262 10 99 26
288 34 420 9 132 19 269 23 305 4 36 7 205 8 375 2 264 5 329 23 440 53 321
65 432 66 590 1 148 -8 342 -20 425 -18 125 -90 328 -194 547 -57 119 -58 122
-31 109 15 -8 99 -86 187 -173z m3557 -285 c55 -42 1 -215 -182 -587 -64 -129
-70 -151 -47 -151 15 0 73 107 151 280 26 58 52 111 58 118 33 42 6 -39 -87
-262 -62 -148 -78 -206 -57 -206 15 0 25 20 85 160 65 150 72 162 87 140 26
-39 -13 -183 -121 -455 -82 -205 -114 -313 -135 -453 -44 -297 -61 -346 -151
-442 -67 -71 -400 -340 -517 -418 -53 -36 -70 -43 -80 -33 -9 9 -12 90 -12
314 l0 301 34 21 c18 11 48 34 67 50 31 28 35 37 49 135 8 58 18 128 21 155 3
28 10 67 15 88 28 107 477 1022 553 1125 34 46 52 62 70 62 58 0 41 -81 -83
-398 -50 -127 -91 -238 -91 -247 0 -10 7 -15 17 -13 11 2 45 69 103 203 109
251 140 340 140 404 0 42 5 56 31 86 33 37 55 43 82 23z m4 -310 c-3 -8 -6 -5
-6 6 -1 11 2 17 5 13 3 -3 4 -12 1 -19z m-3681 -1640 c-23 -336 -39 -520 -60
-713 -14 -121 -27 -276 -31 -345 -3 -69 -10 -186 -15 -260 -5 -74 -12 -178
-16 -230 -12 -198 -65 -708 -90 -874 -31 -214 -118 -683 -127 -693 -6 -6 -188
112 -340 220 -146 104 -430 327 -442 348 -8 12 34 85 143 254 50 78 156 276
266 495 273 546 312 645 542 1373 85 271 157 498 159 505 3 6 7 12 11 12 4 0
4 -42 0 -92z m-1543 -435 c-47 -132 -535 -1038 -559 -1038 -4 0 -34 37 -67 82
l-59 83 109 127 c211 247 326 399 474 622 85 129 119 169 102 124z"/>
<path d="M10585 11154 c-117 -30 -193 -81 -249 -167 -49 -74 -70 -155 -63
-239 6 -69 41 -164 74 -200 9 -10 14 -21 11 -24 -9 -8 -182 35 -293 73 -133
46 -305 129 -413 199 -52 34 -98 57 -115 57 -30 0 -56 -26 -57 -57 0 -10 36
-67 79 -125 410 -551 778 -1367 991 -2196 41 -157 59 -195 95 -195 7 0 22 8
34 18 17 14 28 52 57 192 162 810 533 1624 995 2184 78 96 88 127 49 158 -29
24 -45 19 -145 -45 -104 -66 -265 -146 -385 -190 -87 -32 -310 -89 -319 -81
-2 2 8 17 22 33 44 53 70 136 71 231 1 76 -3 92 -30 150 -46 94 -93 143 -179
186 -59 29 -88 37 -142 40 -37 1 -77 1 -88 -2z"/>
<path d="M7953 7912 c-177 -119 -321 -221 -320 -227 1 -5 129 -135 283 -288
l282 -278 5 43 c4 24 9 84 12 133 4 50 9 97 11 106 6 21 42 25 244 29 85 1
173 4 195 5 22 2 184 6 360 10 176 4 327 8 335 10 8 2 137 7 285 11 149 3 271
7 272 8 2 2 -309 71 -690 155 -380 85 -754 167 -829 184 -136 30 -138 31 -134
56 3 14 7 67 11 116 3 50 9 102 11 118 3 15 2 27 -3 26 -4 0 -153 -98 -330
-217z"/>
<path d="M7645 6049 c-170 -116 -317 -215 -325 -220 -12 -7 44 -67 269 -289
157 -153 288 -277 292 -275 3 3 10 53 15 112 4 60 9 111 10 116 1 4 2 18 3 31
1 22 6 25 64 30 61 5 223 11 652 21 121 3 254 7 295 10 41 3 188 7 325 11 138
3 257 10 265 15 13 7 13 8 -2 9 -9 0 -155 32 -325 71 -564 129 -1087 249
-1162 266 l-73 17 6 86 c4 47 9 111 12 143 4 31 2 57 -2 56 -5 0 -148 -95
-319 -210z"/>
<path d="M7315 4179 c-170 -115 -317 -214 -325 -219 -12 -7 46 -69 270 -288
157 -154 288 -278 291 -276 4 2 9 41 13 86 3 46 9 111 12 144 l6 62 128 1 c71
1 137 3 147 5 10 2 155 7 323 11 168 3 328 8 355 10 28 2 179 7 337 11 361 8
376 9 385 17 3 4 -1 7 -11 7 -9 0 -331 69 -714 154 -383 85 -746 165 -806 178
l-108 23 6 80 c3 44 9 108 13 143 3 34 2 62 -3 62 -5 -1 -148 -95 -319 -211z"/>
<path d="M2245 9374 c-106 -19 -179 -40 -238 -70 -38 -20 -48 -29 -45 -47 4
-30 38 -28 153 8 68 21 112 28 180 29 98 1 120 -6 205 -71 52 -40 84 -40 88
-1 3 22 -8 39 -55 87 -49 50 -66 61 -111 70 -64 13 -76 13 -177 -5z"/>
<path d="M2290 9154 c-65 -20 -145 -67 -145 -84 0 -19 134 -97 188 -110 94
-22 157 -8 157 35 0 13 8 37 17 53 16 28 16 30 -5 59 -25 35 -87 63 -135 62
-17 0 -52 -7 -77 -15z m43 -85 c-7 -37 -13 -44 -33 -47 -26 -3 -90 31 -90 48
0 20 108 64 123 50 5 -4 5 -27 0 -51z m114 5 c7 -18 -6 -45 -24 -51 -6 -2 -18
3 -27 12 -12 12 -13 21 -6 36 13 23 48 25 57 3z"/>
<path d="M1133 9021 c-76 -48 -131 -176 -102 -237 20 -40 35 -36 31 8 -8 85
82 208 151 208 56 0 66 -21 56 -115 -8 -68 -13 -83 -34 -98 -28 -21 -32 -48
-10 -67 14 -12 18 -27 30 -122 5 -37 10 -48 24 -48 23 0 31 55 36 273 3 152 2
159 -19 184 -31 36 -116 43 -163 14z"/>
<path d="M2403 8892 c-24 -9 -43 -20 -43 -24 0 -14 70 -9 100 7 64 33 19 47
-57 17z"/>
<path d="M1143 8821 c-40 -25 -47 -49 -33 -115 11 -56 47 -106 75 -106 21 0
19 16 -6 57 -29 47 -20 94 26 130 19 16 35 34 35 41 0 19 -61 14 -97 -7z"/>
<path d="M2714 8555 c-17 -42 23 -57 77 -29 25 12 28 18 18 30 -16 19 -88 19
-95 -1z"/>
<path d="M6536 5192 c-50 -49 -105 -98 -121 -109 -34 -24 -60 -71 -104 -191
-26 -70 -28 -84 -16 -88 24 -10 43 13 87 104 34 73 55 100 147 191 126 126
150 144 168 129 34 -28 -6 -163 -84 -281 -51 -77 -59 -102 -79 -249 -6 -41 -4
-48 10 -48 23 0 56 74 56 128 0 53 20 101 63 155 57 70 89 144 95 217 4 60 2
68 -23 98 -22 26 -34 32 -67 32 -38 0 -48 -7 -132 -88z"/>
</g>
</svg>
