<?xml version="1.0" standalone="no"?>
<!DOCTYPE svg PUBLIC "-//W3C//DTD SVG 20010904//EN"
 "http://www.w3.org/TR/2001/REC-SVG-20010904/DTD/svg10.dtd">
<svg version="1.0" xmlns="http://www.w3.org/2000/svg"
 width="1295.000000pt" height="1294.000000pt" viewBox="0 0 1295.000000 1294.000000"
 preserveAspectRatio="xMidYMid meet">
<metadata>
Created by potrace 1.16, written by Peter Selinger 2001-2019
</metadata>
<g transform="translate(0.000000,1294.000000) scale(0.100000,-0.100000)"
fill="#000000" stroke="none">
<path d="M0 6470 l0 -6470 6475 0 6475 0 0 6470 0 6470 -6475 0 -6475 0 0
-6470z m6970 6097 c14 -3 61 -8 105 -11 178 -14 400 -46 615 -87 1486 -288
2819 -1126 3745 -2354 610 -810 1016 -1783 1160 -2785 47 -324 58 -493 59
-875 1 -198 -2 -404 -7 -457 -29 -373 -85 -730 -167 -1058 -44 -180 -133 -476
-138 -459 -2 8 -7 23 -12 34 -5 11 -18 63 -31 115 -12 52 -26 99 -30 104 -5 6
-9 24 -9 41 0 18 -16 81 -35 141 -19 60 -35 119 -35 132 0 12 -4 30 -9 40 -5
9 -24 64 -41 122 -18 58 -47 153 -66 211 -19 59 -34 115 -34 126 0 10 -4 23
-9 29 -4 5 -25 63 -46 129 -20 66 -47 147 -60 180 -12 33 -26 78 -30 100 -4
22 -10 45 -15 50 -4 6 -10 23 -14 40 -4 16 -16 48 -27 72 -10 23 -19 50 -19
61 0 20 -24 100 -45 147 -7 17 -16 44 -20 60 -10 46 -56 196 -71 233 -8 18
-14 42 -14 53 0 23 -26 111 -42 143 -5 10 -16 43 -24 73 -8 29 -20 64 -28 76
-7 12 -19 40 -26 62 -6 22 -15 49 -20 60 -22 49 -70 181 -70 192 0 7 -11 32
-24 58 -14 25 -30 62 -37 83 -7 20 -23 57 -36 81 -12 24 -23 52 -23 62 0 11
-4 19 -10 19 -5 0 -10 6 -10 13 0 6 -13 37 -28 67 -15 30 -34 74 -41 98 -8 23
-17 42 -21 42 -3 0 -14 24 -25 53 -10 28 -24 57 -30 62 -7 6 -18 26 -25 45 -8
19 -17 37 -21 40 -4 3 -14 21 -23 40 -21 47 -63 122 -73 129 -4 3 -17 24 -28
46 -11 22 -28 49 -37 59 -10 11 -18 24 -18 29 0 20 -159 254 -176 261 -8 3
-14 14 -14 25 0 11 -6 24 -13 28 -7 4 -24 24 -37 43 -35 51 -111 140 -145 171
-47 41 -124 99 -134 99 -4 0 -16 9 -26 20 -10 11 -27 22 -38 26 -12 4 -27 13
-35 20 -7 7 -35 21 -62 31 -28 10 -50 21 -50 25 0 4 -23 14 -51 22 -28 9 -57
20 -63 24 -6 5 -39 15 -72 22 -34 7 -65 15 -71 19 -5 3 -22 32 -38 63 -34 69
-81 112 -155 141 -52 21 -55 24 -63 67 -22 120 -110 210 -207 210 -46 0 -49 7
-17 47 53 67 69 105 68 163 0 55 15 117 30 122 6 2 13 37 16 78 3 47 14 100
30 140 58 149 65 182 66 290 1 82 -3 112 -16 135 -9 17 -17 35 -17 42 0 7 -11
25 -24 40 -14 15 -34 39 -46 53 -45 54 -147 160 -155 160 -4 0 -17 10 -29 23
-12 12 -34 31 -50 42 -15 11 -48 35 -71 53 -24 17 -46 32 -48 32 -8 0 -127 81
-132 91 -4 5 -14 9 -25 9 -10 0 -20 6 -23 14 -3 8 -22 20 -41 27 -20 7 -36 17
-36 21 0 4 -7 8 -15 8 -8 0 -15 4 -15 9 0 5 -15 12 -32 16 -18 4 -42 13 -54
20 -11 7 -49 21 -85 31 -35 10 -66 21 -69 25 -10 14 -183 41 -278 42 -144 3
-198 -13 -266 -76 -31 -29 -56 -56 -56 -61 0 -4 -11 -21 -25 -38 -14 -16 -25
-36 -25 -44 0 -8 -10 -14 -24 -14 -38 0 -134 -56 -176 -103 -48 -54 -110 -145
-110 -162 0 -8 -4 -16 -9 -20 -14 -8 -41 -65 -41 -85 0 -9 -4 -20 -9 -26 -16
-17 -41 -107 -41 -146 0 -21 -4 -38 -10 -38 -5 0 -10 -13 -10 -30 0 -33 -27
-108 -46 -127 -7 -7 -26 -37 -43 -66 -40 -71 -50 -148 -27 -221 20 -63 19 -66
-49 -137 -28 -29 -57 -62 -65 -74 -8 -12 -28 -42 -45 -66 -79 -118 -73 -220
18 -290 40 -31 42 -34 42 -86 0 -40 5 -58 18 -67 9 -7 17 -18 17 -25 0 -6 7
-11 15 -11 19 0 19 -1 -1 -50 -17 -42 -13 -102 9 -128 6 -8 10 -35 10 -60 -1
-42 -8 -75 -43 -188 -12 -38 -13 -94 -1 -94 5 0 11 -17 15 -37 13 -84 156
-169 269 -161 32 2 62 9 65 14 16 23 103 54 177 64 63 8 85 16 106 36 l26 25
17 -66 c9 -37 21 -72 27 -78 6 -7 19 -26 29 -44 11 -18 37 -41 60 -53 40 -20
49 -33 30 -45 -5 -3 -10 -15 -10 -26 0 -10 -4 -19 -9 -19 -5 0 -12 -8 -16 -19
-3 -10 -27 -41 -53 -69 -26 -28 -51 -57 -57 -65 -5 -9 -34 -50 -62 -93 -29
-42 -53 -83 -53 -91 0 -7 -4 -21 -10 -31 -17 -31 -40 -112 -40 -142 0 -17 -4
-38 -9 -48 -5 -9 -17 -38 -26 -64 -9 -27 -20 -48 -25 -48 -5 0 -11 -8 -14 -17
-3 -10 -23 -37 -45 -61 -21 -23 -46 -58 -55 -77 -9 -19 -23 -50 -31 -67 -26
-57 -96 -125 -153 -149 -47 -19 -64 -21 -149 -16 -53 4 -101 11 -107 17 -5 5
-19 10 -30 10 -28 0 -106 31 -106 41 0 5 -10 9 -23 9 -21 0 -87 28 -159 66
-14 8 -61 21 -105 30 -49 11 -88 25 -106 40 -35 29 -128 58 -169 52 -24 -4
-32 -1 -36 14 -2 10 -8 18 -12 18 -5 0 -16 22 -25 49 -9 28 -20 51 -24 53 -5
2 -18 18 -29 37 -30 49 -192 211 -212 211 -18 0 -90 57 -90 71 0 5 -26 33 -57
62 -31 28 -83 78 -115 110 -56 56 -58 57 -113 57 -172 0 -257 -204 -163 -388
10 -20 18 -42 18 -49 0 -7 3 -13 8 -13 4 0 16 -16 26 -35 11 -19 23 -35 28
-35 4 0 8 -4 8 -10 0 -18 -111 -11 -231 14 -123 26 -190 54 -274 115 -50 37
-72 47 -153 72 -37 11 -53 10 -124 -7 -102 -24 -129 -40 -162 -99 -33 -60 -34
-122 -3 -225 25 -83 82 -200 97 -200 6 0 10 -6 10 -14 0 -13 13 -30 91 -113
22 -22 39 -46 39 -52 0 -6 4 -11 9 -11 5 0 26 -16 47 -35 20 -19 39 -35 41
-35 3 0 14 -11 25 -25 11 -14 28 -25 38 -25 10 0 20 -6 23 -12 5 -13 59 -42
212 -114 44 -21 82 -41 85 -45 7 -11 113 -29 220 -39 265 -24 311 -30 347 -39
l40 -11 7 -152 c4 -84 13 -223 21 -308 8 -85 19 -220 25 -300 5 -80 15 -179
20 -220 20 -140 42 -264 49 -280 8 -16 26 -98 36 -162 3 -21 12 -41 19 -45 7
-5 23 -23 36 -40 13 -18 28 -33 33 -33 5 0 23 -6 40 -14 41 -18 323 -44 492
-45 72 -1 238 -5 370 -11 315 -13 642 -13 650 0 3 6 21 10 38 10 18 0 57 7 87
15 30 8 82 22 115 31 69 18 155 52 238 95 61 31 77 30 77 -2 0 -10 4 -19 9
-19 5 0 14 -14 20 -30 13 -40 96 -120 149 -145 l42 -20 0 -60 c0 -58 -1 -61
-31 -74 -25 -11 -41 -12 -81 -2 -70 16 -169 14 -212 -4 -34 -14 -43 -14 -99 2
-124 35 -695 26 -932 -16 -127 -22 -280 -66 -290 -82 -4 -5 -15 -9 -26 -9 -19
0 -62 -23 -87 -47 -7 -7 -18 -13 -24 -13 -12 0 -229 -217 -244 -245 -84 -152
-118 -237 -142 -355 -19 -91 -62 -387 -72 -489 -5 -53 -14 -134 -19 -181 -6
-47 -13 -119 -16 -160 -3 -41 -11 -104 -16 -140 -6 -36 -13 -94 -14 -130 -2
-36 -8 -92 -14 -125 -5 -33 -10 -95 -10 -137 -1 -42 -5 -79 -10 -83 -10 -6
-202 31 -236 45 -11 5 -47 11 -80 14 -48 4 -54 3 -30 -5 40 -13 108 -29 170
-39 28 -4 79 -13 114 -20 l64 -13 -6 -81 c-4 -44 -11 -115 -17 -156 -9 -74
-36 -345 -45 -470 -3 -36 -12 -130 -20 -210 -9 -80 -16 -264 -18 -410 -2 -243
0 -268 17 -300 10 -19 25 -39 32 -43 8 -4 14 -14 14 -21 0 -8 14 -19 30 -26
17 -7 30 -16 30 -21 0 -4 17 -11 38 -15 20 -3 62 -13 92 -22 30 -8 91 -18 135
-22 152 -14 181 -43 55 -57 -140 -16 -240 -77 -240 -146 0 -13 -11 -36 -25
-51 -23 -24 -25 -35 -25 -112 0 -83 13 -125 45 -146 5 -3 21 -16 34 -27 14
-12 36 -24 50 -27 14 -3 55 -14 91 -24 123 -34 345 -70 475 -75 72 -3 238 -1
370 4 304 12 317 8 111 -33 -365 -73 -728 -108 -1121 -110 -378 -1 -582 11
-905 55 -1085 146 -2133 596 -2986 1281 -349 280 -708 639 -987 986 -37 46
-67 87 -67 91 0 12 277 42 470 51 187 10 309 22 328 34 18 11 22 -10 25 -117
l2 -99 42 -37 c26 -24 60 -43 90 -50 26 -7 52 -16 58 -21 12 -10 217 -40 270
-40 19 0 35 -4 35 -10 0 -5 25 -10 55 -10 30 0 55 5 55 10 0 6 15 10 33 10 17
0 48 4 67 10 22 6 56 6 95 0 33 -5 105 -16 161 -25 55 -9 147 -20 205 -25 57
-4 124 -16 149 -25 38 -14 84 -17 290 -16 251 1 346 7 356 22 3 5 18 9 34 9
16 0 31 4 35 9 3 5 19 12 35 16 17 4 30 10 30 15 0 5 13 11 29 15 38 8 91 67
98 108 8 49 -102 270 -157 315 -22 18 -40 36 -40 40 0 4 28 9 63 10 73 3 117
10 135 24 8 7 12 47 12 132 0 66 4 138 9 159 16 66 -14 247 -43 264 -18 11
-86 64 -107 85 -16 15 -17 46 -14 386 1 204 6 375 10 382 4 6 7 129 6 273 -1
144 4 349 9 455 7 130 7 246 1 355 -14 225 -29 718 -42 1403 -11 621 -13 594
36 649 31 35 73 107 81 140 3 17 12 37 19 45 30 35 47 142 43 260 -5 104 -8
123 -40 197 -38 87 -43 94 -99 152 -42 43 -131 101 -157 101 -9 1 -28 7 -42
15 -14 8 -35 14 -47 15 -28 0 -29 16 -3 55 11 16 25 54 31 82 6 29 14 53 18
53 4 0 15 32 25 70 10 39 22 70 27 70 5 0 9 8 10 18 0 14 3 13 16 -5 8 -13 19
-23 24 -23 5 0 26 -11 47 -24 20 -14 57 -30 82 -36 25 -7 50 -16 56 -21 6 -4
37 -12 69 -15 53 -6 64 -12 106 -53 55 -54 111 -101 122 -101 4 0 27 -8 50
-19 23 -10 50 -21 59 -24 10 -3 24 -22 32 -42 8 -19 20 -35 25 -35 6 0 11 -6
11 -13 0 -15 50 -68 95 -102 17 -13 58 -33 92 -45 51 -18 77 -21 155 -18 87 4
97 6 155 42 93 56 137 110 165 197 21 69 22 90 21 314 -1 219 -3 245 -22 300
-12 33 -31 93 -42 134 -28 102 -57 139 -149 188 -50 28 -107 72 -169 131 -122
119 -141 124 -394 120 -115 -1 -199 2 -228 9 -26 7 -81 14 -123 17 -72 5 -79
8 -117 45 -22 21 -61 49 -85 61 -24 13 -49 29 -55 37 -6 7 -17 13 -23 13 -6 0
-51 20 -101 44 -117 58 -191 90 -240 106 -22 7 -42 16 -45 20 -3 4 -36 17 -75
28 -38 11 -83 24 -100 30 -16 6 -52 17 -80 26 -89 27 -149 47 -195 66 -25 11
-64 22 -87 25 -38 6 -93 44 -93 66 0 13 -73 78 -102 90 -16 6 -28 15 -28 20 0
5 -9 9 -19 9 -11 0 -22 4 -26 9 -3 5 -19 12 -35 16 -17 4 -30 11 -30 16 0 5
-10 9 -22 9 -65 0 -101 22 -200 121 -55 54 -104 99 -109 99 -5 0 -15 11 -21
25 -6 14 -15 25 -20 25 -5 0 -28 19 -52 43 -53 51 -288 284 -316 313 l-21 20
98 85 c873 755 1886 1236 3000 1423 193 33 449 64 593 72 63 4 117 8 120 11 6
6 761 -3 790 -10z m1546 -1357 c88 -9 165 -32 289 -87 103 -45 206 -97 217
-110 6 -7 15 -13 20 -13 8 0 74 -45 88 -60 3 -3 21 -15 41 -27 35 -20 80 -58
154 -130 18 -18 38 -33 44 -33 6 0 11 -6 11 -14 0 -8 14 -26 30 -39 17 -14 30
-29 30 -34 0 -4 12 -21 28 -38 34 -38 62 -117 62 -175 -1 -53 -23 -151 -44
-195 -8 -16 -20 -44 -26 -62 l-12 -31 -41 18 c-23 11 -58 32 -77 47 -19 15
-46 33 -61 39 -14 7 -40 26 -58 43 -17 17 -34 31 -38 31 -3 0 -21 11 -39 25
-18 14 -37 25 -42 25 -5 0 -15 7 -22 15 -7 9 -32 25 -54 36 -60 30 -78 41
-123 77 -22 17 -46 32 -53 32 -7 0 -26 12 -43 26 -17 14 -56 38 -87 51 -30 14
-62 34 -71 44 -9 11 -23 19 -31 19 -8 0 -35 11 -59 24 -104 57 -334 168 -389
187 -28 9 -46 22 -49 34 -5 27 21 98 41 113 10 7 18 19 18 27 0 8 14 22 30 32
17 9 30 22 30 28 0 13 52 45 73 45 8 0 17 6 20 14 10 25 63 30 193 16z m-456
-247 c0 -19 -6 -47 -14 -61 -7 -15 -21 -53 -30 -84 -10 -32 -21 -58 -26 -58
-5 0 -17 -16 -26 -37 -28 -57 -158 -183 -190 -183 -21 0 -16 27 8 44 19 14 19
16 5 22 -22 8 -21 36 2 85 11 22 22 53 26 68 3 16 15 37 26 47 10 9 19 23 19
30 0 8 9 19 20 26 11 7 20 18 20 25 0 6 17 25 38 41 29 23 42 28 55 21 14 -8
17 -6 17 14 0 12 5 28 11 34 20 20 39 3 39 -34z m46 -86 c8 3 25 -2 39 -11 13
-9 48 -25 76 -37 83 -32 177 -79 190 -95 6 -8 20 -14 30 -14 10 0 42 -15 71
-33 29 -19 76 -44 103 -57 28 -13 57 -31 65 -39 8 -8 38 -25 67 -37 29 -13 61
-32 71 -41 11 -10 47 -33 81 -51 35 -19 70 -40 79 -49 10 -8 73 -51 142 -96
69 -44 131 -89 138 -99 7 -10 19 -18 25 -18 7 0 31 -18 54 -39 23 -22 56 -47
73 -57 37 -22 44 -70 9 -59 -19 6 -21 4 -15 -19 5 -22 3 -26 -14 -26 -24 0
-28 -35 -5 -44 21 -8 19 -39 -6 -81 -15 -25 -24 -33 -29 -24 -5 6 -15 9 -24 6
-12 -5 -14 -14 -9 -38 6 -29 5 -31 -18 -24 -13 4 -31 16 -40 26 -9 11 -21 19
-26 19 -6 0 -18 9 -27 19 -19 21 -56 34 -56 21 0 -5 14 -17 30 -27 17 -9 30
-21 30 -25 0 -4 9 -8 19 -8 11 0 28 -11 39 -25 11 -14 27 -25 35 -25 17 0 31
-40 17 -54 -5 -5 -39 11 -82 38 -40 26 -82 52 -93 59 -11 6 -44 26 -72 44 -29
18 -57 33 -62 33 -5 0 -14 7 -21 15 -7 8 -21 15 -31 15 -11 0 -19 5 -19 10 0
6 -16 18 -35 27 -19 9 -35 20 -35 25 0 4 -8 8 -18 8 -10 0 -34 14 -52 30 -19
17 -46 33 -60 37 -14 3 -32 11 -40 18 -28 22 -91 55 -106 55 -8 0 -14 5 -14
11 0 5 -16 17 -35 25 -19 8 -35 18 -35 22 0 4 -15 13 -32 20 -18 7 -40 18 -48
23 -8 5 -30 17 -47 26 -18 9 -33 20 -33 25 0 4 -6 8 -13 8 -7 0 -39 16 -72 35
-32 20 -69 38 -82 41 -12 4 -23 12 -23 19 0 7 -10 15 -22 18 -41 10 -98 33
-110 45 -7 7 -18 12 -25 12 -7 0 -35 14 -61 30 -27 17 -59 30 -71 30 -12 0
-21 6 -21 15 0 8 4 15 9 15 5 0 11 9 14 20 6 22 46 28 48 8 0 -9 3 -8 6 2 10
23 36 48 57 51 27 6 32 29 7 36 -25 6 -27 16 -5 34 9 7 20 24 25 37 8 20 14
23 39 17 24 -5 30 -3 30 11 0 10 -7 26 -17 36 -15 17 -15 18 1 18 10 0 14 5
11 11 -4 5 -4 22 0 37 4 15 9 22 12 15 2 -7 11 -9 19 -6z m-5841 -98 c3 -9 19
-22 35 -29 17 -7 30 -16 30 -21 0 -5 6 -9 13 -9 7 0 21 -13 30 -30 10 -16 23
-30 29 -30 7 0 26 -15 43 -32 30 -32 79 -74 140 -120 17 -12 36 -30 43 -40 7
-10 18 -18 23 -18 12 0 33 -19 163 -142 80 -77 88 -88 66 -89 -23 0 -23 -1 -5
-9 30 -13 122 -37 193 -51 35 -7 66 -18 69 -26 3 -7 11 -13 19 -13 7 0 24 -11
38 -25 14 -14 29 -25 35 -25 12 0 41 -28 41 -41 0 -5 -13 -9 -30 -9 -19 0 -30
5 -30 14 0 18 -108 31 -188 22 -31 -4 -67 -6 -80 -6 -13 0 -48 -11 -78 -25
-30 -14 -59 -25 -63 -25 -15 0 -75 -34 -84 -47 -4 -7 -16 -13 -26 -13 -11 0
-21 -6 -24 -14 -7 -18 35 -9 46 11 4 7 15 13 24 13 9 0 25 7 34 16 18 16 35
21 149 45 30 6 63 15 72 20 22 11 65 12 72 0 3 -4 36 -11 73 -14 37 -3 69 -10
71 -16 2 -6 21 -11 42 -11 21 0 41 -4 44 -9 3 -4 23 -11 45 -15 47 -7 208 -59
269 -87 23 -10 61 -28 85 -38 23 -11 66 -28 95 -38 28 -10 52 -21 52 -25 0 -4
16 -10 35 -14 19 -3 38 -10 41 -15 3 -5 16 -9 30 -9 33 0 31 -26 -3 -44 -40
-21 -119 -98 -127 -124 -4 -12 -12 -22 -17 -22 -5 0 -9 -7 -9 -15 0 -8 -5 -15
-10 -15 -6 0 -15 -12 -21 -27 -6 -16 -30 -68 -54 -118 -40 -85 -87 -211 -90
-245 -3 -21 -13 -50 -31 -83 -7 -16 -14 -45 -14 -65 0 -20 -5 -55 -11 -77 -6
-22 -13 -51 -15 -65 -3 -14 -9 -34 -14 -45 -5 -11 -11 -46 -14 -78 -4 -32 -10
-65 -15 -75 -5 -9 -17 -56 -26 -104 -10 -49 -20 -88 -24 -88 -4 0 -13 -21 -20
-47 -8 -27 -20 -61 -26 -78 -12 -29 -40 -140 -49 -198 -7 -42 -17 -67 -26 -67
-4 0 -18 11 -31 25 -13 13 -30 25 -36 25 -7 0 -13 4 -13 9 0 5 -16 16 -35 25
-20 10 -41 26 -48 37 -6 10 -18 19 -26 19 -8 0 -45 23 -83 50 -38 28 -72 50
-76 50 -4 0 -22 14 -40 30 -18 17 -40 30 -48 30 -8 0 -14 5 -14 10 0 6 -17 19
-37 28 -21 9 -62 36 -91 60 -30 23 -65 45 -78 48 -13 3 -24 12 -24 19 0 7 -16
20 -35 29 -19 9 -47 29 -62 43 -16 14 -46 37 -68 50 -22 14 -49 34 -60 45 -11
10 -55 45 -97 77 -42 32 -90 69 -106 82 -16 13 -42 33 -58 44 -16 11 -42 32
-57 48 -16 15 -33 27 -38 27 -5 0 -9 4 -9 9 0 5 -21 28 -46 52 -113 108 -275
271 -334 337 -36 40 -75 77 -87 82 -16 7 -23 18 -23 36 0 17 -13 39 -36 62
-33 33 -37 42 -35 82 1 25 5 61 9 80 7 33 11 36 67 48 92 21 95 24 25 36 l-65
11 3 110 c2 60 8 115 14 122 6 7 8 19 5 27 -13 32 278 386 532 648 l113 118
29 -17 c16 -10 31 -25 34 -34z m5593 -306 c7 -7 23 -13 35 -13 12 0 40 -12 62
-25 22 -14 48 -25 58 -25 9 0 17 -4 17 -10 0 -5 7 -10 15 -10 8 0 15 -4 15
-10 0 -5 6 -10 14 -10 16 0 73 -29 94 -48 9 -8 14 -37 14 -92 0 -44 3 -80 8
-80 4 0 13 -22 20 -50 7 -30 17 -50 26 -50 8 0 14 -9 14 -20 0 -11 13 -32 28
-47 26 -26 28 -35 31 -116 1 -61 -2 -95 -12 -115 -16 -29 -37 -131 -37 -174 0
-15 -7 -33 -15 -42 -8 -8 -15 -21 -15 -30 0 -8 -11 -28 -25 -44 -14 -17 -25
-34 -25 -39 0 -6 -12 -15 -27 -22 -15 -7 -33 -21 -41 -32 -7 -10 -19 -19 -27
-19 -7 0 -15 -6 -18 -12 -3 -9 -11 -5 -24 12 -20 23 -21 24 -39 5 -10 -10 -26
-35 -36 -57 -23 -51 -54 -53 -64 -3 -3 19 -10 35 -15 35 -5 0 -9 16 -9 35 0
19 -4 35 -10 35 -5 0 -10 8 -10 19 0 10 -11 30 -25 45 -14 15 -25 31 -25 37 0
5 -7 9 -15 9 -8 0 -15 7 -15 16 0 12 -6 15 -21 11 -12 -3 -60 7 -108 23 -47
15 -104 31 -126 35 -55 9 -114 44 -121 71 -7 28 13 94 29 94 7 0 23 23 37 51
14 28 31 54 38 56 6 3 12 11 12 19 0 7 14 29 30 47 17 19 30 39 30 44 0 5 11
15 25 21 17 8 25 20 25 37 0 14 5 25 10 25 13 0 13 37 0 42 -5 2 -11 32 -12
68 -3 55 0 68 19 87 11 11 24 35 28 52 4 17 10 31 15 31 5 0 14 17 21 38 6 20
27 58 46 84 32 45 35 47 61 35 15 -6 33 -17 40 -24z m-6387 -584 c-5 -41 -14
-92 -20 -114 -6 -22 -11 -61 -11 -87 0 -54 -16 -143 -32 -175 -6 -12 -8 -35
-5 -51 3 -17 1 -34 -6 -41 -9 -9 -11 -64 -9 -201 4 -217 -3 -252 -60 -311 -47
-48 -73 -59 -144 -59 -60 0 -72 16 -31 45 22 16 22 16 -8 9 -16 -4 -45 -12
-64 -19 -23 -7 -54 -9 -93 -3 -33 4 -64 5 -69 2 -5 -3 -9 0 -9 6 0 6 7 13 15
16 8 4 15 12 15 18 0 7 11 18 25 24 14 6 25 18 25 26 0 8 8 19 17 25 10 5 15
12 12 16 -4 3 -14 -1 -22 -10 -9 -8 -20 -15 -26 -15 -5 0 -19 -13 -31 -30 -12
-16 -30 -30 -40 -30 -26 0 -23 7 99 250 98 195 225 420 318 560 100 153 155
232 159 227 2 -2 0 -37 -5 -78z m7099 -59 c0 -5 -9 -25 -20 -45 -23 -42 -24
-52 -7 -88 16 -36 27 -34 27 4 0 26 3 30 20 26 17 -4 18 -2 9 15 -6 11 -9 22
-6 24 7 7 68 -28 74 -42 3 -8 11 -14 19 -14 8 0 19 -8 25 -19 7 -11 19 -16 31
-13 25 6 24 -28 -2 -58 -11 -12 -22 -31 -25 -41 -4 -11 -11 -19 -16 -19 -5 0
-14 -11 -19 -25 -5 -14 -20 -27 -35 -31 -15 -4 -25 -13 -25 -24 0 -32 -89 -52
-131 -30 -16 9 -19 7 -19 -9 0 -45 102 -54 141 -12 11 12 24 21 29 21 6 0 9
-36 8 -84 -1 -62 2 -90 14 -107 27 -40 74 -89 86 -89 15 0 15 -35 1 -61 -7
-15 -6 -28 5 -51 9 -17 16 -48 16 -69 0 -56 43 -88 115 -88 43 1 60 -4 88 -25
36 -28 75 -34 95 -14 9 9 15 9 25 -1 9 -10 9 -15 0 -18 -6 -2 -19 -26 -28 -54
-9 -27 -21 -49 -25 -49 -5 0 -18 -20 -28 -44 -11 -24 -25 -47 -31 -50 -6 -4
-11 -16 -11 -27 0 -21 -22 -49 -37 -49 -4 0 -14 -13 -21 -30 -8 -16 -20 -30
-28 -30 -8 0 -17 -7 -20 -15 -4 -8 -11 -15 -16 -15 -13 0 -47 -41 -48 -57 0
-7 -9 -13 -20 -13 -11 0 -20 -4 -20 -9 0 -5 -8 -11 -17 -14 -10 -3 -34 -14
-53 -25 -19 -11 -48 -25 -63 -31 -16 -6 -31 -20 -34 -31 -3 -11 -9 -20 -13
-20 -4 0 -11 -10 -15 -22 -7 -20 -9 -19 -12 12 -3 19 -9 39 -14 45 -12 12 -12
85 0 85 5 0 11 -7 15 -15 3 -8 10 -15 16 -15 14 0 2 47 -22 88 -25 40 -93 112
-107 112 -6 0 -11 4 -11 9 0 5 -16 16 -35 25 -19 9 -35 20 -35 24 0 4 -13 13
-29 19 -23 8 -32 21 -45 65 -8 29 -18 79 -22 109 -5 46 -3 58 11 70 9 8 31 29
49 48 17 19 48 51 69 73 21 22 37 49 37 62 0 13 7 29 15 36 8 7 15 21 15 31 0
10 5 21 11 25 7 4 9 28 5 68 -3 33 -9 96 -12 139 -5 60 -10 77 -22 77 -13 0
-13 3 -4 12 15 15 16 50 2 64 -7 7 -5 28 4 65 8 31 15 75 14 99 0 29 5 46 16
52 8 5 29 29 46 53 29 42 50 57 50 35z m-4146 -331 c22 -6 50 -15 61 -20 18
-8 179 -29 460 -59 171 -19 257 -41 280 -74 7 -9 43 -36 81 -61 38 -24 74 -48
79 -52 6 -5 29 -17 53 -27 23 -11 42 -23 42 -28 0 -4 8 -8 18 -8 26 -1 57 -31
72 -70 8 -19 16 -37 20 -40 10 -9 50 -115 50 -132 0 -9 5 -20 10 -23 13 -8 13
-112 1 -120 -5 -3 -12 4 -16 15 -3 11 -31 36 -61 56 -31 21 -60 48 -65 61 -5
13 -16 26 -24 29 -8 4 -15 14 -15 24 0 11 -4 22 -10 25 -5 3 -10 15 -10 26 0
10 -3 19 -7 20 -5 1 -26 3 -47 5 -44 3 -96 22 -96 34 0 4 -8 10 -17 14 -54 19
-73 23 -73 17 0 -5 -10 -13 -22 -19 -21 -11 -21 -12 -3 -10 27 2 55 -12 55
-27 0 -6 -11 -24 -25 -39 -14 -15 -25 -31 -25 -37 0 -5 -40 -9 -90 -9 -69 0
-90 3 -90 13 0 27 45 62 103 81 28 9 20 26 -13 26 -25 0 -30 4 -30 25 0 14 -2
25 -5 25 -10 0 -45 -35 -45 -45 0 -6 -17 -29 -38 -50 -21 -22 -42 -49 -46 -60
-8 -19 -9 -18 -18 8 -15 43 -37 35 -28 -10 12 -67 40 -106 171 -234 132 -131
152 -163 134 -218 -11 -34 -25 -24 -25 18 0 32 -6 44 -36 70 -26 23 -41 30
-57 25 -21 -6 -43 -26 -49 -46 -5 -14 -76 29 -128 77 -61 57 -120 95 -147 95
-13 0 -23 4 -23 9 0 5 -24 12 -53 15 -29 4 -68 17 -87 29 -18 12 -41 27 -50
32 -17 10 -100 95 -100 102 0 2 -13 18 -30 36 -16 18 -30 37 -30 44 0 15 -35
35 -44 26 -3 -4 1 -15 11 -25 20 -22 20 -22 -117 -8 -108 12 -124 22 -114 80
10 63 67 215 85 230 3 3 14 21 24 40 24 48 111 130 137 130 11 0 39 -5 62 -11z
m-664 -69 c0 -5 -5 -10 -11 -10 -5 0 -7 5 -4 10 3 6 8 10 11 10 2 0 4 -4 4
-10z m3869 -1 c46 -16 38 -31 -16 -27 -36 2 -49 7 -51 21 -4 20 19 22 67 6z
m101 -26 c-1 -12 -44 -41 -66 -43 -34 -4 -44 0 -44 16 0 13 8 15 35 12 27 -3
32 -1 23 9 -8 10 -4 13 21 13 17 0 31 -3 31 -7z m74 -108 c8 -50 -2 -135 -15
-135 -4 0 -22 -13 -39 -30 -40 -39 -91 -42 -108 -5 -6 14 -8 25 -3 25 15 0 22
32 10 46 -9 11 -8 18 1 29 10 13 9 15 -8 15 -12 0 -33 5 -47 12 -20 9 -25 18
-23 37 3 24 8 26 60 31 31 3 60 8 64 13 4 4 29 7 55 7 l47 0 6 -45z m-6239
-468 c-5 -413 -8 -477 -25 -477 -4 0 -36 20 -71 44 l-64 43 -5 159 c-3 87 -2
161 3 163 13 5 70 69 84 94 7 12 12 32 13 44 0 12 4 23 9 25 16 5 39 150 34
210 -7 71 5 158 18 137 5 -8 7 -193 4 -442z m85 370 c13 -18 15 -64 14 -272 0
-137 -4 -325 -9 -417 -6 -125 -5 -168 4 -168 6 0 11 -7 11 -15 0 -9 -9 -15
-23 -15 l-23 0 1 455 c0 250 2 455 5 455 3 0 12 -11 20 -23z m106 -109 c19
-18 93 -90 164 -160 71 -71 132 -128 136 -128 4 0 16 -10 28 -23 11 -13 40
-35 63 -51 77 -51 76 -49 56 -167 -12 -77 -14 -104 -5 -107 7 -2 12 -10 12
-18 0 -8 5 -14 10 -14 6 0 10 -4 10 -10 0 -6 -53 -10 -137 -10 -180 0 -304
-15 -345 -40 -18 -11 -36 -20 -40 -20 -4 0 -7 176 -8 390 0 265 3 390 10 390
6 0 26 -15 46 -32z m2125 -29 c-9 -22 -10 -22 -10 -3 -1 11 2 24 6 27 12 12
14 0 4 -24z m5923 -10 c7 -7 -64 -24 -183 -44 -51 -9 -100 -23 -108 -31 -8 -8
-19 -12 -24 -8 -5 3 -2 12 6 20 8 9 18 26 21 40 7 26 34 33 34 8 0 -9 5 -12
12 -8 7 5 28 7 48 6 19 -1 52 4 72 11 37 13 111 17 122 6z m-4469 -15 c22 -8
48 -17 58 -21 9 -3 17 -10 17 -16 0 -5 6 -15 14 -21 8 -6 26 -32 40 -58 l24
-48 -25 -20 c-14 -11 -28 -20 -32 -20 -19 1 -37 24 -46 62 -8 31 -18 47 -38
56 -15 7 -27 17 -27 23 0 5 -6 9 -14 9 -16 0 -46 37 -46 57 0 17 26 16 75 -3z
m4668 -46 c31 -6 57 -14 57 -18 0 -4 19 -12 43 -19 23 -7 49 -19 57 -25 8 -7
31 -19 50 -26 19 -8 49 -24 66 -37 17 -13 38 -23 47 -23 10 0 17 -3 17 -7 1
-5 25 -26 54 -48 30 -22 62 -55 72 -72 9 -18 23 -33 31 -33 7 0 13 -3 13 -7 0
-5 14 -24 30 -43 16 -19 30 -40 30 -47 0 -6 3 -13 8 -15 13 -6 79 -97 98 -138
4 -8 16 -21 26 -28 10 -7 18 -17 18 -22 0 -13 53 -90 62 -90 4 0 8 -7 8 -16 0
-9 13 -35 28 -58 15 -22 35 -57 45 -77 9 -20 23 -42 32 -49 8 -7 15 -19 15
-26 0 -8 14 -36 30 -62 17 -27 30 -56 30 -65 0 -8 4 -17 8 -19 9 -3 72 -125
72 -139 0 -5 14 -31 30 -57 17 -27 30 -55 30 -63 0 -8 13 -39 30 -69 16 -30
29 -63 30 -72 0 -10 4 -18 9 -18 5 0 12 -12 16 -27 3 -15 17 -50 30 -78 48
-101 85 -194 85 -212 0 -10 6 -27 13 -38 8 -11 33 -76 57 -145 24 -69 47 -127
50 -130 4 -3 13 -30 20 -60 7 -30 18 -66 26 -80 7 -14 20 -56 29 -95 10 -38
21 -79 25 -90 9 -22 62 -195 81 -265 7 -25 16 -47 19 -50 7 -7 32 -96 38 -137
2 -18 8 -33 12 -33 5 0 12 -15 15 -32 9 -39 32 -115 45 -143 5 -11 14 -40 21
-65 6 -25 15 -49 19 -55 4 -5 16 -41 25 -80 10 -38 21 -74 25 -80 10 -14 47
-129 70 -219 12 -43 25 -85 29 -94 5 -9 17 -54 27 -100 10 -46 21 -85 26 -88
4 -3 8 -15 8 -27 0 -12 9 -47 19 -77 10 -30 21 -77 26 -105 4 -27 11 -55 15
-60 5 -6 13 -39 19 -75 5 -36 17 -90 26 -120 9 -30 19 -80 22 -110 3 -30 11
-59 18 -65 7 -5 16 -39 20 -74 3 -36 13 -83 22 -105 8 -23 19 -72 23 -111 8
-69 8 -71 -42 -190 -75 -177 -246 -512 -357 -697 -114 -191 -220 -352 -228
-344 -3 3 -9 42 -14 88 -5 46 -16 133 -24 193 -8 61 -21 173 -30 249 -8 77
-19 142 -24 145 -5 3 -11 51 -14 106 -3 55 -12 138 -21 185 -20 111 -36 239
-47 374 -4 59 -13 114 -18 120 -5 6 -14 62 -19 123 -6 61 -15 120 -21 131 -6
11 -11 37 -11 56 0 20 -6 80 -14 134 -8 53 -17 135 -21 182 -7 103 -15 151
-27 166 -5 7 -13 57 -17 112 -5 55 -14 109 -20 121 -7 11 -16 71 -22 133 -6
62 -14 117 -19 123 -5 6 -14 48 -20 95 -6 47 -16 89 -21 94 -5 6 -9 32 -9 59
0 26 -4 56 -9 66 -6 10 -19 75 -31 145 -11 70 -27 147 -35 169 -7 23 -17 71
-21 107 -4 36 -10 67 -13 70 -4 3 -14 50 -23 105 -9 55 -24 114 -32 130 -9 17
-16 47 -16 67 0 21 -7 58 -16 84 -8 25 -19 67 -24 93 -19 108 -32 167 -40 176
-5 6 -16 50 -25 98 -9 48 -23 99 -31 115 -7 15 -14 36 -14 46 0 11 -4 33 -10
50 -5 17 -21 72 -36 121 -14 50 -29 95 -34 100 -4 6 -13 35 -20 65 -7 30 -21
69 -31 86 -11 17 -19 41 -19 52 0 20 -18 66 -75 187 -13 28 -26 65 -30 83 -4
17 -13 32 -20 32 -14 0 -25 21 -25 50 0 10 -8 25 -18 32 -22 15 -42 50 -42 71
0 8 -15 30 -32 49 -18 18 -49 52 -69 76 -20 23 -41 42 -47 42 -5 0 -17 12 -27
26 -9 14 -30 30 -46 36 -16 5 -29 16 -29 24 0 8 -6 14 -14 14 -8 0 -21 9 -29
20 -8 11 -38 27 -67 36 -29 8 -62 26 -75 40 -15 16 -33 24 -56 24 -19 0 -52 5
-74 10 -89 20 -178 20 -260 0 -44 -11 -94 -20 -111 -20 -17 0 -37 -7 -44 -15
-7 -8 -23 -15 -36 -15 -12 0 -26 -4 -29 -10 -3 -5 -17 -10 -31 -10 -13 0 -24
-4 -24 -10 0 -5 -4 -10 -9 -10 -17 0 -91 -53 -91 -66 0 -6 -13 -17 -29 -23
-33 -14 -131 -107 -131 -124 0 -7 -16 -23 -35 -36 -19 -13 -35 -27 -35 -30 0
-4 -8 -16 -18 -27 -10 -11 -27 -32 -37 -47 -10 -16 -24 -26 -31 -23 -19 7 -52
-52 -64 -113 -10 -52 -56 -161 -68 -161 -7 0 -18 -24 -37 -75 -16 -43 -17 7
-1 55 9 27 16 62 16 79 0 16 6 36 14 44 8 8 18 31 21 51 4 20 10 36 14 36 10
0 41 72 41 94 0 17 17 56 29 66 4 3 12 16 19 30 6 14 16 32 20 40 22 39 32 61
32 72 0 7 18 31 40 53 21 22 39 45 40 51 0 19 112 140 182 199 20 17 48 40 63
53 15 12 33 22 40 22 7 0 15 3 17 8 2 4 19 15 38 24 100 48 154 68 202 74 29
4 61 11 72 16 24 13 178 27 236 21 25 -2 71 -9 103 -15z m-4723 -17 c0 -5 9
-12 19 -16 23 -7 17 -45 -8 -45 -25 0 -37 12 -45 43 -5 23 -3 27 14 27 11 0
20 -4 20 -9z m-70 -41 c0 -5 7 -10 15 -10 14 0 35 -29 35 -49 0 -6 -9 -11 -20
-11 -11 0 -20 6 -20 14 0 7 -7 19 -15 26 -17 14 -20 40 -5 40 6 0 10 -4 10
-10z m154 -52 c10 -41 7 -48 -24 -48 -26 0 -30 4 -30 28 0 16 3 32 7 35 14 15
41 6 47 -15z m3916 -13 c0 -8 -6 -15 -13 -15 -7 0 -20 -8 -29 -17 -9 -10 -23
-23 -30 -30 -7 -7 -19 -19 -26 -28 -7 -8 -17 -15 -22 -15 -13 0 -7 22 17 63
17 27 29 37 48 37 14 0 25 5 25 10 0 6 7 10 15 10 8 0 15 -7 15 -15z m-4002
-40 c4 -18 -13 -35 -35 -35 -16 0 -17 32 -1 48 16 16 32 10 36 -13z m3872 21
c0 -3 -4 -8 -10 -11 -5 -3 -10 -1 -10 4 0 6 5 11 10 11 6 0 10 -2 10 -4z
m-3588 -22 c23 -11 41 -33 61 -73 32 -65 34 -82 9 -104 -13 -12 -26 -14 -45
-9 -32 8 -57 46 -84 127 -6 17 -14 37 -18 47 -4 11 -1 18 12 21 30 8 31 8 65
-9z m-132 -29 c0 -14 8 -38 17 -52 18 -26 17 -27 -2 -18 -43 18 -99 16 -134
-5 -18 -12 -31 -24 -27 -27 3 -3 12 -1 20 6 18 15 76 32 87 25 5 -3 -2 -20
-16 -38 -53 -69 -82 -204 -62 -283 l14 -51 -26 9 c-69 27 -85 69 -82 229 2
133 9 155 56 186 35 23 94 43 128 44 22 0 27 -4 27 -25z m3694 10 c3 -9 0 -15
-9 -15 -9 0 -12 6 -9 15 4 8 7 15 9 15 2 0 5 -7 9 -15z m-3904 -47 c0 -22 -17
-41 -30 -33 -8 5 -7 12 6 26 20 22 24 23 24 7z m3880 -8 c0 -5 -7 -10 -15 -10
-8 0 -15 5 -15 10 0 6 7 10 15 10 8 0 15 -4 15 -10z m-30 -50 c0 -5 -5 -10
-11 -10 -5 0 -7 5 -4 10 3 6 8 10 11 10 2 0 4 -4 4 -10z m872 -34 c48 -13 96
-30 106 -39 10 -10 24 -17 30 -17 7 0 12 -4 12 -10 0 -5 11 -10 24 -10 13 0
26 -7 30 -15 3 -8 17 -20 31 -27 14 -6 25 -17 25 -23 0 -7 14 -18 30 -25 18
-8 30 -20 30 -31 0 -12 10 -23 25 -29 14 -5 29 -18 32 -27 4 -10 22 -34 40
-53 18 -19 36 -43 39 -53 3 -10 16 -29 29 -42 12 -14 25 -39 29 -55 3 -17 12
-30 20 -30 7 0 17 -12 20 -27 10 -38 30 -83 37 -83 4 0 9 -13 12 -30 4 -16 16
-49 27 -72 11 -23 20 -47 20 -53 0 -5 14 -39 31 -74 17 -35 34 -82 36 -105 3
-23 11 -45 17 -51 7 -5 20 -44 30 -85 9 -41 21 -84 26 -95 5 -11 17 -51 26
-90 9 -38 20 -74 24 -80 4 -5 10 -26 13 -45 12 -76 28 -135 37 -138 6 -2 10
-21 10 -42 0 -20 6 -56 14 -78 8 -22 12 -42 10 -45 -3 -3 4 -33 15 -68 12 -34
21 -75 21 -91 0 -16 9 -54 20 -86 11 -31 28 -104 36 -162 9 -58 20 -109 25
-114 5 -6 9 -34 9 -63 0 -29 4 -53 9 -53 9 0 16 -36 40 -205 10 -70 6 -121
-10 -130 -4 -3 -5 -13 -2 -21 3 -8 1 -25 -5 -37 -6 -12 -13 -43 -17 -69 -3
-27 -12 -49 -20 -52 -8 -3 -15 -15 -15 -26 0 -11 -7 -23 -15 -26 -8 -4 -15
-15 -15 -25 0 -11 -8 -23 -17 -26 -10 -4 -31 -20 -48 -35 -16 -15 -38 -28 -47
-28 -10 0 -18 -4 -18 -10 0 -5 -11 -10 -24 -10 -14 0 -27 -4 -30 -9 -4 -5 -24
-12 -46 -16 -22 -4 -42 -11 -46 -16 -6 -11 -44 -12 -44 -1 0 4 9 13 20 20 19
12 27 42 14 55 -9 9 -34 -3 -34 -17 0 -17 -50 -68 -90 -93 -19 -12 -66 -29
-105 -38 -38 -9 -83 -21 -99 -25 -25 -8 -28 -7 -23 10 4 17 0 20 -24 20 -20 0
-29 -5 -29 -16 0 -19 -28 -43 -50 -44 -8 0 -27 -7 -42 -14 -26 -14 -69 -23
-142 -30 -16 -2 -48 7 -74 21 l-44 24 4 -30 c4 -25 0 -32 -23 -41 -15 -7 -33
-9 -39 -5 -6 4 -16 2 -23 -4 -7 -5 -47 -14 -90 -19 -64 -8 -89 -7 -148 8 -42
11 -67 14 -60 7 18 -18 13 -27 -14 -27 -14 0 -25 -4 -25 -10 0 -15 -22 -12
-68 10 -22 11 -46 20 -52 20 -5 0 -10 5 -10 11 0 6 -18 28 -40 50 -22 22 -40
43 -40 48 0 4 -8 18 -19 30 -10 11 -21 39 -25 60 -3 22 -12 46 -19 53 -20 21
-37 66 -37 98 0 15 -8 48 -19 72 -10 24 -22 71 -26 104 -6 58 -5 63 22 91 15
17 43 36 61 44 17 8 32 18 32 22 0 14 84 97 98 97 6 0 12 4 12 9 0 4 16 23 36
42 115 109 184 180 184 189 0 19 28 10 44 -15 9 -14 21 -25 26 -25 13 0 13 27
0 32 -6 2 -13 19 -16 38 -5 32 -3 36 25 48 18 8 31 21 31 32 0 32 48 40 76 13
17 -17 18 -17 10 2 -22 54 -15 75 52 143 17 19 32 38 32 42 0 9 40 22 113 37
45 9 46 28 2 29 -16 0 -34 1 -39 2 -13 3 23 40 46 48 28 8 127 76 167 113 18
17 41 36 50 41 14 8 14 9 -1 10 -10 0 -23 -9 -30 -20 -7 -11 -17 -20 -21 -20
-5 0 -29 -13 -54 -30 -24 -16 -50 -30 -57 -30 -6 0 -17 -5 -24 -12 -6 -6 -15
-8 -19 -3 -5 4 -2 10 5 12 6 3 12 10 12 17 0 7 8 21 18 32 10 10 27 35 38 54
10 19 22 37 25 40 3 3 14 26 25 52 10 27 22 48 27 48 4 0 7 9 7 20 0 11 -4 20
-10 20 -5 0 -10 -5 -10 -11 0 -6 -11 -24 -25 -41 -14 -16 -25 -35 -25 -42 0
-7 -9 -21 -20 -31 -11 -10 -20 -24 -20 -32 0 -7 -4 -13 -9 -13 -5 0 -13 -10
-17 -22 -4 -12 -17 -31 -30 -41 -13 -10 -24 -23 -24 -28 0 -6 -11 -20 -25 -33
-14 -13 -25 -28 -25 -35 0 -6 -6 -11 -14 -11 -8 0 -17 -8 -20 -17 -4 -10 -26
-40 -51 -66 -25 -26 -45 -52 -45 -58 0 -5 -11 -14 -25 -19 -14 -5 -25 -15 -25
-22 0 -7 -22 -36 -48 -64 -26 -29 -55 -60 -64 -70 -21 -23 -19 -22 -137 -137
-52 -51 -115 -112 -141 -137 -25 -25 -75 -69 -110 -97 -36 -29 -70 -58 -76
-65 -6 -7 -20 -20 -30 -28 -11 -9 -61 -50 -112 -93 -51 -42 -99 -77 -107 -77
-8 0 -15 -6 -15 -13 0 -7 -19 -24 -42 -37 -24 -13 -52 -32 -62 -42 -11 -10
-26 -18 -34 -18 -7 0 -27 -13 -44 -30 -16 -17 -40 -30 -54 -30 -15 0 -24 -6
-24 -15 0 -9 -8 -18 -17 -21 -31 -10 -83 -38 -83 -45 0 -4 -11 -10 -25 -13
-14 -4 -25 -11 -25 -16 0 -6 -11 -10 -24 -10 -14 0 -31 -7 -40 -15 -8 -8 -24
-15 -35 -15 -12 0 -21 -4 -21 -9 0 -12 -80 -41 -113 -41 -15 0 -27 -4 -27 -8
0 -26 -306 -68 -485 -66 -517 4 -636 7 -670 12 l-40 7 -6 65 c-3 36 -11 110
-18 165 -9 70 -9 101 -2 103 7 2 7 10 -2 25 -15 27 -13 825 3 952 5 44 14 131
20 193 6 62 17 148 25 190 8 42 15 98 15 125 0 39 3 47 19 47 10 0 25 -7 32
-16 16 -19 54 -36 89 -40 14 -1 45 -7 70 -13 25 -6 61 -14 80 -18 19 -3 37 -9
40 -12 8 -10 139 -49 190 -57 25 -4 88 -8 140 -9 69 0 103 -5 125 -18 17 -9
35 -17 40 -17 6 0 21 -18 35 -40 13 -22 28 -40 32 -40 4 0 14 -16 22 -35 8
-19 20 -35 25 -35 6 0 11 -8 11 -17 1 -10 7 -29 14 -41 12 -22 13 -20 10 25
-3 39 -10 57 -34 83 -16 17 -30 38 -30 46 0 22 44 16 84 -11 20 -14 44 -25 52
-25 9 0 18 -9 21 -20 3 -11 11 -20 18 -20 8 0 16 -9 20 -19 6 -20 41 -38 52
-27 4 3 -1 6 -10 6 -9 0 -17 7 -17 15 0 20 -29 65 -42 65 -5 0 -26 13 -46 29
-20 16 -52 32 -69 36 -35 7 -55 26 -35 33 7 2 19 10 26 18 17 16 66 18 110 5
92 -28 109 -30 129 -16 18 13 17 14 -18 17 -21 2 -40 8 -42 14 -3 10 42 59
132 145 12 10 27 19 34 19 18 0 100 52 101 64 0 5 16 28 35 52 19 23 35 47 35
52 0 5 6 12 14 15 8 3 17 19 21 36 4 17 10 31 14 31 4 0 14 12 21 26 25 46
153 164 179 164 5 0 19 14 31 30 12 17 26 30 32 30 5 0 21 9 35 20 19 15 21
20 9 20 -9 0 -16 -4 -16 -8 0 -9 -64 -42 -80 -42 -4 0 2 19 14 43 12 23 31 65
41 92 10 28 26 57 36 67 11 9 19 22 19 28 0 16 48 106 77 146 13 17 23 36 23
42 0 7 8 20 19 31 10 10 37 44 60 75 23 31 45 56 50 56 4 0 40 32 80 70 39 39
81 70 91 70 11 0 20 7 20 15 0 8 7 15 15 15 8 0 15 5 15 10 0 6 9 10 20 10 10
0 27 8 37 18 10 11 52 27 93 37 41 10 84 21 95 26 56 24 223 16 347 -15z
m-4822 -56 c28 -20 43 -68 29 -92 -6 -9 -14 -7 -31 9 -13 12 -35 26 -50 32
-30 11 -29 34 0 59 20 15 19 16 52 -8z m-2790 -30 c23 -19 59 -50 79 -67 20
-18 39 -33 43 -33 16 0 90 -78 80 -84 -6 -3 -69 -3 -141 0 l-131 7 0 47 c0 72
12 171 20 168 5 -2 27 -19 50 -38z m3249 24 c38 6 38 6 45 -32 9 -55 7 -93 -8
-133 -17 -50 -101 -156 -136 -174 -43 -22 -112 -29 -153 -16 -44 15 -112 87
-138 148 -17 40 -18 49 -6 60 12 12 18 6 40 -40 29 -58 56 -77 113 -77 94 0
174 109 174 238 0 38 2 43 15 32 10 -8 29 -10 54 -6z m2881 -114 c12 -22 -2
-99 -19 -110 -6 -3 -15 -26 -20 -51 -5 -24 -16 -80 -26 -124 -43 -200 -49
-337 -32 -687 4 -73 2 -118 -3 -118 -6 0 -10 11 -10 24 0 13 -7 26 -15 30 -11
4 -15 -1 -15 -19 0 -14 5 -25 12 -25 6 0 3 -9 -7 -20 -10 -11 -22 -20 -26 -20
-9 0 -20 197 -19 355 1 257 3 295 11 295 5 0 9 21 10 48 0 26 5 70 10 97 5 28
12 68 15 90 3 22 9 44 13 50 5 5 14 33 21 62 6 29 18 57 25 63 8 7 19 27 25
46 13 38 34 44 50 14z m480 -20 c0 -5 -4 -10 -10 -10 -5 0 -10 5 -10 10 0 6 5
10 10 10 6 0 10 -4 10 -10z m-58 -22 c-7 -7 -12 -20 -12 -29 0 -10 -9 -20 -19
-24 -13 -4 -21 -19 -26 -48 -4 -23 -14 -53 -23 -67 -27 -41 -42 -71 -42 -85 0
-7 -6 -18 -14 -24 -8 -7 -18 -31 -21 -54 -7 -39 -22 -76 -36 -87 -8 -6 -54
-152 -64 -200 -4 -19 -13 -53 -20 -75 -7 -22 -18 -59 -25 -82 -7 -23 -24 -52
-36 -64 -13 -13 -24 -27 -24 -33 0 -6 -13 -26 -29 -45 l-29 -34 -7 36 c-4 21
-11 39 -15 42 -4 3 -8 94 -9 202 0 187 5 230 32 290 5 12 7 33 3 48 -4 14 -1
62 6 106 10 62 16 79 28 77 12 -3 15 -24 15 -128 0 -69 4 -140 8 -157 15 -59
37 -34 37 40 0 23 9 78 20 121 10 44 17 82 15 86 -7 11 24 33 98 70 37 18 67
37 67 41 0 4 16 16 35 25 19 9 35 21 35 27 0 13 31 36 50 37 11 0 11 -3 2 -12z
m-8056 -99 c24 -6 44 -15 44 -20 0 -5 11 -9 25 -9 16 0 25 6 25 15 0 24 114
18 208 -10 16 -6 22 -3 22 9 0 19 0 19 92 2 91 -18 140 -39 189 -79 48 -39 49
-57 7 -58 -32 0 -32 -1 -8 -10 14 -6 38 -9 55 -8 17 2 35 0 40 -3 6 -4 31 -5
55 -3 25 1 54 -3 66 -10 11 -7 31 -15 44 -17 12 -1 29 -13 38 -25 14 -22 13
-23 -21 -23 -20 0 -39 -4 -42 -10 -4 -6 31 -10 99 -10 59 0 108 -4 111 -10 3
-5 20 -10 36 -10 16 0 55 -9 87 -21 59 -22 96 -30 247 -54 50 -7 110 -18 135
-23 25 -6 79 -16 120 -23 41 -7 80 -16 85 -20 6 -4 28 -10 50 -14 48 -8 106
-26 121 -37 7 -5 36 -11 65 -15 82 -9 251 -55 287 -79 13 -9 39 -18 56 -21 17
-2 51 -15 75 -29 24 -13 52 -24 61 -24 10 0 20 -3 22 -8 2 -4 21 -21 44 -37
51 -37 124 -103 124 -111 0 -4 11 -17 24 -29 13 -12 30 -35 38 -51 16 -31 71
-203 86 -269 17 -71 72 -268 94 -335 26 -81 35 -115 53 -210 8 -41 21 -109 30
-150 30 -141 54 -275 60 -335 4 -33 13 -80 20 -105 7 -25 20 -97 29 -160 9
-63 21 -128 26 -145 5 -16 16 -86 25 -154 8 -68 18 -129 22 -134 9 -15 58
-293 83 -477 8 -52 17 -97 20 -100 4 -3 13 -43 19 -90 7 -47 19 -110 27 -140
8 -31 19 -89 24 -130 25 -176 25 -163 4 -157 -10 3 -44 11 -74 18 -30 7 -58
18 -62 23 -4 7 -100 12 -246 14 -215 4 -247 2 -323 -16 -46 -12 -106 -24 -134
-27 -50 -7 -174 -37 -230 -57 -16 -5 -57 -16 -90 -23 -33 -6 -82 -19 -108 -29
-26 -9 -57 -16 -67 -16 -11 0 -20 -4 -20 -10 0 -5 -6 -10 -14 -10 -14 0 -67
-14 -186 -51 -121 -37 -215 -61 -245 -62 l-30 -2 -7 95 c-8 120 -25 332 -43
525 -8 83 -17 210 -21 283 -3 72 -10 132 -15 132 -5 0 -9 37 -9 83 0 192 -34
664 -60 817 -5 30 -14 109 -20 175 -6 66 -15 136 -20 155 -5 19 -14 96 -20
169 -5 74 -14 137 -18 140 -5 3 -12 53 -16 109 -3 57 -11 112 -16 122 -6 11
-13 54 -17 97 -3 43 -10 80 -14 83 -5 3 -16 42 -25 85 -10 44 -21 81 -26 83
-4 2 -12 21 -18 42 -12 46 -72 148 -100 172 -11 9 -20 21 -20 27 0 6 -3 11 -8
11 -4 0 -19 11 -33 24 -14 13 -40 31 -57 40 -18 9 -32 20 -32 25 0 5 -21 16
-47 26 -27 10 -60 26 -75 36 -14 11 -31 19 -36 19 -6 0 -33 11 -60 25 -28 14
-56 25 -65 25 -8 0 -40 13 -70 28 -31 16 -89 39 -129 52 -76 24 -102 34 -128
48 -42 24 -62 32 -80 32 -11 0 -20 4 -20 8 0 4 -13 13 -29 19 -16 6 -37 25
-47 44 -21 42 -73 92 -99 96 -28 5 -65 31 -65 46 0 7 -11 37 -25 65 -14 29
-25 54 -25 58 0 3 -11 20 -24 37 -39 54 -41 59 -12 51 17 -4 31 -1 41 10 19
19 32 20 91 5z m1828 -34 c16 -14 33 -25 37 -25 4 0 19 -11 33 -25 14 -14 32
-25 41 -25 8 0 15 -4 15 -10 0 -5 25 -26 55 -46 30 -20 55 -41 55 -45 0 -5 7
-9 15 -9 8 0 15 -4 15 -8 0 -4 15 -16 33 -27 17 -10 34 -22 37 -25 3 -4 25
-20 49 -36 24 -16 55 -37 69 -46 14 -9 28 -21 31 -26 3 -5 15 -14 26 -21 11
-7 13 -11 5 -8 -8 2 -55 16 -105 30 -162 46 -238 65 -343 86 -56 11 -115 27
-132 36 -16 8 -40 15 -54 15 -14 0 -51 7 -83 16 -86 24 -295 57 -444 70 -64 5
-82 11 -109 34 -18 16 -58 41 -89 56 -37 19 -50 29 -38 32 9 2 17 7 17 12 0
14 67 16 465 18 l370 2 29 -25z m1651 5 c3 -5 17 -10 31 -10 13 0 24 -4 24
-10 0 -5 11 -10 24 -10 13 0 27 -7 30 -15 3 -9 19 -20 34 -26 16 -5 34 -21 40
-34 7 -14 18 -25 27 -25 8 0 15 -6 15 -14 0 -8 7 -16 15 -20 8 -3 15 -14 15
-25 0 -10 7 -21 15 -25 8 -3 15 -16 15 -29 0 -13 5 -28 12 -35 23 -23 38 -89
38 -175 0 -90 -23 -214 -44 -232 -6 -5 -17 -23 -24 -40 -22 -51 -62 -103 -83
-108 -11 -3 -23 -14 -26 -25 -3 -11 -16 -23 -29 -26 -13 -4 -24 -11 -24 -16 0
-6 -7 -10 -15 -10 -8 0 -15 -4 -15 -9 0 -5 -25 -13 -55 -16 -30 -4 -58 -11
-61 -16 -7 -12 -81 -11 -89 1 -3 6 -19 10 -36 10 -31 0 -109 30 -109 42 0 5
-7 8 -15 8 -18 0 -108 65 -147 106 -36 39 -63 103 -46 108 67 21 101 7 111
-44 4 -18 13 -30 22 -30 9 0 18 -7 21 -15 4 -8 12 -15 20 -15 7 0 23 -10 34
-22 20 -22 87 -48 123 -48 33 0 7 18 -36 25 -23 4 -50 16 -60 26 -10 11 -23
19 -30 19 -7 0 -23 14 -36 30 -13 17 -28 30 -35 30 -6 0 -19 19 -28 41 -16 39
-16 42 0 65 9 13 20 24 24 24 8 0 88 105 88 115 0 3 11 18 25 33 14 15 25 32
25 39 0 6 4 13 9 15 10 4 81 144 81 160 0 6 12 35 26 65 l25 55 42 -6 42 -5
-39 13 c-42 13 -54 29 -38 49 5 7 12 24 16 40 6 27 38 38 51 17z m4540 -30 c3
-5 1 -10 -4 -10 -6 0 -11 5 -11 10 0 6 2 10 4 10 3 0 8 -4 11 -10z m-535 -8
c0 -5 -7 -31 -15 -58 -8 -27 -15 -65 -15 -84 0 -19 -5 -51 -10 -70 -6 -19 -15
-145 -20 -278 -5 -134 -11 -247 -14 -250 -4 -3 -13 3 -22 14 -15 18 -15 18 -9
-6 3 -14 10 -52 16 -85 5 -33 14 -68 20 -77 13 -26 11 -31 -11 -25 -18 5 -20
2 -15 -26 6 -28 0 -39 -38 -80 -39 -43 -48 -48 -83 -46 -56 3 -135 -19 -162
-44 -23 -22 -24 -22 -38 -2 -18 24 -97 44 -179 45 -75 0 -99 12 -70 35 37 29
53 36 60 25 8 -13 105 -13 105 0 0 6 -11 10 -25 10 -47 0 -22 50 73 148 41 43
62 74 66 97 4 19 10 35 14 35 5 0 16 20 26 45 11 25 23 45 28 45 4 0 8 5 8 10
0 10 36 50 45 50 3 0 10 0 15 0 6 0 10 20 10 45 0 44 16 94 34 107 5 3 13 32
17 64 4 32 13 68 18 81 23 49 30 69 36 106 3 20 11 37 18 37 7 0 18 12 25 28
7 15 18 36 25 47 7 11 18 30 25 43 12 21 42 31 42 14z m-2384 -87 c4 -8 12
-15 20 -15 8 0 14 -6 14 -14 0 -7 27 -40 60 -72 34 -32 82 -80 108 -106 26
-26 52 -48 59 -48 6 0 18 -8 25 -19 7 -10 29 -26 48 -36 19 -10 40 -25 46 -34
7 -9 24 -29 38 -46 39 -44 46 -53 46 -61 0 -4 12 -23 28 -43 33 -44 52 -79 52
-98 0 -8 9 -34 20 -59 16 -34 26 -44 44 -44 15 0 30 -10 42 -27 17 -27 17 -33
-19 -253 -21 -124 -40 -246 -44 -272 -7 -55 -21 -61 -46 -18 -14 23 -25 30
-48 30 -16 0 -29 4 -29 9 0 5 -12 12 -27 16 -36 9 -53 23 -53 45 0 23 -71 50
-130 50 -57 0 -271 29 -290 39 -15 8 -96 22 -202 36 -27 3 -48 11 -48 16 0 5
-16 17 -35 26 -19 9 -35 20 -35 23 0 4 -25 13 -55 20 -31 7 -68 24 -83 37 -15
12 -31 23 -35 23 -8 0 -15 5 -79 60 -40 34 -132 125 -184 183 -14 15 -24 35
-21 45 4 16 4 16 11 0 10 -22 111 -124 131 -132 8 -3 19 -16 24 -29 7 -17 20
-27 43 -31 19 -3 52 -15 73 -26 21 -11 54 -25 74 -31 20 -6 43 -17 51 -24 8
-7 30 -15 48 -18 30 -6 32 -5 22 14 -6 11 -19 23 -28 25 -9 3 -26 9 -37 14
-79 32 -158 60 -170 60 -8 0 -15 4 -15 8 0 4 -13 16 -30 25 -38 23 -140 121
-140 136 0 5 -8 15 -19 20 -10 6 -28 31 -40 56 -14 30 -27 45 -40 45 -25 0
-32 21 -15 44 12 18 15 18 39 2 14 -9 25 -23 25 -31 0 -8 4 -15 9 -15 5 0 35
-25 67 -55 33 -30 63 -55 69 -55 5 0 22 -13 38 -29 26 -27 164 -81 208 -81 10
0 19 -4 19 -9 0 -10 90 -35 98 -27 12 13 -23 36 -66 42 -25 4 -64 15 -87 25
-22 10 -50 19 -62 19 -13 0 -32 9 -43 20 -10 10 -37 31 -60 45 -22 14 -40 30
-40 35 0 6 -6 10 -13 10 -7 0 -19 9 -27 20 -8 11 -19 20 -24 20 -14 0 -96 83
-96 97 0 7 -6 16 -14 20 -17 11 -36 47 -36 71 0 38 83 43 120 7 46 -45 95 -82
118 -89 12 -4 22 -12 22 -17 0 -5 18 -16 40 -25 22 -9 40 -20 40 -25 0 -4 15
-11 33 -14 17 -3 39 -7 47 -9 78 -15 140 -31 140 -38 0 -10 34 -11 44 -1 4 4
45 6 92 4 47 -1 90 2 97 7 7 5 82 12 167 16 85 4 156 9 159 11 9 10 -24 36
-60 47 -28 8 -41 18 -45 35 -4 12 -10 23 -15 23 -5 0 -9 9 -9 20 0 11 -5 20
-10 20 -6 0 -14 8 -17 17 -8 21 -91 103 -104 103 -5 0 -11 11 -15 25 -3 14
-10 25 -14 25 -16 0 -32 73 -27 123 5 62 48 103 63 62z m2874 -24 c0 -6 -4
-13 -10 -16 -5 -3 -10 1 -10 9 0 9 5 16 10 16 6 0 10 -4 10 -9z m-42 -98 c-5
-25 -28 -28 -28 -4 0 12 6 21 16 21 9 0 14 -7 12 -17z m-57 -150 c-8 -15 -10
-15 -11 -2 0 17 10 32 18 25 2 -3 -1 -13 -7 -23z m-301 1 c0 -8 -4 -12 -10 -9
-5 3 -10 10 -10 16 0 5 5 9 10 9 6 0 10 -7 10 -16z m-7829 -48 c15 -7 51 -21
80 -31 30 -10 58 -21 63 -26 6 -5 17 -9 26 -9 9 0 38 -11 66 -24 27 -13 74
-32 104 -42 30 -10 57 -21 60 -24 3 -4 21 -12 40 -20 19 -8 39 -20 43 -27 4
-7 20 -13 35 -13 15 0 41 -9 57 -20 17 -12 44 -28 60 -36 72 -35 165 -109 165
-131 0 -5 8 -18 18 -29 19 -21 62 -147 62 -182 0 -12 4 -22 9 -22 5 0 12 -30
16 -67 4 -38 11 -75 16 -84 13 -24 55 -443 64 -629 2 -30 8 -109 14 -175 15
-154 33 -482 31 -560 0 -33 4 -82 9 -110 5 -27 12 -140 15 -250 4 -110 9 -222
12 -250 2 -27 13 -216 24 -420 11 -203 24 -433 29 -510 5 -77 11 -180 12 -229
l3 -88 -39 -14 c-21 -7 -42 -11 -46 -8 -4 2 -38 7 -75 10 -69 7 -134 27 -134
43 0 5 -14 14 -31 21 -17 7 -36 18 -42 24 -13 12 -114 46 -138 46 -8 0 -48 13
-90 30 -44 17 -85 27 -97 23 -12 -3 -22 -1 -22 4 0 6 -40 16 -89 22 l-89 12
-47 122 c-198 508 -332 1074 -385 1628 -20 204 -25 348 -24 639 1 484 44 854
161 1393 6 30 16 33 54 13z m8109 -36 c0 -11 -4 -20 -9 -20 -11 0 -22 26 -14
34 12 12 23 5 23 -14z m-3625 -70 c-3 -6 -15 -10 -26 -10 -24 0 -26 37 -1 42
19 4 37 -17 27 -32z m3597 0 c-4 -28 -22 -53 -22 -31 0 12 18 61 23 61 2 0 2
-14 -1 -30z m-247 -11 c-10 -15 -25 -10 -19 6 4 8 10 12 15 9 5 -3 7 -10 4
-15z m2 -99 c2 -29 -1 -40 -12 -40 -10 0 -13 11 -12 40 2 52 21 52 24 0z
m-4739 -4 c13 -11 31 -34 39 -49 18 -36 27 -30 13 8 -13 34 -7 41 22 28 15 -7
28 -27 36 -56 8 -25 20 -48 28 -51 19 -7 18 -24 -3 -28 -11 -3 -27 7 -40 21
-11 14 -25 23 -29 19 -4 -4 -2 -14 4 -21 16 -19 6 -26 -26 -18 -19 5 -30 17
-37 42 -13 44 -39 92 -59 108 -9 8 -16 18 -16 23 0 14 42 -1 68 -26z m-2023
-46 c3 -5 1 -10 -4 -10 -6 0 -11 5 -11 10 0 6 2 10 4 10 3 0 8 -4 11 -10z
m6772 -70 c0 -22 -4 -40 -8 -40 -9 0 -12 14 -10 42 1 9 -3 19 -10 23 -8 6 -8
10 2 16 20 12 26 3 26 -41z m-6630 -20 c3 -11 14 -20 25 -20 11 0 22 -8 25
-20 3 -11 9 -18 13 -15 4 3 11 -2 14 -11 3 -8 10 -12 16 -9 5 3 10 -1 10 -10
0 -10 -5 -14 -12 -9 -7 3 2 -7 20 -23 17 -16 32 -36 32 -46 0 -9 4 -17 8 -17
5 0 9 -21 9 -47 0 -34 -1 -38 -4 -15 -3 24 -8 32 -19 28 -13 -5 -19 12 -15 38
4 24 -12 46 -29 41 -13 -4 -21 1 -26 17 -4 13 -7 29 -5 37 1 7 -2 10 -8 7 -5
-4 -12 2 -16 13 -3 11 -17 27 -31 36 -13 9 -22 20 -19 25 3 4 -1 11 -7 13 -10
4 -10 6 0 6 8 1 16 -8 19 -19z m4886 -32 c15 -7 27 -19 27 -25 0 -7 7 -13 15
-13 10 0 14 -10 13 -35 -1 -40 5 -50 26 -42 12 5 14 15 9 38 -6 29 -5 31 18
24 13 -4 28 -14 32 -21 5 -9 25 -14 52 -14 42 0 45 -2 45 -26 0 -21 3 -25 18
-18 28 12 93 13 98 1 2 -7 0 -57 -6 -112 -5 -55 -9 -125 -9 -157 0 -31 -5 -59
-11 -63 -5 -3 -10 -33 -10 -66 0 -32 -4 -59 -9 -59 -4 0 -11 -53 -14 -117 -4
-65 -11 -181 -17 -258 -6 -77 -7 -165 -4 -195 4 -30 8 -154 9 -275 2 -121 6
-304 10 -407 l7 -188 -24 0 c-14 0 -28 3 -32 7 -3 4 -32 8 -63 10 -33 2 -63 9
-74 19 -11 10 -19 12 -24 5 -3 -6 -33 -10 -66 -10 -47 1 -59 5 -60 18 0 10 -2
11 -6 4 -2 -7 -22 -13 -43 -13 -42 0 -61 14 -33 24 14 6 15 33 9 303 -4 163
-10 301 -14 307 -11 17 -11 96 0 96 6 0 7 72 3 193 -4 139 -2 235 9 347 8 85
15 183 14 217 0 33 9 112 20 175 38 207 52 307 46 322 -7 19 3 20 39 4z
m-2880 -23 c23 -5 27 -10 27 -40 0 -40 -10 -49 -51 -40 -30 7 -40 22 -55 80
-6 23 -4 23 23 15 15 -5 40 -12 56 -15z m4637 5 c0 -5 -4 -10 -10 -10 -5 0
-10 5 -10 10 0 6 5 10 10 10 6 0 10 -4 10 -10z m-4534 -55 c16 -8 35 -23 44
-34 9 -12 33 -22 60 -26 24 -4 48 -9 52 -11 4 -3 34 -9 65 -14 64 -11 281 5
297 21 6 5 18 9 27 9 15 0 17 -20 22 -172 4 -95 6 -353 6 -573 0 -220 4 -740
8 -1155 9 -865 9 -861 -2 -1435 -9 -486 -8 -492 55 -540 21 -16 39 -35 40 -42
0 -7 8 -16 17 -21 11 -7 -43 -12 -163 -16 -189 -7 -437 -23 -516 -33 -46 -5
-48 -4 -48 18 1 43 20 56 87 58 34 1 97 10 139 21 57 15 111 20 208 20 143 0
176 5 176 26 0 11 -23 14 -112 14 l-111 0 80 78 c81 78 113 124 113 162 0 11
5 20 10 20 6 0 10 27 10 60 0 33 -4 60 -9 60 -5 0 -11 17 -14 38 -22 168 -32
228 -38 232 -4 3 -10 39 -14 80 -4 41 -16 98 -26 125 -10 28 -25 99 -34 158
-8 59 -19 116 -24 125 -12 23 -46 192 -66 322 -9 58 -23 137 -31 175 -35 170
-44 222 -44 258 0 20 -4 45 -9 55 -5 9 -17 64 -26 122 -8 58 -26 162 -39 232
-20 108 -22 148 -18 274 3 100 2 145 -6 141 -6 -5 -8 -37 -5 -88 3 -52 2 -79
-5 -75 -5 3 -12 18 -14 33 -3 16 -17 84 -31 153 -15 69 -31 163 -36 210 -9 81
-53 272 -71 315 -25 55 -35 155 -37 360 -1 121 -4 229 -7 239 -5 18 0 36 8 36
2 0 16 -7 32 -15z m-78 -162 c2 -63 -1 -103 -7 -103 -6 0 -13 17 -16 38 -4 20
-13 55 -20 77 -8 22 -16 53 -20 68 -5 27 -4 28 27 25 l33 -3 3 -102z m-1808
-117 l0 -41 -25 53 c-31 68 -31 77 0 50 19 -16 25 -31 25 -62z m9 -110 c-2
-31 -2 -31 -6 -3 -2 15 -9 27 -14 27 -5 0 -9 10 -9 23 1 21 1 22 15 3 8 -11
14 -34 14 -50z m7076 -1141 c7 -11 15 -44 19 -74 3 -30 12 -62 21 -71 9 -10
21 -44 28 -77 7 -33 17 -66 24 -74 6 -8 19 -33 28 -56 10 -24 21 -43 26 -43 5
0 9 -6 9 -14 0 -7 23 -36 50 -64 54 -55 58 -62 35 -62 -8 0 -15 4 -15 9 0 5
-13 16 -30 25 -30 14 -30 14 -24 -10 4 -14 2 -24 -5 -24 -6 0 -11 5 -11 10 0
6 -6 10 -14 10 -7 0 -21 16 -30 35 -18 37 -26 41 -43 24 -17 -17 -81 10 -85
35 -2 12 -11 22 -21 24 -16 3 -17 1 -8 -16 17 -31 3 -52 -33 -52 -37 0 -47 6
-65 42 -8 15 -19 24 -25 21 -7 -4 -6 -8 2 -11 7 -2 12 -11 12 -21 0 -9 5 -22
12 -29 6 -6 9 -15 5 -18 -8 -8 -47 24 -47 38 0 5 -12 26 -26 47 -14 22 -38 82
-54 135 -16 53 -32 101 -35 105 -3 5 9 14 26 20 28 10 31 8 51 -24 33 -58 49
-39 29 33 -14 46 -6 59 29 54 27 -4 30 -1 30 22 0 14 4 26 9 26 5 0 17 3 26 6
14 6 15 2 10 -30 -10 -50 1 -86 25 -86 16 0 20 7 20 30 0 17 -4 30 -10 30 -11
0 -32 69 -24 82 3 4 11 8 17 8 7 0 19 10 27 23 13 21 14 21 18 2 2 -10 10 -28
17 -40z m1995 -24 c0 -20 -6 -43 -13 -51 -14 -17 -89 -70 -100 -70 -12 0 -8
28 6 42 14 16 47 84 47 100 0 6 8 17 17 24 25 18 43 -1 43 -45z m14 -136 c-6
-13 -158 -105 -175 -105 -5 0 -9 -4 -9 -10 0 -5 -9 -10 -20 -10 -12 0 -35 -10
-53 -22 -18 -13 -34 -24 -36 -25 -2 -2 -2 -5 1 -8 3 -3 30 8 61 25 31 16 65
30 76 30 11 0 21 3 23 8 5 11 64 42 82 42 9 0 16 5 16 10 0 6 5 10 10 10 14 0
12 -27 -2 -33 -10 -4 -10 -7 0 -15 8 -5 14 -32 15 -63 2 -42 6 -54 20 -57 20
-4 21 14 3 47 -12 21 -12 27 1 39 13 13 16 13 24 1 14 -23 11 -99 -5 -105 -9
-3 -13 -15 -10 -30 3 -19 0 -24 -16 -24 -21 0 -28 -24 -10 -35 17 -10 11 -25
-10 -25 -11 0 -20 -4 -20 -10 0 -5 -12 -13 -27 -16 -16 -4 -35 -15 -43 -24 -8
-9 -35 -22 -60 -29 -25 -7 -49 -16 -55 -20 -5 -4 -30 -13 -55 -20 -47 -14 -70
-23 -108 -45 -35 -20 -12 -27 28 -8 55 24 104 42 118 42 8 0 26 9 41 19 14 10
45 24 69 30 23 7 42 16 42 22 0 6 5 7 10 4 6 -3 10 -2 10 3 0 5 21 15 46 21
26 7 53 19 62 28 13 12 17 13 21 2 2 -7 -4 -18 -14 -24 -11 -5 -28 -19 -40
-30 -12 -12 -41 -27 -66 -35 -24 -8 -49 -22 -56 -31 -7 -9 -27 -19 -44 -23
-18 -3 -40 -12 -48 -20 -9 -7 -40 -19 -68 -26 -29 -6 -50 -16 -47 -21 3 -5 -6
-9 -20 -9 -14 0 -27 -4 -30 -9 -3 -4 -27 -11 -52 -15 -26 -3 -56 -14 -66 -23
-11 -10 -47 -20 -85 -25 -37 -4 -70 -14 -77 -22 -7 -9 -44 -19 -95 -26 -46 -6
-91 -15 -100 -20 -9 -4 -68 -16 -131 -25 -63 -10 -117 -22 -120 -26 -3 -5 -53
-11 -110 -15 -58 -3 -107 -9 -110 -14 -3 -4 -63 -10 -135 -13 -71 -4 -172 -10
-222 -13 -82 -6 -93 -5 -99 11 -10 26 15 36 77 29 32 -4 97 -1 145 6 112 16
154 32 64 25 -225 -18 -267 -18 -273 -1 -7 17 0 19 46 16 21 -1 27 3 27 19 0
17 -6 21 -35 21 -32 0 -35 3 -35 29 0 16 -7 42 -15 57 -31 60 -8 116 31 73 17
-19 64 -27 64 -10 0 17 -26 30 -75 39 l-50 8 48 8 c66 10 56 30 -19 36 -88 7
-72 25 26 28 47 2 89 7 94 12 6 6 37 10 70 10 62 1 112 6 296 35 58 9 139 20
180 26 41 5 95 16 120 23 70 21 115 33 250 67 69 17 131 36 138 41 7 6 35 15
62 19 26 4 77 20 112 34 34 15 85 31 112 36 27 4 56 15 65 22 13 12 66 38 141
71 8 3 33 17 55 29 42 25 58 25 49 2z m-2315 -82 c7 -26 26 -76 42 -111 16
-35 29 -69 29 -76 0 -7 11 -25 25 -40 38 -41 31 -63 -11 -31 -10 8 -26 15 -34
15 -17 0 -77 60 -103 102 -9 15 -17 39 -17 53 0 14 -4 25 -10 25 -5 0 -10 9
-10 19 0 11 -4 23 -10 26 -17 11 -11 43 10 50 11 3 20 10 20 15 0 12 33 18 45
9 6 -4 16 -29 24 -56z m338 -265 c15 -7 32 -18 36 -25 4 -7 15 -13 22 -13 8 0
15 -4 15 -10 0 -5 10 -20 23 -32 39 -40 60 -129 63 -268 2 -120 1 -126 -23
-154 -27 -32 -66 -56 -92 -56 -28 0 -101 34 -101 48 0 7 -13 26 -29 43 -17 17
-33 45 -37 62 -3 18 -10 37 -14 42 -11 15 -30 123 -30 169 0 94 29 159 84 186
48 24 47 23 83 8z m2076 -150 c9 -29 19 -71 21 -93 18 -140 26 -197 35 -255 6
-36 11 -83 11 -106 0 -22 5 -45 11 -51 5 -5 15 -57 20 -114 6 -57 15 -122 21
-144 6 -22 14 -76 18 -120 23 -242 32 -324 41 -360 22 -84 30 -165 32 -310 2
-142 1 -154 -25 -223 -16 -40 -28 -84 -28 -97 0 -13 -4 -26 -9 -30 -13 -7 -41
-64 -41 -82 0 -7 -5 -13 -10 -13 -6 0 -14 -8 -18 -17 -16 -37 -54 -91 -67 -97
-8 -3 -15 -12 -15 -20 0 -8 -21 -37 -47 -64 -27 -27 -93 -97 -148 -156 -55
-58 -108 -109 -117 -112 -10 -3 -18 -11 -18 -17 0 -7 -9 -19 -21 -27 -11 -8
-28 -20 -37 -26 -13 -10 -14 -15 -3 -27 10 -13 9 -19 -8 -36 -12 -12 -25 -21
-31 -21 -5 0 -10 -6 -10 -14 0 -8 -23 -36 -52 -63 -28 -26 -65 -63 -81 -80
-17 -18 -34 -33 -38 -33 -5 0 -19 -10 -32 -22 -13 -13 -45 -39 -70 -58 -26
-19 -61 -47 -78 -62 -17 -15 -64 -48 -103 -74 -39 -27 -73 -51 -76 -54 -3 -4
-22 -13 -42 -19 -21 -7 -38 -17 -38 -22 0 -5 -11 -9 -25 -9 -14 0 -25 -4 -25
-9 0 -12 -58 -46 -93 -55 -15 -3 -36 -15 -47 -26 -11 -11 -26 -20 -34 -20 -17
0 -126 -50 -111 -50 6 -1 -10 -8 -35 -16 -25 -9 -50 -22 -57 -30 -6 -9 -24
-19 -40 -24 l-28 -8 27 -1 c15 -1 30 4 33 9 3 6 17 10 31 10 13 0 24 6 24 13
0 12 60 37 89 37 6 0 20 9 31 20 11 11 29 20 39 20 11 0 23 5 26 10 3 5 15 10
26 10 10 0 28 9 39 20 11 11 28 20 38 20 10 0 26 6 37 13 11 8 30 16 43 20 31
7 24 -14 -10 -31 -14 -6 -29 -23 -32 -37 -4 -14 -11 -25 -17 -25 -12 0 -32
-16 -62 -49 -12 -13 -43 -45 -69 -71 -27 -26 -48 -53 -48 -59 0 -6 -6 -11 -13
-11 -11 0 -22 -9 -81 -70 -11 -11 -26 -20 -33 -20 -7 0 -13 -7 -13 -15 0 -20
2 -19 41 15 19 16 37 30 40 30 4 0 9 9 12 20 3 11 12 20 21 20 8 0 50 34 92
75 42 41 80 75 85 75 5 0 9 6 9 14 0 7 12 22 27 31 14 10 62 53 105 95 43 43
87 80 97 83 15 4 16 0 7 -29 -6 -19 -14 -34 -18 -34 -5 0 -8 -8 -8 -18 0 -11
-9 -27 -20 -37 -11 -10 -20 -24 -20 -32 0 -20 -29 -72 -56 -102 -13 -14 -24
-31 -24 -38 0 -6 -6 -18 -13 -25 -6 -7 -21 -30 -31 -50 -11 -20 -24 -35 -28
-32 -4 3 -8 -4 -8 -15 0 -11 5 -23 10 -26 6 -3 10 -1 10 4 0 6 20 39 44 74 23
35 56 90 72 123 15 32 36 65 46 72 10 7 18 20 18 28 0 8 5 14 10 14 6 0 10 7
10 16 0 15 57 95 72 102 5 2 8 12 8 21 0 10 16 32 35 50 19 17 35 36 35 40 0
5 16 15 35 21 19 6 35 18 35 26 0 8 8 14 19 14 15 0 19 -10 24 -57 3 -32 3
-78 0 -103 -3 -25 -2 -42 2 -38 11 11 25 90 32 179 5 71 7 77 34 93 16 9 29
23 29 30 0 7 11 19 25 26 13 7 27 22 31 33 5 15 12 18 37 13 17 -3 40 -16 51
-28 14 -15 21 -18 24 -9 3 8 -8 23 -23 36 -33 25 -29 54 7 56 55 4 155 -4 173
-14 32 -17 44 -34 93 -131 17 -33 21 -54 16 -66 -16 -33 -236 -260 -389 -400
-669 -617 -1405 -1055 -2235 -1330 -273 -90 -255 -87 -290 -48 -32 34 -41 24
-15 -16 14 -22 14 -24 -2 -30 -16 -7 -43 15 -43 35 0 4 -8 9 -17 13 -10 3 -24
9 -32 12 -11 5 -12 0 -7 -22 4 -16 13 -32 19 -36 21 -14 -11 -9 -48 6 -25 11
-33 19 -29 31 8 20 -26 85 -43 85 -7 0 -13 -11 -13 -25 0 -14 5 -25 12 -25 6
0 9 -3 6 -6 -14 -14 -48 18 -48 45 0 31 -49 86 -57 64 -6 -18 -23 -16 -23 1 0
8 -11 23 -25 34 -14 11 -25 25 -25 32 0 6 -11 26 -25 44 -14 18 -25 43 -25 55
0 12 -4 29 -9 39 -18 32 -41 121 -41 154 0 19 -4 38 -9 44 -31 32 -48 510 -23
654 21 121 35 184 43 195 4 6 10 30 14 55 4 24 20 81 35 125 16 44 31 95 35
113 4 17 10 32 13 32 8 0 32 72 32 94 0 7 7 19 15 26 8 7 15 20 15 29 0 9 11
37 24 64 14 26 27 61 31 77 4 17 12 33 19 37 6 5 27 44 46 88 19 44 37 82 40
85 6 5 27 44 65 122 10 20 26 46 36 57 11 11 19 28 19 37 0 9 11 32 25 50 14
18 25 37 25 43 0 6 3 11 8 11 8 0 42 57 42 72 0 6 11 19 24 29 13 11 34 39 46
64 12 25 26 45 31 45 5 0 9 6 9 13 0 6 11 25 25 42 14 16 39 53 56 81 16 29
36 55 44 58 8 3 15 12 15 19 0 8 9 22 20 32 11 10 20 24 20 30 0 7 6 15 14 18
7 3 28 31 46 61 17 31 36 56 41 56 5 0 20 22 34 49 13 27 28 51 33 53 9 3 57
72 77 109 5 11 15 19 22 19 7 0 13 9 13 19 0 11 11 28 23 38 13 10 30 30 37
43 7 14 19 29 26 33 8 4 14 15 14 22 0 8 8 23 18 33 21 23 52 79 52 95 0 7 9
18 20 25 11 7 20 20 20 30 0 10 8 27 18 38 24 27 72 122 72 144 0 25 22 73 37
83 7 4 13 14 13 22 0 8 11 38 24 67 13 29 27 67 31 85 3 17 13 37 20 43 8 6
19 27 25 45 10 30 43 55 56 42 7 -6 -15 -44 -38 -69 -10 -10 -18 -30 -18 -45
0 -31 0 -31 33 29 14 25 23 49 20 52 -4 3 -1 6 6 6 9 0 12 -10 9 -29 -4 -25
-2 -28 13 -21 9 5 19 23 23 40 5 28 26 60 39 60 3 0 8 -11 11 -25 8 -33 39
-33 55 1 7 16 18 24 29 22 21 -5 17 -33 -9 -61 -26 -28 -24 -47 5 -47 19 0 26
7 31 30 4 17 11 30 16 30 5 0 9 6 9 14 0 7 8 20 17 27 15 12 16 12 10 -3 -9
-24 6 -23 28 2 18 20 43 17 27 -3 -7 -10 -33 -88 -59 -182 -3 -11 -16 -36 -29
-56 -33 -52 -50 -97 -58 -152 -4 -26 -14 -53 -22 -61 -8 -8 -14 -21 -14 -29 0
-9 -6 -28 -14 -44 -18 -36 -36 -95 -36 -116 0 -9 -4 -17 -10 -17 -5 0 -10 -6
-10 -12 0 -7 -14 -31 -30 -52 -17 -22 -30 -45 -30 -52 0 -7 -16 -28 -35 -47
-19 -19 -35 -38 -35 -42 0 -4 -15 -23 -34 -41 -19 -19 -38 -43 -41 -55 -4 -11
-16 -30 -26 -40 -10 -10 -19 -26 -19 -34 0 -8 -4 -15 -10 -15 -5 0 -12 -11
-16 -25 -8 -31 -62 -90 -91 -99 -13 -4 -23 -13 -23 -20 0 -7 -9 -21 -20 -31
-11 -10 -20 -24 -20 -30 0 -7 -11 -20 -25 -29 -14 -9 -25 -23 -25 -32 0 -8
-11 -25 -24 -37 -13 -12 -34 -43 -47 -67 -13 -25 -25 -47 -28 -50 -4 -3 -12
-17 -20 -32 -8 -16 -20 -28 -28 -28 -7 0 -13 -7 -13 -15 0 -9 -11 -27 -24 -40
-14 -14 -33 -38 -42 -55 -10 -16 -22 -30 -26 -30 -4 0 -8 -4 -8 -10 0 -5 -16
-30 -35 -56 -19 -25 -35 -52 -35 -60 0 -7 -9 -19 -20 -26 -11 -7 -20 -17 -20
-23 0 -5 -11 -23 -25 -39 -14 -16 -25 -34 -25 -41 0 -6 -8 -20 -18 -31 -10
-10 -24 -35 -32 -54 -8 -19 -22 -42 -32 -52 -10 -10 -18 -23 -18 -30 0 -6 -6
-19 -14 -27 -8 -9 -26 -38 -40 -66 -32 -60 -39 -74 -54 -100 -7 -11 -22 -40
-33 -65 -12 -25 -26 -52 -30 -60 -23 -39 -77 -159 -89 -198 -7 -23 -17 -42
-22 -42 -4 0 -8 -11 -8 -24 0 -14 -4 -27 -9 -31 -5 -3 -12 -19 -16 -35 -4 -17
-11 -30 -16 -30 -5 0 -9 -13 -9 -30 0 -16 -6 -47 -14 -67 -7 -21 -19 -58 -26
-83 -6 -25 -16 -53 -21 -63 -5 -9 -12 -45 -16 -80 -3 -34 -10 -67 -15 -74 -15
-18 -21 -342 -9 -483 10 -132 39 -280 65 -335 9 -18 21 -55 27 -84 6 -28 14
-51 19 -51 5 0 16 -21 26 -46 19 -49 60 -99 69 -84 3 5 -3 26 -14 47 -57 109
-88 184 -101 243 -7 30 -16 62 -20 71 -5 9 -13 51 -20 95 -6 43 -16 95 -20
114 -10 41 5 463 19 530 5 25 17 83 26 130 8 47 21 101 27 120 7 19 13 40 14
45 1 6 11 30 22 55 12 25 30 77 42 115 12 39 25 77 30 85 5 8 50 98 102 200
51 102 98 191 105 198 6 7 17 28 24 47 7 19 16 35 20 35 9 0 39 58 39 77 0 7
4 13 8 13 4 0 23 26 42 58 19 31 38 59 42 60 5 2 8 10 8 18 0 8 5 14 10 14 6
0 20 20 33 43 25 51 66 109 120 173 20 25 37 51 37 59 0 7 13 24 29 38 26 21
45 47 103 136 9 14 17 34 17 43 1 9 9 23 19 30 9 7 33 33 52 58 19 25 72 82
119 128 47 47 85 92 86 105 1 12 3 27 4 33 0 6 15 26 31 44 17 18 30 37 30 42
0 12 96 108 109 108 6 0 11 7 11 15 0 8 -5 15 -11 15 -5 0 1 15 14 33 23 31
77 138 77 153 0 4 6 15 14 23 7 9 30 69 50 134 19 65 44 135 54 155 11 20 36
70 57 111 27 52 38 86 37 113 -1 21 2 38 8 38 5 0 7 6 5 13 -3 6 10 28 27 47
29 30 33 32 37 15 2 -10 -4 -24 -13 -30 -9 -7 -16 -17 -16 -24 0 -6 -8 -24
-17 -39 l-17 -27 27 24 c15 14 27 29 27 35 0 7 16 20 35 30 19 11 35 25 35 31
0 16 46 25 131 25 l68 0 -6 -35 c-4 -28 -2 -35 11 -35 9 0 16 6 16 13 0 7 15
30 33 49 23 26 43 38 72 43 22 3 57 11 78 17 44 13 63 -1 46 -33 -5 -10 -8
-39 -8 -66 1 -26 3 -40 6 -30 2 9 9 17 14 17 5 0 9 9 9 20 0 29 21 70 37 70 7
0 13 9 13 20 0 22 28 40 64 40 13 0 31 6 38 13 10 11 73 25 166 38 32 5 57
-21 84 -85 15 -34 18 -11 7 53 -5 35 -9 64 -7 65 2 1 41 14 88 29 47 16 97 35
112 43 14 8 32 14 40 14 18 0 78 -64 78 -83 0 -8 7 -20 15 -27 8 -7 15 -18 15
-25 0 -7 7 -26 15 -41 19 -38 19 -24 -2 50 -9 34 -23 66 -30 71 -7 6 -14 26
-15 45 -3 32 0 36 47 61 78 41 98 43 136 12 l32 -27 -8 25 c-4 13 -12 30 -18
37 -8 10 -7 16 4 23 26 16 35 9 52 -43z m-2475 -267 c2 -6 16 -11 30 -11 29 0
54 -15 124 -72 25 -21 50 -38 56 -38 6 0 14 -9 17 -20 3 -11 11 -20 16 -20 18
0 9 16 -41 67 -17 17 -21 27 -12 30 20 8 14 23 -14 33 -36 14 -29 45 11 45 20
0 33 -7 41 -22 6 -13 20 -31 32 -42 12 -10 22 -26 22 -34 0 -9 13 -23 29 -32
20 -10 31 -24 33 -42 3 -27 5 -28 56 -25 43 3 52 1 52 -12 0 -9 -11 -22 -25
-28 -30 -13 -33 -38 -5 -38 11 0 20 -2 20 -4 0 -15 -24 -66 -31 -66 -5 0 -9
-8 -9 -18 0 -25 -19 -42 -49 -43 -21 -1 -22 -2 -6 -6 29 -7 40 -20 28 -35 -6
-7 -16 -30 -23 -52 -14 -44 -69 -136 -81 -136 -5 0 -17 -10 -29 -22 -15 -16
-17 -24 -8 -29 9 -6 7 -19 -10 -52 -12 -25 -29 -50 -37 -57 -8 -7 -15 -18 -15
-25 0 -8 -11 -27 -25 -43 -14 -17 -25 -34 -25 -39 0 -6 -9 -18 -20 -28 -11
-10 -20 -23 -20 -30 0 -6 -18 -31 -40 -56 -22 -24 -40 -51 -40 -60 0 -9 -11
-24 -24 -32 -12 -9 -30 -30 -39 -49 -9 -18 -30 -48 -47 -67 -16 -18 -30 -37
-30 -42 0 -4 -18 -27 -40 -50 -22 -23 -40 -46 -40 -51 0 -4 -7 -16 -15 -25
-52 -60 -65 -77 -65 -86 0 -5 -15 -28 -33 -51 -19 -23 -39 -51 -45 -63 -7 -12
-18 -28 -24 -35 -7 -8 -17 -21 -23 -30 -5 -9 -25 -38 -44 -64 -18 -26 -37 -58
-42 -71 -5 -13 -13 -23 -18 -23 -5 0 -24 -28 -41 -62 -18 -35 -45 -81 -61
-102 -16 -22 -29 -47 -29 -56 0 -9 -9 -25 -19 -35 -11 -9 -39 -56 -62 -104
-23 -47 -46 -89 -51 -92 -4 -3 -24 -43 -43 -89 -19 -45 -41 -90 -48 -99 -8 -9
-17 -33 -21 -53 -4 -21 -14 -44 -22 -53 -9 -8 -12 -15 -8 -15 3 0 2 -6 -3 -12
-6 -7 -13 -26 -17 -43 -4 -16 -13 -37 -20 -45 -7 -8 -22 -49 -34 -90 -11 -41
-29 -98 -40 -125 -10 -28 -22 -71 -25 -97 -3 -25 -13 -65 -22 -89 -16 -44 -55
-305 -55 -366 0 -18 -1 -33 -2 -33 -2 0 -30 5 -63 10 -33 6 -82 13 -110 16
-27 4 -55 10 -60 15 -15 11 -95 28 -95 20 0 -18 66 -42 135 -48 46 -4 82 -12
91 -21 8 -8 27 -14 42 -14 15 0 35 -4 45 -9 21 -12 23 -49 1 -49 -14 0 -14 -1
0 -16 22 -22 20 -31 -11 -42 -25 -9 -25 -11 -6 -11 30 -1 36 -14 38 -90 1 -36
5 -81 9 -99 8 -35 -3 -42 -28 -17 -18 18 -36 19 -36 2 0 -20 22 -37 47 -37 13
0 23 -2 23 -4 0 -2 3 -12 7 -22 5 -15 2 -16 -30 -11 -39 6 -51 -7 -17 -18 11
-3 20 -11 20 -16 0 -5 9 -9 19 -9 14 0 21 -10 26 -33 4 -17 12 -38 17 -44 8
-10 3 -12 -23 -7 -19 3 -46 10 -61 14 -15 5 -60 12 -100 16 -40 4 -75 10 -78
15 -3 4 -25 10 -50 13 -77 9 -152 27 -166 39 -7 7 -30 23 -52 36 -38 23 -40
27 -47 87 -3 35 -3 68 0 74 4 6 21 10 38 8 23 -2 32 1 32 12 0 10 -12 16 -32
18 -34 3 -33 2 -49 79 -2 13 -8 23 -13 23 -12 0 -21 -41 -15 -67 4 -16 1 -25
-10 -29 -14 -5 -14 -8 -2 -18 15 -12 31 -96 18 -96 -5 0 -35 9 -67 20 -33 11
-84 20 -119 20 -55 0 -175 28 -218 51 -10 5 -24 9 -32 9 -7 0 -20 7 -27 16 -7
9 -23 20 -36 25 -19 7 -23 16 -23 54 0 42 2 46 20 40 11 -4 20 -2 20 4 0 6 -5
10 -12 8 -8 -1 -12 25 -14 86 l-3 87 24 -25 c14 -14 32 -22 40 -19 17 7 21 34
5 34 -5 0 -10 7 -10 16 0 12 -6 15 -25 10 -22 -6 -25 -3 -25 18 0 14 5 28 10
31 6 3 10 22 10 41 0 19 5 34 11 34 5 0 3 10 -5 22 -15 21 -22 68 -11 68 3 0
18 -9 33 -20 15 -11 46 -23 67 -26 32 -3 36 -2 20 6 -11 5 -40 25 -65 44 -37
27 -45 38 -43 62 1 16 7 119 13 229 6 110 15 214 20 230 5 17 14 118 20 225 7
107 16 220 21 250 5 30 9 81 9 112 0 31 5 69 10 84 6 14 13 72 16 128 2 55 11
153 19 216 27 219 48 415 46 443 -1 15 3 36 8 46 6 10 17 83 25 162 17 154 21
188 37 259 24 104 43 156 96 255 6 11 16 32 23 47 7 15 28 42 46 60 18 18 34
39 34 46 0 6 3 12 8 12 4 0 18 10 32 23 29 27 134 97 170 113 109 50 178 74
211 74 22 0 39 4 39 9 0 5 24 12 53 15 28 4 88 11 132 16 128 16 659 23 745
11 93 -14 170 -33 170 -43 0 -5 7 -8 15 -8 25 0 17 17 -12 25 -39 9 -67 36
-51 47 19 13 211 3 216 -11z m-5309 -1250 c-1 -33 1 -64 5 -69 3 -5 6 -46 7
-91 1 -45 5 -84 10 -87 5 -3 7 -10 4 -15 -4 -5 -2 -9 3 -9 5 0 15 -11 22 -25
7 -14 19 -25 25 -25 12 0 51 -38 44 -43 -2 -1 -30 -11 -62 -22 -31 -10 -62
-24 -68 -31 -6 -7 -22 -15 -37 -19 -15 -3 -36 -18 -46 -33 -10 -15 -35 -40
-56 -57 -21 -16 -47 -45 -57 -62 -9 -18 -21 -33 -24 -33 -4 0 -24 -35 -44 -77
-60 -125 -71 -159 -80 -241 l-7 -57 -68 3 c-58 3 -73 8 -94 29 -17 17 -26 21
-26 11 0 -8 6 -20 13 -27 10 -11 -2 -13 -69 -8 -156 12 -193 54 -181 207 4 45
10 86 14 93 4 7 15 32 23 57 9 25 21 44 28 43 7 -2 12 8 12 25 0 16 14 69 31
118 17 49 33 114 35 144 8 96 27 170 43 170 8 0 22 7 32 16 9 8 41 22 70 29
29 8 55 18 58 23 6 7 68 26 134 39 15 3 27 9 27 14 0 5 29 9 64 9 53 0 65 3
68 17 3 18 68 40 120 42 27 1 28 0 27 -58z m417 -266 c4 -9 1 -29 -6 -46 -12
-29 -15 -30 -54 -24 -41 7 -80 34 -61 41 6 3 28 13 50 23 50 24 64 25 71 6z
m796 -197 c1 -79 1 -179 0 -224 l-4 -82 -91 -10 c-99 -11 -116 -7 -152 35 -11
12 -24 23 -28 23 -4 0 -17 9 -29 20 -11 10 -35 22 -52 25 -17 4 -50 15 -73 26
-24 10 -46 19 -50 19 -5 0 -28 13 -52 29 -25 17 -48 28 -53 25 -4 -3 -8 -1 -8
4 0 12 -65 52 -83 52 -7 0 -19 9 -27 20 -8 10 -27 22 -42 25 -29 7 -43 35 -36
72 4 24 52 30 308 38 210 6 377 20 414 35 53 22 54 21 58 -132z m-816 71 c11
-18 -13 -34 -31 -19 -8 7 -15 16 -15 21 0 13 38 11 46 -2z m-1282 -66 c-37
-85 -39 -88 -96 -95 -29 -4 -181 -16 -338 -28 -157 -11 -303 -23 -325 -26 -71
-10 -237 -22 -337 -23 l-98 -1 -24 38 c-14 22 -19 40 -13 43 13 9 129 -1 143
-12 15 -12 444 -12 474 -1 14 5 48 13 75 16 28 4 82 17 120 28 107 31 387 96
417 97 17 1 17 -1 2 -36z m1178 -58 c11 -14 24 -25 29 -25 5 0 34 -20 64 -45
31 -25 67 -48 80 -51 14 -3 30 -14 35 -24 8 -15 1 -19 -48 -30 -31 -6 -71 -23
-89 -36 -17 -13 -36 -24 -41 -24 -6 0 -32 -23 -59 -51 -63 -66 -103 -147 -110
-226 -5 -52 -9 -63 -24 -63 -10 0 -24 6 -32 14 -29 30 -89 46 -167 46 -43 0
-85 3 -94 6 -18 7 -23 79 -6 89 6 3 10 16 10 28 0 29 34 119 42 111 4 -3 11
10 16 30 6 20 21 49 34 66 41 54 138 149 158 155 11 4 20 11 20 16 0 5 8 9 19
9 10 0 24 6 31 14 27 33 103 28 132 -9z m7728 7 c0 -10 7 -27 15 -38 10 -13
15 -45 15 -104 0 -47 5 -92 10 -100 5 -8 10 -10 11 -5 2 21 17 -41 18 -76 1
-37 -47 -119 -70 -119 -6 0 -18 -9 -27 -19 -20 -22 -68 -35 -77 -21 -13 21
-113 11 -168 -16 -28 -14 -65 -30 -81 -35 l-28 -8 4 91 c4 80 7 93 26 106 12
8 22 21 22 28 0 8 7 14 15 14 8 0 15 4 15 10 0 5 14 16 30 25 18 9 30 23 30
35 0 11 3 20 8 20 4 0 12 10 17 22 6 13 18 24 28 26 13 3 17 -3 17 -27 0 -55
18 -33 25 31 8 64 57 164 76 152 5 -3 7 -9 4 -14 -3 -5 -1 -11 5 -15 5 -3 10
-15 10 -26 0 -11 7 -19 16 -19 8 0 13 4 9 9 -8 14 6 91 16 91 5 0 9 -8 9 -18z
m-10133 -132 c14 -25 36 -64 49 -87 33 -57 30 -69 -3 -13 -15 25 -30 47 -34
50 -4 3 -17 24 -30 48 -37 67 -44 79 -58 98 -7 11 1 3 18 -16 18 -19 43 -55
58 -80z m1163 -3 c0 -19 -3 -37 -7 -41 -5 -4 -12 -53 -18 -108 l-10 -101 -45
-2 c-25 0 -107 -2 -183 -3 -76 -1 -136 -6 -133 -10 5 -8 -348 -35 -463 -36
l-54 -1 -88 125 -88 125 112 7 c116 7 269 20 542 43 88 8 198 15 245 15 47 1
103 5 125 9 64 14 65 13 65 -22z m1740 -147 c0 -5 -2 -10 -4 -10 -3 0 -8 5
-11 10 -3 6 -1 10 4 10 6 0 11 -4 11 -10z m76 -82 c91 -32 128 -54 118 -69 -3
-5 0 -9 5 -9 6 0 11 -6 11 -13 0 -7 8 -22 18 -33 10 -11 22 -33 26 -49 3 -17
3 -25 -1 -20 -4 6 -19 19 -32 30 l-23 20 6 -32 c11 -47 0 -73 -30 -73 -22 0
-25 4 -23 28 2 15 7 32 11 38 4 6 -4 29 -19 52 -24 36 -33 42 -73 47 -71 9
-88 14 -103 29 -8 8 -34 16 -57 18 -24 2 -45 8 -47 15 -5 15 46 41 69 36 9 -2
19 1 23 6 10 16 25 14 121 -21z m-229 -43 c12 -9 57 -24 99 -35 42 -11 90 -27
107 -35 16 -8 38 -15 48 -15 11 0 21 -10 25 -24 7 -31 -13 -96 -30 -96 -7 0
-27 -7 -45 -16 -32 -16 -148 -15 -216 1 -16 4 -51 7 -76 6 -65 -2 -99 13 -99
42 0 34 68 167 86 167 8 0 14 5 14 10 0 16 63 12 87 -5z m6953 -72 c0 -30 -39
-93 -57 -93 -7 0 -13 7 -13 16 0 10 -6 14 -15 10 -20 -7 -19 6 3 26 9 9 26 28
37 42 26 33 45 33 45 -1z m-7396 2 c-4 -8 -8 -15 -10 -15 -2 0 -4 7 -4 15 0 8
4 15 10 15 5 0 7 -7 4 -15z m7740 -71 c2 -6 -7 -25 -22 -44 -21 -27 -27 -30
-36 -18 -15 20 -56 30 -56 13 0 -27 13 -45 32 -45 18 0 18 -1 1 -24 -10 -12
-24 -23 -32 -22 -9 1 -18 -10 -21 -25 -3 -14 -28 -52 -57 -83 -48 -54 -52 -57
-62 -38 -6 12 -11 30 -11 42 0 29 -69 115 -108 134 -43 21 -35 32 29 39 29 4
55 10 58 15 12 17 41 21 55 7 8 -8 22 -15 31 -15 13 0 16 6 11 25 -5 20 -3 25
14 25 11 0 20 5 20 10 0 6 10 10 23 10 12 0 30 7 39 14 14 10 26 11 53 2 19
-6 37 -16 39 -22z m-4144 -1684 c0 -15 -44 -30 -69 -23 -42 11 -18 28 47 32
12 0 22 -4 22 -9z m153 -36 c37 -12 49 -22 53 -42 4 -15 13 -34 21 -43 17 -20
37 -131 29 -163 -9 -38 -101 -47 -246 -26 -47 7 -140 12 -207 11 -132 -3 -229
12 -242 38 -18 34 -20 86 -6 111 l15 25 6 -22 c6 -22 11 -25 67 -38 31 -6 57
8 57 32 0 12 -3 13 -14 4 -23 -20 -80 -10 -84 14 -3 19 4 20 85 23 48 1 114 5
146 8 53 5 57 4 50 -13 -4 -11 13 -2 45 25 39 33 66 46 114 57 35 7 63 14 64
14 0 1 22 -6 47 -15z m-263 -12 c0 -9 -118 -42 -150 -42 -19 0 -20 2 -10 15 7
8 27 15 44 15 17 0 38 5 46 10 18 12 70 13 70 2z m497 -57 c40 0 53 -4 53 -15
1 -8 12 -33 25 -55 37 -60 42 -76 37 -121 -4 -41 -5 -42 -49 -48 -25 -3 -67
-6 -93 -6 l-47 0 -7 72 c-4 40 -13 81 -20 93 -7 11 -15 34 -18 52 -4 27 -1 33
16 36 12 1 28 1 36 -2 8 -4 39 -6 67 -6z m-883 -108 c4 -19 3 -26 -4 -22 -5 3
-10 18 -10 32 0 32 5 28 14 -10z m-39 -47 c3 -5 1 -10 -4 -10 -6 0 -11 5 -11
10 0 6 2 10 4 10 3 0 8 -4 11 -10z m67 -32 c34 -16 36 -28 6 -21 -37 8 -68 25
-62 35 6 10 10 9 56 -14z m-15 -54 c-3 -3 -12 -4 -19 -1 -8 3 -5 6 6 6 11 1
17 -2 13 -5z m493 -12 c37 -8 25 -10 -75 -11 -137 -1 -201 9 -125 20 51 8 134
4 200 -9z m-405 -2 c3 -5 26 -10 51 -10 25 0 44 -5 44 -11 0 -7 -17 -9 -47 -6
-72 8 -113 18 -113 28 0 12 57 11 65 -1z m210 -30 c-3 -5 -19 -10 -36 -10 -16
0 -29 5 -29 10 0 6 16 10 36 10 21 0 33 -4 29 -10z m685 -4 c0 -2 -18 -6 -39
-8 -22 -2 -37 0 -35 4 5 8 74 11 74 4z m-520 -16 c-18 -12 -98 -12 -125 0 -13
6 6 9 60 9 55 1 75 -2 65 -9z m367 3 c-20 -2 -52 -2 -70 0 -17 2 0 4 38 4 39
0 53 -2 32 -4z"/>
<path d="M5245 10335 c-13 -39 -12 -548 1 -599 5 -22 16 -42 23 -44 12 -4 13
31 6 219 -13 367 -19 459 -30 424z"/>
<path d="M5982 10153 c-102 -152 -304 -554 -287 -571 3 -3 11 1 19 9 19 20
318 610 312 616 -2 2 -22 -22 -44 -54z"/>
<path d="M6530 9732 c-36 -21 -100 -61 -142 -90 -42 -29 -84 -52 -93 -52 -8 0
-15 -4 -15 -10 0 -5 -15 -16 -33 -24 -19 -7 -45 -24 -59 -37 -15 -13 -39 -34
-55 -46 -225 -174 -207 -159 -198 -173 8 -13 56 14 195 108 186 128 470 340
470 353 0 12 2 13 -70 -29z"/>
<path d="M6320 9049 c-170 -13 -270 -29 -270 -44 0 -8 3 -16 8 -18 6 -4 488
31 654 48 203 21 -144 33 -392 14z"/>
<path d="M6069 8670 c-17 -11 12 -24 96 -43 161 -37 493 -92 502 -83 12 12
-245 75 -452 111 -131 23 -133 23 -146 15z"/>
<path d="M4730 3231 c8 -6 37 -13 65 -17 54 -8 53 -8 75 -16 34 -13 160 -38
189 -38 17 0 39 -4 49 -10 19 -10 115 -31 120 -25 7 7 -53 33 -83 36 -16 2
-36 7 -42 12 -7 5 -13 7 -13 5 0 -3 -26 1 -57 9 -65 15 -280 53 -303 53 -13 0
-13 -2 0 -9z"/>
<path d="M5384 3099 c-3 -5 6 -9 20 -9 31 0 34 6 6 13 -11 3 -23 1 -26 -4z"/>
<path d="M5460 3080 c36 -12 62 -12 55 0 -3 6 -23 10 -43 9 -33 -1 -34 -2 -12
-9z"/>
<path d="M5560 3066 c19 -6 40 -15 47 -19 7 -4 32 -10 55 -12 24 -3 55 -10 70
-16 15 -6 35 -9 43 -5 9 3 18 -1 21 -9 8 -19 98 -22 92 -2 -3 7 -42 18 -94 26
-49 7 -98 17 -109 22 -37 15 -100 29 -130 28 l-30 -1 35 -12z"/>
<path d="M5900 2990 c0 -5 15 -10 33 -9 27 0 29 2 12 9 -28 12 -45 12 -45 0z"/>
<path d="M6005 2970 c3 -5 21 -10 38 -9 31 1 31 1 7 9 -36 11 -52 11 -45 0z"/>
<path d="M8001 10894 c0 -11 3 -14 6 -6 3 7 2 16 -1 19 -3 4 -6 -2 -5 -13z"/>
<path d="M7885 10760 c-3 -5 -1 -10 4 -10 6 0 11 5 11 10 0 6 -2 10 -4 10 -3
0 -8 -4 -11 -10z"/>
<path d="M8054 10694 c3 -9 6 -22 6 -30 0 -8 7 -14 15 -14 18 0 20 31 3 48
-17 17 -31 15 -24 -4z"/>
<path d="M8200 10699 c0 -14 30 -38 48 -39 8 0 12 9 10 23 -2 16 -11 23 -30
25 -17 2 -28 -1 -28 -9z"/>
<path d="M8150 10611 c0 -10 50 -25 57 -17 3 2 2 9 -2 15 -8 13 -55 15 -55 2z"/>
<path d="M8400 10585 c0 -9 8 -19 18 -22 9 -4 25 -15 35 -26 17 -20 17 -20 17
2 0 12 -5 31 -10 42 -13 23 -60 26 -60 4z"/>
<path d="M8266 10575 c-9 -24 -8 -25 20 -25 19 0 25 5 22 17 -4 23 -34 28 -42
8z"/>
<path d="M8100 10555 c0 -22 24 -45 46 -45 21 0 25 4 22 23 -2 17 -11 23 -35
25 -18 2 -33 0 -33 -3z"/>
<path d="M8380 10490 c0 -13 5 -20 13 -17 6 2 12 10 12 17 0 7 -6 15 -12 18
-8 2 -13 -5 -13 -18z"/>
<path d="M8120 10477 c14 -6 33 -20 42 -30 10 -11 26 -17 40 -15 22 3 21 5 -9
21 -18 10 -33 22 -33 27 0 6 -15 10 -32 9 -33 0 -33 0 -8 -12z"/>
<path d="M8600 10484 c0 -16 23 -44 35 -44 8 0 15 -4 15 -10 0 -5 7 -10 15
-10 18 0 19 11 3 45 -8 18 -19 25 -40 25 -15 0 -28 -3 -28 -6z"/>
<path d="M8306 10443 c9 -35 20 -43 62 -43 32 0 32 0 13 19 -11 11 -34 27 -51
36 l-31 16 7 -28z"/>
<path d="M8460 10454 c0 -9 41 -44 52 -44 5 0 8 10 6 23 -2 16 -11 23 -30 25
-16 2 -28 0 -28 -4z"/>
<path d="M8238 10413 c7 -3 16 -2 19 1 4 3 -2 6 -13 5 -11 0 -14 -3 -6 -6z"/>
<path d="M8600 10375 c0 -8 5 -15 10 -15 6 0 10 7 10 15 0 8 -4 15 -10 15 -5
0 -10 -7 -10 -15z"/>
<path d="M8344 10355 c36 -19 56 -19 30 0 -10 8 -28 14 -39 15 -16 0 -14 -3 9
-15z"/>
<path d="M8838 10363 c-23 -6 -23 -16 0 -36 19 -18 62 -23 62 -9 0 16 -45 48
-62 45z"/>
<path d="M8670 10337 c0 -27 27 -44 44 -27 13 13 -4 44 -28 48 -11 3 -16 -4
-16 -21z"/>
<path d="M8520 10314 c0 -20 5 -24 31 -24 39 0 37 30 -3 41 -25 6 -28 5 -28
-17z"/>
<path d="M8415 10316 c30 -20 106 -55 100 -46 -8 13 -92 60 -107 60 -7 0 -4
-6 7 -14z"/>
<path d="M8535 10243 c11 -3 27 -11 35 -18 23 -19 50 -26 44 -11 -5 13 -62 37
-85 35 -8 -1 -5 -4 6 -6z"/>
<path d="M8890 10200 c0 -27 3 -30 30 -30 36 0 38 15 8 41 -32 25 -38 24 -38
-11z"/>
<path d="M9050 10215 c0 -8 51 -55 60 -55 13 0 13 16 0 41 -9 16 -60 29 -60
14z"/>
<path d="M8720 10202 c0 -15 61 -54 76 -48 24 9 16 25 -22 41 -41 17 -54 19
-54 7z"/>
<path d="M8650 10181 c0 -5 9 -11 19 -14 14 -3 18 -1 14 9 -6 15 -33 19 -33 5z"/>
<path d="M8720 10130 c19 -13 30 -13 30 0 0 6 -10 10 -22 10 -19 0 -20 -2 -8
-10z"/>
<path d="M8765 10110 c3 -5 15 -10 25 -10 10 0 21 -9 25 -19 3 -10 17 -21 30
-23 13 -3 22 -1 19 3 -3 5 -9 9 -14 9 -5 0 -20 11 -34 25 -24 24 -64 36 -51
15z"/>
<path d="M9030 10110 c0 -5 7 -7 15 -4 8 4 15 8 15 10 0 2 -7 4 -15 4 -8 0
-15 -4 -15 -10z"/>
<path d="M9250 10080 c0 -16 46 -38 56 -27 11 10 -10 35 -32 40 -18 3 -24 0
-24 -13z"/>
<path d="M8947 10073 c10 -28 40 -53 63 -53 31 0 24 28 -10 35 -16 4 -30 13
-30 21 0 8 -7 14 -15 14 -9 0 -12 -6 -8 -17z"/>
<path d="M9105 10070 c-7 -12 16 -50 32 -50 18 0 28 41 12 51 -18 12 -36 11
-44 -1z"/>
<path d="M8951 9996 c2 -2 15 -9 29 -15 24 -11 24 -11 6 3 -16 13 -49 24 -35
12z"/>
<path d="M9215 9990 c3 -5 10 -10 16 -10 5 0 9 5 9 10 0 6 -7 10 -16 10 -8 0
-12 -4 -9 -10z"/>
<path d="M9275 9960 c-11 -18 6 -50 26 -50 19 0 24 16 13 44 -7 18 -30 21 -39
6z"/>
<path d="M9038 9948 c12 -6 22 -15 22 -19 0 -8 52 -39 66 -39 4 0 -1 9 -12 21
-22 24 -67 49 -86 48 -7 0 -3 -5 10 -11z"/>
<path d="M9169 9923 c8 -31 49 -51 58 -27 7 19 -20 49 -46 51 -16 1 -18 -3
-12 -24z"/>
<path d="M9330 9910 c0 -5 5 -10 10 -10 6 0 10 5 10 10 0 6 -4 10 -10 10 -5 0
-10 -4 -10 -10z"/>
<path d="M1605 9480 c3 -5 8 -10 11 -10 2 0 4 5 4 10 0 6 -5 10 -11 10 -5 0
-7 -4 -4 -10z"/>
<path d="M7660 10187 c0 -51 27 -70 92 -64 29 3 65 8 81 12 25 7 78 -12 160
-56 11 -6 17 -6 17 2 0 20 -22 51 -68 95 l-46 44 -118 0 -118 0 0 -33z"/>
<path d="M7774 10092 c-20 -13 -24 -43 -9 -65 8 -12 15 -39 15 -60 0 -47 17
-46 42 2 23 46 25 47 49 18 21 -27 49 -36 49 -16 0 13 -25 39 -39 39 -6 0 -15
8 -20 19 -6 10 -22 22 -36 25 -16 4 -25 13 -25 26 0 21 -8 25 -26 12z"/>
<path d="M7676 9648 c-11 -44 -7 -54 14 -30 10 13 16 30 13 37 -8 22 -20 18
-27 -7z"/>
<path d="M7525 9630 c-10 -17 0 -23 42 -24 28 -1 38 3 38 14 0 18 -70 27 -80
10z"/>
<path d="M1050 9091 c0 -5 -3 -18 -7 -28 -6 -17 -6 -17 10 -1 19 18 22 38 7
38 -5 0 -10 -4 -10 -9z"/>
<path d="M8532 9629 c-20 -24 -22 -32 -12 -44 22 -27 61 -11 43 18 -4 6 -6 22
-4 35 3 28 1 27 -27 -9z"/>
<path d="M9675 8880 c3 -5 15 -10 26 -10 10 0 19 5 19 10 0 6 -12 10 -26 10
-14 0 -23 -4 -19 -10z"/>
<path d="M9798 8883 c23 -2 42 -8 42 -14 0 -5 25 -9 56 -9 50 0 104 -10 154
-28 8 -3 20 -6 25 -6 6 -1 24 -8 40 -17 17 -9 55 -26 85 -38 31 -12 71 -35 90
-51 19 -17 38 -30 41 -30 3 0 18 -11 33 -25 28 -26 46 -32 46 -16 0 5 -9 13
-20 16 -11 3 -25 15 -30 26 -6 10 -16 19 -21 19 -6 0 -20 11 -31 25 -11 14
-28 25 -38 25 -10 0 -20 3 -22 8 -5 13 -83 62 -99 62 -7 0 -34 7 -59 16 -52
18 -236 44 -295 42 l-40 -1 43 -4z"/>
<path d="M9477 8833 c-12 -12 -7 -22 8 -17 8 4 15 10 15 15 0 11 -14 12 -23 2z"/>
<path d="M9370 8780 c0 -5 5 -10 10 -10 6 0 10 5 10 10 0 6 -4 10 -10 10 -5 0
-10 -4 -10 -10z"/>
<path d="M10450 8586 c0 -9 5 -16 10 -16 6 0 10 4 10 9 0 6 -4 13 -10 16 -5 3
-10 -1 -10 -9z"/>
<path d="M10505 8523 c14 -16 27 -35 30 -44 3 -9 16 -21 28 -28 13 -7 30 -31
38 -53 7 -23 20 -43 27 -46 19 -6 14 23 -8 43 -11 10 -20 23 -20 30 0 6 -11
21 -25 33 -13 12 -27 33 -31 47 -3 14 -12 25 -20 25 -8 0 -14 5 -14 10 0 6 -7
10 -15 10 -12 0 -9 -7 10 -27z"/>
<path d="M10651 8324 c0 -11 3 -14 6 -6 3 7 2 16 -1 19 -3 4 -6 -2 -5 -13z"/>
<path d="M10690 8254 c0 -5 7 -18 15 -28 12 -16 15 -17 15 -4 0 8 -7 21 -15
28 -8 7 -15 9 -15 4z"/>
<path d="M10736 8173 c8 -18 19 -35 25 -38 5 -4 9 -15 9 -26 0 -10 5 -19 10
-19 15 0 12 28 -6 48 -8 9 -24 28 -34 42 l-20 25 16 -32z"/>
<path d="M11061 7424 c0 -7 6 -27 14 -45 14 -34 14 -34 15 -6 0 15 -4 27 -9
27 -5 0 -12 8 -14 18 -3 9 -5 12 -6 6z"/>
<path d="M11110 7283 c0 -13 5 -23 10 -23 13 0 13 11 0 30 -8 12 -10 11 -10
-7z"/>
<path d="M11260 6811 c0 -5 5 -13 10 -16 6 -3 10 -2 10 4 0 5 -4 13 -10 16 -5
3 -10 2 -10 -4z"/>
<path d="M11300 6660 c0 -11 5 -20 10 -20 6 0 10 9 10 20 0 11 -4 20 -10 20
-5 0 -10 -9 -10 -20z"/>
<path d="M5510 8808 c0 -7 5 -20 10 -28 7 -12 12 -12 21 -3 9 9 9 16 -1 28
-15 18 -30 20 -30 3z"/>
<path d="M5570 8793 c0 -5 7 -18 15 -29 16 -22 20 -48 5 -39 -18 11 -11 -3 15
-31 29 -31 31 -25 9 39 -14 42 -44 83 -44 60z"/>
<path d="M5541 8751 c-20 -13 -5 -46 36 -77 39 -29 35 -12 -4 19 -21 17 -34
45 -15 33 4 -2 8 4 8 15 0 21 -4 23 -25 10z"/>
<path d="M8035 6890 c-3 -5 -1 -18 4 -27 9 -16 10 -14 11 10 0 28 -5 34 -15
17z"/>
<path d="M8230 6883 c0 -4 11 -26 25 -48 13 -22 25 -47 25 -56 0 -8 10 -35 22
-60 22 -43 23 -44 26 -15 4 31 -64 177 -85 184 -7 2 -13 0 -13 -5z"/>
<path d="M8426 8465 c-3 -9 0 -15 8 -15 7 0 13 7 13 15 0 8 -4 15 -8 15 -4 0
-9 -7 -13 -15z"/>
<path d="M8405 8415 c-5 -11 -13 -23 -18 -26 -5 -3 -1 -9 8 -12 18 -7 29 12
22 40 -4 17 -5 16 -12 -2z"/>
<path d="M8338 8225 c-13 -28 -6 -40 17 -32 17 7 21 57 5 57 -6 0 -16 -11 -22
-25z"/>
<path d="M8322 8056 c-17 -45 -15 -96 2 -96 10 0 15 17 18 61 4 70 -3 82 -20
35z"/>
<path d="M8314 7888 c-9 -11 -10 -21 -5 -44 0 -3 8 2 17 10 10 11 12 21 6 31
-7 13 -10 14 -18 3z"/>
<path d="M8310 7786 c0 -22 3 -27 11 -19 8 8 8 16 0 30 -9 16 -10 14 -11 -11z"/>
<path d="M8306 7702 c-2 -4 -1 -14 3 -21 6 -10 10 -9 14 3 6 16 -8 32 -17 18z"/>
<path d="M8311 7594 c0 -11 3 -14 6 -6 3 7 2 16 -1 19 -3 4 -6 -2 -5 -13z"/>
<path d="M8312 7508 c5 -15 27 -18 31 -3 1 5 -6 11 -17 13 -12 3 -17 -1 -14
-10z"/>
<path d="M8500 7925 c0 -26 24 -35 32 -12 7 18 -2 37 -18 37 -8 0 -14 -10 -14
-25z"/>
<path d="M8472 7770 c0 -14 2 -19 5 -12 2 6 2 18 0 25 -3 6 -5 1 -5 -13z"/>
<path d="M8477 7716 c3 -13 13 -26 23 -29 21 -5 50 21 50 44 0 9 -7 5 -19 -10
-18 -23 -18 -23 -24 -2 -8 30 -36 28 -30 -3z"/>
<path d="M4348 8183 c6 -3 12 -11 12 -19 0 -8 6 -14 14 -14 20 0 82 -63 101
-101 9 -19 23 -47 31 -62 33 -60 25 -287 -10 -287 -6 0 -5 -5 2 -12 16 -16 19
-11 32 47 7 28 17 67 22 87 6 20 7 45 3 55 -12 32 -35 123 -35 143 0 11 -9 24
-19 30 -11 5 -25 26 -31 45 -7 22 -18 35 -29 35 -10 0 -23 11 -29 25 -6 14
-17 25 -24 25 -7 0 -22 2 -33 4 -11 2 -14 1 -7 -1z"/>
<path d="M4360 7520 c-13 -8 -12 -10 3 -10 9 0 17 5 17 10 0 12 -1 12 -20 0z"/>
<path d="M6821 7313 c-1 -6 -7 -13 -15 -15 -13 -3 -13 -6 0 -22 20 -28 42 -6
26 26 -6 13 -11 18 -11 11z"/>
<path d="M6712 7239 c-14 -22 -16 -99 -3 -99 7 0 41 86 41 103 0 15 -28 12
-38 -4z"/>
<path d="M6880 7181 c0 -38 4 -51 13 -48 15 5 14 74 -2 90 -8 8 -11 -3 -11
-42z"/>
<path d="M6782 7097 c-17 -20 -20 -117 -4 -117 10 0 32 68 32 98 0 26 -14 36
-28 19z"/>
<path d="M6865 7090 c3 -5 8 -10 11 -10 2 0 4 5 4 10 0 6 -5 10 -11 10 -5 0
-7 -4 -4 -10z"/>
<path d="M6675 6960 c-11 -21 -14 -42 -10 -63 11 -54 16 -67 26 -67 14 0 11
48 -3 53 -10 4 -10 8 -1 14 12 9 21 78 11 88 -4 4 -14 -7 -23 -25z"/>
<path d="M6850 6926 c0 -25 -4 -48 -10 -51 -12 -7 -13 -35 -2 -35 25 0 44 111
22 125 -6 4 -10 -11 -10 -39z"/>
<path d="M6761 6833 c-1 -12 -5 -25 -11 -28 -5 -3 -7 -19 -3 -35 3 -19 1 -30
-6 -30 -6 0 -11 -7 -11 -15 0 -8 9 -15 19 -15 15 0 20 9 23 43 2 23 1 56 -3
72 -5 23 -7 25 -8 8z"/>
<path d="M6652 6678 c-19 -24 -25 -101 -8 -123 21 -29 30 -13 34 66 4 68 -3
84 -26 57z"/>
<path d="M6820 6617 l1 -62 19 24 c26 30 25 62 0 84 -20 17 -20 16 -20 -46z"/>
<path d="M6718 6470 c-3 -17 0 -38 7 -46 10 -14 12 -14 24 -1 17 21 10 71 -10
75 -12 2 -18 -6 -21 -28z"/>
<path d="M6726 6383 c-14 -15 -5 -43 14 -43 13 0 20 7 20 19 0 19 -23 35 -34
24z"/>
<path d="M6647 6373 c-4 -3 -7 -21 -7 -40 0 -23 5 -33 15 -33 11 0 15 11 15
40 0 38 -8 49 -23 33z"/>
<path d="M6804 6359 c4 -13 12 -50 18 -81 12 -62 23 -73 30 -33 6 30 -26 128
-43 134 -8 2 -10 -3 -5 -20z"/>
<path d="M6730 6225 c0 -8 5 -15 10 -15 6 0 10 7 10 15 0 8 -4 15 -10 15 -5 0
-10 -7 -10 -15z"/>
<path d="M6635 6183 c3 -16 13 -35 21 -43 12 -12 14 -11 14 9 0 28 -17 61 -31
61 -7 0 -9 -10 -4 -27z"/>
<path d="M6721 6126 c-18 -32 -2 -81 25 -81 24 0 30 36 14 76 -15 35 -23 36
-39 5z"/>
<path d="M6653 6005 c-15 -17 -18 -145 -3 -145 6 0 10 3 11 8 2 20 8 152 6
152 -1 -1 -8 -7 -14 -15z"/>
<path d="M6730 6005 c0 -8 5 -15 10 -15 6 0 10 7 10 15 0 8 -4 15 -10 15 -5 0
-10 -7 -10 -15z"/>
<path d="M6815 5993 c4 -16 9 -52 12 -80 7 -81 33 -64 33 20 -1 26 -8 51 -19
65 -26 30 -35 28 -26 -5z"/>
<path d="M6729 5790 c-1 -16 -2 -36 -3 -42 -2 -22 42 -21 53 1 14 26 -5 71
-31 71 -13 0 -18 -8 -19 -30z"/>
<path d="M6740 5694 c0 -3 6 -12 14 -19 12 -12 15 -12 19 -1 3 8 3 17 0 20 -8
8 -33 8 -33 0z"/>
<path d="M6655 5649 c-6 -36 -2 -60 9 -48 9 10 15 89 7 89 -5 0 -12 -18 -16
-41z"/>
<path d="M6835 5658 c11 -44 11 -88 2 -115 -9 -26 10 -32 31 -11 20 20 15 122
-6 141 -28 25 -35 21 -27 -15z"/>
<path d="M6664 5551 c3 -18 6 -38 6 -43 0 -6 7 -5 15 2 20 17 19 27 -6 53
l-22 22 7 -34z"/>
<path d="M4053 6360 c0 -36 2 -50 4 -32 2 17 2 47 0 65 -2 17 -4 3 -4 -33z"/>
<path d="M8830 5733 c0 -5 5 -15 10 -23 8 -12 10 -11 10 8 0 12 -4 22 -10 22
-5 0 -10 -3 -10 -7z"/>
<path d="M8970 5650 c0 -28 4 -50 9 -50 5 0 16 -3 25 -6 20 -8 21 16 4 62 -19
55 -38 51 -38 -6z"/>
<path d="M8850 5677 c0 -20 32 -109 37 -104 2 3 -3 30 -12 61 -16 54 -25 70
-25 43z"/>
<path d="M9076 5583 c11 -45 23 -63 44 -63 11 0 20 5 20 10 0 17 -31 60 -52
71 -17 9 -18 7 -12 -18z"/>
<path d="M8940 5541 c0 -16 9 -39 20 -52 19 -23 21 -23 34 -6 16 21 11 47 -9
47 -8 0 -17 9 -20 20 -9 30 -25 24 -25 -9z"/>
<path d="M10998 5603 c-41 -48 -27 -66 30 -37 18 8 37 12 44 8 7 -4 5 2 -5 13
-9 11 -14 23 -10 26 3 4 -5 7 -19 7 -14 0 -32 -8 -40 -17z"/>
<path d="M10705 5510 c-3 -5 -1 -10 4 -10 6 0 11 5 11 10 0 6 -2 10 -4 10 -3
0 -8 -4 -11 -10z"/>
<path d="M10781 5497 c-26 -28 -11 -49 17 -24 9 8 26 17 37 19 28 5 25 22 -5
26 -17 2 -34 -5 -49 -21z"/>
<path d="M11037 5506 c-23 -17 -22 -36 2 -36 27 0 45 24 29 38 -9 7 -18 7 -31
-2z"/>
<path d="M10943 5482 c-14 -2 -25 -13 -29 -28 -9 -33 1 -40 32 -23 46 24 44
59 -3 51z"/>
<path d="M10530 5459 c-19 -4 -71 -19 -115 -33 l-80 -26 55 6 c30 4 75 15 99
25 24 11 49 19 57 19 7 0 16 5 19 10 3 6 5 9 3 9 -2 -1 -19 -5 -38 -10z"/>
<path d="M10528 5423 c-18 -5 -31 -30 -22 -44 7 -12 34 -12 34 1 0 5 11 12 25
16 14 4 24 11 22 18 -4 12 -32 17 -59 9z"/>
<path d="M10833 5415 c-3 -9 -3 -18 0 -21 9 -9 27 6 27 22 0 19 -19 18 -27 -1z"/>
<path d="M10298 5383 c7 -3 16 -2 19 1 4 3 -2 6 -13 5 -11 0 -14 -3 -6 -6z"/>
<path d="M10712 5378 c-17 -17 -15 -48 2 -48 30 0 46 13 46 36 0 26 -27 33
-48 12z"/>
<path d="M10980 5371 c-19 -8 -24 -31 -7 -31 6 0 19 5 27 10 19 12 1 30 -20
21z"/>
<path d="M10130 5354 l-35 -14 45 6 c25 4 52 10 60 15 26 14 -31 9 -70 -7z"/>
<path d="M10614 5339 c-10 -17 13 -36 27 -22 12 12 4 33 -11 33 -5 0 -12 -5
-16 -11z"/>
<path d="M10218 5332 c-31 -3 -38 -7 -38 -24 0 -18 4 -20 37 -15 70 12 70 45
1 39z"/>
<path d="M10868 5327 c-41 -16 -37 -41 4 -33 30 6 47 20 48 39 0 9 -19 7 -52
-6z"/>
<path d="M9873 5303 c9 -2 23 -2 30 0 6 3 -1 5 -18 5 -16 0 -22 -2 -12 -5z"/>
<path d="M10436 5284 c-9 -23 -8 -24 13 -24 30 0 51 11 51 26 0 20 -56 18 -64
-2z"/>
<path d="M9653 5283 c-18 -2 -33 -8 -33 -12 0 -10 89 -2 110 10 16 9 -15 10
-77 2z"/>
<path d="M9870 5260 c0 -18 5 -21 38 -18 25 2 37 8 37 18 0 10 -12 16 -37 18
-33 3 -38 0 -38 -18z"/>
<path d="M10326 5258 c-23 -26 -6 -39 39 -31 38 7 38 7 30 32 -8 27 -44 26
-69 -1z"/>
<path d="M9540 5260 c-20 -6 -21 -8 -5 -8 11 0 31 4 45 8 20 6 21 8 5 8 -11 0
-31 -4 -45 -8z"/>
<path d="M10613 5238 c-24 -5 -43 -14 -43 -19 0 -6 -4 -8 -9 -4 -5 3 -12 1
-15 -4 -3 -5 10 -11 30 -13 26 -3 42 2 62 19 33 28 28 32 -25 21z"/>
<path d="M9594 5225 c-10 -25 6 -34 56 -32 55 2 64 15 23 35 -36 16 -72 15
-79 -3z"/>
<path d="M10212 5213 c2 -10 10 -18 18 -18 8 0 16 8 18 18 2 12 -3 17 -18 17
-15 0 -20 -5 -18 -17z"/>
<path d="M10073 5210 c-13 -5 -23 -13 -23 -18 0 -5 -11 -7 -25 -4 -21 4 -25 1
-25 -21 0 -20 4 -24 20 -20 11 3 20 9 20 14 0 5 7 6 16 2 15 -6 84 25 84 38 0
7 -26 20 -38 18 -4 0 -17 -4 -29 -9z"/>
<path d="M10625 5178 c-11 -6 -22 -15 -25 -19 -3 -4 -14 -9 -25 -12 -11 -2 -2
-3 19 -2 21 2 42 7 45 12 3 5 17 14 31 20 l25 12 -25 0 c-14 0 -34 -5 -45 -11z"/>
<path d="M9910 5154 c0 -9 5 -14 12 -12 18 6 21 28 4 28 -9 0 -16 -7 -16 -16z"/>
<path d="M9725 5150 c-3 -6 -3 -19 0 -30 7 -23 40 -27 48 -6 3 7 22 16 41 20
20 4 36 11 36 16 0 14 -34 12 -49 -2 -11 -10 -14 -10 -18 0 -6 14 -49 16 -58
2z"/>
<path d="M10270 5140 c0 -5 -11 -10 -24 -10 -33 0 -43 -18 -14 -24 37 -8 52
-4 78 21 l25 23 -33 0 c-17 0 -32 -4 -32 -10z"/>
<path d="M9625 5129 c-10 -15 1 -23 20 -15 9 3 13 10 10 16 -8 13 -22 13 -30
-1z"/>
<path d="M10429 5121 c-19 -9 -64 -22 -100 -28 -35 -6 -80 -18 -99 -27 l-35
-16 50 6 c28 3 57 10 65 14 8 4 47 13 85 19 39 6 88 20 110 31 l39 20 -39 0
c-22 -1 -56 -9 -76 -19z"/>
<path d="M9385 5120 c-10 -17 12 -37 25 -24 8 8 6 15 -4 23 -10 9 -16 9 -21 1z"/>
<path d="M9460 5111 c0 -26 30 -35 49 -16 14 14 14 17 1 25 -25 16 -50 12 -50
-9z"/>
<path d="M9545 5110 c4 -6 11 -8 16 -5 14 9 11 15 -7 15 -8 0 -12 -5 -9 -10z"/>
<path d="M9927 5083 c-22 -4 -28 -9 -25 -26 4 -30 43 -35 60 -8 7 12 18 21 25
21 7 0 13 5 13 10 0 10 -20 11 -73 3z"/>
<path d="M9620 5025 c0 -20 5 -25 24 -25 24 0 41 23 30 41 -3 5 -16 9 -30 9
-19 0 -24 -5 -24 -25z"/>
<path d="M10050 5035 c-41 -8 -103 -14 -137 -14 -34 -1 -64 -5 -67 -10 -3 -4
-25 -11 -48 -15 -36 -6 -40 -9 -25 -17 20 -12 114 -2 123 12 3 5 33 9 67 9 55
0 143 23 163 43 4 4 5 7 3 6 -2 -1 -38 -7 -79 -14z"/>
<path d="M9016 5304 c-27 -26 -18 -36 12 -14 23 17 33 19 54 11 15 -5 31 -18
37 -28 9 -15 10 -15 11 -2 0 42 -81 66 -114 33z"/>
<path d="M8987 5245 c-4 -8 -2 -17 3 -20 6 -4 10 3 10 14 0 25 -6 27 -13 6z"/>
<path d="M8980 5110 c0 -16 4 -30 9 -30 5 0 12 -12 14 -27 3 -24 4 -23 5 7 2
42 -7 80 -19 80 -5 0 -9 -13 -9 -30z"/>
<path d="M9202 5090 c0 -19 2 -27 5 -17 2 9 2 25 0 35 -3 9 -5 1 -5 -18z"/>
<path d="M9234 4977 c2 -30 26 -34 26 -4 0 13 -6 24 -14 24 -7 0 -13 -9 -12
-20z"/>
<path d="M9191 4934 c0 -11 3 -14 6 -6 3 7 2 16 -1 19 -3 4 -6 -2 -5 -13z"/>
<path d="M9159 4902 c-8 -10 -21 -21 -29 -25 -13 -5 -13 -6 1 -6 17 -1 56 36
47 45 -3 3 -12 -3 -19 -14z"/>
<path d="M9376 4705 c-4 -12 -1 -16 11 -13 16 3 18 13 3 23 -4 3 -10 -1 -14
-10z"/>
<path d="M9283 4673 c-7 -2 -13 -18 -13 -35 0 -23 4 -29 16 -24 9 3 18 6 20 6
2 0 4 14 4 30 0 30 -4 33 -27 23z"/>
<path d="M9448 4623 c-9 -2 -21 -18 -27 -35 -18 -50 -13 -55 19 -20 17 18 30
40 30 48 0 8 -1 13 -2 13 -2 -1 -11 -3 -20 -6z"/>
<path d="M9315 4556 c-17 -36 -17 -67 0 -73 21 -6 37 16 42 61 5 37 3 46 -10
46 -9 0 -23 -15 -32 -34z"/>
<path d="M9197 4474 c-33 -18 -33 -47 1 -52 17 -3 22 2 22 17 0 12 5 21 10 21
6 0 10 7 10 15 0 19 -7 18 -43 -1z"/>
<path d="M9356 4438 c-11 -42 -7 -68 9 -62 10 4 15 20 15 45 0 43 -14 52 -24
17z"/>
<path d="M9230 4355 c-11 -13 -8 -15 14 -15 16 0 26 5 26 15 0 8 -6 15 -14 15
-7 0 -19 -7 -26 -15z"/>
<path d="M9130 4293 c0 -25 1 -26 16 -11 9 9 13 21 10 27 -13 20 -26 11 -26
-16z"/>
<path d="M9307 4289 c-20 -35 -18 -43 7 -33 9 3 16 15 16 25 0 10 5 19 10 19
6 0 10 5 10 10 0 21 -26 8 -43 -21z"/>
<path d="M9175 4262 c-6 -4 -17 -20 -25 -35 -11 -23 -12 -30 -1 -36 16 -11 47
-3 61 15 26 30 -5 79 -35 56z"/>
<path d="M9067 4192 c-10 -10 -17 -25 -17 -33 0 -8 10 -3 25 13 14 15 25 30
25 33 0 11 -18 4 -33 -13z"/>
<path d="M9200 4109 c0 -17 4 -28 10 -24 6 3 10 17 10 31 0 13 -4 24 -10 24
-5 0 -10 -14 -10 -31z"/>
<path d="M9000 4071 c0 -11 -4 -23 -10 -26 -15 -9 -12 -22 5 -22 10 0 15 11
15 34 0 18 -2 33 -5 33 -3 0 -5 -9 -5 -19z"/>
<path d="M9172 4045 c-7 -14 -18 -25 -26 -25 -14 0 -31 -29 -21 -38 12 -12 53
19 63 47 13 37 -1 50 -16 16z"/>
<path d="M9002 3977 c-23 -24 -30 -77 -11 -77 20 0 59 50 59 76 0 30 -20 31
-48 1z"/>
<path d="M8910 3944 c-28 -19 -50 -44 -50 -56 0 -10 26 4 58 32 31 26 25 45
-8 24z"/>
<path d="M9034 3867 c-8 -21 -3 -29 13 -19 8 5 9 13 3 22 -7 12 -10 12 -16 -3z"/>
<path d="M8810 3794 c0 -22 2 -25 15 -14 8 7 15 19 15 26 0 8 -7 14 -15 14
-10 0 -15 -10 -15 -26z"/>
<path d="M9010 3805 c0 -8 -7 -15 -15 -15 -12 0 -35 -28 -35 -44 0 -18 38 -1
53 23 19 33 22 51 7 51 -5 0 -10 -7 -10 -15z"/>
<path d="M8840 3750 c0 -5 -7 -10 -15 -10 -10 0 -15 -10 -16 -27 0 -16 -2 -36
-4 -45 -2 -10 1 -18 6 -18 5 0 9 5 9 10 0 6 11 15 24 20 22 8 41 54 29 72 -6
12 -33 10 -33 -2z"/>
<path d="M8723 3703 c-13 -8 -23 -24 -23 -35 0 -17 3 -17 35 8 52 39 40 64
-12 27z"/>
<path d="M8852 3624 c-8 -8 -20 -35 -29 -59 -9 -29 -21 -45 -31 -45 -14 -1
-14 -2 2 -12 16 -9 23 -6 42 17 23 29 47 102 35 109 -3 2 -12 -3 -19 -10z"/>
<path d="M8642 3560 c0 -14 2 -19 5 -12 2 6 2 18 0 25 -3 6 -5 1 -5 -13z"/>
<path d="M8640 3498 c-24 -26 -23 -51 3 -56 25 -5 57 26 57 55 0 30 -32 31
-60 1z"/>
<path d="M8557 3472 c-25 -28 -20 -33 13 -14 16 9 30 20 30 25 0 14 -27 7 -43
-11z"/>
<path d="M8657 3327 c-3 -9 -13 -17 -21 -17 -15 0 -36 -29 -36 -48 0 -5 11 -7
24 -5 25 5 52 51 44 74 -3 9 -6 7 -11 -4z"/>
<path d="M8451 3304 c0 -11 3 -14 6 -6 3 7 2 16 -1 19 -3 4 -6 -2 -5 -13z"/>
<path d="M8459 3243 c-5 -14 -8 -32 -5 -40 9 -22 42 -15 54 12 19 40 15 55
-13 55 -18 0 -28 -7 -36 -27z"/>
<path d="M8359 3204 c-5 -15 -8 -29 -5 -31 9 -9 46 23 46 39 0 28 -29 21 -41
-8z"/>
<path d="M8511 3144 c0 -11 3 -14 6 -6 3 7 2 16 -1 19 -3 4 -6 -2 -5 -13z"/>
<path d="M8462 3064 c-18 -19 -32 -39 -30 -45 4 -12 48 24 48 39 0 6 5 12 12
14 6 2 9 9 7 16 -2 6 -19 -4 -37 -24z"/>
<path d="M8276 3051 c-4 -7 -5 -15 -2 -18 9 -9 19 4 14 18 -4 11 -6 11 -12 0z"/>
<path d="M8307 3000 c-20 -24 -23 -70 -4 -70 22 0 47 34 47 63 0 32 -19 35
-43 7z"/>
<path d="M8211 2951 c-11 -11 -21 -27 -20 -33 0 -10 2 -10 6 0 2 6 13 12 23
12 23 0 31 12 21 29 -7 11 -13 9 -30 -8z"/>
<path d="M8317 2874 c-9 -9 4 -35 14 -28 5 3 9 12 9 20 0 14 -12 19 -23 8z"/>
<path d="M8117 2797 c-3 -8 -1 -20 4 -28 5 -8 9 -9 10 -4 0 6 2 18 4 28 4 20
-10 23 -18 4z"/>
<path d="M8276 2768 c-17 -24 -20 -38 -8 -38 15 0 29 16 36 38 9 29 -8 29 -28
0z"/>
<path d="M8136 2718 c-22 -31 -21 -68 2 -68 20 0 42 38 42 70 0 27 -25 25 -44
-2z"/>
<path d="M10753 2651 c-13 -11 -23 -21 -23 -24 0 -10 60 18 64 30 8 19 -15 15
-41 -6z"/>
<path d="M8020 2631 c-15 -30 -12 -33 10 -11 22 22 25 30 10 30 -5 0 -14 -9
-20 -19z"/>
<path d="M8115 2478 c-9 -13 -11 -24 -5 -26 12 -4 40 22 40 37 0 18 -18 12
-35 -11z"/>
<path d="M7997 2422 c-9 -10 -17 -29 -17 -41 0 -32 31 -23 43 12 12 37 -3 54
-26 29z"/>
<path d="M7898 2366 c-17 -13 -25 -46 -12 -46 12 0 44 43 38 51 -6 11 -5 11
-26 -5z"/>
<path d="M8020 2293 l1 -38 15 28 c15 27 12 47 -7 47 -5 0 -9 -17 -9 -37z"/>
<path d="M7831 2244 c0 -11 3 -14 6 -6 3 7 2 16 -1 19 -3 4 -6 -2 -5 -13z"/>
<path d="M7995 2214 c-9 -15 -21 -40 -25 -56 l-9 -29 28 30 c30 32 45 68 31
76 -4 3 -16 -7 -25 -21z"/>
<path d="M7872 2115 c-15 -31 -16 -75 -2 -75 14 0 38 40 42 70 4 34 -25 38
-40 5z"/>
<path d="M7800 2050 c0 -5 -7 -10 -15 -10 -11 0 -15 -11 -15 -41 0 -36 2 -39
15 -25 27 26 44 86 25 86 -5 0 -10 -4 -10 -10z"/>
<path d="M7901 1945 c-6 -16 -17 -43 -23 -58 -8 -20 -8 -31 0 -39 16 -16 56
81 44 107 -9 19 -11 18 -21 -10z"/>
<path d="M7793 1823 c-18 -7 -17 -73 1 -73 15 0 26 21 26 50 0 22 -9 29 -27
23z"/>
<path d="M7709 1726 c-22 -29 -33 -82 -19 -91 6 -4 14 -4 17 -1 6 6 24 108 20
112 -1 1 -9 -8 -18 -20z"/>
<path d="M7817 1657 c-3 -18 -8 -42 -12 -55 -6 -17 -4 -22 6 -20 33 7 53 90
25 101 -10 4 -16 -4 -19 -26z"/>
<path d="M10037 1670 c-9 -11 -17 -24 -17 -28 0 -5 -11 -19 -25 -32 -14 -13
-25 -29 -25 -36 0 -6 -7 -17 -15 -24 -9 -7 -23 -28 -31 -46 -9 -19 -22 -34
-28 -34 -7 0 -20 -17 -30 -37 l-17 -38 29 35 c16 19 44 51 61 70 17 19 31 41
31 48 0 6 5 12 10 12 6 0 14 8 17 18 4 9 14 24 23 32 16 16 50 66 50 75 0 11
-16 4 -33 -15z"/>
<path d="M9593 1544 c-23 -25 -15 -31 18 -14 10 6 19 17 19 25 0 21 -11 17
-37 -11z"/>
<path d="M7742 1518 c-16 -16 -15 -38 2 -38 20 0 29 17 19 35 -7 12 -12 12
-21 3z"/>
<path d="M9520 1493 c-13 -15 -12 -16 4 -10 10 4 20 7 22 7 2 0 4 5 4 10 0 15
-13 12 -30 -7z"/>
<path d="M9440 1453 c-18 -8 -44 -33 -33 -33 23 1 52 14 57 26 6 15 1 16 -24
7z"/>
<path d="M7680 1426 c-13 -25 -7 -76 9 -76 7 0 31 73 31 94 0 16 -28 3 -40
-18z"/>
<path d="M7810 1371 c0 -46 2 -52 15 -41 19 16 19 49 0 74 -14 18 -15 16 -15
-33z"/>
<path d="M9339 1390 l-24 -20 28 11 c15 7 27 16 27 21 0 12 -5 10 -31 -12z"/>
<path d="M9258 1342 c-7 -10 -20 -21 -29 -24 -16 -6 -49 -60 -49 -80 0 -4 19
-7 43 -7 23 1 33 3 22 6 -44 9 -45 11 -34 37 6 13 21 29 33 36 24 13 52 50 37
50 -6 0 -16 -8 -23 -18z"/>
<path d="M7750 1247 c0 -41 8 -67 22 -67 14 0 5 93 -9 98 -9 2 -13 -8 -13 -31z"/>
<path d="M7820 1136 c0 -8 5 -18 11 -22 6 -4 9 -20 6 -39 -7 -42 6 -64 27 -46
16 14 15 39 -6 94 -11 28 -38 38 -38 13z"/>
<path d="M7709 1058 c5 -30 12 -43 29 -49 27 -10 27 -8 2 41 -27 53 -37 56
-31 8z"/>
<path d="M7800 965 c0 -30 20 -75 33 -75 5 0 7 14 3 31 -3 17 -6 40 -6 50 0
11 -7 19 -15 19 -9 0 -15 -9 -15 -25z"/>
<path d="M7770 876 c0 -35 10 -56 26 -56 8 0 14 10 14 25 0 14 -4 25 -10 25
-5 0 -10 7 -10 15 0 8 -4 15 -10 15 -5 0 -10 -11 -10 -24z"/>
<path d="M7888 895 c-7 -7 15 -75 24 -75 11 0 10 13 -5 49 -7 17 -16 29 -19
26z"/>
<path d="M7865 770 c-3 -6 1 -13 10 -16 19 -8 30 0 20 15 -8 14 -22 14 -30 1z"/>
<path d="M7790 753 c0 -12 7 -23 15 -27 13 -5 14 -2 4 17 -17 32 -19 33 -19
10z"/>
<path d="M7960 691 c0 -27 17 -61 30 -61 18 0 10 47 -10 65 -19 18 -20 17 -20
-4z"/>
<path d="M9010 4596 c0 -2 8 -10 18 -17 15 -13 16 -12 3 4 -13 16 -21 21 -21
13z"/>
<path d="M6720 1754 c41 -19 157 -43 216 -43 48 -1 104 -44 104 -80 0 -5 13
-12 30 -16 16 -4 33 -12 37 -19 5 -8 31 -16 58 -19 28 -3 41 -3 30 0 -11 3
-22 9 -25 12 -3 4 -25 18 -50 32 -54 29 -62 36 -77 71 -10 23 -20 27 -70 33
-32 3 -69 10 -83 15 -14 5 -52 11 -85 14 -33 3 -73 8 -90 11 -29 6 -29 6 5
-11z"/>
<path d="M6630 1644 c0 -11 80 -37 88 -29 10 10 -15 26 -51 32 -21 3 -37 2
-37 -3z"/>
<path d="M6950 1631 c0 -4 11 -6 25 -3 14 2 25 6 25 8 0 2 -11 4 -25 4 -14 0
-25 -4 -25 -9z"/>
<path d="M7007 1628 c-2 -7 0 -26 6 -41 5 -15 7 -30 4 -33 -7 -7 -67 27 -67
38 0 4 -16 8 -35 8 -19 0 -35 -3 -35 -7 1 -21 19 -31 66 -38 41 -5 54 -11 63
-31 6 -14 19 -24 32 -24 20 0 21 3 15 53 -4 28 -11 54 -17 55 -5 2 -9 10 -9
18 0 17 -17 19 -23 2z"/>
<path d="M6745 1530 c-3 -6 -17 -7 -30 -4 -12 3 -26 1 -29 -5 -4 -7 1 -11 14
-11 12 0 28 -7 36 -15 20 -19 104 -21 104 -2 0 7 -17 21 -38 30 -45 20 -49 20
-57 7z"/>
<path d="M6910 1476 c0 -9 5 -16 10 -16 6 0 10 4 10 9 0 6 -4 13 -10 16 -5 3
-10 -1 -10 -9z"/>
<path d="M6980 1475 c-16 -20 -6 -45 19 -45 11 0 26 -3 35 -6 12 -5 16 0 16
18 0 44 -44 64 -70 33z"/>
<path d="M6600 1462 c0 -20 34 -52 56 -52 33 0 30 11 -9 38 -35 23 -47 27 -47
14z"/>
<path d="M7120 1456 c0 -14 36 -46 52 -46 13 0 9 31 -6 46 -19 18 -46 18 -46
0z"/>
<path d="M7330 1400 c0 -13 34 -30 60 -30 16 0 20 4 16 16 -3 9 -6 18 -6 20 0
2 -16 4 -35 4 -19 0 -35 -4 -35 -10z"/>
<path d="M6840 1392 c0 -15 24 -32 47 -32 16 0 23 6 23 20 0 16 -7 20 -35 20
-19 0 -35 -4 -35 -8z"/>
<path d="M7100 1370 c0 -11 5 -20 10 -20 6 0 10 9 10 20 0 11 -4 20 -10 20 -5
0 -10 -9 -10 -20z"/>
<path d="M7180 1342 c0 -25 19 -42 47 -42 29 0 32 35 4 50 -30 15 -51 12 -51
-8z"/>
<path d="M6748 1323 c7 -3 16 -2 19 1 4 3 -2 6 -13 5 -11 0 -14 -3 -6 -6z"/>
<path d="M7370 1285 c0 -16 6 -25 15 -25 9 0 15 9 15 25 0 16 -6 25 -15 25 -9
0 -15 -9 -15 -25z"/>
<path d="M6965 1290 c3 -5 8 -10 11 -10 2 0 4 5 4 10 0 6 -5 10 -11 10 -5 0
-7 -4 -4 -10z"/>
<path d="M7450 1275 c0 -18 7 -26 26 -31 14 -4 30 -2 36 4 15 15 -13 52 -39
52 -18 0 -23 -6 -23 -25z"/>
<path d="M7280 1190 c0 -11 53 -40 73 -40 28 0 28 30 1 40 -33 13 -74 13 -74
0z"/>
<path d="M7333 1113 c9 -2 25 -2 35 0 9 3 1 5 -18 5 -19 0 -27 -2 -17 -5z"/>
<path d="M3338 3713 c7 -3 16 -2 19 1 4 3 -2 6 -13 5 -11 0 -14 -3 -6 -6z"/>
<path d="M2795 3370 c-10 -17 3 -76 21 -90 22 -19 27 -6 13 42 -15 50 -24 64
-34 48z"/>
<path d="M11398 3104 c-11 -10 3 -34 19 -34 8 0 13 7 11 17 -3 18 -20 27 -30
17z"/>
<path d="M4360 2740 c0 -5 9 -14 20 -20 22 -12 27 -1 8 18 -14 14 -28 16 -28
2z"/>
<path d="M11105 2543 c-4 -12 1 -24 16 -36 27 -22 33 -17 24 22 -7 34 -29 41
-40 14z"/>
</g>
</svg>
