<?xml version="1.0" standalone="no"?>
<!DOCTYPE svg PUBLIC "-//W3C//DTD SVG 20010904//EN"
 "http://www.w3.org/TR/2001/REC-SVG-20010904/DTD/svg10.dtd">
<svg version="1.0" xmlns="http://www.w3.org/2000/svg"
 width="1295.000000pt" height="1294.000000pt" viewBox="0 0 1295.000000 1294.000000"
 preserveAspectRatio="xMidYMid meet">
<metadata>
Created by potrace 1.16, written by Peter Selinger 2001-2019
</metadata>
<g transform="translate(0.000000,1294.000000) scale(0.100000,-0.100000)"
fill="#000000" stroke="none">
<path d="M0 6470 l0 -6470 6475 0 6475 0 0 6470 0 6470 -6475 0 -6475 0 0
-6470z m6970 6097 c14 -3 61 -8 105 -11 579 -46 1246 -212 1822 -454 1438
-606 2630 -1781 3251 -3207 287 -659 445 -1314 502 -2075 9 -118 6 -805 -3
-850 -3 -14 -8 -61 -12 -105 -3 -44 -8 -93 -10 -110 -3 -16 -7 -52 -10 -80
-63 -552 -242 -1210 -470 -1720 l-26 -60 -25 30 c-19 23 -24 42 -24 84 0 50
16 119 31 131 6 5 43 83 70 150 19 48 17 218 -4 295 -10 33 -30 78 -45 100
-51 74 -66 116 -66 185 0 59 28 177 44 190 4 3 15 46 24 95 14 81 14 98 2 170
-19 102 -76 215 -151 300 -56 64 -70 110 -66 225 9 253 7 333 -13 385 -23 62
-48 116 -84 176 -31 53 -162 199 -178 199 -18 0 -164 151 -170 177 -4 13 -10
23 -14 23 -10 0 -20 49 -31 160 -13 134 -24 196 -36 212 -5 7 -16 34 -23 61
-7 26 -17 47 -21 47 -5 0 -9 6 -9 14 0 8 -7 16 -15 20 -8 3 -15 15 -15 26 0
11 -8 28 -17 38 -10 10 -43 45 -73 78 -58 62 -136 124 -157 124 -7 0 -13 6
-13 13 0 14 -6 18 -115 77 -111 61 -263 213 -330 330 -26 47 -53 88 -59 92 -6
4 -15 20 -21 35 -11 30 -59 121 -99 188 -22 36 -71 178 -113 325 -8 30 -21 71
-28 90 -7 19 -20 58 -29 85 -18 59 -37 102 -75 170 -15 28 -39 70 -52 95 -13
25 -29 50 -35 55 -6 6 -21 26 -34 45 -13 19 -30 39 -37 43 -7 4 -13 14 -13 22
0 36 -257 238 -370 291 -19 9 -53 25 -75 35 -22 10 -48 19 -57 19 -9 0 -37 9
-63 20 -26 11 -59 20 -75 20 -15 0 -41 7 -56 15 -23 12 -68 15 -209 14 -187 0
-217 -3 -350 -38 -73 -19 -81 -19 -97 -4 -10 9 -18 22 -18 29 0 7 -6 19 -13
26 -34 35 -56 87 -48 116 12 39 -26 121 -65 143 -65 37 -185 30 -232 -14 -53
-48 -76 -144 -51 -215 8 -25 6 -39 -12 -81 -12 -28 -26 -51 -30 -51 -5 0 -15
-12 -21 -27 -6 -16 -24 -56 -40 -90 l-30 -63 -34 26 c-19 15 -34 30 -34 34 0
11 -81 90 -91 90 -13 0 -109 96 -109 109 0 13 -27 57 -52 85 -10 11 -18 22
-18 25 0 17 -67 33 -119 29 -69 -5 -112 -33 -135 -91 -28 -66 -14 -175 25
-200 18 -11 19 -24 19 -179 0 -140 -2 -168 -14 -168 -8 0 -22 -10 -30 -22
l-16 -22 -40 23 c-45 25 -83 24 -144 -6 -37 -17 -56 -44 -63 -87 -3 -17 -5
-33 -6 -36 -2 -13 15 -87 25 -106 5 -12 25 -27 45 -35 41 -16 48 -28 57 -94 4
-27 12 -67 18 -88 9 -28 8 -41 0 -49 -7 -7 -12 -32 -12 -55 0 -52 32 -89 86
-99 37 -7 42 -22 24 -69 -14 -36 15 -131 49 -164 23 -21 23 -26 12 -55 -23
-54 -34 -170 -23 -238 12 -77 44 -164 72 -193 11 -12 20 -27 20 -34 0 -14 96
-111 111 -111 5 0 9 -6 9 -13 0 -8 10 -19 23 -26 12 -6 31 -25 42 -41 11 -17
23 -30 28 -30 4 0 7 -7 7 -15 0 -8 27 -42 60 -76 33 -34 60 -63 60 -65 0 -2
-9 -4 -21 -4 -33 0 -16 -24 25 -33 43 -11 57 -33 77 -126 7 -35 19 -66 26 -68
7 -3 13 -10 13 -17 0 -6 21 -54 47 -106 42 -83 62 -109 161 -208 l112 -112 0
-53 c0 -30 -9 -80 -19 -113 -35 -107 -43 -167 -39 -279 4 -118 19 -165 94
-291 18 -32 18 -34 -9 -155 -37 -174 -64 -335 -77 -469 -6 -63 -19 -178 -30
-255 -10 -77 -24 -192 -29 -255 -6 -63 -17 -158 -25 -210 -8 -52 -17 -121 -21
-153 -6 -53 -10 -61 -44 -85 -38 -27 -84 -86 -115 -149 -9 -18 -21 -33 -26
-33 -6 0 -10 -6 -10 -13 0 -12 -86 -231 -115 -294 -8 -17 -15 -38 -15 -46 0
-44 -11 -47 -47 -12 -19 18 -57 42 -84 51 -27 10 -49 22 -49 26 0 4 -9 8 -19
8 -11 0 -22 4 -26 9 -3 5 -19 12 -35 16 -34 8 -36 12 -15 62 8 19 15 44 15 54
0 11 5 19 10 19 12 0 14 163 1 188 -4 9 -16 49 -25 87 -9 39 -32 103 -51 142
-32 68 -40 81 -72 118 -7 7 -13 19 -13 25 0 12 -148 160 -161 160 -5 0 -9 4
-9 9 0 5 -16 15 -35 21 -19 6 -35 16 -35 21 0 5 -7 9 -15 9 -8 0 -15 4 -15 9
0 17 -136 43 -197 38 -66 -5 -143 -24 -158 -38 -5 -5 -17 -9 -27 -9 -10 0 -18
-4 -18 -9 0 -4 -22 -17 -48 -28 -27 -11 -72 -37 -100 -57 -29 -20 -56 -36 -61
-36 -5 0 -16 -6 -23 -14 -8 -7 -33 -23 -56 -35 l-42 -22 -63 19 c-94 29 -305
38 -436 18 -117 -18 -149 -13 -235 33 -28 15 -80 37 -116 50 -36 13 -69 27
-75 32 -5 5 -18 9 -30 9 -11 0 -38 9 -60 20 -22 11 -44 20 -51 20 -6 0 -17 7
-24 15 -7 8 -21 15 -31 15 -11 0 -19 4 -19 9 0 4 -20 14 -45 21 -25 7 -45 16
-45 19 0 4 -20 13 -45 20 -24 7 -56 23 -69 34 -14 12 -53 33 -86 47 -33 14
-60 28 -60 31 0 4 -21 12 -46 18 -48 12 -93 53 -94 84 0 22 -128 147 -174 170
-20 9 -52 25 -72 35 -39 19 -50 33 -76 106 -10 27 -22 52 -26 55 -5 3 -23 44
-41 91 -41 105 -51 130 -62 152 -5 10 -9 26 -9 37 0 11 -4 21 -8 23 -13 5 -51
165 -82 338 -5 30 -14 82 -20 115 -22 128 -49 235 -61 245 -3 3 -9 41 -13 85
-7 75 -25 175 -46 255 -5 19 -17 66 -25 104 -9 38 -23 75 -30 83 -8 7 -19 39
-25 71 -7 31 -27 103 -46 159 -19 56 -34 108 -34 116 0 8 -6 17 -14 20 -8 3
-17 21 -21 39 -7 29 -33 84 -71 150 -6 11 -21 30 -33 44 -11 13 -37 48 -57 76
-20 29 -81 97 -136 150 -109 107 -111 113 -49 157 45 32 74 131 76 257 2 87 5
106 26 141 13 23 39 66 57 96 22 38 48 64 78 82 37 22 45 32 50 65 l7 40 49 0
c57 0 92 16 131 59 38 43 50 108 51 286 1 83 7 166 13 185 6 19 15 49 20 65 7
26 13 30 43 30 31 0 35 3 36 26 1 14 14 40 30 58 16 17 36 53 45 78 15 45 17
47 68 59 28 6 59 19 69 27 9 9 29 27 43 39 52 47 98 193 108 343 4 55 12 110
19 122 14 26 16 182 3 215 -5 13 -17 50 -27 83 -23 81 -70 170 -98 184 -15 9
-27 29 -36 64 -7 29 -16 59 -20 67 -4 8 -18 39 -31 67 -13 29 -27 53 -31 53
-5 0 -8 7 -8 15 0 8 -3 15 -7 15 -5 0 -21 23 -38 50 -16 27 -33 50 -37 50 -5
0 -8 7 -8 15 0 8 -4 15 -8 15 -5 0 -15 11 -22 25 -8 14 -24 28 -36 31 -13 3
-26 14 -29 24 -5 15 -29 39 -117 117 -7 6 -26 25 -42 42 -16 17 -38 34 -50 37
-22 7 -67 37 -101 67 -37 33 -115 64 -275 109 -143 40 -282 56 -484 57 l-140
1 40 29 c80 59 347 222 510 312 499 276 1081 492 1646 613 261 56 635 109 858
122 63 4 117 8 120 11 6 6 761 -3 790 -10z m-3555 -1292 c44 -8 91 -16 105
-18 56 -11 143 -38 163 -52 12 -8 28 -15 36 -15 25 0 185 -83 225 -117 22 -18
45 -33 51 -33 13 0 85 -64 85 -76 1 -5 19 -21 41 -37 22 -15 52 -48 67 -74 15
-26 39 -60 55 -76 15 -16 27 -31 27 -34 0 -3 13 -33 29 -67 16 -33 32 -78 36
-98 7 -35 5 -38 -16 -38 -37 0 -92 -23 -119 -48 -19 -18 -33 -22 -60 -19 -19
3 -93 12 -165 22 -106 14 -172 16 -356 12 -246 -7 -402 -24 -609 -67 -63 -14
-130 -10 -95 5 11 4 40 23 65 40 54 39 158 89 220 106 46 12 79 34 68 44 -7 7
-91 -12 -133 -30 -16 -7 -41 -16 -55 -20 -45 -13 -168 -84 -207 -120 -21 -19
-42 -35 -47 -35 -5 0 -24 -11 -42 -25 -18 -14 -40 -25 -48 -25 -9 0 -16 -4
-16 -10 0 -5 -13 -10 -29 -10 -16 0 -45 -7 -64 -15 -43 -18 -54 -7 -26 24 12
12 19 24 17 27 -8 7 -72 -19 -93 -39 -21 -20 -177 -98 -335 -167 -52 -23 -101
-47 -108 -52 -7 -6 -41 -25 -75 -43 -34 -17 -72 -36 -84 -43 -42 -22 -63 -32
-67 -32 -2 0 -13 15 -24 33 -43 71 -35 156 24 254 42 70 86 160 121 248 26 65
41 83 193 236 151 151 334 318 435 396 51 39 257 96 380 106 88 7 355 -4 430
-18z m985 -808 c36 -17 71 -94 90 -195 13 -75 0 -188 -31 -251 -10 -22 -19
-44 -19 -48 0 -14 -74 -88 -115 -116 -22 -15 -52 -27 -67 -27 -31 0 -94 39
-117 73 -8 12 -21 28 -28 35 -21 22 -28 62 -28 162 0 105 9 163 29 182 6 7 25
39 41 71 54 112 153 157 245 114z m-343 -34 c72 -10 84 -18 57 -37 -10 -8 -19
-18 -20 -23 -1 -4 -7 -22 -13 -40 -12 -32 -13 -32 -64 -25 -103 14 -537 7
-722 -11 -169 -16 -361 -43 -377 -53 -4 -2 -37 -9 -75 -14 -37 -5 -97 -14
-133 -21 -36 -6 -87 -14 -115 -18 -110 -17 -300 -61 -350 -81 -11 -5 -33 -11
-50 -13 -16 -3 -39 -9 -50 -13 -14 -5 -17 -4 -10 3 25 26 285 143 317 143 7 0
26 7 43 16 16 8 52 20 80 26 27 6 55 14 60 18 6 4 35 13 65 20 30 7 88 21 128
31 40 11 83 19 97 19 14 0 25 4 25 9 0 7 27 13 200 43 150 26 327 36 580 33
146 -2 293 -8 327 -12z m-58 -159 l53 -6 -7 -31 c-5 -18 -11 -59 -14 -92 l-6
-59 -55 4 c-118 10 -611 4 -740 -8 -74 -8 -187 -18 -250 -23 -63 -5 -131 -11
-150 -14 -129 -21 -179 -30 -290 -52 -69 -14 -159 -31 -200 -38 -98 -17 -163
-31 -230 -51 -53 -15 -70 -19 -175 -44 -84 -19 -90 -18 -93 13 -4 36 24 62 87
81 25 8 82 29 126 48 44 19 98 39 120 46 52 15 240 62 286 72 19 3 41 10 48
14 11 7 71 19 191 36 55 8 123 19 235 40 160 29 244 42 290 45 28 2 102 9 165
15 180 17 461 19 609 4z m-2390 -276 c8 -15 25 -35 38 -43 31 -21 33 -79 1
-96 -24 -13 -80 -61 -116 -101 -14 -16 -31 -28 -37 -28 -6 0 -35 -29 -63 -65
-29 -36 -59 -65 -67 -65 -8 0 -15 -5 -15 -11 0 -7 -37 -49 -82 -94 -46 -45
-94 -95 -108 -111 -14 -16 -35 -36 -45 -44 -11 -9 -33 -31 -48 -50 l-28 -35
22 45 c88 180 288 501 453 729 l61 85 10 -45 c6 -24 17 -56 24 -71z m2409 59
c7 0 17 -19 23 -41 6 -23 15 -51 20 -64 16 -41 12 -45 -33 -36 -114 22 -1404
-3 -1593 -31 -96 -14 -246 -20 -215 -8 8 3 17 10 20 14 3 4 41 15 85 23 44 9
100 20 125 26 25 5 74 14 110 19 36 6 130 21 210 35 80 14 177 27 215 30 39 2
111 10 160 16 179 24 593 32 873 17z m81 -206 c14 -22 112 -61 153 -61 l41 0
-8 -42 c-4 -24 -11 -63 -15 -88 -11 -69 -27 -100 -51 -100 -11 0 -35 -15 -53
-32 -18 -18 -41 -38 -52 -44 -10 -6 -30 -30 -42 -53 -27 -48 -41 -192 -42
-429 0 -143 -3 -153 -52 -165 -40 -10 -119 3 -126 22 -12 31 -46 50 -89 51
-31 0 -43 -4 -43 -14 0 -12 -31 -15 -163 -18 -134 -2 -168 -6 -190 -20 -14
-10 -31 -18 -37 -18 -12 0 -40 -24 -40 -35 0 -9 -63 -68 -88 -82 -33 -19 -45
-16 -85 21 -39 35 -50 59 -73 146 -8 30 -23 74 -34 97 -11 24 -20 46 -20 51 0
14 -25 62 -32 62 -5 0 -8 7 -8 15 0 8 -9 19 -21 26 -20 10 -21 17 -17 178 2
100 7 174 14 182 6 8 23 44 39 81 23 57 62 108 80 108 20 0 112 76 140 116 32
45 39 49 87 56 29 3 225 5 436 4 294 -2 385 -5 391 -15z m341 -10 c0 -10 -7
-32 -16 -50 l-16 -32 -19 25 c-25 31 -24 36 7 63 29 24 44 22 44 -6z m-1545
-2 c3 -4 -3 -13 -14 -18 -11 -6 -25 -17 -33 -24 -7 -7 -23 -20 -36 -29 -12 -8
-42 -34 -67 -57 -24 -22 -47 -41 -52 -41 -4 0 -26 -21 -48 -47 -22 -26 -48
-54 -59 -63 -10 -8 -33 -31 -50 -50 -17 -18 -53 -57 -79 -85 -27 -27 -60 -70
-75 -95 -14 -25 -43 -65 -65 -90 -21 -25 -51 -65 -65 -90 -15 -25 -37 -56 -49
-70 -13 -14 -23 -30 -23 -36 0 -6 -10 -20 -22 -32 -13 -11 -32 -38 -43 -59
-11 -21 -24 -43 -30 -49 -5 -7 -28 -35 -50 -63 -22 -29 -57 -71 -77 -94 -21
-22 -38 -45 -38 -49 0 -12 -157 -160 -215 -204 -27 -21 -52 -40 -55 -44 -18
-21 -235 -110 -267 -110 -12 0 -34 -5 -50 -11 -27 -11 -44 -15 -173 -38 -163
-29 -323 -76 -412 -122 -10 -5 -24 -9 -31 -9 -8 0 -31 -11 -51 -25 -46 -31
-92 -44 -84 -24 3 8 15 49 28 92 20 67 27 79 54 91 17 8 66 30 109 50 44 20
87 36 98 36 10 0 34 9 54 20 20 11 44 20 55 20 19 0 71 20 80 31 3 3 30 13 60
23 30 10 69 24 85 31 84 37 127 58 195 96 41 23 85 46 97 53 13 6 23 14 23 19
0 4 6 7 13 7 6 1 30 19 52 41 22 22 50 42 63 45 12 4 22 10 22 14 0 12 86 100
98 100 7 0 12 4 12 8 0 5 18 29 41 53 87 93 104 140 19 53 -38 -40 -98 -93
-208 -185 -13 -10 -27 -19 -32 -19 -5 0 -10 -3 -12 -7 -5 -12 -70 -57 -100
-71 -16 -6 -28 -16 -28 -22 0 -5 -6 -10 -13 -10 -7 0 -23 -9 -35 -20 -12 -11
-27 -20 -35 -20 -7 0 -17 -4 -22 -8 -6 -5 -26 -15 -45 -22 -19 -7 -66 -27
-105 -45 -38 -18 -104 -42 -145 -55 -41 -12 -112 -38 -157 -56 -45 -19 -87
-34 -94 -34 -7 0 -31 -8 -53 -19 -55 -25 -86 -32 -86 -18 0 18 69 206 92 255
12 23 25 42 30 42 4 0 8 6 8 14 0 8 16 32 36 53 20 21 59 66 86 101 28 34 54
62 59 62 5 0 9 4 9 10 0 5 17 27 38 49 20 22 53 57 73 78 19 21 43 45 52 53
10 8 66 65 125 125 60 61 124 125 143 142 19 18 42 41 51 50 10 10 33 33 53
51 19 18 43 45 52 60 10 15 29 36 43 47 13 11 34 31 45 44 103 124 142 149
263 167 48 8 137 16 197 20 100 5 108 4 90 -10 -11 -8 -25 -19 -31 -24 -6 -5
-20 -12 -31 -16 -11 -4 -28 -15 -38 -26 -10 -11 -22 -20 -27 -20 -22 0 -97
-59 -208 -164 -24 -23 -52 -76 -40 -76 6 0 37 25 68 56 57 55 209 166 267 194
17 8 42 22 57 32 14 10 29 18 32 18 11 0 -26 -53 -55 -80 -15 -14 -30 -35 -34
-48 -5 -17 5 -12 47 27 29 27 78 73 109 101 l57 51 158 10 c88 5 168 11 179
13 41 7 165 4 170 -5z m5531 -24 c13 -20 14 -33 6 -65 -9 -37 -8 -44 14 -69
13 -16 24 -33 24 -38 0 -5 14 -22 31 -39 17 -16 38 -42 46 -59 9 -16 19 -32
22 -35 4 -3 24 -32 46 -65 21 -33 42 -61 47 -63 4 -2 8 -10 8 -18 0 -8 10 -14
25 -14 24 0 25 -2 19 -40 -4 -25 -3 -40 4 -40 5 0 15 -13 21 -30 7 -20 17 -30
30 -30 12 0 21 4 21 10 0 11 49 68 108 124 41 39 43 43 37 83 -8 54 7 83 42
83 31 0 63 -26 63 -51 0 -9 -8 -31 -17 -47 -16 -28 -16 -31 15 -109 18 -44 32
-87 32 -96 0 -8 16 -46 35 -83 19 -37 35 -78 35 -91 0 -16 4 -23 13 -19 6 3
20 9 30 12 9 4 17 10 17 15 0 4 20 17 45 28 41 18 45 23 45 55 0 42 24 69 54
60 49 -14 63 -77 21 -96 -24 -11 -25 -14 -25 -112 0 -56 -3 -124 -6 -152 l-6
-51 44 -5 c110 -13 163 -75 97 -116 -15 -10 -24 -10 -28 -3 -4 6 -40 15 -81
22 -41 6 -102 17 -135 25 -187 43 -688 45 -860 2 -22 -5 -51 -12 -65 -14 -87
-16 -138 -27 -155 -34 -24 -9 -74 -24 -138 -40 -26 -7 -50 -17 -53 -21 -3 -5
-15 -9 -28 -9 -12 0 -27 -5 -33 -11 -6 -6 -38 -25 -71 -42 -61 -33 -118 -75
-179 -136 -32 -31 -36 -32 -51 -17 -14 13 -14 21 -4 49 17 48 16 55 -20 109
-32 47 -51 58 -63 38 -8 -13 -25 -3 -25 16 0 8 9 14 20 14 11 0 20 2 20 5 0 8
-41 139 -51 160 -5 11 -16 43 -24 70 -25 77 -45 115 -60 115 -28 0 -48 71 -24
85 21 14 57 -5 67 -35 6 -16 18 -30 27 -30 8 0 23 -4 33 -9 9 -6 38 -13 64
-16 25 -3 52 -13 58 -20 16 -19 30 -19 30 0 0 8 5 15 10 15 21 0 8 17 -27 36
-23 12 -38 27 -38 39 0 25 19 30 39 10 15 -15 16 5 16 255 0 253 -1 273 -20
311 -18 34 -19 43 -8 67 16 34 40 39 72 15 19 -14 25 -27 26 -56 0 -31 7 -45
36 -72 20 -19 44 -37 55 -40 10 -3 43 -30 73 -58 30 -29 77 -72 104 -97 27
-25 51 -49 53 -55 3 -5 28 -32 56 -59 l52 -49 11 29 c5 16 14 36 20 44 13 21
60 119 60 127 0 4 9 25 19 47 66 140 91 198 91 211 0 8 5 25 11 39 9 19 8 29
-5 47 -9 13 -16 36 -16 51 0 57 66 79 96 33z m-4056 -76 c0 -5 -7 -9 -15 -9
-8 0 -15 7 -15 15 0 9 6 12 15 9 8 -4 15 -10 15 -15z m-1640 -187 c0 -46 -25
-141 -40 -152 -4 -3 -19 -38 -35 -78 -20 -50 -32 -69 -39 -62 -5 5 -33 10 -61
10 -46 0 -52 3 -68 30 -17 29 -17 30 7 69 36 56 66 81 98 81 25 0 28 4 28 30
0 23 11 42 45 75 24 25 49 45 55 45 5 0 10 -22 10 -48z m1397 -148 c-3 -3 -12
-4 -19 -1 -8 3 -5 6 6 6 11 1 17 -2 13 -5z m-1593 -174 c20 0 36 -3 36 -7 0
-7 -30 -105 -63 -203 -6 -20 -10 -80 -9 -140 3 -117 18 -160 92 -275 21 -33
42 -72 45 -87 4 -15 21 -43 39 -63 62 -68 77 -87 89 -113 12 -27 55 -72 70
-72 4 0 7 -5 7 -11 0 -6 14 -28 30 -49 35 -44 37 -58 12 -91 -10 -13 -24 -37
-32 -52 -8 -16 -25 -39 -37 -52 -29 -28 -53 -139 -36 -156 8 -8 22 10 48 65
21 42 41 76 46 76 5 0 9 -42 9 -92 0 -85 -3 -98 -30 -145 -17 -29 -36 -53 -43
-53 -6 0 -25 -7 -41 -15 -23 -12 -40 -13 -90 -5 -115 20 -148 28 -155 37 -3 6
-35 23 -71 39 -36 16 -71 34 -78 41 -8 8 -28 21 -45 30 -40 20 -172 124 -197
155 -10 13 -51 57 -90 98 -40 41 -83 92 -97 113 -13 21 -32 46 -42 56 -28 28
-121 168 -121 182 0 6 33 43 73 83 86 84 157 162 157 172 0 4 15 22 33 40 41
42 47 50 77 99 13 22 35 50 47 63 13 13 23 29 23 36 0 7 9 21 21 32 12 10 30
37 41 59 12 22 37 60 58 85 20 25 45 61 55 80 9 19 29 47 43 62 l25 28 33 -25
c21 -16 46 -25 68 -25z m1270 -356 c9 -3 16 -12 16 -20 0 -19 -7 -18 -37 6
-26 20 -14 28 21 14z m-329 -179 c11 -6 38 -14 61 -17 23 -3 56 -13 75 -21 19
-9 49 -18 67 -22 35 -7 42 -28 19 -59 -11 -16 -22 -18 -59 -12 -24 4 -61 16
-81 26 -20 11 -39 20 -42 20 -11 0 -4 -39 8 -43 8 -4 9 -8 1 -14 -6 -4 -18
-22 -27 -39 -25 -48 -75 -87 -104 -79 -26 6 -30 9 -75 48 -24 21 -28 32 -28
76 0 34 6 58 18 72 39 48 68 77 82 82 19 6 59 -2 85 -18z m221 0 c4 -9 19 -15
36 -15 18 0 27 -4 22 -11 -10 -17 -144 7 -167 30 -8 8 5 11 46 11 42 0 59 -4
63 -15z m-1946 -305 c0 -5 -7 -10 -15 -10 -8 0 -15 5 -15 10 0 6 7 10 15 10 8
0 15 -4 15 -10z m-36 -48 c5 -17 12 -32 17 -32 11 0 79 -115 79 -134 0 -9 -7
-16 -16 -16 -20 0 -44 24 -44 44 0 9 -9 24 -20 33 -11 10 -20 22 -20 28 0 6
-13 29 -29 51 -22 29 -27 42 -19 52 18 21 42 9 52 -26z m57 11 c13 -16 12 -17
-3 -4 -10 7 -18 15 -18 17 0 8 8 3 21 -13z m59 -80 c5 -7 10 -15 10 -17 0 -3
8 -15 18 -27 29 -36 86 -102 105 -121 9 -10 17 -22 17 -27 0 -5 20 -27 45 -48
25 -21 48 -46 51 -55 3 -10 10 -18 15 -18 6 0 22 -13 36 -30 13 -16 29 -30 34
-30 6 0 21 -10 34 -22 44 -42 57 -51 136 -98 44 -26 77 -49 74 -52 -3 -3 14
-11 37 -18 24 -7 59 -20 78 -30 19 -9 70 -23 112 -30 76 -14 77 -14 93 -54 15
-38 29 -84 56 -191 6 -22 21 -62 34 -90 12 -27 29 -78 36 -112 7 -35 17 -63
22 -63 9 0 6 35 -12 130 -5 25 -14 71 -20 104 -6 32 -14 63 -19 70 -10 12 -12
19 -42 129 l-18 68 41 19 c23 10 52 27 64 39 24 23 53 112 53 165 0 20 5 36
10 36 6 0 10 19 11 43 0 39 1 40 11 17 23 -52 38 -96 38 -113 0 -10 6 -28 14
-40 7 -12 16 -46 19 -75 4 -29 13 -62 22 -74 8 -13 15 -42 15 -66 0 -23 9 -60
20 -82 13 -25 20 -59 20 -93 0 -29 4 -57 9 -62 5 -6 12 -32 15 -60 4 -27 11
-84 16 -125 12 -98 18 -452 8 -466 -4 -6 -12 -39 -17 -75 -5 -35 -13 -75 -19
-89 -5 -14 -16 -45 -23 -70 -20 -65 -44 -87 -109 -94 -50 -6 -58 -4 -76 16
-11 13 -29 40 -38 61 -12 25 -28 42 -46 48 -18 7 -31 20 -35 36 -3 14 -16 40
-29 57 -13 17 -29 46 -36 64 -7 19 -23 37 -34 42 -13 5 -26 24 -34 51 -7 23
-22 55 -33 70 -10 15 -22 41 -25 58 -4 18 -20 41 -40 56 -25 19 -34 34 -34 56
0 19 -9 39 -25 55 -14 14 -27 37 -31 52 -9 42 -26 72 -61 109 -22 22 -33 43
-33 63 0 18 -11 41 -30 62 -18 19 -30 43 -30 60 0 24 -32 68 -51 68 -4 0 -12
20 -18 44 -6 24 -17 46 -26 49 -8 4 -18 25 -21 47 -4 25 -14 46 -26 53 -22 13
-58 77 -58 102 0 8 -11 25 -24 36 -14 12 -32 40 -41 62 -9 23 -25 48 -36 58
-10 9 -19 24 -19 33 0 22 -18 57 -40 76 -9 8 -22 31 -29 51 -6 20 -27 58 -46
85 -19 27 -35 52 -35 56 0 4 -13 29 -30 55 -34 53 -40 82 -10 43 11 -14 24
-30 30 -37z m-216 1 c34 -34 106 -134 106 -147 0 -3 13 -20 30 -38 16 -18 42
-58 58 -88 57 -109 77 -146 83 -151 9 -7 59 -112 59 -123 0 -10 24 -63 86
-192 19 -39 34 -74 34 -79 0 -5 9 -27 19 -50 10 -23 31 -79 46 -126 15 -47 31
-89 35 -95 4 -5 11 -26 15 -45 4 -19 15 -53 25 -75 10 -22 32 -96 49 -165 17
-69 46 -184 65 -257 31 -119 54 -255 77 -448 4 -38 15 -103 23 -143 9 -40 16
-93 16 -117 0 -25 6 -91 14 -147 25 -174 39 -624 26 -800 -6 -84 -14 -216 -18
-293 -8 -157 -13 -165 -69 -117 l-32 27 9 190 c25 508 2 1069 -56 1380 -8 44
-17 100 -19 125 -3 25 -12 77 -20 115 -9 39 -23 115 -31 170 -9 55 -19 109
-23 120 -17 43 -30 92 -37 135 -4 25 -13 57 -20 71 -7 15 -25 75 -40 135 -15
60 -31 111 -35 114 -4 3 -12 25 -18 50 -7 25 -17 56 -23 70 -26 59 -51 121
-69 170 -36 99 -153 346 -201 425 -10 17 -23 42 -29 58 -6 15 -15 27 -19 27
-5 0 -12 10 -16 23 -4 12 -20 41 -35 64 -16 23 -29 46 -29 52 0 6 -7 11 -15
11 -8 0 -15 7 -15 15 0 9 -7 18 -15 21 -8 4 -15 10 -15 16 0 14 -83 118 -95
118 -19 0 40 28 62 29 12 1 37 -15 57 -35z m6326 -24 c0 -11 78 -88 104 -102
159 -87 289 -126 489 -149 101 -11 313 -7 393 7 26 5 38 0 65 -25 61 -56 83
-76 119 -101 53 -38 111 -67 150 -75 42 -8 105 -47 143 -87 37 -40 53 -32 49
24 l-3 46 47 16 c51 17 64 14 64 -13 0 -10 9 -26 21 -37 14 -13 19 -26 15 -44
-2 -14 -1 -32 4 -40 7 -11 13 -9 29 11 48 55 66 124 23 86 -17 -16 -20 -15
-41 7 -14 15 -21 33 -19 48 3 21 8 23 58 23 49 0 55 -2 58 -22 4 -27 17 -30
26 -7 6 15 8 15 26 -1 25 -22 26 -66 4 -154 -22 -88 -67 -136 -125 -135 -31 1
-39 -2 -39 -16 0 -21 19 -30 66 -30 24 0 37 -5 41 -17 4 -10 20 -31 35 -48 16
-16 34 -42 41 -57 6 -16 15 -28 19 -28 5 0 8 -6 8 -12 0 -12 44 -137 59 -168
4 -8 23 -44 42 -80 33 -63 41 -76 65 -103 6 -7 14 -22 18 -34 4 -12 13 -24 21
-27 8 -3 15 -12 15 -21 0 -8 3 -15 8 -15 4 0 38 -29 77 -65 38 -36 74 -65 79
-65 4 0 30 -16 56 -35 26 -19 50 -35 53 -35 4 0 29 -13 57 -30 28 -16 57 -30
66 -30 8 0 33 -9 57 -19 23 -11 55 -22 70 -25 34 -8 34 -39 -1 -44 -12 -2 -27
-11 -34 -21 -7 -9 -34 -31 -60 -49 -25 -17 -48 -35 -50 -39 -1 -5 -32 -33 -68
-63 -36 -30 -67 -59 -69 -63 -2 -5 -20 -23 -40 -40 -20 -18 -52 -49 -71 -71
-19 -21 -41 -44 -49 -50 -8 -6 -44 -41 -81 -78 -37 -38 -70 -68 -74 -68 -7 0
-22 -11 -54 -41 -49 -44 -103 -78 -157 -98 -33 -13 -64 -26 -70 -30 -5 -5 -33
-14 -62 -21 -42 -11 -58 -11 -79 -1 -17 8 -46 10 -78 6 -48 -6 -54 -4 -103 32
-43 31 -56 49 -74 96 -30 79 -23 218 14 298 14 30 28 65 32 79 8 26 33 60 45
60 10 0 24 -41 45 -132 24 -103 39 -101 33 5 -7 94 -58 267 -81 267 -4 0 -20
27 -36 60 -24 50 -27 61 -15 71 8 6 14 16 14 21 0 5 15 24 33 41 36 36 77 91
77 105 0 5 14 28 30 51 45 62 100 189 100 234 0 22 -18 1 -39 -45 -37 -83
-121 -218 -163 -263 -15 -16 -48 -57 -73 -89 -24 -32 -57 -67 -72 -76 -16 -10
-41 -34 -58 -54 -16 -19 -34 -36 -38 -36 -5 0 -27 -13 -50 -28 -57 -39 -99
-52 -168 -52 -73 0 -95 9 -139 55 -19 21 -56 59 -82 85 l-48 48 37 7 c72 13
148 68 176 127 9 20 17 41 17 47 0 5 10 19 22 31 12 11 18 23 15 27 -4 4 -69
1 -145 -6 -104 -10 -143 -17 -164 -32 -15 -10 -33 -19 -41 -19 -8 0 -22 -9
-32 -20 -21 -23 -9 -44 30 -54 18 -5 25 -13 25 -31 0 -14 -2 -25 -5 -25 -9 0
-137 101 -180 141 -22 21 -58 55 -81 76 -36 34 -124 155 -124 170 0 4 -6 14
-14 22 -14 17 -50 116 -59 167 -6 30 -4 31 48 48 30 9 59 24 64 33 19 34 41
-82 42 -221 1 -163 5 -176 53 -199 33 -16 44 -17 92 -6 30 7 54 16 54 20 0 16
-20 20 -53 11 -40 -11 -71 -1 -93 32 -12 20 -17 56 -20 154 -6 221 -44 328
-147 410 -19 15 -37 16 -37 2 0 -5 3 -10 8 -10 7 0 45 -61 40 -64 -2 -1 -34
-7 -72 -13 -38 -7 -72 -16 -75 -22 -8 -12 -71 35 -71 54 0 7 11 20 25 29 43
28 95 126 67 126 -5 0 -14 12 -21 27 l-13 27 -19 -24 c-10 -14 -19 -31 -19
-37 0 -7 -4 -13 -10 -13 -5 0 -10 -7 -10 -15 0 -15 -37 -35 -66 -35 -8 0 -14
9 -14 21 0 11 -11 45 -25 75 -14 30 -25 61 -25 68 0 8 -3 16 -7 18 -14 6 -43
69 -43 94 0 13 11 47 23 76 52 117 68 167 85 264 l17 101 22 -14 c13 -9 23
-19 23 -23z m-6466 -5 c9 -14 23 -25 31 -25 8 0 15 -6 15 -12 0 -7 12 -26 26
-43 14 -16 33 -43 41 -60 9 -16 24 -37 33 -45 16 -14 35 -46 102 -169 16 -30
41 -69 54 -86 13 -18 24 -36 24 -40 0 -9 27 -68 91 -200 22 -45 39 -85 39 -91
0 -6 11 -34 25 -62 14 -29 25 -57 25 -63 0 -6 6 -25 14 -42 7 -18 21 -52 31
-77 9 -25 20 -52 25 -60 4 -8 13 -40 20 -70 8 -30 17 -59 21 -65 3 -5 19 -61
34 -124 14 -62 31 -125 37 -140 8 -22 20 -78 45 -206 3 -16 9 -34 13 -40 5 -5
13 -55 19 -110 12 -101 14 -121 51 -365 11 -74 23 -151 25 -170 15 -103 35
-491 35 -665 0 -213 -18 -555 -30 -568 -4 -5 -23 -2 -42 6 -27 11 -37 22 -42
48 -7 37 -61 99 -85 99 -14 0 -16 52 -16 477 0 461 -5 581 -36 793 -5 36 -16
112 -24 170 -16 111 -38 223 -54 279 -6 19 -9 37 -6 40 2 4 -10 65 -26 136
-17 72 -34 148 -39 170 -17 78 -46 172 -58 188 -4 7 -14 37 -22 67 -7 30 -16
62 -20 70 -14 28 -28 65 -33 85 -10 38 -43 123 -54 137 -6 7 -23 45 -38 83
-15 39 -30 75 -34 80 -4 6 -15 31 -25 57 -9 25 -24 52 -32 59 -8 6 -22 28 -31
48 -27 59 -95 171 -103 171 -5 0 -23 26 -41 58 -18 31 -55 80 -81 107 -65 68
-128 144 -128 156 0 5 15 9 33 9 17 1 55 7 82 15 72 20 91 18 109 -10z m-274
-35 c0 -12 59 -70 71 -70 5 0 9 -6 9 -14 0 -8 9 -18 20 -21 11 -3 20 -13 20
-21 0 -7 19 -34 43 -59 58 -61 61 -65 91 -121 14 -27 35 -56 45 -64 22 -17 91
-143 91 -165 0 -8 4 -15 9 -15 5 0 14 -15 22 -32 7 -18 16 -35 20 -38 11 -9
37 -64 62 -136 13 -38 41 -104 61 -146 20 -42 36 -85 36 -96 0 -10 4 -22 8
-27 5 -6 24 -62 42 -125 18 -63 38 -126 45 -140 6 -14 17 -52 24 -85 7 -33 17
-71 21 -85 11 -34 26 -113 50 -260 11 -69 27 -156 35 -195 27 -129 55 -358 55
-451 0 -33 5 -65 10 -70 14 -14 25 -553 15 -777 -6 -157 -9 -178 -24 -175 -12
2 -17 16 -19 51 -2 27 -11 63 -21 80 -69 123 -69 124 -129 332 -12 39 -28 102
-37 140 -9 39 -20 86 -25 105 -6 19 -17 73 -26 120 -9 47 -20 103 -26 125 -5
22 -13 108 -18 190 -5 83 -18 204 -30 270 -11 66 -25 149 -31 185 -16 103 -70
313 -85 331 -8 8 -14 24 -14 35 0 10 -7 28 -15 38 -8 11 -15 30 -15 42 0 12
-9 32 -19 45 l-19 24 8 -40 c32 -155 40 -193 49 -220 42 -132 53 -186 77 -370
24 -185 28 -235 18 -235 -5 0 -22 34 -37 75 -16 41 -32 75 -38 75 -5 0 -9 9
-9 20 0 11 -4 20 -9 20 -5 0 -12 15 -16 33 -14 64 -115 231 -130 215 -8 -7 25
-88 35 -88 5 0 12 -10 16 -22 3 -13 14 -41 24 -63 23 -55 50 -137 50 -154 0
-8 13 -42 29 -75 15 -34 36 -90 46 -126 9 -36 23 -85 30 -110 7 -25 16 -67 20
-95 4 -27 13 -75 22 -105 8 -30 20 -77 28 -105 20 -73 32 -124 44 -175 28
-124 44 -189 57 -226 7 -22 15 -49 17 -60 1 -10 7 -26 12 -34 19 -29 55 -103
55 -113 0 -5 9 -20 20 -34 11 -14 20 -39 20 -54 l0 -29 -81 0 c-44 0 -89 -5
-100 -11 -11 -5 -55 -16 -99 -24 -89 -16 -203 -71 -280 -135 -26 -22 -52 -40
-57 -40 -5 0 -16 -11 -23 -25 -7 -14 -17 -25 -22 -25 -4 0 -8 -9 -8 -20 0 -11
-4 -20 -8 -20 -5 0 -15 -17 -22 -39 -11 -35 -11 -40 9 -60 11 -11 29 -21 39
-21 18 0 111 44 174 82 38 24 101 72 83 65 -5 -3 -41 -17 -80 -32 -38 -16 -81
-36 -94 -47 -26 -20 -101 -25 -101 -7 0 16 40 69 51 69 6 0 32 24 59 53 32 35
63 58 90 67 22 7 43 17 46 22 9 14 109 56 176 74 112 31 281 23 364 -17 25
-13 58 -65 49 -79 -3 -6 -21 -10 -39 -10 -40 0 -135 -28 -157 -47 -8 -7 -19
-13 -23 -13 -5 0 -25 -13 -46 -30 -21 -16 -42 -30 -47 -30 -9 0 -113 -99 -139
-132 -20 -26 -36 -60 -30 -66 3 -3 23 12 44 34 80 82 150 135 241 179 87 44
99 47 176 48 73 2 86 -1 107 -20 13 -12 43 -30 68 -41 25 -11 59 -30 75 -43
17 -14 44 -31 60 -39 17 -8 38 -23 48 -33 10 -10 31 -20 47 -24 16 -3 38 -14
50 -25 11 -11 44 -32 73 -47 132 -71 194 -105 219 -122 14 -11 31 -19 38 -19
7 0 25 -11 42 -25 16 -14 38 -25 48 -25 10 0 20 -4 22 -9 2 -4 37 -25 78 -45
100 -49 177 -90 185 -98 4 -4 -10 -24 -31 -46 -76 -77 -100 -108 -139 -177
-57 -103 -90 -172 -114 -245 -13 -36 -29 -78 -36 -95 -7 -16 -16 -41 -20 -55
-4 -14 -14 -35 -21 -48 -8 -12 -24 -60 -35 -105 -37 -152 -81 -281 -100 -297
-7 -6 -49 -138 -49 -155 0 -6 -9 -29 -19 -51 -11 -22 -23 -52 -26 -67 -4 -15
-11 -27 -15 -27 -10 0 -52 -88 -77 -158 -10 -30 -33 -71 -51 -92 -17 -21 -32
-43 -32 -49 0 -6 -9 -28 -20 -48 -11 -21 -20 -44 -20 -52 0 -7 -15 -34 -34
-60 -19 -25 -56 -90 -82 -143 -27 -54 -51 -98 -55 -98 -15 0 -423 426 -523
545 -861 1031 -1351 2256 -1433 3585 -13 212 -7 708 11 905 30 325 62 535 128
830 40 181 50 204 97 229 236 122 271 137 406 166 78 17 95 23 101 31 7 12 94
11 94 -1z m643 -75 c20 -19 40 -82 32 -95 -9 -15 -42 15 -61 56 -22 47 -3 72
29 39z m1140 -54 c19 -32 23 -71 7 -71 -8 0 -50 79 -50 94 0 17 28 2 43 -23z
m-1059 -88 c3 -10 13 -29 21 -43 10 -18 11 -28 2 -38 -9 -12 -13 -11 -24 5 -7
10 -20 26 -28 36 -21 25 -19 57 4 57 10 0 22 -8 25 -17z m1200 -28 c11 -8 27
-15 35 -15 27 -1 66 -43 91 -100 14 -30 28 -56 33 -58 4 -2 7 -12 7 -22 0 -10
5 -22 10 -25 6 -3 10 -15 10 -25 0 -11 11 -39 25 -64 14 -25 25 -53 25 -63 0
-11 4 -23 8 -29 17 -18 52 -117 52 -145 0 -15 13 -65 29 -111 36 -102 61 -197
61 -232 0 -14 4 -26 8 -26 9 0 37 -132 53 -252 18 -136 21 -153 28 -158 11 -8
52 -357 61 -515 11 -193 10 -605 -1 -750 -16 -203 -27 -328 -34 -385 -3 -30
-11 -161 -16 -290 -6 -129 -14 -293 -19 -365 -4 -71 -11 -183 -15 -248 -5 -65
-12 -120 -16 -123 -5 -3 -25 3 -44 12 -34 16 -36 19 -31 58 3 22 10 129 16
236 16 291 17 316 28 425 37 365 41 1405 6 1620 -7 50 -18 128 -24 175 -6 47
-17 121 -26 165 -9 44 -20 100 -24 125 -5 25 -15 79 -24 120 -9 41 -16 92 -16
112 0 20 -3 38 -8 40 -8 3 -37 109 -52 189 -5 26 -13 55 -18 65 -16 31 -52
150 -52 171 0 11 -3 23 -7 27 -9 8 -33 77 -33 94 0 7 -12 39 -26 70 -14 31
-29 66 -34 77 -11 28 -43 100 -73 168 -15 31 -27 60 -27 62 0 9 15 4 34 -10z
m-87 -17 c13 -21 33 -81 33 -101 0 -12 -6 -17 -16 -15 -27 5 -60 128 -35 128
6 0 13 -6 18 -12z m386 -71 c12 -12 40 -35 62 -51 38 -28 105 -92 105 -102 0
-2 19 -21 42 -42 22 -20 47 -50 54 -67 7 -16 27 -46 44 -65 31 -36 90 -148 90
-172 0 -8 11 -36 24 -64 36 -75 72 -181 89 -264 27 -128 47 -236 47 -255 0
-10 6 -26 14 -34 7 -9 19 -45 25 -81 7 -36 21 -108 31 -160 10 -52 23 -126 30
-165 12 -78 31 -147 41 -155 3 -3 12 -27 18 -55 24 -102 29 -122 56 -230 15
-60 38 -132 51 -160 13 -27 40 -102 60 -165 21 -63 42 -121 47 -127 21 -28 87
-166 87 -183 0 -14 -10 -19 -47 -22 -49 -5 -144 -28 -153 -38 -6 -7 -95 -60
-133 -79 -15 -8 -33 -23 -39 -35 -6 -11 -35 -44 -65 -72 -29 -28 -53 -57 -53
-64 0 -7 -11 -36 -25 -64 -27 -55 -36 -108 -20 -116 5 -3 19 22 31 55 12 33
32 71 45 85 13 14 31 38 39 53 13 26 35 48 115 115 42 34 106 69 143 76 l33 6
-25 -25 c-14 -14 -28 -25 -31 -25 -21 0 -75 -89 -75 -124 0 -14 2 -26 4 -26 2
0 24 10 48 21 23 12 54 27 68 33 14 6 27 14 30 17 3 3 32 11 64 18 55 12 86
29 86 47 0 13 -99 -3 -127 -22 -27 -18 -89 -44 -107 -44 -5 0 2 11 15 24 13
13 29 30 36 38 64 71 182 97 284 63 61 -21 98 -57 105 -105 6 -35 12 -42 58
-66 28 -14 60 -35 72 -45 11 -10 26 -19 33 -19 12 0 181 -79 191 -90 10 -11
54 -32 93 -46 55 -19 257 -117 257 -124 0 -3 -20 -13 -44 -23 -46 -19 -57 -27
-142 -106 -73 -68 -187 -274 -204 -368 -4 -26 -18 -84 -30 -128 -26 -98 -38
-154 -46 -222 -10 -82 -20 -87 -171 -80 -72 3 -150 12 -178 21 -82 26 -294 16
-453 -21 -37 -9 -90 -18 -119 -20 -51 -5 -51 -4 -68 31 -13 28 -27 39 -59 48
-22 7 -65 25 -95 40 -30 16 -61 28 -69 28 -37 0 -41 28 -41 265 0 255 13 645
29 890 6 88 15 223 20 300 9 134 30 373 51 575 17 166 23 691 10 850 -13 151
-37 290 -51 290 -4 0 -8 -170 -8 -377 1 -337 -8 -640 -18 -630 -2 2 -8 68 -14
148 -17 247 -32 393 -40 414 -5 11 -16 67 -25 125 -9 58 -20 114 -25 125 -10
24 -25 99 -45 219 -8 49 -21 99 -30 112 -8 13 -15 33 -15 44 0 22 -11 62 -61
217 -16 51 -29 102 -29 113 0 11 -3 20 -8 20 -4 0 -12 15 -19 33 -27 78 -48
132 -53 137 -3 3 -11 19 -19 35 -7 17 -17 38 -22 47 -5 10 -9 25 -9 33 0 8 -4
15 -10 15 -5 0 -10 5 -10 10 0 6 28 10 65 10 55 0 70 -4 88 -23z m-1423 -21
c13 -26 8 -56 -9 -56 -11 0 -41 51 -41 70 0 20 37 10 50 -14z m1098 -91 c20
-44 26 -105 11 -105 -19 0 -49 55 -49 89 0 47 20 55 38 16z m-1029 -22 c8 -16
17 -36 22 -45 25 -50 -8 -51 -50 -1 -31 36 -37 53 -24 66 15 15 40 5 52 -20z
m77 -138 c19 -46 18 -55 -6 -55 -23 0 -44 42 -35 71 9 29 24 23 41 -16z m994
-4 c0 -11 5 -23 10 -26 6 -3 10 -19 10 -36 0 -22 -5 -29 -19 -29 -23 0 -44 51
-35 86 7 29 34 32 34 5z m105 -168 c14 -43 25 -86 25 -95 0 -10 5 -18 10 -18
6 0 10 -9 10 -20 0 -10 7 -45 16 -77 9 -32 19 -71 21 -88 3 -16 9 -35 14 -40
4 -6 12 -35 18 -65 17 -95 41 -204 51 -225 5 -11 11 -42 13 -70 3 -27 19 -140
35 -250 17 -110 36 -279 42 -375 13 -218 13 -701 -1 -835 -5 -55 -14 -140 -19
-190 -5 -49 -14 -142 -20 -205 -14 -149 -35 -226 -64 -233 -46 -12 -92 -25
-108 -32 -14 -5 -18 -2 -18 14 0 12 4 21 9 21 5 0 11 15 14 33 3 17 11 52 17
77 6 25 14 61 17 80 3 19 9 40 14 46 9 11 30 186 23 193 -2 2 -6 -5 -10 -15
-3 -10 -10 -28 -14 -39 -5 -11 -11 -33 -14 -50 -2 -16 -10 -50 -16 -75 -6 -25
-13 -63 -17 -85 -3 -22 -9 -44 -13 -50 -4 -5 -11 -25 -15 -44 -4 -18 -15 -52
-26 -75 l-18 -42 -78 -12 c-101 -16 -400 -16 -528 0 -55 6 -101 12 -103 14
-13 9 41 292 59 304 11 8 29 144 20 153 -5 5 -16 -2 -26 -17 -10 -14 -21 -26
-26 -26 -5 0 -9 84 -9 188 0 177 -16 461 -41 707 -6 61 -14 148 -19 195 -8 87
-12 108 -61 315 -15 66 -30 143 -34 170 -9 81 -90 387 -115 436 -5 9 -14 45
-20 80 -7 35 -15 66 -19 69 -4 3 -15 32 -25 65 -9 33 -24 72 -32 87 -8 15 -21
48 -28 72 -13 42 -13 45 3 36 27 -14 39 -32 46 -73 4 -21 15 -43 25 -50 10 -7
23 -31 29 -54 6 -23 22 -51 36 -61 14 -11 28 -37 34 -62 5 -23 23 -59 40 -80
17 -22 31 -46 31 -55 0 -10 13 -34 29 -54 15 -20 37 -56 48 -81 11 -25 27 -51
36 -59 10 -7 17 -26 17 -41 0 -39 24 -82 57 -101 15 -8 30 -28 35 -45 4 -16
19 -41 33 -56 14 -15 25 -39 25 -55 0 -34 7 -43 45 -65 32 -18 38 -26 52 -73
5 -17 20 -35 35 -43 15 -7 36 -26 47 -41 12 -16 32 -32 47 -35 29 -8 28 -14
-4 -53 -97 -120 -123 -206 -101 -342 7 -42 16 -80 20 -86 63 -79 113 -137 122
-139 7 -2 31 -9 54 -16 71 -22 146 1 205 60 71 70 92 125 92 240 0 103 -13
157 -50 207 -13 17 -24 35 -24 38 0 12 -60 64 -81 70 -27 9 -24 28 10 61 43
43 73 104 75 151 1 29 8 49 26 68 22 24 25 36 26 108 1 55 6 92 17 114 21 40
22 87 2 116 -11 18 -12 35 -4 92 5 38 7 76 4 85 -4 8 -8 52 -10 98 -3 45 -11
95 -19 111 -10 19 -15 55 -14 105 0 56 -4 81 -15 94 -16 18 -20 39 -18 82 1
22 3 23 12 8 5 -10 21 -52 34 -95z m-1056 84 c15 -19 18 -59 5 -64 -6 -2 -19
8 -28 22 -26 39 -5 75 23 42z m995 -117 c4 -14 2 -32 -4 -40 -9 -13 -12 -12
-25 4 -16 20 -20 67 -8 80 10 9 31 -15 37 -44z m5010 35 c0 -5 -9 -11 -20 -13
-10 -2 -28 -7 -39 -12 -27 -12 -86 -30 -96 -30 -19 0 -8 38 14 45 12 5 31 11
42 16 28 10 100 6 99 -6z m-5935 -29 c14 -25 12 -61 -4 -61 -15 0 -36 51 -29
69 9 22 18 20 33 -8z m5969 -23 c-2 -10 -10 -18 -18 -18 -8 0 -16 8 -18 18 -2
12 3 17 18 17 15 0 20 -5 18 -17z m-5888 -129 c0 -8 -10 -14 -24 -14 -30 0
-58 56 -35 71 16 10 59 -31 59 -57z m854 48 c8 -13 -11 -35 -23 -28 -16 10
-14 36 3 36 8 0 17 -4 20 -8z m24 -121 c15 -49 15 -68 0 -74 -28 -9 -38 6 -38
59 0 65 21 74 38 15z m-832 -16 c17 -17 35 -71 26 -79 -14 -15 -34 -3 -48 29
-24 59 -13 85 22 50z m848 -132 c9 -42 -7 -118 -24 -118 -11 0 -16 15 -18 59
-2 32 -1 65 2 72 9 24 34 15 40 -13z m-750 -34 c5 -15 6 -34 3 -43 -13 -33
-54 25 -48 67 2 19 36 0 45 -24z m48 -103 c11 -26 5 -56 -12 -56 -15 0 -34 46
-27 64 9 23 26 19 39 -8z m704 -52 c15 -57 -16 -146 -38 -111 -9 14 -10 99 -2
121 9 25 33 19 40 -10z m5499 -24 c-3 -5 -14 -10 -24 -10 -9 0 -22 -5 -29 -12
-15 -15 -81 -38 -109 -38 -14 0 -23 6 -23 15 0 8 9 15 20 15 12 0 30 9 42 20
16 15 36 20 75 20 34 0 52 -4 48 -10z m125 1 c0 -24 -79 -121 -99 -121 -5 0
-17 -7 -25 -16 -25 -24 -102 -24 -120 1 -9 11 -16 25 -16 31 0 12 65 46 170
88 69 27 90 31 90 17z m-6256 -43 c18 -35 21 -68 6 -68 -12 0 -60 48 -60 60 0
8 28 40 35 40 2 0 11 -14 19 -32z m74 -133 c27 -31 28 -55 2 -55 -23 0 -55 44
-46 65 8 21 19 19 44 -10z m538 10 c3 -8 1 -38 -6 -65 -9 -38 -16 -50 -29 -48
-27 6 -13 128 15 128 8 0 17 -7 20 -15z m-461 -136 c9 -41 -10 -62 -31 -35
-21 29 -18 66 5 66 14 0 21 -9 26 -31z m7965 -8 c3 -4 25 -13 50 -20 57 -17
65 -20 180 -74 52 -25 105 -48 118 -51 26 -8 30 -26 5 -26 -25 0 -143 -41
-143 -50 0 -4 -15 -14 -32 -21 -57 -23 -132 -76 -166 -118 -19 -24 -46 -44
-65 -49 -24 -6 -33 -14 -35 -34 -2 -15 -21 -46 -44 -70 -48 -51 -78 -97 -78
-119 0 -9 -9 -24 -19 -33 -11 -10 -22 -28 -25 -42 -4 -13 -10 -24 -15 -24 -4
0 -24 -11 -44 -24 -20 -14 -46 -26 -58 -28 -19 -2 -24 -13 -33 -58 -13 -65
-62 -156 -99 -183 -14 -11 -45 -21 -74 -22 -26 -2 -51 -4 -54 -4 -4 -1 -9 -20
-13 -43 -9 -55 -41 -122 -75 -156 -20 -21 -38 -27 -84 -30 -52 -4 -58 -7 -63
-31 -33 -161 -145 -291 -248 -291 -27 0 -33 -5 -44 -40 -6 -22 -12 -47 -12
-55 0 -8 -4 -15 -8 -15 -4 0 -16 -20 -26 -45 -11 -25 -23 -45 -28 -45 -4 0 -8
-7 -8 -15 0 -8 -4 -15 -10 -15 -5 0 -18 -17 -29 -38 -11 -21 -38 -57 -61 -81
-23 -23 -46 -56 -52 -72 -11 -33 -26 -37 -35 -11 -3 9 -15 29 -25 44 -10 14
-18 33 -18 42 0 9 -5 16 -11 16 -13 0 -45 72 -54 122 -7 34 -5 38 26 57 19 11
39 24 45 29 6 5 20 13 32 16 12 4 29 21 37 37 9 16 20 29 26 29 6 0 39 25 74
55 34 30 67 55 74 55 6 0 11 4 11 9 0 5 15 14 33 22 85 33 157 70 157 78 0 5
8 17 17 27 16 16 20 49 13 119 -1 17 3 45 11 62 11 27 11 40 1 75 -7 24 -12
71 -12 106 1 37 -3 62 -9 62 -6 0 -11 7 -11 15 0 8 -9 23 -20 32 -11 10 -20
27 -20 40 0 29 -15 66 -34 85 -14 14 -7 19 64 52 44 20 84 36 89 36 6 0 14 6
18 13 4 6 27 21 50 33 53 26 246 195 353 309 81 86 111 115 120 115 5 0 10 6
10 14 0 8 9 17 19 21 11 3 23 15 26 26 4 10 10 19 15 19 5 0 36 25 68 55 33
30 63 55 66 55 4 0 30 16 58 36 45 30 58 34 88 29 19 -4 37 -10 40 -14z
m-7557 -50 c-2 -41 -9 -49 -29 -30 -12 13 -13 20 -3 43 16 35 34 27 32 -13z
m-335 -23 c17 -17 15 -58 -3 -64 -21 -8 -45 14 -45 41 0 35 24 47 48 23z m305
-54 c3 -3 1 -17 -5 -30 -13 -28 -48 -33 -48 -6 0 30 35 54 53 36z m-224 -47
c18 -20 19 -26 8 -36 -20 -16 -63 19 -54 42 9 23 19 21 46 -6z m6349 -74 c-49
-94 -51 -102 -56 -194 -4 -97 6 -156 32 -182 8 -7 16 -22 20 -34 5 -17 -6 -28
-72 -71 -43 -28 -90 -56 -104 -61 -14 -5 -32 -18 -39 -28 -8 -10 -33 -34 -56
-52 -45 -36 -48 -36 -86 19 -21 30 -23 129 -3 173 36 83 46 122 46 190 1 102
35 167 108 208 29 16 60 29 69 29 9 0 25 7 34 16 17 15 136 80 151 83 3 1 -16
-43 -44 -96z m-6226 70 c10 -9 18 -29 18 -45 0 -24 -4 -28 -29 -28 -25 0 -29
4 -34 37 -9 55 8 69 45 36z m8170 -46 c5 -9 24 -23 42 -32 18 -9 43 -25 54
-35 12 -11 25 -20 29 -20 7 0 67 -61 128 -130 42 -48 88 -116 102 -153 9 -23
25 -55 35 -72 10 -16 18 -36 18 -44 0 -8 6 -22 13 -30 15 -18 39 -116 67 -275
15 -87 12 -419 -5 -586 -30 -297 -42 -380 -60 -435 -8 -22 -19 -74 -25 -115
-7 -41 -16 -84 -20 -95 -4 -11 -13 -54 -20 -95 -6 -41 -15 -86 -20 -100 -16
-49 -50 -184 -70 -280 -6 -30 -15 -64 -19 -75 -5 -11 -16 -58 -26 -105 -9 -47
-23 -110 -30 -140 -44 -185 -69 -276 -76 -280 -4 -3 -12 -34 -19 -70 -6 -36
-19 -92 -30 -125 -10 -33 -23 -80 -28 -105 -18 -82 -44 -175 -52 -185 -5 -5
-14 -39 -21 -75 -7 -36 -15 -67 -18 -70 -3 -3 -24 -59 -46 -125 -22 -66 -45
-126 -52 -133 -7 -7 -13 -18 -13 -23 0 -19 -166 -193 -327 -343 -403 -372
-764 -636 -1230 -898 -147 -83 -162 -86 -163 -38 0 24 -69 220 -95 272 -13 26
-27 65 -30 85 -8 44 -50 179 -75 238 -10 22 -24 63 -33 90 -14 47 -24 85 -62
250 -10 39 -21 75 -25 80 -4 6 -10 33 -13 60 -3 28 -13 79 -22 115 -9 36 -20
107 -25 159 -5 52 -14 126 -20 165 -20 136 -40 331 -40 386 0 102 -28 295 -57
383 -8 27 -13 50 -11 53 3 2 54 -8 114 -22 60 -14 132 -30 159 -35 28 -6 70
-16 95 -24 68 -20 413 -65 500 -65 25 0 63 -7 85 -15 25 -9 80 -14 148 -15
102 0 132 -6 164 -34 7 -6 24 -20 39 -31 49 -38 106 -93 118 -114 32 -58 132
-189 139 -182 11 11 -33 117 -60 147 -13 14 -23 27 -23 29 0 9 -65 100 -74
104 -8 3 -41 32 -105 92 -21 19 -95 49 -121 49 -25 0 -25 5 0 46 13 20 32 35
50 39 34 8 46 20 55 60 4 17 10 39 14 50 5 11 14 36 20 55 34 93 54 146 61
155 4 6 22 57 39 115 46 153 57 188 76 255 10 33 24 78 33 100 24 66 40 136
47 205 4 36 14 80 21 99 8 18 14 50 14 71 0 21 6 53 13 71 8 19 20 93 26 164
7 72 20 180 28 240 8 61 17 130 20 155 l4 45 -19 -23 c-10 -13 -24 -51 -31
-85 -7 -34 -19 -79 -27 -100 -8 -20 -14 -55 -14 -77 0 -22 -6 -57 -14 -77 -8
-21 -17 -69 -21 -108 -11 -128 -81 -456 -110 -515 -7 -14 -16 -47 -20 -74 -3
-27 -10 -58 -15 -70 -4 -11 -14 -47 -21 -79 -7 -32 -16 -60 -20 -63 -4 -2 -15
-30 -24 -62 -9 -31 -25 -75 -36 -98 -10 -22 -19 -50 -19 -63 0 -12 -11 -46
-24 -74 -13 -29 -34 -79 -46 -112 -13 -33 -27 -64 -31 -69 -9 -10 -267 -8
-394 4 -232 22 -473 79 -552 132 -44 29 -78 87 -86 148 -3 19 -15 64 -26 100
-12 36 -29 88 -38 115 -9 28 -21 57 -27 65 -7 8 -17 27 -24 43 -7 15 -17 38
-24 52 -14 31 3 185 43 375 43 208 34 191 120 223 41 16 82 33 91 38 10 5 22
9 27 9 5 0 25 -39 46 -87 20 -48 43 -96 52 -105 9 -10 25 -37 37 -60 25 -51
54 -57 74 -15 7 15 17 27 22 27 4 0 18 17 30 38 12 20 28 41 36 45 8 4 14 12
14 18 0 5 23 40 51 76 53 69 109 179 109 213 0 14 11 22 43 30 61 16 127 51
146 78 9 13 28 39 44 57 15 19 27 45 27 61 0 38 31 99 50 100 8 0 32 3 52 7
67 14 158 143 158 224 0 21 4 23 50 23 36 0 52 4 56 15 4 8 12 15 20 15 30 0
101 124 110 194 6 43 8 44 58 60 56 18 80 40 102 92 8 18 18 36 24 39 6 4 21
28 35 54 13 27 42 68 64 92 22 24 50 56 63 70 13 14 58 56 102 92 79 65 138
100 188 111 15 3 33 12 41 20 29 29 153 31 169 3z m-8124 -86 c35 -10 49 -21
77 -64 41 -62 75 -156 75 -208 0 -64 -44 -181 -79 -211 -71 -60 -113 -64 -191
-18 -46 28 -60 43 -80 89 -22 48 -25 71 -25 161 0 100 2 108 34 167 18 33 40
64 49 67 10 3 33 12 52 20 19 7 37 12 40 11 3 -2 24 -8 48 -14z m5844 -73
c-14 -18 -33 -114 -26 -133 4 -8 -2 -34 -11 -58 -58 -144 -59 -258 -3 -340
l20 -28 -38 -49 c-21 -28 -41 -50 -46 -50 -4 0 -15 -16 -24 -36 -9 -20 -28
-41 -41 -47 -15 -6 -27 -24 -33 -49 -6 -21 -15 -38 -19 -38 -5 0 -14 -15 -21
-32 -7 -18 -33 -63 -57 -100 -23 -37 -43 -73 -43 -79 0 -7 -6 -17 -14 -23 -8
-6 -29 -38 -46 -71 l-31 -60 6 95 c19 263 24 325 39 450 9 74 23 151 31 170 7
19 19 56 26 83 8 26 16 47 20 47 4 0 9 13 12 29 3 16 13 36 22 44 9 9 21 31
27 49 10 29 67 97 150 178 39 39 126 80 100 48z m378 -367 c0 -25 -5 -31 -37
-41 -105 -33 -313 -172 -328 -220 -3 -9 -17 -23 -30 -30 -26 -14 -34 -40 -13
-40 12 0 19 6 75 59 18 17 37 31 42 31 5 0 23 16 39 35 17 19 43 37 59 41 15
4 35 12 43 18 8 7 26 17 40 23 14 6 59 27 100 46 41 20 107 41 146 48 69 11
73 11 105 -11 41 -28 79 -66 79 -78 0 -6 -26 -13 -57 -17 -63 -7 -164 -36
-228 -65 -22 -9 -50 -20 -62 -24 -11 -4 -27 -13 -33 -21 -19 -23 31 -19 130
11 47 15 100 29 118 31 17 3 32 9 32 13 0 11 86 23 109 15 21 -6 55 -74 49
-101 -2 -15 -15 -20 -57 -26 -30 -3 -56 -10 -60 -15 -3 -5 -31 -15 -61 -22
-30 -8 -59 -16 -65 -20 -5 -3 -32 -13 -60 -22 -31 -10 -51 -23 -53 -34 -3 -15
2 -16 40 -10 23 3 57 13 73 20 51 24 163 55 196 55 42 0 69 -25 69 -64 -1 -54
-5 -56 -185 -109 -22 -7 -51 -20 -65 -29 -13 -10 -30 -18 -37 -18 -7 0 -13 -6
-13 -14 0 -16 37 -28 46 -15 3 5 18 9 34 9 16 0 31 4 34 9 3 5 26 14 51 20 25
6 45 16 45 21 0 6 15 10 34 10 40 0 52 -21 41 -70 -5 -22 -17 -34 -46 -47 -21
-9 -39 -20 -39 -24 0 -4 -17 -13 -37 -19 -21 -7 -45 -18 -53 -25 -8 -7 -31
-20 -51 -29 -20 -9 -46 -30 -58 -46 -12 -17 -27 -30 -34 -30 -7 0 -39 -26 -72
-57 -57 -53 -156 -123 -174 -123 -4 0 -25 -11 -45 -25 -20 -14 -49 -28 -64
-31 -15 -4 -50 -17 -78 -29 -41 -18 -53 -29 -57 -51 -8 -42 -15 -76 -42 -199
-13 -60 -33 -200 -45 -310 -12 -109 -26 -208 -30 -220 -4 -11 -13 -74 -19
-140 -21 -212 -33 -295 -45 -295 -10 0 -102 18 -181 36 -16 4 -35 11 -41 15
-6 5 -31 12 -56 15 -38 5 -51 2 -76 -16 -22 -17 -37 -20 -60 -15 -54 11 -55
18 -42 202 6 92 15 182 20 198 5 17 13 68 18 115 5 47 15 99 22 115 8 17 21
57 31 90 33 113 66 230 84 295 9 36 21 74 26 85 5 11 19 58 33 105 54 192 93
291 133 346 13 17 23 36 23 41 0 6 7 16 16 23 8 8 22 27 30 44 21 47 52 96 90
145 19 24 34 49 34 56 0 6 12 26 28 45 55 68 165 190 171 190 3 0 29 22 58 48
28 26 76 60 106 75 30 16 67 40 82 53 38 32 55 31 55 -5z m-2190 -1036 c7 -8
21 -15 31 -15 9 0 24 -6 31 -14 8 -7 24 -16 36 -20 29 -10 138 -120 163 -165
10 -20 23 -43 28 -51 31 -56 43 -87 61 -168 24 -109 25 -152 5 -228 -22 -85
-35 -110 -71 -129 -38 -20 -49 -18 -161 36 -44 21 -86 39 -92 39 -6 0 -33 16
-60 35 -38 28 -58 35 -94 35 -38 0 -49 -5 -71 -31 -32 -37 -33 -76 -5 -126 23
-42 129 -146 172 -169 15 -8 27 -19 27 -24 0 -5 -27 -23 -60 -40 -33 -17 -60
-34 -60 -38 0 -8 -119 -72 -134 -72 -4 0 -16 -9 -28 -20 -12 -11 -27 -20 -34
-20 -7 0 -36 -16 -65 -35 -74 -49 -79 -47 -63 23 15 63 10 135 -12 153 -8 6
-14 22 -14 34 0 34 -10 55 -26 55 -8 0 -14 5 -14 10 0 18 -59 69 -88 76 -15 4
-39 15 -54 25 -14 11 -33 19 -41 19 -14 0 -46 57 -83 145 -46 112 -63 143 -91
170 -18 16 -33 35 -33 40 0 21 74 39 150 36 51 -1 84 3 104 14 15 8 35 15 42
15 8 0 14 5 14 10 0 6 6 10 13 10 19 0 67 87 68 123 0 30 5 35 72 67 40 19 94
50 122 69 27 19 78 47 112 63 35 17 63 34 63 39 0 5 8 9 18 9 9 0 26 7 36 15
26 19 70 19 86 0z m-1602 -81 c120 -51 127 -64 51 -91 -29 -10 -70 -36 -95
-60 -24 -24 -49 -43 -54 -43 -6 0 -10 -7 -10 -15 0 -9 -6 -18 -14 -21 -7 -3
-26 -26 -42 -52 -16 -26 -35 -56 -41 -67 -22 -35 -43 -87 -43 -105 0 -9 -7
-30 -15 -47 -8 -16 -22 -60 -31 -99 -9 -38 -20 -78 -25 -89 -9 -25 -28 -96
-40 -155 -19 -97 -14 -90 -74 -90 -31 0 -74 6 -96 13 -45 13 -44 7 -16 122 9
33 21 94 27 135 20 130 28 158 100 320 20 47 43 99 51 117 7 18 24 37 36 44
13 7 23 18 23 24 0 21 160 148 210 168 27 10 61 7 98 -9z m-2068 -129 c0 -47
-3 -57 -25 -71 -40 -26 -183 -43 -425 -50 -246 -7 -295 -1 -362 49 -18 13 -52
35 -76 48 -39 21 -53 48 -21 41 7 -2 95 -8 194 -14 134 -8 216 -8 316 0 180
15 369 38 376 46 16 16 23 1 23 -49z m2298 29 c37 -10 25 -24 -22 -24 -45 0
-98 -28 -143 -76 -12 -13 -27 -24 -32 -24 -6 0 -22 -18 -36 -40 -14 -22 -30
-40 -35 -40 -6 0 -10 -8 -10 -17 -1 -21 -23 -53 -36 -53 -8 0 -49 -109 -74
-195 -4 -16 -22 -78 -39 -138 -17 -59 -31 -112 -31 -119 0 -19 -59 -68 -82
-68 -17 0 -19 3 -10 12 7 7 12 25 12 41 0 16 4 46 10 66 24 92 42 169 46 196
9 61 29 112 73 190 25 44 51 86 58 93 7 7 13 20 13 28 0 8 8 18 17 21 9 4 39
29 67 58 47 47 80 69 131 86 26 9 94 10 123 3z m568 -19 c16 -8 39 -15 50 -15
12 0 27 -7 35 -16 7 -8 21 -13 32 -10 31 8 137 -14 137 -29 0 -28 -53 -75
-106 -94 -63 -24 -105 -26 -168 -9 -34 9 -51 9 -68 1 -21 -10 -48 -18 -102
-29 -25 -5 -34 -16 -18 -21 19 -7 14 -33 -7 -33 -10 0 -41 -18 -67 -40 -27
-22 -54 -40 -60 -40 -6 0 -17 -7 -24 -14 -6 -8 -32 -25 -56 -37 -42 -20 -66
-21 -106 -4 -23 9 -24 -13 -2 -30 14 -10 8 -17 -47 -52 -92 -58 -216 -122
-223 -115 -3 3 -6 20 -6 39 0 40 -17 44 -26 6 -11 -52 -12 -54 -41 -47 -16 3
-38 13 -50 20 -19 12 -21 18 -13 40 6 14 17 56 26 94 8 38 22 71 30 74 8 3 14
12 14 20 0 30 90 173 127 201 14 11 37 31 51 43 20 19 31 22 58 17 39 -7 41
-11 17 -37 -27 -30 8 -22 43 10 17 15 62 43 100 61 66 32 76 34 222 41 84 4
156 10 159 14 11 11 60 6 89 -9z m-2876 -139 c0 -45 -14 -76 -34 -76 -28 0
-50 -15 -42 -29 4 -6 20 -8 37 -4 30 6 30 5 27 -28 -3 -32 -5 -34 -63 -46 -33
-7 -74 -12 -91 -13 -18 0 -55 -7 -83 -17 -47 -15 -52 -15 -69 0 -10 10 -25 17
-33 18 -8 0 -26 8 -40 17 -14 9 -41 27 -60 39 -19 13 -40 23 -47 23 -12 0 -61
28 -72 41 -3 3 -13 10 -24 16 -13 7 31 12 160 16 174 6 197 9 314 40 73 20
120 21 120 3z m2788 -200 c23 -30 42 -59 42 -64 0 -5 6 -15 13 -21 8 -6 22
-39 32 -73 9 -35 22 -75 27 -91 8 -20 7 -31 -2 -42 -18 -22 -50 -19 -50 5 0
11 -4 20 -8 20 -5 0 -14 16 -22 35 -8 19 -16 35 -20 35 -7 0 -36 57 -45 86 -3
12 -27 42 -52 68 -30 29 -44 49 -38 55 11 10 67 41 75 41 3 0 24 -24 48 -54z
m-2798 -41 c0 -19 -4 -35 -10 -35 -5 0 -10 -16 -10 -35 0 -20 -5 -35 -12 -35
-15 0 -187 83 -188 91 0 3 40 11 89 18 49 8 95 17 102 22 24 15 29 10 29 -26z
m2653 2 c27 -14 97 -92 97 -109 0 -5 16 -42 35 -81 19 -39 35 -79 35 -89 0
-10 -18 -34 -39 -53 -63 -57 -90 -126 -90 -229 1 -76 4 -90 24 -115 14 -15 29
-47 34 -71 11 -50 19 -60 52 -64 38 -5 57 -16 74 -43 15 -23 15 -26 -1 -44 -9
-11 -35 -24 -56 -31 -21 -6 -50 -22 -64 -35 -14 -13 -29 -23 -33 -23 -13 0
-70 -30 -76 -41 -4 -5 -34 -23 -68 -40 -71 -35 -84 -42 -152 -86 -28 -17 -62
-35 -77 -38 -14 -4 -36 -18 -49 -31 -12 -13 -29 -24 -37 -24 -8 0 -30 -11 -48
-25 -18 -14 -52 -34 -76 -45 -24 -12 -74 -39 -112 -60 -38 -22 -71 -38 -73
-36 -2 2 4 27 13 56 37 112 -5 331 -86 452 -22 33 -40 65 -40 71 0 6 -34 44
-77 84 -42 40 -74 74 -72 76 2 1 17 9 32 17 71 36 114 111 97 170 -7 25 -5 34
13 50 11 11 26 20 32 20 7 0 43 20 81 45 37 25 72 45 77 45 4 0 28 14 52 30
24 17 49 30 55 30 7 0 33 15 59 33 25 18 60 39 76 47 17 8 32 18 35 21 3 3 28
17 56 30 28 14 64 35 80 46 16 10 46 27 66 36 20 10 43 23 50 30 7 7 27 17 43
23 17 7 31 12 31 13 1 1 13 -5 27 -12z m2138 -166 c-12 -55 -21 -125 -21 -155
0 -30 -4 -67 -10 -81 -5 -14 -13 -59 -17 -98 l-8 -72 -6 55 -6 55 -1 -51 c-2
-63 -14 -76 -56 -62 -42 14 -51 24 -39 40 6 7 13 39 17 71 8 70 50 202 77 239
10 15 19 32 19 38 0 5 4 10 9 10 5 0 19 33 32 73 30 96 35 62 10 -62z m-1173
29 c18 -11 39 -20 47 -20 7 0 17 -9 20 -21 5 -14 10 -17 19 -10 7 6 17 7 22 2
5 -4 25 -14 44 -21 19 -8 49 -23 65 -35 35 -25 108 -54 225 -90 98 -30 235
-87 286 -118 19 -12 56 -42 82 -66 26 -24 63 -50 82 -58 40 -16 56 -23 120
-51 25 -11 61 -25 80 -31 19 -5 77 -24 128 -41 51 -16 97 -30 103 -30 50 0 82
-136 104 -437 8 -110 7 -110 -88 -58 -35 19 -72 35 -82 35 -10 0 -32 9 -49 19
-17 11 -53 27 -81 36 -27 10 -57 23 -65 29 -8 7 -55 28 -105 46 -49 18 -94 37
-100 40 -5 4 -31 13 -57 20 -38 10 -75 10 -175 1 -71 -6 -157 -13 -193 -15
-36 -3 -118 -10 -183 -16 -79 -8 -122 -9 -130 -2 -19 16 -131 42 -180 42 -25
0 -53 3 -62 6 -28 11 4 24 60 24 69 0 125 11 125 23 0 7 -59 8 -177 4 -186 -7
-209 -4 -346 46 -59 21 -63 31 -25 57 18 13 39 30 46 39 10 13 23 13 89 4 45
-7 84 -8 94 -3 8 5 39 12 67 16 29 4 55 11 58 15 3 5 16 9 29 9 13 0 27 5 30
10 3 6 14 10 23 10 9 0 29 6 43 14 15 7 51 22 80 31 53 18 114 54 155 93 14
13 29 19 43 15 11 -3 21 -2 21 2 0 13 -54 100 -70 111 -8 7 -28 24 -45 38 -16
14 -33 26 -37 26 -3 0 -24 17 -45 38 -42 39 -114 92 -127 92 -10 0 -36 26 -36
37 0 4 -9 19 -20 33 -23 29 -25 45 -7 65 17 20 57 18 95 -5z m-3607 -78 c30
-15 63 -33 74 -39 11 -6 39 -19 62 -28 l42 -18 -27 -28 c-15 -15 -43 -46 -62
-69 -19 -23 -40 -48 -47 -55 -19 -20 -53 -84 -53 -99 0 -8 -4 -16 -9 -18 -11
-4 -92 -173 -103 -218 -5 -19 -12 -47 -15 -62 -3 -16 -9 -28 -13 -28 -4 0 -10
-17 -14 -37 -3 -21 -13 -51 -21 -67 -8 -15 -15 -37 -15 -47 0 -10 -4 -20 -9
-23 -5 -4 -17 -32 -26 -64 -9 -31 -21 -66 -25 -77 -4 -11 -13 -40 -19 -65 -7
-25 -16 -54 -20 -65 -5 -11 -15 -40 -22 -65 -7 -25 -16 -49 -19 -55 -4 -5 -28
-66 -54 -135 -46 -121 -91 -220 -106 -230 -3 -3 -24 -45 -45 -95 -21 -49 -50
-106 -65 -125 -29 -37 -70 -123 -70 -146 0 -8 -4 -14 -9 -14 -5 0 -15 -16 -21
-36 -7 -19 -18 -38 -26 -41 -14 -5 -33 -40 -59 -108 -23 -61 -40 -95 -47 -93
-3 2 -56 46 -117 98 -103 89 -110 97 -104 125 8 40 33 95 55 120 9 12 42 69
72 128 30 58 66 122 80 140 14 19 26 38 26 42 0 18 84 205 92 205 11 0 43 74
75 175 14 44 29 82 33 85 19 13 64 139 95 265 9 39 27 95 40 125 12 30 30 82
40 115 10 33 21 65 25 70 4 6 13 31 20 58 7 26 17 50 21 53 5 3 9 14 9 24 0
11 15 48 33 82 18 35 39 80 47 101 7 20 17 37 20 37 4 0 17 19 29 43 23 45
136 171 161 180 27 10 36 7 91 -21z m5416 -277 c7 -248 7 -248 -39 -224 -18
10 -19 17 -14 112 3 56 9 161 12 232 3 72 8 134 11 139 16 26 24 -47 30 -259z
m-5086 125 c45 -22 84 -42 87 -45 3 -2 -7 -14 -22 -26 -14 -11 -33 -33 -40
-47 -8 -15 -30 -44 -49 -64 -19 -20 -37 -48 -41 -62 -3 -13 -22 -59 -41 -100
-19 -42 -35 -79 -35 -82 0 -3 -11 -29 -24 -57 -13 -29 -29 -77 -36 -107 -6
-30 -20 -73 -30 -95 -10 -22 -23 -62 -30 -90 -7 -27 -19 -61 -26 -75 -21 -38
-54 -133 -54 -153 0 -9 -4 -25 -9 -35 -17 -32 -61 -152 -61 -167 0 -8 -4 -15
-10 -15 -5 0 -10 -5 -10 -10 0 -6 -9 -30 -20 -52 -11 -23 -20 -49 -20 -57 0
-9 -8 -34 -19 -56 -34 -73 -79 -169 -97 -210 -10 -22 -20 -42 -23 -45 -4 -3
-12 -18 -20 -35 -7 -16 -20 -41 -28 -55 -8 -14 -17 -33 -20 -42 -3 -10 -9 -18
-13 -18 -5 0 -12 -15 -15 -32 -4 -18 -10 -35 -14 -38 -3 -3 -25 -44 -49 -92
-24 -49 -50 -95 -59 -104 -9 -9 -37 -57 -62 -107 -32 -64 -51 -92 -63 -91 -9
1 -53 30 -97 65 -71 56 -80 66 -74 89 9 37 44 110 53 110 8 0 56 96 80 160 7
19 26 49 42 65 15 17 28 34 28 38 0 4 16 40 35 80 19 39 35 77 35 84 0 6 6 18
13 25 20 22 67 97 67 108 0 6 9 30 20 52 11 23 20 50 20 60 0 10 5 18 10 18 6
0 10 6 10 13 0 6 7 26 16 42 9 17 25 55 36 85 11 30 23 64 28 75 5 11 26 70
46 130 20 61 50 148 65 194 16 46 29 90 29 97 0 8 5 14 10 14 6 0 10 11 10 25
0 13 4 34 9 47 5 13 15 43 22 68 7 25 18 54 25 65 6 11 22 50 35 88 12 37 26
67 31 67 4 0 8 11 8 24 0 13 16 48 36 77 20 30 40 63 44 74 17 43 134 165 159
165 11 0 56 -18 102 -40z m2715 1 c82 -54 97 -84 102 -201 4 -93 3 -96 -29
-143 -18 -27 -44 -53 -58 -59 -14 -6 -34 -14 -43 -19 -46 -23 -151 4 -164 43
-3 10 -10 18 -15 18 -15 0 -53 48 -66 83 -26 72 -10 183 35 232 89 99 141 109
238 46z m5497 -183 c-113 -219 -226 -409 -365 -613 -149 -221 -141 -211 -162
-189 -16 15 -17 29 -11 103 4 47 11 90 16 96 5 5 9 19 9 32 0 12 4 42 10 65 5
24 26 113 45 198 20 85 40 169 46 186 5 17 9 42 9 56 0 23 6 27 49 38 27 6 58
20 68 30 11 9 29 21 41 24 12 4 22 13 22 20 0 7 9 21 19 30 11 10 24 30 31 46
l12 28 91 -2 c69 -1 99 3 122 16 17 9 32 15 34 13 2 -2 -37 -82 -86 -177z
m-7377 123 c35 -12 129 -21 244 -26 47 -2 105 -10 130 -19 26 -9 78 -16 123
-16 83 0 112 -13 105 -47 -2 -10 -31 -39 -66 -64 -58 -44 -67 -47 -141 -54
-44 -4 -97 -4 -118 -1 -52 9 -223 -18 -272 -43 -43 -23 -61 -43 -43 -49 15 -5
16 -32 2 -32 -5 0 -10 7 -10 15 0 8 -9 15 -20 15 -24 0 -26 -13 -5 -30 9 -7
28 -38 43 -69 28 -58 71 -132 82 -141 3 -3 17 -21 30 -40 34 -48 37 -51 160
-177 61 -62 114 -113 118 -113 4 0 19 -8 32 -17 32 -22 170 -83 190 -83 8 0
24 -7 34 -15 11 -8 28 -15 38 -15 20 0 52 -16 81 -41 13 -12 17 -27 15 -50 -3
-30 -7 -34 -35 -37 -18 -2 -42 2 -53 8 -21 11 -21 12 -3 25 26 21 -2 19 -33
-2 -29 -19 -77 -14 -258 26 -104 23 -156 52 -266 151 -25 22 -50 40 -57 40 -6
0 -24 11 -40 24 -44 36 -73 50 -73 33 0 -13 219 -208 243 -216 7 -2 14 -7 17
-10 11 -15 82 -51 99 -51 10 0 36 -7 56 -16 29 -12 35 -18 24 -25 -23 -14
-181 -11 -209 5 -14 8 -52 29 -85 46 -69 37 -121 65 -150 82 -41 23 -51 29
-82 45 -18 9 -36 13 -40 9 -10 -10 46 -57 103 -86 24 -13 44 -27 44 -32 0 -4
6 -8 13 -8 7 0 28 -13 47 -28 19 -15 54 -34 78 -42 51 -16 55 -30 8 -30 -40 0
-192 46 -201 61 -13 20 -196 102 -206 92 -7 -7 -1 -16 16 -27 15 -10 25 -19
23 -21 -9 -9 -124 46 -161 77 -22 18 -47 37 -56 42 -9 5 -35 28 -59 52 -24 24
-52 46 -62 49 -11 4 -20 10 -20 14 0 7 -64 75 -108 116 -6 6 -37 37 -69 71
-46 48 -73 67 -130 90 -50 20 -73 34 -73 46 0 9 4 19 8 22 5 3 17 35 27 71 9
36 21 65 26 65 4 0 15 21 22 48 22 72 88 190 135 240 6 7 12 19 12 26 0 29 25
36 86 25 49 -8 73 -7 129 7 39 9 102 22 140 29 83 15 380 19 421 6z m4333 -48
c6 -21 11 -50 11 -65 0 -15 4 -29 9 -33 5 -3 9 -40 9 -83 0 -42 2 -86 4 -97 2
-16 -2 -19 -22 -17 -13 1 -28 8 -32 15 -11 16 -8 317 3 317 4 0 13 -17 18 -37z
m-918 -60 c-8 -15 -10 -15 -11 -2 0 17 10 32 18 25 2 -3 -1 -13 -7 -23z m-898
-50 c58 -7 67 -18 27 -32 -17 -5 -30 -15 -30 -20 0 -6 -7 -11 -15 -11 -8 0
-24 -6 -35 -12 -15 -10 -24 -10 -39 -1 -10 6 -35 15 -55 18 -49 10 -55 24 -20
52 24 20 36 23 74 18 25 -3 66 -8 93 -12z m-148 -81 l40 -9 -30 -12 c-39 -17
-150 -19 -165 -5 -9 9 -5 16 17 27 28 16 58 16 138 -1z m2167 -32 c45 -16 92
-30 105 -30 13 0 23 -4 23 -8 0 -9 64 -29 135 -43 95 -18 230 -28 392 -29 89
-1 163 -4 166 -6 3 -3 -6 -16 -19 -29 -13 -13 -24 -33 -24 -45 0 -17 -6 -20
-42 -20 -61 -1 -394 42 -513 65 -16 4 -57 10 -90 15 -45 7 -190 32 -222 39 -2
1 -3 16 -3 35 0 19 -4 46 -10 60 -13 34 -2 34 102 -4z m-584 -23 c28 -6 52
-14 52 -19 0 -4 8 -8 18 -8 9 0 30 -7 46 -15 15 -8 36 -15 46 -15 9 0 29 -9
43 -20 28 -22 41 -67 57 -200 6 -47 15 -104 19 -127 4 -23 9 -82 10 -130 1
-48 6 -122 11 -163 5 -41 14 -122 20 -180 12 -110 48 -339 55 -350 2 -4 7 -40
10 -81 4 -41 17 -111 31 -155 13 -45 24 -90 24 -101 0 -10 4 -23 9 -29 9 -8
27 -70 66 -219 15 -59 48 -154 63 -181 11 -21 44 -124 62 -194 6 -25 22 -67
35 -95 29 -63 65 -169 65 -193 0 -13 -34 -34 -132 -80 -73 -34 -139 -62 -145
-62 -7 0 -15 12 -18 28 -3 15 -14 54 -26 87 -11 33 -24 76 -29 95 -9 36 -33
109 -50 148 -22 50 -29 69 -40 107 -7 22 -18 54 -25 70 -7 17 -21 62 -30 100
-10 39 -26 88 -36 110 -9 22 -25 74 -35 115 -10 41 -22 78 -26 81 -5 3 -14 39
-21 80 -8 41 -18 83 -24 94 -6 11 -16 52 -23 90 -7 39 -18 88 -25 110 -7 22
-16 76 -20 120 -4 44 -12 91 -17 105 -5 14 -16 115 -23 225 -46 676 -60 788
-101 852 -20 31 -18 33 19 21 17 -6 56 -15 85 -21z m-3473 6 c19 -9 35 -20 35
-23 0 -9 54 -65 72 -77 17 -9 68 -85 87 -128 7 -16 20 -42 28 -57 36 -70 53
-143 53 -228 l0 -87 -44 -31 c-24 -18 -54 -32 -66 -32 -19 0 -21 4 -15 28 21
80 10 271 -17 288 -4 3 -8 14 -8 25 0 10 -4 19 -10 19 -5 0 -10 6 -10 14 0 8
-3 16 -7 18 -10 4 -63 85 -63 95 0 4 -18 23 -41 44 -48 44 -158 99 -196 99
-31 0 -113 -31 -113 -42 0 -5 36 -8 79 -8 44 0 90 -4 103 -9 30 -11 168 -149
168 -167 0 -8 5 -14 10 -14 6 0 10 -6 10 -14 0 -13 39 -109 61 -148 5 -10 9
-50 9 -90 -1 -57 -5 -78 -20 -96 l-20 -24 -43 21 c-24 12 -52 21 -63 21 -20 0
-70 38 -61 46 2 2 17 -2 33 -11 40 -21 64 -19 91 7 31 29 31 53 1 43 -34 -10
-54 -8 -85 9 -16 8 -43 22 -60 31 -18 8 -39 24 -45 35 -7 11 -17 20 -23 20
-11 0 -60 75 -83 125 -19 42 -12 77 19 94 25 14 29 13 63 -13 20 -15 36 -33
36 -40 0 -8 6 -16 14 -19 13 -5 46 -61 46 -78 0 -5 -11 -3 -25 3 -14 6 -28 8
-32 5 -10 -11 17 -54 43 -68 20 -10 27 -10 44 6 26 24 26 31 -10 108 -20 42
-48 80 -82 111 -73 66 -117 61 -159 -20 -21 -42 -24 -64 -9 -64 6 0 10 -10 10
-23 0 -12 9 -40 20 -62 11 -21 18 -41 15 -43 -3 -3 -5 -1 -5 5 0 5 -11 22 -24
36 -49 53 -86 118 -86 151 0 19 11 53 24 76 13 24 22 48 20 55 -3 7 13 31 36
54 l41 41 109 0 c82 0 118 -4 145 -17z m1723 0 c2 -9 -9 -13 -40 -13 -40 1
-42 2 -23 16 23 17 56 15 63 -3z m-2078 -3 c0 -5 -3 -10 -7 -10 -5 0 -16 -21
-27 -48 -10 -26 -25 -58 -33 -70 -14 -23 -15 -23 -28 -5 -19 24 -19 91 0 110
25 24 95 42 95 23z m1729 -247 c-2 -98 -2 -98 -9 -31 -3 38 -10 71 -14 75 -14
14 -26 -23 -26 -80 0 -42 -3 -58 -12 -55 -16 6 -23 48 -9 48 6 0 11 16 11 35
0 19 -4 35 -10 35 -5 0 -10 13 -10 29 0 27 4 30 38 34 20 2 38 4 40 5 1 1 1
-42 1 -95z m-5156 -92 c46 -69 87 -144 87 -158 0 -12 -99 140 -100 154 0 6 -3
13 -7 15 -10 4 -53 65 -53 74 0 15 32 -22 73 -85z m6578 -231 c8 -278 30 -487
58 -553 12 -27 21 -56 21 -65 0 -16 19 -83 63 -227 12 -38 29 -80 39 -93 9
-13 28 -54 43 -92 14 -38 33 -74 41 -80 8 -7 14 -18 14 -24 0 -6 38 -51 85
-100 82 -85 85 -91 85 -135 0 -65 -11 -79 -45 -61 -42 22 -136 120 -180 185
-22 33 -45 64 -52 68 -7 4 -13 13 -13 20 0 7 -10 28 -22 47 -12 19 -30 60 -41
90 -10 30 -28 67 -39 83 -22 30 -95 314 -105 405 -3 28 -10 52 -14 52 -5 0 -9
17 -9 38 0 21 -6 62 -14 92 -21 81 -29 247 -21 424 l7 157 47 -3 46 -3 6 -225z
m-1188 182 c7 -5 44 -17 82 -27 39 -9 97 -26 130 -38 56 -20 79 -22 377 -22
l318 0 0 -80 c0 -147 41 -565 60 -610 5 -11 13 -45 19 -75 5 -30 17 -77 26
-105 66 -209 81 -252 93 -263 6 -7 12 -19 12 -27 0 -7 4 -15 8 -17 5 -1 28
-39 51 -84 24 -44 58 -97 77 -117 19 -19 34 -38 34 -42 0 -19 184 -218 210
-227 10 -3 13 -18 11 -54 -1 -27 -6 -53 -11 -59 -10 -13 -40 -271 -55 -475 -3
-41 -11 -112 -17 -158 l-12 -82 -36 -10 c-465 -125 -984 -192 -1495 -194 -441
-2 -708 19 -1100 85 -462 77 -1012 239 -1391 409 l-64 29 0 118 c0 86 -4 124
-14 139 -11 15 -17 86 -25 285 -6 145 -19 361 -30 479 -20 223 -46 783 -40
857 l4 43 45 -35 c25 -19 61 -47 82 -62 20 -15 38 -36 41 -45 3 -10 22 -25 43
-35 22 -10 45 -23 52 -30 6 -6 38 -19 70 -28 31 -9 65 -18 75 -21 9 -3 17 -9
17 -13 0 -5 25 -11 57 -15 31 -4 70 -13 87 -21 55 -25 172 -55 213 -55 22 0
56 7 76 15 19 8 80 16 134 19 55 2 126 12 158 21 47 14 80 16 174 10 117 -7
211 5 211 28 0 5 8 17 18 26 17 15 38 77 44 131 2 14 13 29 28 37 14 7 91 44
172 83 81 40 150 75 153 80 3 4 16 11 29 14 29 7 139 71 179 103 16 13 41 26
55 29 15 4 39 18 54 32 15 14 30 23 33 20 3 -3 1 -34 -5 -69 -16 -99 -13 -163
9 -190 10 -13 21 -38 25 -55 4 -16 29 -54 55 -83 46 -50 52 -53 98 -54 77 -1
141 57 158 143 5 26 16 41 46 59 29 19 40 34 45 59 10 54 -4 203 -21 222 -8 9
-12 19 -9 22 7 7 61 -7 77 -20z m1292 8 c6 -4 33 -15 60 -26 116 -42 125 -54
125 -173 0 -53 5 -114 11 -136 5 -22 14 -67 18 -100 5 -33 16 -96 25 -140 9
-44 21 -105 27 -135 11 -56 25 -108 59 -215 10 -33 24 -91 30 -130 7 -38 16
-80 20 -91 17 -45 21 -112 10 -196 -12 -96 -17 -118 -31 -118 -18 0 -113 105
-131 146 -6 13 -15 24 -20 24 -4 0 -20 26 -34 58 -13 31 -29 65 -35 75 -5 9
-19 43 -31 75 -12 31 -27 62 -33 67 -7 6 -17 33 -23 60 -5 28 -19 86 -30 130
-11 44 -25 114 -32 155 -6 41 -21 116 -33 165 -16 70 -22 134 -25 293 -2 111
-1 209 2 217 6 15 47 12 71 -5z m-1505 -22 c0 -6 11 -33 25 -61 26 -51 30
-107 9 -114 -6 -2 -16 16 -24 39 -7 24 -19 57 -26 75 -8 17 -14 46 -14 63 0
28 2 31 15 20 8 -7 15 -17 15 -22z m-77 -26 c-6 -26 -26 -24 -31 3 -4 19 18
39 30 27 4 -4 5 -18 1 -30z m-2800 -187 c2 -110 9 -335 15 -500 6 -165 13
-428 16 -585 3 -157 9 -390 12 -518 l7 -234 -34 17 c-19 9 -93 51 -165 92
l-131 75 -7 281 c-3 155 -9 405 -12 554 -4 167 -3 278 3 285 5 7 15 32 23 56
7 23 17 42 21 42 4 0 15 24 25 53 9 28 24 70 34 92 9 22 27 69 39 105 54 157
73 207 91 245 11 22 25 66 31 99 6 33 15 54 20 49 4 -4 10 -98 12 -208z m76
45 c6 -56 11 -126 11 -156 0 -30 4 -85 10 -122 5 -37 14 -125 20 -197 6 -71
15 -157 20 -190 26 -174 59 -598 60 -774 1 -63 3 -118 6 -122 5 -9 25 -401 20
-406 -2 -2 -33 10 -69 28 l-65 32 -6 396 c-4 218 -12 585 -18 816 -18 663 -20
795 -10 795 5 0 14 -45 21 -100z m2701 53 c0 -13 9 -32 19 -42 15 -15 19 -32
17 -85 -3 -76 -17 -101 -41 -70 -10 12 -13 29 -9 49 11 54 10 59 -11 60 -27 0
-31 36 -10 92 18 46 35 44 35 -4z m-1043 -169 c-3 -3 -12 -4 -19 -1 -8 3 -5 6
6 6 11 1 17 -2 13 -5z m5968 -63 c3 -10 14 -29 25 -41 17 -20 18 -26 7 -39 -7
-9 -42 -51 -77 -94 -65 -80 -84 -91 -57 -35 30 64 44 103 51 142 15 79 37 109
51 67z m-8062 -1023 c3 -244 5 -444 3 -445 -7 -8 -107 71 -103 81 3 7 2 148
-2 312 -7 280 -7 302 11 344 27 65 72 150 79 150 3 0 9 -199 12 -442z m-134
-166 l1 -193 -97 67 c-138 94 -130 83 -104 148 13 30 28 57 35 59 6 3 32 45
56 93 25 49 51 95 57 102 7 7 13 19 13 26 0 6 6 18 13 25 16 17 24 -77 26
-327z m5380 -10 c18 -75 39 -153 46 -172 8 -19 17 -53 20 -75 4 -22 11 -46 17
-53 7 -8 7 -45 -1 -120 -6 -59 -15 -183 -19 -277 l-7 -170 -105 -37 c-58 -20
-111 -37 -119 -37 -11 -1 -12 10 -7 52 4 28 11 97 16 152 25 281 31 336 40
410 6 44 15 132 20 195 6 63 14 131 19 150 5 19 12 56 16 82 10 77 29 48 64
-100z m176 -545 c12 -22 19 -68 22 -149 l6 -117 -38 -15 c-21 -9 -40 -14 -42
-12 -8 8 21 335 28 330 4 -2 15 -19 24 -37z m99 -238 c-11 -18 -24 -8 -24 19
1 26 1 26 15 8 8 -10 12 -23 9 -27z"/>
<path d="M4590 6529 c0 -5 5 -7 10 -4 6 3 10 8 10 11 0 2 -4 4 -10 4 -5 0 -10
-5 -10 -11z"/>
<path d="M4287 10394 c-84 -46 -131 -152 -132 -300 0 -73 3 -85 30 -130 30
-48 32 -49 83 -52 36 -2 57 2 67 12 8 8 26 23 39 33 67 53 102 206 74 320 -19
82 -30 100 -68 117 -45 20 -57 20 -93 0z m110 -73 c18 -26 23 -48 23 -94 0
-65 -20 -177 -31 -177 -4 0 -10 -11 -13 -25 -14 -54 -70 -83 -124 -64 -34 12
-44 44 -44 149 0 120 11 148 86 222 39 38 73 34 103 -11z"/>
<path d="M3626 10201 c-8 -13 19 -21 67 -21 56 0 79 15 37 24 -46 9 -98 7
-104 -3z"/>
<path d="M3305 10194 c-11 -1 -73 -8 -137 -14 -167 -17 -153 -34 20 -26 237
12 315 20 320 34 3 9 -19 12 -90 11 -51 -1 -102 -3 -113 -5z"/>
<path d="M3895 10190 c-3 -6 1 -13 10 -16 19 -8 30 0 20 15 -8 14 -22 14 -30
1z"/>
<path d="M3610 9733 c-46 -6 -135 -29 -157 -42 -25 -13 -8 -18 92 -25 79 -5
140 -21 166 -43 8 -6 28 -15 44 -19 17 -4 42 -15 57 -25 14 -11 32 -19 40 -19
7 0 33 -7 56 -15 41 -15 46 -14 78 6 19 11 34 26 34 33 0 6 -20 22 -45 36 -25
14 -45 28 -45 31 0 4 -15 11 -32 14 -18 4 -60 20 -93 35 -63 28 -134 40 -195
33z"/>
<path d="M3640 9545 c95 -14 140 -29 140 -46 0 -7 -10 -9 -27 -5 -77 18 -273
41 -273 32 0 -3 26 -32 58 -64 58 -57 98 -78 162 -84 29 -3 35 0 40 22 4 19
13 26 37 28 28 3 31 7 36 45 3 23 1 47 -4 54 -15 18 -101 33 -182 32 l-72 -1
85 -13z m-41 -51 c31 -7 38 -18 22 -43 -12 -19 -46 -5 -59 24 -12 27 -10 28
37 19z"/>
<path d="M3487 9456 c-4 -10 -5 -21 -2 -24 9 -9 17 6 13 25 -3 17 -4 17 -11
-1z"/>
<path d="M3683 9025 c-26 -19 -37 -63 -24 -98 15 -40 30 -33 24 11 -3 25 1 50
11 70 19 37 18 37 -11 17z"/>
<path d="M8366 9589 c-14 -29 -23 -56 -20 -61 3 -5 -2 -18 -12 -29 -22 -24 -8
-40 24 -28 15 6 22 17 22 35 0 33 21 94 32 94 4 0 8 -5 8 -11 0 -7 12 -23 26
-36 20 -18 24 -27 15 -36 -18 -18 -13 -39 8 -32 11 3 22 1 26 -5 4 -7 -2 -14
-14 -17 -29 -7 -21 -27 12 -31 15 -2 34 -13 42 -25 16 -23 21 -127 6 -127 -5
0 -7 17 -4 38 4 32 1 43 -21 65 -40 40 -86 15 -86 -46 0 -36 26 -59 41 -36 5
8 9 8 15 -3 11 -17 59 -48 76 -48 7 0 23 -15 36 -33 29 -43 30 -148 3 -246
-18 -64 -18 -70 -3 -75 10 -3 23 -9 30 -12 9 -4 12 13 12 68 1 51 6 85 20 113
11 22 19 45 20 50 0 6 9 18 20 28 25 21 25 38 1 66 -11 13 -23 37 -26 54 -4
18 -16 42 -27 53 -21 24 -55 80 -64 107 -4 9 -10 17 -15 17 -5 0 -15 16 -23
35 -8 19 -20 35 -25 35 -6 0 -11 6 -11 13 0 15 -95 117 -109 117 -5 0 -21 -23
-35 -51z m104 -250 c0 -11 -4 -17 -10 -14 -5 3 -10 13 -10 21 0 8 5 14 10 14
6 0 10 -9 10 -21z"/>
<path d="M7720 9492 c0 -4 9 -15 20 -25 11 -9 20 -24 20 -32 0 -17 2 -18 24
-9 24 9 19 28 -14 52 -30 22 -50 28 -50 14z"/>
<path d="M7677 9473 c-11 -11 -8 -48 5 -61 21 -21 28 -13 28 28 0 38 -14 52
-33 33z"/>
<path d="M8406 9455 c4 -8 10 -15 15 -15 5 0 9 7 9 15 0 8 -7 15 -15 15 -9 0
-12 -6 -9 -15z"/>
<path d="M8364 9410 c5 -31 3 -40 -9 -40 -18 0 -38 -37 -31 -56 3 -8 12 -14
21 -14 8 0 15 -7 15 -15 0 -21 -30 -19 -46 3 -18 23 -18 87 1 102 17 14 20 36
6 44 -13 8 -41 -4 -41 -18 0 -6 -7 -24 -16 -41 -14 -27 -37 -99 -51 -163 -3
-12 -9 -25 -14 -28 -15 -9 -10 -61 7 -75 21 -17 74 -130 74 -157 0 -53 12 -82
36 -82 12 0 25 3 27 8 2 4 -7 39 -20 77 -13 39 -26 107 -30 153 -6 81 -5 84
22 112 22 23 38 30 67 30 41 0 46 9 24 49 -11 20 -11 31 2 72 17 53 7 79 -31
79 -17 0 -19 -5 -13 -40z"/>
<path d="M7820 9400 c0 -11 4 -20 9 -20 11 0 22 26 14 34 -12 12 -23 5 -23
-14z"/>
<path d="M7730 9371 c-19 -37 -11 -88 21 -135 22 -34 37 -46 55 -46 23 0 24 2
24 72 0 69 -1 74 -32 100 -39 33 -54 35 -68 9z"/>
<path d="M7670 9364 c0 -9 7 -14 17 -12 25 5 28 28 4 28 -12 0 -21 -6 -21 -16z"/>
<path d="M7860 9360 c0 -11 7 -20 15 -20 8 0 18 -12 21 -27 4 -16 11 -34 17
-40 6 -9 4 -22 -9 -40 -10 -16 -19 -23 -22 -15 -6 19 -22 14 -22 -7 0 -19 25
-31 70 -31 31 0 88 -52 96 -88 4 -15 14 -35 22 -44 10 -13 17 -49 20 -118 4
-90 7 -100 24 -100 11 0 28 -5 39 -10 24 -14 25 7 2 70 -10 29 -16 82 -17 149
l-2 104 -46 51 c-26 28 -66 72 -89 99 -23 26 -48 47 -55 47 -8 0 -19 9 -26 20
-7 11 -18 20 -25 20 -7 0 -13 -9 -13 -20z"/>
<path d="M8908 9302 c-26 -31 -61 -72 -78 -91 -30 -32 -32 -38 -26 -85 3 -28
6 -61 6 -74 0 -34 44 -27 48 8 5 39 24 71 50 81 21 8 23 14 17 42 -13 59 -12
62 20 62 20 1 39 -8 58 -27 24 -23 27 -33 22 -58 -4 -19 -2 -36 5 -45 19 -23
8 -181 -13 -203 -15 -15 -17 -15 -17 0 0 9 7 29 15 44 25 48 17 144 -12 144
-8 0 -19 -13 -24 -30 -15 -42 -39 -39 -39 4 0 43 -15 54 -42 30 -16 -15 -19
-27 -15 -63 3 -23 12 -50 20 -59 14 -14 17 -13 28 11 7 15 15 27 18 27 13 0
41 -41 40 -58 0 -13 -3 -12 -11 6 -13 26 -24 28 -45 6 -12 -12 -13 -20 -5 -37
l11 -22 0 23 c1 12 5 22 10 22 17 0 31 -28 37 -74 4 -25 9 -46 13 -46 7 1 71
86 71 95 0 4 7 13 16 22 9 9 12 22 8 32 -4 9 -12 45 -19 81 -7 36 -23 95 -35
133 -24 67 -24 67 -62 67 -34 0 -38 3 -38 25 0 27 9 32 28 13 17 -17 26 -3 18
27 -10 38 -26 31 -78 -33z"/>
<path d="M7670 9198 c0 -107 15 -215 34 -254 7 -12 38 -43 69 -69 37 -30 63
-61 76 -91 12 -27 26 -44 33 -42 20 7 21 35 3 55 -40 44 -65 79 -65 91 0 6 -4
12 -10 12 -5 0 -12 11 -16 25 -3 14 -10 25 -14 25 -5 0 -13 24 -19 53 -13 59
-2 111 25 132 16 11 16 13 -4 24 -14 7 -23 8 -27 1 -11 -18 -35 -11 -35 11 0
11 4 18 9 15 13 -9 31 18 22 33 -5 7 -17 11 -27 9 -16 -3 -19 2 -16 35 2 32 0
37 -18 37 -19 0 -20 -6 -20 -102z"/>
<path d="M7862 9278 c5 -32 28 -35 28 -4 0 17 -5 26 -16 26 -10 0 -14 -7 -12
-22z"/>
<path d="M8454 9255 c-8 -21 2 -45 20 -45 19 0 29 29 15 46 -15 18 -28 18 -35
-1z"/>
<path d="M8518 9211 c-24 -24 -23 -51 2 -51 11 0 20 -4 20 -10 0 -5 -8 -10
-18 -10 -10 0 -28 -9 -41 -21 -26 -25 -37 -19 -21 11 14 26 5 57 -20 65 -27 9
-37 1 -50 -40 -10 -30 -8 -43 14 -99 14 -35 26 -69 26 -75 0 -6 3 -11 8 -11 4
0 13 -15 21 -32 25 -59 81 -103 81 -65 0 7 9 31 20 52 24 46 42 215 28 254 -8
22 -36 51 -48 50 -3 0 -13 -8 -22 -18z m41 -128 c0 -21 -4 -56 -9 -78 -9 -40
-9 -40 -8 15 1 77 0 80 -19 81 -15 0 -15 2 2 9 32 14 35 12 34 -27z m-41 -19
c17 -18 15 -24 -8 -24 -11 0 -20 5 -20 10 0 6 -5 10 -11 10 -7 0 -10 -12 -7
-30 3 -19 1 -29 -6 -27 -12 4 -20 42 -13 61 6 15 48 15 65 0z m-4 -49 c3 -9 0
-15 -9 -15 -8 0 -15 7 -15 15 0 8 4 15 9 15 5 0 11 -7 15 -15z m26 -76 c0 -11
-7 -22 -15 -26 -18 -6 -20 -5 -29 22 -5 16 -1 20 19 21 19 2 25 -3 25 -17z"/>
<path d="M8940 9208 c0 -19 2 -20 10 -8 13 19 13 30 0 30 -5 0 -10 -10 -10
-22z"/>
<path d="M8330 9195 c-8 -10 -10 -31 -7 -63 4 -26 9 -71 13 -100 4 -29 11 -55
15 -58 5 -3 9 0 9 5 0 6 5 11 12 11 9 0 9 -3 0 -12 -18 -18 -15 -56 7 -86 10
-15 22 -37 26 -50 5 -18 13 -22 33 -20 21 2 27 8 27 28 0 22 -4 25 -34 22 -29
-2 -32 0 -21 13 7 8 19 15 26 15 21 0 17 14 -14 62 -57 87 -71 151 -47 226 6
18 4 22 -13 22 -11 0 -25 -7 -32 -15z"/>
<path d="M8975 9190 c3 -5 8 -10 11 -10 2 0 4 5 4 10 0 6 -5 10 -11 10 -5 0
-7 -4 -4 -10z"/>
<path d="M7826 9141 c-10 -16 5 -42 23 -39 21 4 21 42 -1 46 -9 2 -19 -1 -22
-7z"/>
<path d="M7898 9144 c-5 -4 -8 -27 -8 -51 0 -49 -6 -52 -44 -22 -40 31 -76 19
-76 -25 0 -34 28 -96 43 -96 4 0 7 -8 7 -19 0 -10 9 -30 20 -44 11 -14 20 -29
20 -34 0 -4 9 -14 20 -21 11 -7 20 -17 20 -23 0 -14 26 -39 41 -39 6 0 20 -9
30 -21 10 -11 26 -19 36 -17 16 3 18 17 21 118 4 132 -11 235 -38 268 -19 23
-79 40 -92 26z m64 -61 c8 -10 19 -30 26 -45 10 -25 10 -28 -8 -28 -11 0 -20
-4 -20 -10 0 -5 11 -10 25 -10 14 0 25 -6 25 -14 0 -21 -48 -7 -56 16 -3 10 0
25 6 33 21 25 4 48 -30 41 -34 -6 -36 -4 -14 18 20 20 28 20 46 -1z m-102 -62
c0 -5 -7 -11 -15 -15 -9 -3 -15 0 -15 9 0 8 7 15 15 15 8 0 15 -4 15 -9z m61
-33 c25 -31 24 -38 -6 -38 -21 0 -25 5 -25 30 0 36 6 37 31 8z m-66 -16 c6 -4
11 -23 12 -42 0 -19 -1 -25 -4 -13 -2 12 -11 27 -19 33 -24 21 -14 40 11 22z
m155 -62 c0 -34 -7 -38 -26 -12 -19 25 -17 42 6 42 16 0 20 -7 20 -30z m-106
-42 c3 -16 2 -28 -3 -28 -13 0 -21 27 -14 45 7 19 8 18 17 -17z m106 -43 c0
-14 -7 -28 -16 -32 -17 -6 -52 22 -40 34 4 4 11 1 15 -6 10 -16 31 -6 31 15 0
8 2 14 5 14 3 0 5 -11 5 -25z"/>
<path d="M8945 9140 c-4 -7 0 -19 9 -28 15 -15 18 -15 26 -2 5 8 8 20 7 25 -5
15 -34 18 -42 5z"/>
<path d="M8720 9081 c-5 -11 -10 -26 -10 -35 0 -8 -5 -16 -12 -18 -14 -5 -23
-104 -14 -153 9 -49 33 -45 46 8 6 23 16 60 23 82 23 82 -2 172 -33 116z"/>
<path d="M8159 9033 c-2 -62 4 -90 29 -142 15 -30 34 -57 41 -59 21 -7 6 132
-20 185 -24 49 -48 57 -50 16z"/>
<path d="M9281 9038 c-10 -17 -10 -22 0 -29 17 -10 29 -2 29 21 0 28 -14 32
-29 8z"/>
<path d="M8850 9021 c0 -5 5 -22 11 -38 7 -15 15 -44 18 -63 8 -44 38 -50 33
-7 -5 44 -62 144 -62 108z"/>
<path d="M9222 9013 c-7 -3 -23 -15 -36 -28 -19 -18 -24 -38 -30 -103 -7 -91
-7 -92 87 -92 40 0 48 3 45 18 -1 9 1 22 5 29 4 6 3 14 -1 17 -11 7 -3 56 9
56 5 0 9 16 9 35 0 31 -3 35 -25 35 -18 0 -25 5 -25 20 0 20 -12 24 -38 13z
m28 -59 c0 -3 -7 -12 -15 -20 -12 -13 -15 -13 -15 -1 0 7 3 17 7 20 8 8 23 9
23 1z"/>
<path d="M8810 8988 c0 -12 -5 -48 -12 -80 -7 -31 -9 -60 -6 -64 9 -9 67 58
68 77 0 25 -29 89 -40 89 -6 0 -10 -10 -10 -22z"/>
<path d="M7450 8910 c0 -28 23 -44 32 -21 2 6 18 -2 35 -17 30 -24 32 -31 27
-64 -7 -42 -19 -49 -29 -18 -3 11 -11 20 -16 20 -5 0 -9 7 -9 15 0 8 5 15 10
15 6 0 10 7 10 15 0 9 -6 12 -16 8 -13 -5 -15 -16 -11 -53 5 -42 33 -117 48
-130 3 -3 9 -17 13 -32 4 -19 18 -32 49 -46 23 -10 50 -27 60 -37 10 -9 20
-15 23 -12 10 10 -7 47 -21 47 -7 0 -15 7 -19 15 -4 13 -2 14 14 5 14 -8 20
-8 20 0 0 6 -6 13 -14 16 -8 3 -25 25 -37 50 -18 32 -30 44 -47 44 -24 0 -44
31 -24 38 7 2 12 14 12 27 0 46 60 41 75 -6 4 -10 13 -19 21 -19 8 0 14 -7 14
-17 0 -14 -3 -14 -22 3 -13 10 -28 26 -35 34 -33 42 -21 -33 14 -85 12 -18 13
-18 13 -1 0 26 24 14 30 -15 7 -31 27 -65 35 -58 3 4 1 26 -4 50 -7 30 -7 46
1 50 7 5 4 21 -11 51 -11 24 -21 54 -21 66 0 26 -20 35 -112 53 -35 7 -68 19
-74 26 -19 22 -34 15 -34 -17z"/>
<path d="M8950 8885 c0 -8 7 -15 15 -15 8 0 15 7 15 15 0 8 -7 15 -15 15 -8 0
-15 -7 -15 -15z"/>
<path d="M9076 8878 c-22 -32 -20 -58 4 -58 17 0 20 7 20 40 0 46 -3 48 -24
18z"/>
<path d="M8587 8867 c-12 -8 -16 -19 -11 -30 8 -21 14 -21 40 -3 17 13 17 16
4 30 -13 14 -19 14 -33 3z"/>
<path d="M8857 8863 c-16 -16 -5 -33 21 -33 35 0 45 9 31 27 -12 14 -41 18
-52 6z"/>
<path d="M7720 8843 c0 -44 73 -163 99 -163 16 0 18 37 4 71 -14 34 -80 109
-95 109 -4 0 -8 -8 -8 -17z"/>
<path d="M8321 8846 c-19 -23 4 -60 29 -46 28 15 33 28 16 45 -18 19 -30 19
-45 1z"/>
<path d="M8086 8789 c-22 -32 -20 -39 9 -39 31 0 43 26 23 47 -14 13 -17 12
-32 -8z"/>
<path d="M7710 8708 c0 -33 21 -60 39 -49 11 7 11 13 0 37 -18 36 -39 43 -39
12z"/>
<path d="M7886 8714 c-11 -29 -6 -34 29 -34 31 0 35 3 35 25 0 21 -5 25 -29
25 -17 0 -31 -6 -35 -16z"/>
<path d="M7749 8634 c-6 -8 -9 -17 -6 -20 8 -8 47 5 47 16 0 15 -29 19 -41 4z"/>
<path d="M7600 8551 c0 -21 13 -41 26 -41 17 0 18 22 2 38 -14 14 -28 16 -28
3z"/>
<path d="M8600 7860 c-35 -12 -129 -40 -170 -52 -19 -5 -74 -13 -122 -17 -48
-4 -91 -11 -95 -14 -7 -8 16 -57 32 -69 15 -11 133 -9 183 3 24 5 51 16 59 24
8 8 21 15 28 15 8 0 29 8 47 18 30 17 165 57 212 64 11 2 21 8 23 14 7 20
-146 31 -197 14z"/>
<path d="M8695 7673 c-53 -6 -178 -35 -202 -46 -26 -11 -29 -28 -11 -57 10
-15 10 -22 0 -32 -20 -20 -14 -28 23 -28 24 0 35 -5 35 -15 0 -22 97 -20 130
2 81 54 123 92 136 122 8 19 13 36 11 38 -7 6 -190 -45 -196 -56 -7 -10 -109
-36 -116 -29 -2 2 -2 13 1 24 6 21 86 49 177 61 26 3 47 10 47 14 0 5 -1 8 -2
8 -2 -1 -16 -4 -33 -6z m37 -105 c-12 -12 -27 -18 -36 -15 -25 10 -19 25 14
32 17 4 30 12 31 18 0 7 3 7 6 -2 3 -7 -4 -22 -15 -33z"/>
<path d="M8600 7121 c0 -11 5 -23 10 -26 6 -3 10 -19 10 -36 0 -35 17 -39 26
-5 4 16 -1 36 -12 55 -21 35 -34 40 -34 12z"/>
<path d="M8521 7023 c-19 -8 -51 -36 -51 -45 0 -5 12 -6 28 -2 47 11 82 28 82
41 0 13 -33 16 -59 6z"/>
<path d="M4363 4980 c-13 -5 -23 -13 -23 -18 0 -9 -95 -72 -109 -72 -3 0 -15
-13 -24 -29 -10 -17 -38 -50 -63 -76 -25 -25 -57 -67 -71 -93 -53 -100 -63
-122 -63 -137 0 -8 -6 -15 -13 -15 -14 0 -53 -149 -44 -172 6 -15 27 34 27 63
0 10 7 19 15 19 8 0 15 7 15 16 0 27 89 204 105 210 8 4 15 11 15 18 0 6 20
37 45 68 25 32 45 62 45 68 0 5 5 10 11 10 6 0 27 16 48 35 57 55 65 61 84 68
9 4 17 13 17 21 0 8 6 17 13 19 6 3 8 5 2 6 -5 0 -20 -4 -32 -9z"/>
<path d="M10160 3291 c14 -11 35 -21 48 -21 12 0 22 -5 22 -10 0 -6 25 -22 55
-36 30 -14 65 -39 77 -56 40 -51 63 -74 82 -81 16 -7 18 -4 12 24 -7 35 -65
98 -113 123 -18 9 -33 21 -33 26 0 6 -8 10 -17 10 -9 0 -25 7 -35 16 -10 10
-41 19 -70 21 l-53 4 25 -20z"/>
<path d="M2963 6121 c-28 -17 -54 -39 -57 -48 -22 -74 -26 -121 -15 -188 12
-77 16 -85 72 -132 29 -26 47 -33 78 -33 68 0 94 21 135 108 34 74 32 120 -9
235 -13 38 -68 78 -114 83 -30 4 -50 -2 -90 -25z m130 -2 c31 -17 58 -52 74
-96 41 -119 -30 -283 -122 -283 -27 0 -40 11 -122 102 -20 23 -29 135 -14 181
17 51 85 107 128 107 19 0 44 -5 56 -11z"/>
<path d="M3032 6023 c-18 -7 -42 -57 -42 -88 0 -74 65 -111 110 -63 53 57 -1
178 -68 151z"/>
<path d="M3240 4293 c-14 -3 -29 -9 -34 -14 -6 -5 -45 -9 -88 -9 -78 0 -85 -3
-69 -29 7 -10 21 -12 57 -7 27 3 53 11 58 16 6 6 33 10 62 10 48 0 83 17 67
33 -7 7 -12 7 -53 0z"/>
<path d="M6990 3951 c0 -13 38 -33 53 -28 7 2 -3 11 -20 21 -18 9 -33 12 -33
7z"/>
<path d="M6355 3761 c-36 -7 -69 -30 -78 -53 -10 -28 6 -21 28 12 17 25 26 30
63 30 23 0 42 5 42 10 0 11 -8 11 -55 1z"/>
<path d="M6450 3742 c0 -4 14 -16 31 -26 17 -10 35 -31 41 -47 11 -31 31 -41
22 -11 -14 42 -30 63 -57 77 -35 17 -37 18 -37 7z"/>
<path d="M6338 3708 c-11 -13 -15 -30 -12 -44 8 -31 -4 -64 -20 -58 -20 8 -28
-24 -8 -35 14 -8 15 -12 2 -35 -10 -20 -11 -29 -2 -38 9 -9 17 -6 35 11 l24
22 17 -26 c9 -14 29 -30 44 -36 51 -20 77 49 47 123 -5 13 0 20 19 28 33 12
34 44 1 66 -21 14 -28 14 -41 3 -14 -11 -19 -9 -36 14 -24 33 -47 34 -70 5z"/>
<path d="M6230 3597 c0 -72 46 -154 104 -182 33 -17 116 -20 116 -5 0 6 7 10
15 10 8 0 28 12 45 28 34 29 59 107 41 125 -7 7 -12 1 -15 -17 -4 -14 -8 -37
-11 -51 -4 -17 -23 -37 -53 -56 -38 -24 -55 -29 -85 -26 -65 9 -127 85 -127
157 0 29 -4 40 -15 40 -9 0 -15 -9 -15 -23z"/>
</g>
</svg>
