<?xml version="1.0" standalone="no"?>
<!DOCTYPE svg PUBLIC "-//W3C//DTD SVG 20010904//EN"
 "http://www.w3.org/TR/2001/REC-SVG-20010904/DTD/svg10.dtd">
<svg version="1.0" xmlns="http://www.w3.org/2000/svg"
 width="899.000000pt" height="1212.000000pt" viewBox="0 0 899.000000 1212.000000"
 preserveAspectRatio="xMidYMid meet">
<metadata>
Created by potrace 1.16, written by Peter Selinger 2001-2019
</metadata>
<g transform="translate(0.000000,1212.000000) scale(0.100000,-0.100000)"
fill="#000000" stroke="none">
<path d="M0 6060 l0 -6060 4495 0 4495 0 0 6060 0 6060 -4495 0 -4495 0 0
-6060z m8512 5782 c115 -46 198 -150 217 -272 14 -82 15 -8309 2 -8295 -5 6
-55 93 -111 195 -132 237 -242 414 -337 542 -84 113 -237 276 -318 338 l-52
40 9 58 c6 31 7 129 4 217 -8 238 -46 384 -166 630 -81 166 -171 311 -320 512
-278 375 -391 729 -510 1593 -130 952 -252 1468 -453 1930 -25 58 -57 125 -71
150 -26 46 -33 84 -17 94 5 3 21 41 36 83 58 164 71 185 138 228 l62 40 3 68
3 67 -46 20 c-71 31 -127 27 -164 -11 -17 -17 -31 -37 -31 -45 0 -21 -40 -42
-97 -50 l-53 -7 0 184 c-1 121 -6 206 -15 249 -22 99 -20 115 22 160 90 101
32 240 -100 240 -89 0 -137 -43 -137 -122 0 -59 -11 -69 -130 -128 -82 -40
-93 -43 -103 -29 -7 9 -34 27 -61 41 l-49 25 -102 235 -101 234 28 39 c23 30
28 49 28 93 0 50 -3 58 -38 92 -52 52 -111 62 -178 29 -26 -12 -56 -31 -66
-41 -22 -22 -24 -76 -4 -141 l14 -45 -40 -39 c-22 -21 -69 -77 -105 -125 -36
-49 -68 -88 -72 -88 -3 0 -34 57 -68 128 -78 160 -185 348 -273 476 l-68 99
19 41 c26 56 24 103 -7 164 -36 72 -93 106 -168 100 -64 -5 -109 -34 -136 -88
-23 -44 -26 -126 -9 -175 15 -40 4 -62 -148 -298 -109 -169 -185 -312 -213
-402 -7 -22 -16 -44 -21 -49 -13 -14 -48 23 -88 91 -19 32 -54 79 -79 104
l-44 47 6 78 c6 68 4 83 -12 110 -52 83 -207 86 -255 5 -10 -18 -17 -50 -17
-84 0 -45 5 -61 25 -85 24 -28 24 -32 11 -68 -7 -22 -39 -90 -71 -153 -31 -63
-73 -160 -92 -215 -37 -108 -87 -176 -129 -176 -11 0 -41 15 -65 34 -24 18
-67 45 -95 59 -65 33 -71 41 -86 117 -11 55 -18 68 -47 87 -24 17 -48 23 -85
23 -68 0 -111 -27 -137 -85 -28 -63 -18 -109 34 -159 l40 -38 -21 -177 c-11
-97 -20 -208 -19 -248 1 -81 -16 -113 -62 -113 -34 0 -43 7 -75 58 -34 54 -79
82 -133 82 -140 0 -163 -218 -28 -264 38 -13 42 -19 83 -118 52 -123 51 -127
-14 -295 -82 -212 -139 -461 -225 -978 -108 -652 -142 -789 -254 -1020 -71
-147 -156 -278 -331 -510 -295 -393 -394 -559 -474 -795 -98 -293 -95 -689 8
-982 l37 -107 -16 -58 c-9 -32 -37 -116 -62 -188 -43 -124 -46 -137 -54 -287
l-9 -158 -155 -157 c-233 -237 -352 -417 -593 -893 -49 -96 -92 -179 -97 -184
-5 -6 -9 1807 -9 4211 0 4175 0 4222 20 4285 18 58 63 126 110 166 33 28 112
63 162 71 30 5 1750 8 3983 7 l3930 -1 57 -23z m-3954 -78 c26 -17 52 -70 52
-105 0 -12 -12 -43 -26 -69 l-26 -48 85 -123 c145 -213 260 -424 327 -598 19
-52 40 -96 46 -98 6 -2 39 38 74 89 70 104 147 203 179 232 24 22 26 46 7 100
-26 76 12 136 88 136 83 0 126 -47 107 -118 -6 -21 -22 -49 -36 -62 -32 -30
-31 -38 6 -118 119 -255 239 -546 239 -581 0 -27 10 -51 22 -51 5 0 45 31 88
68 43 37 102 81 132 96 98 53 118 72 118 116 0 80 39 130 103 130 82 0 128
-73 93 -146 -9 -19 -27 -40 -41 -46 -14 -6 -25 -16 -26 -22 -3 -43 4 -135 17
-211 16 -90 21 -324 8 -391 -8 -42 -9 -42 117 -8 l98 27 23 46 c21 43 26 46
66 49 59 4 92 -18 92 -62 0 -46 -31 -81 -83 -95 -43 -10 -44 -11 -62 -76 -20
-75 -80 -204 -127 -273 -17 -26 -54 -69 -82 -95 l-51 -48 54 -48 c65 -57 65
-81 1 -81 -54 0 -157 35 -332 114 -296 132 -636 211 -1048 244 -179 14 -673 7
-837 -11 -411 -46 -761 -134 -1013 -254 -63 -30 -143 -66 -178 -79 -74 -28
-140 -32 -149 -8 -8 21 23 79 59 110 l29 23 -71 68 c-81 76 -99 108 -160 281
-24 68 -48 125 -54 127 -6 2 -24 6 -40 10 -38 8 -86 57 -86 88 0 39 30 68 77
74 55 7 88 -14 104 -67 9 -31 19 -42 43 -49 31 -10 170 -41 185 -41 4 0 4 28
-1 63 -11 72 -3 240 17 412 8 66 15 127 15 136 0 8 -20 36 -45 61 -48 49 -54
72 -30 118 20 38 53 60 90 60 51 0 99 -66 97 -131 -2 -33 2 -38 31 -50 52 -21
143 -86 234 -167 64 -57 87 -72 93 -62 5 8 21 59 36 115 32 120 69 215 127
332 24 49 61 129 81 179 l38 91 -26 37 c-61 91 -40 166 50 179 93 14 159 -96
98 -164 -9 -11 -14 -26 -10 -35 4 -9 70 -97 148 -195 l142 -178 38 106 c51
147 145 332 218 433 34 47 77 115 96 152 20 36 52 85 72 108 31 37 33 43 19
52 -43 24 -59 105 -31 159 30 59 133 82 192 43z m201 -2294 c40 -135 100 -254
213 -426 76 -116 113 -160 222 -266 72 -70 140 -128 150 -130 11 -2 21 -8 23
-15 3 -7 -13 -5 -44 7 -47 18 -52 18 -193 -1 -189 -25 -206 -31 -254 -81 -23
-24 -49 -47 -59 -53 -12 -7 -19 -28 -24 -74 -5 -57 -4 -64 10 -58 38 14 209
58 307 77 76 16 133 21 205 19 55 -2 146 -3 203 -2 56 0 102 -3 102 -7 0 -4
17 -11 38 -15 20 -4 72 -20 116 -37 127 -49 187 -127 220 -290 20 -95 20 -158
2 -313 -8 -66 -17 -167 -20 -225 -10 -175 -17 -233 -33 -273 -9 -21 -13 -41
-9 -44 12 -12 23 12 40 92 84 383 129 506 222 602 46 49 61 53 73 21 25 -68
26 -66 -40 -131 -76 -76 -134 -188 -96 -187 6 1 37 37 67 82 50 75 103 128
114 117 3 -2 11 -26 17 -52 18 -67 1 -154 -53 -269 -67 -140 -132 -233 -235
-333 -51 -50 -99 -106 -107 -125 -8 -20 -26 -86 -40 -148 -47 -210 -163 -461
-298 -644 -107 -146 -353 -375 -576 -536 -99 -71 -254 -150 -357 -182 -88 -27
-263 -38 -359 -21 -451 79 -909 455 -1183 971 -111 210 -197 465 -234 693 -7
42 -17 77 -22 77 -5 0 -7 -56 -5 -124 l3 -125 -48 27 c-76 41 -123 99 -137
168 -14 73 -36 145 -90 294 -50 138 -59 214 -36 292 18 63 71 128 104 128 13
0 42 -24 78 -65 32 -36 65 -67 74 -70 15 -5 18 -27 24 -156 4 -82 10 -157 13
-165 19 -50 32 34 33 216 1 229 64 492 165 680 18 34 24 40 25 23 0 -33 12
-35 79 -10 53 19 64 20 82 8 19 -11 23 -11 30 2 5 8 44 30 86 48 75 33 83 34
208 34 148 0 253 -20 459 -86 68 -21 136 -39 151 -39 27 0 27 1 23 45 -3 25
-18 70 -32 100 -24 48 -30 54 -51 49 -15 -4 -61 7 -122 29 -58 20 -128 37
-172 41 -83 7 -121 15 -121 25 0 3 80 51 178 106 452 254 616 402 774 697 40
75 76 131 79 125 4 -7 21 -59 38 -117z m-2564 -2253 c-20 -242 -68 -451 -153
-667 -72 -181 -250 -518 -416 -785 -44 -71 -97 -164 -118 -205 -21 -41 -47
-84 -58 -95 -10 -11 -26 -37 -35 -58 -28 -69 -40 -42 -43 103 -3 158 14 270
63 418 53 159 122 282 331 593 267 397 341 530 394 706 12 40 26 70 32 67 5
-3 7 -36 3 -77z m3148 -1474 c4 -151 11 -234 26 -303 75 -357 248 -581 566
-735 89 -42 245 -97 318 -110 22 -4 37 -13 37 -21 0 -48 -188 -339 -318 -494
-104 -124 -254 -269 -260 -252 -2 7 4 19 13 26 15 11 16 15 2 47 -20 47 -54
76 -108 90 -46 12 -83 5 -181 -36 -15 -6 -18 -2 -18 20 0 32 -46 79 -93 94
-27 9 -44 8 -92 -9 -66 -23 -244 -115 -320 -166 -27 -19 -58 -34 -67 -34 -10
0 -52 34 -95 76 -43 42 -107 99 -142 126 -65 49 -295 170 -443 234 -44 19 -93
43 -109 55 -42 29 -95 36 -119 14 -28 -26 -45 -82 -30 -100 21 -26 -9 -18 -61
16 -46 29 -132 59 -173 59 -11 0 -37 -19 -59 -42 -38 -40 -39 -43 -33 -95 6
-53 6 -54 -16 -42 -13 6 -32 23 -43 36 -25 30 -76 33 -123 9 -49 -25 -55 -46
-43 -139 12 -84 63 -208 102 -243 20 -18 25 -50 10 -73 -13 -20 -59 0 -102 45
-18 19 -39 34 -46 34 -20 0 -396 373 -457 454 -64 85 -171 276 -159 286 4 4
44 19 88 35 271 93 526 285 632 475 80 142 123 341 130 603 3 97 7 177 8 177
2 0 70 -42 151 -94 233 -147 384 -217 538 -251 61 -14 109 -16 220 -13 129 4
150 8 244 40 136 47 230 106 436 270 94 76 174 138 177 138 4 0 9 -93 12 -207z
m1392 -1177 c83 -19 211 -53 285 -76 74 -23 145 -44 157 -47 21 -5 21 -7 -23
-87 -25 -44 -83 -158 -129 -252 -98 -202 -240 -457 -337 -607 -96 -147 -160
-195 -272 -204 -85 -8 -100 -23 -92 -95 3 -32 9 -85 12 -118 6 -52 3 -66 -20
-114 -29 -60 -72 -93 -130 -103 -31 -5 -36 -2 -50 25 -42 80 -49 139 -57 472
-8 300 -20 433 -42 468 -11 16 -32 15 -94 -3 -64 -19 -136 -82 -170 -149 -14
-28 -30 -54 -36 -58 -6 -4 -24 4 -40 18 -16 13 -38 24 -49 24 -14 0 6 21 64
66 144 114 324 318 444 504 65 101 190 319 205 359 10 24 10 24 117 18 64 -4
167 -20 257 -41z m-4121 1 c11 -17 28 -48 38 -67 9 -19 26 -46 37 -60 10 -14
45 -65 76 -115 59 -93 189 -253 212 -262 7 -3 13 -11 13 -19 0 -8 5 -14 11
-14 7 0 58 -44 114 -98 56 -54 147 -132 203 -172 56 -41 102 -78 102 -82 0 -4
-14 -15 -31 -24 -55 -28 -79 -62 -79 -110 0 -24 5 -44 10 -44 33 0 -18 -105
-104 -215 -109 -140 -155 -212 -202 -324 l-48 -113 -91 4 c-118 5 -179 32
-215 98 -24 43 -25 52 -23 186 l2 141 -73 12 c-153 25 -208 72 -336 286 -155
262 -446 825 -437 847 6 18 254 75 697 161 105 20 103 20 124 -16z m-714 -487
c217 -427 363 -664 476 -772 49 -47 80 -58 158 -58 l63 0 -8 -47 c-12 -76 -10
-186 5 -236 30 -99 81 -137 216 -158 41 -6 85 -15 98 -20 l23 -9 -19 -28 c-51
-71 -95 -181 -122 -301 l-28 -126 -70 -66 c-62 -60 -353 -305 -458 -386 -23
-18 -74 -51 -115 -74 -93 -53 -459 -307 -459 -319 0 -5 -9 -14 -20 -20 -28
-15 -45 16 -77 141 -24 93 -27 122 -27 269 1 255 56 560 126 697 17 34 29 65
26 68 -20 20 -41 -23 -99 -198 -35 -106 -64 -194 -66 -196 -7 -10 -12 10 -23
91 -7 48 -25 138 -41 200 -16 62 -36 142 -44 178 -8 35 -22 71 -31 80 -15 14
-15 10 -9 -40 3 -30 13 -73 21 -95 17 -50 71 -328 88 -460 7 -55 14 -184 15
-287 2 -190 18 -333 47 -410 31 -85 32 -81 -48 -131 -153 -95 -307 -168 -744
-351 -272 -114 -414 -178 -456 -207 -14 -11 -31 -19 -37 -19 -8 0 -11 265 -11
940 l0 940 124 272 c276 608 411 851 590 1060 163 189 398 324 701 401 64 16
59 24 235 -323z m5529 273 c271 -84 425 -167 565 -302 193 -187 357 -444 617
-966 l129 -259 0 -1118 c0 -615 -2 -1118 -4 -1118 -3 0 -78 35 -168 78 -223
108 -363 193 -896 550 -155 104 -211 146 -204 155 30 37 42 124 42 306 0 178
15 324 41 411 6 19 39 96 74 170 35 74 67 149 71 165 7 27 6 29 -9 16 -30 -24
-136 -253 -156 -337 -11 -44 -26 -96 -35 -115 -15 -32 -16 -14 -12 256 4 298
17 444 57 643 23 116 63 262 85 309 17 38 18 56 2 51 -7 -3 -16 -18 -20 -34
-3 -16 -23 -71 -43 -123 -81 -208 -131 -470 -141 -741 -5 -118 -1 -219 16
-423 25 -309 25 -496 -2 -523 -15 -15 -19 -14 -60 13 -23 17 -84 56 -135 87
-50 31 -129 86 -175 122 -114 91 -119 93 -189 49 -31 -19 -66 -35 -76 -35 -15
0 -249 190 -451 365 -2 2 -10 57 -18 122 -16 132 -74 376 -133 561 l-39 122
30 0 c37 0 95 30 130 67 62 64 81 156 64 295 l-9 66 59 7 c79 9 155 47 202
100 103 117 262 386 438 745 80 162 151 301 156 308 12 14 3 16 197 -45z
m-3392 -9 c50 -20 90 -70 76 -93 -21 -34 -123 -21 -178 23 l-27 22 27 32 c30
36 48 39 102 16z m-279 -69 c25 -34 32 -54 32 -88 0 -38 -3 -46 -22 -50 -12
-4 -34 0 -48 7 -14 8 -42 23 -64 34 -62 33 -70 52 -41 95 27 40 37 45 80 46
24 0 36 -8 63 -44z m317 -230 c291 -232 321 -261 500 -485 68 -85 146 -172
174 -194 28 -21 54 -49 57 -62 5 -20 12 -23 54 -22 61 2 57 13 -19 62 -75 47
-151 127 -278 291 -128 166 -174 211 -365 357 -151 115 -248 206 -248 233 0
11 9 10 47 -1 75 -23 108 -19 136 17 l24 31 120 -61 c265 -135 395 -241 752
-610 235 -244 329 -330 576 -526 83 -65 178 -145 213 -177 58 -54 92 -72 92
-48 0 17 -56 74 -129 130 l-71 55 0 120 c0 189 29 351 84 467 26 55 99 148
116 148 5 0 12 -17 15 -37 9 -57 36 -113 62 -130 22 -15 26 -14 48 7 l25 23 0
-39 c0 -21 -7 -82 -15 -134 -35 -228 -10 -404 114 -792 73 -226 98 -333 121
-502 20 -156 41 -236 66 -256 12 -10 14 -8 14 14 0 23 25 4 233 -173 127 -109
249 -217 271 -239 l38 -40 -37 -114 c-52 -157 -159 -426 -210 -528 -57 -114
-181 -300 -199 -300 -8 0 -60 40 -115 89 -55 49 -113 97 -131 106 -17 9 -61
46 -98 84 -86 87 -418 352 -500 399 -40 23 -65 45 -68 59 -6 22 -10 23 -113
23 -96 0 -112 3 -166 29 -74 35 -154 94 -279 205 -53 47 -141 119 -195 160
-257 195 -356 316 -585 715 -188 327 -232 386 -535 711 -94 101 -197 217 -229
257 -31 40 -63 73 -69 73 -7 0 -13 7 -13 16 0 12 7 10 31 -10 38 -32 40 -32
70 2 42 47 59 76 59 100 l0 23 29 -20 c61 -43 283 -245 432 -392 100 -99 187
-196 243 -272 85 -115 103 -133 127 -125 28 9 -315 470 -504 678 -22 25 -63
70 -91 100 -27 30 -98 105 -158 166 -105 108 -110 115 -159 229 -28 64 -48
119 -45 122 3 3 8 -2 12 -11 3 -9 16 -16 28 -16 l21 1 -20 17 c-11 9 -30 31
-42 48 -21 29 -21 32 -6 55 53 76 125 63 164 -28 43 -100 14 -141 -75 -107
-30 12 -17 -23 14 -36 23 -10 36 -10 59 -1 27 12 58 57 46 69 -2 3 0 11 7 19
9 12 22 2 72 -50 34 -35 122 -118 196 -184 256 -228 521 -520 600 -662 45 -81
78 -123 91 -116 4 3 5 14 2 24 -4 15 1 20 24 23 l28 3 -40 22 c-47 24 -60 39
-104 112 -36 59 -183 240 -283 347 -35 37 -124 121 -198 187 -207 184 -360
348 -360 385 0 16 3 15 42 -7 43 -26 101 -36 126 -22 26 14 37 59 19 80 -8 9
-17 24 -21 34 -14 42 9 35 68 -20 34 -32 129 -112 211 -178z m1307 -22 c15
-15 28 -35 28 -44 0 -44 -102 -119 -163 -119 -52 0 -45 78 14 160 28 38 34 42
62 36 17 -4 44 -18 59 -33z m-167 -31 c-37 -57 -42 -98 -16 -126 12 -13 36
-27 54 -30 17 -4 27 -10 21 -15 -61 -54 -146 -117 -180 -134 -38 -18 -46 -19
-69 -7 -35 19 -147 138 -143 151 3 9 342 198 356 199 1 0 -9 -17 -23 -38z
m444 -32 c65 -33 69 -78 11 -127 -42 -36 -50 -53 -25 -53 8 0 15 -4 15 -10 0
-5 -9 -10 -19 -10 -11 0 -57 -41 -111 -100 -51 -55 -98 -100 -105 -100 -6 0
-20 -9 -30 -20 -15 -16 -16 -23 -6 -33 10 -9 17 -7 35 14 13 15 46 34 75 44
29 9 55 23 58 31 5 14 33 20 33 7 0 -3 -7 -14 -16 -24 -10 -11 -12 -19 -5 -23
6 -4 21 10 34 32 23 35 27 38 65 34 49 -5 57 -20 47 -92 -6 -45 -9 -49 -49
-64 -70 -27 -93 -19 -106 35 l-8 34 -1 -32 c-1 -41 22 -63 65 -63 19 0 34 -3
34 -6 0 -13 -115 -157 -137 -171 -23 -15 -27 -15 -58 1 -18 10 -61 46 -96 82
l-63 64 29 30 c37 38 26 49 -20 20 l-35 -22 -43 38 c-53 48 -147 147 -147 155
0 9 330 266 394 306 36 24 53 30 61 22 7 -8 6 -13 -3 -16 -18 -7 -62 -97 -62
-127 0 -13 9 -34 19 -47 16 -20 28 -24 66 -22 26 1 52 6 58 12 18 18 -1 24
-33 11 -23 -10 -37 -10 -55 -2 -40 18 -41 54 -5 119 57 101 70 109 139 73z
m369 -241 c2 -66 -1 -89 -12 -98 -12 -10 -18 -8 -31 12 -21 32 -35 84 -35 128
0 44 6 51 45 47 l30 -3 3 -86z m-2451 -40 c98 -86 143 -141 143 -174 0 -62
-18 -57 -96 24 -58 61 -116 106 -151 117 -7 2 31 84 38 84 5 0 35 -23 66 -51z
m-137 -57 c0 -10 11 -28 25 -40 30 -27 32 -51 4 -86 -24 -31 -72 -35 -108 -10
-20 15 -23 23 -19 65 6 58 30 89 70 89 20 0 28 -5 28 -18z m408 -239 c75 -86
108 -131 100 -138 -6 -6 -178 135 -193 159 -16 23 -12 80 5 74 4 -2 44 -44 88
-95z m-468 -4 c0 -6 66 -81 147 -167 357 -382 536 -621 691 -922 45 -88 92
-160 158 -243 52 -64 97 -124 100 -131 12 -32 -382 -292 -548 -362 -91 -38
-139 -41 -236 -11 -46 14 -84 21 -88 16 -3 -5 2 -12 10 -15 9 -3 16 -11 15
-18 -1 -6 -229 -235 -508 -510 l-506 -498 -38 43 c-96 110 -274 408 -365 614
-79 177 -142 383 -142 460 1 71 -2 68 337 323 239 180 294 229 385 342 71 88
81 108 49 90 -11 -5 -24 -10 -30 -10 -22 0 65 214 169 417 124 241 144 275
283 465 88 122 117 151 117 117z m2295 -111 c-11 -198 -7 -192 -90 -115 l-69
64 31 32 c18 18 51 59 74 91 23 33 46 60 51 60 6 0 7 -51 3 -132z m-1042
-1512 c79 -85 110 -110 169 -141 83 -42 128 -80 128 -108 0 -11 -32 -65 -72
-121 -289 -409 -352 -502 -363 -534 -6 -21 -27 6 -157 205 -83 125 -169 251
-192 278 -76 92 -126 164 -126 183 0 24 9 31 91 75 67 35 278 173 358 234 24
18 49 33 56 33 6 0 55 -47 108 -104z m-2608 -123 c13 -74 74 -300 105 -383 39
-108 141 -315 219 -447 112 -188 255 -359 381 -455 l35 -27 -30 -31 -29 -30
-752 0 -753 0 -7 23 c-15 47 -8 478 10 602 34 238 56 278 202 360 109 61 188
115 419 288 99 75 183 136 187 136 4 1 10 -16 13 -36z m5087 -94 c66 -51 168
-121 227 -157 198 -121 221 -139 247 -196 34 -75 47 -202 35 -344 -14 -152
-36 -278 -66 -375 -14 -43 -25 -94 -25 -113 0 -18 -5 -34 -11 -34 -5 0 -15
-13 -20 -30 l-11 -30 -521 0 -521 0 -48 47 -47 46 42 27 c98 64 200 206 313
435 75 153 159 391 240 678 21 75 41 137 43 137 2 0 57 -41 123 -91z m-3135
-55 c10 -14 34 -44 53 -68 19 -23 127 -180 239 -349 112 -169 209 -307 216
-307 24 0 49 34 266 360 123 184 227 339 230 343 3 5 46 -24 95 -63 128 -103
195 -133 308 -140 61 -4 103 -12 126 -24 55 -29 207 -147 411 -318 103 -86
201 -165 216 -175 15 -9 39 -27 53 -39 14 -12 42 -37 64 -55 l38 -33 -8 -70
c-4 -39 -8 -95 -8 -124 0 -46 5 -57 35 -90 19 -20 41 -45 48 -55 13 -16 -74
-17 -1783 -17 l-1797 0 26 43 c32 55 32 99 0 208 -13 46 -25 91 -25 99 0 17
717 744 823 835 l67 58 78 -17 c76 -16 80 -16 128 3 66 26 80 25 101 -5z
m3969 -499 c307 -208 388 -257 554 -335 121 -56 217 -107 224 -118 2 -4 -5
-30 -16 -59 -26 -69 -93 -142 -165 -178 l-58 -30 -477 -3 -477 -3 20 68 c145
499 150 542 93 827 -5 24 -4 28 11 23 9 -4 140 -90 291 -192z m-6756 91 c-40
-158 -54 -307 -54 -569 l0 -248 -315 3 -316 3 -56 28 c-69 34 -132 100 -167
175 -20 44 -26 76 -30 151 l-4 96 118 59 c281 141 832 391 842 382 1 -2 -7
-37 -18 -80z"/>
<path d="M4455 11420 c-8 -24 11 -60 31 -60 19 0 28 24 20 55 -8 30 -42 34
-51 5z"/>
<path d="M4388 11382 c-38 -57 -36 -72 6 -72 19 0 37 3 39 8 2 4 -1 29 -7 56
l-11 50 -27 -42z"/>
<path d="M4532 11371 c-7 -21 -12 -43 -12 -50 0 -13 76 -15 84 -2 5 7 -48 91
-57 91 -2 0 -9 -17 -15 -39z"/>
<path d="M4460 11295 c0 -8 9 -15 20 -15 11 0 20 7 20 15 0 8 -9 15 -20 15
-11 0 -20 -7 -20 -15z"/>
<path d="M4365 11284 c-18 -18 -17 -45 2 -51 6 -2 21 5 33 17 17 17 19 24 9
36 -15 18 -24 18 -44 -2z"/>
<path d="M4550 11281 c0 -21 13 -41 26 -41 8 0 14 10 14 25 0 18 -5 25 -20 25
-11 0 -20 -4 -20 -9z"/>
<path d="M4294 11205 c-9 -23 8 -50 32 -50 27 0 24 34 -3 52 -21 14 -23 14
-29 -2z"/>
<path d="M4614 11195 c-4 -9 -2 -21 4 -27 16 -16 47 -5 47 17 0 26 -42 34 -51
10z"/>
<path d="M4428 11193 c-28 -7 -22 -48 7 -61 33 -15 78 -15 93 0 17 17 15 55
-4 62 -17 7 -69 6 -96 -1z"/>
<path d="M4380 11115 c-5 -14 -10 -51 -10 -81 0 -47 2 -54 20 -54 24 0 32 28
28 100 -3 59 -22 77 -38 35z"/>
<path d="M4546 11118 c-3 -13 -6 -36 -6 -53 l0 -30 -18 35 c-18 38 -44 49 -67
30 -30 -25 -9 -180 24 -180 14 0 43 38 37 49 -4 5 -2 12 4 16 5 3 10 16 10 28
0 21 1 21 13 -2 24 -48 37 -37 37 32 0 67 -6 97 -20 97 -4 0 -10 -10 -14 -22z"/>
<path d="M4245 11086 c-19 -29 -10 -56 20 -56 23 0 55 23 55 40 0 44 -50 55
-75 16z"/>
<path d="M4657 11103 c-4 -3 -7 -21 -7 -39 0 -24 5 -34 20 -39 29 -9 60 12 60
40 0 32 -52 60 -73 38z"/>
<path d="M4134 10947 c-36 -74 -65 -153 -84 -228 l-29 -114 79 -172 c91 -197
124 -293 141 -404 12 -77 13 -78 38 -72 53 12 53 14 -3 156 -67 166 -96 290
-96 404 0 154 29 222 101 238 47 11 35 44 -24 72 -70 34 -76 63 -31 155 17 36
17 38 -1 58 -10 11 -22 20 -27 20 -5 0 -34 -51 -64 -113z m46 -124 c0 -8 -12
-13 -30 -13 -24 0 -28 3 -23 18 13 37 26 45 40 26 7 -10 13 -24 13 -31z"/>
<path d="M4733 11028 l-22 -11 21 -30 c12 -16 23 -50 26 -76 5 -51 -9 -71 -63
-88 -24 -8 -30 -15 -30 -39 0 -22 5 -30 22 -32 12 -2 35 -18 52 -37 38 -44 56
-125 47 -225 -11 -130 -73 -343 -132 -453 -14 -26 -23 -54 -21 -61 3 -8 21
-15 40 -18 35 -4 35 -3 42 42 11 75 54 239 82 308 14 36 51 109 82 161 49 83
56 103 55 146 -1 90 -129 417 -165 422 -8 1 -24 -3 -36 -9z m97 -186 c0 -14
-23 -32 -42 -32 -21 0 -23 11 -6 28 13 13 48 16 48 4z"/>
<path d="M3562 10948 c-17 -46 -60 -155 -96 -243 -65 -159 -126 -362 -126
-421 0 -23 20 -59 79 -139 77 -106 131 -223 131 -282 0 -32 35 -30 56 2 15 24
14 28 -34 122 -73 144 -95 218 -90 299 4 63 7 69 41 99 42 36 44 43 20 88 -27
53 -32 95 -18 149 25 96 103 139 154 84 35 -37 63 -138 52 -188 -12 -54 -8
-62 42 -75 52 -14 79 -56 98 -151 13 -69 7 -273 -10 -329 l-10 -33 46 0 c37 0
50 -5 73 -30 61 -66 64 -32 11 122 -66 189 -88 364 -59 487 11 49 11 50 -32
123 -82 139 -271 398 -290 398 -4 0 -21 -37 -38 -82z m133 -114 c37 -52 64
-98 61 -102 -4 -3 -38 5 -76 18 -60 21 -75 23 -102 12 -17 -6 -32 -11 -33 -9
-1 1 10 41 23 90 19 68 28 87 42 87 12 0 43 -35 85 -96z"/>
<path d="M5340 11009 c-12 -13 -39 -51 -61 -84 -22 -33 -71 -98 -110 -145
-127 -153 -124 -143 -125 -375 -1 -221 -4 -237 -74 -423 -22 -58 -40 -107 -40
-109 0 -3 10 -3 22 -1 13 2 29 15 36 31 12 24 18 27 63 27 43 0 50 2 45 18
-15 53 -28 195 -23 266 10 140 42 201 122 229 l40 14 0 84 c0 71 4 92 26 134
23 45 29 50 63 53 64 6 108 -39 122 -125 5 -30 0 -56 -21 -108 l-28 -68 31
-26 c37 -31 62 -86 62 -136 0 -69 -100 -317 -136 -338 -22 -12 -17 -54 8 -71
36 -25 44 -19 57 38 15 69 63 169 135 278 31 48 56 99 56 112 0 44 -31 187
-59 274 -33 100 -171 453 -182 466 -4 4 -17 -2 -29 -15z m55 -173 c18 -42 29
-76 24 -76 -6 0 -48 10 -94 21 l-84 21 32 42 c56 72 70 87 80 77 5 -5 24 -43
42 -85z"/>
<path d="M4242 10958 c-18 -18 -14 -73 7 -92 14 -13 24 -14 45 -7 22 9 26 17
26 49 0 43 -14 62 -45 62 -12 0 -26 -5 -33 -12z"/>
<path d="M4406 10955 c-11 -30 -6 -55 21 -108 l27 -52 7 49 c9 54 1 82 -29
109 -18 16 -20 16 -26 2z"/>
<path d="M4650 10950 c-24 -24 -25 -38 -4 -68 17 -24 62 -30 82 -10 18 18 14
63 -6 81 -25 22 -48 21 -72 -3z"/>
<path d="M4516 10931 c-25 -27 -35 -141 -13 -141 10 0 21 18 31 48 30 92 21
136 -18 93z"/>
<path d="M4329 10829 c-15 -28 3 -69 31 -69 24 0 36 40 20 69 -14 27 -36 27
-51 0z"/>
<path d="M4571 10836 c-29 -35 22 -102 53 -70 20 19 20 34 0 62 -17 25 -36 28
-53 8z"/>
<path d="M4463 10730 c-14 -6 -23 -18 -23 -30 0 -30 28 -80 45 -80 15 0 45 49
45 74 0 15 -26 46 -38 45 -4 0 -17 -4 -29 -9z"/>
<path d="M4606 10691 c-16 -11 -51 -54 -79 -97 l-49 -78 -24 47 c-14 26 -44
67 -68 92 -35 38 -49 45 -80 45 -34 0 -39 -4 -56 -42 -37 -82 -22 -268 37
-432 62 -176 188 -419 205 -395 24 36 91 177 141 300 111 267 134 475 62 553
-29 31 -50 33 -89 7z m65 -102 c19 -19 21 -29 16 -83 -11 -114 -103 -402 -161
-500 -43 -74 -58 -65 -121 67 -82 173 -135 345 -135 444 0 69 7 83 40 83 45 0
150 -114 150 -162 0 -31 -18 -19 -31 20 -12 37 -83 111 -106 112 -13 0 -17
-16 -15 -55 6 -92 13 -138 26 -164 9 -16 16 -48 16 -69 0 -52 20 -69 54 -47
26 17 26 17 26 -9 0 -19 -4 -24 -16 -19 -49 19 -29 -92 27 -148 10 -10 19 -25
19 -33 0 -7 7 -19 15 -26 12 -10 17 -7 27 16 7 16 21 36 30 44 16 13 38 94 38
136 0 27 -29 14 -35 -16 -4 -16 -11 -30 -16 -30 -6 0 -8 8 -5 18 3 9 8 34 12
55 7 43 15 46 37 15 19 -29 33 -17 42 40 6 38 5 42 -14 42 -14 0 -21 -6 -21
-19 0 -11 -4 -23 -10 -26 -13 -8 -13 21 0 45 6 12 6 28 0 47 -8 22 -6 36 7 63
17 32 22 35 56 32 l37 -3 0 55 c0 31 -2 56 -5 56 -23 0 -65 -34 -66 -53 -1
-17 -2 -18 -6 -4 -5 17 -23 24 -23 8 0 -4 -11 -24 -24 -44 -16 -24 -27 -57
-31 -101 -6 -52 -11 -66 -24 -66 -9 0 -21 11 -28 25 -6 14 -7 25 -3 25 5 0 11
9 15 20 13 40 100 172 132 201 40 35 47 35 74 8z m-258 -196 c11 -13 16 -23
10 -23 -6 0 -14 6 -16 13 -11 25 -25 -15 -17 -49 4 -19 4 -34 0 -34 -10 0 -20
36 -20 73 0 15 -9 36 -21 48 -20 20 -20 21 -2 34 16 12 20 10 32 -13 7 -15 23
-37 34 -49z m47 -251 c0 -7 -4 -10 -10 -7 -5 3 -10 16 -10 28 0 18 2 19 10 7
5 -8 10 -21 10 -28z m49 -73 c1 -3 -10 -4 -24 -1 -30 5 -31 10 -7 28 14 10 18
10 24 -4 4 -9 7 -20 7 -23z"/>
<path d="M4608 10414 c-32 -17 -40 -67 -12 -78 22 -8 23 -7 39 48 15 50 13 52
-27 30z"/>
<path d="M3576 10682 c-10 -17 7 -52 25 -52 14 0 19 7 19 30 0 23 -5 30 -19
30 -11 0 -22 -4 -25 -8z"/>
<path d="M5340 10660 c0 -25 4 -31 18 -28 11 2 17 12 17 28 0 16 -6 26 -17 28
-14 3 -18 -3 -18 -28z"/>
<path d="M5281 10639 c-13 -38 -15 -119 -2 -119 5 0 16 10 24 23 16 22 16 22
16 -10 1 -18 5 -33 11 -33 15 0 30 35 30 69 0 24 -4 31 -20 31 -16 0 -20 7
-20 35 0 45 -24 47 -39 4z"/>
<path d="M3634 10630 c-5 -20 -12 -30 -25 -30 -15 0 -17 -5 -12 -32 3 -18 11
-44 16 -58 l11 -25 3 25 c8 49 13 56 26 30 7 -14 20 -26 30 -28 14 -3 17 4 17
43 0 83 -53 143 -66 75z"/>
<path d="M3543 10580 c3 -38 12 -69 22 -79 15 -15 16 -10 13 59 -3 64 -6 75
-22 78 -17 4 -19 -1 -13 -58z"/>
<path d="M5391 10626 c-7 -8 -15 -42 -18 -76 -5 -51 -3 -60 10 -60 23 0 40 38
40 88 0 50 -14 70 -32 48z"/>
<path d="M2855 10383 c-11 -265 11 -500 52 -545 9 -10 41 -32 70 -49 31 -18
71 -53 95 -85 24 -30 46 -54 50 -54 5 0 8 11 8 25 0 18 5 25 20 25 29 0 25 33
-9 72 -31 36 -59 111 -66 177 -4 45 -10 55 -59 109 -47 50 -72 38 -56 -29 12
-54 20 -68 86 -169 60 -90 92 -162 65 -146 -6 4 -11 12 -11 17 0 6 -23 36 -51
67 -27 32 -65 86 -82 122 -29 58 -32 74 -32 153 0 53 -4 91 -11 95 -35 23 -48
137 -18 166 30 30 114 8 114 -30 0 -19 -29 -18 -51 2 -22 19 -56 11 -64 -16
-10 -30 3 -41 39 -35 23 5 36 2 45 -9 20 -24 28 -20 35 17 l7 32 14 -25 c8
-14 14 -35 15 -47 0 -15 5 -20 18 -16 11 2 32 -6 49 -21 39 -32 105 -212 122
-331 13 -86 19 -99 47 -93 25 5 22 26 -12 118 -25 67 -28 92 -33 239 l-6 164
-125 91 c-69 50 -155 113 -191 139 l-67 47 -7 -177z m128 24 c53 -34 56 -43 8
-26 -18 6 -50 9 -72 6 l-39 -5 0 45 0 45 28 -18 c15 -10 48 -31 75 -47z"/>
<path d="M6041 10521 c-20 -22 -74 -63 -121 -93 -196 -122 -216 -144 -210
-228 12 -169 -9 -322 -51 -380 -26 -34 -19 -60 16 -60 14 0 25 1 25 3 0 1 11
58 25 127 26 136 67 262 86 269 8 2 10 -2 4 -15 -23 -57 -45 -146 -51 -208 -4
-39 -13 -83 -20 -98 -16 -31 -19 -94 -5 -103 17 -10 31 31 31 89 0 30 5 58 11
62 9 5 10 -6 7 -40 -5 -39 -3 -46 9 -42 8 3 16 6 19 6 10 0 34 63 34 90 0 33
-2 35 -31 20 -31 -17 -24 12 12 46 43 40 59 82 59 155 l0 61 -36 -7 c-28 -5
-35 -3 -32 7 3 7 22 15 44 18 36 5 39 8 46 45 5 22 19 53 32 70 19 23 31 29
61 28 68 -2 73 -18 41 -126 -19 -66 -26 -105 -22 -128 6 -27 5 -30 -4 -16 -15
24 -33 21 -70 -9 -42 -36 -60 -75 -71 -151 -8 -55 -16 -72 -48 -109 -38 -44
-56 -89 -40 -100 15 -9 28 5 54 57 14 27 32 49 40 49 9 0 40 48 75 118 56 107
60 113 55 72 -8 -65 -59 -167 -89 -181 -14 -7 -28 -23 -31 -39 -3 -15 -21 -42
-40 -60 -34 -33 -44 -63 -26 -74 5 -3 26 17 47 45 22 27 69 71 105 96 37 25
72 56 77 69 11 23 36 150 46 229 10 84 18 384 12 428 -9 59 -26 61 -75 8z m29
-90 l0 -48 -47 1 c-27 1 -59 -3 -72 -8 -17 -6 -22 -5 -16 4 7 11 123 100 131
100 2 0 4 -22 4 -49z"/>
<path d="M5281 10463 c1 -48 13 -81 23 -65 4 7 5 12 1 12 -3 0 -1 9 5 21 14
26 5 69 -15 69 -11 0 -15 -11 -14 -37z"/>
<path d="M3635 10480 c-4 -6 -15 -8 -25 -5 -23 7 -34 -19 -19 -47 8 -15 17
-18 35 -14 19 5 24 3 24 -14 0 -11 4 -20 9 -20 13 0 21 27 21 71 0 32 -3 39
-19 39 -11 0 -23 -5 -26 -10z"/>
<path d="M5340 10461 c0 -11 -4 -23 -10 -26 -15 -9 -12 -25 5 -25 16 0 35 30
35 54 0 9 -7 16 -15 16 -8 0 -15 -9 -15 -19z"/>
<path d="M3725 10408 c-27 -15 -35 -28 -35 -59 0 -29 14 -45 44 -50 57 -11 84
-177 47 -283 -24 -69 -27 -124 -7 -152 14 -18 16 -17 32 21 19 46 32 137 41
281 10 182 -43 287 -122 242z"/>
<path d="M5155 10384 c-30 -33 -45 -102 -45 -212 1 -116 38 -322 59 -322 4 0
16 16 26 34 18 33 18 37 2 89 -19 60 -24 255 -7 287 5 10 25 27 45 39 29 17
35 26 35 54 0 42 -15 57 -57 57 -24 0 -41 -8 -58 -26z"/>
<path d="M4926 10353 c-75 -115 -158 -443 -112 -443 22 0 85 152 111 270 15
65 34 210 28 210 -1 0 -14 -17 -27 -37z"/>
<path d="M3541 10354 c-17 -21 -21 -41 -21 -94 0 -108 48 -233 139 -360 l46
-65 3 33 c2 20 -5 49 -16 70 -79 148 -101 196 -107 240 -8 62 9 105 44 110 20
3 22 8 17 34 -8 43 -24 58 -56 58 -19 0 -36 -9 -49 -26z"/>
<path d="M5332 10364 c-27 -19 -29 -60 -2 -74 25 -13 44 -82 35 -129 -10 -51
-61 -172 -96 -225 -31 -47 -36 -91 -9 -91 22 0 95 126 140 241 71 182 64 294
-18 294 -15 0 -38 -7 -50 -16z"/>
<path d="M4025 10293 c10 -118 33 -219 67 -295 32 -72 58 -89 58 -38 0 75
-102 410 -126 410 -3 0 -3 -35 1 -77z"/>
<path d="M5975 10298 c-39 -22 -48 -58 -14 -58 13 0 23 8 26 20 4 16 8 18 19
9 20 -17 43 -4 37 20 -6 23 -36 27 -68 9z"/>
<path d="M3664 10266 c-19 -15 -19 -15 3 -37 12 -12 28 -19 36 -16 20 8 28 55
10 61 -21 9 -27 8 -49 -8z"/>
<path d="M5240 10256 c0 -13 6 -31 14 -39 9 -9 11 -19 5 -28 -5 -8 -9 -30 -9
-49 l0 -35 19 24 c13 17 25 22 40 18 19 -5 21 -1 21 45 0 43 -2 49 -14 39 -12
-10 -15 -7 -18 16 -2 22 -9 29 -30 31 -24 3 -28 0 -28 -22z"/>
<path d="M3735 10240 c-3 -5 -3 -27 1 -49 7 -45 34 -58 34 -17 0 13 2 30 5 38
6 15 -31 42 -40 28z"/>
<path d="M5196 10228 c-3 -13 -6 -36 -6 -51 0 -22 4 -28 18 -25 23 4 32 98 9
98 -8 0 -17 -10 -21 -22z"/>
<path d="M2930 10206 c0 -26 4 -36 16 -36 11 0 14 8 12 32 -4 46 -28 49 -28 4z"/>
<path d="M5999 10214 c-11 -30 -7 -39 16 -31 17 7 21 57 5 57 -6 0 -15 -12
-21 -26z"/>
<path d="M3622 10188 c2 -30 7 -43 18 -43 24 0 21 79 -3 83 -16 3 -18 -2 -15
-40z"/>
<path d="M2990 10184 c-13 -33 -13 -47 1 -39 5 4 19 -1 30 -11 19 -17 19 -16
19 29 0 41 -3 47 -20 47 -13 0 -24 -10 -30 -26z"/>
<path d="M5930 10164 c0 -39 2 -45 14 -35 11 9 15 9 19 -1 4 -10 8 -10 16 2
17 24 13 37 -19 60 l-30 21 0 -47z"/>
<path d="M3687 10193 c-3 -5 -3 -20 -1 -35 2 -22 -2 -28 -17 -28 -30 0 -24
-48 14 -122 32 -63 60 -81 65 -43 3 27 -20 70 -38 70 -8 0 -17 11 -20 25 -8
29 -2 52 11 44 5 -3 9 15 9 40 0 41 -12 67 -23 49z"/>
<path d="M3080 10095 c0 -72 13 -106 55 -145 38 -35 55 -72 55 -120 0 -48 25
-114 40 -105 16 10 12 42 -25 189 -19 77 -35 148 -35 158 0 32 -43 88 -67 88
-22 0 -23 -4 -23 -65z"/>
<path d="M3748 10123 c-19 -5 -23 -37 -12 -81 10 -35 28 -20 35 29 7 48 3 58
-23 52z"/>
<path d="M5190 10106 c0 -35 12 -86 20 -86 10 0 30 48 30 74 0 22 -16 36 -41
36 -5 0 -9 -11 -9 -24z"/>
<path d="M5583 10092 c-67 -91 -127 -293 -109 -366 28 -110 152 195 144 353
l-3 56 -32 -43z"/>
<path d="M3333 10104 c-31 -80 107 -451 151 -407 11 11 6 90 -9 162 -16 78
-102 261 -123 261 -7 0 -15 -7 -19 -16z"/>
<path d="M5276 10104 c-3 -9 -6 -22 -6 -31 0 -8 -11 -28 -25 -45 -29 -35 -34
-81 -8 -76 10 2 20 16 24 34 3 18 15 45 26 60 29 43 34 62 17 68 -21 8 -21 8
-28 -10z"/>
<path d="M4272 9918 c-18 -18 -15 -63 6 -80 30 -27 62 -39 83 -33 17 6 20 13
15 37 -13 68 -71 109 -104 76z"/>
<path d="M4606 9908 c-9 -12 -16 -39 -16 -60 0 -36 1 -38 34 -38 41 0 86 33
86 64 0 52 -75 76 -104 34z"/>
<path d="M3100 9896 c0 -26 38 -87 59 -94 20 -7 8 73 -15 99 -23 26 -44 24
-44 -5z"/>
<path d="M2566 9858 c13 -91 70 -187 197 -331 55 -63 63 -68 91 -63 74 15 97
62 51 106 -15 14 -37 60 -56 118 -18 53 -42 106 -54 117 -11 12 -64 37 -116
54 -52 18 -100 35 -107 38 -9 4 -11 -6 -6 -39z"/>
<path d="M3866 9884 c-35 -35 -5 -114 43 -114 40 0 69 88 39 118 -17 17 -64
15 -82 -4z"/>
<path d="M5010 9880 c-24 -45 21 -126 58 -104 55 35 45 116 -15 122 -24 2 -34
-2 -43 -18z"/>
<path d="M6295 9866 c-142 -58 -137 -53 -179 -164 -20 -55 -50 -115 -66 -133
-41 -48 -40 -85 5 -106 32 -15 37 -15 75 2 23 10 58 39 79 64 82 98 201 305
201 349 0 30 -18 28 -115 -12z"/>
<path d="M4007 9843 c-4 -3 -7 -15 -7 -25 0 -13 7 -18 25 -18 20 0 25 5 25 25
0 18 -5 25 -18 25 -10 0 -22 -3 -25 -7z"/>
<path d="M4912 9838 c-21 -21 -13 -38 17 -38 28 0 47 22 35 41 -8 13 -38 11
-52 -3z"/>
<path d="M3598 9819 c-36 -21 -9 -89 35 -89 21 0 57 35 57 54 0 37 -54 58 -92
35z"/>
<path d="M5290 9810 c-18 -34 -9 -74 18 -78 46 -7 81 55 50 86 -19 19 -56 14
-68 -8z"/>
<path d="M4865 9800 c-3 -5 1 -10 9 -10 9 0 16 5 16 10 0 6 -4 10 -9 10 -6 0
-13 -4 -16 -10z"/>
<path d="M5122 9778 c-17 -17 -15 -38 3 -38 16 0 38 34 28 44 -9 9 -18 7 -31
-6z"/>
<path d="M5224 9749 c-9 -15 12 -33 30 -26 9 4 16 13 16 22 0 17 -35 21 -46 4z"/>
<path d="M5387 9733 c-10 -10 -8 -53 2 -53 10 0 21 24 21 46 0 15 -12 19 -23
7z"/>
<path d="M2930 9717 c0 -16 31 -108 50 -149 14 -30 38 -35 71 -18 33 18 22 49
-43 116 -62 65 -78 75 -78 51z"/>
<path d="M3278 9704 c-11 -23 -10 -28 7 -40 31 -23 50 -13 53 29 3 34 1 37
-23 37 -18 0 -29 -8 -37 -26z"/>
<path d="M5614 9715 c-8 -21 22 -65 45 -65 24 0 33 23 21 55 -11 29 -57 35
-66 10z"/>
<path d="M5959 9673 c-50 -53 -79 -93 -79 -109 0 -7 9 -18 21 -24 40 -22 98
44 114 133 10 49 -10 49 -56 0z"/>
<path d="M5562 9663 c5 -26 38 -29 38 -4 0 15 -6 21 -21 21 -14 0 -19 -5 -17
-17z"/>
<path d="M3520 8256 c-51 -14 -164 -68 -200 -97 l-25 -19 35 6 c19 3 79 26
132 51 l97 46 140 -6 c93 -4 149 -11 168 -21 15 -8 68 -46 118 -85 49 -39 96
-71 102 -71 50 0 -56 98 -162 150 -116 57 -292 77 -405 46z"/>
<path d="M5150 8245 c-75 -20 -101 -32 -122 -55 -48 -52 -31 -53 39 -3 l67 48
161 3 160 3 75 -43 c94 -54 130 -70 130 -59 0 19 -83 79 -138 101 -89 35 -248
37 -372 5z"/>
<path d="M4679 8223 c-33 -38 -19 -397 14 -364 8 8 8 33 -1 94 -10 68 -9 97 3
167 17 98 18 120 6 120 -5 0 -15 -7 -22 -17z"/>
<path d="M4254 8210 c-21 -21 41 -265 67 -265 17 0 15 42 -8 135 -23 94 -46
143 -59 130z"/>
<path d="M3488 8157 c-54 -17 -98 -35 -98 -39 0 -13 33 -9 60 7 43 25 49 20
47 -46 -2 -68 4 -66 -100 -36 -42 11 -46 15 -33 26 28 24 17 30 -26 15 -23 -8
-56 -13 -74 -12 -30 2 -54 -7 -43 -16 6 -5 323 -73 404 -86 155 -26 440 -3
452 36 2 6 -16 21 -39 32 -24 11 -56 33 -73 47 -71 64 -193 105 -304 105 -57
-1 -100 -9 -173 -33z m211 -88 c-22 -14 -56 -10 -63 7 -12 31 -6 44 27 52 30
8 33 7 41 -20 7 -23 6 -32 -5 -39z m222 21 c30 -22 59 -40 66 -40 7 0 13 -2
13 -4 0 -2 3 -11 6 -20 7 -20 -79 -46 -153 -46 l-52 0 24 36 c16 24 25 51 25
75 0 22 4 39 9 39 5 0 33 -18 62 -40z"/>
<path d="M5181 8155 c-85 -30 -127 -50 -137 -66 -7 -11 13 -9 68 7 13 4 16 -2
16 -30 0 -19 3 -40 7 -46 6 -10 -75 -6 -135 7 l-25 5 23 9 c12 4 22 13 22 19
0 6 -18 1 -41 -10 -22 -12 -39 -26 -36 -33 5 -15 198 -45 348 -53 115 -7 119
-6 239 30 94 29 132 36 162 31 40 -7 78 12 78 40 0 19 -34 44 -68 51 -42 8
-43 -13 -2 -29 38 -14 39 -37 2 -37 -17 0 -45 14 -75 39 -64 53 -157 83 -277
88 -83 3 -105 0 -169 -22z m153 -46 c5 -5 -3 -13 -18 -20 -30 -14 -32 -13 -41
24 -7 27 -7 27 21 15 16 -6 33 -15 38 -19z m206 11 c5 0 25 -14 45 -31 l35
-31 -22 -18 c-13 -9 -42 -21 -66 -25 l-42 -7 11 29 c5 15 7 43 4 62 -5 29 -4
33 10 27 9 -3 21 -6 25 -6z"/>
<path d="M4950 8125 c-7 -9 -10 -18 -7 -21 10 -11 37 5 37 21 0 19 -14 19 -30
0z"/>
<path d="M2600 7803 c0 -57 18 -113 37 -113 13 0 15 8 11 45 -6 51 -5 51 65
-14 36 -35 37 -35 37 -11 0 36 -90 130 -124 130 -23 0 -26 -4 -26 -37z"/>
<path d="M6170 7553 c-14 -10 -38 -18 -55 -18 -36 0 -35 2 -35 -81 0 -76 13
-81 45 -17 11 22 37 55 58 73 56 48 45 84 -13 43z"/>
<path d="M2769 7479 c-9 -17 -17 -20 -45 -16 -44 7 -44 -6 1 -62 23 -29 33
-51 29 -63 -12 -40 35 -5 50 37 9 24 -3 125 -15 125 -4 0 -13 -10 -20 -21z"/>
<path d="M3956 7284 c-22 -21 -20 -99 3 -149 28 -63 111 -123 111 -81 0 8 -12
17 -26 20 -36 10 -66 82 -67 163 0 35 -2 63 -3 63 -1 0 -10 -7 -18 -16z"/>
<path d="M4958 7263 c0 -21 0 -64 1 -96 3 -52 0 -60 -23 -78 -28 -22 -35 -49
-12 -49 21 0 68 116 69 169 1 82 -31 132 -35 54z"/>
<path d="M4175 7128 c-26 -14 -65 -49 -65 -59 0 -13 61 -28 166 -40 122 -15
142 -8 108 38 -44 59 -155 91 -209 61z"/>
<path d="M4704 7114 c-47 -17 -124 -79 -124 -100 0 -18 1 -18 115 11 103 26
145 46 145 70 0 35 -66 44 -136 19z"/>
<path d="M5176 6711 c-24 -27 -127 -71 -189 -81 -54 -8 -151 -1 -237 19 -65
15 -188 13 -237 -4 -36 -13 -48 -13 -90 0 -61 19 -162 19 -283 0 -120 -19
-230 -19 -298 -1 -48 13 -53 13 -48 -1 3 -8 6 -16 6 -18 0 -2 30 -22 68 -44
37 -22 112 -83 167 -136 112 -108 188 -164 267 -197 45 -19 71 -22 178 -22
107 0 133 3 183 23 97 38 197 114 347 261 79 78 158 153 177 167 34 26 44 53
20 53 -8 0 -22 -8 -31 -19z m-810 -96 c62 -19 106 -19 189 0 63 15 70 15 188
-10 67 -14 138 -25 157 -26 32 0 28 -3 -35 -26 -68 -25 -78 -26 -315 -26 -206
0 -263 3 -360 21 -177 32 -181 35 -64 59 122 26 176 27 240 8z m-190 -97 c177
-30 509 -32 659 -4 55 10 110 22 123 27 37 14 26 -7 -40 -75 -127 -129 -275
-196 -431 -196 -164 0 -278 50 -404 177 -86 85 -100 110 -60 99 13 -3 82 -15
153 -28z"/>
</g>
</svg>
