<?xml version="1.0" standalone="no"?>
<!DOCTYPE svg PUBLIC "-//W3C//DTD SVG 20010904//EN"
 "http://www.w3.org/TR/2001/REC-SVG-20010904/DTD/svg10.dtd">
<svg version="1.0" xmlns="http://www.w3.org/2000/svg"
 width="1276.000000pt" height="1277.000000pt" viewBox="0 0 1276.000000 1277.000000"
 preserveAspectRatio="xMidYMid meet">
<metadata>
Created by potrace 1.16, written by Peter Selinger 2001-2019
</metadata>
<g transform="translate(0.000000,1277.000000) scale(0.100000,-0.100000)"
fill="#000000" stroke="none">
<path d="M0 6385 l0 -6385 6380 0 6380 0 0 6385 0 6385 -6380 0 -6380 0 0
-6385z m6683 6175 c872 -53 1658 -264 2427 -651 602 -303 1088 -656 1581
-1148 357 -357 600 -660 860 -1071 99 -155 204 -340 278 -487 l51 -102 -53 -3
-52 -3 -5 -60 c-4 -52 -8 -60 -26 -63 -19 -3 -22 3 -26 52 -3 31 -7 59 -11 62
-3 3 -38 8 -78 11 -84 4 -89 1 -89 -69 l0 -48 -54 0 c-30 0 -57 -3 -59 -7 -3
-5 -8 -62 -12 -129 l-7 -121 59 -7 c33 -4 63 -9 66 -12 9 -9 -67 -219 -85
-238 -10 -10 -18 -22 -18 -27 0 -5 -20 -9 -45 -9 -25 0 -45 3 -45 8 0 4 14 27
30 52 17 25 37 68 46 97 26 90 4 137 -121 258 -72 69 -96 100 -106 132 -12 42
-10 53 13 86 11 15 9 24 -10 58 l-24 41 21 22 c26 28 26 54 1 86 -11 14 -20
35 -20 48 0 13 -6 22 -15 22 -8 0 -15 -4 -15 -8 0 -5 -13 -29 -30 -54 -27 -40
-29 -48 -19 -77 9 -25 8 -41 -4 -74 -9 -23 -13 -54 -10 -69 7 -38 -24 -84
-133 -198 -101 -106 -118 -141 -118 -236 0 -47 7 -75 31 -125 17 -35 29 -67
27 -71 -3 -5 -36 -8 -74 -8 l-69 0 -5 43 c-3 23 -7 198 -8 390 -2 263 0 347 9
347 44 0 16 68 -42 105 -34 21 -48 39 -61 74 -46 124 -66 166 -115 237 -102
147 -217 241 -356 289 -74 26 -74 26 -101 79 l-21 38 30 41 c50 70 37 139 -38
190 -45 30 -63 69 -63 138 0 47 -10 99 -20 99 -4 0 -10 -31 -14 -70 -11 -107
-21 -130 -79 -181 -50 -45 -52 -49 -52 -97 0 -42 5 -57 34 -93 l34 -42 -19
-36 c-16 -29 -29 -38 -74 -51 -117 -35 -248 -117 -330 -207 -82 -89 -158 -271
-160 -383 -1 -19 -12 -32 -45 -52 -84 -51 -96 -107 -24 -118 40 -6 38 39 25
-432 l-8 -328 -72 0 c-40 0 -76 3 -79 7 -4 3 8 31 26 62 29 51 32 63 32 141 0
104 -10 125 -109 229 -39 42 -83 92 -96 111 -27 37 -41 110 -43 220 -2 52 -8
75 -30 113 -31 50 -41 53 -52 10 -3 -14 -15 -38 -26 -51 -24 -31 -24 -44 1
-67 25 -23 25 -40 0 -72 -24 -31 -26 -51 -5 -59 22 -9 19 -70 -7 -115 -11 -21
-58 -69 -103 -107 -147 -125 -160 -199 -62 -359 19 -32 38 -53 49 -53 10 0 18
3 18 6 0 3 -19 38 -42 77 -45 78 -59 146 -39 195 7 15 53 66 103 112 95 88
111 114 123 193 6 40 4 50 -11 61 -17 13 -17 15 4 41 27 34 28 55 2 88 -25 32
-25 39 1 63 20 18 21 18 32 -1 7 -11 13 -47 14 -80 5 -190 7 -194 148 -351 68
-75 84 -99 95 -143 16 -66 8 -117 -30 -188 -17 -31 -30 -62 -30 -69 0 -12 -48
-14 -260 -14 -143 0 -263 -1 -267 -2 -5 -2 -11 41 -15 94 -5 73 -12 104 -27
125 -11 15 -34 70 -51 122 -36 106 -34 111 38 111 28 0 45 5 48 14 3 8 2 66
-3 128 l-8 113 -60 5 -60 5 -5 55 -5 55 -65 0 c-95 0 -100 -4 -100 -70 0 -52
-1 -55 -25 -55 -24 0 -25 3 -25 55 0 66 -12 75 -97 74 -102 -2 -108 -6 -108
-75 0 -53 -2 -59 -22 -62 -19 -3 -22 3 -28 45 -10 77 -6 74 -92 71 l-78 -3 -1
-60 -1 -60 -41 -3 -42 -3 0 -120 0 -119 30 -6 c17 -4 30 -7 30 -8 0 0 -15 -48
-33 -106 -29 -93 -36 -105 -58 -108 -13 -2 -27 -7 -31 -10 -4 -4 -25 -185 -47
-402 -23 -217 -44 -415 -47 -440 l-6 -45 -25 55 c-42 94 -121 342 -162 512
-51 207 -91 427 -136 743 -84 591 -184 1103 -281 1445 -135 480 -302 790 -669
1250 -273 341 -324 388 -576 533 -197 113 -295 145 -489 160 l-145 12 145 28
c264 52 644 99 890 110 167 8 487 6 643 -3z m-4076 -1302 c-125 -274 -268
-855 -378 -1528 -61 -379 -117 -580 -201 -730 -74 -132 -295 -448 -461 -660
-232 -296 -357 -538 -414 -802 -14 -66 -18 -129 -18 -313 0 -259 18 -393 74
-561 l30 -90 -34 -97 c-65 -183 -99 -344 -111 -538 l-7 -105 -46 -24 c-65 -34
-223 -196 -313 -320 -103 -143 -171 -256 -269 -450 l-83 -165 -23 95 c-243
992 -224 2088 53 3089 106 380 238 722 424 1096 223 450 466 819 796 1216 142
170 521 556 684 696 97 83 321 263 327 263 1 0 -12 -33 -30 -72z m2283 -80
c42 -168 164 -416 280 -570 43 -58 133 -157 199 -220 l121 -116 -72 -7 c-146
-13 -284 -37 -329 -56 -88 -38 -157 -136 -144 -206 6 -34 14 -40 31 -23 16 16
189 57 337 79 367 56 714 -12 814 -161 92 -138 117 -399 62 -648 -11 -53 -22
-148 -25 -215 l-4 -120 69 233 c79 266 104 323 179 399 61 61 73 60 94 -10 11
-38 11 -41 -12 -56 -55 -36 -94 -79 -116 -126 -47 -100 -16 -91 57 17 22 31
49 64 60 72 20 14 23 13 42 -11 34 -43 34 -115 -2 -210 -68 -184 -148 -307
-293 -453 l-94 -95 -33 -125 c-77 -294 -154 -484 -248 -611 -68 -93 -318 -354
-378 -395 -27 -19 -88 -66 -135 -105 -213 -177 -402 -290 -550 -330 -111 -29
-285 -36 -390 -15 -166 34 -404 145 -637 297 -137 90 -169 122 -296 295 -48
66 -106 142 -128 169 -100 125 -232 387 -313 622 -38 112 -53 171 -93 363 -12
54 -24 -33 -18 -122 4 -49 4 -88 0 -88 -15 0 -93 45 -118 69 -40 36 -54 67
-76 163 -11 46 -38 131 -61 188 -69 178 -85 279 -60 372 12 43 69 122 91 126
20 4 169 -135 184 -173 9 -19 11 -54 8 -98 -6 -66 19 -197 36 -197 4 0 13 84
20 188 15 240 26 325 56 440 34 126 94 277 127 315 l27 32 1 -27 c0 -39 29
-43 97 -15 32 14 81 28 108 31 28 4 82 19 120 34 139 52 360 31 665 -64 153
-47 154 -47 158 -3 5 59 -29 130 -74 156 -50 28 -167 60 -323 87 l-124 22 154
83 c394 213 580 350 707 521 31 42 93 138 137 213 44 75 83 136 86 137 3 0 11
-24 19 -52z m5074 -893 c3 -9 0 -15 -9 -15 -8 0 -15 7 -15 15 0 8 4 15 9 15 5
0 11 -7 15 -15z m46 -60 c64 -33 78 -95 32 -146 -39 -44 -111 -52 -162 -17
-47 32 -59 68 -37 113 28 58 106 81 167 50z m22 -245 l17 -40 -90 0 -89 0 17
35 c14 30 21 34 62 38 25 2 51 4 56 5 6 1 18 -16 27 -38z m103 -101 c91 -28
129 -48 197 -103 98 -80 198 -220 244 -344 34 -88 33 -92 -18 -81 -77 18 -73
4 7 -25 84 -29 145 -64 145 -82 0 -17 -320 -34 -855 -44 -269 -5 -521 -12
-560 -15 -89 -7 -109 3 -75 40 28 30 90 65 117 66 10 0 36 7 58 14 l40 14 -57
-5 c-58 -5 -58 -5 -58 21 0 15 7 55 16 89 47 184 161 322 341 414 55 29 125
56 155 61 79 15 222 5 303 -20z m1044 -631 c13 -22 12 -27 -7 -46 -26 -26 -28
-68 -5 -94 13 -14 14 -21 5 -30 -19 -19 -14 -107 8 -153 11 -23 55 -73 99
-113 88 -80 118 -135 107 -194 -3 -19 -26 -68 -51 -111 l-45 -77 -185 0 c-141
0 -185 3 -185 13 0 6 -14 39 -30 72 -59 118 -36 213 80 326 97 95 144 169 137
213 -3 19 1 53 9 76 11 32 12 50 5 72 -9 24 -7 35 7 54 20 28 32 26 51 -8z
m-3055 -90 c9 -55 -9 -70 -79 -66 l-50 3 -3 47 c-3 46 -3 47 30 51 93 11 95
11 102 -35z m226 -2 l0 -45 -44 -6 c-25 -4 -49 -4 -55 0 -6 3 -11 26 -11 51
l0 44 55 0 55 0 0 -44z m2350 -346 l0 -390 -125 0 -125 0 -19 38 c-11 21 -32
51 -49 68 -16 16 -39 44 -52 63 -33 48 -131 107 -223 136 -44 13 -91 34 -103
46 l-24 22 -24 -22 c-14 -13 -57 -32 -98 -43 -40 -10 -97 -33 -127 -51 -64
-38 -205 -192 -221 -242 l-12 -35 -122 0 -122 0 7 88 c4 48 10 215 14 372 3
157 10 288 13 292 4 4 261 12 572 18 311 7 608 15 660 20 52 4 114 8 138 8
l42 2 0 -390z m-2825 329 c4 -22 5 -43 2 -45 -3 -3 -27 -6 -54 -7 l-48 -2 -3
48 -3 47 50 0 49 0 7 -41z m603 -160 c3 -82 2 -87 -20 -94 -13 -5 -193 -10
-400 -12 l-378 -4 0 90 c0 50 1 92 3 93 5 3 517 14 652 14 l140 -1 3 -86z
m3175 84 c37 -6 38 -6 35 -47 -3 -37 -6 -41 -32 -44 -15 -2 -39 -1 -52 2 -21
6 -24 12 -24 51 0 49 2 50 73 38z m257 -25 c38 -63 19 -85 -65 -72 l-45 6 0
49 0 49 45 0 c40 0 47 -4 65 -32z m-6 -107 l59 -6 37 -87 c21 -48 35 -89 32
-92 -7 -8 -412 -7 -505 0 l-77 7 0 87 c0 48 3 90 7 93 8 9 367 7 447 -2z
m-9685 -181 c-31 -344 -108 -613 -248 -856 -37 -65 -141 -247 -231 -404 -194
-341 -339 -580 -351 -580 -15 0 -10 269 7 365 31 181 125 416 236 587 22 34
96 137 163 228 230 311 333 493 419 744 12 34 13 12 5 -84z m5943 85 c11 -5
13 -25 10 -97 -5 -106 2 -118 74 -118 63 0 78 20 71 94 -4 34 -9 76 -13 94 -6
31 -6 32 30 32 21 0 38 -5 40 -12 40 -132 58 -191 62 -203 5 -13 -42 -15 -375
-15 -298 0 -381 3 -380 13 1 33 76 202 91 205 14 3 16 -8 11 -96 l-6 -100 51
-7 c75 -10 88 -3 95 53 2 26 2 71 -2 100 l-7 52 31 0 31 0 -3 -77 c-4 -112 -3
-113 67 -113 70 0 74 6 68 119 -3 64 -1 71 17 74 11 2 21 5 22 6 1 0 8 -1 15
-4z m-283 -19 c15 -18 26 -106 17 -140 -6 -23 -12 -26 -47 -26 l-41 0 4 74 c4
92 34 132 67 92z m195 2 c3 -7 7 -46 10 -85 l6 -73 -44 0 -43 0 -7 54 c-6 57
4 100 26 109 24 10 49 7 52 -5z m190 -3 c15 -15 31 -107 24 -141 -3 -15 -12
-19 -48 -19 l-45 0 0 66 c0 52 4 72 19 88 23 25 30 26 50 6z m1828 -106 c121
-34 149 -53 276 -194 24 -26 51 -63 60 -83 l17 -35 492 5 c534 6 511 8 497
-48 -6 -24 -7 -24 -143 -24 -76 0 -306 -3 -512 -7 l-374 -6 -42 84 c-58 115
-135 195 -238 244 -67 32 -88 38 -146 38 -170 0 -352 -153 -422 -355 -6 -17
-40 -18 -527 -18 l-520 0 0 35 0 35 495 0 495 0 21 43 c12 23 60 83 106 134
90 99 144 132 245 155 29 6 64 19 78 29 23 16 27 16 49 2 13 -8 55 -24 93 -34z
m1544 -21 c-4 -13 -9 -56 -13 -96 -5 -61 -3 -75 12 -92 18 -20 17 -20 -58 -20
-43 0 -77 2 -77 5 0 5 46 178 56 213 2 7 20 12 45 12 38 0 41 -2 35 -22z m196
-75 l3 -98 60 0 60 0 0 98 0 98 30 -3 30 -3 -4 -88 c-4 -108 2 -116 78 -119
110 -3 -129 -16 -284 -15 -82 0 -128 2 -102 4 41 4 49 8 58 31 11 28 7 134 -5
164 -6 13 -1 17 26 21 18 2 36 5 40 5 4 1 9 -42 10 -95z m-112 67 c16 -16 20
-33 20 -91 l0 -70 -42 3 -43 3 -3 63 c-2 46 2 71 13 88 19 29 29 30 55 4z
m204 1 c13 -14 16 -33 14 -82 l-3 -64 -40 0 -40 0 -3 68 c-3 72 7 97 38 97 9
0 25 -8 34 -19z m170 -75 c29 -76 25 -89 -20 -84 -28 3 -29 5 -32 63 -4 67 5
112 18 99 5 -5 20 -40 34 -78z m-1978 16 c64 -32 91 -52 140 -108 59 -66 124
-176 124 -209 0 -8 7 -15 16 -15 8 0 13 -4 9 -9 -3 -6 1 -209 10 -453 8 -244
15 -452 15 -463 1 -19 1 -19 11 -2 13 22 12 174 -2 601 -5 175 -7 321 -4 325
4 3 229 8 501 10 l494 3 0 -509 c0 -505 2 -533 32 -533 4 0 8 265 8 589 l0
588 263 7 c144 3 296 9 338 12 l77 6 40 -124 c146 -444 243 -909 281 -1343 6
-66 13 -146 17 -179 l5 -58 -28 4 c-15 3 -134 35 -265 72 -190 53 -495 131
-635 161 -18 4 -23 1 -23 -14 0 -15 16 -22 98 -40 136 -31 369 -91 629 -163
l221 -61 8 -136 c8 -155 -8 -594 -31 -806 -136 -1280 -653 -2462 -1499 -3424
-189 -215 -382 -406 -642 -633 -21 -18 -21 -18 -89 144 -38 90 -95 221 -126
292 l-58 129 56 66 c360 428 652 1006 740 1469 l18 93 140 -7 c77 -3 182 -9
233 -13 50 -4 92 -5 92 -3 0 13 -793 1582 -800 1582 -10 0 -1100 -1454 -1100
-1469 0 -7 23 -11 63 -11 34 -1 96 -3 137 -6 41 -3 133 -9 204 -14 70 -5 130
-11 132 -13 6 -5 -60 -190 -110 -312 -45 -108 -177 -375 -185 -375 -4 0 -19
30 -35 68 -37 85 -182 411 -234 522 -51 110 -102 227 -102 233 0 13 -177 401
-240 527 -185 372 -318 613 -426 774 l-54 81 41 17 40 18 -6 47 c-3 27 -8 58
-11 71 -8 42 58 23 72 -20 5 -17 16 -36 25 -41 23 -14 89 22 112 61 18 30 18
33 1 61 -17 29 -17 30 9 61 31 36 30 34 17 80 -7 22 -8 80 -4 151 l6 115 30
13 c45 20 53 49 39 131 -7 40 -10 91 -6 119 5 39 2 59 -15 98 -13 29 -25 82
-29 133 -9 99 -24 132 -83 185 -41 38 -43 41 -49 116 -9 101 -14 114 -53 139
-39 24 -76 26 -116 5 -45 -23 -70 -67 -85 -154 -12 -68 -20 -88 -55 -132 -37
-47 -41 -57 -39 -103 1 -28 -5 -69 -14 -91 -9 -22 -16 -58 -17 -79 0 -34 6
-45 47 -83 l47 -44 8 -192 c8 -211 5 -239 -42 -309 -33 -50 -32 -68 6 -93 13
-8 24 -21 24 -27 0 -6 6 -19 14 -27 13 -16 30 -123 21 -133 -3 -3 -34 24 -68
61 -108 114 -145 147 -241 206 -15 9 -15 20 -1 120 26 193 16 368 -31 553 -29
117 -83 238 -180 409 -42 74 -74 136 -72 137 1 2 127 15 278 30 385 38 384 38
388 59 3 13 -3 17 -22 17 -14 0 -27 1 -27 3 -4 7 -25 1113 -22 1120 2 4 225 7
495 7 l491 0 -7 -347 c-3 -192 -9 -435 -12 -540 l-6 -193 -148 0 c-82 0 -155
-3 -164 -6 -46 -18 19 -24 241 -24 229 0 245 -1 240 -17 -34 -124 -39 -152
-33 -186 7 -37 31 -70 55 -78 10 -4 10 -15 0 -52 -14 -56 -8 -272 8 -301 10
-18 11 -17 16 10 4 16 6 76 6 134 -1 85 3 118 22 175 l24 70 43 -3 c51 -3 53
3 8 22 -49 20 -57 43 -54 149 3 89 4 91 18 62 30 -63 62 -103 94 -120 33 -18
34 -18 68 3 18 12 64 53 102 92 37 38 72 68 76 65 18 -11 30 -104 20 -156 -12
-63 -12 -69 1 -46 18 31 29 18 29 -37 0 -57 13 -82 24 -43 10 40 6 104 -13
206 -23 116 -26 124 -81 179 l-42 41 7 65 c7 60 5 69 -20 111 -42 72 -102 82
-167 27 -38 -33 -58 -78 -58 -136 0 -42 -4 -48 -56 -93 -30 -26 -64 -63 -76
-80 -19 -32 -22 -33 -88 -33 -38 0 -71 3 -74 8 -2 4 0 120 4 257 5 138 12 375
15 527 7 260 8 278 26 283 10 4 22 18 25 33 12 47 41 97 103 175 65 82 117
118 209 148 90 29 136 25 228 -19z m-1923 -48 l277 -6 1 -77 c0 -42 6 -357 13
-701 7 -344 10 -628 6 -633 -5 -5 -545 -67 -590 -67 -4 0 -30 35 -58 78 -28
42 -96 137 -150 210 -54 73 -115 162 -135 198 l-36 65 44 457 c25 251 45 464
45 472 0 17 -14 17 583 4z m1779 -1015 c11 -6 28 -29 39 -52 20 -45 26 -127 9
-127 -5 0 -10 5 -10 12 0 6 -3 9 -6 5 -13 -13 28 -93 62 -122 l36 -30 -89 -92
c-128 -133 -158 -134 -231 0 -43 78 -55 127 -34 134 6 3 12 0 12 -6 0 -19 30
-84 36 -78 3 3 -2 19 -10 36 -22 42 -20 68 8 86 23 15 27 15 66 -7 l41 -23 20
24 c14 17 19 37 17 75 l-2 51 -3 -50 c-4 -45 -24 -85 -43 -85 -4 0 -18 8 -30
18 -20 16 -20 19 -6 47 9 17 15 48 15 70 -1 37 -2 36 -9 -14 -12 -82 -30 -89
-30 -10 0 70 13 95 65 129 34 23 48 24 77 9z m-4453 -115 c-8 -109 -3 -308 10
-394 37 -247 156 -479 330 -643 136 -128 223 -175 477 -258 88 -28 163 -54
167 -56 4 -3 -15 -48 -43 -100 -101 -190 -212 -335 -404 -530 -123 -127 -159
-156 -136 -114 40 76 -39 151 -160 151 -33 0 -77 -7 -97 -15 -33 -14 -38 -14
-55 2 -10 9 -28 31 -39 49 -23 37 -47 48 -104 45 -48 -1 -363 -157 -412 -203
l-32 -31 -33 21 c-18 11 -50 41 -70 65 -80 96 -192 173 -406 278 -112 55 -225
105 -250 111 -26 7 -57 20 -69 31 -11 10 -38 25 -59 32 -54 18 -89 3 -116 -49
-11 -22 -22 -43 -24 -45 -1 -2 -31 11 -65 28 -70 35 -141 41 -189 16 -36 -19
-50 -43 -59 -104 -7 -46 -10 -49 -43 -36 -26 10 -23 -21 8 -79 32 -60 23 -96
-25 -96 -32 0 -125 76 -136 111 -9 29 20 57 73 71 39 10 42 12 29 26 -21 20
-58 9 -102 -29 -34 -30 -35 -34 -35 -100 0 -80 26 -155 84 -242 36 -53 46
-100 25 -112 -27 -17 -292 198 -469 381 -174 180 -351 428 -323 454 4 5 53 27
108 50 271 115 423 208 539 331 158 168 233 410 243 784 2 96 8 169 13 168 5
-2 42 -25 82 -51 274 -184 508 -286 708 -312 304 -39 531 48 905 349 76 61
143 110 149 108 6 -2 8 -27 5 -63z m4214 -259 c-10 -38 -10 -137 -1 -192 8
-40 7 -42 -22 -48 -45 -10 -63 9 -56 60 8 64 44 223 52 236 14 23 35 -22 27
-56z m-1033 -183 c17 -14 24 -32 27 -73 3 -41 2 -50 -7 -39 -8 12 -9 8 -4 -15
10 -44 32 -84 54 -98 26 -16 25 -35 -2 -66 -21 -24 -21 -24 8 2 16 15 33 27
36 27 14 0 48 -70 48 -98 0 -24 -8 -38 -36 -59 -20 -15 -52 -41 -70 -56 -47
-40 -99 -45 -168 -17 -57 23 -90 57 -122 123 -16 34 -16 36 5 71 13 20 25 36
28 36 3 0 23 -15 43 -34 21 -19 49 -40 62 -46 12 -7 -1 9 -29 35 -29 25 -53
52 -53 58 0 7 13 25 30 40 30 29 51 82 49 127 -1 15 -5 7 -11 -20 -10 -48 -27
-90 -38 -90 -16 0 9 119 33 157 36 57 75 69 117 35z m-175 -505 c14 -43 14
-50 0 -77 -18 -36 -24 -36 -59 -9 -46 36 -50 54 -30 131 l18 70 28 -34 c15
-18 34 -54 43 -81z m354 29 c7 -40 10 -84 7 -97 -6 -21 -6 -22 5 -5 9 15 13
16 20 5 23 -37 -3 -116 -35 -106 -16 5 -53 84 -68 147 -13 54 -13 55 -18 20
l-5 -35 -87 -3 c-94 -3 -158 14 -158 42 0 19 -4 19 45 1 87 -31 134 -18 225
64 25 22 47 40 51 41 3 0 11 -33 18 -74z m-251 -86 c35 -5 86 -5 113 -1 l50 8
18 -36 c35 -71 57 -633 25 -645 -9 -3 -14 7 -17 32 -3 35 -4 35 -5 -8 -1 -25
-6 -51 -11 -58 -16 -26 -22 18 -17 127 5 95 4 100 -5 46 -6 -33 -8 -97 -6
-142 l5 -81 -34 -6 c-36 -7 -81 9 -127 46 -24 20 -31 21 -59 10 -48 -18 -53
-5 -35 90 16 89 16 166 -2 378 -6 74 -9 144 -7 156 9 36 36 94 44 94 4 0 35
-5 70 -10z m286 -142 c24 -112 25 -123 10 -145 -20 -31 -38 -30 -30 2 4 14 3
31 -1 38 -8 13 -13 107 -6 120 8 14 23 7 27 -15z m-2047 -199 c204 -39 573
-143 573 -162 0 -6 -69 -141 -153 -301 -134 -254 -371 -657 -443 -753 -41 -54
-108 -87 -193 -94 -62 -5 -78 -10 -94 -30 -16 -21 -18 -32 -11 -84 11 -74 11
-148 1 -198 -15 -73 -112 -150 -166 -132 -26 8 -54 85 -81 214 -23 113 -25
200 -9 389 9 102 9 149 0 205 -7 40 -14 89 -15 110 -9 115 -146 103 -257 -21
-23 -26 -50 -66 -61 -90 -11 -24 -23 -42 -26 -40 -51 22 -91 44 -89 48 1 3 45
44 97 91 116 105 312 315 384 412 69 94 163 251 223 372 l48 97 82 -6 c45 -3
131 -15 190 -27z m-4118 -151 c93 -152 199 -288 284 -364 23 -21 85 -77 137
-124 52 -48 148 -133 213 -190 l118 -102 -33 -17 c-51 -25 -70 -72 -63 -152
l6 -65 -109 -150 c-128 -176 -189 -276 -233 -386 l-32 -79 -41 5 c-22 3 -70 8
-106 11 -151 14 -227 120 -200 280 16 98 13 132 -12 149 -13 8 -56 19 -96 25
-41 6 -86 18 -101 26 -88 45 -288 360 -551 870 -51 99 -102 195 -112 213 -11
18 -19 35 -17 36 16 14 562 135 749 165 101 17 93 23 199 -151z m-983 -65 c17
-27 61 -109 99 -183 187 -372 453 -820 531 -892 42 -39 119 -70 190 -76 l61
-5 -4 -131 c-5 -129 -4 -132 24 -185 36 -71 84 -108 153 -121 30 -6 81 -15
113 -21 32 -6 57 -16 57 -23 0 -6 -23 -52 -52 -101 -63 -111 -84 -164 -98
-250 -13 -83 -36 -128 -92 -182 -64 -61 -579 -464 -608 -475 -14 -6 -38 -16
-55 -23 -16 -7 -124 -81 -238 -164 -114 -83 -212 -151 -217 -151 -10 0 -39 89
-61 185 -18 79 -19 433 -1 530 7 39 37 157 67 264 30 106 55 201 55 210 0 21
-45 -46 -64 -95 -9 -22 -29 -91 -47 -154 -35 -131 -45 -153 -53 -130 -3 8 -26
112 -52 230 -25 118 -57 242 -69 275 l-24 60 0 -50 c-1 -27 12 -97 28 -155 16
-58 39 -184 51 -280 12 -96 28 -218 36 -270 7 -52 18 -178 24 -278 10 -167 34
-306 64 -372 5 -12 -13 -26 -76 -60 -125 -68 -112 -68 -164 3 -360 488 -719
1207 -885 1771 l-23 80 64 120 c131 251 303 541 379 641 115 152 337 323 511
393 43 17 316 107 340 111 3 1 19 -20 36 -46z m6048 -60 c139 -48 289 -121
363 -177 94 -71 240 -230 332 -363 48 -68 120 -192 171 -293 48 -96 131 -247
184 -335 123 -203 283 -527 426 -860 62 -143 139 -320 171 -393 33 -74 73
-167 90 -208 l29 -75 -37 -57 c-111 -168 -324 -400 -483 -528 -464 -373 -1030
-554 -1720 -552 -286 1 -478 19 -785 74 -264 47 -660 158 -917 257 -38 14 -68
24 -68 22 0 -7 276 -179 435 -270 639 -367 1250 -583 1815 -643 112 -12 558
-7 655 7 530 76 972 289 1389 668 44 40 83 69 88 65 8 -9 111 -247 183 -426
l52 -130 -51 -41 c-86 -70 -234 -177 -380 -274 -536 -359 -1111 -625 -1730
-801 l-138 -40 -45 39 c-24 22 -58 59 -75 83 -17 24 -67 77 -111 118 -44 41
-101 97 -126 123 -25 27 -91 92 -146 144 -55 53 -210 207 -345 343 -190 193
-254 251 -283 260 -21 7 -41 10 -43 7 -9 -9 874 -892 973 -972 54 -44 113 -96
131 -117 l33 -36 -128 -30 c-817 -194 -1737 -208 -2578 -41 -860 171 -1672
522 -2387 1034 -60 42 -108 79 -108 81 0 3 15 17 33 32 77 64 151 140 176 182
34 59 35 143 2 257 l-24 83 37 45 c21 25 92 89 159 142 72 57 196 173 302 282
326 337 436 443 454 435 39 -16 181 -16 232 0 28 10 52 16 54 14 47 -56 285
-390 397 -557 82 -122 153 -219 158 -215 4 5 85 124 180 264 95 140 209 303
253 362 l80 108 31 -25 c162 -129 274 -182 409 -194 116 -10 147 -27 322 -172
175 -145 355 -277 387 -284 33 -7 33 -7 13 13 -28 28 -444 355 -534 419 -71
51 -75 53 -140 53 -82 0 -167 21 -240 60 -55 30 -84 51 -318 240 -65 53 -164
131 -220 174 -191 145 -279 255 -504 626 -237 392 -298 475 -519 706 -171 178
-350 371 -350 377 0 2 14 7 31 11 41 8 84 53 100 104 7 23 16 42 22 42 5 0 46
-37 90 -83 45 -46 159 -152 252 -236 184 -166 333 -315 428 -426 81 -95 81
-95 63 -53 -18 46 -62 111 -117 175 -23 26 -82 101 -132 167 -149 197 -282
351 -455 524 -158 158 -166 167 -213 265 -66 137 -65 168 3 108 18 -15 43 -31
54 -35 33 -10 70 12 90 55 9 22 19 39 21 39 11 0 560 -519 635 -601 109 -118
204 -239 278 -350 l56 -85 28 28 c30 31 29 35 -6 52 -13 6 -51 49 -86 96 -134
181 -223 278 -485 531 -345 332 -397 384 -397 398 0 16 47 13 75 -5 17 -11 36
-14 59 -10 49 9 60 27 53 86 -3 28 -2 50 3 50 12 0 99 -69 230 -185 63 -55
153 -129 200 -164 115 -87 144 -115 277 -271 64 -74 168 -188 232 -252 101
-103 120 -118 148 -118 47 0 41 19 -16 58 -62 42 -208 193 -335 345 -117 141
-164 186 -310 297 -166 126 -205 160 -242 209 -19 24 -34 47 -34 51 0 4 26 1
58 -6 67 -16 89 -11 119 24 l21 25 64 -28 c149 -66 302 -146 365 -191 71 -50
170 -144 588 -554 138 -135 309 -293 380 -352 72 -58 193 -158 270 -221 114
-92 141 -110 143 -95 5 29 -23 64 -88 111 -91 65 -95 76 -94 247 1 128 5 159
32 264 51 193 133 332 177 296 8 -7 15 -28 15 -47 0 -40 32 -108 55 -117 9 -3
32 -6 51 -6 33 0 34 -1 34 -42 0 -24 -7 -78 -15 -121 -21 -110 -19 -249 5
-368 21 -101 61 -240 86 -294 42 -94 119 -412 160 -665 32 -197 49 -241 82
-208 13 13 70 -27 187 -132 39 -34 102 -88 140 -118 39 -31 102 -86 140 -122
39 -37 76 -69 83 -71 17 -6 -171 -518 -246 -669 -31 -63 -58 -118 -60 -122 -2
-5 10 -8 26 -8 27 0 33 7 84 113 102 207 247 594 276 736 l18 91 140 -99 c76
-55 201 -139 278 -187 76 -49 153 -105 171 -126 71 -84 98 -273 69 -480 -5
-33 -4 -36 15 -31 14 3 23 17 28 42 11 54 8 320 -4 369 -6 23 -7 42 -2 42 12
0 156 -89 332 -203 143 -95 168 -106 195 -88 13 8 -32 37 -614 414 l-101 65
13 63 c7 35 18 147 24 249 20 366 30 440 68 516 10 22 39 80 64 129 49 97 72
158 66 177 -2 6 -36 -54 -75 -133 -66 -133 -107 -239 -134 -348 -5 -23 -12
-41 -15 -38 -8 7 -7 454 1 532 25 259 112 700 147 742 5 7 8 20 6 30 -10 41
-102 -196 -141 -362 -60 -253 -73 -484 -54 -930 18 -447 19 -474 7 -529 -6
-31 -15 -58 -19 -61 -13 -7 -160 85 -327 205 -99 72 -161 110 -178 110 -14 0
-60 -17 -101 -37 l-75 -37 -83 80 c-45 45 -127 117 -182 160 -197 153 -204
162 -205 245 0 100 -38 271 -116 537 -52 175 -52 179 31 202 52 15 86 48 117
115 18 41 23 68 23 145 0 52 -2 109 -5 125 l-5 30 90 16 c150 26 159 34 317
289 196 313 247 405 367 652 l124 255 110 -34 c60 -19 155 -50 211 -70z m704
15 c-10 -59 -24 -72 -48 -44 -9 12 -6 22 14 53 14 21 26 44 26 52 0 9 3 11 9
6 6 -6 5 -33 -1 -67z m-4354 2 c42 -18 66 -47 66 -81 0 -5 -24 -9 -52 -9 -95
0 -180 74 -115 100 34 13 51 12 101 -10z m-336 -30 c44 -27 73 -77 70 -120 -3
-33 -5 -35 -44 -38 -30 -2 -46 2 -66 20 -14 13 -37 33 -51 45 -35 29 -34 48 2
84 35 34 45 35 89 9z m4779 -92 c6 -7 13 -55 15 -105 l5 -93 -37 0 c-23 0 -40
5 -43 13 -5 13 4 92 19 165 6 33 24 41 41 20z m233 -51 c0 -18 -53 -67 -73
-67 -15 0 -18 6 -15 33 3 28 7 32 31 32 15 -1 27 5 27 12 0 7 7 10 15 7 8 -4
15 -11 15 -17z m-3303 -132 c23 -14 43 -28 43 -31 0 -26 -47 -87 -83 -109 -50
-28 -66 -31 -92 -12 -27 21 -13 76 36 131 22 25 43 46 46 46 4 0 26 -11 50
-25z m-163 -65 c-34 -65 -26 -107 24 -129 17 -8 32 -18 32 -22 0 -12 -121
-104 -167 -128 -23 -11 -51 -21 -61 -21 -20 0 -175 146 -170 161 2 5 37 24 78
42 41 18 122 59 180 90 58 31 106 57 108 57 1 0 -10 -23 -24 -50z m494 -32
c15 -15 22 -33 21 -57 0 -42 -31 -72 -102 -98 -91 -34 -131 11 -86 96 45 85
112 109 167 59z m-193 -48 c-48 -95 -25 -150 65 -150 64 0 65 -16 3 -60 -27
-19 -73 -58 -103 -87 -78 -75 -183 -163 -195 -163 -6 0 -55 44 -109 99 l-98
98 46 27 c25 14 107 76 183 137 120 96 198 148 226 149 4 0 -4 -22 -18 -50z
m550 -104 c11 -17 15 -42 13 -88 -3 -55 -6 -63 -24 -66 -12 -2 -28 4 -37 12
-20 20 -32 119 -17 145 14 28 46 26 65 -3z m-2497 -158 c82 -87 93 -103 90
-130 -2 -17 -8 -33 -15 -35 -6 -3 -40 25 -75 61 -39 40 -75 67 -93 71 -58 13
-58 13 -52 56 5 37 31 81 46 78 3 -1 48 -46 99 -101z m-195 -18 c18 -16 35
-30 40 -30 14 0 7 -74 -10 -92 -26 -29 -102 -19 -125 16 -17 25 -8 87 17 111
31 32 39 31 78 -5z m2335 -1 c64 -22 57 -110 -11 -142 -45 -22 -60 -21 -81 2
-17 18 -17 22 4 80 13 34 29 62 39 64 9 3 16 5 17 6 1 0 15 -4 32 -10z m-126
-78 c-7 -74 2 -98 43 -111 19 -6 35 -15 35 -20 0 -29 -128 -170 -155 -170 -3
0 -49 37 -101 82 -74 64 -92 84 -82 93 118 104 166 140 205 155 27 11 51 19
54 20 3 0 4 -22 1 -49z m-1797 -132 c33 -39 71 -89 84 -111 l24 -40 -26 13
c-14 8 -60 43 -101 79 -57 49 -76 71 -76 91 0 60 24 52 95 -32z m-250 -279
c361 -399 434 -492 567 -725 114 -200 190 -312 327 -482 l41 -51 -142 -95
c-183 -121 -406 -251 -477 -278 -87 -32 -183 -23 -283 29 -5 2 -8 -10 -8 -26
0 -37 -8 -46 -157 -176 -66 -58 -253 -240 -415 -405 -161 -164 -319 -320 -351
-346 -31 -26 -70 -65 -85 -86 l-28 -38 -30 24 c-33 26 -37 31 -184 259 -163
252 -253 437 -315 646 -23 80 -60 259 -54 264 72 53 612 481 653 518 57 50
176 191 176 207 0 4 -10 7 -22 7 -19 -1 -23 4 -21 29 2 41 290 607 369 725 34
52 87 123 116 156 29 34 61 72 72 84 l18 23 42 -49 c22 -27 109 -123 191 -214z
m2169 96 c-4 -75 -10 -136 -15 -136 -4 0 -31 19 -59 43 -29 23 -61 48 -72 56
-18 14 -15 19 63 97 46 46 84 82 86 80 2 -2 1 -65 -3 -140z m-5177 -945 c35
-74 61 -136 58 -139 -2 -3 -7 1 -10 9 -4 10 -18 13 -50 11 l-45 -4 0 41 c0 34
3 41 20 41 24 0 24 0 5 47 -15 37 -16 38 -60 35 l-45 -4 0 41 c0 39 2 41 29
41 l30 0 -15 35 c-19 47 -17 58 4 15 9 -19 45 -95 79 -169z m4073 -537 c98
-99 141 -133 225 -179 51 -28 115 -82 115 -98 0 -8 -44 -72 -254 -367 -61 -85
-135 -192 -165 -238 -29 -45 -56 -82 -60 -82 -3 1 -67 91 -141 202 -74 111
-181 265 -238 342 -57 76 -107 147 -112 156 -8 14 11 29 116 89 129 73 312
192 374 242 19 16 37 28 40 29 3 0 48 -43 100 -96z m-2675 -269 c50 -193 68
-250 109 -349 132 -319 440 -766 587 -853 16 -10 29 -20 29 -24 0 -21 -94
-115 -185 -185 l-34 -26 -78 63 c-405 327 -781 710 -1065 1086 -6 7 18 29 77
67 47 31 147 101 222 157 141 105 295 211 299 206 1 -1 19 -65 39 -142z m5675
-2645 c-30 -11 -62 -19 -70 -19 -12 -1 -14 -11 -12 -46 l4 -45 -121 0 c-117 0
-121 1 -121 21 0 21 -3 21 -72 16 -98 -8 -79 -3 92 28 80 14 181 34 225 44
105 24 147 25 75 1z m-1232 -147 c-10 -2 -28 -2 -40 0 -13 2 -5 4 17 4 22 1
32 -1 23 -4z"/>
<path d="M3695 9880 c-81 -12 -164 -42 -225 -82 -50 -33 -66 -52 -32 -42 9 4
53 24 97 45 105 51 196 65 318 50 111 -14 141 -27 231 -95 124 -94 160 -98 60
-7 -113 103 -287 154 -449 131z"/>
<path d="M5353 9875 c-63 -17 -124 -47 -142 -69 -17 -20 -2 -21 26 -1 28 20
129 42 229 50 125 10 196 -7 306 -72 90 -53 148 -98 148 -115 0 -12 -48 -10
-73 4 -12 6 -32 21 -44 34 -12 13 -34 26 -50 30 -15 3 -59 17 -96 30 -114 40
-218 31 -367 -30 -91 -38 -140 -65 -173 -95 l-28 -26 148 -22 c153 -23 340
-30 403 -14 19 5 73 21 119 35 104 32 106 32 166 1 27 -13 50 -23 52 -22 1 2
-6 25 -16 53 -19 49 -22 53 -148 144 -108 78 -336 120 -460 85z m145 -134 c23
-14 10 -46 -21 -49 -31 -4 -46 20 -27 43 14 17 29 19 48 6z m240 -25 c15 -8
35 -23 45 -34 18 -20 18 -21 -4 -33 -13 -7 -38 -15 -56 -20 l-33 -7 0 54 c0
58 5 62 48 40z m-438 -57 l0 -42 -61 7 c-33 3 -66 9 -71 12 -12 8 87 63 115
64 13 0 17 -8 17 -41z"/>
<path d="M4836 9839 c-26 -72 -33 -288 -11 -354 12 -37 13 -31 14 96 1 74 6
161 12 193 7 41 7 62 0 69 -7 7 -12 6 -15 -4z"/>
<path d="M3706 9800 c-27 -5 -72 -18 -100 -29 -28 -10 -63 -22 -78 -25 -15 -3
-49 -20 -76 -37 -27 -16 -71 -34 -98 -38 -54 -9 -44 -14 47 -26 25 -3 68 -14
96 -25 95 -36 206 -50 397 -50 182 0 235 7 271 35 20 15 20 16 -3 33 -13 9
-38 29 -55 43 -36 30 -154 91 -207 107 -52 16 -139 22 -194 12z m-122 -96 c4
-14 4 -35 0 -46 -5 -18 -11 -20 -57 -13 -29 3 -53 8 -56 10 -16 16 55 75 90
75 10 0 20 -11 23 -26z m213 10 c3 -8 -2 -23 -11 -32 -15 -15 -17 -15 -32 0
-21 21 -11 48 16 48 11 0 23 -7 27 -16z m234 -13 c24 -16 57 -40 73 -53 l29
-25 -44 -17 c-43 -18 -169 -35 -169 -23 0 4 9 21 20 39 11 18 20 47 20 64 0
53 10 55 71 15z"/>
<path d="M4394 9757 c4 -25 20 -83 37 -129 l29 -83 -5 78 c-5 78 -30 157 -55
172 -10 6 -11 -3 -6 -38z"/>
<path d="M2663 9388 c9 -97 18 -111 34 -55 7 26 18 47 23 47 5 0 20 -16 32
-35 40 -61 71 -60 40 2 -25 47 -47 68 -96 88 l-39 17 6 -64z"/>
<path d="M6348 9138 l-58 -10 0 -62 c0 -84 12 -100 38 -50 11 21 39 60 62 87
23 26 36 46 28 46 -7 -1 -39 -6 -70 -11z"/>
<path d="M2828 9070 c-9 -14 -24 -20 -47 -20 -32 0 -33 -1 -18 -18 9 -10 30
-42 46 -72 l29 -54 17 57 c16 55 13 127 -6 127 -5 0 -14 -9 -21 -20z"/>
<path d="M4073 8857 c-32 -69 -5 -163 56 -204 47 -32 58 -29 27 8 -43 51 -59
90 -65 159 -6 61 -7 63 -18 37z"/>
<path d="M5108 8757 c-9 -61 -15 -114 -13 -115 2 -2 14 16 26 40 25 46 33 158
14 177 -7 7 -16 -24 -27 -102z"/>
<path d="M4271 8694 c-37 -31 -39 -49 -8 -58 28 -7 258 -28 263 -24 2 2 -6 19
-17 37 -42 69 -179 95 -238 45z"/>
<path d="M4835 8686 c-52 -24 -114 -81 -102 -92 9 -9 140 20 213 47 l58 22
-28 23 c-35 31 -77 31 -141 0z"/>
<path d="M5315 8259 c-78 -37 -204 -69 -269 -69 -29 0 -79 7 -111 16 -84 23
-609 29 -670 7 -44 -15 -177 -17 -290 -4 -38 4 -71 7 -72 7 -1 -1 32 -27 75
-58 42 -31 115 -91 161 -134 111 -105 174 -151 246 -184 165 -75 339 -73 501
5 67 32 101 60 244 199 92 88 187 177 211 197 24 20 42 39 39 41 -3 3 -32 -8
-65 -23z m-780 -74 c82 -15 94 -14 157 2 66 17 71 17 156 -1 48 -11 121 -24
162 -31 l75 -11 -50 -17 c-95 -31 -192 -40 -400 -34 -135 4 -240 12 -324 26
-69 12 -127 24 -130 26 -9 10 11 19 77 36 84 22 165 23 277 4z m-125 -111
c178 -22 479 -15 619 15 52 11 97 18 99 16 3 -3 -33 -42 -79 -88 -66 -66 -102
-93 -169 -126 -188 -92 -352 -92 -517 1 -83 46 -195 144 -219 190 -8 15 -21
28 -30 28 -8 0 -13 4 -10 8 3 5 43 1 88 -9 46 -10 144 -25 218 -35z"/>
<path d="M10515 9100 c-41 -16 -50 -40 -55 -142 l-5 -98 73 0 72 0 1 78 c2
125 -2 145 -36 160 -14 7 -27 12 -28 11 -1 0 -11 -4 -22 -9z m57 -27 c15 -13
18 -32 18 -103 l0 -87 -37 -7 c-88 -14 -85 -17 -81 83 2 70 7 93 22 110 23 25
53 27 78 4z"/>
<path d="M9475 9090 c-40 -16 -49 -39 -55 -141 l-5 -99 71 0 72 0 7 88 c8 100
-2 138 -40 152 -15 6 -27 10 -28 9 -1 0 -11 -4 -22 -9z m65 -29 c5 -11 10 -58
10 -105 l0 -85 -35 -7 c-19 -3 -47 -3 -61 0 l-27 7 6 85 c3 62 10 90 22 105
24 25 71 25 85 0z"/>
<path d="M9759 9081 c-21 -17 -24 -30 -30 -117 -5 -69 -3 -101 5 -106 6 -4 39
-8 74 -8 l62 0 2 78 c3 122 1 135 -22 154 -29 23 -62 23 -91 -1z m81 -11 c18
-18 20 -31 18 -108 l-3 -87 -59 -3 -58 -3 3 91 c4 82 6 94 28 111 30 24 46 24
71 -1z"/>
<path d="M10184 9079 c-16 -18 -19 -37 -19 -123 l0 -101 50 -1 c84 -1 82 -3
90 90 8 88 3 116 -21 141 -23 22 -77 19 -100 -6z m90 -8 c14 -15 16 -35 14
-107 l-3 -89 -59 -3 -59 -3 7 93 c8 99 21 128 61 128 12 0 30 -8 39 -19z"/>
<path d="M9930 8475 c-15 -16 -23 -37 -24 -62 l-1 -38 60 -6 c33 -4 71 -4 84
-1 21 4 23 9 18 44 -11 81 -87 116 -137 63z"/>
<path d="M9865 8047 c-48 -27 -99 -100 -120 -170 -13 -43 -45 -413 -45 -519 0
-33 18 -36 50 -10 18 14 25 34 31 85 11 91 28 120 91 151 61 31 80 32 119 9
47 -28 79 -104 79 -187 0 -68 1 -72 32 -98 20 -16 42 -50 58 -90 l25 -63 62
-3 c52 -2 62 0 57 12 -3 9 -25 18 -50 22 l-45 6 3 342 c3 379 2 389 -60 458
-52 58 -98 78 -179 78 -52 0 -78 -6 -108 -23z"/>
<path d="M8894 8001 c-77 -36 -104 -100 -104 -254 l0 -98 30 16 c63 33 148 7
179 -54 10 -20 22 -55 26 -79 7 -41 8 -43 38 -40 l32 3 0 212 c0 198 -1 213
-21 239 -50 68 -113 87 -180 55z"/>
<path d="M10913 7990 c-60 -40 -79 -124 -85 -365 l-3 -130 100 -6 c55 -4 118
-9 140 -13 22 -3 46 -2 53 3 10 6 16 59 23 201 9 186 9 194 -12 236 -28 58
-69 87 -133 91 -39 3 -58 -1 -83 -17z"/>
<path d="M8813 7640 c-43 -26 -59 -52 -79 -134 -11 -45 -29 -83 -50 -110 -64
-79 -68 -92 -69 -208 0 -77 3 -108 11 -108 15 0 24 23 24 66 0 19 4 34 8 34
19 0 42 -38 42 -68 0 -17 5 -34 10 -37 6 -3 10 3 10 14 0 27 7 26 53 -9 31
-23 44 -27 62 -20 35 13 97 54 119 79 11 11 22 21 26 21 4 0 10 -30 14 -67 9
-86 3 -92 -107 -100 -53 -4 -84 -10 -80 -16 6 -10 155 -4 184 7 12 5 23 -10
48 -64 18 -39 36 -92 40 -118 l8 -47 13 28 c12 25 10 35 -38 135 -49 101 -52
111 -53 193 -1 68 2 93 17 118 22 37 32 39 39 9 22 -98 35 -180 35 -220 0 -48
16 -98 32 -98 15 0 8 118 -12 205 -11 47 -20 107 -20 133 0 44 -3 50 -51 92
l-51 45 -2 98 -1 99 -37 34 c-45 40 -94 45 -145 14z m119 -37 c39 -35 11 -75
-64 -88 -73 -14 -102 8 -82 60 15 39 113 58 146 28z m31 -135 l-9 -33 -17 30
c-26 47 -20 20 8 -35 32 -63 32 -83 0 -47 -14 15 -25 24 -25 19 0 -20 37 -50
82 -66 26 -10 50 -21 52 -25 5 -7 -63 -112 -97 -150 -29 -32 -122 -91 -142
-91 -21 0 -142 115 -161 152 -13 24 -12 33 1 65 9 21 32 54 52 75 20 21 42 58
52 89 l18 53 49 -2 c31 -1 64 5 89 16 39 19 40 19 49 1 5 -11 5 -32 -1 -51z"/>
<path d="M8848 7427 c-5 -10 -8 -44 -7 -75 l1 -57 9 45 c11 54 8 116 -3 87z"/>
<path d="M8791 7420 c0 -3 -5 -21 -11 -40 -9 -31 -8 -33 6 -18 9 9 14 26 11
39 -2 13 -5 22 -6 19z"/>
<path d="M8701 7317 c-1 -27 24 -80 45 -97 19 -14 19 -14 1 7 -10 12 -25 41
-32 65 -8 24 -14 35 -14 25z"/>
<path d="M8928 7291 c-59 -37 -74 -61 -19 -31 37 21 82 60 70 60 -3 0 -26 -13
-51 -29z"/>
<path d="M8889 7205 c-33 -47 -60 -60 -98 -47 -31 11 -45 0 -15 -12 51 -20
110 8 139 65 21 40 3 36 -26 -6z"/>
<path d="M10530 7543 c-34 -31 -49 -79 -50 -165 0 -46 -2 -49 -55 -88 -30 -22
-59 -48 -64 -58 -5 -9 -23 -73 -41 -142 -42 -164 -58 -390 -30 -430 9 -14 28
-27 41 -29 13 -1 27 -8 31 -15 13 -20 8 -149 -7 -200 -24 -79 -20 -112 15
-133 30 -18 38 -37 20 -48 -16 -10 -12 -68 6 -95 24 -36 44 -50 71 -50 21 0
22 -3 16 -27 -14 -50 -8 -104 12 -119 23 -17 96 -18 116 -1 24 19 42 108 29
141 -5 15 -7 45 -4 67 l7 39 -60 0 c-32 0 -64 5 -71 12 -7 7 -13 49 -14 108
l-2 95 -6 -75 c-4 -41 -7 -63 -8 -48 -1 14 -20 84 -42 155 -59 185 -63 293
-18 481 13 55 23 65 33 31 15 -46 14 -7 -1 57 -32 134 -32 134 -33 49 -1 -45
-8 -108 -17 -140 -9 -33 -18 -71 -21 -85 -10 -59 -14 -68 -28 -74 -55 -21 -59
55 -14 247 52 223 51 219 88 241 l34 20 16 -25 c9 -13 30 -39 46 -57 52 -58
148 -54 220 9 l33 30 13 -58 c7 -32 13 -133 13 -226 l1 -168 24 27 c23 28 23
31 18 179 -7 193 -23 260 -72 301 -36 30 -37 31 -30 85 9 69 -7 130 -44 171
-23 26 -37 32 -83 36 -50 4 -58 2 -88 -25z m149 -38 c28 -27 42 -94 32 -150
-8 -43 -8 -43 -34 25 -5 13 -6 13 -6 -1 -1 -9 10 -36 23 -61 l24 -46 -33 -18
c-19 -10 -33 -20 -31 -22 2 -2 18 4 35 12 41 22 71 21 71 -2 0 -39 -70 -83
-135 -85 -53 -2 -86 20 -123 82 -23 40 -24 43 -5 33 11 -6 32 -26 46 -45 14
-19 35 -37 45 -39 12 -3 -4 18 -38 51 l-57 57 33 38 c26 30 34 48 33 75 l-1
36 -8 -38 c-4 -21 -12 -43 -19 -50 -18 -18 -14 98 5 134 27 53 95 60 143 14z
m-318 -785 c-2 -8 -5 -24 -7 -35 -1 -11 -3 -21 -3 -23 -1 -1 -10 2 -21 8 -19
10 -27 49 -13 64 13 13 48 1 44 -14z m92 -375 c6 -30 8 -57 5 -60 -7 -8 -60
18 -76 37 -8 11 -8 26 3 63 8 26 15 60 16 74 1 23 3 21 21 -17 10 -24 24 -68
31 -97z m20 -112 c20 -35 14 -63 -14 -63 -14 0 -19 7 -19 28 0 15 -3 38 -7 51
-9 33 17 23 40 -16z m-12 -73 c33 0 35 -16 5 -34 -14 -9 -21 -6 -37 13 -19 23
-26 71 -11 85 4 4 8 -8 10 -28 3 -33 6 -36 33 -36z m131 -45 c-3 -44 -8 -55
-24 -61 -30 -9 -38 6 -31 64 5 48 8 52 32 52 25 0 26 -2 23 -55z m8 -87 c0
-54 -57 -80 -80 -38 -19 35 -5 55 40 56 33 1 40 -2 40 -18z"/>
<path d="M10609 7395 c-4 -5 -9 -30 -13 -55 l-6 -45 16 34 c14 31 17 88 3 66z"/>
<path d="M11210 7542 c-44 -21 -68 -69 -78 -154 -7 -57 -12 -68 -50 -106 -50
-50 -82 -110 -82 -155 0 -32 2 -33 34 -33 34 1 34 2 20 23 -21 33 -17 59 15
95 l30 33 21 -23 c29 -30 38 -20 12 12 l-20 26 39 39 c39 38 40 41 37 104 -3
78 17 117 60 117 56 0 111 -88 112 -179 0 -44 -24 -6 -36 57 l-12 57 -1 -50
c-1 -51 25 -110 55 -128 26 -15 14 -37 -47 -82 -36 -27 -54 -45 -44 -45 10 0
43 19 73 42 l54 42 19 -23 c26 -32 24 -68 -7 -112 -41 -60 -96 -92 -165 -97
-32 -2 -56 -8 -53 -13 8 -14 74 -10 119 6 22 8 41 15 43 15 1 0 -2 -9 -8 -20
-6 -11 -25 -22 -48 -25 -74 -13 -91 -25 -26 -20 l61 4 18 -39 c15 -34 17 -56
11 -157 -4 -65 -11 -134 -16 -153 -17 -67 -5 -180 26 -242 22 -45 25 -61 16
-70 -16 -16 -22 -8 -38 54 l-13 53 4 -55 c3 -30 8 -68 11 -84 7 -28 6 -29 -23
-23 -28 5 -31 3 -36 -21 -3 -15 -1 -32 3 -37 11 -14 16 -127 7 -142 -5 -7 -19
-13 -33 -13 -15 0 -24 -6 -24 -15 0 -25 65 -19 90 8 17 17 20 29 15 57 -8 42
-8 36 -6 83 1 25 6 37 16 37 8 0 22 15 30 33 8 17 24 47 36 64 l21 33 -32 55
c-40 71 -47 132 -26 261 9 56 16 129 16 162 0 55 3 63 26 78 14 10 39 37 55
61 l31 44 -22 47 c-13 26 -25 76 -28 112 -4 51 -11 74 -34 106 -22 30 -32 62
-43 128 -15 93 -38 137 -83 160 -49 25 -67 26 -102 8z m249 -499 c16 -81 14
-91 -18 -124 -37 -36 -56 -37 -75 -2 -12 23 -12 33 1 68 15 42 61 115 73 115
4 0 12 -26 19 -57z"/>
<path d="M11230 7409 c0 -36 -7 -65 -20 -86 -22 -36 -13 -44 15 -14 13 15 17
36 16 82 0 34 -3 64 -6 67 -3 3 -5 -19 -5 -49z"/>
<path d="M11112 7141 c20 -32 89 -71 128 -71 35 0 74 20 97 50 25 30 12 31
-22 1 -54 -47 -127 -40 -179 18 -24 26 -40 28 -24 2z"/>
<path d="M10049 7111 c-7 -22 -8 -48 -4 -58 7 -14 10 -9 15 22 4 22 10 48 15
58 4 10 3 17 -4 17 -5 0 -15 -18 -22 -39z"/>
<path d="M10741 7094 c-34 -127 -38 -159 -25 -172 18 -16 18 -58 -2 -258 -8
-90 -14 -189 -12 -221 l3 -58 13 40 c7 22 15 73 19 113 3 40 10 75 14 78 15 9
10 44 -5 44 -9 0 -12 7 -9 20 3 11 12 20 19 20 8 0 14 5 14 10 0 6 -6 10 -14
10 -11 0 -13 14 -9 64 3 35 0 93 -6 129 -10 55 -9 78 5 137 17 75 13 110 -5
44z"/>
<path d="M10882 7094 c4 -25 59 -31 78 -10 10 13 10 16 -3 16 -8 0 -29 3 -47
6 -28 6 -32 4 -28 -12z"/>
<path d="M9909 7020 c-55 -45 -73 -90 -65 -166 7 -65 3 -73 -42 -106 -19 -14
-29 -41 -68 -181 -32 -118 -32 -176 2 -216 14 -17 31 -31 38 -31 11 0 10 -10
0 -51 -9 -34 -13 -115 -13 -248 0 -108 -2 -228 -6 -266 -8 -83 2 -116 44 -141
16 -10 38 -33 48 -52 18 -34 58 -62 88 -62 13 0 15 -7 10 -44 -6 -38 -4 -46
13 -55 33 -18 107 -14 124 7 22 25 28 59 16 93 -9 26 -7 34 13 56 13 14 41 34
62 44 21 11 40 26 43 34 3 8 -2 70 -11 138 -15 115 -15 129 0 203 19 88 23
246 7 312 -9 40 -9 42 14 48 14 4 32 20 40 36 16 32 16 63 -4 173 -6 33 -14
81 -17 106 -6 48 -38 91 -100 135 -26 18 -30 28 -35 91 -8 83 -32 123 -90 153
-52 27 -69 25 -111 -10z m134 -48 c35 -34 37 -39 37 -101 0 -51 -3 -62 -12
-53 -7 7 -15 33 -19 60 l-8 47 4 -45 c2 -25 6 -57 10 -72 6 -23 3 -29 -19 -39
-39 -18 -56 2 -56 65 -1 41 -3 48 -11 32 -13 -21 -6 -81 12 -102 15 -19 41
-18 77 3 29 17 31 17 52 -2 21 -19 23 -42 6 -90 -8 -20 -7 -20 8 -1 9 11 16
28 16 38 0 21 18 24 26 4 8 -20 -73 -172 -104 -196 -44 -35 -74 -26 -139 38
-32 32 -71 78 -88 102 l-29 42 35 32 c20 17 43 49 51 71 9 22 23 58 32 80 l16
40 -7 -45 c-3 -25 -10 -56 -15 -69 -5 -13 -7 -26 -4 -28 7 -7 26 59 33 115 7
66 -6 64 -32 -5 -25 -69 -35 -74 -35 -20 0 55 18 96 56 126 34 27 57 21 107
-27z m172 -361 c4 -31 13 -81 21 -112 18 -73 18 -82 -5 -110 -19 -23 -20 -23
-55 -7 -34 17 -35 18 -21 45 10 19 14 55 13 113 -2 76 -2 78 -5 20 -7 -161
-16 -170 -166 -170 -145 0 -147 1 -147 98 0 42 -4 83 -8 90 -5 7 -7 -29 -6
-80 1 -66 -2 -99 -12 -115 -18 -29 -59 -30 -74 -4 -12 24 -13 81 0 101 7 12
10 11 17 -7 5 -14 8 10 8 65 0 53 5 96 13 110 13 22 15 20 100 -68 80 -82 90
-90 125 -90 49 0 70 22 127 128 51 94 64 93 75 -7z m-52 -281 c29 -85 32 -166
12 -296 -17 -114 -17 -188 1 -331 6 -50 5 -53 -20 -65 -35 -15 -46 -1 -46 60
0 23 -5 42 -11 42 -7 0 -8 -16 -3 -47 13 -78 11 -107 -7 -111 -14 -2 -19 11
-27 70 l-11 73 6 -87 5 -87 -54 6 c-77 8 -81 14 -81 140 l1 108 -10 -75 c-5
-41 -7 -87 -5 -102 2 -16 -1 -28 -6 -28 -6 0 0 -11 13 -25 13 -14 21 -28 17
-31 -12 -13 -48 9 -63 38 -12 24 -13 30 -3 26 12 -5 13 30 11 195 -2 110 -5
198 -7 195 -2 -2 -5 -83 -6 -180 0 -96 -4 -180 -8 -186 -11 -18 -69 23 -77 54
-4 14 -1 67 7 117 7 51 14 178 14 282 1 169 3 196 22 240 l21 50 130 0 c72 0
134 4 138 8 15 15 29 -1 47 -53z m-135 -786 c16 -5 22 -14 22 -35 0 -16 5 -29
11 -29 6 0 9 -12 7 -27 -3 -24 -8 -29 -37 -31 -18 -2 -38 1 -43 6 -9 9 0 122
11 122 3 0 16 -3 29 -6z"/>
<path d="M9885 6688 c7 -18 68 -58 87 -58 9 0 21 6 27 14 9 11 6 12 -14 9 -17
-4 -34 3 -55 21 -34 28 -52 34 -45 14z"/>
<path d="M10044 6645 c-49 -56 -49 -56 -78 -40 -39 20 -46 18 -17 -5 35 -30
62 -25 96 17 46 57 57 74 53 79 -3 2 -27 -21 -54 -51z"/>
<path d="M10947 7033 c-30 -34 -48 -108 -38 -154 12 -54 0 -84 -44 -110 -20
-12 -40 -30 -46 -41 -17 -32 -59 -216 -69 -300 -5 -42 -17 -92 -26 -110 -16
-30 -25 -66 -41 -155 -4 -28 -1 -35 35 -60 38 -26 41 -32 48 -92 3 -35 4 -131
2 -213 -3 -82 -1 -151 4 -154 4 -3 8 -23 8 -46 0 -35 6 -46 43 -79 23 -22 52
-42 64 -45 28 -7 63 12 63 35 0 20 19 31 51 31 23 0 26 -37 4 -66 -38 -50 -7
-94 65 -94 70 0 104 15 97 43 -30 119 -30 112 -3 152 14 21 37 48 51 61 29 27
31 50 9 102 -23 52 -21 161 5 320 13 82 19 150 16 176 -6 36 -2 49 19 81 29
42 30 58 17 285 l-7 125 -46 68 c-26 38 -50 83 -52 100 -3 18 -8 48 -11 68 -3
20 -17 49 -32 63 -23 23 -33 26 -98 26 -56 0 -75 -4 -88 -17z m144 -26 c26
-17 34 -30 34 -52 0 -34 -29 -46 -83 -34 -75 16 -104 62 -60 93 32 22 69 20
109 -7z m-4 -99 c46 0 53 -2 53 -19 0 -32 27 -87 65 -133 48 -59 62 -100 42
-129 -29 -44 -128 -137 -153 -143 -14 -4 -37 -1 -50 5 -42 19 -125 103 -149
151 -13 26 -31 52 -39 59 -23 19 -6 36 50 51 42 12 84 49 84 74 0 6 -9 -4 -20
-21 -18 -31 -40 -44 -40 -25 0 5 14 35 31 68 17 32 23 50 15 40 -9 -11 -16
-25 -16 -30 -1 -27 -20 22 -20 50 0 43 7 46 53 22 27 -13 60 -20 94 -20z
m-201 -281 c27 -65 166 -173 204 -159 8 3 29 16 46 29 39 29 42 29 47 -4 3
-23 4 -22 6 8 1 34 32 89 50 89 8 0 23 -120 24 -188 0 -34 -30 -85 -54 -90
-23 -4 -42 53 -35 106 4 39 4 42 -5 21 -12 -32 -33 -39 -115 -39 -104 0 -155
10 -164 34 -7 17 -9 18 -9 4 -2 -34 -102 -217 -116 -212 -20 8 -26 -76 -7 -98
19 -22 4 -23 -26 -2 -27 19 -27 29 -2 76 11 21 15 40 10 43 -5 3 1 34 15 73
13 37 34 119 45 182 29 157 40 193 56 179 7 -5 20 -29 30 -52z m167 -242 l99
0 24 -59 c36 -88 37 -111 15 -249 -25 -153 -26 -249 -5 -335 15 -59 15 -65 0
-80 -10 -10 -19 -13 -25 -7 -16 18 -34 110 -41 205 l-7 95 -2 -80 c-1 -55 5
-106 21 -166 27 -105 22 -124 -30 -114 -32 5 -35 5 -21 -7 14 -10 49 -134 49
-169 0 -10 -70 -12 -94 -3 -13 5 -14 10 -4 27 10 17 29 157 22 157 -1 0 -18
-7 -37 -15 -82 -34 -112 -11 -127 97 -8 62 -9 62 -7 10 1 -34 -2 -52 -10 -52
-20 0 -28 22 -34 90 l-6 65 -1 -62 c-1 -43 -6 -63 -14 -63 -10 0 -13 65 -13
293 l0 292 38 73 38 74 37 -8 c20 -5 81 -8 135 -9z m-138 -837 c4 -15 4 -32 0
-38 -9 -14 -62 18 -86 52 -25 35 -25 57 1 33 18 -17 19 -16 26 11 l7 28 23
-30 c13 -16 26 -41 29 -56z"/>
<path d="M11100 6825 c0 -21 29 -89 35 -83 5 5 -24 98 -31 98 -2 0 -4 -7 -4
-15z"/>
<path d="M11052 6785 c0 -27 4 -61 8 -75 6 -20 8 -17 8 20 0 25 -4 59 -8 75
-7 26 -8 23 -8 -20z"/>
<path d="M11191 6715 c0 -17 -13 -48 -28 -70 -21 -32 -22 -36 -6 -22 28 24 46
69 40 99 -4 19 -5 18 -6 -7z"/>
<path d="M10950 6699 c46 -37 71 -52 76 -46 7 7 -74 67 -90 67 -6 0 0 -10 14
-21z"/>
<path d="M10971 6656 c-2 -20 43 -84 69 -99 35 -21 60 -21 86 -2 17 13 15 14
-27 9 -48 -7 -59 1 -111 76 -9 14 -17 21 -17 16z"/>
<path d="M10893 6520 c0 -30 2 -43 4 -27 2 15 2 39 0 55 -2 15 -4 2 -4 -28z"/>
<path d="M10861 5854 c0 -11 3 -14 6 -6 3 7 2 16 -1 19 -3 4 -6 -2 -5 -13z"/>
<path d="M10873 5795 c0 -22 2 -30 4 -17 2 12 2 30 0 40 -3 9 -5 -1 -4 -23z"/>
<path d="M9234 7021 c-41 -25 -64 -78 -73 -167 -6 -67 -10 -77 -43 -112 -51
-52 -68 -140 -68 -353 0 -176 17 -263 53 -275 41 -13 48 -112 21 -277 -19
-113 -12 -147 31 -147 14 0 25 -5 25 -12 0 -6 15 -24 32 -38 l32 -27 -12 -51
c-15 -55 -8 -115 15 -137 19 -20 83 -19 112 1 21 15 23 23 19 76 -4 57 -4 59
18 54 32 -8 51 1 74 39 22 36 26 76 9 107 -10 18 -6 25 27 53 l38 32 -12 54
c-17 70 -27 199 -18 233 5 20 12 26 35 26 16 0 34 6 40 14 31 37 29 222 -4
366 -13 58 -27 128 -30 155 -6 45 -13 56 -66 105 l-59 56 0 59 c-1 141 -100
225 -196 166z m123 -35 c25 -22 28 -31 31 -102 3 -73 2 -77 -13 -60 -8 11 -15
27 -15 35 0 9 -5 23 -11 31 -8 11 -9 8 -4 -15 3 -16 19 -49 35 -72 l29 -41
-54 -51 c-30 -28 -49 -51 -44 -51 5 0 32 21 59 46 63 59 69 34 7 -31 -38 -39
-49 -45 -85 -45 -52 0 -90 14 -124 48 -53 50 -26 77 42 42 55 -28 62 -20 9 9
-36 21 -39 25 -26 40 22 25 47 78 46 98 0 10 -5 4 -10 -13 -5 -17 -16 -37 -24
-44 -13 -11 -15 -6 -15 35 0 73 19 125 54 146 42 26 79 24 113 -5z m119 -271
c30 -20 40 -50 74 -222 33 -167 39 -260 16 -269 -12 -4 -12 -10 1 -35 12 -24
12 -33 3 -44 -17 -21 -40 -19 -40 3 0 10 -5 23 -11 29 -7 7 -5 15 6 27 12 12
13 16 3 16 -17 0 -58 207 -60 300 l0 65 -8 -50 c-4 -28 -15 -65 -24 -82 -21
-42 -20 -54 3 -24 l18 24 22 -114 c19 -102 20 -125 11 -217 -7 -65 -21 -129
-37 -170 -29 -77 -61 -186 -64 -222 -2 -14 -5 9 -9 50 l-6 75 -2 -97 -2 -98
-68 0 c-40 0 -73 5 -80 12 -8 8 -13 58 -14 148 -2 119 -3 123 -5 35 -2 -55 -5
-110 -8 -122 -6 -27 -27 -30 -45 -8 -11 13 -10 28 3 84 20 80 21 197 6 395 -9
122 -8 144 7 186 13 36 15 55 7 86 l-10 39 -1 -50 c-1 -27 -6 -66 -12 -85 -5
-19 -10 -70 -10 -112 0 -79 -6 -90 -39 -69 -19 12 -26 202 -12 331 18 155 35
198 61 150 12 -23 60 -50 110 -61 50 -11 111 18 146 70 29 45 39 48 70 26z
m-326 -560 c0 -25 -23 -35 -35 -15 -10 16 2 40 20 40 9 0 15 -9 15 -25z m330
-267 c4 -24 11 -57 15 -74 6 -28 4 -32 -28 -47 -46 -22 -57 -21 -57 6 0 27 51
170 58 162 3 -2 8 -24 12 -47z m-52 -195 c-2 -36 -7 -49 -21 -51 -25 -5 -30
19 -12 61 21 52 37 47 33 -10z m32 -23 c0 -33 -29 -80 -49 -80 -10 0 -24 7
-31 15 -13 16 -7 20 35 27 13 2 21 12 23 31 4 31 22 37 22 7z m-136 -36 c11
-28 6 -102 -6 -107 -8 -4 -7 -6 3 -6 30 -2 41 -64 13 -75 -25 -9 -52 -7 -60 5
-4 6 -10 27 -14 45 -8 33 -7 34 19 28 22 -4 23 -4 9 6 -14 8 -18 24 -18 65 0
51 2 55 24 55 13 0 27 -7 30 -16z"/>
<path d="M9291 6850 c0 -19 4 -42 9 -50 8 -12 10 -10 9 10 -1 14 -5 36 -9 50
-7 23 -8 22 -9 -10z"/>
<path d="M9142 6580 c0 -14 3 -34 8 -45 l9 -20 -1 20 c0 11 -4 31 -8 45 l-8
25 0 -25z"/>
<path d="M10668 6470 c-4 -30 -7 -91 -7 -135 l2 -80 9 70 c5 39 7 99 6 135
l-3 65 -7 -55z"/>
<path d="M8997 6430 c-4 -14 -9 -61 -12 -105 l-4 -80 14 80 c8 44 14 91 12
105 l-2 25 -8 -25z"/>
<path d="M9666 6320 c-17 -112 -17 -119 4 -140 11 -11 29 -20 40 -20 28 0 27
36 -1 43 -20 5 -21 10 -15 59 5 39 3 58 -8 73 -14 19 -14 18 -20 -15z"/>
<path d="M9963 7445 c2 -39 11 -86 20 -105 17 -35 17 -35 12 -5 -16 97 -17
100 -6 85 19 -27 13 10 -9 55 l-20 40 3 -70z"/>
<path d="M9811 7244 c-1 -13 49 -83 72 -103 14 -11 22 -11 47 -1 44 18 46 30
4 17 -40 -12 -40 -11 -101 69 -12 16 -22 24 -22 18z"/>
<path d="M9975 7225 c-23 -19 -37 -24 -59 -19 -19 4 -26 3 -22 -5 14 -22 71
-12 106 19 43 36 18 40 -25 5z"/>
<path d="M8666 6927 c-11 -49 -1 -106 20 -126 15 -15 16 -14 9 4 -5 11 -11 52
-15 90 -6 67 -6 68 -14 32z"/>
<path d="M8735 6613 c-59 -41 -101 -40 -145 2 -32 30 -45 32 -29 4 6 -11 30
-29 53 -40 53 -23 94 -14 151 36 51 44 35 43 -30 -2z"/>
<path d="M9505 1661 c-6 -10 65 -64 74 -56 5 6 -49 65 -60 65 -4 0 -10 -4 -14
-9z"/>
<path d="M9388 1595 c-3 -3 17 -47 44 -98 50 -93 103 -166 113 -155 12 12
-126 258 -144 258 -4 0 -10 -2 -13 -5z"/>
<path d="M7641 1260 c-25 -59 -39 -120 -23 -105 11 11 62 129 62 145 0 25 -19
6 -39 -40z"/>
</g>
</svg>
