<?xml version="1.0" standalone="no"?>
<!DOCTYPE svg PUBLIC "-//W3C//DTD SVG 20010904//EN"
 "http://www.w3.org/TR/2001/REC-SVG-20010904/DTD/svg10.dtd">
<svg version="1.0" xmlns="http://www.w3.org/2000/svg"
 width="1295.000000pt" height="1294.000000pt" viewBox="0 0 1295.000000 1294.000000"
 preserveAspectRatio="xMidYMid meet">
<metadata>
Created by potrace 1.16, written by Peter Selinger 2001-2019
</metadata>
<g transform="translate(0.000000,1294.000000) scale(0.100000,-0.100000)"
fill="#000000" stroke="none">
<path d="M0 6470 l0 -6470 6475 0 6475 0 0 6470 0 6470 -6475 0 -6475 0 0
-6470z m6975 6097 c17 -3 66 -8 110 -12 44 -3 132 -13 195 -21 1555 -198 2950
-964 3965 -2179 506 -605 902 -1335 1140 -2100 142 -455 236 -971 263 -1430
18 -329 1 -952 -32 -1155 -3 -14 -12 -77 -21 -140 -62 -445 -185 -910 -364
-1371 l-41 -106 -40 4 c-24 2 -40 0 -40 -6 0 -6 -9 -11 -19 -11 -11 0 -22 -4
-26 -10 -3 -5 -11 -7 -19 -4 -16 6 -66 -64 -66 -94 0 -12 -4 -22 -10 -22 -5 0
-10 4 -10 9 0 10 -36 23 -70 25 -14 0 -40 -9 -58 -22 -24 -17 -33 -20 -37 -10
-6 20 -14 505 -8 528 3 11 11 20 18 20 16 0 25 45 25 126 0 35 3 64 8 64 4 0
30 -25 57 -55 28 -30 55 -55 62 -55 6 0 15 -10 18 -21 4 -12 19 -34 34 -48 15
-15 30 -34 34 -44 11 -30 27 -19 29 21 4 86 -2 136 -17 144 -8 5 -15 18 -15
29 0 22 -22 49 -39 49 -6 0 -11 5 -11 10 0 13 37 13 45 0 3 -5 19 -10 35 -10
16 0 31 -4 34 -9 3 -5 22 -12 41 -15 20 -4 39 -14 42 -22 3 -7 10 -14 17 -14
6 0 17 -9 24 -20 18 -29 32 -25 32 9 0 49 -12 91 -26 91 -8 0 -14 9 -14 19 0
10 -7 22 -16 25 -38 15 -45 1 -15 -30 10 -11 22 -30 25 -41 6 -18 3 -20 -14
-16 -11 3 -23 9 -26 14 -3 5 -15 9 -28 9 -12 0 -32 9 -43 19 -22 21 -29 23
-108 23 -27 0 -42 3 -32 5 9 2 17 9 17 14 0 5 24 7 58 4 l57 -6 -34 15 c-18 9
-42 16 -52 16 -11 0 -19 5 -19 11 0 12 92 1 100 -11 6 -9 80 -25 80 -17 0 19
-15 37 -30 37 -28 0 -87 28 -70 33 38 11 169 31 203 30 44 -1 47 13 10 47 -42
38 -138 76 -157 61 -6 -4 -22 -5 -36 -2 -24 7 -23 7 12 24 20 9 38 21 40 26 4
10 84 61 97 61 6 0 21 11 35 23 28 27 19 47 -20 47 -13 0 -25 4 -28 9 -6 10
-63 8 -73 -3 -3 -3 -17 -6 -29 -6 -13 0 -26 -4 -29 -10 -7 -11 65 -11 80 1 6
4 19 1 30 -7 20 -15 20 -15 0 -29 -11 -8 -25 -19 -32 -25 -7 -5 -19 -10 -28
-10 -8 0 -15 -4 -15 -10 0 -5 -8 -10 -19 -10 -10 0 -30 -11 -45 -25 -27 -25
-47 -31 -59 -19 -6 6 16 34 27 34 13 0 156 74 156 81 0 4 -22 0 -50 -9 -27 -9
-50 -19 -50 -24 0 -4 -6 -8 -12 -8 -7 0 -24 -9 -38 -20 -14 -11 -33 -20 -42
-20 -10 0 -18 -4 -18 -8 0 -5 -29 -38 -65 -75 -73 -74 -88 -74 -23 0 65 75
119 123 139 123 11 0 19 5 19 11 0 7 8 18 18 25 15 12 15 13 1 14 -29 0 -109
-48 -109 -66 0 -7 -7 -14 -15 -18 -8 -3 -15 -2 -15 3 0 5 7 14 15 21 8 7 15
21 15 32 0 10 7 21 16 25 8 3 13 11 10 18 -2 7 4 22 14 32 9 11 21 29 24 41 4
12 12 22 17 22 5 0 9 9 9 19 0 10 7 22 16 25 10 4 13 13 9 25 -3 11 -1 22 5
26 5 3 10 13 10 21 0 11 -6 13 -22 8 -13 -4 -31 -7 -40 -6 -10 0 -20 -3 -23
-9 -4 -5 -15 -9 -25 -9 -11 0 -27 -11 -36 -25 -9 -13 -24 -27 -34 -30 -10 -3
-23 -19 -30 -35 -7 -16 -16 -27 -21 -24 -5 3 -9 -1 -9 -9 0 -8 -13 -41 -30
-74 -23 -45 -29 -53 -30 -33 0 14 -9 50 -20 80 -11 30 -20 61 -20 68 0 7 -11
28 -25 46 -14 18 -25 38 -25 44 0 7 -7 12 -15 12 -8 0 -19 9 -25 20 -6 11 -17
20 -24 20 -8 0 -19 7 -26 15 -7 8 -21 15 -31 15 -15 0 -17 -7 -14 -51 2 -28 8
-56 13 -62 5 -7 13 -30 17 -52 4 -22 12 -46 18 -53 6 -8 12 -36 14 -64 1 -27
10 -59 18 -71 8 -12 15 -27 15 -34 0 -19 -30 -3 -30 16 -1 19 -23 51 -36 51
-5 0 -16 9 -24 20 -8 11 -18 20 -22 20 -4 0 -17 9 -28 20 -11 11 -27 20 -35
20 -9 0 -25 9 -37 20 -12 10 -25 17 -30 14 -5 -3 -16 0 -24 7 -13 10 -20 10
-36 0 -17 -11 -22 -10 -29 1 -7 10 -12 11 -29 0 -11 -6 -27 -12 -35 -12 -27 0
-16 -24 25 -54 22 -17 40 -36 40 -43 0 -7 5 -13 10 -13 6 0 23 -12 39 -27 16
-16 52 -48 80 -72 28 -25 49 -46 47 -48 -2 -2 -16 2 -32 8 -47 19 -57 22 -103
23 -65 2 -64 -20 1 -26 53 -5 178 -55 178 -71 0 -5 -8 -6 -17 -2 -44 17 -123
17 -160 1 -21 -10 -55 -25 -75 -34 -21 -9 -38 -22 -38 -27 0 -6 -9 -17 -19
-24 -11 -8 -17 -20 -14 -27 3 -8 -2 -17 -11 -20 -17 -7 -23 -54 -6 -54 6 0 10
5 10 10 0 6 10 10 23 10 13 0 27 4 33 10 9 9 97 22 141 21 12 0 24 3 27 8 6 9
76 -10 76 -20 0 -3 -19 -12 -42 -20 -58 -19 -148 -120 -148 -168 0 -10 -3 -21
-7 -25 -10 -10 -13 -85 -3 -91 4 -3 15 6 24 20 9 14 23 25 31 25 8 0 15 7 15
15 0 8 9 15 20 15 13 0 22 9 26 25 3 14 11 25 18 25 8 0 10 -25 8 -82 -2 -69
-1 -79 9 -63 7 11 21 26 31 33 10 7 18 20 18 28 0 8 6 17 14 20 8 3 17 16 20
30 4 13 13 24 20 24 8 0 17 11 20 25 4 14 13 25 21 25 8 0 15 4 15 8 0 5 7 17
15 28 14 17 15 13 12 -49 -2 -37 0 -70 5 -73 4 -3 8 -13 8 -24 0 -10 6 -20 13
-23 11 -4 13 -37 10 -153 -4 -196 -10 -415 -12 -436 0 -10 -14 -24 -31 -33
-18 -9 -30 -23 -30 -35 0 -11 -5 -20 -11 -20 -7 0 -8 -11 -4 -31 7 -30 6 -31
-17 -26 -13 4 -36 0 -52 -8 -16 -8 -32 -15 -36 -15 -4 0 -13 34 -20 75 -9 50
-17 75 -26 75 -8 0 -14 5 -14 11 0 7 -10 9 -25 7 -17 -4 -25 -1 -25 8 0 8 -6
14 -14 14 -8 0 -17 9 -21 19 -6 19 -55 36 -55 20 0 -5 -9 -9 -20 -9 -11 0 -23
-7 -26 -15 -4 -8 -10 -13 -14 -10 -5 3 -21 -11 -36 -30 -17 -23 -30 -32 -38
-26 -21 16 -67 19 -73 5 -3 -8 -9 -14 -15 -14 -23 0 -36 -28 -32 -66 5 -45 5
-51 1 -83 -3 -19 -10 -24 -43 -27 -76 -7 -89 -11 -92 -27 -2 -9 -8 -17 -14
-17 -5 0 -8 -7 -5 -15 4 -8 2 -17 -3 -20 -13 -8 -4 -93 11 -111 9 -11 7 -14
-15 -14 -34 0 -106 -31 -106 -47 0 -6 -5 -13 -12 -15 -14 -5 -19 -78 -5 -78 5
0 7 -9 4 -21 -3 -12 0 -22 9 -26 27 -10 14 -20 -48 -37 -61 -17 -102 -30 -143
-46 -63 -25 -152 -51 -240 -70 -101 -21 -160 -36 -205 -50 -14 -5 -38 -11 -55
-15 -26 -5 -57 -16 -160 -55 -63 -24 -127 -41 -220 -59 -27 -5 -66 -14 -85
-19 -75 -22 -148 -40 -225 -57 -84 -19 -118 -35 -72 -35 15 0 27 4 27 9 0 4
28 12 61 15 34 4 105 18 158 32 53 13 107 22 119 19 13 -3 29 -2 35 3 7 5 37
17 67 26 30 10 64 21 75 26 11 4 40 13 65 20 25 7 68 21 95 31 28 10 84 28
125 38 41 11 89 25 105 31 17 7 53 14 81 15 44 2 125 26 184 55 8 4 40 12 70
19 30 7 64 17 75 22 11 5 67 22 125 38 58 16 128 36 155 44 28 8 88 20 135 27
81 11 215 43 325 78 28 8 84 21 125 28 41 7 137 22 212 35 76 12 140 20 143
17 14 -13 -202 -363 -360 -584 -49 -70 -146 -197 -214 -282 -103 -129 -126
-152 -132 -136 -6 16 -8 14 -8 -9 -1 -32 -95 -141 -306 -352 -138 -139 -359
-343 -381 -352 -6 -2 -33 -25 -60 -50 -71 -66 -380 -296 -530 -395 -512 -336
-1049 -588 -1619 -758 -172 -51 -471 -123 -620 -150 -66 -11 -145 -25 -175
-31 -258 -46 -587 -71 -930 -73 -415 -1 -611 13 -990 70 -1161 176 -2236 681
-3130 1472 -188 165 -312 295 -304 315 3 9 16 18 28 18 18 1 18 2 3 6 -10 3
-27 -3 -37 -12 -17 -15 -24 -9 -133 107 -213 227 -422 491 -605 766 -144 214
-360 587 -349 599 3 3 50 0 104 -7 54 -6 155 -15 225 -20 70 -4 132 -11 137
-15 13 -7 257 -52 406 -74 135 -20 231 -39 293 -59 55 -18 82 -20 190 -16
l127 5 22 -35 c19 -32 20 -37 6 -45 -10 -5 -14 -15 -10 -25 5 -13 23 -16 96
-16 92 0 113 8 90 36 -19 23 -3 28 38 11 27 -10 59 -14 103 -10 70 5 142 -16
137 -40 -1 -7 10 -12 28 -12 17 -1 37 -4 45 -8 8 -3 49 -19 90 -34 67 -24 89
-27 200 -28 185 0 480 8 520 15 33 5 35 7 32 43 -3 36 -3 37 30 37 47 0 66 14
49 34 -12 14 -10 20 11 41 l25 25 264 -1 c379 0 814 -39 891 -80 10 -5 39 -9
65 -9 27 0 77 -9 112 -20 36 -11 67 -17 69 -15 6 5 -42 24 -81 32 -17 4 -25 9
-19 15 11 11 300 -15 462 -43 63 -10 131 -19 150 -19 19 0 59 -9 88 -19 29
-11 79 -22 110 -25 31 -2 46 -2 32 0 -14 3 -44 14 -67 25 -24 10 -76 24 -115
29 -137 19 -220 41 -208 55 6 7 8 20 4 29 -3 9 -1 16 5 16 6 0 11 7 11 15 0 8
7 15 15 15 8 0 15 9 15 19 0 11 5 21 10 23 13 4 -11 108 -25 108 -5 0 -21 9
-35 20 l-25 19 22 29 c12 16 22 38 21 48 0 11 3 27 7 37 4 11 3 17 -5 17 -7 0
-10 7 -6 15 7 18 -26 37 -74 42 -43 5 -47 9 -32 33 8 14 8 21 1 26 -8 4 -7 9
2 15 12 8 12 10 0 18 -7 5 -11 13 -8 18 4 6 -5 21 -18 33 -18 17 -25 19 -25 9
0 -12 -2 -11 -10 1 -9 13 -12 13 -21 -2 -14 -24 -27 -23 -31 3 -7 52 -82 70
-125 30 -10 -9 -26 -20 -35 -24 -10 -3 -18 -16 -18 -27 0 -11 -4 -20 -10 -20
-5 0 -10 -7 -10 -15 0 -18 -27 -20 -32 -4 -2 7 -21 14 -41 16 -28 3 -37 0 -37
-12 0 -8 -4 -15 -9 -15 -16 0 -21 91 -21 355 0 221 2 265 15 275 34 28 16 37
-92 49 -60 6 -148 14 -198 16 -49 2 -139 9 -200 14 -60 6 -116 10 -122 10 -8
1 -13 16 -13 41 0 29 5 42 20 50 12 6 20 21 20 35 0 21 -5 25 -32 27 -18 0
-40 1 -48 0 -8 -1 -81 5 -161 13 -80 8 -170 15 -201 15 -30 0 -79 4 -109 9
-30 6 -115 13 -189 16 -74 4 -157 10 -185 14 -45 5 -50 9 -58 38 -9 29 -6 36
22 69 46 52 34 60 -111 68 -68 3 -141 11 -163 16 -22 5 -77 10 -122 10 -45 0
-115 4 -155 10 -40 5 -109 12 -153 14 -44 2 -115 7 -157 11 -73 7 -78 7 -105
-18 -38 -36 -144 -120 -168 -133 -21 -11 -160 -12 -172 -1 -3 4 -6 21 -5 38 0
17 -7 43 -16 57 -10 15 -15 41 -13 68 1 25 -2 44 -8 44 -5 0 -9 21 -8 49 0 27
-4 56 -11 63 -6 8 -14 47 -16 87 -3 40 -10 79 -17 87 -6 7 -13 40 -16 71 -3
32 -9 62 -14 67 -5 6 -9 20 -9 32 0 13 -5 26 -10 29 -6 4 -8 16 -5 26 4 12 -1
31 -11 47 -19 29 -20 31 -30 77 -4 17 -12 37 -19 45 -6 8 -18 34 -25 58 -7 23
-18 41 -24 39 -15 -5 -44 -59 -45 -84 -1 -13 -6 -23 -12 -23 -6 0 -8 -8 -4
-19 3 -11 1 -22 -5 -26 -5 -3 -10 -19 -10 -36 0 -16 -4 -29 -10 -29 -5 0 -10
-18 -10 -39 0 -22 -5 -43 -10 -46 -5 -3 -10 -25 -10 -47 0 -24 -6 -45 -15 -52
-10 -7 -15 -32 -16 -76 -2 -36 -6 -69 -10 -75 -4 -5 -7 -21 -7 -35 0 -31 -6
-57 -15 -66 -4 -4 -7 -34 -7 -66 0 -32 -4 -58 -10 -58 -5 0 -10 -22 -10 -49 0
-28 -5 -53 -11 -56 -6 -4 -7 -19 -4 -36 l7 -29 -81 0 c-75 0 -85 -2 -128 -33
-62 -41 -78 -51 -137 -82 -27 -14 -66 -39 -86 -55 -21 -17 -45 -30 -54 -30 -9
0 -19 -6 -22 -13 -3 -8 -20 -20 -39 -27 -19 -8 -35 -17 -35 -20 0 -4 -18 -15
-40 -25 -44 -20 -50 -40 -21 -72 17 -18 20 -36 20 -144 0 -68 4 -189 7 -268
l7 -143 -21 11 c-15 8 -27 8 -39 1 -10 -5 -33 -13 -52 -18 -19 -4 -39 -17 -45
-27 -6 -11 -17 -24 -23 -28 -7 -4 -13 -17 -13 -27 0 -24 -25 -27 -34 -4 -9 24
-7 64 3 64 5 0 16 13 24 30 14 27 14 31 -9 57 -15 18 -24 41 -24 63 -1 19 -3
59 -6 89 -2 30 0 59 6 66 8 9 8 15 0 20 -5 3 -8 18 -5 33 6 33 -5 122 -15 122
-4 0 -8 -28 -9 -62 -1 -35 -4 -71 -7 -80 -3 -10 0 -18 7 -18 7 0 8 -4 2 -12
-10 -13 -10 -53 1 -213 6 -97 8 -177 7 -238 -1 -38 -1 -38 -38 -35 l-38 3 0
432 c0 408 1 432 18 427 12 -4 17 0 17 14 0 15 -5 19 -20 15 -19 -5 -19 1 -20
183 -1 104 0 284 2 399 1 116 2 238 2 273 -1 62 -1 63 25 60 l26 -3 2 -195 c1
-107 3 -360 4 -562 2 -349 3 -368 21 -368 17 0 25 20 12 33 -4 3 -6 59 -5 124
1 65 2 123 2 128 0 6 -3 196 -7 422 l-6 413 22 18 c22 18 27 44 29 160 l1 53
29 -22 c16 -12 32 -32 35 -45 4 -13 13 -24 21 -24 8 0 15 -6 15 -13 0 -7 13
-26 30 -42 16 -16 30 -34 30 -41 0 -7 22 -36 49 -64 45 -47 50 -50 56 -31 3
11 4 25 0 30 -3 5 -1 12 4 15 12 8 12 96 0 96 -4 0 -6 6 -3 13 3 8 -2 19 -10
26 -8 7 -12 19 -10 26 3 8 -4 20 -15 27 -12 7 -21 20 -21 28 0 9 -14 24 -30
33 -17 10 -30 22 -30 27 0 13 37 0 56 -21 13 -14 20 -16 30 -8 10 8 21 5 45
-15 17 -14 38 -26 48 -26 9 0 34 -16 55 -35 21 -19 44 -35 51 -35 7 0 15 -7
19 -15 3 -8 12 -15 21 -15 37 0 7 123 -44 177 -12 12 -21 29 -21 38 0 9 -12
18 -29 21 -17 4 -38 15 -47 25 -9 11 -30 19 -45 19 -15 0 -31 4 -34 10 -3 6
-22 10 -41 10 -23 0 -33 4 -28 11 3 6 19 9 35 5 20 -4 31 -1 37 11 7 11 19 14
40 11 18 -2 33 -1 34 3 2 4 32 4 68 0 36 -5 79 -6 96 -4 18 3 35 0 38 -6 12
-19 26 -12 26 14 0 14 -9 30 -20 37 -11 7 -20 20 -20 28 -1 20 -65 60 -96 60
-14 0 -33 7 -41 16 -11 10 -25 14 -42 9 -14 -3 -33 -6 -41 -6 -59 2 -70 3 -70
11 0 5 16 14 35 20 19 6 35 18 35 26 0 9 11 14 30 14 23 0 30 4 30 20 0 13 7
20 19 20 10 0 24 7 31 15 7 8 23 15 37 15 13 0 26 7 29 15 4 8 13 15 20 15 8
0 17 6 20 14 3 8 19 19 36 25 29 10 31 31 2 31 -8 0 -22 4 -32 9 -37 18 -79
27 -97 21 -11 -4 -26 -3 -32 2 -9 7 -21 5 -40 -8 -16 -10 -38 -17 -50 -15 -14
1 -27 -6 -35 -18 -7 -12 -21 -21 -32 -21 -11 0 -26 -7 -35 -15 -58 -52 -58
-52 -74 -40 -15 11 -15 14 3 33 11 12 20 30 20 40 0 11 9 22 20 25 14 3 20 14
20 31 0 14 4 26 9 26 11 0 41 56 41 75 0 7 7 18 15 25 9 7 13 20 10 28 -3 8 3
21 15 29 11 8 20 21 20 29 0 20 -49 18 -72 -2 -13 -13 -21 -14 -31 -6 -10 9
-21 4 -46 -18 -18 -17 -38 -30 -44 -30 -7 0 -17 -10 -22 -22 -6 -13 -22 -29
-36 -35 -17 -8 -29 -24 -33 -44 -4 -19 -13 -33 -26 -36 -12 -3 -20 -14 -20
-28 0 -27 -28 -85 -41 -85 -6 0 -8 8 -4 19 3 10 -1 24 -10 31 -8 7 -15 25 -15
41 0 15 -4 31 -10 34 -5 3 -10 17 -10 31 0 13 -4 24 -9 24 -5 0 -16 16 -25 35
-9 19 -23 35 -30 35 -8 0 -16 14 -20 30 -3 17 -12 30 -20 30 -8 0 -22 10 -30
22 -14 20 -74 48 -104 48 -8 0 -11 -7 -9 -17 3 -10 11 -47 18 -82 8 -35 19
-66 26 -68 7 -3 13 -20 13 -38 0 -21 6 -35 16 -39 10 -4 14 -14 11 -25 -3 -11
2 -29 10 -41 8 -12 13 -32 10 -46 -2 -13 2 -29 9 -35 16 -13 19 -49 4 -49 -5
0 -10 4 -10 9 0 17 -112 121 -130 121 -9 0 -26 11 -36 25 -19 26 -24 26 -154
25 -74 -1 -143 -16 -135 -30 4 -6 13 -10 21 -10 9 0 33 -18 55 -40 22 -22 46
-40 53 -40 8 0 21 -11 30 -25 9 -14 25 -25 36 -25 11 0 19 -5 18 -12 -2 -6 12
-16 30 -21 26 -8 32 -15 29 -29 -4 -13 1 -22 17 -28 26 -10 51 -38 42 -47 -3
-4 -23 2 -44 12 -47 23 -156 29 -173 9 -6 -8 -24 -14 -40 -14 -15 0 -32 -6
-36 -13 -4 -7 -23 -19 -40 -26 -18 -8 -34 -21 -35 -30 0 -9 -4 4 -8 29 -20
142 -4 631 31 945 174 1547 921 2954 2115 3980 997 856 2241 1367 3569 1465
115 8 848 6 900 -3z m-6165 -5837 c0 -5 9 -10 20 -10 10 0 24 -9 30 -20 6 -11
17 -20 25 -20 8 0 17 -15 21 -35 3 -19 12 -35 19 -35 15 0 25 -31 25 -85 0
-28 3 -36 9 -25 6 8 7 18 5 22 -3 4 0 8 6 8 17 0 23 -27 16 -75 -5 -29 -12
-45 -22 -45 -8 0 -14 6 -14 13 0 8 -3 8 -9 -2 -6 -9 -6 -24 0 -38 13 -34 11
-53 -3 -47 -17 6 -61 74 -48 74 17 0 11 26 -10 45 -13 12 -17 21 -10 25 7 4 4
22 -9 51 -12 24 -21 54 -21 65 0 12 -8 25 -17 28 -15 6 -15 8 -3 16 12 7 12
12 2 22 -6 6 -12 22 -12 35 0 13 -4 23 -10 23 -5 0 -10 5 -10 10 0 6 5 10 10
10 6 0 10 -4 10 -10z m533 -68 c-49 -43 -105 -87 -114 -90 -5 -2 -9 -12 -9
-23 0 -17 -14 -39 -47 -74 -7 -8 -13 -22 -13 -32 0 -10 -7 -26 -14 -36 -12
-16 -14 -16 -20 -1 -3 9 -3 21 1 26 3 7 1 8 -5 4 -7 -4 -12 -1 -12 9 0 8 7 18
15 21 8 3 20 21 27 40 6 19 18 34 25 34 8 0 17 8 20 18 8 22 80 92 94 92 6 0
22 9 36 20 39 30 53 23 16 -8z m7 -33 c0 -6 -9 -13 -20 -16 -13 -3 -20 -14
-20 -28 0 -13 -7 -25 -15 -29 -8 -3 -12 -12 -9 -19 3 -9 -4 -17 -18 -21 -19
-5 -20 -8 -8 -16 12 -8 9 -15 -20 -41 -19 -17 -30 -28 -23 -25 6 3 14 2 18 -4
3 -5 1 -10 -4 -10 -6 0 -11 -6 -11 -13 0 -7 -9 -18 -20 -25 -13 -8 -20 -23
-20 -45 0 -26 -6 -35 -35 -49 -39 -19 -47 -8 -20 28 8 10 15 26 15 35 0 9 6
19 14 22 8 3 17 19 21 36 3 16 12 35 20 41 8 6 17 25 20 41 5 20 14 31 31 35
18 5 22 10 14 18 -7 9 2 24 32 54 41 42 58 51 58 31z m-718 -149 c27 -31 63
-45 38 -15 -19 23 6 18 28 -6 11 -11 22 -34 26 -50 3 -16 11 -29 17 -29 8 0 9
11 5 32 -6 31 -6 31 14 13 11 -10 24 -32 28 -49 5 -17 15 -31 23 -31 22 0 49
-30 49 -54 0 -11 8 -25 18 -30 10 -5 19 -23 20 -43 2 -18 7 -37 12 -42 6 -6
10 -21 10 -34 0 -19 -8 -10 -32 36 -18 33 -44 75 -58 93 -36 47 -112 118 -132
125 -10 3 -18 9 -18 14 0 8 -89 53 -130 65 l-25 7 25 -19 c14 -11 36 -24 50
-28 29 -9 98 -56 148 -102 32 -29 34 -33 14 -33 -29 0 -72 21 -72 35 0 6 -18
18 -39 25 -23 7 -41 21 -44 31 -3 11 -14 19 -26 19 -12 0 -21 4 -21 10 0 5
-15 17 -32 26 -18 10 -27 19 -20 21 6 3 12 12 12 20 0 16 23 15 64 -2 16 -7
18 -5 13 8 -10 26 6 20 35 -13z m881 -42 c7 6 31 8 55 5 64 -9 36 -28 -43 -30
-45 -1 -73 -7 -92 -20 -15 -11 -45 -27 -65 -37 -21 -9 -38 -21 -38 -26 0 -5
-10 -12 -22 -16 -25 -7 -128 -109 -128 -126 0 -6 -10 -19 -22 -29 -30 -27 -15
-36 18 -10 14 11 31 18 36 15 13 -8 -51 -54 -75 -54 -14 0 -17 4 -12 18 4 9
10 27 12 40 3 12 8 22 12 22 4 0 17 17 29 38 11 20 31 44 43 52 12 8 27 21 35
28 7 6 17 12 23 12 6 0 11 3 11 8 0 4 11 21 25 37 21 25 26 28 35 15 11 -16
14 -13 47 37 10 16 13 16 22 3 9 -13 13 -12 33 7 16 17 25 20 35 11 9 -7 17
-7 26 0z m-501 -54 c-4 -41 -18 -67 -33 -58 -13 8 -11 61 3 84 19 30 33 18 30
-26z m94 -21 c-1 -44 -5 -58 -16 -58 -16 0 -17 30 -4 92 10 50 22 30 20 -34z
m444 27 c0 -16 -7 -20 -30 -20 -18 0 -29 -5 -27 -12 1 -7 -11 -14 -27 -17 -17
-3 -29 -9 -28 -13 6 -24 0 -28 -32 -22 -32 5 -34 4 -29 -15 5 -18 1 -21 -25
-21 -17 0 -37 -3 -46 -6 -25 -9 -19 -26 7 -20 12 3 7 -1 -10 -9 -18 -8 -33
-22 -33 -30 0 -11 -11 -15 -37 -15 l-38 1 24 19 c13 11 29 20 37 20 8 0 14 5
14 10 0 6 10 21 23 33 25 25 143 97 159 97 5 0 21 9 35 20 14 11 34 20 44 20
12 0 19 -7 19 -20z m-300 -53 c0 -7 -9 -18 -20 -25 -22 -14 -25 -9 -10 19 12
21 30 26 30 6z m-218 -59 c3 -35 3 -69 0 -75 -6 -18 -22 -5 -22 18 0 10 -4 19
-10 19 -13 0 -13 29 1 69 17 47 26 38 31 -31z m-87 22 c16 -32 19 -50 8 -50
-18 1 -34 19 -42 48 -13 43 12 44 34 2z m124 -25 c5 -22 -1 -65 -9 -60 -5 3
-10 22 -10 41 0 20 4 33 9 30 5 -3 9 -8 10 -11z m-258 -12 c8 -10 16 -22 17
-28 2 -5 10 -20 18 -32 12 -20 12 -23 0 -23 -7 0 -24 9 -37 19 l-24 20 23 8
c21 8 18 10 -27 23 -28 7 -51 17 -51 22 0 16 66 8 81 -9z m369 9 c0 -9 -74
-72 -84 -72 -14 0 -4 18 25 48 30 30 59 42 59 24z m-913 -84 c-3 -7 -5 -2 -5
12 0 14 2 19 5 13 2 -7 2 -19 0 -25z m402 11 c12 -13 26 -19 36 -15 9 3 25 -3
37 -14 12 -11 24 -17 29 -15 8 5 61 -57 54 -63 -2 -2 -23 9 -47 25 -75 52
-293 82 -329 46 -7 -7 20 -10 78 -10 110 0 146 -8 254 -56 37 -17 58 -33 62
-47 5 -20 3 -21 -30 -15 -37 7 -73 25 -73 37 0 4 6 5 14 2 8 -3 17 0 21 6 6 9
-6 10 -45 5 -46 -6 -52 -5 -47 9 7 17 -8 22 -18 6 -12 -19 -45 -11 -45 10 0
11 -4 20 -10 20 -5 0 -10 -4 -10 -10 0 -15 -47 -12 -53 3 -4 10 -7 10 -18 0
-16 -16 -46 -17 -51 -2 -3 9 -10 9 -27 -1 -17 -9 -25 -9 -31 -1 -3 7 -15 9
-26 6 -13 -4 -12 -2 4 6 12 7 22 18 22 26 0 7 13 16 30 19 16 4 35 13 41 20 9
11 15 12 26 3 10 -9 17 -9 25 -1 15 15 55 16 63 2 9 -15 25 -12 25 5 0 21 16
19 39 -6z m301 1 c14 -26 3 -45 -16 -29 -16 13 -19 49 -4 49 5 0 14 -9 20 -20z
m150 -18 c0 -5 -11 -19 -25 -32 -24 -22 -25 -22 -25 -4 0 11 5 25 12 32 14 14
38 16 38 4z m360 -3 c0 -7 10 -9 26 -5 19 5 30 2 39 -11 7 -10 18 -19 24 -19
6 -1 16 -2 22 -3 6 0 9 -7 6 -15 -3 -8 -1 -17 6 -19 7 -2 -6 -8 -28 -12 -27
-6 -40 -4 -43 4 -5 16 -22 14 -22 -4 0 -19 -11 -19 -36 0 -25 19 -44 19 -44 0
0 -12 -8 -14 -42 -9 -30 5 -39 4 -34 -4 5 -8 -2 -12 -21 -12 -16 0 -46 -9 -68
-20 -41 -21 -85 -27 -85 -11 0 13 62 36 89 32 14 -1 21 1 17 7 -9 14 6 22 72
38 68 16 131 18 166 4 36 -13 33 5 -3 20 -50 20 -237 -1 -246 -29 -3 -9 -19
-22 -36 -28 -30 -12 -30 -11 -17 9 8 12 23 27 34 32 10 6 23 17 27 24 4 6 21
12 37 12 17 0 30 5 30 11 0 6 15 8 44 4 28 -5 46 -3 50 4 9 14 36 14 36 0z
m-444 -63 c-4 -26 -11 -44 -17 -41 -10 7 -12 88 -2 98 15 16 25 -14 19 -57z
m-156 29 c13 -14 21 -28 17 -31 -7 -7 -66 36 -66 49 -2 16 27 6 49 -18z m100
-5 c0 -5 -4 -10 -10 -10 -5 0 -10 5 -10 10 0 6 5 10 10 10 6 0 10 -4 10 -10z
m-487 -53 c24 4 37 2 37 -6 0 -15 33 -14 49 2 10 10 14 9 22 -5 6 -12 22 -18
43 -18 34 0 86 -20 86 -32 0 -5 -22 -8 -50 -8 -27 0 -50 -4 -50 -9 0 -5 -17
-15 -37 -22 -21 -7 -42 -18 -48 -25 -5 -7 -19 -14 -30 -16 -10 -2 -22 -12 -25
-23 -3 -11 -16 -33 -30 -48 -14 -16 -25 -32 -26 -35 0 -4 -3 -14 -7 -22 -3 -8
-7 -26 -10 -40 -2 -14 -8 -33 -12 -42 -5 -14 -2 -18 15 -18 14 0 24 8 27 21 4
14 12 19 25 16 11 -3 22 2 27 11 5 10 31 28 58 42 26 14 50 27 53 30 16 16 54
30 82 29 27 0 29 -2 13 -8 -28 -12 -58 -48 -51 -60 4 -5 -1 -14 -10 -19 -10
-5 -18 -18 -19 -28 -1 -11 -6 -29 -13 -40 -9 -18 -8 -151 3 -162 7 -7 35 12
35 24 0 8 7 17 15 20 8 4 15 12 15 19 0 8 9 17 20 20 11 3 20 11 20 16 0 5 16
26 35 48 19 21 35 44 35 50 0 6 6 11 13 11 7 0 23 10 35 23 12 12 35 35 51 51
l30 30 -2 -109 c-1 -65 2 -110 8 -112 35 -12 36 -15 35 -314 0 -466 1 -648 7
-740 3 -57 1 -94 -7 -109 -7 -14 -8 -26 -2 -33 5 -7 9 -30 7 -52 -1 -22 -3
-72 -4 -111 l-1 -72 -29 2 c-31 1 -61 21 -61 41 0 16 -51 27 -65 14 -5 -5 -21
-9 -36 -9 -25 0 -30 7 -57 83 -188 521 -298 1049 -348 1670 -6 77 -5 79 15 72
11 -3 29 -2 38 4 11 5 22 6 29 1 5 -5 27 -7 47 -3z m497 -25 c0 -21 -2 -24
-10 -12 -13 20 -13 53 0 45 6 -3 10 -18 10 -33z m-122 16 c19 -19 14 -29 -8
-16 -20 13 -27 28 -12 28 4 0 13 -5 20 -12z m242 -7 c0 -5 -6 -14 -14 -20 -14
-12 -46 -5 -46 10 0 14 18 11 23 -3 3 -9 7 -7 12 5 7 18 25 24 25 8z m-156
-23 c9 -12 16 -32 16 -45 0 -12 5 -25 10 -28 6 -3 10 -11 10 -17 0 -7 -6 -6
-15 2 -8 7 -15 23 -15 36 0 13 -4 24 -10 24 -5 0 -10 -4 -10 -9 0 -5 -11 -4
-25 2 -14 7 -25 15 -25 20 0 11 14 9 28 -5 17 -17 25 -3 12 21 -15 28 4 27 24
-1z m186 5 c0 -10 -32 -43 -42 -43 -5 0 -1 11 8 25 15 23 34 33 34 18z m-233
-57 c15 -13 25 -27 22 -30 -3 -3 -16 3 -29 14 -13 11 -27 20 -32 20 -4 0 -8 5
-8 10 0 17 17 11 47 -14z m-630 -8 c-3 -8 -6 -5 -6 6 -1 11 2 17 5 13 3 -3 4
-12 1 -19z m448 -3 c0 -5 -20 -16 -45 -23 -51 -15 -100 -39 -115 -56 -5 -7
-25 -18 -42 -25 -18 -7 -33 -20 -33 -27 0 -18 14 -18 30 0 23 29 164 90 218
94 31 3 52 0 52 -6 0 -14 -28 -23 -53 -17 -14 4 -30 -1 -45 -15 -12 -12 -27
-18 -34 -14 -6 4 -17 -1 -24 -11 -7 -9 -19 -15 -26 -12 -7 2 -33 -10 -58 -28
-25 -17 -59 -35 -75 -39 -28 -7 -29 -7 -14 11 9 10 19 30 23 46 4 16 13 27 24
27 9 0 23 9 30 20 16 26 86 70 111 70 11 0 23 5 26 11 8 13 50 8 50 -6z m75 5
c0 -5 -12 -10 -26 -10 -14 0 -23 4 -19 10 3 6 15 10 26 10 10 0 19 -4 19 -10z
m370 3 c-8 -3 -30 -12 -47 -19 -18 -7 -33 -10 -33 -5 0 9 49 29 75 29 14 0 15
-1 5 -5z m184 -8 c11 -8 28 -13 37 -10 11 4 27 -5 44 -22 19 -19 29 -24 32
-15 6 16 33 -3 33 -23 0 -7 11 -20 25 -29 14 -9 25 -24 25 -33 0 -14 -3 -13
-20 4 -10 12 -28 24 -40 28 -11 3 -20 11 -20 16 0 5 -5 9 -11 9 -6 0 -23 8
-37 19 -15 10 -65 26 -112 35 -88 17 -126 34 -53 22 24 -3 44 -2 48 4 9 14 27
12 49 -5z m-32 -46 c9 -5 28 -9 42 -9 14 0 27 -4 30 -9 3 -5 25 -18 48 -29 24
-11 53 -29 66 -39 51 -41 65 -53 58 -53 -10 0 -80 32 -86 40 -7 9 -76 40 -88
40 -5 0 -15 7 -22 15 -7 8 -22 15 -34 15 -12 0 -26 4 -31 9 -6 6 -30 11 -54
13 -25 2 -46 8 -48 15 -5 14 89 7 119 -8z m-474 -27 c-31 -15 -59 -35 -62 -44
-2 -10 -14 -18 -25 -18 -28 0 -27 16 2 31 12 7 27 18 32 25 6 7 26 17 45 22
63 18 66 12 8 -16z m322 8 c8 -5 11 -10 5 -10 -5 0 -17 5 -25 10 -8 5 -10 10
-5 10 6 0 17 -5 25 -10z m-259 -31 c-24 -22 -37 -20 -28 6 4 8 16 15 29 15
l22 0 -23 -21z m249 1 c11 -11 20 -28 20 -37 -1 -15 -5 -13 -24 8 -12 14 -31
31 -42 37 -18 11 -18 11 4 12 12 0 31 -9 42 -20z m104 -34 c28 -30 56 -60 61
-68 15 -19 35 -91 35 -126 0 -42 -22 -33 -55 24 -14 24 -46 64 -70 89 -46 46
-62 91 -27 78 19 -8 51 -43 52 -58 0 -6 10 -21 23 -35 12 -14 31 -42 41 -63
23 -49 32 -42 14 11 -17 49 -49 94 -105 146 -24 22 -43 43 -43 48 0 20 26 4
74 -46z m-403 -3 c-8 -30 -31 -44 -31 -18 0 9 -4 13 -10 10 -5 -3 -10 -19 -10
-36 0 -16 -4 -29 -10 -29 -5 0 -10 5 -10 10 0 23 -21 8 -26 -19 -4 -17 -14
-31 -25 -34 -11 -3 -19 -14 -19 -26 0 -12 -6 -21 -15 -21 -9 0 -19 -8 -22 -17
-11 -27 -53 -67 -53 -50 0 8 7 21 16 28 9 8 25 32 34 54 28 65 157 191 182
178 3 -2 3 -15 -1 -30z m193 1 c10 -4 16 -18 16 -38 0 -18 5 -37 12 -44 9 -9
9 -12 -1 -12 -7 0 -12 -11 -11 -27 5 -74 2 -80 -34 -79 -22 1 -43 9 -56 24
-11 12 -16 22 -11 22 5 0 13 -4 16 -10 3 -5 12 -10 18 -10 8 0 9 3 1 8 -9 6
-44 68 -44 78 0 2 16 6 35 10 28 5 35 11 35 30 0 15 -6 24 -15 24 -8 0 -15 5
-15 11 0 6 9 8 21 4 15 -5 19 -4 15 4 -8 13 -4 14 18 5z m-324 -29 c0 -13 -6
-28 -13 -32 -21 -13 -47 -55 -58 -95 -5 -21 -14 -38 -19 -38 -13 0 -12 6 8 65
19 52 62 125 75 125 4 0 7 -11 7 -25z m1443 -50 c4 -27 12 -54 17 -59 6 -6 10
-27 10 -48 0 -25 5 -38 14 -38 13 0 26 -66 26 -139 0 -33 1 -34 15 -15 13 17
14 14 15 -38 0 -34 5 -58 12 -60 18 -6 19 -96 2 -136 -9 -24 -11 -39 -5 -45 7
-7 13 -2 19 13 l9 24 12 -22 c16 -31 10 -134 -8 -140 -10 -3 -12 0 -8 13 9 22
-3 42 -14 24 -13 -22 -11 -49 5 -49 8 0 17 -6 20 -12 5 -10 7 -10 12 0 9 20
37 15 29 -5 -17 -40 -17 -53 -1 -59 24 -9 21 -37 -4 -29 -15 5 -21 0 -26 -19
-7 -29 -19 -33 -31 -13 -13 22 -62 30 -69 12 -11 -27 -24 -16 -24 20 0 22 6
38 15 41 17 7 20 42 4 64 -7 11 -9 7 -7 -19 2 -21 -2 -36 -10 -39 -8 -2 -11 7
-10 30 4 66 -12 143 -32 156 -21 13 -25 6 -10 -18 6 -9 5 -17 -2 -21 -7 -4 -7
-13 0 -25 11 -21 23 -204 13 -204 -8 0 -31 118 -31 157 0 19 -3 24 -10 17 -7
-7 -8 -30 -1 -70 5 -32 7 -61 5 -63 -2 -3 -13 5 -24 17 -24 25 -25 25 -51 12
-11 -6 -19 -21 -19 -35 0 -14 -4 -25 -10 -25 -13 0 -13 19 2 77 15 58 17 61
28 44 5 -9 15 -11 26 -6 12 5 15 9 7 12 -7 2 -17 23 -23 46 -6 23 -13 50 -16
60 -4 13 1 17 23 18 24 0 32 8 56 57 26 55 35 102 20 102 -11 -1 -43 -26 -43
-34 0 -3 7 -6 16 -6 14 0 14 -3 4 -15 -12 -14 -15 -12 -31 12 -12 17 -19 46
-19 75 0 38 -4 48 -20 53 -11 3 -20 11 -20 16 0 14 17 11 33 -5 14 -15 40 -16
53 -3 8 7 -15 67 -25 67 -4 0 -12 -5 -19 -12 -9 -9 -12 -4 -12 23 0 24 3 30 9
20 15 -24 63 2 59 32 -2 17 1 21 16 19 22 -4 40 19 23 30 -6 4 -17 2 -24 -3
-6 -6 -26 -13 -42 -15 -26 -4 -31 -2 -31 16 0 11 6 20 13 19 31 -4 36 1 27 31
-5 17 -6 47 -3 66 l6 36 14 -23 c13 -22 14 -20 10 31 -2 30 -2 61 0 67 9 25
29 -11 36 -62z m-1190 36 c-6 -3 -13 -13 -16 -21 -4 -11 -6 -9 -6 6 -1 24 22
51 28 33 2 -6 -1 -14 -6 -18z m-666 -223 c-3 -8 -6 -5 -6 6 -1 11 2 17 5 13 3
-3 4 -12 1 -19z m10 -80 c-3 -8 -6 -5 -6 6 -1 11 2 17 5 13 3 -3 4 -12 1 -19z
m1710 -156 c3 -44 2 -46 -12 -27 -9 11 -13 26 -10 33 3 8 5 23 5 34 0 40 14 7
17 -40z m9592 -12 c18 0 71 -59 71 -79 0 -12 5 -21 10 -21 6 0 10 -13 10 -30
0 -17 7 -33 17 -38 13 -8 17 -29 20 -102 3 -63 1 -90 -6 -85 -6 3 -11 24 -11
45 0 21 -3 40 -8 42 -4 2 -17 43 -29 91 -13 49 -30 95 -38 103 -8 9 -15 20
-15 26 0 5 -6 8 -14 5 -19 -8 -32 11 -34 48 -1 25 0 27 9 13 5 -10 14 -18 18
-18z m411 -29 c0 -5 -6 -12 -12 -14 -10 -4 -10 -7 0 -14 10 -7 8 -14 -8 -28
-11 -10 -20 -22 -20 -26 0 -11 -49 -82 -63 -91 -9 -6 -9 -10 1 -16 9 -6 4 -16
-18 -37 -17 -17 -30 -39 -30 -53 0 -22 -37 -68 -47 -58 -4 4 -2 10 30 74 19
38 22 62 7 62 -5 0 -10 -9 -10 -19 0 -25 -16 -36 -24 -16 -9 24 5 75 20 75 8
0 13 3 12 8 -5 17 22 72 36 72 8 0 19 6 23 13 10 16 85 77 95 77 5 0 8 -4 8
-9z m-391 -57 c3 -16 1 -17 -13 -5 -19 16 -21 34 -3 29 6 -3 14 -13 16 -24z
m-9619 -4 c0 -5 -4 -10 -10 -10 -5 0 -10 5 -10 10 0 6 5 10 10 10 6 0 10 -4
10 -10z m-1653 -32 c-3 -8 -6 -5 -6 6 -1 11 2 17 5 13 3 -3 4 -12 1 -19z
m1689 8 c18 -19 18 -21 -6 -23 -14 -1 -20 4 -20 18 0 23 6 24 26 5z m9599 -20
c8 -7 17 -38 21 -67 4 -30 10 -61 14 -69 13 -25 16 -83 4 -87 -11 -4 -34 80
-34 123 0 13 -4 24 -8 24 -5 0 -9 14 -9 32 0 18 -5 34 -11 36 -15 5 -16 22 -1
22 6 0 17 -6 24 -14z m-11299 -53 c-5 -21 -4 -24 4 -13 8 13 10 13 10 0 0 -21
-20 -40 -42 -40 -14 0 -18 8 -18 40 0 36 2 40 26 40 23 0 25 -3 20 -27z
m11048 13 c15 -2 37 -14 47 -25 24 -25 41 -27 32 -4 -4 10 -2 14 5 10 6 -4 16
-23 22 -41 11 -33 40 -57 40 -34 0 7 16 -12 35 -42 19 -30 35 -58 35 -63 0
-15 -25 -1 -35 19 -9 18 -43 50 -150 139 -31 26 -55 32 -55 15 0 -5 5 -10 11
-10 11 0 39 -25 39 -35 0 -3 -15 -5 -32 -3 -24 2 -32 8 -30 19 1 9 -6 20 -15
24 -17 7 -17 8 2 16 18 8 17 9 -4 5 -13 -3 -30 1 -37 9 -12 12 -9 13 23 10 21
-2 51 -6 67 -9z m-9409 -34 c-8 -8 -25 10 -19 20 4 6 9 5 15 -3 4 -7 6 -15 4
-17z m-1616 -26 c-9 -8 -10 -7 -5 7 3 10 7 24 7 30 1 7 3 4 6 -7 3 -10 -1 -23
-8 -30z m18 -38 c-3 -8 -6 -5 -6 6 -1 11 2 17 5 13 3 -3 4 -12 1 -19z m11091
-13 c31 -29 34 -35 17 -35 -15 -1 -11 -5 13 -15 17 -8 32 -18 32 -23 0 -5 11
-14 25 -20 38 -17 31 -35 -7 -18 -18 7 -32 18 -30 25 1 6 -1 10 -5 9 -20 -5
-52 15 -57 35 -3 12 -19 28 -36 36 -25 10 -28 16 -19 27 17 20 25 18 67 -21z
m332 -25 c0 -22 -4 -40 -10 -40 -11 0 -13 39 -4 64 10 26 14 19 14 -24z
m-9844 13 c18 -24 17 -33 -2 -33 -8 0 -12 5 -9 10 4 6 1 17 -5 25 -7 8 -9 15
-5 15 4 0 14 -8 21 -17z m1090 -33 c33 -5 94 -10 135 -10 41 0 108 -5 149 -10
41 -6 125 -12 185 -15 61 -3 123 -8 138 -11 l29 -6 -22 -20 c-26 -24 -73 -26
-234 -9 -119 12 -394 32 -522 37 -112 4 -142 14 -138 46 1 12 3 23 3 23 8 3
233 -17 277 -25z m-310 -20 c-3 -29 -35 -64 -68 -75 -10 -4 -18 -11 -18 -16 0
-5 -7 -9 -16 -9 -14 0 -15 2 -3 17 13 17 13 17 -13 0 -35 -22 -55 -23 -38 -2
7 8 17 15 23 15 5 0 26 15 47 33 20 17 45 39 56 49 28 24 34 22 30 -12z
m-2339 -12 c-3 -7 -5 -2 -5 12 0 14 2 19 5 13 2 -7 2 -19 0 -25z m1673 -52 c0
-5 -8 -2 -18 7 -10 10 -21 14 -25 11 -3 -3 -3 4 0 16 l6 23 18 -24 c10 -13 19
-28 19 -33z m9696 -14 c-13 -12 -17 8 -10 40 l9 33 3 -33 c2 -19 1 -36 -2 -40z
m192 33 c-26 -8 -32 -16 -31 -33 2 -16 -3 -22 -17 -22 -11 0 -20 -4 -20 -10 0
-5 -7 -10 -15 -10 -8 0 -15 2 -15 4 0 2 23 27 51 56 42 43 53 49 65 39 13 -11
11 -14 -18 -24z m-255 -10 c11 -23 14 -42 8 -57 -7 -19 -10 -16 -24 27 -19 55
-20 65 -9 65 5 0 16 -16 25 -35z m-11296 3 c-3 -8 -6 -5 -6 6 -1 11 2 17 5 13
3 -3 4 -12 1 -19z m2541 2 c2 -4 12 -6 23 -3 13 4 30 -3 46 -18 22 -21 24 -21
15 -4 -9 19 -7 20 29 21 30 1 39 -2 35 -12 -3 -7 0 -11 7 -9 27 9 137 13 137
4 0 -5 14 -6 32 -2 23 5 34 2 45 -12 12 -17 13 -17 13 -2 0 17 11 22 23 11 8
-9 74 -14 187 -17 l95 -2 0 -49 0 -50 -92 0 c-51 -1 -93 2 -93 6 0 4 -28 7
-62 7 -64 0 -173 7 -173 11 0 3 -52 6 -185 14 -153 8 -244 18 -250 27 -3 4 -4
27 -2 51 l4 43 81 -4 c45 -2 83 -7 85 -11z m8876 -14 c-9 -15 -19 -24 -22 -22
-2 3 3 17 12 32 10 14 20 23 23 21 2 -3 -3 -17 -13 -31z m-9484 -1 c0 -8 -4
-15 -10 -15 -5 0 -10 7 -10 15 0 8 5 15 10 15 6 0 10 -7 10 -15z m410 -23 c0
-48 -6 -55 -31 -34 -11 9 -24 18 -29 18 -6 1 -13 2 -16 3 -9 2 51 50 64 51 7
0 12 -14 12 -38z m8894 15 c15 -24 -3 -35 -20 -13 -8 11 -14 24 -14 29 0 13
22 3 34 -16z m546 -14 c13 -13 11 -14 -15 -8 -28 5 -28 5 -7 -6 34 -18 26 -28
-18 -22 -24 4 -46 1 -54 -7 -9 -6 -20 -9 -26 -5 -5 3 -20 -1 -32 -9 -12 -9
-30 -16 -39 -16 -10 0 -19 -4 -21 -9 -1 -5 -21 -12 -43 -16 -37 -6 -39 -5 -21
9 11 9 27 16 36 16 8 0 21 9 27 19 8 13 29 21 65 26 82 12 104 26 28 19 -36
-3 -69 -10 -74 -15 -6 -5 -17 -9 -25 -9 -28 0 5 22 61 41 59 20 133 16 158 -8z
m-10210 7 c69 -5 148 -11 175 -14 28 -3 129 -10 225 -16 96 -5 200 -13 230
-17 30 -3 64 -7 75 -8 19 -2 22 -22 7 -36 -4 -3 -48 -2 -99 2 -102 10 -169 -1
-98 -16 22 -5 46 -7 53 -6 8 1 20 -3 28 -10 10 -8 14 -8 14 0 0 15 52 14 72
-1 8 -7 18 -27 21 -44 l6 -31 -82 3 c-45 2 -132 5 -192 7 -61 2 -115 5 -120 8
-6 4 -47 6 -93 5 -46 -1 -86 2 -89 6 -2 5 -9 6 -14 2 -6 -3 -18 -2 -27 2 -25
11 -72 13 -72 3 0 -10 -70 -10 -85 0 -19 13 -65 13 -65 0 0 -9 -3 -9 -14 0 -8
6 -20 10 -27 9 -10 -2 -15 11 -17 46 l-3 48 63 -7 c35 -4 82 -6 106 -6 41 1
43 0 37 -21 -6 -21 -5 -22 8 -5 16 19 87 24 87 6 0 -6 6 -4 14 4 9 8 26 12 40
10 28 -6 32 -13 15 -30 -7 -7 -7 -13 -1 -17 6 -3 13 2 17 13 5 15 15 18 63 17
31 -1 62 -4 67 -7 15 -8 135 1 135 10 0 9 -80 17 -300 31 -80 6 -190 13 -245
16 -95 6 -115 13 -115 42 0 14 26 15 200 2z m9613 -11 c10 -11 17 -22 15 -24
-7 -5 -68 26 -68 35 0 18 35 11 53 -11z m-9841 -11 c-6 -6 -8 -17 -5 -24 3 -8
-9 -20 -31 -31 -20 -9 -36 -20 -36 -23 0 -3 -16 -12 -35 -20 -19 -8 -35 -17
-35 -22 0 -4 2 -8 5 -8 7 0 59 24 65 30 15 15 71 40 80 35 16 -10 12 -41 -7
-63 -10 -12 -45 -35 -78 -52 l-60 -30 -3 37 c-3 36 -23 63 -46 63 -6 0 -5 -4
3 -9 11 -7 7 -13 -15 -27 -100 -61 -109 -70 -77 -76 9 -2 31 10 48 25 16 16
38 33 48 38 15 9 17 5 17 -30 0 -34 -4 -42 -32 -55 -17 -9 -36 -16 -42 -16 -6
0 -17 -9 -24 -20 -8 -14 -23 -20 -47 -20 -19 0 -35 -4 -35 -10 0 -13 -92 -70
-102 -64 -19 12 -7 54 21 73 16 12 33 21 38 21 4 1 24 14 43 30 39 34 19 43
-23 10 -14 -11 -28 -20 -32 -20 -4 0 -19 -9 -34 -19 -22 -16 -29 -17 -44 -6
-9 7 -17 14 -17 17 0 2 24 15 53 28 28 13 66 33 82 46 17 12 55 34 85 49 30
15 58 32 61 37 6 10 27 23 86 54 37 20 56 12 27 -12 -20 -16 2 -8 24 9 11 8
11 12 0 19 -8 6 -9 11 -3 14 6 2 24 12 40 23 30 18 56 18 37 -1z m-1325 -30
c-3 -8 -6 -5 -6 6 -1 11 2 17 5 13 3 -3 4 -12 1 -19z m11023 2 c0 -5 12 -10
26 -10 29 0 122 -48 157 -81 14 -14 -5 -7 -56 20 -69 37 -85 41 -146 41 -68 0
-150 -24 -165 -49 -9 -15 0 -14 32 3 30 15 222 28 222 14 0 -9 -2 -10 -55 -13
-22 -2 -62 -6 -90 -10 -27 -4 -61 -8 -75 -10 -14 -1 -27 -4 -30 -5 -3 -1 -9
-2 -14 -1 -4 1 -15 -4 -24 -11 -12 -10 -12 -6 3 19 10 17 27 34 37 36 10 3 18
12 18 20 0 15 42 28 87 27 12 0 25 5 28 10 8 13 45 13 45 0z m500 1 c0 -10
-69 -45 -76 -38 -3 3 9 11 25 18 17 8 31 17 31 21 0 5 5 8 10 8 6 0 10 -4 10
-9z m-305 -39 c-7 -8 -45 10 -40 19 4 5 14 3 25 -3 11 -7 17 -14 15 -16z
m-11208 -4 c-3 -8 -6 -5 -6 6 -1 11 2 17 5 13 3 -3 4 -12 1 -19z m11343 12 c0
-5 -5 -10 -11 -10 -5 0 -7 5 -4 10 3 6 8 10 11 10 2 0 4 -4 4 -10z m44 -2 c-3
-7 -17 -22 -31 -32 l-26 -19 23 31 c24 32 44 43 34 20z m36 -22 c0 -2 -7 -7
-16 -10 -8 -3 -12 -2 -9 4 6 10 25 14 25 6z m-8695 -25 c77 -5 187 -14 244
-20 57 -6 121 -8 141 -5 21 3 46 1 57 -4 19 -10 20 -26 27 -244 3 -128 9 -397
13 -597 5 -309 4 -363 -8 -359 -8 3 -13 12 -11 20 1 10 -8 18 -23 22 -56 14
-76 109 -84 401 -6 219 -4 265 14 343 7 28 5 32 -14 32 -19 0 -21 6 -21 51 0
32 6 56 15 66 9 8 15 23 13 32 -3 16 -35 20 -298 35 -47 2 -125 7 -175 11 -72
6 -94 4 -110 -8 -16 -13 -18 -19 -8 -38 7 -13 14 -50 16 -81 4 -50 2 -59 -17
-71 -19 -14 -20 -16 -5 -33 22 -25 21 -19 23 -344 1 -281 1 -286 -23 -342
l-25 -58 -51 0 -52 0 -8 183 c-5 100 -9 313 -10 472 0 160 -5 342 -9 406 -5
64 -6 125 -2 134 5 15 19 16 129 12 67 -3 185 -10 262 -16z m765 -2 c103 -10
215 -18 518 -38 84 -6 157 -13 163 -16 6 -4 2 -14 -11 -25 -18 -16 -34 -18
-108 -14 -48 3 -96 7 -107 10 -11 3 -83 9 -160 14 -77 5 -187 12 -244 16 -68
5 -102 4 -98 -3 3 -5 19 -8 35 -5 18 2 35 -2 43 -11 11 -11 18 -12 32 -3 11 7
20 8 25 1 7 -10 38 -13 150 -14 36 0 62 -5 62 -11 0 -6 8 -5 21 2 17 10 23 10
26 1 3 -8 15 -10 35 -6 23 5 34 2 45 -12 12 -18 13 -18 13 -1 0 15 5 17 28 11
15 -4 62 -6 105 -6 l77 1 0 -40 0 -40 -92 4 c-51 2 -106 7 -123 11 -16 3 -75
8 -130 10 -55 2 -102 4 -105 5 -6 2 -57 6 -152 11 -38 2 -68 6 -68 9 0 3 -54
6 -120 7 -66 1 -125 5 -130 8 -6 3 -10 21 -10 40 l0 33 113 -5 c129 -6 138 5
15 18 -117 13 -122 16 -109 56 1 4 131 -6 261 -18z m-1170 -394 c1 -170 5
-346 8 -390 9 -100 4 -255 -7 -255 -27 0 -34 79 -41 495 -5 266 -5 436 1 447
6 12 6 25 -1 37 -14 27 -13 37 8 57 16 17 17 15 24 -32 3 -27 7 -188 8 -359z
m8815 383 c27 -12 33 -28 11 -28 -27 0 -67 20 -61 30 8 13 18 13 50 -2z m306
0 c-18 -5 -45 -17 -60 -26 l-26 -16 24 27 c18 20 33 27 60 26 l36 -1 -34 -10z
m-11424 -20 c-3 -8 -6 -5 -6 6 -1 11 2 17 5 13 3 -3 4 -12 1 -19z m22 -68 c0
-9 -4 -8 -9 5 -5 11 -9 27 -9 35 0 9 4 8 9 -5 5 -11 9 -27 9 -35z m1509 29
c53 -7 115 -12 137 -12 22 -1 117 -5 210 -9 94 -5 210 -11 259 -13 48 -2 91
-7 95 -10 7 -8 21 -826 13 -839 -2 -5 -9 -1 -14 8 -5 9 -16 16 -23 16 -8 0
-15 3 -15 8 0 4 -12 13 -27 19 -23 11 -30 10 -48 -7 -12 -11 -28 -20 -37 -20
-9 0 -21 -7 -28 -15 -7 -8 -19 -15 -26 -15 -8 0 -14 -8 -14 -18 0 -10 -4 -22
-9 -27 -16 -17 -30 -86 -21 -103 5 -10 11 -24 14 -34 2 -9 18 -19 35 -23 17
-4 31 -11 31 -16 0 -5 -12 -6 -26 -3 l-26 7 4 -74 3 -74 -140 1 c-115 1 -161
6 -255 28 -63 15 -145 31 -182 34 -37 4 -70 11 -75 15 -4 4 -8 81 -9 170 -7
534 -17 857 -25 857 -12 0 -11 -331 1 -565 5 -99 7 -231 3 -292 l-6 -113 -27
0 c-15 0 -52 -5 -84 -11 -44 -9 -70 -9 -112 0 -55 13 -55 13 -40 36 9 14 16
33 16 45 0 11 5 20 11 20 8 0 8 4 0 14 -7 8 -8 17 -3 20 12 7 -29 95 -44 96
-7 0 -15 7 -18 16 -4 10 -13 13 -26 9 -18 -6 -20 -2 -20 34 0 39 1 40 55 60
31 12 61 21 68 21 7 0 22 6 33 14 15 12 17 17 7 27 -9 9 -13 59 -13 176 0 158
-1 163 -22 174 -13 7 -26 16 -29 22 -7 10 -20 2 -60 -38 -19 -19 -20 -31 -18
-184 2 -144 1 -164 -14 -173 -9 -5 -17 -5 -17 -1 0 5 -16 15 -35 22 -29 10
-39 10 -51 0 -26 -22 -34 7 -36 146 -5 307 -4 329 20 340 12 5 22 13 22 17 0
5 9 8 19 8 11 0 21 3 23 8 2 4 26 19 53 33 71 37 137 71 160 82 62 31 130 71
133 79 2 4 12 8 22 8 15 0 20 -9 23 -47 l3 -48 2 53 2 52 50 0 c28 0 94 -5
148 -11z m9552 -4 c-7 -9 -15 -13 -17 -11 -7 7 7 26 19 26 6 0 6 -6 -2 -15z
m369 -28 c9 -6 18 -14 21 -17 3 -3 14 -10 24 -16 11 -6 24 -19 30 -29 6 -11
17 -25 24 -33 6 -7 12 -31 12 -52 0 -39 -1 -39 -25 -28 -14 6 -25 15 -25 20 0
9 -39 54 -74 86 -10 9 -28 26 -40 38 -12 11 -31 26 -41 32 -11 6 -14 12 -7 12
6 0 12 7 12 15 0 14 4 14 37 0 20 -9 44 -21 52 -28z m-458 -16 c-19 -14 -50
-41 -68 -60 -36 -38 -56 -36 -26 2 23 32 114 99 122 91 3 -3 -10 -18 -28 -33z
m-10964 -23 c-3 -8 -6 -5 -6 6 -1 11 2 17 5 13 3 -3 4 -12 1 -19z m10993 2 c0
-5 -6 -10 -12 -10 -7 0 -21 -14 -30 -31 -11 -18 -35 -37 -58 -47 -25 -11 -40
-24 -40 -35 0 -10 -4 -16 -9 -13 -16 11 0 41 28 54 15 7 34 24 41 38 19 35 80
68 80 44z m60 -3 c-22 -17 -63 -77 -57 -83 2 -3 24 18 48 46 23 27 49 50 57
50 13 0 -61 -100 -80 -108 -5 -2 -8 -9 -8 -16 0 -14 -40 -50 -47 -42 -3 3 2
12 11 21 20 21 21 36 1 29 -19 -8 -19 -5 1 37 22 45 54 79 73 79 14 -1 14 -2
1 -13z m141 -1 c-9 -11 -9 -15 1 -19 7 -2 10 -8 5 -12 -4 -5 -12 -4 -17 1 -12
12 -3 44 12 44 6 0 6 -6 -1 -14z m-11172 -56 c0 -10 -3 -8 -9 5 -12 27 -12 43
0 25 5 -8 9 -22 9 -30z m3481 10 c69 -5 204 -14 300 -19 96 -5 200 -13 231
-17 l57 -6 6 -187 c3 -102 9 -317 12 -478 l6 -292 -73 -4 -74 -3 87 -2 c99 -2
97 -1 97 -96 l0 -58 -72 6 c-40 4 -182 9 -316 11 -134 3 -245 6 -245 7 -1 2 0
32 2 67 l4 64 96 -6 c54 -3 115 -2 137 2 28 6 -9 9 -127 10 -105 1 -168 5
-168 11 0 6 7 10 15 10 21 0 55 30 66 58 11 29 -7 108 -27 116 -8 3 -14 12
-14 19 0 15 -88 89 -99 83 -3 -2 -26 -13 -51 -24 -43 -19 -90 -62 -90 -81 0
-5 -7 -22 -15 -37 -17 -33 -20 -94 -5 -94 6 0 10 -7 10 -15 0 -8 16 -22 35
-31 36 -17 45 -26 23 -23 -41 5 -43 1 -40 -67 4 -72 -7 -96 -33 -74 -8 7 -13
21 -10 30 4 12 -1 19 -16 23 -19 5 -21 11 -16 46 2 21 1 43 -3 48 -5 4 -11
150 -14 323 -4 173 -9 402 -12 509 l-6 194 109 -7 c59 -3 164 -10 233 -16z
m7760 10 c0 -5 -4 -10 -10 -10 -5 0 -10 5 -10 10 0 6 5 10 10 10 6 0 10 -4 10
-10z m-40 -20 c0 -5 -5 -10 -11 -10 -5 0 -7 5 -4 10 3 6 8 10 11 10 2 0 4 -4
4 -10z m64 -32 c-4 -7 -9 -6 -14 2 -5 8 -10 9 -14 2 -3 -6 1 -17 9 -25 21 -21
19 -30 -5 -24 -11 3 -20 1 -20 -4 0 -5 -9 -9 -20 -9 -24 0 -27 25 -4 34 9 4
14 9 10 13 -3 3 1 14 10 24 13 14 21 16 36 8 10 -5 16 -15 12 -21z m-6774 2
c47 -5 113 -10 148 -10 62 0 69 -4 53 -29 -7 -10 -34 -13 -122 -10 -69 3 -114
0 -114 -6 0 -9 41 -13 158 -14 l57 -1 0 -34 c0 -33 -1 -34 -42 -34 -24 -1 -46
5 -50 11 -6 9 -10 8 -17 -2 -7 -11 -15 -12 -38 -4 -15 6 -95 11 -178 12 -84 1
-153 5 -159 11 -6 6 -25 10 -43 10 -33 0 -53 21 -53 56 0 14 6 15 33 9 17 -5
52 -9 77 -10 25 -2 50 -4 55 -5 6 -1 42 -1 80 0 65 2 67 3 30 11 -22 4 -92 13
-157 20 -92 10 -115 15 -111 26 5 11 33 13 157 8 83 -3 189 -10 236 -15z
m-4483 -12 c-3 -8 -6 -5 -6 6 -1 11 2 17 5 13 3 -3 4 -12 1 -19z m2773 -10
c63 -6 136 -10 163 -9 46 2 54 -3 39 -25 -11 -17 -459 3 -489 22 -13 8 -23 19
-23 24 0 10 126 6 310 -12z m79 -58 c57 -6 106 -12 108 -14 2 -2 5 -26 6 -55
2 -44 5 -51 22 -51 13 0 16 -3 8 -8 -6 -4 -13 -25 -15 -47 -3 -35 -6 -40 -28
-40 -15 0 -24 5 -22 13 1 6 -2 12 -8 12 -16 0 -11 27 6 34 9 4 14 9 11 13 -4
3 -2 12 4 20 9 9 8 13 0 13 -6 0 -17 14 -24 31 l-13 32 -192 4 -192 4 -10 -27
c-15 -38 -33 -17 -32 36 0 22 1 42 1 43 2 6 261 -4 370 -13z m8362 -32 c0 -7
0 -56 0 -108 0 -347 1 -409 8 -447 5 -23 8 -94 7 -158 0 -63 3 -115 8 -115 4
0 6 -11 4 -25 -4 -18 -1 -25 11 -25 21 -1 51 -24 51 -40 0 -7 8 -19 18 -26 15
-12 15 -13 0 -14 -9 0 -18 5 -20 12 -3 7 -12 9 -22 5 -10 -4 -14 -12 -10 -19
5 -7 1 -9 -13 -6 -11 3 -27 2 -35 -3 -12 -6 -15 -4 -14 9 1 22 -44 30 -56 9
-4 -8 -26 -18 -48 -22 -23 -4 -37 -11 -34 -17 4 -6 -2 -5 -15 1 -28 15 -27 29
4 37 15 4 25 13 25 24 0 10 9 22 20 25 11 3 21 12 22 18 0 7 2 17 2 22 3 23
19 35 46 35 32 0 48 15 25 24 -8 3 -17 1 -20 -4 -4 -6 -10 -10 -16 -10 -11 0
-11 209 1 380 5 69 9 161 8 205 -1 44 -1 98 0 120 1 22 2 59 2 83 1 34 5 42
21 42 10 0 19 -6 20 -12z m-11148 -80 c16 -50 14 -67 -3 -23 -13 34 -24 81
-18 75 3 -3 12 -26 21 -52z m2828 36 c21 -26 -2 -31 -121 -23 -63 4 -141 8
-172 8 -44 1 -58 5 -58 16 0 22 332 22 351 -1z m1450 5 c30 -5 110 -11 179
-14 68 -3 127 -9 131 -13 8 -9 29 -502 29 -689 l0 -143 -67 -1 c-108 -1 -123
-17 -17 -18 56 -1 95 -6 102 -13 7 -7 12 -40 12 -80 l0 -68 -36 0 c-19 0 -44
5 -55 11 -11 5 -41 12 -67 15 -26 3 -80 12 -121 20 -40 8 -117 14 -170 14 -53
0 -102 4 -109 9 -8 5 -12 23 -10 47 l3 39 95 5 c88 5 91 6 46 13 -27 4 -71 7
-97 7 -45 0 -49 2 -49 24 0 13 -6 26 -14 29 -15 6 -20 103 -32 565 l-7 253
100 -2 c55 -1 124 -5 154 -10z m-1816 -39 c-3 -5 -15 -10 -25 -10 -10 0 -22 5
-25 10 -4 6 7 10 25 10 18 0 29 -4 25 -10z m211 -6 l132 -7 6 -47 c4 -27 13
-53 21 -60 13 -10 15 -57 15 -286 0 -164 -4 -274 -9 -274 -6 0 -11 -15 -13
-32 -2 -21 -8 -33 -18 -33 -8 0 -18 -4 -22 -10 -20 -28 -29 28 -39 246 -11
231 -9 338 6 372 7 16 -2 17 -112 17 l-120 0 -6 -137 c-3 -76 -2 -172 3 -213
14 -117 13 -283 -2 -278 -7 3 -14 18 -16 34 -2 16 -10 45 -19 64 -14 31 -17
32 -23 15 -4 -11 -7 -22 -6 -25 4 -10 29 -66 37 -83 12 -22 -5 -29 -57 -25
-35 3 -39 6 -36 27 2 15 0 21 -7 17 -6 -4 -11 -14 -11 -22 0 -8 -7 -14 -15
-14 -22 0 2 47 28 54 12 3 18 10 14 20 -3 8 -1 17 6 20 9 3 9 7 1 13 -8 6 -11
85 -10 270 1 243 2 263 19 263 15 0 17 -14 18 -152 1 -84 4 -191 8 -238 l8
-85 3 85 c1 47 2 146 1 220 -2 192 22 306 64 296 11 -3 79 -8 151 -12z m-1696
-24 c8 -5 11 -12 7 -16 -3 -4 -14 -1 -22 6 -13 11 -19 10 -33 -4 -16 -17 -16
-18 8 -11 19 6 22 5 14 -5 -7 -7 -21 -9 -32 -5 -20 6 -20 7 -4 26 18 21 39 24
62 9z m1480 -9 c0 -11 -4 -22 -10 -26 -5 -3 -7 -12 -3 -20 4 -11 -2 -15 -21
-15 -27 0 -35 15 -13 23 7 3 5 6 -5 6 -11 1 -18 9 -18 19 0 25 9 32 42 32 21
0 28 -5 28 -19z m-2431 -39 c6 -10 7 -28 4 -40 -4 -18 -13 -22 -44 -22 -39 0
-39 0 -39 40 0 39 1 40 35 40 23 0 37 -6 44 -18z m206 -44 c17 -15 23 -28 19
-43 -7 -27 19 -41 36 -19 7 8 23 14 35 14 22 0 23 -4 24 -59 0 -46 -4 -63 -20
-76 -10 -10 -19 -29 -19 -42 0 -14 -7 -31 -15 -40 -8 -8 -13 -19 -10 -24 10
-15 23 -10 30 11 3 11 13 20 21 20 10 0 14 -13 14 -50 0 -38 -4 -52 -19 -60
-29 -15 -32 -13 -19 15 13 29 5 43 -15 27 -10 -9 -18 -2 -35 34 -27 55 -27 60
-2 67 23 6 28 48 7 66 -11 8 -13 6 -13 -11 1 -13 -6 -24 -15 -26 -12 -2 -26
20 -53 82 -37 87 -38 116 -5 116 10 0 19 5 19 10 0 15 7 12 35 -12z m2673 -11
c6 -7 11 -47 10 -90 0 -106 13 -398 18 -419 4 -15 -1 -18 -29 -18 l-35 0 -1
238 c-1 130 -2 246 -3 257 -1 36 2 45 16 45 7 0 18 -6 24 -13z m-2001 -124
c-3 -10 -5 -4 -5 12 0 17 2 24 5 18 2 -7 2 -21 0 -30z m-798 -33 c0 -10 -3 -8
-9 5 -12 27 -12 43 0 25 5 -8 9 -22 9 -30z m384 -20 c3 -11 1 -20 -4 -20 -5 0
-9 9 -9 20 0 11 2 20 4 20 2 0 6 -9 9 -20z m418 -22 c2 -20 0 -40 -4 -44 -4
-4 -7 14 -7 41 0 56 7 57 11 3z m-561 2 c0 -5 -5 -10 -11 -10 -5 0 -7 5 -4 10
3 6 8 10 11 10 2 0 4 -4 4 -10z m11199 1 c12 -8 12 -14 1 -42 -8 -18 -16 -27
-18 -21 -4 14 -32 16 -32 2 0 -5 7 -13 16 -18 14 -8 12 -16 -12 -65 -22 -45
-32 -56 -46 -51 -22 6 -24 -4 -4 -20 12 -9 10 -19 -15 -66 -17 -30 -28 -47
-25 -37 3 11 0 17 -9 17 -8 0 -15 -7 -15 -15 0 -8 -6 -15 -14 -15 -9 0 -12 -8
-8 -25 2 -15 0 -25 -7 -25 -6 0 -11 11 -11 25 0 27 -14 34 -23 11 -7 -18 24
-54 41 -49 16 6 16 -8 -1 -30 -11 -16 -14 -16 -35 -1 -13 9 -30 33 -39 55 -17
44 -33 51 -33 14 0 -14 -4 -25 -9 -25 -4 0 -6 11 -3 25 4 22 1 25 -27 25 -30
0 -31 1 -31 44 0 24 3 51 6 60 7 18 35 21 51 5 18 -18 37 -1 21 19 -10 12 -10
16 0 19 18 7 14 20 -8 26 -15 4 -20 0 -20 -13 0 -18 -23 -34 -34 -23 -14 14
-4 42 22 59 34 24 81 25 104 2 22 -22 23 -28 3 -28 -8 0 -15 -4 -15 -10 0 -5
5 -10 12 -10 6 0 20 -8 30 -17 17 -15 19 -15 32 3 13 16 12 21 0 35 -11 13
-12 22 -2 50 6 19 16 37 22 41 6 4 12 12 12 18 3 21 4 22 19 10 13 -10 15 -9
15 9 0 16 6 21 25 21 14 0 25 5 25 10 0 12 20 13 39 1z m-10852 -26 c8 -9 13
-22 10 -30 -3 -7 1 -19 9 -26 12 -10 18 -8 30 9 28 40 84 23 84 -25 0 -13 6
-23 13 -24 10 0 10 -2 0 -6 -16 -6 -17 -33 -3 -33 6 0 3 -11 -7 -24 -10 -13
-21 -22 -25 -20 -4 3 -12 -5 -18 -16 -12 -23 -42 -26 -58 -7 -12 14 12 50 40
60 14 5 16 13 11 39 -3 18 -8 35 -10 38 -7 7 -21 -22 -17 -34 7 -20 -45 -80
-79 -92 -23 -8 -33 -18 -35 -35 l-3 -24 21 23 20 24 52 -25 c38 -18 58 -23 70
-16 10 5 18 14 18 19 0 5 7 16 16 24 14 14 18 13 50 -12 19 -15 34 -34 34 -42
0 -9 6 -22 13 -29 10 -11 10 -14 0 -18 -7 -3 -13 -18 -13 -34 0 -21 -4 -27
-15 -23 -8 4 -15 13 -15 20 0 25 -30 28 -60 5 -17 -12 -36 -18 -45 -15 -13 5
-14 9 -4 15 8 4 11 11 7 14 -10 11 -48 -19 -48 -37 0 -31 -16 -20 -41 27 -13
25 -26 45 -29 45 -3 0 -10 -15 -15 -32 -6 -18 -17 -34 -25 -36 -19 -3 -44 51
-35 78 7 20 -9 28 -20 10 -8 -14 -25 -3 -25 16 0 20 24 44 43 44 20 0 40 26
32 41 -6 8 -10 7 -16 -2 -6 -11 -13 -11 -26 -3 -32 18 -68 12 -71 -13 -4 -28
-22 -31 -22 -4 0 11 -3 27 -6 36 -5 11 0 18 14 22 11 2 23 14 25 25 5 19 7 19
29 4 25 -18 64 -21 73 -6 3 6 -3 10 -15 10 -11 0 -29 5 -39 11 -16 11 -17 15
-4 40 8 16 21 29 29 29 8 0 14 5 14 11 0 7 10 9 25 7 14 -3 25 -1 25 3 0 14
20 10 37 -6z m-539 -50 c-3 -3 -9 2 -12 12 -6 14 -5 15 5 6 7 -7 10 -15 7 -18z
m832 15 c0 -5 -14 -10 -30 -10 -17 0 -44 -7 -60 -15 -18 -9 -30 -11 -30 -5 0
6 8 13 18 16 9 3 24 9 32 14 21 12 70 12 70 0z m3950 -10 c0 -11 4 -20 9 -20
5 0 7 -9 4 -20 -5 -18 -3 -19 21 -10 35 13 76 13 76 0 0 -5 -5 -10 -12 -10 -6
0 -3 -7 8 -15 18 -14 18 -16 1 -29 -13 -10 -15 -15 -5 -19 10 -4 11 -7 1 -18
-7 -7 -13 -21 -13 -31 0 -20 -26 -25 -32 -7 -2 7 -12 -1 -22 -16 l-18 -27 44
7 c23 4 47 14 51 21 9 16 43 19 52 4 5 -8 11 -8 20 0 18 15 43 -44 26 -64 -8
-10 -9 -16 -2 -21 7 -4 7 -13 -2 -28 -28 -49 -70 -62 -82 -24 -7 19 -9 17 -12
-15 -5 -42 -27 -52 -37 -16 -5 21 -7 21 -21 7 -12 -12 -14 -22 -6 -41 13 -35
23 -39 52 -24 13 7 30 11 37 8 6 -2 15 3 18 12 9 23 47 20 71 -6 23 -26 37
-84 23 -93 -6 -3 -10 -14 -10 -25 0 -10 -7 -20 -15 -24 -10 -4 -15 1 -15 14 0
13 -7 20 -19 20 -30 0 -34 -17 -11 -40 26 -26 29 -60 3 -39 -9 8 -19 12 -22 9
-3 -3 -7 5 -9 18 -3 19 -6 21 -18 11 -13 -11 -14 -9 -9 14 6 23 4 27 -14 27
-18 0 -21 -6 -21 -44 0 -30 -5 -46 -15 -50 -8 -3 -15 -1 -15 4 0 6 5 10 11 10
6 0 9 16 7 38 -3 36 -4 37 -42 36 l-39 -2 23 18 c21 15 22 20 11 34 -19 22
-30 20 -37 -9 -3 -13 -12 -29 -20 -36 -18 -15 -18 1 0 26 7 10 11 27 8 37 -2
10 2 26 10 36 21 24 48 82 48 103 0 26 -29 13 -36 -17 -5 -20 -9 -22 -31 -13
-18 7 -30 6 -41 -3 -17 -14 -17 -15 3 35 4 10 3 17 -4 17 -11 0 -39 -58 -47
-100 -7 -32 32 -83 46 -60 14 23 25 2 11 -23 -7 -12 -16 -45 -20 -72 -5 -28
-9 -41 -10 -30 -3 38 -40 140 -50 138 -28 -7 -61 -48 -61 -76 0 -22 -4 -28
-15 -23 -13 5 -20 -10 -16 -36 2 -15 -20 -8 -26 7 -3 9 2 22 13 29 27 20 28
96 2 96 -22 0 -48 34 -48 62 0 40 18 35 36 -13 26 -63 88 -76 100 -20 3 14 9
34 15 43 12 23 12 58 -1 58 -5 0 -12 -11 -16 -25 l-6 -25 -26 25 c-28 29 -40
31 -48 10 -10 -25 -22 -7 -21 31 1 24 -5 41 -16 49 -26 19 -24 140 2 154 39
21 104 -17 79 -47 -8 -9 -6 -16 8 -27 22 -17 64 -20 64 -5 0 6 -7 10 -15 10
-11 0 -15 12 -15 48 1 40 6 53 38 89 31 36 43 43 75 43 30 0 37 -4 37 -20z
m-4766 -36 c3 -8 2 -12 -4 -9 -6 3 -10 10 -10 16 0 14 7 11 14 -7z m10550 -39
c3 -8 12 -15 21 -15 16 0 19 -9 9 -34 -7 -19 -30 -21 -37 -3 -3 6 -6 8 -6 2 0
-5 3 -16 8 -24 11 -18 61 -6 61 14 0 8 4 15 9 15 23 0 41 -14 41 -30 0 -11 5
-22 10 -25 8 -5 7 -12 -2 -23 -10 -12 -10 -16 0 -19 15 -6 16 -39 0 -49 -6 -4
-17 1 -25 11 -7 11 -13 14 -13 8 0 -6 -13 -14 -30 -18 -34 -7 -38 -24 -12 -48
16 -14 23 -15 53 -4 19 6 38 18 42 25 5 7 21 12 35 11 15 -1 35 2 45 6 24 10
67 -13 67 -36 0 -10 9 -21 20 -24 20 -6 28 -35 10 -35 -5 0 -10 -6 -10 -13 0
-11 -45 -67 -54 -67 -2 0 -2 9 1 20 6 23 -14 53 -29 44 -5 -3 -7 -12 -4 -20 3
-8 1 -14 -4 -14 -6 0 -10 7 -10 15 0 19 -16 20 -23 1 -7 -18 20 -56 41 -56 14
-1 14 -3 -3 -13 -11 -7 -20 -19 -20 -27 0 -8 -10 -16 -22 -18 -13 -2 -23 -7
-23 -12 0 -4 -7 -11 -16 -14 -13 -5 -14 -4 -6 7 7 8 9 17 5 21 -4 4 -1 11 7
16 11 7 12 15 1 49 -13 46 -17 48 -48 22 -28 -24 -29 -31 -3 -31 11 0 20 -7
20 -15 0 -8 -7 -15 -16 -15 -20 0 -77 -57 -70 -69 3 -5 -1 -11 -9 -15 -15 -5
-21 15 -8 28 27 26 47 170 21 148 -7 -5 -24 -12 -38 -14 -16 -2 -27 -12 -31
-28 -4 -14 -7 -20 -8 -14 -1 16 -69 47 -87 40 -9 -3 -14 -20 -14 -47 0 -35 6
-47 41 -81 22 -22 38 -42 35 -46 -4 -3 -12 0 -18 6 -7 7 -22 12 -35 12 -13 0
-26 7 -29 15 -4 8 -10 15 -15 15 -12 0 -44 -32 -54 -56 -7 -15 -10 -10 -14 26
-6 44 -7 45 -40 42 -18 -1 -40 3 -48 9 -10 9 -17 9 -25 1 -19 -19 -35 -14 -42
12 -3 14 -13 32 -22 40 -10 10 -11 16 -4 16 8 0 10 8 7 21 -3 12 -3 34 0 49 4
23 14 31 55 44 36 11 55 13 69 5 11 -5 17 -14 14 -19 -6 -10 56 -40 82 -40 7
0 16 7 20 16 7 19 -18 38 -28 22 -4 -6 -14 -8 -24 -5 -9 4 -13 12 -9 18 4 7
-1 19 -12 27 -14 10 -15 16 -6 19 10 4 10 8 1 19 -9 11 -9 17 0 28 9 10 9 16
1 21 -8 5 -7 11 1 22 10 12 10 16 -2 23 -12 8 -12 12 3 26 29 29 98 21 98 -11
0 -8 5 -15 10 -15 6 0 10 9 10 20 0 51 118 126 134 85z m-8634 -65 c31 -29 32
-31 16 -55 -17 -25 -16 -25 7 -19 27 6 48 -13 27 -26 -9 -5 -9 -9 -1 -14 16
-11 13 -26 -4 -20 -10 4 -15 0 -15 -11 0 -20 -33 -12 -64 16 -22 21 -36 24
-36 9 0 -5 -7 -10 -15 -10 -8 0 -15 -4 -15 -9 0 -12 -56 3 -76 20 -9 8 -14 8
-14 1 0 -6 5 -14 10 -17 6 -3 10 -14 10 -23 -1 -15 -2 -15 -15 2 -30 39 -8
117 28 103 9 -3 19 -2 22 3 4 6 -3 10 -14 10 -31 0 -25 12 22 42 56 35 87 35
127 -2z m1250 14 c0 -9 9 -18 20 -21 26 -7 21 -27 -8 -31 -12 -2 -22 -8 -22
-13 0 -13 38 -11 42 3 2 6 10 8 17 4 7 -5 10 -14 7 -22 -3 -8 1 -14 9 -14 22
0 18 -47 -5 -63 -23 -16 -64 -12 -81 9 -15 18 -29 18 -29 -1 0 -10 -12 -14
-45 -13 -31 0 -45 5 -45 14 0 8 -4 14 -10 14 -5 0 -10 -5 -10 -11 0 -5 -5 -7
-12 -3 -9 6 -9 9 0 12 7 2 12 12 12 23 0 15 7 19 33 19 29 1 30 2 12 12 -11 6
-21 12 -23 14 -7 5 31 54 38 49 5 -3 12 0 15 6 17 27 85 38 85 13z m7721 -87
c-4 -86 -9 -97 -27 -62 -16 31 -19 95 -4 95 6 0 10 8 10 18 0 21 10 35 19 26
3 -3 4 -38 2 -77z m-10484 67 c-3 -3 -12 -4 -19 -1 -8 3 -5 6 6 6 11 1 17 -2
13 -5z m-91 -52 c16 -20 39 -45 51 -55 29 -23 29 -35 1 -47 -13 -5 -17 -9 -10
-9 28 -2 -1 -21 -31 -21 -35 0 -59 11 -56 26 4 21 -2 34 -16 34 -9 0 -12 6 -9
15 4 8 15 15 25 15 10 0 19 5 19 10 0 14 -23 12 -56 -5 -27 -14 -29 -13 -41 8
-9 18 -9 23 2 25 8 2 17 11 20 21 4 12 16 18 39 19 28 1 39 -5 62 -36z m2454
-96 c0 -13 7 -29 15 -36 8 -7 12 -16 9 -21 -6 -11 -114 -10 -114 1 0 3 9 16
20 28 12 12 16 22 10 22 -17 0 -11 18 8 23 40 11 52 7 52 -17z m1730 -2 c0 -8
-4 -14 -10 -14 -5 0 -10 9 -10 21 0 11 5 17 10 14 6 -3 10 -13 10 -21z m6130
6 c-8 -5 -22 -9 -30 -9 -10 0 -8 3 5 9 27 12 43 12 25 0z m-8610 -45 c0 -34
-1 -35 -40 -35 -22 0 -40 5 -40 10 0 6 9 10 20 10 11 0 20 4 20 9 0 10 28 41
36 41 2 0 4 -16 4 -35z m-1613 9 c-3 -3 -12 -4 -19 -1 -8 3 -5 6 6 6 11 1 17
-2 13 -5z m10643 -15 c0 -5 -4 -9 -10 -9 -5 0 -10 7 -10 16 0 8 5 12 10 9 6
-3 10 -10 10 -16z m-10330 3 c0 -4 -9 -8 -20 -9 -11 -1 -18 2 -15 8 7 11 35
12 35 1z m10398 -15 c8 -10 6 -16 -9 -26 -15 -8 -19 -19 -15 -34 5 -21 5 -21
-9 -3 -8 11 -15 25 -15 32 0 7 -5 14 -12 16 -19 7 1 28 26 28 13 0 28 -6 34
-13z m-10939 -45 c6 -10 7 -28 4 -40 -4 -18 -13 -22 -44 -22 -39 0 -39 0 -39
40 0 39 1 40 35 40 23 0 37 -6 44 -18z m857 7 c12 -20 -10 -26 -56 -16 -41 9
-43 11 -20 18 38 11 68 10 76 -2z m975 -32 c2 -24 2 -69 1 -100 -4 -54 -5 -57
-25 -51 -30 9 -29 7 -12 40 9 17 15 55 15 92 0 70 16 85 21 19z m135 -51 c1
-50 0 -96 -3 -103 -3 -8 -22 -13 -48 -13 l-43 0 -6 48 c-3 26 -8 73 -12 105
l-6 58 58 -3 59 -3 1 -89z m133 80 c7 -8 21 -12 31 -9 11 3 20 0 20 -6 0 -6
-4 -11 -10 -11 -5 0 -10 -9 -10 -19 0 -11 5 -23 10 -26 6 -3 10 1 10 10 0 21
24 14 28 -8 2 -10 -3 -17 -12 -17 -16 0 -21 -12 -9 -23 3 -4 12 -2 20 4 10 9
17 8 28 -1 21 -18 19 -40 -5 -40 -20 0 -26 -11 -13 -23 3 -4 12 -2 19 4 8 6
21 9 29 5 19 -7 20 -36 0 -36 -8 0 -15 -6 -15 -14 0 -7 7 -19 15 -26 8 -7 15
-19 15 -27 0 -10 6 -13 17 -9 15 6 33 -8 33 -28 0 -13 -54 4 -63 20 -11 19
-28 18 -21 -1 8 -21 -5 -18 -51 10 -22 14 -48 25 -57 25 -22 0 -33 19 -20 32
15 15 3 38 -19 38 -12 0 -19 -7 -19 -20 0 -28 -26 -25 -46 5 -12 18 -15 39
-11 77 10 103 16 116 51 121 17 2 34 5 37 5 4 1 12 -4 18 -12z m559 -8 c3 -17
-13 -18 -230 -18 -218 0 -268 5 -255 26 3 5 112 9 243 9 219 0 239 -1 242 -17z
m-923 1 c-58 -12 -154 -11 -135 1 8 5 51 9 95 9 69 -1 75 -2 40 -10z m2665
-11 c0 -6 -6 -5 -15 2 -8 7 -15 14 -15 16 0 2 7 1 15 -2 8 -4 15 -11 15 -16z
m-1385 2 l-40 -7 41 -2 c35 -1 42 -5 46 -24 7 -37 -10 -80 -47 -120 -41 -43
-72 -46 -91 -9 -8 16 -13 20 -17 10 -9 -24 -54 35 -61 80 -6 46 9 66 23 30 9
-22 10 -22 10 -2 1 12 9 25 19 30 14 6 12 8 -13 14 -19 5 8 8 70 7 71 0 89 -2
60 -7z m-1420 -32 l8 -23 4 23 c4 22 8 23 89 21 46 -1 84 -4 85 -8 1 -11 2
-76 0 -93 0 -10 -8 -18 -16 -18 -9 0 -18 -6 -21 -14 -3 -8 -17 -17 -31 -21
-33 -8 -113 4 -113 18 0 5 -6 15 -14 21 -12 9 -22 71 -17 109 2 16 19 6 26
-15z m-1555 -38 c13 -25 15 -38 7 -35 -10 5 -40 75 -31 75 2 0 13 -18 24 -40z
m2650 31 c0 -6 -4 -12 -8 -15 -4 -2 -114 -6 -243 -7 -210 -2 -234 0 -237 15
-3 14 20 16 242 16 147 0 246 -4 246 -9z m7600 -8 c11 -10 20 -22 20 -27 0 -5
-8 -2 -18 7 -24 22 -32 21 -33 0 0 -15 -2 -15 -9 2 -5 11 -9 23 -9 28 -2 13
28 7 49 -10z m-5940 -35 c0 -5 -4 -8 -10 -8 -5 0 -10 10 -10 23 0 18 2 19 10
7 5 -8 10 -18 10 -22z m-1590 -12 c0 -10 -61 -15 -257 -20 -254 -7 -272 -5
-273 24 0 3 119 6 265 7 207 1 265 -2 265 -11z m7545 -26 c3 -5 -1 -10 -9 -10
-9 0 -16 5 -16 10 0 6 4 10 9 10 6 0 13 -4 16 -10z m48 -10 c-3 -11 -7 -20 -9
-20 -2 0 -4 9 -4 20 0 11 4 20 9 20 5 0 7 -9 4 -20z m-10263 -32 c13 -26 15
-35 5 -24 -15 19 -15 19 -15 -2 0 -19 -6 -22 -40 -22 -40 0 -40 0 -40 39 0 37
2 40 33 44 17 2 33 5 34 5 2 1 12 -17 23 -40z m9943 8 c60 -27 60 -28 51 -63
-7 -26 -24 -21 -24 7 0 19 -32 36 -49 25 -16 -9 -1 -35 20 -35 25 0 24 -16 0
-30 -29 -15 -41 -12 -41 8 0 21 -51 82 -68 82 -20 0 -13 -21 7 -27 11 -3 22
-11 25 -18 3 -9 -2 -11 -15 -8 -24 7 -25 -15 -1 -33 13 -10 14 -15 5 -25 -9
-9 -14 -6 -25 10 -7 11 -18 21 -25 21 -19 0 -27 -21 -12 -31 7 -4 10 -11 6
-16 -11 -10 -42 11 -42 28 0 8 -3 19 -6 24 -10 18 -9 65 1 65 6 0 10 7 10 15
0 8 9 15 20 15 11 0 20 4 20 9 0 17 84 4 143 -23z m-7223 10 c0 -11 -43 -15
-222 -21 -253 -8 -320 -5 -325 12 -4 10 36 13 164 16 92 1 216 4 276 5 86 2
107 -1 107 -12z m37 -8 c-3 -8 -6 -5 -6 6 -1 11 2 17 5 13 3 -3 4 -12 1 -19z
m1713 -17 c0 -6 -4 -13 -10 -16 -5 -3 -10 1 -10 9 0 9 5 16 10 16 6 0 10 -4
10 -9z m-2842 -26 c-11 -11 -51 -14 -67 -5 -12 7 -4 9 28 10 24 0 42 -2 39 -5z
m1142 -8 c0 -16 -173 -27 -406 -27 -131 0 -164 4 -164 21 0 11 75 15 343 17
184 2 227 -1 227 -11z m44 -8 c-8 -14 -24 -10 -24 6 0 9 6 12 15 9 8 -4 12
-10 9 -15z m91 11 c4 -6 -7 -10 -27 -9 -31 1 -32 1 -8 9 14 4 26 8 27 9 1 1 5
-3 8 -9z m-719 -28 c-9 -9 -37 8 -31 18 5 8 11 7 21 -1 8 -6 12 -14 10 -17z
m-2137 -18 c12 -19 16 -32 11 -29 -11 7 -43 65 -36 65 2 0 13 -16 25 -36z
m1508 20 c-3 -3 -12 -4 -19 -1 -8 3 -5 6 6 6 11 1 17 -2 13 -5z m1283 -39 c0
-15 -116 -23 -415 -27 -184 -3 -190 -2 -190 17 0 19 8 20 155 23 85 1 158 4
162 5 4 1 71 1 148 -1 109 -2 140 -6 140 -17z m-2680 -181 c0 -2 -4 -4 -9 -4
-5 0 -12 11 -15 25 -4 14 -11 25 -16 25 -6 0 -10 9 -10 20 0 10 -6 23 -13 27
-8 4 -17 22 -21 38 -4 19 10 0 39 -49 25 -43 45 -80 45 -82z m29 -44 c19 -15
41 -63 41 -90 0 -28 -2 -30 -40 -30 l-40 0 0 40 c0 33 3 40 20 40 11 0 20 7
20 15 0 8 -4 15 -10 15 -5 0 -10 10 -9 23 0 15 2 17 6 7 3 -8 9 -17 12 -20z
m80 -129 c-13 -4 -15 -2 -23 29 l-7 25 20 -25 c11 -14 15 -27 10 -29z m26 -21
c3 -5 1 -10 -4 -10 -6 0 -11 5 -11 10 0 6 2 10 4 10 3 0 8 -4 11 -10z m55 -82
c0 -5 -4 -8 -10 -8 -5 0 -10 7 -10 15 0 8 -4 15 -9 15 -5 0 -11 10 -14 22 -5
19 -3 18 18 -7 13 -17 24 -33 25 -37z m39 -52 c23 -36 27 -51 11 -41 -5 3 -10
-3 -10 -14 0 -18 -6 -21 -40 -21 l-40 0 0 40 c0 38 2 40 30 40 22 0 28 4 24
15 -11 26 4 16 25 -19z m69 -101 c-8 -8 -26 11 -33 35 -7 25 -7 25 15 -3 12
-15 21 -30 18 -32z m32 -36 c0 -6 -4 -7 -10 -4 -5 3 -10 11 -10 16 0 6 5 7 10
4 6 -3 10 -11 10 -16z m80 -100 c14 -18 32 -40 41 -48 8 -9 31 -36 49 -60 19
-25 44 -54 55 -66 11 -11 43 -48 72 -80 96 -111 123 -140 251 -269 115 -117
118 -122 37 -49 -49 45 -133 128 -185 186 -71 78 -96 100 -98 86 -3 -15 -12
-19 -43 -19 -39 0 -39 0 -39 39 0 33 4 40 21 43 l21 3 -20 25 -21 25 -1 -27
c0 -26 -3 -28 -40 -28 l-40 0 0 40 c0 36 3 40 25 40 14 0 25 2 25 5 0 10 -124
155 -132 155 -5 0 -8 7 -8 15 0 8 -9 23 -20 32 -11 10 -20 22 -20 28 1 10 24
-15 70 -76z m671 -717 c27 -25 35 -39 31 -58 -4 -20 -10 -24 -43 -24 -39 0
-39 0 -39 40 0 31 4 40 17 40 13 0 10 7 -13 32 -34 37 -5 19 47 -30z m74 -70
c-3 -3 -11 0 -18 7 -9 10 -8 11 6 5 10 -3 15 -9 12 -12z m46 -38 c17 -18 19
-23 6 -18 -13 4 -17 1 -17 -15 0 -18 -6 -21 -40 -21 l-40 0 0 40 c0 39 1 40
33 40 23 0 41 -8 58 -26z m54 -53 c-6 -5 -25 10 -25 20 0 5 6 4 14 -3 8 -7 12
-15 11 -17z m60 -41 c3 -5 2 -10 -4 -10 -5 0 -13 5 -16 10 -3 6 -2 10 4 10 5
0 13 -4 16 -10z m30 -30 c3 -5 1 -10 -4 -10 -6 0 -11 5 -11 10 0 6 2 10 4 10
3 0 8 -4 11 -10z m60 -45 c17 -14 25 -25 19 -25 -6 0 -23 11 -38 25 -35 32
-20 32 19 0z m80 -65 c3 -5 1 -10 -4 -10 -6 0 -11 5 -11 10 0 6 2 10 4 10 3 0
8 -4 11 -10z m107 -110 c-4 -27 -8 -30 -43 -30 -39 0 -39 0 -39 39 0 33 4 40
23 43 37 6 64 -18 59 -52z m58 -14 c0 -2 -9 -2 -20 1 -11 3 -20 9 -20 15 0 5
9 4 20 -2 11 -6 20 -12 20 -14z m179 -125 c41 -28 69 -51 62 -51 -12 0 -91 52
-119 78 -7 6 -16 12 -20 12 -4 0 -23 14 -42 31 l-35 31 -3 -36 c-3 -35 -5 -36
-43 -36 -39 0 -39 0 -39 39 0 39 1 40 38 43 29 2 47 -4 82 -28 25 -18 78 -55
119 -83z m188 -125 c4 -5 -1 -7 -11 -3 -10 4 -15 3 -11 -4 4 -5 15 -7 25 -4
12 4 50 -14 107 -48 116 -70 306 -174 416 -228 87 -43 87 -43 87 -81 0 -38 0
-38 -40 -38 -40 0 -40 0 -40 39 0 32 4 40 21 43 14 2 3 11 -40 30 l-61 26 0
-29 c0 -27 -2 -29 -40 -29 l-40 0 0 40 c0 31 4 40 18 40 9 0 -7 14 -37 30 -30
17 -56 30 -58 30 -1 0 -3 -13 -3 -30 0 -28 -2 -30 -40 -30 -40 0 -40 0 -40 39
0 33 4 40 21 43 16 2 6 11 -40 35 l-61 32 0 -34 c0 -34 -1 -35 -40 -35 l-40 0
0 40 c0 37 2 40 28 40 l27 1 -25 14 c-22 12 -25 12 -28 -1 -2 -9 -17 -14 -43
-14 -38 0 -39 1 -39 36 0 40 -15 74 -33 74 -11 0 -47 34 -47 45 0 7 100 -57
107 -69z"/>
<path d="M6438 12328 c-3 -69 -7 -95 -21 -157 -12 -52 -14 -121 -10 -376 l6
-311 -46 -18 c-54 -20 -102 -14 -117 15 -8 13 -21 19 -46 19 -20 0 -48 9 -63
19 -38 27 -73 34 -92 19 -21 -17 -82 -106 -97 -141 -21 -49 -15 -63 36 -85 47
-20 66 -36 100 -81 12 -15 28 -23 46 -23 25 0 27 -3 21 -27 -4 -14 -8 -35 -10
-46 -4 -33 -16 -75 -46 -169 -16 -49 -29 -96 -29 -106 0 -9 -16 -31 -35 -49
-19 -17 -35 -37 -35 -44 0 -19 21 -36 36 -30 17 6 19 -13 2 -20 -17 -7 30 -46
55 -47 11 0 32 9 48 21 25 17 29 27 29 65 0 40 2 44 24 44 30 0 76 36 76 60 0
11 5 32 11 47 6 15 15 37 20 48 4 11 12 34 17 50 7 24 10 9 16 -80 l7 -109
-31 -29 c-25 -23 -28 -32 -20 -48 6 -10 15 -19 20 -19 5 0 10 -10 12 -22 2
-14 10 -23 20 -23 9 0 19 -3 23 -7 4 -3 19 -3 35 2 24 7 29 5 34 -13 3 -12 6
-168 6 -347 0 -179 4 -455 10 -615 5 -159 14 -589 20 -955 16 -979 38 -2298
45 -2590 3 -140 10 -525 16 -855 6 -330 15 -802 20 -1050 16 -802 28 -1857 22
-1991 -4 -86 -2 -133 5 -138 7 -4 10 -158 11 -453 1 -247 4 -479 7 -518 5 -66
4 -71 -20 -87 -13 -10 -34 -19 -45 -21 -11 -2 -24 -6 -27 -10 -4 -4 -16 -7
-26 -7 -28 0 -21 -14 17 -34 23 -12 44 -17 65 -13 17 4 30 2 30 -3 0 -6 -9
-10 -19 -10 -20 0 -37 -17 -28 -27 5 -5 58 16 110 43 16 9 27 11 27 5 0 -6 5
-11 12 -11 6 0 20 -8 30 -17 13 -12 22 -13 29 -6 8 8 8 13 0 17 -6 4 -11 12
-11 18 0 16 73 2 116 -23 24 -13 40 -17 46 -11 7 7 3 14 -11 21 -30 17 -26 31
9 31 17 0 30 3 30 6 0 11 -45 43 -61 44 -14 0 -17 26 -22 197 -3 108 -4 200
-1 205 3 4 20 8 38 8 46 0 61 20 47 61 -16 46 -15 49 23 49 50 0 63 -22 36
-58 -12 -17 -20 -35 -16 -40 3 -6 -2 -13 -11 -15 -16 -4 -16 -5 1 -6 11 0 27
-8 37 -17 21 -19 99 -10 131 15 17 14 19 21 9 39 -19 35 -13 42 35 42 51 0 48
7 28 -74 -7 -29 15 -39 66 -27 38 8 40 14 22 83 -9 34 -7 40 13 55 l24 18 -16
130 c-22 175 -20 320 4 329 15 6 18 142 4 193 -12 40 -5 47 23 22 11 -11 28
-18 36 -16 8 3 21 6 29 8 21 6 31 -45 21 -109 -16 -100 -30 -234 -35 -332 -3
-52 -10 -137 -16 -188 -7 -51 -10 -94 -8 -95 2 -1 18 -12 36 -25 18 -12 37
-22 43 -22 23 0 -1 -31 -35 -44 -37 -13 -85 -51 -85 -66 0 -8 14 -21 32 -29
37 -17 102 -6 181 29 50 22 50 22 30 94 -4 16 -2 17 13 11 11 -5 47 -11 82
-13 69 -4 72 -9 43 -62 -30 -57 -33 -76 -16 -94 22 -21 89 -21 126 1 33 20 37
45 17 118 -11 39 -10 47 2 55 46 26 57 43 49 74 -12 46 -39 236 -39 272 0 17
-7 51 -15 74 -15 43 -12 80 6 80 5 0 9 20 9 44 0 38 3 45 25 50 25 6 25 7 25
122 0 82 -5 125 -16 152 -8 20 -18 68 -21 106 -5 53 -11 73 -29 91 -41 41 -73
145 -72 230 1 88 -12 125 -51 148 -32 18 -101 23 -101 7 0 -5 8 -11 18 -11 29
-3 56 -6 69 -7 15 -2 48 -50 40 -58 -3 -3 -15 -1 -26 6 -28 15 -26 0 4 -29 29
-27 32 -41 8 -41 -10 0 -25 13 -34 29 -13 22 -31 33 -72 45 -31 9 -58 20 -61
25 -9 13 26 23 38 11 5 -5 18 -10 28 -10 10 0 18 -4 18 -9 0 -5 10 -11 23 -14
19 -5 18 -3 -8 18 -16 14 -35 25 -42 25 -6 0 -13 6 -16 13 -3 9 -11 9 -32 2
-26 -9 -31 -18 -48 -95 -10 -47 -24 -95 -29 -107 -6 -12 -8 -37 -5 -56 5 -31
2 -36 -30 -53 -20 -11 -39 -26 -44 -34 -31 -61 -49 -103 -49 -116 0 -8 -9 -28
-21 -43 -12 -16 -22 -43 -24 -60 -3 -45 -11 -47 -18 -5 -6 38 -30 63 -59 64
-20 0 -25 20 -5 20 17 0 37 69 37 128 0 58 -19 88 -70 108 -28 11 -39 23 -43
42 -3 15 -11 49 -16 76 -6 28 -8 59 -4 70 17 53 -14 120 -66 142 -43 18 -70
18 -110 -2 -39 -19 -47 -36 -49 -97 -1 -26 -8 -60 -15 -75 -8 -15 -20 -52 -27
-82 -14 -59 -46 -105 -54 -79 -2 8 -9 277 -15 599 -11 567 -18 863 -42 1765
-20 741 -30 1141 -34 1400 -2 138 -9 300 -15 360 -5 61 -12 259 -15 440 -6
330 -21 818 -31 993 -4 68 -2 92 7 92 8 0 9 12 4 43 -17 98 -26 351 -36 1002
-18 1098 -18 1197 1 1189 8 -4 31 -10 50 -13 49 -9 70 -48 51 -93 -34 -82 -21
-148 28 -148 32 1 46 11 96 75 22 28 43 52 48 53 18 8 6 70 -19 97 -14 15 -24
28 -22 29 75 46 136 27 124 -39 -3 -19 -9 -50 -12 -69 -5 -27 -1 -38 17 -55
39 -36 64 -27 109 39 8 12 20 28 27 35 29 30 28 115 -1 115 -32 0 -63 98 -36
115 19 12 10 53 -26 122 -20 37 -40 72 -45 78 -5 5 -9 17 -9 27 0 10 -3 18 -8
18 -4 0 -15 17 -24 39 -9 21 -23 45 -30 52 -18 19 -58 88 -58 100 0 6 -7 17
-15 25 -8 9 -15 24 -15 35 0 36 -53 109 -80 109 -5 0 -10 3 -10 8 0 13 -107
122 -120 122 -7 0 -24 8 -38 19 -15 10 -41 22 -59 25 -30 7 -31 9 -38 78 -4
39 -11 186 -15 327 -6 214 -11 275 -31 368 -24 114 -38 140 -41 81z m632
-9343 c16 -8 34 -24 40 -35 15 -29 -4 -26 -38 5 -15 14 -32 25 -39 25 -7 0
-13 5 -13 10 0 14 16 12 50 -5z m-50 -20 c60 -21 128 -95 87 -95 -6 0 -18 13
-25 29 -9 21 -23 32 -45 36 -18 4 -38 12 -44 17 -7 6 -24 7 -38 4 -19 -5 -23
-3 -19 9 8 19 30 19 84 0z m-18 -57 c4 -38 32 -51 41 -18 9 34 27 22 27 -17 0
-27 -8 -47 -29 -70 -29 -33 -41 -34 -41 -1 0 12 -9 20 -28 24 -16 3 -32 16
-40 32 -12 27 -7 46 7 23 7 -11 11 -9 20 7 6 11 8 28 5 36 -4 11 0 16 14 16
16 0 21 -7 24 -32z m595 -58 c6 0 13 -10 15 -22 4 -25 28 -37 28 -14 0 18 8
20 29 7 19 -12 8 -51 -25 -91 -21 -24 -29 -28 -40 -19 -8 6 -14 20 -14 30 0
11 -7 19 -16 19 -8 0 -22 6 -30 14 -16 17 -19 30 -4 21 6 -3 10 1 10 9 0 9 5
16 10 16 6 0 10 7 10 16 0 10 -6 14 -15 10 -8 -3 -15 0 -15 5 0 7 9 9 23 5 12
-3 27 -6 34 -6z m-472 -95 c8 -58 2 -77 -19 -69 -16 6 -30 111 -20 139 7 17 8
17 20 0 7 -9 16 -41 19 -70z m-141 37 c2 -4 1 -14 -3 -20 -10 -16 -41 -5 -41
14 0 15 35 20 44 6z m750 -55 c3 -12 6 -34 6 -49 0 -16 5 -28 10 -28 6 0 10
-7 10 -15 0 -8 -5 -15 -12 -15 -6 0 -2 -9 11 -21 12 -12 20 -23 18 -26 -9 -8
-43 15 -59 39 -17 26 -33 121 -24 137 10 15 33 2 40 -22z m-694 -2 c-9 -11
-10 -18 -1 -29 16 -19 -26 -46 -62 -39 -31 6 -35 19 -9 27 9 3 30 17 46 31 33
28 45 33 26 10z m-120 -15 c0 -11 -4 -20 -9 -20 -5 0 -16 -3 -25 -6 -19 -7
-22 16 -4 34 18 18 38 14 38 -8z m610 -4 c0 -3 -4 -8 -10 -11 -5 -3 -10 -1
-10 4 0 6 5 11 10 11 6 0 10 -2 10 -4z m50 -6 c0 -5 -7 -10 -15 -10 -8 0 -15
5 -15 10 0 6 7 10 15 10 8 0 15 -4 15 -10z m-653 -42 c4 -7 8 -22 8 -33 0 -11
10 -24 23 -30 12 -5 22 -13 22 -18 0 -4 -5 -5 -12 -1 -8 5 -9 2 -5 -10 4 -10
7 -22 7 -28 0 -6 6 -6 15 2 9 7 15 29 15 54 0 39 3 42 42 58 23 10 43 16 46
13 2 -2 -5 -25 -17 -50 -11 -24 -21 -58 -21 -75 0 -20 -5 -30 -15 -30 -19 0
-19 -38 -1 -62 15 -21 32 -23 39 -5 3 9 7 9 17 0 10 -9 3 -17 -35 -35 -27 -13
-50 -28 -52 -35 -3 -8 5 -7 27 3 42 22 84 11 76 -18 -3 -12 -1 -28 5 -34 15
-19 39 -5 39 22 0 28 34 54 72 54 36 0 64 -41 73 -110 4 -30 11 -65 16 -77 6
-18 5 -23 -6 -23 -8 0 -15 -4 -15 -10 0 -5 6 -10 13 -10 10 0 13 -15 11 -56
-3 -60 -13 -80 -37 -71 -11 4 -15 23 -14 71 0 36 -3 69 -6 73 -4 3 -7 18 -7
32 -1 14 -7 37 -14 50 -12 22 -13 21 -12 -20 1 -26 7 -49 16 -56 13 -10 12
-14 -4 -32 -21 -23 -52 -28 -59 -8 -4 9 -8 9 -14 0 -12 -17 -129 -10 -125 8
17 71 21 119 13 140 -9 21 -10 19 -10 -18 -1 -24 -5 -43 -11 -43 -5 0 -10 -9
-10 -21 0 -14 -5 -19 -17 -17 -19 4 -20 26 -7 99 l6 37 -59 -3 c-78 -3 -94 5
-83 47 5 18 11 71 13 118 4 78 3 82 -9 50 -7 -19 -13 -53 -13 -75 -2 -67 -20
-79 -23 -15 -1 30 -3 73 -4 95 -4 64 4 85 39 100 40 18 54 18 64 3z m728 -28
c-1 -22 -4 -42 -6 -44 -2 -1 -21 -10 -41 -20 -31 -14 -41 -14 -58 -4 -30 19
-25 26 30 50 28 12 50 27 50 34 0 7 6 15 13 17 6 3 13 6 13 6 1 1 0 -17 -1
-39z m-470 0 c3 -5 1 -10 -6 -10 -8 0 -9 -4 0 -13 8 -10 7 -17 -1 -25 -9 -9
-9 -15 0 -24 9 -9 15 -8 25 6 12 17 14 17 20 2 7 -19 -1 -46 -14 -46 -5 0 -9
-17 -9 -39 0 -34 -3 -39 -27 -44 -42 -8 -80 26 -88 79 -8 53 1 73 21 47 12
-15 15 -16 23 -3 6 9 6 19 1 26 -6 6 -7 14 -3 17 3 4 -2 9 -11 13 -9 3 -16 10
-16 15 0 12 77 11 85 -1z m315 -45 c0 -8 -12 -22 -27 -32 -16 -10 -31 -21 -34
-26 -3 -4 -6 6 -7 22 0 19 6 35 16 41 25 14 52 12 52 -5z m264 -29 c45 -19 65
-41 66 -73 0 -12 9 -59 20 -105 13 -56 20 -118 20 -190 0 -119 -4 -126 -72
-113 l-33 6 0 119 c0 82 -4 123 -12 131 -7 7 -13 35 -13 61 0 44 -11 61 -24
39 -3 -4 1 -50 9 -102 7 -51 12 -95 10 -97 -4 -4 -227 -5 -257 -1 -13 2 -18
11 -18 37 0 30 -2 33 -16 21 -14 -11 -15 -9 -12 16 3 33 24 45 30 18 3 -10 12
7 22 42 31 102 32 103 60 98 19 -4 26 -1 26 10 0 8 -3 17 -7 20 -5 2 -2 2 5 1
6 -2 12 5 12 14 0 25 20 42 47 42 13 0 23 5 23 10 0 6 9 10 20 10 12 0 20 7
20 17 0 15 2 15 18 1 9 -9 35 -23 56 -32z m-296 -46 c-7 -11 -19 -22 -26 -25
-13 -5 -8 8 13 32 17 20 26 15 13 -7z m32 -20 c0 -12 -16 -44 -35 -73 -33 -49
-35 -50 -35 -23 0 25 18 67 44 104 13 18 26 14 26 -8z m-106 -44 c-6 -15 -24
-23 -24 -11 0 8 24 34 28 30 1 -1 0 -10 -4 -19z m-214 -34 c0 -5 -12 -14 -27
-21 -28 -13 -51 -2 -39 18 8 13 66 15 66 3z m223 -69 c-1 -60 -5 -80 -18 -88
-12 -8 -21 -4 -36 14 -29 35 -25 87 10 122 16 16 33 29 38 29 4 0 7 -35 6 -77z
m-566 -85 c-2 -18 -4 -6 -4 27 0 33 2 48 4 33 2 -15 2 -42 0 -60z m91 35 c-10
-2 -26 -2 -35 0 -10 3 -2 5 17 5 19 0 27 -2 18 -5z m-41 -39 c5 -13 7 -13 15
-2 7 10 11 9 23 -6 8 -11 15 -14 15 -8 0 7 7 12 15 12 10 0 15 -10 15 -29 0
-23 5 -31 23 -34 l22 -4 -22 -8 c-22 -7 -22 -7 -3 -42 16 -30 17 -50 13 -161
-3 -70 -6 -185 -7 -257 l-1 -130 -67 0 c-37 0 -71 5 -77 10 -16 17 -18 477 -1
583 14 89 24 110 37 76z m761 -61 c-10 -2 -18 -8 -18 -13 0 -5 -12 -13 -27
-18 -30 -11 -31 -11 40 -16 16 -1 32 -8 37 -16 8 -13 10 -13 10 1 0 18 26 33
34 21 3 -5 3 -47 1 -95 -3 -53 -1 -87 5 -87 6 0 10 -12 10 -26 0 -25 3 -26 34
-21 l34 5 12 -71 c6 -40 15 -88 20 -107 5 -19 12 -66 15 -105 3 -38 8 -85 11
-102 5 -28 3 -33 -12 -33 -11 0 -32 -9 -49 -20 -25 -17 -45 -20 -120 -19 -49
1 -95 6 -102 11 -7 6 -26 5 -51 -2 -39 -10 -92 1 -92 20 0 4 -9 10 -20 13 -19
5 -20 12 -15 109 7 153 34 447 45 488 10 35 12 37 57 39 47 1 89 21 46 21 -11
0 -23 7 -27 15 -4 13 6 15 67 14 40 -1 64 -3 55 -6z m-618 -64 c0 -5 -4 -9
-10 -9 -5 0 -10 7 -10 16 0 8 5 12 10 9 6 -3 10 -10 10 -16z m155 -19 c4 -6
-13 -10 -44 -10 -27 0 -53 5 -56 10 -4 6 13 10 44 10 27 0 53 -4 56 -10z m48
-36 c-12 -70 -14 -124 -4 -124 7 0 11 -10 9 -22 -2 -16 2 -23 14 -22 19 2 24
-19 38 -161 16 -171 17 -170 -32 -185 -62 -19 -224 -22 -238 -5 -7 8 -9 18 -6
23 3 5 6 103 6 218 1 115 5 213 10 219 4 5 10 24 13 40 3 24 4 22 6 -12 2 -58
21 -67 21 -10 l0 45 67 1 c36 0 69 3 71 6 8 8 27 -1 25 -11z m573 -22 c24 -15
26 -50 5 -71 -28 -28 -41 -26 -41 4 0 16 -6 25 -15 25 -19 0 -19 9 2 32 17 19
31 22 49 10z m-522 -38 c13 -33 7 -52 -14 -47 -14 4 -20 14 -20 34 0 31 23 40
34 13z m-384 -465 c0 -5 -9 -9 -20 -9 -19 0 -26 11 -14 23 8 8 34 -3 34 -14z
m210 -39 c0 -5 -4 -10 -10 -10 -5 0 -10 5 -10 10 0 6 5 10 10 10 6 0 10 -4 10
-10z m160 -10 c0 -5 -4 -10 -10 -10 -5 0 -10 5 -10 10 0 6 5 10 10 10 6 0 10
-4 10 -10z m-410 -15 c0 -8 -4 -15 -10 -15 -5 0 -10 7 -10 15 0 8 5 15 10 15
6 0 10 -7 10 -15z m250 -15 c0 -5 -4 -10 -10 -10 -5 0 -10 5 -10 10 0 6 5 10
10 10 6 0 10 -4 10 -10z m428 -12 c5 -7 13 -23 16 -35 10 -32 -26 -31 -43 1
-19 35 3 63 27 34z m272 -11 c0 -8 -11 -12 -27 -11 -46 4 -49 6 -23 14 38 12
50 11 50 -3z m-320 -42 c21 -25 1 -31 -22 -7 -18 18 -19 22 -6 22 8 0 21 -7
28 -15z m324 -1 c10 -27 7 -30 -34 -26 -37 4 -51 18 -33 35 13 13 61 7 67 -9z
m-375 -17 c6 -8 8 -17 4 -20 -7 -8 -33 11 -33 24 0 13 16 11 29 -4z m-39 -37
c0 -5 -4 -10 -10 -10 -5 0 -10 5 -10 10 0 6 5 10 10 10 6 0 10 -4 10 -10z
m410 -8 c0 -11 -8 -17 -25 -17 -14 0 -25 4 -25 8 0 5 -10 5 -21 2 -18 -6 -20
-5 -9 6 7 8 28 15 46 16 27 2 34 -1 34 -15z"/>
<path d="M7135 2490 c3 -5 8 -10 11 -10 2 0 4 5 4 10 0 6 -5 10 -11 10 -5 0
-7 -4 -4 -10z"/>
<path d="M6962 1955 c0 -16 2 -22 5 -12 2 9 2 23 0 30 -3 6 -5 -1 -5 -18z"/>
<path d="M7483 2095 c-1 -27 3 -63 7 -80 l8 -30 0 30 c0 17 -3 53 -8 80 l-7
50 0 -50z"/>
<path d="M7550 1894 c0 -31 40 -178 52 -189 7 -7 9 1 4 25 -15 88 -27 132 -40
158 -13 23 -15 24 -16 6z"/>
<path d="M7111 1860 c0 -25 6 -56 14 -70 l14 -25 0 30 c0 17 -6 48 -14 70
l-13 40 -1 -45z"/>
<path d="M12110 4723 c1 -9 71 -56 76 -51 1 2 -5 13 -14 25 -17 21 -62 41 -62
26z"/>
<path d="M1345 3420 c-3 -5 3 -10 15 -10 12 0 18 5 15 10 -3 6 -10 10 -15 10
-5 0 -12 -4 -15 -10z"/>
<path d="M8157 3323 c-4 -4 -4 -28 -1 -55 5 -38 3 -49 -9 -54 -8 -3 -21 -18
-27 -34 -11 -27 -9 -33 26 -76 l39 -47 -3 -140 -3 -140 28 -28 c15 -16 34 -29
41 -29 6 0 12 -9 12 -19 0 -29 11 -51 24 -51 10 0 57 -56 90 -109 9 -15 9
-155 0 -207 -4 -21 -1 -36 10 -46 8 -9 13 -17 11 -19 -2 -2 -6 -24 -9 -49 -4
-25 -11 -74 -17 -110 -5 -36 -14 -114 -19 -175 -5 -60 -14 -150 -19 -200 -13
-121 -14 -305 -1 -305 5 0 19 -8 30 -17 11 -10 30 -20 41 -23 35 -9 25 -24
-35 -55 -80 -41 -90 -59 -51 -91 32 -25 55 -30 83 -15 9 5 44 17 77 26 33 9
66 18 73 21 17 5 15 28 -8 69 -11 20 -20 38 -20 40 0 11 39 4 78 -15 24 -12
61 -20 92 -20 47 0 50 -2 50 -25 0 -14 -4 -25 -9 -25 -9 0 -12 -7 -30 -63 -8
-24 -6 -29 19 -42 16 -8 43 -15 60 -15 56 0 113 81 81 116 -4 5 -11 26 -14 46
-5 34 -3 38 31 56 28 15 37 25 36 43 -3 53 -32 246 -70 474 -14 83 -30 174
-34 203 -5 30 -16 63 -26 73 -16 18 -16 21 -1 36 13 13 19 14 31 4 12 -10 21
-9 44 3 52 27 63 92 47 256 -11 102 -16 125 -36 146 -38 41 -58 115 -58 221 0
87 -3 98 -26 129 -17 22 -34 34 -51 34 -13 0 -24 5 -24 10 0 6 -9 10 -19 10
-11 0 -23 -4 -26 -10 -3 -5 -22 -10 -41 -10 -28 0 -38 -6 -53 -31 -11 -18 -17
-37 -15 -44 3 -7 -4 -27 -14 -46 -11 -19 -23 -51 -27 -73 -3 -21 -11 -49 -16
-63 l-9 -24 -37 35 c-21 20 -41 36 -44 36 -13 0 -58 79 -64 114 -4 20 -13 36
-20 36 -17 0 -41 30 -50 65 -6 22 -9 25 -12 12 -3 -10 2 -37 10 -60 17 -53 6
-107 -23 -107 -13 0 -22 9 -26 28 -3 15 -10 40 -15 56 -5 16 -9 52 -9 80 0 40
-4 54 -20 64 -25 15 -25 23 0 49 13 15 16 23 7 26 -7 2 -8 8 -4 13 4 4 17 3
27 -4 40 -24 39 -14 -2 77 -31 70 -38 78 -51 64z m603 -335 c16 -18 20 -31 15
-55 -3 -17 -1 -34 5 -38 5 -3 10 -16 10 -27 0 -21 0 -21 -21 -2 -12 10 -27 30
-34 44 -7 14 -29 32 -49 40 -20 7 -36 17 -36 22 0 4 -9 8 -19 8 -11 0 -22 4
-26 9 -3 6 19 10 55 9 33 0 63 2 67 6 9 9 10 8 33 -16z m-114 -39 c3 -6 0 -15
-7 -20 -12 -7 -11 -11 4 -26 16 -16 17 -16 18 2 0 12 3 15 6 7 4 -10 8 -9 19
5 11 15 15 15 23 4 17 -26 -9 -96 -48 -128 -19 -17 -42 -17 -35 0 5 15 -47 77
-64 77 -24 0 -8 32 21 43 11 4 21 16 24 27 6 22 28 27 39 9z m-321 -51 c4 -13
7 -36 6 -53 -2 -24 0 -28 10 -17 20 19 27 15 34 -20 10 -44 17 -55 24 -35 5
14 15 9 56 -28 34 -30 49 -51 47 -64 -2 -12 5 -25 17 -33 25 -15 26 -24 6 -44
-22 -22 -19 -71 6 -92 11 -9 25 -27 30 -39 5 -13 15 -23 23 -23 24 0 46 -47
46 -98 0 -35 6 -56 20 -72 11 -13 20 -24 20 -25 0 -1 -20 -2 -45 -3 -41 0 -48
3 -71 36 -25 36 -27 28 -7 -25 9 -22 -15 -14 -44 14 -17 18 -25 22 -20 10 7
-19 -17 -25 -28 -7 -4 6 -11 8 -16 4 -5 -3 -16 -1 -23 6 -11 8 -13 32 -10 90
2 44 6 116 8 160 2 46 0 78 -5 74 -5 -3 -20 7 -35 23 -20 22 -23 23 -15 6 14
-27 14 -53 1 -53 -5 0 -10 6 -10 13 0 7 -16 28 -35 47 -25 26 -34 44 -35 68 0
29 -3 32 -23 27 -18 -5 -26 -1 -34 17 -8 19 -4 30 34 78 23 30 43 61 43 68 0
20 17 14 25 -10z m-118 -65 c-3 -10 -5 -2 -5 17 0 19 2 27 5 18 2 -10 2 -26 0
-35z m586 -49 c4 -22 11 -52 14 -68 4 -20 2 -27 -6 -22 -19 12 -12 -9 11 -34
18 -20 19 -23 4 -17 -10 4 -24 7 -32 7 -8 0 -14 8 -14 18 0 10 -5 23 -11 29
-6 6 -14 41 -16 77 l-6 66 24 -8 c17 -7 26 -20 32 -48z m-197 12 c9 -9 10 -17
4 -21 -14 -8 -30 3 -30 21 0 18 8 18 26 0z m96 -113 c11 -13 -1 -22 -52 -40
-44 -16 -63 -16 -77 -2 -21 21 14 59 52 59 18 0 39 7 46 17 13 15 14 15 18 -3
2 -10 7 -24 13 -31z m68 -33 c14 -11 29 -20 34 -20 5 0 24 -11 41 -25 35 -26
35 -24 51 -231 6 -69 5 -72 -25 -105 -28 -30 -33 -32 -44 -18 -7 10 -19 14
-31 9 -10 -3 -37 -4 -60 0 -47 6 -46 6 -25 118 12 64 21 72 53 47 11 -8 28
-15 38 -15 11 0 18 -7 18 -19 0 -11 5 -23 10 -26 12 -7 13 34 2 51 -4 6 -17
15 -30 18 -17 6 -23 14 -21 34 1 15 1 36 0 47 -2 20 -2 20 -16 1 -8 -11 -15
-28 -15 -39 0 -12 -4 -16 -12 -10 -14 8 -19 10 -42 12 -9 1 -17 19 -21 50 -4
29 -15 57 -26 67 -28 25 -23 34 19 34 26 0 41 6 50 20 15 25 21 25 52 0z
m-135 -92 c14 -12 25 -32 25 -46 0 -13 9 -35 20 -49 21 -27 26 -58 11 -67 -9
-6 -35 20 -44 46 -3 9 -18 18 -34 20 -22 2 -29 9 -31 31 -2 15 1 27 7 27 6 0
11 14 11 30 0 36 2 36 35 8z m44 -231 c1 -10 -3 -15 -9 -12 -5 3 -10 21 -9 38
0 27 2 29 9 12 5 -11 9 -28 9 -38z m-129 -103 c0 -13 7 -16 33 -12 17 3 41 2
52 -3 13 -6 -3 -7 -45 -4 -85 7 -84 6 -98 22 -11 11 -6 13 23 13 26 0 35 -4
35 -16z m83 9 c-13 -2 -33 -2 -45 0 -13 2 -3 4 22 4 25 0 35 -2 23 -4z m60
-20 c-7 -2 -19 -2 -25 0 -7 3 -2 5 12 5 14 0 19 -2 13 -5z m-244 -112 c6 -51
12 -96 16 -99 3 -3 5 39 5 92 0 97 0 98 23 92 12 -3 54 -6 92 -7 39 -1 73 -7
77 -13 4 -6 8 -32 8 -58 0 -26 5 -50 10 -53 6 -4 10 18 10 60 0 62 1 66 20 60
12 -4 20 -2 20 5 0 26 24 1 36 -36 9 -28 12 -33 13 -16 1 33 21 17 21 -18 0
-16 4 -50 10 -77 5 -26 18 -106 29 -178 11 -71 27 -173 35 -225 28 -172 29
-195 15 -207 -8 -6 -40 -20 -72 -30 -49 -16 -72 -18 -135 -11 -43 5 -85 13
-95 19 -13 7 -34 7 -72 -2 -46 -10 -59 -10 -89 5 -20 9 -36 23 -36 31 0 8 -6
12 -14 9 -20 -8 -23 26 -14 161 11 194 27 400 32 430 3 17 8 55 11 85 13 123
30 115 44 -19z m76 -758 c10 -42 -12 -52 -41 -18 -23 27 -24 31 -9 42 23 16
42 7 50 -24z m305 12 c0 -10 -10 -15 -32 -15 -31 1 -32 1 -14 15 25 19 46 19
46 0z m-376 -31 c17 -7 22 -34 6 -34 -5 0 -10 6 -10 14 0 8 -6 17 -12 19 -7 3
-10 6 -6 6 3 1 13 -2 22 -5z m381 -24 c21 -23 13 -39 -10 -20 -8 7 -25 10 -40
6 -29 -7 -32 1 -7 20 24 19 36 17 57 -6z m-435 -25 c0 -8 -4 -15 -10 -15 -5 0
-10 7 -10 15 0 8 5 15 10 15 6 0 10 -7 10 -15z m424 -31 c31 -12 15 -20 -39
-20 -44 0 -52 2 -43 13 11 14 55 17 82 7z"/>
<path d="M8695 2974 c9 -9 19 -13 23 -10 3 4 0 11 -8 16 -24 15 -33 11 -15 -6z"/>
<path d="M8758 2790 c2 -16 6 -30 8 -30 2 0 4 14 4 30 0 17 -4 30 -8 30 -5 0
-7 -13 -4 -30z"/>
<path d="M8511 1915 c-2 -65 41 -256 69 -303 15 -27 13 17 -5 74 -8 27 -26 94
-39 149 -14 55 -25 91 -25 80z"/>
<path d="M1891 3234 c0 -11 3 -14 6 -6 3 7 2 16 -1 19 -3 4 -6 -2 -5 -13z"/>
<path d="M4877 3219 c7 -7 15 -10 18 -7 3 3 -2 9 -12 12 -14 6 -15 5 -6 -5z"/>
<path d="M6268 3213 c6 -2 18 -2 25 0 6 3 1 5 -13 5 -14 0 -19 -2 -12 -5z"/>
<path d="M2910 3200 c-9 -6 -10 -10 -3 -10 6 0 15 5 18 10 8 12 4 12 -15 0z"/>
<path d="M4398 3193 c7 -3 16 -2 19 1 4 3 -2 6 -13 5 -11 0 -14 -3 -6 -6z"/>
<path d="M8185 3130 c-3 -5 -1 -10 4 -10 6 0 11 5 11 10 0 6 -2 10 -4 10 -3 0
-8 -4 -11 -10z"/>
<path d="M8241 3084 c0 -11 3 -14 6 -6 3 7 2 16 -1 19 -3 4 -6 -2 -5 -13z"/>
<path d="M3485 3060 c-3 -5 -2 -10 4 -10 5 0 13 5 16 10 3 6 2 10 -4 10 -5 0
-13 -4 -16 -10z"/>
<path d="M2768 3023 c7 -3 16 -2 19 1 4 3 -2 6 -13 5 -11 0 -14 -3 -6 -6z"/>
<path d="M5989 2977 c-47 -25 -69 -56 -69 -99 0 -16 -4 -28 -10 -28 -5 0 -10
-7 -10 -15 0 -8 5 -15 10 -15 16 0 12 -113 -5 -136 -8 -10 -15 -28 -15 -38 0
-11 -9 -29 -19 -40 -23 -25 -44 -103 -29 -112 13 -8 15 -5 25 45 7 38 16 50
57 79 41 29 53 33 68 23 10 -6 25 -11 34 -11 20 0 64 -49 64 -71 0 -15 18 -39
31 -39 12 0 18 43 8 62 -7 14 -5 24 8 41 10 13 22 25 26 28 15 8 27 -27 27
-84 0 -54 21 -116 43 -125 4 -2 7 -28 7 -59 0 -49 -2 -54 -19 -48 -11 3 -22 1
-26 -5 -3 -6 -10 -8 -15 -5 -4 3 -13 -2 -20 -10 -17 -21 -50 -19 -50 3 -1 15
-2 15 -16 -3 -9 -11 -18 -15 -20 -9 -3 7 -19 7 -54 0 -27 -5 -52 -7 -56 -3 -4
3 -1 26 5 51 13 52 15 146 3 146 -23 0 -42 -240 -26 -322 5 -24 2 -27 -35 -33
-22 -4 -50 -4 -61 0 -20 6 -21 12 -17 108 2 56 8 109 11 118 4 9 6 36 4 60
l-3 44 -14 -50 c-15 -54 -26 -234 -17 -272 4 -14 14 -23 25 -23 15 0 20 -9 24
-42 3 -24 11 -64 18 -91 9 -35 10 -53 1 -70 -6 -12 -13 -85 -16 -162 -4 -77
-9 -159 -12 -182 -5 -37 -4 -43 12 -43 11 0 29 -8 41 -18 19 -15 21 -22 12
-71 -11 -72 -4 -100 30 -107 14 -3 32 -8 40 -10 7 -2 29 1 47 8 40 14 44 41
14 90 -33 54 -27 66 33 70 28 2 59 6 67 9 16 4 20 -29 7 -66 -6 -17 -2 -21 22
-23 15 -1 50 -9 77 -17 70 -21 116 -19 131 5 19 30 7 46 -57 76 l-59 27 44 28
c51 32 54 48 35 164 -5 33 -14 107 -21 165 -17 164 -26 228 -48 330 -11 52
-17 99 -13 104 3 6 5 23 4 38 -2 25 0 26 32 21 45 -7 76 11 76 45 l0 27 -18
-22 c-19 -25 -72 -35 -79 -15 -3 7 1 10 11 6 9 -4 16 -1 16 6 0 6 -13 17 -29
23 -34 13 -55 50 -42 75 5 9 12 41 16 70 4 28 10 52 13 52 10 0 42 -59 42 -76
0 -8 9 -14 19 -14 12 0 26 -15 40 -42 14 -27 20 -33 17 -18 -3 14 -6 30 -6 36
0 6 -13 26 -30 44 -16 18 -30 41 -30 51 0 9 -15 26 -33 37 -27 16 -37 30 -50
79 -13 44 -23 63 -41 71 -18 8 -25 21 -30 59 -12 84 -17 103 -30 103 -8 0 -25
9 -39 20 -33 26 -54 25 -108 -3z m15 -30 c-6 -17 -34 -31 -43 -21 -3 3 5 14
18 25 26 21 35 20 25 -4z m116 -7 c0 -5 -11 -10 -24 -10 -31 0 -72 -22 -112
-59 -40 -39 -55 -40 -45 -3 4 16 19 33 37 41 74 37 144 52 144 31z m-12 -47
c0 -16 3 -45 7 -65 6 -32 5 -38 -9 -38 -10 0 -14 -4 -11 -10 3 -5 15 -10 26
-10 29 0 18 -23 -15 -35 -56 -20 -114 43 -102 111 7 33 26 48 26 20 0 -8 8
-17 17 -20 26 -11 47 37 21 47 -10 4 -9 8 2 16 26 18 39 12 38 -16z m42 -63
c0 -11 -4 -20 -10 -20 -5 0 -10 9 -10 20 0 11 5 20 10 20 6 0 10 -9 10 -20z
m-170 -50 c0 -60 -20 -114 -48 -129 -32 -17 -35 -13 -14 17 11 15 23 50 27 77
9 67 15 85 26 85 5 0 9 -23 9 -50z m241 -71 c20 -60 25 -119 9 -119 -5 0 -10
6 -10 13 -1 6 -13 30 -29 51 -25 35 -26 43 -17 78 6 21 15 37 20 35 5 -2 17
-28 27 -58z m-150 -1 c22 -12 39 -28 39 -35 0 -7 5 -13 10 -13 6 0 10 -6 10
-14 0 -21 -49 -24 -87 -6 -37 17 -42 30 -12 30 19 0 19 1 5 16 -16 15 -22 44
-10 44 4 0 24 -10 45 -22z m59 -148 c0 -5 -4 -10 -10 -10 -5 0 -10 5 -10 10 0
6 5 10 10 10 6 0 10 -4 10 -10z m90 -35 c0 -8 -4 -15 -10 -15 -5 0 -10 7 -10
15 0 8 5 15 10 15 6 0 10 -7 10 -15z m-65 -260 c-50 -14 -100 -11 -89 6 3 5
35 9 72 8 l67 -1 -50 -13z m45 -40 c0 -31 17 -33 22 -3 2 12 8 23 14 25 22 7
58 -199 94 -536 l14 -123 -25 -19 c-13 -10 -30 -19 -36 -19 -7 0 -13 -5 -13
-11 0 -7 -21 -8 -64 -4 -42 5 -66 3 -70 -4 -15 -24 -204 -8 -242 20 -12 10 -9
161 6 318 5 58 10 111 10 118 0 8 8 13 18 12 34 -3 42 1 42 25 0 13 5 26 11
28 9 3 9 10 0 27 -7 12 -14 51 -16 85 -4 61 -4 64 20 68 17 4 25 1 25 -8 0 -8
5 -14 10 -14 6 0 10 3 10 8 0 11 93 12 107 0 10 -8 13 -6 13 5 0 13 13 21 43
26 4 0 7 -10 7 -24z m-248 -117 c17 -20 18 -23 4 -26 -11 -2 -16 -14 -16 -35
0 -29 -1 -30 -15 -11 -8 10 -15 15 -15 10 0 -5 -7 -3 -15 4 -15 13 -21 61 -8
73 13 14 46 6 65 -15z m48 -619 c0 -5 -11 -9 -25 -9 -26 0 -34 15 -12 23 16 5
37 -3 37 -14z m238 12 c10 -6 10 -10 -3 -21 -8 -7 -15 -19 -15 -26 0 -8 -4
-14 -10 -14 -5 0 -10 16 -10 35 0 35 12 43 38 26z m35 -43 c-13 -12 -25 -19
-29 -15 -10 10 16 37 34 37 13 0 12 -4 -5 -22z m-259 -13 c4 -12 -3 -15 -34
-15 -31 0 -38 3 -34 15 4 8 18 15 34 15 16 0 30 -7 34 -15z m316 6 c0 -12 -20
-25 -27 -18 -7 7 6 27 18 27 5 0 9 -4 9 -9z m-303 -57 c3 -9 -17 -11 -47 -5
-3 1 2 6 10 11 17 11 32 8 37 -6z"/>
<path d="M6162 1993 c-18 -100 -32 -190 -32 -209 1 -16 3 -15 14 6 13 26 43
247 34 256 -3 2 -10 -21 -16 -53z"/>
<path d="M5201 2951 c-48 -13 -87 -137 -56 -177 23 -30 19 -120 -5 -141 -11
-10 -20 -27 -20 -38 0 -12 -5 -26 -12 -33 -16 -16 -38 -82 -38 -117 0 -16 -8
-57 -18 -90 -12 -39 -19 -100 -20 -176 l-3 -117 31 -10 c27 -10 30 -15 30 -53
0 -26 6 -46 16 -53 14 -11 14 -25 0 -156 -26 -236 -30 -338 -17 -354 6 -7 25
-16 41 -20 26 -5 30 -10 30 -37 0 -18 -6 -40 -14 -48 -24 -29 -27 -67 -7 -92
16 -20 27 -23 76 -22 36 1 61 7 67 15 11 17 3 70 -16 110 -20 39 -14 48 34 48
21 0 51 5 65 10 38 14 44 6 33 -40 -6 -23 -8 -43 -6 -46 8 -8 146 -44 168 -44
29 0 70 29 70 50 0 10 -16 25 -40 36 -22 10 -40 22 -40 27 0 4 -7 7 -15 7 -8
0 -15 3 -15 8 0 8 54 58 69 64 10 3 -1 164 -18 278 -27 173 -31 225 -17 235
30 24 48 65 42 97 -4 18 -1 37 6 45 11 13 4 77 -19 173 -3 14 -7 32 -9 40 -1
8 -7 31 -13 50 -6 19 -20 73 -31 120 -22 88 -33 110 -56 110 -10 0 -9 -9 6
-35 11 -20 20 -42 20 -49 0 -7 11 -48 25 -91 14 -42 27 -89 28 -103 2 -15 6
-34 9 -42 3 -8 11 -46 18 -83 11 -63 11 -69 -6 -82 -38 -29 -52 -19 -59 44 -6
52 -4 62 14 80 21 21 29 47 12 37 -18 -12 -30 23 -37 105 -4 46 -13 98 -21
114 l-14 30 6 -40 c3 -22 6 -75 7 -117 2 -43 6 -78 10 -78 5 0 8 -13 8 -30 0
-23 -4 -30 -20 -30 -12 0 -20 7 -20 18 0 14 -4 12 -23 -8 -13 -15 -30 -24 -41
-22 -10 2 -23 -1 -29 -7 -16 -16 -30 -13 -23 4 3 8 2 15 -3 15 -5 0 -14 -7
-21 -15 -17 -20 -46 -19 -54 2 -5 12 -9 14 -18 5 -7 -7 -18 -12 -26 -12 -19 0
-45 27 -32 35 5 3 10 21 10 39 0 18 3 35 6 39 10 10 14 96 5 101 -5 3 -14 -28
-21 -70 -10 -58 -16 -74 -28 -69 -10 4 -12 1 -7 -12 4 -10 9 -60 11 -111 4
-92 4 -93 -22 -102 -27 -11 -70 -4 -80 12 -10 15 -14 211 -5 223 13 17 31 101
31 147 0 54 26 97 73 123 21 11 37 23 37 27 0 5 9 8 20 8 11 0 20 -7 20 -15 0
-10 10 -15 33 -15 28 0 37 -7 66 -51 31 -47 34 -50 49 -35 14 13 14 20 4 36
-6 11 -12 26 -12 33 0 19 33 47 56 47 16 1 17 2 4 13 -11 9 -16 35 -17 96 -2
55 -7 91 -18 107 -8 13 -15 35 -15 49 0 39 -16 62 -51 74 -35 12 -100 13 -138
2z m39 -22 c0 -6 -7 -17 -15 -25 -13 -14 -17 -14 -30 0 -14 13 -13 16 2 25 24
14 43 14 43 0z m110 -9 c0 -5 -8 -10 -18 -10 -32 0 -84 -31 -129 -78 -34 -37
-43 -42 -43 -26 0 11 9 30 19 41 11 12 17 24 13 27 -3 4 0 4 9 1 8 -3 32 8 54
24 39 29 95 42 95 21z m-5 -49 c-4 -13 1 -27 14 -40 16 -16 18 -21 6 -21 -8 0
-15 -5 -15 -12 0 -6 -7 -20 -17 -30 -15 -17 -15 -18 5 -18 24 0 27 -7 12 -30
-8 -13 -14 -13 -52 0 -37 13 -44 20 -52 51 -10 39 -2 89 14 89 6 0 10 -9 10
-20 0 -14 7 -20 21 -20 19 0 21 4 16 35 -5 32 -4 35 19 35 21 0 24 -4 19 -19z
m-125 -108 c0 -14 -26 -82 -33 -90 -4 -3 -4 9 -1 28 4 19 12 37 17 40 5 4 6
12 3 18 -4 6 -2 11 3 11 6 0 11 -3 11 -7z m60 -78 c0 -15 16 -19 53 -16 11 2
17 -5 17 -18 0 -12 7 -21 16 -21 9 0 14 -7 12 -17 -6 -31 -78 -28 -127 4 -2 1
2 9 8 17 8 10 9 16 1 21 -16 10 -12 45 5 45 8 0 15 -7 15 -15z m-113 -75 c-8
-12 -17 -17 -21 -12 -3 5 2 19 11 32 10 14 18 19 21 12 2 -6 -3 -21 -11 -32z
m273 -419 c0 -18 -146 -30 -184 -15 -39 15 -8 24 84 24 55 0 100 -4 100 -9z
m61 -86 c4 -28 14 -120 24 -205 9 -85 23 -207 31 -271 19 -153 19 -152 -17
-178 -24 -18 -47 -24 -102 -27 -40 -2 -98 -6 -130 -10 -67 -7 -195 20 -204 43
-3 8 0 53 6 101 6 48 14 119 16 157 2 39 7 98 11 133 l6 63 29 -6 c27 -6 29
-5 29 25 0 18 6 33 15 36 18 7 19 21 2 54 -8 14 -14 49 -15 78 -1 49 1 52 24
52 16 0 27 -7 33 -22 7 -18 9 -19 14 -4 4 11 16 16 35 14 15 -1 33 1 39 5 7 4
16 0 22 -10 9 -17 10 -17 16 0 4 9 18 17 31 17 18 0 24 -5 24 -22 0 -13 5 -30
10 -38 7 -11 10 -3 10 28 0 36 3 43 17 40 13 -2 20 -17 24 -53z m75 -29 c3
-14 1 -33 -5 -43 -10 -17 -10 -17 -11 0 0 9 -6 17 -14 17 -22 0 -30 19 -16 35
19 22 39 18 46 -9z m-394 -43 c24 -22 23 -43 -2 -36 -15 4 -20 0 -20 -15 0
-24 -18 -39 -30 -26 -4 5 -11 26 -14 46 -5 30 -3 37 11 41 31 8 36 7 55 -10z
m288 -633 c12 -7 12 -12 0 -35 -15 -28 -43 -30 -48 -2 -4 17 14 47 27 47 3 0
13 -4 21 -10z m-241 -16 c9 -8 -13 -24 -35 -24 -23 0 -32 18 -17 33 6 6 42 0
52 -9z m291 -19 c0 -11 -40 -48 -46 -43 -9 10 15 48 31 48 8 0 15 -2 15 -5z
m-280 -30 c10 -13 9 -15 -9 -15 -12 0 -31 -5 -43 -11 -27 -15 -33 -5 -11 20
21 25 46 27 63 6z m313 -20 c-3 -9 -8 -14 -10 -11 -3 3 -2 9 2 15 9 16 15 13
8 -4z m-294 -42 c0 -11 -3 -13 -6 -5 -6 15 -33 16 -33 1 0 -8 -5 -8 -15 1 -12
10 -15 10 -15 0 0 -8 -3 -11 -6 -7 -13 13 9 27 42 27 26 0 34 -4 33 -17z"/>
<path d="M5402 1905 c0 -16 2 -22 5 -12 2 9 2 23 0 30 -3 6 -5 -1 -5 -18z"/>
<path d="M5385 1808 c-4 -24 -7 -47 -6 -51 1 -5 -3 -24 -8 -43 -5 -18 -6 -36
-1 -39 7 -4 20 39 35 120 3 17 1 36 -4 43 -5 9 -11 0 -16 -30z"/>
<path d="M1533 2861 c-10 -15 -9 -20 2 -25 9 -3 15 1 15 9 0 24 18 17 23 -7 4
-21 4 -20 6 3 1 22 -14 39 -32 39 -1 0 -8 -9 -14 -19z"/>
<path d="M1600 2820 c0 -5 7 -10 16 -10 8 0 12 5 9 10 -3 6 -10 10 -16 10 -5
0 -9 -4 -9 -10z"/>
<path d="M2380 2823 c0 -5 4 -14 9 -21 6 -10 10 -9 14 7 3 14 0 21 -9 21 -8 0
-14 -3 -14 -7z"/>
<path d="M10177 2823 c-4 -3 -7 -13 -7 -22 1 -13 2 -13 11 2 6 9 15 14 21 11
7 -4 8 -2 4 4 -8 13 -19 15 -29 5z"/>
<path d="M2360 2799 c0 -5 5 -7 10 -4 6 3 10 8 10 11 0 2 -4 4 -10 4 -5 0 -10
-5 -10 -11z"/>
<path d="M2431 2794 c0 -11 3 -14 6 -6 3 7 2 16 -1 19 -3 4 -6 -2 -5 -13z"/>
<path d="M4580 2731 c-64 -34 -74 -55 -99 -206 -14 -88 -22 -118 -36 -135 -7
-8 -15 -37 -19 -65 -3 -27 -11 -63 -18 -81 -10 -28 -8 -34 10 -54 20 -21 21
-33 19 -147 -1 -69 1 -127 5 -130 5 -2 8 -12 8 -22 0 -10 7 -24 16 -32 12 -10
14 -23 9 -53 -3 -23 -10 -93 -15 -156 -4 -63 -12 -153 -15 -200 l-7 -86 41
-19 c39 -17 41 -21 35 -49 -3 -17 -12 -41 -20 -53 -18 -28 -18 -63 0 -63 7 0
19 -7 26 -15 16 -20 70 -19 98 1 20 14 23 22 17 58 -4 22 -11 45 -16 51 -5 5
-9 17 -9 27 0 14 8 18 43 18 23 0 59 3 81 7 l38 6 -17 -26 c-9 -14 -15 -36
-13 -49 3 -19 12 -24 68 -34 36 -6 82 -14 102 -19 32 -6 39 -4 45 11 3 11 11
22 16 25 19 13 -3 40 -49 59 -25 11 -52 20 -60 20 -8 0 -14 7 -14 15 0 8 5 15
10 15 6 0 26 10 45 23 39 25 42 44 25 151 -5 33 -16 115 -25 181 -8 66 -22
165 -30 220 -20 129 -20 129 13 141 26 10 27 14 30 87 2 46 0 77 -6 77 -10 0
-52 120 -52 146 0 7 -10 25 -23 41 -28 33 -37 54 -48 108 -22 105 -41 181 -47
186 -9 8 -103 39 -116 39 -6 -1 -27 -9 -46 -19z m47 -25 c-22 -17 -37 -67 -37
-123 0 -23 -4 -44 -9 -48 -5 -3 -13 -31 -17 -63 -3 -31 -11 -63 -16 -69 -7 -9
-7 -13 0 -13 6 0 16 9 22 20 10 19 11 19 46 0 19 -11 45 -20 58 -20 13 0 27
-7 30 -16 5 -13 1 -14 -26 -9 -26 6 -30 5 -25 -9 5 -11 1 -16 -13 -16 -24 0
-25 -4 -4 -35 9 -14 13 -33 9 -45 -7 -22 -20 -26 -30 -10 -4 6 -15 8 -26 5
-16 -6 -19 -1 -20 32 l-1 38 -9 -40 c-7 -27 -6 -41 1 -43 16 -6 12 -30 -7 -36
-20 -7 -58 -66 -42 -66 5 0 12 7 15 15 4 8 12 15 19 15 6 0 20 9 30 20 10 11
24 20 30 20 16 0 51 -138 39 -149 -14 -13 -131 -34 -143 -27 -6 4 -11 16 -11
26 0 10 -8 23 -17 29 -16 8 -18 24 -16 118 2 99 4 109 25 125 14 11 31 16 43
12 11 -3 36 -8 55 -10 l35 -5 -40 22 c-22 12 -43 26 -46 32 -4 6 -19 1 -38
-12 -31 -22 -31 -22 -31 -2 0 12 5 21 10 21 6 0 13 8 17 18 3 9 15 28 27 42
15 17 16 20 3 11 -20 -16 -36 -6 -19 11 7 7 12 32 13 58 0 25 6 70 12 100 11
48 16 57 47 72 19 9 44 17 55 17 19 0 19 0 2 -13z m93 -1 c0 -6 -38 -22 -78
-32 -24 -6 -25 -4 -14 10 13 15 35 23 75 26 9 0 17 -1 17 -4z m10 -31 c0 -4
-7 -12 -16 -18 -14 -11 -14 -15 2 -50 18 -36 18 -39 1 -51 -22 -16 -22 -33 -1
-31 29 2 25 -19 -6 -32 -25 -11 -34 -11 -65 3 -34 17 -35 19 -35 76 0 63 3 68
27 44 19 -20 37 -14 41 12 2 14 -3 23 -15 25 -13 3 -8 8 17 15 44 14 50 15 50
7z m54 -206 c4 -17 2 -28 -4 -28 -5 0 -10 14 -10 32 0 36 4 35 14 -4z m-96 -8
c41 -25 37 -44 -11 -48 -42 -4 -67 14 -64 47 2 27 31 28 75 1z m142 -86 c0 -9
-59 -3 -65 7 -4 6 -13 8 -21 5 -18 -7 -18 -1 2 29 10 15 12 25 5 25 -6 0 -11
7 -11 16 0 9 17 -3 45 -32 25 -25 45 -48 45 -50z m18 -54 c11 -22 16 -43 11
-45 -9 -6 -50 71 -41 79 8 9 9 9 30 -34z m-128 -18 c-5 -44 -52 -122 -72 -122
-16 0 -19 23 -4 39 9 10 16 31 16 48 0 23 5 32 21 36 11 3 23 15 26 26 10 40
19 21 13 -27z m130 -57 c13 -8 13 -65 0 -65 -5 0 -10 7 -10 15 0 8 -4 15 -10
15 -5 0 -10 7 -10 15 0 8 -4 15 -9 15 -12 0 -22 45 -14 66 5 13 10 10 24 -19
11 -20 23 -39 29 -42z m-52 -17 c40 -43 30 -118 -15 -101 -7 3 -13 13 -14 22
0 9 -5 4 -11 -11 -6 -19 -17 -28 -32 -28 -17 0 -24 9 -33 43 -11 40 -10 43 18
72 16 17 29 36 29 42 0 18 25 21 28 4 2 -9 16 -28 30 -43z m102 -51 c0 -61
-12 -107 -28 -107 -11 0 -13 7 -8 33 4 17 9 51 13 74 6 48 23 48 23 0z m-220
-43 c0 -8 -4 -14 -10 -14 -5 0 -10 9 -10 21 0 11 5 17 10 14 6 -3 10 -13 10
-21z m170 0 c0 -8 -5 -12 -10 -9 -6 4 -8 11 -5 16 9 14 15 11 15 -7z m-75 -54
c-28 -12 -75 -12 -75 0 0 6 21 10 48 9 35 0 42 -3 27 -9z m64 -57 c5 -21 15
-74 21 -118 6 -44 15 -102 20 -130 13 -76 33 -242 38 -317 3 -61 2 -68 -15
-68 -10 0 -29 -9 -43 -20 -28 -22 -51 -25 -66 -10 -7 7 -31 5 -74 -6 -67 -17
-195 -16 -208 1 -4 6 -16 15 -27 21 -17 10 -19 20 -17 90 1 43 7 111 12 149 5
39 14 122 20 185 7 63 16 125 21 138 5 13 9 32 9 42 0 11 7 20 15 20 8 0 15 4
15 9 0 17 59 9 63 -8 3 -11 7 -8 15 12 11 25 17 28 50 26 20 -1 45 2 54 6 25
10 38 -2 38 -36 0 -43 17 -35 25 11 8 50 21 51 34 3z m-351 -93 c-1 -36 -3
-50 -5 -32 -2 17 -8 32 -14 32 -5 0 -9 26 -9 58 1 54 1 56 15 32 9 -15 14 -50
13 -90z m88 -628 c-22 -5 -30 3 -21 18 5 8 11 7 22 -2 15 -12 14 -13 -1 -16z
m244 17 c11 -8 12 -12 3 -16 -7 -2 -13 -11 -13 -19 0 -16 -9 -18 -28 -5 -12 7
-12 12 -1 30 16 24 18 25 39 10z m57 -54 c-4 -8 -11 -15 -17 -15 -14 0 -13 27
3 33 16 6 21 1 14 -18z m-287 -4 c0 -10 -61 -24 -69 -16 -8 9 21 25 47 25 12
0 22 -4 22 -9z m350 -11 c0 -5 -7 -10 -16 -10 -8 0 -12 5 -9 10 3 6 10 10 16
10 5 0 9 -4 9 -10z m-334 -41 c4 -8 0 -9 -15 -4 -13 4 -21 2 -21 -5 0 -6 -4
-8 -10 -5 -5 3 -10 10 -10 16 0 13 47 11 56 -2z m-66 -9 c0 -5 -4 -10 -10 -10
-5 0 -10 5 -10 10 0 6 5 10 10 10 6 0 10 -4 10 -10z"/>
<path d="M4537 2506 c-4 -10 -5 -21 -2 -24 9 -9 17 6 13 25 -3 17 -4 17 -11
-1z"/>
<path d="M4732 1795 c-7 -44 -17 -102 -22 -128 -12 -60 -13 -80 -1 -73 10 7
17 44 32 165 13 112 7 138 -9 36z"/>
<path d="M4490 1425 c0 -5 5 -17 10 -25 5 -8 10 -10 10 -5 0 6 -5 17 -10 25
-5 8 -10 11 -10 5z"/>
<path d="M3150 2706 c0 -2 7 -9 15 -16 9 -7 15 -8 15 -2 0 5 -7 12 -15 16 -8
3 -15 4 -15 2z"/>
<path d="M3926 2592 c-2 -4 4 -8 14 -8 10 0 16 4 14 8 -3 4 -9 8 -14 8 -5 0
-11 -4 -14 -8z"/>
<path d="M2458 2583 c7 -3 16 -2 19 1 4 3 -2 6 -13 5 -11 0 -14 -3 -6 -6z"/>
<path d="M11101 2446 c-7 -9 -8 -17 -3 -20 6 -3 13 1 16 10 3 8 10 12 16 9 5
-3 10 -1 10 4 0 16 -26 13 -39 -3z"/>
<path d="M10360 2395 c-7 -9 -9 -19 -5 -23 4 -4 10 -1 12 6 3 6 11 12 19 12 9
0 12 5 9 10 -9 14 -21 12 -35 -5z"/>
<path d="M5386 2294 c-9 -24 -2 -26 12 -4 7 11 8 20 3 20 -5 0 -12 -7 -15 -16z"/>
<path d="M2350 2020 c0 -5 7 -7 15 -4 8 4 15 8 15 10 0 2 -7 4 -15 4 -8 0 -15
-4 -15 -10z"/>
<path d="M9990 2026 c0 -2 7 -7 16 -10 8 -3 12 -2 9 4 -6 10 -25 14 -25 6z"/>
<path d="M10450 1750 c0 -5 5 -10 10 -10 6 0 10 5 10 10 0 6 -4 10 -10 10 -5
0 -10 -4 -10 -10z"/>
<path d="M3610 1695 c-19 -23 -8 -26 19 -4 16 13 18 19 8 19 -8 0 -20 -7 -27
-15z"/>
<path d="M10370 1693 c0 -15 2 -15 9 -4 5 8 16 11 25 8 9 -4 16 -2 16 3 0 6
-11 10 -25 10 -17 0 -25 -5 -25 -17z"/>
<path d="M2731 1654 c0 -11 3 -14 6 -6 3 7 2 16 -1 19 -3 4 -6 -2 -5 -13z"/>
<path d="M2675 1620 c3 -5 8 -10 11 -10 2 0 4 5 4 10 0 6 -5 10 -11 10 -5 0
-7 -4 -4 -10z"/>
<path d="M2798 1623 c7 -3 16 -2 19 1 4 3 -2 6 -13 5 -11 0 -14 -3 -6 -6z"/>
<path d="M3117 1543 c-13 -12 -7 -19 18 -21 16 -1 25 3 25 13 0 15 -31 21 -43
8z"/>
<path d="M5698 1043 c7 -3 16 -2 19 1 4 3 -2 6 -13 5 -11 0 -14 -3 -6 -6z"/>
<path d="M6993 1023 c-22 -8 -14 -23 11 -23 30 0 42 15 20 24 -9 3 -16 6 -17
5 -1 0 -8 -3 -14 -6z"/>
<path d="M6382 993 c4 -22 34 -29 53 -13 21 17 9 30 -26 30 -24 0 -30 -4 -27
-17z"/>
<path d="M6951 961 c-18 -12 0 -21 28 -14 17 4 19 8 9 14 -16 11 -20 11 -37 0z"/>
<path d="M8470 945 c0 -8 5 -15 10 -15 6 0 10 7 10 15 0 8 -4 15 -10 15 -5 0
-10 -7 -10 -15z"/>
<path d="M8430 930 c0 -5 -12 -10 -27 -10 -20 0 -24 -3 -16 -11 8 -8 17 -8 32
0 19 10 29 31 16 31 -3 0 -5 -4 -5 -10z"/>
<path d="M7771 733 c0 -5 4 -17 9 -28 8 -18 9 -17 9 8 1 15 -3 27 -9 27 -5 0
-10 -3 -9 -7z"/>
<path d="M7249 399 l-24 -20 25 7 c31 8 45 20 32 28 -5 3 -21 -3 -33 -15z"/>
<path d="M7302 380 c0 -14 2 -19 5 -12 2 6 2 18 0 25 -3 6 -5 1 -5 -13z"/>
<path d="M835 6676 c3 -17 15 -42 26 -57 22 -31 25 -59 7 -60 -7 0 -3 -5 10
-11 21 -10 36 -42 31 -64 -3 -14 12 -44 23 -44 24 0 -31 181 -63 210 -3 3 -13
16 -23 30 l-18 25 7 -29z"/>
<path d="M2212 5495 c0 -16 2 -22 5 -12 2 9 2 23 0 30 -3 6 -5 -1 -5 -18z"/>
<path d="M2180 5465 c0 -8 5 -15 10 -15 6 0 10 7 10 15 0 8 -4 15 -10 15 -5 0
-10 -7 -10 -15z"/>
<path d="M2145 5400 c-3 -5 -1 -18 4 -27 9 -16 10 -14 11 10 0 28 -5 34 -15
17z"/>
<path d="M2166 5353 c-3 -10 -1 -34 3 -53 l9 -35 1 34 c1 19 8 43 18 53 15 17
15 18 -5 18 -11 0 -23 -8 -26 -17z"/>
<path d="M2250 5335 c0 -8 5 -15 10 -15 6 0 10 7 10 15 0 8 -4 15 -10 15 -5 0
-10 -7 -10 -15z"/>
<path d="M2215 5301 c-3 -5 -1 -12 5 -16 5 -3 10 1 10 9 0 18 -6 21 -15 7z"/>
<path d="M2250 5238 c0 -19 2 -20 10 -8 13 19 13 30 0 30 -5 0 -10 -10 -10
-22z"/>
<path d="M2211 5215 c1 -19 18 -51 18 -35 0 8 -4 22 -9 30 -5 8 -9 11 -9 5z"/>
<path d="M2270 5149 c0 -11 5 -17 10 -14 6 3 10 13 10 21 0 8 -4 14 -10 14 -5
0 -10 -9 -10 -21z"/>
<path d="M2250 5076 c0 -8 4 -17 8 -20 4 -2 8 4 8 15 0 10 -4 19 -8 19 -4 0
-8 -6 -8 -14z"/>
<path d="M2291 4964 c0 -11 3 -14 6 -6 3 7 2 16 -1 19 -3 4 -6 -2 -5 -13z"/>
<path d="M11978 5259 c-16 -11 -28 -27 -28 -34 0 -8 -6 -18 -13 -22 -18 -11
-47 -54 -47 -70 0 -22 25 -3 45 34 11 21 35 53 53 71 46 48 40 59 -10 21z"/>
<path d="M2720 4959 c-22 -18 -22 -19 -3 -10 12 6 25 16 28 21 9 15 3 12 -25
-11z"/>
<path d="M1440 4610 c0 -5 5 -10 11 -10 5 0 7 5 4 10 -3 6 -8 10 -11 10 -2 0
-4 -4 -4 -10z"/>
<path d="M2265 4453 c-22 -14 -41 -30 -43 -35 -2 -4 -13 -8 -24 -8 -19 0 -19
-6 -16 -205 l3 -205 25 -1 c14 -1 70 -4 125 -8 110 -7 135 1 115 38 -6 12 -10
93 -10 198 l0 179 -32 17 c-18 10 -46 26 -63 36 -37 24 -32 25 -80 -6z m73 -6
c6 -7 26 -19 45 -26 l34 -14 7 -135 c10 -220 9 -231 -14 -225 -18 5 -20 13
-19 77 1 39 4 116 8 170 l6 99 -30 19 c-34 20 -45 22 -45 8 0 -5 9 -10 19 -10
11 0 23 -4 26 -10 4 -6 -8 -10 -29 -10 l-35 0 6 -175 c5 -129 3 -175 -5 -175
-9 0 -12 45 -12 159 0 88 -3 166 -6 175 -3 9 -14 16 -24 16 -31 0 -32 17 -3
44 31 29 55 33 71 13z m-118 -227 c0 -113 -4 -180 -10 -180 -6 0 -10 64 -10
173 0 153 3 187 17 187 2 0 3 -81 3 -180z m219 -206 c9 -8 -8 -9 -124 -5 -68
2 -109 7 -95 11 24 6 211 1 219 -6z"/>
<path d="M2403 4105 c0 -27 2 -38 4 -22 2 15 2 37 0 50 -2 12 -4 0 -4 -28z"/>
<path d="M1900 3591 c-14 -4 40 -8 120 -9 80 0 154 3 165 8 25 11 -249 11
-285 1z"/>
<path d="M11900 4658 c30 -18 57 -36 59 -41 2 -6 16 -23 32 -39 15 -17 30 -35
32 -41 2 -7 8 -9 12 -5 13 12 -90 138 -114 138 -6 0 -11 5 -11 10 0 6 -15 10
-32 10 -33 0 -32 -1 22 -32z"/>
<path d="M3938 4378 l-37 -33 -2 -185 c-2 -102 0 -184 4 -182 4 1 19 3 35 3
23 2 24 2 5 6 -13 2 -23 9 -23 15 0 7 18 9 53 4 28 -3 68 -7 87 -7 33 -2 32
-2 -10 -9 l-45 -7 54 -1 c45 -2 52 1 47 14 -3 9 -6 23 -6 32 0 14 -2 15 -10 2
-17 -27 -24 0 -25 103 -2 113 7 150 16 72 5 -39 6 -30 7 45 l2 95 -49 33 c-28
17 -53 32 -58 32 -5 0 -25 -15 -45 -32z m79 0 c29 -13 53 -32 53 -43 0 -3 -4
-4 -8 -1 -5 3 -22 2 -38 -3 -26 -7 -30 -12 -35 -62 l-6 -54 -1 58 c-2 44 -5
57 -18 57 -8 0 -12 5 -8 11 4 8 -1 9 -17 5 -21 -6 -21 -5 4 9 15 9 27 20 27
25 0 13 13 13 47 -2z m-17 -272 c0 -105 -13 -89 -17 22 -3 61 -1 83 7 72 5 -8
10 -51 10 -94z"/>
<path d="M4020 4350 c0 -5 5 -10 11 -10 5 0 7 5 4 10 -3 6 -8 10 -11 10 -2 0
-4 -4 -4 -10z"/>
<path d="M4357 4358 l-48 -31 5 -136 c3 -75 8 -144 11 -153 4 -9 2 -19 -4 -23
-6 -3 -11 -15 -11 -26 0 -17 7 -19 63 -18 l62 1 -48 8 c-75 13 -68 20 16 20
45 0 77 -4 77 -10 0 -5 7 -10 15 -10 17 0 20 16 5 25 -6 4 -10 70 -10 164 0
135 -2 161 -16 172 -15 12 -16 11 -9 -11 7 -23 7 -23 -9 -7 -10 9 -23 17 -29
17 -9 0 -8 3 1 8 10 7 8 12 -6 25 -16 15 -21 14 -65 -15z m63 2 c0 -5 -6 -10
-14 -10 -8 0 -23 -3 -33 -6 -10 -3 -7 2 7 10 30 18 40 20 40 6z m4 -26 c23 -9
20 -24 -4 -24 -11 0 -20 -6 -21 -12 0 -10 -2 -10 -6 0 -2 6 -11 12 -19 12 -17
0 -19 17 -1 23 18 8 33 8 51 1z m50 -176 c4 -92 3 -138 -4 -138 -6 0 -10 52
-10 142 0 78 2 139 4 137 2 -2 6 -66 10 -141z"/>
<path d="M3735 3580 c-3 -6 1 -7 9 -4 18 7 21 14 7 14 -6 0 -13 -4 -16 -10z"/>
<path d="M11720 3530 c0 -5 9 -10 20 -10 11 0 20 5 20 10 0 6 -9 10 -20 10
-11 0 -20 -4 -20 -10z"/>
<path d="M4882 4127 l-33 -22 5 -152 c3 -91 1 -155 -5 -158 -5 -4 -9 -17 -9
-31 0 -23 3 -24 58 -22 49 1 51 2 15 5 -31 3 -43 9 -43 20 0 12 5 13 23 7 12
-4 43 -7 70 -7 47 0 63 -11 30 -21 -10 -2 -4 -4 12 -3 33 2 31 -5 22 110 -2
32 -7 61 -11 64 -3 4 -6 46 -6 94 0 77 -2 90 -19 99 -27 14 -56 3 -40 -16 9
-11 8 -14 -5 -14 -14 0 -16 -19 -18 -142 l-2 -143 -3 135 c-3 107 -7 137 -19
147 -13 10 -12 14 10 36 14 14 22 28 19 31 -9 9 -14 7 -51 -17z m108 -27 c8
-5 12 -11 10 -14 -3 -2 -14 2 -24 10 -22 15 -10 19 14 4z m7 -252 c-2 -18 -4
-4 -4 32 0 36 2 50 4 33 2 -18 2 -48 0 -65z"/>
<path d="M3097 4274 c-3 -3 -3 -12 0 -20 4 -12 7 -12 17 -1 8 10 40 12 138 9
119 -4 127 -5 132 -26 3 -11 6 -103 6 -203 0 -119 4 -184 11 -188 12 -8 3 405
-9 416 -9 9 -287 21 -295 13z"/>
<path d="M3101 4194 c0 -11 3 -14 6 -6 3 7 2 16 -1 19 -3 4 -6 -2 -5 -13z"/>
<path d="M3402 3655 c0 -16 2 -22 5 -12 2 9 2 23 0 30 -3 6 -5 -1 -5 -18z"/>
<path d="M795 4190 c3 -5 11 -10 16 -10 6 0 7 5 4 10 -3 6 -11 10 -16 10 -6 0
-7 -4 -4 -10z"/>
<path d="M900 4140 c0 -5 5 -10 10 -10 6 0 10 5 10 10 0 6 -4 10 -10 10 -5 0
-10 -4 -10 -10z"/>
<path d="M905 4100 c3 -5 8 -10 11 -10 2 0 4 5 4 10 0 6 -5 10 -11 10 -5 0 -7
-4 -4 -10z"/>
<path d="M12055 3950 c-3 -5 -2 -10 4 -10 5 0 13 5 16 10 3 6 2 10 -4 10 -5 0
-13 -4 -16 -10z"/>
<path d="M11930 3810 c0 -5 9 -10 21 -10 11 0 17 5 14 10 -3 6 -13 10 -21 10
-8 0 -14 -4 -14 -10z"/>
<path d="M11897 3793 c-7 -12 3 -25 30 -40 27 -16 60 -17 68 -3 4 6 -6 10 -21
10 -15 0 -38 9 -50 21 -12 11 -24 17 -27 12z"/>
<path d="M11830 3752 c0 -10 22 -32 32 -32 4 0 8 9 8 20 0 13 -7 20 -20 20
-11 0 -20 -4 -20 -8z"/>
<path d="M1260 3944 c0 -17 22 -14 28 4 2 7 -3 12 -12 12 -9 0 -16 -7 -16 -16z"/>
<path d="M1215 3940 c3 -5 8 -10 11 -10 2 0 4 5 4 10 0 6 -5 10 -11 10 -5 0
-7 -4 -4 -10z"/>
<path d="M1310 3885 c0 -8 5 -15 10 -15 6 0 10 7 10 15 0 8 -4 15 -10 15 -5 0
-10 -7 -10 -15z"/>
<path d="M1490 3745 c7 -8 10 -22 6 -30 -5 -15 5 -21 17 -9 8 8 -14 54 -26 54
-5 0 -4 -7 3 -15z"/>
<path d="M1340 3726 c0 -17 14 -29 23 -20 8 8 -3 34 -14 34 -5 0 -9 -6 -9 -14z"/>
<path d="M1424 3725 c3 -9 6 -19 6 -21 0 -2 7 -4 16 -4 22 0 13 34 -10 38 -14
3 -17 0 -12 -13z"/>
<path d="M5440 3890 c0 -5 5 -10 10 -10 6 0 10 5 10 10 0 6 -4 10 -10 10 -5 0
-10 -4 -10 -10z"/>
<path d="M5587 3876 c-3 -8 -3 -17 0 -20 7 -7 33 13 33 25 0 15 -27 10 -33 -5z"/>
<path d="M5520 3850 c0 -5 5 -10 11 -10 5 0 7 5 4 10 -3 6 -8 10 -11 10 -2 0
-4 -4 -4 -10z"/>
<path d="M5290 3826 c0 -10 9 -16 21 -16 24 0 21 23 -4 28 -10 2 -17 -3 -17
-12z"/>
<path d="M5600 3830 c0 -5 5 -10 10 -10 6 0 10 5 10 10 0 6 -4 10 -10 10 -5 0
-10 -4 -10 -10z"/>
<path d="M5555 3800 c11 -18 -15 -40 -49 -41 -26 -2 -27 -2 -7 -6 17 -3 20 -7
12 -13 -16 -9 -51 -1 -51 11 0 5 -7 9 -15 9 -35 0 -8 -34 36 -45 21 -5 31 -1
47 19 11 14 25 26 31 26 6 0 11 11 11 25 0 14 -5 25 -11 25 -5 0 -7 -5 -4 -10z"/>
<path d="M5280 3736 c0 -9 5 -16 10 -16 6 0 10 4 10 9 0 6 -4 13 -10 16 -5 3
-10 -1 -10 -9z"/>
<path d="M5712 3719 c3 -8 8 -13 11 -11 9 3 7 11 -5 18 -6 4 -8 0 -6 -7z"/>
<path d="M5310 3714 c0 -7 27 -34 34 -34 3 0 6 9 6 20 0 13 -7 20 -20 20 -11
0 -20 -3 -20 -6z"/>
<path d="M5656 3704 c-4 -10 -1 -14 6 -12 15 5 23 28 10 28 -5 0 -13 -7 -16
-16z"/>
<path d="M5400 3684 c0 -17 22 -14 28 4 2 7 -3 12 -12 12 -9 0 -16 -7 -16 -16z"/>
<path d="M5590 3690 c0 -5 5 -10 10 -10 6 0 10 5 10 10 0 6 -4 10 -10 10 -5 0
-10 -4 -10 -10z"/>
<path d="M5530 3680 c0 -5 5 -10 10 -10 6 0 10 5 10 10 0 6 -4 10 -10 10 -5 0
-10 -4 -10 -10z"/>
<path d="M5705 3680 c-3 -6 1 -7 9 -4 18 7 21 14 7 14 -6 0 -13 -4 -16 -10z"/>
<path d="M5623 3523 c-15 -5 -17 -43 -3 -43 6 0 10 5 10 10 0 6 7 10 15 10 8
0 15 4 15 9 0 11 -21 19 -37 14z"/>
<path d="M5701 3506 c-20 -24 -9 -39 14 -22 15 11 17 18 9 26 -8 8 -14 7 -23
-4z"/>
<path d="M5750 3509 c0 -6 7 -17 15 -25 16 -16 19 -7 9 20 -7 18 -24 22 -24 5z"/>
<path d="M11250 3810 c0 -13 5 -18 15 -14 8 4 15 12 15 20 0 8 -7 14 -15 14
-8 0 -15 -9 -15 -20z"/>
<path d="M11373 3783 c-22 -8 -14 -23 12 -23 14 0 25 4 25 9 0 11 -21 19 -37
14z"/>
<path d="M11113 3768 c2 -7 9 -14 15 -14 7 -1 16 -2 21 -3 5 0 14 -14 21 -30
13 -31 35 -45 53 -34 6 4 1 10 -13 15 -18 6 -21 11 -12 20 15 15 -3 38 -29 38
-11 0 -19 5 -19 10 0 6 -9 10 -21 10 -12 0 -19 -5 -16 -12z"/>
<path d="M11110 3725 c0 -8 5 -15 10 -15 6 0 10 7 10 15 0 8 -4 15 -10 15 -5
0 -10 -7 -10 -15z"/>
<path d="M11127 3673 c-12 -11 -8 -21 13 -26 15 -4 20 0 20 14 0 18 -20 26
-33 12z"/>
<path d="M11242 3668 c-10 -13 -8 -21 14 -47 26 -32 25 -43 -3 -16 -8 8 -19
12 -24 9 -17 -10 16 -49 44 -52 20 -3 29 3 41 27 19 35 21 77 5 87 -8 5 -10
-1 -5 -19 8 -32 -9 -45 -19 -14 -4 13 -8 17 -12 10 -8 -20 -21 -15 -25 9 -3
19 -5 19 -16 6z"/>
<path d="M11513 3634 c-7 -7 -13 -21 -13 -31 0 -15 3 -14 16 5 18 26 15 47 -3
26z"/>
<path d="M11560 3621 c0 -11 32 -31 49 -31 17 0 13 17 -6 24 -10 3 -24 9 -30
12 -7 3 -13 1 -13 -5z"/>
<path d="M11410 3595 c0 -8 7 -15 15 -15 8 0 15 7 15 15 0 8 -7 15 -15 15 -8
0 -15 -7 -15 -15z"/>
<path d="M10960 3575 c0 -8 5 -15 10 -15 6 0 10 7 10 15 0 8 -4 15 -10 15 -5
0 -10 -7 -10 -15z"/>
<path d="M11000 3556 c0 -8 6 -17 13 -19 9 -4 8 -8 -3 -16 -12 -9 -12 -11 3
-17 25 -9 47 3 47 26 0 13 -10 24 -26 30 -33 13 -34 13 -34 -4z"/>
<path d="M10954 3511 c2 -38 10 -46 27 -25 10 13 11 18 2 21 -7 2 -9 11 -6 19
3 8 -1 14 -10 14 -10 0 -14 -9 -13 -29z"/>
<path d="M11081 3503 c-20 -22 -2 -47 38 -51 25 -3 31 0 31 17 0 50 -38 69
-69 34z m44 -13 c3 -5 1 -10 -4 -10 -6 0 -11 5 -11 10 0 6 2 10 4 10 3 0 8 -4
11 -10z"/>
<path d="M2670 3785 c-18 -21 -3 -32 16 -13 10 9 12 18 6 22 -5 3 -15 -1 -22
-9z"/>
<path d="M2590 3784 c0 -16 28 -50 35 -42 4 4 -2 17 -14 29 -12 13 -21 18 -21
13z"/>
<path d="M2530 3730 c0 -5 5 -10 10 -10 6 0 10 5 10 10 0 6 -4 10 -10 10 -5 0
-10 -4 -10 -10z"/>
<path d="M3895 3800 c-3 -5 -2 -10 4 -10 5 0 13 5 16 10 3 6 2 10 -4 10 -5 0
-13 -4 -16 -10z"/>
<path d="M3840 3790 c0 -5 5 -10 11 -10 5 0 7 5 4 10 -3 6 -8 10 -11 10 -2 0
-4 -4 -4 -10z"/>
<path d="M10847 3364 c-4 -4 -7 -14 -7 -23 0 -11 3 -12 11 -4 6 6 10 16 7 23
-2 6 -7 8 -11 4z"/>
</g>
</svg>
