<?xml version="1.0" standalone="no"?>
<!DOCTYPE svg PUBLIC "-//W3C//DTD SVG 20010904//EN"
 "http://www.w3.org/TR/2001/REC-SVG-20010904/DTD/svg10.dtd">
<svg version="1.0" xmlns="http://www.w3.org/2000/svg"
 width="1276.000000pt" height="1277.000000pt" viewBox="0 0 1276.000000 1277.000000"
 preserveAspectRatio="xMidYMid meet">
<metadata>
Created by potrace 1.16, written by Peter Selinger 2001-2019
</metadata>
<g transform="translate(0.000000,1277.000000) scale(0.100000,-0.100000)"
fill="#000000" stroke="none">
<path d="M0 6385 l0 -6385 6380 0 6380 0 0 6385 0 6385 -6380 0 -6380 0 0
-6385z m6267 6139 c-30 -42 -32 -51 -32 -127 0 -68 4 -87 21 -112 l21 -29 -47
-65 c-48 -66 -165 -251 -248 -391 -61 -104 -155 -292 -182 -368 -13 -34 -26
-65 -30 -67 -4 -3 -23 19 -42 48 -19 28 -79 105 -132 170 l-98 119 16 33 c37
77 7 188 -62 228 -183 107 -356 -77 -241 -257 l27 -44 -119 -274 c-66 -150
-129 -297 -141 -326 -16 -43 -29 -58 -71 -85 l-52 -33 -70 51 c-38 28 -102 71
-141 96 l-71 44 -6 53 c-11 101 -71 162 -159 162 -106 0 -180 -70 -180 -169 1
-62 16 -98 59 -143 40 -41 40 -37 14 -258 -11 -97 -20 -239 -21 -320 0 -46 -5
-62 -27 -89 -28 -32 -28 -32 -75 -21 -41 11 -50 18 -80 68 -42 71 -84 95 -156
89 -41 -3 -59 -10 -83 -33 -46 -44 -62 -81 -56 -131 6 -57 45 -106 108 -136
50 -24 52 -26 85 -114 l34 -90 -44 -106 c-25 -58 -78 -211 -119 -339 -75 -234
-80 -256 -238 -1028 -22 -107 -56 -294 -75 -415 -70 -442 -128 -668 -223 -870
-69 -146 -334 -533 -585 -855 -485 -621 -619 -1060 -526 -1723 22 -155 58
-308 93 -395 l24 -58 -29 -75 c-93 -238 -158 -562 -158 -790 0 -55 0 -55 -40
-73 -133 -59 -342 -288 -526 -578 -35 -56 -66 -103 -68 -105 -5 -6 -160 200
-258 342 -1098 1598 -1374 3636 -741 5479 168 488 416 989 702 1416 444 663
1039 1258 1696 1698 449 300 985 563 1480 727 578 191 1216 302 1807 313 l98
2 -33 -46z m261 -1 c38 -28 62 -80 62 -135 0 -41 -5 -54 -35 -87 l-35 -39 43
-58 c203 -277 408 -644 487 -871 18 -51 36 -93 39 -93 4 0 31 35 59 78 29 43
91 125 137 183 47 57 104 127 126 156 l40 51 -25 27 c-56 60 -30 157 51 191
90 38 169 -15 165 -112 -2 -40 -15 -69 -50 -107 -23 -24 -25 -31 -15 -55 6
-15 67 -157 137 -315 124 -284 178 -426 191 -500 4 -20 11 -39 15 -42 4 -3 48
29 96 71 49 42 146 112 217 156 l127 81 0 58 c0 50 4 63 28 89 70 79 202 35
202 -67 0 -32 -35 -113 -49 -113 -3 0 -16 -8 -29 -18 l-23 -18 16 -154 c9 -85
18 -166 21 -180 7 -38 5 -354 -2 -400 -5 -30 -3 -40 7 -40 8 1 72 15 144 33
l129 32 9 37 c12 50 57 88 104 88 43 0 103 -54 103 -93 0 -48 -82 -120 -130
-114 -18 2 -26 -13 -63 -123 -24 -69 -58 -152 -77 -185 -47 -84 -135 -199
-193 -250 l-48 -44 61 -41 c60 -41 90 -84 72 -102 -5 -5 -27 -12 -49 -15 -34
-4 -77 10 -304 104 -303 126 -296 123 -411 157 -288 86 -693 158 -1064 190
-338 30 -357 30 -708 -3 -382 -36 -531 -58 -780 -112 -358 -78 -396 -91 -769
-248 -120 -51 -234 -95 -252 -98 -43 -7 -65 10 -65 47 0 44 8 57 62 96 l51 36
-65 66 c-121 125 -142 159 -228 362 -15 36 -32 89 -39 118 -12 49 -15 52 -43
52 -63 0 -139 79 -122 127 10 27 46 64 73 74 52 20 119 -26 137 -95 3 -15 16
-32 28 -37 26 -12 250 -68 254 -63 2 1 0 46 -5 99 -9 101 4 373 26 530 23 168
25 151 -14 174 -43 25 -75 75 -75 117 0 96 136 158 198 91 25 -28 35 -60 34
-113 l-1 -43 129 -86 c71 -47 170 -119 220 -161 58 -48 92 -70 95 -62 3 7 16
52 30 101 29 103 55 166 204 506 61 140 111 260 111 266 0 7 -7 18 -16 26 -33
27 -56 91 -51 137 7 66 42 97 110 97 66 0 112 -30 128 -85 14 -46 7 -80 -25
-116 l-23 -28 122 -150 c67 -83 141 -180 165 -216 84 -125 72 -125 115 -2 35
101 137 316 202 427 84 143 204 330 260 406 35 48 63 91 63 96 0 4 -8 13 -18
20 -32 20 -55 80 -48 127 14 93 85 149 171 136 25 -4 58 -16 73 -27z m502 7
c1084 -123 2116 -530 2977 -1173 450 -336 917 -799 1244 -1232 1504 -1994
1661 -4694 396 -6835 -89 -151 -279 -440 -288 -440 -4 0 -32 31 -62 69 -134
165 -319 339 -395 370 -37 16 -36 8 -16 142 19 125 22 379 5 499 -30 217 -94
397 -221 627 -139 250 -269 450 -450 688 -42 55 -97 137 -123 183 -217 387
-381 997 -492 1827 -41 308 -149 927 -221 1265 -124 581 -279 1014 -499 1385
l-45 77 34 101 c33 96 37 101 72 113 45 15 90 57 116 108 18 34 18 44 8 82
-15 54 -74 110 -125 120 -70 13 -164 -45 -181 -112 -7 -25 -38 -38 -128 -50
l-46 -7 0 124 c0 123 -9 254 -31 442 l-11 98 32 32 c40 38 69 100 70 144 0 95
-81 173 -180 173 -95 0 -170 -85 -170 -192 0 -23 -12 -34 -82 -77 -46 -27
-101 -63 -122 -79 l-39 -29 -78 57 c-43 32 -82 60 -87 62 -9 3 -101 202 -197
428 -56 133 -61 151 -47 162 25 21 52 90 52 137 0 58 -33 125 -74 151 -40 24
-130 27 -179 6 -91 -39 -129 -139 -91 -236 14 -34 14 -43 3 -58 -8 -9 -43 -53
-79 -97 -36 -44 -87 -108 -114 -142 -26 -35 -53 -63 -60 -63 -7 0 -21 21 -31
48 -30 79 -168 351 -227 447 -31 50 -99 155 -152 235 l-97 145 20 36 c42 74
36 159 -15 234 l-26 38 139 -6 c76 -4 217 -16 313 -27z m-186 -2737 c85 -260
219 -505 391 -713 70 -84 213 -224 293 -288 63 -49 69 -46 -118 -62 -181 -16
-298 -37 -357 -66 -97 -47 -166 -136 -165 -215 1 -52 8 -62 35 -45 40 25 193
61 407 96 221 35 527 25 723 -26 89 -22 197 -77 245 -123 92 -89 140 -243 149
-472 6 -159 -5 -288 -38 -427 -16 -69 -43 -348 -34 -360 1 -1 36 117 78 262
42 146 90 298 106 338 34 80 100 171 156 213 33 26 37 27 54 11 19 -17 41 -78
41 -113 0 -13 -11 -25 -31 -33 -39 -17 -114 -92 -139 -139 -10 -20 -22 -55
-26 -76 -7 -38 -6 -39 11 -25 9 8 39 46 65 85 51 75 114 139 133 132 6 -2 19
-20 30 -41 29 -55 25 -126 -13 -237 -74 -214 -172 -369 -352 -554 l-128 -133
-50 -183 c-100 -375 -179 -563 -312 -744 -67 -91 -403 -437 -440 -452 -17 -7
-52 -33 -77 -56 -66 -61 -290 -233 -396 -304 -226 -151 -420 -215 -655 -216
-140 -1 -233 15 -365 60 -182 64 -378 164 -615 316 -159 102 -217 158 -347
337 -59 80 -127 170 -154 200 -199 231 -451 805 -513 1169 -9 52 -18 96 -20
98 -2 2 -7 -19 -11 -47 -6 -45 -2 -120 11 -202 3 -20 0 -28 -11 -28 -31 0
-132 59 -165 96 -41 47 -57 85 -81 194 -10 48 -39 138 -63 201 -126 323 -129
481 -13 614 l44 50 39 -30 c74 -55 183 -168 193 -199 6 -17 9 -78 8 -136 -1
-81 2 -118 17 -164 26 -78 30 -63 45 159 24 366 43 491 102 667 32 96 98 242
123 273 16 20 16 20 31 1 8 -10 16 -23 17 -27 2 -5 25 -2 52 6 27 8 67 15 89
15 22 0 78 15 126 35 186 74 318 89 516 60 124 -19 339 -71 490 -119 82 -26
111 -32 118 -23 13 20 1 99 -22 149 -19 39 -33 52 -74 73 -68 33 -216 70 -401
100 -82 14 -151 26 -153 28 -2 2 63 39 144 82 431 229 661 382 824 551 97 101
151 175 256 352 81 136 86 142 117 142 31 0 32 -2 60 -87z m-3305 -2888 c-24
-328 -95 -637 -200 -876 -56 -129 -775 -1377 -819 -1423 -31 -31 -23 364 10
519 71 335 188 558 547 1047 223 303 365 562 448 816 9 29 19 52 21 50 1 -2
-1 -62 -7 -133z m4054 -1627 c-13 -118 -7 -364 11 -473 64 -390 242 -686 546
-909 112 -83 242 -138 543 -231 64 -20 117 -41 117 -46 0 -21 -101 -206 -168
-309 -38 -58 -104 -150 -149 -205 -93 -117 -341 -385 -377 -409 -43 -27 -77
-16 -41 14 22 18 18 73 -6 104 -55 70 -176 93 -286 56 l-68 -23 -30 38 c-80
101 -78 100 -147 99 -59 -1 -76 -8 -258 -99 -196 -99 -274 -146 -284 -171 -8
-21 76 15 272 117 98 51 172 84 172 77 0 -7 -12 -31 -25 -53 -26 -42 -32 -93
-15 -124 5 -10 28 -26 50 -35 22 -9 40 -19 40 -23 0 -22 -175 -153 -244 -184
l-47 -20 -37 29 c-52 42 -172 168 -172 181 0 6 -17 21 -38 35 -20 13 -82 68
-137 123 -131 130 -249 207 -510 331 -175 84 -325 142 -325 126 0 -2 7 -19 16
-38 26 -53 15 -66 -54 -66 -68 0 -138 31 -161 72 -20 35 -9 55 38 69 33 10 46
9 83 -6 79 -32 75 -31 59 -11 -21 26 -86 56 -120 56 -38 0 -82 -37 -106 -89
-20 -46 -26 -48 -63 -22 -42 28 -138 61 -183 61 -52 0 -115 -33 -134 -71 -9
-16 -19 -53 -22 -80 -6 -52 -24 -72 -46 -50 -6 6 -15 11 -19 11 -15 0 -8 -27
22 -83 17 -31 30 -67 30 -80 0 -33 -27 -67 -54 -67 -32 0 -106 50 -149 101
-64 75 -38 127 75 148 l43 8 -27 13 c-24 11 -33 11 -69 -5 -110 -50 -126 -160
-48 -334 16 -35 47 -90 69 -122 42 -62 50 -102 26 -134 -14 -19 -16 -18 -72
20 -227 157 -521 432 -709 665 -118 146 -229 332 -208 349 4 4 60 29 123 56
318 133 509 244 644 374 170 165 246 327 300 636 34 196 47 354 39 471 -7 107
-1 114 57 65 54 -44 355 -222 471 -279 121 -58 241 -102 354 -128 63 -15 117
-19 255 -18 158 0 185 3 275 28 215 58 435 192 753 458 51 43 102 78 113 78
19 0 20 -4 12 -72z m1542 -1624 c61 -8 162 -26 225 -40 108 -24 522 -140 583
-163 l28 -11 -40 -72 c-21 -40 -109 -206 -194 -369 -127 -242 -291 -521 -489
-834 -33 -52 -100 -112 -152 -136 -26 -12 -64 -19 -103 -19 -100 0 -142 -25
-143 -85 0 -16 5 -65 12 -107 14 -97 -1 -205 -38 -261 -50 -75 -159 -120 -198
-82 -24 24 -72 188 -91 310 -15 90 -16 138 -10 265 14 262 10 475 -11 577 -12
63 -98 82 -183 41 -66 -31 -171 -141 -201 -209 l-25 -56 -69 35 -69 35 59 51
c174 150 436 425 550 578 91 122 183 275 268 446 l67 133 57 -6 c31 -3 107
-13 167 -21z m-4959 -184 c59 -98 135 -214 169 -257 83 -103 306 -319 540
-523 104 -91 200 -176 212 -190 l22 -25 -27 -9 c-34 -11 -70 -43 -89 -81 -12
-23 -14 -47 -9 -113 l6 -84 -57 -81 c-31 -45 -90 -126 -130 -180 -98 -133
-167 -250 -223 -382 -26 -60 -51 -110 -56 -110 -87 3 -223 21 -271 36 -47 15
-69 29 -92 56 -61 74 -74 155 -56 348 10 112 8 113 -121 131 -167 23 -195 48
-370 315 -116 176 -231 379 -440 778 -123 233 -168 328 -159 333 17 11 346 91
545 134 156 34 429 81 477 83 18 1 41 -30 129 -179z m-1200 -97 c17 -27 72
-129 122 -228 236 -468 583 -1047 664 -1108 75 -57 157 -85 251 -88 l57 -2 -7
-51 c-5 -28 -8 -100 -8 -161 0 -128 17 -185 74 -248 44 -49 93 -72 191 -86 41
-7 97 -17 123 -23 42 -9 47 -13 41 -32 -6 -21 -70 -143 -84 -161 -36 -45 -81
-164 -95 -246 -19 -114 -50 -180 -109 -238 l-45 -44 -48 18 c-177 66 -484 207
-673 310 -515 279 -961 607 -1386 1018 -111 107 -349 361 -380 405 -11 16 -3
35 64 148 148 248 227 348 365 461 213 176 340 247 579 323 90 28 181 58 203
65 61 21 68 18 101 -32z m7309 -38 c121 -40 266 -93 323 -118 204 -90 373
-226 545 -438 42 -53 77 -99 77 -103 0 -4 -37 -53 -82 -109 -542 -669 -1170
-1191 -1915 -1591 -149 -79 -393 -196 -410 -196 -4 0 -21 53 -37 118 -16 64
-51 190 -77 279 -27 89 -49 171 -49 182 0 25 30 45 87 60 137 37 212 230 172
445 -6 32 -8 60 -5 63 3 3 53 14 111 24 116 21 165 42 207 86 14 15 121 179
236 363 203 325 279 465 477 877 65 137 69 142 94 136 14 -3 125 -38 246 -78z
m-4743 -82 c21 -20 45 -56 54 -80 30 -79 -3 -120 -82 -103 -36 8 -37 8 -19 -6
12 -9 37 -14 64 -12 34 2 48 9 64 30 18 24 19 32 9 84 -7 32 -11 59 -9 60 6 7
160 -114 313 -248 93 -80 210 -177 260 -215 131 -98 155 -121 308 -303 77 -91
205 -231 285 -312 148 -151 164 -161 215 -142 12 5 4 14 -31 36 -68 43 -279
258 -420 428 -150 180 -219 247 -403 385 -127 97 -340 286 -379 338 -19 26 -7
32 23 12 29 -19 126 -44 175 -45 26 0 41 8 67 37 l33 36 176 -81 c341 -157
384 -191 925 -727 405 -400 496 -484 800 -728 96 -77 202 -163 235 -191 33
-27 68 -56 77 -64 16 -13 17 -12 9 15 -15 54 -30 70 -103 124 -80 58 -97 76
-116 128 -58 161 23 616 144 808 64 101 114 107 125 15 8 -62 15 -82 29 -82 6
0 8 31 3 90 -7 97 1 120 41 120 47 0 59 -21 64 -114 5 -102 -4 -121 -55 -111
-37 7 -40 0 -17 -33 12 -17 25 -22 58 -22 40 0 44 -2 50 -30 3 -17 -4 -83 -16
-148 -29 -159 -29 -339 1 -479 11 -56 55 -206 96 -333 78 -240 155 -537 158
-604 l2 -39 -120 -49 c-334 -137 -821 -277 -1190 -343 -293 -52 -676 -95 -845
-95 l-57 0 -70 87 c-95 119 -163 222 -343 523 -170 284 -221 362 -325 500 -78
103 -253 300 -266 300 -4 0 -61 60 -126 132 -65 73 -164 180 -220 238 -57 59
-103 111 -103 116 0 6 18 16 39 23 51 15 105 77 120 137 10 41 13 44 32 33 11
-6 69 -59 127 -118 59 -60 199 -191 312 -293 219 -198 403 -382 514 -516 38
-45 71 -80 74 -78 10 11 -76 150 -144 231 -41 50 -119 149 -173 220 -199 265
-469 570 -634 715 -47 41 -86 82 -86 90 -1 9 -21 35 -45 59 -32 32 -58 73 -91
148 -45 100 -66 173 -50 173 4 0 28 -18 52 -41 87 -80 159 -92 198 -32 19 28
24 87 11 116 -15 32 9 17 28 -17 10 -18 147 -153 304 -299 487 -450 682 -666
858 -949 32 -53 39 -57 47 -28 3 11 18 25 33 31 l29 10 -45 23 c-33 17 -60 44
-108 112 -149 207 -256 326 -560 620 -523 507 -572 558 -572 588 0 34 10 33
45 -4 16 -16 38 -30 49 -30 17 0 9 12 -37 55 -67 63 -68 78 -10 134 29 28 40
32 66 27 18 -4 49 -23 69 -43z m2063 -309 c52 -30 60 -42 51 -79 -8 -32 -70
-101 -107 -121 -61 -31 -119 -9 -119 45 0 46 86 180 116 181 6 0 33 -12 59
-26z m381 -100 c40 -19 64 -59 64 -104 0 -47 -52 -95 -133 -121 -80 -27 -111
-19 -125 33 -15 55 35 148 102 189 38 23 49 23 92 3z m-166 -19 c0 -3 -12 -29
-26 -58 -40 -78 -45 -104 -29 -142 16 -40 59 -56 129 -48 67 8 61 -15 -21 -79
-37 -29 -95 -80 -129 -113 -63 -61 -192 -173 -230 -199 -19 -14 -28 -7 -153
118 l-133 134 61 32 c33 18 100 64 148 103 49 39 126 102 172 139 101 81 211
140 211 113z m-2535 -295 c11 -17 46 -54 78 -82 109 -95 162 -187 128 -221 -8
-8 -32 9 -94 71 -71 70 -89 84 -134 94 -45 11 -52 16 -55 40 -7 42 28 128 51
128 3 0 15 -14 26 -30z m-119 -134 c34 -33 44 -51 44 -75 0 -38 -46 -91 -80
-91 -27 0 -70 22 -94 49 -39 43 10 161 67 161 11 0 39 -20 63 -44z m2891 -1
c48 -55 14 -147 -64 -175 -31 -10 -50 -11 -70 -4 -26 9 -28 14 -27 59 1 52 19
110 44 140 21 25 88 14 117 -20z m-191 -73 c-14 -87 -5 -109 54 -134 28 -11
50 -25 50 -30 0 -28 -141 -197 -183 -219 -14 -8 -40 9 -143 98 l-126 107 49
45 c26 24 72 67 102 94 37 35 73 58 115 73 95 33 94 34 82 -34z m3184 -16 c0
-2 -8 -10 -17 -17 -16 -13 -17 -12 -4 4 13 16 21 21 21 13z m-5401 -154 c73
-83 144 -182 136 -190 -6 -6 -60 33 -130 93 -137 119 -142 128 -104 166 11 11
22 19 23 17 2 -1 35 -40 75 -86z m-557 -51 c7 -16 96 -121 198 -233 481 -527
596 -673 760 -963 101 -180 184 -305 308 -468 59 -76 113 -147 120 -157 12
-17 10 -19 -24 -26 -52 -10 -559 12 -719 31 -302 35 -731 113 -990 180 -144
37 -535 163 -535 172 0 3 31 38 68 78 38 39 83 93 101 119 l32 47 -25 -7 c-63
-16 -40 72 82 306 47 91 126 246 176 346 97 193 211 372 298 469 29 33 66 77
81 98 34 45 53 47 69 8z m2925 -161 c-5 -102 -11 -187 -12 -188 -2 -2 -10 0
-19 5 -25 14 -175 137 -176 144 0 7 212 231 215 227 1 -2 -3 -86 -8 -188z
m-6072 38 c50 -50 82 -86 73 -79 -12 9 -18 10 -18 2 0 -6 -17 -11 -40 -11
l-40 0 0 40 0 40 -40 0 -40 0 0 40 c0 22 5 40 11 40 5 0 7 5 4 10 -14 23 5 6
90 -82z m1275 -970 l140 -81 0 -39 c0 -38 0 -38 -40 -38 l-40 0 0 40 c0 35 3
40 23 41 21 0 21 1 2 8 -11 5 -21 4 -23 0 -2 -5 -39 -9 -83 -9 l-79 0 0 40 0
40 -40 0 -40 0 0 40 c0 33 3 40 20 40 11 0 83 -37 160 -82z m584 -298 c87 -38
161 -70 166 -70 5 0 12 -5 16 -11 5 -9 -3 -10 -30 -5 -23 4 -36 3 -36 -4 0 -6
-31 -10 -80 -10 l-80 0 0 40 c0 31 4 40 18 40 16 1 16 1 -1 11 -9 5 -22 7 -29
3 -6 -4 -8 -3 -5 3 3 5 -10 16 -29 25 l-34 16 0 -29 c0 -27 -3 -29 -40 -29
-40 0 -40 0 -40 39 0 33 4 40 23 44 12 2 22 5 23 6 1 0 72 -30 158 -69z"/>
<path d="M6421 12117 c-16 -16 -13 -57 5 -64 22 -8 47 20 40 45 -8 25 -30 34
-45 19z"/>
<path d="M6323 12052 c-38 -54 -40 -64 -15 -61 9 2 28 -1 41 -5 12 -4 27 -4
32 1 9 9 -10 113 -21 113 -3 0 -20 -21 -37 -48z"/>
<path d="M6497 12049 c-23 -59 -15 -71 42 -63 25 4 47 7 48 8 4 4 -62 96 -68
96 -3 0 -13 -18 -22 -41z"/>
<path d="M6422 11974 c-13 -24 -3 -56 17 -52 10 2 16 13 16 32 0 34 -19 45
-33 20z"/>
<path d="M6294 11936 c-9 -24 0 -51 18 -54 19 -4 42 33 34 54 -7 18 -45 18
-52 0z"/>
<path d="M6532 11918 c2 -25 8 -34 26 -36 19 -3 22 1 22 32 0 32 -3 36 -26 36
-23 0 -25 -3 -22 -32z"/>
<path d="M6210 11835 c-17 -20 3 -45 36 -45 19 0 24 5 24 24 0 34 -38 48 -60
21z"/>
<path d="M6612 11838 c-17 -17 -15 -35 5 -47 23 -12 53 4 53 28 0 28 -37 40
-58 19z"/>
<path d="M6404 11830 c-39 -9 -54 -18 -54 -34 0 -48 118 -65 158 -23 21 22 21
24 5 39 -23 19 -69 27 -109 18z"/>
<path d="M6316 11743 c-14 -51 -17 -89 -11 -133 7 -52 22 -63 46 -34 17 20 16
148 -1 169 -16 20 -28 19 -34 -2z"/>
<path d="M6520 11741 c-5 -11 -10 -51 -10 -90 0 -61 3 -72 23 -86 21 -15 22
-14 29 7 10 36 9 134 -2 162 -11 31 -25 33 -40 7z"/>
<path d="M6162 11714 c-32 -22 -28 -77 6 -82 50 -7 85 65 43 88 -25 13 -22 13
-49 -6z"/>
<path d="M6660 11712 c-21 -17 -22 -21 -9 -48 12 -24 20 -29 49 -29 29 0 36 4
38 23 2 15 -5 33 -19 48 -27 29 -30 29 -59 6z"/>
<path d="M6400 11705 c-21 -25 -18 -135 5 -174 11 -19 26 -36 32 -38 33 -11
69 158 44 205 -14 26 -62 30 -81 7z"/>
<path d="M6037 11554 c-30 -60 -67 -138 -82 -174 -32 -75 -75 -231 -75 -275 0
-18 19 -63 46 -110 25 -44 59 -106 75 -137 70 -137 149 -399 149 -492 0 -25 4
-47 8 -50 7 -4 78 12 91 20 1 2 -20 56 -48 122 -81 190 -141 433 -141 572 0
72 25 175 51 211 12 17 40 35 68 45 l47 17 -11 34 c-8 27 -17 36 -47 44 -47
12 -78 51 -78 98 0 37 32 101 50 101 18 0 11 18 -19 51 l-29 32 -55 -109z m17
-159 c16 -25 16 -25 -14 -25 -28 0 -29 1 -18 25 6 14 12 25 13 25 2 0 10 -11
19 -25z"/>
<path d="M6748 11626 l-27 -34 25 -23 c60 -56 50 -150 -19 -182 -19 -9 -42
-17 -50 -17 -8 0 -17 -13 -21 -31 -9 -46 -9 -46 33 -53 80 -12 124 -111 123
-271 -2 -160 -87 -476 -168 -624 -13 -24 -24 -47 -24 -51 0 -4 15 -10 33 -13
17 -3 40 -8 50 -12 15 -6 17 -1 17 43 0 118 83 363 197 581 74 142 75 145 70
201 -4 31 -18 95 -33 141 -27 85 -154 361 -171 372 -5 3 -21 -9 -35 -27z m102
-237 c0 -12 -7 -19 -20 -19 -23 0 -24 4 -8 29 14 23 28 18 28 -10z"/>
<path d="M7479 11598 c-12 -23 -61 -95 -110 -160 -49 -64 -124 -170 -166 -235
l-78 -118 0 -215 c-1 -196 -3 -225 -28 -330 -27 -117 -52 -191 -88 -262 -22
-44 -19 -58 17 -58 17 0 24 6 24 18 0 11 9 27 20 37 16 14 29 16 74 11 l54 -7
-8 38 c-23 107 -28 142 -29 231 -3 168 39 313 103 356 14 9 44 16 67 16 40 0
41 1 35 28 -27 124 -13 215 43 282 24 29 35 35 69 35 45 0 82 -22 116 -69 18
-23 21 -42 20 -114 0 -73 -4 -96 -27 -142 -15 -31 -22 -57 -16 -58 5 -2 22
-15 38 -28 29 -24 61 -113 61 -170 0 -71 -78 -273 -153 -399 l-36 -58 41 -29
c22 -16 41 -28 42 -26 2 2 10 35 19 73 23 96 102 253 178 355 52 70 63 91 62
121 -4 105 -124 476 -232 721 -33 74 -63 147 -67 162 -10 41 -22 40 -45 -6z
m61 -178 c17 -41 38 -90 46 -108 l15 -33 -40 21 c-22 11 -54 20 -72 20 -39 0
-109 20 -109 31 0 15 115 158 121 151 4 -4 21 -41 39 -82z"/>
<path d="M5353 11613 c-3 -10 -42 -103 -86 -208 -100 -238 -137 -348 -188
-550 l-39 -160 20 -25 c113 -141 209 -316 230 -425 19 -93 17 -91 48 -62 16
15 33 27 40 27 19 0 14 20 -17 69 -35 55 -124 250 -140 306 -6 22 -11 72 -11
110 0 83 24 145 67 171 15 10 30 19 32 20 1 2 -10 29 -25 60 -23 47 -28 72
-28 128 -1 94 25 145 88 176 67 32 107 14 150 -65 18 -34 21 -56 21 -151 l-1
-112 44 -5 c44 -5 83 -32 105 -72 45 -84 62 -328 32 -470 -21 -100 -23 -96 42
-93 54 3 58 2 77 -29 22 -34 32 -38 55 -24 11 7 9 18 -12 62 -70 150 -110 339
-111 534 -1 77 1 165 4 195 4 52 2 59 -46 135 -28 44 -85 127 -128 185 -42 58
-106 147 -142 198 -36 50 -68 92 -70 92 -3 0 -7 -8 -11 -17z m112 -214 c44
-61 81 -114 83 -118 2 -5 -5 -11 -14 -15 -10 -4 -29 5 -50 24 -43 37 -109 41
-167 10 -20 -11 -37 -19 -37 -17 0 3 57 143 87 215 3 6 8 12 12 11 3 0 42 -50
86 -110z"/>
<path d="M6152 11534 c-25 -17 -31 -81 -10 -102 20 -20 65 -14 82 10 47 66 -9
137 -72 92z"/>
<path d="M6352 11538 c-7 -7 -12 -20 -12 -30 0 -24 60 -158 71 -158 18 0 9
103 -13 151 -25 52 -28 55 -46 37z"/>
<path d="M6662 11540 c-59 -24 -29 -120 38 -120 54 0 65 81 17 115 -24 17 -24
17 -55 5z"/>
<path d="M6486 11517 c-22 -32 -37 -117 -28 -151 7 -27 10 -23 45 59 30 68 36
90 26 101 -16 20 -26 18 -43 -9z"/>
<path d="M6265 11386 c-21 -32 -13 -72 16 -81 48 -16 67 62 22 92 -20 13 -23
12 -38 -11z"/>
<path d="M6560 11387 c-38 -40 -6 -108 38 -81 20 13 26 36 18 69 -8 33 -32 38
-56 12z"/>
<path d="M6400 11250 c-26 -26 -25 -37 8 -88 l29 -43 26 39 c33 46 34 76 5 96
-30 21 -44 20 -68 -4z"/>
<path d="M6176 11200 c-105 -125 -27 -508 183 -905 37 -71 73 -131 78 -132 14
-5 175 324 222 453 82 228 108 451 63 546 -25 50 -59 74 -94 65 -36 -10 -112
-89 -140 -148 -49 -101 -49 -101 -92 -19 -58 110 -120 170 -175 170 -10 0 -31
-14 -45 -30z m107 -108 c36 -24 77 -80 119 -165 l35 -68 31 63 c59 121 123
188 180 188 68 0 50 -190 -48 -481 -35 -106 -111 -266 -140 -297 -21 -22 -23
-22 -41 -6 -50 46 -156 309 -214 534 -22 83 -25 211 -6 233 18 22 49 21 84 -1z"/>
<path d="M6226 11064 c-10 -25 -7 -104 4 -125 6 -10 19 -19 30 -19 25 0 40 29
40 79 0 31 -6 44 -26 60 -32 25 -40 26 -48 5z"/>
<path d="M6601 11056 c-18 -19 -23 -36 -23 -71 1 -25 4 -50 7 -55 9 -15 41
-12 54 4 15 17 11 138 -5 143 -5 2 -21 -8 -33 -21z"/>
<path d="M6317 10995 c-18 -44 -7 -81 39 -136 26 -30 50 -55 54 -57 24 -9 -31
141 -68 187 -17 21 -20 21 -25 6z"/>
<path d="M6515 10966 c-31 -52 -58 -129 -53 -151 2 -11 20 3 56 45 52 58 53
61 46 105 -3 25 -10 45 -15 45 -4 0 -20 -20 -34 -44z"/>
<path d="M6244 10861 c8 -51 23 -91 35 -91 4 0 14 6 21 14 9 12 8 25 -2 63
-11 38 -19 49 -37 51 -23 4 -23 2 -17 -37z"/>
<path d="M6583 10883 c-4 -10 -7 -38 -8 -63 0 -33 4 -45 16 -48 11 -2 20 13
32 57 21 76 22 71 -8 71 -15 0 -28 -7 -32 -17z"/>
<path d="M6500 10815 l-44 -44 24 -51 c13 -27 26 -50 30 -50 8 0 44 179 38
185 -2 3 -24 -15 -48 -40z"/>
<path d="M6338 10768 c8 -46 18 -87 22 -92 8 -8 50 63 50 84 0 16 -61 90 -75
90 -8 0 -8 -22 3 -82z"/>
<path d="M6281 10748 c-5 -15 -3 -40 5 -68 8 -25 14 -46 14 -47 0 -6 26 -2 39
6 13 8 12 18 -4 70 -19 64 -39 78 -54 39z"/>
<path d="M6555 10758 c-28 -79 -32 -96 -23 -111 15 -28 35 -19 52 23 19 48 20
72 4 88 -15 15 -27 15 -33 0z"/>
<path d="M6406 10711 c-14 -22 -26 -49 -26 -59 0 -28 46 -157 56 -157 5 0 21
34 35 75 25 69 26 78 12 110 -7 19 -22 43 -33 54 -18 18 -19 18 -44 -23z"/>
<path d="M6333 10623 c-19 -7 -16 -36 13 -108 30 -74 39 -84 61 -62 15 14 13
23 -13 93 -29 77 -37 87 -61 77z"/>
<path d="M6501 10608 c-44 -122 -45 -127 -32 -155 l13 -28 19 35 c10 19 28 60
39 90 20 52 20 55 4 67 -25 18 -33 16 -43 -9z"/>
<path d="M6416 10441 c-19 -21 -15 -51 8 -70 22 -18 52 23 40 56 -12 34 -26
38 -48 14z"/>
<path d="M5337 11199 c-18 -10 -18 -12 4 -35 30 -32 36 -30 41 11 4 38 -9 45
-45 24z"/>
<path d="M7490 11175 c0 -40 17 -46 45 -15 15 16 15 22 5 35 -7 8 -21 15 -31
15 -15 0 -19 -7 -19 -35z"/>
<path d="M5416 11174 c-13 -34 -5 -101 17 -144 28 -57 43 -60 50 -13 8 49 -5
103 -32 142 -26 36 -27 36 -35 15z"/>
<path d="M7431 11177 c-31 -39 -55 -177 -32 -191 30 -19 71 84 63 162 -4 44
-12 51 -31 29z"/>
<path d="M5290 11096 c0 -53 14 -112 32 -131 18 -19 28 20 22 85 -7 73 -18
100 -39 100 -11 0 -15 -13 -15 -54z"/>
<path d="M7546 11128 c-7 -13 -16 -49 -20 -80 -9 -85 9 -115 38 -60 20 39 25
162 6 162 -5 0 -16 -10 -24 -22z"/>
<path d="M5366 11101 c-8 -12 12 -113 24 -125 7 -7 10 15 10 62 0 56 -3 72
-14 72 -8 0 -17 -4 -20 -9z"/>
<path d="M7478 11098 c-9 -25 -9 -128 0 -128 12 0 35 81 30 110 -3 26 -23 38
-30 18z"/>
<path d="M4446 11033 c-9 -24 -5 -405 5 -488 5 -38 11 -92 14 -120 10 -86 25
-178 36 -217 8 -31 21 -45 77 -81 37 -24 96 -76 131 -115 35 -40 68 -72 73
-72 25 0 17 35 -19 78 -100 119 -197 291 -223 394 -10 39 -9 51 5 82 17 36 17
36 -15 87 -58 90 -51 184 17 210 57 21 112 -26 139 -118 12 -40 20 -53 30 -49
9 3 31 -1 50 -9 29 -12 41 -27 69 -88 44 -94 78 -214 101 -350 10 -59 22 -107
26 -107 3 0 18 4 33 10 l26 10 -19 37 c-51 101 -73 223 -73 415 l0 158 -67 57
c-37 31 -116 89 -177 129 -60 40 -135 94 -165 119 -61 50 -65 52 -74 28z m224
-210 c8 -7 -3 -4 -25 7 -42 21 -105 26 -134 10 -17 -8 -19 -4 -20 51 l-1 60
82 -57 c46 -32 90 -63 98 -71z"/>
<path d="M8350 11003 c-30 -25 -109 -82 -175 -126 -66 -44 -146 -105 -177
-135 l-58 -55 6 -82 c12 -152 -27 -406 -72 -470 -20 -29 -17 -44 12 -57 30
-14 44 0 44 45 0 41 27 169 57 267 49 165 93 230 155 230 16 0 30 6 32 13 18
60 43 115 63 133 51 47 124 32 142 -31 11 -42 2 -83 -35 -157 -25 -51 -26 -60
-14 -82 36 -68 -66 -292 -212 -468 -37 -45 -46 -78 -23 -84 6 -1 32 24 58 57
27 33 76 79 109 102 110 77 105 70 127 198 37 213 54 513 42 727 -2 32 -19 27
-81 -25z m30 -113 c0 -57 -1 -60 -19 -50 -28 14 -92 12 -121 -5 -58 -33 -37
-11 46 49 49 35 90 65 92 65 1 1 2 -26 2 -59z"/>
<path d="M5415 10960 c-8 -12 3 -88 15 -110 10 -17 8 -20 30 53 7 21 9 44 6
52 -6 17 -42 20 -51 5z"/>
<path d="M7408 10958 c-7 -19 16 -101 29 -105 11 -4 32 84 25 105 -5 16 -49
15 -54 0z"/>
<path d="M5355 10941 c-7 -22 5 -50 31 -72 16 -13 17 -11 10 26 -4 22 -13 46
-21 54 -11 11 -14 10 -20 -8z"/>
<path d="M7482 10918 c-10 -50 -8 -56 13 -38 28 23 38 50 24 66 -19 23 -27 17
-37 -28z"/>
<path d="M5507 10860 c-21 -17 -27 -30 -27 -61 0 -35 4 -42 41 -64 59 -38 73
-77 74 -210 0 -89 -4 -123 -24 -182 l-23 -72 22 -46 c12 -25 25 -43 29 -40 6
7 16 54 47 215 35 188 17 395 -39 448 -35 32 -69 36 -100 12z"/>
<path d="M7279 10860 c-36 -21 -61 -108 -66 -235 -5 -102 -2 -142 21 -264 14
-78 31 -152 37 -162 9 -18 12 -16 34 25 l24 44 -23 69 c-34 98 -38 137 -27
235 11 94 30 143 59 152 58 19 81 87 42 126 -21 21 -73 26 -101 10z"/>
<path d="M6977 10796 c-56 -110 -119 -333 -133 -470 -8 -82 2 -82 43 -3 37 73
71 177 93 284 19 90 37 243 28 243 -2 0 -16 -24 -31 -54z"/>
<path d="M5292 10813 c-23 -32 -42 -95 -42 -136 0 -39 43 -166 90 -262 50
-103 137 -238 150 -230 19 12 10 67 -19 108 -58 85 -117 225 -122 287 -5 81 1
102 37 136 44 42 42 69 -5 101 -44 30 -65 29 -89 -4z"/>
<path d="M7525 10832 c-32 -7 -75 -42 -75 -60 0 -9 17 -33 38 -55 36 -37 37
-41 36 -105 -1 -40 -9 -90 -22 -125 -18 -51 -35 -83 -116 -221 -13 -22 -17
-41 -12 -60 7 -28 7 -28 28 -10 51 47 182 307 209 417 28 114 -19 235 -86 219z"/>
<path d="M5871 10790 c-1 -62 24 -212 49 -294 28 -89 86 -216 99 -216 39 0
-36 318 -114 485 l-33 70 -1 -45z"/>
<path d="M8290 10754 c-27 -31 34 -94 63 -65 14 14 -5 56 -31 70 -15 8 -23 7
-32 -5z"/>
<path d="M4532 10748 c-10 -13 -15 -33 -13 -55 0 -7 12 -13 26 -13 25 0 45 29
45 66 0 17 -44 19 -58 2z"/>
<path d="M4604 10726 c-9 -23 4 -66 22 -73 27 -10 37 12 20 45 -20 38 -34 48
-42 28z"/>
<path d="M8235 10710 c-19 -37 -19 -60 0 -60 18 0 35 31 35 64 0 35 -16 33
-35 -4z"/>
<path d="M7383 10702 c-25 -4 -27 -10 -14 -45 15 -38 48 -41 67 -6 8 16 12 33
10 38 -8 12 -36 17 -63 13z"/>
<path d="M5426 10691 c-3 -4 4 -25 14 -47 11 -21 20 -50 21 -64 0 -14 6 -41
13 -60 l13 -34 6 33 c11 55 8 83 -10 97 -16 12 -16 13 -2 14 9 0 19 8 22 18 2
9 8 25 12 35 6 15 1 17 -38 17 -25 0 -48 -4 -51 -9z"/>
<path d="M5525 10636 c-10 -48 -3 -71 20 -71 16 0 20 6 18 30 -6 77 -27 100
-38 41z"/>
<path d="M7321 10652 c-16 -31 -14 -92 3 -92 21 0 31 20 27 55 -5 48 -16 62
-30 37z"/>
<path d="M4541 10650 c-10 -6 -9 -14 3 -39 21 -41 36 -39 36 3 0 35 -17 50
-39 36z"/>
<path d="M7452 10630 c-25 -39 -25 -68 0 -84 25 -15 29 -5 26 60 l-3 59 -23
-35z"/>
<path d="M8306 10647 c-11 -8 -17 -23 -14 -38 4 -31 19 -30 38 4 18 33 4 54
-24 34z"/>
<path d="M5392 10600 c6 -60 15 -72 34 -46 19 27 18 60 -4 79 -29 27 -35 20
-30 -33z"/>
<path d="M4631 10616 c-10 -11 -7 -24 11 -58 l23 -43 3 44 c5 66 -10 89 -37
57z"/>
<path d="M8206 10614 c-9 -24 -7 -72 4 -79 13 -8 44 59 37 79 -8 21 -33 21
-41 0z"/>
<path d="M7382 10601 c-4 -11 -6 -42 -3 -68 l3 -47 14 27 c19 35 23 99 6 104
-6 3 -15 -5 -20 -16z"/>
<path d="M4720 10571 c-13 -26 -12 -62 4 -140 12 -53 21 -71 60 -110 56 -57
76 -103 76 -178 1 -46 6 -64 24 -87 13 -15 26 -24 28 -20 15 27 -72 415 -109
489 -33 64 -63 81 -83 46z"/>
<path d="M8096 10568 c-48 -68 -137 -409 -136 -518 l1 -25 24 28 c21 23 25 39
25 88 0 69 29 136 80 184 17 17 38 41 45 55 16 31 30 150 21 185 -8 32 -39 33
-60 3z"/>
<path d="M8251 10559 c-14 -40 -14 -39 3 -39 15 0 26 21 26 51 0 30 -17 22
-29 -12z"/>
<path d="M4590 10562 c0 -19 36 -59 45 -50 3 3 0 19 -6 36 -12 35 -39 44 -39
14z"/>
<path d="M5044 10435 c4 -53 16 -131 27 -173 18 -72 78 -197 119 -249 17 -22
21 -23 26 -8 11 28 -4 187 -23 246 -24 75 -125 272 -142 277 -12 4 -13 -12 -7
-93z"/>
<path d="M5421 10516 c-10 -11 -7 -26 10 -66 23 -53 42 -61 47 -19 3 27 -23
99 -37 99 -5 0 -14 -6 -20 -14z"/>
<path d="M5520 10509 c-9 -16 -9 -32 0 -65 22 -76 38 -62 43 36 2 34 -2 45
-15 48 -9 2 -22 -6 -28 -19z"/>
<path d="M7310 10498 c0 -48 11 -108 20 -108 13 0 33 88 26 115 -4 16 -13 25
-26 25 -16 0 -20 -7 -20 -32z"/>
<path d="M7409 10491 c-16 -37 -15 -86 1 -96 12 -8 53 98 43 114 -17 26 -28
22 -44 -18z"/>
<path d="M7774 10457 c-87 -154 -124 -281 -114 -402 l5 -70 47 72 c69 103 108
227 115 364 4 62 2 109 -3 109 -5 0 -27 -33 -50 -73z"/>
<path d="M4577 10483 c-25 -24 4 -120 73 -241 51 -91 172 -254 182 -244 14 14
-10 72 -47 113 -44 49 -51 67 -60 154 -9 85 -24 116 -83 178 -47 48 -54 52
-65 40z"/>
<path d="M8238 10449 c-64 -64 -75 -85 -88 -174 -14 -92 -29 -126 -77 -176
-29 -31 -34 -42 -31 -74 l3 -38 56 74 c89 118 118 164 165 263 47 100 52 122
31 151 -13 17 -17 15 -59 -26z"/>
<path d="M5486 10404 c-15 -39 11 -113 35 -99 13 8 11 59 -3 90 -13 29 -23 32
-32 9z"/>
<path d="M7362 10407 c-24 -29 -26 -107 -2 -107 4 0 15 15 24 34 12 26 14 41
6 60 -11 30 -14 31 -28 13z"/>
<path d="M4760 10263 c0 -49 68 -173 71 -131 3 41 -5 78 -27 116 -29 49 -44
54 -44 15z"/>
<path d="M8083 10267 c-25 -27 -43 -79 -43 -124 0 -43 13 -36 44 25 42 86 42
147 -1 99z"/>
<path d="M6188 10264 c-17 -9 -28 -23 -28 -35 0 -27 62 -89 88 -89 52 0 63 24
41 89 -18 50 -52 62 -101 35z"/>
<path d="M6613 10274 c-16 -7 -47 -104 -37 -114 39 -37 134 8 134 64 0 40 -54
67 -97 50z"/>
<path d="M5715 10239 c-46 -26 -59 -75 -30 -116 18 -26 70 -39 90 -23 18 15
27 78 17 115 -9 33 -42 43 -77 24z"/>
<path d="M7086 10234 c-10 -26 -7 -91 6 -119 23 -51 88 -25 108 45 8 29 6 36
-20 61 -32 33 -84 40 -94 13z"/>
<path d="M4075 10218 c13 -48 112 -235 152 -290 71 -96 183 -218 201 -218 21
0 122 52 122 63 0 5 -13 27 -29 50 -40 58 -96 173 -117 238 -9 30 -21 60 -27
67 -18 23 -247 112 -288 112 -16 0 -19 -5 -14 -22z"/>
<path d="M8735 10233 c-29 -7 -218 -85 -232 -95 -7 -6 -17 -26 -24 -46 -24
-76 -83 -199 -125 -260 -24 -35 -44 -69 -44 -76 0 -13 93 -56 121 -56 31 0
177 169 264 305 39 61 105 200 105 223 0 12 -27 14 -65 5z"/>
<path d="M5855 10170 c-12 -20 6 -50 31 -50 20 0 24 5 24 30 0 25 -4 30 -24
30 -14 0 -28 -5 -31 -10z"/>
<path d="M6970 10150 c0 -23 5 -30 19 -30 20 0 37 32 26 50 -3 5 -15 10 -26
10 -14 0 -19 -7 -19 -30z"/>
<path d="M5390 10162 c-25 -8 -50 -34 -50 -52 0 -27 39 -70 64 -70 31 0 56 30
56 67 0 40 -34 67 -70 55z"/>
<path d="M6510 10145 c0 -8 9 -15 20 -15 13 0 18 5 14 15 -4 8 -12 15 -20 15
-8 0 -14 -7 -14 -15z"/>
<path d="M7426 10144 c-33 -33 -4 -104 42 -104 27 0 62 42 62 73 0 44 -71 65
-104 31z"/>
<path d="M6720 10135 c-10 -13 -9 -15 9 -15 11 0 21 4 21 9 0 18 -18 21 -30 6z"/>
<path d="M6907 10124 c-13 -13 -7 -24 14 -24 11 0 19 5 17 12 -5 14 -22 21
-31 12z"/>
<path d="M7222 10088 c-18 -18 -15 -28 8 -28 13 0 20 7 20 20 0 23 -10 26 -28
8z"/>
<path d="M7351 10056 c-9 -11 -8 -15 5 -20 33 -13 45 -7 34 14 -13 24 -23 25
-39 6z"/>
<path d="M4993 10028 c-46 -22 -34 -82 15 -76 22 2 28 9 30 34 4 38 -15 55
-45 42z"/>
<path d="M7539 10024 c-10 -13 -10 -17 1 -24 17 -10 30 -4 30 15 0 22 -16 26
-31 9z"/>
<path d="M7842 10028 c-7 -7 -12 -21 -12 -33 0 -48 53 -61 72 -19 11 23 10 29
-11 45 -27 22 -33 23 -49 7z"/>
<path d="M4540 10025 c0 -13 65 -172 78 -193 13 -19 21 -23 46 -18 52 11 59
26 32 70 -42 70 -156 173 -156 141z"/>
<path d="M8250 9970 c-36 -36 -74 -82 -85 -103 -20 -38 -20 -39 -1 -53 52 -37
88 -7 131 110 42 114 32 123 -45 46z"/>
<path d="M7776 9972 c-17 -20 -17 -21 4 -32 28 -15 34 -8 23 25 -8 26 -9 26
-27 7z"/>
<path d="M4817 9914 c-9 -10 2 -24 18 -24 9 0 12 6 9 15 -6 16 -17 19 -27 9z"/>
<path d="M8035 9910 c-8 -13 4 -32 16 -25 12 8 12 35 0 35 -6 0 -13 -4 -16
-10z"/>
<path d="M7426 8269 c-27 -4 -74 -17 -105 -29 -60 -22 -131 -74 -118 -86 4 -4
16 1 26 10 52 48 315 86 454 67 83 -12 130 -29 202 -75 28 -18 76 -48 108 -67
64 -37 96 -74 78 -92 -17 -17 -81 8 -123 47 -21 20 -56 40 -80 46 -24 6 -77
23 -118 38 -106 38 -222 38 -340 -2 -123 -41 -280 -118 -314 -154 l-29 -31 24
-5 c132 -29 332 -50 469 -50 l155 -1 138 44 c127 40 141 42 180 32 69 -20 71
-19 81 21 11 45 -3 65 -74 106 -25 14 -69 45 -98 68 -39 31 -78 50 -150 73
-155 50 -250 60 -366 40z m151 -185 c16 -43 -55 -74 -77 -34 -9 16 -8 25 1 36
16 19 68 18 76 -2z m298 -29 c42 -24 60 -48 50 -66 -9 -14 -116 -42 -124 -33
-4 5 -5 35 -3 67 5 66 13 70 77 32z m-555 -64 l0 -48 -52 4 c-29 3 -71 9 -93
15 l-40 10 65 34 c36 18 77 33 93 34 26 0 27 -2 27 -49z m770 -21 c0 -5 -4
-10 -10 -10 -5 0 -10 5 -10 10 0 6 5 10 10 10 6 0 10 -4 10 -10z"/>
<path d="M5311 8260 c-110 -23 -244 -84 -285 -129 -32 -35 3 -26 99 24 115 61
185 78 320 78 177 1 254 -23 369 -112 73 -56 138 -101 149 -101 29 0 -65 98
-144 150 -95 62 -204 92 -344 96 -66 2 -140 -1 -164 -6z"/>
<path d="M6746 8203 c-31 -109 -36 -348 -9 -426 l18 -52 6 215 c3 118 9 230
14 248 6 26 4 32 -8 32 -9 0 -18 -8 -21 -17z"/>
<path d="M6204 8131 c8 -58 59 -226 77 -251 8 -11 9 6 4 62 -7 97 -27 163 -61
208 l-26 35 6 -54z"/>
<path d="M5312 8155 c-29 -8 -65 -21 -80 -29 -15 -8 -46 -17 -67 -21 -22 -4
-71 -25 -110 -48 -53 -31 -84 -42 -130 -46 -77 -8 -59 -21 43 -32 42 -5 99
-17 127 -28 138 -55 300 -75 553 -69 162 4 195 8 244 27 52 20 57 25 48 42 -6
10 -23 25 -38 33 -15 8 -49 32 -75 53 -26 22 -91 59 -144 83 -94 42 -103 44
-208 47 -75 2 -127 -2 -163 -12z m-97 -115 c8 -36 -9 -70 -35 -70 -36 0 -110
24 -110 36 0 15 27 38 75 62 45 23 60 17 70 -28z m251 29 c21 -24 10 -52 -24
-57 -30 -5 -45 29 -26 56 19 27 26 27 50 1z m289 -22 c63 -44 115 -90 109 -98
-9 -16 -135 -49 -185 -49 -27 0 -49 1 -49 3 0 1 11 24 25 51 14 28 25 67 25
88 0 36 2 39 23 32 12 -3 36 -16 52 -27z"/>
<path d="M4081 7673 c0 -32 6 -76 13 -98 l11 -39 18 64 18 65 54 -60 c58 -65
78 -68 50 -6 -28 63 -109 131 -156 131 -5 0 -9 -26 -8 -57z"/>
<path d="M8650 7359 c-25 -4 -60 -11 -77 -14 l-33 -6 0 -82 c0 -108 9 -119 43
-53 15 29 51 78 78 109 28 32 47 57 42 56 -4 -1 -28 -5 -53 -10z"/>
<path d="M4281 7269 c-16 -22 -29 -29 -43 -26 -41 11 -50 -3 -22 -35 14 -17
37 -54 51 -81 l25 -51 15 27 c26 51 30 197 4 197 -4 0 -18 -14 -30 -31z"/>
<path d="M5813 7007 c-16 -34 -17 -126 -2 -164 13 -34 55 -80 91 -99 40 -21
42 -18 9 24 -44 54 -72 125 -79 200 -7 63 -8 65 -19 39z"/>
<path d="M7100 7003 c0 -17 -9 -84 -20 -149 -11 -64 -18 -119 -16 -121 2 -3
19 25 36 61 29 59 32 72 28 140 -2 42 -9 81 -16 88 -9 9 -12 6 -12 -19z"/>
<path d="M6075 6821 c-34 -20 -69 -67 -57 -75 13 -8 126 -25 212 -31 47 -3 97
-8 113 -11 38 -8 35 13 -8 63 -58 69 -192 96 -260 54z"/>
<path d="M6755 6802 c-67 -32 -135 -91 -135 -115 0 -9 6 -14 13 -12 6 2 59 15
117 29 58 13 127 34 154 46 l49 22 -26 25 c-39 39 -98 41 -172 5z"/>
<path d="M7348 6280 c-95 -50 -205 -81 -303 -87 -77 -5 -106 -1 -200 22 -110
27 -110 27 -265 15 -117 -9 -174 -10 -233 -1 -123 17 -225 14 -298 -10 -57
-19 -79 -20 -199 -15 -74 4 -162 9 -195 12 l-60 6 55 -37 c79 -53 169 -128
296 -246 118 -110 184 -155 284 -196 175 -70 393 -67 557 9 94 43 170 104 353
282 102 100 202 193 223 209 35 26 66 68 50 67 -4 -1 -34 -14 -65 -30z m-943
-105 c77 -15 83 -15 167 7 l86 22 129 -28 c70 -16 160 -31 198 -35 l70 -7 -67
-22 c-114 -36 -222 -45 -478 -39 -129 3 -266 10 -305 16 -138 21 -255 45 -255
52 0 10 92 40 154 50 67 10 201 3 301 -16z m-413 -95 c344 -69 706 -75 996
-17 61 13 112 19 112 14 0 -21 -181 -188 -247 -226 -200 -118 -438 -142 -609
-62 -141 66 -277 172 -331 257 -16 25 -36 44 -45 44 -10 0 -18 5 -18 11 0 7 9
9 23 5 12 -4 65 -15 119 -26z"/>
</g>
</svg>
