<?xml version="1.0" standalone="no"?>
<!DOCTYPE svg PUBLIC "-//W3C//DTD SVG 20010904//EN"
 "http://www.w3.org/TR/2001/REC-SVG-20010904/DTD/svg10.dtd">
<svg version="1.0" xmlns="http://www.w3.org/2000/svg"
 width="1295.000000pt" height="1294.000000pt" viewBox="0 0 1295.000000 1294.000000"
 preserveAspectRatio="xMidYMid meet">
<metadata>
Created by potrace 1.16, written by Peter Selinger 2001-2019
</metadata>
<g transform="translate(0.000000,1294.000000) scale(0.100000,-0.100000)"
fill="#000000" stroke="none">
<path d="M0 6470 l0 -6470 6475 0 6475 0 0 6470 0 6470 -6475 0 -6475 0 0
-6470z m6674 5733 c4 -208 9 -467 12 -575 l4 -198 -25 0 c-14 0 -74 11 -133
25 -112 26 -146 33 -277 60 -44 10 -90 21 -103 26 -13 5 -31 9 -40 9 -9 0 -33
5 -53 10 l-36 10 -7 491 c-6 366 -5 494 4 499 6 4 44 8 83 9 39 1 73 4 75 6 2
2 113 4 246 4 l243 2 7 -378z m307 362 c19 -2 63 -6 99 -9 74 -7 140 -14 220
-24 l55 -7 0 -140 c0 -77 4 -362 9 -634 9 -485 9 -494 -10 -487 -10 4 -39 11
-64 16 -25 4 -81 17 -125 28 -85 22 -175 43 -265 62 -172 36 -190 42 -195 64
-2 12 -6 275 -9 585 l-5 564 128 -7 c70 -4 143 -9 162 -11z m-991 -202 c0
-109 3 -330 7 -492 l6 -294 -34 6 c-19 3 -86 17 -149 30 -63 14 -149 33 -190
42 -41 9 -95 22 -120 30 -25 7 -84 21 -132 31 l-88 17 -2 361 c-2 199 1 364 5
367 19 14 524 89 660 97 l37 3 0 -198z m1525 137 c160 -27 258 -46 388 -77
l109 -25 -3 -97 c-2 -53 0 -340 5 -637 5 -307 5 -544 0 -546 -12 -7 -178 32
-229 53 -11 4 -47 13 -80 19 -70 13 -119 23 -230 47 l-80 18 -6 230 c-18 659
-21 1035 -7 1035 7 0 67 -9 133 -20z m-2235 -1497 c9 -796 17 -1466 16 -1488
0 -101 34 -2532 39 -2785 3 -157 5 -476 5 -710 0 -234 5 -580 10 -770 14 -506
15 -1615 2 -1670 -6 -25 -18 -101 -27 -170 -8 -69 -20 -154 -25 -190 -6 -36
-15 -121 -21 -190 -6 -69 -14 -163 -19 -210 -5 -47 -14 -148 -20 -225 -15
-199 -9 -185 -80 -185 -33 0 -60 -4 -60 -10 0 -6 -28 -10 -63 -10 -34 0 -77
-4 -94 -9 -50 -14 -217 -26 -210 -14 3 5 3 403 -2 884 -7 871 -7 874 -29 923
-20 43 -21 51 -8 65 21 23 38 106 30 146 -3 19 -9 404 -13 857 -6 772 -8 825
-25 859 -17 34 -18 39 -2 69 14 30 16 106 16 730 0 771 -10 1049 -40 1087 -17
22 -17 24 1 60 18 35 19 68 19 628 -1 717 -12 1084 -36 1144 -15 39 -15 43 2
79 21 41 21 119 8 1077 -6 431 -12 509 -40 530 -13 9 -12 14 8 40 l23 30 0
360 0 360 55 18 c131 44 549 149 559 141 2 -2 11 -655 21 -1451z m2927 1342
c87 -25 208 -62 268 -83 l110 -37 6 -405 c4 -223 10 -497 13 -610 4 -113 3
-211 -2 -218 -6 -9 -19 -10 -58 -1 -27 6 -78 17 -114 24 -36 7 -96 22 -135 33
-38 10 -97 25 -130 31 -33 7 -77 17 -97 23 l-38 11 0 562 c0 309 -3 596 -6
638 -6 66 -5 77 9 77 9 0 87 -20 174 -45z m-3578 -522 c1 -158 -10 -243 -35
-264 -12 -9 -38 -9 -122 0 -59 7 -138 14 -177 16 -70 4 -70 4 -30 -9 22 -7 69
-16 105 -20 150 -15 192 -26 227 -62 24 -23 33 -122 34 -364 0 -129 3 -356 7
-505 4 -148 5 -365 2 -481 -6 -234 -8 -242 -72 -246 -18 -1 -96 1 -173 5 -106
5 -134 4 -115 -4 14 -6 60 -13 102 -15 98 -5 214 -29 234 -48 26 -27 32 -118
38 -606 11 -838 9 -1129 -8 -1156 -22 -32 -63 -38 -234 -30 -105 5 -142 3
-130 -4 10 -6 80 -12 157 -15 154 -4 194 -16 213 -63 16 -38 23 -348 26 -1098
l3 -652 -31 -26 c-25 -20 -42 -26 -81 -26 -27 0 -49 -4 -49 -9 0 -10 48 -21
90 -21 15 0 35 -9 46 -21 27 -30 32 -163 39 -1059 5 -611 4 -758 -7 -770 -25
-29 -69 -40 -194 -46 -68 -4 -128 -12 -131 -17 -4 -7 22 -8 77 -4 45 4 115 4
156 0 63 -5 74 -9 80 -27 4 -12 11 -24 16 -27 5 -3 14 -394 20 -882 13 -1000
19 -920 -74 -930 -90 -10 -297 -36 -408 -52 -58 -8 -123 -17 -145 -19 -22 -2
-101 -11 -175 -21 -74 -9 -171 -20 -215 -25 -44 -5 -138 -16 -209 -24 -109
-12 -135 -12 -162 -1 -30 12 -31 12 -26 -7 4 -17 2 -19 -19 -13 -32 10 -34 12
-19 30 16 19 6 19 -25 -1 -27 -17 -24 -18 -210 31 -55 14 -120 30 -145 34 -25
5 -88 21 -140 35 -52 14 -111 28 -130 31 -50 8 -76 29 -84 66 -3 17 -6 223 -6
458 0 234 -5 609 -11 833 -12 437 -10 464 36 494 19 13 33 13 81 5 61 -12 151
-15 142 -6 -3 4 -44 10 -92 15 -47 5 -98 15 -113 22 -59 28 -57 0 -66 893 -9
806 -10 902 -8 938 1 10 12 29 26 42 22 23 32 25 122 26 l98 1 -108 12 c-82 8
-112 15 -121 28 -10 13 -14 142 -20 518 l-6 500 34 52 c19 29 40 71 48 93 16
50 22 56 80 85 26 13 63 36 83 52 29 25 35 36 35 69 0 26 -7 46 -20 59 l-20
20 30 30 c29 28 30 32 27 107 -2 43 -9 88 -15 100 -13 23 -45 38 -62 28 -5 -3
-10 1 -10 9 0 27 -46 49 -85 42 -35 -7 -44 1 -24 21 6 6 17 22 23 35 6 12 27
28 46 35 28 10 30 12 11 12 -18 1 -22 5 -16 19 20 48 26 119 20 249 -5 121 -4
146 11 174 12 23 15 48 11 88 -3 31 1 83 9 118 20 86 22 236 4 300 -18 67 -85
147 -138 163 -20 7 -48 19 -61 27 -25 16 -101 32 -191 39 -30 3 -65 10 -76 16
-12 5 -41 8 -65 5 -194 -25 -225 -36 -279 -92 -19 -20 -52 -47 -72 -61 -40
-26 -68 -77 -68 -126 0 -16 -7 -45 -15 -65 -8 -19 -15 -46 -15 -59 0 -20 -26
-68 -63 -115 -6 -9 -32 -29 -57 -45 -62 -40 -67 -46 -79 -90 -6 -21 -25 -52
-42 -69 -30 -30 -35 -57 -18 -115 3 -9 -10 -19 -41 -29 -25 -7 -56 -18 -70
-24 -14 -5 -36 -14 -50 -19 -14 -6 -38 -16 -53 -24 -16 -8 -35 -14 -42 -14 -7
0 -15 -3 -17 -7 -1 -5 -25 -20 -52 -34 -148 -80 -224 -186 -304 -424 -48 -146
-70 -249 -93 -440 -6 -55 -22 -133 -35 -172 -33 -100 -39 -146 -24 -196 9 -33
9 -56 0 -98 -21 -98 -32 -183 -31 -222 1 -27 -8 -50 -34 -89 -19 -29 -35 -58
-35 -65 0 -6 -3 -13 -8 -15 -4 -1 -27 -55 -52 -118 -24 -63 -47 -119 -50 -125
-4 -5 -27 -70 -51 -142 -24 -73 -47 -133 -50 -133 -12 0 -17 212 -13 520 2
168 6 319 8 335 3 17 10 89 16 160 21 251 81 613 146 880 229 935 677 1805
1305 2535 l64 75 5 -345 c5 -315 7 -347 24 -372 14 -22 15 -28 5 -29 -26 -1
-54 -7 -109 -22 -30 -7 -82 -20 -115 -26 -59 -12 -171 -40 -190 -47 -5 -2 13
-2 40 1 71 8 197 34 217 46 10 5 43 9 73 9 30 0 55 5 55 10 0 6 8 10 18 10 15
-1 15 -2 2 -13 -13 -10 -14 -44 -10 -232 l6 -220 2 198 c2 243 7 259 83 281
29 9 65 16 81 16 15 0 28 4 28 8 0 5 30 14 68 20 281 47 256 60 254 -129 -1
-79 2 -196 7 -259 7 -102 8 -85 9 146 2 257 2 261 25 282 12 12 46 25 77 31
30 5 96 19 145 30 50 12 127 29 173 40 45 10 85 21 89 24 11 12 -32 8 -83 -8
-27 -8 -63 -15 -80 -15 -17 0 -44 -4 -60 -10 -34 -12 -193 -46 -279 -61 -33
-5 -73 -14 -90 -19 -58 -18 -161 -40 -250 -55 -49 -8 -101 -18 -115 -21 -18
-4 -34 1 -50 14 -25 20 -25 23 -32 224 -3 111 -6 274 -7 361 l-1 157 223 223
c230 231 412 393 627 558 138 107 369 269 382 269 4 0 8 -21 8 -47 0 -27 5
-55 10 -63 7 -10 10 7 10 57 l0 72 43 29 c23 16 63 41 89 56 45 26 50 27 110
16 98 -17 346 -45 323 -36 -5 2 -44 12 -85 21 -41 9 -94 23 -118 31 -23 8 -66
14 -94 14 -32 0 -48 4 -43 9 23 22 344 191 505 266 225 105 346 155 550 226
l165 57 6 -157 c4 -86 7 -224 8 -308z m4153 326 c84 -34 158 -65 164 -70 12
-9 16 -256 29 -1794 3 -330 10 -793 16 -1028 6 -235 8 -440 4 -454 -3 -14 -10
-85 -15 -157 -7 -109 -14 -143 -37 -196 -15 -36 -31 -66 -35 -68 -4 -2 -8 -9
-8 -15 0 -15 -41 -57 -56 -57 -7 0 -27 -19 -46 -41 -18 -23 -47 -58 -64 -78
-18 -20 -43 -49 -58 -66 l-25 -30 -2 425 c-3 823 -13 1582 -24 1990 -12 432
-17 1700 -7 1700 6 0 79 -28 164 -61z m435 -194 c467 -231 872 -498 1292 -852
147 -123 537 -512 663 -661 884 -1038 1382 -2256 1477 -3612 10 -131 7 -789
-3 -875 -4 -27 -11 -97 -17 -155 -5 -58 -12 -118 -14 -135 -32 -221 -49 -331
-71 -440 -188 -947 -618 -1876 -1212 -2617 -78 -97 -82 -97 -82 5 0 76 -17
331 -30 447 -21 187 -40 371 -50 485 -6 66 -15 143 -21 170 -5 28 -14 120 -20
205 -26 392 -52 712 -69 845 -6 44 -15 114 -20 155 -41 339 -58 449 -105 710
-9 47 -20 112 -25 145 -6 33 -14 83 -20 110 -5 28 -14 84 -20 125 -7 41 -18
102 -26 135 -9 33 -20 78 -25 100 -16 65 -41 130 -92 235 l-32 65 6 135 c11
218 22 259 90 320 32 29 49 81 59 177 6 54 17 127 26 163 34 146 33 140 60
320 36 244 43 581 14 693 -41 156 -44 163 -88 252 -47 94 -151 210 -337 378
l-50 45 14 34 c8 18 16 61 19 95 3 52 0 69 -19 100 -13 21 -29 42 -36 46 -10
6 -12 21 -8 51 5 33 2 53 -14 84 -11 22 -26 42 -32 44 -18 6 8 84 35 106 50
39 63 80 71 218 5 89 13 142 26 172 10 23 19 68 20 99 l2 56 -69 64 c-74 69
-231 185 -304 225 -25 13 -70 33 -100 43 -30 9 -65 21 -77 26 -11 4 -57 13
-102 20 -64 10 -98 10 -168 -1 -117 -17 -134 -27 -173 -102 -43 -84 -68 -118
-86 -118 -8 0 -22 -17 -32 -37 -9 -21 -31 -53 -49 -71 -37 -40 -53 -100 -50
-193 1 -43 -3 -71 -11 -82 -8 -9 -12 -29 -11 -44 3 -35 -10 -93 -21 -93 -15 0
-31 -89 -20 -110 16 -31 12 -67 -14 -97 -37 -45 -76 -125 -76 -158 0 -30 19
-66 50 -95 9 -8 16 -26 17 -40 1 -14 6 -44 11 -67 10 -48 8 -53 -25 -53 -31 0
-104 -72 -157 -155 -11 -17 -25 -36 -33 -43 -7 -7 -17 -21 -22 -30 -22 -40
-21 -93 -36 1348 -3 267 -8 717 -10 1000 -3 283 -7 579 -10 657 l-6 142 30
-10 c16 -6 114 -52 218 -104z m-3717 -290 c63 -15 133 -30 155 -35 22 -4 74
-15 115 -25 41 -9 86 -19 100 -22 14 -2 34 -8 45 -13 11 -4 61 -15 110 -25 89
-16 197 -38 265 -55 53 -13 376 -87 455 -105 39 -8 117 -26 175 -40 122 -30
135 -33 175 -40 35 -7 77 -16 195 -44 95 -22 165 -38 225 -51 22 -4 56 -13 75
-19 19 -6 67 -18 105 -26 39 -8 113 -24 165 -35 85 -18 339 -77 430 -101 19
-5 91 -21 160 -35 69 -15 131 -33 138 -39 9 -8 14 -74 19 -243 l6 -232 -27 0
c-15 0 -46 4 -69 9 -23 6 -105 22 -182 36 -77 14 -174 33 -215 42 -41 9 -82
17 -90 18 -8 1 -22 5 -30 8 -12 5 -94 20 -310 60 -14 2 -59 11 -100 20 -41 8
-118 22 -170 32 -52 9 -122 22 -155 29 -33 8 -87 19 -120 25 -33 7 -74 16 -91
22 -17 5 -44 9 -60 9 -16 0 -45 5 -64 10 -19 6 -62 15 -95 20 -33 6 -80 14
-105 19 -25 5 -85 16 -135 25 -49 8 -130 24 -180 35 -49 11 -117 25 -150 31
-33 7 -89 18 -125 25 -36 8 -94 19 -130 25 -36 6 -83 16 -105 21 -22 6 -65 14
-95 18 -66 10 -347 66 -408 81 -23 5 -53 10 -66 10 -24 0 -24 2 -30 123 -3 67
-8 200 -10 295 l-4 174 47 -5 c25 -3 98 -17 161 -32z m-106 -585 c39 -11 239
-49 325 -61 36 -5 78 -13 95 -18 17 -5 74 -17 126 -26 52 -8 118 -21 147 -29
28 -8 54 -11 57 -8 4 3 16 0 29 -6 20 -10 167 -40 382 -77 50 -9 108 -20 130
-25 22 -5 81 -16 130 -24 107 -18 138 -24 185 -36 58 -14 181 -40 240 -50 80
-14 312 -57 405 -75 44 -8 100 -18 125 -21 25 -4 50 -10 55 -14 6 -4 51 -15
100 -24 144 -25 241 -44 375 -71 69 -14 151 -30 182 -35 31 -6 67 -15 80 -20
42 -18 -57 -5 -217 28 -82 17 -188 38 -235 46 -175 33 -247 47 -320 61 -41 9
-106 20 -145 26 -38 6 -75 15 -81 20 -6 5 -13 6 -17 3 -3 -3 -29 1 -59 9 -29
8 -82 20 -118 26 -59 10 -95 17 -230 41 -25 5 -106 20 -180 35 -74 14 -160 30
-190 35 -30 5 -84 17 -120 25 -36 9 -90 20 -120 24 -30 5 -82 14 -115 20 -33
6 -123 23 -200 37 -77 14 -205 39 -285 56 -80 16 -163 33 -185 38 -22 4 -67
13 -100 19 -33 7 -80 16 -105 21 -25 5 -87 17 -137 26 -51 9 -93 21 -93 25 0
12 46 11 84 -1z m96 -60 c25 -5 65 -13 90 -19 25 -6 131 -27 235 -47 105 -20
191 -38 193 -39 2 -2 8 -394 13 -871 6 -478 14 -887 18 -909 5 -23 7 98 5 285
-14 1140 -14 1490 -2 1490 13 0 102 -16 258 -46 41 -8 97 -17 123 -21 26 -3
50 -10 53 -14 3 -5 18 -9 34 -9 16 0 63 -7 105 -17 l75 -16 1 -151 c1 -83 5
-185 9 -226 5 -54 7 -14 8 146 1 121 4 223 7 226 3 3 22 1 43 -4 52 -12 238
-49 292 -58 25 -4 70 -13 100 -20 30 -7 66 -12 80 -12 14 0 30 -3 35 -8 6 -4
31 -11 57 -14 25 -4 48 -12 51 -19 2 -7 6 -91 7 -187 1 -96 6 -222 10 -280 5
-81 7 -38 8 182 l2 288 28 -5 c15 -3 63 -12 107 -20 208 -40 355 -67 405 -75
98 -15 90 10 90 -264 0 -363 23 -1317 32 -1271 3 22 5 47 3 55 -2 8 -7 341
-10 739 -7 701 -7 723 11 718 55 -15 123 -29 249 -52 77 -14 163 -30 191 -36
29 -7 63 -9 76 -6 l25 7 7 -333 c4 -182 11 -714 16 -1181 l9 -848 -54 -77
c-128 -181 -185 -348 -185 -545 0 -135 17 -217 65 -320 62 -132 169 -210 289
-209 42 1 69 -4 86 -16 31 -21 97 -41 137 -41 39 0 42 -10 49 -217 6 -155 5
-167 -20 -245 -14 -46 -30 -123 -35 -173 -5 -49 -19 -146 -30 -215 -12 -69
-21 -146 -21 -172 0 -25 -4 -68 -9 -95 -22 -113 -32 -186 -42 -313 -15 -198
-26 -326 -44 -500 -22 -217 -34 -355 -45 -500 -26 -359 -58 -711 -64 -717 -5
-5 -19 553 -21 877 -11 1526 -19 2171 -26 2205 -5 22 -6 -223 -4 -560 3 -330
8 -947 11 -1371 l7 -771 -69 -2 c-38 -1 -85 -3 -104 -5 -228 -20 -233 -20
-227 0 3 10 9 35 12 54 7 37 51 166 63 184 10 15 31 100 26 105 -6 7 -42 -42
-64 -87 -24 -50 -65 -179 -75 -234 -7 -40 -22 -48 -87 -48 l-38 0 -1 293 c0
160 -2 400 -3 532 -20 1518 -29 2141 -35 2410 l-7 320 -2 -390 c-1 -214 5
-869 13 -1455 8 -586 15 -1212 15 -1392 l0 -327 -42 -4 c-24 -2 -4 -4 43 -5
47 -1 89 -5 93 -9 4 -4 15 -8 24 -8 13 0 15 -10 13 -60 -1 -33 -5 -63 -7 -67
-3 -5 -1 -8 4 -8 5 0 15 26 22 59 7 32 16 64 20 71 4 6 41 15 81 20 64 6 68 8
29 10 -45 3 -45 3 15 10 90 12 147 11 140 0 -6 -9 37 -7 118 5 l27 4 1 -104
c0 -58 0 -127 0 -155 0 -27 0 -96 0 -153 l-1 -103 -92 -13 c-185 -24 -375 -46
-533 -61 -55 -5 -160 -16 -233 -25 -74 -8 -138 -12 -143 -9 -5 3 -9 74 -9 158
0 84 -4 209 -10 277 -34 429 -55 754 -66 1066 -7 162 -6 163 18 195 26 35 43
91 52 172 4 27 11 55 17 62 14 17 14 160 0 197 -6 15 -14 63 -17 107 -7 78 -6
79 18 91 46 20 50 47 39 218 -6 86 -15 206 -21 266 -6 61 -12 142 -14 180 -6
98 -23 223 -46 339 -11 55 -19 100 -18 101 57 36 65 47 76 97 7 29 17 121 23
203 15 193 6 351 -26 505 -4 19 4 35 35 70 22 25 40 48 40 52 0 9 59 28 91 28
49 0 110 41 158 108 32 43 52 62 68 62 31 0 85 34 113 72 23 30 25 41 22 128
-1 52 -7 111 -14 130 -6 19 -11 51 -9 70 1 19 -7 52 -18 73 l-19 38 26 16 c45
28 99 90 105 120 6 32 -12 81 -36 102 -42 34 -161 0 -296 -86 -84 -54 -271
-248 -271 -281 0 -6 -3 -12 -7 -14 -5 -1 -23 -33 -42 -70 -49 -96 -100 -160
-135 -169 -17 -5 -31 -7 -33 -5 -2 2 -10 39 -17 82 -25 136 -65 266 -108 349
-25 47 -111 160 -147 194 l-26 23 30 -8 c17 -5 55 -8 85 -7 51 1 58 4 92 43
52 59 64 99 47 169 -7 31 -17 59 -23 63 -9 6 -5 19 35 100 5 10 9 24 9 31 0 7
15 18 33 25 52 19 60 56 29 134 -14 34 -35 78 -48 97 -18 27 -22 43 -17 80 3
26 -2 85 -12 136 -9 50 -17 110 -16 133 0 24 -6 67 -13 96 -20 75 -87 213
-111 226 -11 7 -31 35 -45 63 -21 45 -33 56 -84 81 -34 17 -80 31 -111 34 -94
8 -256 -39 -377 -109 -36 -22 -69 -39 -72 -39 -4 0 -29 -16 -56 -35 -27 -19
-52 -35 -55 -35 -3 0 -13 -8 -23 -17 -10 -10 -36 -33 -57 -51 l-38 -33 8 -67
c5 -37 9 -107 10 -157 2 -112 9 -146 49 -217 l31 -57 -38 -32 c-20 -17 -37
-37 -37 -43 0 -6 -13 -24 -29 -39 -36 -33 -61 -81 -61 -114 0 -13 -7 -37 -15
-54 -13 -25 -14 -36 -4 -64 7 -19 11 -36 8 -38 -2 -3 -39 -24 -82 -48 -216
-122 -369 -288 -434 -471 -28 -80 -33 -97 -62 -238 -23 -108 -28 -357 -11
-501 26 -220 42 -338 50 -384 26 -143 31 -204 20 -242 -15 -49 -6 -70 61 -159
l52 -69 -1 -78 c0 -43 -6 -92 -12 -107 -8 -20 -9 -39 -2 -62 16 -55 14 -104
-7 -140 -32 -55 -91 -220 -127 -356 -13 -48 -20 -83 -54 -257 -5 -27 -19 -113
-31 -190 -35 -228 -63 -389 -73 -415 -3 -8 -10 -53 -16 -100 -13 -98 -22 -158
-43 -290 -16 -98 -31 -207 -47 -345 -11 -87 -36 -281 -51 -385 -13 -92 -28
-211 -29 -240 -1 -23 -2 -23 -9 -5 -5 11 -11 346 -15 745 -13 1539 -16 1810
-25 2260 -5 256 -10 634 -11 840 -1 206 -10 967 -19 1690 -9 723 -15 1363 -13
1421 l3 106 67 -14 c37 -7 87 -17 112 -23z m4435 -631 c44 -11 94 -24 110 -28
49 -13 203 -91 233 -118 7 -7 16 -13 20 -13 4 0 29 -20 57 -45 27 -25 53 -45
58 -45 4 0 14 -15 22 -33 10 -25 11 -43 4 -73 -6 -21 -15 -58 -20 -81 -6 -24
-14 -43 -19 -43 -5 0 -29 16 -55 36 -26 19 -54 34 -62 32 -10 -2 6 -18 40 -41
84 -58 87 -64 49 -94 -50 -38 -66 -78 -66 -160 0 -40 4 -77 10 -83 11 -11 7
-60 -5 -60 -3 1 -24 12 -46 25 -22 13 -60 34 -85 45 -43 20 -57 27 -97 50 -79
44 -293 131 -448 180 -67 22 -202 43 -216 34 -11 -7 -11 7 0 24 5 8 21 12 37
10 23 -2 28 1 26 15 -2 9 2 17 8 17 10 0 50 36 50 46 0 3 11 22 25 42 14 20
25 51 25 69 0 17 5 35 11 39 8 4 8 9 0 17 -6 6 -11 22 -11 35 0 23 2 24 53 17
28 -4 94 -18 146 -32 89 -23 133 -27 74 -6 -15 6 -44 16 -63 22 -19 7 -54 17
-78 22 -24 5 -48 11 -53 15 -13 8 -3 38 32 95 33 53 38 73 9 36 -11 -14 -20
-28 -20 -31 0 -3 -12 -25 -27 -50 -22 -36 -31 -44 -52 -41 -30 3 -30 8 11 93
17 37 39 67 51 72 41 16 179 11 262 -11z m-371 -181 c29 -110 -44 -268 -124
-268 -26 0 -17 18 16 30 24 9 84 84 84 104 0 6 -5 4 -10 -4 -9 -13 -10 -13
-11 0 0 9 -6 4 -12 -10 -23 -47 -42 -70 -59 -70 -10 0 -18 4 -18 8 0 27 30
102 50 125 21 24 24 25 35 10 10 -14 13 -11 19 18 4 20 2 35 -3 37 -6 2 -6 11
2 23 15 25 23 24 31 -3z m-2425 -42 c18 -10 36 -34 53 -75 l26 -60 -31 -7
c-31 -7 -32 -8 -7 -14 24 -6 43 -50 22 -50 -5 0 -12 -12 -14 -27 -3 -16 -7
-34 -9 -42 -2 -7 2 -16 9 -18 8 -3 12 6 12 27 0 18 4 29 10 25 6 -3 10 -15 10
-26 0 -11 7 -31 16 -45 21 -31 11 -43 -16 -19 -11 10 -20 13 -20 7 0 -6 12
-19 28 -29 51 -32 64 -46 50 -55 -8 -5 1 -8 23 -8 22 0 39 -6 42 -14 4 -10 -8
-15 -51 -19 -31 -3 -75 -10 -97 -16 -95 -24 -132 -35 -170 -51 -22 -10 -55
-21 -72 -25 -18 -3 -33 -11 -33 -16 0 -5 -8 -9 -17 -9 -25 0 -108 -35 -230
-97 -57 -29 -105 -53 -108 -53 -3 0 -5 7 -5 15 0 8 7 15 15 15 8 0 15 5 15 11
0 6 -7 8 -16 5 -13 -5 -15 -2 -9 16 16 54 17 72 4 111 -7 23 -29 56 -48 74
l-35 32 25 20 c13 12 45 33 72 48 62 35 61 47 -3 16 -27 -13 -50 -28 -50 -33
0 -6 -8 -10 -19 -10 -15 0 -20 13 -30 70 -14 87 -9 97 67 147 82 54 91 59 152
89 30 14 69 33 85 41 17 8 65 23 109 33 43 11 81 22 84 25 11 11 134 4 161 -9z
m115 -205 c-8 -62 8 -113 49 -151 17 -16 28 -32 24 -36 -9 -9 -67 45 -67 62 0
6 -7 25 -15 40 -21 40 -20 134 0 134 13 0 15 -9 9 -49z m65 -86 c15 -50 10
-65 -13 -46 -20 17 -50 97 -41 111 12 19 39 -14 54 -65z m2201 -29 c125 -31
192 -57 181 -69 -11 -14 1 -83 18 -100 6 -6 11 -18 11 -27 0 -9 9 -25 20 -35
11 -10 20 -28 20 -41 0 -13 5 -26 10 -29 15 -9 12 -73 -4 -103 -8 -15 -22 -47
-31 -72 -27 -69 -38 -90 -47 -90 -5 0 -21 -12 -36 -27 -15 -15 -29 -28 -32
-28 -13 -1 -56 -30 -66 -43 -9 -12 -17 -5 -45 41 -18 32 -39 57 -46 57 -7 0
-13 4 -13 9 0 5 -16 12 -35 15 -37 7 -45 20 -20 30 8 3 15 13 15 23 -1 17 -2
16 -15 -1 -12 -16 -18 -17 -27 -8 -17 17 -45 15 -57 -5 -9 -17 -12 -16 -35 6
-14 14 -26 31 -26 39 0 19 67 141 93 169 20 23 24 58 12 114 -5 21 3 51 26
109 37 89 36 89 129 66z m-7060 -10 c0 -3 -4 -8 -10 -11 -5 -3 -10 -1 -10 4 0
6 5 11 10 11 6 0 10 -2 10 -4z m7950 -25 c0 -5 -7 -12 -15 -15 -24 -9 -55 -85
-55 -136 0 -33 -3 -41 -10 -30 -13 21 -12 106 1 133 19 36 41 57 61 57 10 0
18 -4 18 -9z m-14 -95 c-4 -24 -14 -50 -23 -58 -14 -12 -15 -8 -9 37 8 48 23
81 34 71 2 -3 1 -25 -2 -50z m-3046 -53 c6 -21 18 -52 26 -69 10 -23 11 -40 3
-68 -9 -31 -7 -44 9 -74 11 -20 34 -64 51 -98 18 -34 29 -67 26 -76 -10 -25
-36 -30 -56 -12 -17 15 -21 15 -42 1 -22 -14 -26 -14 -41 1 -9 9 -16 11 -16 5
0 -7 5 -15 11 -19 7 -4 -7 -16 -32 -28 -30 -16 -50 -35 -66 -66 -30 -57 -31
-57 -49 -32 -8 12 -21 22 -27 22 -20 0 -74 54 -96 96 -26 51 -56 197 -42 202
6 2 11 9 11 16 0 6 16 29 37 51 28 30 37 49 41 86 5 49 25 68 75 69 12 1 36 7
52 15 17 7 49 14 72 14 39 1 42 -1 53 -36z m-815 -10 c24 -36 36 -113 17 -113
-5 0 -7 12 -5 28 3 16 -6 46 -21 75 -30 56 -26 61 9 10z m-19 -20 c15 -20 19
-73 6 -73 -8 0 -32 58 -32 78 0 17 11 15 26 -5z m3514 -54 c21 -18 25 -29 25
-78 -1 -37 -7 -66 -20 -86 -27 -43 -97 -115 -112 -115 -7 0 -13 -5 -13 -12 0
-6 -7 -4 -18 5 -10 10 -25 17 -32 17 -21 0 -5 145 20 180 11 15 20 35 20 44 0
9 6 16 14 16 8 0 16 3 18 8 4 10 51 41 63 41 6 0 21 -9 35 -20z m-3166 -89
c16 -6 35 -29 52 -62 24 -47 27 -64 26 -142 -1 -49 -5 -92 -9 -95 -11 -8 -15
-92 -4 -105 4 -6 11 -24 15 -41 4 -16 11 -32 15 -35 14 -10 111 -127 111 -133
0 -4 -15 -28 -33 -54 -34 -50 -61 -113 -51 -122 3 -3 9 1 14 9 7 11 11 8 19
-13 14 -37 14 -41 -7 -60 -17 -15 -21 -15 -63 1 -24 9 -75 34 -112 55 -57 32
-76 50 -115 109 -65 98 -72 109 -111 157 -37 46 -35 62 4 41 22 -12 30 -11 59
3 19 9 37 25 41 36 3 12 12 21 19 21 39 0 82 69 77 122 -1 9 3 19 9 23 5 3 10
16 11 28 l0 22 11 -23 c12 -23 49 -39 67 -27 18 10 12 27 -6 21 -24 -7 -34 1
-69 54 -38 58 -54 95 -54 126 0 30 24 80 42 87 7 3 14 6 15 6 1 1 13 -3 27 -9z
m3116 -243 c0 -30 7 -60 15 -71 8 -11 15 -35 15 -52 0 -50 20 -84 52 -91 15
-3 41 -19 59 -35 l30 -30 -33 -31 c-19 -18 -52 -48 -73 -67 -22 -20 -57 -57
-78 -82 -40 -49 -116 -92 -229 -129 -59 -20 -82 -18 -92 7 -8 20 11 54 29 54
8 0 15 6 15 13 0 7 7 4 15 -7 31 -41 16 16 -25 96 -22 43 -37 78 -32 78 12 0
112 98 112 110 0 5 6 10 13 10 8 0 31 32 51 72 31 59 38 82 38 130 0 58 5 67
24 48 14 -14 74 8 74 27 0 8 5 11 10 8 6 -3 10 -30 10 -58z m-570 -18 c11 -7
4 -8 -25 -3 -50 8 -58 14 -19 14 16 0 36 -5 44 -11z m48 -31 c7 -7 12 -29 12
-50 0 -44 -18 -57 -56 -39 -19 8 -24 16 -19 31 5 16 2 20 -18 20 -22 0 -37 16
-37 41 0 13 104 11 118 -3z m-2080 -30 c-3 -7 -18 -14 -34 -16 l-29 -3 25 15
c32 18 43 19 38 4z m-13 -53 c0 -13 -8 -21 -22 -23 -17 -2 -23 -10 -23 -27 0
-28 -12 -38 -34 -29 -20 8 -30 46 -22 80 6 23 10 25 54 22 39 -3 47 -6 47 -23z
m-5177 1 c22 -11 38 -12 77 -4 40 9 53 7 76 -6 15 -9 40 -16 57 -16 16 0 35
-7 42 -14 6 -8 27 -20 46 -26 34 -11 114 -84 114 -103 0 -11 -25 -7 -140 24
-74 20 -110 23 -275 23 -171 1 -197 -1 -257 -21 -81 -28 -78 -28 -78 -3 0 10
12 27 26 37 15 10 39 31 55 46 35 33 92 59 113 51 8 -3 27 1 43 10 36 19 67
20 101 2z m7215 -53 c25 -4 36 -10 33 -19 -6 -15 21 -40 32 -29 4 4 1 10 -5
12 -7 3 -13 9 -13 14 0 6 8 5 20 -1 17 -9 18 -14 9 -32 -10 -19 -17 -20 -85
-13 l-74 7 -38 -41 c-21 -23 -46 -41 -54 -41 -9 0 -20 -5 -23 -11 -7 -11 20
-8 122 13 50 10 53 10 72 -13 21 -25 28 -69 12 -69 -5 0 -11 4 -13 9 -1 4 -34
5 -73 1 l-70 -7 69 -2 c77 -1 106 -17 106 -58 0 -22 -2 -23 -86 -23 -54 0 -83
-4 -79 -10 3 -5 39 -10 78 -10 61 0 74 -3 84 -20 10 -16 9 -28 -8 -67 -29 -68
-67 -100 -85 -72 -4 7 9 26 31 45 l38 32 -42 -1 c-34 -2 -41 -5 -37 -19 2 -10
-2 -22 -10 -29 -10 -8 -14 -37 -14 -101 0 -97 -13 -137 -57 -175 -15 -12 -27
-33 -29 -48 -2 -15 -10 -50 -18 -79 -15 -47 -71 -268 -83 -326 -13 -62 -55
-208 -68 -237 -8 -17 -15 -36 -15 -41 0 -6 -9 -32 -20 -58 -19 -44 -22 -46
-34 -28 -14 22 -55 155 -70 229 -5 28 -10 127 -10 220 l-1 170 34 73 c19 39
38 72 42 72 5 0 9 6 9 13 1 15 29 73 52 107 10 14 22 55 27 90 26 166 31 201
42 294 11 94 14 101 51 140 21 23 55 62 76 88 20 26 46 49 57 51 33 7 77 7
118 0z m-7018 -114 c16 -5 42 -9 56 -9 15 0 40 -7 55 -15 16 -8 36 -15 45 -15
21 0 68 -23 73 -36 7 -19 -11 -39 -26 -27 -7 5 -23 12 -34 15 -17 4 -20 2 -17
-13 4 -13 0 -19 -11 -19 -9 0 -16 -5 -16 -11 0 -7 9 -9 23 -6 25 6 52 -13 80
-56 23 -36 18 -41 -19 -23 -35 18 -129 44 -204 58 -60 11 -327 3 -400 -12
-117 -24 -147 -30 -167 -36 -21 -6 -23 -4 -17 27 8 42 11 46 25 32 14 -14 38
-6 62 21 15 17 21 18 37 8 27 -17 37 -15 61 9 15 15 24 18 32 10 13 -13 67
-15 67 -2 0 18 41 23 63 8 19 -12 25 -12 51 4 26 16 32 16 50 3 24 -16 52 -18
61 -4 3 5 0 7 -9 4 -18 -7 -59 14 -51 27 13 20 60 9 85 -21 28 -33 83 -42 94
-15 8 21 53 19 65 -2 10 -17 10 -17 11 -1 0 24 -41 33 -85 18 -38 -13 -65 -8
-65 11 0 7 10 9 28 5 23 -5 24 -5 9 5 -11 6 -30 9 -43 6 -13 -2 -24 0 -24 4 0
13 -287 11 -295 -1 -3 -5 -23 -10 -43 -10 -47 0 -129 -24 -114 -34 18 -11 2
-36 -22 -36 -19 0 -23 6 -25 44 -2 43 -1 44 41 59 37 13 103 25 223 41 45 6
255 -5 290 -15z m3984 -86 c82 -72 77 -67 131 -133 25 -30 48 -57 52 -60 25
-19 163 -323 208 -460 50 -153 84 -350 60 -350 -6 0 -24 30 -41 68 -17 37 -39
84 -50 104 -11 20 -24 72 -29 115 -16 139 -50 259 -90 326 -25 41 -26 20 -1
-36 10 -23 26 -71 36 -107 9 -36 21 -78 26 -94 12 -38 12 -106 0 -106 -5 0
-12 23 -16 50 -4 28 -11 50 -16 50 -5 0 -9 9 -9 19 0 37 -101 248 -130 271 -4
3 -11 12 -16 22 -15 27 -94 108 -106 108 -6 0 -2 -8 8 -17 44 -40 111 -132
142 -193 9 -19 20 -36 25 -38 4 -2 7 -10 7 -18 0 -8 4 -22 9 -32 30 -58 61
-147 61 -174 0 -9 6 -18 13 -21 6 -2 9 -8 5 -12 -4 -4 -43 29 -88 75 -44 45
-80 78 -80 73 0 -8 14 -24 123 -144 74 -83 69 -75 101 -139 16 -30 32 -63 37
-72 5 -10 9 -25 9 -33 0 -8 5 -15 10 -15 6 0 10 -7 10 -15 0 -11 -10 -13 -47
-9 -87 8 -153 10 -146 4 15 -12 115 -30 168 -30 92 0 140 -38 64 -51 -58 -9
-122 -45 -194 -107 -16 -14 -49 -56 -63 -80 -11 -21 -11 -22 6 -11 10 7 27 25
38 40 10 16 22 29 25 29 3 0 19 11 35 25 37 32 103 70 139 79 27 7 27 7 -11
-41 -22 -26 -41 -50 -44 -53 -20 -19 -39 -62 -34 -77 4 -13 3 -15 -4 -5 -7 11
-10 11 -15 -2 -3 -8 -1 -17 6 -19 9 -3 9 -8 0 -18 -7 -7 -13 -19 -13 -26 0 -7
-11 -30 -23 -51 -26 -41 -41 -86 -25 -76 5 3 13 16 19 27 5 12 13 29 18 37 5
8 35 68 67 134 32 65 64 120 71 123 7 3 13 11 13 19 0 7 15 24 33 38 40 31 87
35 87 9 0 -10 4 -14 8 -8 4 6 36 23 72 39 36 16 97 44 136 63 99 46 115 44
137 -15 10 -26 22 -54 26 -62 23 -45 57 -237 77 -435 16 -165 14 -276 -9 -389
l-12 -59 -75 -23 c-41 -13 -85 -24 -97 -24 -12 0 -50 -6 -85 -14 -102 -23
-301 -39 -400 -33 -137 8 -192 33 -286 127 -88 88 -101 104 -128 148 -10 18
-22 32 -26 32 -4 0 -8 6 -8 13 0 8 -13 32 -28 53 -70 98 -242 419 -242 453 0
6 -8 28 -19 49 -10 20 -31 75 -47 122 -16 47 -30 78 -32 69 -4 -19 47 -179 88
-279 33 -81 33 -80 22 -80 -4 0 -16 15 -27 33 -10 17 -22 34 -25 37 -4 3 -18
25 -30 50 -13 25 -25 40 -27 33 -2 -6 3 -27 13 -45 17 -33 122 -188 134 -198
4 -3 33 -54 65 -115 47 -89 142 -242 165 -265 14 -14 70 -90 70 -94 0 -8 -62
-7 -128 1 -52 6 -56 8 -110 76 -31 38 -58 65 -60 59 -3 -11 4 -23 41 -63 18
-20 23 -34 8 -25 -5 4 -7 -2 -4 -13 8 -32 -60 -12 -114 34 -68 58 -86 106 -88
240 -1 60 -9 146 -18 190 -29 133 -36 182 -54 368 -14 155 -15 194 -4 300 22
203 53 347 92 417 4 8 19 38 33 65 25 51 78 111 151 175 71 62 173 130 194
130 8 0 44 -26 80 -57z m-4261 25 c-7 -21 -34 -31 -64 -23 l-29 8 30 13 c38
16 68 18 63 2z m95 -9 c-23 -23 -63 -19 -63 7 0 10 12 14 42 14 l42 0 -21 -21z
m8287 2 c0 -5 8 -12 18 -15 23 -8 159 -140 204 -199 31 -41 71 -115 99 -182
39 -96 63 -299 56 -474 -10 -219 -28 -339 -89 -576 -27 -105 -41 -187 -43
-237 -3 -90 -17 -123 -77 -191 -35 -39 -51 -50 -83 -54 -37 -5 -41 -3 -41 18
-1 13 9 38 21 54 44 62 35 58 -32 -14 l-69 -75 -73 -3 -72 -4 16 31 c8 16 19
30 23 30 4 0 16 17 27 37 11 20 29 46 40 57 11 12 28 37 38 57 9 20 24 42 33
50 8 7 25 33 37 58 12 25 26 51 32 56 7 6 34 39 61 75 27 36 51 67 54 70 25
24 100 149 100 165 0 4 -9 -4 -20 -18 -11 -14 -20 -28 -20 -31 0 -4 -5 -12
-10 -19 -6 -7 -31 -39 -56 -72 -60 -79 -62 -81 -57 -51 3 14 9 26 13 26 5 0
12 10 16 23 4 12 27 64 50 115 24 50 44 98 44 105 0 7 4 17 9 22 5 6 12 26 15
45 l7 35 -14 -30 c-8 -16 -24 -50 -35 -75 -35 -78 -82 -173 -123 -245 -21 -38
-47 -86 -56 -105 -10 -19 -22 -38 -26 -41 -9 -7 -30 -41 -46 -75 -5 -11 -15
-27 -23 -35 -7 -8 -37 -50 -67 -94 -96 -143 -187 -242 -273 -297 -65 -42 -226
-128 -240 -128 -4 0 -31 -11 -60 -24 -78 -34 -191 -76 -209 -76 -8 0 -19 -4
-24 -9 -21 -18 -72 -20 -88 -3 -42 47 -86 159 -107 272 -4 25 -15 72 -24 105
-22 81 -32 310 -17 403 6 40 19 91 29 113 16 38 21 41 100 65 46 14 105 27
130 29 25 2 48 8 50 14 7 21 27 11 41 -20 17 -38 27 -30 13 10 -23 64 38 60
116 -8 32 -28 86 -62 125 -79 43 -19 32 -7 -25 27 -29 16 -71 46 -93 65 -22
20 -44 36 -49 36 -6 0 -7 3 0 10 27 27 137 -32 175 -94 10 -17 19 -26 19 -21
0 12 -24 47 -55 83 -27 32 -76 54 -125 55 -34 2 -40 5 -38 22 2 14 12 21 31
23 16 2 37 12 47 22 10 10 37 21 61 25 24 4 49 10 54 14 6 4 29 13 53 21 23 7
47 19 53 27 6 7 16 13 21 13 5 0 21 9 35 20 37 29 21 25 -56 -15 -37 -19 -74
-35 -82 -35 -8 0 -39 -9 -68 -20 -30 -11 -57 -18 -59 -15 -3 3 7 23 22 45 14
22 26 45 26 52 0 6 18 42 40 79 22 37 40 72 40 78 0 6 3 11 8 11 4 0 18 17 32
37 14 20 30 41 35 47 13 15 87 106 105 131 l15 20 -25 -20 c-14 -11 -32 -28
-40 -38 -45 -53 -90 -98 -90 -90 0 10 26 93 39 128 48 121 128 261 179 312 13
13 22 27 18 30 -3 3 -18 -9 -33 -27 -15 -18 -37 -42 -48 -54 -12 -11 -24 -28
-28 -36 -4 -8 -16 -28 -27 -45 -30 -46 -67 -127 -83 -182 -8 -28 -20 -59 -25
-69 -6 -11 -14 -32 -18 -49 -6 -24 -8 -26 -12 -11 -10 44 52 260 100 349 8 16
4 39 -5 26 -50 -76 -92 -211 -114 -359 -9 -64 -24 -126 -33 -140 -9 -14 -36
-65 -60 -114 -24 -48 -50 -90 -57 -93 -7 -3 -13 -11 -13 -19 0 -8 -4 -14 -10
-14 -13 0 -13 3 11 90 11 41 32 118 46 170 24 90 73 242 92 285 5 11 15 36 21
55 26 73 141 297 172 334 51 61 117 126 128 126 5 0 15 9 22 20 7 11 16 20 21
20 4 0 26 12 49 26 62 40 158 67 158 45z m-8502 -23 c-5 -15 -33 -22 -54 -14
-24 9 -6 26 27 26 20 0 29 -4 27 -12z m7582 -13 c0 -8 -13 -21 -30 -30 -29
-15 -30 -15 -30 8 0 30 7 37 37 37 14 0 23 -6 23 -15z m-6960 -25 c0 -5 -6
-10 -14 -10 -8 0 -18 5 -21 10 -3 6 3 10 14 10 12 0 21 -4 21 -10z m7050 -40
c0 -5 -5 -10 -11 -10 -5 0 -7 5 -4 10 3 6 8 10 11 10 2 0 4 -4 4 -10z m-7229
-26 c55 -17 112 -38 139 -53 8 -4 16 -22 18 -38 l3 -30 -50 5 c-44 4 -51 2
-51 -13 0 -10 -8 -27 -17 -38 -15 -16 -17 -35 -15 -106 2 -47 7 -90 12 -95 6
-6 10 -20 10 -32 0 -30 -45 -42 -71 -18 -12 11 -28 15 -47 11 -24 -5 -32 -2
-41 16 -11 21 -11 20 -6 -5 5 -25 3 -28 -24 -28 -16 0 -51 -15 -79 -34 l-50
-33 -46 45 c-27 26 -46 54 -46 67 0 12 -6 35 -14 51 -21 43 -10 203 15 212 23
9 78 79 85 109 6 22 9 23 114 23 71 0 126 -6 161 -16z m-306 -21 c-8 -16 -34
-46 -58 -68 l-44 -40 -6 -89 c-5 -64 -3 -96 7 -115 7 -14 16 -42 20 -62 4 -24
19 -48 46 -72 22 -19 40 -43 40 -51 0 -25 19 -19 70 24 36 30 57 40 82 40 19
0 49 5 66 11 25 9 36 8 54 -5 12 -9 29 -16 36 -16 8 0 21 -9 30 -19 10 -11 27
-22 40 -26 19 -5 22 -3 22 22 0 15 5 35 10 43 14 22 27 -1 35 -64 4 -38 2 -60
-9 -81 -9 -17 -16 -41 -16 -53 0 -13 -9 -35 -20 -49 -11 -14 -20 -35 -20 -46
0 -11 -12 -32 -27 -47 -16 -16 -38 -39 -50 -53 -18 -20 -35 -25 -95 -30 -55
-5 -78 -3 -95 8 -12 8 -28 15 -36 15 -8 0 -34 15 -58 34 -24 18 -56 36 -71 40
-15 3 -30 15 -34 28 -4 12 -17 30 -29 40 -12 9 -25 30 -28 45 -3 16 -16 42
-29 58 -33 42 -36 155 -5 205 19 30 22 50 22 142 0 103 -1 107 -28 132 -91 85
-199 -70 -122 -175 13 -19 32 -49 42 -67 16 -31 16 -33 -5 -60 -12 -15 -30
-41 -39 -59 -9 -18 -30 -37 -46 -44 -26 -11 -35 -10 -77 14 -27 15 -57 27 -68
27 -12 0 -32 15 -46 33 -34 45 -39 146 -9 180 11 12 24 35 27 51 7 30 51 76
72 76 14 0 46 29 60 55 21 37 219 92 341 94 l62 1 -14 -27z m7765 -47 c0 -8
-6 -21 -14 -28 -7 -8 -23 -33 -35 -55 -11 -23 -29 -48 -38 -55 -10 -7 -19 -24
-19 -38 -1 -14 -15 -54 -31 -90 -17 -36 -38 -90 -48 -120 -10 -30 -24 -72 -32
-94 -15 -41 -49 -181 -63 -256 -4 -25 -15 -81 -23 -125 -9 -44 -18 -102 -22
-130 -12 -98 -22 -120 -57 -132 -54 -19 -148 -37 -155 -30 -10 11 17 214 68
506 5 29 13 61 18 70 5 9 14 41 21 71 13 61 56 204 69 235 5 11 20 47 34 80
66 161 64 157 86 131 9 -11 7 -31 -10 -87 -11 -41 -24 -90 -29 -109 -4 -19
-11 -43 -15 -52 -4 -10 -3 -18 1 -18 5 0 17 28 28 63 10 34 24 76 31 92 7 17
18 46 25 66 12 33 21 39 84 63 39 15 82 33 96 41 31 18 30 18 30 1z m-1687
-16 c3 -10 0 -25 -7 -33 -10 -14 -121 -87 -131 -87 -3 0 -29 -25 -58 -55 l-53
-55 70 0 c80 -1 109 -15 104 -52 -3 -22 -7 -23 -64 -20 -80 5 -92 -13 -16 -22
68 -8 102 -28 102 -60 0 -32 -4 -34 -58 -25 -26 4 -49 5 -51 3 -7 -6 8 -17 27
-20 58 -7 83 -18 88 -39 7 -30 -18 -77 -50 -95 -14 -7 -26 -17 -26 -22 0 -4
-7 -8 -15 -8 -24 0 -18 19 10 32 26 12 62 58 46 58 -5 0 -13 -4 -16 -10 -3 -5
-13 -10 -21 -10 -18 0 -33 -14 -60 -55 -22 -35 -66 -86 -112 -130 -30 -29 -88
-55 -123 -55 -8 0 -47 -32 -87 -70 -42 -42 -74 -66 -76 -58 -2 7 -9 38 -16 68
-7 30 -26 87 -42 125 -24 61 -26 71 -13 81 8 6 25 19 38 28 12 9 27 20 33 24
6 4 36 50 67 103 30 53 67 115 81 137 14 23 26 45 26 49 0 13 224 223 237 223
7 0 31 11 54 25 36 23 41 24 55 10 9 -8 21 -15 27 -14 9 0 8 2 0 6 -7 2 -13
13 -13 24 0 26 36 25 43 -1z m1314 -2 c-9 -13 -39 -69 -67 -125 -51 -102 -70
-157 -111 -313 -12 -47 -26 -89 -30 -94 -5 -6 -9 -18 -9 -28 0 -19 -44 -210
-60 -263 -8 -27 -9 -25 -6 15 8 95 31 202 91 425 9 33 28 84 41 114 14 29 23
58 21 64 -2 6 -16 -21 -32 -59 -29 -69 -52 -108 -42 -69 3 11 8 38 12 60 9 59
46 148 70 167 11 9 29 31 39 50 17 30 68 75 90 77 5 1 1 -9 -7 -21z m-2624
-27 l83 -39 21 -73 c12 -41 29 -110 38 -154 10 -44 21 -91 25 -105 16 -47 11
52 -4 106 -8 27 -20 85 -27 129 -6 44 -15 85 -20 90 -5 6 0 16 12 23 18 11 21
9 34 -22 8 -20 15 -39 15 -44 0 -5 9 -38 20 -73 29 -90 58 -201 77 -289 19
-94 32 -242 22 -255 -11 -15 -148 -80 -154 -73 -3 3 -10 39 -15 79 -21 155
-65 366 -89 424 -12 28 -34 106 -36 128 -1 10 -6 22 -11 25 -8 6 -84 148 -84
158 0 8 10 4 93 -35z m-4977 -19 c47 -31 51 -242 4 -242 -5 0 -16 16 -25 35
-9 19 -23 39 -31 46 -8 6 -14 18 -14 25 0 8 -5 14 -11 14 -6 0 -9 17 -7 43 2
33 7 42 21 41 9 -1 17 2 17 7 0 5 4 9 10 9 5 0 7 -7 4 -15 -4 -10 0 -15 11
-15 17 0 17 -1 2 -18 -20 -22 -22 -36 -4 -29 9 3 11 -6 9 -34 -3 -31 -1 -39
12 -39 18 0 22 15 6 25 -6 4 -5 15 2 30 15 33 2 91 -25 110 -14 10 -17 15 -7
15 8 0 20 -4 26 -8z m-46 -6 c0 -3 -4 -8 -10 -11 -5 -3 -10 -1 -10 4 0 6 5 11
10 11 6 0 10 -2 10 -4z m5397 -100 c6 -12 19 -37 28 -56 9 -19 20 -42 25 -51
16 -31 60 -231 60 -274 0 -24 5 -56 10 -71 10 -27 6 -44 -7 -30 -4 3 -13 37
-19 74 -20 103 -41 192 -48 199 -9 9 -7 -68 3 -102 13 -47 23 -217 10 -180 -6
17 -14 62 -19 100 -12 94 -29 193 -40 230 -48 156 -64 201 -71 210 -5 5 -9 18
-9 30 1 16 6 13 33 -19 18 -22 37 -49 44 -60z m-4681 58 c-3 -9 -6 -21 -6 -27
0 -6 -9 -1 -20 11 -26 28 -25 32 6 32 20 0 25 -4 20 -16z m-86 -14 c0 -5 -4
-10 -10 -10 -5 0 -10 5 -10 10 0 6 5 10 10 10 6 0 10 -4 10 -10z m6850 -19 c0
-6 -4 -13 -10 -16 -5 -3 -10 1 -10 9 0 9 5 16 10 16 6 0 10 -4 10 -9z m-6846
-25 c-2 -15 10 -20 44 -19 8 1 12 -18 12 -63 0 -54 -4 -67 -25 -88 -14 -14
-25 -34 -25 -46 0 -24 -15 -26 -28 -3 -6 11 -6 23 1 34 7 11 7 39 0 89 -5 40
-8 84 -5 97 5 26 28 26 26 -1z m6770 -263 c-14 -98 -24 -133 -35 -133 -5 0 -9
-28 -10 -62 0 -35 -4 -81 -8 -103 -7 -35 -8 -29 -15 55 -10 121 16 255 59 307
19 23 21 12 9 -64z m-7712 31 c8 -17 30 -33 58 -44 24 -9 46 -22 48 -28 1 -5
11 -8 21 -5 25 6 37 -12 61 -97 57 -199 78 -316 86 -475 6 -108 -7 -309 -21
-346 -3 -9 -31 -20 -63 -27 -99 -20 -95 -23 -88 61 15 171 18 316 7 397 -22
160 -42 270 -60 320 -5 14 -15 45 -22 70 -7 25 -26 76 -41 114 -15 38 -28 73
-28 77 0 20 30 7 42 -17z m343 -55 c-7 -38 15 -99 35 -99 6 0 10 -10 10 -23 0
-25 24 -65 52 -85 10 -7 18 -18 18 -23 0 -17 23 -35 63 -50 l37 -13 -27 -28
c-35 -36 -21 -50 15 -15 28 27 29 27 45 9 21 -23 21 -34 0 -59 -21 -23 -124
-57 -133 -43 -3 5 -25 16 -48 24 -24 9 -65 34 -93 57 -41 35 -52 52 -65 98 -8
31 -24 86 -36 123 -24 76 -21 93 18 102 29 8 53 32 54 54 0 8 10 22 23 32 21
18 22 18 30 -3 4 -12 5 -38 2 -58z m-389 34 c7 -16 19 -53 28 -83 9 -30 21
-64 25 -75 11 -26 37 -126 51 -195 6 -30 16 -75 21 -100 26 -115 20 -495 -9
-547 -9 -15 -14 -12 -41 17 -23 26 -31 44 -31 72 0 20 -5 49 -10 64 -8 19 -8
37 0 58 16 46 24 197 12 226 -9 21 -11 13 -12 -45 -1 -38 -5 -90 -9 -115 -7
-44 -7 -43 -20 45 -7 50 -19 112 -27 139 -8 26 -14 53 -14 59 0 22 -90 194
-111 213 l-22 19 13 -25 c7 -14 16 -27 19 -30 39 -32 132 -329 131 -415 l-1
-30 -24 30 c-14 17 -25 33 -25 37 0 3 -20 37 -45 75 -25 37 -45 61 -45 52 0
-8 4 -19 9 -25 5 -5 18 -25 28 -44 11 -19 31 -55 45 -80 61 -107 78 -155 80
-216 0 -24 9 -48 21 -61 27 -30 17 -37 -43 -34 -28 1 -67 -3 -88 -9 -62 -18
-150 -64 -163 -85 -12 -19 -11 -19 12 -2 13 9 31 20 39 23 8 4 34 15 57 26 50
23 160 38 149 20 -4 -7 -12 -12 -17 -12 -20 0 -119 -83 -149 -125 -15 -20 -14
-20 8 -1 31 27 35 16 6 -17 -13 -15 -24 -23 -24 -17 0 6 -5 8 -11 4 -8 -5 -8
-9 1 -14 7 -4 9 -13 5 -20 -6 -9 -10 -9 -17 1 -8 11 -9 10 -5 -3 3 -9 0 -19
-7 -21 -7 -3 -16 -14 -18 -25 -9 -33 17 -16 48 31 15 23 37 53 48 66 64 73
102 111 114 111 6 0 12 4 12 10 0 5 24 16 52 25 48 14 54 14 64 0 11 -14 16
-14 55 0 24 8 54 15 66 15 12 0 48 7 80 15 31 8 63 15 69 15 49 0 23 -546 -36
-739 -14 -43 -34 -96 -56 -139 -1 -3 -279 44 -340 58 -73 18 -167 51 -184 65
-8 7 -25 16 -37 19 -12 4 -39 27 -61 52 -55 61 -151 262 -152 317 0 9 -4 17
-8 17 -5 0 -13 24 -19 53 -6 28 -24 115 -41 192 -16 77 -32 178 -36 225 -10
140 -27 165 -22 33 3 -62 3 -113 0 -113 -3 0 -9 10 -14 23 -19 47 -11 -27 9
-84 11 -31 27 -89 36 -130 29 -133 53 -223 74 -284 12 -32 21 -60 21 -61 0 -1
-11 3 -25 9 -14 7 -25 21 -25 32 0 16 -2 17 -9 6 -8 -12 -15 -11 -45 10 -20
13 -39 35 -43 47 -3 13 -14 40 -25 60 l-19 37 6 -42 c3 -24 3 -43 -1 -43 -3 0
-17 14 -32 32 -29 35 -62 119 -62 158 1 37 27 102 44 112 10 6 16 23 16 43 0
19 4 54 10 77 5 24 16 90 25 148 34 225 89 413 159 540 52 95 103 145 203 196
43 23 87 43 98 47 11 3 52 17 90 31 90 33 107 33 121 -1z m7197 -410 c-5 -98
1 -161 27 -303 29 -163 120 -318 196 -335 16 -4 33 -8 37 -9 11 -2 -81 -106
-94 -106 -6 0 -19 -9 -31 -20 -17 -16 -18 -20 -6 -20 8 0 27 9 41 20 28 22 37
25 37 11 0 -5 -20 -21 -44 -35 -64 -37 -147 -37 -204 2 -38 25 -102 101 -102
120 0 5 -7 23 -15 40 -9 17 -25 78 -37 135 l-21 104 20 122 c22 126 70 254 83
217 4 -12 15 2 40 54 29 61 63 110 74 110 2 0 1 -48 -1 -107z m-6847 11 c13
-14 48 -36 78 -50 47 -21 54 -29 59 -59 3 -19 2 -72 -3 -118 -5 -45 -11 -107
-14 -137 l-5 -55 14 55 c14 51 27 123 42 225 6 46 25 65 64 65 15 0 31 5 34
10 11 18 25 10 25 -15 0 -14 -4 -25 -8 -25 -4 0 -8 -8 -9 -17 -7 -91 -51 -295
-65 -301 -4 -2 -8 -17 -8 -32 0 -16 -4 -32 -10 -35 -5 -3 -10 -14 -10 -24 0
-15 -17 -23 -83 -39 -46 -12 -92 -24 -102 -28 -17 -7 -17 -1 -10 99 8 122 9
345 2 367 -3 8 -8 35 -10 60 -3 25 -8 53 -12 63 -10 25 4 21 31 -9z m369 4
c14 -6 25 -15 25 -20 0 -4 3 -7 8 -7 26 4 32 -3 27 -33 -4 -22 -3 -30 4 -23 5
6 12 24 14 40 3 17 3 -4 0 -45 -5 -87 -31 -229 -45 -247 -6 -7 -14 -10 -19 -7
-5 3 -9 -7 -9 -21 0 -47 -46 -129 -80 -142 -19 -7 -32 -8 -36 -2 -3 6 -12 5
-21 -3 -14 -12 -15 -9 -9 27 4 22 16 78 27 125 11 47 27 114 35 150 8 36 19
79 25 96 5 17 9 41 9 55 0 25 10 69 16 69 2 0 15 -5 29 -12z m135 -75 c0 -71
-14 -113 -40 -121 -12 -4 -13 -2 -4 9 6 8 11 43 13 79 2 72 8 100 22 100 5 0
9 -30 9 -67z m280 58 c0 -17 -50 -58 -103 -84 -32 -15 -63 -40 -78 -61 -13
-20 -27 -36 -30 -36 -4 0 -10 -7 -13 -15 -9 -23 16 -7 49 33 15 17 31 32 37
32 5 0 16 7 24 15 9 8 27 18 42 21 15 4 35 13 44 22 12 10 29 13 50 9 18 -3
27 -3 20 0 -15 6 -6 23 14 23 17 0 18 -27 2 -43 -20 -20 -114 -77 -125 -77
-14 0 -125 -111 -118 -118 3 -3 24 12 48 34 47 45 106 78 155 89 17 3 32 11
32 16 0 5 7 9 15 9 16 0 20 -18 7 -36 -4 -5 -42 -36 -85 -68 -43 -31 -80 -63
-83 -71 -3 -8 -14 -17 -25 -20 -22 -7 -26 -35 -5 -35 7 0 19 7 26 15 7 8 20
15 29 15 9 0 39 12 66 25 60 30 65 30 65 6 0 -19 -72 -81 -94 -81 -26 -1 -85
-71 -119 -141 -39 -80 -102 -149 -136 -149 -11 0 -23 -4 -26 -10 -3 -5 -12
-10 -20 -10 -7 0 -31 -16 -54 -36 -52 -47 -91 -68 -96 -51 -2 7 -6 57 -8 112
-3 55 -8 108 -12 117 -5 13 2 21 27 34 36 17 79 89 129 215 12 31 46 87 75
125 30 38 62 79 71 91 10 13 37 31 60 40 24 10 43 21 43 26 0 4 11 7 25 7 14
0 25 -5 25 -11 0 -5 5 -7 12 -3 9 6 9 9 0 12 -21 7 -13 22 13 22 14 0 25 -4
25 -9z m6494 -311 c-4 -14 -6 -29 -5 -34 1 -4 -8 -28 -20 -52 -22 -47 -31 -49
-86 -22 -28 14 -28 23 -2 78 23 48 79 215 79 237 0 7 4 13 9 13 5 0 13 19 18
43 6 32 9 10 11 -98 1 -77 0 -151 -4 -165z m-7020 -287 c23 -239 18 -362 -26
-633 -11 -69 -22 -142 -25 -163 -3 -20 -9 -40 -14 -43 -5 -3 -9 -14 -9 -25 0
-14 -7 -19 -25 -19 -17 0 -25 6 -25 18 -1 16 -1 16 -11 0 -13 -23 -74 -24 -87
-2 -6 11 -11 13 -16 5 -4 -6 -18 -11 -30 -11 l-23 0 22 68 c62 184 80 315 80
595 0 163 3 227 11 227 7 0 25 7 40 15 16 8 40 15 54 15 14 0 34 7 44 15 10 8
22 12 26 10 4 -3 10 -35 14 -72z m6956 -73 l0 -90 -57 0 c-85 0 -92 9 -46 61
21 25 49 62 63 82 14 20 28 37 33 37 4 0 7 -40 7 -90z m-6598 -513 c2 -381 6
-497 16 -509 10 -13 9 -16 -8 -21 -11 -3 -22 -2 -25 3 -5 8 -72 -3 -82 -14 -6
-6 63 -11 105 -7 12 1 22 -3 22 -9 0 -5 -4 -10 -9 -10 -6 0 -13 -19 -16 -42
-3 -24 -2 -431 4 -906 8 -717 12 -868 24 -892 16 -30 13 -40 -11 -40 -8 0 -12
6 -8 15 3 8 1 15 -4 15 -6 0 -10 -4 -10 -10 0 -11 -98 -14 -124 -4 -13 5 -16
27 -16 136 0 215 -32 460 -109 838 -12 58 -26 130 -32 160 -6 30 -14 71 -19
90 -5 19 -11 55 -15 80 -3 25 -21 108 -40 185 -18 77 -36 156 -39 175 -13 77
-51 228 -75 292 -12 32 -21 69 -21 83 0 24 3 25 53 25 48 0 54 3 70 29 9 16
17 36 17 45 0 9 16 37 36 62 88 117 136 280 148 509 4 63 11 112 17 114 6 1
38 25 71 52 34 27 65 49 69 49 5 0 10 -222 11 -493z m-261 249 c-20 -195 -60
-369 -94 -414 -16 -21 -18 -8 -6 49 6 30 15 86 19 124 15 127 18 143 34 176 9
18 16 40 16 50 0 10 4 38 10 61 5 24 13 57 16 73 14 60 16 -6 5 -119z m6826
138 c21 -6 21 -6 2 -25 -10 -10 -16 -25 -12 -34 5 -14 -2 -15 -58 -9 -62 6
-101 26 -85 41 5 5 11 2 13 -4 8 -21 44 -14 65 12 20 25 36 29 75 19z m29 -60
c-3 -7 -1 -16 4 -19 15 -9 12 -25 -4 -25 -14 0 -29 48 -19 63 7 12 25 -4 19
-19z m-6899 -6 c-3 -8 -6 -5 -6 6 -1 11 2 17 5 13 3 -3 4 -12 1 -19z m3968
-37 c50 -6 124 -13 167 -17 64 -5 80 -10 97 -30 27 -31 27 -32 -11 -37 -23 -3
-18 -4 18 -5 35 -1 60 -9 77 -22 14 -12 41 -26 59 -33 l33 -11 -45 -7 c-42 -7
-64 -6 -175 6 -116 12 -179 15 -152 6 59 -20 310 -41 459 -40 85 0 168 -4 188
-10 19 -6 51 -11 72 -11 43 0 68 -8 68 -22 0 -7 -50 -9 -147 -6 -159 5 -173 2
-47 -11 l79 -8 -65 -9 -65 -9 55 -6 c52 -5 51 -6 -30 -9 -149 -6 -321 0 -469
15 -155 16 -187 18 -179 10 3 -3 63 -13 134 -22 180 -23 524 -28 639 -10 50 8
93 13 98 10 4 -2 4 -15 1 -29 -4 -14 -2 -24 5 -24 6 0 11 -4 11 -10 0 -6 -67
-10 -181 -10 -117 0 -178 -3 -174 -10 4 -6 77 -10 185 -10 116 0 181 -4 185
-11 4 -6 5 -12 3 -14 -2 -2 -86 -9 -188 -15 -142 -10 -220 -10 -335 -1 -194
15 -389 39 -440 52 -75 21 -87 28 -83 52 2 14 9 21 18 18 46 -12 59 -9 23 5
-41 15 -43 18 -43 55 0 43 3 44 65 28 88 -22 155 -35 148 -29 -10 10 -63 25
-140 41 -65 14 -75 23 -66 58 5 18 11 21 42 16 27 -4 31 -3 16 4 -11 5 -28 12
-37 15 -13 4 -18 16 -18 44 0 21 -5 43 -12 50 -20 20 7 42 40 32 15 -5 68 -13
117 -19z m4465 -46 c0 -20 -7 -26 -42 -35 -66 -17 -68 -20 -10 -13 l53 6 -3
-39 c-2 -32 -7 -40 -25 -42 -13 -2 -23 -8 -23 -13 0 -5 -10 -9 -22 -9 -13 0
-30 -5 -38 -11 -15 -11 15 -8 83 7 23 5 27 3 27 -15 0 -15 -10 -26 -32 -36
l-33 -14 33 -1 c27 0 32 -4 32 -25 0 -26 -15 -32 -150 -64 l-45 -10 55 5 c30
2 74 7 98 10 35 5 42 3 42 -10 0 -9 -12 -21 -27 -27 -16 -7 -37 -15 -48 -20
-11 -4 -42 -10 -70 -13 -27 -2 -79 -10 -115 -15 -170 -29 -820 -36 -804 -9 3
4 16 8 29 8 13 0 27 5 30 10 3 6 56 11 118 11 143 2 381 15 342 19 -16 2 -58
2 -92 0 -36 -1 -63 2 -63 8 0 6 -30 8 -75 5 -74 -4 -102 8 -48 22 15 3 43 14
64 24 21 10 41 15 46 10 4 -4 40 -4 78 1 39 5 104 9 144 10 75 0 166 10 336
35 81 12 84 13 25 10 -36 -2 -119 -8 -185 -14 -66 -6 -174 -13 -240 -17 l-120
-5 45 29 c30 19 71 33 124 43 97 17 134 38 67 39 l-44 0 39 35 c31 27 48 34
81 35 23 0 45 5 48 10 4 6 -7 10 -24 10 -17 0 -31 4 -31 8 0 18 38 43 66 43
75 0 274 16 280 22 14 14 24 7 24 -18z m-3085 -42 c4 -27 11 -70 16 -98 5 -27
15 -106 23 -175 8 -69 20 -168 26 -220 6 -52 15 -114 20 -138 15 -65 13 -112
-5 -112 -8 0 -23 -4 -33 -9 -51 -26 -71 -33 -88 -29 -17 3 -20 17 -26 123 -9
151 -23 229 -53 280 -22 38 -23 48 -21 213 3 183 5 191 51 192 11 0 27 5 35
10 34 22 49 12 55 -37z m-165 -12 c0 -11 -36 -21 -75 -20 l-30 0 30 14 c35 16
75 19 75 6z m-115 -41 c23 -44 20 -169 -5 -223 -19 -40 -62 -77 -90 -77 -31 0
-79 34 -100 72 -39 70 -29 228 15 228 16 0 20 -16 6 -24 -16 -10 -22 -89 -10
-143 24 -105 122 -126 168 -36 13 26 15 165 2 179 -5 5 -12 19 -16 32 -10 32
12 27 30 -8z m-28 -41 c18 -52 15 -108 -8 -156 -19 -39 -24 -43 -58 -43 -33 0
-40 5 -59 39 -26 46 -27 79 -7 148 13 43 20 52 47 60 42 13 69 -2 85 -48z
m140 -8 c1 -42 -3 -50 -24 -60 -35 -16 -43 -14 -43 13 0 14 10 32 23 41 l22
16 -27 -7 c-25 -5 -28 -3 -28 20 0 23 4 26 38 26 l38 0 1 -49z m-355 4 c-2
-14 -8 -25 -13 -25 -5 0 -8 5 -6 12 1 7 -7 12 -17 13 -36 0 -30 25 7 25 31 0
34 -2 29 -25z m356 -103 c3 -16 -5 -25 -34 -37 -20 -8 -39 -13 -41 -11 -10 10
12 59 31 66 29 12 40 7 44 -18z m1712 -17 c18 -24 18 -72 0 -110 l-19 -40 0
100 c1 55 4 91 6 80 3 -11 9 -24 13 -30z m-1716 -50 c6 -17 -15 -31 -66 -40
-34 -6 -36 -5 -31 14 3 13 18 25 37 30 45 13 53 13 60 -4z m-6613 -43 c12 -14
12 -21 2 -42 -23 -44 -15 -56 17 -25 26 25 31 26 47 14 42 -33 42 -34 30 -77
-7 -22 -16 -44 -20 -48 -4 -4 -7 -15 -7 -24 0 -10 -11 -43 -25 -75 -14 -32
-24 -63 -22 -69 3 -6 8 -2 12 9 4 11 13 34 20 50 8 17 22 52 31 78 9 26 20 43
24 37 4 -6 12 1 20 17 8 16 15 30 17 32 2 3 111 -48 129 -61 11 -8 -1 -61 -25
-106 -9 -16 -17 -45 -41 -142 -5 -19 -15 -62 -24 -95 -8 -33 -15 -69 -15 -80
0 -31 35 72 48 145 7 35 19 76 27 90 l15 25 -6 -25 c-5 -26 -3 -22 52 101 l25
57 41 -13 c23 -7 64 -22 90 -32 l49 -18 -7 -58 c-3 -32 -7 -64 -9 -70 -1 -7 2
-2 8 11 5 12 13 22 18 22 4 0 8 15 8 34 0 40 11 50 46 42 27 -7 31 -32 13
-100 -34 -133 -43 -162 -51 -170 -4 -6 -8 -19 -8 -30 0 -25 -25 -112 -61 -206
-15 -41 -30 -86 -34 -100 -3 -14 -10 -34 -15 -45 -43 -104 -90 -226 -90 -234
0 -6 -16 -45 -35 -87 -19 -41 -35 -80 -35 -85 0 -5 -4 -17 -9 -27 -6 -9 -25
-50 -43 -91 -41 -93 -254 -517 -273 -543 -12 -19 -16 -12 -44 78 -76 249 -132
484 -180 764 -50 285 -55 345 -35 415 9 33 20 76 24 95 4 19 17 62 28 95 11
33 27 85 36 115 9 30 21 64 25 75 18 41 43 101 50 120 8 20 70 154 99 213 9
17 20 32 24 32 5 0 8 7 8 15 0 20 12 19 31 -3z m5289 -9 c0 -24 1 -25 18 -10
25 22 97 12 86 -12 -4 -9 -9 -34 -10 -56 l-4 -40 25 54 c22 46 29 52 48 47 12
-3 39 -6 60 -6 l38 0 -4 -62 c-2 -35 -13 -126 -26 -203 -35 -220 -41 -271 -40
-333 1 -52 2 -54 9 -22 5 19 16 105 25 190 9 85 28 201 41 256 13 56 24 113
24 127 0 14 3 28 8 31 4 2 41 1 82 -2 l75 -7 -4 -59 c-2 -42 0 -56 8 -51 9 5
10 -26 5 -116 -5 -91 -4 -120 4 -115 8 5 12 43 12 110 0 56 3 106 7 110 4 3 7
19 8 34 1 15 2 42 3 60 l2 33 108 -3 107 -3 7 -73 c3 -40 8 -76 11 -79 3 -2 9
32 13 77 l7 81 31 -4 31 -3 7 -85 c21 -258 28 -680 23 -1364 -4 -407 -8 -807
-10 -890 -2 -82 -6 -418 -9 -745 -6 -649 -13 -948 -22 -1082 -7 -83 -8 -87
-33 -93 -48 -13 -184 -26 -385 -37 -199 -11 -399 -3 -516 21 -25 5 -70 14
-100 20 -30 6 -70 22 -90 35 -19 13 -57 27 -85 31 -27 4 -65 13 -84 21 -18 8
-47 14 -64 14 -17 0 -50 12 -75 26 l-44 26 6 87 c4 47 11 124 17 171 5 47 19
177 30 290 36 357 49 464 114 955 39 294 42 318 60 455 9 69 20 154 25 190 5
36 16 117 24 180 8 63 22 167 31 230 9 63 21 147 26 185 5 39 13 99 19 135 6
36 15 103 20 150 6 47 14 105 20 130 5 25 12 63 14 85 3 22 7 49 10 60 3 11
12 63 21 115 19 114 27 156 60 320 36 178 69 289 106 362 5 10 9 23 9 30 0 16
30 48 47 48 7 0 13 -11 13 -27z m4585 -56 c43 -83 119 -344 146 -497 6 -36 15
-87 20 -115 15 -88 49 -323 70 -490 5 -44 14 -114 19 -155 15 -108 39 -329 50
-440 27 -297 41 -428 55 -535 9 -66 20 -165 25 -220 5 -55 16 -165 25 -245 16
-146 30 -293 40 -405 3 -33 10 -100 15 -150 20 -171 40 -385 59 -630 5 -66 12
-143 16 -170 6 -41 4 -54 -9 -64 -19 -16 -97 -37 -206 -56 -85 -15 -105 -22
-140 -45 -105 -71 -541 -112 -840 -80 -151 17 -272 31 -309 36 l-34 6 6 616
c4 339 9 862 12 1162 3 300 11 662 18 805 7 143 11 361 9 485 -2 124 2 338 8
475 6 138 13 304 15 370 7 182 16 300 24 314 5 8 24 11 51 9 l43 -3 1 -50 c1
-27 3 -93 5 -145 l4 -95 9 96 c5 52 14 117 21 145 l12 49 111 3 111 3 7 -71
c9 -87 26 -83 26 6 0 63 0 64 28 64 26 0 29 -4 39 -57 34 -176 40 -215 62
-431 5 -46 12 -86 16 -90 18 -17 -14 302 -44 448 -6 25 -13 63 -16 85 l-6 41
46 12 c59 16 130 15 143 0 5 -7 18 -40 27 -73 26 -90 28 -93 33 -66 2 13 -1
28 -7 34 -6 6 -11 22 -11 36 0 30 11 21 27 -22 10 -29 12 -30 12 -7 1 13 -6
44 -15 67 -9 24 -15 45 -13 48 3 2 26 10 52 17 47 12 48 12 73 -17 l25 -30 -5
26 c-11 50 13 48 39 -4z m-3478 -64 c7 -32 17 -98 23 -148 6 -49 14 -92 17
-95 3 -3 2 65 -2 151 -6 137 -5 157 9 162 21 8 24 1 36 -94 23 -183 30 -253
49 -484 11 -132 23 -267 26 -300 4 -33 10 -136 14 -230 5 -93 13 -264 19 -380
7 -115 17 -334 23 -485 5 -151 15 -318 20 -370 11 -99 26 -858 21 -1015 -3
-79 4 -326 23 -876 l6 -156 -38 -16 c-69 -30 -117 -38 -193 -35 l-75 3 -7 50
c-3 28 -7 700 -8 1495 -1 1375 -11 2407 -26 2754 l-7 158 29 -15 c25 -13 32
-25 41 -74z m2328 10 c-13 -87 -37 -497 -45 -743 -5 -146 -13 -395 -19 -555
-5 -159 -13 -405 -16 -545 -4 -140 -10 -322 -15 -405 -5 -82 -14 -546 -19
-1030 -6 -484 -13 -931 -17 -993 l-6 -113 -82 4 c-86 5 -145 15 -161 27 -5 4
-23 10 -38 14 -16 4 -37 15 -47 24 -18 16 -18 27 -10 142 6 69 14 238 20 375
17 416 29 667 35 720 5 51 21 337 30 545 6 136 30 505 45 675 5 66 12 163 15
215 5 102 29 401 45 565 5 55 14 150 20 210 18 202 54 506 94 795 12 82 13 85
40 88 28 4 28 3 22 -45 -3 -26 -8 -84 -11 -128 -8 -118 11 -72 25 61 12 106
14 111 39 121 52 21 62 17 56 -24z m-7850 -197 c32 -28 55 -27 89 3 24 21 46
65 46 91 0 11 5 20 10 20 12 0 12 -6 0 -50 -20 -71 -72 -108 -136 -96 -42 8
-67 52 -66 113 1 70 16 75 22 6 4 -53 9 -65 35 -87z m96 117 c25 -5 28 -9 23
-32 -10 -46 -13 -51 -45 -70 -29 -18 -35 -18 -59 -6 -30 15 -40 34 -39 68 0
21 1 21 9 2 7 -17 9 -18 9 -2 2 34 24 58 50 52 13 -3 36 -9 52 -12z m-317
-110 c9 -9 14 -10 56 -12 27 -1 29 -3 25 -33 l-5 -33 11 28 c6 16 18 27 30 27
10 0 19 -1 19 -3 0 -2 -22 -100 -44 -197 -9 -36 -25 -96 -36 -135 -35 -113
-51 -168 -60 -200 -4 -16 -20 -64 -34 -105 -15 -41 -40 -113 -56 -160 -16 -47
-45 -125 -65 -175 -19 -49 -35 -94 -35 -98 0 -8 -42 -106 -61 -139 -5 -10 -9
-23 -9 -29 0 -6 -17 -48 -39 -93 -21 -44 -44 -98 -52 -118 -7 -21 -17 -38 -21
-38 -4 0 -8 -5 -8 -12 0 -11 -15 -44 -102 -223 -48 -97 -109 -210 -128 -235
l-19 -25 -10 28 c-6 16 -9 33 -5 38 3 5 1 9 -5 9 -18 0 -64 158 -57 196 4 19
10 34 14 34 4 0 13 12 20 28 6 15 32 63 56 107 51 92 86 164 86 176 0 5 5 9
10 9 6 0 10 5 10 10 0 6 16 44 35 84 19 41 35 79 35 85 0 6 5 11 10 11 6 0 10
6 10 13 1 6 9 30 20 52 11 22 19 43 20 47 0 4 13 37 30 72 16 36 32 78 36 93
4 15 10 33 14 38 4 6 19 44 34 85 15 41 31 84 36 95 43 108 110 312 110 335 0
9 4 20 8 26 8 8 22 57 53 174 8 32 17 70 33 143 6 27 16 34 30 20z m515 -43
c10 -22 25 -64 32 -92 7 -29 16 -57 21 -62 4 -6 8 -21 8 -35 0 -36 -15 -16
-33 44 -9 28 -25 75 -36 105 -32 84 -27 111 8 40z m-86 3 c16 -60 27 -119 37
-198 7 -49 16 -103 21 -120 14 -54 -8 179 -27 285 -6 31 -5 33 8 19 8 -8 21
-33 28 -54 7 -22 16 -47 20 -56 5 -9 14 -36 20 -60 7 -24 17 -57 24 -74 13
-29 20 -56 52 -180 8 -33 19 -67 23 -75 5 -9 12 -40 16 -70 4 -30 11 -61 15
-70 9 -15 43 -164 60 -257 6 -29 14 -74 20 -100 15 -74 41 -222 51 -283 52
-345 51 -320 44 -750 -3 -223 -8 -436 -10 -475 -3 -38 -10 -153 -17 -255 -21
-347 -19 -332 -53 -344 -17 -5 -133 -10 -260 -10 -126 -1 -236 -5 -243 -9 -6
-5 -54 -12 -105 -17 -50 -6 -108 -12 -128 -15 l-36 -6 -60 93 c-162 252 -341
589 -460 868 -86 201 -88 207 -71 227 14 16 32 51 141 265 37 74 67 138 67
143 0 4 6 16 13 24 8 9 24 41 36 71 13 30 36 83 52 116 16 34 29 69 29 77 0 9
5 19 10 22 6 3 10 13 10 22 0 9 6 24 13 32 8 9 29 59 47 111 18 52 36 100 40
105 4 6 22 53 39 105 59 173 77 187 36 28 -15 -56 -31 -120 -36 -140 -5 -21
-13 -55 -19 -75 -5 -21 -16 -67 -24 -103 -19 -85 -26 -111 -36 -135 -4 -11
-16 -47 -25 -80 -9 -33 -20 -71 -25 -85 -4 -14 -13 -45 -20 -70 -7 -25 -23
-76 -35 -115 -60 -187 -75 -235 -75 -249 0 -8 -3 -16 -7 -18 -5 -1 -30 -66
-56 -143 -59 -172 -65 -192 -37 -135 35 71 33 66 91 230 6 19 16 44 20 55 5
11 16 45 25 75 9 30 24 80 34 110 38 115 68 216 75 250 4 19 11 41 15 50 5 8
14 35 20 60 7 25 16 56 20 70 5 14 16 59 25 100 9 41 23 95 31 120 8 25 21 77
30 115 8 39 20 88 25 110 5 22 20 92 33 155 14 63 29 131 35 150 6 19 17 60
26 90 26 87 66 242 71 275 3 17 9 39 14 50 5 11 14 45 20 75 18 86 18 85 38
66 10 -9 24 -16 32 -16 10 0 11 -25 5 -121 -5 -87 -4 -119 4 -115 6 4 11 26
12 49 0 23 6 74 13 112 11 63 15 70 37 73 13 2 30 9 38 15 24 20 2 -439 -35
-738 -21 -170 -27 -241 -20 -234 19 18 86 691 86 857 0 66 12 96 23 55 3 -10
5 6 6 35 1 44 4 52 20 52 11 0 22 -8 24 -17z m-66 -35 c-3 -7 -5 -2 -5 12 0
14 2 19 5 13 2 -7 2 -19 0 -25z m5823 -415 c0 -40 26 -189 36 -204 10 -16 7
-139 -4 -152 -5 -6 -13 -34 -16 -62 -8 -54 -42 -135 -57 -135 -14 0 -11 98 4
103 9 4 9 8 -3 16 -11 8 -12 14 -2 33 6 13 13 70 15 128 3 93 2 101 -9 75 -7
-16 -14 -43 -14 -60 l-2 -30 -9 30 c-5 17 -12 83 -15 147 l-7 118 34 14 c48
21 49 20 49 -21z m-5115 -1544 c5 -5 22 -9 37 -9 30 0 35 -9 16 -29 -17 -17
-12 -1772 5 -1783 6 -4 9 -10 5 -13 -10 -10 -48 14 -48 31 0 31 -91 143 -141
173 -27 17 -54 31 -60 31 -23 0 -105 53 -131 85 l-28 33 28 10 c15 6 40 13 56
17 16 3 30 14 33 25 3 11 9 20 13 20 24 0 42 236 61 780 5 173 14 371 19 440
5 69 10 143 10 166 l0 41 58 -5 c31 -2 61 -8 67 -13z m5144 -969 c18 -169 40
-462 47 -638 l7 -163 -24 -6 c-13 -4 -26 -7 -28 -7 -1 -1 -5 78 -6 174 -2 96
-9 263 -14 370 -6 107 -10 321 -9 475 l1 280 8 -190 c4 -104 12 -237 18 -295z
m1101 278 c0 -13 -5 -143 -12 -290 -11 -256 -13 -267 -32 -272 -12 -2 -57 -10
-101 -16 -44 -6 -109 -15 -145 -20 -36 -6 -109 -17 -164 -25 -54 -9 -100 -14
-103 -11 -2 2 -7 137 -10 300 -6 277 -5 296 11 296 27 0 299 30 406 45 142 19
150 19 150 -7z m-589 -148 c4 -58 7 -191 8 -296 l1 -191 -112 -16 c-62 -9
-129 -19 -148 -22 -19 -3 -56 -8 -82 -11 l-46 -6 -6 53 c-3 30 -8 101 -11 158
-3 56 -10 126 -15 155 -4 28 -11 92 -14 142 l-6 91 107 13 c60 7 145 16 190
19 45 3 85 10 89 14 5 4 15 6 24 5 12 -3 16 -25 21 -108z m-6818 -279 c45 -67
87 -144 87 -158 0 -4 -22 27 -50 69 -27 42 -50 81 -50 86 0 6 -4 12 -8 14 -4
2 -19 21 -32 43 -39 65 4 22 53 -54z m875 -73 c-4 -29 -9 -76 -9 -105 -1 -29
-7 -57 -14 -63 -25 -21 -121 -29 -370 -32 -229 -3 -257 -1 -266 14 -6 11 -4
18 6 22 8 3 15 11 15 17 0 8 -4 8 -15 -1 -20 -16 -28 -9 -85 74 l-49 73 97 6
c87 6 156 20 204 41 9 4 40 3 68 -3 69 -15 325 -13 375 3 22 7 43 11 46 10 3
-2 2 -27 -3 -56z m6512 -105 c0 -21 -25 -352 -40 -528 -5 -66 -12 -137 -16
-158 -13 -82 56 -157 194 -208 34 -13 61 -28 59 -34 -4 -12 -90 -47 -172 -71
-155 -45 -199 -84 -249 -217 -16 -42 -17 -54 -5 -94 12 -45 52 -93 77 -93 7 0
20 -4 30 -9 35 -20 203 -44 255 -37 123 15 276 36 327 45 30 5 105 7 165 4 75
-4 144 0 218 11 59 9 109 16 111 16 5 0 -19 -89 -27 -96 -4 -4 -7 -41 -7 -81
0 -69 2 -77 29 -103 16 -16 49 -34 75 -41 25 -6 46 -14 46 -18 0 -4 -46 -34
-102 -68 -792 -472 -1668 -754 -2613 -838 -266 -24 -901 -24 -1057 0 -13 2
-57 6 -98 9 -95 8 -261 31 -415 57 -1244 209 -2411 812 -3295 1703 l-135 136
75 0 c71 0 149 12 250 40 61 16 110 54 110 86 0 29 23 32 72 9 39 -18 231 -65
264 -65 13 0 25 -4 28 -9 3 -5 20 -12 38 -15 48 -10 61 -13 78 -19 8 -3 38
-10 65 -17 57 -13 97 -23 177 -45 70 -19 145 -19 274 -1 54 8 137 19 184 25
47 5 155 19 240 30 85 11 214 27 285 35 72 9 148 18 170 21 211 27 288 37 400
54 72 11 189 27 260 36 72 9 149 18 173 22 l42 6 0 -159 c0 -190 5 -204 96
-248 61 -30 92 -40 182 -59 40 -8 58 -18 73 -39 22 -30 60 -51 124 -67 l40
-11 -3 -77 c-3 -43 -8 -85 -12 -93 -10 -19 -12 -152 -2 -165 7 -10 22 -18 97
-52 43 -19 237 -131 245 -142 10 -12 85 -57 115 -69 155 -59 438 -56 581 7 71
32 83 53 84 144 0 45 -4 77 -10 77 -5 0 -10 10 -10 23 0 27 -24 64 -59 92 -14
11 -41 35 -59 53 -19 18 -55 49 -80 70 -26 20 -61 51 -80 68 l-34 32 49 10
c41 10 181 32 197 32 11 0 6 -38 -5 -42 -13 -4 -28 -70 -29 -121 0 -46 19 -69
81 -95 91 -39 193 -55 308 -48 143 9 158 8 216 -8 58 -17 190 -40 326 -57 109
-14 226 -1 290 31 45 24 89 80 89 116 0 46 -31 157 -53 188 -20 28 -146 116
-166 116 -6 0 -44 15 -84 34 -39 18 -87 39 -104 46 -18 7 -33 16 -33 19 0 4
26 18 58 31 75 31 102 49 111 74 5 12 4 91 -1 176 -7 128 -25 521 -23 527 0 1
95 13 210 28 116 15 253 33 305 41 52 8 131 19 175 25 44 5 96 13 115 18 19 5
59 9 88 10 43 1 52 -2 52 -16z m-6835 -132 l70 -6 -45 -23 c-58 -30 -150 -128
-150 -159 0 -26 -20 -12 -60 42 -34 46 -40 62 -40 103 0 27 3 52 8 56 4 5 39
5 77 1 39 -4 102 -10 140 -14z m-261 -16 c-4 -8 -10 -12 -15 -9 -14 8 -10 24
6 24 9 0 12 -6 9 -15z m371 -25 c-3 -5 -17 -10 -31 -10 -48 0 -128 -70 -166
-148 -12 -23 -26 -38 -30 -34 -10 10 0 42 13 42 5 0 9 7 9 15 0 16 23 48 54
74 10 9 24 21 31 28 31 29 135 58 120 33z m28 -32 c12 -6 27 -17 35 -24 7 -7
40 -34 73 -60 l60 -48 -28 -11 c-47 -20 -91 -64 -118 -117 -14 -27 -25 -56
-25 -64 0 -16 -32 -19 -58 -5 -9 5 -31 15 -49 21 -26 10 -92 75 -116 117 -8
13 31 89 66 130 27 31 71 55 135 72 2 1 13 -4 25 -11z m227 -158 c0 -5 -12
-10 -27 -10 -72 -1 -161 -96 -163 -172 0 -10 -5 -18 -11 -18 -15 0 -1 77 20
110 34 53 103 96 159 99 12 0 22 -3 22 -9z m74 -39 c36 -14 44 -33 9 -25 -26
6 -26 5 10 -20 40 -28 52 -32 42 -16 -3 6 -2 10 4 10 16 0 22 -18 9 -24 -10
-3 -8 -9 4 -19 10 -8 15 -17 11 -20 -11 -12 -43 -8 -43 5 0 20 -42 58 -64 57
l-21 0 21 -10 c29 -15 58 -65 42 -75 -6 -4 -13 -3 -15 2 -13 38 -32 59 -58 65
-60 15 -110 37 -110 51 0 15 80 39 112 32 12 -2 33 -8 47 -13z m-115 -64 c8
-7 30 -17 49 -22 46 -13 63 -39 40 -62 -19 -18 -49 -20 -150 -8 -78 9 -83 18
-47 80 21 34 24 36 58 30 20 -4 42 -12 50 -18z m216 -77 c-3 -5 -12 -10 -18
-10 -7 0 -6 4 3 10 19 12 23 12 15 0z m5 -34 c-49 -47 -225 -67 -359 -41 -89
17 -152 44 -105 45 11 0 24 -3 28 -7 12 -12 163 -32 236 -32 44 0 86 8 130 24
77 28 89 30 70 11z m-255 -6 c4 -6 -5 -10 -20 -10 -15 0 -24 4 -20 10 3 6 12
10 20 10 8 0 17 -4 20 -10z m3602 -96 c-3 -3 -12 -4 -19 -1 -8 3 -5 6 6 6 11
1 17 -2 13 -5z m1728 -264 c43 -33 93 -68 112 -76 37 -18 41 -30 15 -53 -21
-20 -46 -78 -63 -148 -10 -41 -17 -53 -31 -53 -28 0 -111 21 -124 32 -14 10
-173 30 -185 22 -23 -14 6 152 31 176 3 3 11 17 18 31 28 54 111 129 142 129
3 0 41 -27 85 -60z m1730 9 c22 -21 54 -65 70 -96 17 -32 33 -60 36 -63 7 -5
31 -111 27 -115 -2 -2 -43 -8 -91 -14 -49 -7 -96 -16 -105 -21 -23 -12 -105
-30 -136 -30 -22 0 -26 5 -26 29 0 17 -4 33 -10 36 -5 3 -10 17 -10 31 0 24
-43 102 -63 115 -13 9 0 29 19 29 8 0 14 5 14 10 0 6 5 10 11 10 6 0 25 11 43
25 18 14 36 25 39 25 7 0 51 35 76 61 23 24 59 13 106 -32z m-1895 37 c0 -3
-15 -21 -34 -41 -54 -56 -99 -161 -112 -258 -4 -26 -10 -47 -15 -47 -42 0 17
208 78 277 10 12 28 33 38 47 17 22 45 36 45 22z m1965 -57 c17 -22 35 -45 41
-52 25 -28 56 -115 61 -169 8 -77 -10 -75 -25 2 -13 72 -70 193 -112 237 -16
18 -30 34 -30 38 0 12 37 -20 65 -56z m55 26 c0 -40 13 -50 85 -60 63 -9 86
-21 79 -40 -4 -8 -1 -15 5 -15 7 0 14 7 17 15 4 8 13 15 22 15 13 0 12 -4 -5
-22 -24 -27 -55 -87 -72 -140 -20 -60 -54 -49 -65 20 -8 56 -55 156 -95 206
-39 48 -39 56 -1 56 28 0 30 -3 30 -35z m-2090 17 c0 -4 -10 -18 -23 -32 -13
-14 -26 -32 -30 -40 -4 -8 -11 -22 -16 -30 -22 -37 -39 -90 -56 -172 -8 -39
-31 -35 -46 9 -15 47 -48 103 -73 126 -10 9 -16 20 -13 24 4 3 15 -1 25 -10
23 -21 33 -22 26 -3 -4 10 6 20 30 30 30 12 38 22 48 60 l12 46 58 0 c32 0 58
-3 58 -8z m2414 -118 c9 -3 16 -17 16 -31 0 -13 5 -33 10 -43 13 -25 -1 -62
-33 -82 -13 -9 -56 -20 -95 -24 -72 -7 -72 -6 -72 18 0 13 12 47 26 75 35 72
95 107 148 87z m-2669 -41 c34 -36 75 -110 75 -136 0 -11 -13 -13 -52 -10
-138 10 -153 24 -142 122 l7 61 38 0 c32 0 45 -7 74 -37z m-952 10 c48 -3 87
-9 87 -12 0 -4 -13 -15 -30 -24 -40 -24 -114 -122 -133 -177 -9 -25 -21 -44
-28 -42 -7 2 -9 -3 -6 -13 9 -21 -11 -19 -50 5 -39 24 -48 63 -30 139 l13 55
19 -45 c13 -30 20 -38 22 -26 3 9 -5 37 -16 60 -23 48 -26 73 -11 82 6 4 10
-7 10 -24 0 -17 4 -31 8 -31 5 0 16 -15 25 -32 l16 -33 -6 35 c-3 19 -10 43
-14 52 -17 32 -11 51 14 44 12 -4 61 -10 110 -13z m1625 -22 c-35 -38 -58 -78
-58 -100 0 -11 -4 -23 -10 -26 -5 -3 -10 -24 -10 -46 0 -28 -4 -39 -15 -39
-38 0 9 168 62 217 41 39 66 34 31 -6z m2898 -46 l-60 -54 -31 33 c-17 18 -42
39 -55 46 -21 11 -22 13 -6 22 24 14 189 26 201 15 6 -6 -12 -29 -49 -62z
m-1643 19 c30 -49 54 -142 44 -168 -10 -25 -27 -19 -27 9 0 13 -4 34 -9 47
-35 90 -47 116 -65 136 l-19 22 24 0 c18 0 31 -12 52 -46z m-2708 26 c-4 -6
-21 -16 -39 -24 -39 -16 -127 -99 -149 -141 -23 -45 -47 -113 -47 -135 0 -11
-4 -20 -10 -20 -5 0 -10 13 -10 28 0 36 29 122 41 122 5 0 9 7 9 15 0 42 144
164 193 165 10 0 15 -5 12 -10z m241 -97 l92 -98 -47 -12 c-25 -7 -56 -12 -69
-13 -12 0 -30 -4 -40 -9 -9 -5 -38 -19 -64 -31 -60 -27 -144 -102 -152 -135
l-6 -25 -43 26 c-23 15 -44 30 -47 34 -3 3 -20 15 -37 25 -26 15 -33 26 -33
51 0 35 24 100 45 121 8 7 22 26 31 42 20 33 105 88 152 97 18 4 35 11 38 15
3 5 24 9 47 9 40 0 46 -4 133 -97z m1294 80 c3 -3 5 -10 5 -16 0 -7 16 -12 40
-11 22 1 34 -1 27 -3 -10 -4 -8 -9 5 -19 17 -12 16 -13 -12 -14 -16 0 -43 7
-59 15 -15 8 -39 15 -52 15 -28 0 -40 16 -24 35 11 13 54 12 70 -2z m1095 -8
c0 -13 -10 -22 -30 -26 -16 -4 -50 -13 -74 -19 -47 -11 -77 -7 -66 10 3 5 16
10 29 10 12 0 27 5 33 11 13 13 85 39 98 35 6 -1 10 -11 10 -21z m1479 -14
c67 -32 136 -95 120 -110 -5 -6 -49 -41 -97 -79 l-88 -69 -78 38 c-78 39 -174
69 -221 69 -24 1 -24 1 -5 12 11 6 57 49 103 96 l83 85 61 -7 c35 -3 87 -18
122 -35z m39 27 c24 -14 95 -66 114 -84 8 -8 9 -14 1 -22 -8 -8 -21 0 -47 26
-39 39 -62 56 -98 72 -13 5 -23 12 -23 15 0 9 30 5 53 -7z m-478 -38 c20 0 35
-4 33 -9 -5 -13 -98 -91 -109 -91 -8 0 -7 86 0 118 1 1 10 -2 20 -8 11 -5 36
-10 56 -10z m-2197 -9 c34 -17 118 -41 145 -41 38 0 34 -20 -5 -21 -32 -2 -32
-2 -5 -6 16 -3 34 1 42 7 9 7 15 7 19 1 11 -17 -5 -61 -25 -72 -19 -10 -237
-5 -247 6 -5 5 16 91 30 118 10 19 20 21 46 8z m1214 -61 c9 -36 17 -65 18
-66 0 -1 -52 -4 -115 -8 -138 -7 -175 4 -175 54 0 29 13 40 25 20 3 -5 20 -10
36 -10 22 0 32 6 39 25 6 15 17 25 29 25 10 0 34 7 52 15 59 25 72 18 91 -55z
m-188 9 c-7 -12 -54 -12 -54 0 0 11 30 19 47 13 7 -2 10 -8 7 -13z m-104 -35
c0 -9 -5 -14 -12 -12 -18 6 -21 28 -4 28 9 0 16 -7 16 -16z m-690 -4 c0 -5 -2
-10 -4 -10 -3 0 -8 5 -11 10 -3 6 -1 10 4 10 6 0 11 -4 11 -10z m1790 0 c0
-20 -72 -39 -182 -48 -62 -5 -117 -6 -123 -2 -12 9 -145 -5 -200 -21 -250 -69
-645 -61 -645 13 0 7 4 7 13 1 33 -26 117 -38 267 -37 128 1 177 6 279 27 68
15 140 27 160 27 21 0 41 4 47 9 5 6 74 12 154 14 80 2 161 9 180 14 47 14 50
15 50 3z m-2822 -9 c10 -5 105 -15 212 -21 183 -11 235 -17 335 -42 64 -15
111 -19 270 -21 123 -2 158 1 193 16 52 21 58 21 42 2 -40 -48 -260 -60 -460
-25 -232 41 -297 49 -351 43 -95 -9 -279 22 -279 49 0 11 17 10 38 -1z m1048
-26 c-11 -8 -27 -15 -35 -15 -11 0 -10 4 5 15 10 8 26 14 34 14 11 0 10 -3 -4
-14z m669 3 c14 -6 25 -15 25 -20 0 -12 -6 -10 -42 12 -36 22 -25 27 17 8z
m-1242 -5 c-7 -2 -19 -2 -25 0 -7 3 -2 5 12 5 14 0 19 -2 13 -5z m1527 -33
c-36 -12 -110 -12 -110 0 0 6 29 10 68 9 49 -1 60 -3 42 -9z m1207 -21 c68
-24 92 -36 115 -57 34 -29 6 -31 -41 -2 -27 17 -55 30 -63 30 -8 0 -18 4 -23
9 -12 11 -126 31 -181 32 -32 0 -35 2 -19 10 29 13 145 1 212 -22z m-4237 -24
c0 -3 -9 0 -20 7 -11 7 -20 19 -20 27 0 11 6 9 20 -7 11 -12 20 -24 20 -27z
m746 30 c17 -13 11 -14 -68 -15 -48 0 -89 -4 -92 -9 -4 -5 -24 -12 -46 -16
-22 -4 -50 -15 -64 -26 -13 -10 -28 -19 -33 -19 -19 -1 -75 -64 -87 -97 -7
-20 -19 -39 -26 -41 -9 -3 -11 1 -5 14 4 11 10 29 12 41 7 28 47 72 100 106
24 15 45 27 47 27 3 0 17 5 33 12 91 38 195 49 229 23z m1132 8 c-10 -2 -28
-2 -40 0 -13 2 -5 4 17 4 22 1 32 -1 23 -4z m2362 -65 c46 -19 85 -39 86 -44
4 -12 -87 -84 -104 -84 -8 0 -22 -10 -33 -22 -10 -13 -18 -18 -19 -11 0 6 7
18 15 27 8 8 15 18 15 23 0 4 11 20 25 35 40 43 29 46 -14 4 -22 -22 -45 -52
-51 -67 -13 -29 -46 -47 -60 -32 -16 16 3 64 41 106 22 22 39 42 39 44 0 19
-84 -67 -105 -107 -11 -21 -23 -30 -40 -30 -35 0 -39 15 -13 62 21 38 32 51
76 88 19 17 15 32 -5 21 -38 -20 -81 -68 -94 -103 -13 -37 -15 -38 -61 -38
-49 0 -68 16 -68 55 0 14 7 16 38 10 31 -5 41 -2 57 15 19 21 19 21 -3 26 -20
6 -20 7 -4 24 34 34 56 41 127 36 50 -3 95 -14 155 -38z m-3439 -1 c21 -25 24
-37 9 -37 -5 0 -10 -3 -10 -8 0 -4 15 -7 33 -7 20 0 31 -5 30 -12 -2 -7 3 -13
11 -13 20 0 30 -38 16 -55 -7 -9 -30 -15 -51 -15 -36 0 -40 3 -60 45 -21 44
-94 114 -106 101 -6 -5 36 -45 49 -46 3 0 19 -25 33 -56 22 -46 24 -58 13 -65
-26 -17 -47 -9 -63 25 -19 39 -80 106 -97 106 -10 0 20 -40 49 -65 19 -16 35
-67 24 -78 -16 -16 -46 -2 -62 30 -18 36 -76 99 -84 92 -3 -3 4 -15 16 -27 31
-34 50 -87 37 -100 -19 -19 -27 -14 -63 42 -19 29 -41 56 -50 59 -18 8 -20 -9
-2 -20 8 -4 22 -20 31 -35 17 -26 17 -27 -4 -38 -17 -9 -25 -8 -38 3 -9 9 -34
18 -54 22 -21 4 -38 9 -38 12 0 3 12 22 27 43 73 101 346 167 404 97z m-821
13 c0 -5 7 -10 15 -10 8 0 15 -4 15 -10 0 -5 6 -10 13 -10 7 0 29 -9 50 -20
20 -11 42 -20 48 -20 6 0 29 -16 52 -35 22 -19 47 -35 54 -35 7 0 13 -4 13
-10 0 -12 67 -47 129 -67 74 -23 351 -30 432 -9 93 23 113 19 49 -11 -52 -24
-64 -26 -235 -27 -166 -1 -185 1 -240 22 -57 22 -164 78 -175 91 -12 15 -80
61 -89 61 -6 0 -11 5 -11 10 0 6 -7 10 -16 10 -29 0 -124 50 -124 65 0 8 5 15
10 15 6 0 10 -4 10 -10z m3980 -49 c0 -13 -37 -24 -50 -16 -6 4 -8 11 -5 16 8
12 55 12 55 0z m-3056 -126 c-6 -15 -63 -35 -103 -35 -19 0 -21 3 -12 14 7 8
20 12 30 9 10 -2 33 2 52 10 19 9 35 16 36 16 1 1 0 -6 -3 -14z m3084 -1 c6
-2 12 -8 12 -13 0 -13 -70 -2 -95 16 -18 12 -15 13 25 8 25 -4 51 -8 58 -11z
m40 -45 c35 -7 59 -16 54 -21 -9 -9 -149 13 -194 31 -48 18 -30 29 25 15 28
-7 80 -18 115 -25z m-3593 21 c3 -6 -5 -10 -19 -10 -14 0 -28 5 -31 10 -3 6 5
10 19 10 14 0 28 -4 31 -10z m3645 0 c0 -5 -9 -10 -19 -10 -11 0 -23 5 -26 10
-4 6 5 10 19 10 14 0 26 -4 26 -10z m-3540 -20 c0 -5 -7 -10 -15 -10 -8 0 -15
5 -15 10 0 6 7 10 15 10 8 0 15 -4 15 -10z m195 0 c-3 -5 -17 -10 -31 -10 -13
0 -24 5 -24 10 0 6 14 10 31 10 17 0 28 -4 24 -10z"/>
<path d="M3812 11644 c3 -3 32 -9 64 -14 33 -5 101 -16 153 -25 52 -8 96 -13
98 -11 4 3 -24 10 -200 46 -52 11 -124 14 -115 4z"/>
<path d="M3163 10825 c0 -242 4 -487 7 -545 4 -60 7 68 7 300 0 223 -3 468 -7
545 -5 96 -7 3 -7 -300z"/>
<path d="M3140 10025 c-7 -8 -21 -15 -30 -15 -23 0 -50 -10 -50 -19 0 -4 32
-5 71 -3 68 4 72 3 67 -16 -7 -23 17 -20 26 4 4 11 28 14 98 15 104 0 97 17
-8 18 -36 1 -68 7 -80 16 -25 19 -34 19 -34 0 0 -9 -9 -15 -25 -15 -26 0 -34
15 -12 23 7 4 8 6 1 6 -6 1 -17 -6 -24 -14z"/>
<path d="M3426 9991 c-6 -10 23 -15 133 -27 41 -4 61 -3 57 4 -11 18 -180 39
-190 23z"/>
<path d="M3672 9960 c10 -6 55 -15 100 -21 332 -39 397 -45 386 -34 -11 12
-192 36 -363 50 -33 2 -78 7 -100 10 -31 4 -36 3 -23 -5z"/>
<path d="M3174 9615 c3 -159 9 -468 12 -685 3 -217 9 -422 14 -455 5 -36 6 32
4 175 -3 129 -6 459 -8 733 -2 379 -6 501 -15 510 -10 10 -11 -47 -7 -278z"/>
<path d="M3203 8320 c0 -36 2 -50 4 -32 2 17 2 47 0 65 -2 17 -4 3 -4 -33z"/>
<path d="M3180 8124 c0 -18 -55 -42 -110 -48 -111 -12 -131 -25 -28 -19 82 5
102 3 124 -11 14 -10 29 -15 32 -11 4 3 0 10 -8 15 -11 7 -8 10 13 10 15 0 27
-5 27 -10 0 -7 8 -6 23 2 16 9 77 12 217 11 232 -2 224 12 -12 20 -116 4 -178
11 -204 22 -29 12 -34 12 -25 1 9 -11 6 -15 -16 -19 -35 -7 -47 1 -32 19 6 8
9 17 5 21 -3 3 -6 2 -6 -3z"/>
<path d="M3842 8050 c85 -15 285 -23 291 -13 8 13 -100 23 -233 22 -87 -1 -97
-3 -58 -9z"/>
<path d="M2735 8040 c-27 -7 -25 -8 15 -8 25 0 70 3 100 8 l55 7 -70 0 c-38 1
-83 -3 -100 -7z"/>
<path d="M3205 7260 c4 -388 11 -745 15 -795 4 -49 5 263 3 695 -4 494 -9 789
-15 795 -7 7 -8 -233 -3 -695z"/>
<path d="M3183 6166 c-27 -19 -47 -23 -120 -25 -48 -1 -104 -6 -123 -11 -34
-8 91 -13 295 -11 39 0 212 1 385 2 361 1 559 15 275 18 -487 7 -620 11 -623
21 -2 5 -8 10 -14 10 -6 0 -8 -6 -5 -13 4 -10 -3 -12 -24 -9 -32 5 -35 12 -17
30 18 18 7 14 -29 -12z"/>
<path d="M4256 6141 c-8 -12 116 -24 167 -15 34 5 38 8 22 15 -28 11 -183 11
-189 0z"/>
<path d="M3226 5428 c4 -326 10 -678 14 -783 5 -138 7 -24 8 420 2 625 -5 955
-19 955 -5 0 -6 -267 -3 -592z"/>
<path d="M3242 4370 c0 -19 2 -27 5 -17 2 9 2 25 0 35 -3 9 -5 1 -5 -18z"/>
<path d="M3230 4190 c0 -24 -58 -36 -132 -29 -100 11 -138 11 -138 0 0 -4 35
-11 79 -15 96 -8 177 -31 190 -54 6 -9 11 -12 11 -5 0 6 -4 15 -10 18 -25 15
-5 26 48 24 78 -2 297 9 412 21 52 5 185 14 295 20 110 7 205 16 210 22 7 7
-5 8 -35 5 -25 -3 -160 -10 -300 -16 -140 -7 -285 -16 -323 -21 -88 -13 -213
-13 -238 0 -13 7 -19 7 -19 0 0 -5 -14 -10 -30 -10 -30 0 -30 0 -14 25 10 15
12 25 5 25 -6 0 -11 -5 -11 -10z"/>
<path d="M2833 4173 c9 -2 25 -2 35 0 9 3 1 5 -18 5 -19 0 -27 -2 -17 -5z"/>
<path d="M3256 3435 c3 -335 5 -695 5 -800 0 -104 4 -224 8 -265 5 -42 6 298
3 775 -3 468 -9 861 -14 875 -4 14 -5 -249 -2 -585z"/>
<path d="M11665 9674 c-70 -8 -171 -28 -179 -35 -4 -4 -9 -43 -10 -86 l-1 -78
-52 -3 -53 -3 0 60 c0 57 -1 60 -32 75 -33 17 -77 19 -118 6 -18 -6 -8 -8 40
-9 36 -1 70 -5 77 -9 12 -7 17 -44 15 -99 -2 -28 -6 -33 -26 -33 -19 0 -26 6
-29 28 -3 22 -4 20 -6 -10 0 -25 3 -38 12 -38 49 0 183 23 190 33 4 7 6 43 5
80 -3 82 -1 84 109 97 65 7 80 6 89 -6 10 -13 12 -13 18 2 6 17 0 35 -12 33
-4 -1 -20 -4 -37 -5z"/>
<path d="M11077 9593 c-4 -3 -7 -42 -7 -85 0 -87 -2 -90 -68 -92 l-37 -1 -4
50 -5 50 -5 -55 c-5 -43 -10 -56 -25 -58 -10 -2 -22 2 -27 10 -6 9 -9 6 -9
-11 0 -21 3 -22 28 -16 15 4 50 9 77 11 99 9 94 3 92 96 l-2 83 45 12 45 11
-46 1 c-25 1 -49 -2 -52 -6z"/>
<path d="M11761 9553 c-1 -28 -5 -33 -25 -33 -19 0 -26 6 -29 28 -3 22 -4 20
-6 -10 l-1 -38 43 0 c23 0 49 5 57 10 10 6 11 10 3 10 -7 0 -19 15 -27 33
l-14 32 -1 -32z"/>
<path d="M10856 9561 c-6 -9 27 -21 59 -21 18 1 17 2 -5 15 -29 17 -47 19 -54
6z"/>
<path d="M10713 9543 c-18 -2 -33 -8 -33 -13 0 -5 6 -7 14 -4 8 3 45 9 83 13
59 7 62 8 18 8 -27 0 -65 -2 -82 -4z"/>
<path d="M10945 9530 c3 -5 8 -10 11 -10 2 0 4 5 4 10 0 6 -5 10 -11 10 -5 0
-7 -4 -4 -10z"/>
<path d="M10672 9260 c0 -96 3 -155 8 -140 10 31 10 166 0 245 -5 44 -7 16 -8
-105z"/>
<path d="M11890 8543 c-24 -10 -30 -25 -30 -75 0 -36 -4 -48 -15 -48 -10 0
-15 11 -16 33 l-2 32 -6 -34 c-3 -19 -12 -36 -18 -39 -10 -3 -13 13 -13 57 0
60 0 61 -27 60 -17 -1 -21 -3 -10 -6 14 -4 17 -16 17 -64 l0 -60 53 3 52 3 5
60 5 60 48 9 c26 4 50 7 52 5 2 -2 5 -101 7 -219 l3 -215 -64 -7 c-92 -10 -98
-18 -11 -15 l75 2 6 -315 c4 -173 8 -556 9 -850 1 -294 6 -643 10 -775 4 -132
5 145 2 615 -2 470 -5 961 -6 1090 l-1 235 60 -2 60 -1 -62 10 -61 11 -4 216
c-2 119 -3 217 -2 219 1 2 17 -1 35 -6 33 -8 34 -9 37 -69 3 -60 4 -62 33 -68
17 -4 32 -5 34 -3 2 1 5 32 6 68 l3 65 -29 -3 c-16 -2 -31 2 -36 10 -9 14
-170 23 -199 11z m250 -89 c0 -38 -3 -45 -17 -42 -25 5 -36 75 -14 88 24 13
31 3 31 -46z"/>
<path d="M11662 8508 c-7 -7 -12 -36 -12 -66 0 -65 -23 -69 -28 -5 -4 54 -21
67 -85 64 -85 -3 -87 -5 -87 -70 l0 -57 -35 -1 c-35 -1 -35 -1 -35 44 0 40 2
45 20 40 11 -3 20 -2 20 3 0 20 -101 27 -145 10 l-27 -10 3 -428 4 -427 -70
-5 -70 -5 -3 -67 c-3 -68 -3 -68 -32 -68 -24 0 -29 5 -33 28 l-4 27 -2 -27
c-2 -40 -31 -37 -31 3 0 17 -4 28 -10 24 -14 -9 -12 -65 3 -66 6 -1 23 -3 37
-5 14 -1 40 0 58 3 l33 5 -3 67 -3 66 68 3 67 3 0 -263 c0 -145 5 -405 10
-578 5 -173 10 -578 11 -900 l2 -585 -54 -5 -54 -6 60 -7 c61 -7 266 -20 500
-32 85 -4 127 -3 120 4 -6 5 -128 13 -278 17 -181 5 -270 11 -272 18 -3 10
-16 1016 -30 2371 -2 231 -4 422 -4 425 -8 85 -9 400 -2 404 5 4 30 9 55 12
l46 7 0 -62 0 -62 48 3 47 3 3 60 c2 33 9 63 15 67 7 4 29 8 50 8 l37 0 0 -55
0 -55 50 0 50 0 0 59 c0 56 2 60 28 69 l27 10 -25 1 c-15 1 -31 -4 -38 -11z
m-52 -73 c0 -25 -4 -45 -10 -45 -5 0 -10 20 -10 45 0 25 5 45 10 45 6 0 10
-20 10 -45z"/>
<path d="M11810 8511 c0 -5 5 -13 10 -16 6 -3 10 -2 10 4 0 5 -4 13 -10 16 -5
3 -10 2 -10 -4z"/>
<path d="M12193 8513 c32 -5 52 -42 43 -83 -6 -35 5 -50 40 -53 24 -2 29 2 32
23 2 24 2 24 -12 6 -23 -28 -46 -13 -46 29 0 27 5 38 23 46 21 9 21 9 0 5 -15
-2 -23 2 -26 15 -4 15 -14 19 -44 18 -31 -2 -33 -3 -10 -6z"/>
<path d="M12391 8101 l-1 -43 -57 6 c-116 13 -188 18 -182 12 3 -3 52 -11 110
-17 57 -6 111 -15 120 -19 13 -7 15 -37 17 -187 2 -164 -4 -223 -22 -194 -4 6
-16 11 -27 11 -12 0 -17 -4 -14 -11 4 -6 13 -8 20 -5 20 7 31 -13 38 -66 5
-36 3 -47 -9 -52 -23 -9 -34 2 -34 35 0 16 -5 29 -11 29 -6 0 -8 -7 -5 -16 3
-9 6 -27 6 -40 0 -22 4 -24 53 -24 94 0 97 3 97 80 0 46 4 70 13 73 6 2 9 8 5
12 -4 4 -14 2 -23 -5 -10 -9 -15 -31 -15 -76 0 -62 -1 -64 -25 -64 l-25 0 -2
168 c-2 301 -6 377 -16 407 -10 30 -10 29 -11 -14z"/>
<path d="M11657 8074 c-3 -4 -64 -11 -134 -15 -156 -11 -245 -30 -113 -25 108
5 412 35 418 41 3 3 -33 5 -80 5 -46 0 -87 -3 -91 -6z"/>
<path d="M12200 7655 c-12 -15 -10 -857 5 -2000 3 -220 2 -405 -2 -412 -5 -6
-26 -13 -48 -16 -24 -2 -13 -4 27 -4 59 0 66 2 56 15 -10 11 -14 213 -20 851
-3 460 -9 999 -13 1199 l-6 362 48 0 c26 0 55 5 63 10 11 7 -1 10 -41 10 -38
0 -61 -5 -69 -15z"/>
<path d="M10990 7575 c6 -8 9 -19 5 -25 -3 -5 -1 -10 4 -10 6 0 11 11 11 25 0
16 -6 25 -16 25 -13 0 -14 -3 -4 -15z"/>
<path d="M11035 7560 c3 -5 8 -10 11 -10 2 0 4 5 4 10 0 6 -5 10 -11 10 -5 0
-7 -4 -4 -10z"/>
<path d="M12027 5545 c3 -132 7 -242 9 -244 6 -7 2 265 -6 379 -5 67 -6 18 -3
-135z"/>
<path d="M12024 5218 c-3 -4 13 -8 35 -8 23 0 41 2 41 4 0 8 -71 12 -76 4z"/>
<path d="M12338 5223 c23 -2 59 -2 80 0 20 2 1 4 -43 4 -44 0 -61 -2 -37 -4z"/>
<path d="M5605 11426 c-27 -22 -30 -30 -30 -79 0 -47 4 -59 28 -81 47 -43 104
-35 138 20 28 46 19 104 -23 139 -37 31 -74 32 -113 1z m108 -24 c36 -42 24
-115 -20 -127 -55 -13 -94 49 -72 114 15 42 61 48 92 13z"/>
<path d="M6314 11294 c-55 -27 -68 -82 -33 -144 38 -68 86 -76 135 -24 54 57
42 129 -28 165 -44 22 -36 22 -74 3z m91 -39 c55 -54 9 -141 -60 -115 -45 17
-59 78 -27 118 23 29 57 28 87 -3z m-118 -77 c-3 -7 -5 -2 -5 12 0 14 2 19 5
13 2 -7 2 -19 0 -25z"/>
<path d="M7003 11145 c-36 -17 -58 -67 -47 -111 9 -39 52 -84 80 -84 60 0 94
40 94 110 0 32 -6 43 -37 69 -42 35 -45 35 -90 16z m87 -37 c22 -24 27 -87 8
-106 -34 -34 -108 5 -108 58 0 62 59 91 100 48z"/>
<path d="M7659 10997 c-69 -53 -40 -170 45 -184 29 -4 39 -1 61 23 46 50 46
101 -1 147 -29 29 -77 36 -105 14z m88 -22 c30 -21 39 -69 19 -100 -25 -37
-53 -41 -82 -10 -29 32 -31 78 -4 105 24 24 38 25 67 5z"/>
<path d="M8298 10853 c-38 -24 -47 -81 -19 -127 37 -59 108 -59 136 0 42 88
-40 176 -117 127z m87 -28 c60 -59 -5 -144 -67 -88 -35 31 -15 113 28 113 8 0
26 -11 39 -25z"/>
<path d="M7406 8727 c-5 -9 -5 -43 0 -75 8 -52 9 -54 12 -19 2 20 2 54 0 75
-3 28 -6 33 -12 19z"/>
<path d="M8498 4063 c7 -3 16 -2 19 1 4 3 -2 6 -13 5 -11 0 -14 -3 -6 -6z"/>
<path d="M7785 4039 c-49 -5 -94 -11 -100 -14 -16 -7 261 6 297 15 46 11 -78
10 -197 -1z"/>
<path d="M8055 4030 l-40 -7 43 -2 c23 0 42 4 42 9 0 6 -1 9 -2 9 -2 -1 -21
-5 -43 -9z"/>
<path d="M7810 4010 c-20 -5 5 -6 60 -3 52 3 97 7 99 9 8 7 -123 2 -159 -6z"/>
<path d="M8404 3880 c-58 -23 -74 -117 -28 -164 37 -36 70 -33 110 9 38 38 46
92 19 115 -8 7 -15 18 -15 25 0 22 -49 30 -86 15z m75 -34 c17 -20 10 -97 -10
-109 -57 -35 -110 54 -66 111 13 16 62 15 76 -2z"/>
<path d="M7745 3804 c-26 -22 -30 -32 -30 -76 0 -42 4 -53 28 -74 38 -32 81
-31 112 2 27 29 28 31 27 89 -1 31 -7 45 -29 62 -37 30 -71 29 -108 -3z m99
-9 c25 -19 27 -96 3 -119 -38 -38 -92 -1 -92 64 0 63 43 90 89 55z"/>
<path d="M9776 10294 c-11 -28 -6 -38 9 -18 8 10 15 22 15 27 0 13 -18 7 -24
-9z"/>
<path d="M10062 10208 c-18 -18 -15 -28 8 -28 13 0 20 7 20 20 0 23 -10 26
-28 8z"/>
<path d="M9649 10107 c-62 -42 -72 -96 -28 -158 17 -24 27 -29 64 -29 37 0 50
6 80 35 54 55 43 125 -26 161 -38 19 -50 18 -90 -9z m106 -33 c32 -34 32 -65
-1 -103 -63 -76 -178 -4 -132 82 28 54 93 64 133 21z"/>
<path d="M10000 10100 c0 -5 10 -10 23 -10 18 0 19 2 7 10 -19 13 -30 13 -30
0z"/>
<path d="M10110 10055 c0 -9 61 -36 73 -32 7 2 -2 11 -20 20 -32 17 -53 22
-53 12z"/>
<path d="M9956 10010 c-61 -19 -87 -71 -66 -134 13 -40 65 -72 102 -63 13 4
37 18 51 31 21 20 27 34 27 69 0 24 -6 50 -12 59 -14 17 -59 49 -68 47 -3 0
-18 -5 -34 -9z m82 -45 c30 -35 28 -71 -7 -106 -37 -36 -67 -37 -103 -2 -30
28 -35 60 -17 96 16 30 28 37 70 37 25 0 41 -7 57 -25z"/>
<path d="M10146 9864 c-37 -37 -37 -111 -1 -142 35 -30 68 -28 104 9 38 37 41
86 10 130 -27 39 -75 40 -113 3z m96 -11 c42 -38 10 -133 -45 -133 -50 0 -75
87 -37 128 25 26 57 28 82 5z"/>
<path d="M10276 9586 c21 -15 30 -14 19 3 -3 6 -14 11 -23 11 -13 0 -13 -2 4
-14z"/>
<path d="M9532 10130 c0 -14 2 -19 5 -12 2 6 2 18 0 25 -3 6 -5 1 -5 -13z"/>
<path d="M7061 10073 c-27 -13 -37 -14 -53 -4 -17 11 -19 10 -16 -11 5 -40 87
-33 139 12 l22 20 -29 0 c-16 0 -44 -8 -63 -17z"/>
<path d="M6725 9950 c3 -5 8 -10 11 -10 2 0 4 5 4 10 0 6 -5 10 -11 10 -5 0
-7 -4 -4 -10z"/>
<path d="M7033 9903 c-45 -40 -29 -130 27 -153 78 -32 135 93 69 151 -28 24
-70 24 -96 2z m71 -4 c54 -25 55 -111 1 -125 -71 -18 -114 79 -56 123 20 15
24 16 55 2z"/>
<path d="M6851 9844 c-53 -44 -37 -127 29 -154 87 -36 149 82 81 151 -36 36
-70 37 -110 3z m99 -14 c24 -24 26 -77 4 -108 -34 -50 -114 -12 -114 54 0 63
68 96 110 54z"/>
<path d="M6616 9739 c-22 -26 -25 -37 -19 -72 3 -23 17 -51 29 -64 23 -23 74
-32 74 -13 0 6 6 10 13 10 20 0 50 65 43 93 -19 78 -93 103 -140 46z m111 -16
c34 -31 -5 -123 -51 -123 -41 0 -62 39 -58 108 2 16 12 27 35 37 33 14 39 12
74 -22z"/>
<path d="M7195 9740 c-13 -6 -15 -9 -5 -9 8 0 22 4 30 9 18 12 2 12 -25 0z"/>
<path d="M9410 9711 c-19 -3 -35 -12 -34 -18 1 -7 2 -20 3 -28 0 -8 10 -15 20
-15 26 0 33 -14 38 -69 2 -25 5 -46 6 -48 2 -1 13 0 24 3 13 4 23 15 25 30 3
23 4 23 30 10 15 -8 30 -11 32 -7 3 4 -7 14 -22 21 -15 7 -33 15 -41 19 -21
10 -22 39 -1 46 21 7 69 -3 88 -18 7 -5 15 -7 18 -4 9 8 -18 45 -43 58 -13 7
-23 16 -23 21 0 9 -66 9 -120 -1z"/>
<path d="M7225 9572 c-33 -20 -60 -50 -53 -57 2 -2 17 2 32 10 39 20 70 20 62
-1 -3 -9 -6 -17 -6 -20 0 -2 -13 -10 -30 -19 -32 -17 -40 -35 -15 -35 8 0 15
7 15 16 0 9 6 14 13 11 6 -2 11 -14 10 -26 -2 -13 3 -21 12 -21 9 0 12 -6 9
-17 -5 -15 -3 -15 10 1 9 11 16 30 16 43 0 13 4 23 9 23 5 0 7 9 4 19 -3 13 3
25 21 36 37 24 34 45 -6 45 -18 0 -42 3 -53 5 -11 3 -33 -3 -50 -13z"/>
<path d="M9942 9547 c-12 -13 -22 -28 -22 -34 0 -6 -6 -13 -12 -16 -10 -3 -10
-10 1 -30 13 -24 12 -29 -2 -45 -10 -10 -17 -25 -17 -32 0 -7 12 0 26 15 17
19 24 36 21 51 -6 31 6 30 23 -1 10 -20 11 -28 2 -37 -20 -20 -13 -32 8 -13
26 23 25 31 -5 71 -23 30 -26 72 -4 58 5 -3 9 0 9 5 0 20 31 11 40 -11 9 -21
9 -20 7 7 -3 40 -43 47 -75 12z"/>
<path d="M6810 9458 c-11 -12 -20 -29 -20 -37 1 -9 8 -3 17 13 15 28 16 29 29
11 8 -10 14 -15 14 -10 0 5 5 4 12 -3 9 -9 7 -16 -10 -32 -27 -26 -28 -33 -3
-25 15 4 18 2 15 -12 -5 -20 20 -62 31 -51 4 3 1 16 -5 28 -8 15 -8 25 -1 34
15 17 -11 81 -39 96 -15 8 -23 6 -40 -12z"/>
<path d="M6892 7737 c-18 -42 -14 -68 4 -34 8 16 13 36 11 45 -3 13 -7 10 -15
-11z"/>
<path d="M2198 8662 c-50 -28 -64 -50 -25 -37 33 11 81 11 87 0 3 -5 -12 -18
-33 -29 -32 -15 -36 -20 -25 -33 8 -10 14 -11 16 -4 6 18 29 12 35 -8 6 -25
48 -24 55 1 2 10 8 18 13 18 5 0 9 9 9 20 0 13 7 20 19 20 32 0 51 11 51 30 0
14 -13 20 -65 29 -36 6 -70 14 -77 16 -7 2 -34 -8 -60 -23z"/>
<path d="M2340 8270 c-8 -5 -29 -10 -46 -10 -58 0 -104 -72 -69 -110 27 -30
64 -34 96 -11 35 26 33 26 64 -5 32 -32 50 -26 70 22 20 49 19 63 -7 73 -13 5
-32 18 -42 30 -21 23 -42 26 -66 11z m33 -27 c-7 -2 -19 -2 -25 0 -7 3 -2 5
12 5 14 0 19 -2 13 -5z m7 -28 c48 -3 62 -18 50 -49 -6 -16 -15 -24 -21 -20
-8 4 -8 9 0 17 18 18 13 22 -26 23 -21 1 -48 4 -61 9 -19 6 -22 4 -20 -16 3
-28 -27 -37 -55 -15 -15 12 -16 17 -5 41 12 26 14 27 63 20 27 -4 61 -8 75
-10z"/>
<path d="M7061 8218 c-1 -15 4 -30 9 -33 12 -7 12 12 0 40 -8 18 -9 17 -9 -7z"/>
<path d="M1850 8491 c0 -5 5 -13 10 -16 6 -3 10 -2 10 4 0 5 -4 13 -10 16 -5
3 -10 2 -10 -4z"/>
<path d="M1620 8091 c0 -6 4 -13 10 -16 6 -3 7 1 4 9 -7 18 -14 21 -14 7z"/>
<path d="M1729 7998 c4 -28 6 -29 9 -9 2 13 0 27 -5 32 -6 6 -7 -3 -4 -23z"/>
<path d="M1750 7883 c0 -4 5 -15 10 -23 8 -13 10 -13 10 2 0 9 -4 20 -10 23
-5 3 -10 3 -10 -2z"/>
<path d="M1682 7840 c0 -14 2 -19 5 -12 2 6 2 18 0 25 -3 6 -5 1 -5 -13z"/>
<path d="M1758 7778 c7 -7 12 -22 12 -35 0 -13 5 -23 10 -23 6 0 10 8 10 18
-1 19 -23 52 -36 52 -4 0 -3 -5 4 -12z"/>
<path d="M1691 7744 c0 -11 3 -14 6 -6 3 7 2 16 -1 19 -3 4 -6 -2 -5 -13z"/>
<path d="M1700 7611 c0 -42 17 -47 18 -6 1 19 -3 35 -8 35 -6 0 -10 -13 -10
-29z"/>
<path d="M1755 7540 c-3 -5 -1 -10 4 -10 6 0 11 5 11 10 0 6 -2 10 -4 10 -3 0
-8 -4 -11 -10z"/>
<path d="M1788 7485 c2 -14 6 -25 8 -25 2 0 4 11 4 25 0 14 -4 25 -9 25 -4 0
-6 -11 -3 -25z"/>
<path d="M1707 7493 c-10 -9 -9 -61 1 -67 4 -2 8 13 7 35 0 21 0 39 -1 39 0 0
-4 -3 -7 -7z"/>
<path d="M1750 7410 c0 -5 5 -10 10 -10 6 0 10 5 10 10 0 6 -4 10 -10 10 -5 0
-10 -4 -10 -10z"/>
<path d="M1770 7339 c0 -17 4 -28 10 -24 6 3 10 17 10 31 0 13 -4 24 -10 24
-5 0 -10 -14 -10 -31z"/>
<path d="M1682 7325 c0 -16 2 -22 5 -12 2 9 2 23 0 30 -3 6 -5 -1 -5 -18z"/>
<path d="M1568 7178 c-22 -33 -39 -68 -35 -68 8 0 60 81 55 85 -3 3 -12 -5
-20 -17z"/>
<path d="M2200 7809 c0 -5 5 -7 10 -4 6 3 10 8 10 11 0 2 -4 4 -10 4 -5 0 -10
-5 -10 -11z"/>
<path d="M2164 7636 c-3 -8 -4 -25 -2 -38 3 -17 5 -13 9 15 5 38 2 47 -7 23z"/>
<path d="M2250 7621 c0 -11 -3 -28 -6 -38 -5 -12 -4 -15 4 -8 16 15 26 65 13
65 -6 0 -11 -9 -11 -19z"/>
<path d="M2205 7550 c-3 -5 -1 -10 4 -10 6 0 11 5 11 10 0 6 -2 10 -4 10 -3 0
-8 -4 -11 -10z"/>
<path d="M2130 7500 c0 -5 5 -10 10 -10 6 0 10 5 10 10 0 6 -4 10 -10 10 -5 0
-10 -4 -10 -10z"/>
<path d="M2668 7533 c7 -3 16 -2 19 1 4 3 -2 6 -13 5 -11 0 -14 -3 -6 -6z"/>
<path d="M2072 7190 c0 -14 2 -19 5 -12 2 6 2 18 0 25 -3 6 -5 1 -5 -13z"/>
<path d="M2010 7120 c0 -5 5 -10 10 -10 6 0 10 5 10 10 0 6 -4 10 -10 10 -5 0
-10 -4 -10 -10z"/>
<path d="M2066 7050 c1 -44 14 -50 14 -7 0 21 -3 37 -7 37 -5 0 -8 -14 -7 -30z"/>
<path d="M1965 7050 c-3 -5 -1 -18 4 -27 9 -16 10 -14 11 10 0 28 -5 34 -15
17z"/>
<path d="M2015 6970 c4 -6 11 -8 16 -5 14 9 11 15 -7 15 -8 0 -12 -5 -9 -10z"/>
<path d="M2068 6900 c2 -16 6 -30 8 -30 2 0 4 14 4 30 0 17 -4 30 -8 30 -5 0
-7 -13 -4 -30z"/>
<path d="M2010 6830 c0 -5 5 -10 10 -10 6 0 10 5 10 10 0 6 -4 10 -10 10 -5 0
-10 -4 -10 -10z"/>
<path d="M1951 6744 c0 -11 3 -14 6 -6 3 7 2 16 -1 19 -3 4 -6 -2 -5 -13z"/>
<path d="M2046 6725 c-3 -8 -1 -15 4 -15 6 0 10 7 10 15 0 8 -2 15 -4 15 -2 0
-6 -7 -10 -15z"/>
<path d="M1990 6680 c0 -5 5 -10 10 -10 6 0 10 5 10 10 0 6 -4 10 -10 10 -5 0
-10 -4 -10 -10z"/>
<path d="M1927 6623 c-4 -3 -7 -13 -7 -22 1 -13 3 -13 11 2 11 19 8 33 -4 20z"/>
<path d="M1968 6543 c7 -3 16 -2 19 1 4 3 -2 6 -13 5 -11 0 -14 -3 -6 -6z"/>
<path d="M2005 6485 c0 -13 3 -21 8 -18 4 2 7 10 7 18 0 8 -3 16 -7 18 -5 3
-8 -5 -8 -18z"/>
<path d="M1890 6481 c0 -6 5 -13 10 -16 6 -3 10 1 10 9 0 9 -4 16 -10 16 -5 0
-10 -4 -10 -9z"/>
<path d="M2150 6128 c0 -5 48 -7 108 -7 59 1 100 3 92 5 -32 7 -200 9 -200 2z"/>
<path d="M6930 6620 l-35 -7 37 -2 c20 0 40 4 43 9 7 11 7 11 -45 0z"/>
<path d="M10348 6843 c12 -2 32 -2 45 0 12 2 2 4 -23 4 -25 0 -35 -2 -22 -4z"/>
<path d="M10470 6820 c-12 -8 -11 -10 7 -10 12 0 25 5 28 10 8 13 -15 13 -35
0z"/>
<path d="M10375 6803 c-11 -2 -29 -8 -40 -13 -11 -5 -37 -11 -57 -15 -21 -3
-40 -10 -43 -15 -3 -5 0 -8 7 -6 7 2 42 10 77 17 35 7 80 18 100 25 36 13 36
13 6 12 -16 0 -39 -2 -50 -5z"/>
<path d="M10363 6583 c9 -2 23 -2 30 0 6 3 -1 5 -18 5 -16 0 -22 -2 -12 -5z"/>
<path d="M1451 6088 c0 -9 -4 -25 -7 -35 -5 -17 -5 -17 6 0 6 10 9 25 7 35 -4
15 -5 15 -6 0z"/>
<path d="M1317 5943 c-4 -3 -7 -11 -7 -17 0 -6 5 -5 12 2 6 6 9 14 7 17 -3 3
-9 2 -12 -2z"/>
<path d="M1330 5820 c0 -5 5 -10 10 -10 6 0 10 5 10 10 0 6 -4 10 -10 10 -5 0
-10 -4 -10 -10z"/>
<path d="M1362 5760 c0 -14 2 -19 5 -12 2 6 2 18 0 25 -3 6 -5 1 -5 -13z"/>
<path d="M1270 5659 c0 -5 5 -7 10 -4 6 3 10 8 10 11 0 2 -4 4 -10 4 -5 0 -10
-5 -10 -11z"/>
<path d="M1290 5554 c0 -8 5 -12 10 -9 6 3 10 10 10 16 0 5 -4 9 -10 9 -5 0
-10 -7 -10 -16z"/>
<path d="M1152 5448 c-7 -7 -12 -16 -12 -21 0 -5 7 -1 16 8 9 9 14 18 12 20
-2 3 -10 -1 -16 -7z"/>
<path d="M1207 5348 c-10 -11 -16 -22 -13 -26 6 -6 35 27 36 41 0 10 -2 8 -23
-15z"/>
<path d="M1166 5234 c-4 -9 -4 -19 -1 -22 2 -3 7 3 11 12 4 9 4 19 1 22 -2 3
-7 -3 -11 -12z"/>
<path d="M1049 5203 c-13 -16 -12 -17 4 -4 16 13 21 21 13 21 -2 0 -10 -8 -17
-17z"/>
<path d="M1120 5115 c-11 -13 -10 -14 4 -9 9 3 16 10 16 15 0 13 -6 11 -20 -6z"/>
<path d="M1050 5074 c0 -8 5 -12 10 -9 6 3 10 10 10 16 0 5 -4 9 -10 9 -5 0
-10 -7 -10 -16z"/>
<path d="M970 5019 c-7 -11 -10 -23 -7 -25 2 -2 9 7 15 21 14 30 7 33 -8 4z"/>
<path d="M1066 5003 c-6 -14 -5 -15 5 -6 7 7 10 15 7 18 -3 3 -9 -2 -12 -12z"/>
<path d="M1042 4925 c-23 -27 -27 -35 -14 -35 4 0 15 14 24 30 21 37 18 38
-10 5z"/>
<path d="M970 4880 c0 -5 5 -10 10 -10 6 0 10 5 10 10 0 6 -4 10 -10 10 -5 0
-10 -4 -10 -10z"/>
<path d="M962 4768 c-13 -15 -20 -28 -15 -28 12 0 45 40 41 49 -2 4 -13 -5
-26 -21z"/>
<path d="M900 4740 c0 -5 5 -10 11 -10 5 0 7 5 4 10 -3 6 -8 10 -11 10 -2 0
-4 -4 -4 -10z"/>
<path d="M829 4713 c-13 -16 -12 -17 4 -4 16 13 21 21 13 21 -2 0 -10 -8 -17
-17z"/>
<path d="M896 4615 c-9 -14 -13 -25 -8 -25 5 0 14 11 20 25 6 14 10 25 8 25
-2 0 -11 -11 -20 -25z"/>
<path d="M812 4460 c-30 -40 -28 -50 3 -14 22 26 31 44 22 44 -2 0 -13 -13
-25 -30z"/>
<path d="M1341 4124 c0 -11 3 -14 6 -6 3 7 2 16 -1 19 -3 4 -6 -2 -5 -13z"/>
<path d="M1316 4060 c-3 -8 -15 -49 -26 -90 -12 -41 -33 -115 -46 -164 -14
-48 -23 -90 -21 -92 2 -2 12 24 22 58 10 35 34 111 52 170 19 60 33 114 30
120 -3 10 -6 9 -11 -2z"/>
<path d="M1757 3690 c-12 -31 -39 -208 -35 -226 2 -11 10 15 17 56 6 41 17 94
22 117 11 41 7 85 -4 53z"/>
<path d="M1708 3411 c-5 -18 -8 -43 -8 -55 1 -19 2 -19 11 -3 6 9 9 34 7 55
l-3 37 -7 -34z"/>
<path d="M1691 3325 c-1 -5 -8 -52 -16 -104 -9 -52 -14 -96 -12 -98 7 -6 39
186 34 199 -3 7 -6 9 -6 3z"/>
<path d="M1671 3016 c10 -9 79 -14 74 -5 -4 5 -22 9 -42 9 -20 0 -34 -2 -32
-4z"/>
<path d="M1875 3000 c27 -12 43 -12 25 0 -8 5 -22 9 -30 9 -10 0 -8 -3 5 -9z"/>
<path d="M1454 2975 c-25 -19 -14 -19 22 0 16 8 22 15 13 15 -8 0 -24 -7 -35
-15z"/>
<path d="M1776 2951 c-4 -7 -5 -15 -2 -18 9 -9 19 4 14 18 -4 11 -6 11 -12 0z"/>
<path d="M1555 2920 c-3 -5 -1 -10 4 -10 6 0 11 5 11 10 0 6 -2 10 -4 10 -3 0
-8 -4 -11 -10z"/>
<path d="M1655 2890 c3 -5 8 -10 11 -10 2 0 4 5 4 10 0 6 -5 10 -11 10 -5 0
-7 -4 -4 -10z"/>
<path d="M1700 2890 c-22 -7 -21 -8 13 -9 20 -1 37 4 37 9 0 11 -14 11 -50 0z"/>
<path d="M2206 2398 c7 -12 44 -10 44 2 0 5 -11 9 -24 8 -14 -1 -22 -6 -20
-10z"/>
<path d="M9876 1421 c-4 -7 -5 -15 -2 -18 9 -9 19 4 14 18 -4 11 -6 11 -12 0z"/>
<path d="M9950 1395 c0 -9 5 -15 10 -13 12 4 11 16 -1 24 -5 3 -9 -2 -9 -11z"/>
<path d="M6480 1385 c0 -8 7 -15 15 -15 9 0 12 6 9 15 -4 8 -10 15 -15 15 -5
0 -9 -7 -9 -15z"/>
<path d="M6400 1380 c0 -5 5 -10 11 -10 5 0 7 5 4 10 -3 6 -8 10 -11 10 -2 0
-4 -4 -4 -10z"/>
</g>
</svg>
