<?xml version="1.0" standalone="no"?>
<!DOCTYPE svg PUBLIC "-//W3C//DTD SVG 20010904//EN"
 "http://www.w3.org/TR/2001/REC-SVG-20010904/DTD/svg10.dtd">
<svg version="1.0" xmlns="http://www.w3.org/2000/svg"
 width="1295.000000pt" height="1294.000000pt" viewBox="0 0 1295.000000 1294.000000"
 preserveAspectRatio="xMidYMid meet">
<metadata>
Created by potrace 1.16, written by Peter Selinger 2001-2019
</metadata>
<g transform="translate(0.000000,1294.000000) scale(0.100000,-0.100000)"
fill="#000000" stroke="none">
<path d="M0 6470 l0 -6470 6475 0 6475 0 0 6470 0 6470 -6475 0 -6475 0 0
-6470z m7120 6056 c874 -91 1683 -345 2416 -758 51 -29 76 -50 87 -73 60 -127
96 -718 63 -1055 -63 -657 -279 -1249 -631 -1735 -76 -105 -110 -142 -118
-128 -2 4 -7 21 -11 36 -5 22 -12 28 -29 25 -32 -4 -33 -39 -2 -134 67 -206
223 -382 433 -488 28 -14 52 -30 52 -35 0 -26 -349 -35 -455 -12 -160 35 -286
111 -367 222 -39 54 -55 69 -72 67 -32 -5 -31 -34 3 -80 17 -23 31 -45 31 -49
0 -17 -87 -89 -106 -89 -12 0 -48 14 -79 30 -31 17 -63 30 -69 30 -39 0 -76
101 -76 207 0 88 -39 119 -121 94 -32 -10 -44 -9 -71 5 -81 41 -92 56 -112
154 -3 14 -33 58 -66 98 -37 46 -60 83 -60 98 0 37 22 83 82 171 30 43 66 109
81 146 26 64 34 103 56 275 11 89 29 118 82 133 40 13 70 41 100 96 9 16 41
43 72 61 30 17 72 46 91 63 42 36 48 34 99 -40 16 -25 70 -87 118 -137 65 -68
89 -101 94 -127 9 -45 23 -57 115 -101 80 -37 233 -65 285 -52 14 4 46 25 69
46 40 37 47 40 96 38 45 -2 55 1 72 22 15 18 18 33 13 60 -3 19 -6 52 -5 73 0
27 -7 47 -24 68 -14 16 -28 39 -31 51 -12 37 -36 58 -76 64 -25 4 -40 13 -47
30 -16 33 -57 57 -86 50 -22 -5 -32 4 -89 86 -76 109 -124 195 -167 298 -18
41 -45 92 -61 113 -30 37 -30 37 -7 37 33 0 85 34 94 62 4 12 20 35 37 51 29
27 29 28 23 105 l-7 79 40 53 c69 91 92 259 49 350 -15 33 -21 62 -20 111 2
53 -2 72 -18 92 -29 37 -53 41 -103 18 -36 -16 -51 -18 -78 -11 -23 7 -66 7
-128 0 -144 -16 -237 -66 -273 -146 -10 -24 -28 -50 -39 -57 -11 -8 -29 -39
-40 -68 -12 -29 -38 -73 -60 -96 -21 -23 -39 -52 -39 -63 0 -11 -24 -56 -52
-100 l-53 -80 -90 6 c-70 4 -112 1 -189 -15 -128 -27 -216 -27 -272 -1 -23 12
-79 56 -124 98 l-82 77 32 103 c19 63 29 113 26 127 -7 26 -51 55 -83 55 -12
0 -23 12 -31 33 -6 17 -28 49 -49 70 -30 32 -41 37 -62 32 -14 -4 -46 -7 -70
-7 -35 1 -54 -6 -97 -36 -30 -21 -58 -49 -63 -64 -6 -16 -21 -43 -35 -61 -39
-50 -34 -79 18 -122 41 -34 45 -41 56 -108 14 -83 22 -101 62 -143 25 -27 27
-34 18 -58 -22 -58 -13 -83 67 -189 102 -136 189 -221 255 -252 29 -14 61 -25
71 -25 28 0 20 -23 -23 -65 -41 -40 -54 -72 -65 -158 -8 -62 -49 -108 -157
-178 -107 -68 -191 -140 -320 -270 -58 -60 -109 -109 -112 -109 -4 0 4 21 18
48 36 71 82 226 96 323 17 117 8 321 -19 421 -35 132 -107 258 -196 341 -53
49 -111 77 -191 92 -73 14 -124 36 -124 53 0 4 -21 20 -48 36 -59 37 -102 76
-102 93 0 8 13 40 28 71 16 31 32 72 35 91 4 19 30 69 57 112 27 42 55 97 62
122 10 40 9 53 -13 118 -22 67 -29 78 -81 119 -71 56 -53 64 55 21 41 -17 105
-37 142 -46 65 -15 256 -21 268 -9 3 4 -6 16 -21 28 -15 11 -57 46 -94 77
-151 129 -325 206 -798 353 -400 123 -597 204 -643 262 -29 37 -85 61 -175 75
-45 7 -80 14 -78 16 7 7 256 65 421 98 198 40 481 79 680 95 77 6 158 12 180
14 107 10 810 -3 955 -18z m-2467 -293 c-4 -33 0 -44 31 -80 29 -33 36 -49 36
-82 0 -36 -6 -47 -39 -79 -79 -74 -230 -492 -231 -637 0 -22 9 -58 21 -80 60
-114 267 -344 424 -470 134 -107 132 -102 112 -255 -9 -69 -26 -155 -37 -190
-18 -55 -20 -79 -15 -156 8 -115 -3 -144 -88 -227 -73 -71 -173 -219 -312
-461 -53 -93 -117 -195 -140 -228 -54 -72 -59 -87 -46 -134 14 -49 6 -61 -86
-129 -43 -32 -99 -78 -125 -103 l-46 -45 -49 67 c-206 284 -408 731 -507 1121
-113 452 -140 946 -76 1420 28 208 44 282 65 305 9 10 79 50 154 88 269 135
528 244 801 337 85 30 156 54 157 54 0 1 -1 -16 -4 -36z m107 22 c0 -20 -22
-65 -32 -65 -9 0 -11 41 -2 64 8 20 34 21 34 1z m99 -87 l-12 -22 -9 23 c-9
25 -3 57 16 80 16 21 21 -51 5 -81z m91 89 c0 -4 -29 -107 -36 -127 -4 -13 -6
-13 -14 0 -21 34 4 130 34 130 9 0 16 -1 16 -3z m68 -15 c-1 -4 -14 -35 -28
-70 -26 -64 -34 -73 -44 -47 -6 16 17 90 35 112 12 14 43 19 37 5z m87 -103
c5 -6 5 -13 -2 -20 -9 -9 -20 -9 -42 1 -43 17 -41 41 2 33 17 -3 36 -10 42
-14z m-246 -30 c34 -12 37 -20 20 -51 -16 -29 -4 -33 27 -9 28 22 88 29 99 11
10 -16 21 -11 33 15 13 28 52 35 52 10 0 -30 -28 -81 -53 -98 -14 -9 -47 -22
-72 -29 -41 -11 -47 -17 -57 -51 -7 -22 -18 -41 -25 -44 -21 -8 -100 17 -120
39 -15 17 -15 23 -3 51 7 18 15 57 17 87 3 35 10 60 21 68 19 15 21 15 61 1z
m632 -88 c654 -228 865 -310 976 -380 50 -30 54 -41 15 -41 -78 0 -232 52
-1241 418 -72 26 -103 52 -63 52 31 0 181 -52 388 -133 242 -96 383 -140 348
-108 -5 4 -174 68 -376 142 -203 73 -368 137 -368 141 0 18 52 3 321 -91z
m-48 -140 c324 -115 450 -161 455 -165 2 -2 -20 -11 -50 -20 -86 -25 -153 -71
-214 -144 -75 -90 -85 -112 -91 -199 -6 -70 -7 -75 -37 -90 -44 -22 -66 -43
-66 -64 0 -17 -3 -17 -41 -4 -23 9 -52 26 -65 40 -13 14 -33 25 -45 25 -12 0
-41 11 -64 25 -24 13 -62 27 -86 31 -57 9 -130 46 -180 91 l-41 37 4 126 c3
112 6 130 31 177 19 37 27 67 27 103 0 34 4 50 13 50 7 0 37 16 67 35 38 24
67 35 93 35 24 0 137 -35 290 -89z m-685 -20 c15 -10 47 -25 71 -33 39 -14 44
-19 47 -50 l3 -36 -62 -6 c-42 -5 -56 -10 -46 -17 8 -5 24 -9 37 -9 26 0 28
-7 5 -32 -15 -17 -15 -18 15 -18 l30 0 -4 -62 c-3 -35 -10 -82 -16 -106 -9
-36 -8 -45 7 -62 16 -18 16 -19 -21 -35 -51 -21 -111 -80 -125 -123 -17 -50
-5 -49 31 3 27 40 109 105 131 105 4 0 36 -20 72 -45 37 -25 68 -45 71 -45 3
0 17 -4 31 -10 l26 -10 -26 -22 c-17 -16 -27 -36 -30 -63 -5 -36 -4 -37 4 -11
6 16 19 39 31 51 l21 22 78 -18 c108 -25 156 -45 227 -96 34 -24 67 -43 73
-43 17 0 13 -13 -15 -51 -35 -47 -66 -108 -61 -122 2 -6 20 14 40 46 38 58 73
84 101 74 14 -5 13 -11 -4 -49 -12 -27 -20 -65 -20 -102 0 -50 5 -67 37 -119
36 -60 36 -61 25 -115 -6 -31 -16 -58 -21 -61 -5 -3 -12 -33 -16 -66 -4 -33
-14 -73 -21 -90 -13 -28 -14 -25 -9 41 3 39 7 86 10 105 5 32 4 31 -13 -11
-11 -25 -23 -74 -27 -110 -4 -36 -12 -71 -18 -79 -15 -18 -142 -103 -194 -129
-47 -24 -46 -25 -57 51 -4 20 -9 54 -13 75 l-6 37 -8 -35 c-4 -19 -5 -65 -2
-101 5 -63 4 -68 -17 -79 -21 -11 -26 -10 -42 10 -18 22 -18 22 -18 2 0 -28
-17 -37 -28 -15 -19 37 -21 84 -7 126 8 23 29 113 45 200 17 86 42 196 55 243
27 93 79 214 97 225 6 4 9 12 7 18 -7 20 -26 -4 -87 -114 l-62 -110 0 102 c0
94 -9 128 -28 108 -4 -4 -6 -49 -5 -101 1 -52 -1 -94 -6 -94 -14 0 -58 109
-96 235 l-35 120 6 -74 c3 -41 14 -102 25 -135 10 -34 19 -72 19 -85 0 -22 -3
-21 -48 20 -27 24 -69 61 -95 82 -26 21 -64 64 -86 95 -22 31 -67 84 -101 117
-34 33 -73 78 -87 99 -24 37 -25 46 -20 125 4 66 15 114 47 206 54 152 68 181
83 166 27 -27 32 -3 11 54 -6 14 -3 16 14 11 70 -20 65 -21 47 13 -18 36 -13
38 23 12z m-1332 -173 c-15 -66 -47 -299 -57 -411 -15 -165 -6 -610 15 -767
137 -998 626 -1858 1376 -2418 455 -339 1030 -556 1573 -593 503 -33 1182 103
1572 316 106 58 216 130 458 303 110 78 203 142 209 142 5 0 29 -14 54 -31
206 -141 477 -180 778 -109 194 45 202 68 45 120 -163 55 -249 112 -346 229
-60 73 -119 181 -111 202 3 8 57 86 121 175 186 259 317 501 430 795 225 585
297 1264 202 1904 -8 49 -12 91 -10 93 7 8 287 -175 445 -291 108 -80 274
-215 400 -325 160 -141 505 -497 640 -660 126 -153 400 -517 400 -532 0 -3
-17 -14 -37 -24 -34 -16 -37 -16 -46 -1 -8 15 -13 12 -38 -17 -24 -28 -30 -31
-39 -18 -5 8 -10 27 -10 42 0 30 -32 58 -65 58 -11 0 -35 -9 -53 -20 -18 -11
-38 -18 -43 -14 -16 10 -99 185 -99 209 0 12 11 36 25 55 53 72 12 150 -80
150 -64 0 -87 -23 -93 -94 -4 -54 -7 -59 -46 -83 -58 -37 -187 -106 -189 -102
-23 42 -26 44 -78 49 l-54 5 -18 68 -18 69 27 39 c44 64 21 135 -52 159 -44
15 -95 -8 -120 -55 -18 -33 -18 -37 -1 -81 l17 -45 -43 -87 c-27 -56 -58 -101
-88 -130 -38 -36 -47 -52 -52 -88 -3 -32 -15 -57 -43 -91 l-39 -47 3 -86 c2
-92 6 -83 -63 -176 -8 -12 -18 -52 -22 -90 -4 -42 -15 -86 -29 -112 -19 -36
-22 -52 -17 -116 6 -73 5 -75 -37 -153 -93 -169 -89 -153 -64 -260 20 -87 14
-133 -35 -263 -51 -137 -56 -174 -36 -288 l16 -93 -34 -40 c-36 -42 -44 -69
-67 -234 -16 -114 -33 -175 -85 -300 -65 -158 -61 -224 20 -313 73 -82 152
-117 275 -125 36 -2 67 -8 70 -12 3 -4 -39 -25 -94 -46 -247 -96 -461 -227
-609 -372 -125 -122 -199 -236 -387 -592 -130 -247 -372 -611 -454 -683 -20
-17 -54 -37 -77 -43 -25 -8 -50 -25 -66 -46 -42 -55 -58 -47 -146 79 -26 36
-59 76 -74 87 -75 60 -158 149 -179 192 -25 50 -43 65 -109 84 l-40 12 -6 154
c-6 175 -6 176 -140 463 -39 82 -78 179 -87 215 -14 54 -22 67 -43 75 -42 14
-76 -1 -106 -46 -42 -62 -39 -128 10 -240 20 -47 37 -102 37 -122 l0 -35 -52
15 c-144 42 -307 157 -349 246 -18 38 -25 45 -36 36 -11 -9 -22 -4 -51 24 -55
52 -113 88 -144 88 -28 0 -68 -40 -68 -67 0 -11 -6 -12 -22 -6 -86 30 -158
-29 -122 -99 12 -24 13 -36 4 -58 -10 -24 -6 -40 25 -121 20 -51 46 -136 60
-188 27 -111 95 -263 127 -285 12 -8 85 -77 162 -153 132 -129 149 -142 264
-203 67 -35 122 -67 122 -70 0 -3 -18 -62 -39 -131 -72 -231 -137 -573 -148
-779 -7 -133 -2 -147 76 -240 73 -87 203 -213 239 -232 18 -10 40 -32 50 -49
57 -105 217 -274 349 -368 172 -123 353 -188 491 -178 l75 6 -7 -46 c-3 -26
-7 -47 -9 -48 -1 -2 -162 -19 -357 -39 -1122 -114 -1717 -189 -1922 -241 -119
-30 -259 -109 -349 -197 -241 -235 -295 -483 -254 -1158 12 -198 17 -405 16
-680 -1 -288 3 -426 13 -507 17 -134 14 -153 -24 -153 -93 0 -664 120 -864
182 -72 22 -159 47 -192 56 l-61 15 -7 66 c-3 36 -6 122 -6 190 l0 123 32 42
c42 53 46 56 88 56 61 1 90 39 90 117 0 44 3 51 31 67 46 27 63 76 49 137 -12
49 -12 49 24 89 49 55 52 100 9 182 l-26 50 21 44 c12 25 22 59 22 76 0 55
-57 123 -132 156 -24 10 -28 18 -28 50 0 51 -21 77 -76 96 -32 11 -72 40 -135
100 -102 97 -139 124 -264 191 -90 48 -135 81 -135 97 0 5 -11 34 -26 63 -18
40 -42 68 -90 105 -70 57 -76 73 -48 138 29 66 33 90 25 149 -12 89 17 214
129 543 103 305 131 404 149 527 57 378 -100 748 -595 1403 -56 74 -131 169
-168 210 -36 41 -75 95 -87 120 -11 25 -27 59 -35 76 -8 17 -35 45 -59 63 -33
24 -47 43 -60 81 -14 42 -29 60 -92 112 -81 66 -123 122 -148 198 -19 56 -44
81 -106 103 -50 19 -126 88 -135 123 -19 73 119 596 172 655 30 34 88 42 249
35 252 -10 338 16 392 118 19 37 19 110 -1 158 -23 55 -20 99 10 139 23 31 25
40 18 92 -5 46 -2 68 12 98 17 39 17 41 -4 92 -12 29 -22 59 -22 68 0 21 27
45 71 63 43 18 63 41 78 87 15 48 2 81 -53 139 -57 59 -202 243 -221 280 -8
16 -15 38 -15 48 0 11 -7 25 -15 32 -12 10 -14 30 -9 109 6 85 4 107 -19 186
-38 138 -38 138 -17 200 37 107 21 221 -42 313 -39 56 -90 88 -162 101 -32 6
-65 16 -73 23 -8 6 -42 51 -75 100 -34 49 -73 95 -87 103 -38 20 -70 57 -151
180 -41 61 -99 137 -130 170 -31 33 -76 86 -99 118 -24 32 -71 88 -105 125
-77 82 -87 100 -79 145 7 46 -11 91 -43 106 -108 49 -202 -75 -115 -153 11
-11 21 -24 21 -30 0 -18 -112 -360 -123 -373 -5 -7 -22 -13 -38 -13 -24 0 -29
4 -29 24 0 40 -36 76 -78 76 -51 0 -82 -32 -82 -85 0 -42 -1 -43 -59 -69 -32
-14 -70 -26 -85 -26 -21 0 -202 63 -214 75 -5 5 171 237 247 325 440 512 963
966 1459 1266 75 45 143 83 150 83 8 1 11 -7 8 -21z m2613 -75 c36 -15 36 -15
11 -23 -38 -10 -250 -21 -250 -12 0 56 144 77 239 35z m-139 -78 c0 -8 1 -15
3 -15 1 0 27 7 57 15 30 8 81 15 113 15 52 0 59 -3 69 -25 6 -14 19 -25 29
-25 23 0 49 -10 49 -20 0 -4 -39 -10 -87 -13 -90 -6 -97 -8 -338 -106 -55 -22
-110 -41 -123 -41 -20 0 -21 3 -12 21 11 20 11 20 -19 4 -45 -23 -41 2 9 50
46 45 50 58 15 49 -40 -10 -30 12 18 41 38 22 168 63 205 64 6 1 12 -6 12 -14z
m329 -111 c17 -14 31 -32 31 -39 0 -20 -63 -29 -105 -15 -24 8 -40 9 -46 3 -7
-7 12 -16 50 -27 37 -10 66 -25 76 -39 14 -20 14 -22 0 -25 -8 -2 -30 6 -49
17 -42 27 -121 51 -164 51 -38 0 -53 24 -30 46 8 9 41 19 72 23 31 4 62 13 68
19 20 20 65 13 97 -14z m2619 -86 c18 -18 15 -48 -6 -48 -21 0 -42 -18 -42
-36 0 -6 8 -11 17 -10 37 3 86 -189 59 -233 -10 -16 -56 25 -93 82 -34 53 -84
100 -176 165 -57 39 -75 57 -65 63 21 14 141 10 194 -6 27 -8 50 -15 50 -15 1
0 5 11 8 25 7 27 34 33 54 13z m-2743 -43 c101 -33 123 -75 40 -75 -42 0 -46
-2 -65 -40 -13 -25 -20 -59 -20 -95 0 -37 -4 -55 -12 -55 -19 0 -78 38 -78 50
0 18 -22 10 -27 -10 -3 -13 -19 -24 -43 -30 -21 -6 -43 -17 -50 -25 -31 -37
-51 2 -66 127 -8 65 11 114 60 154 29 26 34 26 121 21 49 -3 113 -13 140 -22z
m1043 -44 c6 -17 14 -61 17 -98 l6 -68 -42 -25 c-49 -30 -77 -66 -62 -81 7 -7
14 -1 21 20 11 30 47 61 78 65 10 2 24 21 33 46 10 26 25 46 39 51 12 5 22 5
22 1 -1 -29 -50 -193 -65 -215 -16 -25 -16 -29 -1 -46 20 -21 20 -59 1 -84
-16 -22 -75 -67 -87 -67 -4 0 -17 19 -29 43 -12 23 -39 61 -60 83 -28 32 -39
53 -44 90 -11 82 -25 112 -66 145 -37 29 -43 49 -14 49 7 0 32 -16 55 -35 50
-42 61 -44 50 -7 -14 49 -20 57 -50 74 -32 18 -40 38 -14 38 30 0 76 -35 95
-72 11 -21 24 -38 29 -38 22 0 -18 106 -51 136 -24 22 -24 34 -1 34 27 0 70
-50 88 -103 9 -26 20 -49 25 -53 14 -8 11 49 -6 96 -8 23 -15 49 -15 57 0 24
37 -3 48 -36z m-1471 -16 c-3 -20 -1 -49 5 -66 6 -16 7 -33 3 -37 -14 -14 -35
33 -35 79 0 42 6 53 29 58 2 1 1 -15 -2 -34z m2800 -101 c47 -36 101 -93 108
-115 3 -10 -1 -29 -10 -43 -10 -14 -14 -33 -10 -45 7 -24 -18 -89 -43 -107
-26 -21 -173 -94 -187 -94 -13 0 -25 73 -26 155 0 34 -1 37 -11 21 -10 -17
-12 -18 -22 -4 -7 9 -25 18 -41 20 -24 2 -30 8 -30 28 0 20 11 31 53 53 63 34
79 62 64 106 -10 28 -8 32 21 55 29 23 33 24 66 10 19 -8 50 -26 68 -40z
m-2334 -12 c11 -17 -47 -141 -60 -129 -8 8 20 121 31 129 14 10 24 10 29 0z
m-477 -104 c-1 -63 3 -80 28 -123 16 -27 43 -65 60 -83 l31 -33 -25 -20 -25
-19 30 2 c17 2 32 -1 34 -7 8 -17 -41 -35 -94 -35 -46 0 -52 -3 -86 -42 -20
-24 -40 -41 -43 -37 -3 3 2 28 11 56 l16 51 -31 32 c-61 60 -72 158 -27 226
18 29 39 32 32 5 -2 -10 -1 -24 3 -30 4 -8 22 16 44 58 20 39 38 71 40 71 2 0
3 -33 2 -72z m2997 -6 c63 -67 117 -147 117 -175 0 -10 -5 -15 -11 -11 -12 7
-179 230 -179 239 0 16 23 -1 73 -53z m-2753 -87 c-25 -27 -40 -25 -40 6 0 15
7 19 32 19 l31 0 -23 -25z m1379 -95 c30 -38 111 -108 149 -129 14 -8 12 -14
-13 -47 -34 -44 -54 -97 -55 -141 0 -51 17 -39 23 16 7 55 51 135 83 150 15 7
35 6 61 -1 49 -14 155 -5 266 22 75 18 98 19 159 11 90 -12 104 -25 92 -83 -8
-36 -17 -48 -58 -75 -59 -38 -146 -122 -146 -140 0 -8 23 2 56 23 31 20 91 52
133 71 72 33 79 34 124 24 27 -6 97 -11 157 -11 133 0 204 -14 250 -49 l35
-26 -45 -6 -45 -6 44 -1 c54 -2 99 -44 126 -117 32 -91 72 -169 125 -245 28
-41 72 -105 97 -142 l45 -67 -22 -36 c-13 -21 -41 -50 -63 -66 -22 -16 -51
-45 -64 -64 -21 -31 -29 -35 -67 -35 -48 0 -70 18 -104 86 -13 26 -30 44 -45
48 -13 3 -28 16 -34 28 -6 13 -32 48 -59 78 -59 69 -107 144 -123 193 -7 20
-17 37 -23 37 -6 0 -7 -9 -3 -22 25 -80 16 -95 -32 -54 -25 22 -28 30 -28 90
0 57 -2 64 -13 49 -9 -12 -11 -32 -7 -62 l7 -44 -28 7 c-25 7 -26 6 -14 -9 8
-9 31 -25 53 -37 22 -11 35 -23 31 -28 -5 -4 -49 -18 -99 -30 -148 -38 -136
-50 24 -24 66 11 50 -12 -54 -72 -65 -39 -89 -58 -90 -74 -3 -33 -49 -73 -84
-73 -32 0 -71 27 -71 50 0 7 -7 13 -15 13 -19 0 -89 35 -128 64 l-29 21 44 11
43 12 -74 1 c-59 1 -87 7 -147 34 -40 17 -74 35 -74 39 0 4 12 14 28 22 32 18
18 20 -27 5 -42 -15 -104 2 -126 34 -8 12 -15 16 -15 9 0 -8 -9 -12 -22 -10
-18 2 -24 11 -26 35 -3 27 17 60 143 232 140 192 192 249 287 311 41 27 52 48
16 29 -12 -6 -51 -33 -87 -58 -92 -65 -90 -65 -84 -39 4 22 4 23 -11 4 -9 -11
-16 -29 -16 -39 0 -22 -59 -104 -109 -151 -30 -29 -32 -29 -83 -17 -74 17
-125 49 -199 128 -79 84 -167 205 -152 210 54 18 163 129 163 165 0 18 18 6
49 -32z m-1091 -47 c23 -19 42 -38 42 -42 0 -5 -27 -18 -59 -30 -76 -28 -168
-96 -226 -169 -109 -137 -185 -347 -185 -513 0 -63 -6 -69 -68 -69 l-36 0 33
31 c18 16 32 32 29 34 -2 2 -30 -9 -62 -25 -45 -23 -73 -30 -116 -30 -63 0
-120 9 -120 19 0 3 24 19 53 35 53 30 139 97 133 103 -2 2 -51 -21 -110 -52
-76 -40 -116 -55 -143 -54 -43 1 -135 30 -140 45 -1 5 38 30 87 57 85 45 166
104 156 114 -2 3 -53 -22 -113 -56 -132 -73 -184 -89 -219 -66 -13 8 -24 17
-24 19 0 2 34 23 76 46 107 59 255 160 354 244 92 77 123 107 243 234 55 58
85 82 102 82 13 0 26 -3 28 -7 3 -5 -22 -43 -54 -86 -58 -77 -71 -103 -46 -95
11 4 45 45 121 143 16 20 44 43 62 51 19 8 41 26 51 42 37 60 42 63 77 45 17
-8 50 -31 74 -50z m1992 32 c0 -8 18 -24 40 -35 46 -24 50 -37 14 -50 -39 -15
-44 -13 -44 21 0 28 -3 31 -25 27 -28 -6 -30 -1 -15 37 10 26 30 26 30 0z
m463 -37 c4 -15 -1 -30 -15 -45 -23 -25 -84 -41 -98 -27 -16 16 7 37 46 43 30
5 40 11 42 29 4 28 18 28 25 0z m-1565 -33 c4 -16 -12 -34 -30 -35 -10 0 -10
44 -1 54 11 11 28 1 31 -19z m-668 -66 c78 -19 179 -105 238 -203 76 -125 107
-277 99 -483 -10 -256 -93 -448 -252 -575 -77 -63 -150 -90 -238 -90 -57 0
-80 6 -143 36 -131 62 -224 183 -274 356 -31 107 -39 325 -15 441 46 231 169
419 322 495 82 41 163 48 263 23z m2076 -104 c-13 -20 -26 -23 -111 -30 -62
-4 -125 -3 -178 5 l-83 13 -73 -32 c-40 -18 -75 -30 -77 -28 -5 4 30 35 80 70
14 10 26 27 26 37 0 26 15 25 36 -2 16 -22 21 -23 143 -18 105 4 134 9 173 28
25 13 52 30 60 39 11 14 13 12 16 -21 2 -22 -3 -47 -12 -61z m-2776 76 c0 -5
-12 -11 -27 -13 -22 -2 -30 -11 -39 -38 -7 -22 -19 -36 -31 -38 -11 -2 -27
-18 -36 -37 -9 -19 -21 -35 -27 -35 -13 0 -1 25 51 102 21 31 44 58 51 61 22
9 58 7 58 -2z m-3371 -77 c21 -15 22 -21 16 -71 -7 -59 -11 -53 98 -173 l32
-35 -32 -3 c-29 -3 -32 -7 -35 -40 l-4 -37 -18 39 c-17 38 -15 73 4 61 6 -4
10 5 10 19 0 16 -9 32 -26 42 -39 26 -49 7 -52 -99 -2 -90 -2 -91 13 -58 l15
34 32 -49 c31 -50 58 -106 58 -123 0 -5 -20 -9 -45 -9 -68 2 -111 -48 -70 -82
20 -16 38 -2 32 26 -3 20 0 24 18 24 13 0 33 -8 46 -18 l22 -19 -26 -7 c-48
-12 -32 -57 26 -71 26 -7 27 -6 29 36 1 24 0 72 -1 106 -3 59 -2 63 22 72 21
8 26 18 29 53 l3 43 23 -25 c33 -35 62 -94 62 -125 l0 -27 -34 21 c-71 44 -93
20 -83 -90 6 -72 33 -127 77 -156 56 -38 58 -26 4 26 -43 41 -53 57 -58 96 -9
56 1 125 18 125 17 0 111 -99 130 -137 24 -48 21 -116 -7 -149 l-23 -27 -37
18 c-21 10 -55 38 -77 63 -32 36 -40 41 -40 24 0 -51 107 -126 172 -120 30 3
34 7 42 45 12 57 -17 183 -51 224 -22 25 -24 32 -12 40 28 17 39 10 39 -27 0
-21 9 -49 23 -67 24 -34 28 -101 12 -218 -6 -50 -5 -58 17 -84 47 -54 83 5 38
62 -25 32 -25 43 -2 43 16 1 16 2 -2 15 -14 10 -17 21 -12 40 4 16 2 33 -5 41
-9 11 -8 14 5 14 21 0 20 9 -4 40 -23 30 -26 50 -6 50 24 0 56 -50 56 -86 0
-26 9 -41 40 -70 40 -37 51 -64 27 -64 -7 0 -19 6 -25 12 -10 10 -15 10 -22
-2 -11 -18 -5 -42 21 -87 19 -35 11 -45 -12 -16 -13 14 -14 13 -19 -13 -4 -24
-10 -30 -38 -32 -21 -2 -32 -8 -29 -15 3 -7 8 -20 12 -29 11 -28 -20 -32 -60
-8 -36 22 -43 48 -11 42 22 -4 21 33 -2 78 -32 65 -59 35 -39 -43 7 -27 7 -27
-32 -21 -33 5 -41 3 -50 -14 -20 -38 -13 -58 27 -74 38 -16 35 -20 -20 -32
-19 -4 -28 -13 -28 -26 0 -28 17 -25 90 13 44 22 65 28 67 20 12 -35 40 -56
66 -49 37 9 52 40 36 77 -6 16 -10 31 -8 32 2 1 40 20 84 41 108 51 136 48
182 -18 19 -27 33 -56 31 -64 -2 -9 -48 -34 -106 -58 -133 -54 -518 -249 -692
-349 -430 -247 -850 -550 -1108 -799 l-53 -51 -39 45 c-22 25 -40 55 -40 67 0
14 21 40 60 74 32 29 61 58 64 65 5 12 -102 90 -111 80 -3 -2 0 -28 6 -56 13
-62 14 -80 1 -100 -7 -12 -13 -9 -30 13 -15 18 -31 27 -51 27 -22 0 -30 5 -35
25 -8 34 1 42 24 22 10 -10 24 -17 30 -17 22 0 12 19 -23 46 -29 22 -38 24
-50 14 -10 -8 -19 -9 -24 -4 -18 20 -211 354 -211 365 0 14 25 9 106 -21 82
-31 94 -25 94 46 0 53 -55 429 -66 445 -2 4 -17 10 -33 14 -58 13 -67 62 -19
98 23 17 31 19 53 9 21 -10 25 -18 25 -56 l0 -44 42 -7 c24 -4 104 -25 178
-46 172 -50 237 -58 278 -34 40 24 65 7 60 -39 -4 -38 -26 -44 -56 -16 -17 16
-22 17 -22 6 0 -37 61 -61 88 -34 20 20 14 68 -13 100 -44 52 -44 34 5 457 12
101 19 189 17 196 -3 7 -19 15 -36 18 -58 12 -62 76 -5 97 50 19 86 -16 81
-79 -2 -23 12 -29 281 -118 l282 -95 0 -43 c0 -51 16 -68 61 -63 45 4 58 29
36 67 -32 54 -26 81 79 356 24 63 71 217 88 288 5 20 3 27 -9 27 -22 0 -55 36
-55 60 0 23 42 70 62 70 8 0 24 -7 37 -16z m8291 -266 c28 -30 25 -59 -10 -93
-31 -30 -37 -58 -20 -97 5 -13 23 -60 41 -106 31 -82 31 -83 61 -77 21 5 35 2
49 -11 24 -22 25 -21 214 99 l111 71 -1 50 c0 46 3 52 29 65 26 12 33 12 55 0
45 -26 40 -89 -9 -109 -29 -12 -29 -12 -15 -49 8 -20 41 -91 72 -158 50 -107
61 -122 78 -117 11 3 32 8 48 11 25 5 27 3 27 -25 0 -44 22 -52 89 -36 56 13
222 74 273 100 25 13 27 18 22 57 -8 54 11 77 65 77 47 0 61 -14 61 -61 0 -42
-11 -54 -59 -64 l-33 -7 6 -162 c9 -216 9 -216 52 -216 32 0 34 -2 34 -35 0
-23 6 -38 15 -42 16 -6 219 40 261 59 19 9 24 19 24 48 0 45 15 60 59 60 45 0
58 -8 66 -42 10 -38 -10 -66 -50 -74 -46 -8 -58 -33 -84 -160 -32 -162 -36
-208 -16 -227 25 -26 44 -21 66 18 23 39 49 51 78 36 29 -16 35 -48 16 -78
-14 -21 -22 -24 -50 -20 -39 6 -48 -2 -90 -80 -19 -35 -44 -63 -76 -85 -36
-24 -52 -43 -59 -69 -5 -20 -19 -44 -30 -54 -22 -20 -50 -14 -50 12 0 10 -13
25 -29 34 -16 10 -51 50 -79 90 -97 145 -424 395 -675 518 -268 131 -608 202
-821 172 -44 -6 -81 -9 -83 -7 -3 2 19 51 47 108 51 102 51 104 48 186 l-3 82
42 38 c30 26 59 70 97 146 l55 109 -19 25 c-25 32 -25 53 1 86 26 33 70 35 99
4z m-8601 -222 c26 -31 -23 -75 -60 -56 -18 10 -26 50 -12 63 12 12 60 7 72
-7z m3018 -31 c18 -13 26 -13 42 -3 16 10 30 7 88 -19 126 -57 245 -92 354
-103 142 -15 149 -17 149 -40 0 -11 7 -20 15 -20 8 0 15 -4 15 -10 0 -5 -15
-10 -34 -10 -18 0 -39 -7 -46 -15 -11 -13 -8 -15 19 -15 17 0 31 -4 31 -10 0
-16 -188 -12 -280 6 -105 19 -196 54 -283 105 -71 42 -82 60 -26 40 49 -17 46
-6 -10 34 -48 35 -82 75 -64 75 5 0 18 -7 30 -15z m-3081 -90 c4 -15 1 -32 -6
-40 -17 -21 -73 -19 -101 4 l-24 19 30 12 c17 7 39 16 50 20 33 14 44 11 51
-15z m2999 -15 c-5 -16 -2 -20 14 -20 12 0 21 -2 21 -5 0 -2 -23 -34 -50 -71
-52 -70 -117 -190 -108 -200 3 -3 39 44 81 103 41 59 86 119 100 132 l26 23
38 -23 c21 -12 39 -23 41 -24 1 -1 -6 -22 -16 -46 -11 -25 -27 -77 -36 -117
-17 -75 -34 -261 -22 -251 3 3 20 74 36 158 17 84 37 168 45 188 15 34 17 35
58 31 24 -3 56 -12 73 -19 l29 -15 -2 -84 c-3 -80 -2 -83 12 -55 8 17 17 52
21 79 l7 48 50 -5 c65 -8 80 -21 75 -69 -4 -48 15 -45 22 3 l5 34 60 3 c83 3
93 -5 77 -64 -7 -26 -11 -48 -9 -50 1 -2 24 11 50 28 30 19 62 31 85 32 l37 1
50 -98 c61 -119 126 -195 219 -256 l71 -46 -47 -6 c-90 -14 -150 -42 -291
-137 -251 -169 -420 -234 -606 -234 -161 0 -229 24 -467 169 -91 56 -152 86
-200 98 -38 10 -71 20 -73 21 -2 2 30 56 72 121 41 65 112 181 157 258 121
205 172 276 236 334 32 28 60 51 62 51 2 0 0 -9 -3 -20z m2325 -66 c0 -3 -25
-28 -55 -56 -31 -28 -53 -53 -50 -56 3 -3 22 10 43 30 38 37 91 68 114 68 7 0
30 -8 52 -18 l39 -17 -59 -39 c-83 -55 -148 -111 -186 -159 -25 -33 -27 -37
-7 -21 13 11 59 51 101 87 79 68 143 107 176 107 16 0 109 -35 121 -46 2 -2
-2 -11 -9 -19 -12 -14 -8 -15 27 -9 33 5 45 2 61 -14 11 -11 22 -26 24 -33 4
-12 7 -12 21 -1 37 31 62 -26 43 -95 -26 -90 -27 -98 -11 -82 8 8 19 37 26 64
6 28 13 56 15 62 5 21 54 -7 60 -34 6 -22 7 -22 19 -6 13 17 14 16 24 -10 27
-71 -3 -234 -65 -346 -81 -147 -268 -336 -361 -365 -21 -7 -33 -26 -16 -26 15
0 123 66 181 111 74 59 78 50 22 -61 -43 -86 -45 -90 -31 -90 5 0 22 20 38 45
15 25 31 44 34 42 10 -4 101 -119 115 -145 16 -32 1 -65 -51 -111 l-36 -31
-37 29 c-69 56 -229 110 -422 142 -124 21 -374 16 -524 -10 -151 -26 -325 -74
-379 -104 -33 -18 -39 -19 -47 -7 -11 18 -8 32 32 130 75 185 187 387 286 516
192 252 561 584 650 584 12 0 22 -3 22 -6z m1748 -27 c2 -9 -11 -25 -32 -39
-30 -20 -36 -29 -36 -60 0 -47 9 -48 38 -3 31 48 82 73 117 57 38 -18 29 -48
-13 -44 -18 1 -32 -3 -32 -8 0 -6 -12 -22 -26 -35 -34 -31 -13 -33 42 -4 36
20 43 21 69 8 17 -8 31 -22 33 -31 3 -14 -5 -16 -45 -15 -38 2 -48 -1 -51 -15
-3 -14 3 -18 23 -18 38 0 95 -27 95 -44 0 -20 -34 -21 -50 -1 -7 8 -16 15 -20
15 -4 0 -33 -22 -64 -50 -65 -57 -92 -67 -137 -51 -18 6 -49 11 -70 11 -35 0
-69 20 -69 41 0 5 -24 9 -54 9 -100 0 -100 53 0 66 68 8 100 33 142 111 51 96
130 152 140 100z m-6913 -87 c0 -20 -6 -26 -28 -28 -29 -4 -44 16 -33 44 4 10
15 14 33 12 22 -2 28 -8 28 -28z m-735 -39 c0 -49 -4 -65 -26 -90 -14 -17 -32
-31 -40 -31 -13 0 -34 29 -34 48 0 16 79 132 90 132 6 0 10 -26 10 -59z m8928
-36 c-9 -33 -19 -51 -30 -53 -15 -3 -18 4 -18 41 0 35 6 53 28 78 27 33 27 33
30 9 1 -14 -3 -47 -10 -75z m-4568 60 c16 -19 16 -18 -42 -38 -41 -13 -47 -14
-52 0 -3 8 -1 23 4 34 13 23 72 26 90 4z m-4475 -159 c0 -36 -26 -56 -49 -37
-19 16 -21 57 -3 65 30 12 52 1 52 -28z m9448 -111 c399 -83 858 -363 1108
-673 73 -91 108 -157 115 -220 l5 -47 -42 80 c-23 44 -45 82 -48 85 -4 3 -33
40 -64 82 -31 43 -70 84 -87 93 -16 8 -30 12 -30 8 0 -5 42 -57 92 -118 116
-140 146 -206 122 -269 -14 -37 -31 -20 -105 108 -44 75 -269 292 -269 259 0
-5 60 -70 134 -144 149 -150 188 -209 190 -293 2 -75 -22 -72 -58 6 -52 115
-299 340 -533 486 -111 70 -298 163 -413 207 -262 100 -538 127 -660 65 l-40
-20 0 31 c0 20 9 40 28 59 41 41 118 54 277 47 179 -8 343 -50 594 -154 45
-19 85 -32 88 -29 9 9 -199 104 -294 135 -155 51 -251 66 -418 65 -82 0 -169
-5 -192 -11 -24 -6 -43 -10 -43 -8 0 1 9 23 20 48 l20 45 95 18 c62 12 92 21
85 28 -15 15 -92 11 -148 -9 -28 -10 -55 -16 -58 -12 -12 11 16 35 59 52 106
40 280 40 470 0z m-7507 -198 c59 -77 136 -239 159 -332 10 -38 21 -133 25
-210 9 -190 15 -201 208 -432 54 -65 102 -126 105 -136 13 -36 -18 -83 -81
-121 -34 -20 -64 -45 -67 -56 -3 -10 4 -41 15 -68 44 -102 13 -139 -129 -155
-70 -7 -91 -13 -91 -25 0 -12 10 -14 63 -7 34 5 85 9 112 9 49 1 50 0 53 -31
2 -23 -5 -40 -27 -66 -35 -40 -38 -69 -16 -162 29 -120 16 -169 -53 -204 -90
-44 -149 -50 -392 -41 -86 4 -111 2 -137 -13 -72 -39 -109 -124 -189 -442 -42
-166 -45 -186 -39 -262 5 -67 3 -83 -8 -83 -7 0 -65 32 -128 72 -63 39 -154
92 -204 117 -80 41 -92 51 -112 91 -12 25 -27 73 -34 106 -16 78 -2 117 50
144 20 10 50 33 67 52 74 77 89 157 52 265 l-25 71 29 58 c19 40 27 68 24 87
-8 41 17 35 76 -18 79 -71 93 -56 21 21 -72 77 -114 154 -121 225 -3 37 -9 49
-21 49 -9 0 -25 9 -34 21 -27 31 -59 21 -84 -29 l-21 -43 -60 50 c-66 55 -102
97 -102 117 0 17 26 18 37 2 5 -9 10 -1 13 22 4 27 13 39 45 57 50 28 57 28
73 2 11 -18 11 -23 -4 -33 -25 -19 -8 -36 37 -36 46 0 48 9 12 57 l-27 35 27
22 c15 12 40 29 57 39 l29 18 15 -35 c16 -38 41 -56 80 -56 23 0 25 -2 16 -25
-9 -23 -8 -24 15 -13 33 15 37 41 14 112 -30 96 -27 107 38 165 31 28 60 51
65 51 4 0 23 21 42 46 37 48 63 118 92 249 17 76 21 83 80 141 134 131 259
384 289 587 4 26 11 45 15 42 5 -3 30 -33 56 -68z m3263 -42 c-123 -196 -259
-487 -259 -554 0 -35 -26 -51 -81 -51 -47 0 -46 24 4 123 94 187 137 369 103
435 -28 54 -23 59 57 64 73 5 183 44 208 74 6 8 15 12 19 9 5 -3 -18 -48 -51
-100z m-330 -20 c22 -19 33 -40 41 -81 11 -54 11 -59 -18 -118 -17 -33 -33
-75 -36 -92 -7 -41 -78 -206 -108 -250 l-23 -34 -117 0 -118 0 0 95 c0 89 2
99 40 181 34 73 43 86 60 81 35 -9 32 11 -10 56 -22 24 -40 47 -40 51 0 11
141 98 189 117 65 26 104 24 140 -6z m4471 -60 c128 -29 281 -83 385 -138 93
-48 100 -54 103 -85 2 -18 -4 -57 -12 -86 -22 -73 -20 -131 6 -223 42 -150 21
-324 -55 -468 -58 -109 -231 -266 -376 -340 -33 -17 -35 -17 -48 1 -7 10 -22
49 -34 86 -25 84 -52 108 -221 201 -124 67 -167 79 -208 57 -14 -7 -19 -5 -23
10 -3 13 -14 20 -30 20 -13 0 -36 9 -51 21 -54 42 -29 121 92 290 34 47 69
102 77 122 19 46 19 101 0 117 -13 11 -15 6 -15 -34 0 -25 -2 -46 -5 -46 -4 0
-20 7 -37 16 -17 9 -52 19 -77 23 l-46 6 -3 48 c-4 57 9 65 63 43 53 -23 92
-21 106 5 22 41 -18 85 -93 103 -18 4 -28 13 -28 24 0 15 85 193 114 241 12
19 315 9 416 -14z m-6018 -65 c80 -41 148 -90 148 -106 0 -8 -44 -46 -97 -87
-83 -62 -103 -82 -133 -137 -40 -72 -136 -200 -152 -200 -15 0 -122 106 -169
166 -33 43 -40 59 -35 80 10 40 100 128 166 163 50 27 65 41 86 82 13 27 33
58 44 69 23 23 48 17 142 -30z m-3914 -62 c30 -30 -7 -105 -45 -91 -39 14 -56
66 -31 91 7 7 24 12 38 12 14 0 31 -5 38 -12z m5062 -67 c0 -5 -11 -34 -25
-66 -20 -45 -27 -79 -30 -151 -2 -52 -6 -98 -9 -103 -3 -5 -55 -21 -115 -36
-84 -21 -132 -40 -208 -82 -148 -84 -304 -163 -323 -163 -9 0 -31 -16 -50 -35
-32 -33 -203 -125 -233 -125 -34 0 -337 265 -337 295 0 7 28 46 63 87 34 41
76 100 92 133 24 47 44 69 105 114 41 30 77 58 80 62 8 11 165 -9 255 -32 172
-45 294 -36 494 39 100 36 207 70 229 71 6 1 12 -3 12 -8z m-4880 -21 c0 -5
-12 -10 -26 -10 -14 0 -23 4 -19 10 3 6 15 10 26 10 10 0 19 -4 19 -10z
m11240 -170 c0 -30 -37 -80 -60 -80 -22 0 -6 54 28 93 22 25 32 21 32 -13z
m160 -235 c146 -386 268 -879 324 -1315 34 -266 38 -320 25 -320 -6 0 -68 30
-139 67 l-128 68 -11 80 c-9 64 -22 103 -67 193 l-56 113 6 89 c8 101 7 105
-66 195 -53 66 -68 105 -68 178 0 60 -26 112 -84 169 -24 23 -54 63 -66 88
-13 25 -45 65 -71 90 -27 26 -49 51 -49 57 0 6 11 24 24 40 13 15 33 51 46 80
12 28 39 68 61 88 21 20 39 42 39 50 0 8 7 33 16 55 12 30 28 46 65 67 41 22
51 33 60 67 6 23 14 48 16 56 6 18 68 -111 123 -255z m-5040 211 c85 -18 169
-50 217 -83 32 -21 35 -22 19 -4 -25 28 -19 31 34 20 104 -23 177 -86 163
-140 -7 -27 -53 -49 -103 -49 -47 0 -94 -21 -104 -46 -6 -15 -8 -15 -24 -1
-16 15 -17 11 -13 -64 4 -99 -23 -193 -77 -264 -50 -66 -70 -70 -39 -9 100
198 61 387 -95 454 -43 19 -65 22 -129 18 -65 -4 -86 -10 -131 -37 -29 -18
-66 -50 -81 -72 -16 -21 -33 -39 -38 -39 -12 0 -55 -94 -70 -155 -20 -80 -39
-48 -39 70 0 52 -3 66 -12 57 -11 -11 -6 -64 18 -206 l7 -40 -39 23 c-37 22
-38 22 -11 1 33 -26 33 -41 6 -114 -19 -48 -25 -56 -48 -56 -15 0 -35 6 -46
13 -11 7 -33 19 -50 26 -29 12 -29 12 -12 -6 9 -11 38 -30 63 -42 l46 -24 -5
-44 c-6 -59 -17 -68 -59 -54 -26 9 -30 9 -20 -1 21 -21 13 -28 -33 -28 -39 0
-51 6 -91 42 -38 35 -45 47 -40 69 4 20 -2 33 -24 54 -32 30 -64 99 -75 160
l-7 40 24 -22 c36 -34 44 -28 14 12 -41 53 -56 98 -56 165 0 45 4 60 14 60 8
0 49 -33 92 -72 89 -83 69 -47 -30 54 -68 69 -76 90 -52 123 15 21 54 24 132
11 27 -4 33 -3 18 3 -11 5 -46 12 -77 16 -51 7 -56 9 -47 26 14 25 44 40 110
55 30 6 114 28 185 48 72 20 166 42 210 50 105 19 322 20 405 2z m615 -126
c16 -16 27 -31 24 -33 -5 -4 -107 -27 -120 -27 -18 0 -8 25 23 57 18 18 35 33
38 33 3 0 19 -13 35 -30z m2340 -9 c-3 -12 -38 -70 -77 -129 -118 -178 -131
-223 -78 -272 17 -15 30 -32 30 -37 0 -14 -78 -48 -88 -39 -4 4 -7 62 -7 129
1 114 3 127 33 201 18 43 37 100 43 127 10 46 29 59 29 19 0 -17 18 -30 45
-30 7 0 23 16 35 36 22 39 48 35 35 -5z m-4156 -31 c82 -9 102 -21 84 -48 -11
-17 -19 -18 -63 -7 -21 6 -19 3 9 -15 33 -21 33 -23 28 -72 -4 -28 -8 -52 -10
-54 -2 -2 -30 8 -63 21 -60 25 -96 32 -78 16 5 -5 34 -18 64 -29 64 -23 80
-45 80 -114 0 -61 -19 -73 -107 -65 -35 4 -63 3 -63 -2 0 -9 73 -21 131 -21
21 0 40 -4 43 -8 3 -5 -15 -24 -39 -42 -53 -40 -51 -50 4 -23 46 23 54 18 66
-34 6 -29 3 -34 -32 -56 -58 -37 -163 -89 -208 -103 -22 -7 -31 -13 -20 -13
38 -1 91 19 178 69 48 27 90 50 92 50 3 0 3 -10 0 -22 -4 -17 0 -25 17 -33 33
-14 37 -63 6 -88 -53 -43 -201 -137 -216 -137 -8 0 -13 -3 -9 -6 14 -15 113
33 193 93 l87 66 -7 -39 c-7 -34 -6 -36 8 -25 18 15 46 8 46 -11 0 -15 -124
-122 -181 -156 -20 -12 -61 -27 -90 -33 -51 -10 -64 -8 -228 40 -96 28 -176
53 -179 55 -2 3 9 8 24 12 85 19 249 66 265 75 21 11 26 21 7 14 -7 -3 -79
-22 -160 -44 -126 -33 -153 -38 -190 -30 -24 5 -116 46 -205 90 l-162 80 -32
57 c-71 127 -112 166 -204 198 -27 9 67 40 153 49 62 7 71 12 52 31 -18 18
204 190 320 249 69 35 168 65 240 74 72 8 234 4 349 -9z m-5185 -32 c48 -33
96 -81 96 -95 0 -8 13 -22 30 -31 21 -12 30 -25 30 -43 0 -26 51 -112 91 -154
17 -17 23 -18 50 -8 30 12 31 12 24 -15 -3 -15 -22 -65 -42 -110 -50 -120 -53
-172 -14 -306 35 -122 38 -183 15 -263 -10 -36 -14 -72 -10 -100 5 -40 2 -48
-39 -104 -70 -95 -78 -146 -45 -267 24 -86 25 -125 5 -183 -9 -24 -14 -53 -11
-65 4 -15 -6 -31 -35 -58 -73 -70 -80 -93 -77 -274 l3 -159 -39 -43 c-66 -73
-80 -117 -73 -237 4 -62 12 -116 21 -135 15 -30 15 -32 -15 -66 -17 -20 -38
-50 -45 -68 -32 -77 -6 -185 62 -255 l35 -36 -22 -56 c-19 -50 -20 -62 -10
-104 23 -91 97 -153 181 -153 48 0 46 9 24 -168 -13 -104 -15 -219 -12 -642 3
-474 -3 -670 -20 -670 -4 0 -14 15 -21 33 -8 17 -39 84 -69 147 -232 495 -413
1128 -491 1720 -49 368 -66 899 -41 1258 39 537 141 1049 308 1542 73 214 68
203 99 195 15 -3 41 -16 57 -27z m6376 -8 c77 -40 125 -124 124 -220 0 -56 -6
-78 -44 -155 -43 -89 -43 -90 -49 -55 -6 34 -7 32 -50 -65 -24 -55 -50 -107
-57 -116 -8 -8 -14 -25 -14 -37 0 -29 -7 -28 -75 8 -44 23 -70 30 -114 30 -31
0 -63 -5 -71 -11 -11 -7 1 -8 41 -4 41 5 65 3 95 -10 l39 -18 -40 -9 c-84 -18
-143 -39 -155 -53 -16 -19 -15 -19 48 5 75 29 159 27 222 -5 28 -14 50 -29 50
-33 0 -4 -12 -24 -26 -45 -14 -21 -32 -60 -40 -87 -9 -29 -21 -51 -32 -54 -79
-23 -337 -45 -386 -32 -75 19 -73 199 3 421 39 111 122 282 160 329 31 39 35
60 6 36 -9 -7 -13 -15 -11 -17 3 -3 -6 -17 -19 -31 -34 -36 -40 -23 -20 40 19
58 74 123 140 166 79 52 199 61 275 22z m774 -24 c53 -31 72 -33 79 -6 8 30
47 27 47 -4 0 -19 -6 -25 -26 -28 l-25 -3 26 -35 c14 -19 32 -57 40 -84 16
-54 20 -166 6 -166 -13 0 -82 110 -76 120 4 6 0 10 -8 10 -9 0 -34 22 -56 49
-23 27 -80 76 -126 107 -97 66 -96 77 7 71 49 -3 79 -11 112 -31z m-474 -51
c0 -15 -72 -145 -80 -145 -24 0 1 85 37 122 25 26 43 36 43 23z m275 -107
c147 -109 193 -167 229 -287 19 -66 20 -71 3 -71 -8 0 -19 17 -25 39 -27 89
-177 274 -278 343 -19 13 -36 29 -39 36 -7 18 36 -6 110 -60z m3686 42 c49
-27 65 -147 31 -244 -14 -42 -33 -64 -122 -142 -111 -98 -144 -112 -182 -77
-26 23 -23 70 13 202 39 149 50 168 132 239 40 34 89 42 128 22z m-3811 -68
c-13 -2 -29 -10 -37 -17 -11 -11 -9 -14 9 -17 21 -3 20 -5 -12 -26 -43 -27
-70 -28 -70 -4 0 23 44 83 73 99 19 11 25 9 41 -10 18 -22 18 -22 -4 -25z
m-163 -34 c33 -15 43 -26 43 -50 0 -11 -7 -18 -18 -18 -43 0 -122 -126 -122
-195 0 -22 -4 -25 -35 -25 -48 0 -46 18 14 132 26 51 54 110 60 131 14 41 18
43 58 25z m389 -110 c64 -86 106 -175 93 -200 -12 -22 -46 -23 -73 -3 -26 20
-53 11 -98 -33 -45 -43 -50 -62 -9 -31 30 22 66 20 59 -4 -5 -15 -64 -45 -108
-54 -31 -6 -34 -5 -22 10 11 13 10 17 -7 26 -13 7 -18 17 -14 27 11 28 -18 61
-85 95 -37 19 -69 35 -71 37 -9 5 38 88 74 129 41 48 74 61 157 62 l56 1 48
-62z m407 24 c54 -31 43 -49 -83 -129 -111 -70 -149 -80 -97 -25 31 34 47 82
47 140 l0 45 51 -6 c28 -4 65 -15 82 -25z m-3359 -68 c9 -3 16 -12 16 -20 0
-8 10 -14 24 -14 16 0 33 -11 49 -32 34 -46 69 -118 58 -118 -6 0 -47 25 -91
55 -44 30 -83 55 -86 55 -3 0 -26 15 -51 32 -43 31 -44 33 -21 39 31 9 83 10
102 3z m5209 -114 c10 -11 29 -20 46 -20 16 0 55 -14 87 -31 33 -18 72 -38 87
-47 21 -10 26 -17 18 -25 -8 -8 -19 -6 -40 6 -27 16 -29 16 -35 1 -5 -14 -17
-16 -69 -12 -34 3 -80 14 -102 24 l-40 18 33 4 c52 6 37 19 -28 24 -82 6 -92
19 -38 51 52 32 59 32 81 7z m-2833 -10 c0 -10 -14 -35 -31 -55 -31 -35 -31
-35 -8 -36 13 -1 29 0 34 1 6 1 7 -2 3 -6 -4 -4 -3 -13 2 -19 8 -10 -4 -15
-53 -24 -35 -6 -72 -11 -83 -11 -18 1 -18 1 1 16 16 12 17 17 7 23 -11 6 -10
10 4 15 13 5 15 9 6 15 -9 5 -8 12 4 29 17 24 40 29 47 10 2 -7 14 4 27 25 24
41 40 48 40 17z m60 -30 c0 -12 -33 -30 -56 -30 -16 0 -16 1 1 20 19 21 55 27
55 10z m223 -32 c14 -18 32 -47 41 -65 14 -28 14 -32 0 -37 -27 -10 -34 -7
-31 16 1 17 -8 27 -35 43 -30 16 -38 26 -38 48 0 38 32 36 63 -5z m307 -3 c22
-12 23 -14 8 -20 -24 -9 -48 1 -48 20 0 18 8 18 40 0z m2158 -50 c15 -47 44
-75 80 -75 25 0 25 1 6 15 -17 13 -10 14 70 15 74 0 87 -2 82 -15 -8 -22 15
-19 80 10 31 14 58 25 59 25 6 0 25 -100 25 -127 0 -15 -9 -46 -21 -70 -38
-79 -169 -131 -214 -86 -17 16 -17 69 0 119 8 26 -14 34 -97 34 -55 0 -58 -1
-58 -25 0 -32 -26 -95 -38 -95 -26 0 -31 30 -25 173 5 128 8 147 22 145 9 -2
22 -21 29 -43z m1156 -11 c37 -13 46 -20 41 -33 -4 -9 -11 -37 -17 -64 -14
-59 1 -155 31 -192 19 -25 19 -27 1 -78 -36 -104 19 -220 147 -308 24 -17 43
-34 43 -38 0 -5 -25 -46 -56 -92 -30 -46 -73 -122 -94 -168 -33 -69 -55 -99
-127 -171 -176 -175 -395 -288 -598 -309 -54 -6 -104 -17 -123 -28 l-32 -18
-23 27 c-12 14 -45 33 -74 43 -61 19 -99 54 -124 113 -25 57 -24 60 8 69 l28
6 -28 10 c-33 11 -35 32 -8 108 24 71 101 223 108 215 3 -3 10 -29 14 -57 5
-29 14 -57 20 -63 9 -8 10 18 6 109 -3 66 -7 126 -9 133 -2 8 34 27 101 52
237 90 454 245 575 410 81 109 136 236 136 313 0 15 1 27 3 27 2 0 25 -7 51
-16z m-8866 -116 c18 -18 14 -46 -7 -58 -29 -15 -38 -12 -45 14 -12 47 21 75
52 44z m4882 -4 c0 -12 7 -14 31 -9 29 7 31 5 27 -13 -6 -20 -5 -20 28 -5 44
21 54 10 22 -25 -14 -15 -30 -37 -37 -48 -8 -17 -28 -25 -97 -38 -121 -22
-124 -18 -63 73 49 73 89 103 89 65z m-664 -38 c3 -14 3 -30 -1 -35 -4 -7 -50
-11 -116 -11 -71 0 -108 4 -104 10 3 6 15 10 26 10 11 0 19 7 19 16 0 15 -10
16 -82 11 -73 -5 -81 -4 -64 9 15 11 56 14 168 14 l148 0 6 -24z m893 -22 c6
-5 -57 -30 -96 -38 -29 -7 -31 -5 -26 14 7 28 39 40 83 33 19 -3 37 -7 39 -9z
m-889 -69 c0 -30 -4 -36 -32 -44 l-33 -9 37 -1 c33 -1 57 -15 45 -27 -6 -6
-468 24 -475 31 -3 2 3 7 12 11 13 5 14 9 5 20 -10 12 0 14 55 14 42 0 65 4
61 10 -3 6 -21 10 -40 10 -19 0 -37 5 -40 10 -4 7 65 10 199 10 l206 0 0 -35z
m-4208 -36 c11 -6 29 -31 39 -55 16 -35 18 -51 10 -79 -12 -43 -58 -125 -71
-125 -9 0 -61 63 -79 97 -19 36 -13 90 14 133 26 42 49 49 87 29z m9836 -565
c142 -48 252 -100 345 -163 66 -44 77 -56 84 -88 13 -62 9 -713 -5 -868 -54
-582 -145 -1013 -332 -1560 -34 -99 -69 -202 -78 -228 -20 -59 -41 -59 -58 1
-7 23 -24 120 -38 215 -13 94 -51 300 -84 457 -76 361 -102 521 -111 690 -17
345 29 593 162 860 78 157 76 151 37 115 -63 -59 -151 -280 -196 -492 -54
-256 -55 -470 -4 -771 17 -100 30 -188 27 -195 -8 -22 -68 126 -111 273 -61
207 -85 244 -46 71 30 -137 67 -244 136 -397 66 -150 98 -243 92 -272 -3 -13
-15 -6 -54 33 -27 28 -69 77 -93 110 -25 33 -46 54 -48 48 -8 -23 52 -109 133
-189 79 -79 81 -82 87 -140 3 -32 22 -138 42 -234 20 -96 39 -214 42 -261 5
-78 3 -93 -22 -158 -37 -97 -166 -354 -261 -521 -72 -127 -260 -418 -372 -576
l-50 -70 -89 -24 c-161 -42 -256 -80 -470 -187 -117 -59 -215 -104 -218 -101
-3 3 25 39 62 80 193 212 286 527 383 1293 40 312 160 1105 211 1394 160 901
351 1450 613 1764 62 74 128 127 158 127 11 0 68 -16 126 -36z m-1996 -213
c-27 -36 -46 -124 -39 -181 11 -95 66 -164 168 -215 79 -39 81 -46 59 -153
-10 -49 -23 -99 -29 -110 -12 -22 -15 -80 -4 -68 4 3 30 68 58 143 l50 137 80
13 c226 37 439 135 591 273 118 107 86 22 -35 -92 -124 -118 -272 -188 -484
-229 l-117 -22 -16 -56 c-88 -306 -86 -301 -128 -301 -17 0 -18 5 -12 56 7 64
-7 66 -25 4 -13 -43 -36 -52 -59 -25 -14 17 -4 54 56 207 44 112 45 144 4 153
-41 9 -124 73 -154 118 -67 104 -59 241 22 377 24 41 27 43 30 21 2 -13 -5
-35 -16 -50z m-450 -148 c-170 -428 -272 -908 -367 -1728 -83 -715 -115 -932
-190 -1290 -54 -257 -85 -366 -134 -470 -34 -73 -97 -162 -108 -152 -2 3 15
65 37 138 82 265 126 492 179 914 63 498 121 1296 121 1667 0 92 5 201 11 243
8 51 8 80 2 86 -14 14 -32 -133 -40 -328 -7 -188 -25 -239 -33 -93 -3 62 -9
95 -17 98 -19 6 -17 -87 4 -189 18 -95 20 -254 4 -374 -6 -44 -18 -186 -26
-315 -35 -536 -83 -987 -112 -1048 -41 -86 -269 -280 -408 -347 -211 -102
-383 -81 -613 71 -139 93 -362 322 -362 372 0 8 -6 23 -14 31 -13 15 -7 20 59
54 194 100 378 406 491 817 35 124 35 126 32 308 -2 100 -2 182 0 182 10 0 54
-118 75 -200 17 -66 27 -89 32 -77 4 10 2 45 -5 78 -7 33 -10 63 -6 66 10 11
75 -27 103 -62 58 -68 128 -259 159 -435 8 -46 19 -147 24 -224 14 -195 34
-207 27 -16 -4 106 -13 187 -37 304 -17 87 -29 161 -26 164 3 3 6 -2 6 -10 0
-9 7 -18 15 -22 21 -8 90 -153 122 -256 31 -102 43 -119 43 -62 0 82 -100 297
-199 428 -34 45 -61 86 -61 93 0 17 30 13 85 -13 47 -22 108 -80 198 -186 l37
-45 -15 39 c-26 66 -93 145 -165 192 -19 12 -72 37 -118 54 -87 34 -119 63
-107 99 10 32 53 57 150 86 123 36 126 38 77 44 l-44 6 159 215 c227 308 222
300 232 356 13 70 232 451 344 599 38 50 137 137 197 173 51 30 223 103 229
97 2 -3 -19 -62 -47 -132z m-7266 -159 c298 -172 383 -217 423 -219 51 -3 64
-12 57 -41 -5 -18 2 -33 30 -64 20 -22 34 -43 30 -47 -19 -19 -259 126 -571
347 -148 104 -155 110 -134 110 9 0 83 -39 165 -86z m5144 1 c15 -44 54 -139
88 -211 75 -161 109 -261 124 -364 10 -67 9 -90 -5 -152 -21 -87 -21 -88 -4
-88 23 0 45 -32 73 -105 30 -81 29 -110 -12 -295 -29 -128 -106 -371 -129
-407 -16 -23 -35 -31 -35 -13 0 5 -48 107 -106 227 -59 120 -109 233 -113 252
-6 31 -12 36 -92 70 -47 21 -103 50 -125 66 -130 97 -328 284 -381 360 -20 29
-83 205 -97 271 -10 44 14 63 49 40 30 -20 50 -58 60 -113 9 -54 45 -107 115
-168 30 -27 58 -53 62 -59 4 -6 10 -8 13 -4 15 14 -9 51 -58 90 -62 49 -68 57
-96 133 -44 117 -69 147 -136 157 -24 4 -86 112 -82 143 4 40 45 31 93 -21 26
-28 44 -41 44 -31 0 32 -14 49 -72 88 -69 47 -90 81 -66 106 41 41 111 -10
265 -192 33 -38 85 -90 116 -115 66 -52 74 -70 51 -104 -9 -15 -13 -33 -10
-43 6 -14 9 -12 22 12 8 17 26 44 39 61 l24 31 -47 31 c-54 35 -116 98 -226
231 -101 122 -116 161 -63 161 42 0 122 -58 254 -182 135 -128 207 -176 320
-212 60 -20 110 -18 105 3 -2 7 -7 45 -12 82 -5 45 -18 85 -36 117 -51 87 -29
238 33 230 23 -3 29 -13 53 -83z m3491 -28 c-16 -34 -50 -84 -74 -112 -24 -27
-54 -69 -65 -92 -12 -22 -33 -50 -48 -62 -15 -11 -34 -35 -43 -53 -19 -40 -61
-52 -61 -18 0 28 314 435 318 414 2 -9 -10 -44 -27 -77z m-8833 34 c3 -29 1
-32 -20 -29 -26 3 -35 32 -17 54 18 22 34 12 37 -25z m7832 -7 c6 -14 10 -39
10 -55 0 -24 4 -29 25 -29 32 0 32 -16 -3 -71 -52 -80 -59 -80 -67 5 -4 43 -3
82 3 93 5 10 7 33 5 51 -6 39 13 44 27 6z m-7740 -34 c24 -24 25 -34 4 -55
-14 -14 -19 -14 -37 -2 -37 24 -45 46 -23 63 26 18 32 18 56 -6z m7678 -225
l-3 -60 -20 30 c-25 37 -29 161 -5 190 14 17 16 13 23 -41 4 -32 6 -86 5 -119z
m-7558 146 c13 -26 13 -61 -1 -61 -32 0 -77 49 -64 70 11 17 54 11 65 -9z
m8468 -2 c2 -9 -9 -31 -24 -49 -23 -27 -29 -30 -39 -17 -8 11 -10 6 -10 -25 0
-30 -6 -45 -24 -59 -37 -30 -49 -24 -62 37 -13 56 -13 57 15 80 30 26 56 31
56 12 1 -7 8 0 16 15 12 22 21 28 42 25 15 -2 28 -10 30 -19z m-730 -31 c20
-20 13 -50 -36 -148 -54 -108 -72 -121 -99 -65 -17 36 -17 37 15 98 17 34 41
77 52 95 20 33 47 41 68 20z m-8040 -61 c48 -35 121 -86 162 -114 42 -28 100
-72 130 -98 74 -63 115 -83 140 -67 30 18 35 16 68 -37 42 -69 93 -94 170 -85
l57 6 34 -42 c45 -56 175 -158 236 -185 28 -13 85 -30 128 -39 43 -8 87 -20
98 -26 40 -22 284 -349 466 -627 173 -263 275 -491 304 -673 16 -104 6 -331
-20 -445 -12 -49 -51 -175 -87 -280 -167 -480 -157 -446 -160 -588 -4 -209 -3
-209 -148 -278 -80 -39 -89 -41 -98 -25 -9 15 -13 14 -42 -12 -25 -22 -44 -29
-81 -30 -26 -1 -51 -4 -55 -7 -10 -6 -20 20 -20 54 0 38 -28 115 -89 244 -82
175 -103 258 -171 687 -22 140 -47 290 -56 333 -14 70 -14 86 0 176 20 124 21
369 2 521 -51 403 -187 739 -386 953 -114 122 -273 217 -365 217 -52 0 -42
-14 23 -34 200 -63 373 -226 500 -473 86 -168 140 -337 179 -558 21 -123 26
-566 6 -600 -14 -24 -10 -35 -59 165 -37 155 -123 435 -144 468 -17 26 -2 -55
16 -93 18 -36 80 -280 128 -505 65 -308 170 -898 164 -928 -4 -21 -163 274
-248 461 -34 75 -66 137 -71 137 -5 0 -9 -2 -9 -5 0 -3 148 -340 223 -507 15
-31 71 -140 127 -242 115 -212 176 -344 185 -401 5 -28 1 -59 -14 -103 l-21
-62 35 -68 c58 -113 65 -248 29 -562 -29 -249 -147 -762 -177 -768 -15 -3
-225 133 -381 246 -118 85 -313 242 -446 356 -245 212 -627 606 -661 681 -16
36 -50 224 -78 425 -14 96 -37 343 -51 530 -24 333 -43 536 -51 550 -6 10 -8
0 -9 -31 0 -84 -13 -200 -21 -192 -10 11 -84 332 -110 478 -27 153 -37 434
-20 572 36 286 123 532 266 748 29 44 69 97 89 118 53 54 30 46 -36 -13 -155
-138 -277 -425 -345 -810 -13 -79 -18 -155 -18 -310 0 -235 8 -281 102 -623
75 -273 90 -357 103 -546 6 -90 28 -284 49 -430 52 -354 55 -380 39 -361 -47
56 -272 364 -346 473 -160 238 -300 477 -313 536 -5 22 -2 91 7 176 12 114 13
228 8 615 -5 332 -3 519 5 620 16 189 13 182 57 164 59 -25 114 5 114 63 0 18
-4 33 -10 33 -5 0 -10 -3 -10 -7 -1 -48 -64 -31 -86 23 -17 40 -13 74 13 113
l16 25 16 -45 c12 -32 23 -45 39 -47 37 -6 52 15 52 73 0 66 22 95 99 134 104
53 123 91 114 230 -6 89 -6 90 24 119 21 21 46 33 89 42 51 10 66 19 111 65
69 71 81 110 64 213 -14 88 -9 112 38 156 34 33 63 36 134 16 44 -13 53 -13
105 7 31 12 58 22 60 22 1 1 42 -27 90 -62z m412 16 c26 -34 22 -59 -10 -55
-45 5 -65 43 -38 70 17 17 24 15 48 -15z m8178 -37 c6 -35 14 -70 17 -78 4
-10 -13 -33 -45 -64 -70 -67 -74 -67 -67 -3 4 30 9 85 13 122 5 57 10 70 28
77 37 15 41 11 54 -54z m-468 20 c0 -12 -18 -76 -40 -141 -22 -65 -40 -127
-40 -137 0 -27 -35 -22 -59 8 -12 15 -21 33 -21 41 0 14 105 228 122 250 14
17 38 4 38 -21z m361 -3 c15 -40 -5 -200 -29 -233 -20 -27 -68 -58 -76 -50 -3
3 4 62 14 130 11 69 20 128 20 133 0 11 39 47 50 47 6 0 15 -12 21 -27z m-91
0 c0 -35 -44 -291 -52 -300 -13 -16 -86 -38 -95 -30 -6 7 50 263 68 315 7 17
16 22 44 22 19 0 35 -3 35 -7z m-7874 -56 c29 -26 28 -57 -2 -57 -35 0 -69 52
-47 73 11 11 21 8 49 -16z m112 -85 c4 -37 -15 -50 -47 -32 -38 20 -19 74 24
68 15 -2 21 -12 23 -36z m7182 4 c0 -35 20 -86 53 -134 27 -40 28 -47 19 -85
-8 -29 -8 -45 0 -54 14 -17 43 -16 58 2 17 20 43 19 70 -3 l22 -18 -25 -37
c-40 -59 -42 -86 -10 -164 33 -80 52 -88 90 -42 15 17 42 38 60 45 40 17 50
49 36 117 -11 54 -9 55 64 72 29 6 34 4 43 -19 17 -46 75 -27 85 28 5 27 13
35 33 39 64 13 101 32 107 55 5 20 63 57 73 47 7 -7 -633 -1045 -643 -1042
-28 9 -99 311 -130 547 -17 131 -39 629 -29 655 9 23 24 18 24 -9z m80 -37 c0
-26 -3 -30 -22 -27 -24 3 -35 35 -24 64 10 27 46 -2 46 -37z m720 -24 c0 -27
-51 -85 -75 -85 -10 0 -35 -16 -57 -36 -29 -26 -46 -34 -61 -30 -15 4 -30 -3
-48 -20 -42 -40 -209 -67 -209 -34 0 5 -12 3 -26 -5 -35 -18 -69 -5 -69 26 0
20 5 24 25 22 123 -12 166 -7 259 27 78 29 105 46 169 102 41 37 79 65 84 62
4 -3 8 -16 8 -29z m-677 -52 c8 -17 7 -27 -2 -36 -18 -18 -45 4 -49 41 -3 27
-1 30 18 25 12 -3 27 -17 33 -30z m-7138 -17 c19 -29 10 -58 -19 -54 -22 3
-51 51 -41 68 11 18 44 10 60 -14z m180 -12 c14 -6 45 -53 45 -69 0 -4 -10 -5
-21 -3 -26 4 -64 51 -55 67 8 13 9 13 31 5z m7005 -19 c33 -17 72 -63 64 -76
-18 -30 -104 25 -104 67 0 28 2 29 40 9z m-7089 -18 c39 -26 47 -69 16 -75
-27 -5 -67 36 -67 70 0 34 7 35 51 5z m106 -69 c28 -27 33 -81 6 -71 -31 11
-53 35 -53 58 0 40 14 44 47 13z m105 -75 c9 -10 21 -30 27 -46 17 -43 -13
-35 -49 15 -34 47 -40 74 -12 59 9 -5 25 -17 34 -28z m7002 -4 c22 -26 25 -37
20 -72 -4 -23 -12 -48 -19 -56 -18 -18 -66 -6 -72 19 -4 16 -9 18 -24 9 -25
-13 -25 1 2 54 23 45 47 77 60 77 4 0 19 -14 33 -31z m-27 -166 c7 -18 -21
-48 -36 -39 -6 4 -11 20 -11 36 0 24 3 27 21 23 11 -3 23 -12 26 -20z m-2710
-550 c14 -32 28 -74 31 -93 3 -19 12 -40 20 -46 11 -8 13 -23 9 -55 -3 -24 -2
-66 2 -94 l8 -50 2 55 c2 47 4 52 12 30 8 -20 12 -22 20 -10 7 10 9 -13 7 -76
-3 -97 -18 -135 -44 -113 -11 9 -14 5 -14 -25 0 -23 -4 -35 -12 -34 -7 2 -17
-15 -23 -37 -30 -114 -124 -194 -184 -156 -15 9 -14 27 9 231 20 182 100 530
122 530 5 0 21 -26 35 -57z m3088 -835 c-41 -305 -75 -560 -75 -566 0 -9 -31
-12 -106 -12 l-107 0 7 41 7 41 -35 -36 c-34 -36 -35 -37 -88 -29 -29 4 -63 7
-76 8 -58 1 -33 97 86 340 117 238 321 601 438 781 17 26 19 27 22 8 2 -12
-31 -271 -73 -576z m-879 -13 c-2 -17 -24 -76 -49 -131 -51 -114 -77 -202 -77
-263 0 -46 -10 -51 -41 -20 -21 21 -21 28 -16 138 4 64 20 199 36 301 16 102
32 223 36 270 14 157 24 147 72 -70 24 -107 41 -209 39 -225z m-791 -681 c-63
-129 -185 -232 -333 -282 l-62 -21 0 55 c0 43 4 56 18 60 61 20 168 81 227
131 99 83 179 143 184 137 2 -2 -13 -38 -34 -80z m35 -111 c-44 -218 -100
-414 -147 -505 -37 -74 -130 -143 -271 -202 -34 -15 -145 -42 -245 -62 -150
-29 -196 -42 -261 -75 -102 -51 -187 -72 -421 -104 -302 -42 -449 -83 -664
-186 -162 -77 -271 -151 -381 -256 -155 -147 -239 -301 -365 -673 -41 -124
-80 -229 -85 -234 -11 -11 -20 22 -30 116 -6 62 -7 49 -9 -87 -1 -132 -5 -177
-25 -260 -24 -98 -174 -578 -201 -643 l-14 -32 -58 6 c-32 4 -69 10 -83 14
l-25 6 -6 385 c-3 211 -14 533 -24 714 -11 223 -15 421 -12 610 4 261 6 287
30 376 41 157 88 239 192 344 73 74 107 100 180 137 222 113 419 148 1355 243
738 75 1072 121 1210 166 149 48 257 132 335 258 21 34 40 59 42 57 3 -2 -5
-53 -17 -113z m490 -567 c0 -2 -32 -37 -71 -77 -69 -72 -271 -317 -290 -351
-18 -34 9 -19 60 32 28 28 76 85 107 128 111 150 200 232 254 232 15 0 39 -10
54 -21 15 -12 38 -21 52 -21 28 0 29 -6 8 -36 -17 -25 -10 -27 26 -7 26 15
101 20 113 8 4 -3 2 -12 -5 -20 -18 -22 -2 -26 27 -7 25 16 26 16 32 -4 4 -17
9 -20 23 -12 25 13 69 12 102 -3 l28 -12 -30 -34 c-17 -18 -30 -42 -30 -52 0
-30 27 -12 62 42 17 27 36 49 42 49 25 0 56 -13 56 -23 0 -25 -247 -389 -275
-407 -38 -23 -146 -60 -310 -105 -216 -59 -350 -136 -519 -296 -250 -237 -492
-634 -594 -974 -11 -38 -35 -137 -53 -220 -17 -82 -33 -160 -36 -171 -6 -25
-60 -43 -278 -94 -71 -17 -148 -40 -170 -51 -29 -15 -119 -32 -320 -60 -631
-89 -879 -107 -1259 -90 -138 6 -275 11 -303 11 -37 0 -53 4 -53 13 0 12 59
212 217 732 230 759 379 1022 682 1201 265 156 712 284 1186 339 195 23 365
21 525 -5 214 -35 342 -20 506 61 82 40 128 81 199 174 71 93 131 135 192 135
24 0 43 -2 43 -4z m710 -201 c48 25 110 14 98 -16 -13 -33 -104 -143 -163
-197 -60 -55 -180 -130 -191 -119 -10 10 140 258 195 322 22 26 27 28 29 13 3
-16 6 -17 32 -3z m-6338 -25 c-2 -14 -7 -90 -11 -170 -5 -80 -12 -153 -16
-164 -7 -16 -6 -17 14 -7 12 7 25 10 30 7 13 -9 21 -75 11 -101 l-9 -24 -51
21 c-28 12 -49 26 -46 32 17 43 17 42 -16 39 -37 -3 -145 58 -163 92 -6 11
-19 32 -29 48 -14 20 -16 30 -7 41 9 11 1 14 -40 19 -55 7 -103 31 -96 50 2 6
63 26 136 44 79 19 159 46 199 66 78 41 98 42 94 7z m7498 -15 c0 -2 -44 -60
-99 -127 -678 -845 -1577 -1500 -2596 -1894 -60 -23 -112 -38 -113 -33 -7 18
41 217 84 349 45 135 129 323 187 415 246 392 655 643 1422 870 154 45 455
117 589 140 64 11 21 26 -53 19 -40 -4 -62 -3 -58 3 3 5 93 51 199 101 225
106 438 183 438 157z m-7375 -165 c17 -18 16 -20 -16 -34 l-34 -14 51 -1 c46
-1 64 -10 222 -108 94 -60 171 -110 172 -113 0 -6 -107 -30 -165 -37 -29 -3
-44 -11 -50 -26 -6 -11 -26 -34 -47 -50 l-36 -29 -53 42 c-29 22 -65 44 -81
47 l-29 6 6 63 c6 54 4 72 -20 132 -25 65 -26 70 -11 105 12 31 20 37 44 37
16 0 37 -9 47 -20z m-454 -73 c94 -129 155 -285 190 -482 28 -159 37 -527 19
-828 -11 -193 -15 -217 -29 -212 -26 10 -401 217 -405 224 -2 3 9 49 26 101
83 271 138 530 158 745 19 208 12 341 -25 489 -7 27 -6 27 14 17 12 -7 35 -31
52 -54z m7869 -37 c0 -22 -4 -40 -9 -40 -5 0 -7 -9 -4 -20 6 -24 -9 -26 -28
-4 -10 13 -10 17 2 25 8 5 9 9 4 9 -6 0 -17 -6 -23 -12 -10 -10 -15 -10 -22 2
-6 8 -8 21 -5 28 3 8 5 22 5 33 0 16 7 19 40 19 l40 0 0 -40z m-6930 -220 c10
-5 26 -30 35 -55 16 -39 21 -45 47 -45 21 0 31 -6 35 -20 4 -16 9 -18 25 -9
29 16 48 4 48 -31 0 -26 -3 -30 -27 -29 -16 0 -55 10 -88 22 -54 20 -60 25
-60 50 1 21 -3 26 -15 21 -8 -4 -30 -9 -47 -12 -78 -11 -17 -49 197 -124 121
-42 166 -71 180 -113 14 -43 5 -92 -21 -108 -26 -16 -24 -32 12 -91 17 -27 34
-67 37 -88 4 -35 1 -41 -38 -77 -43 -39 -43 -40 -32 -79 26 -87 12 -128 -53
-149 l-30 -10 3 -70 c6 -103 3 -103 -206 -58 -92 20 -176 40 -188 44 -19 8
-21 20 -27 143 -11 228 -52 444 -122 651 -42 122 -43 118 37 173 83 58 245 92
298 64z m6100 -635 c0 -8 -2 -15 -4 -15 -2 0 -6 7 -10 15 -3 8 -1 15 4 15 6 0
10 -7 10 -15z m-6078 -477 c64 -14 61 -12 53 -37 -8 -27 -55 -51 -98 -51 -39
0 -87 33 -87 59 0 41 38 50 132 29z m-150 -42 c4 -6 8 -21 8 -33 0 -18 -6 -23
-27 -23 -29 0 -63 25 -63 47 0 29 64 35 82 9z m136 -258 c2 -172 2 -178 -17
-178 -11 0 -25 9 -31 19 -11 21 -14 298 -4 326 4 9 15 15 28 13 20 -3 21 -8
24 -180z m-88 10 c0 -135 -2 -159 -14 -155 -8 3 -34 11 -58 17 -24 7 -46 17
-50 24 -9 13 -11 201 -2 243 5 28 8 29 65 30 l59 2 0 -161z m4850 -82 c0 -2
-7 -9 -15 -16 -12 -10 -15 -10 -15 4 0 9 7 16 15 16 8 0 15 -2 15 -4z"/>
<path d="M7847 12206 c-52 -19 -71 -38 -98 -99 -27 -63 -37 -204 -20 -282 31
-138 167 -213 281 -155 50 25 84 77 105 155 63 244 -80 448 -268 381z m105
-97 c33 -18 48 -70 48 -171 0 -151 -26 -201 -94 -184 -39 10 -57 46 -63 129
-13 177 30 268 109 226z"/>
<path d="M6951 12201 c-23 -6 -27 -16 -48 -140 -19 -108 -21 -136 -11 -143 7
-4 51 -7 96 -5 77 2 85 0 103 -22 45 -55 6 -143 -62 -143 -20 0 -50 7 -67 16
-49 25 -69 21 -91 -22 l-20 -39 42 -24 c35 -20 56 -24 128 -24 77 0 90 3 127
28 23 15 51 45 62 67 27 53 27 143 0 188 -25 41 -89 71 -152 72 -53 0 -66 18
-49 64 10 25 13 26 94 26 51 0 88 5 95 12 18 18 15 85 -4 92 -21 8 -212 6
-243 -3z"/>
<path d="M7400 12192 c-117 -62 -155 -293 -73 -444 37 -69 73 -91 150 -96 88
-6 140 25 180 105 24 49 28 73 31 161 3 81 1 113 -13 149 -22 56 -70 112 -112
129 -46 20 -122 17 -163 -4z m118 -88 c31 -21 43 -47 52 -116 10 -66 -2 -164
-26 -209 -28 -54 -88 -47 -121 14 -14 25 -18 56 -18 137 0 115 16 163 58 180
30 12 30 12 55 -6z"/>
<path d="M4749 11430 c-31 -9 -81 -41 -75 -47 6 -6 125 38 132 48 6 11 -21 10
-57 -1z"/>
<path d="M5460 10783 c0 -5 10 -24 22 -43 12 -19 21 -48 19 -63 -1 -17 3 -26
9 -22 18 11 11 60 -15 98 -25 36 -35 45 -35 30z"/>
<path d="M5749 11423 c-13 -15 -12 -15 11 -3 34 17 36 20 18 20 -9 0 -22 -7
-29 -17z"/>
<path d="M5894 11275 c-18 -13 -17 -14 14 -21 35 -7 44 -24 13 -24 -11 0 -23
-4 -26 -10 -4 -6 5 -10 19 -10 19 0 26 -5 26 -20 0 -24 22 -26 40 -5 7 8 20
15 30 15 16 0 48 27 39 33 -44 25 -112 57 -122 57 -7 0 -22 -7 -33 -15z"/>
<path d="M8360 11071 c0 -7 7 -22 16 -36 12 -18 13 -28 5 -44 -6 -11 -11 -24
-11 -30 0 -15 37 -14 43 2 3 8 10 7 26 -7 26 -23 30 -3 5 32 -14 20 -14 22 2
22 10 0 28 -10 41 -22 27 -25 38 -19 29 16 -4 16 -21 33 -44 45 -49 25 -112
37 -112 22z"/>
<path d="M7217 10703 c-3 -16 -1 -35 4 -43 6 -11 8 -8 9 12 0 14 3 33 6 42 3
9 2 16 -4 16 -5 0 -12 -12 -15 -27z"/>
<path d="M7470 10609 c-20 -45 -27 -133 -11 -144 12 -7 25 31 16 45 -3 5 2 37
11 70 20 73 12 89 -16 29z"/>
<path d="M8452 10415 c-74 -32 -144 -107 -157 -170 -6 -25 -1 -21 23 20 36 61
99 120 156 146 22 10 34 18 26 18 -8 0 -30 -6 -48 -14z"/>
<path d="M7760 10335 c-18 -19 -31 -37 -29 -40 3 -2 23 13 44 35 22 22 35 40
29 40 -6 0 -25 -16 -44 -35z"/>
<path d="M7655 10050 c-16 -7 -17 -9 -3 -9 9 -1 20 4 23 9 7 11 7 11 -20 0z"/>
<path d="M8635 10022 c-39 -24 -52 -41 -60 -77 -7 -30 -7 -30 41 16 27 26 63
54 79 62 l30 16 -30 1 c-16 0 -43 -8 -60 -18z"/>
<path d="M8700 9962 c-34 -19 -85 -92 -78 -113 2 -5 17 8 33 30 18 24 53 51
90 69 60 31 60 31 25 31 -19 1 -51 -7 -70 -17z"/>
<path d="M6238 10616 c-112 -40 -186 -113 -253 -251 -68 -142 -80 -201 -80
-405 0 -165 2 -180 28 -253 48 -138 121 -230 221 -278 194 -93 366 -8 476 235
141 310 99 690 -98 881 -78 77 -197 106 -294 71z m207 -40 c64 -29 126 -100
170 -191 49 -103 66 -175 72 -315 5 -108 2 -138 -17 -215 -57 -234 -189 -409
-328 -435 -171 -32 -338 110 -396 337 -50 194 -14 478 80 639 102 174 274 248
419 180z"/>
<path d="M6310 10207 c-87 -30 -123 -183 -73 -310 21 -51 56 -77 105 -77 82 0
137 65 145 174 7 79 -10 139 -50 181 -37 39 -78 49 -127 32z m105 -47 c22 -24
14 -36 -13 -21 -36 19 -35 12 4 -24 36 -34 37 -36 31 -95 -3 -35 -14 -74 -26
-93 -11 -19 -18 -37 -14 -40 12 -13 -20 -37 -49 -37 -55 0 -108 83 -108 169 0
42 25 99 57 134 33 34 90 37 118 7z"/>
<path d="M6291 10109 c-36 -59 -21 -205 23 -222 7 -3 2 15 -11 41 -28 55 -29
103 -3 161 25 54 19 66 -9 20z"/>
<path d="M2247 10053 c-13 -12 -7 -43 8 -43 8 0 15 -9 15 -20 0 -22 -10 -26
-27 -9 -16 16 -20 3 -40 -105 l-17 -96 35 -36 c44 -47 163 -127 167 -114 2 6
-12 56 -32 113 -19 56 -40 142 -46 191 -6 49 -15 97 -21 108 -10 18 -30 24
-42 11z"/>
<path d="M2342 9908 c6 -75 59 -236 96 -295 15 -24 40 -48 56 -55 25 -10 30
-9 43 8 8 10 13 30 11 44 -2 20 -9 26 -35 28 -18 2 -33 6 -33 10 0 4 16 33 36
65 29 47 34 61 23 68 -8 4 -16 4 -20 -3 -8 -12 -14 -3 -23 35 -7 30 -23 32
-40 4 -8 -13 -7 -20 4 -27 12 -8 9 -10 -12 -10 -34 0 -35 15 -4 61 13 19 21
40 18 46 -4 5 -34 27 -66 47 l-59 38 5 -64z"/>
<path d="M1496 9932 c-3 -9 -8 -55 -11 -102 l-6 -85 24 28 24 29 7 -51 c8 -59
4 -68 -31 -82 -35 -13 -25 -29 42 -69 55 -33 57 -35 31 -38 -23 -3 -27 -8 -24
-29 4 -31 50 -68 72 -60 12 5 16 22 16 76 0 110 14 118 20 12 3 -61 9 -96 17
-98 9 -3 10 14 6 65 -7 84 2 93 61 58 71 -42 96 -78 96 -141 0 -30 -5 -57 -10
-60 -6 -3 -37 10 -70 31 -33 20 -63 34 -67 30 -10 -10 34 -52 81 -77 47 -24
75 -21 83 11 7 27 23 25 23 -3 0 -53 -40 -60 -118 -20 -59 30 -75 27 -101 -19
-12 -21 -12 -31 -2 -55 22 -54 77 -61 94 -13 3 10 6 7 6 -8 1 -12 -6 -33 -15
-46 -14 -23 -14 -26 6 -44 20 -19 62 -33 138 -47 25 -5 32 -12 32 -30 0 -32
25 -55 59 -55 55 0 80 61 41 100 -25 25 -25 27 1 85 20 45 20 50 6 81 -9 18
-30 40 -46 50 -38 22 -39 30 -6 38 47 12 25 61 -38 85 -26 10 -27 12 -12 34
23 35 10 60 -27 53 -21 -4 -28 -2 -26 7 6 17 66 21 85 6 11 -10 13 -23 9 -52
-6 -36 -4 -41 36 -77 24 -22 46 -39 50 -40 27 -1 38 161 13 198 -11 15 -14 32
-9 57 5 27 2 41 -11 55 -18 20 -233 115 -241 107 -3 -3 8 -32 25 -66 36 -71
40 -95 12 -86 -11 3 -22 1 -26 -5 -3 -5 -11 -10 -16 -10 -6 0 -3 10 5 22 41
58 -3 120 -58 84 -14 -9 -28 -27 -32 -41 -11 -45 -24 -15 -18 41 6 49 5 54
-12 54 -11 0 -25 -4 -33 -9 -13 -8 -13 -12 0 -27 13 -16 11 -17 -19 -11 -29 6
-35 4 -39 -14 -5 -17 -11 -10 -34 35 -16 31 -29 63 -29 71 0 18 33 19 93 3 39
-10 88 -6 75 7 -2 2 -48 20 -101 39 -86 32 -96 33 -101 18z m443 -638 c6 -14
11 -38 11 -54 0 -16 5 -41 10 -56 8 -21 8 -29 -2 -36 -20 -12 -24 -10 -36 18
-7 14 -19 24 -30 23 -33 -3 -40 1 -57 37 -19 41 -13 84 12 84 9 0 28 -10 41
-22 l25 -23 -6 32 c-8 39 14 37 32 -3z"/>
<path d="M2556 9738 c-23 -32 -20 -75 4 -88 50 -27 95 53 54 94 -21 22 -40 20
-58 -6z"/>
<path d="M2164 9663 c4 -16 32 -80 64 -143 54 -108 59 -115 85 -113 28 2 28 1
22 -38 -9 -50 -1 -50 94 4 42 24 84 47 94 50 9 4 17 11 17 16 0 5 -48 34 -107
65 -63 32 -141 82 -187 120 -43 36 -80 66 -83 66 -3 0 -2 -12 1 -27z"/>
<path d="M1466 9533 c-11 -71 -7 -174 10 -209 9 -19 37 -49 63 -68 50 -36 111
-70 116 -64 4 3 -3 36 -26 131 -6 21 -16 37 -24 37 -22 0 -38 39 -32 76 4 23
1 36 -8 41 -7 5 -27 27 -44 51 -17 23 -35 42 -40 42 -5 0 -11 -17 -15 -37z"/>
<path d="M2166 9523 c-9 -58 -7 -112 5 -135 10 -19 9 -20 -10 -15 -15 4 -21 0
-21 -11 0 -8 -10 -46 -22 -84 -12 -37 -19 -70 -15 -74 3 -4 38 12 76 35 38 22
74 41 80 41 18 0 13 26 -9 45 -11 10 -20 22 -20 27 0 4 9 8 20 8 33 0 24 39
-26 120 -25 41 -47 76 -49 78 -1 1 -5 -14 -9 -35z"/>
<path d="M1599 9434 c-19 -23 8 -69 41 -69 31 0 51 45 30 69 -16 21 -54 20
-71 0z"/>
<path d="M912 9288 c5 -40 11 -79 13 -86 8 -23 27 -1 21 24 -13 49 10 22 25
-31 14 -46 14 -57 3 -66 -20 -17 -17 -57 5 -69 11 -5 34 -10 51 -10 32 0 32 0
28 45 l-3 44 40 -5 c113 -17 210 -141 175 -224 -11 -27 -17 -30 -57 -30 -37 0
-43 3 -34 13 8 10 3 20 -20 43 -39 37 -59 75 -59 114 0 36 20 39 67 10 54 -32
80 -104 48 -130 -23 -19 -19 -42 7 -38 26 4 41 48 32 93 -9 45 -51 95 -98 116
-69 31 -76 28 -76 -38 1 -32 7 -76 15 -98 8 -22 15 -41 15 -42 0 -11 -23 4
-70 43 -30 25 -64 50 -74 56 -18 10 -19 7 -12 -38 17 -129 105 -214 169 -164
16 13 28 17 32 10 8 -14 -13 -40 -32 -40 -25 0 -9 -24 29 -43 19 -9 66 -23
104 -30 65 -12 70 -14 86 -49 23 -49 63 -61 90 -28 26 32 22 56 -11 81 -27 19
-28 23 -19 60 18 67 -9 119 -60 119 -21 0 -24 2 -12 10 20 13 60 13 60 0 0 -5
7 -10 16 -10 15 0 16 9 11 68 -4 37 -7 84 -7 104 0 20 -7 43 -15 52 -8 8 -15
30 -15 50 0 47 -44 80 -141 105 -85 22 -97 14 -59 -39 l21 -30 -22 2 c-17 2
-27 -5 -38 -27 l-16 -30 -3 30 c-6 63 -12 75 -36 75 -16 0 -34 -12 -49 -31
-26 -34 -62 -35 -55 -2 2 13 11 17 32 15 l29 -4 -23 29 -22 28 28 5 c52 9 37
27 -37 44 -39 9 -75 16 -78 16 -4 0 -4 -33 1 -72z m318 -151 c0 -25 -2 -28
-15 -17 -9 7 -14 26 -12 46 2 30 4 32 15 17 6 -9 12 -30 12 -46z m85 -53 c9
-9 14 -23 11 -31 -3 -8 -6 -19 -6 -24 0 -5 -4 -9 -10 -9 -5 0 -10 9 -10 20 0
13 -7 20 -18 20 -19 0 -42 18 -42 32 0 15 58 8 75 -8z m-12 -274 c18 27 29 22
51 -24 30 -64 11 -90 -32 -41 -12 14 -33 25 -46 25 -16 0 -26 7 -30 23 -12 44
-6 53 18 23 l23 -28 16 22z"/>
<path d="M1464 9175 c18 -42 95 -162 125 -192 12 -13 31 -23 41 -23 15 0 20
-7 20 -25 0 -14 4 -25 8 -25 22 0 204 139 197 150 -3 4 -32 10 -66 12 -51 4
-83 16 -193 71 -72 37 -134 67 -139 67 -4 0 -1 -16 7 -35z"/>
<path d="M1651 9178 l-33 -21 26 -14 c14 -7 46 -17 71 -22 45 -8 45 -8 32 13
-8 11 -20 31 -28 44 -17 27 -24 27 -68 0z"/>
<path d="M1480 8925 c-7 -75 -10 -138 -7 -141 6 -7 79 42 115 76 27 26 23 35
-20 45 l-33 7 25 11 c14 6 27 12 29 14 6 4 -46 77 -73 102 l-23 22 -13 -136z"/>
<path d="M843 8814 c-8 -22 27 -66 63 -77 46 -15 54 -26 54 -73 0 -33 5 -46
19 -54 40 -21 40 -8 4 102 -21 65 -32 84 -57 99 -38 23 -75 24 -83 3z"/>
<path d="M1035 8733 c18 -74 118 -173 173 -173 17 0 112 85 112 101 0 4 -23
10 -51 14 -28 4 -77 18 -108 32 -31 14 -73 32 -95 39 l-38 14 7 -27z"/>
<path d="M10488 9903 c-62 -89 -68 -101 -68 -151 0 -54 21 -125 48 -160 l18
-24 52 57 c55 60 68 96 59 170 -5 46 -52 155 -67 155 -4 0 -23 -21 -42 -47z
m70 -73 c18 -72 8 -116 -35 -159 -34 -34 -36 -34 -49 -16 -8 11 -19 36 -25 57
-8 32 -6 46 11 85 23 53 58 95 74 90 6 -2 17 -28 24 -57z"/>
<path d="M10954 9857 c-59 -56 -55 -79 6 -31 l45 36 12 -39 c6 -21 12 -56 12
-77 1 -35 -5 -46 -59 -99 -44 -45 -63 -58 -72 -49 -6 6 -13 48 -17 93 -4 52
-11 84 -18 87 -16 5 -19 -223 -3 -233 13 -8 44 9 127 72 l73 55 -6 72 c-16
173 -26 184 -100 113z"/>
<path d="M11264 9684 c-32 -25 -62 -51 -66 -57 -12 -18 -9 -185 2 -192 15 -10
105 70 124 109 17 36 23 171 7 180 -4 3 -35 -15 -67 -40z m46 -43 c0 -22 -5
-52 -11 -68 -11 -29 -57 -83 -71 -83 -14 0 -9 100 7 130 14 27 51 60 67 60 5
0 8 -18 8 -39z"/>
<path d="M11558 9582 c-49 -29 -81 -56 -87 -72 -23 -60 -41 -210 -26 -210 3 0
20 6 39 14 46 19 104 73 127 117 18 37 41 186 30 194 -4 2 -41 -18 -83 -43z
m42 -58 c0 -28 -8 -61 -21 -83 -20 -36 -74 -81 -97 -81 -18 0 -14 59 7 106 17
36 84 104 103 104 5 0 8 -21 8 -46z"/>
<path d="M11781 9399 c-4 -12 -25 -33 -46 -48 -21 -14 -52 -43 -69 -64 -28
-35 -31 -46 -35 -124 l-3 -85 23 7 c116 34 196 170 169 285 -13 53 -26 63 -39
29z m6 -109 c-10 -73 -48 -126 -104 -144 -21 -7 -23 -4 -23 28 0 64 44 136 95
156 30 11 38 2 32 -40z"/>
<path d="M11980 9233 c-93 -40 -135 -101 -147 -213 l-6 -62 24 7 c119 37 180
115 191 245 4 41 -10 46 -62 23z m16 -79 c-8 -60 -32 -100 -72 -119 -51 -24
-57 -21 -50 27 10 59 35 100 76 120 50 25 53 23 46 -28z"/>
<path d="M12031 8977 c-65 -52 -101 -109 -101 -161 l0 -39 53 6 c61 8 70 17
97 105 21 67 26 117 12 126 -5 3 -32 -14 -61 -37z m22 -105 c-11 -21 -34 -45
-54 -55 -33 -17 -34 -17 -37 2 -6 34 40 105 83 129 17 9 20 8 23 -14 2 -14 -5
-42 -15 -62z"/>
<path d="M5531 9617 c-12 -32 -94 -155 -123 -184 -12 -12 -19 -25 -16 -28 3
-3 32 23 64 58 43 45 64 78 76 117 18 55 17 84 -1 37z"/>
<path d="M5662 9579 c-39 -28 -80 -85 -68 -96 2 -3 20 12 38 33 18 20 38 42
43 48 18 20 38 46 34 46 -2 -1 -23 -14 -47 -31z"/>
<path d="M5565 9444 c-17 -17 -99 -184 -110 -224 -7 -24 -6 -24 8 -5 36 49
134 245 123 245 -3 0 -12 -7 -21 -16z"/>
<path d="M5148 9343 c-63 -92 -74 -122 -29 -79 31 30 95 141 89 155 -2 5 -29
-29 -60 -76z"/>
<path d="M5366 9271 c-4 -6 -46 -38 -94 -71 -116 -80 -127 -89 -119 -96 9 -10
148 81 191 125 22 22 37 43 34 46 -3 4 -9 2 -12 -4z"/>
<path d="M7265 9576 c-153 -63 -306 -167 -410 -278 -82 -86 -73 -85 37 7 128
108 255 193 376 252 84 41 105 54 85 52 -5 0 -44 -15 -88 -33z"/>
<path d="M7524 9181 c-17 -15 -71 -45 -120 -65 -49 -20 -100 -46 -114 -57
l-25 -20 30 7 c79 17 207 87 254 138 32 35 14 33 -25 -3z"/>
<path d="M6696 9087 c-17 -35 -26 -67 -23 -80 3 -12 11 -43 17 -68 10 -41 46
-97 56 -87 2 2 -10 31 -26 64 -35 70 -37 101 -9 155 11 22 18 48 16 57 -2 11
-14 -4 -31 -41z"/>
<path d="M6820 8895 c0 -5 75 -45 85 -45 3 0 5 4 5 9 0 5 -18 16 -40 25 -43
17 -50 19 -50 11z"/>
<path d="M8930 9655 c0 -3 8 -22 17 -43 14 -32 17 -34 20 -15 5 24 -12 63 -27
63 -6 0 -10 -2 -10 -5z"/>
<path d="M10515 9455 c20 -8 449 -105 462 -105 7 0 13 4 13 10 0 15 -185 70
-289 85 -85 13 -212 20 -186 10z"/>
<path d="M11010 9340 c0 -6 17 -18 38 -27 124 -53 200 -96 340 -190 86 -58
181 -126 210 -151 33 -28 52 -39 52 -30 0 28 -93 109 -220 193 -230 153 -420
245 -420 205z"/>
<path d="M3164 8862 c-52 -18 -108 -58 -155 -109 -30 -32 -79 -104 -79 -115 0
-14 54 13 119 61 36 26 73 52 81 57 8 5 69 11 135 14 130 5 135 8 121 65 -12
46 -127 60 -222 27z"/>
<path d="M3225 8670 l-30 -20 28 0 c16 0 27 -4 25 -10 -1 -5 -46 -38 -98 -72
-52 -35 -96 -71 -98 -80 -5 -29 31 -22 87 17 28 20 56 33 61 30 6 -3 10 -29
10 -56 0 -44 3 -51 26 -59 14 -6 34 -10 46 -10 18 0 19 4 13 73 -6 77 -4 83
37 110 32 20 28 42 -7 51 -14 4 -29 15 -35 26 -13 25 -27 25 -65 0z"/>
<path d="M6038 9055 c-6 -11 10 -61 17 -53 2 2 1 17 -3 33 -5 16 -11 25 -14
20z"/>
<path d="M10438 8858 c-10 -10 -18 -31 -18 -48 0 -46 26 -54 171 -52 138 3
184 -8 265 -63 33 -22 40 -24 42 -11 5 24 -40 95 -93 146 l-46 45 -152 0
c-131 0 -154 -2 -169 -17z"/>
<path d="M10524 8672 c-10 -7 -34 -65 -34 -84 0 -5 8 -5 17 1 14 7 20 4 30
-20 19 -45 78 -36 106 17 l13 25 43 -35 c42 -36 71 -46 71 -26 0 45 -208 148
-246 122z"/>
<path d="M4406 8984 c-9 -23 -7 -46 3 -40 11 7 21 56 11 56 -4 0 -11 -7 -14
-16z"/>
<path d="M4508 8878 c-30 -11 -38 -28 -12 -28 21 0 54 18 54 30 0 12 -6 12
-42 -2z"/>
<path d="M5385 8340 c-48 -7 -47 -7 25 -9 82 -2 204 -16 235 -27 14 -5 17 -4
10 4 -10 10 -182 44 -208 40 -6 0 -34 -4 -62 -8z"/>
<path d="M5430 8166 c25 -13 61 -27 80 -31 19 -4 46 -13 60 -20 48 -24 70 -28
64 -11 -3 9 -22 19 -42 22 -20 4 -64 20 -97 36 -33 15 -71 28 -85 28 -21 -1
-18 -4 20 -24z"/>
<path d="M7080 8149 c0 -21 30 -122 40 -132 13 -14 -8 90 -24 120 -9 16 -15
21 -16 12z"/>
<path d="M11415 8364 c-75 -38 -116 -100 -113 -169 1 -35 -4 -51 -21 -69 -30
-32 -24 -60 13 -64 26 -3 27 -2 22 25 -4 18 -1 35 8 48 9 11 16 41 16 66 0 38
4 48 20 52 14 3 20 14 20 32 0 21 8 30 42 45 37 17 45 17 59 4 21 -19 29 -18
29 5 0 12 -11 23 -31 30 -38 13 -28 14 -64 -5z"/>
<path d="M7790 8196 c0 -3 7 -12 16 -20 21 -22 32 -90 13 -84 -8 2 -21 19 -29
37 -18 35 -30 32 -30 -9 0 -31 16 -50 43 -50 10 0 32 -8 48 -17 15 -9 31 -14
34 -11 11 11 -6 95 -26 127 -13 21 -26 31 -44 31 -14 0 -25 -2 -25 -4z"/>
<path d="M6495 7740 c3 -5 21 -10 38 -10 24 0 28 3 17 10 -20 13 -63 13 -55 0z"/>
<path d="M12081 5377 c-13 -77 -14 -157 -1 -177 17 -27 23 -1 28 120 5 134 -8
163 -27 57z"/>
<path d="M8281 4544 c0 -11 3 -14 6 -6 3 7 2 16 -1 19 -3 4 -6 -2 -5 -13z"/>
<path d="M8279 4515 c-4 -5 -10 -41 -13 -80 l-6 -70 15 50 c14 48 17 121 4
100z"/>
<path d="M7000 6148 c0 -16 92 -103 130 -123 73 -38 38 14 -62 91 -60 47 -68
51 -68 32z"/>
<path d="M1679 4813 c-13 -35 -39 -336 -39 -459 0 -97 7 -154 20 -154 16 0 22
61 31 295 6 132 12 264 15 293 7 58 -9 72 -27 25z"/>
<path d="M4000 4418 c0 -35 42 -356 49 -373 16 -37 24 91 12 182 -12 98 -40
203 -52 203 -5 0 -9 -6 -9 -12z"/>
<path d="M3159 2616 c-111 -45 -230 -159 -278 -266 -27 -59 -27 -84 0 -40 36
59 200 215 253 240 68 32 145 39 163 15 40 -56 -2 -153 -122 -282 -80 -86 -98
-113 -75 -113 26 0 195 188 221 245 10 22 19 60 19 84 0 31 6 51 21 67 25 27
19 41 -27 60 -48 20 -111 17 -175 -10z"/>
<path d="M8075 3050 c-104 -16 -327 -42 -495 -59 -168 -17 -346 -38 -395 -46
-104 -18 -142 -40 -55 -31 30 3 89 8 130 11 135 11 413 46 510 65 52 11 147
24 210 30 249 22 331 33 347 46 16 12 13 13 -22 13 -22 -1 -125 -14 -230 -29z"/>
<path d="M6688 2870 c-95 -16 -205 -66 -186 -85 3 -3 75 16 159 44 118 38 145
49 114 49 -22 0 -61 -4 -87 -8z"/>
<path d="M6155 2335 c-21 -44 -22 -117 -6 -480 l8 -180 1 227 c1 125 7 272 13
327 6 54 9 110 7 123 -4 21 -6 19 -23 -17z"/>
</g>
</svg>
