<?xml version="1.0" standalone="no"?>
<!DOCTYPE svg PUBLIC "-//W3C//DTD SVG 20010904//EN"
 "http://www.w3.org/TR/2001/REC-SVG-20010904/DTD/svg10.dtd">
<svg version="1.0" xmlns="http://www.w3.org/2000/svg"
 width="1295.000000pt" height="1294.000000pt" viewBox="0 0 1295.000000 1294.000000"
 preserveAspectRatio="xMidYMid meet">
<metadata>
Created by potrace 1.16, written by Peter Selinger 2001-2019
</metadata>
<g transform="translate(0.000000,1294.000000) scale(0.100000,-0.100000)"
fill="#000000" stroke="none">
<path d="M0 6470 l0 -6470 6475 0 6475 0 0 6470 0 6470 -6475 0 -6475 0 0
-6470z m6970 6097 c14 -3 66 -8 115 -12 253 -18 609 -79 917 -156 704 -176
1352 -465 1958 -876 1019 -691 1840 -1716 2277 -2843 214 -552 339 -1078 399
-1690 19 -188 26 -852 11 -1000 -4 -41 -12 -124 -18 -185 -104 -1093 -528
-2181 -1193 -3063 -273 -361 -559 -668 -906 -971 l-105 -91 -12 37 c-24 70
-134 143 -307 202 -49 16 -95 36 -101 43 -7 7 -19 50 -28 95 -8 46 -29 113
-47 151 l-31 68 20 44 c47 103 3 224 -96 266 -48 21 -127 18 -173 -6 l-40 -21
-86 31 c-109 38 -130 53 -197 143 -55 73 -55 74 -54 139 2 59 -1 71 -29 110
-17 23 -83 116 -147 204 l-116 162 38 115 c33 99 47 125 102 193 225 283 350
618 350 944 l0 109 45 83 c59 111 63 116 118 128 101 23 147 60 236 195 30 44
57 81 60 83 40 17 228 137 314 201 60 45 109 80 110 79 23 -46 132 -194 179
-245 36 -37 74 -87 86 -110 28 -56 72 -105 113 -127 19 -10 44 -35 56 -56 11
-21 44 -62 72 -93 41 -45 50 -61 50 -91 0 -52 21 -96 64 -134 44 -39 85 -57
150 -65 34 -5 59 -16 84 -38 63 -55 136 -83 227 -85 44 -1 107 -10 139 -19
139 -41 263 -3 395 121 l76 70 35 -18 c69 -36 171 -7 218 63 31 44 28 129 -6
176 -18 26 -20 36 -12 58 26 69 0 151 -61 194 -31 21 -38 32 -39 59 -1 93 -73
158 -197 177 -37 6 -43 11 -53 41 -27 81 -108 123 -201 103 l-53 -11 -27 33
c-29 35 -41 57 -80 148 -13 30 -45 76 -71 102 -32 32 -66 85 -107 167 -33 65
-80 148 -104 183 -24 35 -47 78 -51 94 -17 68 -80 224 -117 288 -22 37 -62 94
-89 127 -28 32 -50 61 -50 63 0 3 20 2 44 0 59 -7 150 22 187 59 16 16 34 47
40 69 9 27 28 53 60 79 25 22 54 55 63 74 22 46 20 131 -4 184 -15 32 -17 49
-10 68 6 14 10 45 10 69 0 31 5 48 18 57 10 7 48 57 85 110 61 89 87 146 87
190 0 10 10 53 22 95 19 64 23 102 22 208 0 149 -16 228 -68 340 -34 73 -34
73 -15 101 25 39 34 108 20 155 -15 49 -65 108 -108 125 -72 31 -179 9 -220
-43 -11 -14 -19 -14 -75 3 -94 28 -302 26 -423 -5 -49 -12 -106 -25 -125 -27
-58 -7 -71 -14 -167 -81 -110 -76 -136 -105 -180 -200 -27 -59 -44 -81 -87
-113 -62 -47 -83 -84 -92 -161 -6 -47 -14 -63 -67 -124 -33 -38 -66 -73 -73
-78 -22 -13 -52 -71 -55 -107 -2 -19 -10 -44 -20 -55 -9 -11 -68 -97 -130
-190 l-114 -170 -60 12 c-73 16 -305 17 -377 2 -29 -6 -82 -19 -118 -29 -69
-19 -120 -25 -315 -36 -97 -5 -129 -3 -168 10 -26 9 -61 16 -78 16 -58 0 -308
185 -394 293 -33 41 -74 84 -91 96 l-32 22 18 37 c9 20 30 91 45 157 15 66 34
140 42 165 26 76 27 140 4 178 -31 48 -77 72 -139 72 -47 0 -55 3 -60 23 -3
12 -26 62 -50 110 -47 91 -112 163 -155 169 -38 6 -110 -11 -131 -31 -19 -17
-24 -18 -46 -6 -36 20 -130 19 -160 -2 -31 -21 -48 -41 -60 -70 -5 -13 -17
-23 -25 -23 -31 0 -96 -41 -115 -73 -11 -18 -23 -52 -26 -78 -5 -37 -11 -47
-35 -58 -62 -27 -91 -130 -55 -199 9 -17 34 -46 57 -64 120 -96 106 -68 138
-285 19 -124 45 -179 122 -256 38 -37 69 -71 69 -76 0 -5 -12 -35 -27 -67 -52
-115 -31 -205 77 -319 31 -33 85 -101 119 -152 135 -199 289 -358 450 -466 53
-36 92 -53 152 -68 45 -11 85 -22 90 -25 16 -9 -20 -62 -102 -152 -106 -116
-134 -172 -135 -278 -2 -91 -17 -130 -91 -228 -24 -32 -47 -64 -49 -71 -3 -6
-31 -24 -64 -39 -78 -36 -221 -131 -355 -236 -347 -272 -706 -631 -1071 -1070
-212 -256 -221 -269 -344 -538 -63 -136 -136 -294 -163 -352 -213 -453 -229
-493 -218 -529 6 -19 8 -37 6 -40 -3 -2 -62 -6 -131 -9 -120 -5 -126 -4 -121
14 3 10 11 39 17 64 6 25 26 68 45 96 58 89 101 185 148 329 25 77 71 193 103
257 55 114 57 121 62 216 5 103 -8 172 -49 256 -10 22 -19 49 -19 61 0 21 5
22 98 23 205 2 412 87 602 246 365 306 605 931 586 1526 -10 328 -76 611 -199
857 -190 377 -486 610 -815 640 -65 6 -69 8 -132 66 -36 32 -122 97 -192 144
-70 47 -133 92 -139 99 -15 19 11 101 72 219 37 73 53 117 58 162 5 44 15 71
35 97 15 20 37 58 48 84 12 26 41 65 66 87 53 46 81 103 82 163 0 24 10 61 22
85 29 57 30 154 1 217 -12 25 -24 63 -28 85 -10 56 -27 85 -100 169 -42 48
-80 81 -110 95 -26 12 -62 37 -81 56 l-34 34 38 -13 c20 -8 129 -48 242 -89
239 -87 314 -106 476 -116 185 -12 460 -13 449 -2 -6 5 -125 102 -265 216
-260 210 -299 237 -405 282 -139 59 -1393 530 -1915 720 -554 201 -566 206
-605 248 -38 40 -90 65 -137 65 -10 0 -26 16 -38 39 -29 59 -67 85 -137 94
-11 2 -28 8 -35 15 -24 19 -98 42 -138 42 -21 0 -53 7 -73 15 -31 13 -80 17
-211 17 -21 0 -56 -8 -77 -17 -37 -17 -38 -17 -70 5 -35 26 -107 36 -165 26
-51 -10 -128 -84 -148 -143 -19 -54 -20 -112 -5 -166 13 -48 76 -113 119 -122
28 -6 31 -10 25 -33 -16 -60 -24 -110 -25 -157 0 -60 -7 -71 -44 -81 -41 -10
-90 -63 -105 -115 -12 -39 -90 -219 -173 -399 -161 -349 -250 -654 -257 -881
-3 -98 16 -151 91 -264 185 -275 451 -567 837 -919 227 -208 272 -254 282
-286 10 -34 7 -67 -19 -227 -17 -103 -36 -226 -42 -272 -7 -49 -28 -130 -52
-195 -36 -99 -41 -121 -42 -206 0 -76 3 -104 20 -140 19 -42 20 -49 7 -113 -8
-38 -25 -99 -39 -135 -14 -37 -28 -77 -31 -89 -3 -13 -9 -23 -14 -23 -18 0
-206 -190 -281 -285 -125 -155 -237 -332 -658 -1035 -31 -52 -107 -171 -169
-263 -135 -205 -145 -232 -112 -323 l23 -65 -35 -42 c-19 -23 -106 -91 -193
-152 -179 -124 -246 -184 -264 -239 l-12 -37 -40 68 c-58 97 -226 429 -281
553 -267 609 -435 1250 -497 1901 -31 322 -33 820 -6 1124 72 801 275 1524
620 2215 839 1676 2393 2885 4208 3274 261 56 635 109 858 122 63 4 117 8 120
11 6 6 761 -4 790 -10z m-4371 -1986 c11 -7 10 -14 -8 -40 -12 -16 -27 -53
-34 -81 -10 -42 -15 -50 -32 -48 -24 4 -46 61 -38 101 11 56 72 93 112 68z
m261 -15 c0 -2 -9 -23 -19 -48 -11 -24 -26 -79 -33 -123 -10 -57 -18 -80 -28
-80 -34 0 -52 99 -30 174 17 59 37 81 75 81 19 0 35 -2 35 -4z m138 -4 c10 -7
4 -26 -22 -84 -22 -47 -37 -100 -41 -139 -7 -73 -10 -79 -34 -79 -58 0 -52
179 9 278 20 32 58 43 88 24z m157 -38 c15 -16 14 -19 -19 -53 -29 -30 -39
-52 -57 -126 -23 -98 -32 -115 -60 -115 -60 0 -36 182 36 276 29 38 72 46 100
18z m148 -62 c9 -8 17 -26 17 -39 0 -32 -39 -31 -74 3 -30 31 -32 40 -9 52 19
11 40 6 66 -16z m-103 -67 c10 -12 10 -19 2 -27 -20 -20 -14 -28 18 -28 40 0
99 -25 106 -45 6 -15 -15 -109 -53 -238 l-14 -48 -110 -54 c-61 -30 -137 -60
-170 -66 -55 -11 -59 -13 -59 -40 0 -25 -44 -142 -60 -162 -12 -14 -134 12
-195 42 -33 17 -77 47 -97 68 l-37 38 40 80 c38 74 41 87 44 170 2 63 9 107
24 147 30 77 44 87 73 54 14 -17 38 -29 62 -33 22 -3 47 -14 57 -24 9 -9 30
-20 46 -23 l30 -7 -39 -38 c-25 -26 -38 -48 -38 -66 l0 -28 44 41 c64 59 149
78 219 49 18 -8 38 -21 46 -30 20 -24 26 -21 29 14 4 46 18 66 57 79 l35 12
-42 22 c-52 27 -83 81 -73 126 7 33 34 40 55 15z m1118 -416 c449 -165 1038
-384 1307 -486 l490 -185 140 -106 c77 -58 142 -107 144 -109 12 -9 -11 -9
-83 -2 -168 19 -271 49 -611 175 -187 69 -776 285 -1309 480 -534 195 -971
356 -973 357 -1 2 2 20 8 40 9 34 11 36 37 26 229 -89 1609 -578 1619 -575 7
3 13 9 13 14 0 5 -143 61 -317 125 -793 288 -1318 480 -1321 483 -5 3 27 64
34 64 3 0 373 -135 822 -301z m-30 -336 l817 -298 -84 -7 c-233 -19 -422 -130
-574 -336 -36 -48 -81 -103 -102 -122 -67 -63 -76 -94 -82 -264 -5 -169 -12
-187 -82 -206 -76 -21 -123 -70 -143 -146 -7 -27 -13 -50 -14 -52 -1 -2 -26
12 -56 32 -29 20 -61 36 -71 36 -10 0 -34 7 -53 15 -30 12 -36 19 -32 39 4 22
1 24 -46 30 -33 4 -99 30 -191 76 -104 51 -141 65 -143 54 -3 -10 -11 -12 -30
-8 -27 6 -33 10 -101 59 -19 14 -52 30 -75 36 -23 6 -70 32 -106 59 -36 26
-91 64 -122 85 -32 21 -60 47 -64 59 -4 11 -15 33 -25 47 -14 20 -16 33 -9 65
5 22 14 112 20 199 8 115 18 181 35 235 13 41 31 99 40 129 9 29 28 71 43 94
22 34 27 52 27 106 0 36 -4 76 -8 88 -6 17 -3 23 15 28 44 13 213 99 249 126
20 16 52 29 75 32 21 2 47 4 57 5 9 1 385 -132 835 -295z m-1762 100 c78 -76
228 -130 338 -121 31 3 56 2 56 -2 0 -12 -34 -37 -65 -47 -35 -11 -41 -38 -7
-37 26 1 26 4 6 -45 -12 -30 -24 -43 -47 -50 -26 -8 -162 -29 -212 -32 -5 0 1
-5 15 -10 30 -12 166 -15 201 -4 50 16 -2 -24 -94 -72 -89 -47 -90 -48 -54
-51 21 -2 56 5 83 18 26 11 49 18 51 16 2 -2 -3 -66 -12 -142 -9 -77 -18 -161
-21 -189 -2 -27 -12 -74 -22 -103 -18 -57 -13 -76 24 -96 41 -23 48 -66 11
-66 -12 0 -55 -16 -96 -35 -123 -59 -228 -176 -248 -276 -6 -31 -1 -28 55 43
71 89 154 158 243 204 60 31 64 32 93 17 40 -21 134 -84 215 -145 39 -29 87
-55 120 -64 92 -27 101 -45 31 -64 -49 -13 -75 -53 -94 -146 -8 -38 -13 -70
-11 -72 10 -10 23 12 29 49 8 51 36 107 70 138 26 24 26 24 83 8 32 -9 85 -22
118 -28 164 -31 341 -102 434 -175 24 -19 55 -34 68 -34 14 0 23 -6 23 -15 0
-8 35 -31 84 -55 46 -23 89 -46 95 -53 7 -9 -2 -22 -35 -49 -53 -43 -113 -117
-143 -175 -32 -65 -62 -145 -51 -138 5 3 41 50 79 103 76 108 113 150 153 176
25 16 29 16 50 2 12 -9 42 -16 66 -16 l44 0 -31 -35 c-88 -101 -122 -260 -86
-400 21 -80 49 -134 108 -206 l48 -61 -30 -91 c-43 -130 -87 -294 -111 -417
-18 -88 -26 -109 -48 -127 -15 -12 -30 -22 -35 -23 -9 0 -2 48 29 210 13 69
26 152 29 185 l6 60 -16 -35 c-23 -50 -63 -209 -81 -320 -8 -52 -17 -107 -20
-122 -4 -21 -31 -47 -107 -102 -172 -125 -420 -276 -433 -263 -13 13 -44 165
-56 271 -10 85 -14 102 -20 80 -14 -50 -10 -222 7 -305 9 -44 15 -82 13 -83
-8 -7 -121 -56 -128 -56 -4 0 -18 29 -31 65 -12 35 -27 61 -32 58 -9 -6 -4
-86 8 -129 5 -15 1 -23 -11 -28 -25 -10 -67 35 -99 107 -35 77 -31 151 13 252
30 69 40 117 82 400 43 286 89 457 185 680 44 103 166 345 188 373 5 7 7 16 2
20 -28 28 -244 -348 -304 -531 -7 -21 -15 -37 -17 -35 -1 2 -6 40 -9 83 -4 44
-8 94 -10 110 -2 17 -4 102 -5 190 l-2 160 -19 -40 c-17 -36 -19 -61 -17 -278
3 -218 -1 -267 -15 -219 -3 9 -28 67 -56 128 -64 141 -130 334 -169 494 -17
69 -35 143 -40 165 -9 37 -10 34 -11 -41 -2 -123 23 -240 93 -447 l64 -187
-42 37 c-235 210 -438 400 -467 435 -20 25 -60 79 -89 121 -41 60 -55 75 -66
66 -10 -8 -32 13 -101 96 -48 59 -125 158 -169 220 -107 149 -113 171 -84 336
47 275 87 396 249 753 l32 69 27 -26 c16 -15 38 -27 50 -27 21 0 20 3 -13 46
-19 25 -35 50 -35 54 0 17 41 120 48 120 4 0 16 -13 27 -29 20 -31 92 -78 102
-67 3 3 -12 25 -35 50 -54 59 -75 101 -67 135 l7 26 16 -25 c9 -14 35 -44 58
-67z m2768 -577 c43 -15 100 -39 125 -54 l46 -27 -235 -6 c-213 -6 -364 -22
-427 -46 -13 -5 -15 -2 -11 15 8 29 3 28 -43 -9 -37 -29 -157 -84 -166 -76
-10 10 134 128 197 161 109 58 195 77 325 73 87 -3 127 -10 189 -31z m-211
-164 c-18 -10 -40 -27 -48 -39 l-15 -21 73 23 c220 70 388 73 512 7 36 -19 37
-21 15 -22 -25 0 -59 -16 -50 -22 3 -2 37 -14 76 -26 72 -22 115 -56 128 -99
6 -18 4 -20 -13 -16 -12 3 -33 2 -48 -2 l-28 -7 39 -19 c22 -10 50 -29 63 -41
26 -24 47 -89 38 -118 -6 -18 -7 -18 -35 -2 -37 21 -47 11 -23 -24 14 -22 15
-27 3 -22 -124 54 -151 62 -225 66 -92 5 -92 -6 1 -31 204 -54 262 -105 223
-191 l-12 -25 -19 24 c-27 35 -144 102 -226 131 -117 40 -210 56 -387 63 -167
6 -169 7 -115 19 30 7 90 16 132 19 64 5 76 8 67 19 -6 8 -20 14 -30 14 -38 0
-17 16 49 38 37 12 119 29 182 38 63 9 117 18 119 20 2 2 -19 4 -48 4 -29 0
-50 4 -47 9 5 8 50 16 156 27 86 10 92 21 16 29 -135 15 -208 -4 -579 -151
-159 -63 -349 -132 -423 -154 -73 -22 -144 -44 -158 -50 -39 -15 -32 2 30 69
42 46 52 61 38 61 -24 0 -63 -26 -98 -65 l-27 -30 4 53 c4 52 7 56 93 143 49
49 86 89 83 89 -19 0 -80 -33 -119 -64 -24 -19 -46 -33 -48 -31 -2 2 -1 17 3
34 9 43 81 111 162 153 125 66 376 134 503 136 l45 1 -32 -17z m182 -484 c110
-14 208 -44 306 -94 l91 -45 -5 -45 c-2 -24 -6 -47 -9 -50 -3 -2 -43 -6 -90
-7 -81 -2 -85 -3 -106 -32 -54 -74 -65 -114 -69 -240 -2 -95 -6 -122 -18 -131
-23 -17 -54 -6 -98 33 -25 22 -47 33 -67 33 -30 0 -31 1 -24 35 5 28 3 35 -9
35 -27 0 -47 -28 -41 -59 6 -28 5 -28 -52 -35 -70 -8 -145 -47 -189 -99 -20
-23 -36 -34 -40 -28 -21 36 -58 168 -67 241 -19 176 -19 192 2 242 11 26 20
55 20 64 0 10 30 50 68 89 37 40 73 80 80 89 12 14 32 17 130 15 65 -1 149 -6
187 -11z m6135 -18 c27 -27 25 -56 -4 -85 -30 -30 -71 -41 -91 -25 -20 16 -19
80 1 108 19 28 67 29 94 2z m-260 -48 c94 -34 148 -61 154 -78 3 -9 6 -43 6
-76 0 -71 12 -69 20 3 l5 50 35 -53 c19 -29 50 -98 69 -153 33 -95 35 -107 35
-230 0 -135 -13 -200 -36 -177 -8 8 -9 21 -1 47 12 36 1 48 -16 18 -12 -21 -7
-27 -105 104 -67 89 -75 106 -66 124 16 29 7 49 -10 22 -13 -21 -17 -18 -114
81 -114 115 -227 204 -333 262 -40 21 -73 42 -73 46 0 4 28 14 63 22 89 22
292 15 367 -12z m-3450 -41 c47 -67 69 -135 86 -269 20 -163 17 -174 -58 -196
-102 -30 -169 -114 -167 -212 l1 -49 9 41 c27 118 162 244 203 189 11 -16 16
-13 44 34 18 28 32 59 32 69 1 30 37 99 61 116 53 37 97 5 61 -43 -10 -15 -24
-57 -30 -96 -22 -134 -49 -214 -105 -310 -54 -92 -55 -95 -31 -95 17 0 31 -11
49 -40 14 -22 25 -46 25 -53 0 -27 -98 -154 -160 -207 l-63 -54 -16 23 c-9 14
-41 71 -72 128 -45 86 -62 108 -97 129 -68 41 -93 95 -118 262 -20 129 -26
149 -58 197 -27 41 -48 59 -86 77 -33 15 -53 31 -56 45 -9 35 2 43 44 31 64
-18 108 -45 154 -96 35 -40 48 -48 61 -40 23 12 21 33 -8 108 -28 72 -44 93
-96 122 -46 25 -63 58 -45 84 13 17 17 16 71 -17 74 -44 140 -118 162 -180 18
-49 27 -56 50 -41 10 6 8 27 -8 92 -22 94 -44 134 -96 180 -36 32 -47 70 -25
92 22 22 138 -77 176 -150 21 -40 54 -164 48 -180 -3 -10 4 -13 24 -10 20 2
28 8 25 18 -2 8 -5 47 -5 85 -1 57 -8 83 -34 139 -34 73 -38 96 -20 114 15 15
40 1 68 -37z m-3055 -42 c4 -44 4 -44 -4 -7 -4 21 -15 46 -24 56 -24 27 -21
40 4 16 13 -13 22 -38 24 -65z m-98 26 c21 14 27 15 34 4 14 -23 10 -35 -16
-47 -29 -14 -33 -42 -6 -42 17 0 18 -3 5 -40 -12 -36 -12 -44 2 -71 20 -40 39
-32 39 17 0 21 8 50 18 64 l17 24 0 -27 c0 -33 -30 -147 -43 -164 -15 -21 -55
-15 -71 10 -20 31 -48 193 -40 231 3 17 11 37 18 45 9 12 12 11 14 -3 3 -16 5
-16 29 -1z m5927 -159 c237 -105 534 -396 744 -730 39 -61 52 -91 47 -105 -3
-12 -10 -21 -15 -21 -5 0 -45 52 -89 115 -177 251 -391 498 -511 590 -85 65
-191 125 -232 132 -40 6 -45 12 -26 31 16 16 19 16 82 -12z m-4844 -56 c0 -5
-5 -12 -11 -16 -12 -7 -31 15 -23 28 6 9 34 -1 34 -12z m4865 -45 c130 -79
260 -193 353 -309 l31 -40 -29 -17 c-48 -30 -63 -72 -57 -155 4 -59 2 -75 -10
-86 -9 -7 -26 -33 -37 -58 -39 -85 -159 -172 -306 -221 -30 -10 -63 -19 -74
-19 -10 0 -33 -9 -50 -19 -50 -31 -60 -17 -52 74 8 87 -2 128 -45 191 -27 40
-27 40 -7 53 11 7 21 11 22 9 2 -2 8 -12 14 -23 10 -17 11 -12 12 30 0 57 -15
92 -25 60 -19 -61 -51 -71 -77 -25 -14 24 -24 30 -50 30 l-33 -1 30 -25 30
-24 -32 11 c-41 14 -93 72 -93 103 0 31 40 65 138 116 103 53 128 78 136 134
4 25 11 48 17 51 5 4 -4 26 -20 49 l-30 43 62 51 c75 64 100 66 182 17z
m-5015 6 c0 -36 12 -51 41 -51 17 0 34 8 43 22 l16 22 -1 -29 c-1 -64 -36
-164 -89 -253 -30 -51 -57 -92 -60 -92 -3 0 -11 14 -18 32 -10 29 -9 34 11 56
20 21 22 35 25 145 1 67 5 132 7 145 6 27 25 29 25 3z m-916 -133 c-3 -13 -13
-36 -21 -52 -26 -51 -9 -221 30 -290 14 -25 33 -68 42 -95 9 -29 30 -62 48
-78 18 -16 41 -42 51 -58 11 -17 37 -45 59 -64 l39 -34 -46 -24 c-25 -13 -46
-26 -46 -30 0 -3 35 -3 78 1 l77 7 -40 -42 c-62 -65 -102 -79 -225 -79 l-106
0 -112 -136 c-62 -74 -112 -129 -112 -120 0 8 22 84 50 169 l50 153 -56 58
c-33 34 -69 85 -87 124 -29 61 -32 75 -32 167 0 80 4 111 22 155 28 69 69 117
107 126 26 6 28 5 21 -12 -13 -30 -18 -104 -7 -104 5 0 45 63 89 140 71 128
80 140 106 140 25 0 27 -3 21 -22z m5679 -59 c4 -16 1 -18 -21 -13 -35 9 -34
7 -26 38 6 25 8 26 24 11 10 -9 20 -25 23 -36z m-4993 -194 c-10 -12 -10 -18
1 -32 12 -14 12 -16 -1 -11 -8 3 -41 14 -72 23 -31 10 -55 22 -52 27 3 4 35 8
71 8 57 0 64 -2 53 -15z m-224 -24 c5 -5 43 -16 84 -26 41 -10 99 -27 129 -38
44 -16 55 -17 62 -6 12 20 12 -6 -1 -53 -13 -45 -42 -65 -60 -43 -10 13 -9 19
5 34 16 19 15 20 -16 37 -18 9 -62 19 -97 22 -63 5 -64 5 -57 -18 9 -27 -7
-40 -49 -40 -61 0 -86 62 -45 114 22 28 30 31 45 17z m2999 -300 c69 -89 90
-108 212 -191 76 -52 139 -103 146 -117 8 -18 16 -23 31 -19 72 20 94 19 121
-8 21 -21 33 -26 58 -22 18 3 75 8 127 11 204 13 319 25 359 40 132 46 310 56
456 26 130 -27 140 -32 156 -83 12 -37 12 -47 0 -72 -10 -22 -11 -37 -3 -61 9
-30 7 -34 -16 -45 -49 -22 -187 -116 -254 -173 -61 -52 -203 -216 -194 -224 2
-2 59 28 127 67 157 91 300 160 410 198 82 29 87 30 138 16 130 -33 320 -39
648 -18 85 5 116 4 128 -6 25 -21 17 -28 -24 -23 -43 6 -117 -4 -107 -14 3 -4
36 -8 73 -10 78 -4 123 -26 205 -103 l53 -49 -90 -1 c-177 0 -301 -55 -436
-190 -71 -71 -94 -103 -133 -181 -69 -140 -93 -284 -62 -371 8 -21 12 -38 10
-38 -2 0 -29 11 -60 25 -32 14 -59 23 -62 21 -4 -5 31 -30 151 -106 42 -27 77
-53 77 -57 0 -5 -106 -35 -235 -67 -129 -32 -235 -62 -235 -67 0 -12 103 1
279 37 91 18 166 32 168 30 5 -5 -108 -90 -198 -149 -47 -31 -142 -86 -211
-121 -74 -39 -119 -67 -111 -70 8 -3 26 -3 40 0 l25 7 -23 -43 c-52 -94 -130
-150 -210 -150 -26 0 -192 111 -173 116 5 1 26 5 47 9 60 10 43 23 -40 30 -81
7 -98 16 -318 154 l-40 25 135 28 c127 26 130 27 60 22 -160 -10 -264 -7 -304
10 -86 36 -336 160 -336 166 0 4 65 31 145 61 79 29 142 55 140 57 -8 9 -172
-31 -261 -63 l-94 -33 -91 35 c-50 20 -92 41 -94 47 -2 6 -6 24 -9 39 -8 33
-26 26 -26 -10 0 -24 -2 -25 -37 -20 -50 9 -56 18 -61 90 -5 81 8 107 103 207
40 42 80 92 90 111 34 65 148 234 239 353 156 206 318 363 519 504 43 30 76
57 73 59 -2 3 -42 -14 -88 -37 -87 -43 -179 -108 -288 -203 -35 -31 -66 -55
-68 -53 -3 4 3 30 25 111 12 45 -31 -30 -57 -100 -21 -57 -54 -107 -150 -231
-68 -88 -124 -160 -126 -162 -6 -10 -286 64 -324 86 -126 71 -296 240 -427
423 -45 62 -110 147 -144 187 -52 62 -58 72 -36 67 50 -13 208 91 292 192 42
50 78 115 98 176 4 9 8 17 10 17 3 0 39 -45 82 -99z m-2553 64 c7 -17 34 -37
75 -56 36 -17 110 -67 165 -111 l100 -81 -83 -24 c-212 -60 -392 -181 -547
-366 -257 -306 -408 -700 -441 -1147 -4 -61 -12 -115 -18 -121 -15 -15 -131
-30 -203 -27 l-64 3 65 42 c96 62 150 147 61 97 -20 -12 -71 -42 -113 -68 -91
-57 -144 -65 -269 -43 -102 17 -250 57 -250 66 0 3 24 14 53 24 84 30 228 102
283 144 57 43 149 123 142 123 -3 0 -47 -23 -99 -51 -272 -148 -419 -205 -504
-196 -65 7 -129 29 -243 85 l-93 45 103 42 c97 39 222 105 368 196 75 46 85
56 95 86 5 19 -11 12 -102 -43 -186 -113 -297 -165 -450 -209 -95 -28 -107
-26 -185 31 l-48 36 182 92 c421 210 820 517 1283 983 l211 211 62 -7 c34 -4
65 -10 68 -14 7 -7 -134 -201 -203 -279 -41 -47 -60 -84 -49 -96 10 -9 131
120 242 258 93 115 104 126 148 138 69 18 136 85 183 183 20 43 43 79 50 79 8
0 19 -11 25 -25z m4484 -89 c-18 -29 -15 -32 87 -96 71 -44 91 -46 107 -8 8
22 9 22 9 -4 1 -42 -27 -104 -55 -118 -36 -20 -98 -3 -102 28 -2 13 1 29 7 36
11 14 -23 53 -66 75 -19 9 -24 8 -33 -9 -11 -21 -30 -27 -30 -10 0 6 19 46 42
88 28 50 44 71 46 59 2 -10 -3 -29 -12 -41z m103 34 c54 -19 71 -33 71 -57 0
-7 -7 -10 -17 -6 -31 11 -103 58 -108 70 -6 16 -10 17 54 -7z m969 -66 c27
-30 27 -56 3 -109 -28 -61 -79 -100 -172 -130 -75 -24 -84 -24 -105 -10 -34
22 -30 48 20 124 100 150 192 195 254 125z m-3435 -171 c-9 -7 -25 -13 -34
-13 -10 0 -25 -8 -35 -17 -16 -17 -17 -16 -10 26 3 24 14 57 22 73 l16 31 29
-44 c27 -40 28 -45 12 -56z m-1479 -59 c283 -72 536 -341 665 -708 81 -229
113 -420 113 -681 1 -211 -14 -333 -63 -522 -117 -454 -351 -798 -652 -959
-219 -116 -477 -117 -686 -2 -42 22 -101 53 -131 68 -67 33 -189 154 -260 256
-138 200 -237 489 -269 789 -13 122 -6 377 13 504 73 471 292 875 606 1116
179 138 448 194 664 139z m-1454 -74 c-20 -17 -42 -27 -52 -24 -23 7 -84 -20
-96 -43 -5 -10 -12 -31 -16 -47 l-7 -30 45 42 c53 49 84 57 40 11 -69 -73
-145 -132 -156 -121 -8 8 -21 -2 -46 -36 -41 -55 -133 -152 -144 -152 -4 0 -8
10 -8 23 0 13 60 98 154 217 l153 195 84 -3 84 -4 -35 -28z m6044 34 c22 -8
20 -25 -9 -80 -14 -26 -25 -59 -25 -74 0 -15 -11 -53 -25 -84 -23 -51 -28 -56
-57 -57 -18 0 -42 -2 -53 -4 -49 -8 -140 -15 -260 -21 -136 -6 -244 3 -365 32
l-70 17 -102 -38 c-57 -21 -152 -62 -213 -92 l-110 -54 56 53 c32 29 95 75
140 102 46 27 95 56 107 64 21 12 23 20 20 63 -3 27 -2 49 2 49 12 0 74 -32
93 -48 9 -8 17 -26 17 -39 0 -27 -2 -27 43 -8 31 13 40 13 71 0 65 -27 337
-14 451 22 28 9 66 24 86 34 47 23 167 127 175 151 6 20 6 20 28 12z m107
-574 c84 -15 121 -36 157 -88 52 -77 102 -187 124 -275 12 -49 31 -96 48 -117
50 -65 103 -154 147 -250 33 -70 60 -111 104 -157 60 -62 68 -80 48 -100 -9
-9 4 -29 52 -81 36 -38 77 -93 92 -121 l28 -51 -25 -30 c-14 -17 -37 -53 -52
-80 -23 -42 -38 -55 -91 -82 -34 -17 -81 -50 -102 -73 -41 -45 -81 -113 -81
-140 0 -12 -12 -15 -57 -15 -32 0 -75 -3 -96 -7 -38 -6 -41 -4 -108 66 -51 53
-80 95 -114 164 -39 79 -52 91 -46 40 6 -42 -63 22 -91 84 -12 26 -50 77 -85
113 -85 85 -193 249 -288 435 -65 129 -75 144 -70 106 3 -24 21 -81 40 -128
19 -46 35 -85 35 -88 0 -6 -94 51 -137 83 -67 49 -92 148 -69 262 56 268 295
499 551 533 17 2 31 5 31 6 1 0 26 -3 55 -9z m-7615 -589 c284 -260 931 -468
1389 -448 130 6 130 6 106 -14 -13 -10 -29 -19 -35 -19 -7 0 -36 -7 -65 -16
-45 -13 -51 -17 -40 -30 9 -12 28 -15 71 -12 32 2 58 0 58 -3 0 -23 -37 -42
-124 -64 -143 -36 -146 -48 -9 -43 102 3 110 2 102 -14 -30 -55 -426 -73 -646
-30 -216 43 -393 102 -578 193 -186 91 -365 235 -365 294 0 31 11 32 36 4 53
-59 234 -179 269 -179 14 0 -28 40 -95 93 -135 105 -177 157 -165 204 l6 25
39 -36 c34 -30 108 -76 125 -76 17 0 -4 29 -70 95 -54 53 -75 81 -75 100 0 14
3 25 6 25 3 0 30 -22 60 -49z m-216 -199 c0 -11 -20 -33 -47 -53 l-48 -33 43
52 c24 29 46 52 48 52 2 0 4 -8 4 -18z m58 -122 c7 -11 8 -20 3 -20 -5 0 -11
-11 -13 -25 -4 -21 -2 -23 13 -15 28 15 54 12 74 -10 21 -23 23 -19 -67 -119
-104 -115 -253 -359 -283 -461 -7 -27 76 84 190 252 39 57 106 141 151 187
l81 84 89 -51 c49 -28 95 -55 101 -60 10 -6 4 -24 -22 -73 -42 -79 -96 -272
-124 -441 -19 -115 -30 -263 -19 -273 2 -3 15 44 28 103 101 469 123 544 174
609 l32 40 140 -52 c77 -28 145 -55 151 -58 7 -4 10 -17 7 -30 -2 -12 -6 -85
-9 -162 l-5 -140 20 60 c11 33 27 98 35 145 9 47 18 90 20 97 3 8 43 3 141
-18 75 -16 139 -29 141 -29 7 0 3 -68 -8 -124 -5 -31 -8 -63 -6 -69 6 -17 45
64 61 125 l13 53 134 -2 c74 -2 139 -3 146 -3 30 0 32 -118 5 -207 l-20 -62
62 43 c136 97 237 126 306 88 30 -16 41 -34 77 -121 139 -339 334 -568 589
-692 56 -28 107 -56 113 -62 7 -9 -19 -12 -102 -12 -132 -1 -210 -21 -350 -92
-107 -53 -124 -64 -333 -210 -364 -254 -611 -379 -879 -446 -152 -38 -228 -47
-409 -47 -320 0 -540 67 -836 257 -206 131 -458 281 -532 316 -56 26 -185 57
-240 57 l-49 0 110 163 c60 89 207 324 326 522 257 425 334 547 429 675 76
103 294 330 317 330 8 0 20 -9 27 -20z m5016 -226 c26 -10 19 -19 -51 -65 -71
-45 -210 -175 -199 -186 3 -3 32 15 63 41 102 83 233 166 263 166 31 0 85 -18
171 -56 l59 -27 -101 -61 c-55 -33 -144 -94 -197 -133 -98 -73 -267 -232 -305
-288 l-21 -30 25 21 c131 114 410 338 474 379 145 95 179 95 351 4 l97 -52
-59 -54 -59 -54 84 42 84 43 74 -40 c41 -21 78 -44 84 -50 5 -7 3 -28 -7 -58
-19 -56 -12 -72 13 -27 38 69 35 68 94 34 l54 -31 -4 -63 c-2 -35 -19 -118
-38 -184 -48 -164 -48 -166 -20 -118 40 67 68 152 103 311 l5 23 58 -31 c69
-37 76 -55 67 -178 -6 -75 -5 -76 9 -44 9 18 18 60 22 92 3 33 10 60 16 60 6
0 26 -12 45 -27 l35 -26 -6 -126 c-20 -415 -183 -744 -538 -1086 -120 -116
-224 -198 -374 -298 -125 -83 -123 -91 7 -26 134 66 231 134 397 278 69 60 74
62 67 35 -15 -61 -79 -209 -142 -326 -35 -66 -63 -123 -61 -125 8 -7 97 99
127 153 17 29 35 56 40 59 9 6 280 -368 280 -386 0 -43 -125 -196 -197 -240
l-33 -21 -60 56 c-105 97 -323 185 -570 229 -47 9 -125 30 -173 47 -317 113
-883 128 -1342 35 -151 -30 -334 -83 -457 -130 -60 -24 -127 -41 -191 -50 -87
-11 -105 -17 -154 -51 l-56 -38 -24 29 c-44 54 -44 51 40 230 182 390 242 519
319 688 l81 177 258 308 c392 471 687 761 1034 1021 251 187 373 250 439 225z
m-3289 -140 l7 -59 -19 25 c-15 20 -18 37 -15 80 5 65 16 47 27 -46z m7059 60
c16 -41 -43 -104 -96 -104 -14 0 -18 -4 -14 -16 8 -22 -11 -44 -38 -44 -20 -1
-20 -2 -3 -14 22 -17 21 -20 -4 -73 -12 -24 -20 -46 -18 -47 11 -10 71 -17 65
-8 -8 13 43 81 95 125 59 51 108 63 184 45 53 -12 60 -16 63 -40 7 -56 -74
-77 -127 -32 -32 26 -40 19 -20 -18 11 -20 9 -21 -30 -15 -22 3 -41 3 -41 1 0
-2 9 -12 20 -22 20 -18 20 -19 -11 -50 -17 -18 -39 -32 -48 -32 -11 0 -7 -8
14 -25 35 -28 45 -31 45 -11 0 8 34 33 76 56 73 41 76 42 122 30 56 -14 112
-54 112 -79 0 -52 -84 -52 -120 -1 -21 30 -44 33 -33 5 6 -18 -1 -19 -28 -5
-21 12 -24 7 -9 -20 8 -15 4 -22 -25 -40 -33 -20 -34 -22 -19 -45 15 -22 16
-23 54 -8 49 19 92 12 153 -26 58 -37 73 -63 51 -86 -24 -23 -63 -11 -101 31
-30 34 -32 34 -38 14 -6 -19 -12 -21 -41 -17 -23 4 -34 2 -34 -6 0 -22 -144
-156 -190 -176 -25 -11 -67 -21 -93 -21 -54 0 -117 22 -117 42 0 10 -23 13
-93 13 -86 0 -96 2 -129 27 -27 20 -35 33 -31 48 6 22 12 21 -138 24 -98 1
-129 17 -129 66 0 40 19 50 113 60 110 11 158 26 202 63 20 16 85 102 144 191
108 161 157 217 215 242 42 18 83 17 90 -2z m-7141 -142 c9 -10 23 -34 31 -54
l15 -36 -47 -12 c-26 -6 -76 -26 -112 -44 l-65 -33 -1 78 c-1 84 2 89 67 89
14 0 34 7 45 15 26 19 48 19 67 -3z m6743 -159 c-15 -29 -106 -123 -106 -110
0 20 33 67 69 100 49 44 56 46 37 10z m-5836 -1034 c64 -99 84 -161 84 -259 1
-93 -6 -112 -94 -256 -26 -41 -40 -76 -40 -98 0 -77 -90 -297 -204 -498 l-77
-138 -274 0 -273 0 3 173 c3 180 12 235 61 365 33 89 154 286 168 272 12 -12
56 -13 56 -1 0 20 -86 103 -146 141 l-66 42 119 84 c140 100 332 199 423 218
36 8 100 15 143 15 l77 1 40 -61z m-3535 -156 c92 -33 199 -91 373 -206 l143
-94 -103 -96 c-130 -121 -218 -191 -305 -243 -54 -32 -69 -46 -71 -68 -5 -39
-163 -278 -233 -354 -32 -34 -67 -79 -77 -98 l-18 -36 -34 33 c-37 38 -330
427 -379 503 -17 28 -31 60 -31 72 0 42 344 324 395 324 8 0 60 68 115 150
114 170 92 159 225 113z m2615 -435 c-83 -154 -113 -303 -108 -525 l3 -140
-115 -18 c-224 -34 -361 -84 -620 -226 -102 -55 -219 -118 -260 -139 -41 -21
-117 -66 -169 -100 -78 -51 -110 -65 -187 -85 -116 -28 -165 -57 -206 -119
-28 -42 -43 -54 -108 -81 -41 -17 -96 -46 -122 -64 -31 -21 -69 -36 -110 -43
-50 -9 -70 -18 -96 -45 -19 -18 -44 -33 -57 -33 -30 0 -171 128 -401 361 -158
162 -334 356 -334 369 1 3 34 29 76 59 102 74 198 193 318 396 61 101 66 107
152 164 49 32 125 93 170 134 l80 75 81 -23 c45 -13 128 -29 185 -35 56 -6
137 -22 178 -35 69 -21 176 -45 275 -61 59 -9 338 -5 430 6 170 21 373 82 565
170 80 36 129 51 205 63 55 9 125 25 155 35 30 10 56 17 58 16 1 -1 -15 -35
-38 -76z m3123 -437 c247 -36 404 -93 556 -203 129 -93 118 -87 100 -58 -9 14
-45 50 -81 80 -37 30 -65 56 -63 58 6 7 244 -61 310 -89 129 -53 169 -94 211
-212 17 -48 12 -56 -57 -94 -28 -15 -54 -38 -61 -54 -12 -27 -13 -27 -41 -12
-16 8 -53 17 -83 20 -92 10 -183 -49 -237 -152 -17 -33 -16 -35 -41 55 -20 68
-41 102 -31 50 33 -188 30 -318 -10 -475 -54 -213 -174 -381 -345 -484 -55
-33 -58 -25 -9 27 95 99 165 219 209 357 31 100 39 286 16 389 -35 156 -136
302 -253 363 -91 49 -154 63 -277 63 -176 1 -300 -42 -435 -151 -162 -132
-262 -316 -319 -589 l-9 -45 -17 37 c-32 74 -48 155 -54 288 l-7 135 -14 -69
c-19 -95 -9 -228 25 -341 30 -99 35 -136 18 -142 -6 -2 -45 19 -86 46 -42 27
-86 54 -98 61 l-23 12 22 -30 c16 -23 104 -99 160 -139 5 -3 -118 -295 -129
-307 -10 -10 -107 22 -193 66 -32 16 -71 33 -85 39 -63 22 46 -54 148 -103 58
-29 106 -53 108 -54 2 -1 -13 -58 -34 -127 l-37 -126 -51 21 c-81 32 -151 58
-155 58 -15 0 32 -36 82 -63 l61 -32 -74 -7 c-87 -8 -146 3 -199 36 -56 36
-141 135 -185 217 l-39 73 46 -34 c26 -18 49 -31 52 -28 3 3 -27 41 -66 84
-39 43 -79 95 -89 114 -27 53 -67 189 -83 280 l-14 82 69 -76 c69 -75 100 -97
77 -54 -6 12 -40 59 -74 103 -34 45 -70 105 -79 132 -25 76 -21 363 5 363 5 0
83 -71 173 -159 89 -87 178 -166 197 -176 39 -20 16 6 -233 260 l-137 140 15
66 c23 100 24 101 134 100 52 0 129 -5 170 -10 41 -5 76 -8 78 -6 12 11 -146
47 -230 52 -110 7 -110 7 -42 83 43 47 91 66 212 80 61 8 107 20 135 35 133
73 518 165 818 194 150 15 508 5 672 -18z m1487 -381 c0 -6 -26 -10 -57 -10
-32 0 -97 -7 -145 -17 -71 -13 -90 -14 -103 -3 -23 19 -18 32 24 62 21 15 63
54 92 86 l54 58 67 -83 c38 -46 68 -87 68 -93z m-4175 66 c35 -6 175 -23 254
-31 51 -5 116 -28 126 -45 4 -7 -29 -98 -40 -108 -1 -2 -20 4 -41 13 -38 16
-124 36 -124 29 0 -2 31 -19 69 -39 38 -19 72 -39 76 -45 7 -11 -24 -221 -35
-233 -4 -4 -45 10 -91 33 -81 38 -238 85 -260 78 -6 -2 33 -21 87 -41 132 -50
236 -107 250 -138 7 -13 15 -84 18 -156 l7 -133 -78 -2 c-43 -1 -129 -2 -191
-2 -159 0 -118 -14 96 -33 97 -8 179 -17 181 -19 13 -12 -29 -61 -108 -125
-49 -40 -88 -75 -86 -77 6 -6 80 36 142 82 l62 45 12 -42 c6 -23 19 -71 29
-107 l18 -66 -73 -52 c-127 -91 -266 -159 -480 -233 -125 -43 -105 -51 37 -14
160 41 316 116 463 222 l59 43 13 -22 c17 -31 17 -30 -21 -87 -39 -58 -33 -65
18 -20 l35 30 40 -80 41 -80 -70 -64 c-95 -88 -229 -178 -385 -259 -138 -71
-145 -84 -25 -43 143 49 289 140 422 265 l77 71 16 -25 c15 -23 14 -28 -20
-95 -19 -39 -31 -71 -26 -71 5 0 29 22 53 50 l44 50 38 -46 c21 -25 36 -46 35
-48 -2 -1 -22 -13 -44 -27 -22 -13 -92 -74 -157 -136 -169 -162 -203 -179
-473 -234 -82 -17 -171 -40 -196 -51 l-47 -20 -123 37 c-148 44 -320 105 -501
176 -104 41 -128 54 -113 60 11 5 169 42 350 84 182 41 345 79 363 84 44 13
173 73 168 78 -2 2 -84 -18 -182 -45 -99 -27 -251 -66 -338 -87 -88 -21 -214
-54 -282 -75 l-123 -37 -193 92 c-106 50 -258 128 -338 172 l-145 82 -31 83
c-104 279 -232 458 -380 533 -48 24 -72 30 -126 30 -56 0 -64 2 -55 14 24 29
98 50 337 96 135 26 249 52 255 56 5 5 -22 9 -64 9 l-73 0 234 184 c290 228
368 281 521 356 195 95 365 141 587 160 95 8 449 5 505 -4z m465 -1 c0 -2 -8
-9 -19 -14 -13 -7 -24 -6 -37 4 -18 13 -16 14 19 15 20 0 37 -2 37 -5z m3312
-79 c15 -18 24 -36 21 -40 -15 -15 -31 -3 -46 34 -19 49 -11 51 25 6z m-1121
-12 c177 -53 311 -196 348 -372 6 -29 11 -99 11 -155 0 -166 -48 -322 -138
-454 -36 -52 -112 -135 -112 -122 0 3 8 30 19 60 24 70 37 148 23 134 -6 -5
-55 -109 -111 -230 -79 -174 -104 -221 -120 -223 -17 -3 -21 -11 -21 -45 0
-47 -16 -85 -43 -101 -14 -9 -23 -4 -55 30 -20 23 -50 49 -65 59 -93 56 -257
79 -365 51 -62 -15 -165 -63 -112 -52 163 37 315 33 407 -8 34 -16 69 -36 77
-45 13 -15 7 -16 -88 -13 -166 5 -311 -41 -407 -128 l-44 -40 83 40 c45 22
123 52 173 66 76 22 105 26 182 22 87 -4 100 -8 235 -67 l143 -64 -54 -56
c-103 -108 -157 -242 -157 -386 l0 -83 -62 -11 c-149 -25 -375 -51 -458 -52
-62 -1 -227 49 -327 100 -70 35 -129 98 -143 153 -20 71 -13 244 15 385 68
350 214 686 514 1188 l24 40 -47 -45 c-25 -24 -74 -86 -108 -137 -33 -52 -63
-91 -65 -89 -9 9 27 157 57 235 74 192 261 358 462 411 94 24 253 26 329 4z
m1587 -49 c122 -14 280 -93 365 -183 51 -55 108 -168 133 -262 26 -98 22 -360
-5 -360 -4 0 -23 32 -42 72 -19 39 -55 101 -80 138 -44 64 -46 69 -33 99 16
38 2 51 -15 13 l-13 -26 -36 44 c-119 146 -318 320 -461 404 -45 27 -80 51
-77 54 7 6 164 20 191 16 11 -2 44 -6 73 -9z m452 -45 c27 -27 26 -75 -2 -94
-19 -14 -24 -14 -38 -1 -23 21 -32 19 -25 -6 l7 -22 -32 23 c-22 16 -28 26
-21 33 6 6 11 21 11 33 0 50 62 72 100 34z m-1284 -131 c-14 -17 -26 -39 -26
-50 0 -11 -18 -37 -40 -58 -29 -27 -40 -46 -40 -67 0 -16 -18 -64 -41 -107
-39 -74 -56 -96 -45 -59 2 9 7 55 11 101 11 147 93 259 198 270 5 1 -3 -13
-17 -30z m327 -46 c111 -57 212 -133 332 -247 50 -48 122 -114 160 -148 86
-75 150 -143 172 -183 23 -41 123 -324 123 -346 0 -10 -7 -25 -17 -34 -15 -16
-17 -13 -33 37 -41 134 -166 336 -290 471 -78 83 -383 356 -440 392 -20 13
-60 35 -89 51 -49 25 -52 29 -35 41 10 7 20 13 22 13 2 0 45 -21 95 -47z m31
-137 c40 -17 51 -44 37 -89 -15 -43 -59 -84 -147 -136 -91 -53 -135 -62 -157
-31 -19 27 -16 36 44 125 56 82 93 119 134 133 41 14 51 14 89 -2z m-417 -166
c14 -11 38 -20 54 -20 26 0 41 -12 45 -35 1 -5 5 -27 9 -47 7 -36 6 -38 -18
-38 -37 0 -115 -59 -174 -131 -40 -48 -58 -81 -73 -134 -11 -38 -26 -79 -32
-90 -7 -11 -15 -45 -18 -75 -6 -61 -4 -60 -87 -45 -24 4 -43 4 -43 -1 0 -5 23
-22 51 -37 28 -16 49 -30 47 -32 -8 -8 -178 -52 -178 -46 0 4 15 22 34 40 31
30 34 39 38 104 4 66 8 78 53 147 44 66 252 492 257 523 1 7 3 -5 5 -25 3 -25
13 -44 30 -58z m-5187 72 c0 -5 -14 -18 -30 -30 -72 -54 -104 -72 -127 -72
-23 0 -23 1 -7 25 19 30 75 65 118 75 44 11 46 11 46 2z m5986 -249 c42 -49
99 -119 127 -158 51 -72 157 -278 156 -305 0 -8 -19 -37 -43 -63 l-44 -49 -50
37 c-28 20 -54 45 -57 56 -6 18 -8 18 -28 4 -12 -8 -33 -15 -48 -15 -19 0 -60
-30 -153 -111 -135 -118 -149 -124 -182 -73 -11 16 -14 32 -8 51 10 38 6 54
-19 81 -26 28 -14 54 29 62 27 5 27 7 10 17 -24 13 -72 -1 -80 -24 -5 -12 -15
-8 -47 22 -58 52 -137 86 -204 88 -51 1 -55 3 -49 22 15 45 23 61 38 74 9 7
16 19 16 26 0 8 11 26 24 42 13 15 30 42 39 58 26 50 114 142 162 168 68 38
133 54 201 49 43 -3 69 0 90 12 16 8 32 15 36 16 4 0 42 -39 84 -87z m797 22
c52 -13 110 -31 128 -40 46 -24 149 -98 173 -124 18 -19 18 -23 4 -34 -205
-159 -586 -427 -608 -427 -10 0 -20 37 -20 73 0 37 -15 27 -24 -15 -7 -31 -8
-32 -21 -14 -23 31 -18 50 21 71 20 10 44 35 54 55 10 19 39 62 64 94 39 50
46 66 46 103 0 52 19 93 57 123 l28 21 -25 -5 -26 -5 13 82 c6 45 12 84 12 86
1 2 7 -2 15 -8 8 -7 57 -23 109 -36z m-7162 -125 c42 0 63 -5 80 -20 l24 -20
-27 -24 c-31 -28 -78 -93 -78 -109 0 -5 24 13 53 40 87 82 86 82 151 13 30
-33 73 -91 95 -128 44 -75 114 -238 109 -253 -8 -25 -602 395 -713 504 -7 6
35 7 120 3 72 -3 155 -6 186 -6z m5092 -446 l-88 -82 45 4 c63 7 133 23 214
51 38 12 71 21 73 19 8 -8 -63 -44 -127 -65 -36 -12 -72 -26 -80 -32 -24 -17
78 -2 146 21 68 24 64 23 64 6 0 -34 -297 -111 -455 -117 -47 -2 -59 1 -57 12
7 29 24 37 93 43 39 4 68 10 65 13 -3 3 -31 8 -62 12 l-57 6 54 36 c78 52 145
114 181 168 17 25 40 57 52 69 l21 24 3 -54 3 -53 -88 -81z m-37 75 c-16 -24
-157 -131 -163 -125 -2 2 4 19 13 38 12 27 33 43 88 71 39 20 72 36 74 36 2 1
-4 -9 -12 -20z m772 -154 c43 -71 84 -129 90 -128 7 2 12 -2 12 -7 0 -13 -77
-49 -102 -50 -23 0 -23 28 -2 51 15 17 15 21 -9 61 -14 24 -34 52 -46 62 -19
17 -23 18 -38 4 -34 -30 -93 17 -93 73 0 35 44 71 82 67 23 -3 38 -22 106
-133z m619 45 c42 -27 43 -29 24 -39 -42 -23 -92 7 -105 62 -6 26 -5 27 15 16
12 -6 42 -24 66 -39z m313 21 c19 -36 13 -44 -27 -36 -21 4 -49 13 -63 20 -27
14 -21 20 30 28 46 8 49 7 60 -12z m-844 -93 c24 -24 28 -58 7 -58 -8 0 -13 8
-67 105 l-28 50 31 -35 c17 -19 43 -47 57 -62z m440 14 c13 -7 11 -13 -18 -37
-18 -15 -55 -39 -83 -51 -51 -24 -192 -60 -201 -52 -2 3 -2 13 2 22 4 10 18
16 41 16 29 0 47 12 125 87 l92 87 13 -32 c7 -17 20 -35 29 -40z m264 -106 c0
-2 -7 -6 -15 -10 -8 -3 -15 -1 -15 4 0 6 7 10 15 10 8 0 15 -2 15 -4z m-1266
-21 c4 -12 -3 -15 -29 -15 -40 0 -45 7 -12 20 31 12 34 12 41 -5z m1163 -31
c-10 -10 -117 -12 -111 -2 3 4 30 8 61 8 31 0 53 -3 50 -6z m-1134 -33 c9 -1
17 -6 17 -12 0 -7 -54 -9 -162 -8 -162 2 -188 4 -188 19 0 6 232 6 333 1z
m1007 -36 c-16 -9 -54 -14 -105 -14 -72 0 -78 1 -61 14 14 11 45 15 105 15 80
-1 84 -2 61 -15z m-930 -40 c10 -12 9 -15 -6 -15 -11 0 -28 -2 -39 -5 -11 -3
-31 3 -45 15 l-25 20 51 0 c34 0 56 -5 64 -15z m-1892 -12 c-2 -13 -12 -17
-33 -16 -17 1 -164 5 -327 9 -169 3 -295 10 -292 15 3 5 151 9 330 9 305 0
325 -1 322 -17z m2610 0 c-10 -2 -28 -2 -40 0 -13 2 -5 4 17 4 22 1 32 -1 23
-4z m-1142 -14 c4 -7 -4 -20 -17 -30 -22 -17 -23 -19 -4 -18 11 0 28 6 38 13
13 10 28 11 60 4 23 -5 43 -11 46 -13 2 -2 -10 -20 -28 -40 -44 -50 -39 -64 8
-22 46 42 100 61 147 53 33 -7 48 -26 20 -26 -7 0 -33 -18 -58 -40 -53 -46
-114 -156 -129 -233 -11 -54 -12 -55 -55 -66 -23 -6 -47 -11 -52 -11 -5 0 -4
33 3 78 7 42 11 78 10 80 -6 7 -36 -83 -42 -123 -6 -48 -10 -50 -153 -75 -36
-6 -73 -14 -84 -17 -17 -5 -18 1 -14 93 6 116 28 184 92 277 56 82 115 127
166 127 21 0 42 -5 46 -11z m520 -44 c37 -15 38 -35 1 -35 -23 0 -107 35 -107
45 0 11 72 4 106 -10z m569 -14 c-51 -24 -68 -27 -115 -22 l-55 7 40 21 c31
17 56 22 115 22 l75 -1 -60 -27z m-2560 -53 c3 -40 7 -117 8 -170 l2 -97 -55
-7 c-51 -7 -53 -8 -25 -15 16 -5 49 -10 73 -11 36 -3 48 -9 68 -36 21 -27 23
-33 10 -38 -24 -9 -9 -24 23 -24 15 0 36 -9 45 -19 18 -19 17 -20 -30 -23 -56
-4 -71 -24 -22 -31 39 -6 -376 2 -442 8 -25 2 -79 7 -120 10 -139 11 -404 46
-565 75 -244 44 -285 53 -285 62 0 4 5 8 11 8 6 0 9 6 6 13 -9 27 96 41 346
46 43 1 28 25 -19 31 -76 10 -6 28 141 35 77 4 142 9 144 10 1 2 0 8 -4 14 -4
7 -50 11 -118 11 l-111 0 22 23 23 22 429 0 c311 0 430 3 430 11 0 19 -92 24
-465 24 l-359 0 20 21 c19 18 31 20 125 18 191 -5 301 -1 311 9 26 26 -7 32
-188 32 -101 0 -184 3 -184 7 0 4 10 17 22 30 l21 23 353 0 352 0 7 -72z
m1895 -38 c72 -12 161 -20 238 -20 123 0 149 -8 90 -30 -233 -82 -580 -190
-615 -190 -18 0 -9 37 27 116 33 74 94 144 124 144 11 0 73 -9 136 -20z"/>
<path d="M9145 11379 c-271 -25 -448 -231 -495 -576 -18 -132 -8 -392 20 -503
74 -298 269 -470 535 -470 216 0 385 110 479 312 58 124 74 194 91 388 7 89
-13 318 -36 400 -87 317 -298 476 -594 449z m144 -316 c38 -28 78 -107 98
-193 14 -60 18 -115 17 -270 -1 -214 -17 -308 -69 -397 -62 -104 -198 -105
-258 -2 -101 172 -97 666 6 820 45 68 143 88 206 42z"/>
<path d="M7833 11366 c-200 -49 -342 -219 -401 -483 -13 -61 -17 -124 -17
-283 1 -179 4 -216 23 -295 77 -306 270 -476 541 -475 266 1 458 171 536 475
25 97 36 286 25 420 -29 355 -173 574 -421 640 -65 18 -215 18 -286 1z m201
-290 c102 -43 154 -238 143 -531 -7 -165 -22 -242 -64 -325 -59 -116 -189
-130 -259 -29 -91 131 -109 561 -33 765 25 65 53 102 93 120 40 17 79 17 120
0z"/>
<path d="M6395 11358 c-2 -7 -29 -164 -60 -348 -31 -184 -59 -354 -64 -377
l-8 -42 66 -20 c159 -47 147 -45 203 -27 120 39 255 27 305 -26 71 -75 71
-238 0 -323 -40 -49 -81 -65 -164 -65 -69 0 -112 15 -223 80 -41 24 -97 26
-128 4 -12 -8 -50 -52 -84 -96 l-62 -82 54 -48 c118 -105 302 -166 475 -155
256 15 443 154 521 387 27 83 25 255 -4 335 -49 131 -135 220 -268 272 -63 25
-81 27 -201 28 -73 0 -133 4 -133 9 0 4 7 48 16 96 l16 89 212 3 c236 3 257 9
303 78 20 29 23 46 23 136 l0 104 -395 0 c-308 0 -397 -3 -400 -12z"/>
<path d="M2592 8784 c-64 -17 -169 -68 -209 -101 -27 -22 -24 -21 57 8 47 17
123 44 170 61 47 17 92 34 100 39 25 14 -59 9 -118 -7z"/>
<path d="M4066 7390 c10 -53 30 -97 71 -152 36 -50 36 -50 25 -106 -5 -32 -13
-65 -17 -74 -4 -10 -3 -18 2 -18 5 0 20 33 33 74 l23 74 -32 39 c-17 22 -50
75 -72 119 -30 59 -38 70 -33 44z"/>
<path d="M4792 8780 c-58 -21 -113 -52 -132 -76 -11 -13 124 48 185 84 30 17
7 14 -53 -8z"/>
<path d="M5013 8410 c-18 -11 -33 -21 -33 -22 0 -2 22 -4 50 -4 36 -1 62 -9
97 -30 66 -41 64 -50 -9 -46 -47 2 -68 -1 -83 -13 -19 -16 -17 -16 33 -11 56
5 58 5 40 -23 -15 -24 -4 -49 24 -60 29 -11 46 -4 53 20 5 14 12 18 26 14 15
-5 19 -1 19 15 0 18 4 20 23 14 37 -12 71 -5 90 18 18 22 18 22 -23 34 -22 7
-57 25 -76 41 -86 67 -97 73 -149 73 -32 0 -62 -7 -82 -20z"/>
<path d="M10370 7926 c-22 -58 21 -96 125 -111 70 -10 111 -32 136 -72 12 -19
23 -32 26 -29 11 11 4 75 -11 104 -22 42 -48 58 -130 77 -38 8 -84 25 -103 36
l-33 21 -10 -26z"/>
<path d="M10406 7778 c-22 -30 -21 -97 0 -105 28 -10 49 11 49 50 0 34 1 35
20 23 11 -7 30 -32 42 -57 l22 -44 1 39 c0 32 -7 45 -39 77 -44 44 -73 49 -95
17z"/>
<path d="M7892 7181 c-14 -44 -28 -161 -19 -161 7 0 41 189 35 195 -3 3 -10
-12 -16 -34z"/>
<path d="M8312 7026 c-77 -85 -121 -229 -104 -341 l8 -50 12 87 c20 141 69
254 137 318 28 26 32 40 11 40 -8 0 -36 -25 -64 -54z"/>
<path d="M8456 7008 c-45 -60 -69 -128 -74 -212 -5 -75 13 -195 26 -181 4 3 7
57 7 118 0 105 2 118 37 207 20 52 35 96 33 98 -1 2 -15 -12 -29 -30z"/>
<path d="M9055 6350 c-49 -49 -86 -93 -82 -97 4 -4 13 0 20 8 7 8 46 49 87 91
40 43 71 80 69 83 -3 2 -45 -36 -94 -85z"/>
<path d="M10888 7354 c-18 -9 -31 -28 -38 -53 -6 -25 -18 -42 -35 -49 -26 -12
-35 -42 -11 -42 20 0 64 37 71 60 4 11 11 18 16 14 5 -3 7 -15 3 -26 -4 -15
-2 -19 7 -16 9 3 14 21 14 49 0 44 0 44 35 44 31 0 35 -3 38 -28 2 -15 8 -25
13 -22 13 9 11 59 -3 73 -16 16 -77 14 -110 -4z"/>
<path d="M5821 6975 c-131 -29 -270 -112 -392 -235 -206 -207 -364 -562 -410
-920 -14 -116 -12 -382 5 -492 76 -491 315 -840 649 -946 73 -23 261 -22 341
2 428 129 741 718 739 1391 -1 312 -73 598 -211 830 -70 118 -224 270 -322
318 -136 66 -258 82 -399 52z m241 -16 c193 -40 389 -213 505 -444 173 -346
215 -789 113 -1212 -117 -488 -374 -821 -696 -903 -286 -73 -557 65 -755 385
-89 143 -164 373 -189 580 -15 123 -13 364 5 488 56 399 255 781 503 967 168
125 346 174 514 139z"/>
<path d="M5955 6099 c-117 -26 -205 -129 -245 -283 -32 -128 -22 -262 29 -371
57 -123 144 -183 249 -172 98 10 168 69 230 192 39 79 55 152 54 245 -2 124
-38 238 -99 311 -48 56 -150 93 -218 78z m142 -81 c98 -65 150 -279 108 -441
-28 -107 -89 -197 -159 -234 -38 -20 -114 -20 -152 0 -112 58 -178 259 -143
429 25 122 107 241 181 266 51 17 122 8 165 -20z"/>
<path d="M5978 5979 c-8 -6 -2 -9 20 -9 174 -1 237 -312 101 -500 -30 -41 -79
-70 -108 -65 -9 2 -24 4 -33 4 -30 2 -84 59 -109 113 -18 42 -23 71 -23 138 0
99 19 166 69 240 38 56 31 67 -11 18 -111 -132 -111 -368 0 -483 40 -42 46
-45 95 -45 65 0 103 19 141 71 87 120 100 289 34 420 -22 45 -73 97 -97 101
-41 5 -67 4 -79 -3z"/>
<path d="M11010 5681 c-113 -35 -204 -128 -225 -231 -7 -33 -4 -31 32 25 70
107 167 176 283 201 l55 12 -60 0 c-33 0 -71 -3 -85 -7z"/>
<path d="M11135 5546 c-117 -37 -209 -133 -233 -243 -13 -58 0 -54 29 9 48
105 167 197 299 232 l55 15 -55 0 c-30 0 -73 -6 -95 -13z"/>
<path d="M4181 4784 c-54 -96 -160 -250 -248 -359 l-48 -60 54 45 c111 92 227
258 278 397 13 36 22 67 21 69 -2 2 -28 -40 -57 -92z"/>
<path d="M4553 4800 c-64 -38 -169 -149 -206 -218 -16 -30 -27 -55 -25 -57 2
-3 31 27 63 66 32 38 98 108 147 154 49 47 85 85 81 85 -4 0 -31 -14 -60 -30z"/>
<path d="M3494 4443 c-15 -27 -84 -133 -153 -238 -69 -104 -127 -194 -129
-200 -6 -19 110 110 153 170 24 33 66 104 93 157 70 137 95 212 36 111z"/>
<path d="M4203 4328 c-43 -84 -94 -188 -115 -231 -21 -43 -54 -105 -74 -138
-19 -33 -34 -64 -32 -71 7 -20 83 111 202 350 64 128 116 234 116 237 0 3 -4
5 -10 5 -5 0 -45 -69 -87 -152z"/>
<path d="M3805 4064 c-107 -90 -215 -168 -345 -249 -139 -86 -140 -90 -7 -31
127 56 318 199 406 305 24 28 41 51 39 51 -1 0 -43 -35 -93 -76z"/>
<path d="M8110 4773 c-285 -103 -427 -175 -641 -325 -228 -160 -428 -336 -524
-461 l-48 -62 39 35 c21 20 73 67 114 105 296 275 642 512 943 646 70 31 131
60 134 63 7 7 4 7 -17 -1z"/>
<path d="M8480 3839 c-142 -91 -322 -185 -460 -241 -78 -31 -88 -38 -55 -34
86 8 374 138 490 221 59 42 165 134 155 134 -3 0 -61 -36 -130 -80z"/>
<path d="M6766 3757 c-39 -51 -76 -141 -88 -213 -14 -84 -1 -162 45 -258 33
-69 85 -142 94 -132 3 3 -18 52 -47 109 -49 97 -53 111 -57 193 -6 101 11 182
57 277 15 31 26 57 24 57 -1 0 -14 -15 -28 -33z"/>
<path d="M6980 3255 c26 -28 126 -79 175 -90 40 -9 37 -7 -89 58 -87 45 -105
52 -86 32z"/>
<path d="M11562 4843 c31 -35 47 -75 50 -130 3 -48 14 -47 24 2 8 46 -11 99
-47 130 -41 34 -59 32 -27 -2z"/>
<path d="M5293 3593 c4 -23 16 -60 26 -84 19 -43 20 -43 20 -13 1 36 -26 121
-41 131 -8 4 -9 -7 -5 -34z"/>
<path d="M1777 3505 c-21 -44 -38 -115 -27 -115 9 0 37 72 46 118 8 42 2 41
-19 -3z"/>
<path d="M2015 3266 c-34 -12 -72 -30 -85 -40 l-25 -18 45 6 c43 7 122 45 135
66 9 14 -2 12 -70 -14z"/>
<path d="M3803 2083 c-18 -2 -33 -8 -33 -14 0 -5 57 -9 133 -9 147 -1 140 0
395 -41 100 -16 186 -29 190 -28 24 2 -94 35 -216 60 -140 28 -383 45 -469 32z"/>
<path d="M3830 1761 c51 -28 563 -222 577 -218 21 5 26 2 -248 116 -108 44
-225 87 -260 96 -72 17 -91 18 -69 6z"/>
<path d="M7536 1626 c9 -87 68 -296 80 -283 2 2 -17 79 -41 173 -33 123 -43
153 -39 110z"/>
<path d="M8795 2121 c-3 -6 2 -11 13 -11 31 0 47 -26 34 -56 -10 -21 -15 -23
-31 -14 -11 5 -30 10 -43 9 l-23 0 23 -16 c30 -21 28 -33 -7 -33 -16 0 -34 -7
-41 -15 -11 -13 -6 -15 37 -15 57 0 90 19 109 65 20 49 6 89 -33 93 -17 2 -34
-2 -38 -7z"/>
<path d="M9095 1694 c38 -50 40 -55 54 -163 12 -89 34 -125 81 -129 46 -5 56
10 30 45 -14 19 -25 58 -34 114 -14 99 -32 131 -90 159 -70 34 -81 27 -41 -26z"/>
<path d="M9012 1616 c-23 -50 -15 -95 22 -132 26 -26 42 -34 70 -34 44 0 46
11 7 28 -37 16 -62 54 -76 116 -11 48 -11 48 -23 22z"/>
<path d="M5821 786 c2 -2 69 -6 149 -9 95 -4 131 -3 105 3 -39 9 -263 14 -254
6z"/>
<path d="M6210 760 c37 -9 123 -14 180 -10 74 4 -13 18 -115 18 -74 0 -91 -2
-65 -8z"/>
</g>
</svg>
