<?xml version="1.0" standalone="no"?>
<!DOCTYPE svg PUBLIC "-//W3C//DTD SVG 20010904//EN"
 "http://www.w3.org/TR/2001/REC-SVG-20010904/DTD/svg10.dtd">
<svg version="1.0" xmlns="http://www.w3.org/2000/svg"
 width="1295.000000pt" height="1294.000000pt" viewBox="0 0 1295.000000 1294.000000"
 preserveAspectRatio="xMidYMid meet">
<metadata>
Created by potrace 1.16, written by Peter Selinger 2001-2019
</metadata>
<g transform="translate(0.000000,1294.000000) scale(0.100000,-0.100000)"
fill="#000000" stroke="none">
<path d="M0 6470 l0 -6470 6475 0 6475 0 0 6470 0 6470 -6475 0 -6475 0 0
-6470z m6900 6101 c58 -5 141 -12 185 -16 96 -7 275 -30 403 -50 768 -123
1516 -396 2177 -794 l180 -108 -4 -63 c-3 -53 -9 -70 -42 -119 -22 -31 -45
-64 -52 -74 -31 -47 -28 -46 -97 -32 -36 8 -66 18 -68 24 -2 5 -21 35 -43 66
-21 31 -39 58 -39 61 0 3 -9 17 -20 31 -20 25 -20 25 0 53 31 43 27 121 -7
171 -48 67 -143 87 -208 45 -13 -9 -36 -32 -52 -53 -25 -33 -28 -44 -28 -117
0 -45 -3 -85 -6 -91 -4 -5 -23 -41 -44 -80 -49 -92 -65 -105 -129 -105 -57 0
-56 -1 -123 93 -39 54 -41 62 -36 107 10 86 -51 150 -145 150 -47 0 -56 -4
-91 -38 -25 -24 -43 -54 -51 -81 -12 -44 -6 -116 11 -127 13 -8 11 -33 -12
-133 -17 -76 -24 -91 -40 -91 -11 0 -28 -6 -40 -12 -17 -11 -22 -10 -35 7 -9
12 -13 30 -9 45 4 14 9 52 12 85 5 55 3 64 -21 92 -34 41 -84 63 -140 63 -37
0 -52 -6 -81 -31 -76 -67 -85 -162 -22 -227 23 -24 41 -56 50 -92 18 -64 63
-259 72 -310 4 -19 16 -64 27 -98 13 -43 18 -76 14 -102 -4 -23 0 -54 10 -81
11 -33 13 -63 8 -121 -6 -76 -6 -77 24 -108 17 -16 38 -30 46 -30 17 0 18 -6
20 -155 2 -105 26 -181 77 -238 52 -60 69 -103 69 -179 0 -147 27 -224 134
-387 36 -55 66 -107 66 -115 0 -19 17 -52 42 -82 21 -24 22 -43 6 -154 -17
-121 -11 -248 17 -362 6 -22 3 -29 -11 -35 -11 -3 -50 -26 -87 -50 -37 -23
-72 -43 -77 -43 -6 0 -10 -4 -10 -8 0 -5 -21 -24 -47 -43 -110 -78 -293 -259
-293 -289 0 -6 -4 -10 -10 -10 -5 0 -10 -6 -10 -13 0 -8 -28 -54 -62 -103 -34
-49 -83 -129 -108 -179 -44 -84 -62 -130 -126 -330 -14 -44 -30 -89 -34 -100
-5 -11 -14 -38 -20 -60 -7 -22 -18 -53 -25 -70 -16 -37 -39 -105 -55 -165 -15
-53 -35 -105 -55 -140 -8 -14 -62 -122 -121 -240 -59 -118 -127 -243 -151
-277 -24 -34 -54 -81 -66 -104 -20 -38 -26 -42 -67 -45 -36 -3 -51 1 -74 19
-28 23 -29 24 -27 129 2 87 -2 116 -20 164 -12 33 -26 86 -31 119 -25 165 -33
181 -124 267 -91 86 -111 100 -140 96 -23 -3 -28 2 -41 41 -20 59 -36 73 -89
79 l-44 5 -2 236 c-1 130 -2 308 -2 396 l-1 160 39 35 c36 33 39 40 40 92 0
45 -4 62 -21 80 -11 13 -23 42 -26 65 -4 37 -1 45 33 81 61 67 84 124 83 215
0 44 -5 83 -12 90 -6 6 -11 17 -11 25 0 24 -62 102 -99 124 -57 35 -100 88
-101 125 0 61 -68 92 -133 62 -31 -14 -51 -51 -44 -78 3 -15 -1 -25 -14 -31
-10 -6 -19 -17 -19 -24 0 -7 -11 -18 -24 -24 -23 -10 -25 -9 -28 16 -2 21 -9
28 -30 30 -25 3 -131 -43 -159 -70 -8 -7 -41 -31 -74 -53 -68 -44 -149 -108
-182 -143 -29 -30 -103 -138 -103 -151 0 -5 -6 -16 -12 -23 -7 -8 -18 -23 -25
-33 -93 -153 -113 -189 -113 -200 0 -8 -4 -16 -9 -19 -5 -3 -11 -16 -14 -28
-2 -13 -13 -57 -24 -98 -12 -41 -33 -129 -47 -195 -15 -66 -34 -140 -43 -165
-14 -38 -93 -161 -127 -196 -6 -6 -20 -23 -31 -38 -11 -16 -26 -34 -32 -41 -7
-8 -13 -16 -13 -20 0 -8 -53 -79 -62 -83 -5 -2 -8 -10 -8 -18 0 -8 -4 -14 -9
-14 -5 0 -12 -8 -15 -17 -3 -10 -18 -31 -32 -48 -15 -16 -42 -54 -61 -82 -24
-38 -40 -53 -56 -53 -44 0 -128 -67 -199 -160 -14 -19 -90 -98 -167 -175 -78
-76 -141 -143 -141 -148 0 -11 -34 -52 -114 -138 -87 -93 -133 -145 -196 -219
-30 -36 -60 -70 -66 -77 -17 -18 -84 -43 -116 -43 -35 0 -79 -38 -94 -83 -14
-42 -40 -47 -55 -10 -48 118 -93 210 -152 313 -61 107 -88 142 -155 207 l-53
52 20 95 c12 53 21 117 21 144 0 63 -24 197 -60 332 -5 19 -11 75 -13 123 -3
86 -3 88 17 82 41 -12 232 -44 267 -45 89 0 171 47 207 120 16 31 30 162 24
213 -4 33 0 42 31 72 39 38 55 94 38 138 -11 28 -6 57 10 57 5 0 9 5 9 11 0 6
7 17 15 25 20 20 19 84 -1 112 -15 22 -15 24 2 37 11 8 22 15 25 15 15 0 49
39 69 78 39 75 9 169 -91 282 -46 51 -91 132 -103 181 -5 21 -1 28 20 38 31
14 29 45 -4 49 -27 4 -27 3 3 90 31 88 31 134 2 192 -21 42 -21 48 -8 95 35
127 17 238 -60 349 -61 90 -123 136 -251 187 -24 9 -25 13 -17 41 13 48 -8
113 -52 161 -22 22 -39 49 -39 59 0 10 -4 26 -9 36 -5 9 -18 46 -29 82 -19 63
-47 144 -63 185 -12 33 -36 106 -55 170 -9 33 -23 69 -30 80 -8 11 -14 35 -14
53 0 48 -28 100 -63 119 -49 25 -146 13 -185 -22 -18 -15 -34 -37 -38 -48 -5
-17 -14 -11 -70 44 -50 49 -64 70 -64 93 0 61 -112 131 -177 110 -47 -15 -107
-50 -124 -74 -10 -14 -23 -30 -29 -37 -5 -7 -10 -37 -10 -68 0 -42 5 -61 20
-77 21 -22 20 -29 -5 -123 -8 -27 -18 -76 -22 -108 l-8 -57 -86 41 c-59 29
-93 52 -108 75 -49 72 -105 83 -193 39 -76 -38 -108 -79 -108 -138 0 -27 5
-58 11 -70 15 -28 45 -57 59 -57 7 0 9 -13 6 -32 -3 -18 -8 -54 -11 -80 -3
-26 -10 -50 -15 -53 -5 -3 -38 8 -72 24 -53 24 -66 36 -81 69 -19 44 -80 82
-129 82 -64 0 -155 -65 -186 -133 -29 -66 -6 -155 47 -178 25 -11 29 -19 34
-68 3 -31 2 -60 -3 -65 -5 -5 -24 4 -45 20 -30 22 -50 29 -99 32 -55 3 -65 1
-102 -26 -83 -61 -108 -116 -97 -213 8 -67 55 -118 126 -136 40 -11 47 -17 47
-37 0 -13 -3 -26 -8 -28 -12 -5 -68 -99 -97 -162 -86 -188 -108 -327 -109
-666 -1 -171 -5 -266 -13 -290 -7 -19 -24 -73 -39 -120 -31 -98 -72 -202 -83
-210 -15 -10 -61 -97 -61 -114 0 -10 -53 -77 -117 -149 -65 -73 -131 -150
-147 -172 -17 -22 -32 -42 -35 -45 -10 -9 -31 -45 -37 -62 -4 -10 -9 -18 -13
-18 -7 0 -16 -18 -60 -123 -35 -81 -51 -172 -51 -287 0 -109 11 -161 71 -344
34 -105 24 -213 -28 -297 -13 -20 -23 -41 -23 -48 0 -6 -4 -11 -8 -11 -5 0
-18 -18 -31 -40 -12 -22 -28 -45 -35 -52 -52 -54 -134 -213 -152 -297 -36
-170 -10 -256 111 -376 51 -50 65 -82 65 -149 0 -40 -6 -62 -29 -98 -82 -129
-84 -135 -85 -248 -1 -98 1 -108 29 -160 41 -77 118 -148 210 -196 97 -51 120
-78 120 -146 0 -43 -4 -53 -30 -74 -38 -30 -81 -32 -90 -4 -11 33 -25 12 -25
-37 0 -29 7 -55 20 -73 22 -31 71 -60 101 -60 10 0 20 -8 23 -17 10 -30 49
-69 103 -102 47 -29 60 -32 132 -33 54 0 90 5 112 16 18 9 33 16 35 16 2 0 12
-20 22 -43 23 -51 54 -83 99 -102 18 -8 33 -18 33 -22 0 -15 -37 -172 -70
-298 -32 -126 -35 -134 -75 -256 -14 -41 -25 -84 -25 -95 0 -11 -4 -24 -8 -30
-5 -5 -28 -61 -51 -124 -24 -63 -49 -128 -56 -143 l-12 -28 -70 108 c-561 866
-888 1866 -960 2933 -14 200 -8 708 11 915 93 1051 428 2012 999 2870 899
1351 2281 2291 3855 2625 259 55 605 103 837 116 61 4 112 8 113 10 9 7 630 3
722 -5z m2485 -931 c14 -28 14 -33 -1 -65 -14 -30 -14 -38 -2 -62 27 -54 81
-148 99 -175 11 -14 19 -28 19 -31 0 -9 83 -151 96 -164 17 -18 23 -17 45 10
l19 22 25 -28 c25 -28 25 -28 50 -10 13 10 25 20 25 23 0 6 76 123 105 165 8
11 33 48 56 82 37 56 40 65 31 93 -6 16 -9 30 -6 30 17 0 64 -44 64 -60 0 -11
4 -29 9 -42 6 -13 22 -63 37 -113 14 -49 30 -99 34 -110 4 -11 16 -47 25 -80
10 -33 24 -69 31 -79 12 -18 14 -18 20 -3 9 24 41 21 50 -5 7 -22 7 -22 23 -2
9 11 25 33 36 48 11 16 26 34 33 41 6 8 12 17 12 22 1 4 12 22 25 38 20 25 28
28 42 19 10 -6 20 -22 23 -35 4 -15 14 -25 28 -27 25 -4 32 -42 7 -42 -11 0
-12 -5 -5 -26 9 -23 8 -25 -10 -19 -43 13 -87 -85 -77 -171 6 -57 20 -73 43
-50 26 27 30 9 4 -19 -13 -14 -26 -25 -29 -25 -15 0 -48 69 -49 100 -2 53 25
130 58 172 32 39 36 48 20 48 -15 0 -68 -84 -86 -136 -16 -46 -15 -102 2 -161
6 -21 6 -21 -48 -6 -63 18 -77 28 -60 45 7 7 12 24 12 38 0 18 8 31 25 40 18
9 25 22 25 42 0 15 10 39 21 52 12 14 27 34 33 44 6 11 24 36 40 56 16 20 26
40 22 43 -3 4 -13 -3 -21 -15 -9 -11 -21 -27 -28 -34 -47 -50 -95 -128 -90
-146 6 -26 -21 -41 -64 -35 -41 6 -55 23 -59 70 -3 40 -76 269 -89 281 -4 4
-5 -2 -2 -13 3 -11 13 -45 22 -75 45 -152 56 -200 50 -211 -11 -17 6 -49 26
-49 22 0 23 -4 7 -30 -10 -16 -10 -24 0 -41 7 -12 11 -23 8 -27 -8 -7 -176 20
-182 30 -3 4 -1 8 4 8 16 0 62 45 62 61 0 8 4 19 9 25 5 5 11 37 14 72 7 68
-15 158 -43 179 -23 18 -23 9 2 -32 31 -54 31 -183 0 -236 -44 -72 -93 -73
-127 -2 -40 84 -26 163 46 254 17 21 27 39 23 39 -18 0 -78 -76 -95 -121 -20
-53 -25 -134 -9 -144 6 -3 10 -14 10 -24 0 -9 14 -32 31 -49 l31 -32 -33 0
c-50 0 -211 18 -216 24 -3 3 7 16 22 29 27 23 27 24 11 55 -16 32 -24 36 -58
33 -10 -1 -18 2 -18 7 0 6 -12 13 -26 16 -19 5 -24 11 -19 26 4 13 -7 44 -31
87 -38 71 -123 203 -129 203 -7 0 8 -34 32 -72 13 -21 23 -40 23 -44 0 -3 10
-20 23 -37 12 -18 27 -41 33 -52 6 -11 17 -30 25 -43 10 -16 11 -27 3 -39 -14
-22 11 -53 43 -53 26 0 31 -18 8 -26 -25 -10 -18 -50 13 -73 l27 -20 -106 -1
c-58 0 -152 -4 -210 -9 -57 -6 -142 -12 -188 -15 l-84 -6 21 23 c12 13 22 29
22 36 0 15 -46 61 -61 61 -18 0 -49 -40 -49 -65 0 -14 9 -30 20 -37 29 -18 25
-26 -17 -33 -21 -3 -72 -15 -114 -26 -41 -10 -79 -19 -83 -19 -4 0 4 15 17 33
27 37 47 99 47 147 0 40 -20 110 -32 110 -4 0 -8 7 -8 16 0 9 -19 34 -41 55
-42 39 -59 48 -59 29 0 -5 4 -10 8 -10 5 0 25 -16 45 -35 46 -44 78 -165 59
-219 -7 -18 -12 -39 -12 -48 0 -21 -34 -58 -54 -58 -23 0 -50 27 -75 77 -28
57 -29 163 -1 228 23 54 23 55 11 55 -16 0 -51 -109 -51 -158 1 -99 38 -188
90 -213 25 -12 25 -12 -25 -34 -65 -29 -125 -43 -107 -24 6 7 12 24 12 36 0
28 -34 68 -49 59 -13 -9 -51 24 -51 44 0 19 -50 99 -73 119 -11 9 -8 -2 9 -33
14 -25 30 -48 35 -51 5 -4 9 -19 9 -34 0 -19 8 -32 25 -41 21 -11 24 -18 19
-45 -4 -23 -1 -37 11 -49 23 -23 15 -37 -35 -64 l-42 -22 7 22 c16 51 16 77 0
138 -23 90 -71 177 -101 184 -26 7 -32 34 -12 54 9 9 9 12 0 12 -17 0 -42 63
-28 72 8 5 7 13 -2 25 -7 10 -19 32 -26 48 -8 17 -24 37 -35 45 -25 17 -27 52
-5 74 20 21 30 20 54 -4 23 -23 25 -42 9 -68 -9 -15 -7 -26 12 -58 14 -21 31
-52 39 -69 8 -16 29 -47 46 -67 17 -21 39 -55 50 -75 27 -54 44 -70 54 -53 4
7 15 10 23 7 18 -7 19 -3 39 88 11 53 13 56 16 27 2 -18 -1 -39 -6 -45 -17
-20 -19 -172 -3 -162 5 3 10 37 10 76 0 39 4 85 10 102 5 18 12 61 16 96 3 35
11 72 18 82 6 10 8 22 4 26 -12 11 -27 -17 -28 -52 0 -16 -5 -39 -10 -50 -14
-30 -4 51 20 165 25 114 26 147 6 166 -18 18 -20 65 -3 82 7 7 25 12 40 12 40
0 57 -37 39 -86 -12 -34 -11 -37 48 -124 34 -50 61 -94 61 -100 0 -5 4 -10 8
-10 5 0 13 -10 19 -22 6 -13 32 -52 58 -87 l48 -65 24 28 24 28 24 -22 c29
-27 37 -22 65 38 13 26 61 125 108 221 70 145 83 177 73 193 -14 22 -14 63 -1
89 17 32 66 25 85 -11z m830 -301 c2 -3 -11 -13 -30 -22 l-34 -16 -16 51 c-8
28 -15 53 -15 55 0 5 90 -59 95 -68z m13 -146 c-1 -16 4 -38 10 -50 12 -21 7
-53 -8 -53 -4 0 -20 12 -35 26 l-28 26 27 23 c14 12 26 30 26 39 0 9 2 16 5
16 3 0 4 -12 3 -27z m-1673 -113 c8 -12 -16 -50 -32 -50 -13 0 -18 42 -6 53 9
10 31 8 38 -3z m2205 -207 c270 -262 470 -486 667 -748 126 -168 246 -345 239
-352 -3 -3 -59 -12 -123 -19 -65 -7 -129 -14 -143 -17 -14 -2 -45 -7 -70 -12
-70 -11 -221 -53 -232 -64 -4 -3 -3 -12 1 -20 7 -11 27 -9 112 12 161 39 204
47 349 62 l135 15 21 -26 c58 -72 394 -691 394 -726 0 -10 -97 0 -120 12 -8 4
-55 11 -105 14 l-90 7 55 -27 c30 -15 73 -30 95 -34 22 -4 72 -13 110 -19 39
-7 76 -18 83 -25 14 -14 155 -357 149 -363 -2 -2 -22 14 -43 35 -92 90 -201
168 -340 243 -169 91 -217 113 -314 146 -30 10 -57 21 -60 24 -3 3 -26 14 -52
25 -45 18 -48 21 -48 55 0 47 -17 94 -50 144 -38 55 -232 250 -268 269 -42 22
-129 122 -136 158 -3 17 -6 44 -6 62 0 34 -49 166 -62 166 -4 0 -8 5 -8 10 0
15 -77 82 -118 104 -20 10 -58 42 -86 70 -50 51 -58 64 -111 181 -49 108 -70
146 -91 166 -20 19 -21 23 -8 47 10 19 13 42 8 75 -4 29 -1 59 6 78 8 19 9 33
3 42 -16 20 -7 145 20 270 27 120 32 137 46 137 4 0 90 -80 191 -177z m-320
102 c0 -65 -22 -115 -50 -115 -17 0 -20 7 -20 42 0 59 28 128 51 128 16 0 19
-8 19 -55z m-2005 -31 c41 -80 65 -197 47 -229 -6 -12 -11 4 -15 59 -4 42 -11
84 -15 93 -5 10 -17 35 -27 56 -10 20 -22 37 -27 37 -4 0 -8 7 -8 16 0 26 24
10 45 -32z m1245 31 c18 -21 -16 -61 -37 -44 -16 14 -17 46 0 52 20 9 24 8 37
-8z m-612 -58 c4 -30 -17 -37 -38 -12 -10 12 -10 18 0 30 18 22 34 14 38 -18z
m-645 -24 c17 -33 29 -113 17 -113 -4 0 -13 21 -19 48 -7 26 -17 55 -22 64
-11 22 -11 28 1 28 5 0 16 -12 23 -27z m1777 -3 c0 -23 -13 -32 -34 -24 -21 8
-20 31 1 43 22 12 33 5 33 -19z m-318 -40 c331 -48 519 -92 532 -127 4 -10 -5
-26 -24 -44 -36 -35 -37 -51 -8 -79 21 -20 21 -20 1 -20 -19 0 -66 13 -108 30
-11 4 -72 15 -135 25 -63 9 -127 19 -142 22 -16 2 -28 0 -28 -5 0 -6 39 -15
88 -21 101 -14 248 -45 310 -67 34 -13 42 -20 42 -40 0 -26 -10 -29 -38 -15
-154 79 -760 136 -1077 100 -249 -28 -339 -44 -495 -86 -98 -27 -229 -87 -268
-123 -27 -26 -32 -25 -32 5 0 41 38 68 158 115 198 76 370 115 560 126 61 4
112 11 112 17 0 13 -138 3 -294 -22 -198 -32 -340 -77 -509 -162 -5 -2 -10 21
-12 51 -4 57 6 77 49 93 10 4 17 10 14 12 -9 10 -67 -20 -71 -37 -7 -24 -27
-23 -27 2 0 24 63 73 145 110 126 58 322 103 600 138 101 13 572 14 657 2z
m-1281 -73 c-18 -18 -38 8 -21 28 12 15 14 15 23 0 6 -11 5 -21 -2 -28z m1809
3 c0 -5 -4 -10 -10 -10 -5 0 -10 5 -10 10 0 6 5 10 10 10 6 0 10 -4 10 -10z
m-7367 -24 c18 -14 26 -63 13 -84 -6 -10 36 -58 74 -85 71 -50 235 -230 270
-296 20 -38 28 -13 36 107 7 108 6 114 -16 136 -39 42 0 93 51 66 19 -11 21
-18 15 -58 -5 -34 0 -64 19 -121 29 -88 35 -109 64 -211 12 -41 35 -118 51
-170 38 -124 52 -179 54 -210 1 -17 8 -26 26 -30 21 -5 25 -12 25 -40 0 -34
-2 -35 -40 -37 -50 -4 -152 -21 -185 -32 -14 -5 -45 -14 -70 -21 -91 -25 -251
-80 -305 -105 -31 -14 -58 -25 -62 -25 -6 0 -73 -30 -168 -76 -95 -46 -230
-120 -312 -172 -46 -29 -87 -52 -93 -52 -5 0 -10 -3 -10 -7 0 -5 -24 -21 -53
-37 -62 -35 -60 -34 -118 -85 -50 -44 -69 -50 -93 -25 -22 21 -20 46 4 72 21
22 26 42 11 42 -5 0 -12 -6 -14 -12 -3 -8 -17 0 -39 23 -54 59 -78 89 -78 98
0 5 -4 11 -8 13 -5 2 -33 35 -63 73 -29 39 -58 75 -64 81 -6 6 -28 36 -49 67
-30 44 -45 57 -64 57 -57 0 -83 66 -37 96 35 23 61 10 77 -39 11 -36 18 -43
48 -48 19 -4 62 -14 95 -24 93 -26 129 -34 134 -30 2 3 -1 17 -7 32 -12 33
-28 124 -43 248 -13 119 -18 135 -38 135 -45 0 -57 69 -17 95 34 23 61 6 78
-47 12 -34 21 -44 44 -49 33 -8 171 -58 226 -83 63 -27 78 -23 80 27 1 23 2
49 3 57 1 8 5 79 9 157 8 141 2 183 -26 183 -13 0 -37 30 -38 48 0 19 23 40
52 47 37 9 67 -26 59 -69 -3 -16 10 -46 20 -46 13 0 306 -145 325 -161 8 -6
17 -9 20 -6 3 3 10 54 15 113 5 59 16 133 24 165 8 31 15 69 15 84 0 15 8 55
17 90 l17 64 -27 25 c-29 27 -36 73 -15 94 16 16 59 15 81 -2z m7362 -136 c-5
-8 -11 -8 -17 -2 -6 6 -7 16 -3 22 5 8 11 8 17 2 6 -6 7 -16 3 -22z m-959 -87
c38 -104 137 -218 210 -245 19 -6 34 -16 34 -20 0 -4 8 -8 18 -8 30 -1 48 -23
85 -100 44 -93 71 -228 62 -308 -16 -136 -69 -271 -124 -318 -15 -12 -33 -41
-39 -62 -7 -22 -19 -42 -27 -45 -8 -4 -26 -24 -39 -46 -14 -22 -35 -45 -46
-51 -18 -9 -24 -6 -48 22 -52 63 -81 85 -141 104 -84 26 -294 18 -361 -15 -76
-37 -168 -29 -217 18 -26 24 -27 40 -13 126 6 33 17 119 25 191 16 144 10 193
-28 225 -28 23 -45 24 -24 1 8 -9 20 -29 26 -44 l10 -26 -52 1 c-29 0 -63 -3
-76 -7 -20 -7 -23 -5 -18 8 7 19 -9 22 -16 4 -7 -16 -67 45 -67 66 0 20 65 39
111 33 46 -6 55 4 39 44 -15 35 -43 44 -123 42 l-58 -2 3 132 3 132 77 38 c71
34 134 55 228 77 19 4 71 17 115 28 92 23 280 47 402 50 l51 2 18 -47z m816
-267 c38 -30 58 -86 58 -164 0 -66 -22 -175 -40 -196 -4 -6 -25 -44 -45 -84
-20 -39 -48 -81 -62 -92 -52 -41 -136 -11 -146 52 -3 18 -10 51 -16 73 -6 22
-13 79 -16 127 -4 69 -2 90 10 102 8 8 25 40 37 71 23 61 85 131 122 138 32 6
68 -4 98 -27z m-1454 -393 c3 -27 0 -33 -16 -33 -15 0 -21 8 -24 35 -4 32 -2
36 16 33 16 -2 22 -12 24 -35z m-5 -90 c-2 -27 -8 -70 -13 -98 -5 -27 -13 -83
-17 -124 l-8 -75 -29 60 c-27 53 -30 69 -30 159 l-1 99 38 7 c20 3 40 9 44 12
15 16 20 4 16 -40z m1352 -87 c21 8 38 14 40 12 1 -2 10 -43 19 -93 40 -209
118 -370 243 -503 48 -50 181 -130 253 -150 19 -6 51 -15 71 -21 19 -6 47 -11
62 -11 14 0 29 -4 32 -10 3 -5 2 -10 -3 -10 -10 0 -106 -146 -130 -199 -10
-20 -19 -38 -22 -41 -3 -3 -17 -21 -31 -40 -55 -73 -211 -224 -298 -290 -90
-68 -227 -134 -333 -160 -207 -52 -401 -11 -518 109 -28 29 -80 106 -80 119 0
5 19 18 43 30 23 11 57 32 76 46 34 26 35 26 53 6 10 -10 18 -23 18 -27 0 -5
13 -24 30 -43 33 -39 31 -18 -5 40 -37 60 -38 72 -12 94 13 12 29 31 36 44 6
12 18 22 25 22 17 0 92 81 108 115 6 14 15 25 19 25 5 0 21 19 35 43 15 23 33
45 40 50 7 4 30 39 50 77 21 39 42 70 46 70 4 0 8 7 8 15 0 8 5 15 10 15 6 0
10 8 10 18 0 9 14 46 31 82 28 57 32 76 36 175 5 113 -1 153 -46 315 -11 41
-21 78 -21 82 0 4 15 1 34 -7 30 -13 39 -13 71 1z m-6142 -333 c65 -101 85
-142 111 -228 35 -120 40 -153 28 -192 -34 -111 -42 -153 -42 -218 0 -62 5
-79 36 -140 38 -74 122 -188 161 -218 44 -35 23 -88 -50 -122 -62 -29 -99
-125 -62 -161 22 -22 18 -37 -6 -31 -18 5 -70 -14 -151 -54 -10 -5 -42 -9 -72
-9 -30 0 -57 -4 -60 -9 -13 -21 42 -37 139 -40 107 -2 125 -11 125 -57 0 -60
-72 -53 -159 17 -28 22 -51 37 -51 32 1 -4 15 -19 31 -33 17 -14 40 -33 51
-42 12 -10 26 -18 32 -18 6 0 19 -7 29 -14 15 -12 16 -18 5 -42 -6 -16 -12
-70 -12 -119 -2 -169 -48 -193 -321 -166 -66 7 -124 16 -130 22 -5 5 -21 9
-36 9 -15 0 -55 7 -89 16 -57 14 -112 13 -62 -1 28 -9 28 -19 -3 -59 -14 -18
-25 -38 -25 -44 0 -7 -4 -12 -10 -12 -5 0 -10 -9 -10 -20 0 -11 -3 -20 -8 -20
-9 0 -42 -90 -42 -114 0 -9 -4 -16 -8 -16 -5 0 -17 -35 -27 -77 -10 -43 -21
-85 -26 -93 -4 -8 -12 -71 -18 -140 -10 -139 -2 -212 30 -263 21 -32 21 -29 3
33 -8 30 13 24 33 -10 9 -16 21 -30 25 -30 4 0 15 -15 24 -32 9 -18 20 -35 24
-38 12 -9 40 -90 40 -115 0 -13 -4 -26 -9 -29 -11 -7 -132 20 -140 31 -13 18
-185 164 -269 229 -56 42 -197 124 -304 176 -43 21 -78 41 -78 46 0 5 17 24
38 43 143 133 222 331 222 558 0 43 -4 100 -9 127 -5 27 -13 120 -17 207 l-7
157 44 -2 c24 -1 54 1 67 6 16 5 24 3 28 -8 11 -28 20 -17 16 19 -5 39 -7 41
-28 20 -27 -27 -93 -18 -154 20 -108 69 -186 169 -205 264 -13 60 4 139 36
175 47 54 139 59 190 12 56 -52 122 -96 143 -96 18 0 25 -9 34 -37 13 -43 58
-97 73 -87 5 3 17 0 25 -7 13 -11 14 -9 8 15 -3 14 -7 32 -8 39 -2 23 15 139
24 156 4 9 22 46 39 83 27 56 40 72 84 99 76 46 213 145 282 204 94 79 235
224 235 241 0 4 7 15 15 23 30 34 83 153 96 216 7 36 14 65 16 65 1 0 31 -44
66 -97z m4812 57 c3 -5 15 -10 26 -10 10 0 19 -3 19 -6 0 -7 -30 -37 -34 -33
-23 34 -34 59 -27 59 5 0 13 -4 16 -10z m371 -149 c-3 -4 -35 -13 -71 -21 -36
-8 -68 -17 -71 -22 -8 -12 -84 -10 -84 2 0 6 11 21 24 33 21 20 32 22 115 19
50 -2 89 -7 87 -11z m174 -3 c43 -68 56 -112 38 -135 -62 -79 -121 -106 -165
-77 -20 12 -23 21 -18 44 9 41 -12 71 -40 58 -12 -5 -48 -15 -81 -21 l-59 -12
0 -47 c0 -77 -15 -77 -55 2 -12 25 -26 53 -31 62 -5 10 -9 29 -9 44 0 35 23
26 31 -12 l7 -29 1 28 c1 19 6 27 20 27 10 0 35 7 55 15 20 8 64 22 99 30 34
9 85 22 112 30 69 19 78 18 95 -7z m-2655 -304 c25 -25 13 -39 -38 -42 -35 -2
-49 1 -53 12 -15 38 58 62 91 30z m4320 -24 c-80 -80 -122 -135 -150 -195 -10
-22 -21 -42 -25 -45 -13 -10 -116 -243 -130 -295 -4 -16 -17 -59 -29 -94 -12
-35 -21 -72 -21 -83 0 -20 -62 -88 -81 -88 -7 0 -9 12 -6 33 3 17 9 52 13 77
3 25 10 50 14 55 4 6 15 37 24 70 16 56 58 170 76 206 47 91 114 215 120 219
3 3 9 12 13 20 10 21 30 52 45 68 7 8 20 25 29 38 11 17 25 24 47 24 17 0 40
7 50 15 42 32 49 14 11 -25z m130 20 c22 -7 47 -16 56 -20 8 -4 42 -13 75 -20
79 -16 81 -18 48 -47 l-29 -25 27 16 c33 19 117 21 142 3 17 -13 16 -14 -13
-27 -39 -16 -140 -113 -178 -171 -15 -24 -33 -48 -39 -54 -6 -5 -22 -30 -36
-55 -13 -25 -35 -63 -48 -85 -31 -54 -112 -217 -142 -285 -14 -30 -35 -77 -47
-104 l-22 -49 -29 34 c-17 18 -30 36 -30 40 0 28 216 479 230 479 4 0 10 10
14 23 3 12 13 31 23 42 23 25 65 96 60 102 -5 4 -26 -20 -42 -47 -5 -10 -26
-42 -46 -71 -19 -30 -43 -70 -54 -89 -10 -19 -22 -42 -26 -50 -36 -63 -109
-216 -109 -226 0 -8 -4 -14 -9 -14 -5 0 -12 -14 -16 -30 -8 -35 -32 -87 -45
-95 -5 -3 -11 -1 -15 5 -3 5 -15 10 -25 10 -10 0 -23 6 -27 14 -4 7 -25 21
-46 31 -30 14 -40 15 -52 5 -27 -22 -29 -2 -6 65 11 36 21 72 21 80 0 9 4 23
9 33 5 9 16 35 24 57 40 106 103 244 136 298 20 33 41 67 46 76 10 17 81 107
100 126 21 22 60 45 70 42 5 -2 28 -10 50 -17z m-4418 -80 c2 0 3 -3 3 -7 0
-5 -34 -8 -75 -8 -96 0 -101 12 -10 28 11 2 33 0 50 -5 16 -4 31 -8 32 -8z
m23 -50 c14 -11 30 -20 37 -20 20 0 97 -83 116 -124 24 -55 23 -165 -3 -216
-21 -41 -92 -119 -110 -121 -49 -4 -84 -1 -87 8 -2 6 1 14 6 18 32 19 -5 105
-44 105 -13 0 -12 6 5 40 27 53 26 104 -2 132 -16 16 -21 32 -19 56 2 21 -4
41 -15 53 -18 20 -69 26 -79 9 -11 -17 -22 -11 -27 14 -7 33 1 42 42 54 62 18
152 14 180 -8z m4861 -51 c98 -28 359 -144 359 -159 0 -4 10 -12 23 -17 28
-14 89 -65 146 -123 44 -46 121 -144 121 -156 0 -3 10 -20 22 -36 22 -31 53
-92 83 -163 9 -22 25 -56 35 -75 41 -78 69 -172 109 -365 120 -574 156 -1187
105 -1790 -9 -99 -19 -196 -23 -215 l-8 -35 -11 26 c-6 14 -17 32 -25 40 -8 8
-22 29 -31 47 -9 18 -21 32 -26 32 -5 0 -11 8 -14 18 -3 9 -18 31 -32 47 -14
17 -45 52 -68 79 -56 66 -66 76 -77 76 -5 0 -9 5 -9 11 0 6 -51 64 -114 128
-157 161 -274 285 -336 356 -29 33 -69 78 -89 100 -20 22 -48 56 -62 75 -15
19 -43 53 -63 75 -20 22 -36 43 -36 46 0 4 -18 26 -40 50 -22 24 -40 47 -40
51 0 8 -8 17 -62 77 -16 16 -28 33 -28 38 0 4 -11 20 -25 35 -14 15 -25 30
-25 33 0 3 -5 11 -10 18 -28 33 -120 168 -120 176 0 5 -3 11 -7 13 -10 4 -106
157 -167 265 -109 194 -127 244 -101 279 20 26 20 118 0 134 -8 7 -15 17 -15
22 0 5 7 16 15 24 8 9 15 24 15 34 0 26 53 141 169 365 14 28 29 52 32 55 5 5
22 36 53 97 6 13 14 23 18 23 4 0 14 12 22 28 8 15 26 39 40 54 14 15 26 31
26 36 0 5 22 30 50 56 60 56 78 58 221 15z m-5120 -42 c-7 -20 -22 -42 -34
-50 -12 -8 -40 -32 -62 -53 -22 -22 -56 -52 -75 -68 -19 -16 -44 -41 -55 -56
-11 -15 -39 -53 -63 -84 -46 -60 -87 -126 -79 -126 3 0 31 33 63 73 32 39 61
74 64 77 4 3 15 20 25 38 11 17 23 32 28 32 5 0 21 12 35 28 33 34 147 132
177 152 12 8 35 24 49 34 23 16 29 17 41 5 26 -26 4 -73 -75 -159 -41 -45 -81
-91 -89 -103 -8 -12 -30 -35 -48 -51 -18 -16 -33 -32 -33 -37 0 -5 -22 -40
-49 -77 -59 -84 -73 -110 -68 -125 2 -7 11 2 19 18 9 17 28 44 42 60 14 17 29
38 32 48 3 9 10 17 15 17 5 0 9 5 9 10 0 6 5 16 10 23 6 7 20 23 31 37 91 110
214 235 232 235 20 0 20 -85 0 -122 -9 -18 -21 -33 -25 -33 -5 0 -8 -5 -8 -11
0 -7 -31 -59 -70 -116 -38 -57 -70 -107 -70 -109 0 -3 -11 -20 -25 -38 -14
-18 -25 -36 -25 -40 0 -4 -11 -24 -25 -44 -25 -36 -32 -62 -17 -62 4 0 23 26
41 58 55 92 179 266 215 301 79 76 72 -18 -14 -195 -57 -119 -68 -141 -91
-184 -17 -32 -69 -159 -69 -169 0 -18 -56 -126 -84 -163 -14 -19 -26 -38 -26
-42 0 -5 -18 -47 -41 -95 -64 -134 -108 -189 -247 -308 -51 -43 -76 -82 -165
-253 -27 -52 -53 -99 -57 -105 -13 -16 -48 -82 -128 -235 -41 -80 -86 -161
-99 -180 -12 -19 -23 -38 -23 -43 0 -14 -72 -139 -77 -134 -2 3 -13 47 -24 98
-19 90 -33 142 -50 184 -4 11 -12 36 -18 55 -17 63 -52 154 -88 229 -36 74
-36 74 -18 105 10 17 28 43 39 57 12 15 53 71 91 124 39 54 82 113 98 130 15
18 27 37 27 42 0 6 10 21 23 35 13 14 32 39 43 55 70 109 87 133 93 133 4 0
16 28 26 63 10 34 22 66 27 72 4 5 8 18 8 29 0 11 4 33 9 50 9 28 16 55 53
191 5 22 14 49 18 60 5 11 16 47 26 80 9 33 21 65 25 70 4 6 13 32 20 59 7 29
31 75 58 110 25 34 54 74 64 89 20 31 34 48 77 96 16 17 38 43 49 57 20 25 44
43 201 148 98 66 132 67 111 3z m4134 -239 c-4 -13 -14 -38 -23 -57 -9 -19
-17 -42 -18 -50 -3 -30 -35 -131 -42 -131 -4 0 -25 -16 -47 -36 -22 -19 -62
-49 -90 -67 -27 -17 -57 -38 -65 -46 -18 -17 -196 -101 -215 -101 -8 0 -17 -4
-20 -10 -3 -5 -19 -10 -36 -10 -16 0 -29 -4 -29 -9 0 -31 -360 -33 -418 -2 -9
5 -38 18 -65 28 -26 10 -59 28 -74 41 -14 12 -29 22 -33 22 -8 0 -82 72 -113
110 -29 35 -77 132 -77 156 0 23 17 34 55 34 13 0 25 4 27 8 2 5 17 11 33 15
27 5 32 2 50 -36 25 -53 129 -159 175 -179 143 -62 206 -73 332 -54 94 14 162
30 203 46 56 22 176 83 188 94 7 7 25 19 39 27 40 21 105 76 183 156 75 76 90
86 80 51z m-1675 -88 c4 -27 7 -31 12 -17 7 16 11 16 57 -8 32 -16 67 -25 98
-25 91 -1 108 -5 106 -20 -20 -122 -54 -304 -58 -308 -3 -3 -11 0 -17 6 -7 7
-21 12 -31 12 -18 0 -19 5 -13 48 10 75 25 174 32 212 4 19 3 32 0 29 -9 -9
-46 -186 -46 -224 0 -28 -19 -75 -20 -49 0 7 -11 15 -25 18 -14 4 -25 11 -25
16 0 6 -9 10 -20 10 -11 0 -20 -3 -20 -7 0 -5 -14 -16 -30 -25 l-30 -17 0 73
c0 40 7 95 15 122 8 27 15 63 15 79 -1 66 -22 -8 -36 -128 -20 -164 -21 -167
-44 -167 -11 0 -20 -4 -20 -10 0 -5 -5 -10 -11 -10 -18 0 2 200 31 310 28 111
33 121 54 118 15 -2 22 -12 26 -38z m-104 -37 c-18 -73 -45 -275 -46 -329 0
-55 -2 -62 -25 -72 -17 -8 -25 -20 -25 -37 0 -24 -24 -73 -43 -86 -13 -9 -20
-69 -9 -82 24 -30 22 -63 -6 -93 -15 -17 -48 -55 -74 -85 -26 -30 -81 -90
-122 -133 -42 -44 -76 -83 -76 -88 0 -4 -3 -8 -8 -8 -4 0 -64 -55 -133 -122
-174 -169 -280 -268 -289 -268 -4 0 -5 15 0 33 13 58 94 293 126 364 8 17 14
38 14 47 0 14 4 25 35 101 7 17 18 48 25 70 7 22 16 45 20 50 4 6 16 35 26 65
33 95 143 298 204 374 76 95 292 276 329 276 5 0 11 3 13 8 4 9 51 41 62 41 4
1 5 -11 2 -26z m-2045 -63 c15 -9 17 -15 9 -30 -9 -17 -21 -20 -75 -20 -36 0
-65 2 -65 4 0 3 4 16 10 30 8 23 15 26 55 26 26 0 55 -5 66 -10z m2483 -83
c27 -53 125 -167 143 -167 5 0 19 -9 31 -21 47 -43 192 -97 267 -99 22 -1 48
-5 58 -9 24 -9 162 5 252 25 96 22 297 121 397 196 46 34 85 66 86 70 7 15 22
8 22 -11 0 -20 -39 -63 -80 -89 -14 -9 -34 -24 -45 -34 -59 -52 -85 -70 -151
-103 -139 -68 -282 -105 -409 -104 -278 1 -447 74 -566 243 -40 57 -49 77 -49
113 0 23 4 43 8 43 4 0 20 -24 36 -53z m-2469 -9 c30 -13 48 -68 35 -103 -17
-46 -45 -54 -166 -46 l-112 6 40 84 41 84 68 -7 c37 -3 80 -11 94 -18z m3918
-64 c9 -3 13 -13 10 -25 -3 -10 0 -19 6 -19 6 0 11 -7 11 -15 0 -19 17 -19 37
0 12 12 18 13 29 4 19 -15 18 -33 -1 -25 -8 3 -15 2 -15 -3 0 -9 33 -26 68
-36 22 -6 32 -45 12 -45 -5 0 -10 -13 -10 -29 0 -22 6 -30 24 -35 13 -3 27
-13 30 -22 9 -23 -2 -54 -20 -54 -8 0 -14 -9 -14 -20 0 -15 -7 -20 -28 -20
-37 0 -54 -17 -40 -40 14 -21 2 -70 -16 -70 -8 0 -16 -7 -20 -15 -3 -8 -15
-15 -26 -15 -11 0 -23 7 -26 15 -8 19 -54 20 -54 1 0 -8 -8 -24 -18 -36 -17
-21 -21 -22 -49 -10 -19 9 -35 26 -42 47 -13 35 -14 36 -76 37 -36 1 -40 4
-43 29 -2 16 3 36 12 46 15 16 15 19 -1 33 -10 8 -26 18 -35 21 -12 4 -18 17
-18 36 0 24 5 32 25 37 33 8 46 34 39 74 -6 26 -3 32 15 37 11 3 21 12 21 21
0 19 29 52 46 52 7 0 18 -8 23 -17 10 -17 12 -17 25 0 7 9 21 17 31 17 11 0
15 5 11 15 -9 24 40 44 77 29z m-1703 -111 c1 -39 52 -72 63 -40 9 24 42 -8
42 -41 1 -17 4 -34 8 -38 4 -4 7 0 7 9 0 10 8 17 20 17 21 0 29 -33 10 -45 -5
-3 -10 -15 -10 -25 0 -22 22 -39 28 -22 2 7 8 12 14 12 5 0 8 -6 5 -12 -2 -7
2 -21 11 -30 18 -21 9 -48 -18 -55 -12 -3 -20 -14 -20 -25 0 -16 -5 -19 -21
-15 -24 6 -39 -21 -19 -33 21 -13 0 -75 -25 -75 -11 -1 -25 -4 -31 -8 -7 -4
-17 0 -24 8 -9 11 -16 12 -31 2 -10 -6 -19 -19 -19 -28 0 -19 -52 -41 -75 -33
-8 4 -15 13 -15 20 0 8 -7 17 -15 20 -8 4 -15 13 -15 21 0 10 -6 13 -17 8 -10
-4 -33 -9 -50 -12 -30 -5 -33 -3 -33 21 0 14 5 26 10 26 17 0 11 29 -10 50
-11 11 -20 26 -20 34 0 7 -9 16 -20 19 -27 7 -25 36 5 72 21 25 26 28 35 15
12 -19 13 -9 0 24 -5 14 -7 33 -4 41 7 17 34 21 34 5 0 -5 5 -10 10 -10 14 0
12 28 -2 33 -10 3 -10 8 1 21 11 13 23 16 43 12 20 -4 30 -1 34 9 4 8 12 15
20 15 8 0 14 9 14 19 0 22 13 29 53 30 19 1 27 -4 27 -16z m-4846 -12 c3 -5
-5 -20 -19 -35 -21 -23 -32 -26 -90 -26 -37 0 -65 4 -65 10 0 6 6 10 13 10 8
0 34 11 58 24 45 25 93 33 103 17z m2582 -4 c1 -1 4 -194 8 -428 5 -381 4
-428 -11 -448 -11 -16 -16 -44 -15 -92 l0 -68 -60 49 c-32 28 -72 57 -88 65
-17 9 -32 25 -34 38 -8 38 -15 862 -8 874 9 14 78 22 151 17 30 -2 55 -5 57
-7z m3674 -11 c0 -3 -4 -8 -10 -11 -5 -3 -10 -1 -10 4 0 6 5 11 10 11 6 0 10
-2 10 -4z m-6333 -62 c-3 -3 -12 -4 -19 -1 -8 3 -5 6 6 6 11 1 17 -2 13 -5z
m6823 -4 c0 -5 -2 -10 -4 -10 -3 0 -8 5 -11 10 -3 6 -1 10 4 10 6 0 11 -4 11
-10z m15 -217 c36 -80 98 -199 116 -222 11 -13 19 -30 19 -37 0 -8 5 -14 10
-14 6 0 10 -7 10 -15 0 -8 5 -15 10 -15 6 0 10 -8 10 -18 0 -10 11 -29 25 -42
14 -13 25 -27 25 -32 0 -10 49 -86 67 -106 7 -7 13 -18 13 -23 0 -5 7 -17 15
-26 15 -19 108 -145 147 -201 29 -42 149 -195 158 -202 3 -3 13 -15 22 -28 8
-12 30 -39 49 -60 19 -20 70 -80 114 -132 103 -124 229 -259 430 -464 50 -51
115 -121 145 -156 30 -35 65 -75 78 -87 12 -13 22 -28 22 -33 0 -6 4 -10 8
-10 4 0 16 -15 27 -32 10 -18 22 -35 25 -38 4 -3 20 -25 35 -50 15 -25 33 -48
39 -52 13 -8 12 -147 -2 -192 -8 -29 -8 -29 -37 30 -17 32 -38 67 -47 78 -10
11 -20 28 -24 38 -3 10 -10 18 -15 18 -5 0 -9 7 -9 15 0 8 -4 15 -9 15 -5 0
-12 8 -15 18 -4 10 -14 27 -24 38 -9 10 -36 44 -59 74 -23 30 -76 91 -118 135
-42 44 -106 113 -143 153 -37 40 -105 112 -152 160 -47 48 -114 120 -150 161
-63 73 -92 105 -149 166 -15 17 -41 48 -57 70 -16 22 -36 47 -44 55 -8 8 -31
37 -50 63 -19 27 -42 56 -50 65 -8 10 -44 58 -80 107 -35 50 -67 92 -70 95 -9
8 -104 151 -136 204 -16 27 -37 60 -46 75 -9 14 -23 37 -30 51 -8 14 -36 66
-64 115 -107 197 -126 261 -85 306 23 25 27 23 46 -18z m-2150 -24 c10 -15 -1
-23 -20 -15 -9 3 -13 10 -10 16 8 13 22 13 30 -1z m1765 -19 c0 -5 -7 -10 -15
-10 -8 0 -15 5 -15 10 0 6 7 10 15 10 8 0 15 -4 15 -10z m-1817 -34 c22 -17
22 -54 0 -78 -9 -11 -11 -18 -5 -18 7 0 12 5 12 10 0 20 31 22 50 5 11 -10 37
-18 57 -19 27 -1 38 -5 37 -16 -1 -10 10 -16 34 -17 19 -1 37 -4 40 -7 6 -7
-13 -47 -43 -91 -12 -16 -27 -42 -35 -57 -7 -16 -17 -28 -21 -28 -5 0 -15 -12
-23 -27 -8 -16 -26 -40 -40 -55 -14 -15 -26 -30 -26 -34 0 -4 -8 -14 -18 -23
-9 -9 -39 -42 -65 -74 -79 -94 -264 -271 -331 -316 -11 -8 -23 -18 -26 -21 -3
-3 -23 -19 -45 -35 -22 -17 -42 -32 -45 -35 -3 -4 -21 -16 -40 -28 -20 -11
-47 -30 -60 -41 -38 -31 -43 -35 -81 -56 -20 -11 -47 -28 -60 -37 -51 -38
-100 -68 -109 -68 -6 0 -10 -3 -10 -8 0 -4 -8 -12 -19 -17 -35 -18 -138 -94
-167 -122 -16 -16 -43 -40 -60 -54 -17 -14 -44 -44 -59 -67 -15 -23 -32 -42
-36 -42 -14 0 -10 27 6 40 8 7 15 17 15 22 0 19 90 147 114 164 14 9 26 21 26
27 0 7 -4 7 -12 -1 -26 -26 -24 -10 3 41 16 28 32 59 36 67 3 8 24 43 45 77
36 57 74 97 162 168 57 46 134 120 106 101 -14 -9 -38 -27 -55 -41 -126 -103
-145 -115 -135 -90 23 61 46 89 167 201 70 65 144 135 164 154 166 160 216
211 299 299 173 185 220 239 220 251 0 13 12 12 33 -4z m2176 -118 c34 -72 78
-155 97 -184 19 -29 34 -56 34 -59 0 -6 100 -166 110 -175 3 -3 10 -13 15 -22
17 -28 128 -192 145 -211 8 -10 23 -28 33 -39 9 -12 17 -24 17 -28 0 -3 8 -15
18 -26 9 -10 53 -64 97 -119 77 -96 191 -232 224 -267 9 -9 48 -51 86 -93 39
-43 95 -103 125 -135 30 -31 111 -117 180 -190 69 -73 136 -144 150 -159 47
-49 180 -225 180 -238 0 -3 15 -26 33 -52 18 -25 45 -70 61 -99 24 -46 27 -60
21 -103 l-7 -51 -19 21 c-11 12 -23 21 -27 21 -15 0 -32 -24 -32 -45 0 -26 34
-60 49 -50 14 8 14 -20 0 -87 -11 -54 -29 -87 -29 -55 0 9 -4 17 -10 17 -5 0
-10 6 -10 14 0 7 -7 19 -15 26 -9 7 -5 -10 12 -49 25 -57 25 -63 13 -121 -13
-62 -30 -74 -40 -29 -7 29 -107 234 -123 252 -7 6 -30 39 -52 72 -69 103 -238
301 -333 388 -89 82 -442 439 -442 446 0 5 -8 12 -17 15 -10 4 -27 19 -38 35
-11 16 -39 51 -62 77 -74 85 -138 166 -206 264 -37 52 -76 106 -86 119 -11 14
-40 62 -65 106 -25 45 -52 88 -61 95 -8 7 -15 19 -15 26 0 8 -10 31 -23 52
-29 47 -141 276 -157 322 -7 19 -23 58 -35 85 -25 55 -95 260 -95 278 0 17 61
13 71 -4 4 -9 22 -58 40 -110 18 -52 35 -96 38 -99 3 -3 14 -21 24 -40 17 -35
17 -35 11 -5 -3 17 -17 52 -30 79 -32 64 -64 159 -64 190 0 26 18 37 47 30 26
-7 73 13 73 31 0 43 31 1 89 -117z m-345 52 c9 -22 16 -52 16 -65 0 -14 4 -25
8 -25 5 0 14 -16 19 -35 13 -41 -5 -90 -37 -100 -10 -3 -21 -12 -24 -20 -10
-28 -32 -15 -61 35 -17 27 -33 50 -37 50 -14 0 -9 21 12 50 11 15 17 30 13 33
-3 4 3 19 13 34 10 15 24 40 31 56 16 37 28 34 47 -13z m-1506 -76 c2 -16 8
-35 14 -41 7 -9 7 -17 -2 -28 -9 -11 -8 -20 10 -44 l21 -30 -23 -41 c-13 -22
-31 -42 -40 -46 -9 -3 -20 -14 -23 -25 -8 -26 -19 -24 -35 6 -7 14 -19 25 -25
25 -14 0 -35 43 -35 73 0 13 9 29 20 37 11 8 20 20 20 28 0 35 64 124 85 118
6 -1 12 -16 13 -32z m1381 -11 c-10 -21 -19 -43 -19 -51 0 -18 39 -92 49 -92
4 0 16 -16 27 -35 10 -19 21 -35 24 -35 3 0 14 11 24 25 10 14 24 25 31 25 6
0 20 9 30 20 24 26 32 17 57 -57 11 -32 32 -85 48 -118 15 -33 41 -89 58 -125
16 -36 40 -87 52 -114 22 -45 23 -53 12 -125 -6 -42 -16 -130 -22 -196 -6 -66
-15 -140 -21 -165 -11 -54 -28 -496 -39 -1025 -7 -383 -13 -443 -45 -500 -42
-75 -50 -83 -85 -89 -51 -8 -190 -7 -190 2 0 4 20 16 43 26 53 25 139 77 134
82 -2 2 -37 -12 -78 -32 -170 -84 -169 -83 -429 -85 -179 -1 -238 2 -272 14
-128 44 -141 45 -216 21 -53 -17 -68 -16 -197 17 -22 6 -69 14 -105 19 -35 4
-66 13 -68 19 -2 6 -9 17 -16 24 -19 20 -39 69 -52 127 -8 33 -15 175 -19 360
-4 168 -13 379 -22 470 -8 91 -17 192 -19 225 -2 33 -11 137 -19 230 -8 94
-19 244 -25 335 -6 91 -15 207 -22 258 -6 51 -11 128 -12 170 -1 43 -6 83 -10
90 -8 13 9 34 37 45 9 3 17 13 17 21 0 8 7 19 15 23 19 11 21 75 2 146 -8 31
-12 57 -10 57 3 0 25 -19 48 -42 85 -84 111 -103 205 -155 73 -41 190 -73 263
-73 29 0 57 -4 64 -8 14 -9 192 9 273 28 53 12 74 21 235 95 64 29 166 98 239
160 39 35 47 31 25 -12z m-4031 -235 c-7 -4 -22 -8 -33 -8 -24 0 -92 -59 -126
-110 -21 -31 -24 -46 -23 -125 0 -64 5 -99 17 -120 17 -30 16 -30 -16 -61 -50
-48 -65 -70 -77 -114 -12 -46 -6 -92 17 -128 13 -21 12 -28 -7 -67 -32 -65
-35 -109 -15 -170 18 -52 18 -54 0 -82 -20 -30 -26 -119 -9 -131 5 -4 18 -25
29 -47 11 -21 82 -101 159 -177 114 -114 143 -138 167 -138 l29 0 1 -197 c0
-109 3 -274 7 -368 4 -93 6 -216 4 -271 -3 -99 -4 -102 -30 -114 -36 -16 -204
-70 -220 -70 -7 0 -20 -4 -30 -9 -9 -6 -91 -33 -182 -62 -192 -61 -289 -104
-345 -154 -46 -41 -60 -44 -51 -12 17 64 41 327 39 442 -4 302 -58 1078 -83
1195 -15 75 -11 112 21 190 26 62 108 202 130 220 3 3 26 37 50 75 23 39 46
72 49 75 5 5 38 64 87 160 15 30 31 57 34 60 3 3 18 36 34 73 16 37 32 70 37
73 4 3 8 14 8 24 0 12 19 32 53 53 79 51 217 194 217 226 0 6 4 11 8 11 5 0
19 24 33 53 l24 52 3 -119 c2 -89 -1 -121 -10 -128z m3762 122 c-8 -5 -19 -10
-25 -10 -5 0 -3 5 5 10 8 5 20 10 25 10 6 0 3 -5 -5 -10z m-1235 -118 l23 -18
6 -340 c6 -330 17 -539 36 -676 6 -37 10 -109 10 -160 0 -51 5 -133 11 -183 5
-49 14 -225 19 -390 13 -404 14 -422 45 -490 14 -32 24 -60 22 -62 -2 -2 -28
2 -58 8 -57 12 -103 41 -156 98 -47 50 -50 79 -27 214 3 21 1 64 -5 95 -6 31
-16 89 -21 127 -6 39 -14 93 -19 120 -9 49 -35 203 -51 300 -4 28 -15 91 -24
140 -9 50 -21 117 -26 150 -5 33 -15 87 -20 120 -47 259 -82 610 -66 666 3 13
31 51 62 84 30 33 65 73 77 88 12 15 31 39 42 52 11 13 36 44 55 70 29 38 36
42 38 25 2 -11 14 -28 27 -38z m-2053 -109 c15 -15 28 -35 28 -44 0 -10 5 -21
10 -24 6 -3 10 -17 10 -30 0 -25 15 -45 98 -133 63 -66 77 -96 97 -195 7 -39
23 -101 35 -137 35 -105 36 -265 3 -400 -5 -22 -4 -23 9 -12 14 11 16 5 22
-50 10 -88 -27 -183 -101 -264 -26 -29 -45 -39 -126 -73 -34 -13 -67 -14 -67
-2 0 5 -16 4 -36 -2 -29 -9 -37 -8 -45 4 -6 8 -8 76 -6 165 l4 151 32 33 c17
18 31 39 31 46 0 8 6 11 15 8 19 -8 20 10 1 25 -26 22 -28 59 -4 92 29 39 29
101 -1 133 -25 26 -26 36 -6 36 28 0 33 133 5 150 -16 10 -18 66 -2 62 10 -2
10 2 2 17 -5 11 -10 35 -10 53 0 19 -4 38 -8 44 -5 5 -15 25 -23 44 -7 19 -24
44 -37 55 -32 28 -53 159 -32 202 12 25 58 73 69 73 3 0 18 -12 33 -27z m-364
-57 c26 -13 61 -36 77 -50 17 -14 33 -26 37 -26 9 0 82 -65 127 -113 41 -44
64 -98 55 -133 -5 -19 -13 -24 -43 -26 -53 -2 -94 2 -101 10 -3 4 -27 19 -55
33 -27 14 -59 30 -70 36 -66 35 -136 65 -141 60 -3 -3 3 -12 15 -19 28 -17 27
-28 -3 -28 -17 0 -27 8 -35 28 -7 15 -20 43 -31 62 -26 48 -25 84 5 128 45 66
88 76 163 38z m-1234 -268 c51 -106 100 -248 126 -363 6 -27 15 -68 21 -90 22
-93 48 -270 58 -405 31 -419 37 -1020 13 -1250 -15 -138 -52 -379 -62 -406 -6
-14 -10 -37 -10 -52 0 -15 -6 -56 -14 -92 -8 -36 -20 -96 -26 -135 -24 -142
-91 -359 -133 -435 -57 -104 -68 -118 -95 -123 -37 -7 -142 11 -171 30 -21 13
-23 21 -18 62 7 54 27 97 56 118 37 26 61 86 61 156 0 34 -5 68 -11 74 -21 21
-29 86 -18 148 12 67 48 136 95 180 64 60 84 196 38 260 -41 59 -53 91 -54
148 0 81 26 168 66 214 46 54 68 129 61 211 -7 72 -23 102 -65 127 -50 30 -67
76 -67 179 1 84 3 95 32 141 44 71 56 118 49 178 -11 76 -39 118 -106 152 -16
8 -42 36 -57 63 -25 41 -28 57 -28 132 0 62 5 95 19 124 13 29 17 54 14 97 -5
71 -27 98 -92 118 -76 22 -106 65 -106 151 0 49 1 51 90 142 179 186 255 258
268 258 7 0 37 -51 66 -112z m3316 -24 c22 -280 46 -464 110 -819 46 -258 46
-232 6 -331 -20 -48 -36 -92 -36 -97 0 -4 -11 -32 -24 -60 -13 -29 -27 -63
-31 -77 -4 -14 -21 -50 -36 -81 -16 -31 -29 -59 -29 -63 0 -6 -72 -163 -99
-216 -91 -173 -125 -237 -137 -251 -8 -8 -14 -18 -14 -22 0 -8 -93 -160 -102
-167 -4 -3 -29 -40 -57 -82 -27 -42 -59 -86 -70 -97 -12 -12 -21 -25 -21 -30
0 -4 -12 -21 -27 -37 -16 -16 -40 -45 -54 -64 -63 -83 -388 -410 -408 -410 -5
0 -14 -7 -21 -15 -7 -8 -16 -15 -21 -15 -17 0 -9 21 20 49 51 49 82 118 88
192 4 46 12 75 24 88 10 10 30 43 46 73 24 46 27 65 27 148 1 70 5 102 17 120
9 14 24 43 33 65 10 22 23 51 29 64 7 13 10 56 8 100 -7 156 -6 168 9 186 8
10 20 39 27 64 14 52 17 222 5 237 -18 21 -33 83 -24 101 23 45 32 97 32 191
0 56 -4 104 -10 107 -5 3 -10 13 -10 21 0 8 -11 32 -24 53 -14 21 -30 66 -36
101 -19 107 -47 151 -155 250 -49 44 16 36 133 -17 50 -22 151 -112 206 -183
49 -62 125 -251 141 -350 4 -25 11 -49 15 -55 4 -5 11 -32 16 -60 4 -27 9 -41
11 -30 4 24 -18 154 -41 236 -34 125 -128 291 -214 378 -54 54 -29 50 63 -11
45 -29 120 -101 150 -143 11 -16 25 -34 32 -40 7 -7 22 -31 34 -54 22 -43 44
-66 32 -34 -54 144 -254 331 -383 358 -28 5 -107 38 -129 52 -2 1 7 11 20 22
37 30 148 46 238 33 42 -6 77 -9 79 -8 8 9 -135 36 -187 36 l-60 0 8 28 c7 24
21 55 65 151 11 24 87 80 210 156 36 22 65 43 66 48 0 4 5 7 11 7 9 0 115 74
154 108 6 5 23 17 39 27 15 10 41 30 56 44 97 91 182 162 188 156 1 -1 7 -60
12 -131z m-5942 65 c120 -55 176 -84 196 -101 11 -10 24 -18 29 -18 5 0 26
-13 47 -30 21 -16 43 -30 49 -30 6 0 11 -3 11 -7 0 -5 27 -28 60 -53 33 -24
60 -48 60 -52 0 -5 5 -8 11 -8 6 0 35 -23 65 -51 29 -29 67 -60 83 -70 16 -9
30 -21 32 -26 2 -4 36 -33 74 -63 39 -30 85 -69 104 -87 19 -18 39 -33 44 -33
17 0 1 110 -29 199 -15 47 -47 120 -70 163 -23 43 -39 78 -35 78 21 0 190
-190 184 -208 -7 -18 22 -59 46 -67 25 -8 39 -68 21 -90 -12 -15 -5 -55 10
-55 13 0 70 -121 76 -161 3 -19 1 -46 -3 -61 l-8 -27 -40 19 c-22 11 -44 19
-49 20 -13 0 -156 73 -162 82 -3 4 -15 8 -28 8 -17 0 -31 15 -57 60 -18 33
-37 60 -41 60 -5 0 -8 6 -8 13 -1 6 -9 22 -19 35 -17 19 -29 22 -88 22 -57 0
-76 5 -118 29 -69 40 -120 90 -134 134 -12 35 -15 37 -55 37 -23 0 -51 7 -63
15 -23 16 -53 69 -53 93 0 10 -6 12 -22 7 -13 -4 -46 -10 -74 -12 -50 -5 -52
-4 -88 38 -20 23 -36 51 -36 62 0 16 -5 18 -27 13 -16 -3 -58 -9 -94 -12 -60
-6 -67 -5 -93 19 l-27 25 23 8 c39 12 141 64 177 90 19 13 38 24 43 24 5 0 39
-14 76 -31z m3839 -63 c75 -38 186 -86 198 -86 8 0 16 -4 20 -9 3 -6 30 -22
61 -37 68 -33 107 -80 102 -125 -2 -19 -11 -36 -23 -43 -11 -6 -23 -15 -27
-20 -4 -6 -17 -5 -33 2 -14 7 -37 12 -51 12 -14 0 -58 11 -97 24 -103 34 -208
56 -239 49 -46 -9 -31 -23 24 -23 29 0 85 -11 127 -25 116 -39 136 -45 154
-45 10 0 25 -4 35 -9 9 -5 37 -14 61 -21 28 -7 45 -18 48 -31 3 -10 9 -19 14
-19 5 0 9 -15 9 -33 0 -29 -5 -35 -41 -51 -35 -16 -58 -18 -138 -13 -53 3
-121 11 -151 18 -33 7 -74 9 -102 5 -66 -10 -63 -30 2 -24 28 3 77 -1 108 -8
31 -8 80 -14 108 -14 84 0 144 -11 144 -26 0 -8 6 -14 14 -14 17 0 25 -29 15
-56 -15 -43 -125 -74 -259 -74 -46 0 -91 -6 -111 -15 -33 -14 -34 -14 -7 -15
22 0 26 -4 21 -17 -5 -15 -3 -16 8 -5 24 22 29 13 29 -58 0 -38 -3 -70 -7 -70
-5 0 -39 29 -78 65 -38 35 -77 67 -85 70 -20 7 -67 75 -75 108 -4 16 0 49 10
81 17 53 17 57 0 92 -28 59 -31 108 -8 141 33 45 36 69 16 110 -21 44 -24 134
-5 141 7 2 19 10 26 18 8 8 19 14 25 14 6 0 11 4 11 10 0 15 52 39 87 40 17 0
44 -6 60 -14z m-4137 -77 c36 -19 52 -21 118 -16 l77 6 33 -51 c33 -49 33 -50
10 -45 -12 3 -87 11 -164 18 -105 9 -150 10 -175 2 -30 -10 -26 -11 36 -7 l70
4 -40 -19 c-22 -11 -48 -20 -57 -20 -10 -1 -18 -5 -18 -11 0 -5 -16 -17 -35
-26 -43 -20 -136 -125 -155 -174 -7 -19 -17 -39 -21 -45 -21 -29 -59 -214 -59
-290 0 -85 35 -267 76 -393 29 -90 139 -302 157 -302 12 0 8 28 -6 42 -16 16
-49 77 -77 143 -12 28 -30 68 -39 90 -36 81 -54 154 -77 304 -12 82 -12 108 1
210 29 221 99 339 250 418 l70 37 142 0 c89 0 147 -5 155 -12 7 -6 36 -18 63
-28 56 -19 175 -84 175 -96 0 -4 7 -8 14 -8 18 0 163 -137 154 -145 -3 -4 -14
-2 -25 3 -29 16 -85 39 -128 52 -22 7 -45 17 -51 21 -6 5 -33 11 -60 14 -27 3
-42 2 -34 -1 8 -3 50 -19 94 -36 43 -16 128 -54 190 -84 61 -29 117 -54 124
-54 6 0 12 -4 12 -10 0 -5 5 -10 11 -10 12 0 69 -26 264 -120 55 -26 136 -65
180 -85 44 -20 96 -45 115 -55 19 -10 52 -23 73 -30 20 -6 37 -15 37 -20 0 -8
-108 -30 -151 -30 -13 0 -31 -5 -39 -11 -21 -15 130 -4 245 17 106 19 185 28
185 21 0 -13 -419 -421 -510 -496 -20 -17 -21 -20 -5 -14 10 4 30 16 44 27 98
84 186 164 316 292 135 133 196 184 218 184 4 0 3 -8 -2 -17 -4 -10 -14 -34
-20 -53 -7 -19 -19 -55 -28 -80 -8 -25 -21 -58 -28 -75 -7 -16 -18 -48 -24
-70 -6 -22 -20 -69 -31 -105 -24 -77 -41 -165 -30 -153 6 6 54 155 77 238 3
11 9 25 12 30 4 6 16 39 26 75 10 36 22 69 27 75 4 5 8 16 8 24 0 11 74 168
114 241 5 10 35 25 65 35 50 16 69 32 201 166 80 82 181 189 225 238 44 49 83
90 88 90 4 1 7 -6 7 -15 0 -8 7 -38 16 -65 19 -58 73 -109 116 -109 61 0 87
-94 53 -190 -22 -63 -20 -201 4 -248 24 -46 67 -91 96 -98 31 -8 65 -74 72
-137 5 -54 -5 -87 -47 -153 -12 -18 -25 -64 -31 -113 -15 -113 -3 -156 68
-229 64 -65 82 -121 63 -194 -12 -44 -49 -118 -60 -118 -3 0 -14 -17 -24 -37
-10 -21 -22 -45 -26 -53 -14 -29 -22 -121 -15 -176 4 -37 17 -69 41 -104 28
-40 34 -59 34 -100 0 -62 -26 -128 -62 -158 -90 -76 -139 -280 -83 -343 14
-15 19 -35 19 -73 -1 -60 -13 -87 -59 -136 -32 -34 -65 -110 -65 -150 0 -11
-3 -20 -7 -20 -4 0 -69 23 -143 51 -74 28 -171 65 -215 81 -44 17 -122 50
-174 75 -74 36 -101 44 -128 40 -39 -7 -153 45 -348 158 -120 69 -345 211
-372 234 -7 6 -17 11 -23 11 -5 0 -10 4 -10 9 0 5 -8 12 -18 15 -10 4 -27 14
-38 24 -29 26 -92 72 -99 72 -3 0 -11 5 -18 10 -17 14 -79 61 -111 85 -16 11
-33 25 -40 30 -6 6 -29 24 -51 40 -45 33 -143 112 -161 129 -7 6 -33 29 -60
51 -26 22 -60 51 -75 65 -15 14 -50 45 -79 70 -84 71 -303 290 -387 387 -93
107 -99 113 -118 138 -14 19 -14 18 -4 -10 8 -24 67 -106 89 -125 3 -3 13 -16
22 -29 67 -98 431 -460 539 -536 16 -11 29 -26 29 -32 0 -7 5 -13 11 -13 7 0
31 -17 54 -37 61 -54 91 -79 128 -105 32 -22 46 -33 70 -53 7 -6 37 -28 67
-50 30 -22 60 -44 67 -50 6 -5 57 -41 113 -79 l102 -70 -7 -115 c-13 -212 -33
-375 -70 -576 -10 -49 -21 -115 -25 -145 -9 -66 -47 -271 -60 -320 -15 -62
-52 -254 -60 -310 -4 -30 -13 -75 -19 -100 -23 -96 -43 -187 -52 -243 -5 -32
-16 -86 -25 -120 -8 -34 -19 -82 -24 -107 -18 -101 -53 -266 -61 -285 -4 -11
-13 -51 -19 -90 -7 -38 -18 -92 -26 -119 -8 -27 -14 -59 -13 -70 1 -27 26 50
44 134 7 36 25 119 40 185 36 159 51 230 75 350 7 33 20 92 30 130 10 39 21
93 25 120 3 28 10 64 15 80 5 17 21 93 35 170 14 77 30 158 35 180 6 22 17 78
25 125 9 47 20 109 25 138 6 28 14 76 20 105 5 28 16 86 24 127 8 41 17 100
20 132 3 31 10 67 15 80 11 26 7 -198 -9 -467 -5 -93 -19 -368 -30 -610 -26
-554 -37 -777 -50 -985 -5 -91 -10 -205 -10 -255 0 -105 -9 -165 -23 -165 -14
0 -187 107 -347 214 -562 378 -1078 868 -1498 1420 l-90 119 28 56 c15 31 32
72 39 91 7 19 17 44 21 55 10 23 29 89 68 230 6 22 29 99 51 170 21 72 41 139
44 150 3 11 17 58 32 105 42 135 53 181 60 250 5 58 24 160 57 315 5 28 14 84
18 125 5 41 16 138 25 215 14 117 16 194 11 475 -3 184 -10 369 -16 410 -34
259 -47 540 -30 662 19 145 73 287 147 388 44 59 43 59 94 105 80 74 112 93
159 98 25 2 46 4 47 5 1 1 21 -8 43 -19z m4485 -16 c-4 -16 -8 -30 -10 -31 -8
-8 -25 10 -25 27 0 21 9 31 28 31 10 0 12 -7 7 -27z m4147 -72 c18 -30 38 -61
43 -70 18 -29 128 -186 134 -191 4 -3 22 -25 40 -50 19 -25 41 -52 50 -60 9
-8 23 -24 31 -36 18 -25 105 -124 189 -214 55 -59 61 -69 66 -120 3 -30 10
-77 15 -105 5 -27 16 -97 24 -155 14 -101 14 -106 -5 -130 -84 -108 -80 -99
-77 -177 2 -68 0 -74 -22 -90 -41 -29 -159 -146 -186 -185 -22 -31 -35 -39
-83 -49 -73 -15 -88 -23 -158 -90 -53 -50 -63 -55 -108 -57 -28 -2 -58 -5 -67
-8 -26 -8 -23 -1 20 43 43 46 78 113 99 186 38 139 43 160 43 185 -1 39 -16 9
-25 -48 -10 -67 -53 -188 -85 -245 -33 -57 -84 -110 -117 -120 -30 -8 -29 -1
6 65 l29 55 0 245 c1 135 6 340 12 455 21 433 41 792 45 840 3 28 8 90 11 139
l7 89 18 -24 c11 -13 34 -48 51 -78z m-8201 -47 c5 -15 8 -28 6 -30 -6 -7 -97
28 -97 36 0 8 26 16 63 19 10 0 21 -9 28 -25z m159 -110 c14 -37 13 -38 -17
-18 -53 34 -58 44 -23 44 24 0 33 -6 40 -26z m670 -34 c0 -5 -2 -10 -4 -10 -3
0 -8 5 -11 10 -3 6 -1 10 4 10 6 0 11 -4 11 -10z m-2565 -49 c-4 -17 -10 -31
-14 -31 -5 0 -3 15 3 34 13 42 21 39 11 -3z m2415 -8 c7 -27 14 -57 17 -67 4
-13 -18 2 -62 40 l-67 59 44 6 c23 3 46 7 49 7 4 1 12 -19 19 -45z m299 -77
c59 -88 72 -114 131 -261 4 -11 15 -36 23 -55 25 -58 25 -75 -1 -78 -30 -5
-49 12 -58 51 -3 18 -10 37 -14 42 -4 6 -15 33 -25 60 -9 28 -22 61 -27 75 -6
14 -16 39 -23 55 -23 58 -90 190 -97 193 -5 2 -8 11 -8 20 0 19 56 -38 99
-102z m-549 -13 c50 -4 70 -11 88 -29 12 -13 22 -28 22 -34 0 -6 7 -22 16 -36
23 -34 13 -39 -30 -14 -20 11 -43 20 -51 20 -7 0 -20 6 -27 13 -7 7 -33 21
-58 31 -50 19 -63 28 -100 69 l-25 28 50 -21 c27 -12 79 -24 115 -27z m490 -5
c13 -29 32 -73 42 -98 10 -25 23 -54 28 -65 16 -34 60 -178 56 -182 -2 -3 -12
0 -23 6 -10 5 -26 12 -36 15 -22 7 -42 55 -27 70 5 5 10 21 10 34 0 25 -65
167 -88 191 -7 7 -11 20 -8 28 3 8 6 23 6 34 0 33 15 21 40 -33z m3943 -95
c-7 -2 -13 -9 -13 -15 0 -6 7 -8 15 -4 18 7 19 -1 3 -18 -8 -7 -25 -9 -43 -5
-16 4 -22 7 -12 8 9 0 17 7 17 15 0 14 15 24 35 24 6 0 4 -2 -2 -5z m-172 -55
c13 -7 29 -19 37 -25 7 -7 18 -13 23 -13 20 0 25 -3 64 -37 111 -95 149 -149
160 -228 4 -28 21 -79 38 -115 16 -36 34 -74 39 -86 14 -30 4 -200 -15 -262
-15 -49 -15 -55 4 -113 27 -83 23 -201 -11 -279 -20 -48 -23 -72 -24 -185 l-1
-130 -42 -86 c-38 -79 -41 -90 -36 -145 6 -65 -23 -172 -57 -209 -26 -30 -37
-55 -44 -105 -10 -77 -36 -139 -78 -187 -22 -26 -45 -57 -51 -70 -6 -13 -28
-29 -56 -39 -25 -10 -50 -21 -56 -26 -5 -4 -18 -8 -30 -8 -12 0 -25 -4 -30 -9
-6 -5 -21 -12 -33 -16 -22 -6 -23 -5 -17 17 4 12 11 25 16 28 17 11 139 361
139 399 0 9 4 21 8 27 5 5 14 36 21 69 7 33 17 74 23 90 5 17 14 53 19 80 5
28 14 70 19 95 13 59 34 184 65 400 32 218 45 566 25 699 -19 132 -45 233 -79
304 -28 60 -99 144 -146 175 -17 11 -13 12 32 8 28 -3 62 -11 74 -18z m-696
-1193 c5 -621 9 -1220 10 -1330 1 -110 5 -596 9 -1080 3 -484 9 -1194 12
-1577 l5 -698 -95 0 c-82 0 -95 2 -100 18 -2 9 -7 395 -11 857 -3 462 -8 957
-10 1100 -2 143 -7 622 -10 1065 -3 443 -10 1062 -15 1375 -5 314 -11 755 -12
980 l-2 410 79 7 c44 4 89 9 100 11 11 2 23 1 26 -2 4 -4 10 -514 14 -1136z
m640 1103 c24 -29 54 -86 75 -143 4 -11 13 -33 19 -49 7 -16 19 -66 28 -110
24 -122 22 -525 -4 -711 l-19 -140 -29 2 c-15 1 -31 6 -34 11 -3 4 -24 19 -46
32 -90 54 -210 167 -247 233 -12 20 -25 37 -30 37 -4 0 -8 5 -8 11 0 14 -101
165 -139 209 -32 36 -41 65 -18 57 14 -5 150 43 155 55 2 4 8 8 13 8 15 0 93
53 112 78 10 12 24 28 30 35 63 69 114 240 104 353 -2 35 -1 64 3 64 5 0 20
-14 35 -32z m4277 -260 c37 -37 68 -73 68 -82 0 -8 -21 -38 -47 -67 -27 -28
-55 -61 -63 -73 -14 -20 -15 -20 -23 19 -13 67 -27 167 -34 235 -7 76 -12 77
99 -32z m120 -118 c7 0 117 -110 178 -179 30 -34 69 -77 85 -96 17 -18 42 -48
55 -66 14 -18 37 -47 51 -63 14 -17 29 -38 32 -46 4 -8 20 -35 37 -60 52 -80
103 -191 140 -298 l21 -64 -55 -181 c-53 -177 -140 -423 -206 -578 -28 -67
-37 -79 -71 -95 -21 -11 -39 -22 -39 -26 0 -5 -4 -8 -9 -8 -9 0 -10 2 -35 125
-9 44 -23 105 -30 135 -28 108 -67 245 -75 265 -30 70 -43 99 -80 175 -39 81
-94 164 -145 220 -26 28 -93 83 -110 89 -6 2 -13 7 -16 11 -8 11 -93 48 -125
55 -55 12 -95 26 -95 34 0 9 175 191 184 191 3 0 27 15 53 33 83 57 98 62 207
62 56 0 121 -3 146 -8 l45 -7 -40 19 c-64 31 -230 29 -310 -4 -33 -14 -61 -25
-61 -25 -1 0 -5 20 -8 43 -8 54 2 81 51 132 21 22 63 72 93 110 30 39 58 72
63 73 4 2 15 18 23 35 15 28 18 29 29 14 7 -9 14 -17 17 -17z m-10826 -308
c-12 -11 -17 7 -9 34 l8 29 3 -28 c2 -16 1 -31 -2 -35z m7800 -19 c-10 -10
-19 5 -10 18 6 11 8 11 12 0 2 -7 1 -15 -2 -18z m-7830 -31 c-9 -17 -20 -34
-26 -37 -6 -4 -1 12 11 35 12 22 23 39 26 36 2 -2 -3 -18 -11 -34z m11524 -36
c0 -3 -4 -8 -10 -11 -5 -3 -10 -1 -10 4 0 6 5 11 10 11 6 0 10 -2 10 -4z
m-1124 -317 c151 -28 283 -129 378 -289 61 -102 146 -309 146 -354 0 -9 4 -24
9 -34 8 -15 16 -41 37 -121 42 -161 73 -326 74 -394 0 -50 -7 -71 -55 -166
-70 -140 -186 -342 -287 -501 -80 -126 -259 -382 -264 -378 -1 2 -5 183 -8
403 -9 552 -21 684 -82 905 -30 106 -83 226 -142 320 -38 60 -156 180 -177
180 -7 0 -18 7 -25 15 -7 8 -19 15 -27 15 -12 0 -12 -2 -1 -12 7 -7 24 -19 38
-26 34 -18 77 -58 126 -117 139 -171 229 -433 254 -741 5 -71 13 -319 16 -551
l7 -422 -77 -98 c-104 -133 -258 -310 -275 -317 -11 -5 -12 20 -7 151 16 366
3 966 -24 1153 -38 260 -69 366 -160 555 -62 128 -191 255 -259 255 -11 0 -23
5 -26 10 -3 6 -39 10 -78 10 -66 1 -70 2 -52 16 11 8 30 24 43 34 12 11 24 20
26 20 5 0 96 54 136 80 14 9 44 22 68 28 23 7 42 18 42 25 0 16 182 137 206
137 11 0 24 4 30 9 20 19 140 32 195 20 55 -11 166 -61 184 -82 15 -18 66 -49
71 -44 3 3 -13 20 -34 38 -93 79 -225 126 -324 114 -32 -3 -58 -4 -58 -2 0 9
86 94 116 114 30 21 119 50 160 52 11 1 47 -4 80 -10z m-1530 -176 c29 -21 58
-49 64 -63 6 -14 20 -43 31 -64 15 -28 21 -60 22 -105 0 -60 -18 -141 -33
-141 -3 0 -14 -15 -23 -32 -10 -18 -37 -46 -60 -62 -39 -28 -49 -30 -133 -30
-89 -1 -91 0 -130 33 -21 19 -54 60 -72 92 -30 53 -33 65 -33 142 -1 91 14
133 67 196 43 51 89 70 172 71 69 0 77 -2 128 -37z m-3297 -126 c0 -51 2 -235
6 -409 4 -233 3 -318 -6 -318 -6 0 -23 -8 -37 -18 -15 -10 -35 -22 -45 -25
-14 -5 -16 -3 -8 11 22 43 50 111 60 147 16 59 13 189 -5 253 -16 52 -23 68
-69 148 -34 57 -135 126 -237 161 -51 17 -86 34 -78 37 8 3 49 14 90 25 41 11
113 32 160 47 95 29 152 42 162 37 4 -2 7 -45 7 -96z m1751 -49 c0 -18 -2 -20
-9 -8 -6 8 -7 18 -5 22 9 14 14 9 14 -14z m-1430 -133 c6 -27 15 -76 21 -109
25 -156 85 -333 172 -503 12 -23 19 -44 17 -46 -5 -4 -124 -60 -190 -90 l-35
-16 -6 67 c-14 153 -13 847 1 782 4 -19 13 -57 20 -85z m-663 81 c78 -30 145
-76 180 -124 15 -20 31 -39 34 -42 3 -3 18 -35 32 -72 88 -220 -33 -488 -264
-585 -57 -25 -76 -27 -179 -27 -135 0 -184 17 -253 87 -52 52 -120 189 -137
273 -10 52 -10 72 5 135 33 141 45 168 104 228 134 135 327 187 478 127z
m2827 -170 c79 -26 123 -37 241 -60 154 -29 199 -36 247 -36 26 0 48 -4 48 -8
0 -22 -189 -162 -219 -162 -6 0 -11 -4 -11 -9 0 -13 -146 -76 -245 -105 -165
-48 -219 -60 -343 -76 -94 -12 -133 -33 -47 -25 141 13 307 49 425 92 140 50
250 101 250 115 0 5 7 8 15 8 8 0 15 5 15 10 0 6 6 10 14 10 8 0 21 6 28 13
38 36 132 107 141 107 6 0 27 -5 46 -11 20 -7 42 -13 49 -15 9 -3 5 -15 -13
-44 -14 -22 -21 -40 -15 -40 6 0 14 8 17 18 4 9 9 19 12 22 3 3 11 14 17 25 8
13 26 22 57 27 25 3 52 10 59 14 13 8 357 6 371 -3 19 -12 -83 -83 -120 -83
-6 0 -13 -4 -15 -8 -1 -5 -52 -32 -113 -61 -60 -29 -150 -72 -200 -96 -97 -48
-162 -75 -176 -75 -10 0 10 41 26 52 6 4 6 8 1 8 -4 0 -54 -45 -110 -99 -55
-55 -132 -123 -171 -152 -38 -29 -71 -56 -73 -61 -2 -4 -8 -8 -13 -8 -5 0 -40
-22 -77 -49 -37 -26 -88 -60 -114 -74 -25 -14 -65 -37 -88 -52 -23 -15 -63
-38 -88 -52 -26 -15 -60 -34 -77 -44 -16 -10 -70 -39 -120 -65 -126 -65 -169
-88 -175 -94 -6 -6 -36 -23 -90 -51 -21 -11 -44 -27 -51 -35 -6 -8 -15 -14
-20 -14 -8 0 -100 -59 -109 -70 -3 -4 -32 -25 -65 -47 -105 -71 -345 -323
-345 -362 0 -6 -4 -11 -9 -11 -8 0 -33 -48 -99 -190 -17 -36 -47 -117 -67
-180 -20 -63 -41 -131 -47 -150 -6 -19 -15 -53 -19 -75 -4 -22 -14 -66 -23
-97 -41 -148 -111 -524 -146 -783 -5 -33 -13 -94 -19 -135 -29 -201 -69 -530
-76 -632 -4 -48 -12 -91 -19 -97 -13 -11 -278 -41 -362 -41 l-54 0 -2 313 c-2
437 -4 623 -11 1347 -6 560 -11 1563 -8 1598 1 6 6 12 12 12 6 0 27 7 47 16
85 37 109 48 142 64 19 10 69 30 110 45 41 15 89 33 107 41 17 8 36 14 42 14
6 0 19 4 29 9 45 25 268 108 347 131 17 4 55 17 85 28 30 11 91 32 135 47 44
14 89 30 100 35 11 4 87 29 168 56 106 34 154 55 167 71 10 13 22 23 28 23 6
0 23 6 39 14 36 18 89 32 183 46 211 32 353 60 408 81 44 17 19 18 -48 2 -36
-8 -90 -18 -120 -22 -30 -3 -60 -9 -65 -13 -6 -4 -16 -3 -23 1 -22 13 83 118
152 151 33 16 63 29 65 30 3 0 36 -11 75 -24z m-1013 -149 c-10 -9 -11 -8 -5
6 3 10 9 15 12 12 3 -3 0 -11 -7 -18z m519 -1 c0 -2 -11 -6 -25 -8 -13 -3 -22
-1 -19 3 5 9 44 13 44 5z m1905 -39 c39 -19 111 -105 148 -178 53 -105 73
-259 34 -259 -7 0 -29 -36 -49 -79 -51 -108 -173 -228 -275 -272 -18 -8 -33
-17 -33 -21 0 -5 -8 -8 -17 -8 -18 -1 -31 -17 -125 -153 -26 -37 -54 -74 -61
-82 -8 -7 -20 -28 -27 -47 -20 -54 -40 -98 -86 -194 -40 -84 -47 -92 -84 -104
-32 -10 -42 -11 -55 0 -19 16 -19 41 1 115 9 33 20 76 25 95 20 87 58 191 94
260 69 131 85 196 30 120 -17 -23 -35 -47 -40 -53 -6 -7 -28 -34 -50 -62 -21
-27 -44 -54 -49 -60 -6 -5 -26 -46 -45 -90 -99 -235 -142 -315 -182 -339 -56
-33 -96 -11 -85 46 4 18 11 60 16 93 7 55 27 127 65 245 8 25 15 52 15 60 0 8
17 40 37 70 63 94 143 223 143 232 0 22 -18 3 -44 -47 -16 -30 -32 -55 -37
-55 -5 0 -9 -5 -9 -10 0 -6 -5 -16 -10 -23 -65 -77 -110 -155 -110 -188 0 -10
-4 -28 -9 -41 -18 -48 -41 -126 -66 -223 -34 -133 -41 -145 -80 -145 -18 0
-38 6 -44 14 -30 36 -24 220 14 386 8 36 17 81 20 101 3 21 29 72 60 118 30
45 55 86 55 92 0 5 4 9 8 9 12 0 64 109 59 123 -2 7 -12 -6 -21 -27 -9 -22
-23 -47 -31 -55 -23 -24 -124 -173 -135 -200 -6 -12 -17 -53 -25 -90 -9 -36
-20 -84 -26 -106 -5 -22 -12 -56 -15 -77 -4 -20 -18 -60 -33 -90 -21 -43 -32
-54 -54 -56 -54 -6 -61 10 -54 138 4 63 13 142 21 175 9 33 15 81 16 108 0 50
40 136 80 172 11 10 20 23 20 30 0 6 16 30 35 52 19 23 35 46 35 53 0 6 8 20
18 30 10 11 28 40 40 64 28 55 79 111 112 121 13 4 65 27 115 50 49 24 108 51
130 60 22 10 67 31 100 48 69 35 170 85 235 117 25 12 61 30 80 40 29 16 48
18 110 13 41 -3 84 -10 95 -16z m-2503 -128 c13 -28 21 -32 63 -30 11 0 2 -6
-19 -14 -22 -8 -42 -13 -44 -10 -3 3 1 5 9 6 8 0 4 4 -9 9 -28 12 -52 3 -52
-19 0 -13 -8 -16 -39 -13 -36 4 -39 6 -31 25 4 12 13 21 20 19 6 -1 8 2 5 8
-10 16 44 58 66 53 10 -3 24 -18 31 -34z m-4342 12 c0 -4 27 -25 60 -45 l60
-37 0 -312 c1 -1998 -3 -2753 -15 -2765 -2 -2 -59 25 -127 61 l-123 65 3 129
c1 70 7 178 13 238 5 61 14 223 20 360 21 506 27 625 38 850 23 473 51 1236
51 1368 0 58 4 97 10 97 6 0 10 -4 10 -9z m172 -111 c2 -5 21 -19 44 -32 22
-13 65 -38 96 -56 l55 -32 6 -123 c14 -278 18 -330 32 -507 8 -102 19 -266 25
-365 6 -99 15 -227 20 -285 5 -58 17 -222 25 -365 9 -143 20 -321 26 -396 5
-75 14 -216 20 -315 5 -98 14 -242 19 -319 14 -180 28 -459 24 -464 -4 -5
-141 53 -290 124 l-131 62 3 294 c1 162 3 855 3 1542 1 1112 4 1291 23 1237z
m4005 -5 c0 -8 -4 -15 -9 -15 -10 0 -11 14 -1 23 9 10 10 9 10 -8z m-2173 -84
c7 -9 9 -182 7 -577 -3 -615 -6 -591 52 -541 l27 22 2 489 3 488 25 -24 c74
-72 174 -102 314 -96 104 5 176 28 245 77 52 37 55 34 52 -51 -2 -43 0 -78 3
-78 3 0 17 5 31 12 23 10 25 16 25 78 0 72 2 75 75 116 11 6 36 21 56 33 l36
21 7 -49 c4 -28 4 -61 1 -73 -3 -13 -2 -57 2 -98 11 -97 8 -110 -25 -110 -22
0 -131 -55 -231 -115 -25 -15 -83 -57 -110 -80 -80 -67 -211 -220 -256 -300
-16 -27 -32 -52 -35 -55 -10 -8 -85 -197 -109 -275 -29 -96 -38 -128 -56 -215
-9 -41 -20 -91 -25 -111 -5 -19 -18 -109 -29 -200 -18 -147 -44 -302 -85 -489
-7 -36 -17 -103 -20 -150 -4 -47 -11 -112 -16 -145 -5 -33 -14 -96 -20 -140
-6 -44 -17 -120 -25 -170 -27 -182 -50 -382 -60 -550 -4 -49 -11 -111 -17
-137 -9 -42 -13 -47 -31 -43 -12 2 -83 16 -157 30 -147 29 -390 89 -540 134
l-95 28 -6 224 c-6 209 -13 288 -38 464 -5 39 -15 113 -21 165 -6 52 -16 117
-21 143 -5 26 -9 96 -10 155 0 104 -5 162 -28 362 -6 52 -15 201 -21 330 -20
480 -46 846 -69 990 -5 30 -10 78 -10 106 l-1 51 98 -38 c53 -21 131 -50 172
-64 41 -15 84 -31 95 -35 114 -51 242 -83 330 -84 74 -1 86 2 158 38 106 53
141 100 212 281 15 39 31 79 35 90 5 11 16 49 25 85 15 60 22 83 40 135 7 18
8 17 18 -10 5 -16 15 -36 21 -44z m2146 65 c0 -2 -7 -7 -16 -10 -8 -3 -12 -2
-9 4 6 10 25 14 25 6z m4333 -102 c-14 -29 -18 -32 -24 -17 -8 22 7 53 26 53
12 0 12 -6 -2 -36z m-7979 -61 l94 -48 6 -90 c4 -49 9 -108 12 -130 7 -58 33
-386 44 -550 5 -77 12 -171 15 -210 21 -279 27 -347 35 -480 5 -82 14 -199 19
-260 5 -60 14 -168 21 -240 6 -71 15 -170 20 -220 6 -49 12 -130 15 -180 2
-49 7 -130 10 -180 3 -49 11 -164 16 -255 6 -91 13 -203 16 -249 l5 -84 -27 7
c-15 4 -64 21 -109 39 -61 24 -81 37 -83 52 -14 160 -24 302 -28 400 -7 163
-24 420 -35 532 -6 50 -10 133 -10 183 0 50 -4 133 -10 183 -10 98 -28 364
-36 537 -3 58 -9 148 -14 200 -9 88 -23 291 -51 710 -6 91 -15 206 -20 257
-10 107 -11 123 -4 123 3 0 48 -21 99 -47z m5323 -21 c-10 -10 -17 -22 -17
-26 0 -14 -72 -109 -114 -152 -23 -22 -66 -57 -96 -78 -58 -39 -103 -73 -125
-93 -8 -7 -15 -13 -18 -13 -12 0 -360 -241 -365 -252 -2 -4 -8 -8 -13 -8 -9 0
-84 -54 -99 -71 -3 -3 -23 -18 -45 -35 -43 -31 -154 -133 -189 -173 -11 -13
-32 -34 -44 -45 -13 -12 -49 -52 -80 -91 -32 -38 -60 -71 -64 -73 -15 -7 -8
-34 6 -29 12 5 11 -2 -3 -31 -17 -35 -65 -140 -97 -209 -8 -17 -14 -38 -14
-46 0 -9 -4 -19 -10 -22 -5 -3 -10 -17 -10 -30 0 -13 -4 -26 -9 -29 -4 -3 -16
-38 -26 -78 -9 -39 -21 -79 -25 -87 -10 -21 -49 -182 -60 -246 -4 -27 -15 -84
-25 -125 -9 -41 -21 -102 -26 -135 -4 -33 -21 -150 -37 -260 -30 -202 -39
-279 -67 -550 -16 -155 -19 -232 -10 -223 4 3 10 46 15 94 5 49 17 154 25 234
9 80 20 183 25 230 11 104 26 215 47 335 8 50 20 122 27 162 6 39 14 75 19 79
4 4 7 20 7 36 0 33 41 218 71 318 10 36 19 71 19 78 0 18 67 216 90 266 10 23
22 54 25 68 4 15 13 32 21 39 8 6 14 16 14 22 0 18 33 87 42 87 4 0 8 5 8 11
0 14 96 162 134 206 71 82 169 172 261 241 39 29 77 58 85 65 8 6 22 17 30 22
45 28 166 109 170 115 3 3 32 23 65 44 33 21 78 51 100 67 48 34 55 35 55 8 0
-25 18 -60 39 -77 15 -11 14 -13 -2 -23 -9 -5 -29 -22 -45 -36 -15 -14 -47
-39 -72 -56 -25 -17 -49 -35 -55 -40 -5 -4 -71 -54 -145 -109 -132 -100 -158
-121 -269 -223 -202 -186 -304 -350 -351 -565 -4 -19 -12 -53 -18 -75 -28
-108 -34 -286 -29 -950 3 -369 8 -686 12 -706 l7 -36 -169 -41 c-92 -23 -212
-51 -266 -62 -94 -19 -387 -70 -402 -70 -4 0 -5 10 -2 22 3 13 13 95 22 183 9
88 23 202 31 253 8 51 14 115 14 142 0 27 4 51 9 54 4 3 12 51 16 107 4 56 11
111 15 123 5 12 13 62 20 111 6 50 16 108 21 130 6 22 14 72 19 110 4 39 15
102 24 140 20 88 33 143 51 225 23 105 66 264 75 281 5 9 12 34 16 54 4 21 22
76 40 121 19 46 34 91 34 99 0 8 4 15 9 15 5 0 16 18 24 39 15 37 78 141 101
168 28 32 36 43 36 50 1 9 186 191 246 241 21 18 85 63 141 100 224 147 205
136 483 278 52 26 97 51 100 55 3 3 41 26 85 49 44 24 89 51 100 60 11 10 42
30 70 46 27 16 87 57 133 91 45 35 84 63 86 63 2 0 18 14 36 30 35 32 64 42
37 12z m1501 -108 c21 -6 32 -34 12 -34 -5 0 -10 5 -10 10 0 6 -9 10 -19 10
-11 0 -23 5 -26 10 -7 11 9 13 43 4z m-51 -46 c46 -25 61 -38 60 -52 -1 -11 7
-24 19 -31 22 -11 24 -32 28 -247 1 -20 4 -40 9 -44 7 -8 10 -97 3 -105 -2 -2
-6 -210 -9 -462 l-5 -457 -48 -56 c-66 -78 -352 -344 -509 -475 -615 -511
-1298 -889 -2038 -1128 -87 -28 -162 -51 -167 -51 -18 0 -22 50 -28 390 -20
1021 2 1295 122 1540 41 84 53 105 79 134 9 11 17 23 17 26 0 14 74 93 181
195 117 110 167 155 174 155 3 0 21 14 41 32 19 17 85 69 147 115 62 46 119
89 127 96 75 59 101 79 104 76 2 -2 -3 -42 -10 -89 -26 -170 -13 -252 43 -264
32 -7 83 8 95 27 4 7 8 -6 8 -29 0 -47 17 -102 37 -123 10 -9 31 -12 69 -9 41
4 57 1 61 -8 3 -8 20 -18 39 -23 45 -13 91 3 126 43 24 27 108 184 108 201 0
3 11 31 25 60 13 30 27 66 31 79 3 14 12 31 20 37 11 9 14 9 10 -2 -3 -8 -12
-44 -21 -81 -8 -36 -24 -92 -35 -124 -11 -31 -20 -81 -20 -110 0 -45 4 -56 26
-73 15 -12 35 -21 46 -21 50 0 123 67 152 140 10 25 34 80 52 122 19 43 34 82
34 88 0 5 5 10 10 10 6 0 10 6 10 13 0 7 10 23 23 37 30 34 73 100 81 127 7
22 73 83 89 83 36 0 162 83 230 151 36 37 56 49 78 49 16 0 52 11 79 25 27 14
60 25 74 25 14 0 28 5 31 10 10 16 27 12 92 -22z m-1661 -205 c-13 -71 -20
-83 -46 -76 -23 6 -35 41 -25 72 5 17 59 60 76 61 3 0 1 -26 -5 -57z m-2655
-95 c0 -35 2 -135 4 -223 5 -270 29 -2361 30 -2675 l0 -155 -160 0 c-155 1
-424 11 -475 19 -14 2 -59 7 -100 10 -110 10 -234 27 -242 35 -4 4 -3 31 2 61
17 97 39 242 55 360 8 63 22 160 30 215 9 55 20 134 25 175 4 41 16 125 25
185 30 197 34 229 45 335 5 58 13 116 16 130 3 14 10 52 15 85 4 33 13 92 19
130 13 81 37 248 49 350 5 39 16 106 26 150 9 44 19 91 22 105 2 14 8 34 13
45 5 11 14 38 21 60 17 57 56 142 92 200 65 105 216 267 337 360 36 27 67 52
70 55 11 12 65 49 73 50 4 0 7 -28 8 -62z m-5265 -273 c25 -42 45 -78 42 -80
-2 -3 -21 25 -42 60 -21 36 -42 68 -47 71 -9 5 -13 24 -5 24 3 0 26 -34 52
-75z m10240 -320 c-22 -33 -21 -35 14 -35 28 0 30 -2 30 -40 0 -40 0 -40 -39
-40 -37 0 -40 2 -43 30 -3 29 -5 27 -58 -45 -30 -41 -58 -75 -62 -75 -4 0 -8
-4 -8 -10 0 -10 -11 -23 -82 -100 -56 -61 -36 -33 54 76 41 51 103 130 138
178 61 81 91 115 56 61z m-310 -390 c-9 -9 -16 -13 -16 -8 0 12 22 34 28 28 2
-2 -3 -11 -12 -20z m-26 -28 c0 -2 -15 -16 -32 -33 l-33 -29 29 33 c28 30 36
37 36 29z"/>
<path d="M9326 11475 c-9 -23 -8 -24 14 -18 12 3 19 10 17 16 -6 18 -24 19
-31 2z"/>
<path d="M9973 11423 c-20 -8 -15 -23 7 -23 11 0 20 7 20 15 0 15 -6 17 -27 8z"/>
<path d="M8696 11384 c-11 -28 -7 -35 13 -22 10 6 17 18 14 25 -7 18 -20 16
-27 -3z"/>
<path d="M9323 11383 c-7 -2 -13 -18 -13 -34 0 -22 5 -29 19 -29 32 0 51 11
51 29 0 31 -26 47 -57 34z m37 -28 c0 -8 -7 -15 -15 -15 -8 0 -15 7 -15 15 0
8 7 15 15 15 8 0 15 -7 15 -15z"/>
<path d="M9259 11353 c-8 -10 -22 -34 -31 -53 -9 -19 -38 -78 -63 -130 -30
-61 -45 -103 -42 -119 3 -16 -3 -32 -19 -48 -21 -20 -21 -23 -5 -23 26 0 44
25 46 63 1 34 4 42 59 160 20 43 36 83 36 88 0 5 4 9 8 9 8 0 34 61 28 67 -1
2 -9 -5 -17 -14z"/>
<path d="M9956 11334 c-11 -28 -6 -52 11 -58 20 -8 46 21 38 42 -3 8 -5 18 -5
23 0 16 -38 10 -44 -7z m24 -24 c0 -5 -5 -10 -11 -10 -5 0 -7 5 -4 10 3 6 8
10 11 10 2 0 4 -4 4 -10z"/>
<path d="M9890 11307 c0 -7 -10 -23 -22 -37 -52 -58 -128 -182 -128 -209 0
-19 -7 -31 -22 -39 l-23 -11 26 0 c33 -1 49 16 50 54 0 16 8 42 17 56 9 14 41
61 70 104 53 81 60 95 42 95 -5 0 -10 -6 -10 -13z"/>
<path d="M8695 11280 c-8 -25 10 -50 36 -50 15 0 19 7 19 35 0 30 -3 35 -24
35 -16 0 -27 -7 -31 -20z m35 -15 c0 -8 -4 -15 -10 -15 -5 0 -10 7 -10 15 0 8
5 15 10 15 6 0 10 -7 10 -15z"/>
<path d="M9292 11250 c-12 -11 -28 -33 -36 -48 -21 -41 -36 -132 -25 -159 5
-13 6 -23 3 -23 -4 0 1 -11 10 -25 9 -13 16 -29 16 -35 0 -20 66 -70 92 -70
26 0 80 61 99 110 33 87 19 175 -38 237 -39 43 -39 42 5 -47 36 -73 37 -82 20
-159 -15 -66 -68 -125 -101 -115 -41 13 -67 54 -86 134 -12 51 3 119 37 168
39 57 40 66 4 32z"/>
<path d="M8800 11241 c0 -5 4 -11 9 -13 4 -1 20 -21 34 -43 15 -22 42 -62 62
-90 19 -27 35 -61 35 -75 0 -31 17 -50 44 -50 19 0 19 1 -2 21 -12 11 -20 24
-17 30 4 5 -10 33 -30 61 -20 29 -47 69 -60 88 -49 71 -56 80 -65 80 -6 0 -10
-4 -10 -9z"/>
<path d="M9323 11218 c-6 -7 -18 -34 -28 -61 -24 -63 -15 -136 21 -185 l28
-35 27 32 c44 53 48 155 9 226 -19 33 -42 43 -57 23z m57 -132 c0 -70 -10 -96
-35 -96 -29 0 -48 117 -26 158 5 9 12 26 16 37 6 19 7 19 26 -4 15 -18 19 -39
19 -95z"/>
<path d="M9954 11182 c-37 -24 -66 -153 -48 -217 8 -31 41 -49 58 -33 36 37
49 70 49 132 0 85 -27 139 -59 118z m34 -83 c4 -55 -18 -124 -38 -124 -21 0
-21 134 -1 159 22 26 36 14 39 -35z"/>
<path d="M8719 11123 c-10 -11 -14 -46 -14 -114 0 -89 2 -100 24 -123 34 -36
58 -33 76 10 24 59 17 121 -23 199 -24 47 -41 55 -63 28z m49 -40 c25 -49 24
-193 -2 -193 -25 0 -46 57 -46 127 0 38 3 73 7 76 12 13 32 7 41 -10z"/>
<path d="M9642 11118 c-32 -32 7 -80 44 -54 16 12 16 18 6 40 -12 28 -31 33
-50 14z m27 -35 c0 -5 -3 -9 -9 -11 -5 -2 -10 4 -10 13 0 16 16 14 19 -2z"/>
<path d="M9020 11070 c-15 -27 -6 -50 19 -50 28 0 35 30 12 53 -19 19 -19 19
-31 -3z m30 -20 c0 -5 -7 -10 -16 -10 -8 0 -12 5 -9 10 3 6 10 10 16 10 5 0 9
-4 9 -10z"/>
<path d="M8410 11074 c0 -6 7 -19 16 -30 14 -18 14 -18 3 6 -14 31 -19 36 -19
24z"/>
<path d="M10167 11017 c-3 -7 1 -23 7 -35 l12 -23 18 20 c15 17 16 23 6 36
-15 18 -36 19 -43 2z m33 -11 c0 -3 -4 -8 -10 -11 -5 -3 -10 -1 -10 4 0 6 5
11 10 11 6 0 10 -2 10 -4z"/>
<path d="M8554 10926 c-8 -22 3 -49 19 -43 6 2 12 14 12 27 0 27 -22 39 -31
16z"/>
<path d="M9465 10820 c-68 -6 -67 -7 35 -8 71 -1 100 1 90 8 -8 5 -24 9 -35 8
-11 -1 -51 -4 -90 -8z"/>
<path d="M9178 10811 c-110 -16 -38 -29 80 -15 28 4 52 11 52 15 0 10 -61 10
-132 0z"/>
<path d="M9710 10810 c8 -5 56 -9 105 -9 75 1 83 3 50 10 -58 12 -174 11 -155
-1z"/>
<path d="M9328 10776 c-41 -31 -8 -87 40 -70 33 12 40 39 16 65 -20 22 -32 23
-56 5z m47 -36 c0 -8 -10 -16 -22 -18 -18 -3 -23 2 -23 18 0 16 5 21 23 18 12
-2 22 -10 22 -18z"/>
<path d="M10030 10780 c38 -12 109 -12 90 0 -8 5 -37 9 -65 9 -40 -1 -45 -3
-25 -9z"/>
<path d="M8885 10759 c-84 -21 -130 -46 -65 -36 43 7 181 45 188 52 11 10 -45
3 -123 -16z"/>
<path d="M9620 10765 c-21 -25 3 -65 39 -65 29 0 41 14 41 50 0 31 -58 42 -80
15z m58 -22 c-4 -20 -18 -26 -37 -14 -18 12 -5 31 20 31 14 0 19 -6 17 -17z"/>
<path d="M9485 10749 c-10 -15 1 -23 20 -15 9 3 13 10 10 16 -8 13 -22 13 -30
-1z"/>
<path d="M9796 10753 c-12 -12 -6 -33 9 -33 8 0 15 6 15 14 0 17 -14 28 -24
19z"/>
<path d="M9911 10746 c-18 -21 3 -56 34 -56 27 0 48 30 39 54 -8 20 -57 21
-73 2z m44 -26 c-5 -8 -11 -8 -17 -2 -6 6 -7 16 -3 22 5 8 11 8 17 2 6 -6 7
-16 3 -22z"/>
<path d="M9026 10735 c-19 -19 -19 -21 -6 -46 14 -25 52 -24 76 2 14 15 16 24
8 37 -15 23 -58 27 -78 7z m49 -26 c0 -7 -8 -15 -17 -17 -18 -3 -25 18 -11 32
10 10 28 1 28 -15z"/>
<path d="M9185 10741 c-7 -12 12 -24 25 -16 11 7 4 25 -10 25 -5 0 -11 -4 -15
-9z"/>
<path d="M10245 10735 c34 -16 64 -20 50 -6 -6 5 -26 12 -45 15 l-35 6 30 -15z"/>
<path d="M10168 10723 c-36 -9 -9 -73 29 -73 11 0 26 7 33 15 12 15 5 55 -10
55 -5 0 -14 2 -22 4 -7 2 -21 2 -30 -1z m37 -31 c0 -20 -19 -18 -23 2 -3 12 1
17 10 14 7 -3 13 -10 13 -16z"/>
<path d="M8725 10711 c-3 -5 -19 -12 -35 -16 -17 -4 -30 -11 -30 -16 0 -12 -3
-12 53 9 26 10 44 21 41 25 -10 10 -22 9 -29 -2z"/>
<path d="M10060 10710 c0 -5 5 -10 10 -10 6 0 10 5 10 10 0 6 -4 10 -10 10 -5
0 -10 -4 -10 -10z"/>
<path d="M8900 10685 c0 -9 5 -15 10 -13 12 4 11 16 -1 24 -5 3 -9 -2 -9 -11z"/>
<path d="M8757 10672 c-34 -38 -13 -71 37 -58 27 7 39 30 31 57 -8 24 -47 25
-68 1z m46 -8 c9 -10 -4 -34 -19 -34 -8 0 -14 6 -14 13 0 22 19 35 33 21z"/>
<path d="M9390 10670 c-18 -12 130 -12 205 0 40 6 26 8 -70 9 -66 0 -127 -4
-135 -9z"/>
<path d="M9705 10665 c45 -15 205 -20 205 -6 0 8 -151 22 -214 20 -31 -1 -31
-1 9 -14z"/>
<path d="M10290 10660 c0 -5 7 -10 15 -10 8 0 15 5 15 10 0 6 -7 10 -15 10 -8
0 -15 -4 -15 -10z"/>
<path d="M8601 10606 c-16 -19 -10 -51 8 -51 8 0 19 8 25 17 8 14 7 21 -5 33
-14 14 -17 14 -28 1z"/>
<path d="M8530 10551 c0 -6 5 -13 10 -16 6 -3 10 1 10 9 0 9 -4 16 -10 16 -5
0 -10 -4 -10 -9z"/>
<path d="M3037 10593 c-14 -26 -15 -62 -2 -73 11 -9 20 -8 44 9 24 18 30 19
35 6 7 -19 26 -20 26 -1 0 31 -90 82 -103 59z m33 -33 c0 -5 -4 -10 -10 -10
-5 0 -10 5 -10 10 0 6 5 10 10 10 6 0 10 -4 10 -10z"/>
<path d="M3061 10469 c-16 -47 -14 -77 11 -121 23 -41 62 -68 97 -68 15 0 22
9 26 33 4 18 6 37 5 42 -6 27 2 45 19 45 23 0 45 -25 38 -42 -4 -8 -6 -7 -6 5
-1 10 -9 17 -21 17 -15 0 -20 -7 -20 -24 0 -14 4 -27 8 -30 5 -3 7 -19 4 -36
-4 -28 -3 -30 30 -30 21 0 42 -7 52 -19 23 -26 56 -91 56 -113 0 -9 4 -19 9
-22 4 -3 14 -26 21 -51 7 -25 15 -45 19 -45 3 0 5 48 3 107 -3 94 -7 113 -28
145 -13 21 -24 42 -24 47 0 17 -77 87 -111 101 -18 7 -45 23 -59 35 -74 65
-112 72 -129 24z m24 -48 c0 -34 6 -55 19 -70 11 -12 16 -21 12 -21 -17 0 -45
47 -46 77 0 26 8 63 14 63 0 0 1 -22 1 -49z m71 28 c4 -8 -1 -9 -16 -4 -22 7
-23 5 -18 -39 5 -39 3 -45 -8 -35 -17 14 -18 76 -1 82 21 9 36 7 43 -4z m29
-29 c3 -5 1 -10 -4 -10 -6 0 -11 5 -11 10 0 6 2 10 4 10 3 0 8 -4 11 -10z m85
-92 c0 -22 -17 -41 -30 -33 -8 5 -7 12 6 26 20 22 24 23 24 7z m-100 -18 c0
-5 -2 -10 -4 -10 -3 0 -8 5 -11 10 -3 6 -1 10 4 10 6 0 11 -4 11 -10z"/>
<path d="M3180 10490 c0 -5 5 -10 11 -10 5 0 7 5 4 10 -3 6 -8 10 -11 10 -2 0
-4 -4 -4 -10z"/>
<path d="M3460 10409 c0 -26 3 -29 14 -20 8 7 12 21 9 31 -8 31 -23 23 -23
-11z"/>
<path d="M2980 10336 c-14 -38 -25 -246 -12 -246 5 0 49 -39 97 -86 47 -47 88
-84 91 -81 3 2 -9 31 -25 64 -44 85 -57 152 -42 203 10 35 16 40 41 40 33 0
40 17 13 27 -10 4 -35 20 -55 36 -41 33 -68 31 -68 -6 0 -23 33 -67 50 -67 6
0 10 -7 10 -16 0 -12 -6 -15 -27 -10 -17 5 -29 3 -34 -6 -19 -30 -31 10 -27
91 2 44 2 81 0 81 -1 0 -7 -11 -12 -24z m110 -92 c0 -17 -10 -17 -32 0 -19 14
-23 37 -11 50 9 9 43 -31 43 -50z"/>
<path d="M3456 10323 c-10 -61 -7 -103 8 -131 16 -30 38 -82 54 -127 15 -43
35 -200 28 -222 -4 -13 2 -22 21 -30 40 -19 53 -16 53 12 0 16 -6 25 -15 25
-11 0 -14 7 -9 24 3 13 1 34 -6 45 -6 12 -7 21 -2 21 5 0 14 -10 21 -22 9 -17
10 -18 5 -3 -4 11 -9 31 -12 45 -3 14 -11 33 -17 43 -7 10 -11 26 -8 36 3 11
-4 21 -21 29 -30 13 -43 67 -28 111 11 30 6 62 -19 136 -19 54 -44 58 -53 8z
m111 -335 c-3 -8 -6 -5 -6 6 -1 11 2 17 5 13 3 -3 4 -12 1 -19z"/>
<path d="M2540 10223 c1 -36 18 -73 35 -73 4 0 2 7 -5 15 -10 12 -10 21 -2 40
14 31 29 31 59 3 22 -21 23 -21 23 -2 0 24 -48 54 -84 54 -23 0 -26 -4 -26
-37z"/>
<path d="M3203 10233 c-22 -8 -15 -32 7 -26 20 5 26 18 13 26 -5 2 -14 2 -20
0z"/>
<path d="M3260 10215 c-20 -24 -8 -50 22 -47 17 2 27 -3 31 -15 3 -10 15 -43
26 -73 13 -33 21 -76 20 -110 -1 -44 -2 -50 -9 -28 -4 14 -15 39 -23 55 -23
43 -57 122 -57 133 0 5 -8 14 -19 19 -25 14 -37 -16 -39 -91 -1 -50 2 -58 24
-73 18 -11 23 -22 19 -36 -7 -21 5 -25 23 -7 9 9 20 4 47 -22 37 -37 46 -79
21 -99 -11 -9 -19 -5 -37 19 -13 16 -30 30 -36 30 -7 0 -13 5 -13 10 0 6 -13
24 -30 41 -16 17 -32 40 -35 50 -4 11 -10 19 -15 19 -12 0 -40 76 -40 108 0
32 16 53 36 45 22 -8 16 18 -8 38 -31 27 -45 24 -57 -14 -14 -41 10 -127 54
-197 33 -53 170 -190 190 -190 7 0 16 7 19 16 11 28 6 226 -6 263 -29 91 -43
124 -60 147 -22 28 -31 30 -48 9z m24 -157 c8 -14 6 -22 -12 -38 -25 -23 -42
-19 -42 10 0 49 30 65 54 28z"/>
<path d="M2700 10180 c0 -5 7 -10 16 -10 8 0 12 5 9 10 -3 6 -10 10 -16 10 -5
0 -9 -4 -9 -10z"/>
<path d="M2602 10140 c-15 -14 -22 -33 -22 -56 0 -35 24 -94 38 -94 5 0 18 -9
29 -20 18 -16 22 -17 27 -4 8 21 -1 34 -24 34 -22 0 -60 50 -60 79 0 25 36 64
51 55 6 -4 2 -12 -10 -21 -26 -18 -27 -59 -2 -73 18 -9 18 -8 8 20 -9 23 -8
33 1 42 10 10 18 7 37 -17 28 -35 31 -45 10 -45 -8 0 -15 -4 -15 -10 0 -17 29
-11 38 8 11 20 6 40 -16 65 -20 22 -11 22 16 -2 12 -10 25 -36 30 -57 7 -35
11 -39 37 -40 17 0 40 -5 51 -12 28 -15 74 -69 74 -87 0 -7 7 -26 16 -41 15
-28 16 -27 10 41 -3 39 -6 91 -6 118 0 54 -16 72 -94 112 -45 23 -61 20 -31
-5 23 -19 18 -33 -9 -26 -14 3 -28 2 -31 -4 -9 -14 -25 -12 -25 3 0 14 -72 57
-94 57 -7 0 -22 -9 -34 -20z m176 -79 c3 -8 -1 -12 -9 -9 -7 2 -15 10 -17 17
-3 8 1 12 9 9 7 -2 15 -10 17 -17z"/>
<path d="M3530 10155 c0 -16 31 -77 36 -72 12 12 -7 77 -21 77 -8 0 -15 -2
-15 -5z"/>
<path d="M3449 10116 c-12 -12 9 -204 27 -241 38 -79 54 -32 34 95 -7 41 -16
80 -20 85 -4 6 -10 21 -12 34 -3 23 -18 37 -29 27z"/>
<path d="M2533 9960 c-1 -52 1 -102 5 -111 7 -16 150 -129 164 -129 4 0 5 7 2
15 -4 8 -9 15 -13 15 -16 0 -61 99 -61 134 0 20 -4 36 -10 36 -5 0 -10 -9 -10
-20 0 -11 -7 -20 -15 -20 -18 0 -29 40 -20 69 4 12 2 21 -4 21 -6 0 -11 -4
-11 -10 0 -5 -4 -10 -9 -10 -6 0 -12 24 -14 53 -2 29 -4 10 -4 -43z"/>
<path d="M2970 9995 c0 -18 32 -89 43 -93 4 -2 7 -8 7 -14 0 -5 6 -15 13 -23
6 -7 23 -28 37 -46 37 -49 81 -89 91 -83 25 15 -8 105 -61 168 -76 91 -130
128 -130 91z"/>
<path d="M2707 9974 c-9 -10 2 -24 19 -24 8 0 14 7 14 15 0 15 -21 21 -33 9z"/>
<path d="M2773 9951 c-14 -22 -8 -31 23 -31 24 0 45 -21 27 -27 -8 -3 -7 -12
2 -30 17 -32 8 -54 -11 -28 -7 10 -15 22 -16 27 -2 4 -12 10 -23 12 -18 3 -20
-2 -20 -45 0 -43 5 -55 43 -99 54 -62 81 -66 83 -12 1 25 3 29 6 13 8 -41 -5
-71 -31 -71 -14 0 -26 3 -28 8 -1 4 -20 20 -41 35 -45 34 -82 89 -91 135 -5
29 -3 35 15 39 12 4 18 11 15 20 -3 8 -6 17 -6 19 0 2 -13 4 -29 4 -33 0 -47
-25 -35 -62 17 -56 86 -146 136 -180 63 -43 124 -55 121 -23 -17 164 -24 205
-36 235 -32 73 -79 101 -104 61z m97 -120 c5 -20 10 -45 9 -56 0 -11 -7 2 -14
29 -8 27 -18 53 -24 59 -17 17 -13 31 4 17 8 -7 19 -29 25 -49z m-60 -23 c0
-27 -13 -58 -21 -52 -10 6 -12 48 -2 57 10 11 23 8 23 -5z m40 -23 c0 -8 -4
-15 -9 -15 -5 0 -11 7 -15 15 -3 9 0 15 9 15 8 0 15 -7 15 -15z m5 -84 c-6 -6
-45 30 -45 41 0 5 4 7 9 3 5 -3 13 0 17 7 5 8 10 2 16 -17 4 -16 5 -31 3 -34z"/>
<path d="M3406 9954 c-14 -36 -6 -83 15 -94 29 -16 35 -5 21 33 -7 19 -12 43
-12 55 0 26 -15 29 -24 6z"/>
<path d="M2610 9956 c0 -2 7 -7 16 -10 8 -3 12 -2 9 4 -6 10 -25 14 -25 6z"/>
<path d="M2144 9918 c4 -18 7 -41 7 -50 1 -31 17 -29 24 2 7 30 29 41 38 18 4
-10 8 -9 16 2 16 23 14 28 -19 35 -16 4 -30 11 -30 16 0 5 -10 9 -21 9 -19 0
-20 -4 -15 -32z"/>
<path d="M2765 9900 c3 -5 8 -10 11 -10 2 0 4 5 4 10 0 6 -5 10 -11 10 -5 0
-7 -4 -4 -10z"/>
<path d="M3285 9900 c3 -5 11 -10 16 -10 6 0 7 5 4 10 -3 6 -11 10 -16 10 -6
0 -7 -4 -4 -10z"/>
<path d="M3160 9888 c0 -23 34 -108 43 -108 4 0 15 6 23 14 7 8 19 16 26 18 7
3 -5 22 -29 46 -41 42 -63 53 -63 30z"/>
<path d="M2300 9879 c0 -5 5 -7 10 -4 6 3 10 8 10 11 0 2 -4 4 -10 4 -5 0 -10
-5 -10 -11z"/>
<path d="M2973 9807 c7 -103 12 -115 38 -91 13 11 28 15 49 11 16 -4 30 -2 30
3 0 8 -91 134 -112 155 -7 7 -9 -18 -5 -78z"/>
<path d="M2367 9850 c4 -14 0 -20 -12 -20 -14 0 -16 -6 -11 -31 3 -17 6 -38 6
-45 0 -9 11 -14 31 -14 40 0 105 -36 115 -64 13 -37 17 64 4 107 -9 33 -19 42
-63 63 -64 29 -77 30 -70 4z"/>
<path d="M2218 9853 c-10 -2 -18 -8 -18 -13 0 -5 -3 -17 -7 -27 -5 -15 -1 -14
20 6 32 29 70 23 91 -17 13 -22 15 -24 16 -7 0 23 -46 66 -69 64 -9 -1 -24 -3
-33 -6z"/>
<path d="M2234 9815 c-4 -9 -1 -26 5 -38 l11 -22 -6 23 c-4 15 -1 22 10 22 20
0 32 -40 15 -51 -11 -7 -11 -9 2 -9 26 0 32 31 11 59 -23 31 -40 37 -48 16z"/>
<path d="M3402 9803 c2 -22 9 -29 29 -31 14 -2 31 4 39 12 18 22 -4 46 -42 46
-26 0 -29 -3 -26 -27z"/>
<path d="M2935 9735 c8 -65 11 -75 26 -75 13 0 11 38 -4 82 -21 60 -30 57 -22
-7z"/>
<path d="M3235 9771 c-9 -28 5 -51 30 -51 22 0 55 23 55 39 0 32 -75 43 -85
12z"/>
<path d="M2200 9771 c0 -29 52 -71 87 -71 28 0 33 4 33 23 -1 20 -2 20 -11 5
-18 -32 -68 -13 -97 37 -8 13 -11 15 -12 6z"/>
<path d="M2560 9734 c0 -15 72 -130 107 -170 37 -42 93 -56 93 -23 0 26 -37
86 -84 134 -69 70 -116 94 -116 59z"/>
<path d="M2181 9673 c20 -116 31 -136 95 -168 32 -16 61 -32 64 -35 19 -19
113 -60 139 -60 30 0 31 1 31 45 0 43 -24 99 -71 167 -20 28 -100 61 -124 51
-17 -6 -19 -43 -5 -95 11 -38 90 -118 116 -118 8 0 14 -4 14 -10 0 -5 9 -10
20 -10 11 0 20 -4 20 -10 0 -5 -3 -10 -6 -10 -12 0 -140 73 -160 91 -11 11
-25 19 -31 19 -6 0 -22 10 -37 21 -24 19 -27 27 -25 73 3 41 0 52 -14 54 -9 2
-17 12 -17 23 0 10 -4 19 -9 19 -4 0 -4 -21 0 -47z m289 -142 c5 -20 10 -44
10 -53 0 -19 -25 -25 -35 -8 -3 6 1 10 10 10 12 0 14 6 9 28 -8 32 -53 102
-65 102 -5 0 -9 8 -9 18 1 27 68 -55 80 -97z m-120 77 c0 -27 44 -104 68 -117
14 -9 15 -10 1 -11 -16 0 -59 42 -78 78 -14 26 -14 72 -1 72 6 0 10 -10 10
-22z m48 -29 c12 -18 11 -20 -5 -17 -10 2 -19 11 -21 21 -5 23 10 21 26 -4z"/>
<path d="M2340 9710 c0 -6 7 -10 15 -10 8 0 15 2 15 4 0 2 -7 6 -15 10 -8 3
-15 1 -15 -4z"/>
<path d="M2390 9700 c0 -5 4 -10 9 -10 6 0 13 5 16 10 3 6 -1 10 -9 10 -9 0
-16 -4 -16 -10z"/>
<path d="M3012 9689 c-12 -18 -11 -24 1 -37 13 -13 20 -13 46 -2 38 15 40 37
5 50 -35 14 -37 13 -52 -11z"/>
<path d="M3100 9695 c0 -8 7 -15 15 -15 8 0 15 7 15 15 0 8 -7 15 -15 15 -8 0
-15 -7 -15 -15z"/>
<path d="M2440 9666 c0 -24 56 -94 67 -83 7 8 -16 66 -35 90 -21 24 -32 21
-32 -7z"/>
<path d="M2720 9673 c0 -5 12 -21 26 -38 14 -16 30 -37 34 -45 8 -13 11 -12
24 5 22 29 21 31 -30 59 -51 28 -54 30 -54 19z"/>
<path d="M2255 9661 c-3 -5 -1 -12 5 -16 5 -3 10 1 10 9 0 18 -6 21 -15 7z"/>
<path d="M2561 9618 c1 -28 25 -127 31 -134 4 -4 10 1 14 10 3 9 16 16 28 16
38 0 37 11 -11 66 -47 54 -64 65 -62 42z"/>
<path d="M2840 9615 c-18 -22 -8 -50 20 -53 28 -5 50 20 43 48 -6 24 -45 27
-63 5z"/>
<path d="M2246 9601 c-9 -14 2 -35 25 -49 19 -12 20 -11 17 20 -3 32 -29 51
-42 29z"/>
<path d="M1980 9536 c0 -20 5 -26 21 -26 15 0 19 5 15 15 -6 17 2 19 22 7 7
-5 10 -16 7 -24 -4 -9 4 -27 19 -43 22 -24 24 -29 11 -39 -10 -8 -12 -15 -5
-26 8 -12 10 -12 10 -1 0 11 5 10 20 -4 20 -18 20 -17 20 23 0 29 4 42 14 42
21 0 72 -63 86 -107 7 -21 16 -42 21 -47 13 -15 11 -37 -3 -35 -7 1 -20 1 -28
0 -12 -1 -12 -4 3 -12 9 -5 22 -7 28 -4 5 4 16 2 24 -5 11 -9 12 -7 8 12 -3
13 -9 28 -13 33 -4 6 -24 56 -45 113 -22 59 -44 102 -52 102 -7 0 -13 3 -13 8
0 7 -78 29 -137 39 -30 4 -33 2 -33 -21z"/>
<path d="M2534 9520 c3 -14 6 -37 6 -52 0 -16 5 -28 10 -28 15 0 12 33 -6 71
-11 25 -14 27 -10 9z"/>
<path d="M2620 9485 c-10 -12 -10 -18 0 -30 17 -21 47 -19 59 3 19 35 -33 58
-59 27z"/>
<path d="M2250 9445 c0 -38 86 -135 120 -135 24 0 24 -3 1 46 -36 74 -121 136
-121 89z"/>
<path d="M2370 9414 c0 -19 45 -104 54 -104 17 0 67 50 61 61 -11 17 -115 56
-115 43z"/>
<path d="M2515 9400 c-8 -13 4 -32 16 -25 12 8 12 35 0 35 -6 0 -13 -4 -16
-10z"/>
<path d="M2175 9340 c-3 -6 1 -13 10 -16 19 -8 30 0 20 15 -8 14 -22 14 -30 1z"/>
<path d="M2125 9330 c3 -5 11 -10 16 -10 6 0 7 5 4 10 -3 6 -11 10 -16 10 -6
0 -7 -4 -4 -10z"/>
<path d="M2270 9328 c0 -1 7 -21 14 -43 15 -42 37 -55 61 -35 29 24 18 37 -67
78 -5 2 -8 2 -8 0z"/>
<path d="M9175 10298 c-109 -41 -222 -92 -232 -106 -17 -21 -16 -67 1 -81 19
-16 57 -3 201 65 l80 39 123 -2 c144 -2 149 5 46 56 -76 38 -163 49 -219 29z"/>
<path d="M9198 10093 c12 -2 32 -2 45 0 12 2 2 4 -23 4 -25 0 -35 -2 -22 -4z"/>
<path d="M9129 10073 c-13 -16 -12 -17 4 -4 9 7 17 15 17 17 0 8 -8 3 -21 -13z"/>
<path d="M9150 10057 c-29 -8 -46 -18 -48 -30 -4 -19 16 -50 27 -42 4 2 15
-11 24 -30 18 -39 23 -40 77 -24 35 11 37 13 30 43 -4 17 -11 40 -16 50 -7 18
-4 19 47 12 30 -3 63 -7 74 -9 11 -1 20 3 21 8 1 12 -96 34 -151 34 -22 -1
-60 -6 -85 -12z"/>
<path d="M9130 9581 c14 -26 13 -64 -2 -79 -7 -7 -8 -12 -2 -12 6 0 16 12 23
27 9 20 9 33 0 55 -6 15 -16 28 -21 28 -5 0 -4 -9 2 -19z"/>
<path d="M9001 9492 c-39 -19 -54 -44 -22 -35 12 3 21 9 21 14 0 4 17 9 37 11
20 2 38 9 41 16 5 17 -36 14 -77 -6z"/>
<path d="M10154 10225 c-18 -14 -39 -43 -48 -65 -18 -45 -21 -100 -6 -100 6 0
10 7 10 16 0 12 9 14 38 12 33 -3 40 -8 61 -48 l23 -45 -6 35 c-7 43 -47 80
-87 80 -18 0 -29 5 -29 14 0 19 27 46 48 47 11 0 12 2 5 6 -18 7 -16 24 5 39
18 14 62 19 62 7 0 -5 11 -21 25 -38 21 -26 23 -27 18 -8 -7 31 -48 73 -70 73
-10 0 -32 -11 -49 -25z"/>
<path d="M10080 10015 c0 -8 5 -15 10 -15 13 0 13 -26 -2 -66 -6 -17 -8 -40
-4 -50 7 -17 11 -15 39 17 18 20 39 38 47 42 13 5 13 6 0 6 -9 1 -25 -6 -37
-14 -21 -14 -21 -14 -16 25 4 25 1 46 -7 55 -16 19 -30 19 -30 0z"/>
<path d="M3770 9007 c-14 -6 -28 -16 -32 -22 -4 -5 -8 -6 -8 -2 0 13 -92 -54
-133 -96 -20 -22 -35 -42 -32 -45 3 -3 42 11 88 33 45 21 93 43 106 49 32 14
112 11 185 -8 32 -9 63 -13 67 -10 11 6 12 65 1 80 -20 29 -191 45 -242 21z"/>
<path d="M3850 8803 c-39 -13 -81 -35 -76 -40 3 -3 28 4 55 16 54 23 81 27 81
11 0 -5 -7 -10 -15 -10 -8 0 -23 -4 -33 -9 -9 -5 -39 -20 -67 -34 -83 -40
-115 -61 -115 -74 0 -18 14 -16 43 7 26 20 97 54 102 48 8 -10 25 -101 20
-109 -4 -5 2 -9 12 -9 10 0 28 -3 41 -6 17 -5 23 -3 21 7 -1 8 1 40 6 72 6 48
12 60 30 67 23 9 41 28 33 35 -2 3 -15 6 -28 8 -13 2 -26 9 -28 15 -4 12 -54
15 -82 5z"/>
<path d="M2760 8523 c-19 -7 -49 -44 -50 -60 0 -6 13 2 29 18 33 32 57 36 87
14 17 -13 17 -14 2 -15 -9 0 -19 -4 -22 -9 -3 -4 6 -6 19 -3 54 10 76 -49 26
-66 -31 -11 -61 -56 -61 -92 0 -32 35 -60 77 -60 24 0 45 -8 59 -21 12 -12 27
-18 33 -14 19 11 12 37 -15 60 -20 17 -25 29 -22 49 4 17 1 25 -6 23 -14 -5
-21 -67 -7 -67 6 0 11 -4 11 -10 0 -9 -23 -7 -87 6 -18 3 -23 11 -23 37 1 35
13 55 49 75 20 11 25 12 32 1 15 -25 22 1 11 39 -20 66 -92 115 -142 95z"/>
<path d="M4140 8235 c-16 -19 -5 -34 12 -17 7 7 22 12 34 12 13 0 26 5 29 10
10 16 -61 12 -75 -5z"/>
<path d="M11035 8780 c-20 -22 -14 -70 10 -70 42 0 74 70 39 84 -24 9 -29 8
-49 -14z"/>
<path d="M10850 8424 c-10 -26 1 -54 20 -54 17 0 50 39 50 59 0 17 -6 21 -30
21 -24 0 -33 -6 -40 -26z"/>
<path d="M9360 8345 c0 -8 5 -15 10 -15 6 0 10 -6 10 -13 0 -14 33 -57 43 -57
4 0 -8 23 -25 50 -33 54 -38 58 -38 35z"/>
<path d="M10347 8210 c-42 -28 -79 -50 -82 -50 -2 0 -28 -11 -57 -24 -29 -13
-78 -31 -108 -39 -30 -9 -68 -21 -85 -26 -30 -9 -30 -9 -4 -10 32 -1 164 41
237 75 45 20 142 84 177 115 20 19 -4 6 -78 -41z"/>
<path d="M9430 8240 c0 -5 5 -10 11 -10 5 0 7 5 4 10 -3 6 -8 10 -11 10 -2 0
-4 -4 -4 -10z"/>
<path d="M9679 8076 c19 -23 152 -40 223 -29 l63 10 -105 2 c-59 0 -110 5
-115 10 -6 4 -25 11 -44 15 -27 5 -31 4 -22 -8z"/>
<path d="M9038 8220 c-18 -21 -13 -26 11 -11 7 5 12 14 10 20 -3 7 -11 3 -21
-9z"/>
<path d="M10700 8100 c0 -5 4 -10 9 -10 6 0 13 5 16 10 3 6 -1 10 -9 10 -9 0
-16 -4 -16 -10z"/>
<path d="M10550 8035 c0 -8 2 -15 4 -15 2 0 6 7 10 15 3 8 1 15 -4 15 -6 0
-10 -7 -10 -15z"/>
<path d="M10631 8028 c-36 -19 -49 -33 -68 -78 -22 -47 -23 -60 -14 -91 6 -21
27 -51 46 -68 72 -63 180 -32 223 62 24 54 8 131 -35 169 -33 30 -101 32 -152
6z m115 -27 c36 -22 59 -70 50 -107 -4 -14 -22 -42 -41 -61 -29 -30 -41 -35
-81 -36 -62 0 -94 33 -94 97 0 50 23 85 72 109 43 21 56 21 94 -2z"/>
<path d="M10635 7944 c-30 -33 -32 -57 -5 -84 35 -35 98 -18 101 28 6 79 -47
109 -96 56z"/>
<path d="M10490 7890 c0 -19 3 -21 12 -12 9 9 9 15 0 24 -9 9 -12 7 -12 -12z"/>
<path d="M10885 7897 c-4 -10 -5 -21 -1 -24 10 -10 18 4 13 24 -4 17 -4 17
-12 0z"/>
<path d="M10510 7760 c0 -5 7 -10 15 -10 8 0 15 5 15 10 0 6 -7 10 -15 10 -8
0 -15 -4 -15 -10z"/>
<path d="M10780 7720 c0 -5 5 -10 10 -10 6 0 10 5 10 10 0 6 -4 10 -10 10 -5
0 -10 -4 -10 -10z"/>
<path d="M10646 7703 c-11 -11 -6 -23 9 -23 8 0 15 4 15 9 0 13 -16 22 -24 14z"/>
<path d="M9000 8016 c0 -2 7 -7 16 -10 8 -3 12 -2 9 4 -6 10 -25 14 -25 6z"/>
<path d="M8950 7947 c-92 -42 -120 -180 -49 -239 43 -36 83 -43 137 -24 47 17
59 27 85 73 62 111 -58 243 -173 190z m118 -44 c10 -10 25 -33 32 -50 17 -44
-7 -95 -62 -129 -47 -30 -71 -27 -118 13 -30 25 -32 30 -28 75 7 67 49 108
112 108 28 0 51 -6 64 -17z"/>
<path d="M8968 7877 c-43 -17 -53 -87 -14 -112 46 -31 104 16 91 74 -7 35 -40
51 -77 38z"/>
<path d="M8806 7811 c-4 -7 -5 -15 -2 -18 9 -9 19 4 14 18 -4 11 -6 11 -12 0z"/>
<path d="M9182 7804 c2 -11 8 -18 13 -16 15 3 12 25 -3 30 -9 3 -13 -2 -10
-14z"/>
<path d="M8850 7660 c0 -5 5 -10 10 -10 6 0 10 5 10 10 0 6 -4 10 -10 10 -5 0
-10 -4 -10 -10z"/>
<path d="M9110 7660 c0 -5 5 -10 10 -10 6 0 10 5 10 10 0 6 -4 10 -10 10 -5 0
-10 -4 -10 -10z"/>
<path d="M8985 7610 c4 -6 11 -8 16 -5 14 9 11 15 -7 15 -8 0 -12 -5 -9 -10z"/>
<path d="M8702 7507 c-81 -102 -305 -336 -418 -437 -45 -40 -72 -76 -38 -50
39 30 80 68 208 196 134 133 157 159 236 254 25 30 48 57 53 58 4 2 7 8 7 13
0 18 -16 7 -48 -34z"/>
<path d="M8775 7343 c-16 -20 -38 -50 -49 -67 l-18 -31 27 25 c32 30 89 110
78 110 -4 0 -21 -17 -38 -37z"/>
<path d="M8605 7143 c-14 -16 -33 -36 -42 -45 -9 -10 -14 -20 -11 -23 5 -5 66
57 82 83 13 21 -2 13 -29 -15z"/>
<path d="M8290 7001 c-17 -33 -12 -51 15 -51 26 0 50 32 41 56 -8 20 -44 17
-56 -5z"/>
<path d="M8420 6960 c0 -5 5 -10 10 -10 6 0 10 5 10 10 0 6 -4 10 -10 10 -5 0
-10 -4 -10 -10z"/>
<path d="M8377 6923 c-4 -3 -7 -11 -7 -17 0 -6 5 -5 12 2 6 6 9 14 7 17 -3 3
-9 2 -12 -2z"/>
<path d="M8338 6893 c-1 -5 -31 -30 -65 -58 -35 -27 -58 -51 -53 -53 5 -2 24
10 42 27 18 17 48 41 65 54 32 22 42 37 24 37 -5 0 -11 -3 -13 -7z"/>
<path d="M8063 6813 c-17 -6 -16 -28 2 -43 19 -16 45 3 45 31 0 19 -20 24 -47
12z m27 -13 c0 -5 -5 -10 -11 -10 -5 0 -7 5 -4 10 3 6 8 10 11 10 2 0 4 -4 4
-10z"/>
<path d="M8120 6722 c0 -4 -16 -16 -35 -26 -19 -11 -35 -23 -35 -28 0 -4 -6
-8 -13 -8 -7 0 -24 -11 -39 -25 -15 -14 -30 -25 -33 -25 -4 0 -57 -35 -132
-89 -12 -9 -23 -19 -23 -23 0 -6 136 81 180 115 8 7 41 30 73 51 63 44 87 66
68 66 -6 0 -11 -3 -11 -8z"/>
<path d="M7873 6665 c-17 -19 -17 -45 0 -45 19 0 37 21 37 42 0 21 -20 23 -37
3z"/>
<path d="M10876 7404 c-12 -30 -6 -53 16 -65 18 -10 24 -8 40 10 16 21 16 24
2 47 -18 27 -49 32 -58 8z"/>
<path d="M11060 7065 c-19 -23 5 -65 36 -65 32 0 45 47 19 67 -24 17 -40 17
-55 -2z m30 -15 c0 -5 -4 -10 -10 -10 -5 0 -10 5 -10 10 0 6 5 10 10 10 6 0
10 -4 10 -10z"/>
<path d="M11070 6826 c0 -2 7 -9 15 -16 13 -11 14 -10 9 4 -5 14 -24 23 -24
12z"/>
<path d="M11114 6765 c10 -16 31 -46 47 -65 l29 -35 -17 32 c-10 18 -21 33
-25 33 -5 0 -8 5 -8 10 0 6 -10 21 -21 33 l-22 22 17 -30z"/>
<path d="M11260 6752 c0 -32 16 -52 41 -52 25 0 42 26 35 55 -5 21 -12 25 -41
25 -32 0 -35 -3 -35 -28z m40 4 c0 -3 -4 -8 -10 -11 -5 -3 -10 -1 -10 4 0 6 5
11 10 11 6 0 10 -2 10 -4z"/>
<path d="M11190 6650 c0 -5 5 -10 11 -10 5 0 7 5 4 10 -3 6 -8 10 -11 10 -2 0
-4 -4 -4 -10z"/>
<path d="M11237 6595 c3 -10 15 -28 24 -40 10 -11 25 -29 34 -40 14 -18 14
-16 0 10 -23 41 -68 95 -58 70z"/>
<path d="M11320 6485 c0 -20 257 -315 274 -315 4 0 1 6 -6 14 -54 53 -248 287
-248 298 0 4 -4 8 -10 8 -5 0 -10 -2 -10 -5z"/>
<path d="M11524 6443 c-13 -21 0 -59 23 -67 39 -15 71 42 41 72 -18 18 -51 15
-64 -5z m36 -12 c0 -6 -4 -13 -10 -16 -5 -3 -10 1 -10 9 0 9 5 16 10 16 6 0
10 -4 10 -9z"/>
<path d="M11631 6123 c18 -21 35 -40 37 -42 1 -2 2 0 2 6 0 11 -56 73 -67 73
-4 0 9 -17 28 -37z"/>
<path d="M11807 6148 c-21 -11 -22 -51 -2 -68 23 -19 65 -4 65 23 0 40 -32 63
-63 45z"/>
<path d="M11750 6001 c0 -5 5 -13 10 -16 6 -3 10 -2 10 4 0 5 -4 13 -10 16 -5
3 -10 2 -10 -4z"/>
<path d="M11780 5973 c0 -13 29 -38 35 -31 3 3 -4 13 -15 23 -11 10 -20 13
-20 8z"/>
<path d="M12034 5885 c-8 -33 12 -57 45 -53 50 6 36 78 -15 78 -17 0 -25 -7
-30 -25z"/>
<path d="M12290 5599 c-16 -28 12 -72 43 -67 29 4 37 56 11 75 -25 18 -42 16
-54 -8z"/>
<path d="M12160 5575 c19 -19 36 -35 39 -35 3 0 -10 16 -29 35 -19 19 -36 35
-39 35 -3 0 10 -16 29 -35z"/>
<path d="M12270 5446 c0 -12 65 -95 74 -96 5 0 0 10 -12 23 -12 13 -22 28 -22
34 0 5 -9 18 -20 28 -11 10 -20 15 -20 11z"/>
<path d="M12410 5247 c0 -14 31 -69 36 -64 3 3 -4 20 -15 38 -12 19 -21 30
-21 26z"/>
<path d="M3101 1445 c0 -11 -4 -31 -7 -45 -5 -19 -4 -22 5 -14 7 6 11 26 8 45
-2 19 -5 25 -6 14z"/>
<path d="M9680 4771 c-79 -20 -131 -98 -132 -196 0 -97 40 -167 116 -199 100
-42 206 6 245 110 29 75 27 127 -6 183 -55 94 -126 127 -223 102z m43 -33 c3
-10 7 -10 20 1 24 19 64 6 103 -36 35 -37 67 -121 52 -137 -4 -6 -8 -26 -8
-45 0 -48 -12 -65 -40 -56 -17 5 -21 3 -20 -12 4 -36 -1 -42 -41 -54 -34 -11
-42 -10 -49 2 -7 11 -12 11 -22 1 -17 -17 -28 -15 -66 8 -25 15 -31 24 -23 33
6 8 6 18 1 27 -7 10 -10 11 -10 3 0 -22 -19 -14 -33 15 -21 41 -14 148 12 183
12 16 21 32 21 37 0 12 59 41 82 42 9 0 18 -6 21 -12z"/>
<path d="M9681 4687 c-41 -21 -61 -58 -62 -113 -2 -62 19 -95 73 -119 30 -14
42 -15 71 -6 45 15 63 36 78 93 11 41 11 52 -4 83 -30 62 -101 91 -156 62z
m109 -36 c37 -37 46 -73 30 -122 -19 -57 -90 -88 -131 -56 -64 50 -67 147 -6
186 44 28 74 26 107 -8z"/>
<path d="M9687 4612 c-36 -40 -9 -102 45 -102 47 0 73 54 48 101 -14 25 -71
26 -93 1z m73 -42 c0 -5 -4 -10 -10 -10 -5 0 -10 5 -10 10 0 6 5 10 10 10 6 0
10 -4 10 -10z"/>
<path d="M9600 4654 c0 -8 5 -12 10 -9 6 3 10 10 10 16 0 5 -4 9 -10 9 -5 0
-10 -7 -10 -16z"/>
<path d="M5978 4333 c-10 -2 -18 -9 -18 -14 0 -5 -6 -9 -13 -9 -34 0 -87 -107
-87 -175 0 -109 73 -185 176 -185 118 0 218 137 186 256 -12 46 -48 104 -65
104 -4 0 -15 7 -23 15 -15 15 -113 20 -156 8z m149 -43 c37 -29 54 -67 55
-120 0 -97 -60 -170 -141 -170 -71 0 -110 31 -130 103 -14 48 -11 67 22 136
31 63 142 92 194 51z"/>
<path d="M8960 3675 c-7 -8 -37 -27 -69 -42 -31 -15 -58 -30 -61 -33 -16 -17
-288 -150 -307 -150 -4 0 -14 -6 -22 -14 -9 -7 -50 -26 -91 -41 -41 -16 -79
-32 -85 -35 -5 -4 -37 -15 -70 -26 -63 -20 -158 -64 -139 -64 16 0 189 64 271
101 24 10 46 19 49 19 43 0 526 258 538 288 7 16 1 15 -14 -3z"/>
<path d="M8078 3263 c7 -3 16 -2 19 1 4 3 -2 6 -13 5 -11 0 -14 -3 -6 -6z"/>
<path d="M8103 2556 c-29 -46 -53 -86 -53 -89 0 -3 -16 -33 -35 -67 -19 -34
-35 -66 -35 -71 0 -5 -11 -32 -25 -61 -14 -28 -25 -57 -25 -65 0 -7 -6 -27
-14 -45 -8 -18 -20 -53 -26 -78 -7 -25 -19 -63 -26 -85 -15 -49 -41 -163 -59
-265 -8 -41 -21 -109 -29 -150 -30 -148 -45 -257 -50 -360 l-5 -105 14 105
c13 106 28 197 44 280 4 25 14 77 20 115 19 107 61 308 71 330 4 11 13 40 20
65 6 25 21 72 32 105 11 33 24 79 30 103 5 23 14 42 19 42 5 0 9 6 9 14 0 8
16 45 35 83 19 37 35 72 35 77 0 5 11 24 25 42 14 18 25 36 25 39 0 4 16 29
35 55 34 46 43 71 28 70 -5 -1 -32 -38 -60 -84z"/>
</g>
</svg>
