<?xml version="1.0" standalone="no"?>
<!DOCTYPE svg PUBLIC "-//W3C//DTD SVG 20010904//EN"
 "http://www.w3.org/TR/2001/REC-SVG-20010904/DTD/svg10.dtd">
<svg version="1.0" xmlns="http://www.w3.org/2000/svg"
 width="1295.000000pt" height="1294.000000pt" viewBox="0 0 1295.000000 1294.000000"
 preserveAspectRatio="xMidYMid meet">
<metadata>
Created by potrace 1.16, written by Peter Selinger 2001-2019
</metadata>
<g transform="translate(0.000000,1294.000000) scale(0.100000,-0.100000)"
fill="#000000" stroke="none">
<path d="M0 6470 l0 -6470 6475 0 6475 0 0 6470 0 6470 -6475 0 -6475 0 0
-6470z m6970 6097 c14 -3 61 -8 105 -11 592 -47 1246 -212 1865 -471 160 -67
528 -255 695 -355 345 -206 729 -488 969 -712 l58 -54 -51 -119 c-88 -202
-315 -615 -466 -850 -198 -307 -386 -572 -497 -699 l-34 -39 -27 45 c-57 98
-144 188 -181 188 -22 0 8 -92 82 -252 122 -265 152 -352 186 -537 21 -108 21
-345 1 -493 -20 -148 -47 -298 -54 -298 -3 0 -17 28 -30 63 -28 73 -99 197
-149 258 -92 114 -246 249 -371 328 -127 79 -185 106 -203 95 -5 -4 5 -22 23
-40 20 -21 29 -37 23 -43 -29 -27 -173 -125 -259 -178 -391 -237 -789 -352
-1386 -399 l-86 -7 -6 54 c-4 30 -7 181 -7 337 0 275 0 282 20 282 13 0 20 7
20 19 0 13 9 20 31 23 25 4 32 1 40 -19 8 -21 15 -23 69 -23 55 0 61 2 70 25
13 34 39 31 53 -8 5 -14 16 -18 49 -15 36 3 44 7 46 26 5 32 55 28 60 -5 3
-19 10 -23 42 -23 32 0 39 4 42 23 3 23 47 39 49 18 1 -6 2 -17 3 -23 0 -7 18
-14 39 -16 32 -3 38 0 47 22 13 35 47 35 56 0 6 -22 11 -25 43 -22 29 2 37 8
39 26 2 16 10 22 27 22 17 0 25 -6 27 -22 2 -19 10 -24 40 -26 33 -3 38 0 44
22 9 35 61 38 66 4 2 -18 10 -24 40 -26 32 -3 37 0 40 20 5 34 55 39 60 6 3
-20 8 -23 48 -22 39 0 45 3 48 22 2 16 10 22 27 22 13 0 27 5 30 10 4 6 -8 10
-29 10 -28 0 -35 -4 -38 -22 -2 -12 -9 -23 -15 -26 -10 -3 -13 23 -13 107 l0
111 125 0 124 0 -6 -67 c-4 -51 -10 -72 -24 -82 -11 -7 -19 -24 -19 -37 0 -21
-5 -24 -35 -24 -24 0 -35 5 -35 15 0 8 -4 15 -10 15 -5 0 -10 -11 -10 -25 0
-23 4 -25 43 -25 45 0 67 13 67 40 0 12 8 15 35 12 26 -3 35 -9 35 -23 0 -26
15 -32 70 -24 46 6 50 9 50 35 0 25 15 40 40 40 5 0 12 -16 16 -35 l6 -36 57
3 c55 3 56 3 59 35 3 26 9 34 30 39 46 10 48 12 12 13 -44 1 -57 -7 -61 -39
-3 -21 -9 -25 -39 -25 -33 0 -35 1 -32 33 4 51 -12 69 -103 113 -47 22 -87 45
-91 50 -3 5 -9 9 -15 9 -22 0 38 -44 108 -78 86 -42 103 -62 51 -62 -40 0 -58
-15 -58 -47 0 -13 -4 -23 -9 -23 -5 0 -22 -3 -39 -6 -27 -6 -31 -3 -37 25 -5
22 -12 31 -27 31 -18 0 -19 6 -16 83 l3 82 -132 -4 -133 -3 0 146 c0 110 -3
146 -12 146 -7 0 -20 17 -29 38 -20 48 -81 89 -100 66 -6 -8 -17 -14 -23 -14
-7 0 -25 -22 -41 -50 -29 -47 -45 -62 -45 -40 0 6 -15 10 -34 10 -29 0 -34 4
-39 30 -4 17 -18 36 -34 46 -15 10 -36 27 -45 38 -16 19 -18 19 -18 3 0 -9
-11 -22 -25 -29 -13 -6 -33 -30 -45 -54 -11 -24 -25 -44 -30 -44 -6 0 -10 -47
-10 -120 0 -66 -3 -120 -8 -120 -4 0 -38 6 -75 14 -44 9 -78 11 -98 6 -27 -8
-31 -6 -54 30 -27 43 -61 65 -119 75 -25 5 -40 14 -43 26 -7 25 -23 24 -23 0
0 -13 -10 -21 -34 -25 -44 -8 -79 -37 -100 -81 -13 -26 -23 -35 -41 -35 -24 0
-25 -3 -25 -64 0 -72 -8 -85 -34 -55 -9 12 -24 18 -32 15 -11 -4 -14 4 -14 32
0 20 -3 111 -6 202 -7 192 -19 775 -27 1240 l-6 324 42 39 c44 41 91 77 101
77 3 0 5 -59 4 -132 -1 -101 1 -133 11 -136 30 -10 51 -43 51 -80 0 -21 5 -63
10 -93 8 -44 7 -63 -4 -90 -20 -48 -31 -145 -17 -153 6 -4 11 -3 11 1 0 5 6
18 14 29 15 19 15 19 30 -1 17 -23 21 -65 6 -65 -5 0 -10 -11 -10 -25 0 -20 5
-25 26 -25 26 0 84 51 84 74 0 6 7 22 16 35 12 17 14 28 6 44 -42 90 -49 338
-11 373 22 20 24 37 7 64 -10 15 -10 22 0 32 17 17 15 43 -4 59 -14 11 -15 33
-10 164 3 82 9 178 12 212 4 46 2 71 -10 94 -15 31 -15 34 4 54 11 12 20 26
20 32 0 6 6 16 14 22 18 15 32 -8 42 -68 4 -22 10 -41 15 -41 16 0 21 42 8 72
-12 28 -11 33 11 50 18 14 25 16 31 6 9 -14 29 30 29 65 0 14 21 40 56 72 l57
50 2 75 c1 85 -7 120 -30 120 -9 0 -27 13 -40 28 -32 38 -107 67 -134 53 -11
-6 -28 -11 -38 -11 -10 0 -40 -16 -67 -35 -27 -19 -55 -35 -63 -35 -7 0 -13
-4 -13 -10 0 -13 -85 -70 -104 -70 -9 0 -16 -5 -16 -11 0 -7 -8 -18 -17 -25
-15 -11 -16 -15 -4 -23 11 -7 9 -10 -7 -15 -11 -4 -22 -17 -24 -29 -2 -18 -10
-23 -47 -25 -24 -2 -48 1 -53 6 -5 5 -13 112 -18 238 -5 126 -13 249 -19 274
-5 25 -14 97 -20 161 -14 148 -21 185 -32 167 -5 -7 -9 -33 -9 -58 0 -25 -10
-119 -22 -210 -13 -105 -22 -244 -25 -383 l-4 -217 -37 -28 c-51 -38 -62 -49
-62 -63 0 -11 -70 -136 -92 -164 -4 -5 -37 -45 -73 -88 -53 -65 -65 -85 -65
-114 0 -22 -7 -41 -17 -48 -13 -10 -17 -30 -19 -85 -1 -55 -6 -76 -18 -85 -9
-7 -16 -17 -16 -22 0 -11 -128 -225 -140 -233 -4 -3 -20 -34 -36 -70 -15 -36
-41 -86 -56 -111 -15 -25 -28 -51 -28 -58 0 -6 -3 -11 -7 -11 -5 0 -19 -23
-33 -51 -13 -28 -30 -55 -37 -61 -7 -6 -13 -18 -13 -27 0 -9 -4 -21 -9 -27
-12 -13 -61 -165 -61 -189 0 -17 3 -16 25 10 l24 30 1 -72 c0 -66 12 -102 23
-71 12 35 13 -8 2 -107 -18 -159 -25 -194 -42 -204 -10 -5 -16 -21 -15 -42 0
-19 -6 -44 -14 -56 -7 -12 -14 -37 -14 -55 0 -19 -13 -58 -30 -88 -16 -30 -33
-62 -36 -70 -13 -28 -38 -52 -71 -65 -33 -14 -51 -50 -39 -81 5 -12 14 -15 39
-10 17 4 58 10 91 14 60 8 65 12 98 71 9 17 25 31 34 31 9 0 32 11 51 26 28
21 33 31 33 68 0 23 -5 47 -11 53 -9 9 -8 16 5 28 9 9 15 29 14 45 -1 15 4 35
11 44 11 14 12 21 2 40 -11 20 -9 29 15 67 15 24 30 46 34 49 3 3 16 26 28 53
35 74 45 61 37 -45 -4 -51 -12 -99 -18 -106 -10 -13 -15 -36 -32 -152 -4 -25
-13 -58 -20 -75 -7 -16 -25 -57 -39 -90 -15 -33 -41 -72 -58 -86 -21 -17 -33
-38 -37 -65 -5 -34 -10 -39 -36 -42 -17 -1 -45 -5 -62 -8 l-33 -5 0 -114 0
-115 -50 0 c-47 0 -50 -1 -50 -26 0 -16 -5 -24 -12 -21 -9 3 -13 30 -12 90 1
84 0 87 -22 87 -13 0 -25 4 -28 9 -4 5 -25 12 -49 16 -23 4 -50 12 -60 17 -13
7 -28 6 -48 -3 -22 -8 -33 -9 -41 -1 -7 7 -16 7 -28 0 -33 -21 -48 -3 -55 66
-4 36 -4 81 -1 101 6 31 4 35 -14 35 -15 0 -27 14 -45 53 -25 51 -67 107 -81
107 -4 0 -14 9 -23 19 -18 21 -84 51 -111 51 -11 0 -20 11 -26 33 l-8 32 -3
-30 c-3 -27 -10 -33 -48 -44 -63 -19 -117 -69 -139 -130 -13 -37 -23 -51 -37
-51 -20 0 -27 -34 -9 -45 6 -3 10 -34 10 -69 l0 -63 -92 -7 c-50 -3 -132 -6
-183 -6 l-92 0 -54 58 c-165 177 -240 267 -386 467 -357 489 -657 1096 -813
1646 -75 264 -133 610 -108 635 7 7 85 52 173 100 583 319 1239 547 1902 658
193 33 449 64 593 72 63 4 117 8 120 11 6 6 761 -3 790 -10z m-3675 -1187 c29
-150 98 -394 161 -568 239 -664 675 -1385 1104 -1827 262 -270 352 -346 630
-532 264 -176 619 -354 875 -439 307 -100 522 -141 825 -154 118 -5 234 -12
257 -15 42 -6 237 6 433 26 200 21 538 106 745 189 183 72 441 221 624 358
l74 56 136 -140 c201 -206 314 -384 361 -570 29 -113 45 -124 111 -80 61 42
113 186 165 461 26 135 29 170 28 355 0 196 -2 210 -31 321 -17 64 -49 161
-71 215 l-39 99 57 70 c104 128 242 318 347 477 57 87 103 160 103 163 0 2 15
28 34 57 170 266 398 714 496 972 l11 30 105 -105 c679 -671 1189 -1482 1494
-2374 161 -472 255 -916 306 -1435 25 -255 24 -971 0 -1130 -2 -14 -7 -59 -11
-100 -3 -41 -17 -149 -31 -240 -78 -531 -224 -1044 -436 -1535 -113 -263 -387
-777 -443 -835 -13 -12 -15 -10 -15 17 0 18 -9 103 -21 190 -11 87 -24 190
-29 228 -5 39 -14 99 -20 135 -6 36 -15 95 -20 133 -26 182 -39 261 -60 362
-6 28 -15 73 -19 100 -5 28 -14 70 -21 95 -6 25 -15 65 -20 90 -5 25 -18 79
-30 120 -12 41 -26 95 -31 120 -5 25 -15 68 -23 95 -24 84 -66 228 -78 270 -6
22 -15 45 -18 50 -4 6 -10 21 -13 35 -3 14 -21 70 -40 125 -41 117 -78 263
-107 430 -21 121 -115 515 -130 544 -4 9 -13 41 -20 71 -31 142 -96 299 -165
397 -40 57 -192 200 -250 235 -156 93 -329 133 -585 133 -163 0 -205 -9 -271
-56 -22 -15 -44 -19 -111 -19 -75 0 -89 -3 -130 -29 -52 -33 -85 -76 -94 -120
-4 -17 -14 -33 -23 -36 -23 -7 -93 -76 -117 -117 -22 -36 -49 -152 -39 -167 3
-5 -2 -38 -11 -73 -9 -35 -19 -99 -23 -143 -7 -90 -17 -108 -113 -211 -91 -96
-104 -113 -116 -152 -10 -31 -8 -40 9 -69 11 -18 24 -33 29 -33 18 0 18 -34 0
-70 -25 -49 -25 -50 5 -94 23 -34 24 -41 14 -76 -10 -31 -9 -44 5 -70 17 -35
21 -70 9 -70 -12 0 -33 -51 -40 -96 -13 -97 67 -170 223 -204 l62 -14 6 -55
c3 -31 8 -72 12 -92 4 -25 0 -49 -14 -80 -31 -68 -42 -108 -42 -150 0 -34 -5
-42 -40 -64 -22 -14 -44 -25 -50 -25 -5 0 -10 -4 -10 -8 0 -5 -19 -19 -41 -31
-62 -35 -164 -136 -225 -222 -30 -42 -54 -82 -54 -87 0 -6 -4 -12 -8 -14 -10
-4 -162 -311 -162 -327 0 -6 -4 -11 -10 -11 -5 0 -10 -5 -10 -10 0 -10 -78
-140 -90 -150 -3 -3 -16 -22 -29 -43 -40 -66 -66 -46 -81 64 -9 68 -22 132
-65 314 -20 87 -31 215 -19 223 15 11 79 114 107 172 46 96 58 142 64 247 5
84 2 113 -12 160 -18 56 -22 145 -13 265 4 66 -25 93 -99 92 -29 0 -58 -5 -65
-12 -7 -7 -17 -12 -23 -12 -10 0 -29 86 -50 220 -30 206 -43 235 -112 271 -44
23 -45 23 -79 4 -50 -27 -60 -55 -68 -175 -3 -58 -11 -159 -17 -225 -12 -112
-14 -120 -40 -143 -16 -13 -38 -40 -49 -60 -12 -20 -36 -48 -55 -62 -19 -14
-44 -42 -57 -63 -13 -21 -38 -53 -55 -70 -44 -43 -76 -136 -69 -197 23 -198
43 -276 102 -415 l39 -90 3 -432 c2 -259 -1 -433 -6 -433 -18 0 -82 -211 -102
-340 -10 -57 -20 -122 -36 -225 -19 -122 -25 -214 -30 -455 -5 -183 -3 -312 5
-385 12 -116 43 -222 73 -255 10 -10 18 -22 18 -25 0 -13 88 -141 116 -169 36
-36 99 -76 119 -76 8 0 15 -4 15 -8 0 -14 138 -53 208 -59 94 -7 196 14 300
64 34 17 62 29 62 27 0 -21 -35 -158 -58 -224 -59 -172 -79 -236 -107 -350
-51 -205 -76 -330 -82 -402 -3 -31 -11 -62 -18 -68 -16 -13 -363 -102 -527
-134 -428 -85 -756 -118 -1173 -120 -308 -1 -476 6 -695 29 -286 30 -605 85
-841 145 l-47 12 -11 74 c-6 41 -11 91 -11 111 0 118 -73 762 -106 941 -4 21
-2 32 5 32 6 0 30 8 54 19 50 22 117 41 144 41 11 0 32 9 46 20 32 26 53 122
61 280 6 129 46 369 86 515 6 22 18 76 26 120 9 44 19 98 24 120 4 22 17 94
30 160 12 66 26 143 31 170 31 164 42 259 46 420 5 195 -9 431 -33 535 -8 36
-21 99 -29 140 -7 41 -20 95 -28 120 -36 111 -57 187 -57 208 0 12 -3 22 -8
22 -4 0 -13 30 -20 66 -7 37 -16 72 -20 78 -7 11 -39 121 -49 166 -6 29 -34
129 -68 245 -14 44 -34 112 -45 150 -67 223 -160 497 -205 600 -8 17 -23 55
-35 85 -11 30 -28 71 -37 90 -8 19 -22 51 -30 70 -46 108 -106 200 -132 200
-4 0 -16 8 -27 18 -38 35 -162 112 -274 170 -83 43 -115 65 -116 78 -1 11 -4
40 -8 66 -5 35 -3 49 9 61 8 9 15 22 15 31 0 8 4 18 10 21 21 13 40 74 43 132
2 56 -1 64 -31 102 -31 39 -33 44 -22 77 7 20 10 61 8 92 -4 40 0 68 13 97 26
61 32 130 19 259 l-10 118 33 62 c31 56 35 71 41 174 6 112 7 113 41 148 34
34 35 36 36 122 1 115 -1 150 -11 192 -5 19 -17 64 -25 100 -9 36 -27 99 -41
140 -39 120 -63 253 -70 399 -4 75 -11 145 -17 156 -5 11 -31 41 -57 66 -50
49 -138 89 -235 109 -134 27 -169 31 -290 31 -135 -1 -172 -6 -340 -48 -143
-35 -151 -38 -240 -71 -229 -85 -555 -308 -606 -414 -47 -96 -47 -127 -2 -396
l25 -154 -22 -59 c-19 -49 -21 -64 -11 -85 14 -32 14 -59 -1 -101 -10 -28 -9
-38 4 -61 13 -22 14 -36 6 -78 -8 -43 -7 -58 7 -88 17 -36 17 -37 -9 -74 -18
-26 -26 -51 -26 -80 0 -38 -3 -43 -39 -62 -57 -28 -99 -94 -107 -166 -9 -74
-19 -91 -83 -150 -29 -26 -58 -62 -66 -80 -24 -59 -36 -137 -26 -172 9 -31 7
-37 -25 -70 -48 -49 -74 -103 -74 -151 l0 -39 -137 -60 c-76 -33 -183 -79
-238 -103 -241 -104 -450 -230 -552 -336 -29 -29 -53 -57 -53 -61 0 -5 -8 -17
-19 -28 -26 -29 -74 -117 -122 -226 -22 -51 -47 -106 -54 -123 -8 -16 -28 -66
-45 -110 -17 -44 -34 -89 -39 -100 -5 -11 -16 -42 -26 -70 -9 -27 -20 -59 -25
-70 -8 -19 -21 -57 -26 -80 -2 -5 -10 -37 -19 -70 -26 -95 -87 -327 -94 -360
l-7 -29 -11 39 c-22 72 -82 357 -107 510 -62 369 -81 630 -80 1065 2 722 121
1393 365 2066 442 1217 1279 2282 2367 3011 l157 105 13 -74 c7 -40 24 -129
37 -198z m3662 -1192 c-4 -29 -9 -350 -12 -713 -6 -677 -10 -805 -26 -805 -5
0 -9 11 -9 25 0 23 -4 25 -40 25 l-40 0 0 41 c0 77 -4 79 -145 79 -93 0 -125
-3 -125 -12 0 -10 19 -12 72 -10 40 2 96 1 125 -3 l53 -6 0 -70 c0 -67 -1 -70
-22 -67 -15 2 -24 11 -26 26 -3 20 -8 23 -45 20 -35 -2 -43 -7 -45 -25 -2 -17
-10 -23 -27 -23 -17 0 -25 6 -27 23 -3 20 -8 22 -73 22 -65 0 -70 -2 -73 -22
-2 -17 -10 -23 -27 -23 -17 0 -25 6 -27 23 -3 19 -10 22 -50 25 -46 3 -48 2
-48 -22 0 -22 -4 -26 -30 -26 -16 0 -29 3 -29 8 6 37 -1 43 -48 40 -41 -3 -48
-6 -51 -25 -2 -15 -10 -23 -23 -23 -18 0 -19 8 -19 119 l0 118 68 5 c118 8
351 1 366 -11 11 -9 15 -8 20 4 4 10 -2 19 -18 25 -13 5 -28 21 -34 37 -5 15
-19 38 -31 50 -19 20 -20 24 -6 56 9 22 23 37 39 41 31 8 41 39 33 104 -5 48
9 148 25 168 5 7 4 22 -3 36 -9 22 -6 37 25 103 20 43 36 83 36 90 0 7 8 27
17 46 l17 34 12 -30 c7 -17 14 -37 14 -45 1 -8 14 10 30 40 25 48 29 51 30 28
0 -38 16 -35 38 8 l19 36 13 -31 c7 -17 16 -31 21 -31 4 0 10 60 12 133 2 72
10 161 16 197 15 85 63 240 75 240 5 0 6 -24 3 -52z m-3177 -988 c184 -29 253
-52 307 -104 l43 -41 10 -175 c6 -96 13 -190 16 -207 7 -39 2 -40 -61 -13 -26
11 -55 20 -65 20 -13 0 -26 15 -40 48 -58 131 -186 173 -282 94 -28 -24 -79
-99 -87 -129 -6 -22 -13 -25 -60 -28 -74 -5 -281 -66 -426 -125 -11 -4 -51
-20 -90 -35 -102 -39 -267 -128 -372 -201 -50 -35 -96 -64 -101 -64 -5 0 -13
30 -16 68 -4 37 -11 92 -17 122 -5 30 -10 105 -11 165 -2 122 3 137 72 205
129 128 336 250 515 305 176 54 211 63 280 75 39 7 86 16 105 21 48 10 213 9
280 -1z m4184 -15 c7 -20 52 -19 60 1 6 16 8 16 24 0 21 -18 48 -21 57 -6 3 6
15 5 30 -2 24 -11 25 -15 25 -100 0 -72 -3 -88 -15 -88 -11 0 -15 11 -15 38 0
45 -32 87 -44 57 -3 -9 -6 -34 -6 -54 l0 -38 -92 -6 c-51 -3 -96 -3 -100 0 -5
2 -8 49 -8 105 0 84 2 99 14 89 14 -12 46 -5 46 10 0 15 17 10 24 -6z m275 4
c6 9 11 10 15 2 9 -14 53 -14 61 -1 9 15 25 12 25 -5 0 -8 7 -15 15 -15 13 0
15 -34 15 -245 0 -135 -2 -245 -5 -245 -3 0 -10 11 -15 25 -8 21 -16 25 -49
25 -33 0 -40 -3 -43 -22 -2 -15 -11 -24 -25 -26 -19 -3 -23 1 -23 23 0 20 -4
26 -15 21 -12 -4 -15 7 -15 67 0 40 -3 143 -7 230 -6 156 -6 157 15 157 12 0
22 6 22 13 0 8 4 7 10 -3 8 -12 11 -13 19 -1z m-2969 -91 c15 -10 24 -9 44 2
22 11 30 11 52 0 20 -11 29 -12 44 -2 11 7 22 12 25 12 3 0 5 -52 5 -115 0
-112 -1 -115 -22 -116 l-23 0 23 -9 c22 -9 23 -14 20 -92 -3 -77 -5 -83 -25
-86 -19 -3 -23 1 -23 22 0 23 -4 26 -34 26 -28 0 -35 -4 -40 -25 -5 -18 -13
-25 -32 -25 -14 0 -23 4 -19 10 3 6 3 19 0 30 -5 17 -15 20 -60 20 -50 0 -55
-2 -61 -26 -6 -22 -11 -25 -43 -22 -31 3 -36 7 -39 29 -3 24 -8 27 -56 33 -46
6 -64 16 -137 74 l-84 67 164 8 c90 4 165 6 168 4 2 -3 6 -38 8 -78 2 -41 4
-78 4 -82 1 -5 6 -5 12 -1 9 5 10 50 6 160 -6 141 -5 155 12 163 10 6 27 8 38
5 13 -4 22 0 26 10 8 19 21 20 47 4z m289 -24 c35 -8 67 -17 72 -20 5 -3 9
-43 9 -90 0 -73 -2 -84 -17 -85 -10 0 -39 -2 -66 -4 -26 -1 -50 2 -53 7 -3 5
-14 6 -25 3 -18 -6 -19 -1 -19 73 0 44 -3 94 -7 112 -6 31 -5 33 18 26 13 -4
53 -14 88 -22z m2538 -56 c-2 -13 -4 -5 -4 17 -1 22 1 32 4 23 2 -10 2 -28 0
-40z m-700 -78 c6 0 16 7 23 15 11 13 14 13 25 -2 12 -17 14 -17 32 -1 18 17
20 17 36 0 15 -14 20 -15 38 -3 14 8 25 9 31 3 11 -11 39 -5 50 12 4 6 9 4 14
-7 3 -9 15 -17 25 -17 18 0 19 -9 19 -130 l0 -130 -25 0 c-18 0 -25 5 -25 20
0 17 -7 20 -45 20 -38 0 -45 -3 -45 -20 0 -33 -38 -26 -42 8 -2 19 -9 28 -26
30 -30 5 -92 -25 -92 -43 0 -23 -41 -18 -47 5 -4 16 -14 20 -44 20 l-39 0 0
110 0 110 39 0 c27 0 41 5 45 16 6 16 8 16 24 0 10 -9 23 -16 29 -16z m350 19
c15 -7 46 -15 68 -18 l40 -6 3 -107 c2 -92 0 -108 -13 -108 -8 0 -15 -9 -15
-20 0 -15 -7 -20 -25 -20 -18 0 -25 5 -25 20 0 17 -7 20 -40 20 l-40 0 0 118
c0 103 4 132 16 132 1 0 15 -5 31 -11z m413 -114 l0 -125 -25 0 c-18 0 -25 -5
-25 -20 0 -29 -38 -27 -42 3 -5 38 -98 36 -98 -3 0 -15 -7 -20 -25 -20 -18 0
-25 5 -25 20 0 11 -6 20 -13 20 -19 0 -33 230 -16 241 7 4 70 8 140 8 l129 2
0 -126z m-2625 6 c11 -5 27 -3 37 2 12 8 24 8 41 0 18 -9 28 -8 36 0 9 9 17 8
33 -2 17 -10 22 -10 29 0 6 10 10 10 22 0 12 -10 20 -10 35 0 17 11 35 8 108
-17 l89 -30 1 -69 c1 -39 0 -60 -3 -47 -4 19 -11 22 -49 22 -37 0 -44 -3 -44
-20 0 -15 -7 -20 -25 -20 -18 0 -25 5 -25 20 0 17 -7 20 -39 20 -33 0 -40 -4
-43 -22 -4 -26 -37 -33 -45 -10 -30 89 -64 118 -71 59 -2 -15 -9 -27 -18 -27
-8 0 -14 -9 -14 -19 0 -10 -6 -21 -12 -24 -18 -6 -43 5 -44 21 -1 6 -2 16 -2
21 -1 5 -18 7 -37 4 l-35 -5 0 76 0 76 28 -1 c15 0 36 -4 47 -8z m1665 -16 c7
-8 19 -15 26 -15 10 0 14 -14 14 -49 0 -47 -2 -50 -27 -53 -20 -2 -27 -8 -25
-20 2 -10 -3 -18 -10 -18 -15 0 -22 84 -13 138 6 35 16 40 35 17z m-3329 -22
c83 -40 119 -116 119 -248 0 -107 -15 -153 -66 -202 -27 -27 -41 -33 -78 -33
-83 0 -129 33 -175 125 -29 59 -32 217 -4 265 10 18 22 41 28 50 13 27 75 60
111 60 17 0 46 -8 65 -17z m1164 -74 c12 -19 -5 -23 -22 -6 -16 16 -16 17 -1
17 9 0 20 -5 23 -11z m205 -43 c0 -27 16 -36 66 -36 30 0 34 3 34 25 0 31 12
32 25 3 13 -29 74 -38 87 -14 14 25 56 20 60 -6 2 -19 10 -24 45 -26 38 -3 43
-1 49 22 8 33 59 38 67 6 6 -25 29 -34 62 -26 16 4 25 13 25 26 0 28 34 26 48
-4 14 -31 63 -31 77 2 13 29 55 30 62 2 4 -15 14 -20 40 -20 26 0 36 5 40 20
4 14 14 20 33 20 19 0 29 -6 33 -20 8 -31 87 -25 87 6 0 9 12 14 35 14 28 0
35 -4 35 -20 0 -15 7 -20 29 -20 39 0 61 9 61 26 0 23 57 18 63 -6 7 -28 77
-29 84 -1 7 28 103 35 103 8 0 -15 7 -18 53 -15 35 2 51 7 50 16 -2 7 7 12 22
12 16 0 25 -6 25 -15 0 -11 12 -15 50 -15 38 0 50 4 50 15 0 9 9 15 25 15 15
0 25 -6 25 -14 0 -8 7 -16 16 -18 14 -3 16 -32 15 -258 -1 -254 -8 -398 -20
-404 -11 -6 -195 14 -321 35 -311 51 -689 180 -978 335 -165 89 -502 297 -502
310 0 3 12 3 27 2 21 -2 30 3 38 20 7 16 18 22 42 22 28 0 33 -4 33 -24z
m-1634 -113 c-3 -19 -56 -41 -103 -42 -38 -1 -106 -17 -184 -43 -30 -10 -65
-18 -77 -18 -11 0 -23 -4 -27 -9 -3 -5 -20 -12 -38 -16 -17 -4 -50 -15 -72
-25 -22 -9 -58 -25 -80 -34 -22 -9 -49 -22 -60 -28 -11 -6 -51 -29 -90 -51
-38 -22 -71 -44 -73 -48 -2 -5 -8 -9 -14 -9 -13 0 -158 -103 -179 -127 -9 -10
-26 -26 -39 -37 l-23 -18 8 38 c4 22 8 39 8 40 1 0 43 27 92 61 127 85 426
237 540 274 22 7 44 17 50 21 5 4 19 8 31 8 13 0 25 4 28 9 3 5 16 11 28 14
13 3 57 15 98 27 78 23 160 39 172 33 3 -2 5 -11 4 -20z m534 -26 c49 -27 100
-82 100 -108 0 -19 -2 -20 -17 -8 -10 8 -22 18 -28 22 -18 14 -79 47 -117 64
-31 13 -38 21 -38 44 0 27 1 28 33 17 17 -6 48 -20 67 -31z m-522 -64 c2 -13
-1 -23 -7 -23 -6 0 -17 -12 -25 -27 -8 -16 -15 -23 -16 -18 0 6 -16 19 -35 29
-19 11 -35 22 -35 25 1 25 35 40 85 38 23 -2 31 -7 33 -24z m-163 -13 c4 -6
-5 -26 -20 -45 -14 -20 -23 -40 -20 -45 3 -6 0 -10 -9 -10 -8 0 -16 -5 -18
-11 -5 -14 -48 10 -47 26 3 52 93 118 114 85z m664 -47 c13 -37 13 -42 -2 -58
-9 -9 -17 -23 -17 -31 0 -31 -33 -8 -46 31 -8 22 -18 48 -24 58 -8 14 -7 17 9
17 10 0 22 7 25 16 11 28 40 10 55 -33z m-769 32 c0 -3 -7 -17 -16 -30 -20
-30 -40 -31 -74 -5 l-25 20 32 0 c17 0 35 5 38 10 6 10 45 14 45 5z m150 -32
c0 -11 4 -13 13 -5 8 6 17 4 30 -8 17 -17 16 -19 -16 -61 -30 -40 -77 -65 -77
-41 0 5 -9 12 -20 15 -24 6 -20 22 23 85 28 41 47 47 47 15z m670 7 c0 -19
-18 -19 -23 -1 -3 14 -1 18 9 14 8 -3 14 -9 14 -13z m-530 -3 c0 -7 9 -23 20
-35 30 -32 25 -35 -20 -12 -36 18 -39 22 -28 40 15 23 28 26 28 7z m577 -39
c23 -21 32 -68 14 -68 -5 0 -13 -9 -16 -20 -9 -29 -21 -25 -34 11 -17 50 -13
99 8 99 2 0 15 -10 28 -22z m-1047 2 c0 -15 -43 -80 -53 -80 -4 0 -24 11 -43
23 l-34 24 43 13 c23 7 46 17 52 22 13 11 35 10 35 -2z m107 -8 l32 -17 -30
-40 c-16 -22 -33 -50 -39 -62 -11 -27 -13 -27 -42 -10 -58 33 -58 35 -25 93
34 60 50 65 104 36z m753 -28 c0 -13 5 -24 10 -24 6 0 10 -7 10 -15 0 -8 -1
-15 -2 -15 -2 0 -23 6 -47 13 -37 12 -41 15 -29 28 8 8 17 22 21 31 9 25 37
11 37 -18z m-400 4 c26 -24 29 -21 -51 -47 -58 -18 -63 -13 -28 28 40 46 48
48 79 19z m-270 -43 c0 -10 10 -15 29 -15 47 0 46 -18 -1 -30 -24 -6 -50 -14
-58 -17 -8 -3 -29 -9 -47 -13 -25 -6 -30 -5 -26 6 3 8 8 14 12 14 3 0 17 20
30 45 20 38 26 43 42 34 11 -5 19 -16 19 -24z m797 -7 c6 -24 10 -45 8 -47 -7
-6 -65 21 -65 30 0 5 4 9 10 9 5 0 12 11 16 25 9 36 18 31 31 -17z m-1164 15
c-17 -6 -17 -33 0 -33 7 0 18 9 25 20 11 19 13 19 47 3 40 -19 42 -28 18 -80
-30 -63 -38 -68 -78 -43 -40 25 -38 21 -25 54 11 29 -5 36 -24 12 -14 -18 -58
-3 -50 17 5 14 71 55 89 55 6 0 4 -2 -2 -5z m1254 -77 c-8 -8 -19 -11 -27 -6
-9 6 -7 15 11 40 l24 32 3 -26 c2 -14 -3 -32 -11 -40z m-458 28 c33 -11 51
-12 74 -4 16 5 42 10 56 10 65 -1 279 -69 289 -92 2 -5 10 -8 17 -8 24 0 55
-51 55 -89 l0 -35 -27 29 c-33 35 -146 94 -206 107 -23 5 -76 11 -117 14 -41
3 -91 9 -112 14 -73 15 -419 -36 -505 -76 -17 -8 -45 -17 -62 -20 -17 -4 -34
-11 -37 -15 -3 -5 -12 -9 -20 -9 -19 0 -260 -119 -323 -159 -25 -16 -58 -33
-73 -36 -16 -4 -28 -11 -28 -16 0 -5 -5 -9 -11 -9 -10 0 -29 -13 -86 -60 -7
-6 -15 -10 -18 -10 -3 0 -22 -16 -42 -35 -27 -25 -39 -31 -45 -22 -13 20 -9
46 10 65 37 35 72 62 81 62 5 0 11 4 13 8 3 8 57 46 172 120 27 18 64 37 83
44 18 7 33 16 33 20 0 4 8 8 18 8 10 0 22 4 28 8 5 5 50 24 99 44 210 82 327
115 515 143 116 17 119 17 169 -1z m-595 -51 c16 -9 11 -13 -35 -28 -30 -10
-61 -20 -69 -23 -12 -4 -13 -2 -2 9 6 7 12 19 12 26 0 8 7 25 16 39 17 25 17
25 38 6 12 -11 30 -24 40 -29z m-338 2 c-20 -30 -20 -45 -2 -45 7 0 19 14 26
30 12 29 30 41 30 20 0 -5 7 -10 15 -10 13 0 13 -3 3 -20 -11 -17 -10 -22 2
-30 10 -7 18 -6 24 4 7 11 14 11 37 -1 16 -8 29 -18 29 -22 0 -7 -53 -37 -95
-53 -18 -7 -19 -7 -2 6 9 7 17 21 17 30 0 27 -27 18 -40 -14 -14 -34 -18 -35
-42 -16 -21 15 -24 46 -5 46 8 0 7 4 -3 10 -11 7 -19 5 -27 -7 -10 -13 -15
-14 -28 -3 -8 7 -13 16 -10 20 3 5 -3 10 -12 12 -14 3 -8 11 26 36 55 40 81
44 57 7z m1175 -87 c159 -41 168 -49 179 -165 4 -51 12 -98 16 -104 5 -9 -4
-10 -36 -5 -98 15 -172 -20 -155 -74 5 -16 10 -18 26 -9 30 16 123 16 142 0
23 -18 20 -56 -6 -115 -21 -46 -24 -48 -39 -33 -24 25 -117 23 -163 -3 -19
-11 -35 -18 -35 -15 0 2 7 25 16 51 21 62 11 67 -16 7 -22 -50 -22 -64 0 -183
5 -30 12 -82 15 -114 3 -33 9 -64 15 -70 18 -18 12 -91 -11 -117 -18 -21 -29
-24 -87 -24 -70 1 -163 14 -172 24 -3 3 -14 11 -25 17 -26 14 -32 77 -10 110
21 33 -2 33 -41 -1 -16 -14 -32 -25 -36 -25 -4 0 -29 -13 -56 -30 -26 -16 -74
-36 -105 -44 -32 -8 -75 -29 -97 -46 -37 -30 -80 -96 -80 -125 0 -26 -16 -16
-33 20 -18 39 -14 73 17 150 l17 40 -21 -24 c-11 -13 -20 -30 -20 -37 0 -8 -6
-24 -12 -37 -7 -12 -13 -23 -14 -25 -1 -1 -8 0 -17 4 -9 3 -19 21 -23 38 -3
18 -17 45 -30 61 -14 17 -24 41 -24 59 0 18 -8 42 -17 56 -39 55 -48 285 -13
322 10 11 21 39 24 63 4 24 13 46 21 49 22 8 55 81 55 123 1 39 31 138 46 152
5 4 41 17 79 28 349 101 494 111 726 51z m-1301 3 c0 -11 -4 -22 -9 -25 -5 -3
-12 -21 -15 -41 -8 -42 -19 -50 -40 -29 -24 23 -19 55 12 86 32 32 52 35 52 9z
m54 -16 c14 -14 20 -25 14 -25 -6 0 -8 -9 -5 -20 3 -11 1 -23 -4 -26 -5 -3
-15 -18 -22 -34 -10 -23 -16 -27 -34 -19 -19 7 -22 13 -16 41 3 18 12 42 20
53 7 11 13 27 13 37 0 24 4 23 34 -7z m72 -50 c17 -13 17 -14 2 -15 -10 0 -18
-4 -18 -9 0 -5 -10 -11 -21 -14 -17 -4 -19 -3 -10 6 6 6 11 19 11 29 0 22 10
23 36 3z m-259 -49 c-23 -34 -7 -42 19 -9 20 26 22 26 39 9 24 -24 28 -71 9
-91 -22 -22 -48 -15 -52 13 -2 13 -14 27 -28 32 -30 12 -30 27 -2 57 27 28 36
22 15 -11z m4 -133 c1 -5 -5 -9 -14 -11 -12 -3 -15 1 -11 13 6 15 18 14 25 -2z
m226 -239 c17 -19 38 -34 46 -34 14 0 19 -26 28 -145 0 -5 -5 -53 -12 -105 -7
-52 -13 -109 -13 -127 -1 -29 -36 -83 -53 -83 -30 0 -75 45 -98 97 -14 32 -30
65 -35 73 -57 84 -72 212 -34 280 54 96 109 110 171 44z m1213 -34 c0 -5 8
-10 18 -10 15 -1 15 -2 2 -13 -8 -7 -14 -22 -12 -34 3 -19 10 -23 39 -23 29 0
36 4 46 30 22 57 32 25 40 -126 7 -136 6 -155 -13 -212 -11 -34 -20 -77 -20
-95 -1 -34 -28 -104 -29 -76 -1 10 -12 36 -26 60 -17 30 -31 44 -46 44 -21 0
-22 5 -24 80 -3 92 -22 254 -35 305 -8 29 -6 38 12 57 22 24 48 31 48 13z
m-385 -371 c0 -49 -1 -50 -25 -45 -14 4 -40 9 -57 12 -18 4 -33 9 -33 13 0 5
98 68 110 70 3 1 5 -22 5 -50z m-812 -160 c-4 -33 -1 -57 11 -79 9 -18 16 -54
16 -80 0 -45 21 -103 41 -115 5 -4 9 -15 9 -26 0 -42 42 -119 76 -140 19 -11
34 -29 34 -39 0 -25 22 -65 56 -101 79 -84 108 -109 123 -109 9 0 26 -16 38
-35 23 -35 87 -75 122 -75 10 0 22 -7 25 -16 7 -19 93 -57 112 -50 8 3 21 0
28 -6 11 -11 9 -19 -11 -45 -14 -18 -23 -38 -21 -44 2 -7 13 3 24 22 l20 34
112 0 c62 0 112 -2 112 -4 0 -14 -46 -98 -61 -111 -68 -60 -135 -90 -201 -90
-21 0 -29 -6 -32 -22 -11 -62 -27 -159 -32 -208 -4 -30 -12 -65 -19 -78 -10
-21 -15 -12 -44 95 -18 65 -37 134 -43 153 -6 19 -12 40 -13 46 -2 6 -43 19
-92 29 -48 10 -92 22 -97 26 -6 5 -17 9 -25 9 -16 0 -241 108 -251 120 -3 4
-27 21 -53 39 -70 48 -242 221 -254 256 -18 51 -36 142 -30 152 10 15 107 73
107 63 0 -5 -4 -12 -10 -15 -12 -7 -13 -25 -2 -25 27 0 126 266 144 385 21
146 16 133 53 132 l34 -1 -6 -47z m629 -44 c6 -14 15 -25 19 -25 4 0 10 -11
13 -24 9 -35 86 -107 148 -138 43 -22 69 -28 119 -28 58 0 67 3 100 33 19 17
45 53 57 78 22 45 67 97 77 88 8 -9 -21 -132 -43 -181 -11 -25 -23 -64 -27
-87 -8 -49 -45 -97 -67 -88 -24 9 -28 54 -7 81 l19 24 -48 -14 c-54 -17 -108
-11 -164 17 -49 25 -51 24 -29 -14 16 -29 17 -37 5 -59 -17 -33 -37 -40 -72
-25 -110 47 -179 206 -144 334 17 59 27 65 44 28z m218 -30 c80 -16 152 -25
177 -22 54 6 55 -7 1 -34 -35 -18 -47 -19 -77 -11 -20 6 -56 14 -81 17 -24 3
-49 10 -55 14 -5 4 -35 16 -65 27 -56 18 -90 40 -90 56 0 5 12 2 28 -6 15 -7
88 -26 162 -41z m67 34 c7 -7 22 -7 51 2 34 10 43 9 63 -5 13 -9 35 -16 49
-17 l25 0 -25 -10 c-14 -6 -47 -7 -75 -4 -114 13 -185 27 -185 36 0 13 84 11
97 -2z m6356 -45 c44 -8 83 -16 87 -19 13 -8 98 -26 168 -34 98 -13 181 -61
287 -166 50 -49 97 -99 105 -110 23 -30 77 -144 94 -195 27 -83 75 -245 86
-290 24 -98 49 -197 59 -230 19 -69 40 -168 71 -340 18 -96 36 -188 41 -204
12 -38 12 -63 0 -50 -5 5 -23 50 -41 99 -18 50 -39 101 -46 115 -7 14 -20 45
-28 70 -8 25 -22 64 -32 85 -44 101 -44 101 -43 80 0 -20 7 -43 74 -220 20
-55 48 -130 61 -168 13 -37 33 -88 45 -115 26 -59 34 -78 49 -122 14 -40 23
-64 38 -100 20 -48 90 -275 97 -315 4 -21 14 -53 22 -70 15 -27 41 -115 63
-205 4 -19 13 -51 19 -70 21 -65 65 -279 81 -392 6 -38 15 -99 20 -138 6 -38
14 -100 20 -137 5 -38 14 -97 19 -133 27 -178 40 -277 55 -405 9 -77 20 -162
25 -188 l8 -49 -90 -126 c-50 -70 -100 -139 -112 -153 l-22 -27 -6 157 c-4 86
-7 323 -7 526 -1 419 -19 657 -60 760 -7 17 -18 54 -26 83 -13 48 -89 194
-118 225 -6 7 -15 20 -21 29 -17 27 -119 150 -168 203 -26 27 -47 53 -47 57 0
4 -16 24 -35 45 -19 21 -35 42 -35 46 0 4 -9 18 -20 30 -38 41 -180 268 -180
287 0 4 -18 43 -40 86 -41 82 -49 104 -107 269 -19 55 -37 102 -40 105 -20 18
36 -192 71 -265 13 -27 29 -66 36 -85 8 -19 29 -65 47 -101 18 -37 33 -71 33
-76 0 -5 8 -18 18 -29 9 -11 26 -37 37 -59 10 -22 26 -50 35 -61 8 -12 22 -32
30 -44 8 -12 28 -39 43 -59 30 -39 34 -44 91 -113 41 -51 33 -63 -19 -28 -16
12 -43 27 -60 36 -28 13 -62 36 -130 87 -102 76 -200 207 -265 352 -42 95 -48
110 -61 150 -6 22 -18 57 -25 77 -14 38 -46 177 -65 278 -6 30 -14 71 -19 90
-5 19 -12 69 -15 110 -3 41 -10 102 -15 135 -5 33 -15 103 -21 155 -9 82 -20
155 -43 285 -3 17 -8 44 -10 60 -6 40 -35 155 -46 180 -4 11 -14 36 -22 55 -8
19 -21 50 -28 68 -7 17 -15 32 -19 32 -3 0 -12 14 -20 31 -16 38 -105 127
-138 140 -55 21 -3 40 87 32 25 -3 80 -11 123 -19z m-503 -63 c0 -22 -54 -61
-86 -61 -19 0 -34 -4 -34 -10 0 -5 -6 -10 -12 -10 -7 0 1 13 17 29 49 45 115
76 115 52z m30 5 c0 -3 -4 -8 -10 -11 -5 -3 -10 -1 -10 4 0 6 5 11 10 11 6 0
10 -2 10 -4z m-6004 -36 c13 -13 98 -32 153 -34 53 -2 65 -21 20 -30 -48 -9
-199 39 -199 64 0 13 13 13 26 0z m6001 -2 c7 18 26 15 19 -4 -3 -8 -2 -12 4
-9 11 7 19 0 73 -67 20 -25 37 -51 37 -57 0 -6 4 -11 9 -11 4 0 21 -19 37 -42
60 -88 181 -256 242 -335 34 -45 62 -88 62 -95 0 -7 -10 1 -22 19 -13 17 -32
37 -43 43 -16 10 -15 7 5 -14 20 -22 22 -29 10 -36 -21 -13 -7 -21 39 -22 28
0 41 -5 41 -14 0 -8 5 -14 10 -14 6 0 10 -7 10 -15 0 -8 -5 -15 -11 -15 -8 0
-8 -5 1 -15 7 -8 10 -21 7 -29 -3 -8 1 -20 9 -26 9 -8 14 -32 14 -67 l0 -54
-21 20 c-13 11 -18 24 -14 32 5 8 4 10 -3 5 -10 -6 -101 78 -102 94 0 3 -21
28 -45 55 -25 28 -45 55 -45 62 0 6 -3 13 -7 15 -14 6 -63 69 -63 81 0 7 14
-4 31 -23 28 -31 31 -32 24 -10 -4 14 -12 27 -17 29 -5 1 -13 8 -18 15 -5 6
-21 25 -35 41 l-26 30 22 -32 c12 -18 19 -36 15 -40 -8 -9 -23 10 -93 112 -99
143 -249 325 -269 325 -7 0 -16 5 -19 10 -3 6 0 10 8 10 16 0 112 -88 119
-110 3 -8 8 -12 12 -9 4 4 -16 32 -45 63 -33 37 -45 56 -35 56 9 0 16 4 16 8
0 4 8 18 17 29 13 16 20 18 26 10 7 -9 10 -9 14 1z m-6997 -166 c0 -4 -9 -15
-19 -24 -45 -39 -98 -53 -66 -18 18 19 17 20 -3 20 -24 0 -69 -50 -79 -87 -3
-15 -1 -56 6 -92 20 -110 31 -164 41 -201 9 -34 39 -143 61 -225 6 -22 15 -49
19 -60 19 -45 101 -399 120 -515 11 -69 26 -153 32 -187 11 -61 11 -61 -18
-87 -16 -14 -36 -28 -45 -31 -9 -3 -26 -27 -38 -53 -12 -26 -31 -58 -41 -72
l-20 -25 0 42 c0 95 -50 416 -100 643 -10 47 -28 132 -40 190 -11 58 -25 123
-30 145 -5 22 -14 69 -21 105 -7 36 -15 70 -19 75 -4 6 -10 19 -13 30 -3 11
-24 72 -47 135 -22 63 -39 124 -36 135 3 11 21 38 41 60 19 22 35 43 35 47 0
3 24 18 53 32 43 21 67 25 140 26 48 0 87 -3 87 -8z m6834 -21 c-10 -46 16
-170 47 -232 16 -31 29 -60 29 -64 0 -4 16 -30 35 -56 19 -27 35 -52 35 -55 0
-3 19 -26 43 -51 63 -69 81 -86 119 -118 28 -24 37 -42 47 -90 7 -33 22 -74
32 -92 19 -31 19 -32 0 -65 -29 -50 -35 -97 -16 -140 8 -21 18 -38 21 -38 3 0
3 4 0 8 -7 12 31 72 46 72 6 0 24 11 39 26 l26 25 30 -25 c16 -13 46 -28 67
-31 25 -5 40 -15 45 -28 7 -18 8 -18 14 -3 4 10 12 14 19 10 6 -4 26 -7 45 -6
35 1 41 -6 21 -26 -7 -7 -9 -12 -5 -12 16 0 -65 -75 -120 -111 -32 -21 -61
-39 -64 -39 -4 0 -9 9 -12 20 -6 25 -39 26 -63 3 -13 -13 -19 -14 -22 -5 -7
23 -21 12 -33 -28 -17 -56 -113 -154 -189 -193 l-35 -17 35 6 c50 9 113 49
155 97 51 59 55 65 55 76 0 17 22 24 30 11 7 -11 -27 -79 -50 -100 -3 -3 -14
-25 -25 -50 -26 -58 -27 -159 -2 -184 9 -10 17 -21 17 -26 0 -14 55 -40 85
-40 24 0 25 -3 25 -53 0 -109 54 -236 136 -322 30 -32 54 -59 54 -62 0 -16
-122 -84 -200 -113 -19 -7 -49 -19 -66 -26 -96 -42 -298 -58 -357 -28 -65 33
-83 84 -49 143 20 36 32 40 32 9 0 -17 3 -19 12 -10 31 31 -4 409 -45 488 -18
35 -47 68 -67 78 -8 4 -26 13 -40 21 -14 8 -51 15 -83 15 -32 0 -89 5 -128 11
-90 15 -119 40 -119 102 0 23 5 48 11 54 18 18 14 90 -7 128 -25 48 -12 59 70
56 37 -1 67 2 71 8 3 6 15 11 26 11 34 0 20 17 -28 35 -27 10 -53 22 -59 26
-6 5 -28 12 -49 17 -51 10 -62 30 -41 72 25 50 21 84 -11 101 -36 18 -43 28
-43 61 0 22 20 48 95 122 116 114 151 178 142 260 -5 36 -1 67 13 108 21 63
50 130 61 138 3 3 9 15 13 26 9 30 100 124 119 124 13 0 15 -7 11 -29z m-7234
-173 c13 -42 25 -72 68 -168 34 -77 40 -104 72 -285 5 -27 18 -97 30 -155 11
-58 25 -127 29 -155 5 -27 16 -90 25 -140 9 -49 21 -112 26 -140 9 -50 19
-118 40 -275 7 -47 18 -105 26 -129 14 -41 13 -46 -13 -100 l-27 -56 -7 65
c-10 83 -26 207 -39 290 -5 36 -15 97 -21 135 -16 108 -45 269 -59 325 -5 19
-16 71 -25 115 -9 44 -25 109 -35 145 -9 36 -28 107 -41 159 -12 52 -31 112
-41 132 -10 21 -18 45 -18 53 0 28 -23 110 -43 154 -15 34 -17 45 -7 57 23 28
46 17 60 -27z m-90 -30 c12 -53 19 -77 41 -133 7 -16 25 -77 41 -135 16 -58
33 -121 39 -140 6 -19 14 -57 19 -85 5 -27 19 -86 31 -130 21 -79 33 -143 45
-240 l7 -50 -24 20 c-32 27 -69 68 -69 78 0 4 -9 7 -20 7 -27 0 -26 8 15 76
19 32 35 66 35 75 0 10 -19 32 -42 50 -24 19 -47 39 -51 46 -4 7 -15 13 -23
13 -10 0 -3 16 21 50 19 27 35 57 35 65 0 22 -58 76 -77 73 -29 -5 -37 25 -18
65 13 29 21 35 30 27 8 -7 16 -7 19 -2 3 6 -1 15 -9 22 -8 7 -15 20 -15 29 0
18 -18 41 -32 41 -4 0 -5 -7 -2 -15 5 -13 2 -13 -17 -5 -13 6 -32 13 -41 16
-24 8 -29 30 -12 45 21 17 52 19 58 2 7 -18 26 -17 26 2 0 9 -12 21 -27 27
-16 7 -30 13 -32 14 -6 5 23 64 31 64 5 0 8 7 8 16 0 9 -8 14 -17 13 -10 -1
-29 -1 -42 0 -23 1 -22 2 10 25 19 13 37 25 41 25 3 1 11 -23 18 -51z m-91
-14 c32 -7 39 -25 22 -53 -8 -13 -15 -13 -50 -1 -42 14 -45 17 -35 44 7 18 16
19 63 10z m-99 -24 c0 -5 -4 -10 -9 -10 -6 0 -13 5 -16 10 -3 6 1 10 9 10 9 0
16 -4 16 -10z m-100 -29 c0 -5 -6 -11 -12 -14 -7 -2 -9 -8 -5 -13 5 -5 17 1
27 14 19 23 36 27 59 13 11 -7 10 -15 -4 -45 -13 -26 -21 -34 -28 -27 -6 6
-18 11 -26 11 -11 0 -10 -5 6 -22 11 -13 23 -31 26 -40 7 -20 27 -24 27 -7 0
15 31 38 51 39 30 0 39 -21 21 -49 -24 -37 -35 -43 -50 -24 -8 12 -15 14 -22
7 -13 -13 46 -148 61 -138 6 3 8 17 5 30 -8 29 -7 29 44 3 44 -23 50 -44 22
-75 -11 -11 -22 -26 -25 -34 -5 -13 -6 -13 -6 0 -1 15 -40 71 -41 58 0 -17 33
-134 41 -142 9 -10 13 4 10 32 -3 20 12 14 53 -23 22 -19 43 -35 48 -35 15 0
8 -21 -17 -54 -14 -18 -25 -38 -25 -44 0 -7 -4 -12 -10 -12 -5 0 -10 11 -10
24 0 26 -16 44 -22 25 -5 -14 15 -105 30 -139 11 -25 11 -25 11 8 1 35 6 39
25 20 7 -7 30 -28 51 -46 21 -19 34 -37 28 -40 -6 -4 -20 -26 -32 -49 -24 -47
-36 -54 -38 -22 -1 12 -7 27 -14 33 -16 15 -5 -140 11 -160 19 -22 33 -17 28
11 -3 14 -4 25 -2 25 2 0 24 -20 49 -44 47 -47 54 -66 32 -88 -7 -7 -22 -26
-32 -41 l-19 -29 -17 34 -18 33 0 -45 c-1 -44 13 -119 26 -150 4 -10 8 -3 12
19 l6 34 54 -51 c58 -54 58 -53 13 -100 -6 -8 -17 -23 -24 -35 l-11 -21 -8 22
c-5 12 -13 22 -19 22 -13 0 -13 -41 2 -112 12 -59 28 -78 28 -33 0 14 5 25 10
25 6 0 10 -7 10 -15 0 -8 4 -15 9 -15 4 0 22 -13 39 -30 l32 -30 -21 -39 c-11
-21 -29 -47 -39 -56 -19 -17 -20 -17 -20 3 0 12 -4 22 -10 22 -11 0 -12 -99 0
-145 7 -30 15 -23 22 20 3 18 7 16 33 -14 17 -19 38 -42 48 -51 18 -17 17 -19
-8 -46 -15 -16 -34 -37 -43 -47 -16 -18 -17 -17 -22 9 -8 45 -30 42 -30 -5 0
-28 -4 -41 -13 -41 -11 0 -16 32 -21 138 -3 75 -8 151 -11 167 -2 17 -9 82
-15 145 -10 110 -40 330 -60 435 -5 28 -14 86 -20 130 -6 44 -13 91 -16 105
-3 14 -9 45 -14 70 -27 138 -65 286 -109 420 -5 14 -14 44 -21 68 -7 23 -16
42 -21 42 -4 0 -10 12 -14 27 -3 15 -15 39 -26 54 -10 15 -19 30 -19 34 0 3
-14 26 -31 51 l-30 44 23 9 c30 13 38 13 38 2z m196 -41 c2 0 -1 -9 -8 -20
-10 -16 -19 -19 -43 -14 -16 4 -36 7 -42 7 -18 0 -16 22 3 41 14 14 19 14 51
1 19 -8 37 -15 39 -15z m-246 -37 c0 -7 5 -13 10 -13 6 0 10 -9 10 -19 0 -11
7 -26 15 -35 18 -18 90 -212 125 -336 7 -25 16 -54 21 -65 4 -11 11 -40 14
-65 5 -42 19 -111 50 -260 8 -36 21 -114 30 -175 9 -60 20 -139 25 -175 5 -36
12 -92 15 -125 3 -33 10 -94 15 -135 20 -147 29 -257 31 -368 l3 -113 -51 -23
-50 -24 -5 57 c-3 31 -6 112 -7 181 -1 69 -6 163 -12 210 -5 47 -14 137 -20
200 -13 144 -23 215 -47 360 -35 206 -53 304 -59 313 -5 9 -35 142 -50 222 -3
17 -9 35 -13 40 -4 6 -13 26 -18 45 -31 103 -100 239 -145 288 -18 20 -19 24
-7 32 8 5 22 10 30 10 8 0 24 7 35 16 18 13 21 12 37 -8 10 -13 18 -29 18 -35z
m2269 18 c12 -8 13 -14 2 -37 -12 -27 -12 -27 -26 -6 -8 11 -12 27 -9 36 7 18
13 19 33 7z m-2415 -69 c14 -21 26 -43 26 -50 0 -7 4 -12 9 -12 9 0 92 -199
110 -265 31 -113 64 -256 72 -305 5 -30 18 -107 30 -170 49 -270 90 -657 96
-922 l4 -186 -88 -42 c-48 -23 -99 -47 -113 -53 -14 -6 -37 -20 -53 -30 -15
-10 -41 -22 -57 -27 l-30 -9 0 271 c0 149 -4 298 -10 332 -5 33 -14 113 -21
176 -12 123 -44 319 -53 328 -10 10 -6 -45 8 -125 28 -151 39 -359 32 -643 -6
-265 -10 -350 -20 -375 -2 -6 -24 -19 -48 -29 l-45 -16 -67 39 c-37 21 -94 47
-127 58 -32 10 -59 21 -59 26 0 4 -12 7 -26 7 -14 0 -45 5 -70 11 -34 9 -48 9
-57 0 -8 -8 -3 -11 19 -11 16 0 34 -4 39 -8 6 -5 30 -14 55 -21 77 -22 250
-111 250 -130 0 -13 -67 -35 -102 -32 -43 3 -156 -18 -164 -30 -3 -5 -13 -9
-23 -9 -33 0 -168 -77 -179 -102 -2 -5 -9 -8 -16 -8 -7 0 -19 -11 -26 -25 -7
-14 -17 -25 -22 -25 -4 0 -8 -5 -8 -11 0 -6 19 5 43 24 92 76 245 137 343 137
31 0 51 -19 22 -21 -7 0 -35 -27 -63 -60 -90 -107 -82 -95 -149 -243 -15 -32
-26 -71 -24 -85 2 -22 7 -16 27 34 53 131 156 266 266 350 40 31 203 122 285
160 36 16 76 38 89 47 13 10 30 18 37 18 7 0 35 13 62 29 27 16 59 32 70 35
21 7 22 5 16 -41 -3 -26 -9 -68 -14 -93 -12 -63 -19 -195 -30 -645 -11 -398
-38 -827 -66 -1015 -8 -57 -16 -105 -17 -107 -1 -1 -45 51 -98 115 -319 389
-613 860 -818 1309 -71 155 -187 444 -226 563 -27 80 -27 88 -17 160 24 163
42 251 82 410 23 91 45 181 50 200 15 65 109 353 138 420 8 19 20 49 27 65 28
65 68 152 90 195 13 25 36 70 52 100 45 88 140 190 233 251 77 51 262 149 281
149 9 0 28 -17 43 -38z m2471 12 c0 -13 9 -20 29 -24 16 -3 31 -11 34 -19 3
-8 0 -11 -7 -7 -6 4 -11 3 -11 -3 0 -5 5 -13 10 -16 6 -3 10 -1 10 4 0 6 5 11
10 11 14 0 13 -18 -2 -34 -11 -12 -18 -11 -43 1 -16 9 -35 22 -43 29 -7 7 -20
18 -29 22 -14 9 -14 12 3 35 21 30 39 30 39 1z m-2042 -21 c9 -3 17 -9 17 -14
0 -5 6 -9 14 -9 30 0 24 -38 -14 -81 -15 -17 -18 -16 -63 12 -42 26 -60 49
-39 49 4 0 13 14 21 31 10 22 18 28 30 24 9 -4 24 -10 34 -12z m1968 -83 c4
-19 13 -57 19 -85 7 -27 16 -67 21 -87 37 -156 48 -209 58 -283 5 -33 13 -78
19 -100 14 -51 30 -177 42 -325 23 -311 30 -433 23 -445 -6 -10 -15 -8 -38 12
l-30 26 -7 171 c-7 165 -21 347 -32 417 -3 19 -8 50 -11 69 -3 19 -12 76 -20
125 -8 50 -22 137 -30 195 -9 58 -20 116 -24 130 -5 14 -14 45 -19 70 -6 25
-18 76 -27 113 -17 66 -17 68 1 82 17 13 20 11 33 -18 8 -18 18 -48 22 -67z
m-1434 58 c35 -40 108 -106 147 -133 15 -11 33 -25 40 -30 6 -6 28 -19 49 -30
20 -11 37 -23 37 -27 0 -5 5 -8 11 -8 6 0 44 -15 83 -34 92 -43 223 -86 264
-86 17 0 32 -1 32 -2 8 -51 33 -160 48 -213 11 -38 31 -110 45 -158 26 -91 42
-122 51 -96 12 35 56 263 56 291 0 17 4 45 10 62 5 17 12 48 15 68 6 36 7 38
56 44 28 4 56 12 62 18 7 6 26 18 42 26 33 16 54 36 102 95 l31 40 8 -29 c5
-20 3 -31 -4 -34 -7 -2 -12 -9 -12 -15 0 -27 -92 -99 -161 -127 -40 -16 -76
-33 -81 -38 -18 -18 -60 -299 -46 -308 4 -3 10 5 12 18 18 87 36 188 36 207 0
26 28 71 44 71 6 0 28 9 49 20 20 11 48 20 61 20 13 0 43 17 69 40 51 45 57
47 57 23 0 -33 -64 -89 -142 -127 -43 -21 -78 -41 -79 -44 -4 -32 -9 -58 -27
-132 -12 -47 -30 -123 -42 -170 -11 -47 -34 -132 -51 -190 -17 -58 -36 -122
-42 -143 -6 -21 -14 -34 -18 -30 -3 4 -19 46 -34 93 -14 47 -31 89 -36 95 -5
5 -9 15 -9 22 0 8 -9 33 -20 55 -11 23 -20 51 -20 63 0 11 -7 31 -16 43 -8 12
-26 55 -40 95 -13 39 -37 102 -52 140 -30 74 -23 70 -177 109 -98 25 -327 145
-362 190 -6 7 -15 28 -21 47 -11 31 -11 32 6 20 9 -8 19 -16 22 -19 10 -10
116 -78 148 -94 19 -10 40 -15 47 -12 8 3 38 -7 67 -23 30 -15 99 -40 153 -55
141 -40 140 -39 153 -84 13 -43 32 -65 32 -37 0 34 -33 115 -49 119 -9 3 -34
8 -56 11 -90 15 -345 122 -345 146 0 5 -5 9 -11 9 -19 0 -114 66 -163 113 -32
31 -46 54 -51 83 -4 21 -12 45 -18 52 -22 28 12 10 40 -20z m1663 -59 c0 -9 7
-33 15 -53 16 -38 6 -49 -17 -18 -7 9 -26 25 -41 35 -23 15 -26 21 -16 33 10
12 14 12 20 2 4 -7 11 -9 16 -5 4 4 2 16 -4 26 -7 11 -9 22 -5 25 9 9 32 -23
32 -45z m-315 24 c4 -10 11 -40 16 -68 6 -27 14 -70 19 -95 37 -172 87 -507
100 -665 5 -55 14 -152 20 -215 6 -63 9 -144 8 -179 l-3 -64 -31 26 c-18 15
-36 27 -40 27 -5 1 -18 8 -29 18 -18 15 -23 40 -38 207 -9 105 -21 224 -26
265 -26 227 -43 353 -56 420 -8 41 -22 124 -30 185 -16 103 -16 110 1 122 10
7 26 13 35 13 10 0 21 5 24 10 9 15 22 12 30 -7z m202 -58 c1 -5 -7 -25 -18
-44 -17 -29 -22 -32 -33 -20 -8 8 -16 29 -19 47 -5 25 -3 32 9 32 11 0 13 6 8
22 -6 22 -6 22 22 -3 16 -13 30 -28 31 -34z m173 42 c25 -19 49 -85 71 -192
24 -115 22 -108 36 -160 6 -22 16 -71 22 -110 7 -38 16 -90 22 -115 18 -89 38
-227 48 -335 6 -60 15 -157 21 -215 12 -127 14 -960 1 -960 -24 0 -35 35 -33
103 3 90 -16 803 -23 877 -5 54 -18 181 -35 355 -5 50 -14 110 -20 135 -5 25
-13 61 -16 80 -3 19 -9 53 -14 75 -5 22 -14 76 -21 120 -6 44 -15 85 -19 90
-4 6 -12 37 -19 70 -7 33 -17 70 -22 83 -5 13 -9 34 -9 47 0 13 -4 27 -10 30
-12 7 -14 35 -2 35 4 0 14 -6 22 -13z m136 -87 c29 -25 53 -49 53 -53 1 -5 16
-27 34 -50 29 -38 120 -211 137 -262 7 -20 21 -54 40 -97 14 -35 49 -134 76
-223 14 -44 34 -102 44 -130 19 -53 29 -88 56 -200 10 -38 23 -82 31 -97 7
-15 13 -38 13 -51 0 -14 7 -49 16 -78 8 -30 24 -83 34 -119 11 -36 26 -92 35
-125 9 -33 21 -73 27 -90 13 -39 65 -241 84 -324 8 -35 16 -66 19 -70 5 -10
26 -121 35 -196 4 -33 17 -96 30 -140 18 -65 23 -113 27 -260 5 -206 3 -229
-65 -585 -11 -58 -27 -157 -36 -220 -20 -138 -45 -287 -53 -315 -5 -21 -27
-141 -43 -235 -5 -30 -13 -120 -19 -200 -6 -80 -14 -158 -18 -175 -14 -48 -87
-79 -239 -101 l-40 -6 -12 98 c-46 404 -57 572 -56 894 0 157 8 450 17 651 15
325 15 376 2 465 -16 112 -24 143 -38 162 -5 7 -7 15 -4 18 5 6 113 -34 167
-61 14 -7 46 -22 72 -33 59 -27 124 -76 171 -130 42 -50 51 -35 9 17 -41 52
-112 120 -141 136 -43 23 -125 62 -143 68 -25 9 -22 26 5 32 108 26 198 23
264 -8 43 -20 35 2 -9 24 -37 20 -59 23 -158 23 -90 1 -122 -3 -146 -16 -30
-16 -33 -16 -66 1 -28 14 -33 21 -27 37 8 23 68 86 128 137 48 40 39 51 -12
15 -36 -24 -117 -107 -117 -120 0 -4 -6 -8 -13 -8 -10 0 -13 69 -15 338 -5
766 -12 1160 -20 1202 -7 33 -10 -19 -11 -192 0 -130 -5 -239 -9 -242 -5 -3
-14 43 -21 102 -7 59 -16 125 -21 147 -5 22 -12 67 -15 100 -3 32 -12 86 -20
120 -8 33 -19 87 -26 120 -20 109 -32 159 -47 205 -8 25 -18 61 -22 80 -4 19
-11 43 -15 54 -12 28 9 18 71 -34z m-233 5 c40 -28 46 -48 21 -83 -18 -27 -37
-28 -65 -4 -56 45 -62 60 -29 69 11 3 20 14 20 24 0 25 8 24 53 -6z m-2109
-12 c4 -5 11 -8 14 -8 4 0 22 -10 40 -23 32 -23 32 -24 16 -51 -9 -15 -24 -38
-34 -51 l-17 -23 -39 29 c-65 48 -63 45 -41 91 20 40 43 54 61 36z m2209 -144
l5 -37 -39 26 c-45 30 -47 38 -17 88 l22 38 12 -39 c6 -22 13 -56 17 -76z
m-130 0 c-6 -22 0 -24 26 -7 17 10 25 7 60 -25 22 -20 36 -39 31 -42 -6 -4
-10 -13 -10 -21 0 -9 -10 -24 -22 -34 -20 -16 -25 -16 -43 -4 -26 18 -46 18
-39 -1 4 -8 10 -15 16 -15 5 0 16 -7 24 -15 14 -13 12 -19 -13 -55 -15 -22
-33 -40 -40 -40 -6 0 -16 24 -21 53 -6 28 -14 64 -18 80 -4 17 -2 27 5 27 6 0
11 -9 11 -20 0 -19 18 -29 21 -12 12 65 -1 120 -17 77 -9 -23 -33 -18 -38 8
-12 56 -12 97 1 97 7 0 13 5 13 12 0 6 13 -1 29 -16 19 -18 27 -34 24 -47z
m-1505 -38 c45 -31 194 -107 247 -126 28 -9 59 -21 70 -25 11 -4 46 -14 78
-21 l57 -12 16 -56 c9 -31 26 -81 39 -111 73 -177 98 -239 106 -270 10 -34 15
-48 37 -100 6 -14 16 -43 23 -65 6 -22 15 -49 20 -60 4 -11 11 -30 14 -42 4
-13 10 -23 14 -23 10 0 46 83 64 150 8 30 22 84 32 120 9 36 27 101 40 145 26
90 62 232 73 284 6 28 14 36 43 46 45 16 109 56 131 84 27 32 35 26 41 -31 4
-29 16 -118 27 -198 43 -306 50 -368 50 -460 0 -52 -4 -89 -8 -83 -5 7 -29 16
-54 19 -38 5 -49 3 -73 -17 -31 -28 -55 -69 -55 -98 0 -14 -13 -27 -38 -40
-41 -21 -58 -49 -68 -111 -4 -22 -10 -40 -15 -40 -20 0 -59 -81 -59 -123 0
-31 -6 -49 -20 -62 -63 -57 -36 -191 57 -279 34 -32 43 -48 49 -90 9 -67 40
-161 70 -213 29 -51 62 -85 115 -120 l39 -26 0 -239 0 -238 -26 -10 c-31 -12
-94 -13 -94 -2 0 4 6 14 13 21 10 11 8 11 -10 2 -13 -6 -23 -15 -23 -19 0 -20
-77 -34 -225 -38 l-160 -5 40 25 c22 13 54 32 71 41 40 20 77 55 69 63 -4 4
-12 0 -18 -8 -18 -23 -75 -56 -158 -91 -55 -22 -96 -32 -159 -36 -106 -7 -302
5 -294 18 3 6 -5 7 -19 3 l-26 -6 0 404 0 403 72 35 c42 20 93 56 122 85 73
73 152 206 169 288 4 15 11 27 18 27 25 0 95 55 125 98 72 106 81 184 25 232
-24 20 -30 35 -34 76 -5 54 -29 96 -64 112 -14 7 -21 19 -21 40 0 64 -46 122
-97 122 -8 0 -17 14 -21 32 -16 73 -48 108 -97 108 -37 0 -119 -34 -150 -62
-13 -13 -93 -58 -101 -58 -2 0 -4 15 -5 33 -2 81 -76 457 -113 571 -16 52 -12
56 29 27z m1072 5 c0 -2 -8 -10 -17 -17 -16 -13 -17 -12 -4 4 13 16 21 21 21
13z m-1512 -96 c10 -9 7 -20 -13 -53 -14 -23 -29 -48 -34 -56 -11 -18 -34 -5
-83 46 l-37 38 31 52 32 51 45 -34 c25 -18 52 -39 59 -44z m2119 -80 l5 -35
-23 20 c-13 11 -33 30 -46 42 l-22 21 26 29 c15 15 26 29 25 31 -1 1 -2 8 -1
15 1 16 28 -78 36 -123z m-48 -21 c18 -17 31 -33 29 -37 -29 -58 -43 -82 -49
-82 -4 0 -25 16 -46 36 l-40 37 25 38 c14 22 31 39 37 39 7 0 26 -14 44 -31z
m3763 -36 c18 -21 36 -94 45 -178 10 -112 23 -216 48 -400 l7 -50 -19 30 c-11
17 -30 52 -42 78 -13 27 -33 52 -46 57 -21 8 -22 13 -29 235 -4 124 -4 230 -1
235 9 15 20 12 37 -7z m-3892 -34 c0 -13 7 -19 21 -19 12 0 33 -13 47 -28 25
-27 26 -30 12 -55 -8 -15 -21 -27 -27 -27 -7 0 -15 -12 -19 -27 -14 -66 -19
-67 -26 -3 -4 36 -11 93 -16 127 -4 34 -5 60 0 57 4 -3 8 -14 8 -25z m205 -72
l7 -78 -41 38 -42 39 28 52 c17 32 30 47 34 39 4 -6 10 -47 14 -90z m4730 73
c3 -6 -5 -10 -19 -10 -14 0 -28 5 -31 10 -3 6 5 10 19 10 14 0 28 -4 31 -10z
m-6866 -52 c53 -52 53 -52 37 -77 -10 -15 -24 -41 -32 -59 -8 -18 -19 -32 -23
-30 -5 2 -32 25 -60 51 -51 48 -52 49 -41 83 6 19 17 37 24 41 7 5 15 16 19
26 10 26 18 22 76 -35z m7702 -81 c-18 -18 -38 8 -21 28 12 15 14 15 23 0 6
-11 5 -21 -2 -28z m-5612 -1 c38 -39 38 -64 -2 -110 l-24 -28 -37 43 c-20 23
-36 46 -36 51 0 21 43 77 61 78 3 0 20 -15 38 -34z m-1995 2 c3 -13 10 -52 16
-88 6 -36 15 -84 20 -107 4 -24 5 -43 3 -43 -3 0 -34 30 -69 66 l-63 66 37 64
c20 35 40 63 44 64 4 0 10 -10 12 -22z m7626 -38 c0 -5 -5 -10 -12 -10 -6 0
-2 -10 10 -23 12 -13 22 -28 22 -34 0 -6 3 -13 8 -15 18 -8 52 -102 52 -146 0
-40 -5 -53 -35 -84 -34 -38 -60 -46 -112 -32 -62 17 -77 147 -28 239 44 84 95
140 95 105z m-5560 -106 c5 -44 12 -90 15 -104 l6 -25 -18 25 c-10 13 -31 37
-46 53 l-29 30 19 36 c10 20 21 38 26 39 4 2 7 11 7 20 0 39 11 -3 20 -74z
m-134 14 c31 -41 31 -42 13 -61 -11 -12 -19 -24 -19 -29 0 -4 -7 -8 -15 -8 -8
0 -15 -9 -15 -20 0 -11 -4 -20 -9 -20 -11 0 -17 28 -27 113 -6 50 -4 57 10 51
9 -3 16 -1 16 5 0 20 15 11 46 -31z m-1984 -55 c26 -26 48 -52 48 -59 0 -15
-47 -99 -64 -113 -10 -8 -25 1 -64 39 -29 28 -52 55 -52 61 0 14 68 119 77
119 4 0 29 -21 55 -47z m742 26 c28 -13 49 -56 44 -90 -2 -17 -11 -25 -30 -29
-15 -3 -36 -12 -47 -21 -10 -9 -41 -29 -67 -45 -49 -28 -74 -48 -74 -58 0 -8
63 15 80 29 19 15 71 41 133 66 55 22 73 17 107 -31 26 -36 21 -80 -9 -80 -10
0 -24 -7 -31 -15 -7 -8 -19 -15 -26 -15 -8 0 -14 -4 -14 -9 0 -5 -17 -16 -37
-25 -40 -16 -73 -39 -73 -50 0 -11 35 -6 55 7 55 38 140 77 165 77 36 0 68
-32 76 -76 6 -34 -1 -58 -16 -49 -5 3 -12 0 -15 -6 -4 -6 -26 -19 -49 -29 -22
-10 -51 -26 -63 -36 -12 -11 -30 -24 -40 -30 -10 -7 -15 -15 -11 -19 4 -4 43
11 88 34 45 22 92 41 104 41 65 0 88 -91 39 -158 -48 -67 -136 -138 -101 -82
7 11 16 20 20 20 14 0 55 46 63 70 l8 25 -24 -20 c-13 -11 -26 -22 -29 -25 -3
-3 -18 -13 -33 -23 -15 -10 -32 -29 -37 -43 -5 -13 -14 -24 -20 -24 -5 0 -10
-9 -10 -20 0 -19 -6 -35 -55 -145 -55 -122 -160 -241 -235 -265 -118 -37 -145
-55 -220 -148 -14 -17 -50 -50 -80 -73 -30 -24 -87 -76 -126 -117 l-71 -74 -6
38 c-14 84 -19 420 -8 508 9 77 15 94 39 120 44 47 62 78 62 106 0 53 32 207
51 243 11 21 29 65 40 99 42 132 104 234 174 288 57 44 126 90 133 90 5 0 17
8 28 18 19 17 102 62 116 62 4 0 18 -5 32 -11z m1316 -50 c8 -12 25 -34 38
-50 22 -27 22 -28 5 -66 -34 -73 -51 -78 -95 -31 -53 57 -53 75 2 139 29 35
31 35 50 8z m-1936 -264 c18 -171 26 -305 18 -304 -4 1 -29 25 -55 54 -51 56
-52 68 -13 107 18 19 46 74 46 92 0 8 -27 42 -60 75 -33 34 -60 63 -60 66 0 6
11 20 38 50 6 7 12 17 12 20 0 4 10 21 22 38 l23 32 7 -45 c3 -25 13 -108 22
-185z m5919 -43 c-2 -206 -7 -257 -33 -361 -14 -56 -72 -160 -105 -189 -24
-21 -25 -26 -25 -134 1 -65 7 -141 16 -178 8 -36 24 -111 34 -166 11 -56 29
-137 40 -180 69 -257 74 -283 67 -381 -6 -85 -15 -146 -39 -243 -6 -25 -14
-63 -18 -85 -22 -113 -82 -297 -142 -440 -59 -140 -72 -165 -80 -165 -10 0
-85 155 -94 195 -4 17 -10 35 -15 40 -14 19 -47 178 -64 310 -12 102 -17 251
-20 690 -5 609 -7 654 -22 688 -41 88 -53 121 -71 192 -38 152 -42 175 -42
238 0 52 4 66 24 84 20 20 114 63 135 63 16 0 47 -36 72 -85 27 -52 45 -160
28 -170 -5 -4 -9 4 -10 17 0 13 -3 17 -6 11 -9 -24 -33 -14 -33 13 0 15 -15
43 -35 67 -19 22 -35 44 -35 49 0 4 -4 8 -10 8 -5 0 -10 -8 -10 -18 0 -11 -10
-24 -22 -30 -22 -10 -21 -11 10 -11 36 -1 42 -15 12 -33 -11 -7 -20 -16 -20
-20 0 -14 31 -9 47 7 18 19 33 11 33 -19 0 -26 48 -76 73 -76 20 0 63 -63 72
-107 8 -40 24 -43 26 -5 4 57 15 108 29 127 5 6 10 21 12 34 1 13 11 28 21 32
9 5 25 13 35 18 9 4 19 20 22 34 3 15 13 36 22 47 13 14 19 47 24 127 7 108
23 161 62 206 34 39 37 22 35 -201z m-4023 108 c0 -5 5 -10 12 -12 10 -4 -2
-24 -39 -63 -7 -8 -13 -18 -13 -23 0 -6 -6 -12 -14 -15 -15 -6 -26 57 -26 153
l0 55 40 -44 c22 -24 40 -47 40 -51z m129 -63 c1 -52 -1 -57 -14 -43 -8 8 -15
17 -15 21 0 3 -11 18 -25 33 -29 31 -31 45 -10 62 8 7 15 17 15 22 0 5 8 20
18 33 l17 23 7 -47 c3 -25 7 -72 7 -104z m3673 36 c41 -86 49 -112 47 -151 -1
-27 0 -52 2 -58 3 -5 4 -15 3 -21 -1 -7 -2 -17 -3 -23 -2 -17 -21 -11 -22 8
-1 11 -4 8 -8 -8 -7 -24 -8 -23 -19 15 -7 22 -12 50 -12 63 0 13 -15 49 -33
80 -18 31 -39 72 -46 90 -13 31 -41 47 -72 40 -19 -4 -12 34 9 47 30 17 77 31
91 27 7 -3 35 -52 63 -109z m-5778 -30 c25 -27 46 -54 46 -61 0 -14 -66 -122
-75 -122 -6 0 -58 53 -88 90 -18 22 -18 23 -1 56 10 19 22 34 26 34 5 0 8 6 8
13 0 14 19 37 31 37 4 0 28 -21 53 -47z m5653 25 c4 -7 17 -35 29 -61 11 -27
29 -58 39 -70 12 -14 21 -43 23 -78 4 -51 2 -58 -17 -64 -15 -4 -21 -15 -21
-36 0 -18 -4 -28 -10 -24 -5 3 -10 23 -10 43 0 40 -59 166 -96 207 -20 21 -25
23 -58 13 -48 -15 -57 -3 -21 30 49 44 125 65 142 40z m-3627 -26 c0 -5 8 -17
18 -28 9 -10 23 -31 31 -46 12 -24 11 -31 -14 -77 -16 -28 -34 -51 -40 -51
-18 0 -85 85 -85 107 0 11 8 28 19 39 10 11 24 30 30 42 11 21 41 31 41 14z
m-503 -14 c15 -7 37 -21 48 -31 11 -11 31 -26 45 -35 53 -34 206 -149 218
-165 27 -32 36 -149 33 -397 -1 -151 1 -255 8 -270 5 -14 10 -19 10 -12 1 6 5
12 10 12 31 0 43 -241 22 -425 -6 -49 -11 -117 -11 -149 0 -33 -5 -86 -12
-117 l-12 -57 -48 71 c-26 40 -48 77 -48 83 0 6 -7 17 -15 24 -9 7 -22 27 -31
45 -8 18 -23 41 -32 52 -30 33 -124 175 -126 190 -1 7 -18 21 -37 31 -36 18
-47 26 -97 72 -67 62 -122 182 -122 269 0 34 -4 61 -10 61 -5 0 -10 15 -10 34
0 27 -7 39 -35 60 -38 29 -45 24 -19 -12 25 -36 8 -38 -26 -3 -25 24 -33 44
-39 88 -16 117 40 146 152 78 32 -19 70 -38 85 -41 24 -6 23 -3 -13 23 -22 16
-71 44 -108 61 -84 41 -98 64 -70 118 26 51 67 68 111 47 17 -8 42 -25 54 -38
28 -27 137 -79 146 -69 4 4 1 9 -6 11 -7 3 -18 10 -25 16 -11 11 -26 20 -102
61 -10 6 -30 21 -44 34 -14 12 -34 22 -43 22 -10 0 -18 6 -18 14 0 22 18 66
34 82 15 14 92 20 98 7 3 -8 54 -36 162 -90 26 -13 51 -21 54 -18 9 8 -33 40
-84 64 -23 11 -48 26 -55 33 -26 25 -74 52 -87 50 -34 -8 -21 55 21 101 29 31
35 32 74 15z m596 -223 c7 -129 9 -126 -39 -59 -11 15 -25 33 -33 41 -13 13
-12 20 4 49 10 18 26 42 36 53 11 11 19 26 19 32 0 7 2 10 4 8 2 -2 6 -58 9
-124z m-159 58 c20 -25 36 -50 36 -55 0 -15 -64 -97 -77 -98 -6 0 -13 7 -15
16 -6 30 3 184 11 184 5 0 25 -21 45 -47z m-1935 -95 c22 -24 41 -49 41 -57 0
-14 -34 -73 -59 -103 -12 -14 -16 -14 -27 -3 -8 7 -17 15 -21 17 -5 1 -20 19
-34 38 l-27 36 24 39 c14 22 27 48 30 58 10 27 30 20 73 -25z m2050 -57 c21
-30 22 -37 11 -55 -8 -12 -20 -33 -27 -47 -24 -47 -41 -55 -62 -28 -10 13 -28
35 -40 48 -25 28 -26 44 -6 65 8 8 15 18 15 23 0 4 12 21 26 36 29 32 30 31
83 -42z m3673 43 c-2 -10 -8 -23 -13 -28 -11 -12 -23 19 -15 40 8 22 32 11 28
-12z m-14 -68 c1 -2 -4 -16 -13 -32 -8 -16 -15 -23 -15 -16 0 7 -7 20 -15 28
-24 24 -18 37 12 29 16 -4 29 -8 31 -9z m1412 5 c0 -5 -19 -29 -42 -54 -24
-25 -56 -66 -71 -91 -16 -26 -33 -44 -38 -41 -5 4 -6 -1 -3 -9 3 -8 -3 -28
-14 -43 -11 -15 -35 -55 -53 -88 -67 -123 -85 -154 -111 -200 -16 -26 -28 -52
-28 -57 0 -5 -6 -19 -14 -31 -12 -18 -86 -184 -128 -287 -6 -14 -16 -36 -23
-50 -6 -14 -20 -52 -29 -85 -9 -33 -21 -67 -25 -75 -15 -28 -61 -198 -61 -224
0 -14 -4 -26 -9 -26 -6 0 -10 -8 -10 -17 0 -10 -5 -65 -11 -123 -9 -72 -10
-197 -6 -400 3 -162 9 -430 12 -595 5 -210 3 -341 -6 -435 -7 -74 -14 -153
-16 -175 -4 -47 -22 -207 -29 -250 -2 -16 -9 -79 -15 -140 -6 -60 -15 -141
-20 -180 -5 -38 -12 -103 -16 -143 -4 -40 -11 -75 -15 -78 -5 -3 -9 1 -9 8 -1
7 -6 3 -13 -9 -11 -20 -98 -83 -113 -83 -3 0 -3 24 1 53 4 37 3 48 -4 37 -6
-8 -11 -36 -11 -62 0 -33 -4 -48 -13 -48 -14 0 -14 0 17 280 9 80 18 152 21
160 7 22 22 125 45 300 11 85 26 193 34 239 8 46 20 191 27 322 7 132 16 239
21 239 4 0 8 -15 9 -32 l1 -33 8 28 c5 15 5 39 1 54 -7 25 -8 26 -16 8 -14
-35 -24 36 -35 246 -5 108 -14 259 -21 335 -13 155 -6 383 15 484 13 65 57
209 81 265 7 17 20 48 28 70 8 22 31 74 50 115 19 41 40 92 48 113 7 20 17 37
21 37 4 0 8 6 8 13 0 33 239 477 261 485 5 2 9 8 9 13 0 22 71 120 82 113 6
-4 8 -3 5 4 -10 15 25 72 45 72 9 0 20 5 23 10 3 6 15 10 26 10 10 0 19 4 19
8 0 5 19 15 43 22 23 7 46 17 52 22 12 10 15 10 15 -1z m-7062 -73 c-13 -92
-13 -92 -47 -72 -31 18 -30 32 2 66 7 7 20 25 30 41 10 15 19 27 21 27 1 0 -1
-28 -6 -62z m1829 40 c-3 -8 -6 -5 -6 6 -1 11 2 17 5 13 3 -3 4 -12 1 -19z
m211 -179 l-3 -62 -41 59 -41 59 21 35 c12 20 30 45 41 55 20 20 20 20 23 -32
2 -29 2 -80 0 -114z m-185 139 c7 -7 25 -30 40 -51 l29 -38 -34 -42 c-19 -23
-40 -51 -46 -62 -9 -16 -11 3 -12 93 0 61 3 112 6 112 3 0 11 -6 17 -12z
m6015 -20 c2 -4 13 -8 25 -8 12 0 28 -4 36 -9 12 -8 12 -12 2 -25 -8 -9 -20
-16 -27 -16 -8 0 -14 -3 -14 -7 0 -5 -17 -26 -38 -49 -58 -64 -126 -144 -136
-162 -5 -9 -19 -25 -30 -37 -12 -11 -25 -27 -31 -36 -5 -8 -50 -75 -98 -148
-48 -73 -92 -142 -98 -154 -11 -27 -30 -57 -46 -75 -7 -7 -13 -18 -13 -23 0
-5 -16 -33 -35 -63 -19 -30 -35 -61 -36 -68 0 -7 -9 -26 -19 -43 -51 -83 -142
-289 -169 -380 -7 -22 -16 -49 -21 -60 -8 -20 -22 -72 -41 -150 -26 -112 -83
-616 -78 -690 1 -11 -4 -99 -9 -195 -6 -96 -14 -281 -17 -410 -7 -303 -11
-334 -38 -359 -55 -49 -95 -81 -104 -81 -10 0 -8 73 7 260 6 69 15 229 20 355
5 127 13 284 16 350 4 66 4 117 0 114 -6 -6 -10 -48 -21 -259 -3 -52 -12 -203
-20 -335 -9 -132 -18 -301 -21 -375 -6 -128 -8 -149 -18 -139 -6 5 21 675 30
749 7 64 7 68 29 380 8 129 19 262 24 295 47 324 71 455 83 455 4 0 8 9 8 21
0 81 164 458 318 729 73 129 235 374 272 412 8 8 28 33 45 54 16 21 66 76 109
121 76 78 81 81 115 76 20 -4 38 -10 39 -15z m462 -14 c-47 -18 -109 -50 -135
-71 -57 -47 -185 -177 -185 -188 0 -7 -9 -20 -21 -31 -21 -19 -129 -171 -129
-182 0 -3 -6 -13 -14 -21 -8 -9 -33 -50 -57 -91 -23 -41 -45 -77 -48 -80 -3
-3 -14 -21 -23 -40 -15 -31 -30 -59 -72 -135 -39 -72 -86 -171 -86 -182 0 -7
-4 -13 -10 -13 -5 0 -10 -6 -10 -14 0 -7 -15 -47 -34 -87 -19 -41 -41 -93 -49
-114 -78 -212 -103 -294 -116 -385 -19 -125 -41 -396 -46 -580 l-6 -185 -43
-3 -43 -3 -13 46 c-16 56 -35 60 -26 5 l6 -40 -46 0 -46 0 7 188 c4 103 11
194 15 202 4 8 10 67 14 130 7 131 35 316 61 405 9 33 23 83 30 110 17 68 53
154 151 366 31 68 60 126 64 129 3 3 16 28 29 55 27 59 156 271 183 301 10 11
18 24 18 28 0 5 23 39 50 77 28 38 50 71 50 74 0 2 11 17 24 32 90 103 118
133 176 192 92 95 102 100 212 103 51 2 113 4 138 5 25 1 38 0 30 -3z m-340
-7 c0 -2 -37 -41 -82 -88 -46 -46 -96 -102 -112 -124 -17 -22 -33 -42 -36 -45
-3 -3 -21 -25 -40 -50 -19 -25 -37 -47 -41 -50 -3 -3 -12 -16 -19 -30 -7 -14
-19 -32 -26 -40 -21 -23 -100 -143 -120 -181 -9 -19 -20 -36 -23 -39 -4 -3
-15 -21 -24 -40 -10 -19 -26 -49 -36 -66 -117 -194 -269 -554 -300 -709 -5
-27 -17 -84 -26 -125 -23 -108 -34 -212 -55 -515 -8 -112 -39 -888 -40 -982 0
-7 -6 -13 -14 -13 -9 0 -12 10 -11 28 2 15 6 131 9 257 8 298 26 722 31 760 3
17 12 107 20 200 21 235 50 392 103 545 9 25 18 50 22 55 3 6 15 37 25 70 11
33 25 67 32 76 7 8 13 19 13 24 0 16 148 305 208 405 54 90 57 95 62 100 12
12 70 112 70 121 0 5 4 9 8 9 4 0 16 15 27 33 10 17 27 41 37 51 10 11 18 23
18 27 0 4 6 14 13 21 7 7 26 31 42 53 77 102 265 288 265 262z m-1221 -44
c-12 -21 -28 -45 -34 -53 -7 -8 -23 -35 -36 -60 -13 -25 -27 -47 -30 -50 -4
-4 -46 -75 -131 -225 -24 -41 -58 -115 -58 -125 0 -5 -4 -10 -10 -10 -5 0 -10
-7 -10 -15 0 -8 -4 -15 -10 -15 -5 0 -10 -6 -10 -12 0 -16 -82 -182 -92 -186
-5 -2 -8 -8 -8 -12 0 -5 -19 -37 -43 -72 -60 -87 -127 -202 -127 -216 0 -7
-11 -35 -25 -64 -14 -28 -25 -59 -26 -67 0 -9 -7 0 -15 19 -9 19 -21 47 -27
63 -7 15 -15 27 -19 27 -5 0 -8 8 -8 18 0 10 -5 23 -11 29 -13 13 -5 55 14 75
7 7 23 29 34 48 20 32 34 51 73 97 5 7 10 15 10 19 0 4 9 17 19 28 11 12 74
129 140 260 66 132 124 242 129 245 5 3 19 22 33 42 58 87 178 196 250 228 24
11 45 20 47 20 2 1 -6 -16 -19 -36z m1704 -8 c40 -25 89 -62 109 -83 72 -74
98 -105 98 -118 0 -8 4 -14 8 -14 5 0 14 -16 22 -35 8 -19 17 -35 20 -35 4 0
12 -15 17 -32 6 -18 23 -64 38 -103 14 -38 36 -124 47 -190 40 -224 28 -679
-27 -1040 -15 -95 -26 -190 -30 -240 -5 -79 -28 -232 -37 -250 -31 -58 -315
-356 -543 -568 -155 -144 -407 -349 -590 -479 -119 -85 -369 -248 -380 -248
-3 0 -28 48 -57 107 -28 60 -54 110 -57 113 -4 3 -13 19 -19 35 -7 17 -24 44
-37 59 -14 16 -25 32 -25 35 0 3 16 17 35 30 19 13 45 33 58 45 13 11 59 53
102 91 108 97 355 344 355 356 0 5 7 9 15 9 8 0 15 5 15 11 0 20 52 57 94 68
79 19 248 -48 329 -131 10 -10 22 -18 27 -18 11 0 -14 33 -43 59 -59 51 -78
64 -137 94 -53 26 -77 32 -132 32 -38 0 -68 3 -68 7 0 19 25 58 37 58 7 0 13
5 13 10 0 6 7 10 16 10 14 0 127 63 169 94 87 65 179 150 208 190 28 40 8 30
-50 -24 -56 -53 -146 -120 -161 -120 -6 0 -12 -4 -14 -9 -5 -12 -83 -59 -111
-66 -35 -9 -42 20 -22 97 15 60 20 97 50 368 29 266 75 540 139 830 7 36 21
85 29 110 8 25 18 63 21 85 6 35 5 38 -7 23 -7 -9 -19 -34 -25 -55 -50 -162
-84 -285 -94 -341 l-13 -67 -5 155 c-7 209 -19 151 -29 -141 -5 -125 -12 -232
-16 -239 -4 -6 -11 -39 -16 -73 -34 -249 -59 -456 -65 -537 -5 -64 -13 -105
-26 -125 -10 -16 -18 -49 -18 -72 l0 -41 -77 -7 c-43 -4 -87 -9 -98 -11 -11
-3 -15 -2 -9 3 14 11 44 55 44 65 0 4 -19 -10 -41 -31 -44 -41 -85 -54 -143
-44 -32 5 -35 9 -38 42 -7 83 28 678 41 696 4 6 13 42 20 80 14 77 80 281 115
360 47 103 56 126 56 140 0 8 5 15 10 15 6 0 10 6 10 13 0 11 96 207 137 282
89 158 117 206 129 216 8 6 14 16 14 21 0 6 20 39 45 75 25 35 45 68 45 73 0
6 4 10 8 10 5 0 24 22 43 50 19 27 37 50 42 50 4 0 7 6 7 13 0 11 111 130 159
169 42 35 129 75 168 77 12 0 55 -19 96 -44z m-1401 -68 c39 -29 120 -39 213
-26 44 6 89 15 100 19 11 5 62 21 113 36 50 15 92 31 92 35 0 4 12 12 28 17
15 5 36 13 46 18 14 5 9 -4 -15 -31 -19 -21 -62 -50 -99 -67 -96 -44 -321 -93
-375 -82 -46 9 -118 34 -132 46 -7 6 -13 6 -13 1 0 -14 86 -54 129 -60 46 -6
185 11 249 31 26 9 75 24 109 34 l62 20 -68 -87 c-78 -98 -191 -265 -191 -281
0 -5 -4 -10 -9 -10 -5 0 -11 -8 -15 -17 -3 -10 -16 -34 -27 -53 -61 -97 -169
-309 -169 -331 0 -5 -4 -9 -9 -9 -5 0 -12 -13 -16 -30 -4 -16 -11 -32 -16 -35
-5 -4 -9 -13 -9 -20 0 -8 -11 -38 -24 -67 -13 -29 -32 -75 -41 -103 -10 -27
-24 -64 -31 -81 -14 -32 -40 -129 -53 -199 -5 -22 -13 -58 -19 -80 -6 -22 -20
-121 -31 -220 -12 -99 -26 -205 -31 -235 -5 -30 -12 -128 -16 -217 l-7 -163
-37 0 c-22 0 -43 7 -50 15 -9 11 -16 13 -24 5 -13 -13 -31 -13 -78 1 -29 7
-38 15 -39 32 l-2 22 -4 -22 c-5 -24 -36 -32 -48 -13 -3 6 -17 10 -29 10 -13
0 -28 6 -33 13 -14 17 -34 378 -33 602 1 201 18 400 43 500 28 113 114 367
137 408 6 9 17 39 26 65 18 54 195 415 206 420 5 2 8 10 8 17 0 7 15 35 33 61
18 27 41 67 52 89 11 22 27 47 35 55 9 8 21 28 28 44 l13 29 22 -44 c12 -23
34 -52 49 -62z m-5098 -2 c37 -56 44 -75 26 -75 -5 0 -10 -5 -10 -10 0 -16
-49 -90 -60 -90 -5 0 -18 17 -29 38 -11 21 -26 44 -35 51 -9 7 -12 19 -8 29 6
15 73 112 78 112 0 0 18 -25 38 -55z m-2064 -21 c-26 -80 -37 -422 -20 -631
18 -217 21 -869 5 -1023 -7 -69 -20 -195 -29 -281 -8 -86 -18 -162 -20 -170
-3 -8 -10 -48 -15 -89 -16 -125 -43 -305 -47 -309 -3 -3 -21 12 -42 32 l-38
38 12 77 c7 42 18 120 24 172 6 52 17 147 25 210 29 224 32 256 36 345 6 133
5 449 -3 905 -6 394 2 631 23 638 5 2 9 15 9 28 0 38 18 64 53 79 18 7 33 12
35 11 1 -2 -2 -16 -8 -32z m-132 -119 c-6 -44 -11 -86 -11 -92 -1 -20 -13 -15
-27 12 -7 14 -17 25 -22 25 -4 0 -8 5 -8 10 0 6 -9 19 -21 31 l-21 21 27 28
c20 21 81 52 92 46 1 -1 -3 -37 -9 -81z m2262 -65 c0 -117 -1 -120 -20 -108
-11 7 -25 25 -31 40 -6 16 -14 28 -18 28 -3 0 -12 9 -19 21 -11 18 -11 23 6
37 10 9 21 22 23 28 4 11 52 74 57 74 1 0 2 -54 2 -120z m-162 60 c37 -57 37
-57 17 -77 -13 -12 -20 -12 -43 -2 -26 11 -27 15 -24 70 2 33 7 59 10 59 4 0
22 -23 40 -50z m-2254 -2 c-12 -19 -47 -60 -72 -84 -19 -18 -22 -30 -18 -70 2
-27 5 -61 5 -76 1 -41 21 -34 21 7 0 19 5 35 10 35 6 0 10 -4 10 -9 0 -5 12
-23 26 -41 25 -29 25 -32 10 -49 -9 -10 -16 -21 -16 -25 0 -4 -12 -19 -26 -34
l-26 -27 5 28 c6 39 -19 35 -27 -4 -10 -50 -7 -187 4 -194 9 -6 15 29 11 63
-1 6 3 12 9 12 5 0 10 -5 10 -11 0 -6 15 -29 34 -52 l34 -42 -42 -55 -41 -55
-3 33 c-2 17 -7 32 -11 32 -14 0 -23 -105 -16 -165 9 -66 25 -83 25 -26 0 23
3 41 8 41 4 0 20 -18 36 -40 17 -22 33 -40 38 -40 10 0 10 -27 0 -32 -4 -1
-23 -25 -42 -52 l-35 -49 -5 39 c-3 24 -8 34 -13 27 -12 -19 -19 -113 -12
-171 7 -58 25 -61 25 -5 l0 37 30 -29 c17 -16 30 -34 30 -41 0 -7 7 -17 17
-22 14 -8 14 -12 2 -26 -30 -36 -35 -42 -53 -70 -22 -35 -35 -21 -36 39 0 28
-3 35 -9 25 -5 -8 -12 -87 -15 -175 -4 -88 -11 -198 -15 -245 -21 -198 -41
-406 -41 -420 0 -11 -5 -10 -20 5 -21 22 -20 46 9 280 12 88 41 832 42 1045 0
130 4 185 29 460 15 167 24 196 63 220 36 22 62 26 51 8z m47 -28 c5 0 20 -18
34 -40 27 -43 25 -58 -14 -106 -14 -17 -31 -39 -38 -50 -12 -19 -13 -19 -27 1
-9 11 -19 25 -24 31 -32 37 -40 77 -19 99 6 8 26 32 42 55 21 29 31 37 33 26
2 -9 8 -16 13 -16z m2289 -97 c0 -7 -4 -13 -8 -13 -13 0 -43 36 -36 43 9 9 44
-16 44 -30z m-2206 -116 c0 -61 -1 -118 -2 -124 -3 -19 -22 -16 -29 5 -4 9
-19 33 -35 52 -34 42 -34 47 -2 85 14 16 34 44 45 62 11 18 21 33 22 33 1 0 2
-51 1 -113z m2133 81 c69 -76 86 -387 49 -883 -9 -126 -19 -381 -22 -565 -6
-317 -1 -438 26 -745 5 -55 12 -137 16 -183 l7 -83 -29 7 c-49 12 -62 22 -74
61 -7 21 -18 52 -25 68 -7 17 -18 50 -25 75 -7 25 -16 55 -21 68 -5 13 -9 33
-9 46 0 12 -8 49 -19 82 -10 32 -24 93 -31 134 -35 206 -41 252 -50 340 -26
262 -50 870 -36 907 6 15 10 14 31 -10 25 -26 25 -28 25 -224 0 -206 10 -373
34 -578 26 -214 36 -304 46 -423 6 -64 15 -146 20 -182 5 -36 12 -85 15 -110
4 -25 10 -54 15 -65 4 -11 14 -36 21 -55 16 -44 39 -80 50 -80 12 0 11 36 0
74 -18 59 -42 231 -67 475 -19 179 -15 572 6 806 6 66 18 203 26 305 8 102 16
205 19 230 2 25 7 113 11 195 7 160 -2 233 -35 299 -22 42 -7 50 26 14z m132
-75 c2 -1 -3 -17 -11 -34 l-16 -31 -11 35 c-7 19 -19 41 -27 47 -40 34 18 19
65 -17z m-1673 -638 c-6 -596 -15 -868 -36 -1070 -6 -55 -17 -217 -26 -360 -8
-143 -19 -287 -24 -320 -4 -33 -9 -84 -9 -112 -1 -29 -4 -53 -8 -53 -5 0 -22
13 -38 28 l-30 29 12 154 c7 85 17 215 23 289 6 74 13 338 15 585 2 248 7 587
9 755 3 168 2 382 -2 475 l-7 170 55 53 55 53 9 -33 c5 -19 6 -297 2 -643z
m1741 548 l36 -57 -23 -43 c-26 -48 -41 -54 -59 -20 -6 12 -23 37 -36 56 -14
19 -21 37 -17 40 5 3 17 23 27 44 9 20 21 37 26 37 5 0 26 -26 46 -57z m-2416
0 c8 -14 26 -39 41 -55 24 -26 25 -30 12 -56 -7 -15 -29 -45 -49 -67 l-36 -40
-29 35 c-16 19 -37 44 -48 55 -19 20 -19 21 27 87 25 38 51 68 57 68 6 0 17
-12 25 -27z m2495 19 c6 -4 14 -18 17 -32 3 -14 13 -51 21 -82 22 -78 36 -232
26 -293 -29 -184 -37 -1076 -11 -1390 16 -197 40 -420 51 -467 13 -59 13 -58
-14 -58 -22 0 -26 6 -34 53 -20 109 -31 206 -38 327 -3 69 -11 130 -16 137
-16 20 -15 759 2 1043 8 140 15 328 14 416 -1 156 -18 309 -35 320 -11 6 -12
34 -1 34 4 0 12 -4 18 -8z m-136 -239 c-12 -24 -27 -43 -31 -43 -5 0 -9 39 -9
87 l0 86 31 -43 32 -44 -23 -43z m124 11 l7 -69 -25 30 c-14 17 -25 34 -26 39
0 5 -7 14 -16 21 -14 10 -14 14 -2 26 7 8 19 28 27 44 l14 30 7 -26 c4 -14 10
-56 14 -95z m-2402 -33 l-3 -110 -30 30 c-57 59 -61 70 -36 109 12 18 27 41
32 49 6 9 14 22 18 29 17 26 22 0 19 -107z m433 22 c5 -49 8 -115 7 -148 0
-33 -3 -337 -6 -675 -4 -338 -11 -691 -18 -785 -6 -93 -13 -190 -14 -215 -5
-96 -15 -237 -21 -277 -5 -38 -7 -41 -24 -33 -17 9 -18 20 -13 108 3 53 11
162 19 242 18 183 23 279 35 678 12 366 14 976 4 1063 -7 61 1 129 15 129 5 0
12 -39 16 -87z m1331 -41 c20 -31 40 -59 44 -62 26 -18 29 -62 28 -416 -1
-372 3 -547 22 -904 11 -217 25 -525 41 -880 5 -129 17 -358 25 -509 8 -151
12 -276 10 -278 -3 -3 -39 11 -84 33 -1 0 -7 104 -13 230 -29 628 -56 1148
-64 1219 -3 28 -12 205 -20 395 -9 190 -17 350 -19 356 -2 6 -7 139 -10 295
-4 156 -9 353 -12 438 -4 110 -3 151 5 146 6 -3 28 -32 47 -63z m596 3 l34
-50 -23 -40 c-44 -79 -57 -90 -67 -57 -4 10 -15 27 -25 39 -28 30 -34 59 -16
76 8 9 15 19 15 24 0 9 42 65 45 60 1 -1 18 -24 37 -52z m-1994 -268 l-3 -49
-34 49 c-21 29 -36 43 -39 35 -4 -12 50 -99 71 -113 4 -3 -7 -21 -25 -40 -18
-19 -44 -48 -57 -64 l-23 -30 6 34 c3 18 6 44 6 56 0 15 8 25 23 29 21 6 21 7
3 21 -17 13 -18 24 -12 137 6 99 11 128 27 150 10 15 25 40 31 55 10 24 13 12
20 -97 5 -69 7 -147 6 -173z m-454 234 c6 -10 24 -35 40 -55 26 -33 27 -39 16
-66 -7 -17 -16 -30 -20 -30 -5 0 -18 -16 -30 -36 -22 -34 -23 -35 -42 -17 -37
33 -79 102 -71 116 17 29 88 115 92 111 2 -2 9 -12 15 -23z m6284 -68 c28 -75
35 -128 29 -216 -7 -101 -34 -280 -47 -312 -4 -11 -16 -58 -25 -105 -10 -47
-26 -110 -35 -140 -10 -30 -28 -86 -40 -125 -13 -38 -33 -93 -46 -122 -13 -28
-24 -57 -24 -63 0 -7 -11 -33 -24 -59 -14 -25 -48 -95 -77 -156 -30 -60 -58
-115 -64 -122 -5 -6 -26 -40 -45 -74 -19 -34 -51 -79 -70 -100 -19 -21 -42
-48 -50 -59 -19 -27 -81 -60 -114 -60 -19 0 -27 6 -30 23 -25 133 -30 184 -30
322 0 174 27 513 50 640 9 44 20 109 25 145 14 100 39 218 54 253 13 30 14 25
14 -68 0 -57 -6 -126 -14 -160 -16 -62 -41 -220 -56 -340 -4 -38 -10 -83 -13
-100 -3 -16 -11 -119 -17 -229 -10 -160 -10 -214 1 -279 7 -44 13 -93 12 -108
-1 -38 27 -45 72 -18 20 11 36 24 36 27 0 4 16 24 36 45 19 20 32 37 28 37 -3
0 5 15 18 33 40 53 148 253 148 275 0 6 5 12 10 12 6 0 10 5 10 10 0 6 15 43
33 83 39 83 117 280 117 294 0 6 14 50 30 99 17 49 33 100 35 114 2 14 9 48
15 75 6 28 13 68 17 90 3 22 10 45 14 51 5 6 13 66 19 132 8 99 7 135 -5 193
-8 39 -18 75 -21 80 -3 5 -1 9 4 9 5 0 14 -12 20 -27z m-3924 -43 c31 -47 31
-50 8 -76 -10 -10 -26 -30 -36 -44 l-18 -25 6 25 c3 14 6 55 6 93 0 37 2 67 4
67 2 0 15 -18 30 -40z m135 -43 c-3 -97 -7 -105 -35 -63 -13 19 -24 40 -24 45
0 6 -6 11 -12 11 -7 0 -5 5 5 11 9 5 17 17 17 24 0 8 4 15 9 15 5 0 11 9 14
21 3 12 10 18 17 14 7 -4 10 -34 9 -78z m-2400 -94 c-1 -122 -2 -127 -18 -103
-9 14 -31 40 -48 59 -18 20 -33 40 -33 46 0 10 88 125 96 125 3 0 4 -57 3
-127z m6508 71 c-38 -103 -74 -269 -81 -374 -4 -65 7 -296 20 -400 10 -79 -6
-55 -17 27 -26 182 -31 225 -37 313 -10 144 16 276 81 403 41 82 58 97 34 31z
m-4147 -78 c0 -8 6 -16 13 -19 9 -3 9 -10 -3 -33 -17 -35 -80 -108 -80 -94 0
5 -16 32 -35 59 -32 44 -34 51 -20 64 8 9 15 19 15 22 0 4 12 22 28 40 l27 33
28 -29 c15 -15 27 -35 27 -43z m3937 -73 c42 -83 48 -103 42 -133 -13 -65 -20
-216 -9 -200 7 11 10 1 9 -35 0 -47 -15 -122 -37 -190 -6 -16 -20 -70 -32
-120 -20 -86 -66 -225 -96 -292 -8 -17 -14 -34 -14 -37 0 -3 -18 -48 -41 -98
-22 -51 -45 -104 -51 -118 -6 -14 -14 -32 -19 -40 -5 -8 -21 -40 -36 -70 -15
-30 -37 -69 -50 -86 -13 -17 -23 -34 -23 -39 0 -17 -107 -154 -162 -207 -61
-60 -72 -65 -98 -47 -12 9 -13 11 -1 16 7 3 21 13 30 22 9 9 28 25 43 37 29
23 110 127 148 189 13 22 28 42 32 43 4 2 8 12 8 23 0 10 5 19 10 19 6 0 10 6
10 14 0 8 3 16 8 18 7 3 67 121 117 233 31 68 76 185 113 295 13 41 33 98 42
125 27 76 50 159 50 182 0 11 7 37 15 56 8 20 15 46 15 59 0 21 0 21 -15 2 -8
-10 -15 -28 -15 -40 0 -39 -78 -313 -110 -389 -5 -11 -20 -54 -35 -95 -15 -41
-33 -88 -40 -105 -7 -16 -18 -41 -23 -55 -28 -64 -42 -96 -51 -110 -5 -8 -17
-33 -27 -55 -11 -22 -22 -42 -26 -45 -4 -3 -15 -23 -25 -45 -46 -101 -171
-278 -228 -324 -64 -49 -95 -31 -150 84 -28 60 -30 71 -16 74 38 8 102 55 147
108 27 31 54 61 60 67 5 6 34 54 63 106 29 52 57 102 62 110 22 36 69 136 69
148 0 6 5 12 10 12 6 0 10 6 10 14 0 8 18 54 40 101 22 47 40 92 40 99 0 7 3
15 6 19 10 10 54 137 63 182 19 90 34 151 42 170 20 48 54 240 65 367 4 43 8
78 9 78 2 0 25 -44 52 -97z m-6397 44 c0 -7 13 -26 29 -41 46 -44 49 -85 8
-128 -7 -7 -21 -26 -31 -42 l-19 -30 -24 30 c-30 37 -34 43 -56 77 -18 28 -18
28 15 70 65 83 78 93 78 64z m2371 -124 c10 -19 7 -27 -22 -65 l-34 -42 -3 44
c-2 25 0 65 3 90 l7 44 18 -24 c11 -14 24 -35 31 -47z m109 -23 c0 -47 -4 -80
-10 -80 -5 0 -10 6 -10 13 0 6 -11 25 -24 42 l-24 29 31 38 c17 21 32 38 34
38 2 0 3 -36 3 -80z m-2020 -240 c-1 -180 -5 -312 -11 -315 -5 -4 -9 -67 -9
-142 0 -119 -2 -134 -15 -123 -8 7 -15 17 -15 22 0 5 -7 16 -15 24 -8 8 -19
22 -23 31 -5 8 -14 14 -20 12 -8 -3 -7 -12 3 -29 8 -14 17 -32 21 -40 12 -26
36 -50 45 -44 5 3 9 -54 9 -125 0 -72 -4 -131 -8 -131 -4 0 -25 20 -46 45 -20
25 -41 43 -46 40 -13 -8 0 -35 31 -70 l28 -29 -21 -41 c-11 -22 -27 -52 -34
-67 -15 -29 -19 -68 -6 -68 5 0 19 24 33 53 13 28 26 54 29 57 3 3 11 16 18
30 10 21 11 3 7 -100 -9 -180 -10 -182 -53 -120 -19 27 -39 50 -43 50 -14 0
-11 -10 20 -59 l28 -47 -21 -48 -22 -49 -59 57 c-37 36 -55 59 -47 62 6 3 12
10 12 16 0 6 11 26 25 44 18 23 22 35 13 40 -13 8 -55 -40 -64 -73 -6 -24 -24
-32 -24 -10 0 6 7 39 15 72 8 33 14 79 15 103 0 23 3 42 8 42 4 0 18 -28 32
-62 14 -34 32 -64 40 -66 9 -3 11 0 6 14 -42 102 -66 183 -61 202 3 13 17 35
31 49 33 32 25 66 -8 37 -21 -19 -21 -19 -13 6 4 14 9 43 10 65 1 22 5 54 8
70 4 17 11 77 17 135 21 244 38 352 58 374 11 11 29 32 40 46 11 14 30 36 41
49 22 26 27 41 12 41 -11 0 -81 -79 -81 -91 0 -5 -5 -9 -11 -9 -15 0 -4 70 13
82 10 8 10 11 1 15 -14 5 -16 37 -6 96 l6 39 29 -47 c26 -42 52 -64 63 -53 7
7 -60 97 -77 103 -23 8 -13 31 35 85 20 23 37 47 37 51 0 5 5 9 10 9 7 0 10
-105 10 -310z m1300 253 c0 -21 3 -48 6 -60 5 -19 1 -22 -43 -28 -26 -4 -64
-11 -83 -16 -115 -30 -679 -50 -845 -30 l-50 6 0 65 c0 53 3 64 15 61 8 -2
103 -8 210 -13 156 -8 236 -6 400 7 113 9 212 19 220 22 16 6 109 19 148 22
19 1 22 -4 22 -36z m-1662 -174 l-3 -61 -44 52 -44 52 18 34 c10 19 22 34 27
34 4 0 8 7 8 15 0 8 4 15 9 15 5 0 13 10 18 23 9 26 16 -66 11 -164z m2316
124 c3 -10 17 -33 31 -52 14 -19 25 -39 25 -45 0 -6 -20 -33 -43 -60 l-44 -49
-24 34 c-48 67 -48 71 -22 112 28 45 55 77 64 77 4 0 9 -8 13 -17z m-654 -117
c0 -32 -3 -34 -47 -45 -27 -7 -102 -30 -168 -51 -66 -21 -138 -41 -160 -45
-22 -4 -44 -11 -50 -15 -37 -29 -256 -37 -289 -11 -6 4 -22 11 -36 14 -64 13
-237 60 -252 68 -12 6 -18 21 -18 42 l0 32 332 0 c263 0 366 4 488 19 85 10
157 20 159 22 2 2 13 4 23 4 14 0 18 -8 18 -34z m-1728 -28 c19 -24 38 -48 42
-55 7 -13 -19 -73 -32 -73 -4 0 -16 -13 -25 -30 -25 -42 -47 -38 -80 15 -16
25 -33 45 -38 45 -20 0 -7 33 34 84 23 30 47 55 53 55 7 1 27 -18 46 -41z
m2284 -2 c8 -8 14 -18 14 -23 0 -4 9 -19 19 -32 18 -24 18 -24 -16 -70 -20
-25 -38 -47 -42 -49 -3 -1 -5 41 -3 93 2 52 6 95 8 95 3 0 12 -6 20 -14z m150
-73 c-3 -38 -5 -74 -6 -82 0 -8 -13 3 -29 25 -24 31 -27 42 -19 59 11 19 50
64 56 65 2 0 1 -30 -2 -67z m-3306 36 c0 -6 -4 -7 -10 -4 -5 3 -10 11 -10 16
0 6 5 7 10 4 6 -3 10 -11 10 -16z m2604 -21 c3 -13 6 -61 6 -108 l0 -86 -87 8
c-89 7 -319 41 -383 56 l-34 8 29 11 c17 6 52 16 80 23 27 6 54 15 60 19 5 4
37 14 70 21 33 7 64 17 70 22 5 4 20 8 33 8 13 0 33 5 45 12 21 11 68 25 93
27 7 1 14 -9 18 -21z m-2524 -113 c0 -5 -16 15 -35 45 -19 30 -35 60 -35 65 0
6 16 -15 35 -45 19 -30 35 -59 35 -65z m1536 87 c5 -5 36 -17 69 -26 33 -9 68
-22 78 -27 16 -9 57 -19 142 -36 29 -6 28 -7 -20 -21 -27 -7 -72 -17 -100 -22
-27 -4 -76 -15 -108 -24 -100 -28 -97 -30 -97 74 0 89 8 106 36 82z m-854 -76
c42 -56 44 -60 29 -79 -25 -31 -80 -87 -86 -87 -3 0 -5 21 -5 48 0 51 11 184
15 180 2 -2 23 -30 47 -62z m172 -71 c-5 -90 -10 -122 -16 -105 -5 13 -17 30
-26 39 -24 22 -52 63 -52 77 0 7 12 26 28 43 15 16 35 42 45 56 11 15 21 24
23 22 3 -2 1 -62 -2 -132z m2331 69 c29 -29 31 -46 10 -64 -8 -7 -15 -19 -15
-26 0 -8 -4 -14 -9 -14 -5 0 -13 -9 -16 -20 -11 -33 -39 -23 -68 26 -27 45
-27 46 -10 77 10 17 29 43 43 58 23 25 25 25 32 8 4 -11 19 -31 33 -45z
m-1217 -33 c32 -17 401 -81 471 -81 51 -1 21 -16 -60 -30 -35 -7 -77 -14 -94
-17 -16 -3 -39 -12 -50 -19 -18 -13 -17 -14 15 -14 42 0 151 23 214 44 62 21
66 21 66 -13 0 -35 -27 -46 -130 -55 -36 -4 -92 -11 -125 -17 -139 -26 -710
-17 -766 12 -11 6 -15 17 -12 34 6 29 3 29 67 11 106 -30 261 -48 242 -28 -4
4 -35 12 -69 19 -34 6 -82 17 -107 23 -25 6 -62 14 -83 17 -42 6 -61 23 -25
23 13 0 55 8 93 19 66 18 311 78 328 80 4 1 15 -3 25 -8z m4549 -33 c-3 -7 -5
-2 -5 12 0 14 2 19 5 13 2 -7 2 -19 0 -25z m3454 -70 l-11 -33 5 34 c3 18 6
50 7 70 l1 36 4 -37 c2 -20 -1 -51 -6 -70z m-2734 -13 c8 -33 19 -89 24 -125
10 -79 26 -185 40 -265 18 -105 26 -267 18 -365 -5 -52 -11 -129 -14 -170 -10
-119 -6 -114 -104 -169 -124 -70 -277 -121 -361 -121 -81 0 -240 43 -240 65 0
5 32 39 71 75 39 35 75 74 80 85 9 19 69 109 86 130 5 6 19 31 31 57 13 25 30
52 38 58 7 7 14 17 14 23 0 6 20 52 44 102 24 49 47 101 51 115 4 14 18 48 30
75 13 28 31 72 40 100 9 27 20 54 24 60 5 5 11 24 14 40 3 17 15 62 27 100 12
39 28 99 37 135 21 90 25 100 30 75 2 -11 11 -47 20 -80z m-4017 -22 l-1 -98
-25 30 c-13 17 -29 36 -35 43 -6 7 -8 18 -5 25 13 27 32 52 44 60 6 4 12 15
12 22 0 8 2 15 5 15 3 0 5 -44 5 -97z m-114 4 c3 -11 -1 -26 -10 -36 -9 -10
-16 -23 -16 -29 0 -6 -9 -16 -20 -22 -19 -10 -20 -8 -20 82 l1 93 29 -35 c16
-19 32 -43 36 -53z m-2329 40 c13 -17 30 -42 39 -54 15 -20 14 -23 -5 -44 -12
-13 -21 -26 -21 -30 0 -3 -16 -24 -35 -45 l-35 -38 -32 38 c-43 51 -60 85 -50
103 18 32 88 102 102 102 8 1 25 -14 37 -32z m5762 -20 c0 -12 2 -33 6 -47 6
-24 6 -24 -9 -6 -17 22 -22 91 -6 81 5 -3 9 -16 9 -28z m-48 -94 c1 -56 4 -70
15 -66 8 3 14 18 14 33 0 21 6 29 24 32 22 4 26 -1 45 -55 11 -33 18 -64 15
-68 -3 -5 2 -6 10 -3 11 4 16 0 16 -15 0 -12 -4 -21 -10 -21 -5 0 -10 -4 -10
-10 0 -5 10 -10 22 -10 12 0 19 -3 15 -6 -3 -4 5 -21 18 -39 26 -33 32 -55 15
-55 -5 0 -10 -7 -10 -16 0 -9 -5 -12 -12 -8 -8 5 -9 2 -5 -9 3 -9 3 -16 -1
-16 -31 5 -62 -3 -62 -16 0 -8 -7 -15 -15 -15 -8 0 -15 -9 -15 -20 0 -13 7
-20 20 -20 27 0 26 -35 -3 -81 -41 -68 -74 -114 -95 -132 -20 -18 -20 -18 -27
55 -10 118 -2 333 13 331 6 -2 12 3 12 11 0 8 -6 17 -12 19 -10 4 -10 6 0 6 7
1 15 -6 18 -14 10 -26 25 -16 18 12 -9 36 -30 58 -38 40 -4 -6 -4 6 -1 28 2
22 7 77 11 123 4 45 8 81 10 79 2 -2 4 -35 5 -74z m-3341 27 c0 -5 14 -30 32
-55 l32 -45 -20 -22 c-11 -13 -28 -35 -37 -50 -10 -16 -21 -28 -25 -28 -4 0
-20 20 -35 45 -16 25 -33 45 -38 45 -5 0 -9 9 -9 20 0 11 4 20 8 20 5 0 23 20
41 45 29 40 51 51 51 25z m-2464 -122 c14 -27 13 -29 -31 -71 -25 -24 -45 -49
-45 -55 0 -7 -4 -12 -10 -12 -13 0 -13 73 1 146 7 32 12 67 11 77 -1 20 49
-38 74 -85z m153 -4 c-14 -126 -17 -144 -29 -144 -6 0 -10 4 -10 10 0 5 -15
33 -34 62 -25 39 -31 56 -22 64 6 6 31 34 56 62 24 28 46 50 47 48 2 -2 -1
-48 -8 -102z m1699 64 c-2 -28 -8 -34 -31 -36 -15 -2 -25 -8 -22 -13 4 -5 18
-6 33 -3 19 5 24 3 17 -4 -5 -6 -77 -23 -160 -38 -144 -26 -165 -27 -495 -28
-190 0 -357 2 -371 6 -24 7 -26 13 -28 59 l-1 52 128 -7 c312 -17 439 -17 597
-2 187 19 296 33 303 41 3 3 12 5 19 5 10 0 13 -10 11 -32z m7442 16 c0 -8 -4
-12 -10 -9 -5 3 -10 10 -10 16 0 5 5 9 10 9 6 0 10 -7 10 -16z m-3 -76 c-2
-13 -4 -5 -4 17 -1 22 1 32 4 23 2 -10 2 -28 0 -40z m-6902 -37 c3 -10 14 -27
25 -39 l20 -21 -40 -57 -40 -57 0 101 c0 85 2 100 15 96 8 -3 17 -14 20 -23z
m148 -78 l6 -93 -28 31 c-45 49 -56 75 -40 93 8 9 23 27 34 40 11 14 20 24 21
23 1 -1 4 -44 7 -94z m-2455 -9 c12 -23 22 -46 22 -50 0 -10 -42 -64 -78 -102
l-23 -24 -18 24 c-10 12 -28 42 -40 66 -21 40 -21 44 -5 70 9 16 29 37 45 48
16 10 32 27 35 37 5 16 7 16 22 -5 10 -13 27 -42 40 -64z m1779 34 c-4 -12 -2
-27 2 -32 5 -6 11 -83 14 -171 4 -150 13 -286 37 -620 6 -77 15 -275 20 -440
5 -165 12 -342 16 -392 4 -67 3 -93 -5 -93 -22 0 -376 179 -535 270 -184 105
-387 237 -570 370 l-129 93 7 81 c3 45 10 126 16 181 9 88 26 318 35 460 1 28
6 103 10 167 l8 117 46 -5 c58 -7 73 -12 68 -21 -6 -12 -20 -369 -13 -363 2 3
8 46 12 95 4 49 12 132 18 184 10 87 13 96 31 93 18 -3 93 -7 213 -11 l42 -1
1 -122 c1 -68 5 -157 9 -198 l7 -75 3 60 c6 86 7 117 8 231 l2 101 118 6 c64
4 129 9 143 13 34 8 38 -3 50 -136 19 -197 28 -207 26 -28 l-2 166 54 11 c30
6 71 11 91 11 l36 0 12 -87 c6 -49 15 -116 18 -150 4 -35 11 -63 16 -63 6 0 8
21 5 53 -13 109 -19 246 -13 256 4 6 23 11 43 11 31 0 35 -2 30 -22z m209
-215 c8 -109 19 -256 24 -328 5 -71 13 -168 19 -215 5 -47 14 -175 21 -285 6
-110 16 -265 22 -345 16 -220 22 -450 10 -450 -36 0 -42 12 -42 89 0 42 -7
202 -15 356 -8 154 -19 406 -25 560 -6 154 -17 390 -25 525 -17 272 -18 306
-9 298 3 -4 12 -96 20 -205z m408 137 c14 -22 30 -40 35 -40 19 0 21 -34 2
-54 -10 -12 -26 -35 -35 -53 -18 -36 -32 -35 -61 4 -11 15 -28 35 -37 45 -19
19 -24 38 -10 38 4 0 21 23 37 50 16 28 32 50 36 50 3 0 18 -18 33 -40z
m-2358 -124 c-9 -41 -16 -91 -16 -110 0 -19 -4 -38 -10 -41 -5 -3 -10 -2 -10
4 0 5 -6 16 -13 23 -7 7 -23 30 -35 51 l-22 39 44 51 c24 29 49 63 57 77 13
24 14 24 17 3 2 -12 -4 -55 -12 -97z m-172 29 c30 -46 34 -58 25 -74 -23 -36
-45 -42 -68 -17 -19 20 -20 30 -15 84 4 34 10 62 14 62 4 0 24 -25 44 -55z
m5973 -17 c-3 -8 -6 -5 -6 6 -1 11 2 17 5 13 3 -3 4 -12 1 -19z m-3363 -182
c3 -10 -15 3 -39 30 -25 27 -44 53 -45 58 0 5 15 32 33 60 l32 51 7 -90 c4
-50 10 -98 12 -109z m-146 47 c-16 -25 -33 -42 -36 -38 -3 3 -8 44 -11 90 l-6
85 42 -47 42 -46 -31 -44z m-2387 25 c7 -18 21 -42 31 -52 22 -24 22 -30 2
-47 -14 -12 -23 -6 -65 40 l-49 54 26 24 c30 27 37 25 55 -19z m6969 -2 c36
-7 95 -17 133 -21 63 -7 67 -9 67 -32 0 -19 -4 -23 -17 -19 -10 3 -74 12 -143
21 -171 21 -170 21 -170 51 0 30 -3 30 130 0z m-4496 -50 c20 -24 36 -50 36
-58 -1 -7 -17 -31 -36 -53 l-35 -40 -40 44 c-21 25 -39 46 -39 48 0 2 7 15 15
28 8 14 22 36 30 50 9 14 19 25 24 25 5 0 25 -20 45 -44z m5549 -5 c-4 -16
-21 -20 -121 -30 -64 -6 -160 -9 -212 -7 -52 2 -125 4 -162 5 -60 1 -66 3 -61
20 5 18 13 19 122 15 64 -2 172 0 241 4 203 15 199 15 193 -7z m-1078 -21 c17
-5 74 -12 128 -16 l99 -7 -7 -146 c-4 -80 -9 -149 -11 -152 -4 -7 -124 7 -174
20 -19 5 -61 15 -94 21 l-59 12 7 52 c3 28 6 93 6 144 l0 93 38 -6 c20 -4 51
-11 67 -15z m-6883 -50 c-6 -16 -11 -20 -16 -11 -4 6 -2 19 5 27 16 20 21 12
11 -16z m7938 13 c0 -5 -67 -77 -148 -160 l-148 -153 -128 0 c-113 0 -127 2
-122 16 3 9 6 79 6 156 l0 141 58 -6 c45 -4 390 4 465 11 9 1 17 -1 17 -5z
m-5457 -88 c3 -44 3 -70 0 -57 -2 12 -11 22 -19 22 -18 0 -18 -19 1 -41 14
-15 14 -18 0 -32 -8 -9 -15 -19 -15 -23 0 -8 -31 -33 -42 -34 -11 0 -68 58
-68 69 0 34 33 56 43 29 3 -10 7 -10 17 -1 8 7 9 16 2 28 -10 18 -6 25 46 83
12 14 22 30 22 35 0 6 2 8 4 6 2 -2 6 -40 9 -84z m-143 -5 c10 -25 9 -32 -9
-51 l-20 -22 -5 24 c-3 13 -7 44 -11 68 -6 44 -5 45 14 27 10 -9 25 -30 31
-46z m-261 -92 c1 -15 5 -29 10 -32 4 -3 11 -18 14 -33 3 -16 9 -36 12 -45 5
-13 2 -15 -14 -11 -32 8 -26 -7 28 -67 l48 -54 -40 -51 c-21 -27 -43 -51 -47
-53 -9 -3 -18 97 -25 278 -3 88 -2 128 4 115 5 -11 10 -32 10 -47z m303 -92
c3 -13 -33 -76 -44 -76 -9 0 -15 27 -22 103 l-6 58 35 -37 c19 -20 36 -42 37
-48z m137 -46 c0 -10 -2 -11 -6 -2 -8 20 -23 14 -23 -10 0 -21 -2 -20 -21 10
-12 17 -25 32 -30 32 -5 0 -9 7 -9 15 0 8 5 15 10 15 6 0 10 7 10 16 0 11 6
14 20 9 17 -5 20 -2 21 22 1 18 6 6 15 -32 7 -33 13 -67 13 -75z m-2134 3 c-8
-68 -10 -72 -32 -51 -15 15 -14 20 6 62 11 25 24 46 27 46 3 0 3 -26 -1 -57z
m6485 36 c30 -5 91 -15 135 -22 78 -12 80 -13 83 -41 3 -26 1 -28 -20 -22 -13
3 -55 11 -93 16 -67 9 -149 24 -187 36 -11 3 -18 15 -18 30 0 20 4 23 23 19
12 -3 47 -10 77 -16z m-4400 -93 c0 -18 -31 -21 -47 -5 -8 8 -13 8 -17 0 -9
-13 -59 -15 -54 -2 2 5 16 25 32 44 l29 35 29 -28 c15 -16 28 -36 28 -44z
m5130 28 c0 -3 -10 -14 -22 -25 -18 -15 -40 -18 -105 -19 -82 0 -83 0 -83 25
l0 25 105 0 c58 0 105 -3 105 -6z m-811 -31 c9 -16 12 -16 21 -3 7 12 13 13
27 3 10 -6 16 -17 14 -25 -2 -7 -5 -47 -7 -88 l-3 -75 13 70 c21 111 23 113
95 99 l32 -7 -6 -61 c-8 -73 11 -59 21 17 5 37 10 47 23 43 9 -2 28 -7 44 -10
32 -7 30 6 17 -231 -7 -136 -11 -162 -27 -175 -26 -21 -41 -57 -48 -115 -7
-49 -27 -85 -49 -85 -6 0 -36 -25 -66 -55 -30 -31 -75 -68 -100 -82 -25 -15
-47 -30 -50 -34 -3 -3 -20 -14 -37 -23 l-33 -17 1 58 c0 32 5 85 10 118 8 52
33 282 43 385 22 245 31 310 42 310 7 0 18 -8 23 -17z m-4553 -96 c6 -17 18
-46 25 -64 13 -33 4 -80 -28 -143 -7 -14 -13 -37 -13 -52 0 -43 -15 -34 -51
30 -18 31 -43 72 -56 89 -20 28 -22 35 -11 48 7 9 18 21 23 28 6 7 28 33 49
60 21 26 41 45 44 42 3 -3 11 -20 18 -38z m80 20 c3 -8 4 -45 2 -83 -3 -57 -5
-64 -11 -39 -5 17 -12 39 -17 50 -4 11 -13 33 -19 48 -15 37 -15 37 14 37 14
0 28 -6 31 -13z m269 3 c3 -5 10 -56 15 -112 5 -57 14 -143 20 -193 6 -49 15
-130 19 -180 5 -49 21 -198 35 -330 33 -298 40 -375 35 -375 -9 0 -231 69
-235 73 -2 2 -9 103 -14 223 -5 120 -12 237 -15 260 -3 22 -10 130 -15 240 -6
109 -13 243 -16 296 l-7 97 74 4 c41 1 79 4 86 5 6 1 15 -2 18 -8z m4905 3 c0
-6 -71 -73 -86 -81 -18 -9 -19 -6 -16 39 l4 50 49 -3 c27 -2 49 -4 49 -5z
m-5096 -161 c9 -204 15 -309 31 -596 20 -330 20 -348 -2 -344 -23 4 -29 58
-38 318 -3 107 -12 281 -20 385 -8 105 -16 235 -17 291 -3 97 -2 100 18 96 20
-4 21 -12 28 -150z m-74 -56 c0 -22 2 -86 5 -141 4 -80 3 -96 -6 -77 -7 12
-16 22 -21 22 -4 0 -8 5 -8 11 0 7 -14 25 -31 42 -27 26 -30 32 -20 53 17 38
29 66 42 106 16 48 39 40 39 -16z m-190 -19 c0 -4 16 -32 36 -61 l36 -55 -37
-68 c-20 -37 -40 -72 -44 -76 -5 -5 -9 27 -10 70 -1 43 -6 96 -11 118 -5 22
-10 60 -10 85 l0 45 20 -25 c11 -14 20 -28 20 -33z m5282 -82 c12 -27 25 -52
28 -55 12 -12 30 -51 30 -65 0 -8 5 -15 10 -15 6 0 10 -7 10 -16 0 -9 9 -32
20 -50 l21 -33 -21 -11 c-16 -9 -20 -8 -20 5 0 8 -4 23 -9 33 -4 9 -29 58 -53
107 -25 50 -59 116 -76 147 -16 31 -27 59 -24 63 10 9 58 -54 84 -110z m-66
33 c14 -29 41 -82 60 -118 29 -55 74 -161 74 -175 0 -9 -145 -85 -155 -81 -12
4 -65 101 -65 118 0 16 -74 124 -104 152 -21 20 -27 30 -18 33 8 3 44 32 80
64 37 32 75 58 85 59 11 0 26 -18 43 -52z m-5082 -129 c12 -13 30 -36 40 -51
16 -25 16 -29 -3 -75 -37 -90 -59 -163 -51 -168 12 -7 26 15 44 72 31 94 37
79 51 -119 4 -49 4 -88 1 -88 -3 0 -17 20 -31 44 -14 24 -33 50 -41 57 -24 20
-30 0 -10 -34 10 -18 29 -51 43 -74 l24 -43 -21 -44 c-11 -25 -20 -52 -20 -60
0 -32 -20 -24 -57 21 -21 27 -44 54 -51 61 -10 11 -9 19 6 40 10 15 22 34 26
42 4 8 13 26 21 39 7 14 12 29 9 33 -9 15 -24 8 -34 -14 -11 -24 -31 -60 -40
-68 -3 -3 -11 -16 -17 -30 -11 -23 -12 -21 -12 23 -1 27 -6 79 -12 116 -5 37
-9 95 -7 127 l3 59 45 -87 c24 -49 48 -88 52 -88 17 0 6 38 -32 110 -42 78
-49 110 -27 128 6 6 21 30 32 55 22 49 35 53 69 16z m4893 -1 c34 -36 103
-149 103 -170 0 -7 9 -24 20 -38 24 -31 25 -56 2 -69 -15 -8 -23 2 -57 72 -21
45 -49 96 -62 113 -13 17 -23 36 -23 42 0 16 -39 35 -56 28 -9 -3 -14 -14 -13
-23 3 -30 -1 -43 -11 -43 -5 0 -10 12 -10 27 0 29 44 93 64 93 6 0 26 -15 43
-32z m-712 -153 c-8 -71 -19 -168 -25 -215 -6 -47 -14 -105 -17 -129 -3 -30
-13 -51 -31 -68 l-27 -25 -3 33 c-2 18 3 56 11 83 8 28 22 94 32 146 9 52 23
120 31 150 7 30 18 79 25 108 6 29 12 52 14 50 1 -2 -3 -61 -10 -133z m678 43
c14 -15 83 -154 92 -184 5 -18 -12 -29 -152 -96 -230 -111 -458 -206 -671
-279 -72 -24 -83 -26 -80 -11 2 9 19 27 38 39 19 13 42 30 51 37 9 8 39 26 65
42 27 15 51 31 54 35 5 6 124 86 226 151 33 21 68 44 78 50 11 7 41 33 67 58
63 59 118 104 148 120 14 7 34 21 45 31 23 22 24 23 39 7z m-4872 -505 c37
-19 12 -15 -52 8 l-59 22 0 44 0 44 43 -53 c24 -29 54 -59 68 -65z m108 -5 l1
-47 -30 10 c-36 13 -36 14 -10 67 11 22 20 47 21 54 2 29 17 -40 18 -84z"/>
<path d="M6177 8843 c-11 -10 -8 -51 4 -59 18 -10 32 13 25 40 -6 26 -16 32
-29 19z"/>
<path d="M6283 8843 c-8 -3 -13 -24 -13 -54 0 -46 2 -49 26 -49 24 0 25 2 22
52 -3 50 -10 61 -35 51z"/>
<path d="M6374 8825 c-7 -17 4 -37 17 -30 12 8 12 45 -1 45 -6 0 -13 -7 -16
-15z"/>
<path d="M7932 9088 c-7 -7 -12 -27 -12 -45 0 -29 3 -33 25 -33 21 0 25 5 25
29 0 54 -14 73 -38 49z"/>
<path d="M8224 9086 c-9 -25 0 -71 15 -71 21 0 35 29 27 58 -7 29 -33 36 -42
13z"/>
<path d="M8330 9070 c0 -11 5 -20 10 -20 6 0 10 9 10 20 0 11 -4 20 -10 20 -5
0 -10 -9 -10 -20z"/>
<path d="M8328 8973 c6 -2 18 -2 25 0 6 3 1 5 -13 5 -14 0 -19 -2 -12 -5z"/>
<path d="M5370 9055 c0 -8 7 -15 15 -15 8 0 15 7 15 15 0 8 -7 15 -15 15 -8 0
-15 -7 -15 -15z"/>
<path d="M5260 9001 c-14 -27 -13 -56 3 -69 18 -15 33 -2 40 34 9 47 -22 72
-43 35z"/>
<path d="M5370 9000 c0 -5 7 -10 15 -10 8 0 15 5 15 10 0 6 -7 10 -15 10 -8 0
-15 -4 -15 -10z"/>
<path d="M7417 8883 c-4 -3 -7 -26 -7 -50 0 -40 2 -44 23 -41 17 2 23 11 25
36 4 43 -21 76 -41 55z"/>
<path d="M7307 8873 c-4 -3 -7 -24 -7 -45 0 -44 26 -54 36 -14 10 41 -9 80
-29 59z"/>
<path d="M7537 8872 c-27 -6 -20 -77 8 -77 15 0 21 8 23 34 4 38 -5 49 -31 43z"/>
<path d="M7637 8873 c-4 -3 -7 -21 -7 -40 0 -23 5 -33 15 -33 20 0 29 23 21
55 -6 25 -17 31 -29 18z"/>
<path d="M8086 8875 c-3 -9 -6 -32 -6 -51 0 -30 3 -34 26 -34 24 0 25 2 22 47
-2 35 -8 49 -19 51 -9 2 -19 -4 -23 -13z"/>
<path d="M3740 8764 c-13 -13 -19 -24 -13 -24 16 0 73 33 73 43 0 16 -36 5
-60 -19z"/>
<path d="M3835 8781 c6 -11 67 -43 72 -38 1 2 -6 13 -17 25 -20 21 -67 32 -55
13z"/>
<path d="M3700 8706 c-12 -33 -13 -56 -1 -56 10 0 25 69 17 77 -3 3 -10 -6
-16 -21z"/>
<path d="M3925 8690 c9 -16 20 -30 26 -30 5 0 3 14 -6 30 -9 17 -20 30 -26 30
-5 0 -3 -13 6 -30z"/>
<path d="M3950 8595 c0 -19 5 -35 10 -35 6 0 10 16 10 35 0 19 -4 35 -10 35
-5 0 -10 -16 -10 -35z"/>
<path d="M3680 8591 c0 -17 5 -33 10 -36 6 -4 10 8 10 29 0 20 -4 36 -10 36
-5 0 -10 -13 -10 -29z"/>
<path d="M3943 8495 c-8 -35 -7 -45 2 -45 13 0 25 31 25 68 0 38 -16 24 -27
-23z"/>
<path d="M3690 8511 c0 -11 5 -23 10 -26 6 -4 10 5 10 19 0 14 -4 26 -10 26
-5 0 -10 -9 -10 -19z"/>
<path d="M3710 8453 c1 -12 29 -47 34 -42 7 7 -13 49 -24 49 -5 0 -10 -3 -10
-7z"/>
<path d="M3900 8410 c-8 -11 -22 -20 -32 -20 -10 0 -18 -4 -18 -10 0 -5 6 -10
14 -10 16 0 66 38 66 51 0 15 -15 10 -30 -11z"/>
<path d="M3760 8402 c0 -7 42 -32 55 -32 13 0 3 18 -12 24 -10 3 -24 9 -30 12
-7 3 -13 2 -13 -4z"/>
<path d="M4081 8421 c-10 -6 -10 -10 -1 -16 13 -8 24 -1 19 14 -3 6 -10 7 -18
2z"/>
<path d="M4200 8355 c0 -16 16 -20 24 -6 3 5 -1 11 -9 15 -9 3 -15 0 -15 -9z"/>
<path d="M3217 8346 c-6 -15 1 -26 15 -26 4 0 8 9 8 20 0 23 -15 27 -23 6z"/>
<path d="M3016 8273 c-11 -11 -6 -23 9 -23 8 0 15 4 15 9 0 13 -16 22 -24 14z"/>
<path d="M3735 8051 c22 -5 53 -14 68 -20 44 -17 67 -13 34 5 -16 9 -54 17
-85 20 -52 3 -54 3 -17 -5z"/>
<path d="M4018 8003 c6 -2 18 -2 25 0 6 3 1 5 -13 5 -14 0 -19 -2 -12 -5z"/>
<path d="M3550 7945 c-8 -2 -32 -6 -53 -10 -29 -5 -53 -20 -93 -60 -30 -29
-54 -57 -54 -63 0 -6 21 0 48 13 26 12 65 28 86 33 46 13 153 6 218 -15 26 -8
60 -13 75 -11 23 2 29 8 31 34 3 29 0 33 -40 48 -91 33 -161 43 -218 31z"/>
<path d="M3533 7749 c-18 -5 -35 -15 -39 -21 -5 -8 -2 -9 12 -3 10 4 46 10 79
12 47 4 64 1 74 -10 11 -14 6 -15 -41 -10 -58 5 -140 -19 -188 -57 -34 -26 -7
-26 48 0 55 27 72 26 72 -4 0 -13 3 -32 7 -42 6 -17 2 -17 -64 1 -10 3 0 -4
22 -15 53 -26 145 -28 143 -2 -3 38 2 51 18 45 13 -5 15 1 11 33 -6 64 -24 84
-77 83 -25 0 -59 -5 -77 -10z m52 -88 c3 -5 1 -12 -5 -16 -5 -3 -10 1 -10 9 0
18 6 21 15 7z"/>
<path d="M4018 7688 c-16 -5 -28 -14 -28 -19 0 -12 0 -12 45 11 41 21 30 26
-17 8z"/>
<path d="M3610 7539 c-28 -15 -31 -19 -14 -19 12 0 32 9 45 20 30 24 15 24
-31 -1z"/>
<path d="M3730 7221 c0 -5 20 -11 45 -13 39 -3 43 -1 28 9 -19 15 -73 17 -73
4z"/>
<path d="M2703 7645 c-16 -18 -17 -33 -1 -17 7 7 22 12 34 12 25 0 45 -21 26
-28 -7 -2 -12 -8 -12 -14 0 -5 9 -7 19 -3 14 4 23 -1 32 -17 10 -19 9 -24 -6
-33 -88 -49 -86 -136 4 -179 42 -20 48 -15 33 27 -15 41 -15 74 -2 82 27 17 0
110 -48 168 -18 20 -62 22 -79 2z m117 -144 c0 -11 -5 -23 -11 -27 -7 -4 -9
-24 -6 -50 5 -50 1 -53 -38 -23 -22 18 -26 27 -21 52 4 17 14 39 23 49 22 24
53 24 53 -1z"/>
<path d="M4030 7200 c0 -5 5 -10 11 -10 5 0 7 5 4 10 -3 6 -8 10 -11 10 -2 0
-4 -4 -4 -10z"/>
<path d="M9676 6855 c-3 -8 -1 -15 4 -15 14 0 60 -49 60 -64 0 -8 7 -19 15
-26 30 -25 16 15 -20 57 -19 23 -35 46 -35 52 0 16 -17 13 -24 -4z"/>
<path d="M9657 6764 c-4 -22 5 -40 47 -93 28 -36 59 -77 69 -91 54 -77 67 -92
67 -77 0 9 -5 19 -10 22 -6 3 -29 33 -51 67 -23 33 -49 68 -58 77 -28 28 -52
71 -46 81 3 6 2 17 -3 26 -8 14 -10 12 -15 -12z"/>
<path d="M9750 6711 c0 -5 5 -13 10 -16 6 -3 10 -2 10 4 0 5 -4 13 -10 16 -5
3 -10 2 -10 -4z"/>
<path d="M9816 6682 c-4 -6 -14 -8 -23 -5 -11 4 -14 3 -9 -6 4 -6 15 -9 24 -7
12 4 24 -6 40 -30 13 -20 26 -33 29 -30 4 3 -3 16 -14 29 -11 12 -25 30 -30
41 -7 12 -13 15 -17 8z"/>
<path d="M9750 6664 c0 -8 5 -12 10 -9 6 4 8 11 5 16 -9 14 -15 11 -15 -7z"/>
<path d="M9920 6545 c0 -13 48 -85 57 -85 5 0 -9 25 -44 75 -7 11 -13 15 -13
10z"/>
<path d="M9914 6471 c-1 -25 1 -27 12 -16 8 7 11 21 8 29 -10 25 -19 19 -20
-13z"/>
<path d="M9990 6431 c0 -5 5 -13 10 -16 6 -3 10 -2 10 4 0 5 -4 13 -10 16 -5
3 -10 2 -10 -4z"/>
<path d="M9975 6310 c3 -5 8 -10 11 -10 2 0 4 5 4 10 0 6 -5 10 -11 10 -5 0
-7 -4 -4 -10z"/>
<path d="M10008 6267 c12 -13 22 -26 22 -30 0 -10 33 -47 42 -47 5 0 8 7 8 15
0 8 -7 15 -15 15 -8 0 -15 3 -15 8 0 10 -46 62 -55 62 -5 0 1 -10 13 -23z"/>
<path d="M10117 6138 c19 -21 41 -24 24 -4 -9 11 -9 15 1 19 7 2 1 4 -14 3
-25 -1 -25 -2 -11 -18z"/>
<path d="M9335 6431 c-11 -36 5 -50 63 -56 65 -8 137 -36 161 -63 9 -10 29
-27 46 -38 28 -18 29 -18 22 -1 -4 10 -7 23 -7 28 0 4 -19 28 -43 51 -32 33
-61 49 -117 68 -96 32 -118 33 -125 11z"/>
<path d="M9386 6289 c-9 -14 -21 -19 -31 -16 -13 5 -14 3 -5 -13 6 -11 15 -20
20 -20 13 0 13 -51 1 -83 -12 -31 0 -37 75 -37 55 0 94 12 94 30 0 5 -11 21
-24 35 -14 15 -23 32 -20 39 3 7 -3 19 -13 27 -16 13 -17 12 -4 -4 8 -9 11
-21 7 -24 -4 -4 -10 -3 -14 3 -4 6 -22 19 -39 28 -39 20 -43 31 -8 22 32 -8
32 -3 0 18 -23 15 -25 15 -39 -5z m99 -109 c26 -28 13 -50 -31 -50 -30 0 -35
3 -29 18 4 9 10 25 12 35 7 23 26 22 48 -3z"/>
<path d="M9080 5941 c0 -12 8 -17 45 -25 l30 -6 -24 20 c-24 21 -51 27 -51 11z"/>
<path d="M2030 6480 c0 -5 9 -10 21 -10 11 0 17 5 14 10 -3 6 -13 10 -21 10
-8 0 -14 -4 -14 -10z"/>
<path d="M2003 6408 c2 -7 7 -13 12 -13 5 0 10 6 13 13 2 6 -4 12 -13 12 -9 0
-15 -6 -12 -12z"/>
<path d="M2062 6273 c2 -10 8 -18 13 -18 5 0 11 8 13 18 2 10 -3 17 -13 17
-10 0 -15 -7 -13 -17z"/>
<path d="M3320 5588 c0 -20 5 -40 10 -43 13 -8 13 45 0 65 -7 11 -10 6 -10
-22z"/>
<path d="M3467 5463 c-9 -9 -9 -41 1 -46 4 -3 7 8 8 24 1 31 1 32 -9 22z"/>
<path d="M4225 6140 c-8 -13 4 -32 16 -25 12 8 12 35 0 35 -6 0 -13 -4 -16
-10z"/>
<path d="M2120 6085 c0 -10 7 -15 17 -13 22 4 23 22 1 26 -11 2 -18 -3 -18
-13z"/>
<path d="M4265 5950 c-4 -6 -3 -16 3 -22 6 -6 12 -6 17 2 4 6 3 16 -3 22 -6 6
-12 6 -17 -2z"/>
<path d="M2175 5870 c-8 -14 3 -30 21 -30 8 0 14 9 14 20 0 21 -24 28 -35 10z"/>
<path d="M4303 5738 c2 -7 10 -13 17 -13 7 0 15 6 18 13 2 7 -5 12 -18 12 -13
0 -20 -5 -17 -12z"/>
<path d="M2230 5600 c0 -23 25 -27 33 -6 7 16 -1 26 -20 26 -7 0 -13 -9 -13
-20z"/>
<path d="M4340 5525 c0 -8 5 -15 10 -15 6 0 10 7 10 15 0 8 -4 15 -10 15 -5 0
-10 -7 -10 -15z"/>
<path d="M2275 5340 c-8 -14 3 -30 21 -30 8 0 14 9 14 20 0 21 -24 28 -35 10z"/>
<path d="M4362 5283 c2 -10 8 -18 13 -18 5 0 11 8 13 18 2 10 -3 17 -13 17
-10 0 -15 -7 -13 -17z"/>
<path d="M8111 4147 c-1 -36 3 -56 9 -52 12 7 12 49 0 85 -6 19 -8 11 -9 -33z"/>
<path d="M2314 5059 c-9 -15 12 -33 30 -26 9 4 16 13 16 22 0 17 -35 21 -46 4z"/>
<path d="M4370 5026 c0 -17 5 -26 16 -26 10 0 14 7 12 22 -5 32 -28 35 -28 4z"/>
<path d="M2346 4784 c-7 -18 0 -34 15 -34 12 0 12 37 0 44 -5 3 -12 -1 -15
-10z"/>
<path d="M4370 4751 c0 -11 4 -22 8 -25 14 -9 35 12 29 28 -9 23 -37 20 -37
-3z"/>
<path d="M9133 4183 c-3 -10 -8 -22 -11 -27 -3 -5 0 -6 5 -3 11 7 25 47 17 47
-3 0 -7 -8 -11 -17z"/>
<path d="M8941 3734 c0 -11 3 -14 6 -6 3 7 2 16 -1 19 -3 4 -6 -2 -5 -13z"/>
<path d="M8761 3524 c0 -11 3 -14 6 -6 3 7 2 16 -1 19 -3 4 -6 -2 -5 -13z"/>
<path d="M8861 3504 c0 -11 3 -14 6 -6 3 7 2 16 -1 19 -3 4 -6 -2 -5 -13z"/>
<path d="M8751 3484 c0 -11 3 -14 6 -6 3 7 2 16 -1 19 -3 4 -6 -2 -5 -13z"/>
<path d="M8835 3395 c-4 -25 -5 -48 -2 -51 3 -3 9 15 12 41 4 25 5 48 2 51 -3
3 -9 -15 -12 -41z"/>
<path d="M8822 3290 c0 -14 2 -19 5 -12 2 6 2 18 0 25 -3 6 -5 1 -5 -13z"/>
<path d="M8806 3198 c-3 -13 -1 -27 4 -32 7 -7 10 1 10 22 0 37 -5 41 -14 10z"/>
<path d="M8808 3144 c-5 -4 -8 -30 -8 -58 0 -35 3 -47 11 -39 5 5 9 32 7 58
-2 26 -6 43 -10 39z"/>
<path d="M8800 2955 c0 -14 2 -25 4 -25 2 0 6 11 8 25 3 14 1 25 -3 25 -5 0
-9 -11 -9 -25z"/>
<path d="M8812 2900 c0 -14 2 -19 5 -12 2 6 2 18 0 25 -3 6 -5 1 -5 -13z"/>
<path d="M8812 2785 c0 -16 2 -22 5 -12 2 9 2 23 0 30 -3 6 -5 -1 -5 -18z"/>
<path d="M8815 2690 c3 -5 8 -10 11 -10 2 0 4 5 4 10 0 6 -5 10 -11 10 -5 0
-7 -4 -4 -10z"/>
<path d="M8822 2525 c0 -16 2 -22 5 -12 2 9 2 23 0 30 -3 6 -5 -1 -5 -18z"/>
<path d="M8732 2520 c0 -14 2 -19 5 -12 2 6 2 18 0 25 -3 6 -5 1 -5 -13z"/>
<path d="M8742 2075 c0 -16 2 -22 5 -12 2 9 2 23 0 30 -3 6 -5 -1 -5 -18z"/>
<path d="M8830 2046 c0 -14 4 -27 8 -30 5 -3 6 8 4 25 -5 35 -12 38 -12 5z"/>
<path d="M8742 2010 c0 -14 2 -19 5 -12 2 6 2 18 0 25 -3 6 -5 1 -5 -13z"/>
<path d="M8810 1678 c-3 -26 -1 -43 3 -39 5 5 7 26 5 47 l-3 39 -5 -47z"/>
<path d="M8680 1535 c0 -8 2 -15 4 -15 2 0 6 7 10 15 3 8 1 15 -4 15 -6 0 -10
-7 -10 -15z"/>
<path d="M8781 1434 c0 -11 3 -14 6 -6 3 7 2 16 -1 19 -3 4 -6 -2 -5 -13z"/>
<path d="M8663 1365 c0 -22 2 -30 4 -17 2 12 2 30 0 40 -3 9 -5 -1 -4 -23z"/>
<path d="M8772 1345 c0 -16 2 -22 5 -12 2 9 2 23 0 30 -3 6 -5 -1 -5 -18z"/>
<path d="M8748 1204 c-5 -4 -8 -26 -8 -48 1 -33 3 -38 11 -23 11 19 8 83 -3
71z"/>
<path d="M8627 1117 c-4 -10 -7 -28 -6 -40 0 -21 1 -21 10 2 5 14 8 32 7 40
-3 13 -5 13 -11 -2z"/>
<path d="M8612 1025 c-7 -14 -12 -38 -11 -53 0 -21 4 -16 15 22 17 53 14 71
-4 31z"/>
<path d="M8732 1030 c0 -14 2 -19 5 -12 2 6 2 18 0 25 -3 6 -5 1 -5 -13z"/>
<path d="M8723 925 c0 -22 2 -30 4 -17 2 12 2 30 0 40 -3 9 -5 -1 -4 -23z"/>
<path d="M8601 914 c0 -11 3 -14 6 -6 3 7 2 16 -1 19 -3 4 -6 -2 -5 -13z"/>
<path d="M10171 4580 c-51 -54 -130 -148 -175 -208 -75 -103 -98 -135 -136
-201 -8 -14 -17 -28 -20 -31 -14 -14 -140 -240 -140 -251 0 -5 -4 -9 -10 -9
-5 0 -10 -4 -10 -10 0 -5 -27 -66 -61 -135 -34 -70 -59 -129 -56 -132 3 -3 12
10 20 28 22 53 101 213 108 219 3 3 17 28 31 55 37 75 74 138 151 260 63 100
83 130 135 204 41 58 122 152 193 224 42 42 74 79 70 81 -4 3 -49 -40 -100
-94z"/>
<path d="M9542 3565 c-7 -16 -16 -37 -21 -45 -5 -9 -12 -31 -16 -50 -4 -19
-11 -40 -15 -45 -10 -12 -50 -145 -57 -190 -3 -16 -9 -34 -13 -40 -5 -5 -11
-37 -14 -70 l-5 -60 13 45 c7 25 25 95 39 155 15 61 32 112 37 113 6 2 10 11
10 21 0 21 39 132 52 148 5 7 8 20 5 30 -3 14 -6 11 -15 -12z"/>
<path d="M9387 3028 c-3 -18 -9 -64 -12 -103 -3 -38 -12 -113 -20 -165 -18
-121 -24 -243 -11 -230 5 5 13 62 18 127 4 65 12 145 18 178 12 82 24 225 17
225 -2 0 -7 -15 -10 -32z"/>
<path d="M10273 2230 c-36 -8 -88 -39 -80 -47 3 -2 39 3 80 12 55 12 110 16
201 13 69 -2 126 0 126 4 0 25 -242 39 -327 18z"/>
<path d="M9460 4520 c6 -11 13 -20 16 -20 2 0 0 9 -6 20 -6 11 -13 20 -16 20
-2 0 0 -9 6 -20z"/>
<path d="M4378 4478 c-7 -18 2 -39 13 -32 12 7 12 44 0 44 -5 0 -11 -6 -13
-12z"/>
<path d="M2090 4260 c0 -11 7 -20 15 -20 8 0 15 9 15 20 0 11 -7 20 -15 20 -8
0 -15 -9 -15 -20z"/>
<path d="M4505 4040 c-7 -12 2 -30 16 -30 12 0 12 27 0 35 -5 3 -12 1 -16 -5z"/>
<path d="M2090 3960 c0 -24 25 -27 34 -4 9 23 8 24 -14 24 -13 0 -20 -7 -20
-20z"/>
<path d="M4516 3752 c-2 -4 -1 -14 4 -22 7 -11 12 -12 21 -3 6 6 8 16 5 22 -8
13 -23 14 -30 3z"/>
<path d="M2080 3659 c0 -14 5 -19 17 -17 26 5 29 38 4 38 -15 0 -21 -6 -21
-21z"/>
<path d="M4510 3475 c0 -8 7 -15 15 -15 8 0 15 7 15 15 0 8 -7 15 -15 15 -8 0
-15 -7 -15 -15z"/>
<path d="M2090 3370 c0 -13 5 -20 13 -17 6 2 12 10 12 17 0 7 -6 15 -12 18 -8
2 -13 -5 -13 -18z"/>
<path d="M2470 2921 c0 -15 44 -116 52 -119 12 -5 10 -32 -2 -32 -5 0 -10 -6
-10 -14 0 -8 -4 -16 -8 -18 -13 -5 -55 -79 -49 -85 8 -7 23 10 70 74 l38 52
-38 75 c-34 68 -53 92 -53 67z"/>
<path d="M2410 2490 c0 -5 7 -10 15 -10 8 0 15 5 15 10 0 6 -7 10 -15 10 -8 0
-15 -4 -15 -10z"/>
<path d="M2503 2446 c-13 -14 -23 -29 -23 -31 0 -3 -10 -19 -22 -35 -12 -16
-19 -33 -15 -36 16 -17 91 82 85 112 -2 13 -8 10 -25 -10z"/>
<path d="M2420 2196 c0 -9 7 -16 16 -16 17 0 14 22 -4 28 -7 2 -12 -3 -12 -12z"/>
<path d="M2382 1893 c4 -22 38 -30 38 -10 0 8 -7 18 -16 21 -23 9 -26 8 -22
-11z"/>
<path d="M4500 3194 c0 -17 22 -14 28 4 2 7 -3 12 -12 12 -9 0 -16 -7 -16 -16z"/>
<path d="M3770 3150 c0 -5 9 -10 21 -10 11 0 17 5 14 10 -3 6 -13 10 -21 10
-8 0 -14 -4 -14 -10z"/>
<path d="M2955 3130 c-8 -13 95 -13 115 0 11 7 -3 10 -47 10 -34 0 -65 -4 -68
-10z"/>
<path d="M2090 3074 c0 -31 23 -28 28 4 2 15 -2 22 -12 22 -11 0 -16 -9 -16
-26z"/>
<path d="M4477 2953 c-13 -12 -7 -23 13 -23 11 0 20 7 20 15 0 15 -21 21 -33
8z"/>
<path d="M2081 2791 c-15 -10 -8 -41 9 -41 15 0 25 29 14 40 -5 5 -15 5 -23 1z"/>
<path d="M7821 2343 c0 -42 3 -52 9 -38 12 28 12 95 0 95 -6 0 -10 -25 -9 -57z"/>
<path d="M4475 2690 c-8 -14 3 -30 21 -30 8 0 14 9 14 20 0 21 -24 28 -35 10z"/>
<path d="M2040 2480 c0 -11 7 -20 15 -20 8 0 15 9 15 20 0 11 -7 20 -15 20 -8
0 -15 -9 -15 -20z"/>
<path d="M3622 2180 c0 -14 2 -19 5 -12 2 6 2 18 0 25 -3 6 -5 1 -5 -13z"/>
<path d="M4475 2420 c-8 -14 3 -30 21 -30 8 0 14 9 14 20 0 21 -24 28 -35 10z"/>
<path d="M4490 2155 c0 -8 7 -15 15 -15 8 0 15 7 15 15 0 8 -7 15 -15 15 -8 0
-15 -7 -15 -15z"/>
<path d="M4536 1971 c-4 -6 3 -15 14 -21 23 -12 27 2 6 19 -9 8 -16 8 -20 2z"/>
<path d="M4292 1568 c7 -19 38 -22 38 -4 0 10 -9 16 -21 16 -12 0 -19 -5 -17
-12z"/>
<path d="M4370 1135 c0 -8 5 -15 10 -15 6 0 10 7 10 15 0 8 -4 15 -10 15 -5 0
-10 -7 -10 -15z"/>
<path d="M4360 785 c0 -8 7 -15 15 -15 8 0 15 7 15 15 0 8 -7 15 -15 15 -8 0
-15 -7 -15 -15z"/>
</g>
</svg>
