<?xml version="1.0" standalone="no"?>
<!DOCTYPE svg PUBLIC "-//W3C//DTD SVG 20010904//EN"
 "http://www.w3.org/TR/2001/REC-SVG-20010904/DTD/svg10.dtd">
<svg version="1.0" xmlns="http://www.w3.org/2000/svg"
 width="1295.000000pt" height="1294.000000pt" viewBox="0 0 1295.000000 1294.000000"
 preserveAspectRatio="xMidYMid meet">
<metadata>
Created by potrace 1.16, written by Peter Selinger 2001-2019
</metadata>
<g transform="translate(0.000000,1294.000000) scale(0.100000,-0.100000)"
fill="#000000" stroke="none">
<path d="M0 6470 l0 -6470 6475 0 6475 0 0 6470 0 6470 -6475 0 -6475 0 0
-6470z m6975 6097 c17 -3 66 -8 110 -12 44 -3 132 -13 195 -21 972 -123 1870
-462 2680 -1011 303 -206 569 -424 844 -693 518 -507 922 -1064 1231 -1695
129 -265 267 -595 247 -595 -28 1 -121 33 -152 54 -56 37 -114 49 -200 42 -52
-5 -107 -1 -178 11 -119 20 -189 11 -254 -32 -21 -14 -70 -32 -108 -40 -39 -8
-84 -22 -100 -30 l-29 -15 -10 37 c-5 21 -24 106 -41 188 -42 206 -71 291
-141 425 -175 336 -193 386 -255 689 -45 220 -65 284 -121 394 -102 198 -317
341 -590 393 -105 20 -303 14 -398 -11 -99 -27 -218 -91 -290 -157 -196 -180
-253 -382 -290 -1033 -13 -225 -16 -272 -21 -320 -13 -134 -51 -345 -64 -358
-4 -5 -16 13 -26 40 -31 81 -127 214 -221 303 -106 103 -212 176 -319 219
-162 66 -209 92 -254 139 -25 26 -59 54 -77 64 -22 11 -35 27 -42 54 -12 44
-2 68 38 89 28 14 51 58 51 95 0 10 11 25 25 34 24 16 38 53 50 127 3 20 19
54 36 75 58 73 61 85 75 320 8 126 1 165 -36 203 -24 23 -31 41 -34 80 -3 30
-13 63 -25 80 -36 50 -121 120 -159 131 -24 7 -44 22 -57 43 -33 53 -89 76
-226 94 -95 12 -146 13 -235 6 -67 -6 -140 -6 -179 -1 -60 8 -70 7 -138 -22
-123 -51 -164 -82 -176 -132 -6 -24 -18 -65 -27 -93 -8 -27 -14 -68 -13 -90 2
-29 -5 -50 -24 -78 -58 -85 -87 -217 -68 -312 10 -55 5 -70 -40 -122 -63 -73
-60 -146 9 -209 61 -55 64 -141 11 -244 -24 -46 -29 -67 -29 -130 0 -92 12
-116 73 -155 25 -16 47 -32 47 -35 0 -3 -37 -24 -83 -47 -151 -77 -262 -187
-382 -378 -65 -105 -184 -336 -231 -450 -18 -44 -37 -80 -41 -80 -4 0 -10 18
-13 40 -3 23 -16 57 -29 78 -22 35 -22 40 -10 113 8 49 21 88 37 112 78 113
92 136 102 170 17 64 13 107 -17 142 -22 27 -26 39 -23 83 10 144 0 177 -70
225 -59 40 -104 47 -315 47 -275 0 -380 -22 -429 -88 -18 -24 -21 -43 -22
-122 l0 -95 -41 -37 -40 -38 -1 -154 c-2 -148 17 -320 40 -364 5 -9 27 -29 49
-42 28 -18 46 -41 63 -79 19 -42 34 -59 75 -84 28 -18 54 -39 58 -48 3 -8 0
-41 -6 -72 -22 -105 -25 -270 -7 -345 23 -98 23 -96 -25 -83 -38 10 -44 16
-75 83 -31 65 -42 77 -104 120 l-70 48 -46 145 c-117 376 -158 476 -262 646
-34 55 -70 119 -81 144 -29 66 -48 190 -66 415 -16 215 -24 251 -84 420 -46
131 -57 182 -71 337 -6 65 -18 138 -28 163 -63 160 -275 329 -497 394 -335 99
-711 -11 -905 -266 -109 -144 -163 -297 -210 -588 -67 -412 -72 -430 -184
-625 -82 -142 -106 -216 -106 -322 0 -70 -7 -102 -55 -252 -31 -94 -107 -378
-170 -631 -63 -253 -120 -480 -126 -503 l-12 -44 -101 100 c-66 65 -143 127
-223 181 -160 106 -166 116 -49 85 178 -48 319 3 380 136 29 64 28 170 -2 227
-27 52 -28 71 -3 97 13 15 21 43 25 99 8 94 30 145 66 153 63 14 91 27 109 52
47 67 40 109 -35 223 -31 46 -69 110 -85 142 -26 51 -28 62 -19 95 17 64 11
123 -25 226 -19 55 -35 108 -35 118 0 11 11 34 25 52 55 72 71 165 39 232 -47
99 -203 181 -471 249 -203 51 -448 71 -612 51 l-63 -8 40 59 c57 83 242 318
357 451 267 310 621 640 955 891 949 714 2069 1132 3265 1221 114 8 848 6 900
-3z m374 -1936 c22 -27 62 -41 122 -41 46 0 51 -3 70 -34 11 -19 37 -45 58
-59 l39 -26 -20 -38 c-29 -56 -20 -118 27 -194 36 -59 37 -62 30 -127 -9 -92
-34 -145 -83 -177 -22 -15 -46 -40 -52 -56 -7 -16 -15 -30 -19 -30 -3 -1 -19
-3 -35 -5 -15 -1 -36 -10 -45 -18 -27 -25 -47 -19 -69 18 -32 55 -108 92 -203
100 -51 5 -77 11 -73 18 4 7 -7 8 -35 3 -49 -8 -91 13 -91 46 0 27 33 91 86
166 48 68 55 93 24 93 -16 0 -20 7 -20 34 0 19 4 38 10 41 5 3 9 32 8 63 -1
60 22 120 82 207 l27 40 74 -2 c60 -1 75 -5 88 -22z m-3165 -60 c4 -5 -6 -14
-21 -19 -21 -8 -5 -9 62 -5 l90 5 114 -58 c231 -119 289 -210 307 -479 8 -126
22 -197 78 -382 54 -178 63 -233 71 -428 5 -139 10 -185 30 -257 10 -40 -10
-36 -68 12 -27 22 -63 42 -81 46 l-33 6 -6 91 c-3 51 -17 136 -31 190 -32 120
-32 140 -1 223 32 85 34 173 6 274 -25 89 -26 151 -5 233 12 49 13 72 5 121
-23 129 -113 255 -220 305 -51 24 -67 26 -176 26 -111 0 -124 -2 -177 -28
-179 -88 -283 -259 -451 -749 -115 -332 -168 -459 -250 -598 -56 -95 -67 -107
-112 -129 -81 -38 -204 -170 -254 -272 -31 -62 -42 -95 -39 -120 3 -32 5 -29
32 42 58 154 132 214 275 226 94 8 72 23 -34 23 l-80 0 30 25 c97 80 235 105
363 66 86 -26 95 -26 56 -1 -17 11 -54 23 -84 27 -55 8 -74 25 -43 38 43 16
126 23 179 15 77 -13 123 -37 234 -125 163 -129 349 -207 453 -191 55 9 112
41 140 78 25 34 71 118 63 118 -2 0 -27 -30 -56 -67 -52 -69 -97 -102 -137
-103 -21 0 -21 1 10 62 40 76 42 159 8 227 -15 29 -18 41 -9 40 7 -1 20 1 29
5 9 4 42 -2 75 -14 33 -12 106 -37 164 -56 112 -38 128 -46 140 -80 6 -15 17
-21 40 -22 17 0 43 -8 56 -17 l25 -16 -21 -29 c-12 -17 -25 -30 -30 -30 -4 0
-48 -46 -96 -102 -219 -254 -344 -333 -550 -345 -201 -12 -314 30 -599 228
-195 135 -294 177 -382 165 -73 -10 -154 -60 -138 -86 3 -6 -2 -25 -13 -43
-68 -112 -135 -353 -177 -637 -14 -96 -39 -256 -55 -355 -16 -99 -37 -245 -46
-325 -9 -80 -20 -149 -24 -153 -9 -11 -138 138 -146 167 -3 12 20 109 49 216
60 215 94 352 162 660 25 113 67 278 94 367 28 90 59 220 71 290 27 156 55
231 166 438 95 178 208 416 230 485 29 90 43 161 31 157 -7 -2 -39 -82 -73
-178 -66 -189 -93 -251 -106 -243 -4 3 -5 11 -1 17 4 7 8 34 9 62 1 27 12 112
24 189 61 397 181 599 423 715 45 22 114 46 152 55 78 16 271 21 279 7z m6001
-55 c124 -40 219 -98 306 -186 123 -124 172 -250 219 -560 25 -172 60 -326 89
-393 12 -27 47 -95 80 -151 131 -227 152 -281 186 -486 13 -82 37 -182 55
-229 33 -91 38 -133 21 -202 -13 -58 1 -116 36 -146 l26 -21 -22 -35 c-42 -68
-54 -119 -60 -255 -4 -86 -3 -131 4 -129 6 2 9 40 7 95 -3 78 0 103 22 169 15
43 39 103 54 133 24 50 32 57 83 76 l56 21 12 -33 c19 -51 54 -74 117 -74 74
0 100 -12 114 -54 12 -37 64 -90 100 -101 15 -5 19 -12 14 -23 -11 -25 -17
-138 -10 -168 4 -15 25 -44 47 -66 38 -38 39 -40 39 -111 0 -90 15 -117 67
-117 27 0 41 7 62 31 88 103 85 101 134 106 144 17 171 -172 43 -308 -48 -51
-136 -93 -177 -84 -24 5 -30 4 -27 -6 7 -21 62 -27 104 -13 48 16 56 9 64 -53
4 -40 10 -51 37 -68 17 -11 34 -28 36 -38 3 -9 30 -28 61 -42 48 -21 56 -29
65 -62 6 -21 11 -45 11 -53 0 -8 14 -44 31 -80 l32 -64 -39 -33 c-103 -90
-252 -177 -447 -263 l-152 -68 -49 -101 c-27 -55 -55 -101 -63 -101 -16 0 -16
3 3 90 14 62 15 81 5 122 -10 38 -10 58 0 98 9 34 16 47 23 40 26 -26 35 14
16 74 -5 17 -21 70 -36 118 -14 48 -32 93 -40 99 -19 16 -18 37 4 43 9 2 -19
2 -63 -1 -44 -3 -83 -7 -87 -9 -4 -3 -47 -5 -95 -5 -95 -1 -144 13 -177 50
-18 20 -19 27 -8 93 10 66 9 75 -9 104 -28 46 -25 54 25 54 36 0 54 8 105 45
38 28 61 52 61 64 0 18 -8 19 -87 19 -97 0 -171 19 -164 43 2 7 7 30 10 49 5
26 11 34 24 32 11 -2 15 2 11 12 -8 21 -32 27 -54 14 -16 -10 -23 -8 -45 12
-14 13 -25 33 -25 45 0 25 41 85 94 134 20 19 36 44 36 55 -1 16 -16 5 -68
-50 -120 -127 -128 -170 -42 -223 27 -17 50 -33 50 -36 0 -3 -7 -16 -15 -29
-15 -22 -14 -26 10 -54 14 -16 25 -37 25 -45 0 -9 7 -20 16 -25 14 -8 14 -13
4 -32 -7 -13 -12 -56 -11 -100 2 -91 -29 -203 -87 -315 -40 -77 -149 -193
-237 -250 -149 -97 -350 -175 -487 -190 -58 -6 -68 -5 -68 8 0 9 4 18 9 21 12
8 39 125 51 226 13 110 13 342 0 450 -17 135 -38 199 -84 248 l-40 43 86 -7
c78 -6 91 -4 153 21 76 30 123 29 191 -5 48 -25 56 -25 24 0 -14 10 -46 25
-72 31 -49 13 -60 25 -32 36 12 5 15 14 10 44 -3 21 -1 50 5 66 6 15 17 136
25 268 8 132 19 262 24 288 12 58 12 67 2 67 -15 0 -32 -126 -47 -347 -8 -120
-19 -237 -25 -260 -5 -23 -10 -59 -10 -80 0 -44 -13 -55 -98 -84 -37 -13 -83
-19 -140 -19 -68 0 -91 -4 -119 -21 -33 -20 -35 -21 -111 -4 -111 23 -107 21
-82 53 59 77 164 240 173 268 7 23 6 41 -2 63 -12 28 -41 51 -41 32 0 -5 7
-11 15 -15 9 -3 15 -18 15 -40 0 -45 -34 -85 -105 -122 -30 -16 -55 -32 -55
-37 0 -4 10 -1 23 7 29 19 67 29 67 19 0 -12 -119 -177 -131 -182 -6 -1 -32
15 -59 38 -27 23 -53 41 -59 41 -6 0 -11 5 -11 10 0 6 -14 10 -31 10 -57 0
-25 24 68 51 117 34 175 62 213 105 31 36 44 78 16 55 -11 -10 -17 -3 -32 34
-9 25 -28 54 -41 64 -29 24 -29 35 2 49 26 12 85 87 85 108 0 7 -24 19 -52 28
-30 9 -58 24 -66 36 -14 24 -37 27 -28 4 4 -10 1 -14 -6 -12 -7 3 -14 25 -16
51 -3 39 -6 47 -23 47 -24 0 -37 -29 -18 -41 12 -8 12 -11 -1 -19 -13 -9 -13
-11 0 -19 18 -12 14 -16 -24 -25 -26 -6 -28 -5 -22 16 14 51 17 125 7 151 -15
38 -41 34 -90 -13 -22 -22 -48 -40 -55 -40 -8 0 -21 -9 -30 -21 -14 -21 -14
-21 -25 -1 -6 11 -26 29 -46 41 -19 11 -40 32 -47 46 -14 31 -36 32 -47 1 -7
-17 -20 -25 -49 -30 -27 -4 -48 -15 -61 -32 -23 -29 -29 -16 -9 16 11 17 9 22
-10 35 -23 17 -30 61 -10 67 18 6 1 38 -20 38 -22 0 -67 -45 -58 -59 13 -21
-18 -23 -34 -1 -12 16 -23 21 -38 15 -31 -9 -27 -30 8 -45 43 -18 45 -27 11
-45 -52 -26 -112 -15 -76 15 20 17 19 30 -2 30 -10 1 -27 15 -38 33 -11 18
-35 39 -52 47 -18 8 -33 20 -33 27 0 20 -22 27 -32 9 -5 -10 -22 -16 -43 -16
-26 0 -42 -9 -74 -42 -23 -22 -41 -48 -41 -56 0 -11 -8 -8 -28 11 -32 31 -47
34 -56 12 -3 -8 -13 -15 -23 -15 -10 0 -24 -13 -31 -30 -15 -33 -33 -38 -56
-14 -23 23 -20 35 8 28 28 -7 43 11 26 31 -19 23 -35 18 -84 -22 -24 -21 -57
-46 -71 -57 -15 -10 -35 -32 -45 -49 l-19 -30 -12 26 c-7 15 -19 27 -26 27
-12 0 -10 -7 5 -32 26 -43 41 -133 21 -126 -8 3 -18 18 -24 34 -12 39 -15 41
-26 24 -8 -13 -10 -13 -19 0 -5 8 -10 28 -10 43 0 22 -4 28 -18 25 -11 -2 -26
3 -36 11 -9 8 -20 11 -23 7 -4 -4 12 -25 35 -46 23 -22 42 -48 42 -59 0 -11 9
-22 20 -26 20 -6 64 -55 56 -62 -2 -3 -14 1 -26 7 -20 11 -21 10 -10 -11 12
-21 11 -21 -16 -15 -44 11 -89 40 -92 60 -2 10 -15 28 -29 41 -22 18 -26 32
-31 98 -5 89 -5 89 83 56 30 -11 61 -19 67 -17 7 3 18 44 25 99 13 99 17 186
8 177 -9 -8 -35 -169 -35 -212 0 -27 -4 -37 -13 -33 -50 19 -139 38 -153 33
-15 -6 -16 -17 -11 -81 4 -41 14 -91 22 -111 8 -20 15 -38 15 -39 0 -1 -22 -5
-50 -8 -27 -3 -59 -11 -71 -17 -19 -11 -19 -13 -4 -24 10 -7 15 -21 13 -32 -2
-10 2 -24 10 -29 10 -8 5 -18 -27 -43 -23 -18 -41 -38 -41 -44 0 -6 11 -21 24
-33 16 -14 28 -43 36 -81 33 -164 92 -270 199 -364 33 -30 61 -57 61 -61 0
-11 -212 -78 -311 -99 -297 -61 -562 -49 -778 37 -42 17 -66 22 -70 15 -8 -13
-134 39 -218 90 -118 71 -140 121 -117 272 9 55 13 117 9 136 -3 19 -11 208
-19 420 -11 355 -11 398 5 550 10 91 20 180 23 199 10 63 -12 17 -27 -59 -33
-164 -39 -274 -33 -588 9 -397 9 -401 -10 -431 -9 -13 -80 -88 -158 -166 -114
-115 -154 -148 -207 -174 -127 -62 -215 -51 -315 41 -91 83 -215 256 -258 359
l-15 36 54 26 c108 54 205 208 268 429 l33 117 79 -107 c100 -135 158 -231
187 -307 13 -35 24 -53 26 -42 5 25 -15 80 -64 179 -24 48 -44 94 -44 102 0 8
18 44 41 80 22 35 82 156 133 268 51 111 108 232 126 268 71 141 160 258 233
309 48 32 233 111 263 111 10 0 46 13 80 29 81 38 122 47 130 28 3 -8 -2 -44
-10 -81 -21 -89 -20 -120 5 -191 15 -43 24 -100 29 -199 5 -76 13 -143 17
-147 8 -8 113 197 151 291 7 20 31 33 111 64 181 68 368 211 406 309 10 26 21
47 26 47 4 0 28 -18 53 -39 25 -22 119 -77 208 -122 90 -45 190 -100 223 -122
137 -92 244 -221 298 -357 67 -169 93 -309 73 -395 -6 -29 -6 -29 5 -5 96 203
143 292 179 332 40 46 42 47 68 34 35 -19 70 -57 122 -136 142 -213 368 -336
581 -316 179 16 348 102 600 305 201 163 295 185 389 91 88 -88 142 -243 181
-518 16 -119 34 -119 26 0 -15 229 -98 464 -191 544 -125 107 -244 62 -596
-225 -337 -276 -711 -212 -995 169 -61 82 -94 114 -119 115 -5 0 -11 5 -13 12
-5 15 33 39 77 48 19 4 41 16 48 26 19 27 69 51 208 98 140 48 232 56 178 17
-37 -27 -37 -173 1 -246 l16 -31 -28 7 c-48 11 -91 43 -129 97 -21 29 -39 54
-41 56 -2 2 -6 2 -9 -1 -9 -9 25 -70 60 -106 88 -94 221 -105 370 -31 34 16
112 75 176 130 162 141 186 154 285 154 44 0 93 -4 110 -8 29 -8 29 -9 11 -23
-11 -8 -29 -14 -41 -14 -12 0 -30 -7 -41 -16 -18 -14 -18 -15 -1 -10 92 29
236 29 307 0 42 -18 110 -64 110 -74 0 -5 -19 -6 -42 -4 l-43 4 45 -17 c105
-41 145 -81 217 -218 23 -44 43 -77 43 -74 0 4 -9 36 -20 71 -40 130 -157 266
-286 331 -177 90 -271 283 -430 885 -57 218 -98 341 -110 329 -2 -2 12 -57 31
-122 35 -119 42 -155 27 -155 -4 0 -38 45 -75 101 -145 213 -283 355 -404 414
-76 37 -177 52 -244 37 -29 -7 -54 -10 -56 -8 -10 10 87 56 171 82 84 26 93
27 150 15 75 -15 152 -57 230 -124 32 -28 57 -44 54 -36 -10 30 -141 128 -210
157 -87 37 -75 42 77 38 84 -3 129 -10 190 -30z m-5737 -217 c69 -39 129 -102
158 -164 33 -69 31 -85 -7 -85 -38 0 -69 -16 -69 -35 0 -12 14 -15 60 -15 l60
0 0 -40 c0 -39 0 -40 -37 -40 -32 -1 -95 -34 -82 -43 2 -2 17 -13 33 -25 35
-27 56 -28 56 -4 0 22 17 48 26 40 11 -11 54 -190 54 -224 0 -37 -42 -205 -70
-282 -35 -93 -58 -131 -85 -137 -14 -3 -36 -7 -49 -10 -52 -11 -178 15 -355
72 -9 3 3 -8 25 -23 23 -16 81 -43 129 -59 l87 -30 -6 -94 c-5 -90 -5 -93 13
-77 17 15 18 14 29 -23 16 -51 15 -77 -4 -141 -19 -64 -61 -110 -101 -110 -72
0 -318 143 -467 271 -4 4 6 25 22 46 17 21 39 58 47 83 23 62 23 201 1 264
-16 46 -16 50 1 69 18 19 17 20 -17 15 -116 -18 -253 159 -180 232 29 29 67
25 101 -11 25 -27 34 -30 63 -25 57 11 115 97 131 193 6 41 11 45 89 92 130
79 235 201 259 302 6 27 16 49 22 49 5 0 34 -14 63 -31z m5178 -99 c39 -86
124 -163 256 -231 l105 -53 37 -72 c66 -128 154 -185 209 -136 19 17 20 16 7
-8 -8 -14 -14 -38 -16 -55 -1 -16 -5 -40 -9 -52 -6 -19 -4 -23 12 -23 11 0 27
6 37 13 19 14 19 38 1 93 -4 14 -1 27 10 38 21 20 28 20 55 -2 22 -18 22 -19
6 -75 -11 -38 -29 -69 -52 -92 -33 -33 -39 -35 -78 -30 -53 8 -75 -11 -58 -50
8 -18 9 -40 1 -77 -18 -95 -14 -197 11 -262 32 -85 59 -125 86 -132 13 -3 24
-10 24 -14 0 -4 -43 -42 -96 -85 -324 -261 -451 -279 -461 -68 -5 89 5 115 33
92 16 -13 17 -10 11 40 -4 35 -2 59 5 68 8 10 6 19 -11 37 -33 35 -24 56 34
76 65 22 144 62 175 89 l25 22 -35 -15 c-19 -7 -61 -25 -92 -39 -77 -35 -165
-57 -230 -57 -52 0 -55 2 -80 40 -15 21 -36 65 -48 97 -12 31 -42 100 -68 153
-44 90 -47 99 -46 175 0 88 15 128 44 123 10 -2 27 6 39 16 42 38 16 106 -41
106 -21 0 -28 5 -28 20 0 16 7 20 33 20 44 0 71 20 63 47 -7 20 -44 43 -73 43
-20 0 -13 48 17 112 18 39 136 168 154 168 2 0 17 -27 32 -60z m-1662 -64
c117 -49 1 -316 -136 -316 -20 0 -27 9 -42 51 -21 58 -17 106 16 175 21 45 66
88 103 97 11 2 21 5 23 6 1 0 18 -5 36 -13z m1400 -339 c2 -22 -5 -77 -15
-123 -22 -99 -17 -134 36 -248 42 -91 45 -143 14 -279 -12 -50 -22 -128 -23
-171 -1 -79 -1 -79 -31 -89 -16 -5 -59 -32 -95 -59 l-65 -50 -3 42 c-2 26 9
84 30 153 33 112 33 112 33 342 1 210 4 241 29 360 15 72 30 172 33 224 l6 95
23 -80 c13 -43 25 -96 28 -117z m-2234 17 c15 3 45 2 66 -1 l39 -7 -36 -6
c-50 -9 -131 2 -137 18 -3 11 0 12 18 2 12 -7 35 -10 50 -6z m826 -159 c15
-13 29 -43 39 -85 26 -108 46 -164 62 -177 36 -28 -22 -111 -131 -187 -81 -57
-160 -101 -275 -152 -94 -43 -95 -43 -117 -98 -29 -72 -85 -176 -94 -176 -4 0
-9 48 -11 108 -4 89 -8 113 -27 143 -17 29 -22 51 -22 105 0 83 11 107 30 67
20 -43 22 -13 4 53 -31 112 -32 108 23 129 96 36 164 79 222 141 63 66 124
176 121 215 -1 13 1 35 5 47 6 19 13 23 34 19 14 -3 37 0 51 8 24 13 24 13 43
-64 13 -51 27 -82 43 -96z m-678 112 c4 -35 -28 -80 -73 -101 -39 -19 -59 -13
-52 15 3 11 0 19 -6 20 -19 1 -61 9 -74 14 -7 2 -13 14 -13 25 0 18 6 20 58
20 35 0 73 8 97 19 49 24 59 22 63 -12z m-4801 -470 c55 -172 57 -185 40 -249
-22 -83 -16 -100 75 -236 38 -56 73 -114 79 -128 27 -72 -31 -100 -245 -118
-183 -16 -212 -29 -248 -107 -13 -27 -27 -49 -33 -49 -22 0 -122 53 -163 87
-24 19 -55 53 -69 74 -34 52 -63 168 -63 254 l0 71 49 46 c27 25 60 71 75 101
33 70 76 236 76 293 0 59 16 66 132 59 74 -5 107 -2 163 14 39 10 75 20 80 20
6 0 29 -59 52 -132z m3668 3 c40 -9 86 -38 89 -55 0 -5 -24 -13 -54 -18 -85
-11 -379 -10 -434 3 -56 12 -89 -2 -44 -19 96 -36 330 -38 466 -3 l73 19 -6
-66 c-4 -36 -11 -70 -15 -74 -4 -5 -47 -15 -96 -24 -84 -14 -193 -14 -369 2
l-50 4 55 -15 c94 -25 337 -19 442 12 19 6 20 22 -12 -200 -11 -76 -23 -164
-26 -195 -3 -31 -7 -61 -9 -67 -9 -31 -297 -51 -331 -23 -17 14 -18 43 -2 69
9 14 10 27 2 48 -7 18 -7 35 -1 49 13 30 4 48 -42 81 -40 29 -40 30 -21 47 11
10 20 23 20 29 0 6 -25 34 -55 61 l-55 50 -2 68 c-1 42 -7 72 -15 78 -7 7 -13
31 -13 55 0 68 28 80 224 94 107 8 218 4 281 -10z m-482 -316 c76 -39 98 -85
51 -106 -22 -11 -33 -8 -80 16 -57 30 -77 63 -54 91 16 19 43 19 83 -1z m601
-30 c26 -10 19 -65 -14 -117 -16 -26 -33 -47 -36 -47 -11 0 2 124 15 148 13
24 13 24 35 16z m-4678 -40 c40 -19 92 -81 110 -132 19 -54 17 -136 -6 -248
-65 -313 -21 -446 198 -595 42 -29 81 -55 85 -59 5 -4 -1 -27 -13 -51 -31 -59
-66 -156 -74 -203 -7 -35 -6 -38 8 -27 13 11 16 9 23 -16 4 -15 6 -68 4 -118
-3 -49 -5 -122 -5 -162 -1 -42 -5 -68 -10 -63 -5 5 -39 65 -75 134 l-67 126
-164 81 c-250 122 -510 304 -510 355 0 10 11 37 25 59 52 86 69 122 80 170 11
48 13 50 61 63 64 18 106 51 160 124 31 43 46 76 55 119 6 32 13 59 15 59 2 0
20 -11 40 -25 40 -27 95 -33 112 -12 8 10 2 12 -26 12 -141 0 -271 230 -201
354 38 68 104 88 175 55z m4196 -111 c30 -27 20 -57 -21 -61 -39 -4 -110 12
-158 35 -30 14 -33 20 -33 58 0 33 4 44 18 47 21 5 167 -54 194 -79z m-775
-22 c67 -67 134 -233 229 -570 30 -107 61 -209 69 -227 8 -19 11 -35 7 -37 -4
-3 -43 -10 -88 -17 -61 -10 -89 -10 -113 -2 -19 7 -58 9 -96 5 -75 -7 -72 -12
-49 90 24 103 15 193 -37 372 -40 135 -44 146 -47 107 -2 -27 8 -86 26 -150
43 -155 43 -152 33 -269 -12 -134 -15 -143 -52 -143 -46 0 -136 -39 -175 -75
l-36 -34 -76 31 c-112 46 -157 43 -306 -17 -183 -74 -235 -135 -221 -259 l6
-62 -50 -43 c-28 -23 -51 -49 -51 -57 0 -24 -19 -15 -36 17 -15 30 -15 33 6
61 30 41 17 47 -20 9 -26 -25 -29 -34 -20 -50 16 -30 13 -32 -25 -14 -20 9
-35 24 -35 34 0 21 57 72 110 99 58 30 49 43 -12 17 -58 -24 -118 -78 -118
-107 0 -13 -14 -23 -47 -36 -27 -10 -53 -21 -60 -26 -10 -8 -172 14 -192 26
-17 11 -20 64 -7 127 20 92 34 212 71 610 5 44 3 69 -4 73 -8 5 -11 -15 -11
-63 0 -39 -4 -71 -9 -71 -4 0 -11 28 -15 62 -7 70 -51 224 -66 233 -14 9 -13
-1 15 -117 52 -219 55 -369 10 -578 -15 -69 -27 -156 -27 -193 -1 -37 -5 -70
-9 -73 -5 -2 -28 5 -51 17 -57 30 -178 38 -231 16 -49 -21 -49 -38 1 -26 48
11 149 13 185 4 22 -6 25 -10 16 -21 -6 -8 -8 -14 -3 -15 29 -1 101 -11 112
-15 10 -3 6 -19 -16 -61 -29 -57 -55 -123 -47 -123 2 0 19 26 38 58 20 31 46
67 59 79 23 22 108 43 108 28 0 -5 -13 -29 -29 -54 -42 -67 -55 -142 -55 -336
-1 -132 3 -188 18 -250 20 -88 49 -153 72 -162 11 -4 12 -8 3 -20 -8 -9 -9
-17 -2 -24 16 -16 66 32 95 93 30 62 55 165 64 267 4 39 8 71 9 71 1 0 31 -13
66 -29 132 -60 235 -61 343 -5 33 17 59 24 80 21 17 -2 82 5 146 17 95 17 146
20 291 18 l176 -3 16 -72 c9 -40 37 -162 61 -271 55 -243 92 -459 102 -586 3
-52 12 -114 19 -137 15 -51 11 -55 -63 -73 -30 -7 -66 -23 -80 -35 -24 -21
-25 -25 -13 -48 13 -25 9 -47 -10 -47 -21 0 -118 -92 -128 -122 -22 -62 -14
-96 47 -200 157 -273 265 -407 408 -510 156 -111 318 -184 493 -219 52 -11 96
-21 99 -23 2 -2 -13 -22 -32 -44 -20 -22 -36 -45 -36 -51 0 -6 -6 -11 -12 -12
-126 -7 -198 -47 -335 -186 l-112 -114 -3 -77 c-3 -74 -1 -82 49 -196 93 -210
153 -293 306 -420 60 -49 105 -92 99 -94 -6 -2 -58 4 -114 13 -108 17 -297 32
-288 22 3 -3 83 -15 177 -27 505 -62 962 -211 1136 -371 92 -83 122 -147 122
-254 0 -99 -25 -152 -111 -238 -155 -156 -425 -277 -779 -350 -291 -61 -468
-82 -804 -97 -347 -15 -832 13 -1124 65 -153 28 -219 37 -224 32 -9 -9 128
-47 242 -67 269 -47 390 -55 820 -55 447 0 556 8 888 65 177 30 426 90 557
135 114 39 130 44 130 39 0 -6 -151 -77 -245 -114 -755 -300 -2071 -252 -2838
104 -52 24 -97 48 -101 54 -4 6 22 -2 58 -18 117 -53 369 -130 383 -116 3 3 0
7 -8 10 -417 122 -673 269 -744 427 -23 52 -27 71 -23 133 5 95 34 153 122
242 105 105 259 184 482 247 203 58 198 60 106 -33 -44 -44 -99 -109 -122
-145 -27 -42 -49 -65 -61 -65 -11 0 -19 -4 -19 -10 0 -5 7 -7 15 -4 8 4 15 4
15 1 0 -19 -66 -146 -90 -174 -35 -39 -43 -67 -32 -107 13 -48 50 -67 153 -81
52 -7 122 -22 156 -33 34 -12 93 -25 132 -28 83 -8 87 -15 41 -84 -82 -124
-35 -189 138 -190 47 0 97 -6 115 -14 82 -34 203 -41 682 -41 480 0 758 12
945 40 266 39 436 77 502 111 19 10 29 25 34 49 3 20 16 42 27 50 21 15 21 15
-5 15 -30 0 -67 41 -93 103 -14 34 -14 37 3 46 9 5 66 16 125 25 116 17 163
40 173 83 9 35 -2 64 -45 116 -22 27 -62 89 -88 138 -58 110 -97 157 -166 200
-97 60 -177 81 -317 84 l-125 3 110 -7 c129 -9 134 -11 244 -64 115 -57 157
-97 221 -212 29 -54 73 -120 97 -148 58 -68 60 -108 6 -135 -21 -11 -87 -27
-147 -36 -60 -9 -112 -19 -117 -21 -4 -3 -28 30 -53 74 -25 43 -68 103 -96
134 l-51 56 33 4 33 4 -37 1 c-29 2 -49 12 -88 47 -28 24 -63 51 -79 60 -16 8
-39 31 -52 52 -36 59 -79 103 -100 103 -13 0 -19 7 -19 22 0 19 -1 20 -17 6
-10 -9 -36 -23 -58 -32 -22 -10 -49 -26 -61 -37 -25 -23 -32 -17 -58 51 -35
89 -186 252 -288 310 -50 28 -69 47 -95 92 -41 71 -79 86 -158 65 -39 -10 -54
-20 -70 -47 -21 -36 -70 -86 -155 -161 l-53 -46 -200 -7 -201 -7 -50 55 c-95
102 -175 89 -259 -44 -32 -49 -88 -77 -237 -115 -332 -87 -554 -191 -687 -325
-139 -139 -145 -321 -16 -478 44 -54 123 -132 133 -132 4 0 25 -14 46 -31 119
-95 411 -217 684 -287 109 -28 354 -75 450 -86 149 -18 238 -26 340 -31 63 -3
165 -8 225 -11 61 -3 200 0 310 6 534 29 915 114 1240 277 212 106 384 252
446 379 31 62 34 77 34 154 0 70 -4 94 -24 135 -34 67 -82 118 -173 182 -43
30 -78 56 -78 57 0 1 66 2 148 3 91 0 185 7 247 17 120 21 305 81 406 132 171
85 350 231 463 378 81 105 105 145 126 214 21 66 29 68 121 34 147 -55 411
-56 588 -3 19 6 36 9 39 7 2 -2 -2 -23 -9 -46 -14 -48 -46 -68 -66 -41 -13 19
-12 20 -41 -43 -19 -40 -22 -58 -16 -102 l6 -54 -37 0 c-35 0 -37 2 -31 25 6
22 3 25 -19 25 -28 0 -29 -4 -14 -49 11 -30 9 -35 -19 -64 -16 -18 -32 -41
-34 -52 -2 -15 -11 -20 -33 -20 -31 0 -31 0 -17 50 5 18 4 18 -11 6 -10 -8
-17 -28 -17 -47 0 -26 -7 -39 -36 -60 -19 -15 -42 -40 -50 -55 -31 -61 -5
-155 51 -181 30 -13 38 -35 33 -90 -3 -39 -2 -41 48 -69 27 -16 74 -33 104
-39 64 -12 97 -32 110 -65 7 -18 23 -28 62 -39 67 -19 212 -26 190 -10 -11 8
-12 13 -3 18 18 11 44 -2 37 -19 -4 -10 6 -18 35 -25 23 -6 44 -9 47 -6 3 3
-1 6 -10 6 -20 0 -54 39 -62 73 -13 57 34 157 74 157 10 0 32 -11 48 -25 35
-29 48 -31 56 -9 5 13 15 15 43 11 20 -4 42 -2 49 4 17 14 44 -38 44 -86 0
-78 -36 -122 -110 -135 -38 -6 233 -24 330 -21 100 3 423 63 445 82 5 6 4 9
-3 9 -15 0 -16 26 -2 35 6 4 18 4 27 1 12 -5 13 -9 3 -21 -10 -13 -9 -15 9
-15 31 0 201 65 303 116 143 72 188 126 173 213 -6 36 -4 39 26 51 41 18 59
61 59 148 l0 69 -39 11 c-21 7 -43 18 -49 25 -13 15 -4 97 11 97 24 0 141 -75
195 -124 210 -195 118 -461 -220 -640 -166 -89 -426 -161 -668 -186 -58 -6
-145 -18 -195 -26 -76 -14 -114 -14 -245 -5 -311 21 -440 39 -640 87 -378 92
-586 229 -634 418 -43 165 73 310 364 456 119 60 121 76 3 31 -174 -68 -309
-174 -365 -289 -30 -60 -33 -75 -33 -152 1 -76 4 -93 34 -155 190 -393 1051
-596 1865 -438 371 71 676 233 803 427 58 87 75 149 71 247 -4 77 -8 93 -39
144 -18 31 -56 77 -83 100 -63 56 -260 165 -296 165 -41 0 -60 9 -53 26 3 8
-2 34 -11 58 -16 43 -18 44 -73 51 -79 10 -83 12 -83 54 0 20 -9 47 -19 60
-10 13 -16 33 -13 43 4 16 1 18 -21 13 -16 -4 -34 -1 -51 10 -43 28 -122 16
-158 -24 l-27 -31 -37 25 c-41 28 -91 32 -120 10 -10 -8 -31 -15 -46 -15 -24
0 -28 -4 -28 -30 0 -41 -17 -38 -35 7 -29 70 -29 77 5 90 18 7 29 17 25 22 -8
15 -48 14 -63 -1 -9 -9 -23 -6 -61 12 -97 45 -199 9 -246 -88 -16 -34 -27 -43
-63 -53 -39 -11 -45 -10 -54 4 -13 24 -48 22 -48 -3 0 -25 -15 -26 -32 -1 -8
11 -27 25 -43 32 -17 7 -42 26 -57 43 l-28 31 -19 -24 -19 -24 -7 50 c-6 47
-2 63 49 190 30 76 58 159 61 183 4 25 18 117 32 205 22 135 25 183 21 305
l-5 145 38 27 c53 38 56 67 20 178 -17 51 -31 107 -31 124 0 50 35 162 111
357 38 99 79 217 90 262 25 100 27 223 5 299 -20 69 -72 148 -108 166 -31 15
-33 24 -17 87 17 68 31 74 84 36 163 -117 523 -184 785 -145 l35 5 18 -67 c23
-88 73 -189 109 -219 38 -32 78 -32 200 -1 126 32 234 76 335 137 79 48 103
54 103 25 0 -6 24 -104 54 -216 59 -226 91 -406 84 -479 -6 -61 -102 -274
-145 -322 -20 -22 -35 -51 -39 -76 -5 -33 -12 -43 -41 -57 -46 -22 -59 -11
-80 67 -13 47 -25 66 -57 93 l-41 34 24 176 c18 127 22 180 14 192 -41 66
-284 107 -542 91 -107 -7 -130 -12 -191 -40 -62 -28 -70 -35 -76 -65 -3 -18
-4 -55 -1 -81 4 -27 9 -84 13 -127 6 -71 5 -79 -9 -73 -114 43 -509 148 -556
147 -35 -1 47 -33 128 -50 47 -10 138 -34 201 -53 64 -19 143 -41 177 -48 l61
-12 6 -60 c12 -113 8 -141 -19 -165 -28 -24 -32 -57 -10 -86 12 -16 12 -22 0
-47 -22 -41 -18 -71 12 -115 18 -27 29 -58 34 -99 9 -75 61 -226 94 -269 34
-45 32 -73 -7 -94 -18 -9 -45 -29 -60 -44 -22 -21 -26 -31 -19 -49 21 -57 127
-88 307 -90 89 0 120 3 166 21 38 14 70 19 95 16 202 -27 209 -29 272 -64 l63
-35 -6 -71 c-28 -302 -11 -547 42 -608 32 -37 403 -177 725 -274 82 -24 151
-44 153 -44 2 0 4 6 4 14 0 10 -56 32 -177 71 -98 30 -243 78 -323 106 -154
54 -360 146 -360 161 0 4 15 59 34 121 74 246 165 730 177 945 2 34 6 41 18
36 267 -106 623 -214 708 -214 21 0 51 -9 68 -20 39 -26 55 -25 48 1 -4 14 4
30 27 54 28 29 38 53 66 167 52 209 140 646 131 655 -8 8 -35 -89 -58 -212
-12 -60 -41 -175 -66 -255 -25 -80 -47 -174 -50 -210 -5 -55 -11 -73 -44 -117
-36 -48 -41 -51 -66 -43 -16 5 -185 53 -378 106 -192 53 -351 97 -352 98 -2 2
8 81 22 177 13 96 38 273 55 394 30 216 62 390 101 553 12 45 19 88 17 94 -5
14 -64 -150 -73 -202 -4 -19 -15 -66 -26 -105 -11 -38 -33 -178 -50 -310 -16
-132 -39 -317 -51 -412 -18 -140 -24 -171 -37 -171 -9 0 -23 -2 -31 -6 -19 -8
-133 63 -149 91 -5 11 -19 57 -31 103 -12 47 -37 114 -57 149 -33 61 -34 66
-17 78 10 7 28 13 40 13 24 0 34 17 34 60 0 18 11 42 29 62 33 38 68 107 136
263 26 61 58 128 71 150 12 22 52 108 87 190 150 351 193 406 397 519 45 25
86 46 91 46 15 0 10 -36 -11 -85 -15 -35 -20 -69 -20 -133 0 -48 -7 -125 -15
-172 -19 -105 -19 -160 -2 -160 6 0 49 71 93 158 69 133 87 160 115 174 19 9
105 51 192 92 181 87 306 164 386 241 l56 54 34 -65 c22 -42 70 -102 143 -179
l111 -116 -8 -201 c-4 -110 -8 -215 -10 -232 -2 -17 -9 -85 -15 -151 -43 -479
-167 -1024 -341 -1502 -672 -1839 -2209 -3270 -4084 -3802 -563 -161 -1078
-233 -1665 -235 -214 -1 -498 8 -560 18 -14 2 -59 7 -100 10 -95 8 -261 31
-415 57 -1116 188 -2147 680 -3011 1435 -178 155 -518 501 -658 669 -321 384
-569 761 -796 1210 -95 188 -240 518 -240 546 0 7 10 9 27 4 51 -13 257 -23
270 -12 7 5 45 13 84 17 62 7 102 22 88 33 -2 2 -42 0 -89 -4 -213 -19 -377
-4 -408 38 -6 9 -37 91 -66 183 -151 457 -242 890 -286 1351 -42 436 -31 1010
26 1423 13 93 20 115 44 145 47 60 298 302 415 401 61 52 123 110 138 129 16
20 34 39 40 43 19 12 30 9 18 -6 -25 -30 92 -146 255 -252 83 -55 288 -163
381 -202 49 -21 55 -27 98 -110 93 -178 114 -236 126 -345 10 -100 42 -247 60
-277 18 -32 9 87 -14 160 -20 69 -22 95 -22 335 -1 178 -5 276 -14 312 -7 29
-11 58 -8 65 7 18 28 -38 34 -89 3 -24 9 -40 14 -37 14 8 10 44 -11 112 -39
126 -22 130 134 37 184 -111 259 -177 346 -304 56 -84 162 -308 235 -496 68
-180 107 -261 139 -290 25 -23 34 -68 41 -209 3 -80 10 -70 -127 -174 -71 -54
-102 -85 -117 -115 -149 -315 -163 -339 -176 -325 -8 7 11 280 26 378 5 36 26
132 45 215 36 158 62 330 50 342 -15 15 -26 -18 -35 -102 -5 -50 -16 -108 -24
-130 -13 -37 -14 -22 -20 200 -5 192 -10 254 -26 310 l-19 70 -1 -45 c0 -25 4
-63 9 -85 17 -67 12 -435 -10 -720 -11 -148 -20 -309 -20 -357 0 -110 -12
-127 -92 -126 -52 1 -224 -51 -237 -70 -8 -13 -364 -98 -506 -121 -66 -11
-149 -21 -185 -23 l-64 -3 -3 35 c-2 19 -15 51 -30 72 -24 35 -28 57 -49 256
-52 494 -108 747 -213 965 -100 206 -253 334 -423 354 -40 5 -48 3 -48 -10 0
-10 11 -19 28 -22 144 -29 260 -111 361 -258 55 -80 130 -250 156 -350 29
-114 41 -205 55 -402 24 -342 39 -427 91 -532 23 -46 39 -89 35 -98 -4 -11
-22 -15 -68 -16 -35 -1 -66 -1 -70 0 -17 2 -7 -9 18 -22 l27 -14 -32 -11 c-35
-12 -42 -32 -10 -32 17 0 12 -9 -30 -46 -65 -58 -137 -167 -167 -252 -25 -71
-31 -122 -14 -122 6 0 10 7 10 16 0 23 70 169 112 235 48 75 129 154 188 184
35 18 112 35 286 65 284 48 391 74 589 140 82 27 154 50 160 50 7 0 9 -44 7
-135 -8 -268 29 -706 74 -885 13 -52 24 -95 24 -96 0 -7 -79 -18 -140 -19 -41
-1 -129 -9 -195 -19 -438 -62 -757 -200 -834 -359 -55 -113 -1 -308 141 -514
60 -86 147 -169 256 -244 42 -29 100 -74 128 -100 82 -76 154 -105 338 -134
91 -15 391 -22 456 -11 14 3 57 9 96 15 161 24 279 80 311 148 14 30 36 49
100 86 226 134 425 454 427 687 1 60 -3 82 -21 110 -101 162 -432 292 -813
320 -102 8 -165 20 -188 35 -1 2 6 25 17 53 49 125 81 294 86 462 2 63 4 120
4 127 2 22 40 33 133 39 51 2 126 10 166 16 68 10 75 10 101 -10 69 -51 218
-68 374 -43 92 15 142 37 156 67 16 36 0 59 -55 80 l-46 18 7 50 c6 51 27 111
71 201 13 28 26 71 29 96 4 35 14 54 40 79 41 39 51 77 34 124 -12 33 -11 36
19 61 40 33 42 66 5 93 l-27 20 33 183 c38 219 43 299 18 327 -17 18 -80 40
-182 63 -27 7 -104 13 -170 14 l-120 2 -80 82 c-93 96 -144 168 -176 248 -20
51 -23 75 -22 198 0 160 14 267 84 665 78 442 136 656 209 770 90 141 189 122
526 -101 254 -168 356 -208 524 -209 l76 0 34 -92 c41 -109 54 -90 16 24 -17
53 -21 75 -13 80 22 14 37 8 47 -18 12 -30 30 -23 30 12 0 23 24 43 36 31 3
-3 12 -46 18 -96 7 -50 16 -94 19 -98 16 -15 18 11 7 108 -7 58 -8 105 -3 106
5 2 38 20 72 41 83 48 191 149 303 284 99 118 97 118 155 59z m-4152 -111 c50
-145 155 -358 194 -394 35 -34 37 -48 15 -102 -26 -62 -60 -101 -137 -153 -90
-61 -221 -174 -354 -305 -57 -55 -103 -94 -103 -87 0 29 72 334 111 473 63
222 224 686 235 675 2 -2 20 -50 39 -107z m4848 64 c103 -26 132 -50 89 -73
-32 -17 -155 -23 -182 -9 -25 14 -38 62 -26 94 6 15 8 15 119 -12z m35 -113
c53 -11 60 -17 39 -38 -20 -21 -146 -36 -164 -21 -14 11 -18 50 -6 61 9 9 78
8 131 -2z m403 -58 c-25 -44 -28 -46 -50 -34 -17 10 -22 9 -27 -4 -4 -9 -12
-14 -20 -11 -7 3 -15 0 -17 -7 -3 -8 -11 -6 -26 8 -23 20 -23 20 -37 0 -7 -11
-18 -26 -24 -32 -8 -10 -7 -13 4 -13 7 0 16 7 20 15 3 8 12 15 21 15 9 0 18
-7 21 -15 8 -21 30 -19 53 6 16 17 23 19 40 10 14 -8 21 -8 21 -1 0 5 5 10 10
10 6 0 10 -6 10 -13 0 -7 15 -20 33 -28 115 -50 -113 -106 -325 -79 -53 7
-104 17 -113 24 -18 13 -11 46 11 46 8 0 14 9 14 20 0 15 7 20 24 20 14 0 28
-5 32 -11 4 -6 19 -9 36 -5 16 3 39 1 50 -5 19 -10 19 -10 3 15 -20 31 -19 30
-49 11 -21 -14 -23 -14 -36 12 -11 23 -14 25 -18 10 -4 -20 -43 -20 -49 0 -7
21 53 42 94 32 57 -13 182 -10 238 5 66 19 67 19 56 -1z m-412 -45 c11 -30 1
-33 -46 -12 -34 14 -36 17 -18 24 35 15 55 11 64 -12z m-3221 -95 c-2 -10 -14
-23 -28 -30 -30 -15 -33 -38 -5 -38 16 0 20 -7 20 -30 0 -28 -2 -30 -45 -33
-50 -4 -60 -13 -60 -59 0 -42 -9 -46 -48 -22 -45 29 -84 113 -80 174 l3 48 32
-27 c17 -14 34 -22 37 -17 3 5 -1 14 -9 21 -29 24 -14 30 86 30 90 0 100 -2
97 -17z m3639 -59 c3 -8 -2 -44 -12 -79 -19 -71 -129 -305 -143 -305 -10 0
-39 87 -67 199 -21 81 -47 133 -81 160 l-27 21 114 1 c63 1 125 5 139 9 41 13
70 11 77 -6z m2756 -151 c-26 -10 -12 -23 23 -23 28 0 35 3 30 15 -8 22 30 19
53 -4 19 -19 41 -79 41 -113 0 -11 -8 -18 -20 -18 -11 0 -23 -7 -26 -15 -5
-13 -9 -13 -34 0 -16 8 -37 15 -47 15 -10 0 -35 9 -56 19 -37 19 -37 19 -37
-1 0 -17 -3 -18 -15 -8 -19 16 -19 53 0 90 18 35 41 50 75 49 14 0 19 -3 13
-6z m377 -77 c7 -25 9 -49 6 -54 -7 -12 -46 -4 -46 9 0 5 -7 9 -15 9 -19 0
-19 30 1 58 23 33 40 27 54 -22z m-552 -36 l23 -40 -26 0 c-18 0 -25 -5 -25
-20 0 -16 -7 -20 -36 -20 -19 0 -44 -5 -55 -10 -17 -10 -19 -7 -19 31 0 32 3
40 14 36 8 -3 32 -9 53 -12 37 -7 38 -7 16 10 -13 9 -23 22 -23 28 0 10 29 31
50 36 3 0 15 -17 28 -39z m-177 -1 c13 -46 9 -139 -7 -170 -15 -29 -14 -31 5
-36 30 -8 26 -22 -6 -21 -16 1 -37 -1 -49 -5 -19 -7 -20 -4 -16 25 3 19 15 42
31 55 21 18 23 22 8 23 -14 0 -16 5 -11 28 6 23 5 25 -8 15 -8 -7 -18 -10 -21
-6 -4 3 -7 -14 -7 -38 -1 -24 -8 -55 -16 -69 -15 -25 -15 -25 -10 13 3 20 1
37 -5 37 -5 0 -9 -7 -9 -15 0 -24 -19 -17 -26 9 -8 32 42 125 73 137 12 4 27
18 33 29 14 26 32 21 41 -11z m1204 1 c16 -72 -21 -152 -86 -186 -26 -13 -29
-13 -29 1 0 8 14 24 32 35 26 16 29 20 15 26 -15 5 -15 9 -2 40 8 19 11 34 7
34 -17 -1 -42 -29 -42 -47 0 -24 -29 -66 -30 -43 0 8 -8 2 -18 -15 l-17 -30
-3 31 c-4 41 20 99 47 114 12 6 21 8 21 4 0 -4 10 6 21 20 19 24 49 43 71 45
3 1 9 -13 13 -29z m-329 -12 c-1 -30 25 -30 39 -1 11 22 12 22 42 3 32 -19 53
-63 53 -111 0 -35 -24 -39 -35 -6 l-7 22 -7 -25 c-6 -21 -13 -25 -42 -24 -48
2 -109 26 -109 43 0 8 -7 22 -16 32 -22 25 -9 58 29 74 45 20 54 18 53 -7z
m-596 -48 c0 -5 -7 -13 -17 -18 -23 -13 -9 -42 20 -42 13 0 31 8 40 18 19 20
13 34 -9 25 -8 -3 -14 1 -14 11 0 21 69 22 108 2 55 -29 85 -72 90 -128 4 -51
2 -55 -37 -92 -39 -38 -40 -39 -65 -23 -36 24 -47 22 -101 -20 -33 -25 -50
-33 -53 -24 -9 28 -63 78 -102 96 -33 15 -40 23 -40 47 0 35 20 75 52 105 40
38 128 68 128 43z m-160 -35 c0 -14 -31 -65 -39 -65 -20 0 -41 13 -41 25 0 16
39 44 63 44 9 1 17 -1 17 -4z m1226 -66 c32 -6 69 -16 82 -23 l23 -12 -21 -27
c-39 -50 -104 -79 -173 -80 -75 0 -104 8 -118 35 -11 20 -9 21 30 14 28 -4 41
-3 41 5 0 8 13 9 40 5 33 -5 38 -4 34 9 -4 10 0 15 14 15 12 0 24 5 27 10 7
11 -8 9 -85 -11 -52 -13 -73 -11 -67 5 7 17 -14 12 -48 -11 -25 -16 -35 -17
-35 0 0 14 54 41 125 63 51 16 59 16 131 3z m-4548 -34 c102 -43 169 -121 181
-211 4 -30 5 -54 2 -54 -3 1 -31 9 -61 20 -30 11 -75 20 -100 20 l-45 0 -18
61 c-13 44 -30 74 -62 108 -25 27 -45 51 -45 54 0 19 104 20 148 2z m-393 -5
c6 0 38 3 72 6 114 12 223 -51 251 -144 20 -65 16 -79 -29 -108 -51 -32 -46
-39 12 -18 60 22 144 22 201 1 92 -35 175 -158 152 -225 -7 -21 -22 -31 -63
-45 -53 -17 -317 -77 -356 -80 -22 -2 -22 -1 -9 99 5 43 3 59 -16 92 -15 27
-21 51 -18 76 4 36 4 36 -20 20 -22 -15 -26 -14 -63 12 -65 45 -150 58 -256
40 -38 -7 -43 -5 -43 10 0 26 -31 105 -52 133 -24 32 -23 43 10 74 46 44 110
68 167 63 28 -3 55 -5 60 -6z m3249 -11 c41 -19 41 -39 0 -39 -22 0 -37 -6
-40 -15 -13 -33 -58 -12 -66 30 -2 15 4 21 27 26 46 10 52 10 79 -2z m-3633
-42 c77 -32 124 -70 147 -120 31 -68 34 -102 11 -131 -25 -31 -26 -31 47 -5
130 47 252 21 338 -71 63 -68 75 -157 28 -220 -23 -31 -76 -37 -338 -39 -215
-1 -218 0 -217 98 1 66 11 91 61 143 56 59 31 54 -37 -7 -36 -32 -71 -55 -84
-55 -12 0 -53 21 -91 45 -39 25 -88 50 -110 56 -23 6 -57 15 -76 20 -22 5 -36
5 -38 -1 -2 -6 -19 -10 -37 -10 -19 0 -37 -4 -40 -10 -12 -19 -23 -10 -35 26
-30 89 34 192 145 234 l24 9 -26 -57 c-27 -61 -43 -124 -25 -107 5 6 15 28 22
50 17 53 55 104 94 122 17 8 47 23 66 34 46 25 102 24 171 -4z m4089 -13 c30
-14 63 -33 74 -42 26 -24 54 -83 62 -130 6 -38 5 -40 -37 -63 -37 -20 -47 -33
-63 -78 l-19 -53 -66 4 c-99 8 -230 46 -258 76 -35 37 -32 111 7 178 70 123
182 163 300 108z m-375 -15 c-15 -7 -10 -8 18 -4 22 4 37 2 37 -4 0 -12 -63
-31 -103 -31 -29 0 -97 -25 -97 -35 0 -4 10 -3 21 0 18 6 21 4 17 -13 -4 -15
-1 -18 13 -15 10 3 24 11 30 19 15 19 39 18 39 -1 0 -22 7 -19 38 15 18 20 31
27 40 22 11 -7 10 -16 -4 -45 -10 -21 -25 -37 -33 -37 -9 0 -25 -7 -35 -15
-23 -17 -121 -20 -131 -5 -4 6 -24 18 -46 27 -21 8 -39 18 -39 22 0 7 51 49
105 86 30 20 50 25 94 24 43 0 51 -3 36 -10z m1524 -93 c22 -35 27 -66 12 -66
-5 0 4 -13 20 -29 35 -35 37 -64 7 -85 -32 -22 -38 -20 -38 14 0 44 -28 107
-51 113 -28 8 -25 47 4 47 20 1 21 2 5 14 -10 7 -18 21 -18 30 0 25 33 4 59
-38z m-916 8 c-8 -21 -43 -18 -43 5 0 11 6 21 13 24 17 6 37 -12 30 -29z
m1008 20 c19 -9 38 -32 49 -57 l19 -42 -47 -5 c-60 -7 -74 -2 -70 24 2 16 9
20 28 18 20 -3 22 -2 12 11 -7 8 -24 18 -37 21 -13 3 -29 15 -35 26 -10 18 -8
20 20 20 17 0 45 -7 61 -16z m-1761 -137 c82 -74 270 -139 490 -171 200 -29
645 -44 744 -25 10 2 21 -1 23 -8 3 -7 -13 -14 -43 -19 -64 -9 -503 2 -589 16
-200 31 -266 43 -324 56 -45 11 -67 12 -74 5 -6 -6 -7 -11 -3 -11 5 0 86 -16
181 -35 207 -42 547 -69 675 -53 140 18 320 -4 320 -38 0 -20 -69 -71 -154
-115 -72 -38 -87 -42 -189 -50 -61 -5 -119 -11 -127 -14 -9 -3 -24 -21 -33
-40 -9 -19 -22 -35 -28 -35 -7 0 -9 -10 -7 -25 5 -24 3 -25 -38 -25 -63 0
-291 54 -371 88 -38 16 -88 42 -111 56 -90 56 -220 209 -272 319 -21 44 -39
65 -73 87 -40 25 -67 55 -67 74 0 16 27 2 70 -37z m-2459 -8 c44 -23 88 -53
99 -67 38 -47 18 -112 -51 -162 -62 -44 -278 -110 -459 -139 -143 -24 -501
-40 -685 -31 -221 11 -264 16 -387 46 -53 13 -106 24 -117 24 -12 0 -21 7 -21
15 0 18 9 18 85 0 72 -17 85 -18 85 -5 0 5 -19 14 -42 20 -104 27 -169 53
-179 71 -17 32 19 89 74 117 113 59 301 27 401 -66 33 -31 98 -160 84 -168 -5
-3 -30 -3 -56 0 -70 10 -170 11 -178 3 -4 -4 10 -7 32 -8 21 0 50 -2 64 -4
160 -24 383 -24 665 0 302 26 572 111 625 198 26 42 25 50 -6 84 -20 22 -24
24 -19 8 20 -61 18 -74 -16 -106 l-34 -32 -7 52 c-4 37 -15 64 -35 89 -88 109
-58 132 78 61z m2629 29 c0 -7 3 -30 6 -50 5 -30 3 -38 -9 -38 -25 0 -107 38
-107 50 0 11 75 49 98 50 6 0 12 -6 12 -12z m-120 -18 c0 -23 -13 -26 -29 -6
-9 11 -9 15 1 19 23 10 28 7 28 -13z m1777 -7 c4 -11 -51 -53 -69 -53 -10 0
-10 54 -1 64 11 11 66 2 70 -11z m-1820 -75 c29 -32 56 -88 43 -88 -34 0 -80
55 -80 95 0 21 13 19 37 -7z m1463 -82 c44 -7 103 -37 170 -86 90 -66 92 -66
231 -90 68 -12 134 -28 146 -35 12 -8 27 -32 33 -52 27 -95 61 -343 47 -343
-2 0 -103 40 -225 89 -149 61 -228 88 -244 84 -13 -3 -76 -28 -141 -55 -88
-37 -132 -50 -175 -51 -41 -1 -56 1 -54 11 1 8 -14 12 -53 12 -48 0 -55 2 -55
20 0 16 7 20 38 21 20 0 46 4 57 8 12 5 -32 10 -110 14 -133 6 -232 26 -246
49 -13 21 7 22 127 8 123 -14 200 -9 224 16 14 15 13 16 -10 10 -62 -18 -182
-19 -246 -1 -35 9 -64 21 -64 26 0 17 50 29 118 29 150 0 398 127 390 199 -2
21 -12 29 -53 43 -81 30 -95 39 -95 66 l0 25 83 -7 c45 -3 93 -8 107 -10z
m-5695 -52 c17 -12 51 -32 78 -44 31 -15 47 -28 47 -41 0 -27 -35 -32 -113
-16 -37 7 -67 10 -67 6 0 -16 108 -101 164 -129 54 -27 69 -30 157 -30 53 0
104 -3 113 -6 21 -8 20 -31 -1 -43 -14 -8 -8 -10 30 -11 71 0 61 -23 -25 -55
-40 -15 -104 -33 -143 -40 l-70 -13 65 -1 c48 -1 61 -4 48 -12 -24 -13 -175
-31 -208 -24 -16 3 -70 31 -121 62 -109 64 -140 71 -205 49 -80 -27 -78 -30
-70 87 8 116 21 174 44 201 18 19 140 84 182 96 27 8 48 0 95 -36z m2220 -130
c87 -43 173 -58 256 -45 92 15 158 51 242 130 82 78 87 78 87 -10 0 -20 7 -50
15 -65 8 -16 13 -42 10 -59 -3 -16 -16 -112 -30 -212 -19 -136 -37 -219 -71
-330 -38 -122 -46 -163 -47 -234 -2 -70 1 -91 16 -106 29 -33 22 -46 -23 -38
-45 8 -140 -13 -140 -30 0 -6 7 -21 16 -34 15 -21 15 -24 -12 -52 -34 -35 -39
-35 -78 -6 -40 30 -119 43 -136 21 -11 -13 -15 -13 -31 2 -24 22 -69 11 -69
-16 0 -15 7 -20 24 -20 29 0 39 -12 30 -34 -4 -10 -18 -16 -41 -16 -19 0 -43
-5 -54 -10 -15 -9 -19 -7 -19 6 0 31 -61 146 -93 175 -40 37 -54 36 -100 -2
-26 -21 -40 -44 -48 -75 -6 -24 -13 -44 -16 -44 -2 0 -21 12 -40 28 -31 23
-46 27 -103 27 -57 0 -73 -4 -109 -29 -23 -16 -54 -50 -69 -75 -24 -40 -27
-56 -26 -125 l2 -78 -30 6 c-18 3 -41 0 -60 -10 -16 -8 -31 -14 -32 -12 -1 2
-13 19 -27 38 -39 54 -40 56 -12 55 14 0 28 6 30 13 4 9 -9 12 -46 11 -29 -1
-56 2 -61 7 -6 6 -15 59 -21 119 -22 223 -81 505 -153 730 -14 43 -23 81 -21
83 8 9 37 -17 75 -67 101 -136 263 -186 390 -121 56 29 123 92 155 145 25 43
125 335 125 366 0 8 20 30 44 47 26 19 52 48 62 71 l17 39 76 -64 c41 -36 107
-81 146 -100z m2087 140 c15 -8 32 -23 38 -34 10 -18 8 -20 -19 -20 -33 0 -91
43 -91 67 0 16 23 12 72 -13z m80 -95 c10 -5 18 -19 18 -29 0 -30 -54 -27 -85
5 -36 36 -32 49 12 40 21 -4 46 -11 55 -16z m-2626 -14 c4 -9 -4 -31 -17 -50
-19 -28 -35 -36 -87 -50 -99 -25 -97 -10 10 65 78 54 86 57 94 35z m6949 -204
c17 -169 38 -492 32 -497 -8 -9 -151 165 -179 219 -18 33 -43 64 -59 72 -65
34 -36 155 55 229 28 23 58 63 82 109 34 66 38 70 45 47 5 -14 15 -94 24 -179z
m-8601 154 c35 -17 112 -92 85 -82 -10 3 -35 11 -57 18 -23 6 -55 27 -73 45
-32 33 -32 34 -10 34 13 0 38 -7 55 -15z m1465 -30 c-17 -28 -28 -35 -52 -36
-52 -2 -77 -12 -90 -39 -8 -16 -35 -34 -78 -52 -139 -58 -563 -88 -757 -53
-84 14 -182 59 -182 82 0 26 -44 43 -110 43 -64 0 -67 1 -105 41 l-40 42 45
-7 c25 -4 114 -18 199 -31 205 -33 378 -40 591 -26 173 12 446 43 518 60 20 5
47 9 59 10 l22 1 -20 -35z m5761 15 c0 -23 -129 -31 -155 -10 -8 7 -15 15 -15
19 0 3 38 5 85 3 47 -2 85 -7 85 -12z m-4204 -90 c80 -38 234 -83 359 -106 75
-14 147 -18 290 -18 237 1 377 24 544 91 46 18 85 32 86 31 1 -2 5 -60 9 -130
l6 -128 -62 0 c-35 0 -95 9 -133 20 -134 38 -215 20 -294 -65 -28 -31 -41 -54
-41 -74 0 -32 11 -43 59 -60 128 -43 212 -215 212 -436 0 -111 -10 -172 -48
-289 l-25 -78 -122 5 -121 6 110 -19 c61 -10 111 -19 112 -19 7 -2 -26 -68
-91 -180 -85 -145 -135 -273 -167 -421 -40 -183 -31 -530 17 -692 4 -15 -8
-11 -67 17 -39 19 -97 39 -127 46 -48 10 -157 8 -226 -3 -13 -2 -25 9 -40 35
-24 43 -68 91 -103 114 -39 26 -28 45 62 102 154 97 302 274 450 538 55 98 57
105 53 161 -5 69 -31 112 -93 151 l-42 27 19 24 c10 13 18 30 16 37 -2 8 -46
29 -102 47 -54 19 -93 36 -87 40 19 12 12 26 -14 26 -18 0 -25 -5 -25 -20 0
-11 -4 -20 -10 -20 -5 0 -10 19 -10 41 0 60 -36 127 -82 150 -46 24 -53 35
-34 55 9 8 16 19 16 23 0 13 -24 31 -41 31 -26 0 -35 -21 -16 -35 29 -21 19
-33 -33 -44 -70 -15 -70 -15 -63 19 7 36 -21 74 -49 67 -24 -7 -23 4 3 37 13
16 25 53 31 99 17 117 18 112 -25 110 -73 -5 -170 -42 -209 -80 -34 -33 -38
-35 -44 -17 -20 61 -32 80 -82 124 l-56 50 53 177 c29 98 54 179 56 181 2 2
52 -26 112 -62 169 -103 339 -156 563 -177 114 -10 390 -1 368 12 -7 5 -83 6
-168 2 -140 -5 -169 -3 -296 20 -78 15 -184 41 -235 58 -112 37 -257 110 -300
150 l-31 29 6 93 c4 50 9 122 12 160 l6 67 62 -36 c33 -19 89 -48 122 -64z
m1331 85 c8 -23 0 -26 -38 -14 -53 18 -57 29 -11 29 29 0 45 -5 49 -15z m48
-41 c9 -9 14 -19 11 -21 -9 -9 -46 9 -46 23 0 19 15 18 35 -2z m-2805 -25
c-17 -30 -70 -59 -111 -59 -79 0 -129 12 -129 31 0 14 12 19 58 25 31 3 77 10
102 14 83 14 92 13 80 -11z m-126 -73 c49 -1 57 -19 16 -36 -31 -13 -203 -11
-216 3 -4 4 1 16 12 28 17 19 25 20 84 14 36 -4 83 -8 104 -9z m3010 -112 l25
-75 -47 3 -47 3 -5 68 c-3 38 -3 71 -1 73 2 2 14 4 27 4 19 0 26 -11 48 -76z
m-4054 49 c23 -9 -26 -21 -85 -22 l-50 0 35 19 c32 17 59 18 100 3z m812 -33
c11 0 31 -20 53 -54 19 -30 39 -57 45 -61 21 -13 10 -27 -17 -20 -68 16 -212
138 -200 169 5 14 13 12 53 -9 26 -14 55 -25 66 -25z m3697 10 c52 -6 97 -13
100 -16 11 -10 -74 -83 -148 -127 -102 -61 -131 -67 -173 -35 -18 13 -45 29
-60 36 -27 11 -34 22 -22 34 9 10 83 -27 99 -48 9 -13 17 -16 24 -9 13 13 31
103 31 152 0 32 2 34 28 29 15 -3 70 -11 121 -16z m911 -40 c38 -16 75 -30 84
-30 28 0 27 -20 -1 -31 -35 -14 -312 -6 -339 10 -11 5 -17 11 -14 11 3 0 41
16 85 35 44 19 88 35 98 35 10 0 49 -13 87 -30z m-656 11 c3 -4 3 -11 0 -14
-8 -8 -34 3 -34 14 0 11 27 12 34 0z m91 -65 c82 -22 118 -27 200 -24 55 1
183 -1 285 -5 181 -6 185 -7 191 -29 12 -45 32 -238 25 -245 -3 -3 -81 -6
-174 -6 -185 0 -300 16 -434 60 -85 28 -244 120 -242 141 1 6 2 42 3 78 1 77
-16 73 146 30z m-1151 -32 c86 -26 93 -26 172 -14 97 15 254 8 328 -14 54 -16
106 -60 106 -88 0 -10 -7 -29 -15 -42 -8 -12 -26 -55 -39 -94 l-25 -72 23 0
c13 0 29 7 36 15 37 45 168 94 234 89 120 -11 228 -131 256 -283 20 -110 -4
-214 -112 -486 -88 -221 -108 -291 -108 -379 0 -45 6 -69 25 -101 47 -82 41
-163 -14 -178 -17 -4 -21 2 -31 52 -6 31 -25 109 -42 175 -30 116 -30 120 -15
181 9 34 48 140 88 236 82 197 107 277 115 369 12 127 -24 216 -109 269 -132
81 -303 -31 -333 -218 -7 -41 -8 -43 -21 -25 -11 14 -13 36 -8 92 3 44 2 72
-4 72 -11 0 -17 -28 -26 -116 -7 -66 7 -198 31 -284 28 -101 86 -241 109 -263
13 -12 40 -60 60 -107 38 -88 107 -282 103 -285 -178 -115 -501 -164 -792
-120 -117 18 -106 17 -106 6 0 -17 223 -43 365 -43 224 0 390 37 482 107 44
34 48 35 60 19 8 -11 11 -31 7 -51 -4 -23 -2 -33 6 -33 8 0 10 -9 6 -24 -3
-14 -2 -28 4 -31 5 -3 10 -15 10 -25 0 -39 -219 -123 -395 -151 -182 -29 -470
-9 -628 43 -68 22 -160 68 -194 95 -21 18 -21 18 -4 98 20 93 30 99 95 61 58
-34 94 -47 100 -37 3 5 -20 18 -52 30 -31 12 -67 32 -79 43 -40 37 -48 17 159
418 113 220 132 290 132 475 0 155 -15 232 -62 319 -32 59 -99 128 -141 146
-17 7 -31 16 -31 20 0 4 23 18 52 30 75 32 143 24 293 -34 127 -50 236 -71
315 -60 72 9 135 33 161 60 13 14 17 23 9 20 -8 -3 -64 -17 -125 -32 -129 -30
-155 -27 -315 36 -172 68 -266 75 -361 25 -57 -29 -69 -31 -69 -8 0 26 73 88
126 105 67 23 86 22 188 -8z m3036 -124 c46 -16 71 -18 151 -13 l96 6 11 -46
c7 -25 12 -48 12 -51 0 -2 -15 -8 -32 -11 -58 -12 -128 -58 -185 -119 -45 -48
-73 -97 -147 -248 -50 -103 -94 -188 -98 -188 -5 0 -8 21 -8 48 0 26 -10 90
-21 142 -11 52 -27 126 -35 163 l-14 69 54 61 c29 34 72 95 95 135 23 39 47
72 54 72 7 -1 37 -9 67 -20z m-2200 -34 c0 -31 -6 -35 -77 -46 -32 -5 -84 -23
-117 -40 -32 -17 -60 -29 -63 -26 -3 2 1 21 8 41 10 26 17 34 29 28 30 -14 71
-5 137 29 84 43 83 43 83 14z m-5570 -76 c95 -14 136 -28 167 -55 37 -33 28
-38 -116 -66 -145 -27 -320 -30 -440 -6 -46 9 -95 17 -108 17 -51 0 -4 -27 80
-46 124 -28 352 -26 472 5 50 13 98 27 108 32 14 8 17 5 17 -23 0 -18 -9 -94
-20 -168 -11 -74 -23 -158 -27 -187 -5 -46 -9 -53 -32 -57 -261 -53 -570 -88
-595 -67 -16 13 -22 56 -31 224 l-6 107 28 -11 c151 -57 478 -62 596 -8 55 25
26 24 -46 -1 -114 -40 -488 -21 -567 29 -8 6 -15 28 -17 53 -1 24 -5 70 -9
104 l-6 60 58 27 c114 50 302 64 494 37z m3264 -124 c41 -17 99 -68 125 -110
24 -38 42 -179 21 -159 -21 19 -40 5 -30 -22 13 -35 -4 -39 -28 -6 -11 16 -31
31 -43 34 -21 6 -21 5 3 -21 51 -57 52 -61 33 -82 -10 -11 -31 -20 -47 -20
-17 0 -28 -5 -28 -14 0 -11 13 -13 60 -9 41 4 60 2 60 -5 0 -26 -119 -77 -157
-67 -27 6 -29 18 -8 39 14 13 13 16 -7 30 -24 17 -48 6 -48 -21 0 -12 -9 -14
-47 -8 -27 4 -50 8 -52 10 -9 9 14 26 49 35 46 12 51 26 15 42 -14 6 -25 19
-25 29 0 9 -12 26 -27 37 -43 31 -20 44 76 44 45 -1 86 -4 91 -7 16 -10 11 5
-10 32 -30 39 -43 99 -35 170 4 35 11 63 16 63 5 0 24 -6 43 -14z m2220 -58
c-8 -29 -28 -125 -45 -213 -40 -209 -79 -374 -89 -380 -4 -3 -12 1 -18 8 -14
18 -59 165 -73 241 -12 63 -12 65 14 95 16 19 29 50 33 79 13 92 72 174 149
208 44 19 44 19 29 -38z m176 -43 c57 -115 33 -264 -92 -554 -23 -53 -54 -132
-69 -176 l-27 -79 -36 73 c-44 87 -42 106 12 97 31 -5 34 -5 17 5 -11 7 -21
13 -22 13 -1 1 8 33 22 72 33 96 101 370 120 484 9 52 18 101 20 108 9 24 29
7 55 -43z m-1970 -45 c0 -45 -4 -62 -15 -66 -8 -4 -15 -17 -15 -30 0 -20 -10
-29 -47 -46 -36 -16 -43 -22 -28 -25 11 -2 39 -8 61 -14 41 -11 42 -12 40 -52
-1 -47 -26 -65 -26 -19 0 16 -7 35 -15 42 -12 10 -18 8 -34 -11 -16 -20 -28
-24 -74 -24 -43 0 -53 3 -45 13 6 6 19 12 29 12 41 0 26 19 -17 22 l-47 3 26
31 c24 29 26 44 5 44 -4 0 -15 -17 -25 -37 l-17 -38 -4 40 c-2 22 2 57 9 78
12 37 59 87 81 87 6 0 19 7 28 15 9 8 34 19 56 24 74 17 74 18 74 -49z m-4236
-186 c6 -65 4 -79 -13 -108 -12 -18 -31 -37 -43 -43 -21 -10 -20 -11 22 -23
87 -24 369 -8 628 36 73 13 96 13 107 4 23 -19 18 -39 -17 -72 -40 -37 -49
-41 -223 -90 -77 -22 -144 -44 -150 -50 -17 -18 93 1 170 28 153 56 165 59
183 47 22 -14 18 -37 -16 -93 -33 -54 -78 -81 -192 -116 -84 -26 -110 -39
-110 -55 0 -9 45 4 163 47 86 32 104 27 85 -27 -16 -46 -58 -80 -157 -126 -51
-24 -92 -46 -89 -48 7 -7 74 17 136 49 54 28 61 23 38 -23 -62 -119 -323 -226
-601 -246 -146 -10 -192 -23 -325 -91 -68 -35 -127 -64 -131 -64 -3 0 -9 62
-12 138 -4 75 -10 187 -13 248 -8 126 -1 148 52 170 84 35 147 118 228 300
l51 115 100 84 c55 46 105 84 111 85 7 0 14 -30 18 -76z m3060 54 c9 -36 7
-77 -6 -97 -9 -15 -7 -24 11 -47 l23 -29 -43 -3 c-49 -4 -54 2 -63 68 -7 51 2
87 29 113 23 23 42 21 49 -5z m63 -10 c37 -38 53 -76 53 -123 0 -41 -30 -81
-54 -72 -16 6 -16 9 0 38 16 31 15 32 -5 26 -19 -5 -21 -1 -21 38 0 24 -4 47
-10 50 -12 7 -14 75 -2 75 4 0 22 -15 39 -32z m301 -68 c-18 -28 1 -39 22 -12
18 22 20 22 45 6 32 -21 48 -49 41 -72 -4 -10 -27 -35 -52 -56 -37 -31 -48
-36 -55 -25 -5 8 -9 17 -9 21 0 9 -71 78 -81 78 -13 0 9 53 28 68 9 6 30 12
45 12 25 0 27 -2 16 -20z m220 -3 c16 -13 15 -27 -2 -27 -7 0 -25 -9 -39 -20
-30 -24 -33 -24 -41 -4 -3 8 4 28 15 44 21 28 37 30 67 7z m-902 -42 c7 -18
-13 -45 -33 -45 -19 0 -28 27 -13 45 16 19 39 19 46 0z m1428 -36 c22 -17 25
-24 15 -36 -8 -9 -21 -12 -36 -8 -13 3 -23 2 -23 -3 0 -16 46 -51 70 -54 22
-3 25 1 25 30 0 17 1 32 3 32 31 0 85 -81 96 -143 7 -39 0 -115 -13 -135 -5
-9 -24 -6 -69 9 -56 19 -61 23 -51 41 7 14 7 23 -2 34 -17 20 -28 17 -39 -10
-8 -21 -15 -24 -92 -28 -51 -3 -96 -11 -115 -21 -32 -17 -33 -17 -33 4 0 11
-9 52 -21 90 -23 75 -21 101 11 141 55 71 215 104 274 57z m243 1 c59 -26 84
-70 81 -140 -3 -54 -4 -55 -35 -58 -22 -2 -43 -15 -67 -42 -39 -44 -40 -43
-51 50 -8 64 -16 80 -63 137 l-34 43 33 15 c46 19 86 18 136 -5z m-4397 -34
c0 -18 -17 -29 -30 -21 -8 5 -7 11 1 21 15 18 29 18 29 0z m3685 -8 c30 -13
28 -32 -4 -36 -30 -5 -24 -32 11 -52 21 -11 32 -12 45 -4 25 16 26 31 3 37
-24 6 -26 25 -3 34 24 9 78 -56 104 -126 38 -101 14 -170 -83 -236 l-50 -33
-34 34 c-33 32 -82 52 -179 72 -33 6 -40 12 -40 32 0 15 -7 26 -17 28 -13 2
-18 -3 -18 -17 0 -28 -17 -35 -29 -12 -26 47 1 157 51 214 18 21 51 46 73 57
45 22 131 26 170 8z m-705 -61 c0 -29 -7 -37 -26 -30 -14 5 -19 35 -7 46 14
15 33 6 33 -16z m-579 -47 c5 0 8 -3 7 -7 -2 -5 2 -10 7 -12 6 -2 16 -12 23
-22 11 -16 10 -24 -3 -47 -14 -23 -23 -28 -55 -27 -23 0 -48 9 -60 20 -11 10
-23 15 -28 11 -4 -4 1 -13 11 -20 21 -16 22 -39 2 -56 -18 -15 -45 -6 -45 14
0 24 -20 29 -41 10 -25 -23 -24 -33 6 -44 20 -8 23 -13 16 -32 -4 -12 -14 -25
-22 -29 -65 -31 -68 -32 -84 -19 -14 12 -13 15 11 31 l28 18 -27 12 c-14 6
-31 25 -36 41 -10 28 -9 30 32 48 52 24 71 25 102 4 21 -13 25 -14 25 -2 0 8
-5 19 -12 26 -7 7 -8 12 -2 13 24 1 71 9 92 14 20 5 23 10 17 37 -6 26 -5 30
10 25 9 -4 21 -7 26 -7z m5029 0 c96 -13 208 -48 219 -69 10 -18 -6 -141 -20
-155 -5 -6 -9 -1 -9 15 0 14 -3 19 -8 13 -4 -6 -22 -15 -40 -19 -18 -3 -30
-10 -27 -15 3 -4 -1 -13 -9 -19 -10 -9 -16 -8 -26 4 -18 22 -48 18 -74 -10
l-23 -25 -26 20 c-32 25 -39 25 -55 0 -12 -19 -52 -28 -52 -12 0 4 -7 16 -15
26 -15 20 -15 20 -31 0 -11 -13 -17 -15 -20 -6 -8 17 -24 15 -24 -4 0 -10 -6
-14 -15 -10 -18 7 -20 -5 -3 -22 19 -19 56 -14 63 8 8 27 19 25 39 -5 21 -31
31 -31 60 0 l23 24 28 -29 29 -30 -105 0 c-88 0 -285 24 -298 35 -1 2 3 13 11
24 15 21 15 21 38 -4 29 -31 54 -32 74 -3 24 33 19 42 -10 19 -30 -24 -50 -19
-58 14 -6 22 -9 23 -31 13 -14 -6 -25 -15 -25 -20 0 -5 -9 -6 -20 -3 -22 7
-26 -5 -8 -23 10 -10 5 -11 -22 -6 -23 4 -32 3 -25 -3 15 -15 313 -63 391 -63
88 0 188 16 236 36 48 21 69 13 63 -23 -3 -15 -12 -73 -20 -128 -29 -186 -45
-245 -65 -245 -10 0 -63 9 -117 19 -54 11 -188 36 -298 56 -110 20 -201 38
-203 39 -1 2 -5 79 -9 173 l-6 170 24 6 c13 4 34 7 47 7 13 0 22 6 22 16 0 12
-6 15 -22 9 -36 -11 -53 -11 -56 0 -2 6 -7 15 -12 20 -4 6 -9 39 -11 74 l-4
64 65 19 c36 10 83 22 105 27 61 12 281 13 365 1z m-2834 -65 c10 -8 33 -15
49 -15 17 0 41 -9 54 -19 l23 -18 -29 -34 c-16 -19 -37 -46 -46 -61 -12 -19
-26 -28 -44 -28 -14 0 -31 -7 -37 -16 -7 -8 -31 -18 -54 -21 -23 -3 -42 -9
-42 -14 0 -4 14 -17 30 -29 17 -12 39 -39 50 -61 17 -33 19 -49 13 -101 l-8
-63 -58 0 c-74 1 -87 14 -102 112 -7 43 -17 93 -23 111 -6 17 -7 32 -2 32 15
0 50 -52 50 -76 0 -39 10 -56 26 -43 11 9 15 3 20 -29 5 -34 10 -39 31 -39 21
0 24 3 18 26 -4 14 -16 36 -28 49 -18 20 -19 25 -7 33 9 6 11 12 5 15 -57 25
-84 54 -51 54 27 0 18 17 -19 34 -38 18 -46 36 -17 37 12 0 10 3 -8 10 -23 10
-24 11 -6 21 11 6 41 8 70 5 46 -6 49 -5 32 8 -11 8 -24 15 -29 15 -5 0 -7 7
-3 15 4 10 -4 8 -26 -7 -23 -17 -32 -20 -35 -10 -4 10 -10 9 -30 -3 -14 -9
-26 -15 -28 -13 -10 10 70 99 94 104 14 3 35 10 46 14 19 9 51 16 86 19 8 0
24 -6 35 -14z m-493 -82 c2 -5 0 -23 -5 -41 -7 -28 -12 -31 -33 -26 -30 7 -32
-6 -6 -30 28 -26 85 -18 89 12 3 22 -12 30 -23 12 -14 -23 -23 -8 -13 21 14
40 30 45 82 25 84 -32 149 -119 166 -221 11 -69 -8 -162 -42 -207 -25 -33 -33
-36 -130 -53 -57 -10 -132 -21 -168 -26 -36 -4 -75 -11 -87 -14 -55 -17 -143
78 -143 153 0 24 -7 71 -16 105 -14 56 -14 64 2 105 29 77 105 147 193 178 39
14 127 18 134 7z m655 -63 c37 -23 69 -71 78 -115 9 -51 -22 -109 -94 -176
-50 -45 -59 -57 -38 -49 16 6 31 8 35 5 9 -9 -44 -103 -100 -178 -110 -146
-244 -273 -360 -340 l-46 -27 -64 29 c-68 31 -156 51 -221 51 -117 0 -279 -59
-350 -127 l-37 -36 -73 21 c-81 24 -160 28 -240 11 -62 -13 -94 -28 -165 -76
-49 -33 -56 -35 -110 -30 -71 6 -280 75 -377 124 -140 70 -255 161 -369 291
-84 96 -181 239 -182 268 -1 12 -16 39 -34 60 -38 43 -61 92 -61 130 0 39 59
122 106 150 52 31 60 30 39 -2 -16 -24 -16 -27 1 -45 9 -10 25 -21 35 -24 26
-9 24 -42 -7 -77 -14 -17 -28 -44 -31 -59 -7 -35 -16 -36 -37 -4 -20 31 -21
87 -1 125 19 37 4 39 -24 4 -82 -104 82 -257 364 -338 221 -64 470 -95 840
-103 278 -6 593 8 750 34 49 8 108 16 130 19 104 11 318 77 455 141 82 38 105
54 171 123 l76 79 -25 23 c-13 13 -33 40 -43 60 -12 23 -29 40 -44 44 -25 6
-31 15 -18 27 12 12 37 7 71 -13z m-1150 -49 c48 -25 99 -81 125 -140 43 -97
28 -248 -28 -301 -25 -24 -34 -25 -168 -29 -291 -7 -283 -8 -314 15 -48 35
-68 88 -68 179 1 157 91 279 221 300 38 6 42 4 48 -18 3 -14 9 -33 13 -43 5
-14 2 -16 -20 -10 -32 8 -45 -9 -17 -24 23 -12 100 4 100 21 0 5 -11 7 -24 3
-24 -6 -36 13 -36 62 0 19 3 20 65 13 35 -5 82 -17 103 -28z m1130 -36 c2 -16
13 -30 28 -37 29 -13 30 -24 5 -37 -63 -34 -191 -35 -191 -1 0 9 -11 27 -25
40 -28 26 -20 40 25 40 14 0 31 9 38 20 7 12 23 25 35 29 31 12 81 -20 85 -54z
m2875 51 c37 -1 14 -25 -40 -42 -70 -20 -153 -30 -153 -17 0 16 23 33 45 33
12 0 26 5 33 12 9 9 12 9 12 0 0 -21 41 -14 47 9 4 14 10 18 22 13 9 -4 24 -7
34 -8z m-5395 -64 c3 -32 -3 -37 -32 -26 -8 3 -12 13 -9 22 3 9 7 23 9 30 7
24 29 6 32 -26z m362 -56 c0 -13 -7 -26 -15 -29 -19 -8 -25 4 -18 31 7 30 33
28 33 -2z m2078 -66 c37 0 28 -36 -18 -65 -22 -14 -43 -25 -47 -25 -5 0 -6 23
-4 51 3 46 5 50 25 45 11 -3 31 -6 44 -6z m3024 -67 c9 -10 25 -49 36 -86 11
-38 39 -99 62 -137 24 -39 54 -110 69 -162 15 -51 33 -103 39 -115 7 -12 48
-46 92 -74 44 -29 80 -57 80 -63 0 -24 -79 -488 -83 -493 -3 -2 -54 29 -114
70 -124 84 -167 101 -308 117 -210 24 -463 144 -544 258 -26 38 -42 103 -20
85 23 -19 142 -84 146 -80 2 2 -33 28 -78 57 -44 30 -92 68 -106 86 -23 31
-44 114 -29 114 3 0 56 -25 116 -55 60 -30 115 -55 120 -55 25 0 -7 23 -99 70
-136 70 -191 126 -191 196 0 40 26 39 121 -6 119 -54 214 -90 242 -90 21 1 21
1 4 14 -10 8 -59 29 -110 46 -201 71 -294 137 -253 178 27 28 99 18 345 -44
164 -42 373 -75 387 -61 4 4 1 13 -6 22 -12 15 -7 64 21 197 11 51 23 53 61
11z m-7203 -41 c-3 -48 5 -62 40 -62 15 0 35 -6 45 -13 46 -34 -15 -80 -124
-96 -132 -19 -345 5 -345 39 0 18 70 43 108 37 17 -2 27 1 27 9 0 7 18 15 41
19 23 4 71 27 112 56 40 26 78 48 85 49 9 0 12 -12 11 -38z m2351 20 c0 -12
-23 -32 -37 -32 -7 0 -13 9 -13 20 0 15 7 20 25 20 14 0 25 -4 25 -8z m1610
-41 c24 -9 23 -10 -23 -31 -27 -12 -51 -19 -54 -17 -2 3 1 24 8 46 11 37 14
40 28 27 9 -8 28 -19 41 -25z m-621 -101 c21 -22 36 -42 33 -45 -3 -3 -29 -5
-59 -5 l-54 0 16 30 c8 16 15 36 15 45 0 23 7 19 49 -25z m1136 -183 c150 -75
414 -115 635 -97 177 14 365 64 456 121 l34 21 12 -29 c8 -18 12 -71 12 -148
-2 -138 -23 -253 -86 -482 l-42 -152 -66 -30 c-200 -91 -446 -112 -712 -60
-49 10 -61 17 -79 45 -29 47 -43 43 -18 -5 59 -114 24 -207 -115 -305 -108
-76 -191 -116 -358 -171 -136 -45 -156 -54 -121 -54 90 -2 372 117 493 209 36
26 67 44 68 39 5 -14 -63 -135 -119 -210 -64 -87 -207 -222 -298 -283 -225
-150 -502 -238 -791 -253 -142 -7 -189 2 -366 67 -76 29 -209 70 -294 91 -90
22 -185 53 -225 73 -92 45 -192 130 -278 236 -75 93 -170 245 -164 264 2 6 -6
27 -18 46 -63 101 -59 206 9 269 l27 25 -17 -45 c-22 -61 -22 -155 0 -201 55
-115 241 -219 503 -283 296 -72 413 -86 698 -86 224 0 360 10 545 41 172 29
380 85 380 103 0 5 -10 7 -22 4 -90 -20 -82 -21 -96 15 -16 44 -72 110 -126
147 -81 56 -164 85 -263 91 -51 3 -98 11 -105 18 -25 25 34 198 98 282 62 81
186 173 244 181 14 2 31 9 37 16 7 6 38 15 69 19 284 35 508 -149 492 -404
-10 -155 -67 -243 -197 -303 -63 -29 -88 -49 -62 -49 39 0 210 99 275 159 45
42 95 125 83 138 -3 2 -14 -15 -24 -39 -18 -39 -89 -115 -99 -105 -2 2 7 35
21 72 19 50 26 87 26 139 0 117 -15 170 -64 231 -52 63 -69 119 -92 305 -17
144 -20 342 -4 372 11 20 11 20 32 0 12 -11 45 -31 72 -45z m-903 -208 c147
-30 338 -173 338 -252 0 -8 -35 -33 -77 -55 -109 -57 -188 -143 -257 -279 -14
-29 -28 -53 -31 -53 -2 0 -22 26 -44 59 -108 158 -239 231 -417 231 -46 0 -85
3 -87 8 -9 14 24 101 55 148 18 27 62 72 98 101 60 48 114 72 215 96 39 9 155
7 207 -4z m-550 -126 c21 -8 38 -16 38 -18 0 -2 -16 -26 -35 -54 -19 -29 -37
-69 -40 -89 -4 -20 -8 -42 -10 -48 -1 -5 -31 -18 -66 -28 -139 -38 -264 -131
-320 -237 l-32 -59 -68 0 c-37 0 -74 -2 -82 -6 -38 -14 -54 136 -22 211 45
104 171 242 266 291 116 60 275 76 371 37z m3620 -144 c15 -16 36 -29 47 -29
11 0 22 -4 25 -9 9 -14 -27 -19 -80 -11 -55 9 -59 7 -51 -15 4 -10 20 -15 44
-16 172 -2 210 -6 242 -23 30 -16 32 -19 17 -28 -30 -17 -209 -22 -278 -8 -70
13 -136 43 -145 66 -12 31 67 85 93 63 12 -9 14 -5 14 25 0 35 1 36 23 25 12
-6 34 -24 49 -40z m-4268 -154 c-21 -59 -24 -85 -22 -169 3 -91 1 -99 -17
-106 -34 -13 -89 -78 -120 -142 -16 -34 -36 -64 -43 -66 -7 -2 -33 16 -56 41
-59 61 -74 121 -51 208 35 138 165 270 292 297 21 5 39 8 40 8 1 -1 -10 -32
-23 -71z m801 49 c176 -45 354 -220 358 -352 2 -43 0 -47 -28 -55 -180 -56
-313 -173 -355 -314 l-13 -41 -66 -7 c-41 -4 -107 0 -175 9 -60 9 -126 16
-145 16 -20 0 -64 10 -99 22 -59 21 -64 25 -89 76 -19 40 -28 75 -31 131 -8
140 46 269 156 372 61 57 66 60 74 40 7 -21 19 -27 31 -14 4 3 0 15 -9 25 -16
17 -14 19 42 44 77 34 187 63 244 63 25 1 73 -6 105 -15z m-3948 -4 c337 -26
605 -104 760 -221 78 -59 97 -102 90 -209 -5 -80 -20 -134 -70 -252 -47 -112
-175 -267 -292 -355 -187 -141 -458 -217 -775 -217 -472 0 -825 195 -1008 559
-79 157 -97 252 -63 331 108 243 736 411 1358 364z m6253 -231 c0 -12 -8 -23
-19 -26 -13 -3 -17 -10 -14 -20 5 -12 1 -14 -15 -9 -11 4 -23 2 -27 -3 -4 -7
-12 -7 -25 1 -15 10 -23 9 -40 -7 -12 -11 -29 -20 -38 -20 -8 0 -17 -6 -19
-12 -7 -18 42 -16 57 2 14 17 67 20 90 5 38 -26 -85 -76 -237 -99 -101 -15
-260 -14 -377 4 -104 16 -134 14 -69 -4 93 -26 172 -33 312 -28 182 7 257 25
394 95 15 8 6 -46 -11 -61 -29 -27 -126 -67 -199 -82 -137 -30 -388 -16 -542
30 l-53 16 5 36 c4 20 13 43 22 53 11 13 13 20 5 25 -6 4 -9 12 -7 18 2 7 0
20 -5 30 -11 21 -16 21 84 -4 118 -29 316 -36 434 -15 93 16 259 67 278 86 14
14 16 13 16 -11z m-2948 -65 c3 -3 -1 -29 -8 -57 -23 -81 -20 -211 5 -276 11
-30 19 -57 17 -59 -6 -5 -221 66 -274 91 -58 27 -67 53 -42 120 34 90 124 158
239 177 25 4 49 8 52 9 3 0 8 -2 11 -5z m3482 -23 c3 -5 -1 -14 -9 -21 -18
-15 -10 -30 16 -30 18 0 23 10 20 38 -1 7 9 12 24 12 20 0 29 -8 40 -34 8 -18
23 -36 35 -39 40 -10 38 -79 -3 -98 -12 -6 -34 -28 -49 -50 l-28 -39 -70 0
c-73 0 -84 6 -49 28 16 10 18 17 10 25 -8 8 -17 5 -34 -11 -13 -12 -27 -19
-30 -15 -4 3 -7 38 -7 76 0 80 19 115 78 147 43 22 49 23 56 11z m594 -83 c-3
-21 2 -23 45 -26 45 -3 50 -6 64 -39 16 -40 11 -109 -10 -135 -7 -9 -26 -18
-44 -21 -26 -5 -34 -2 -47 18 -9 14 -30 32 -46 40 -25 13 -29 20 -24 40 8 31
-20 35 -38 5 -21 -32 -28 -23 -28 33 0 70 33 104 103 106 24 1 28 -3 25 -21z
m-2864 -23 c83 -17 146 -57 229 -141 64 -65 80 -100 54 -119 -55 -40 -481 -95
-734 -95 l-123 0 0 30 c0 38 39 117 82 165 36 42 131 109 186 132 48 20 147
41 197 42 22 0 71 -6 109 -14z m1859 -12 c42 -21 43 -39 5 -81 -23 -25 -37
-53 -41 -80 -8 -47 -26 -64 -34 -33 -6 25 -10 25 -43 6 -33 -19 -84 -19 -100
0 -20 24 -24 89 -6 122 27 53 117 114 100 68 -5 -11 1 -15 20 -15 20 0 26 5
26 21 0 22 17 21 73 -8z m798 6 c56 -14 68 -71 24 -114 -29 -30 -61 -32 -70
-5 -3 11 -27 32 -53 47 -26 14 -49 28 -52 31 -3 2 10 17 29 33 36 30 36 30
122 8z m-586 -70 c39 -25 46 -33 33 -40 -9 -5 -14 -17 -11 -32 4 -18 -4 -30
-31 -51 -20 -15 -43 -40 -51 -57 -15 -27 -19 -29 -79 -29 -44 0 -67 5 -76 15
-19 23 -8 120 17 153 21 27 37 31 86 17 25 -7 27 -5 27 24 0 41 21 41 85 0z
m381 -24 c6 -25 28 -33 39 -15 4 6 1 17 -5 25 -17 21 11 20 51 0 44 -23 69
-71 69 -133 0 -65 -20 -106 -62 -128 -28 -14 -39 -15 -87 -3 -68 15 -67 15
-51 34 21 25 -4 44 -28 22 -25 -23 -27 -22 -42 22 -23 72 2 144 63 181 41 25
45 25 53 -5z m284 -54 c0 -28 15 -34 34 -15 41 41 106 -26 106 -110 0 -83 -44
-137 -110 -135 -46 1 -138 33 -122 43 20 12 13 29 -9 23 -19 -5 -21 -2 -15 24
3 16 11 59 18 95 11 60 15 68 42 80 43 18 56 17 56 -5z m339 -5 c13 -14 33
-26 45 -28 18 -3 21 -9 20 -46 0 -23 -4 -45 -7 -49 -10 -10 -44 25 -51 53 -6
21 -12 24 -51 24 -51 0 -57 13 -25 48 27 28 41 28 69 -2z m-1459 -35 c16 -31
12 -48 -20 -84 -16 -19 -33 -44 -38 -56 -7 -20 -9 -20 -30 -5 -33 23 -31 92 4
133 30 36 68 41 84 12z m613 8 c58 -30 97 -89 76 -115 -6 -7 -8 -22 -5 -32 5
-15 0 -22 -22 -31 -16 -7 -43 -32 -60 -57 -31 -43 -62 -58 -62 -30 0 24 -22
31 -36 12 -15 -21 -41 -10 -73 30 -28 36 -29 116 -1 162 20 33 84 71 97 58 4
-4 1 -11 -6 -15 -18 -11 -5 -31 20 -31 14 0 19 7 19 30 0 33 15 38 53 19z
m795 -58 c43 -22 77 -57 86 -88 19 -61 -42 -163 -97 -163 -37 0 -117 37 -117
54 0 9 -9 20 -20 26 -19 10 -19 11 0 42 11 18 22 53 26 78 4 25 11 51 16 58
15 18 63 15 106 -7z m-1229 -6 c43 -22 44 -40 4 -66 -57 -38 -77 -73 -83 -142
-4 -55 -8 -62 -27 -65 -17 -2 -26 4 -35 22 -8 18 -17 25 -29 21 -47 -15 -66
101 -28 165 29 47 49 61 81 55 21 -3 26 -1 21 10 -7 20 58 20 96 0z m1460 -70
c25 -26 26 -26 7 -41 -19 -13 -19 -15 -3 -27 15 -10 16 -15 4 -31 -10 -14 -18
-16 -33 -9 -10 6 -36 13 -56 17 -35 6 -37 9 -44 51 -9 61 7 79 60 72 24 -3 49
-16 65 -32z m-5371 -14 c15 -15 36 -43 47 -62 11 -19 36 -42 55 -51 85 -42
250 -219 309 -332 48 -91 45 -102 -56 -191 -56 -48 -112 -110 -154 -168 -73
-103 -75 -104 -200 -106 -86 -1 -88 0 -151 84 -52 69 -138 152 -186 180 -18
11 -30 25 -28 32 4 9 -4 13 -24 13 -22 0 -38 10 -62 37 -18 21 -46 51 -61 67
-36 36 -33 44 63 170 83 110 130 160 195 206 28 20 60 54 74 79 40 74 130 95
179 42z m4072 0 c13 -10 37 -39 54 -65 29 -48 29 -48 11 -84 -17 -36 -18 -36
-28 -14 -13 29 -32 23 -32 -11 1 -21 -4 -27 -21 -27 -12 0 -33 -9 -48 -21 -24
-19 -31 -20 -77 -9 -44 11 -53 17 -66 48 -33 79 23 192 94 192 26 -1 26 -2 10
-14 -16 -12 -16 -14 -1 -20 36 -14 46 -7 39 25 -7 29 -5 31 16 24 13 -4 35
-15 49 -24z m386 -46 c-21 -16 -14 -35 13 -35 27 0 44 23 28 40 -10 10 -6 11
23 6 82 -15 121 -108 85 -202 -21 -54 -62 -84 -118 -84 -38 0 -38 1 -32 31 6
26 4 30 -12 27 -11 -2 -19 -13 -21 -31 -4 -32 -24 -35 -52 -7 -43 43 -53 129
-22 190 19 39 74 80 106 80 20 -1 20 -1 2 -15z m270 -10 c11 -17 29 -26 62
-31 56 -8 105 -51 100 -86 -4 -29 -40 -36 -73 -14 -17 11 -22 21 -18 37 4 16
2 20 -8 17 -8 -2 -15 -14 -17 -25 -3 -18 -11 -22 -63 -25 -58 -3 -59 -3 -59
23 0 15 -7 43 -16 64 -8 20 -14 38 -12 39 48 30 84 31 104 1z m-1079 7 c6 -4
17 -29 24 -55 6 -27 20 -54 30 -60 13 -8 16 -19 12 -41 -8 -43 -23 -58 -50
-53 -29 5 -37 -6 -23 -33 10 -19 8 -20 -40 -20 -27 0 -50 5 -50 10 0 6 -9 10
-20 10 -36 0 -60 35 -60 90 0 82 49 155 83 121 19 -19 46 -12 53 14 6 25 19
31 41 17z m1282 -98 c-10 -12 -14 -12 -20 -2 -14 22 -10 46 9 50 21 4 29 -27
11 -48z m413 7 c40 -41 48 -74 28 -126 -9 -25 -11 -25 -34 -10 -19 13 -37 15
-79 10 -44 -6 -55 -4 -60 9 -4 9 -13 13 -22 10 -34 -13 -8 47 56 129 28 36 58
30 111 -22z m83 15 c40 -17 55 -42 55 -93 0 -67 -62 -135 -93 -104 -9 9 -8 19
6 42 21 37 21 64 2 119 -21 59 -22 57 30 36z m-6308 -30 c16 -13 35 -36 42
-50 8 -14 38 -39 67 -56 32 -18 79 -60 124 -112 69 -80 71 -83 48 -92 -84 -33
-105 -49 -145 -109 -29 -43 -56 -70 -88 -87 l-46 -25 -19 25 c-34 43 -78 171
-85 247 -8 79 -19 87 -29 23 -5 -33 -23 -57 -105 -142 -54 -57 -105 -117 -114
-134 -10 -19 -29 -36 -47 -42 -33 -12 -42 -27 -10 -17 12 4 60 1 108 -6 75
-10 94 -10 141 5 56 16 113 21 124 10 3 -4 -23 -40 -58 -82 -35 -42 -85 -115
-111 -162 -26 -47 -49 -87 -51 -89 -7 -9 -112 1 -198 19 -49 11 -121 24 -159
30 -68 11 -124 33 -138 54 -18 27 -8 86 21 118 15 18 43 62 61 98 99 199 138
247 315 390 66 54 136 115 155 135 74 79 143 97 197 51z m5154 4 c27 0 29 -3
29 -39 0 -21 7 -55 15 -74 29 -71 11 -78 -34 -14 -17 25 -49 54 -75 68 -25 13
-45 28 -43 34 5 15 50 36 65 30 8 -3 27 -5 43 -5z m739 -32 c19 29 45 28 86
-3 40 -31 57 -83 44 -139 -10 -44 -26 -59 -55 -49 -11 4 -41 6 -68 5 -63 -4
-82 9 -97 63 -12 43 -12 47 11 72 17 18 20 27 12 30 -21 7 -15 21 15 37 26 14
27 13 32 -12 l6 -27 14 23z m-1630 -28 c13 -7 21 -7 25 0 12 20 24 9 45 -37
11 -26 28 -55 37 -65 15 -17 15 -18 -4 -18 -11 0 -39 -20 -62 -45 -46 -50 -58
-51 -105 -14 -43 34 -35 110 17 167 24 25 22 25 47 12z m1371 -3 c-14 -17 -4
-27 27 -27 17 0 23 4 18 15 -8 22 26 19 52 -5 79 -74 63 -208 -31 -257 -130
-67 -277 78 -208 207 24 46 75 80 119 80 28 0 32 -3 23 -13z m-542 -26 c68
-48 89 -133 53 -214 -27 -62 -58 -79 -145 -84 -83 -5 -110 6 -144 56 -29 44
-32 130 -4 181 31 60 131 109 131 65 0 -8 -8 -15 -17 -15 -12 0 -14 -3 -6 -11
13 -13 69 -8 66 6 -1 6 -5 19 -9 29 -6 17 -4 18 22 12 16 -4 40 -15 53 -25z
m-4645 13 c23 -9 19 -25 -18 -66 -29 -33 -41 -39 -104 -49 l-71 -12 -54 49
c-31 28 -51 53 -46 58 4 5 59 12 121 16 62 4 123 8 135 8 12 1 28 -1 37 -4z
m4304 -8 c43 -23 73 -59 62 -76 -5 -8 -10 -38 -10 -67 0 -39 -4 -55 -17 -62
-16 -9 -16 -12 -3 -20 12 -8 10 -12 -10 -19 -14 -5 -43 -12 -65 -16 -32 -6
-38 -5 -27 5 6 7 12 19 12 26 0 21 -21 15 -27 -7 -7 -27 -35 -25 -72 6 -56 46
-54 143 4 201 19 19 43 33 57 33 21 -1 22 -2 6 -14 -27 -20 -22 -28 15 -24 26
2 32 7 30 26 -3 26 7 28 45 8z m1459 -66 c61 -37 85 -130 49 -186 -33 -49
-161 -85 -183 -51 -4 6 -13 35 -20 62 -9 42 -9 53 3 66 13 15 12 17 -6 22 -26
7 -25 27 1 61 38 49 102 59 156 26z m-5843 -72 c-9 -29 -34 -68 -44 -68 -4 0
-19 18 -33 39 l-27 40 43 4 c23 2 48 4 55 5 9 1 11 -5 6 -20z m4027 8 c-9 -10
-8 -16 3 -26 19 -15 36 -5 36 21 0 17 6 20 38 17 36 -3 38 -4 61 -72 l25 -70
-43 -38 c-35 -31 -41 -41 -32 -52 28 -33 -70 -49 -134 -22 -44 19 -75 69 -75
123 0 37 6 49 43 88 27 28 52 45 67 45 18 0 20 -3 11 -14z m909 5 c0 -5 -6
-11 -12 -14 -20 -7 6 -30 28 -25 13 3 18 11 17 26 -3 27 21 29 69 6 47 -23 71
-60 76 -119 7 -87 -43 -155 -129 -175 -114 -28 -189 29 -189 142 0 65 24 115
69 145 35 23 71 30 71 14z m620 -50 c0 -5 -8 -12 -17 -15 -12 -5 -13 -10 -5
-18 16 -16 42 -2 42 22 0 21 0 21 31 3 73 -43 93 -145 39 -206 -27 -32 -84
-57 -126 -57 -11 0 -36 5 -57 11 -32 9 -37 14 -35 37 1 15 -6 41 -15 59 -34
65 -15 132 47 159 35 15 96 19 96 5z m-7141 -27 c-77 -83 -290 -132 -589 -135
-124 -1 -176 3 -260 20 -160 33 -270 80 -270 117 0 11 9 10 50 -6 235 -93 738
-91 1010 4 86 30 88 30 59 0z m2745 -24 c18 -10 47 -40 65 -65 18 -25 74 -83
125 -128 138 -122 181 -178 254 -323 22 -44 52 -94 65 -110 56 -67 62 -112 19
-142 -43 -31 -186 -63 -433 -98 -112 -16 -656 -30 -706 -19 -30 7 -55 57 -47
92 4 16 18 42 31 59 12 17 49 90 82 161 91 203 137 266 304 414 21 19 50 56
65 84 30 54 81 95 120 95 13 0 39 -9 56 -20z m3311 -46 c9 -14 14 -28 12 -31
-11 -10 -47 19 -47 37 0 28 14 25 35 -6z m-4498 -3 c17 -11 42 -34 55 -52 13
-17 73 -68 133 -114 127 -95 180 -149 253 -257 122 -180 129 -203 87 -267 -19
-28 -25 -49 -24 -79 2 -23 1 -43 -2 -45 -10 -8 -303 -58 -396 -67 -114 -12
-216 -3 -368 32 -49 11 -148 24 -219 28 -105 6 -133 11 -155 28 -34 26 -32 67
6 124 17 23 62 106 102 183 92 182 120 218 240 312 55 43 105 90 111 105 16
35 51 67 86 78 44 13 56 12 91 -9z m4301 -18 c4 -26 19 -29 46 -8 11 8 37 15
58 15 52 0 64 -25 48 -99 -6 -31 -14 -66 -16 -77 -7 -40 -137 -58 -200 -28
-81 38 -87 158 -12 204 41 25 72 22 76 -7z m968 -8 c25 -19 50 -19 58 0 15 41
87 -12 101 -74 9 -43 -16 -94 -61 -122 -30 -18 -53 -24 -101 -24 -75 0 -114
24 -125 76 -21 102 61 195 128 144z m-5734 -20 c6 -14 15 -25 20 -25 4 0 8 -7
8 -16 0 -14 -8 -16 -41 -11 -56 7 -64 18 -39 50 27 33 37 34 52 2z m6258 -21
c0 -6 -63 -44 -72 -44 -15 0 -8 39 8 48 15 8 64 5 64 -4z m-914 -95 c56 -27
129 -27 182 0 52 26 52 26 52 -4 0 -74 -59 -115 -167 -115 -66 0 -104 13 -125
44 -14 21 -6 96 10 96 3 0 25 -9 48 -21z m-1116 -64 c271 -180 689 -267 1205
-252 405 12 688 73 957 208 65 33 121 59 125 59 21 0 -105 -78 -202 -125 -165
-80 -345 -134 -570 -172 -152 -25 -593 -25 -775 0 -269 38 -393 73 -575 164
-127 64 -245 138 -245 154 0 15 10 10 80 -36z m-3100 -190 c0 -2 -18 -44 -40
-92 -28 -59 -44 -83 -51 -76 -14 14 -89 143 -89 154 0 7 24 10 148 17 17 1 32
0 32 -3z m-95 -436 c40 -18 58 -20 119 -14 59 6 69 5 58 -6 -17 -18 -399 -26
-415 -10 -8 8 -7 11 4 12 12 0 182 35 185 38 1 1 23 -8 49 -20z"/>
<path d="M7200 10385 c-25 -31 -8 -50 55 -58 33 -5 85 -20 116 -33 66 -28 69
-28 69 -10 0 23 -65 73 -125 95 -66 25 -98 27 -115 6z"/>
<path d="M7235 10213 c4 -21 9 -41 11 -45 10 -16 43 -7 49 12 7 21 30 27 40
10 3 -5 11 -10 17 -10 16 0 -22 40 -54 56 -15 8 -37 14 -49 14 -19 0 -21 -4
-14 -37z"/>
<path d="M3733 10218 c-29 -36 -75 -158 -60 -158 9 0 46 69 62 116 16 48 15
64 -2 42z"/>
<path d="M3342 9283 c-45 -73 -82 -137 -82 -143 0 -29 61 37 95 102 21 40 47
85 57 101 11 15 18 37 16 50 -2 17 -23 -10 -86 -110z"/>
<path d="M3836 8828 c120 -113 216 -179 293 -203 43 -13 13 14 -70 62 -44 25
-110 73 -147 106 -118 105 -183 135 -76 35z"/>
<path d="M3826 8612 c91 -85 250 -153 355 -151 38 0 28 5 -71 32 -118 33 -130
39 -248 120 -38 26 -74 47 -78 47 -5 -1 14 -22 42 -48z"/>
<path d="M7797 8871 c-67 -69 -80 -91 -53 -91 24 0 137 143 123 156 -2 2 -34
-27 -70 -65z"/>
<path d="M8596 8842 c-57 -43 -127 -141 -156 -220 -12 -30 -19 -56 -18 -58 2
-1 30 41 62 94 33 53 86 125 120 160 68 70 65 80 -8 24z"/>
<path d="M7677 8720 c-37 -44 -92 -139 -84 -146 4 -4 93 123 121 174 14 24 -3
11 -37 -28z"/>
<path d="M10105 8609 c-124 -68 -145 -84 -100 -74 57 13 130 52 175 93 25 23
43 41 40 41 -3 0 -54 -27 -115 -60z"/>
<path d="M9488 8613 c23 -42 137 -132 150 -118 8 8 -39 51 -113 104 -35 25
-45 29 -37 14z"/>
<path d="M7381 8572 c-30 -58 -57 -233 -32 -206 14 14 68 244 57 244 -3 0 -14
-17 -25 -38z"/>
<path d="M10689 8518 c-49 -62 -81 -124 -103 -197 -26 -90 -18 -82 47 44 34
66 74 137 90 156 29 38 33 49 17 49 -5 0 -28 -23 -51 -52z"/>
<path d="M10160 8485 c-25 -13 -94 -41 -155 -62 -88 -30 -104 -38 -80 -41 47
-6 151 27 214 68 32 21 62 43 65 49 9 14 9 14 -44 -14z"/>
<path d="M9232 8421 c-7 -21 -14 -67 -17 -102 l-5 -64 16 35 c15 32 33 170 22
170 -3 0 -10 -17 -16 -39z"/>
<path d="M9320 8184 c0 -33 33 -30 38 4 3 17 -2 22 -17 22 -16 0 -21 -6 -21
-26z"/>
<path d="M6410 8176 c0 -6 99 -76 117 -83 28 -11 -3 32 -44 60 -34 23 -73 36
-73 23z"/>
<path d="M11204 7896 c-9 -36 -1 -42 57 -49 31 -4 76 -20 115 -42 56 -31 64
-34 64 -18 0 46 -129 132 -197 133 -26 0 -34 -5 -39 -24z"/>
<path d="M9972 7811 c-18 -11 -11 -46 8 -46 9 0 16 11 18 28 3 28 -3 33 -26
18z"/>
<path d="M11231 7703 c4 -16 11 -41 14 -56 7 -37 35 -32 49 9 10 28 13 29 36
18 29 -15 38 -10 20 11 -20 25 -66 45 -99 45 -27 0 -29 -2 -20 -27z"/>
<path d="M7085 7618 c16 -55 50 -110 120 -196 42 -50 81 -92 86 -92 13 0 6 11
-56 90 -29 36 -73 100 -99 143 -50 80 -62 93 -51 55z"/>
<path d="M11989 7531 c-37 -36 -40 -44 -38 -85 2 -27 -4 -60 -16 -85 -10 -23
-16 -44 -13 -47 7 -6 108 48 108 59 0 10 -18 9 -25 -3 -3 -5 -13 -10 -21 -10
-12 0 -14 10 -12 43 3 40 4 42 33 39 l30 -2 -28 15 c-23 13 -26 19 -16 31 6 8
18 14 26 14 9 0 13 6 10 14 -4 10 4 17 25 22 26 5 35 2 50 -16 24 -30 34 -19
16 17 -10 22 -21 29 -51 31 -33 3 -43 -2 -78 -37z"/>
<path d="M10603 7452 c-24 -10 -51 -25 -60 -35 -16 -15 -11 -15 49 2 64 18
108 37 108 46 0 11 -58 3 -97 -13z"/>
<path d="M10561 7366 c11 -11 191 -78 195 -73 8 8 -76 54 -121 66 -40 11 -82
15 -74 7z"/>
<path d="M4214 9995 c-51 -25 -102 -70 -92 -81 3 -3 33 6 67 20 33 14 78 26
100 26 49 0 71 8 71 26 0 16 -39 34 -74 34 -12 0 -45 -11 -72 -25z"/>
<path d="M4508 9904 c-11 -10 -10 -56 2 -74 15 -24 20 -7 12 39 -4 23 -10 39
-14 35z"/>
<path d="M4244 9866 c-28 -13 -55 -29 -58 -35 -9 -14 19 -14 45 -1 16 9 21 7
29 -15 12 -32 44 -33 66 -1 21 32 15 70 -11 73 -11 1 -43 -8 -71 -21z"/>
<path d="M4573 9722 c22 -24 21 -28 -3 -59 -11 -15 -18 -28 -15 -31 8 -9 53
27 60 48 8 24 -18 60 -43 60 -13 0 -13 -3 1 -18z"/>
<path d="M3729 9714 c-12 -14 -9 -16 18 -13 38 4 66 -17 57 -43 -3 -10 -1 -25
6 -33 6 -7 10 -22 8 -32 -2 -13 4 -19 25 -21 28 -3 38 15 12 24 -10 4 -15 20
-15 46 0 67 -74 116 -111 72z"/>
<path d="M4498 9659 c-25 -14 -22 -31 4 -27 13 2 24 11 26 21 4 19 -5 21 -30
6z"/>
<path d="M4588 9574 c-5 -5 -54 -11 -230 -30 -64 -7 -71 -18 -33 -54 23 -22
30 -23 111 -17 78 6 85 5 72 -10 -12 -15 -10 -16 17 -9 41 10 53 24 70 79 12
42 9 58 -7 41z m-23 -43 c8 -13 -6 -20 -67 -32 -52 -10 -155 -3 -143 10 5 5
99 19 192 30 6 0 14 -3 18 -8z"/>
<path d="M9663 9934 c-9 -24 17 -35 68 -29 32 5 62 0 108 -15 34 -12 65 -20
68 -17 11 11 -45 56 -83 66 -62 17 -153 14 -161 -5z"/>
<path d="M9707 9803 c-23 -22 16 -78 50 -71 10 2 22 13 28 26 6 13 16 20 23
17 8 -3 26 -8 40 -11 24 -6 25 -5 12 8 -29 29 -134 50 -153 31z"/>
<path d="M9444 9605 c-10 -26 5 -65 29 -74 28 -11 35 4 13 28 -9 10 -16 27
-16 39 0 25 -18 30 -26 7z"/>
<path d="M9526 9556 c7 -19 48 -22 42 -3 -3 6 -14 13 -26 15 -16 3 -20 -1 -16
-12z"/>
<path d="M9470 9465 c0 0 13 -34 29 -75 32 -82 54 -100 107 -84 28 8 28 8 -15
13 -25 4 -46 12 -49 18 -2 9 5 11 26 7 58 -12 182 49 211 104 8 16 -4 17 -150
17 -87 0 -159 0 -159 0z m247 -40 c-40 -30 -194 -28 -205 3 -3 9 26 12 110 12
99 -1 111 -2 95 -15z"/>
<path d="M7870 10078 c-27 -27 -31 -37 -28 -72 3 -29 -1 -45 -14 -58 -10 -10
-16 -23 -13 -28 8 -13 35 -13 35 0 0 6 7 10 15 10 12 0 14 8 9 40 -6 37 -5 40
12 33 19 -6 19 -6 0 15 -18 20 -18 21 8 46 28 29 38 31 67 15 19 -10 19 -9 9
10 -17 32 -62 27 -100 -11z"/>
<path d="M2262 9134 c-51 -26 -83 -59 -96 -101 -7 -21 -3 -20 76 14 64 28 96
36 148 37 64 1 65 1 68 30 5 38 -10 46 -84 46 -45 0 -73 -7 -112 -26z"/>
<path d="M2305 8964 c-56 -29 -71 -55 -20 -35 17 7 22 3 31 -23 21 -59 50 -40
70 47 6 25 4 27 -22 27 -16 0 -42 -7 -59 -16z"/>
<path d="M5760 9145 c-9 -11 -17 -12 -32 -4 -25 14 -36 3 -17 -16 13 -14 19
-14 47 1 18 8 32 20 32 25 0 14 -16 11 -30 -6z"/>
<path d="M5852 9108 c-18 -19 -24 -20 -31 -9 -10 15 -81 7 -81 -9 0 -13 17
-13 42 1 17 9 23 8 30 -5 12 -21 35 -20 47 1 9 17 10 17 28 0 25 -21 51 -22
75 0 17 15 19 15 36 0 24 -22 62 -22 62 -1 0 13 -3 14 -14 5 -12 -10 -19 -8
-35 8 -25 25 -34 26 -51 6 -17 -21 -48 -19 -62 5 -16 25 -19 25 -46 -2z"/>
<path d="M1482 8879 c-11 -4 -26 -18 -33 -30 l-11 -22 34 21 c23 15 38 18 48
11 13 -8 13 -10 0 -18 -8 -6 -11 -13 -7 -17 3 -4 13 -2 21 5 11 9 17 8 29 -4
31 -30 31 -56 1 -82 -24 -20 -25 -22 -6 -13 30 15 33 12 25 -33 -6 -42 -21
-44 -41 -6 l-13 24 3 -24 c3 -25 37 -55 76 -66 27 -8 29 8 3 41 -17 22 -18 28
-6 68 11 37 11 48 -1 72 -33 64 -77 90 -122 73z"/>
<path d="M3262 7443 c-45 -16 -152 -106 -140 -118 4 -4 34 14 67 39 33 25 80
55 105 66 75 32 50 42 -32 13z"/>
<path d="M1640 7337 c0 -11 192 -338 197 -333 9 9 -54 143 -98 209 -51 78 -98
137 -99 124z"/>
<path d="M3413 7143 c-23 -83 -2 -343 27 -343 5 0 4 14 -2 31 -7 21 -9 82 -4
180 4 93 3 150 -4 154 -5 3 -13 -7 -17 -22z"/>
<path d="M1995 6718 c32 -144 64 -409 66 -548 1 -100 2 -103 12 -55 17 82 -19
531 -49 609 -10 25 -35 20 -29 -6z"/>
<path d="M4500 6613 c0 -109 31 -508 40 -517 13 -13 13 212 1 319 -6 44 -13
117 -16 163 -8 88 -25 113 -25 35z"/>
<path d="M9456 6378 c-12 -58 -18 -109 -25 -221 -5 -67 -10 -128 -12 -136 -2
-7 1 -15 8 -18 7 -3 13 21 18 74 3 43 8 92 10 108 10 78 17 215 11 215 -3 0
-8 -10 -10 -22z"/>
<path d="M10641 6185 c-2 -57 53 -284 66 -272 2 3 0 38 -6 79 -11 74 -59 230
-60 193z"/>
<path d="M12431 6080 c-45 -21 -125 -79 -118 -87 3 -2 56 21 118 51 100 48
110 55 79 56 -19 0 -55 -9 -79 -20z"/>
<path d="M11491 5987 c-18 -22 -57 -118 -70 -172 -7 -27 -14 -58 -17 -67 -3
-10 -1 -18 4 -18 9 0 57 122 87 223 15 50 14 55 -4 34z"/>
<path d="M12253 5937 c-53 -60 -117 -163 -143 -233 -19 -49 9 -13 90 117 78
124 97 165 53 116z"/>
<path d="M4835 5859 c-402 -25 -1014 -127 -1212 -201 -106 -39 -59 -46 80 -12
148 37 745 154 857 168 69 8 177 18 240 20 63 3 132 10 153 16 36 11 50 22 25
19 -7 -1 -71 -6 -143 -10z"/>
<path d="M925 5694 c69 -65 235 -139 235 -104 0 6 -6 13 -12 15 -89 31 -136
52 -175 79 -83 57 -102 61 -48 10z"/>
<path d="M11370 5655 c-25 -66 -47 -178 -68 -357 -14 -109 4 -78 28 50 12 64
32 164 46 220 28 120 27 112 14 112 -6 0 -15 -11 -20 -25z"/>
<path d="M3775 5549 c-55 -4 -111 -12 -125 -18 -18 -7 38 -10 200 -10 124 -1
266 -6 315 -12 120 -15 264 -52 343 -89 60 -28 89 -33 66 -10 -17 17 -208 88
-294 109 -164 40 -289 47 -505 30z"/>
<path d="M9137 5483 c-20 -2 -35 -9 -32 -14 4 -5 78 -9 173 -9 108 0 197 -5
252 -15 47 -8 101 -15 120 -15 l35 1 -30 16 c-60 32 -355 53 -518 36z"/>
<path d="M919 5471 c-51 -16 -129 -71 -129 -91 0 -3 36 12 80 33 70 35 88 40
155 41 53 1 75 5 75 14 0 14 -136 16 -181 3z"/>
<path d="M1010 5383 c-108 -64 -220 -166 -240 -217 -9 -24 7 -13 77 55 57 55
114 99 162 125 41 22 76 45 79 52 6 20 -30 13 -78 -15z"/>
<path d="M4754 5264 c41 -106 29 -164 -49 -239 -100 -98 -371 -208 -554 -226
-53 -5 -112 -13 -131 -18 l-35 -7 45 -7 c25 -4 66 -3 93 2 54 10 60 3 16 -22
-17 -9 -33 -26 -36 -37 -7 -25 -8 -25 -47 -1 -64 39 -145 34 -193 -11 -12 -12
-23 -32 -23 -45 0 -23 -3 -24 -42 -18 -24 4 -53 3 -64 -2 -32 -12 -120 -96
-106 -101 7 -2 12 -19 12 -38 0 -26 -7 -39 -31 -56 -44 -33 -69 -79 -69 -129
l-1 -44 -19 24 c-11 13 -20 30 -20 39 0 12 -3 13 -11 5 -32 -32 76 -132 196
-182 132 -55 244 -73 505 -78 253 -5 405 8 565 48 155 39 302 128 349 210 l19
34 -20 -18 c-20 -18 -21 -17 -27 27 -9 60 -42 107 -93 131 -41 19 -42 22 -43
66 0 99 -101 156 -202 114 -13 -5 -18 -2 -18 9 0 37 -32 75 -85 104 l-55 30
-52 -16 c-50 -16 -63 -29 -115 -108 -12 -18 -13 -18 -24 0 -21 34 -60 65 -91
71 -45 10 -19 28 69 49 107 25 186 59 261 113 175 125 210 194 155 311 -15 32
-41 46 -29 16z m-214 -514 c0 -24 -26 -38 -42 -22 -8 8 -8 15 2 27 18 21 40
19 40 -5z m-320 -23 c0 -7 -5 -18 -12 -25 -18 -18 -38 -15 -38 6 0 10 3 22 7
25 11 12 43 7 43 -6z m-470 -167 c0 -22 -22 -36 -40 -25 -8 5 -6 13 6 26 22
25 34 24 34 -1z m666 -6 c36 -28 45 -54 19 -54 -9 0 -20 10 -25 23 -5 12 -9
16 -9 10 -1 -18 -50 -16 -57 2 -7 16 12 45 28 45 5 0 25 -12 44 -26z m-356 3
c0 -19 -21 -37 -42 -37 -18 0 -25 29 -11 43 12 12 53 7 53 -6z m608 -9 c19
-19 15 -48 -8 -48 -23 0 -35 22 -26 45 7 18 18 19 34 3z m-734 -216 c7 -12 -7
-29 -31 -36 -26 -8 -39 9 -23 29 13 16 46 20 54 7z m836 -7 c0 -9 -9 -15 -25
-15 -16 0 -25 6 -25 15 0 9 9 15 25 15 16 0 25 -6 25 -15z m-537 -12 c10 -17
-13 -53 -33 -53 -25 0 -37 25 -20 45 13 16 46 20 53 8z m307 -23 c0 -13 -7
-20 -20 -20 -13 0 -20 7 -20 20 0 13 7 20 20 20 13 0 20 -7 20 -20z m-575 -15
c0 -28 -29 -25 -33 3 -3 19 0 23 15 20 10 -2 18 -12 18 -23z"/>
<path d="M4700 5212 c0 -57 -23 -105 -71 -145 -103 -88 -362 -174 -629 -209
-89 -11 -92 -13 -55 -20 49 -10 228 14 365 48 177 45 351 149 396 236 16 31
18 96 4 118 -7 11 -10 3 -10 -28z"/>
<path d="M2896 5188 c-22 -31 -20 -64 8 -123 32 -69 96 -123 219 -183 187 -92
328 -122 587 -128 138 -4 180 -2 167 6 -10 6 -91 16 -180 21 -467 28 -780 178
-782 376 0 29 -1 53 -2 53 -1 0 -9 -10 -17 -22z"/>
<path d="M2970 5140 c0 -78 121 -170 300 -229 142 -47 458 -94 494 -74 14 8 2
11 -51 16 -296 28 -597 127 -685 225 -21 23 -38 49 -38 56 0 8 -4 18 -10 21
-5 3 -10 -3 -10 -15z"/>
<path d="M9670 4829 c-200 -35 -415 -52 -509 -40 -92 12 -138 0 -68 -17 116
-30 467 -4 588 42 67 26 65 29 -11 15z"/>
<path d="M9730 4763 c-101 -30 -231 -44 -460 -48 -280 -6 -262 -5 -226 -15 71
-22 261 -32 381 -20 171 15 333 53 350 80 11 17 4 18 -45 3z"/>
<path d="M11910 4585 c0 -2 34 -27 75 -55 41 -28 75 -45 75 -38 0 15 -80 72
-122 87 -16 6 -28 9 -28 6z"/>
<path d="M11898 4483 c20 -37 48 -89 62 -115 13 -26 26 -45 28 -43 10 10 -32
117 -65 165 -54 77 -69 73 -25 -7z"/>
<path d="M3545 4514 c-63 -33 -125 -118 -125 -172 0 -52 124 -248 218 -345
139 -143 357 -232 592 -244 298 -15 507 62 695 253 132 136 245 303 245 366 0
45 -25 93 -61 120 -50 37 -82 45 -42 11 92 -80 95 -175 9 -251 -23 -20 -31
-32 -21 -32 17 0 -40 -88 -109 -167 -90 -102 -252 -199 -411 -245 -70 -20
-101 -23 -250 -22 -155 0 -178 3 -258 27 -155 48 -305 135 -393 229 -56 60
-124 154 -117 162 4 3 -5 19 -20 34 -79 83 -55 180 66 260 20 13 37 26 37 28
0 9 -27 3 -55 -12z"/>
<path d="M3331 3044 c-18 -14 -30 -29 -27 -31 3 -3 12 2 21 11 9 8 24 20 33
25 9 5 14 12 11 16 -4 3 -21 -6 -38 -21z"/>
<path d="M3278 2980 c-10 -9 -15 -20 -11 -23 3 -4 13 2 21 14 18 26 12 32 -10
9z"/>
<path d="M6450 2977 c0 -3 9 -26 21 -51 14 -32 18 -57 14 -76 -4 -19 -3 -30 4
-30 17 0 13 78 -5 116 -14 30 -34 54 -34 41z"/>
<path d="M9023 2953 c9 -2 23 -2 30 0 6 3 -1 5 -18 5 -16 0 -22 -2 -12 -5z"/>
<path d="M3246 2924 c-9 -25 -6 -56 9 -89 9 -20 13 -23 12 -10 -2 11 -6 25 -9
30 -4 6 -3 17 3 25 11 19 12 60 0 60 -5 0 -12 -7 -15 -16z"/>
<path d="M6470 2796 c0 -7 -18 -32 -40 -55 -50 -51 -53 -64 -4 -19 39 36 71
88 54 88 -5 0 -10 -6 -10 -14z"/>
<path d="M3464 2628 c-4 -7 -4 -10 1 -6 4 4 15 2 24 -5 14 -11 14 -10 2 6 -16
20 -18 21 -27 5z"/>
<path d="M6065 8453 c-40 -15 -179 -13 -247 3 -17 4 -28 2 -28 -4 0 -14 129
-25 224 -20 55 2 80 8 93 21 21 20 11 21 -42 0z"/>
<path d="M8890 8116 c0 -22 19 -30 35 -16 22 18 18 30 -10 30 -15 0 -25 -6
-25 -14z"/>
<path d="M8550 7820 c0 -11 -7 -20 -15 -20 -25 0 -17 -19 12 -26 27 -7 54 4
61 24 2 7 -4 12 -12 12 -9 0 -19 7 -22 15 -9 22 -24 18 -24 -5z"/>
<path d="M4195 7079 c-22 -4 -74 -6 -115 -4 l-75 5 60 -16 c55 -14 66 -14 133
1 98 23 96 35 -3 14z"/>
<path d="M6318 6299 c-19 -10 -24 -44 -10 -53 14 -9 50 5 56 21 6 15 -10 43
-23 43 -3 0 -14 -5 -23 -11z"/>
<path d="M5385 5990 c-3 -5 -1 -10 5 -10 6 0 8 -5 5 -10 -4 -6 -10 -8 -15 -5
-4 3 -6 -4 -3 -14 5 -20 17 -22 47 -4 21 11 15 27 -14 43 -13 7 -21 7 -25 0z"/>
<path d="M6915 7139 c13 -19 148 -92 214 -114 88 -30 150 -42 135 -26 -13 14
-356 152 -349 140z"/>
<path d="M6894 7051 c10 -16 110 -77 154 -94 57 -23 123 -37 116 -26 -3 5 -9
9 -15 9 -5 0 -63 27 -130 60 -126 62 -134 66 -125 51z"/>
<path d="M8086 7004 c-100 -25 -114 -30 -104 -39 15 -15 218 41 218 60 0 7 -5
6 -114 -21z"/>
<path d="M7320 6983 c0 -19 110 -35 281 -40 131 -4 178 -3 184 6 4 7 5 14 4
16 -2 1 -94 6 -204 9 -110 4 -215 10 -232 13 -18 3 -33 1 -33 -4z"/>
<path d="M6940 6919 c31 -26 87 -52 160 -74 35 -10 -34 37 -111 75 -74 38 -94
38 -49 -1z"/>
<path d="M7290 6891 c0 -12 24 -20 123 -38 97 -17 266 -28 302 -19 52 13 21
23 -92 29 -65 4 -158 14 -208 22 -106 17 -125 18 -125 6z"/>
<path d="M7200 6820 c0 -11 42 -26 140 -51 63 -16 123 -22 235 -25 94 -2 141
0 125 5 -14 5 -51 9 -84 10 -73 1 -236 25 -338 50 -43 10 -78 15 -78 11z"/>
<path d="M7720 6508 c0 -34 34 -175 44 -186 9 -8 6 43 -7 132 -12 82 -37 118
-37 54z"/>
<path d="M7223 6305 c-38 -16 -42 -31 -13 -40 11 -3 20 -14 20 -23 1 -23 50
37 50 61 0 20 -14 21 -57 2z"/>
<path d="M7546 6161 c-3 -5 -21 -16 -41 -25 -43 -21 -46 -39 -5 -34 19 2 34
-3 40 -12 14 -22 44 0 48 35 4 33 -27 60 -42 36z"/>
<path d="M7534 6046 c-3 -8 -3 -19 0 -25 3 -5 -1 -17 -10 -26 -23 -23 -8 -32
24 -14 20 11 27 23 27 44 0 33 -31 48 -41 21z"/>
<path d="M9350 6881 c0 -20 100 -59 207 -80 70 -15 136 -21 215 -20 178 2 193
14 28 22 -225 12 -303 26 -432 82 -11 4 -18 3 -18 -4z"/>
<path d="M9486 6721 c29 -30 300 -69 349 -51 15 6 26 12 23 15 -4 4 -335 45
-366 45 -10 0 -12 -3 -6 -9z"/>
<path d="M8921 5294 c0 -11 3 -14 6 -6 3 7 2 16 -1 19 -3 4 -6 -2 -5 -13z"/>
<path d="M7823 5271 c-43 -17 -64 -31 -45 -31 6 0 22 4 36 10 27 10 56 4 56
-12 0 -5 -9 -6 -20 -3 -16 5 -20 2 -20 -14 0 -22 -16 -29 -22 -9 -2 6 -9 8
-16 4 -6 -3 -8 -14 -5 -22 6 -16 16 -16 86 2 24 6 28 3 38 -24 8 -22 23 -35
59 -51 27 -12 51 -21 54 -21 3 0 17 18 31 40 14 22 32 40 40 40 17 0 69 -74
55 -78 -5 -2 -10 -10 -10 -18 0 -27 34 -13 76 31 48 52 61 51 93 -6 28 -49 47
-48 80 4 27 42 48 46 82 18 17 -14 21 -23 13 -31 -7 -7 -16 -5 -29 10 -19 21
-45 27 -45 10 0 -5 5 -10 11 -10 6 0 19 -10 28 -22 23 -28 43 -19 76 32 27 43
34 47 53 28 15 -15 16 -32 2 -23 -12 8 -50 -3 -50 -14 0 -5 24 -11 53 -14 42
-4 56 -1 72 14 14 13 25 15 35 9 8 -5 23 -10 34 -10 15 0 16 3 6 15 -7 8 -21
15 -32 15 -14 0 -18 5 -14 16 3 9 6 18 6 20 0 14 25 0 47 -26 33 -40 46 -38
68 10 28 61 41 68 73 37 16 -15 33 -27 40 -27 26 0 10 27 -35 57 -54 37 -62
34 -88 -32 -9 -25 -20 -45 -25 -45 -4 0 -20 16 -34 35 -35 45 -51 44 -67 -2
-20 -64 -28 -68 -61 -28 -16 19 -35 35 -41 35 -7 0 -24 -14 -38 -31 -17 -21
-30 -29 -39 -24 -10 6 -9 11 5 21 16 12 16 13 -1 12 -11 0 -33 3 -49 7 -27 6
-34 2 -63 -35 l-34 -41 -29 41 c-39 53 -57 60 -81 29 -40 -50 -48 -59 -56 -59
-5 0 -21 22 -36 50 -15 27 -32 53 -38 56 -7 5 -29 -12 -54 -40 l-42 -48 -39
12 c-43 14 -53 25 -53 57 0 37 39 41 68 7 24 -28 25 -28 17 -4 -16 51 -42 63
-79 35 -23 -17 -46 -4 -46 26 0 27 -11 29 -57 10z"/>
<path d="M8880 5287 c0 -15 47 -77 53 -70 11 11 8 45 -3 38 -6 -4 -19 4 -30
17 -11 13 -19 19 -20 15z"/>
<path d="M8740 5225 c0 -8 9 -15 20 -15 24 0 27 15 4 24 -22 9 -24 8 -24 -9z"/>
<path d="M8620 5190 c0 -13 7 -20 20 -20 23 0 26 10 8 28 -18 18 -28 15 -28
-8z"/>
<path d="M8170 5171 c0 -6 5 -13 10 -16 6 -3 10 1 10 9 0 9 -4 16 -10 16 -5 0
-10 -4 -10 -9z"/>
<path d="M8830 5166 c0 -9 7 -12 20 -9 11 3 20 9 20 14 0 5 -9 9 -20 9 -11 0
-20 -6 -20 -14z"/>
<path d="M8333 5158 c2 -7 10 -13 17 -13 7 0 15 6 18 13 2 7 -5 12 -18 12 -13
0 -20 -5 -17 -12z"/>
<path d="M8080 5125 c0 -8 9 -15 20 -15 13 0 18 5 14 15 -4 8 -12 15 -20 15
-8 0 -14 -7 -14 -15z"/>
<path d="M8240 5100 c0 -21 40 -38 59 -25 18 10 13 25 -8 25 -11 0 -23 5 -26
10 -10 17 -25 11 -25 -10z"/>
<path d="M8400 5086 c0 -9 5 -16 10 -16 6 0 10 4 10 9 0 6 -4 13 -10 16 -5 3
-10 -1 -10 -9z"/>
<path d="M2905 6470 c3 -5 8 -10 11 -10 2 0 4 5 4 10 0 6 -5 10 -11 10 -5 0
-7 -4 -4 -10z"/>
<path d="M3429 6406 c-36 -38 -36 -38 -51 -17 -13 18 -19 20 -42 11 -15 -5
-32 -8 -37 -4 -5 3 -9 0 -9 -5 0 -6 7 -11 15 -11 8 0 15 -4 15 -10 0 -19 -28
-10 -44 16 l-17 25 -20 -25 c-26 -33 -44 -33 -65 -1 l-16 25 -28 -20 c-35 -25
-38 -25 -60 3 -18 22 -18 22 -51 3 l-32 -19 -22 27 c-18 23 -23 25 -28 12 -4
-9 -14 -16 -24 -16 -15 0 -16 -2 -3 -10 9 -6 18 -6 24 0 15 15 23 12 29 -10 6
-25 43 -27 69 -3 18 16 20 16 41 -11 15 -19 27 -25 40 -21 9 4 17 11 17 16 0
5 7 9 15 9 8 0 15 -4 15 -10 0 -5 11 -13 26 -16 18 -5 31 -1 48 15 l23 21 18
-20 c22 -24 42 -25 67 -4 15 14 20 15 33 4 14 -11 21 -11 46 4 17 10 40 15 51
12 13 -3 33 3 49 15 17 12 34 16 46 12 16 -6 16 -5 4 10 -18 23 -38 21 -51 -3
-16 -30 -48 -26 -52 8 l-3 27 -36 -39z"/>
<path d="M6564 6235 c11 -8 29 -15 39 -15 16 0 17 -3 7 -15 -11 -13 -8 -15 17
-15 16 0 52 -7 79 -15 62 -19 61 -19 39 5 -10 11 -25 20 -34 20 -9 0 -40 11
-69 25 -30 14 -64 25 -75 25 -22 -1 -22 -1 -3 -15z"/>
<path d="M7003 6347 c-21 -7 -33 -18 -33 -29 0 -28 26 -21 50 12 12 17 20 29
18 29 -2 -1 -18 -7 -35 -12z"/>
<path d="M7232 6074 c9 -10 24 -14 33 -10 23 9 9 26 -23 26 -24 0 -25 -1 -10
-16z"/>
<path d="M9853 5817 c44 -36 371 -60 508 -38 83 14 139 30 139 41 0 15 -46 12
-87 -5 -60 -25 -258 -30 -383 -10 -58 9 -125 19 -150 21 -40 5 -43 4 -27 -9z"/>
<path d="M7350 5298 c-79 -27 -185 -59 -235 -70 -107 -23 -358 -58 -424 -58
-38 -1 -43 -2 -27 -11 58 -34 594 63 753 136 56 25 104 55 88 54 -6 0 -75 -23
-155 -51z"/>
<path d="M5050 5325 c0 -17 152 -73 302 -111 200 -51 547 -86 648 -67 41 8 34
10 -70 17 -351 22 -596 63 -752 127 -91 36 -128 46 -128 34z"/>
<path d="M7431 4606 c-7 -8 -8 -17 -3 -20 6 -3 15 1 21 8 7 8 8 17 3 20 -6 3
-15 -1 -21 -8z"/>
<path d="M7350 4585 c0 -8 9 -15 20 -15 24 0 27 15 4 24 -22 9 -24 8 -24 -9z"/>
<path d="M7546 4584 c-9 -22 -8 -26 6 -22 13 5 20 38 8 38 -4 0 -11 -7 -14
-16z"/>
<path d="M7409 4568 c-6 -20 -6 -38 1 -38 12 0 31 26 23 33 -6 7 -22 10 -24 5z"/>
<path d="M7607 4564 c-14 -14 -7 -35 11 -32 9 2 17 10 17 17 0 16 -18 25 -28
15z"/>
<path d="M7245 4539 c-10 -14 -1 -21 19 -13 9 3 13 10 10 15 -7 12 -21 11 -29
-2z"/>
<path d="M7166 4521 c-3 -5 0 -14 7 -19 10 -8 13 -6 14 9 2 19 -11 26 -21 10z"/>
<path d="M7370 4484 c0 -9 5 -14 12 -12 18 6 21 28 4 28 -9 0 -16 -7 -16 -16z"/>
<path d="M7603 4471 c1 -12 6 -20 12 -18 14 5 13 29 -2 34 -7 3 -11 -4 -10
-16z"/>
<path d="M7190 4470 c0 -5 7 -10 15 -10 8 0 15 5 15 10 0 6 -7 10 -15 10 -8 0
-15 -4 -15 -10z"/>
<path d="M7710 4465 c-10 -12 -10 -15 4 -15 9 0 16 7 16 15 0 8 -2 15 -4 15
-2 0 -9 -7 -16 -15z"/>
<path d="M7261 4461 c-10 -6 -10 -10 -1 -16 7 -4 19 0 28 9 14 13 14 16 2 16
-8 0 -21 -4 -29 -9z"/>
<path d="M7457 4444 c-13 -13 -7 -24 14 -24 11 0 19 5 17 12 -5 14 -22 21 -31
12z"/>
<path d="M7088 4432 c-10 -2 -18 -8 -18 -13 0 -11 11 -11 30 1 18 11 11 18
-12 12z"/>
<path d="M7542 4428 c6 -18 28 -21 28 -4 0 9 -7 16 -16 16 -9 0 -14 -5 -12
-12z"/>
<path d="M7365 4410 c-3 -5 -15 -10 -25 -10 -24 0 -36 -18 -21 -33 8 -8 20 -3
43 21 18 18 27 32 21 32 -7 0 -15 -4 -18 -10z"/>
<path d="M7135 4399 c-10 -15 3 -25 16 -12 7 7 7 13 1 17 -6 3 -14 1 -17 -5z"/>
<path d="M7716 4371 c-4 -7 -5 -15 -2 -18 9 -9 19 4 14 18 -4 11 -6 11 -12 0z"/>
<path d="M7166 4354 c-4 -11 -1 -14 11 -12 9 2 18 9 21 16 6 18 -25 15 -32 -4z"/>
<path d="M7610 4334 c0 -9 7 -14 17 -12 25 5 28 28 4 28 -12 0 -21 -6 -21 -16z"/>
<path d="M7066 4325 c-3 -9 0 -15 9 -15 8 0 15 7 15 15 0 8 -4 15 -9 15 -5 0
-11 -7 -15 -15z"/>
<path d="M7312 4328 c-16 -16 -15 -28 3 -28 8 0 15 2 15 4 0 2 3 11 6 20 7 19
-7 21 -24 4z"/>
<path d="M7193 4300 c1 -11 5 -20 9 -20 11 0 10 28 -1 35 -6 3 -9 -4 -8 -15z"/>
<path d="M7124 4249 c-8 -14 11 -33 25 -25 11 7 4 36 -9 36 -5 0 -12 -5 -16
-11z"/>
<path d="M7322 4213 c5 -25 28 -28 28 -4 0 12 -6 21 -16 21 -9 0 -14 -7 -12
-17z"/>
<path d="M5520 3911 c0 -14 131 -79 242 -120 217 -80 422 -121 607 -121 68 0
122 2 119 5 -2 3 -87 14 -189 24 -101 11 -209 25 -239 31 -114 21 -310 89
-463 159 -74 34 -77 35 -77 22z"/>
<path d="M7205 3725 c-32 -13 -286 -37 -442 -42 -173 -6 -217 -14 -156 -29 83
-21 663 41 663 71 0 6 -51 5 -65 0z"/>
<path d="M6645 4850 c3 -5 8 -10 11 -10 2 0 4 5 4 10 0 6 -5 10 -11 10 -5 0
-7 -4 -4 -10z"/>
<path d="M6938 4853 c7 -3 16 -2 19 1 4 3 -2 6 -13 5 -11 0 -14 -3 -6 -6z"/>
<path d="M6735 4831 c-3 -5 -1 -12 4 -15 5 -3 11 1 15 9 6 16 -9 21 -19 6z"/>
<path d="M6860 4800 c0 -5 7 -10 15 -10 8 0 15 5 15 10 0 6 -7 10 -15 10 -8 0
-15 -4 -15 -10z"/>
<path d="M6714 4785 c-7 -17 4 -37 17 -30 12 8 12 45 -1 45 -6 0 -13 -7 -16
-15z"/>
<path d="M6800 4715 c0 -8 5 -15 10 -15 6 0 10 7 10 15 0 8 -4 15 -10 15 -5 0
-10 -7 -10 -15z"/>
<path d="M6880 4705 c0 -8 4 -15 9 -15 5 0 14 7 21 15 10 13 9 15 -9 15 -12 0
-21 -6 -21 -15z"/>
<path d="M6682 4688 c6 -18 28 -21 28 -4 0 9 -7 16 -16 16 -9 0 -14 -5 -12
-12z"/>
<path d="M7125 4681 c-3 -5 -1 -12 5 -16 12 -7 30 2 30 16 0 12 -27 12 -35 0z"/>
<path d="M6490 4660 c0 -11 5 -20 10 -20 6 0 10 9 10 20 0 11 -4 20 -10 20 -5
0 -10 -9 -10 -20z"/>
<path d="M6636 4605 c-4 -10 1 -15 14 -15 11 0 20 7 20 15 0 8 -6 15 -14 15
-8 0 -16 -7 -20 -15z"/>
<path d="M6974 4579 c-8 -14 11 -33 25 -25 6 4 11 14 11 22 0 16 -26 19 -36 3z"/>
<path d="M6120 4690 c0 -5 7 -10 15 -10 8 0 15 5 15 10 0 6 -7 10 -15 10 -8 0
-15 -4 -15 -10z"/>
<path d="M5940 4660 c0 -5 5 -10 10 -10 6 0 10 5 10 10 0 6 -4 10 -10 10 -5 0
-10 -4 -10 -10z"/>
<path d="M6120 4645 c0 -8 5 -15 10 -15 6 0 10 7 10 15 0 8 -4 15 -10 15 -5 0
-10 -7 -10 -15z"/>
<path d="M6037 4633 c-12 -11 -8 -23 8 -23 8 0 15 7 15 15 0 16 -12 20 -23 8z"/>
<path d="M5880 4600 c0 -5 5 -10 11 -10 5 0 7 5 4 10 -3 6 -8 10 -11 10 -2 0
-4 -4 -4 -10z"/>
<path d="M5930 4449 c0 -24 23 -21 28 4 2 10 -3 17 -12 17 -10 0 -16 -9 -16
-21z"/>
<path d="M5820 4444 c0 -14 3 -14 15 -4 8 7 15 14 15 16 0 2 -7 4 -15 4 -8 0
-15 -7 -15 -16z"/>
<path d="M6296 4480 c-17 -6 -18 -7 -3 -13 9 -3 19 -2 23 4 9 15 2 18 -20 9z"/>
<path d="M6502 4478 c8 -22 36 -34 50 -20 10 10 10 15 -2 22 -21 14 -52 12
-48 -2z"/>
<path d="M6631 4447 c-6 -8 -8 -17 -4 -20 7 -8 33 11 33 24 0 13 -16 11 -29
-4z"/>
<path d="M6457 4444 c-8 -8 1 -24 14 -24 5 0 9 7 9 15 0 15 -12 20 -23 9z"/>
<path d="M6316 4424 c-4 -9 -4 -19 -1 -22 3 -3 5 0 5 7 0 7 5 9 10 6 6 -3 10
-2 10 4 0 18 -18 21 -24 5z"/>
<path d="M6517 4426 c-3 -8 -3 -17 0 -20 9 -9 34 15 27 25 -8 13 -21 11 -27
-5z"/>
<path d="M6607 4404 c-8 -8 1 -24 14 -24 5 0 9 7 9 15 0 15 -12 20 -23 9z"/>
<path d="M6333 4385 c-3 -9 -3 -18 0 -22 10 -10 37 6 37 22 0 20 -29 20 -37 0z"/>
<path d="M6445 4389 c-4 -6 -5 -13 -2 -16 7 -7 27 6 27 18 0 12 -17 12 -25 -2z"/>
<path d="M6162 4369 c2 -7 10 -15 17 -17 8 -3 12 1 9 9 -2 7 -10 15 -17 17 -8
3 -12 -1 -9 -9z"/>
<path d="M6532 4368 c-7 -7 -12 -16 -12 -20 0 -12 28 -10 36 3 10 17 -10 31
-24 17z"/>
<path d="M6725 4370 c-7 -12 2 -30 16 -30 5 0 9 9 9 20 0 21 -15 27 -25 10z"/>
<path d="M6275 4350 c-3 -5 1 -10 9 -10 9 0 16 5 16 10 0 6 -4 10 -9 10 -6 0
-13 -4 -16 -10z"/>
<path d="M6210 4324 c0 -17 22 -14 28 4 2 7 -3 12 -12 12 -9 0 -16 -7 -16 -16z"/>
<path d="M6380 4315 c0 -8 7 -15 15 -15 8 0 15 7 15 15 0 8 -7 15 -15 15 -8 0
-15 -7 -15 -15z"/>
<path d="M6627 4314 c-8 -8 1 -24 14 -24 5 0 9 7 9 15 0 15 -12 20 -23 9z"/>
<path d="M6097 4303 c-12 -11 -8 -23 8 -23 8 0 15 7 15 15 0 16 -12 20 -23 8z"/>
<path d="M6320 4295 c-11 -13 -10 -14 4 -9 9 3 16 10 16 15 0 13 -6 11 -20 -6z"/>
<path d="M6710 4289 c0 -24 23 -21 28 4 2 10 -3 17 -12 17 -10 0 -16 -9 -16
-21z"/>
<path d="M6513 4285 c-3 -9 -3 -18 0 -21 9 -9 27 6 27 22 0 19 -19 18 -27 -1z"/>
<path d="M6240 4280 c0 -5 7 -10 15 -10 8 0 15 5 15 10 0 6 -7 10 -15 10 -8 0
-15 -4 -15 -10z"/>
<path d="M6146 4273 c-11 -11 -6 -23 9 -23 8 0 15 4 15 9 0 13 -16 22 -24 14z"/>
<path d="M6701 4216 c-12 -14 -5 -26 16 -26 15 0 18 26 4 34 -5 3 -14 0 -20
-8z"/>
<path d="M6595 4209 c-4 -6 -4 -13 -1 -16 8 -8 36 5 36 17 0 13 -27 13 -35 -1z"/>
<path d="M6145 4200 c-8 -13 4 -32 16 -25 12 8 12 35 0 35 -6 0 -13 -4 -16
-10z"/>
<path d="M6256 4203 c-12 -12 -6 -33 9 -33 8 0 15 6 15 14 0 17 -14 28 -24 19z"/>
<path d="M5995 4149 c-4 -6 -5 -13 -2 -16 7 -7 27 6 27 18 0 12 -17 12 -25 -2z"/>
<path d="M6117 4094 c-8 -8 1 -24 14 -24 5 0 9 7 9 15 0 15 -12 20 -23 9z"/>
<path d="M6242 4053 c5 -25 28 -28 28 -4 0 12 -6 21 -16 21 -9 0 -14 -7 -12
-17z"/>
<path d="M2268 4322 c-77 -9 -85 -22 -14 -22 56 0 58 -1 52 -22 -18 -65 -19
-98 -3 -98 9 0 18 4 21 9 4 6 20 5 42 -1 50 -13 52 -5 5 17 -22 9 -42 24 -46
33 -16 43 69 91 138 78 34 -6 87 -40 87 -55 0 -20 -32 -45 -80 -62 l-55 -18
43 -1 c40 0 42 -2 38 -25 -5 -26 0 -30 23 -16 7 5 11 13 7 19 -3 6 2 17 13 24
11 8 23 26 26 41 7 28 32 36 52 16 8 -8 13 -8 17 0 9 15 88 14 121 -1 24 -11
36 -48 14 -48 -5 0 -8 -4 -5 -9 9 -14 -122 -5 -139 9 -8 7 -15 21 -15 32 0 11
-5 16 -11 13 -6 -4 -8 -13 -5 -21 3 -8 1 -14 -4 -14 -20 0 -9 -28 13 -34 21
-6 21 -7 -8 -22 -74 -40 -96 -93 -55 -134 27 -27 61 -34 136 -27 61 6 63 5 52
-13 -21 -34 1 -35 32 -2 31 34 64 41 95 18 12 -8 16 -20 12 -35 -6 -24 5 -28
23 -6 20 24 -12 63 -59 71 -36 6 -38 8 -37 42 1 30 -4 39 -34 59 -49 33 -50
45 -3 37 47 -7 74 14 49 39 -8 8 -12 17 -9 21 3 3 -2 15 -12 26 -18 20 -18 20
17 20 20 0 50 -3 67 -6 l31 -7 -35 -38 c-38 -42 -40 -50 -25 -79 14 -26 63
-40 141 -40 57 0 67 -3 63 -15 -8 -19 -2 -19 43 0 26 11 33 18 26 28 -13 17
-1 62 17 62 8 0 16 -10 18 -23 2 -16 8 -22 18 -18 8 3 20 9 28 12 20 8 115
-85 125 -123 8 -29 6 -34 -29 -62 -22 -17 -50 -35 -64 -41 -24 -9 -25 -8 -20
18 11 52 -64 115 -135 114 -105 -2 -190 -94 -133 -144 23 -21 62 -32 62 -19 0
6 7 11 15 11 8 0 15 5 15 11 0 5 5 7 12 3 6 -4 8 -3 4 4 -4 7 -16 6 -36 -6
-28 -16 -30 -16 -50 4 -17 17 -19 25 -11 47 15 39 53 59 111 59 97 -1 156 -68
96 -107 -14 -9 -23 -22 -20 -30 3 -8 -8 -17 -28 -25 -39 -14 -292 -69 -296
-65 -2 2 1 12 7 23 16 30 -2 68 -41 89 -47 25 -143 24 -188 -3 -67 -39 -76
-106 -17 -127 29 -11 24 -13 -63 -18 -384 -26 -692 3 -913 85 -52 20 -100 36
-106 36 -5 0 -16 10 -22 23 -7 12 -19 27 -27 33 -12 9 -9 15 18 37 31 26 49
31 100 27 33 -3 57 -16 70 -40 15 -28 4 -45 -43 -65 -35 -15 -38 -19 -20 -22
45 -9 101 47 88 87 -25 80 -211 76 -231 -5 -7 -30 -24 -32 -47 -7 -42 46 -9
112 86 173 66 43 77 46 77 24 0 -20 40 -35 90 -35 38 0 39 -1 28 -25 -9 -19
-8 -29 6 -50 9 -14 24 -25 33 -25 14 0 14 2 -2 20 -66 73 112 138 183 66 29
-28 24 -54 -15 -78 -16 -10 -22 -18 -14 -18 20 0 81 48 81 65 0 29 -46 67 -95
80 -56 14 -68 34 -38 67 18 21 18 21 -9 14 -20 -4 -28 -3 -28 7 0 10 36 20
123 34 67 11 123 16 125 12 2 -4 -13 -23 -33 -41 -36 -33 -37 -35 -28 -78 l9
-45 76 3 c98 5 157 22 181 54 16 21 17 29 7 48 -15 27 -84 59 -130 60 -30 1
-32 2 -16 12 13 7 29 7 52 0 l33 -10 -17 24 c-20 29 -27 28 -254 -17 -81 -16
-164 -29 -185 -29 -57 0 -100 -15 -139 -49 -19 -17 -57 -42 -84 -56 -68 -35
-119 -81 -137 -127 -8 -21 -18 -38 -23 -38 -12 0 -37 33 -48 65 -10 30 -10 30
-11 4 -1 -32 103 -149 164 -184 92 -53 340 -117 570 -146 129 -17 542 -17 660
-1 235 33 405 79 565 153 77 36 95 49 135 101 57 73 70 104 28 65 l-31 -29
-12 36 c-6 19 -25 47 -41 61 -46 38 -273 145 -321 151 -41 5 -113 18 -168 30
-110 24 -451 46 -542 36z m-125 -85 c72 -31 69 -73 -7 -102 -96 -37 -209 23
-148 78 40 37 101 46 155 24z m-405 -33 c58 -38 28 -77 -66 -88 -68 -8 -112 5
-112 32 0 21 25 52 55 70 24 15 91 7 123 -14z m1299 6 c51 -23 68 -64 37 -87
-28 -21 -177 -14 -200 9 -36 35 26 97 96 97 14 0 44 -8 67 -19z m-287 -109
c53 -38 29 -85 -51 -96 -71 -10 -127 2 -146 31 -14 22 -14 26 1 49 30 46 141
55 196 16z m18 -231 c27 -16 33 -26 30 -48 -6 -53 -107 -79 -193 -50 -35 11
-40 17 -40 43 0 66 128 101 203 55z"/>
<path d="M2270 4142 c-23 -24 -28 -36 -26 -72 2 -42 17 -62 31 -41 3 6 30 11
60 11 69 0 80 17 18 25 -27 3 -55 7 -63 8 -25 3 -24 43 2 61 48 34 156 9 145
-34 -3 -12 3 -22 19 -29 21 -9 24 -8 24 10 0 12 -15 36 -34 55 -31 31 -40 34
-91 34 -49 0 -60 -4 -85 -28z"/>
<path d="M1520 4094 c0 -9 5 -14 12 -12 18 6 21 28 4 28 -9 0 -16 -7 -16 -16z"/>
<path d="M2080 4080 c0 -5 -18 -19 -39 -30 -47 -24 -55 -34 -47 -64 11 -44
107 -62 166 -31 23 12 30 22 30 45 0 24 -7 33 -40 50 -22 11 -40 25 -40 30 0
6 -7 10 -15 10 -8 0 -15 -4 -15 -10z m55 -50 c34 -13 43 -39 19 -57 -24 -18
-109 -12 -131 9 -13 14 -12 18 13 37 29 23 59 26 99 11z"/>
<path d="M2846 4068 c-9 -5 -16 -15 -16 -23 0 -11 6 -12 26 -5 33 13 33 13 27
-10 -6 -24 9 -26 27 -5 23 28 -28 63 -64 43z"/>
<path d="M2284 4011 c-23 -11 -44 -25 -46 -32 -3 -8 -13 -14 -23 -14 -27 0
-29 -22 -3 -28 29 -8 16 -20 -39 -35 -89 -26 -139 -119 -77 -142 34 -13 44
-13 44 4 0 7 -9 16 -20 19 -26 7 -26 48 0 72 45 41 190 22 205 -26 7 -23 -19
-59 -42 -59 -8 0 -11 -4 -8 -10 10 -17 25 -11 56 19 25 25 28 33 19 55 -9 25
-8 26 24 26 74 0 136 36 136 80 0 74 -130 115 -226 71z m162 -27 c74 -35 47
-87 -52 -100 -71 -8 -114 4 -134 39 -14 27 -14 29 13 53 23 19 39 24 84 24 30
0 70 -7 89 -16z"/>
<path d="M2552 3958 c-17 -17 -15 -48 3 -54 15 -6 45 17 45 35 0 18 -36 31
-48 19z"/>
<path d="M1990 3935 c0 -9 5 -15 10 -13 12 4 11 16 -1 24 -5 3 -9 -2 -9 -11z"/>
<path d="M1800 3922 c-39 -19 -65 -62 -55 -91 6 -19 63 -46 74 -36 3 3 -8 16
-23 29 -28 22 -28 23 -12 48 33 50 115 64 174 28 38 -23 44 -63 12 -80 -11 -6
-20 -15 -20 -19 0 -16 38 0 61 25 22 23 22 27 9 52 -21 37 -75 62 -135 62 -28
0 -66 -8 -85 -18z"/>
<path d="M3045 3870 c3 -5 8 -10 11 -10 2 0 4 5 4 10 0 6 -5 10 -11 10 -5 0
-7 -4 -4 -10z"/>
<path d="M2430 3835 c-11 -13 -8 -15 25 -15 25 0 35 4 33 13 -7 18 -43 20 -58
2z"/>
<path d="M8085 4184 c-18 -13 -17 -14 12 -8 29 6 33 3 47 -30 15 -37 26 -41
61 -26 19 8 19 9 -2 9 -13 1 -33 16 -49 36 -29 39 -40 42 -69 19z"/>
<path d="M8577 4160 c-21 -35 -51 -39 -67 -10 -15 27 -34 25 -48 -5 -14 -31
-44 -32 -65 -2 -14 19 -18 20 -26 7 -9 -13 -12 -12 -25 5 -8 11 -18 17 -22 13
-4 -4 -1 -14 5 -22 8 -10 9 -16 1 -21 -11 -7 -4 -25 10 -25 5 0 16 8 26 17 15
16 17 16 29 0 17 -23 44 -21 73 5 22 21 24 22 33 5 14 -25 52 -21 79 8 28 29
37 31 62 8 27 -24 32 -10 7 20 -27 35 -51 34 -72 -3z"/>
<path d="M8190 4170 c0 -5 5 -10 10 -10 6 0 21 -9 33 -20 12 -12 28 -18 37
-14 8 4 23 6 33 6 9 0 17 3 17 9 0 5 -13 9 -28 9 -16 0 -37 7 -48 15 -22 17
-54 20 -54 5z"/>
<path d="M8530 4160 c0 -5 5 -10 10 -10 6 0 10 5 10 10 0 6 -4 10 -10 10 -5 0
-10 -4 -10 -10z"/>
<path d="M7015 4051 c-10 -18 17 -23 33 -7 15 15 15 16 -5 16 -12 0 -24 -4
-28 -9z"/>
<path d="M6845 4029 c-4 -6 -4 -13 -1 -16 8 -8 36 5 36 17 0 13 -27 13 -35 -1z"/>
<path d="M6835 3990 c-3 -5 1 -13 10 -16 22 -9 29 1 11 15 -10 8 -16 9 -21 1z"/>
<path d="M7000 3990 c0 -5 5 -10 10 -10 6 0 10 5 10 10 0 6 -4 10 -10 10 -5 0
-10 -4 -10 -10z"/>
<path d="M6746 3923 c-6 -14 -5 -15 5 -6 7 7 10 15 7 18 -3 3 -9 -2 -12 -12z"/>
<path d="M6750 3844 c0 -17 22 -14 28 4 2 7 -3 12 -12 12 -9 0 -16 -7 -16 -16z"/>
<path d="M9000 3845 c-12 -14 -11 -18 0 -25 18 -11 42 -1 38 18 -4 22 -23 25
-38 7z"/>
<path d="M10102 3828 c3 -7 13 -15 22 -16 12 -3 17 1 14 10 -3 7 -13 15 -22
16 -12 3 -17 -1 -14 -10z"/>
<path d="M10085 3629 c-10 -15 3 -25 16 -12 7 7 7 13 1 17 -6 3 -14 1 -17 -5z"/>
<path d="M4931 3510 c-19 -69 -168 -310 -192 -310 -5 0 -9 -3 -9 -7 0 -5 98
-9 218 -11 209 -3 216 -2 196 15 -12 10 -32 38 -44 63 -12 25 -44 74 -70 110
-58 79 -68 98 -78 147 l-9 38 -12 -45z m63 -162 c38 -54 10 -82 -39 -39 -31
27 -33 32 -19 46 21 21 40 19 58 -7z"/>
<path d="M5000 3486 c0 -2 19 -16 43 -32 52 -36 55 -39 91 -91 16 -24 30 -43
32 -43 2 0 -2 14 -8 30 -13 39 -89 115 -128 128 -16 6 -30 10 -30 8z"/>
<path d="M10320 3415 c0 -16 27 -32 37 -21 7 7 -16 36 -28 36 -5 0 -9 -7 -9
-15z"/>
<path d="M5564 3021 c-4 -17 -36 -65 -72 -108 -70 -84 -137 -182 -129 -189 17
-17 417 -2 417 15 0 4 -37 54 -82 111 -96 124 -118 158 -112 175 3 7 1 16 -5
20 -7 4 -14 -6 -17 -24z m55 -137 c22 -28 28 -64 11 -64 -6 0 -25 10 -44 22
-30 20 -32 25 -23 45 13 30 31 29 56 -3z"/>
<path d="M5915 2668 c16 -13 32 -23 35 -23 3 0 19 -13 35 -29 17 -15 39 -33
50 -38 32 -17 -22 39 -70 71 -51 35 -92 50 -50 19z"/>
<path d="M4386 3024 c-3 -9 -3 -20 0 -25 14 -23 -103 -268 -144 -299 -27 -21
-62 -27 -62 -10 0 6 -16 -5 -37 -25 -20 -19 -34 -37 -32 -39 2 -2 40 11 84 30
76 32 84 33 170 28 66 -4 106 -2 150 10 32 9 76 16 97 16 29 0 38 4 38 17 0 9
-54 71 -120 138 -78 79 -120 128 -120 142 0 27 -16 38 -24 17z m91 -166 c48
-45 17 -77 -39 -40 -26 17 -27 19 -12 40 19 27 22 27 51 0z"/>
<path d="M4272 2914 c-18 -14 -30 -30 -27 -35 4 -5 2 -9 -4 -9 -12 0 -30 -31
-41 -71 -11 -38 -4 -37 16 4 9 17 31 50 49 72 32 41 49 65 43 65 -2 0 -18 -12
-36 -26z"/>
</g>
</svg>
