<?xml version="1.0" standalone="no"?>
<!DOCTYPE svg PUBLIC "-//W3C//DTD SVG 20010904//EN"
 "http://www.w3.org/TR/2001/REC-SVG-20010904/DTD/svg10.dtd">
<svg version="1.0" xmlns="http://www.w3.org/2000/svg"
 width="1252.000000pt" height="1252.000000pt" viewBox="0 0 1252.000000 1252.000000"
 preserveAspectRatio="xMidYMid meet">
<metadata>
Created by potrace 1.16, written by Peter Selinger 2001-2019
</metadata>
<g transform="translate(0.000000,1252.000000) scale(0.100000,-0.100000)"
fill="#000000" stroke="none">
<path d="M0 6260 l0 -6260 6260 0 6260 0 0 6260 0 6260 -6260 0 -6260 0 0
-6260z m6760 6134 c1205 -97 2387 -562 3312 -1305 l112 -89 193 0 193 0 0 -45
0 -45 -820 0 -820 0 0 103 c0 117 -16 165 -71 211 -46 39 -74 48 -150 48 -78
0 -135 -25 -172 -74 -37 -50 -47 -92 -47 -194 l0 -94 -267 0 c-248 0 -271 -2
-313 -21 -55 -25 -114 -80 -143 -134 l-22 -40 -3 -1600 c-3 -1818 -9 -1669 81
-1759 29 -29 67 -57 85 -64 32 -11 34 -11 48 23 18 44 19 41 -16 55 -41 17
-97 81 -109 127 -7 26 -11 441 -11 1301 l0 1262 1938 0 c1066 0 1941 -2 1943
-4 2 -2 2 -585 -1 -1294 l-5 -1290 -31 -39 c-17 -21 -46 -47 -65 -58 -33 -19
-55 -20 -597 -23 l-562 -3 31 -39 32 -40 523 0 c582 0 586 0 664 68 23 19 53
57 68 86 l27 51 3 1594 c2 1391 0 1601 -13 1646 -19 67 -84 141 -150 171 -49
23 -57 24 -332 24 l-283 0 0 45 0 45 375 0 375 0 0 -40 0 -40 40 0 40 0 0 -40
0 -40 40 0 40 0 -1 -972 c-1 -886 -2 -970 -16 -935 -9 20 -20 37 -24 37 -5 0
-9 -39 -9 -87 0 -82 3 -93 57 -222 249 -599 385 -1132 459 -1801 22 -199 30
-777 15 -1008 -52 -759 -249 -1532 -557 -2181 -30 -63 -53 -115 -52 -116 2 -1
19 -10 38 -20 33 -17 34 -17 48 4 23 35 42 26 42 -19 l0 -40 40 0 40 0 0 -40
0 -40 80 0 80 0 0 -40 0 -40 40 0 40 0 0 -240 0 -240 -40 0 -40 0 0 -80 0 -80
-40 0 -40 0 0 -80 0 -80 -40 0 -40 0 0 -40 0 -40 -40 0 -40 0 0 -40 0 -40 -40
0 -40 0 0 -160 0 -160 -40 0 -40 0 0 -40 0 -40 -160 0 -160 0 0 40 0 40 -120
0 -120 0 0 -40 0 -40 -120 0 -120 0 0 40 0 40 -41 0 c-38 0 -41 2 -36 22 5 18
-1 28 -27 45 l-33 22 -31 -32 c-30 -31 -31 -34 -19 -74 7 -23 16 -45 20 -49 4
-4 7 -63 7 -131 l0 -123 -40 0 -40 0 0 -40 0 -40 -60 0 c-49 0 -58 3 -54 15 5
11 -1 15 -20 15 -14 0 -26 6 -26 13 -1 6 -27 24 -60 39 l-59 26 -18 -20 c-10
-12 -83 -77 -163 -146 -836 -720 -1878 -1210 -2960 -1391 -867 -145 -1591
-118 -2530 94 -545 123 -1300 438 -1615 675 -154 116 -350 244 -489 320 -126
69 -324 220 -518 394 l-107 96 -50 -12 c-40 -9 -48 -14 -40 -25 10 -11 -67
-13 -450 -13 l-461 0 0 40 0 40 -40 0 -40 0 0 80 0 80 -40 0 -40 0 0 40 0 40
-80 0 -80 0 0 40 0 40 -80 0 -80 0 0 40 0 40 -40 0 -40 0 0 40 0 40 -40 0 -40
0 0 80 0 80 -40 0 -40 0 0 120 0 120 -40 0 -40 0 0 440 0 440 -40 0 -40 0 0
480 0 480 40 0 c35 0 40 3 41 23 0 21 1 21 8 2 6 -15 13 -4 32 54 l25 73 -27
106 c-66 264 -123 602 -156 922 -22 217 -25 862 -5 1065 70 715 231 1361 482
1925 l42 95 -2 988 -2 987 41 0 41 0 0 40 0 40 40 0 40 0 0 40 0 40 320 0
c207 0 320 -4 320 -10 0 -5 9 -10 20 -10 21 0 35 -33 28 -67 -3 -17 -22 -18
-283 -23 -244 -4 -285 -7 -316 -23 -51 -26 -108 -84 -133 -137 l-21 -45 -3
-1590 c-3 -1756 -6 -1649 61 -1737 20 -27 55 -54 92 -73 l59 -30 888 -3 888
-2 0 40 c0 25 -5 40 -12 40 -7 0 -389 0 -849 0 -583 0 -853 3 -889 11 -73 16
-133 75 -149 148 -8 37 -11 422 -11 1301 l0 1250 1945 0 1945 0 0 -1273 0
-1273 -22 -44 c-13 -24 -40 -58 -61 -74 l-39 -31 -451 -5 -452 -5 -3 -43 -3
-43 453 3 c448 3 453 3 495 26 63 33 106 74 133 129 l25 48 0 1620 0 1620 -29
53 c-32 57 -81 102 -143 130 -32 14 -77 17 -308 19 -148 2 -276 3 -282 3 -10
0 -13 27 -13 103 0 89 -3 110 -23 148 -76 143 -307 142 -387 -1 -21 -39 -25
-59 -27 -150 l-2 -105 -818 0 -818 1 -3 28 c-2 16 -1 39 2 52 6 23 10 24 94
24 60 0 82 -3 72 -10 -11 -7 5 -10 53 -10 l67 0 118 98 c830 691 1837 1153
2905 1332 505 84 1011 106 1527 64z m2034 -1225 c52 -41 56 -60 56 -294 0
-234 -6 -269 -54 -300 -62 -41 -159 -27 -198 28 -23 31 -23 36 -20 272 3 260
6 273 63 302 40 21 122 16 153 -8z m2094 -13 l37 -34 3 -230 c3 -258 -2 -286
-60 -322 -63 -38 -163 -18 -192 39 -13 25 -16 71 -16 266 0 148 4 244 11 256
18 35 70 59 127 59 46 0 57 -4 90 -34z m-7020 -84 c48 -31 52 -55 52 -300 0
-222 -1 -230 -23 -263 -47 -70 -151 -77 -214 -14 l-33 33 0 236 c0 246 4 272
45 306 35 29 130 30 173 2z m-2087 2 c53 -27 59 -59 59 -306 0 -206 -2 -226
-20 -256 -44 -71 -154 -80 -217 -17 l-33 33 0 236 c0 253 4 277 52 310 29 21
120 21 159 0z"/>
<path d="M9836 9774 c-81 -29 -78 -26 -517 -623 -213 -289 -286 -496 -258
-738 18 -164 95 -330 195 -424 204 -192 567 -239 839 -109 164 78 288 223 351
410 30 86 27 312 -4 402 -64 186 -219 323 -410 363 -85 19 -200 19 -277 1 -33
-8 -61 -13 -63 -11 -2 2 12 20 30 42 19 21 151 178 293 348 142 171 267 320
278 333 l20 22 -219 -1 c-164 0 -229 -4 -258 -15z m21 -1019 c68 -20 143 -88
173 -157 34 -78 33 -202 -2 -278 -34 -76 -76 -121 -143 -155 -51 -25 -66 -28
-143 -27 -73 1 -96 6 -142 30 -95 48 -142 140 -143 282 -1 153 77 272 203 311
43 13 144 10 197 -6z"/>
<path d="M2984 9690 l-221 -5 -49 -30 c-41 -26 -88 -83 -282 -345 -313 -422
-349 -479 -404 -635 -39 -109 -52 -195 -45 -310 11 -202 66 -333 192 -461 128
-130 255 -181 475 -191 106 -4 138 -2 213 16 118 28 144 42 156 89 6 20 11 44
11 52 1 39 16 42 67 16 l50 -25 36 30 c76 63 168 219 196 331 20 85 23 198 7
288 -40 224 -198 393 -417 445 -80 19 -215 19 -294 1 -33 -8 -61 -14 -62 -12
-1 1 135 165 302 365 168 199 307 366 310 371 9 14 -16 15 -241 10z m-197
-1035 c67 -20 134 -80 163 -147 34 -78 39 -195 11 -269 -27 -71 -84 -137 -147
-169 -43 -22 -62 -25 -149 -25 -110 0 -153 15 -207 72 -54 57 -73 117 -73 233
0 118 16 166 76 235 70 79 201 107 326 70z"/>
<path d="M3091 7708 c-21 -108 -50 -157 -154 -260 -85 -84 -97 -100 -112 -153
-32 -107 -4 -222 75 -317 l40 -46 -34 -26 c-47 -35 -92 -107 -118 -187 -21
-65 -23 -68 -63 -78 -52 -13 -79 -42 -110 -118 -49 -121 -50 -184 -10 -372 15
-68 15 -75 -2 -110 -20 -39 -125 -116 -328 -237 -143 -86 -189 -125 -236 -197
-43 -67 -93 -211 -104 -300 -7 -57 -8 -58 -28 -40 -27 24 -67 111 -67 147 0
16 14 58 32 93 42 85 45 176 10 239 l-24 41 32 49 c55 87 64 136 50 293 -14
169 -24 216 -57 263 -53 77 -205 119 -438 119 -153 0 -256 -13 -372 -47 -107
-31 -153 -55 -188 -96 -43 -50 -55 -90 -55 -176 0 -179 50 -345 122 -407 26
-22 35 -35 28 -40 -23 -14 -50 -90 -50 -141 0 -57 16 -102 54 -153 46 -61 33
-149 -37 -253 -57 -86 -100 -125 -204 -183 -172 -96 -229 -152 -312 -305 -102
-190 -146 -469 -121 -770 4 -52 11 -142 14 -200 4 -58 9 -130 11 -160 3 -30 7
-93 10 -140 10 -147 25 -334 30 -370 2 -19 7 -66 10 -105 13 -164 27 -274 41
-330 21 -81 75 -190 125 -248 82 -95 251 -202 391 -247 78 -25 98 -49 109
-129 10 -69 32 -99 95 -131 45 -23 59 -25 174 -23 90 1 147 7 202 21 75 20 77
20 126 2 66 -25 212 -44 280 -36 31 4 75 15 99 26 33 14 50 17 69 10 36 -14
142 -11 187 4 20 8 52 25 70 38 25 18 39 22 62 17 63 -14 159 -9 215 12 30 12
76 22 102 24 26 1 66 5 90 9 33 5 55 2 90 -14 72 -32 173 -30 232 3 l47 26 57
-38 c140 -93 251 -110 371 -56 57 26 64 27 72 12 37 -66 105 -112 181 -123 23
-3 69 -17 102 -31 82 -35 180 -30 288 16 134 58 197 132 198 232 l0 46 80 -5
c48 -3 98 0 125 8 56 16 130 79 147 125 10 28 17 35 39 35 27 0 39 -15 39 -49
0 -33 61 -139 98 -172 64 -56 135 -82 220 -81 96 2 163 22 239 71 166 107 192
252 83 476 -21 44 -36 82 -34 85 3 2 19 -2 37 -9 102 -41 231 -53 321 -30 l42
10 -15 50 -16 49 -75 0 c-169 0 -284 59 -374 190 -31 45 -37 61 -32 89 10 65
67 101 160 101 30 0 57 4 60 9 17 27 -103 28 -160 2 -42 -19 -84 -67 -84 -95
0 -22 -27 -31 -45 -16 -13 11 -12 16 3 39 10 14 39 64 64 111 36 68 47 99 52
155 8 83 22 101 92 119 33 8 50 18 52 30 5 21 -12 18 -101 -21 -70 -30 -98
-25 -127 21 -12 20 -40 44 -66 57 l-46 22 39 39 c83 85 215 150 275 135 49
-13 87 -107 43 -107 -8 0 -15 -4 -15 -10 0 -5 6 -10 13 -10 8 0 22 -9 32 -20
16 -18 19 -18 42 -3 13 9 36 39 50 66 24 49 24 51 8 88 -23 51 -71 95 -124
114 -50 17 -79 18 -140 2 l-44 -12 -61 60 c-90 90 -170 111 -301 81 l-59 -14
-38 38 c-77 77 -200 108 -302 76 -45 -14 -55 -14 -109 1 -58 16 -59 17 -53 47
4 17 8 243 11 501 6 585 2 621 -113 905 -75 188 -128 285 -181 331 -24 22 -97
71 -161 110 -64 39 -147 93 -183 120 l-67 49 0 238 0 238 -27 55 c-23 44 -39
61 -87 90 -52 31 -61 41 -76 85 -23 72 -56 120 -110 163 l-47 37 43 47 c53 59
79 131 77 217 -3 121 -50 205 -162 290 -60 46 -74 62 -91 107 -11 30 -30 67
-42 83 -19 26 -141 100 -166 100 -5 0 -15 -28 -21 -62z m244 -347 c112 -95
134 -176 73 -267 -90 -133 -293 -140 -400 -15 -20 23 -41 62 -48 86 -18 65 -1
104 73 168 80 69 115 106 134 141 l15 29 51 -50 c29 -27 75 -69 102 -92z m-67
-457 c3 -26 -1 -33 -20 -38 -61 -16 -108 -4 -108 28 0 35 20 47 75 44 48 -3
50 -4 53 -34z m145 -139 c89 -85 77 -117 -53 -151 -95 -24 -316 -16 -383 14
-42 19 -48 24 -42 44 15 49 50 99 88 125 38 27 46 28 153 28 62 0 115 3 119 7
14 13 62 -14 118 -67z m-427 -195 c133 -41 307 -37 443 11 31 10 58 19 62 19
11 0 29 -59 23 -74 -14 -35 -180 -68 -349 -69 -198 -1 -285 29 -285 97 0 36 8
49 26 42 6 -2 43 -14 80 -26z m636 -42 l21 -21 -26 -23 c-27 -23 -120 -48
-159 -42 -19 3 -15 7 23 25 26 11 57 35 70 52 27 37 41 39 71 9z m-769 -35
c19 -16 43 -33 53 -40 17 -11 15 -12 -14 -12 -33 -1 -94 20 -119 41 -12 10
-10 14 9 24 31 18 30 18 71 -13z m147 -110 c185 -25 412 -6 589 48 35 10 67
19 72 19 13 0 11 -182 -3 -332 l-12 -127 -45 -20 c-130 -55 -318 -75 -482 -52
-86 13 -244 50 -313 74 l-40 14 -18 119 c-23 152 -32 265 -24 297 l6 25 77
-25 c43 -13 130 -31 193 -40z m409 58 c12 -8 9 -11 -12 -16 -15 -4 -35 -4 -44
0 -17 7 -16 8 2 15 27 11 37 11 54 1z m-1718 -95 c26 -9 56 -28 69 -41 l22
-23 -42 -27 c-103 -65 -401 -102 -595 -75 -79 12 -158 47 -163 72 -6 30 106
74 262 104 102 19 385 13 447 -10z m110 -168 c18 -66 16 -187 -4 -225 -22 -42
-71 -78 -127 -95 -64 -19 -398 -15 -504 6 -117 23 -147 41 -169 101 -20 53
-36 215 -21 215 5 0 43 -10 84 -21 53 -15 118 -22 220 -26 167 -6 274 9 410
56 47 16 88 30 92 30 4 1 13 -18 19 -41z m1064 -252 c276 -74 531 -74 744 -2
l73 25 62 -52 c83 -71 176 -136 266 -187 87 -49 107 -64 127 -104 14 -28 14
-30 -8 -47 -42 -32 -221 -117 -302 -144 -193 -63 -378 -89 -632 -88 -253 1
-556 41 -615 82 -14 9 -47 25 -75 35 -91 34 -164 76 -210 119 -25 24 -45 48
-45 53 0 6 35 30 78 54 134 75 265 166 332 229 45 42 71 60 85 57 11 -2 65
-15 120 -30z m-1385 -121 c91 0 182 4 203 8 l38 8 -3 -63 -3 -63 -50 -13 c-90
-23 -233 -31 -349 -21 -179 15 -173 13 -178 67 -8 93 -8 93 91 84 47 -4 160
-7 251 -7z m273 -195 c-3 -54 -21 -72 -96 -94 -145 -42 -350 -46 -482 -11 -90
25 -105 37 -105 90 0 24 4 46 10 50 5 3 69 -2 142 -11 155 -19 374 -14 453 9
73 22 80 19 78 -33z m483 -51 c26 -29 87 -70 162 -109 50 -26 60 -35 51 -46
-6 -7 -20 -16 -30 -19 -16 -5 -18 -10 -8 -21 17 -20 39 -17 39 6 0 33 43 36
108 7 58 -26 189 -56 342 -78 127 -18 460 -16 610 5 230 31 454 92 505 136 11
10 37 25 58 34 37 15 39 15 44 -4 3 -11 14 -20 24 -20 22 0 23 1 7 36 -11 22
-10 28 6 40 25 18 56 1 56 -29 0 -33 -25 -63 -78 -94 -26 -14 -79 -46 -118
-69 -318 -190 -821 -252 -1234 -152 -96 23 -351 122 -452 175 -78 41 -168 127
-168 161 0 21 31 62 48 62 5 0 17 -10 28 -21z m-532 -148 c6 -62 21 -101 84
-223 10 -20 -241 -76 -383 -84 -103 -6 -295 13 -313 30 -3 4 4 38 17 77 12 38
28 111 34 160 l11 91 31 -6 c141 -29 328 -25 450 8 28 8 53 15 56 15 4 1 9
-30 13 -68z m472 -2 c49 -51 122 -93 302 -172 191 -85 266 -110 393 -131 428
-73 1002 38 1290 251 34 24 65 41 69 36 10 -11 74 -248 95 -347 23 -114 29
-395 16 -721 -12 -281 -24 -412 -40 -428 -6 -6 -28 9 -53 36 -36 37 -54 47
-102 57 -134 28 -258 -28 -301 -135 l-16 -40 51 57 c81 91 200 122 296 79 35
-16 84 -66 84 -85 0 -4 -19 -26 -42 -49 -24 -24 -52 -54 -64 -68 -11 -13 -37
-38 -57 -55 -21 -17 -37 -39 -37 -48 0 -19 65 -53 123 -62 20 -4 37 -9 37 -11
0 -3 -8 -17 -19 -31 -38 -56 -35 -119 10 -192 31 -49 35 -23 8 55 -18 53 -20
70 -11 90 20 44 135 115 187 115 33 0 134 -79 156 -122 26 -51 24 -85 -11
-154 -58 -118 -107 -134 -232 -75 -100 47 -196 39 -328 -26 -104 -51 -241
-187 -293 -292 -43 -86 -48 -140 -16 -172 26 -26 31 -21 19 22 -6 18 -10 45
-10 59 0 38 83 156 174 245 153 150 287 195 431 144 120 -42 181 -116 192
-232 5 -59 4 -64 -31 -112 -64 -89 -95 -149 -107 -203 -11 -53 -5 -136 11
-162 12 -19 1 -39 -31 -55 -37 -20 -36 -20 -49 19 -6 19 -29 55 -51 80 -133
151 -427 208 -597 116 l-55 -30 -46 39 c-57 48 -151 147 -151 159 0 4 24 16
53 25 122 39 216 125 233 214 12 65 -33 130 -132 189 -18 10 -18 12 -1 37 16
25 22 27 80 25 34 -1 94 -1 132 -1 39 0 95 0 125 -1 40 -1 71 7 113 26 l59 28
19 -23 c10 -12 28 -33 38 -47 33 -40 26 0 -8 50 -29 44 -29 44 -10 68 24 31
24 59 -2 123 -24 61 -31 68 -125 114 -49 24 -83 50 -113 85 -47 56 -124 100
-208 120 -78 18 -118 -4 -160 -90 -31 -62 -33 -65 -82 -76 -66 -14 -95 -35
-125 -86 -37 -65 -41 -100 -17 -154 12 -25 21 -47 21 -48 0 0 -21 -2 -46 -3
-61 -3 -85 -20 -124 -88 -17 -30 -34 -55 -36 -55 -3 0 -24 10 -47 22 -109 57
-297 -10 -297 -106 l0 -31 26 43 c35 59 90 86 175 87 100 0 109 -11 109 -138
0 -84 3 -105 22 -138 28 -50 107 -104 177 -122 l53 -14 -48 -35 c-27 -19 -54
-38 -61 -42 -7 -4 -23 15 -43 53 -37 69 -121 158 -167 177 -49 21 -84 17 -149
-16 -73 -36 -204 -145 -223 -185 -8 -17 -16 -48 -17 -70 -2 -43 -15 -52 -82
-54 -22 -1 -44 -12 -70 -35 -34 -32 -37 -39 -37 -88 0 -96 68 -209 150 -251
21 -11 26 -17 15 -20 -16 -5 -111 -40 -121 -45 -3 -1 -11 17 -18 40 -23 75
-60 136 -98 163 -70 47 -158 70 -269 70 l-100 0 -56 -42 -55 -42 -49 23 c-97
46 -125 113 -82 195 28 55 62 81 116 88 82 11 169 -46 216 -140 l16 -32 0 30
c0 35 -24 74 -63 105 -15 12 -27 29 -27 38 0 38 86 189 136 240 45 45 58 52
91 52 24 0 52 -9 74 -24 19 -13 56 -34 81 -45 72 -35 107 -76 122 -146 4 -17
16 -44 27 -60 14 -20 19 -24 15 -10 -2 11 -10 40 -16 65 -19 73 -48 119 -95
152 -42 30 -43 32 -28 54 8 13 35 37 61 54 65 43 111 41 217 -11 120 -59 127
-43 9 23 l-99 55 -7 89 c-4 49 -7 278 -6 509 2 449 -3 511 -49 684 -14 53 -25
101 -25 106 5 66 26 183 35 192 21 21 56 4 66 -33 5 -18 7 -104 4 -191 -3 -88
-1 -173 4 -193 7 -27 12 21 17 198 5 128 7 235 5 237 -2 2 -32 7 -65 10 l-61
7 -6 -81 c-4 -45 -9 -86 -12 -91 -18 -28 -55 33 -55 90 0 30 -56 88 -191 198
-70 56 -78 67 -90 114 -20 75 -17 247 4 341 10 42 22 77 26 77 4 0 20 -14 37
-31z m-315 -296 l41 -37 -25 -22 c-17 -14 -72 -33 -159 -54 -229 -56 -450 -54
-640 6 -83 26 -91 36 -59 75 l18 23 117 -19 c191 -30 421 -11 606 48 25 8 48
15 52 16 5 1 26 -16 49 -36z m149 -122 c19 -15 65 -44 101 -64 60 -33 139
-101 139 -118 0 -15 -212 -69 -465 -120 -154 -31 -169 -33 -415 -33 -295 -1
-327 4 -554 87 l-139 51 43 38 c23 21 68 52 99 70 31 17 79 46 107 64 l50 33
65 -19 c109 -34 229 -51 360 -51 142 -1 233 14 414 65 66 19 129 32 140 29 11
-3 36 -17 55 -32z m282 -221 c91 -26 62 -83 -63 -126 -171 -59 -555 -144 -579
-129 -6 3 -10 20 -10 36 0 26 -3 30 -22 27 -20 -3 -23 -9 -21 -39 l2 -37 -67
-13 c-96 -20 -379 -17 -517 4 -131 20 -264 55 -374 97 -89 34 -95 44 -65 103
24 47 44 67 68 67 12 0 80 -21 151 -46 240 -85 228 -83 530 -83 321 -1 386 7
675 83 176 47 221 58 250 65 3 0 22 -4 42 -9z m93 -185 c35 -79 63 -191 74
-302 5 -54 13 -326 17 -604 l6 -506 -55 -31 c-30 -17 -65 -46 -78 -64 -12 -18
-24 -34 -25 -36 -1 -2 -29 10 -63 27 -33 17 -75 31 -94 31 -72 0 -154 -96
-217 -251 l-23 -57 -78 5 c-68 5 -82 3 -113 -16 -40 -25 -82 -101 -92 -168 -6
-40 -7 -41 -52 -48 -80 -12 -138 -48 -172 -108 -16 -28 -30 -63 -30 -76 0 -18
-4 -22 -17 -16 -58 25 -102 28 -147 11 -41 -16 -95 -65 -122 -111 -10 -17 -13
-17 -84 4 -74 23 -178 71 -235 110 -66 45 -147 137 -181 206 -38 76 -47 126
-63 330 -6 72 -18 195 -26 275 -24 222 -65 831 -65 960 0 136 18 257 54 359
14 41 28 76 30 78 2 3 48 -12 103 -32 131 -50 295 -91 423 -106 129 -15 433
-6 587 16 132 20 477 103 593 143 47 17 93 30 103 31 13 1 25 -15 42 -54z
m1316 -747 c30 -14 72 -40 93 -59 l38 -33 -82 -18 c-48 -10 -102 -30 -131 -47
l-48 -30 -50 47 c-49 47 -50 49 -40 85 5 19 24 48 41 62 27 23 39 26 78 23 25
-3 71 -16 101 -30z m836 -3 c92 -27 131 -107 82 -169 -12 -15 -43 -38 -69 -51
l-49 -25 -51 27 -51 26 -59 -16 c-33 -10 -82 -17 -110 -17 -50 0 -130 25 -130
41 0 13 141 128 185 151 93 49 167 58 252 33z m293 -18 c73 -38 105 -130 57
-162 -29 -19 -130 -30 -190 -21 l-45 7 10 39 c10 38 4 82 -17 132 -8 20 9 25
86 27 41 1 68 -5 99 -22z m427 -123 c50 -40 82 -89 76 -114 -7 -28 -145 -146
-187 -160 -27 -9 -45 -9 -69 -1 -30 10 -36 18 -51 72 -21 76 -40 105 -84 128
l-35 18 36 27 c62 47 124 66 204 63 63 -2 76 -6 110 -33z m-1328 -26 c76 -38
131 -107 131 -162 0 -28 -8 -39 -56 -74 -68 -50 -122 -67 -184 -56 -55 9 -122
9 -176 -1 -37 -6 -43 -5 -62 20 -15 19 -22 42 -22 74 0 204 174 298 369 199z
m-432 13 c56 -35 56 -92 0 -135 -34 -26 -169 -86 -193 -86 -37 0 -56 86 -33
147 13 34 47 72 74 83 38 16 118 11 152 -9z m1369 -82 c98 -15 116 -33 140
-135 l18 -74 -53 -52 c-54 -55 -114 -164 -125 -227 -6 -34 -6 -34 14 -16 11
10 20 22 20 27 0 5 16 43 36 84 64 130 134 177 264 178 69 1 79 -2 122 -32 68
-47 98 -90 98 -141 0 -58 -33 -145 -83 -219 -48 -72 -35 -69 -187 -37 -82 18
-88 18 -140 1 -29 -10 -78 -33 -108 -52 -53 -35 -54 -35 -95 -20 -73 26 -157
38 -221 32 l-61 -7 -3 93 -3 92 37 -36 c44 -45 91 -68 136 -68 63 0 63 16 0
29 -33 6 -72 21 -86 32 -26 20 -96 131 -96 151 0 5 11 24 26 40 76 92 95 196
49 277 l-25 44 32 -7 c17 -3 52 -22 77 -41 44 -35 66 -40 41 -9 -8 8 -33 29
-57 45 -70 48 -59 59 57 59 54 0 134 -5 176 -11z m-1356 -139 c12 -12 20 -33
20 -54 0 -32 -34 -96 -56 -103 -6 -2 -41 25 -79 59 l-68 63 49 27 c59 33 106
36 134 8z m-220 -61 c25 -11 70 -42 101 -69 30 -26 84 -61 120 -78 102 -45
134 -100 105 -175 -21 -57 -79 -115 -145 -145 -46 -21 -63 -24 -130 -20 -156
10 -255 74 -287 186 -17 56 -17 58 9 128 32 91 69 150 110 174 40 25 61 25
117 -1z m-331 -394 c56 -29 161 -162 161 -204 0 -5 -26 -24 -57 -42 -78 -43
-107 -72 -159 -151 -24 -38 -46 -68 -48 -68 -2 0 -33 30 -68 66 -45 47 -82 75
-130 97 -61 29 -68 35 -68 61 0 57 37 113 100 151 31 19 64 42 71 52 42 51
138 69 198 38z m2255 -95 c87 -27 145 -69 183 -132 48 -80 49 -84 15 -118 -23
-23 -40 -30 -69 -30 -39 0 -141 -15 -172 -25 -12 -4 -21 3 -29 20 -31 68 -130
148 -222 180 -25 8 -51 18 -59 20 -11 4 -10 10 5 26 78 87 194 106 348 59z
m-499 -33 c81 -32 298 -152 338 -187 43 -39 107 -126 107 -147 0 -6 -20 -23
-44 -37 -27 -16 -56 -45 -75 -75 -38 -63 -63 -79 -126 -83 -120 -6 -136 -2
-194 52 -78 72 -147 102 -248 108 l-82 4 -15 39 c-24 61 -20 136 10 197 14 29
35 57 46 63 12 6 31 23 43 37 32 38 174 55 240 29z m-1331 -96 c44 -38 98 -84
120 -103 l39 -34 -23 -62 c-18 -50 -26 -62 -39 -56 -41 18 -150 43 -192 43
-106 2 -209 -55 -209 -116 0 -26 19 -70 55 -133 13 -23 12 -25 -17 -37 -30
-13 -32 -12 -62 24 -78 96 -120 133 -162 146 l-44 13 60 89 c32 50 74 104 92
122 30 29 270 171 292 172 5 1 45 -30 90 -68z m568 -90 c144 -37 250 -109 289
-195 21 -47 24 -134 5 -185 -17 -49 -49 -57 -152 -41 -82 13 -84 13 -182 -18
-100 -32 -138 -38 -158 -24 -6 4 -16 29 -24 55 -15 54 -77 130 -145 177 -23
16 -45 37 -47 47 -8 31 11 81 43 113 84 83 220 109 371 71z m-1305 -9 c71 -29
130 -78 162 -134 39 -67 39 -98 0 -154 l-31 -45 -54 31 c-65 37 -84 37 -122 5
-30 -25 -31 -25 -71 -9 -46 18 -88 62 -98 102 -3 14 -12 37 -19 51 -29 55 -4
142 44 160 43 15 143 12 189 -7z m-982 -152 c14 -5 45 -25 68 -42 23 -18 44
-34 47 -36 3 -2 -7 -14 -21 -25 -14 -12 -38 -39 -54 -60 -28 -38 -28 -38 -49
-19 -38 35 -63 42 -146 42 l-82 0 7 27 c22 90 139 148 230 113z m525 -27 c56
-19 86 -35 88 -46 4 -20 -28 -23 -59 -7 -10 6 -19 7 -19 2 0 -5 31 -26 70 -47
38 -21 79 -47 90 -57 51 -47 1 -137 -101 -182 -35 -16 -95 -44 -133 -62 -80
-39 -120 -42 -191 -15 -27 11 -62 22 -77 25 -36 8 -83 50 -114 101 -19 34 -24
55 -22 91 3 47 6 50 83 116 114 97 164 121 240 115 33 -2 98 -18 145 -34z
m1235 8 c109 -38 250 -148 274 -214 17 -43 13 -82 -9 -102 -24 -22 -25 -36 -5
-75 l15 -30 -90 -45 c-104 -52 -141 -56 -216 -21 -90 42 -194 155 -194 212 0
12 -20 62 -45 110 -25 49 -45 98 -45 110 0 74 175 104 315 55z m1922 -27 c69
-40 138 -202 119 -279 -18 -73 -156 -165 -246 -165 -116 1 -210 95 -210 210 0
75 75 210 135 243 60 32 136 29 202 -9z m-782 -21 c58 -20 120 -59 145 -90 24
-30 21 -62 -11 -125 -29 -56 -66 -71 -163 -66 -142 8 -256 76 -256 153 0 50
15 80 55 110 59 46 134 52 230 18z m-2225 -47 c0 -3 -4 -8 -10 -11 -5 -3 -10
-1 -10 4 0 6 5 11 10 11 6 0 10 -2 10 -4z m632 -46 c55 -64 116 -164 129 -213
15 -58 -7 -87 -66 -87 -52 0 -92 14 -121 41 -12 11 -37 28 -55 37 -38 19 -58
62 -58 127 -1 63 14 76 35 32 29 -60 46 -54 22 9 -27 71 -16 104 36 104 29 0
42 -8 78 -50z m-268 -4 c45 -19 76 -61 76 -105 0 -58 19 -110 46 -128 l26 -16
-24 -13 c-64 -36 -162 8 -199 89 -18 41 -27 166 -12 180 11 11 51 8 87 -7z
m-1361 -13 c4 -2 -18 -32 -49 -65 -56 -61 -60 -72 -39 -120 6 -16 0 -18 -54
-18 -53 0 -63 3 -76 24 -15 22 -15 28 -1 61 37 89 109 141 176 129 19 -3 38
-8 43 -11z m274 -9 c32 -20 54 -57 60 -102 4 -30 0 -46 -21 -76 -39 -58 -31
-67 14 -16 42 48 57 49 86 4 13 -18 9 -23 -49 -61 l-62 -42 -9 25 c-6 13 -16
24 -23 24 -8 0 -32 9 -55 21 -43 22 -47 22 -180 3 -55 -8 -74 3 -95 55 -14 32
-13 35 15 70 35 44 120 97 176 110 49 11 112 4 143 -15z m938 -77 c17 -14 28
-36 32 -63 l5 -41 -33 4 -34 4 23 -20 c12 -10 22 -22 22 -25 0 -3 -24 -6 -54
-6 -53 0 -55 1 -61 33 -4 17 -13 42 -21 55 -18 28 -13 37 34 62 48 25 56 25
87 -3z m1622 -50 c26 -14 58 -36 69 -49 27 -29 94 -135 94 -148 0 -18 -41 -21
-72 -6 -46 23 -45 13 2 -18 22 -14 40 -30 40 -34 -1 -21 -34 -45 -96 -70 -108
-45 -124 -45 -211 -12 -43 16 -96 34 -118 40 -22 5 -45 13 -51 17 -15 11 -74
94 -74 105 0 5 24 6 53 3 l52 -7 -63 41 c-67 44 -97 86 -71 101 8 5 34 12 59
16 44 6 70 12 160 40 65 20 166 11 227 -19z m-2627 -117 c8 -5 24 -18 35 -30
20 -22 20 -22 -4 -41 -34 -27 -58 -24 -102 16 -22 19 -44 35 -49 35 -23 0 -7
20 23 29 32 9 68 5 97 -9z m754 -15 c13 -36 -59 -95 -117 -95 -30 0 -87 25
-87 39 0 11 40 46 70 61 57 30 121 28 134 -5z m-344 -34 c33 -24 37 -56 9 -72
-26 -14 -204 -7 -261 10 -29 9 -35 15 -31 31 3 11 17 30 31 41 24 18 35 20
127 14 71 -5 107 -12 125 -24z m-592 -2 c56 1 66 -2 90 -26 l27 -27 -40 -8
c-50 -9 -202 -8 -235 1 -61 17 -6 77 60 65 19 -3 63 -6 98 -5z"/>
<path d="M2261 5477 c-6 -6 -11 -18 -11 -28 0 -12 6 -15 25 -11 15 3 25 11 25
22 0 22 -24 32 -39 17z"/>
<path d="M4012 5398 c2 -12 11 -24 21 -26 14 -3 18 1 15 20 -2 12 -11 24 -21
26 -14 3 -18 -1 -15 -20z"/>
<path d="M3872 5334 c4 -37 41 -42 46 -6 2 12 -1 22 -6 22 -6 0 -18 3 -27 6
-13 6 -16 1 -13 -22z"/>
<path d="M2554 5325 c-7 -18 13 -45 33 -45 19 0 28 27 13 45 -16 19 -39 19
-46 0z"/>
<path d="M3712 5301 c-21 -13 -10 -46 16 -49 27 -4 40 22 22 43 -14 17 -20 18
-38 6z"/>
<path d="M2732 5253 c2 -22 8 -28 28 -28 20 0 25 5 25 25 0 20 -6 26 -28 28
-26 3 -28 1 -25 -25z"/>
<path d="M3531 5251 c-13 -24 9 -57 33 -48 21 8 21 53 0 61 -22 8 -22 8 -33
-13z"/>
<path d="M2932 5251 c-8 -4 -12 -19 -10 -32 2 -18 9 -24 28 -24 19 0 26 6 28
24 3 20 -11 41 -28 41 -3 0 -11 -4 -18 -9z"/>
<path d="M3333 5243 c-18 -7 -16 -38 2 -53 32 -26 63 18 33 48 -13 13 -16 13
-35 5z"/>
<path d="M3132 5228 c-27 -27 5 -73 38 -53 20 12 4 65 -20 65 -3 0 -11 -5 -18
-12z"/>
<path d="M2497 5059 c-25 -15 -47 -63 -47 -103 0 -33 3 -36 78 -73 l78 -39 13
50 c8 28 16 70 18 94 5 41 4 42 -38 62 -49 22 -76 24 -102 9z m88 -41 c28 -12
32 -36 14 -87 -10 -29 -15 -32 -38 -26 -75 19 -98 53 -67 101 18 26 50 31 91
12z"/>
<path d="M2230 4720 c0 -13 7 -20 20 -20 13 0 20 7 20 20 0 13 -7 20 -20 20
-13 0 -20 -7 -20 -20z"/>
<path d="M650 4685 c-18 -22 -1 -50 31 -50 20 0 24 5 24 30 0 23 -5 31 -21 33
-11 2 -27 -4 -34 -13z"/>
<path d="M2114 4685 c-8 -20 2 -32 31 -38 20 -3 25 -1 21 10 -3 8 -6 21 -6 29
0 18 -39 18 -46 -1z"/>
<path d="M1972 4628 c4 -30 43 -33 43 -3 0 13 -8 21 -23 23 -20 3 -23 0 -20
-20z"/>
<path d="M792 4613 c4 -32 17 -38 43 -19 16 12 17 16 6 30 -7 9 -22 16 -33 16
-15 0 -19 -6 -16 -27z"/>
<path d="M1791 4607 c-17 -21 -3 -49 23 -45 15 2 21 10 21 28 0 28 -26 38 -44
17z"/>
<path d="M941 4596 c-17 -20 -2 -46 25 -46 29 0 41 24 24 45 -16 19 -34 19
-49 1z"/>
<path d="M1115 4576 c-14 -10 -15 -16 -6 -34 13 -25 31 -28 49 -10 29 29 -9
69 -43 44z"/>
<path d="M1254 4555 c-4 -9 -2 -21 4 -27 16 -16 47 -5 47 17 0 26 -42 34 -51
10z"/>
<path d="M1424 4555 c-9 -23 3 -45 26 -45 25 0 37 25 20 45 -16 19 -39 19 -46
0z"/>
<path d="M746 4348 c-20 -33 -29 -84 -17 -105 9 -16 11 -15 20 10 6 16 11 39
11 51 0 40 25 52 65 33 37 -18 46 -48 25 -87 -6 -10 -11 -31 -12 -45 -2 -23
-6 -26 -28 -20 -14 4 -43 9 -65 11 l-40 5 30 -19 c17 -11 48 -23 70 -27 l41
-6 33 81 c18 44 31 87 28 94 -8 20 -71 46 -111 46 -26 0 -39 -6 -50 -22z"/>
<path d="M768 4063 c-20 -5 -19 21 -23 -458 -2 -196 0 -304 7 -312 11 -14 68
-18 68 -5 0 4 -10 12 -22 17 -23 10 -23 12 -26 240 -1 127 1 293 5 370 l8 140
21 -21 c21 -21 21 -26 17 -370 -3 -289 -2 -346 9 -329 10 15 14 105 16 378 l3
357 -33 -1 c-18 -1 -41 -3 -50 -6z"/>
<path d="M2017 2359 c5 -5 25 -18 44 -27 57 -28 44 -37 -95 -68 -22 -5 -41
-14 -43 -20 -3 -8 18 -8 74 1 86 14 127 28 138 45 9 15 -23 50 -62 66 -40 17
-72 19 -56 3z"/>
<path d="M3328 2413 c-33 -8 -18 -23 22 -23 33 0 42 -4 52 -25 l11 -25 24 26
c25 27 25 27 118 8 27 -6 29 -5 15 10 -26 27 -179 46 -242 29z"/>
<path d="M2642 2288 c5 -15 37 -18 41 -3 1 6 -9 12 -22 13 -16 3 -22 -1 -19
-10z"/>
<path d="M2710 2252 c0 -5 7 -15 15 -22 8 -7 15 -8 15 -2 0 5 -7 15 -15 22 -8
7 -15 8 -15 2z"/>
<path d="M4055 2136 l-30 -13 53 -5 c32 -3 65 -14 83 -27 31 -23 35 -21 19 10
-11 20 -60 49 -82 49 -7 -1 -26 -7 -43 -14z"/>
<path d="M8403 7645 c-137 -37 -271 -150 -336 -285 -57 -117 -72 -186 -71
-330 1 -107 4 -137 27 -205 33 -99 83 -185 148 -251 l50 -51 -63 -6 c-160 -15
-237 -81 -225 -194 7 -68 50 -147 106 -192 89 -73 85 -62 78 -177 -3 -57 -14
-132 -23 -166 -23 -80 -59 -117 -273 -273 -110 -81 -180 -139 -213 -180 -60
-73 -122 -197 -143 -285 -14 -62 -30 -250 -39 -480 -3 -96 -5 -105 -22 -102
-11 2 -55 7 -99 11 -62 6 -93 15 -139 39 -32 18 -68 32 -80 32 -68 0 -138 -42
-181 -109 -13 -22 -31 -37 -44 -38 -69 -5 -161 -76 -161 -123 0 -10 -20 -42
-45 -70 -26 -29 -49 -68 -56 -92 -18 -69 -6 -166 30 -243 17 -37 31 -68 31
-69 0 0 -16 -2 -36 -4 -24 -1 -50 7 -80 24 -37 22 -54 26 -98 22 -32 -3 -65
-13 -83 -26 l-30 -21 -23 25 c-30 31 -88 49 -134 40 -39 -8 -92 -47 -101 -76
-3 -10 -19 -21 -35 -25 -63 -14 -119 -90 -120 -162 0 -24 -5 -33 -16 -33 -44
0 -83 -33 -117 -98 -26 -48 -44 -71 -67 -81 -39 -17 -58 -46 -66 -102 -8 -60
9 -119 51 -174 l35 -46 -25 -33 c-35 -46 -55 -109 -55 -175 0 -69 24 -118 71
-143 43 -23 92 -23 170 2 35 10 64 18 65 17 2 -1 -2 -20 -8 -42 -22 -81 13
-155 81 -176 31 -9 52 -8 127 11 49 12 94 25 101 27 9 4 11 -13 6 -64 -7 -84
11 -127 62 -149 48 -20 72 -18 135 12 30 15 84 34 119 43 l64 17 47 -46 c27
-26 62 -53 79 -60 27 -11 31 -17 31 -50 0 -48 17 -97 47 -137 30 -41 48 -51
115 -63 29 -6 65 -15 80 -21 26 -11 27 -12 13 -40 -8 -15 -15 -32 -15 -37 0
-14 151 -99 216 -121 92 -30 205 -37 296 -17 80 18 173 59 228 100 l35 27 39
-43 c95 -106 97 -107 180 -134 120 -38 195 -54 254 -54 28 0 52 -2 52 -5 0 -3
-11 -32 -25 -65 -79 -188 41 -306 202 -197 29 19 83 45 120 57 169 55 304 143
382 248 25 32 42 48 47 41 4 -6 8 -72 9 -145 1 -133 1 -134 30 -164 54 -56
128 -47 196 23 78 80 171 287 185 410 l7 59 30 -6 c16 -3 35 -6 41 -6 6 0 17
-30 24 -67 7 -38 17 -72 22 -77 9 -9 93 16 152 45 28 15 77 64 94 97 0 1 17
-5 37 -13 71 -29 153 -45 282 -55 139 -10 204 -27 305 -81 102 -54 177 -38
209 46 18 47 5 121 -45 244 -19 47 -34 85 -34 86 0 0 33 1 73 0 54 0 80 5 104
19 l31 19 41 -32 c23 -18 65 -44 94 -58 65 -32 163 -35 252 -9 71 21 141 18
266 -14 95 -25 146 -27 180 -10 43 22 59 51 59 108 0 49 -3 56 -45 101 -35 37
-75 110 -75 137 0 2 30 3 68 3 128 -1 167 29 329 256 46 65 123 321 123 409 0
89 -42 146 -140 190 -32 14 -76 46 -105 76 -50 52 -97 82 -147 94 -19 4 -28
13 -28 26 0 31 -30 113 -54 145 -12 17 -23 46 -25 66 -2 34 1 39 64 83 79 57
165 140 194 187 25 41 28 115 5 147 -31 45 -69 55 -183 49 -82 -5 -125 -2
-191 12 -79 17 -85 20 -83 42 9 115 4 198 -16 250 -26 68 -78 130 -137 165
-26 15 -43 32 -40 39 2 7 -6 34 -19 61 -14 27 -25 59 -25 70 0 12 -7 38 -15
58 -15 35 -14 38 9 69 74 99 76 239 6 446 -25 71 -41 102 -71 132 -66 66 -179
85 -262 42 -16 -8 -30 -13 -31 -11 -1 2 -12 19 -24 38 -47 80 -120 122 -208
122 -27 0 -64 -7 -81 -15 -30 -16 -31 -16 -37 9 -9 33 -6 255 4 354 5 48 16
89 29 112 17 29 22 51 20 105 -2 89 -1 118 7 179 4 40 1 60 -14 91 l-20 39 24
84 c44 152 31 318 -36 450 -35 69 -125 183 -209 265 -34 33 -78 86 -97 118
-42 68 -80 91 -136 84 -31 -4 -54 -19 -106 -69 -64 -61 -94 -82 -226 -159
-122 -71 -210 -198 -242 -350 -22 -103 -14 -265 19 -379 17 -57 22 -90 16
-101 -11 -22 -19 -104 -23 -242 l-3 -108 45 -50 44 -49 -7 -133 c-10 -215 -53
-416 -111 -529 l-19 -37 -55 45 c-29 25 -124 92 -210 149 -85 57 -165 112
-176 123 -63 55 -102 223 -74 322 5 20 33 62 61 95 76 90 101 146 107 235 3
66 1 79 -20 109 -33 50 -80 74 -144 75 -30 1 -54 3 -54 4 0 2 18 24 40 50 55
62 115 185 136 278 35 158 3 374 -75 509 -67 117 -190 218 -310 255 -74 24
-181 25 -258 5z m241 -162 c56 -19 139 -85 176 -138 103 -150 125 -336 60
-508 -35 -92 -72 -134 -194 -220 -24 -17 -25 -20 -12 -45 7 -15 16 -55 19 -89
4 -34 15 -84 26 -112 10 -28 16 -53 12 -56 -5 -2 -41 -10 -82 -16 -73 -11
-309 -7 -356 7 -21 6 -21 8 17 55 21 27 48 74 59 104 22 57 28 145 12 145 -26
0 -131 115 -164 178 -84 159 -88 328 -12 488 89 186 264 268 439 207z m1537
-200 c67 -71 135 -148 151 -173 89 -140 90 -364 2 -516 -25 -43 -38 -49 -159
-75 -34 -8 -125 -14 -210 -14 -136 0 -155 2 -200 23 -71 33 -93 57 -116 131
-66 214 -32 426 85 528 24 21 90 66 147 100 57 34 118 75 134 92 17 16 33 30
37 30 3 1 61 -56 129 -126z m197 -775 c75 -75 -224 -165 -462 -139 -103 12
-221 44 -248 69 -21 18 -24 60 -5 68 8 3 54 -7 103 -21 166 -49 363 -43 525
14 66 24 72 24 87 9z m-2108 -130 c0 -18 -41 -58 -60 -58 -26 0 -110 31 -110
40 0 5 26 11 58 15 31 4 62 8 67 10 22 8 45 4 45 -7z m658 1 c-6 -17 -87 -48
-126 -48 -34 -1 -49 16 -38 44 4 12 24 15 87 15 56 0 80 -3 77 -11z m803 -23
c201 -51 385 -53 558 -6 76 21 100 19 66 -6 -42 -31 -121 -46 -270 -51 -219
-8 -397 19 -440 67 -10 11 -16 20 -14 20 3 0 48 -11 100 -24z m-1340 -106
c151 -14 319 2 477 47 30 8 56 12 60 9 14 -15 -37 -82 -100 -132 -65 -53 -66
-54 -53 -81 9 -20 11 -53 8 -111 l-6 -83 -48 -25 c-139 -70 -317 -69 -430 2
l-42 26 6 124 6 124 -57 42 c-72 52 -112 89 -112 103 0 7 31 3 91 -12 50 -13
140 -27 200 -33z m1389 3 c116 -25 367 -22 495 5 54 12 101 19 103 17 9 -9
-66 -45 -118 -57 -78 -18 -445 -17 -527 1 -35 7 -68 20 -74 27 -15 19 -1 37
25 30 11 -4 55 -14 96 -23z m543 -155 c-13 -136 -8 -355 10 -449 40 -204 94
-310 285 -562 77 -100 153 -209 170 -242 82 -163 137 -311 168 -455 21 -96 26
-386 10 -590 -8 -112 -8 -117 19 -185 15 -38 40 -92 55 -120 15 -27 35 -72 44
-100 24 -73 39 -90 33 -37 -3 23 -28 91 -56 150 -85 182 -88 245 -13 318 39
38 31 37 137 19 26 -5 34 -1 55 30 14 19 35 38 47 41 29 8 110 -36 159 -87 37
-38 39 -43 42 -112 3 -64 -2 -86 -41 -199 -25 -70 -40 -125 -35 -122 5 4 29
48 53 100 24 52 46 94 50 94 3 0 14 -15 25 -32 28 -46 26 -112 -5 -175 -27
-54 -153 -183 -179 -183 -8 0 -31 14 -51 31 -32 29 -35 36 -35 88 l-1 56 -23
-55 c-14 -30 -32 -59 -42 -65 -9 -5 -39 -24 -66 -42 l-48 -32 -55 25 c-49 21
-54 26 -45 43 16 30 12 97 -9 170 -11 36 -23 86 -26 110 -5 30 -17 55 -38 75
-27 27 -28 31 -12 41 46 28 48 30 32 44 -13 10 -21 7 -49 -18 -19 -16 -51 -32
-71 -36 -74 -14 -142 -76 -188 -172 -11 -24 -24 -43 -29 -43 -5 0 -11 18 -15
39 -4 22 -13 45 -21 52 -8 6 -14 17 -14 23 0 6 -23 33 -50 60 l-50 49 0 66 c0
186 -73 303 -281 451 -111 80 -148 118 -189 200 -17 33 -34 60 -39 60 -5 0
-19 -21 -31 -47 -30 -64 -117 -152 -220 -223 -136 -93 -202 -178 -235 -307
-22 -83 -19 -151 8 -203 31 -62 52 -66 41 -9 -15 73 -10 180 10 235 29 78 78
138 174 212 48 36 126 105 173 153 l86 86 17 -27 c32 -55 111 -132 195 -192
97 -69 123 -94 170 -162 44 -64 71 -144 71 -211 0 -61 -17 -103 -60 -150 -15
-16 -44 -58 -64 -92 -20 -35 -41 -65 -46 -68 -25 -15 -67 39 -84 107 -15 63
40 174 82 166 26 -5 27 -39 1 -59 -20 -15 -21 -19 -10 -33 26 -32 70 -11 85
41 8 25 -17 90 -42 109 -67 51 -172 -68 -172 -193 1 -81 28 -137 100 -203 43
-40 60 -63 62 -85 3 -25 0 -29 -17 -27 -94 15 -121 14 -145 -6 -20 -17 -25
-30 -27 -74 -1 -29 -4 -73 -8 -98 -5 -34 -2 -58 14 -98 12 -31 21 -75 21 -107
0 -61 12 -100 41 -131 l20 -21 -99 -6 c-54 -4 -120 -10 -146 -13 l-48 -7 6 40
c7 38 5 43 -45 97 -85 93 -154 133 -270 156 -48 9 -66 20 -136 83 -244 217
-386 452 -440 726 -20 105 -23 347 -5 476 31 217 162 495 233 495 9 0 20 9 24
20 12 38 121 137 188 170 161 79 342 9 428 -166 29 -59 31 -69 27 -146 -3 -58
-12 -97 -27 -130 -89 -185 -299 -247 -417 -123 -101 105 -72 302 58 390 52 36
92 40 141 16 50 -25 72 -54 89 -114 10 -38 9 -52 -6 -92 -21 -54 -72 -109
-111 -119 -41 -10 -75 16 -75 59 0 38 17 54 84 75 37 12 38 14 21 26 -55 41
-142 -7 -152 -83 -16 -119 89 -183 185 -113 136 98 146 311 19 399 -90 62
-169 50 -258 -38 -125 -125 -139 -322 -33 -440 53 -59 108 -83 189 -84 143 -1
223 58 315 232 47 89 62 88 111 -8 71 -140 173 -214 297 -214 183 -1 300 141
270 329 -28 180 -183 309 -312 260 -97 -37 -159 -154 -137 -258 33 -152 178
-245 263 -169 30 27 33 34 33 90 0 52 -4 63 -29 90 -22 22 -39 31 -63 31 -41
0 -42 -14 -3 -30 35 -15 60 -45 60 -74 0 -23 -37 -66 -57 -66 -27 0 -90 39
-123 76 -30 35 -32 41 -28 100 3 52 9 70 35 101 62 77 143 79 224 6 63 -57 92
-124 93 -209 1 -62 -3 -77 -29 -120 -44 -70 -99 -99 -190 -99 -59 0 -79 5
-124 30 -57 32 -105 83 -142 155 -19 37 -24 61 -24 130 0 76 3 92 33 152 61
124 163 191 292 192 98 0 164 -31 265 -125 41 -38 80 -69 85 -69 18 0 -66 115
-117 160 -77 69 -143 95 -238 95 -71 0 -89 -4 -147 -33 -124 -61 -228 -217
-236 -354 -2 -38 -8 -68 -12 -68 -4 0 -10 32 -12 70 -11 145 -123 300 -255
350 -123 48 -273 22 -347 -60 -18 -20 -39 -41 -46 -45 -22 -14 10 37 50 80 21
22 79 94 130 160 190 248 255 450 267 833 l6 183 61 -8 c94 -12 372 -6 451 10
39 8 73 15 78 16 4 0 4 -36 0 -81z m-1900 -294 c48 -11 93 -13 136 -9 66 7
176 39 199 58 8 6 16 6 21 1 11 -12 41 -136 41 -167 0 -78 -225 -153 -385
-127 -77 12 -163 43 -199 71 -21 16 -23 24 -16 47 5 15 16 61 25 104 l17 76
44 -20 c25 -10 77 -26 117 -34z m432 -181 c-11 -47 -54 -82 -130 -106 -104
-33 -310 -32 -413 2 -69 23 -132 66 -132 90 0 7 14 4 38 -7 99 -51 270 -88
351 -77 81 11 153 36 207 70 28 18 55 38 58 44 14 22 28 11 21 -16z m115 -80
c114 -87 124 -94 194 -130 87 -47 172 -124 181 -164 12 -52 -7 -54 -73 -10
-32 23 -75 44 -93 47 -42 8 -39 5 36 -39 82 -49 143 -112 129 -135 -6 -9 -57
-41 -115 -69 -155 -79 -332 -120 -556 -130 -110 -5 -133 -4 -133 8 1 36 50
121 139 238 25 33 25 34 3 22 -32 -17 -93 -98 -126 -169 -16 -34 -33 -62 -36
-62 -4 0 -22 27 -40 61 -33 62 -89 134 -98 125 -2 -3 16 -36 42 -74 26 -38 53
-86 61 -108 l13 -39 -46 -3 c-44 -3 -209 12 -275 25 -26 5 -28 9 -23 35 7 35
31 72 104 156 30 34 49 62 43 62 -24 0 -118 -107 -151 -172 -19 -38 -38 -68
-42 -68 -9 0 -26 85 -37 190 -9 80 -10 78 -6 -48 l4 -132 -27 6 c-100 22 -262
86 -262 104 0 6 44 56 98 112 104 108 90 116 -19 11 -66 -63 -67 -64 -73 -38
-4 14 -4 55 0 90 l7 65 88 66 c73 54 94 65 115 60 21 -6 34 2 80 48 72 72 98
77 168 34 l54 -34 -35 -59 c-39 -66 -75 -161 -70 -185 1 -8 13 11 25 43 28 73
65 146 88 175 l19 22 87 -16 87 -16 7 -35 c4 -19 4 -91 2 -160 -4 -90 -2 -121
6 -113 7 7 11 65 11 159 l0 148 96 15 c108 17 190 51 234 96 17 17 35 32 41
32 7 0 40 -21 74 -47z m1682 8 c40 -35 66 -103 79 -202 5 -40 12 -75 15 -78 4
-3 23 14 43 39 95 118 149 152 206 130 32 -12 46 -45 81 -183 28 -115 27 -150
-6 -205 -31 -50 -78 -66 -196 -66 -110 -1 -134 8 -134 51 0 48 27 82 75 94 68
17 69 33 3 25 -52 -7 -56 -6 -61 16 -10 36 -65 97 -109 119 -35 18 -44 19 -65
8 -35 -19 -52 -5 -99 87 -58 110 -61 124 -32 124 13 0 48 16 78 35 30 19 62
35 72 35 9 0 32 -13 50 -29z m-2886 -348 c-11 -122 -23 -135 -80 -90 l-29 23
18 35 c19 38 74 99 88 99 6 0 7 -27 3 -67z m2910 24 c47 -43 48 -45 52 -110 2
-37 0 -67 -4 -67 -8 1 -127 151 -148 187 -5 10 -4 18 5 24 26 16 47 9 95 -34z
m-1274 -22 c8 -18 8 -29 1 -36 -17 -17 -33 -1 -33 32 0 36 16 38 32 4z m-1694
-148 c199 -116 462 -182 777 -194 228 -8 424 17 658 86 l99 29 -24 -26 c-57
-65 -121 -96 -268 -134 -333 -84 -837 -25 -1164 138 -138 70 -175 101 -149
127 9 10 10 10 71 -26z m-57 -131 c10 -35 16 -182 18 -495 1 -46 5 -71 10 -65
5 5 11 110 13 234 3 198 5 229 21 254 25 37 44 42 84 21 56 -30 63 -55 63
-222 0 -159 16 -378 29 -401 5 -8 11 89 14 214 3 126 11 246 17 267 22 74 97
86 163 27 l32 -28 5 -276 c4 -200 8 -278 18 -288 9 -9 12 32 13 207 0 121 4
241 8 268 10 63 43 97 91 97 77 0 84 -31 101 -425 10 -256 17 -310 35 -292 7
7 6 190 -2 383 -7 152 1 199 40 243 40 45 121 64 180 41 51 -19 59 -54 67
-315 4 -132 14 -271 21 -310 l12 -70 6 45 c3 25 4 164 2 310 -4 233 -3 269 12
297 9 18 25 37 35 43 31 16 79 12 90 -8 5 -9 11 -127 13 -262 2 -160 7 -252
14 -264 15 -25 25 144 21 339 -2 111 1 135 17 165 34 65 89 110 135 110 36 0
33 -34 -14 -135 -115 -245 -127 -315 -130 -738 -2 -326 3 -410 15 -249 l5 77
27 -85 c15 -47 48 -124 72 -172 25 -49 42 -88 38 -88 -4 0 -31 9 -60 20 -102
39 -156 21 -168 -56 l-7 -46 -54 6 c-64 7 -105 -10 -128 -54 -12 -24 -13 -37
-3 -80 11 -50 11 -51 -19 -83 -17 -17 -45 -56 -63 -85 -38 -63 -103 -115 -171
-137 -63 -21 -80 -16 -48 14 l24 24 -22 -6 c-13 -3 -23 -2 -23 3 0 12 71 94
106 124 37 30 125 76 147 76 24 0 30 18 8 25 -11 3 -42 -4 -71 -16 -28 -12
-53 -19 -57 -16 -3 4 4 33 16 65 11 33 21 76 21 97 l0 37 -37 -7 c-49 -9 -130
-53 -154 -83 l-18 -24 -31 66 c-34 71 -86 124 -103 107 -6 -6 -14 -32 -17 -59
-6 -54 -20 -56 -37 -5 -18 51 -31 63 -66 63 -40 0 -93 -57 -169 -181 -31 -52
-71 -112 -87 -135 -28 -37 -66 -114 -57 -114 2 0 40 47 86 105 45 58 85 105
90 105 4 0 29 -44 56 -97 27 -54 50 -100 51 -103 2 -3 -27 -5 -65 -6 -72 0
-139 -24 -197 -69 l-32 -24 -38 46 -39 46 3 191 c3 205 8 231 57 263 24 15 30
15 97 0 68 -16 187 -20 187 -6 0 17 -32 27 -100 33 -41 3 -97 9 -123 12 -48 6
-49 5 -94 -41 -42 -44 -46 -46 -61 -31 -32 32 -18 1547 15 1632 9 23 31 -1 44
-50z m3302 10 c42 -17 83 -66 98 -117 12 -37 10 -45 -31 -137 -24 -53 -46
-100 -50 -105 -3 -4 -26 41 -49 100 -24 60 -61 143 -82 187 -22 43 -39 80 -39
82 0 10 125 2 153 -10z m131 -304 c-6 -9 -16 -18 -22 -20 -21 -7 -25 27 -6 55
l17 27 11 -23 c6 -15 7 -28 0 -39z m91 -83 c49 -25 95 -62 95 -75 0 -2 -34
-22 -76 -45 -43 -24 -97 -58 -121 -76 -25 -19 -46 -33 -48 -31 -3 4 -33 135
-38 170 -5 36 12 59 54 74 52 19 70 17 134 -17z m123 -195 c2 -46 -4 -98 -18
-154 l-21 -85 -57 -27 c-31 -15 -83 -50 -114 -78 l-58 -52 0 156 0 155 31 36
c19 21 62 49 108 70 42 20 83 40 91 45 28 16 35 4 38 -66z m-4147 24 c45 -29
63 -33 131 -37 66 -3 81 -6 93 -24 22 -31 19 -79 -16 -216 -45 -182 -34 -221
15 -53 21 72 41 132 45 132 3 0 29 -13 57 -29 l51 -30 5 -93 c9 -150 4 -164
-77 -225 -52 -40 -72 -50 -82 -41 -21 17 -15 40 22 95 19 29 35 55 35 59 0 14
-32 -22 -56 -62 l-25 -43 -49 35 c-52 37 -50 32 -71 182 -6 45 -13 82 -16 82
-2 0 -1 -52 3 -115 5 -90 4 -115 -6 -115 -7 0 -39 -12 -70 -26 l-58 -26 -46
27 -47 27 12 -25 c7 -14 25 -31 41 -36 30 -11 55 -55 65 -118 3 -18 10 -36 16
-40 10 -6 5 55 -9 103 -10 37 34 76 92 81 46 5 54 2 86 -26 42 -37 61 -77 56
-121 -4 -43 -38 -68 -107 -77 -56 -8 -74 -25 -33 -31 23 -4 34 -20 48 -77 7
-26 9 -23 14 30 4 44 9 61 21 63 20 4 68 -118 76 -195 5 -49 4 -52 -25 -67
-21 -11 -57 -16 -112 -16 -92 0 -111 -12 -129 -77 -17 -60 -13 -94 24 -208 6
-19 2 -20 -84 -17 -74 3 -98 0 -139 -18 -81 -35 -96 -58 -102 -153 -5 -73 -10
-88 -42 -134 -20 -29 -39 -66 -43 -83 -9 -42 -57 -74 -145 -98 -41 -11 -90
-24 -107 -30 -29 -9 -33 -8 -33 7 0 50 50 140 90 161 27 14 70 -4 70 -30 0
-11 3 -20 6 -20 15 0 104 35 104 42 0 18 -213 68 -292 68 -16 0 -28 2 -28 5 0
3 10 26 22 52 36 76 129 168 214 210 67 32 84 37 174 41 97 5 100 5 84 23 -13
15 -31 19 -79 19 -45 0 -74 6 -111 25 -66 33 -101 69 -86 88 19 22 110 68 166
83 58 16 202 18 261 4 22 -5 41 -7 43 -5 12 11 -59 39 -123 48 -41 6 -75 14
-75 18 0 14 92 91 125 105 52 22 117 17 182 -12 32 -14 74 -33 93 -41 l35 -15
-28 30 c-16 17 -56 42 -88 57 -32 14 -59 28 -59 29 0 2 9 25 21 51 15 33 18
50 10 58 -10 10 -13 7 -45 -75 -10 -25 -21 -38 -34 -38 -47 0 -126 -34 -179
-77 -54 -44 -57 -45 -82 -30 -18 10 -31 33 -44 73 -10 33 -27 77 -38 99 -10
22 -19 45 -19 52 0 20 78 79 121 92 22 7 72 15 110 18 84 7 80 18 -25 67 -89
41 -159 114 -181 189 -21 70 -19 81 14 119 16 19 42 61 58 93 25 52 32 60 60
63 39 4 52 -13 130 -178 33 -69 67 -131 76 -139 26 -21 21 1 -18 76 -75 146
-87 310 -28 375 24 26 55 22 114 -14z m4334 -323 c33 -8 97 -15 142 -15 46 0
83 -4 83 -8 0 -19 -186 -182 -208 -182 -6 0 -48 22 -94 50 -46 27 -94 50 -107
50 -16 0 -39 -15 -66 -44 -38 -41 -42 -43 -60 -29 -15 11 -37 13 -82 10 -35
-3 -63 -1 -63 3 0 4 21 31 46 59 107 119 234 152 409 106z m-3954 -646 c-3 -4
-33 -10 -66 -14 l-60 -6 -24 88 c-13 48 -24 104 -25 123 l-1 35 58 -1 c31 -1
57 0 57 3 0 2 -20 12 -45 23 -25 11 -45 23 -45 28 0 21 44 62 93 86 l52 27 6
-193 c3 -106 3 -196 0 -199z m-1265 236 c35 -75 47 -171 39 -318 -4 -70 -12
-130 -18 -134 -23 -14 -45 36 -51 119 -9 111 -24 185 -47 229 -14 28 -16 44
-9 70 5 19 14 54 20 79 11 42 13 44 27 25 8 -11 26 -42 39 -70z m233 38 c41
-51 59 -162 53 -313 -2 -45 -5 -52 -13 -36 -9 14 -13 15 -19 5 -12 -19 -36 4
-50 49 -7 20 -21 56 -32 79 -28 60 -36 184 -14 218 21 32 49 32 75 -2z m101
-35 c0 -7 -5 -20 -10 -28 -9 -13 -11 -13 -20 0 -16 24 -12 40 10 40 11 0 20
-6 20 -12z m-476 -55 c39 -46 67 -118 73 -184 3 -33 3 -59 0 -59 -3 0 -17 20
-31 44 -14 25 -40 55 -56 68 -25 19 -32 36 -41 86 -18 99 -1 113 55 45z m4336
-40 c44 -37 78 -93 95 -160 19 -72 19 -116 0 -179 -13 -46 -17 -50 -65 -67
-52 -19 -70 -42 -70 -91 0 -12 -6 -30 -12 -39 -12 -14 -18 -14 -71 9 -85 36
-101 25 -24 -16 l66 -35 -102 -12 c-108 -12 -160 -9 -177 12 -7 9 -8 49 -4
120 7 101 8 107 31 116 47 17 112 -10 185 -78 26 -25 48 -39 48 -32 -1 8 -14
48 -31 89 -42 103 -49 193 -20 253 22 46 96 137 111 137 5 0 23 -12 40 -27z
m434 2 c21 -19 26 -33 26 -70 0 -25 7 -59 15 -76 21 -39 21 -125 0 -173 -32
-74 -194 -216 -248 -216 -10 0 -22 19 -32 49 -14 44 -15 53 -1 79 8 15 22 35
31 42 19 16 49 70 42 76 -3 3 -28 -25 -57 -61 -58 -73 -78 -82 -72 -34 35 275
110 409 228 409 30 0 48 -7 68 -25z m-4499 -5 c8 -25 -1 -56 -27 -92 -25 -36
-11 -37 17 -2 l21 27 22 -60 c24 -66 89 -137 136 -149 34 -8 33 -18 -4 -46
-37 -27 -38 -52 -4 -75 24 -15 25 -17 8 -24 -64 -25 -162 10 -189 68 -17 36
-14 116 5 128 4 3 18 -11 30 -30 24 -40 66 -75 87 -75 11 0 6 10 -13 33 -16
19 -44 55 -62 81 -32 46 -33 47 -57 32 -23 -15 -23 -15 -30 23 -7 40 1 119 16
159 11 27 35 29 44 2z m349 -105 c10 -24 33 -58 51 -74 39 -34 45 -29 -73 -57
-40 -9 -75 -14 -78 -11 -3 3 10 22 30 42 20 19 36 39 36 43 -1 4 -23 -17 -50
-46 -28 -29 -54 -50 -60 -47 -14 9 -12 52 4 84 15 29 100 111 114 111 5 0 17
-20 26 -45z m-659 -1 c38 -15 142 -204 112 -204 -19 0 -136 126 -143 154 -6
24 0 56 10 56 2 0 12 -3 21 -6z m-131 -24 c24 -9 156 -138 156 -152 0 -15 108
-88 139 -94 27 -6 35 -3 49 17 9 13 17 43 19 66 1 24 7 51 12 61 8 13 10 -1
11 -54 0 -59 4 -78 24 -107 l25 -36 -42 -3 c-33 -2 -42 -7 -41 -20 1 -10 -2
-15 -7 -12 -5 3 -19 -5 -31 -16 -68 -64 -389 -220 -452 -220 -26 0 -27 2 -21
33 8 38 42 92 92 147 37 42 63 50 82 26 10 -11 6 -19 -16 -40 -39 -37 -22 -43
20 -7 32 29 40 31 111 31 70 0 146 19 146 36 0 3 -24 3 -53 0 -123 -16 -268
33 -338 113 -44 50 -48 66 -18 81 11 6 28 24 38 40 l17 29 40 -40 c63 -65 158
-137 216 -164 61 -27 129 -36 135 -17 3 7 -4 12 -15 12 -62 0 -201 82 -290
172 -53 53 -69 85 -58 113 6 17 15 19 50 5z m3031 -67 c67 -22 134 -91 160
-163 22 -62 26 -234 6 -283 -11 -28 -15 -31 -63 -41 -14 -3 -53 -29 -87 -57
l-61 -50 -32 24 c-18 13 -73 46 -122 73 -110 60 -176 117 -176 149 0 16 13 34
36 51 l36 28 -7 71 c-9 95 4 108 102 104 79 -4 93 2 93 39 1 76 23 87 115 55z
m-1432 -11 c39 -43 50 -94 55 -249 l4 -151 -48 -21 c-26 -12 -51 -18 -55 -14
-3 5 -14 43 -23 86 -10 42 -22 77 -27 77 -13 0 -11 -18 7 -104 19 -85 17 -95
-24 -125 l-30 -21 -26 40 c-16 25 -60 62 -120 101 -83 54 -97 68 -115 110 -25
57 -29 174 -7 204 12 16 27 19 92 20 68 0 88 4 144 32 77 37 147 43 173 15z
m4137 11 c38 -7 129 -89 114 -101 -5 -5 -38 -19 -74 -32 -66 -23 -133 -60
-145 -80 -4 -6 10 -4 32 5 57 24 192 55 241 55 52 0 107 -22 121 -48 13 -24
-5 -110 -50 -247 -27 -83 -41 -109 -80 -150 -25 -27 -56 -69 -68 -92 -11 -23
-29 -44 -38 -46 -10 -3 -60 -5 -111 -5 -89 0 -95 1 -126 29 -19 16 -53 65 -76
110 -46 89 -89 143 -131 165 -50 25 -52 15 -7 -36 74 -87 98 -122 109 -163 13
-51 -5 -72 -69 -82 -26 -4 -64 -16 -85 -27 -23 -11 -53 -18 -75 -16 -30 2 -43
11 -74 53 -23 30 -36 56 -32 65 4 8 9 41 12 72 3 46 0 64 -17 93 -12 20 -19
41 -16 46 3 5 26 21 51 35 40 23 62 28 166 35 82 5 124 11 130 21 5 7 6 47 3
89 l-6 76 75 70 c73 68 143 113 177 113 9 0 31 -3 49 -7z m-3626 -78 c6 -16
20 -43 31 -60 19 -28 28 -115 13 -130 -3 -3 -28 9 -55 29 -27 19 -70 41 -96
48 -26 6 -47 15 -47 19 0 10 62 92 84 111 30 25 57 18 70 -17z m133 -8 c35
-51 45 -88 43 -152 -1 -33 -2 -89 -2 -125 1 -59 -1 -63 -14 -46 -8 11 -14 37
-14 57 0 21 -4 40 -9 44 -6 3 -8 -22 -4 -65 3 -38 3 -70 0 -70 -14 0 -37 75
-45 143 -5 40 -5 106 -1 147 4 41 8 81 8 88 1 21 15 13 38 -21z m263 -35 c0
-46 -104 -248 -145 -282 -13 -10 -15 -9 -15 9 0 11 -5 21 -11 21 -6 0 -8 -7
-5 -15 3 -8 9 -22 12 -30 4 -11 0 -15 -16 -15 -22 0 -22 3 -16 60 8 66 35 154
61 194 9 14 31 34 48 45 32 21 87 28 87 13z m2818 -19 c9 -10 30 -26 46 -36
30 -20 56 -71 56 -112 0 -36 -49 -55 -143 -55 -102 0 -127 19 -127 96 0 53 1
55 48 89 52 38 93 44 120 18z m-265 -34 c32 -16 67 -51 67 -65 0 -6 -16 -15
-35 -18 -47 -9 -55 -26 -12 -26 41 0 60 -19 55 -56 -2 -19 -13 -34 -36 -47
l-32 -19 -82 41 c-45 23 -89 41 -99 41 -12 0 8 26 59 80 42 44 81 80 85 80 5
0 18 -5 30 -11z m-1734 -62 l62 -64 -28 -11 c-46 -17 -96 -32 -99 -30 -5 6 -9
168 -4 168 3 0 34 -29 69 -63z m-1195 -78 c20 -24 36 -47 36 -53 0 -5 8 -18
17 -29 12 -12 18 -38 20 -73 2 -52 1 -55 -30 -68 l-32 -14 32 -1 c34 -1 73
-39 73 -72 0 -27 17 -32 25 -6 6 19 8 20 12 4 11 -41 -73 -297 -98 -297 -4 0
-11 29 -14 65 -6 56 -4 76 18 138 14 40 28 86 31 102 6 28 5 29 -9 11 -8 -11
-15 -27 -15 -36 0 -26 -103 -118 -162 -145 -29 -13 -54 -22 -56 -20 -2 2 -1
12 3 23 9 32 64 80 133 119 35 19 61 40 59 46 -2 7 -36 17 -76 24 -40 6 -91
21 -115 32 -44 22 -104 77 -94 87 3 3 30 8 59 11 53 5 84 -2 170 -40 20 -9 41
-12 48 -8 10 6 -4 26 -49 71 -60 60 -120 162 -120 203 0 16 5 15 49 -7 27 -14
65 -44 85 -67z m2515 70 c100 -93 41 -305 -71 -258 -41 17 -65 52 -78 116 -14
67 -2 124 33 148 32 22 89 19 116 -6z m-1204 -123 c19 -8 35 -19 35 -23 0 -4
-25 -21 -55 -37 -30 -15 -71 -46 -91 -68 -26 -29 -39 -37 -47 -29 -7 7 -7 18
1 36 13 29 6 32 -26 9 -21 -15 -22 -14 -22 19 0 83 110 132 205 93z m-2244
-16 c75 -23 142 -63 198 -119 l39 -39 1 -94 1 -93 -60 -63 c-52 -54 -74 -92
-54 -92 3 0 36 31 72 68 69 71 93 82 171 82 20 0 51 9 69 20 l32 20 12 -45 c7
-25 16 -45 20 -45 4 0 6 28 5 63 -2 51 3 72 26 117 33 64 64 100 86 100 9 0
50 -25 91 -55 41 -30 94 -60 117 -67 34 -10 40 -15 31 -26 -21 -24 -66 -42
-109 -42 -34 0 -47 6 -76 35 -33 33 -63 46 -63 27 0 -5 8 -24 17 -43 40 -80
21 -210 -42 -293 -38 -50 -77 -73 -144 -86 -32 -6 -66 -21 -90 -41 -22 -17
-47 -29 -58 -27 -33 7 -20 68 41 195 31 65 56 125 56 132 0 29 -43 -24 -73
-89 -65 -143 -167 -267 -243 -296 -44 -17 -45 -16 -95 10 -31 16 -67 26 -92
26 -75 0 -95 45 -56 123 57 112 131 189 273 285 73 50 93 68 78 70 -55 8 -222
-109 -311 -218 -24 -30 -49 -53 -55 -51 -6 2 -34 9 -61 15 -107 26 -149 73
-150 167 0 45 6 64 27 95 38 56 48 87 48 156 0 54 3 63 31 89 17 16 45 33 63
38 55 16 160 12 227 -9z m3754 -13 c53 -27 95 -63 121 -103 13 -19 15 -38 9
-97 -5 -59 -3 -81 11 -109 20 -42 13 -82 -17 -99 -34 -17 -69 5 -136 85 -64
76 -142 136 -177 136 -18 0 -16 -4 14 -27 108 -84 235 -238 223 -270 -9 -23
-60 -43 -107 -43 -39 0 -50 -5 -85 -40 -22 -22 -44 -40 -49 -40 -6 0 -38 9
-73 19 -35 11 -86 22 -114 26 -27 4 -58 13 -67 22 -25 22 -41 107 -35 179 5
54 43 220 54 233 1 2 21 -1 43 -8 36 -11 43 -18 69 -75 16 -35 34 -67 41 -71
17 -10 5 27 -27 85 l-25 45 52 48 c57 52 65 53 132 11 20 -13 49 -26 65 -29
27 -6 27 -6 8 10 -11 9 -50 32 -87 51 -38 19 -68 41 -68 49 0 50 138 57 225
12z m-2319 -14 c-8 -16 -24 -41 -35 -58 -12 -16 -21 -40 -21 -52 0 -13 -3 -23
-6 -23 -14 0 -74 33 -74 40 0 5 15 18 33 29 17 12 48 37 67 56 41 42 56 45 36
8z m1852 -33 c23 -59 23 -60 4 -97 -10 -21 -28 -62 -38 -92 -22 -62 -63 -111
-93 -111 -12 0 -32 15 -48 37 -15 21 -50 60 -76 88 -56 57 -67 75 -67 107 1
56 41 75 176 84 82 6 97 10 102 26 7 30 16 21 40 -42z m-4018 1 c0 -4 -11 -23
-25 -42 -14 -19 -40 -64 -57 -101 -27 -58 -36 -68 -57 -68 -14 0 -59 -7 -98
-17 -40 -9 -76 -14 -79 -10 -20 19 78 108 213 193 86 54 103 61 103 45z m3232
-22 c24 -12 62 -37 85 -55 41 -33 89 -92 82 -99 -2 -1 -42 5 -89 16 -111 24
-224 24 -328 -1 -46 -11 -87 -20 -93 -20 -14 0 -11 26 6 40 24 20 17 33 -7 16
-28 -20 -38 -20 -38 -1 0 21 104 96 163 117 65 23 158 18 219 -13z m-1382 3
c28 -23 35 -106 10 -122 -23 -15 -51 -7 -71 20 -30 42 -34 75 -10 99 26 26 42
26 71 3z m557 -107 c87 -57 123 -88 123 -106 0 -11 -25 -8 -64 7 -10 4 -16 1
-16 -9 0 -9 14 -17 36 -20 45 -8 64 -23 64 -53 0 -18 -5 -24 -23 -24 -49 0
-118 -29 -164 -69 -61 -54 -76 -51 -86 19 -9 65 -45 147 -87 201 -52 64 -55
114 -13 161 15 17 19 16 82 -18 36 -20 103 -60 148 -89z m-1198 93 c24 -24 36
-77 27 -111 -15 -62 -94 -117 -167 -117 -57 0 -79 21 -79 77 0 36 6 50 37 84
37 41 114 88 145 89 10 0 26 -10 37 -22z m1576 -81 c51 -50 67 -105 44 -146
-39 -68 -149 -116 -206 -89 -31 14 -73 88 -73 126 0 71 81 152 153 152 33 0
46 -7 82 -43z m-784 17 c84 -25 156 -81 190 -146 l19 -38 -24 0 c-34 0 -116
33 -189 76 -33 19 -62 32 -65 29 -3 -3 4 -47 16 -98 34 -141 27 -262 -11 -203
-46 69 -88 276 -57 276 6 0 10 20 10 44 0 44 18 76 44 76 7 0 37 -7 67 -16z
m1278 -99 c29 -7 77 -25 106 -40 54 -26 135 -103 135 -129 0 -7 -13 -19 -30
-26 -39 -16 -39 -42 1 -104 42 -68 37 -96 -21 -114 -35 -10 -60 -11 -115 -2
-110 17 -184 59 -300 171 -56 54 -124 111 -150 128 l-47 30 44 11 c23 6 48 12
53 14 6 1 -7 8 -27 15 -21 7 -38 16 -38 20 0 5 26 13 58 19 31 7 66 13 77 16
49 10 205 5 254 -9z m511 -61 c0 -9 16 -32 35 -51 34 -34 38 -35 89 -30 l53 5
9 -89 c5 -49 7 -89 4 -89 -3 0 -28 16 -55 36 -95 69 -170 98 -264 101 -92 2
-101 7 -126 66 -15 37 -15 37 10 47 34 13 69 13 139 -2 50 -10 59 -9 74 5 21
21 32 22 32 1z m-1744 -21 c45 -21 74 -27 121 -27 69 0 73 -4 73 -81 0 -22 9
-55 20 -72 l20 -33 -23 -14 c-12 -7 -83 -47 -157 -87 -132 -72 -137 -74 -205
-74 -51 1 -85 7 -125 25 -44 19 -121 64 -149 87 -3 2 6 14 19 28 l23 25 -42 0
c-48 0 -81 -14 -81 -35 0 -42 174 -146 298 -177 l53 -13 -64 -70 c-63 -69 -65
-70 -113 -69 -54 0 -111 23 -106 43 1 6 5 47 7 89 l5 77 -36 -105 c-20 -58
-39 -107 -41 -110 -3 -3 -24 16 -48 43 -51 56 -79 131 -95 258 -10 73 -9 95 4
140 9 29 16 72 16 95 0 46 19 62 60 49 19 -6 19 -7 -2 -47 -20 -38 -21 -45 -9
-97 7 -31 19 -93 25 -139 7 -45 16 -85 21 -90 10 -9 -3 128 -17 186 -6 23 -9
44 -7 46 2 2 43 24 92 50 l87 48 0 -74 c0 -77 14 -143 32 -154 16 -10 42 30
89 139 22 53 44 97 48 97 3 0 16 -33 28 -73 20 -67 79 -157 103 -157 33 0 43
190 14 283 -7 22 -7 22 62 -10z m2924 -65 c12 -13 30 -40 41 -60 21 -41 91
-229 87 -234 -2 -1 -41 4 -88 12 -118 19 -180 17 -269 -7 -63 -17 -84 -19
-117 -10 -40 11 -145 77 -151 96 -1 6 15 20 37 33 25 14 48 38 61 65 28 54 26
53 47 34 18 -17 272 -111 279 -104 7 8 -123 65 -194 87 -74 22 -77 26 -45 63
13 14 25 16 77 11 51 -5 68 -3 101 14 53 29 107 28 134 0z m-2058 -15 c87 -72
243 -233 269 -278 38 -65 40 -121 5 -135 -33 -12 -66 -1 -179 60 -105 56 -145
62 -162 23 -5 -13 -13 -23 -17 -23 -12 0 -34 50 -61 140 -53 174 -86 155 -41
-23 15 -61 28 -137 28 -167 -1 -57 -24 -117 -50 -127 -21 -8 -59 21 -94 72
-28 40 -35 45 -59 40 -76 -16 -131 163 -92 303 22 78 100 132 144 100 16 -12
17 -16 3 -49 -9 -21 -11 -40 -6 -49 6 -10 10 -6 15 16 4 16 9 36 11 45 3 10
16 15 39 16 19 1 63 15 97 31 79 38 108 39 150 5z m-482 -102 c-12 -36 -20
-91 -20 -130 l0 -67 -60 -28 c-36 -17 -78 -48 -107 -80 -71 -77 -77 -86 -91
-141 -23 -88 -31 -98 -92 -113 -73 -17 -249 -10 -312 13 -27 9 -48 18 -48 19
0 1 58 61 128 133 108 110 141 137 203 168 41 21 104 57 140 81 75 49 145 83
172 84 15 0 17 5 12 28 -4 22 0 33 22 53 27 25 65 50 70 45 1 -1 -7 -30 -17
-65z m1383 1 c79 -39 147 -105 200 -193 39 -66 93 -197 104 -251 6 -28 4 -30
-13 -23 -114 49 -185 66 -327 80 -84 8 -170 20 -192 26 -60 17 -143 61 -215
115 l-65 49 90 2 c125 4 129 6 154 59 22 46 23 46 62 40 22 -4 77 -27 123 -51
95 -52 109 -55 75 -19 -36 40 -87 68 -164 94 -91 30 -122 46 -135 70 -20 37
-4 42 119 39 108 -4 121 -6 184 -37z m-2432 -169 c10 -48 18 -98 19 -111 0
-34 -93 -117 -179 -160 -74 -36 -77 -37 -190 -37 -89 1 -125 5 -155 18 l-38
18 19 22 c11 12 35 44 53 71 29 43 45 54 144 101 61 29 136 61 166 70 66 21
101 44 120 79 7 14 15 24 18 21 2 -2 13 -44 23 -92z m1987 -138 c3 -11 -49
-104 -59 -105 -7 0 -36 82 -57 167 l-18 72 65 -62 c37 -34 67 -66 69 -72z
m-2398 84 c0 -14 -80 -93 -87 -85 -7 7 65 96 78 96 5 0 9 -5 9 -11z m1950 -81
c15 -79 15 -200 0 -259 -13 -50 -79 -189 -90 -189 -4 0 -10 29 -14 65 -4 36
-15 93 -26 128 -24 76 -25 119 -4 202 14 57 19 65 45 70 16 4 37 17 47 30 9
13 20 21 23 19 4 -2 12 -32 19 -66z m-475 22 c8 -16 15 -35 15 -43 0 -22 -87
-150 -179 -265 -46 -57 -81 -105 -78 -108 12 -12 136 127 205 229 72 105 84
118 97 96 4 -5 20 -9 37 -7 62 6 62 -41 1 -134 -66 -100 -174 -199 -250 -229
-90 -36 -213 -75 -213 -69 0 4 6 23 14 42 8 19 31 90 51 159 45 155 72 215
121 269 35 39 120 90 151 90 7 0 19 -13 28 -30z m-798 -146 c24 -9 43 -20 43
-24 0 -9 -74 -40 -95 -40 -19 0 -28 35 -15 60 13 24 13 24 67 4z"/>
<path d="M8383 7395 c-35 -15 -53 -41 -53 -78 0 -19 6 -26 31 -31 51 -10 58
-8 79 27 24 39 26 83 4 91 -21 8 -24 8 -61 -9z m31 -11 c20 -8 21 -48 2 -64
-17 -13 -58 -10 -63 6 -2 6 6 23 17 37 24 30 22 29 44 21z"/>
<path d="M8300 7211 c-19 -71 -22 -127 -10 -184 6 -31 15 -57 19 -57 4 0 15
40 24 90 10 49 26 110 37 134 10 24 16 47 13 50 -4 3 -21 6 -39 6 -30 0 -34
-4 -44 -39z m54 3 c-2 -17 -14 -58 -35 -109 -5 -14 -8 -4 -8 32 -1 28 4 64 9
78 11 30 36 29 34 -1z"/>
<path d="M8455 6580 c-18 -7 -16 -10 17 -24 47 -20 60 -20 106 1 l37 16 -45 8
c-58 10 -90 10 -115 -1z"/>
<path d="M10291 6833 c-16 -131 -19 -138 -76 -208 -50 -62 -54 -71 -26 -55 37
19 85 76 110 130 21 44 26 70 26 130 0 41 -5 83 -11 93 -8 14 -13 -6 -23 -90z"/>
<path d="M8409 6107 c5 -5 32 -14 60 -20 l52 -12 2 -87 c1 -54 7 -92 15 -100
9 -10 12 8 12 89 l0 100 51 5 c27 3 55 10 61 16 8 8 -27 12 -125 14 -75 2
-132 -1 -128 -5z"/>
<path d="M8353 6024 c3 -36 13 -76 26 -100 l22 -39 -5 63 c-3 35 -15 79 -26
100 l-21 37 4 -61z"/>
<path d="M8681 6024 c-11 -31 -21 -68 -21 -82 0 -23 2 -24 14 -12 17 18 56
136 48 144 -12 13 -20 4 -41 -50z"/>
<path d="M10191 6033 c-15 -53 -13 -243 3 -334 8 -41 23 -95 35 -120 l21 -44
-6 85 c-4 47 -9 166 -13 264 -4 125 -10 181 -18 183 -7 3 -16 -12 -22 -34z"/>
<path d="M9951 5538 c-22 -75 -99 -212 -152 -271 l-51 -57 39 -44 c50 -57 98
-139 132 -223 16 -37 34 -68 41 -68 8 0 29 40 50 95 36 95 72 157 129 218 39
42 39 72 0 114 -41 44 -87 116 -129 206 -18 39 -37 72 -40 72 -4 0 -12 -19
-19 -42z m134 -254 l34 -41 -38 -50 c-20 -27 -57 -87 -80 -133 l-43 -83 -38
71 c-20 40 -54 92 -74 116 l-37 45 51 62 c27 35 64 91 82 125 l32 62 39 -66
c21 -37 54 -85 72 -108z"/>
<path d="M9232 4743 c1 -5 -10 -29 -26 -55 -75 -127 -73 -269 6 -421 59 -114
48 -240 -28 -307 -43 -38 -76 -39 -104 -3 -25 32 -21 72 11 135 29 56 23 66
-16 28 -63 -61 -70 -152 -15 -213 75 -84 210 7 240 162 13 70 -1 137 -53 240
-41 83 -42 88 -42 186 0 106 16 156 68 212 11 13 19 25 16 27 -9 8 -59 16 -57
9z"/>
<path d="M10603 4724 c-3 -8 3 -25 15 -37 50 -55 67 -107 67 -207 0 -92 -1
-99 -43 -183 -74 -150 -77 -248 -12 -350 87 -138 240 -113 240 38 0 64 -46
143 -84 145 -9 0 -8 -5 24 -93 17 -47 18 -62 9 -80 -28 -52 -74 -51 -122 2
-72 80 -74 177 -5 311 l43 85 0 110 c0 100 -3 116 -29 173 -38 82 -88 124
-103 86z"/>
<path d="M9823 4043 c-9 -3 -5 -19 13 -55 49 -97 54 -150 48 -548 -3 -228 -2
-376 4 -395 10 -29 10 -29 11 -5 1 14 8 122 16 240 8 118 15 295 15 393 0 160
7 206 24 161 3 -9 6 -86 6 -172 0 -86 7 -256 15 -377 8 -121 15 -235 15 -254
0 -19 3 -31 8 -27 4 4 9 204 12 444 l5 437 28 59 c36 77 35 89 -3 81 -23 -5
-30 -3 -30 9 0 21 -5 20 -40 -6 l-30 -22 -45 22 c-47 23 -52 24 -72 15z m170
-108 l-18 -40 -3 33 c-4 39 30 103 36 67 1 -11 -5 -38 -15 -60z m-73 -4 c0
-35 -18 -14 -26 29 -5 33 -5 34 10 16 9 -11 16 -31 16 -45z"/>
<path d="M9633 3768 c-28 -14 -58 -88 -48 -120 18 -56 77 -80 91 -36 5 16 1
26 -15 36 -25 17 -27 37 -5 46 10 4 28 -6 50 -28 31 -31 34 -39 34 -93 0 -106
-71 -183 -170 -183 -62 0 -96 22 -198 128 -79 83 -91 93 -86 67 20 -95 99
-196 187 -240 159 -79 330 37 330 225 0 126 -94 236 -170 198z"/>
<path d="M8841 5405 c34 -47 63 -85 65 -85 14 0 -41 90 -83 138 -52 57 -44 34
18 -53z"/>
<path d="M7926 5354 c-4 -11 -1 -14 11 -12 9 2 18 9 21 16 6 18 -25 15 -32 -4z"/>
<path d="M9041 5229 c-12 -19 -33 -70 -47 -114 -15 -44 -30 -84 -34 -89 -5 -5
-22 18 -39 51 -31 62 -80 128 -88 119 -3 -3 18 -42 45 -88 28 -46 54 -96 57
-111 4 -15 11 -29 15 -32 15 -10 129 279 115 293 -2 2 -13 -11 -24 -29z"/>
<path d="M10582 5359 c1 -12 9 -24 16 -27 9 -3 13 3 10 19 -1 12 -9 24 -16 27
-9 3 -13 -3 -10 -19z"/>
<path d="M7696 4149 c-2 -8 -6 -156 -9 -329 -2 -173 -1 -286 3 -250 4 36 8
135 9 220 1 85 6 200 10 255 5 55 5 104 0 109 -5 6 -10 4 -13 -5z"/>
<path d="M7882 3780 c-1 -214 0 -233 14 -215 12 15 14 32 9 65 -4 25 -10 122
-14 215 l-7 170 -2 -235z"/>
<path d="M8138 3838 c-3 -73 -3 -178 1 -233 6 -82 8 -59 9 133 1 127 0 232 -1
232 -2 0 -6 -60 -9 -132z"/>
<path d="M8700 3635 c0 -77 4 -125 10 -125 6 0 10 48 10 125 0 77 -4 125 -10
125 -6 0 -10 -48 -10 -125z"/>
<path d="M8396 3734 c-8 -20 -8 -268 0 -316 4 -21 11 -38 17 -38 6 0 7 34 2
98 -4 53 -7 136 -6 185 2 85 -1 103 -13 71z"/>
<path d="M7691 3026 c-8 -9 -10 -23 -6 -33 6 -16 8 -15 16 6 13 32 7 47 -10
27z"/>
<path d="M7650 2956 c0 -9 7 -16 16 -16 17 0 14 22 -4 28 -7 2 -12 -3 -12 -12z"/>
<path d="M11070 4454 c-17 -15 -29 -28 -27 -31 7 -6 50 14 77 36 24 20 25 21
3 21 -12 0 -36 -12 -53 -26z"/>
<path d="M11153 4198 c-51 -77 -77 -128 -64 -128 19 0 121 150 121 180 0 23
-17 7 -57 -52z"/>
<path d="M7010 3619 c-25 -12 -39 -23 -33 -26 16 -6 110 25 118 38 11 16 -39
9 -85 -12z"/>
<path d="M6820 3192 c0 -6 28 -20 63 -30 73 -23 147 -36 147 -27 0 3 -24 17
-52 30 -61 27 -158 44 -158 27z"/>
<path d="M6645 2891 l-40 -19 44 -1 c55 -1 127 19 109 31 -22 13 -71 8 -113
-11z"/>
<path d="M11498 3986 c-81 -20 -135 -46 -97 -46 19 0 208 46 239 59 49 19 -50
11 -142 -13z"/>
<path d="M6457 3566 c-4 -10 -2 -36 4 -58 5 -22 8 -46 5 -53 -2 -7 6 -30 20
-51 29 -48 29 -44 0 80 -15 66 -25 94 -29 82z"/>
<path d="M10423 3264 c2 -25 12 -53 21 -62 15 -15 16 -14 16 11 0 30 -25 97
-36 97 -4 0 -4 -21 -1 -46z"/>
<path d="M8960 2956 c0 -8 11 -28 25 -43 22 -25 24 -26 25 -8 0 23 -26 65 -41
65 -5 0 -9 -6 -9 -14z"/>
<path d="M11405 2981 c12 -13 118 -34 143 -29 32 7 -27 30 -92 35 -45 4 -58 3
-51 -6z"/>
<path d="M11166 2904 c-3 -9 -6 -37 -5 -62 l1 -47 13 30 c16 35 19 81 6 89 -5
3 -12 -1 -15 -10z"/>
<path d="M8101 2947 c2 -1 13 -9 24 -17 19 -14 19 -14 6 3 -7 9 -18 17 -24 17
-6 0 -8 -1 -6 -3z"/>
<path d="M7190 2798 c-31 -13 -22 -15 89 -21 83 -4 84 -4 62 15 -26 21 -109
24 -151 6z"/>
<path d="M10387 2889 c-20 -11 -52 -69 -39 -69 14 0 62 51 62 66 0 16 0 16
-23 3z"/>
<path d="M6304 2819 c-12 -4 -25 -13 -30 -20 -5 -9 1 -10 27 -5 18 3 37 10 42
15 12 12 -15 20 -39 10z"/>
<path d="M9219 2488 c11 -18 30 -40 42 -48 21 -14 21 -13 14 10 -9 32 -44 70
-63 70 -11 0 -9 -7 7 -32z"/>
<path d="M8520 2071 c-14 -10 -77 -45 -140 -77 -105 -54 -112 -59 -82 -62 40
-4 121 32 199 87 31 23 63 41 70 41 18 0 11 24 -8 27 -8 2 -25 -6 -39 -16z"/>
<path d="M7675 2211 c-70 -33 -184 -117 -145 -106 65 19 248 134 215 135 -5 0
-37 -13 -70 -29z"/>
<path d="M9097 7310 l16 -40 187 0 187 0 32 40 32 40 -235 0 -234 0 15 -40z"/>
<path d="M5532 3258 c3 -7 13 -15 22 -16 12 -3 17 1 14 10 -3 7 -13 15 -22 16
-12 3 -17 -1 -14 -10z"/>
</g>
</svg>
