<?xml version="1.0" standalone="no"?>
<!DOCTYPE svg PUBLIC "-//W3C//DTD SVG 20010904//EN"
 "http://www.w3.org/TR/2001/REC-SVG-20010904/DTD/svg10.dtd">
<svg version="1.0" xmlns="http://www.w3.org/2000/svg"
 width="1295.000000pt" height="1294.000000pt" viewBox="0 0 1295.000000 1294.000000"
 preserveAspectRatio="xMidYMid meet">
<metadata>
Created by potrace 1.16, written by Peter Selinger 2001-2019
</metadata>
<g transform="translate(0.000000,1294.000000) scale(0.100000,-0.100000)"
fill="#000000" stroke="none">
<path d="M0 6470 l0 -6470 6475 0 6475 0 0 6470 0 6470 -6475 0 -6475 0 0
-6470z m6975 6097 c17 -3 66 -8 110 -12 273 -22 614 -80 917 -156 1064 -265
2015 -798 2807 -1574 700 -685 1215 -1499 1522 -2405 177 -520 273 -1001 318
-1590 9 -118 7 -797 -3 -860 -3 -19 -10 -91 -16 -160 -95 -1065 -526 -2176
-1185 -3054 -813 -1085 -1938 -1870 -3206 -2236 -567 -164 -1079 -239 -1666
-243 -261 -2 -577 8 -594 18 -7 5 0 47 29 160 29 111 70 287 86 365 8 36 23
103 35 150 12 47 40 168 62 270 22 102 47 212 55 245 8 33 19 87 24 120 6 33
14 69 19 80 5 11 12 38 16 60 3 22 12 76 20 120 7 44 21 123 30 175 12 70 17
161 17 345 1 280 -15 445 -57 588 -13 47 -32 121 -40 164 -9 43 -30 125 -47
183 -36 122 -79 282 -114 425 -14 55 -33 125 -43 155 -23 67 -57 184 -66 225
-4 17 -13 44 -20 60 -17 39 -52 150 -60 195 -7 37 -34 127 -90 300 -18 58 -36
121 -40 140 -11 56 -76 244 -89 260 -7 8 -34 59 -59 113 -26 53 -52 97 -59 97
-7 0 -22 12 -33 26 -36 49 -98 104 -121 110 -13 3 -24 10 -24 14 0 17 -155
100 -187 100 -25 0 -39 35 -30 70 7 27 -20 158 -42 205 -10 22 -29 61 -41 88
-12 26 -25 47 -30 47 -5 0 -17 15 -27 34 -10 19 -30 52 -46 73 l-27 40 14 69
c42 197 27 447 -34 586 -40 90 -111 237 -144 298 -14 25 -33 63 -43 85 -10 22
-23 47 -29 55 -5 8 -18 40 -27 70 -17 58 -65 285 -65 310 -3 304 -25 693 -48
811 -17 90 -91 309 -122 359 -45 74 -52 99 -42 146 17 74 40 121 77 154 28 26
34 37 28 59 -7 29 -51 70 -76 71 -8 0 -20 -5 -27 -12 -9 -9 -12 8 -12 79 0 50
-3 104 -6 121 -5 26 -2 32 22 43 30 15 42 42 43 99 1 71 -81 120 -166 98 -28
-7 -63 -54 -63 -86 0 -9 -60 -52 -73 -52 -3 0 -22 51 -42 113 -20 61 -46 122
-57 134 -19 20 -18 63 1 63 11 0 31 47 31 75 0 43 -21 71 -77 104 -72 41 -106
36 -169 -26 -45 -43 -46 -46 -42 -95 5 -45 3 -51 -18 -60 -13 -6 -24 -17 -24
-23 0 -12 -49 -51 -53 -43 -1 2 -18 34 -37 72 -52 103 -97 185 -130 239 -24
39 -28 52 -20 73 22 56 7 141 -29 175 -44 41 -114 52 -161 24 -14 -8 -33 -18
-43 -21 -22 -8 -57 -78 -57 -115 0 -15 5 -40 10 -55 9 -23 6 -33 -17 -68 -15
-23 -41 -55 -57 -72 -40 -41 -66 -75 -66 -89 0 -6 -12 -22 -27 -36 -16 -15
-36 -38 -46 -53 -10 -14 -21 -26 -25 -26 -4 1 -29 20 -56 44 -46 41 -50 47
-52 95 -3 65 -28 119 -60 132 -38 14 -121 11 -153 -6 -36 -18 -81 -94 -81
-135 0 -18 9 -45 21 -61 l20 -29 -38 -62 c-21 -35 -46 -69 -55 -76 -10 -7 -18
-17 -18 -21 0 -5 -11 -34 -25 -64 l-24 -56 -28 14 c-15 8 -36 15 -45 15 -10 0
-18 4 -18 10 0 5 -18 15 -40 21 -34 10 -42 18 -50 49 -13 48 -41 76 -85 84
-44 9 -101 -9 -115 -35 -6 -10 -17 -19 -24 -19 -15 0 -36 -50 -36 -86 0 -38
30 -103 51 -109 17 -6 19 -17 19 -91 0 -84 0 -85 -36 -122 l-36 -37 -17 21
c-45 55 -103 59 -152 8 -30 -31 -34 -41 -33 -84 2 -56 24 -92 72 -115 l32 -16
-16 -32 c-9 -18 -24 -43 -34 -57 -9 -14 -23 -43 -30 -65 -7 -21 -21 -46 -30
-55 -9 -8 -25 -37 -35 -65 -9 -27 -26 -68 -36 -91 -10 -22 -19 -45 -19 -52 0
-6 -18 -49 -40 -96 -22 -47 -40 -91 -40 -98 0 -7 -7 -26 -16 -43 -16 -30 -27
-80 -43 -185 -5 -30 -15 -68 -22 -85 -6 -16 -16 -55 -20 -85 -19 -137 -27
-189 -38 -240 -6 -30 -18 -99 -27 -152 -9 -54 -20 -98 -24 -98 -4 0 -10 -20
-13 -45 -4 -24 -11 -53 -16 -62 -5 -10 -13 -36 -19 -58 -14 -54 -45 -139 -54
-145 -4 -3 -14 -21 -23 -40 -9 -19 -27 -53 -40 -75 -13 -22 -30 -51 -37 -65
-7 -14 -31 -50 -53 -80 -22 -30 -46 -66 -54 -80 -25 -50 -47 -86 -80 -130 -43
-59 -74 -129 -96 -215 -10 -38 -26 -95 -35 -125 -24 -77 -19 -269 10 -405 9
-40 -5 -105 -22 -105 -4 0 -8 -4 -8 -10 0 -5 -11 -34 -25 -64 -14 -30 -25 -63
-25 -73 0 -10 -7 -31 -15 -47 -8 -15 -15 -41 -15 -56 0 -15 -3 -48 -6 -73 -6
-39 -11 -47 -38 -58 -17 -7 -44 -25 -60 -41 -17 -16 -43 -36 -60 -45 -17 -9
-39 -27 -50 -41 -12 -15 -33 -38 -47 -54 -15 -15 -30 -36 -34 -47 -3 -12 -12
-21 -18 -21 -7 0 -18 -12 -25 -27 -16 -36 -37 -72 -49 -84 -9 -9 -46 170 -78
381 -77 510 -81 1198 -9 1725 153 1133 608 2180 1333 3065 901 1101 2144 1854
3531 2139 231 47 560 92 805 111 114 8 848 6 900 -3z m-3509 -2368 c24 -20 17
-75 -12 -96 l-26 -19 53 -97 c29 -53 56 -97 61 -97 4 0 8 -5 8 -11 0 -16 39
-97 50 -104 5 -3 24 -36 41 -73 17 -37 39 -84 49 -104 l17 -37 50 42 c28 23
75 61 105 85 63 49 88 86 70 104 -29 29 1 88 43 88 51 0 73 -75 28 -95 -13 -5
-23 -14 -23 -20 0 -18 31 -100 44 -115 7 -8 22 -49 35 -90 12 -41 26 -84 30
-95 27 -65 31 -78 31 -97 0 -24 0 -24 122 35 86 42 87 42 88 79 0 32 4 39 25
44 42 11 67 -24 49 -70 -3 -9 -17 -16 -29 -16 l-24 0 0 -176 c-1 -97 -4 -180
-7 -186 -10 -16 12 -24 55 -20 36 4 40 7 43 35 3 36 36 49 57 23 20 -24 6 -66
-23 -66 -25 0 -36 -17 -36 -55 0 -13 -4 -26 -9 -29 -5 -4 -12 -29 -16 -56 -4
-28 -10 -50 -15 -50 -14 0 -49 -97 -38 -108 14 -14 1 -62 -15 -62 -8 0 -35 19
-60 43 -26 24 -78 59 -117 78 -38 18 -69 39 -69 44 -1 6 -16 15 -33 21 -18 7
-64 24 -103 38 -60 23 -163 47 -370 88 -56 10 -350 13 -465 3 -162 -13 -467
-88 -577 -140 -40 -19 -75 -35 -78 -35 -7 0 -183 -86 -210 -103 -11 -6 -24
-18 -30 -25 -6 -7 -24 -14 -40 -15 -30 -2 -30 -1 -30 48 0 34 -7 61 -22 86
-13 20 -23 41 -23 48 0 6 -8 19 -17 29 -21 20 -36 50 -73 142 -24 59 -28 65
-53 62 -33 -3 -60 40 -46 76 15 41 72 25 81 -23 3 -21 34 -30 134 -41 65 -8
66 -5 64 155 0 76 4 128 10 136 6 8 10 35 8 61 -3 45 -5 48 -35 56 -18 5 -34
15 -34 23 -1 8 -2 19 -3 25 -2 18 37 60 55 60 28 0 59 -47 53 -80 -6 -25 -3
-29 32 -40 22 -7 46 -18 54 -25 8 -6 44 -22 80 -35 36 -13 73 -30 82 -38 21
-18 58 -7 58 17 0 10 7 24 15 31 8 7 15 20 16 29 0 9 13 39 29 66 16 28 37 68
48 90 10 22 26 47 34 56 26 26 63 120 50 128 -6 3 -16 19 -22 35 -15 40 10 79
48 74 35 -4 51 -46 34 -91 -12 -31 -11 -32 67 -107 158 -151 181 -169 181
-137 0 7 18 39 40 72 22 33 40 65 40 71 0 6 16 28 36 50 36 40 72 89 110 150
11 19 29 44 40 56 11 13 28 36 38 51 16 27 16 29 -4 56 -24 35 -25 59 -4 90
14 19 23 22 51 18 19 -4 41 -11 49 -18z m274 -1339 c0 -19 61 -136 84 -161 12
-14 25 -29 27 -34 13 -29 52 -85 60 -85 5 0 9 -6 9 -14 0 -8 11 -23 25 -34 14
-11 25 -23 25 -27 0 -4 15 -24 33 -45 17 -20 52 -61 77 -90 25 -29 62 -70 83
-91 20 -20 37 -41 37 -46 0 -4 14 -17 31 -28 17 -11 37 -32 45 -47 16 -31 19
-78 4 -78 -5 0 -10 5 -10 10 0 6 -11 22 -25 35 -38 39 -133 35 -272 -10 -119
-40 -137 -49 -147 -82 -12 -36 29 -49 101 -34 32 7 65 19 73 27 48 41 234 64
266 32 19 -19 21 -99 4 -159 -6 -21 -8 -122 -4 -265 4 -127 3 -240 -1 -250 -8
-18 -27 -104 -41 -187 -4 -21 -13 -41 -20 -44 -8 -3 -14 -13 -14 -22 0 -18
-37 -134 -54 -171 -7 -14 -19 -45 -26 -70 -7 -25 -19 -49 -25 -55 -6 -5 -26
-39 -44 -74 -17 -35 -37 -69 -44 -75 -7 -7 -28 -32 -47 -57 -19 -24 -71 -80
-116 -126 -65 -66 -97 -89 -167 -123 -48 -23 -104 -44 -124 -46 -46 -4 -172
13 -187 25 -6 5 -32 12 -58 16 -26 4 -53 13 -59 21 -6 8 -23 14 -38 15 -14 0
-51 13 -81 29 -30 16 -77 41 -105 56 -166 87 -260 161 -396 311 -20 22 -40 50
-44 62 -3 11 -10 21 -14 21 -5 0 -19 28 -31 63 -13 34 -29 72 -37 85 -7 12
-10 22 -6 22 4 0 -1 6 -10 13 -9 6 -24 38 -32 71 -20 77 -23 80 -51 62 -52
-35 -125 -13 -193 57 -42 44 -50 56 -88 127 -11 19 -24 44 -30 55 -70 131 -51
325 37 370 41 21 53 19 105 -16 30 -21 51 -44 62 -70 8 -21 20 -39 27 -39 11
0 20 -13 52 -80 9 -19 19 -37 23 -40 4 -3 17 -21 29 -40 l22 -35 0 155 c0 85
4 172 9 192 7 32 43 94 62 108 3 3 25 44 48 92 45 95 41 92 161 119 61 13 193
63 254 97 33 17 64 32 69 32 16 0 211 101 232 121 11 10 36 25 56 33 20 8 47
27 60 41 13 14 40 34 59 45 19 10 56 41 82 69 25 28 50 51 55 51 19 1 113 157
113 189 0 10 3 21 7 24 10 10 33 8 33 -3z m-2086 -1748 c6 -18 -10 -167 -19
-182 -3 -5 -10 -35 -16 -67 -6 -32 -14 -62 -19 -68 -4 -5 -17 -43 -30 -82 -12
-40 -25 -73 -30 -73 -5 0 -11 -13 -15 -29 -5 -25 -54 -105 -74 -121 -4 -3 -11
-15 -16 -27 -10 -21 -85 -110 -157 -187 -21 -21 -38 -43 -38 -47 0 -8 -52 -39
-66 -39 -6 0 0 94 12 175 4 22 12 47 19 55 7 8 18 39 26 68 7 29 21 61 31 72
10 10 18 24 18 29 0 13 39 69 70 102 14 14 39 43 55 64 17 21 43 54 59 72 29
34 44 59 85 138 11 22 34 60 51 85 16 25 30 53 30 63 0 22 17 22 24 -1z m2926
-116 c11 -25 20 -50 20 -55 0 -6 8 -19 18 -29 9 -9 32 -49 51 -87 19 -39 37
-72 41 -75 9 -7 50 -137 50 -160 0 -10 4 -21 9 -24 11 -7 20 -55 27 -146 6
-67 5 -73 -9 -61 -41 34 -152 231 -180 321 -40 128 -61 237 -51 264 3 9 1 16
-5 16 -12 0 -15 62 -4 73 10 11 11 10 33 -37z m-1954 -257 c33 -37 80 -83 104
-103 25 -20 60 -50 79 -66 19 -17 39 -30 46 -30 7 0 20 -9 31 -21 10 -11 37
-29 59 -40 22 -11 47 -24 55 -29 25 -17 161 -77 250 -111 82 -32 90 -33 237
-34 l153 0 -1 -120 c-2 -139 24 -249 70 -298 66 -70 118 -117 136 -123 11 -4
27 -13 36 -21 24 -20 91 -53 109 -53 9 0 24 -6 35 -14 11 -7 47 -19 80 -26 80
-18 86 -23 72 -63 -26 -76 -105 -187 -232 -329 -96 -107 -125 -128 -177 -128
-18 0 -52 -5 -76 -10 -42 -10 -42 -10 -91 40 -27 27 -57 50 -66 50 -23 0 -55
-18 -55 -31 0 -6 -7 -27 -17 -46 -15 -33 -15 -37 0 -63 10 -15 17 -38 17 -49
0 -19 -6 -21 -73 -21 -68 0 -75 2 -102 30 -16 17 -34 30 -42 30 -7 0 -17 8
-22 18 -5 10 -22 24 -38 32 -15 8 -37 22 -48 31 -11 10 -41 28 -66 42 -26 13
-57 31 -70 40 -13 10 -31 17 -39 17 -9 0 -38 11 -66 24 -27 13 -60 26 -74 29
-14 3 -43 10 -65 16 -89 23 -145 5 -145 -47 0 -15 -5 -22 -12 -19 -7 3 -41 17
-75 32 -60 26 -62 26 -97 10 -34 -16 -36 -20 -36 -66 0 -44 -2 -49 -22 -49
-13 0 -32 -3 -43 -5 -22 -6 -115 77 -169 150 -17 22 -32 42 -35 45 -4 3 -20
25 -36 50 -16 25 -36 49 -42 53 -7 4 -13 12 -13 18 0 9 -29 79 -58 136 -21 41
-16 46 76 73 40 11 89 32 109 46 20 13 40 24 45 24 18 0 148 103 148 117 0 7
7 16 16 20 12 4 57 85 69 123 1 3 9 21 18 40 15 31 29 97 58 270 11 65 13 393
4 477 l-7 58 20 -30 c11 -16 46 -60 78 -96z m-675 -1129 c7 -27 23 -60 36 -74
12 -14 33 -49 47 -78 13 -29 40 -71 60 -93 20 -22 36 -43 36 -48 0 -15 138
-160 168 -176 14 -7 20 -21 20 -43 0 -18 6 -46 13 -63 6 -16 13 -54 15 -82 4
-44 0 -57 -17 -74 -17 -17 -20 -28 -15 -61 8 -51 35 -103 78 -150 18 -20 54
-61 80 -90 39 -44 196 -203 284 -289 12 -12 28 -33 35 -47 8 -14 25 -37 39
-52 42 -44 80 -92 80 -100 0 -4 24 -33 53 -64 28 -31 68 -74 87 -96 19 -22 43
-42 52 -45 9 -3 20 -14 23 -24 7 -24 -11 -71 -28 -71 -7 0 -22 -19 -34 -42
-12 -24 -44 -71 -72 -106 -28 -34 -51 -66 -51 -72 0 -5 -11 -21 -25 -35 l-24
-27 -22 46 c-11 25 -25 46 -29 46 -10 0 -76 112 -72 123 1 4 -2 7 -8 7 -5 0
-10 5 -10 12 0 6 -8 21 -18 32 -21 23 -102 163 -102 176 0 4 -17 15 -37 25
-39 18 -79 38 -124 61 -43 23 -84 131 -82 215 l1 67 -64 4 c-37 2 -69 9 -73
16 -4 7 -23 21 -42 30 -48 24 -72 78 -77 177 l-4 81 -85 1 -84 0 -44 43 c-47
46 -61 87 -57 166 l3 41 -56 6 c-94 10 -122 35 -171 155 -10 24 -23 46 -29 50
-6 4 -24 39 -40 77 -15 39 -36 88 -46 111 -11 22 -19 47 -19 55 0 8 -13 40
-29 71 -16 31 -34 72 -39 91 l-10 34 57 12 c31 7 70 17 86 22 17 5 93 24 170
43 77 19 151 39 165 44 37 16 37 16 51 -38z m2361 -6 c6 -4 62 -18 123 -30
241 -50 319 -70 323 -83 3 -8 -2 -28 -11 -45 -8 -17 -35 -74 -60 -126 -25 -52
-60 -126 -78 -163 -18 -37 -36 -70 -41 -73 -10 -7 -58 -107 -58 -123 0 -6 -7
-14 -15 -17 -8 -4 -15 -11 -15 -16 0 -17 -71 -92 -99 -105 -14 -7 -45 -12 -67
-13 l-41 0 -5 -71 c-6 -82 -34 -125 -106 -165 -71 -40 -182 -30 -182 16 0 11
-4 20 -9 20 -11 0 -43 61 -61 113 -7 22 -18 51 -26 65 -8 15 -14 54 -14 88 0
53 -3 63 -29 88 -25 24 -28 32 -20 59 5 16 6 40 4 51 -4 15 4 28 26 46 51 42
180 173 205 210 14 19 38 53 54 75 17 22 44 67 61 100 17 33 35 62 39 65 5 3
13 17 19 32 9 24 13 26 40 18 17 -5 36 -12 43 -16z m-2893 -151 c12 -38 26
-77 31 -88 30 -67 48 -113 55 -133 3 -12 17 -42 31 -65 13 -23 24 -48 24 -56
0 -8 23 -55 51 -105 53 -94 105 -146 145 -146 13 0 26 -4 29 -10 3 -5 15 -10
26 -10 14 0 19 -6 18 -17 -4 -31 13 -106 27 -121 8 -7 14 -19 14 -26 0 -16 83
-70 132 -85 20 -7 49 -11 64 -9 28 3 29 1 31 -48 3 -65 29 -123 80 -177 37
-39 48 -45 112 -56 l71 -13 0 -59 c0 -103 61 -219 124 -235 14 -3 30 -12 37
-20 6 -8 23 -14 38 -14 25 0 30 -6 76 -85 7 -11 20 -34 31 -51 10 -17 37 -62
59 -100 21 -38 47 -78 57 -88 10 -11 18 -25 18 -32 0 -7 18 -36 40 -65 22 -30
40 -59 40 -66 0 -22 14 -14 40 24 14 20 37 48 53 62 15 14 27 33 27 42 0 9 9
24 20 34 11 10 32 39 47 64 14 25 32 51 38 56 7 6 22 25 34 43 l23 32 28 -20
c15 -11 32 -20 38 -20 5 0 15 -6 21 -14 7 -8 26 -22 44 -31 18 -9 50 -26 73
-39 22 -12 81 -35 130 -51 82 -26 93 -33 146 -89 32 -34 70 -74 86 -91 16 -16
39 -46 52 -65 14 -19 30 -41 37 -48 7 -8 26 -30 41 -50 15 -21 29 -39 32 -42
3 -3 16 -22 30 -42 14 -21 28 -38 32 -38 3 0 16 -17 28 -37 18 -32 21 -48 17
-93 -21 -198 -29 -256 -39 -274 -8 -14 -12 -122 -12 -333 l-1 -313 -27 0 c-16
0 -28 -4 -28 -10 0 -5 -12 -10 -27 -10 -16 0 -66 -7 -113 -15 -47 -9 -116 -20
-153 -25 -220 -32 -807 -41 -1020 -15 -67 8 -147 17 -177 21 -30 3 -98 15
-150 26 -52 11 -109 22 -127 25 -36 6 -116 85 -278 273 -149 173 -335 410
-335 427 0 5 -8 24 -19 43 -10 19 -28 69 -41 110 -12 41 -28 84 -34 95 -7 11
-23 58 -36 105 -12 47 -26 94 -31 105 -24 61 -37 130 -56 301 -5 38 -8 230 -7
427 0 335 -7 433 -21 300 -15 -150 -15 -150 -30 -123 -7 14 -11 29 -8 33 3 5
0 12 -6 16 -6 4 -19 45 -28 91 -9 46 -18 79 -20 73 -7 -21 38 -267 53 -290 15
-24 19 -73 5 -73 -23 0 -33 -445 -11 -530 5 -19 12 -60 14 -90 7 -84 17 -120
32 -120 8 0 14 -8 14 -18 0 -10 11 -56 24 -103 24 -83 24 -84 3 -56 -44 57
-203 336 -297 522 -152 300 -273 597 -375 920 -55 174 -56 182 -45 233 6 28
16 52 21 52 5 0 9 8 9 18 0 9 12 40 25 67 14 28 25 56 25 63 0 15 47 100 67
120 6 6 15 21 18 32 3 11 10 20 14 20 4 0 16 15 25 33 10 17 39 48 64 67 26
19 53 43 60 52 7 10 39 30 70 44 31 15 65 34 75 42 9 8 17 12 17 8 0 -3 17 1
38 10 20 9 55 20 77 26 22 5 42 13 45 17 4 6 119 38 146 40 6 1 21 -29 33 -66z
m3415 28 c4 -5 25 -12 49 -16 23 -4 77 -20 119 -36 43 -16 85 -29 95 -29 19 0
26 -4 115 -56 45 -27 87 -59 120 -92 34 -32 68 -72 68 -77 0 -3 9 -19 20 -35
11 -17 29 -43 40 -60 11 -16 29 -53 40 -82 12 -29 30 -72 40 -95 11 -24 20
-48 20 -54 0 -5 12 -36 26 -67 14 -31 30 -66 35 -77 8 -19 41 -132 58 -200 4
-17 13 -40 19 -52 13 -23 44 -132 97 -333 18 -69 40 -145 49 -170 28 -76 82
-295 77 -314 -1 -5 3 -12 9 -16 6 -3 24 -59 40 -124 17 -65 32 -121 34 -125 3
-4 7 -18 10 -32 3 -13 12 -51 20 -84 26 -114 57 -264 59 -285 1 -11 4 -20 8
-20 8 0 17 -50 39 -225 6 -49 15 -117 20 -150 24 -160 19 -582 -10 -725 -6
-30 -20 -110 -30 -178 -11 -68 -26 -138 -34 -155 -8 -18 -18 -52 -21 -77 -4
-25 -16 -79 -27 -120 -11 -41 -26 -107 -33 -147 -13 -71 -26 -117 -51 -183 -7
-19 -16 -53 -20 -75 -3 -22 -15 -64 -25 -94 -11 -30 -26 -82 -34 -115 -8 -34
-23 -92 -35 -131 -12 -38 -26 -95 -31 -125 -6 -30 -14 -59 -20 -65 -5 -5 -9
-22 -9 -38 l0 -30 -67 7 c-170 17 -630 106 -778 151 l-50 14 -1 203 c0 207 -4
240 -49 375 -14 43 -15 60 -5 107 6 31 15 58 20 61 4 3 13 43 20 91 14 99 1
217 -33 294 -79 177 -112 412 -86 610 13 99 29 256 36 355 3 44 9 83 14 86 5
3 11 108 15 235 5 224 -9 440 -35 532 l-9 31 36 -17 c21 -9 51 -26 67 -37 17
-12 49 -32 73 -45 23 -13 42 -27 42 -31 0 -4 18 -14 40 -23 22 -9 40 -20 40
-25 0 -5 11 -12 25 -15 13 -3 46 -20 72 -36 26 -17 69 -40 96 -51 26 -12 47
-26 47 -30 0 -5 6 -9 13 -9 21 0 106 -44 107 -56 0 -6 13 -17 28 -23 16 -7 50
-36 76 -64 26 -29 58 -63 71 -77 12 -14 42 -61 64 -105 23 -44 46 -87 51 -95
5 -8 24 -52 41 -98 18 -45 34 -80 37 -77 5 5 -48 181 -76 250 -9 22 -23 49
-32 60 -27 32 -80 125 -72 125 4 0 24 -16 46 -35 21 -19 41 -35 45 -35 8 0 69
-61 105 -105 13 -16 28 -26 33 -22 4 5 1 14 -7 21 -8 6 -19 19 -25 27 -26 42
-50 75 -60 81 -5 4 -36 31 -67 61 -32 31 -80 66 -107 79 -27 12 -51 30 -54 39
-2 9 -16 19 -30 23 -15 3 -53 22 -86 41 -33 19 -64 35 -70 35 -6 0 -19 8 -29
18 -9 9 -31 23 -47 31 -28 12 -28 14 -10 22 58 23 314 -1 352 -33 10 -8 13 -6
13 4 0 13 -37 26 -201 69 -47 12 -120 10 -189 -4 -50 -11 -58 -10 -106 13 -28
14 -59 31 -68 39 -9 7 -55 37 -103 65 l-88 52 0 339 c0 251 3 347 12 365 7 14
13 37 13 51 0 15 7 40 15 55 8 16 15 45 15 65 0 19 7 44 15 55 8 10 15 29 15
42 0 13 5 33 11 44 6 11 15 44 19 72 5 28 12 62 16 75 5 16 4 22 -4 18 -5 -4
-13 -26 -17 -50 -4 -23 -10 -46 -14 -52 -11 -14 -36 -88 -61 -175 -12 -41 -26
-79 -31 -85 -5 -5 -9 -19 -9 -32 0 -27 -15 -32 -17 -5 -1 9 -4 70 -9 134 -15
246 -36 61 -35 -317 0 -256 -16 -486 -37 -507 -9 -9 -16 -7 -30 5 -10 9 -23
17 -28 17 -6 0 -23 13 -39 30 -16 17 -34 30 -40 30 -6 0 -22 11 -35 25 -13 14
-29 25 -35 25 -6 0 -22 13 -35 30 -14 16 -29 29 -34 30 -5 0 -28 16 -52 35
-31 26 -52 35 -79 35 -34 0 -47 10 -166 130 -108 110 -129 135 -129 161 0 17
-4 38 -9 47 -5 9 -12 54 -16 100 -4 45 -11 97 -16 115 -5 17 -9 58 -9 89 l0
58 30 -7 c17 -3 58 0 91 7 96 21 147 85 164 206 6 51 7 51 45 52 66 3 112 31
140 87 8 17 21 37 29 45 8 8 25 38 38 67 13 29 28 55 34 58 5 3 25 41 45 83
64 138 79 167 90 179 6 7 15 28 18 48 4 19 11 35 16 35 5 0 12 10 15 23 16 55
28 77 46 77 10 0 20 -4 23 -9z m-2080 -201 c7 -7 4 -17 -11 -31 -36 -37 -96
-8 -79 37 5 13 15 15 43 11 20 -4 41 -11 47 -17z m77 -20 c9 0 29 -6 45 -14
53 -26 119 -54 144 -61 32 -10 120 -68 161 -106 17 -16 37 -29 44 -29 7 0 33
-20 57 -45 25 -25 50 -45 56 -45 6 0 17 -8 24 -18 7 -11 24 -25 38 -32 28 -14
39 -23 94 -74 21 -20 41 -36 45 -36 3 0 35 -27 71 -60 36 -32 76 -65 89 -72
14 -7 36 -23 49 -35 25 -23 42 -29 42 -16 0 8 -113 112 -122 113 -12 0 -35 52
-42 96 -5 29 -18 52 -43 75 -46 45 -70 93 -82 168 -10 64 -7 86 16 109 11 12
20 7 53 -27 22 -23 40 -46 40 -51 0 -22 -35 -8 -67 28 -35 38 -35 28 1 -20 15
-22 28 -28 57 -28 21 0 39 -3 41 -7 4 -10 76 -64 102 -78 10 -5 27 -32 38 -60
23 -62 28 -73 68 -160 54 -119 58 -128 78 -195 45 -151 64 -229 82 -352 11
-72 20 -136 20 -144 0 -21 294 -324 315 -324 22 0 43 -59 55 -153 13 -105 7
-503 -9 -632 -23 -175 -29 -216 -34 -221 -7 -7 -66 57 -73 81 -4 11 -26 40
-50 64 -24 24 -46 52 -49 62 -4 11 -10 19 -15 19 -5 0 -21 20 -35 45 -15 24
-35 47 -46 50 -10 4 -19 14 -19 23 0 9 -23 44 -50 77 -27 33 -62 75 -77 93
-16 19 -31 41 -34 50 -4 10 -16 24 -28 32 -12 8 -21 19 -21 25 0 7 -18 29 -40
51 -22 21 -40 44 -40 50 0 6 -23 33 -50 60 -28 27 -66 65 -86 84 -21 22 -54
41 -82 49 -43 13 -94 33 -192 79 -126 58 -288 196 -415 352 -27 34 -62 75 -77
91 -16 16 -28 34 -28 38 0 15 -36 53 -193 209 -81 81 -158 161 -170 179 -12
18 -32 36 -44 42 -12 6 -29 25 -37 43 -9 18 -23 44 -33 57 -17 23 -17 24 5 17
30 -10 74 18 65 40 -9 25 42 -9 95 -63 23 -24 47 -43 52 -43 6 0 10 -3 10 -7
0 -5 17 -19 38 -33 20 -14 43 -33 50 -42 7 -10 19 -18 26 -18 7 0 30 -17 52
-37 43 -41 144 -116 144 -107 0 14 -32 64 -41 64 -6 0 -38 28 -72 63 -34 34
-76 72 -94 85 -17 12 -35 30 -38 40 -3 9 -33 39 -66 65 -32 27 -59 55 -59 63
0 8 -4 14 -9 14 -16 0 -126 115 -146 153 -11 20 -23 37 -28 37 -4 0 -5 5 -2
11 5 7 16 3 31 -12 22 -21 24 -21 49 -5 15 10 25 26 25 41 0 14 3 25 6 25 4 0
28 -19 54 -42 45 -41 158 -132 216 -173 15 -11 44 -37 65 -57 21 -21 41 -38
46 -38 5 0 33 -24 63 -53 50 -49 120 -96 120 -82 0 9 -100 105 -109 105 -5 0
-16 11 -25 25 -10 14 -28 31 -42 37 -13 6 -24 16 -24 22 0 6 -17 22 -38 36
-20 14 -41 30 -45 37 -4 7 -13 13 -19 13 -6 0 -34 21 -63 48 -29 26 -64 56
-79 67 -15 11 -50 41 -79 68 -29 26 -55 47 -59 47 -5 0 -8 4 -8 10 0 5 15 2
34 -7 33 -15 35 -15 65 8 16 13 30 30 30 37 1 9 10 9 38 -3 21 -9 40 -20 43
-24 3 -5 23 -17 45 -28 69 -35 91 -48 109 -66 10 -9 26 -17 36 -17 11 0 23 -6
27 -14 4 -7 18 -19 31 -25 13 -7 56 -44 95 -82 40 -38 79 -71 88 -74 10 -3 34
-21 54 -41 20 -19 51 -42 68 -51 l32 -16 -20 23 c-34 39 -88 90 -95 90 -4 0
-36 28 -72 63 -96 91 -138 126 -159 132 -11 4 -19 11 -19 16 0 5 -5 9 -11 9
-6 0 -50 24 -98 53 -80 48 -84 52 -56 55 36 4 65 28 65 54 0 18 2 18 22 4 12
-9 30 -16 39 -16z m-301 -20 c17 -17 18 -23 8 -40 -20 -31 -36 -32 -69 -2 -21
19 -28 32 -24 45 10 24 60 22 85 -3z m-103 -112 c28 -26 30 -54 4 -68 -27 -14
-27 -14 -56 17 -37 41 -32 70 14 72 8 1 25 -9 38 -21z m1347 -34 c16 -6 21
-30 10 -57 -5 -13 -11 -12 -43 6 -45 26 -51 40 -19 49 32 9 34 9 52 2z m-268
-136 c4 -13 22 -40 40 -62 34 -40 60 -96 44 -96 -5 0 -35 24 -66 53 -31 28
-68 58 -82 66 -15 8 -32 21 -39 30 -14 20 4 29 59 30 30 1 38 -3 44 -21z
m-1064 -62 c69 -70 81 -86 68 -86 -6 0 -15 10 -21 23 -6 12 -32 32 -59 45 -42
19 -49 26 -48 47 1 14 3 25 4 25 1 0 26 -24 56 -54z m1408 6 c0 -29 -14 -20
-25 15 -5 18 -3 22 9 17 9 -3 16 -18 16 -32z m-1440 -54 c23 -25 25 -39 8 -56
-17 -17 -24 -15 -50 11 -25 23 -28 34 -15 55 12 18 34 15 57 -10z m2144 -1208
c70 -53 112 -85 124 -97 7 -7 18 -13 23 -13 23 0 40 -33 60 -117 26 -112 44
-419 30 -513 -6 -36 -13 -119 -16 -185 -4 -66 -14 -169 -22 -230 -25 -182 -31
-263 -32 -413 -1 -160 21 -301 62 -395 50 -113 58 -158 54 -279 -4 -113 -18
-205 -38 -244 -10 -20 13 -145 41 -218 18 -48 30 -213 23 -329 l-6 -108 -26 6
c-103 24 -354 111 -358 125 -3 8 -9 24 -13 35 -8 20 -44 234 -56 335 -3 30
-10 60 -14 65 -4 6 -10 39 -14 75 -3 36 -13 119 -22 185 -26 196 -28 236 -28
553 -1 239 2 304 12 311 9 5 17 48 23 122 21 226 28 285 43 364 9 44 16 110
16 146 0 36 4 79 9 95 12 36 43 431 36 459 -3 11 -9 85 -15 165 -5 80 -13 156
-16 169 -7 23 -5 23 40 -10 26 -19 62 -45 80 -59z m-3230 -599 c27 -45 47 -84
44 -87 -6 -6 -88 120 -88 135 0 5 -3 11 -7 13 -11 4 -53 65 -53 75 1 15 56
-56 104 -136z m2823 -113 c20 -29 45 -59 55 -66 10 -7 18 -17 18 -23 0 -10 76
-109 112 -146 18 -19 20 -28 14 -83 -4 -34 -11 -70 -16 -79 -9 -16 -18 -92
-45 -376 -26 -262 -22 -579 10 -830 16 -126 41 -270 48 -282 3 -5 8 -40 11
-78 5 -66 37 -251 52 -304 6 -21 5 -23 -12 -17 -10 4 -42 17 -71 28 -59 23
-58 22 -93 173 -12 50 -28 117 -36 150 -21 85 -49 217 -64 305 -7 41 -19 100
-27 130 -21 77 -30 130 -43 245 -7 55 -18 152 -26 215 -8 63 -17 165 -21 225
-11 176 -7 632 6 725 7 47 14 101 17 120 11 82 10 82 44 50 17 -16 47 -52 67
-82z m-197 -873 c0 -19 -7 -26 -37 -34 -21 -6 -46 -11 -56 -11 -15 0 -132 -22
-192 -37 -189 -45 -993 -52 -1205 -10 -14 3 -54 8 -90 12 -95 9 -135 24 -172
63 -26 27 -29 33 -13 29 49 -13 288 -43 430 -53 50 -4 131 -9 180 -13 131 -10
639 6 785 25 162 21 158 20 210 33 56 13 86 18 128 20 28 1 32 -2 32 -24z m13
-77 c3 -18 9 -60 12 -93 3 -33 8 -72 11 -87 5 -25 2 -27 -48 -37 -29 -6 -100
-18 -158 -27 -58 -8 -145 -22 -195 -29 -133 -21 -187 -25 -430 -30 -269 -7
-556 7 -588 28 -33 22 -288 249 -284 254 5 4 196 -15 268 -27 91 -16 549 -23
744 -12 237 14 443 39 530 62 70 20 100 27 121 29 7 0 14 -14 17 -31z m38
-265 c4 -104 45 -340 104 -593 7 -30 26 -118 43 -195 17 -77 36 -155 41 -173
9 -29 8 -33 -5 -28 -105 40 -257 112 -263 125 -5 9 -11 46 -15 83 -4 37 -8 84
-11 105 -2 21 -7 70 -10 108 -8 97 -33 273 -45 315 -29 106 -50 205 -46 215 2
7 28 16 58 19 29 4 67 13 83 21 42 19 65 18 66 -2z m-200 -174 c14 -74 31
-152 37 -174 6 -22 16 -85 21 -140 6 -55 17 -158 26 -228 9 -70 15 -132 13
-137 -4 -13 -247 107 -254 125 -3 7 -11 12 -18 9 -17 -7 -301 158 -501 291
-162 107 -440 310 -463 337 -8 11 14 12 121 7 138 -7 386 -4 522 6 195 13 274
15 279 7 6 -10 9 -44 26 -297 21 -318 23 -332 30 -298 9 40 -16 503 -30 562
-6 24 -9 45 -8 46 5 4 152 22 163 20 5 -1 21 -62 36 -136z"/>
<path d="M7480 11977 c-3 -3 -59 -8 -125 -11 -150 -8 -380 -41 -499 -72 -279
-73 -465 -129 -480 -144 -6 -6 -18 -10 -28 -10 -10 0 -18 -4 -18 -10 0 -5 -6
-10 -13 -10 -27 0 -308 -127 -315 -142 -2 -4 -24 -17 -50 -28 -25 -11 -62 -33
-81 -48 -19 -15 -47 -34 -62 -42 -51 -29 -134 -87 -148 -104 -8 -10 -27 -24
-43 -32 -42 -22 -348 -313 -348 -331 0 -7 -19 -28 -62 -69 -14 -14 -32 -39
-38 -55 -7 -16 -16 -29 -21 -29 -4 0 -11 -9 -14 -21 -4 -11 -20 -33 -36 -50
-15 -16 -40 -50 -55 -77 -94 -165 -144 -265 -144 -287 0 -8 -4 -15 -10 -15 -5
0 -13 -12 -16 -27 -4 -16 -22 -65 -40 -111 -18 -45 -38 -104 -43 -130 -6 -26
-18 -76 -27 -112 -8 -36 -20 -96 -25 -135 -5 -38 -15 -106 -21 -150 -19 -129
-16 -450 5 -589 10 -66 20 -123 22 -127 3 -3 18 -71 34 -150 16 -79 36 -162
46 -184 9 -22 28 -76 41 -120 14 -44 31 -93 38 -110 8 -16 22 -52 31 -80 10
-27 26 -59 35 -70 9 -11 22 -36 29 -55 20 -55 71 -152 100 -190 29 -39 47 -68
73 -122 10 -20 24 -41 31 -45 7 -4 28 -33 45 -64 18 -32 39 -60 47 -63 8 -3
15 -12 15 -20 0 -8 10 -26 23 -40 12 -13 34 -39 47 -57 23 -29 52 -67 122
-152 13 -16 44 -50 71 -77 26 -27 47 -54 47 -60 0 -5 6 -10 13 -10 8 0 19 -10
25 -22 7 -13 17 -30 23 -39 11 -15 0 -52 -34 -114 -6 -11 -20 -38 -30 -60 -11
-22 -25 -44 -32 -50 -7 -5 -24 -30 -36 -55 -27 -51 -55 -92 -83 -123 -11 -11
-42 -50 -69 -86 -28 -37 -65 -81 -83 -98 -19 -18 -34 -37 -34 -43 0 -5 -7 -10
-15 -10 -8 0 -15 -4 -15 -9 0 -6 -27 -36 -60 -68 -77 -76 -75 -95 13 -114 49
-10 96 -10 236 -1 97 6 194 17 216 23 22 6 65 17 95 24 30 7 100 25 155 39 55
15 110 30 123 33 12 3 22 9 22 14 0 5 7 9 15 9 17 0 128 60 133 72 6 15 39 8
56 -11 10 -11 31 -25 47 -31 16 -7 29 -18 29 -26 0 -7 10 -16 23 -20 12 -4 36
-17 53 -30 16 -13 51 -33 78 -44 26 -12 50 -28 53 -36 3 -8 10 -14 15 -14 16
0 221 -102 236 -117 7 -7 20 -13 29 -13 8 0 27 -6 41 -14 47 -25 119 -55 148
-62 16 -4 36 -12 44 -19 8 -7 53 -25 100 -40 47 -15 90 -31 95 -35 6 -5 39
-16 75 -25 36 -9 70 -21 77 -27 7 -5 29 -14 50 -20 21 -5 65 -16 98 -24 33 -9
87 -22 120 -31 33 -8 85 -20 115 -27 30 -6 64 -16 75 -22 11 -6 38 -14 60 -17
22 -3 121 -17 220 -31 99 -15 246 -31 327 -37 165 -12 609 -6 763 11 201 21
429 59 475 77 20 8 17 7 155 42 66 17 127 35 136 40 9 5 36 15 60 21 24 6 69
24 99 39 30 16 84 39 120 52 36 12 75 29 88 37 32 20 159 88 210 112 24 11 62
36 85 55 22 19 46 35 52 35 7 0 21 8 33 18 25 21 48 37 137 98 39 26 79 56 91
68 11 12 39 37 61 56 22 19 51 44 64 56 66 58 245 267 299 349 29 44 100 150
107 160 5 6 19 33 33 60 13 28 27 52 31 55 8 7 49 96 49 108 0 5 7 15 15 22 8
7 15 19 15 27 0 15 4 24 53 133 14 30 28 71 32 90 3 19 12 49 20 65 16 35 45
163 45 197 0 13 6 32 14 43 8 11 16 43 19 70 23 221 28 303 29 460 1 178 -4
286 -15 315 -3 8 -8 47 -11 85 -4 39 -13 99 -21 135 -43 181 -56 235 -85 345
-17 66 -35 122 -40 125 -4 3 -11 23 -15 45 -4 22 -11 45 -15 50 -4 6 -15 37
-25 70 -16 51 -60 144 -140 294 -20 37 -134 196 -184 257 -14 17 -42 50 -61
74 -19 24 -49 60 -66 79 -17 20 -42 50 -55 66 -28 35 -281 287 -366 363 -68
62 -217 182 -244 198 -11 6 -30 21 -43 33 -12 11 -27 21 -33 21 -6 0 -17 7
-24 16 -12 15 -183 131 -234 159 -11 6 -40 24 -65 40 -25 16 -58 37 -75 46
-16 9 -50 28 -75 42 -25 15 -56 31 -70 37 -14 5 -32 14 -40 19 -43 27 -283
141 -295 141 -4 0 -31 11 -59 24 -91 44 -140 63 -176 71 -19 4 -46 13 -60 20
-32 15 -83 34 -135 47 -22 6 -45 15 -51 19 -6 5 -39 15 -75 23 -69 15 -213 50
-294 72 -102 28 -223 49 -385 69 -25 3 -79 10 -120 15 -80 11 -712 25 -720 17z
m66 -147 c-7 -17 -22 -37 -33 -45 -18 -13 -23 -11 -51 20 -18 18 -32 36 -32
38 0 7 41 13 92 16 l37 1 -13 -30z m444 20 c189 -10 225 -14 430 -46 213 -33
236 -37 255 -49 11 -7 43 -15 70 -19 28 -4 82 -17 120 -28 39 -11 97 -25 130
-33 67 -14 157 -45 165 -55 3 -3 31 -12 63 -20 31 -7 62 -19 68 -27 6 -7 19
-13 29 -13 17 0 57 -15 130 -47 99 -44 168 -76 192 -89 14 -8 33 -14 41 -14 9
0 22 -6 29 -13 19 -18 217 -117 234 -117 8 0 17 -7 21 -16 3 -9 24 -25 47 -35
52 -25 97 -51 114 -66 7 -7 19 -13 26 -13 7 0 23 -11 36 -25 13 -14 29 -25 35
-25 7 0 24 -11 39 -25 15 -14 32 -25 38 -25 5 0 28 -14 49 -31 l39 -31 -30
-28 c-16 -15 -30 -37 -30 -47 0 -11 -13 -29 -30 -41 -32 -24 -40 -27 -40 -12
0 9 -26 39 -86 102 -24 25 -25 29 -11 48 32 46 -17 90 -78 70 -36 -12 -50 -42
-34 -71 9 -18 -1 -33 -83 -121 l-29 -31 -33 18 c-25 13 -32 23 -29 39 5 26
-13 44 -55 52 -25 5 -33 2 -47 -20 -15 -22 -16 -32 -6 -52 9 -21 7 -33 -15
-77 -15 -29 -27 -53 -28 -54 -6 -7 -76 20 -76 29 0 19 -32 48 -53 48 -54 0
-76 -71 -34 -112 20 -21 22 -34 26 -147 2 -100 0 -127 -11 -135 -21 -15 -45
-73 -53 -124 -8 -51 11 -170 36 -230 21 -48 25 -97 9 -107 -5 -3 -10 -34 -10
-69 0 -66 18 -116 53 -150 16 -16 18 -28 14 -67 -3 -26 -13 -56 -22 -66 -102
-117 -126 -193 -90 -280 23 -55 20 -59 -47 -72 -78 -15 -138 -49 -195 -111
-40 -43 -113 -143 -113 -156 0 -8 -4 -14 -8 -14 -4 0 -14 -17 -21 -37 -7 -21
-21 -57 -32 -80 -10 -24 -19 -49 -19 -57 0 -8 -4 -17 -9 -20 -4 -3 -14 -27
-20 -53 -7 -27 -18 -59 -26 -73 -7 -14 -21 -63 -30 -110 -10 -47 -22 -89 -26
-95 -5 -5 -9 -18 -9 -28 0 -10 -6 -31 -14 -45 -8 -15 -19 -47 -26 -72 -7 -25
-18 -58 -25 -75 -7 -16 -16 -46 -20 -65 -9 -48 -40 -137 -65 -185 -11 -21 -20
-44 -20 -51 0 -6 -6 -17 -14 -23 -8 -7 -28 -41 -46 -77 -17 -35 -34 -64 -39
-64 -5 0 -15 -15 -22 -32 -7 -18 -21 -42 -31 -52 -10 -11 -18 -25 -18 -30 0
-6 -20 -40 -45 -76 -25 -36 -45 -71 -45 -77 0 -7 -5 -13 -10 -13 -6 0 -20 -16
-31 -35 -22 -36 -109 -105 -134 -105 -39 0 -106 -45 -151 -102 -21 -26 -36
-88 -29 -118 4 -19 2 -37 -5 -46 -9 -9 -11 -32 -7 -67 3 -28 2 -68 -2 -87 -5
-23 -3 -44 5 -60 17 -34 83 -86 121 -94 29 -7 55 -36 32 -36 -6 0 -8 -8 -5
-17 4 -10 14 -67 22 -127 8 -61 19 -115 24 -120 6 -6 10 -20 10 -31 0 -12 6
-41 14 -66 8 -24 22 -74 32 -111 11 -38 22 -68 26 -68 5 0 8 -5 8 -11 0 -10
22 -61 61 -145 10 -22 19 -44 19 -49 0 -14 -400 17 -445 35 -22 9 -121 26
-205 36 -30 3 -60 10 -67 16 -14 11 -165 48 -197 48 -12 0 -27 5 -33 11 -6 6
-37 16 -69 24 -110 25 -135 33 -153 49 -10 9 -25 16 -34 16 -18 0 -122 34
-172 56 -16 7 -49 18 -72 24 -24 6 -43 15 -43 20 0 4 -30 18 -67 30 -38 12
-81 30 -98 40 -16 10 -44 21 -60 24 -17 4 -44 18 -59 31 -16 14 -37 25 -47 25
-10 0 -20 4 -23 9 -3 5 -18 12 -33 16 -14 3 -38 15 -51 26 -14 10 -31 19 -39
19 -8 0 -33 13 -56 28 -23 16 -79 46 -124 68 -93 44 -101 60 -50 95 42 29 95
86 114 122 40 79 -31 64 -165 -35 -40 -30 -94 -65 -120 -78 -26 -14 -54 -32
-62 -41 -26 -27 -288 -111 -455 -145 -38 -9 -83 -19 -100 -24 -42 -12 -235
-34 -241 -27 -3 3 39 49 93 104 54 54 114 118 133 142 19 24 41 50 48 58 25
24 98 137 111 171 8 17 17 32 22 32 11 0 95 177 104 220 4 19 11 41 15 50 46
93 69 375 36 429 -19 29 -68 -57 -81 -139 -3 -25 -13 -63 -20 -85 -7 -22 -17
-60 -22 -83 l-8 -44 -40 39 c-49 48 -95 111 -95 130 0 11 12 14 52 11 43 -2
53 0 56 15 3 14 -4 17 -44 17 l-47 0 7 53 c3 28 6 78 6 110 l0 58 33 -5 c31
-6 452 -11 1467 -21 278 -3 647 -8 820 -11 564 -12 609 -10 610 27 0 3 -186 7
-412 9 -506 4 -587 5 -1107 19 -228 6 -424 8 -436 5 -12 -3 -41 0 -64 6 -23 6
-168 13 -338 16 -163 2 -299 6 -301 9 -2 2 -1 63 3 136 l7 131 381 -6 c323 -5
385 -8 411 -22 22 -12 69 -18 162 -21 110 -5 133 -3 146 11 15 14 41 14 270 5
214 -10 260 -14 298 -31 58 -25 270 -46 270 -26 0 4 8 8 17 8 9 0 24 7 33 15
15 14 38 14 191 4 96 -6 269 -14 384 -18 180 -6 212 -5 223 8 23 28 14 47 -30
60 -24 7 -61 21 -83 31 -22 10 -49 20 -60 22 -17 3 -21 13 -25 68 -5 63 -6 65
-35 70 -29 5 -30 7 -33 64 -2 33 4 213 12 400 9 188 16 425 16 528 0 102 3
188 8 190 4 2 19 21 35 44 45 66 36 171 -19 234 -12 14 -24 44 -27 67 -5 42
-25 73 -46 73 -6 0 -11 4 -11 9 0 4 -20 19 -45 32 -30 16 -46 32 -50 49 -7 32
-29 65 -81 123 -29 32 -43 59 -48 88 -5 29 -18 53 -42 77 -34 34 -36 38 -30
86 12 93 7 309 -8 393 -32 174 -100 324 -187 414 -27 27 -49 54 -49 59 0 4
-12 13 -27 19 -16 6 -47 22 -71 36 -23 14 -47 23 -53 19 -6 -3 4 -13 20 -22
66 -36 139 -97 174 -146 21 -28 47 -63 59 -78 40 -49 81 -176 112 -348 18 -95
22 -310 6 -310 -5 0 -12 12 -16 28 -3 15 -9 36 -14 47 -5 11 -18 54 -29 95
-12 41 -30 87 -41 102 -11 15 -20 41 -20 57 0 16 -5 33 -11 36 -5 4 -8 12 -6
18 11 33 -82 228 -123 257 -14 10 -43 34 -64 54 -42 38 -101 65 -93 43 2 -6
11 -13 19 -15 22 -4 128 -104 128 -119 0 -7 6 -13 13 -13 24 0 105 -183 107
-242 0 -4 -15 1 -32 12 -18 11 -42 24 -53 29 -11 5 -35 23 -54 40 -19 17 -43
31 -53 31 -10 0 -18 4 -18 9 0 5 -15 12 -34 15 -38 7 -46 20 -46 75 0 20 -7
46 -14 57 -26 37 -17 154 20 264 9 25 18 56 21 70 2 14 9 35 15 47 6 12 8 43
6 68 -3 25 -1 63 4 83 5 20 14 59 18 87 5 27 14 51 20 53 17 6 11 64 -7 78
-23 17 -28 17 -47 -2 -15 -14 -16 -14 -16 5 0 12 -9 29 -20 38 -11 10 -20 21
-20 25 0 11 136 10 370 -2z m-690 -17 c0 -5 -13 -27 -29 -50 l-28 -41 -26 30
c-39 44 -35 56 21 61 26 2 50 4 55 5 4 1 7 -1 7 -5z m115 -46 c7 -18 16 -39
18 -48 4 -12 17 -16 52 -14 38 1 51 7 70 31 14 16 24 34 25 40 0 13 25 26 34
17 3 -3 -1 -17 -8 -32 -8 -14 -11 -41 -8 -60 3 -25 2 -32 -8 -26 -9 6 -9 3 -1
-14 7 -11 17 -21 24 -20 9 0 9 2 0 6 -7 2 -13 9 -13 14 0 4 7 6 15 2 18 -6 53
22 66 52 6 15 8 16 8 4 1 -29 -29 -90 -56 -114 -25 -20 -26 -25 -15 -56 11
-33 12 -33 8 -4 -4 27 17 75 28 64 4 -4 -13 -111 -19 -117 -2 -2 -11 1 -22 7
-24 14 -110 41 -128 41 -8 0 -15 5 -15 10 0 6 -23 10 -52 9 -52 -1 -52 -1 -18
-10 19 -5 58 -14 86 -19 28 -6 74 -22 103 -35 49 -24 51 -27 51 -65 0 -22 -2
-40 -5 -40 -2 0 -25 13 -51 30 -26 16 -72 34 -103 40 -31 6 -66 16 -78 22 -26
13 -152 6 -161 -9 -4 -5 -24 -13 -45 -17 -21 -4 -59 -18 -84 -32 -25 -13 -47
-23 -47 -22 -1 2 -7 13 -14 26 -11 19 -11 27 -1 39 18 21 88 55 99 48 6 -3 10
-2 10 4 0 12 50 26 140 40 l65 10 -88 -4 c-48 -2 -98 -10 -111 -17 -136 -76
-141 -75 -145 4 -1 25 -9 73 -16 105 -7 32 -12 59 -11 61 5 4 71 -60 71 -69 0
-4 4 -11 9 -16 5 -4 6 -3 3 3 -4 7 0 15 9 18 12 4 15 2 10 -9 -9 -23 0 -18 20
13 15 23 15 25 1 13 -21 -17 -21 -12 -1 28 10 20 14 44 10 62 -3 16 -1 29 4
29 6 0 10 -4 10 -9 0 -4 17 -26 37 -47 21 -21 36 -46 35 -54 -2 -11 -1 -12 5
-3 5 7 23 13 41 15 18 1 40 11 50 22 9 11 11 16 5 12 -24 -14 -13 19 18 57 26
31 33 35 50 26 11 -5 26 -25 34 -42z m-325 -43 c0 -27 -28 -14 -33 16 -6 26
-11 30 -37 30 -33 0 -80 -38 -80 -64 0 -8 8 -30 19 -48 10 -18 24 -75 31 -127
7 -51 16 -107 21 -124 5 -18 5 -35 0 -40 -9 -9 9 -57 22 -57 5 0 5 -4 2 -10
-13 -21 -17 -131 -5 -145 14 -17 9 -74 -15 -165 -22 -82 -38 -100 -85 -100
-26 0 -45 -8 -64 -25 -15 -14 -33 -25 -41 -25 -7 0 -15 -3 -17 -7 -2 -5 -31
-23 -66 -40 -57 -30 -62 -31 -62 -13 0 31 76 195 106 230 63 72 132 129 172
141 40 12 59 39 27 39 -8 0 -15 -4 -15 -9 0 -5 -18 -16 -39 -25 -22 -8 -56
-31 -75 -51 -20 -20 -36 -33 -36 -30 0 10 -57 -59 -78 -95 -53 -91 -63 -116
-69 -178 -4 -39 -13 -72 -22 -82 -40 -41 -86 -105 -107 -148 l-22 -47 -1 55
c-1 88 44 325 68 353 5 7 19 36 30 65 12 29 30 63 41 74 11 12 20 27 20 32 0
6 17 28 38 49 37 38 46 46 85 82 21 19 114 69 150 79 22 7 22 26 1 26 -45 0
-150 -68 -230 -149 -46 -46 -81 -88 -78 -92 2 -4 -1 -11 -7 -14 -6 -4 -19 -27
-29 -51 -11 -24 -24 -44 -30 -44 -5 0 -10 -8 -10 -19 0 -10 -6 -34 -14 -53 -8
-19 -18 -58 -22 -87 -4 -28 -11 -54 -15 -57 -5 -3 -9 -66 -9 -141 0 -128 -1
-138 -27 -187 -15 -28 -35 -62 -45 -75 -10 -13 -18 -31 -18 -39 0 -9 -6 -23
-13 -31 -7 -9 -21 -41 -32 -71 -10 -30 -28 -68 -41 -85 -31 -42 -74 -149 -74
-182 1 -15 7 -44 14 -64 12 -36 12 -38 -31 -94 -40 -54 -43 -63 -43 -118 0
-47 6 -70 26 -105 l26 -44 -17 -322 c-9 -176 -16 -404 -16 -506 -1 -102 -4
-194 -8 -205 -4 -10 -3 -31 2 -45 13 -35 0 -99 -21 -107 -24 -9 -32 -23 -32
-61 0 -57 -20 -76 -90 -87 -3 0 -42 -11 -86 -24 -99 -28 -104 -36 -111 -174
-6 -92 -7 -98 -29 -102 -13 -3 -36 -8 -51 -11 -16 -4 -42 -8 -59 -11 -17 -2
-53 -7 -80 -11 -46 -7 -49 -9 -60 -47 -7 -22 -13 -86 -13 -142 -1 -114 -10
-127 -48 -70 -13 17 -36 46 -53 64 -16 18 -30 36 -30 41 0 4 -13 23 -28 40
-16 18 -38 49 -48 69 -10 21 -26 44 -35 53 -18 17 -109 166 -109 179 0 4 -13
26 -28 47 -15 21 -38 62 -49 90 -12 27 -38 79 -58 115 -53 93 -100 213 -120
307 -3 17 -10 32 -14 32 -16 0 -78 277 -111 505 -26 175 -22 431 10 630 12 72
24 151 29 177 4 25 12 52 18 60 6 7 14 35 18 62 3 27 10 56 15 65 16 32 60
139 60 147 0 8 31 80 55 127 8 16 15 34 15 41 0 7 11 22 25 32 14 10 30 33 35
50 6 18 17 35 25 38 8 3 15 13 15 23 0 10 18 41 40 68 21 28 46 65 54 83 8 17
19 32 24 32 5 0 15 12 23 27 8 15 30 43 49 64 78 82 90 96 90 107 0 7 4 12 10
12 5 0 34 24 63 53 54 53 140 125 192 162 15 11 44 34 64 51 20 17 46 34 57
38 12 4 34 18 49 32 25 23 85 59 170 103 17 8 49 27 73 42 23 15 68 37 100 49
31 12 84 35 117 50 33 16 83 36 110 45 28 9 59 20 70 25 11 5 47 16 80 25 33
9 103 30 155 46 52 16 142 38 200 48 l105 17 12 -24 c7 -13 13 -31 13 -38z
m210 -8 c0 -3 -4 -8 -10 -11 -5 -3 -10 -1 -10 4 0 6 5 11 10 11 6 0 10 -2 10
-4z m215 -281 c17 -7 40 -16 53 -20 12 -3 22 -10 22 -15 0 -5 9 -12 21 -15 11
-4 18 -9 15 -13 -5 -4 -71 23 -138 59 -22 11 -174 11 -253 0 -42 -6 -76 -20
-115 -45 -30 -20 -58 -36 -62 -36 -18 0 -6 21 16 29 13 5 26 16 29 24 7 19
108 49 187 56 74 7 181 -5 225 -24z m-84 -27 c17 -32 73 -85 98 -93 19 -6 21
-14 21 -106 0 -54 -3 -99 -8 -99 -4 0 -13 -13 -20 -30 -14 -31 -32 -40 -32
-16 0 8 -18 23 -40 34 -30 15 -36 21 -24 26 12 5 14 13 8 34 -4 15 -10 49 -13
76 l-6 49 -14 -27 c-13 -24 -13 -32 2 -73 14 -37 15 -48 5 -55 -19 -12 -34
-10 -48 7 -7 8 -17 15 -23 15 -5 0 -2 -9 8 -20 18 -20 17 -20 -8 -20 -14 0
-42 -9 -61 -21 -31 -18 -38 -19 -62 -6 -43 22 -68 129 -48 204 7 24 42 41 53
26 7 -12 121 -26 121 -16 0 15 -61 35 -88 30 l-27 -5 30 22 c16 11 43 36 60
53 38 42 97 47 116 11z m-298 -179 c8 -13 6 -21 -7 -34 -16 -17 -16 -18 4 -32
24 -17 27 -53 5 -53 -28 0 -68 113 -48 134 11 11 35 3 46 -15z m459 -59 c-2
-22 -8 -40 -13 -40 -10 0 -12 83 -2 93 12 13 19 -11 15 -53z m-159 -122 c21
-25 21 -32 1 -49 -14 -11 -18 -10 -30 5 -7 11 -11 23 -8 27 11 19 -30 8 -47
-12 -11 -13 -25 -19 -34 -15 -24 9 -14 40 15 44 14 2 29 10 33 18 11 19 46 9
70 -18z m2704 -18 c8 -12 9 -21 3 -25 -27 -17 -3 -75 53 -124 9 -8 17 -21 17
-27 0 -12 48 -64 59 -64 4 0 28 19 54 43 36 32 45 47 41 64 -4 16 0 23 16 28
26 8 32 4 30 -21 -5 -56 0 -133 11 -170 13 -42 13 -42 66 -46 49 -3 54 -1 60
20 6 26 38 46 59 38 24 -9 16 -44 -13 -58 -20 -9 -31 -26 -41 -60 -13 -46 -24
-58 -37 -39 -3 6 1 13 8 18 8 4 17 20 21 35 6 27 6 28 -36 24 -24 -2 -49 -4
-56 -5 -7 -1 -17 -11 -22 -23 l-9 -23 0 23 c-1 23 -16 31 -23 11 -2 -6 -16 2
-31 17 -30 30 -38 70 -11 60 9 -3 20 -6 26 -6 6 0 8 -6 5 -14 -3 -8 1 -17 9
-20 19 -7 18 22 -2 63 -14 29 -17 30 -28 15 -12 -16 -13 -15 -19 5 -4 16 -1
21 14 21 10 0 19 7 19 15 0 21 -17 19 -59 -7 -20 -13 -40 -23 -46 -23 -10 0
-10 -11 1 -57 4 -18 2 -28 -5 -28 -6 0 -11 9 -11 19 0 27 -28 34 -41 10 -6
-13 -18 -19 -31 -17 -30 4 -33 23 -5 35 13 6 26 20 29 30 7 28 -24 88 -45 87
-9 -1 -17 2 -17 7 0 5 -4 9 -10 9 -5 0 -10 -16 -10 -35 0 -19 -4 -35 -10 -35
-5 0 -10 -4 -10 -9 0 -5 9 -7 20 -4 16 4 20 0 20 -21 0 -32 -23 -35 -47 -6
-10 11 -25 20 -35 20 -19 0 -38 28 -31 48 6 17 23 15 23 -3 0 -8 7 -15 16 -15
11 0 14 5 10 16 -3 9 -6 27 -6 40 0 13 -5 24 -10 24 -18 0 -48 -34 -55 -62 -4
-15 -13 -32 -20 -38 -17 -14 -9 -44 17 -67 15 -13 22 -15 25 -5 6 17 23 15 23
-3 0 -19 -50 -20 -69 -2 -10 10 -16 8 -28 -10 -27 -40 -40 -29 -33 27 6 50 6
51 -27 67 -36 17 -53 12 -35 -10 7 -8 9 -16 6 -20 -3 -3 4 -8 15 -12 15 -4 21
-15 21 -36 0 -26 -3 -29 -30 -29 -25 0 -30 -4 -30 -24 0 -29 -40 -44 -53 -20
-12 21 -28 7 -21 -21 3 -12 1 -26 -5 -29 -7 -5 -11 2 -11 16 0 34 -11 45 -53
53 -27 5 -37 12 -37 26 0 15 7 19 38 19 40 0 33 -9 95 128 8 16 7 26 -1 34
-22 22 -14 48 13 48 21 0 25 -5 25 -28 0 -29 21 -54 73 -87 l28 -18 32 37 c18
21 53 61 79 89 44 49 61 87 38 87 -16 0 -12 22 8 36 23 18 25 17 39 -6z
m-2894 -134 c46 -42 68 -55 101 -59 49 -7 86 0 86 17 0 6 9 17 20 24 17 11 20
10 20 -7 0 -32 12 -55 21 -40 6 10 11 10 23 0 26 -22 19 -55 -16 -76 -27 -16
-56 -21 -159 -23 -118 -4 -130 -2 -178 21 -28 13 -51 20 -51 16 0 -16 109 -60
172 -70 74 -12 161 -4 179 17 13 16 39 19 39 5 0 -28 -135 -79 -231 -87 -53
-5 -59 -3 -87 24 -17 16 -34 31 -39 33 -14 6 -52 77 -45 84 4 4 7 25 7 48 0
38 2 42 27 45 24 3 29 9 34 43 4 21 9 39 13 39 3 -1 32 -25 64 -54z m3245 0
c15 -8 36 -25 47 -38 12 -13 34 -33 50 -45 28 -21 29 -22 8 -23 -13 0 -23 -4
-23 -10 0 -5 -6 -10 -13 -10 -8 0 -19 -11 -25 -25 -8 -16 -20 -25 -35 -25 -19
0 -26 8 -37 43 -8 23 -20 49 -27 58 -17 21 -17 46 2 53 8 3 15 12 15 21 0 19
4 19 38 1z m-3528 -61 c0 -41 20 -94 50 -132 37 -47 3 -58 -56 -18 -20 14 -41
25 -47 25 -14 0 65 -59 79 -60 6 0 11 -20 11 -46 0 -32 5 -51 16 -59 14 -10
14 -13 -4 -28 -10 -9 -19 -25 -19 -34 0 -14 4 -12 17 7 22 32 33 39 50 33 20
-8 8 -52 -38 -143 -70 -138 -182 -229 -315 -255 -25 -5 -32 -2 -42 17 -7 13
-27 32 -45 43 -43 26 -57 31 -32 11 61 -49 70 -58 50 -50 -11 4 -40 9 -65 10
-42 3 -43 2 -10 -5 19 -4 46 -13 59 -20 19 -11 25 -11 33 0 8 11 9 11 5 -1 -6
-20 11 -50 28 -50 8 0 19 -9 25 -19 9 -18 8 -19 -23 -10 -43 12 -130 -7 -156
-35 -23 -25 -61 -96 -61 -113 0 -8 -14 -13 -39 -13 -21 0 -58 -3 -83 -6 -43
-6 -45 -5 -50 21 -3 14 -2 57 2 94 8 71 42 139 106 207 43 46 65 74 57 74 -4
0 -19 -15 -34 -32 -21 -25 -28 -29 -29 -15 0 9 4 17 9 17 5 0 12 14 16 30 4
17 12 36 18 43 17 18 77 137 77 154 0 7 6 16 14 19 8 3 18 19 21 35 4 16 10
29 14 29 4 0 25 26 47 58 72 106 172 190 209 176 6 -3 28 13 48 36 25 26 47
40 62 40 22 0 25 -4 25 -35z m748 -6 c17 -6 34 -19 37 -30 4 -10 13 -19 22
-19 30 0 89 -35 128 -76 55 -58 75 -86 75 -101 0 -8 6 -24 14 -36 13 -21 38
-116 51 -197 l6 -35 -18 23 c-10 12 -26 33 -35 45 -10 12 -17 17 -18 11 0 -6
11 -24 25 -40 14 -16 25 -33 25 -37 0 -4 20 -28 45 -53 39 -40 95 -135 95
-163 0 -6 -12 -6 -32 -1 -18 5 -58 11 -88 14 l-55 6 45 -15 c25 -8 62 -15 83
-15 20 0 37 -4 37 -9 0 -5 10 -13 23 -17 22 -6 76 -53 77 -65 0 -4 -17 -1 -37
7 -21 7 -53 13 -72 14 -42 0 -221 -48 -241 -65 -8 -7 -47 -16 -87 -19 -65 -6
-82 -4 -165 25 -51 17 -100 37 -109 45 -8 8 -19 14 -24 14 -24 0 -202 171
-245 235 -19 28 -37 52 -40 55 -4 3 -19 32 -34 65 -15 33 -31 62 -35 65 -4 3
-11 17 -15 33 -10 40 27 38 44 -3 7 -17 22 -37 34 -45 11 -8 17 -15 12 -15 -4
0 4 -14 18 -31 14 -17 26 -34 26 -39 0 -5 27 -37 60 -72 33 -34 60 -66 60 -70
0 -16 160 -107 189 -108 8 0 19 -6 25 -14 6 -8 34 -17 61 -20 39 -4 43 -4 18
3 -18 5 -39 13 -46 19 -7 6 -39 20 -72 33 -33 12 -74 32 -92 45 -17 13 -36 24
-41 24 -5 0 -22 17 -38 37 -15 20 -47 56 -70 79 -23 24 -54 63 -70 87 -16 24
-42 62 -57 84 -29 42 -28 80 2 68 32 -13 138 -23 211 -21 74 3 180 30 180 47
0 4 15 22 33 40 30 29 21 32 -13 3 -41 -34 -115 -65 -163 -69 -39 -4 -44 -3
-22 3 33 9 71 30 93 50 7 6 18 12 23 12 5 0 30 19 55 43 41 39 46 48 51 100 3
31 10 57 15 57 5 0 6 5 3 10 -8 13 -5 12 33 -1z m2439 -11 c-3 -8 -6 -5 -6 6
-1 11 2 17 5 13 3 -3 4 -12 1 -19z m43 -39 c0 -5 -4 -9 -10 -9 -5 0 -10 7 -10
16 0 8 5 12 10 9 6 -3 10 -10 10 -16z m-579 -19 c6 -16 17 -30 24 -30 8 0 14
-24 18 -72 5 -62 10 -76 32 -96 41 -35 65 -117 65 -222 0 -49 -2 -90 -5 -90
-17 0 -70 62 -91 106 -28 59 -30 74 -9 74 9 0 15 -9 15 -24 0 -27 24 -51 40
-41 8 5 11 -2 8 -21 -2 -15 2 -29 10 -31 13 -5 17 24 13 87 -3 46 -20 100 -32
100 -5 0 -15 12 -21 26 -11 24 -13 25 -26 7 -13 -16 -13 -13 -7 30 7 50 1 58
-22 30 -8 -10 -12 -12 -8 -5 12 23 -6 120 -27 141 -12 14 -17 29 -13 41 9 29
24 25 36 -10z m-2011 11 c0 -6 -4 -13 -10 -16 -5 -3 -10 1 -10 9 0 9 5 16 10
16 6 0 10 -4 10 -9z m2432 -33 c-9 -9 -12 -7 -12 12 0 19 3 21 12 12 9 -9 9
-15 0 -24z m298 12 c0 -5 -7 -10 -16 -10 -14 0 -14 -2 1 -16 13 -13 13 -19 3
-31 -11 -13 -13 -11 -20 13 -6 22 -4 32 9 42 20 15 23 15 23 2z m363 -27 c53
-57 105 -103 116 -103 6 0 17 -11 23 -25 6 -14 15 -25 19 -25 15 0 195 -185
264 -270 37 -47 74 -92 81 -100 34 -37 62 -77 68 -96 3 -11 20 -34 36 -51 16
-17 38 -48 48 -69 9 -22 30 -58 45 -81 15 -24 27 -49 27 -57 0 -8 4 -17 9 -20
11 -7 61 -102 61 -116 0 -9 22 -60 75 -175 19 -40 69 -220 90 -320 9 -44 23
-98 30 -120 21 -61 44 -227 50 -355 3 -63 8 -137 10 -165 6 -54 -9 -286 -24
-400 -24 -173 -29 -203 -38 -221 -6 -10 -18 -53 -28 -94 -23 -100 -68 -229
-109 -315 -19 -38 -52 -108 -74 -155 -25 -52 -43 -79 -46 -70 -7 20 -54 347
-61 430 -6 62 -35 216 -55 290 -5 19 -21 103 -35 185 -15 83 -31 164 -35 180
-8 26 -25 138 -44 290 -21 163 -70 303 -124 353 -20 19 -31 41 -36 72 -5 34
-17 57 -50 93 -24 26 -50 47 -57 47 -8 0 -23 13 -34 28 -17 23 -20 41 -18 133
l1 106 -44 49 c-42 47 -43 52 -44 114 0 36 -6 76 -14 90 -57 101 -68 136 -66
201 1 68 -16 159 -33 171 -6 3 -14 48 -18 100 -7 98 -25 151 -66 206 -24 32
-25 37 -15 90 19 100 25 116 49 135 13 10 23 29 23 43 0 31 11 30 43 -3z
m-573 -3 c0 -5 -5 -10 -11 -10 -5 0 -7 5 -4 10 3 6 8 10 11 10 2 0 4 -4 4 -10z
m-2966 -56 c23 -23 19 -27 -9 -8 -25 16 -85 12 -85 -7 0 -5 12 -4 26 2 33 12
64 -11 64 -47 0 -58 -89 -48 -101 11 -5 22 -7 24 -8 8 -2 -36 20 -71 47 -78
33 -8 75 22 83 61 l7 29 1 -31 c2 -45 -19 -65 -71 -71 -40 -5 -47 -2 -66 22
-30 38 -30 98 1 113 33 16 93 14 111 -4z m286 -28 c0 -3 -4 -8 -10 -11 -5 -3
-10 -1 -10 4 0 6 5 11 10 11 6 0 10 -2 10 -4z m3044 -11 c3 -9 -3 -19 -16 -26
-11 -6 -18 -7 -16 -2 3 4 8 16 11 26 8 21 13 22 21 2z m-744 -26 c0 -11 -4
-17 -10 -14 -5 3 -10 15 -10 26 0 11 5 17 10 14 6 -3 10 -15 10 -26z m-2503 5
c-3 -3 -12 -4 -19 -1 -8 3 -5 6 6 6 11 1 17 -2 13 -5z m193 -18 c0 -2 -7 -7
-16 -10 -8 -3 -12 -2 -9 4 6 10 25 14 25 6z m3080 -21 c0 -8 5 -15 10 -15 6 0
10 -5 10 -12 0 -6 -9 -3 -20 7 -22 20 -26 35 -10 35 6 0 10 -7 10 -15z m-3369
-102 c25 -79 151 -279 181 -289 10 -3 18 -10 18 -15 0 -5 16 -19 35 -30 19
-12 35 -26 35 -33 0 -14 121 -95 166 -111 17 -6 38 -16 46 -23 8 -6 29 -15 47
-18 26 -6 30 -10 25 -28 -10 -32 -16 -36 -72 -43 -50 -6 -51 -5 -45 18 6 23 6
23 -18 -4 l-24 -28 -155 -5 c-192 -5 -308 8 -374 42 -36 18 -45 20 -35 8 13
-16 11 -17 -25 -10 -45 9 -82 31 -96 57 -13 23 -13 42 -1 34 10 -5 6 33 -9
106 -7 33 -4 39 23 60 75 59 164 170 190 237 10 24 26 52 36 63 18 20 19 20
19 -6 0 -14 -8 -31 -17 -38 -20 -14 -22 -60 -3 -79 16 -16 15 -28 -3 -28 -9 0
-15 -10 -16 -27 -2 -66 -7 -110 -14 -136 -13 -50 17 -91 52 -69 19 12 24 80 8
96 -10 10 -11 16 -2 25 8 8 8 11 -1 11 -7 0 -12 7 -12 15 0 8 3 15 8 15 4 0 8
58 8 130 1 71 -2 127 -7 124 -5 -3 -9 0 -9 5 0 27 30 7 41 -26z m2489 3 c0 -8
-4 -18 -10 -21 -5 -3 -10 3 -10 14 0 12 5 21 10 21 6 0 10 -6 10 -14z m77 -68
c-3 -8 -6 -5 -6 6 -1 11 2 17 5 13 3 -3 4 -12 1 -19z m-2602 -7 c3 -5 1 -12
-5 -16 -5 -3 -10 1 -10 9 0 18 6 21 15 7z m2795 -124 c14 -8 52 -19 85 -26 33
-7 92 -20 130 -29 51 -12 111 -17 217 -16 136 1 150 3 195 26 29 16 53 37 63
56 18 38 30 41 30 8 0 -68 -71 -125 -180 -147 -70 -14 -293 -7 -355 11 -22 6
-65 18 -95 27 -57 16 -84 26 -110 42 -8 5 -32 17 -52 26 -39 16 -59 41 -51 62
4 12 59 -6 123 -40z m-2795 3 c-3 -5 -10 -10 -16 -10 -5 0 -9 5 -9 10 0 6 7
10 16 10 8 0 12 -4 9 -10z m-15 -80 c0 -5 -5 -10 -11 -10 -5 0 -7 5 -4 10 3 6
8 10 11 10 2 0 4 -4 4 -10z m13 -51 c7 -27 -1 -49 -18 -49 -20 0 -28 18 -21
46 8 30 32 32 39 3z m-308 -50 c10 -32 13 -139 3 -139 -4 0 -8 9 -8 19 0 11
-10 32 -22 48 -23 28 -48 69 -48 77 0 5 28 13 52 15 9 0 20 -8 23 -20z m2834
-65 c-8 -10 -9 -33 -3 -81 8 -67 7 -130 -3 -146 -3 -5 -12 1 -20 13 -11 16
-13 35 -8 73 4 29 7 80 8 114 2 56 4 60 20 51 15 -7 16 -12 6 -24z m41 -70 c0
-74 -16 -69 -19 7 -1 41 1 59 8 54 6 -3 11 -31 11 -61z m-3125 27 c-3 -6 -11
-11 -16 -11 -5 0 -4 6 3 14 14 16 24 13 13 -3z m152 4 c17 -9 37 -22 44 -31 7
-9 33 -26 58 -39 25 -13 56 -34 68 -47 30 -32 65 -117 58 -139 -7 -21 -45 -26
-45 -6 0 7 -9 31 -20 53 -12 23 -18 29 -14 14 3 -14 10 -29 15 -34 5 -6 9 -23
9 -38 0 -24 -4 -28 -29 -28 -16 0 -31 -6 -35 -15 -11 -30 -37 -15 -62 38 -13
28 -21 41 -18 27 4 -14 13 -37 20 -52 18 -34 18 -48 0 -48 -15 0 -76 68 -76
85 0 5 -14 18 -30 27 -21 12 -30 25 -30 42 0 39 -17 74 -39 81 -31 10 -26 28
22 79 48 50 59 53 104 31z m1310 -36 c-12 -24 -20 -60 -19 -86 l0 -44 -31 6
c-18 4 -41 16 -53 26 -11 10 -25 19 -32 19 -6 0 -25 13 -42 29 l-32 29 48 7
c27 3 74 17 104 30 77 32 80 31 57 -16z m220 19 c10 -8 11 -13 3 -18 -6 -4 10
-10 35 -13 30 -5 62 -18 88 -39 23 -17 43 -32 43 -32 8 -4 13 -46 5 -46 -5 0
-13 9 -16 20 -8 25 -79 74 -97 67 -8 -4 -7 -6 5 -6 9 -1 17 -4 17 -9 0 -4 10
-12 22 -17 28 -13 56 -55 37 -55 -8 0 -26 11 -41 25 -32 30 -49 33 -23 5 10
-11 16 -22 13 -25 -3 -3 -35 0 -71 8 -38 8 -72 10 -81 5 -10 -6 -19 -3 -26 9
-10 15 -10 14 -5 -7 16 -60 16 -76 1 -89 -14 -12 -17 -9 -22 18 -4 17 -10 31
-14 31 -5 0 -11 15 -15 33 -3 17 -11 44 -16 59 -10 23 -7 30 28 62 34 33 42
36 78 31 21 -3 45 -11 52 -17z m-403 -98 c9 0 23 -11 32 -25 9 -14 27 -28 40
-31 22 -6 24 -11 24 -74 0 -93 -5 -103 -38 -86 -15 7 -47 16 -71 20 -30 5 -54
16 -71 35 -24 25 -27 35 -25 92 1 43 7 75 20 96 l19 33 28 -30 c15 -17 34 -30
42 -30z m-1322 -46 c43 -27 68 -74 68 -125 0 -34 -38 -119 -53 -119 -5 0 -16
-9 -25 -20 -22 -27 -103 -36 -156 -18 -23 7 -52 29 -70 51 -25 32 -30 47 -30
90 0 69 20 108 68 130 22 10 46 25 54 34 21 20 93 9 144 -23z m1532 21 c3 -8
1 -15 -4 -15 -6 0 -10 7 -10 15 0 8 2 15 4 15 2 0 6 -7 10 -15z m194 -47 c-2
-6 -14 -18 -26 -26 -21 -14 -22 -13 -22 12 0 21 5 26 26 26 15 0 24 -5 22 -12z
m-176 -14 c19 -4 25 -10 21 -21 -4 -9 1 -19 10 -25 10 -5 17 -15 17 -23 0 -8
7 -18 15 -22 13 -8 14 -35 7 -203 l-7 -195 -17 45 c-9 25 -27 72 -39 105 -24
65 -46 99 -96 148 -32 31 -33 34 -33 120 l0 88 48 -6 c26 -3 59 -9 74 -11z
m377 -28 c60 -32 83 -125 47 -198 -31 -65 -147 -106 -219 -79 -70 27 -107 103
-86 178 14 50 65 109 101 116 40 9 124 -1 157 -17z m-1729 -122 l30 -31 -25
-27 c-14 -15 -25 -29 -25 -31 0 -17 -37 -85 -46 -85 -6 0 -12 -15 -13 -32 -1
-18 -5 -49 -10 -68 -10 -40 -5 255 5 320 l7 40 23 -27 c14 -16 38 -42 54 -59z
m1013 52 c4 -10 -12 -15 -56 -20 -69 -7 -241 -59 -230 -69 10 -11 42 -8 66 5
52 29 99 40 205 45 92 5 115 3 130 -9 9 -9 27 -19 40 -23 38 -11 121 -96 143
-144 11 -25 20 -48 20 -51 1 -3 6 -11 12 -19 19 -22 20 -201 3 -453 -17 -255
-21 -275 -42 -257 -7 6 -17 8 -22 5 -6 -3 -9 2 -8 11 1 11 -11 22 -34 30 -39
14 -175 15 -230 1 -19 -4 -55 -11 -80 -14 -25 -3 -47 -9 -50 -14 -7 -11 -160
-30 -243 -30 -73 0 -177 16 -212 32 -19 8 -61 19 -217 54 -60 14 -75 14 -150
0 -46 -9 -84 -20 -86 -26 -2 -5 -8 -10 -13 -10 -12 0 0 191 12 204 5 6 9 30 9
55 0 26 8 90 17 144 17 95 18 98 42 92 23 -6 134 27 156 47 5 4 22 8 37 8 16
0 36 4 46 8 9 5 30 15 46 23 36 17 45 39 17 39 -12 0 -21 -4 -21 -9 0 -5 -17
-12 -37 -15 -60 -11 -74 -17 -67 -28 4 -6 2 -8 -4 -4 -6 3 -40 -3 -76 -15 -71
-23 -116 -20 -116 9 0 9 -9 23 -20 30 -17 10 -21 10 -27 -4 -3 -9 -2 -19 4
-23 16 -10 15 -99 -2 -206 -9 -55 -20 -145 -25 -200 -12 -127 -18 -155 -35
-155 -7 0 -21 -3 -29 -6 -15 -6 -16 7 -11 122 4 71 17 190 31 264 13 74 26
152 29 172 4 24 12 38 23 40 13 3 17 14 17 59 0 46 8 70 45 142 24 48 47 87
51 87 4 0 20 13 35 29 40 40 109 54 177 34 70 -20 171 -42 175 -39 4 5 -80 34
-126 45 -24 5 -45 11 -47 13 -2 2 92 2 208 0 117 -2 275 1 352 5 150 9 161 8
168 -11z m-1173 -448 c-19 -196 -22 -278 -18 -560 l3 -331 -89 7 c-49 3 -114
6 -144 6 l-55 0 8 258 c4 141 9 286 11 322 2 36 7 180 11 320 l8 255 25 -4
c103 -14 224 6 247 41 16 26 14 -90 -7 -314z m1690 204 c48 -24 120 -29 164
-12 l26 10 0 -78 c0 -42 -5 -248 -11 -457 -6 -209 -11 -429 -12 -490 -3 -129
9 -120 -144 -110 l-103 7 0 90 c0 66 4 93 15 104 18 18 20 119 5 259 -16 159
-25 298 -25 385 1 96 26 334 34 323 3 -5 26 -18 51 -31z m-130 -309 c5 -59 15
-160 23 -223 8 -63 15 -140 16 -171 l2 -56 -47 -7 c-26 -3 -50 -4 -52 -1 -3 3
0 51 6 108 7 56 15 187 19 290 7 210 20 234 33 60z m1403 20 c-3 -10 -12 -25
-18 -33 -36 -43 -28 -167 12 -204 28 -27 28 -57 -1 -131 -17 -46 -21 -158 -6
-201 10 -28 42 -53 104 -81 16 -8 44 -29 63 -48 31 -32 33 -39 33 -100 0 -74
11 -98 75 -160 53 -51 61 -80 34 -124 -11 -18 -18 -40 -15 -47 7 -19 50 -18
66 1 7 8 18 15 24 15 6 0 28 25 49 55 l39 56 36 -32 c76 -64 102 -99 102 -138
0 -30 -5 -39 -30 -53 -33 -19 -39 -42 -14 -52 32 -12 173 21 197 47 46 48 71
94 75 138 3 32 8 46 17 43 19 -8 47 -75 50 -122 4 -54 8 -58 42 -43 29 13 72
71 74 99 0 10 7 3 15 -15 7 -18 24 -38 36 -44 12 -7 29 -18 36 -26 7 -7 24
-13 37 -13 24 0 24 0 23 -117 0 -73 -5 -121 -12 -128 -17 -17 -77 -42 -119
-49 l-37 -7 19 38 c23 46 35 83 26 83 -13 0 -40 -34 -57 -72 -27 -61 -59 -69
-297 -80 -120 -5 -249 -5 -312 0 -105 9 -109 10 -143 44 -20 20 -36 41 -36 47
0 6 -4 11 -9 11 -5 0 -12 12 -14 28 -3 22 -4 20 -6 -10 0 -20 3 -48 9 -62 l10
-26 -38 16 c-20 9 -46 19 -57 24 -36 14 -46 33 -35 71 16 54 12 97 -19 220
-16 63 -32 134 -35 159 l-6 45 18 -35 c23 -47 50 -85 57 -79 7 8 -25 99 -36
99 -5 0 -9 10 -9 23 0 13 -4 27 -9 32 -6 6 -12 70 -14 143 -5 153 -21 193 -31
80 -4 -40 -10 -100 -13 -133 -3 -33 -9 -107 -13 -165 -4 -58 -13 -136 -19
-175 -16 -99 -50 -283 -62 -330 -6 -22 -14 -60 -20 -85 -5 -24 -14 -49 -19
-54 -6 -6 -10 -17 -10 -25 0 -9 -7 -29 -16 -46 -8 -16 -21 -52 -29 -80 -13
-52 -90 -213 -110 -230 -16 -14 -49 -94 -43 -101 3 -3 12 2 19 10 8 9 29 31
47 50 17 19 32 42 32 50 0 8 9 20 20 26 11 6 20 18 20 26 0 9 6 28 14 42 8 15
18 36 22 47 16 43 16 -16 0 -94 -9 -43 -16 -94 -16 -114 0 -19 -4 -57 -10 -84
-5 -26 -19 -100 -31 -163 -11 -63 -29 -131 -38 -150 -10 -19 -25 -64 -35 -100
-10 -36 -22 -70 -27 -75 -7 -10 -12 -25 -39 -135 -6 -25 -17 -54 -25 -66 -7
-11 -19 -41 -25 -65 -18 -67 -77 -189 -105 -217 -22 -22 -27 -23 -43 -10 -9 7
-34 23 -54 33 -32 16 -38 25 -38 51 0 22 -10 41 -35 67 -29 30 -35 43 -35 79
0 36 -5 48 -30 70 -25 22 -28 30 -23 61 6 41 -24 137 -43 137 -21 0 -27 40
-10 59 23 25 19 87 -8 145 -19 41 -21 56 -14 90 20 91 21 184 4 220 -26 55
-29 88 -12 136 19 56 20 117 1 150 -30 52 -19 99 40 185 30 44 61 92 67 108 7
15 16 27 21 27 4 0 15 15 23 33 8 17 28 52 44 77 16 25 35 56 42 70 7 14 18
29 25 33 7 4 13 15 13 25 0 24 31 102 41 102 5 0 9 9 9 20 0 11 9 28 20 37 11
10 20 24 20 32 0 8 9 33 19 55 11 23 26 66 34 96 8 30 31 111 52 180 20 69 41
141 46 160 5 19 15 60 22 90 7 30 19 68 25 83 7 16 12 34 12 40 1 7 9 30 20
52 11 22 19 50 20 62 0 12 4 24 10 28 5 3 23 33 40 67 36 70 111 150 179 190
54 32 73 35 64 11z m1537 -263 c0 -13 -1 -13 -10 0 -5 8 -10 22 -10 30 0 13 1
13 10 0 5 -8 10 -22 10 -30z m55 -220 c2 -19 11 -66 19 -105 18 -78 37 -184
42 -230 1 -17 8 -43 13 -59 6 -15 9 -32 5 -37 -3 -5 1 -31 10 -57 29 -93 63
-497 52 -637 -6 -82 -41 -193 -91 -286 -14 -26 -25 -52 -25 -59 0 -16 79 71
80 87 0 6 6 18 14 26 15 14 45 111 66 212 l13 60 12 -41 c6 -22 15 -82 18
-134 4 -51 12 -122 18 -158 10 -55 9 -69 -6 -103 -10 -21 -21 -39 -25 -39 -4
0 -19 -18 -34 -40 -28 -42 -34 -50 -88 -112 -18 -21 -51 -59 -73 -84 -22 -25
-48 -54 -58 -63 -10 -9 -43 -40 -74 -68 -30 -29 -59 -53 -64 -53 -5 0 -9 11
-9 25 0 14 -4 33 -9 43 -13 23 -48 138 -57 187 -4 22 -17 63 -30 92 -13 28
-24 58 -24 65 0 7 -16 49 -35 92 -19 44 -31 84 -28 89 9 16 32 192 33 262 2
88 25 215 35 190 21 -56 61 -135 67 -135 5 0 8 -6 8 -14 0 -8 5 -18 11 -21 14
-9 2 58 -21 111 -9 22 -23 65 -30 95 -7 29 -16 64 -21 77 -16 41 -39 232 -33
270 8 48 9 49 43 57 29 6 54 26 100 81 27 32 35 111 13 137 -7 8 -15 34 -18
59 -6 43 -4 49 33 89 51 57 99 132 114 177 12 35 12 36 21 12 5 -13 11 -40 13
-60z m-4508 -37 c-3 -10 -5 -2 -5 17 0 19 2 27 5 18 2 -10 2 -26 0 -35z m317
-38 c124 -32 121 -28 116 -129 -1 -41 2 -61 11 -67 14 -9 20 -99 7 -99 -4 0
-17 13 -29 29 -24 32 -93 57 -128 46 -19 -6 -20 -3 -15 23 5 25 -12 127 -32
195 -6 21 -7 21 70 2z m1233 -27 c-3 -8 -6 -5 -6 6 -1 11 2 17 5 13 3 -3 4
-12 1 -19z m-388 -54 c-12 -27 -25 -51 -28 -54 -8 -7 -31 -73 -31 -91 0 -10
-11 -15 -37 -16 -21 -1 -40 -7 -44 -16 -5 -8 -19 -17 -31 -21 -25 -6 -59 -55
-68 -96 -8 -39 -25 -29 -28 17 -2 26 2 46 11 55 10 8 13 25 9 50 -3 26 1 46
16 70 11 18 23 51 27 74 l6 41 107 20 c59 11 108 19 110 18 1 -1 -7 -24 -19
-51z m-1099 16 c0 -5 17 -10 38 -10 20 0 54 -3 74 -6 34 -6 39 -11 48 -45 11
-41 5 -82 -16 -114 -8 -11 -14 -27 -14 -37 0 -9 -9 -22 -20 -28 -11 -6 -20
-19 -20 -30 0 -28 -28 -38 -92 -33 l-58 5 0 55 c0 35 -5 60 -15 69 -11 11 -15
38 -15 100 l0 84 45 0 c25 0 45 -4 45 -10z m524 -51 c17 -5 93 -6 178 -3 145
7 148 7 148 -14 0 -11 -11 -34 -25 -50 -16 -20 -25 -42 -25 -65 0 -20 -4 -39
-10 -42 -5 -3 -10 -28 -10 -55 l0 -49 -151 -3 c-135 -3 -152 -1 -160 14 -5 10
-7 29 -3 43 3 14 2 31 -4 38 -6 6 -13 33 -17 60 -4 26 -11 50 -16 53 -5 3 -9
25 -9 49 l0 44 38 -5 c20 -3 50 -10 66 -15z m936 -34 c0 -16 -3 -53 -6 -82 -6
-46 -9 -52 -35 -57 -28 -5 -29 -7 -29 -72 l0 -66 -67 7 c-92 9 -100 12 -119
44 -9 16 -29 36 -45 45 -15 9 -33 32 -39 51 -6 19 -16 35 -21 35 -14 0 -11 24
11 73 24 53 17 52 223 52 l127 1 0 -31z m-1160 -124 c26 -7 70 -63 70 -90 0
-10 -8 -4 -19 15 -19 31 -85 60 -119 50 -78 -21 -98 -12 -39 17 34 17 66 19
107 8z m-414 -14 c1 -1 4 -35 6 -74 5 -65 3 -73 -14 -79 -10 -3 -90 -2 -178 2
l-160 7 0 78 0 78 172 -5 c95 -3 173 -6 174 -7z m1164 -7 c0 -5 8 -10 19 -10
10 0 23 -6 29 -12 8 -10 -2 -13 -46 -13 -64 0 -116 -29 -126 -71 -4 -13 -11
-24 -17 -24 -6 0 -8 9 -5 20 3 11 8 29 12 39 3 11 14 23 25 26 10 4 19 10 19
15 0 12 50 39 73 40 9 0 17 -4 17 -10z m-633 -57 c-3 -10 -5 -4 -5 12 0 17 2
24 5 18 2 -7 2 -21 0 -30z m1361 21 l42 -5 -6 -87 c-4 -48 -8 -88 -9 -90 -4
-5 -376 18 -385 23 -6 4 -10 43 -10 89 l0 83 163 -4 c89 -2 181 -6 205 -9z
m-1521 0 c-3 -3 -12 -4 -19 -1 -8 3 -5 6 6 6 11 1 17 -2 13 -5z m-27 -48 c0
-38 -10 -56 -33 -56 -19 0 -19 1 -4 18 21 23 22 33 2 26 -8 -3 -17 -14 -20
-25 -4 -10 -13 -19 -21 -19 -11 0 -12 4 -4 19 17 32 11 34 -15 4 -13 -15 -25
-23 -25 -16 0 7 -7 10 -15 7 -22 -9 -18 12 7 41 18 21 30 25 75 25 49 0 53 -2
53 -24z m85 8 c17 -11 25 -26 25 -45 0 -27 -2 -28 -50 -27 -57 0 -65 6 -47 39
29 56 34 58 72 33z m572 -31 c-3 -10 -5 -4 -5 12 0 17 2 24 5 18 2 -7 2 -21 0
-30z m177 -9 c3 -9 -1 -14 -11 -14 -25 0 -3 -18 27 -22 41 -5 28 -23 -19 -26
-37 -3 -66 5 -99 24 -2 1 2 12 8 24 20 37 82 47 94 14z m113 7 c23 -11 46 -28
52 -39 9 -17 7 -19 -14 -19 -14 0 -25 4 -25 9 0 5 5 6 10 3 6 -3 10 -1 10 4 0
17 -18 13 -29 -6 -7 -11 -14 -14 -18 -8 -5 6 -17 17 -28 25 -19 14 -20 14 -2
-6 9 -11 14 -24 10 -27 -16 -17 -25 -5 -43 56 -8 24 -6 27 13 27 12 0 41 -9
64 -19z m-1145 -16 c-8 -46 -85 -48 -90 -2 -3 26 -2 27 46 27 47 0 49 -1 44
-25z m-534 -12 c-4 -21 -28 -27 -75 -18 -40 7 -38 14 9 25 56 13 70 12 66 -7z
m1275 -12 c4 -16 -3 -20 -42 -25 -25 -3 -97 -3 -159 -1 -62 3 -118 5 -123 5
-5 0 -1 9 9 19 15 17 32 19 163 20 136 1 147 0 152 -18z m3317 -1 c0 -14 -33
-83 -46 -97 -16 -17 -24 -5 -24 36 0 29 6 40 28 53 31 20 42 22 42 8z m-2700
-31 c0 -16 -7 -19 -55 -19 -48 0 -55 3 -55 19 0 17 8 20 48 23 57 4 62 2 62
-23z m560 -23 c23 -10 20 -11 -29 -14 -63 -4 -83 2 -75 22 6 16 58 12 104 -8z
m-972 -11 c-3 -3 -9 2 -12 12 -6 14 -5 15 5 6 7 -7 10 -15 7 -18z m3108 -82
c-11 -11 -19 6 -11 24 8 17 8 17 12 0 3 -10 2 -21 -1 -24z m-1237 -66 c7 -43
12 -117 12 -165 -1 -48 2 -139 6 -202 7 -99 6 -120 -9 -149 -10 -19 -22 -39
-28 -45 -5 -5 -10 -18 -10 -28 0 -9 -11 -41 -25 -70 -13 -29 -29 -71 -34 -93
-20 -79 -40 -144 -50 -164 -6 -11 -11 -30 -11 -42 0 -33 -64 -198 -68 -176 -3
16 2 45 30 162 12 54 26 171 38 335 10 123 16 168 51 325 43 203 59 285 66
348 3 32 9 54 13 50 4 -4 13 -43 19 -86z m1248 -187 c-15 -86 -27 -181 -43
-342 -3 -32 -9 -58 -13 -58 -4 0 -16 17 -28 38 -26 49 -33 246 -8 256 8 3 15
12 15 20 0 8 6 16 13 18 8 3 14 42 17 130 4 89 9 130 20 143 13 16 16 11 28
-46 13 -56 13 -75 -1 -159z m-4887 110 c0 -5 -15 -10 -32 -9 -31 1 -32 1 -8 9
35 11 40 11 40 0z m3813 -267 c31 -19 203 -36 380 -38 197 -3 434 15 446 33 3
5 23 12 44 16 21 4 44 9 50 12 9 3 12 -15 12 -60 0 -36 -3 -67 -6 -71 -4 -3
-28 -8 -55 -12 -27 -3 -58 -11 -69 -18 -45 -28 -443 -40 -610 -18 -109 15
-230 40 -254 52 -11 6 -29 11 -40 11 -12 0 -21 5 -21 10 0 6 5 10 11 10 8 0
10 18 6 59 l-5 60 51 -20 c28 -11 55 -23 60 -26z m2 -169 c118 -29 274 -41
486 -38 l207 4 7 -27 c13 -52 16 -68 36 -183 10 -63 23 -128 28 -145 5 -16 13
-59 16 -95 8 -71 8 -73 24 -143 6 -27 16 -83 22 -125 5 -42 17 -114 26 -159
19 -98 17 -101 -69 -140 -32 -14 -62 -31 -66 -38 -4 -6 -32 -21 -62 -34 -30
-12 -68 -29 -85 -36 -16 -8 -64 -28 -105 -45 -41 -17 -84 -36 -95 -41 -20 -10
-94 -31 -170 -50 -22 -6 -71 -21 -110 -33 -128 -43 -391 -93 -536 -103 l-86
-6 8 59 c4 33 12 75 18 94 6 19 11 46 11 59 0 13 7 32 16 42 8 9 19 43 24 75
17 111 31 188 36 196 3 4 16 49 29 100 13 50 31 106 39 122 15 31 55 160 97
311 12 44 26 85 30 91 5 6 14 35 20 65 6 30 19 74 29 99 10 25 26 66 36 93 15
42 20 47 48 47 17 -1 58 -7 91 -16z m937 -31 c8 -21 23 -59 33 -86 9 -26 23
-54 31 -61 8 -8 14 -21 14 -28 0 -8 4 -18 8 -23 5 -6 14 -30 21 -55 7 -25 19
-58 26 -75 8 -16 25 -75 39 -130 14 -55 35 -129 46 -165 12 -36 25 -78 30 -94
10 -31 3 -41 -43 -65 -15 -8 -39 -27 -55 -43 -15 -16 -45 -38 -67 -50 -22 -11
-44 -27 -48 -34 -4 -8 -12 -14 -17 -14 -6 0 -19 -9 -30 -20 -11 -11 -26 -17
-35 -14 -18 7 -20 34 -2 35 10 0 10 2 0 6 -7 2 -13 17 -13 31 0 15 -7 72 -16
127 -8 55 -19 129 -24 165 -8 61 -24 176 -34 245 -2 17 -5 30 -6 30 -3 0 -7
24 -18 115 -5 36 -13 76 -19 90 -6 14 -13 46 -17 71 -7 46 -7 46 25 53 17 3
44 6 60 6 25 0 29 -5 39 -42 5 -24 15 -56 21 -73 26 -75 46 -145 42 -145 -3 0
-1 -6 5 -12 5 -7 13 -31 16 -53 4 -22 12 -47 17 -55 8 -11 9 -9 5 10 -4 14
-11 50 -16 80 -10 57 -39 158 -70 247 -18 48 -18 52 -2 56 34 9 38 6 54 -30z
m-2065 -54 c-3 -12 1 -39 10 -61 14 -35 14 -48 0 -129 -14 -90 -9 -142 17
-160 8 -7 2 -152 -10 -236 -5 -34 -2 -48 15 -69 23 -29 26 -66 12 -128 -6 -25
-6 -48 1 -65 6 -14 11 -29 10 -33 -1 -5 2 -8 7 -8 15 0 33 -59 28 -92 -5 -36
4 -61 36 -95 16 -18 18 -30 13 -62 -6 -37 -4 -42 29 -67 25 -19 35 -34 35 -55
0 -43 18 -73 53 -89 32 -15 31 -15 -47 -18 -78 -3 -79 -3 -107 30 -16 18 -36
53 -46 78 -9 25 -25 59 -34 75 -18 32 -47 136 -85 305 -33 150 -50 438 -35
590 7 63 16 133 21 155 5 22 12 53 15 69 7 31 43 86 58 86 5 0 7 -10 4 -21z
m-134 -116 c-3 -21 -9 -54 -14 -73 -5 -19 -9 -62 -10 -95 -1 -57 -16 -132 -18
-92 -2 39 -61 1 -61 -40 0 -25 11 -29 41 -13 24 14 26 -6 2 -32 -23 -26 -49
-22 -72 11 -21 30 -29 81 -12 81 11 0 35 69 27 77 -3 3 -8 -2 -12 -11 -3 -9
-10 -16 -15 -16 -5 0 5 21 21 46 31 49 31 68 2 57 -15 -6 -16 -5 -2 13 8 10
23 27 35 36 18 15 19 17 2 23 -18 8 -24 25 -7 25 6 0 19 9 30 20 11 11 31 20
44 20 23 0 24 -3 19 -37z m782 -775 c-9 -18 -23 -71 -31 -119 -8 -47 -24 -117
-35 -155 -12 -38 -24 -96 -27 -129 l-7 -60 -52 -3 c-43 -2 -53 0 -53 13 0 9 7
18 15 21 7 3 22 27 31 52 10 26 21 49 25 52 11 9 37 74 44 110 4 19 13 44 20
55 6 11 15 34 18 50 10 54 32 119 47 143 21 31 25 9 5 -30z"/>
<path d="M5957 7576 c-4 -9 -2 -18 3 -21 11 -7 702 -25 746 -20 16 2 112 -1
214 -6 102 -4 347 -10 545 -13 198 -3 464 -8 590 -12 167 -5 238 -3 260 6 23
9 27 13 15 19 -8 5 -145 11 -305 14 -260 5 -613 14 -1295 32 -596 16 -767 16
-773 1z"/>
<path d="M7355 11730 c-3 -5 -1 -10 5 -10 14 0 40 -25 40 -38 0 -5 -7 -16 -16
-23 -14 -11 -18 -10 -30 6 -8 11 -12 26 -9 35 5 12 4 12 -6 3 -10 -10 -9 -20
5 -49 16 -35 17 -36 36 -19 29 26 34 53 16 80 -17 27 -31 31 -41 15z"/>
<path d="M7490 11711 c-14 -4 -20 -10 -14 -13 13 -9 54 1 54 13 0 10 -4 10
-40 0z"/>
<path d="M7138 11668 c-7 -41 -1 -56 24 -69 15 -8 23 -7 34 8 22 29 17 58 -13
74 -16 7 -31 15 -34 17 -4 1 -9 -12 -11 -30z m46 -6 c3 -5 2 -21 -2 -35 -11
-40 -38 -15 -33 31 1 14 27 17 35 4z"/>
<path d="M7510 11655 c-20 -21 -22 -28 -12 -50 14 -31 23 -31 52 0 20 21 22
28 12 50 -14 31 -23 31 -52 0z m40 -16 c0 -20 -25 -37 -37 -25 -3 3 -1 17 5
32 13 28 32 24 32 -7z"/>
<path d="M7034 11621 c13 -14 16 -28 11 -50 -4 -19 -3 -31 4 -31 5 0 11 12 13
28 4 29 -17 72 -35 72 -5 0 -2 -9 7 -19z"/>
<path d="M7568 11563 c7 -3 16 -2 19 1 4 3 -2 6 -13 5 -11 0 -14 -3 -6 -6z"/>
<path d="M7180 11501 c-8 -6 -18 -7 -22 -5 -4 3 -8 0 -8 -5 0 -6 3 -11 8 -11
12 1 58 29 47 29 -5 1 -17 -3 -25 -8z"/>
<path d="M7070 11489 c0 -5 5 -7 10 -4 6 3 10 8 10 11 0 2 -4 4 -10 4 -5 0
-10 -5 -10 -11z"/>
<path d="M7437 11333 c-17 -16 -3 -23 45 -23 48 0 50 1 32 15 -20 15 -66 20
-77 8z"/>
<path d="M7240 11292 c0 -13 47 -35 59 -28 25 16 11 36 -24 36 -19 0 -35 -4
-35 -8z"/>
<path d="M7450 11280 c-10 -6 -11 -10 -2 -10 6 0 12 -7 12 -15 0 -8 6 -15 14
-15 13 0 26 20 26 41 0 12 -31 11 -50 -1z"/>
<path d="M7090 11246 c0 -2 7 -6 15 -10 8 -3 15 -1 15 4 0 6 -7 10 -15 10 -8
0 -15 -2 -15 -4z"/>
<path d="M7388 11073 c7 -3 16 -2 19 1 4 3 -2 6 -13 5 -11 0 -14 -3 -6 -6z"/>
<path d="M9820 10787 c0 -8 9 -25 21 -38 l21 -24 -4 35 c-2 24 -9 36 -20 38
-11 2 -18 -3 -18 -11z"/>
<path d="M9786 10733 c-8 -19 17 -49 32 -39 7 4 6 15 -1 31 -14 29 -22 31 -31
8z"/>
<path d="M6936 10444 c-19 -20 -48 -43 -65 -53 -16 -9 -47 -26 -69 -38 -22
-12 -53 -25 -68 -28 -16 -3 -45 -9 -64 -14 -27 -7 -30 -9 -11 -10 39 -2 182
40 188 55 2 7 29 27 59 45 30 18 54 37 54 43 0 5 8 15 18 22 9 8 12 14 5 14
-7 0 -28 -16 -47 -36z"/>
<path d="M7227 10524 c56 -55 85 -74 188 -127 140 -71 198 -89 300 -93 l90 -3
-81 9 c-45 5 -102 15 -125 24 -105 37 -120 43 -131 54 -7 7 -19 12 -27 12 -9
0 -44 18 -79 40 -34 22 -67 40 -72 40 -5 0 -19 13 -32 29 -13 16 -34 34 -47
41 -17 9 -12 0 16 -26z"/>
<path d="M6780 9794 c0 -19 29 -80 30 -63 0 9 -7 30 -15 45 -8 16 -15 24 -15
18z"/>
<path d="M8255 9900 c3 -5 11 -10 16 -10 6 0 7 5 4 10 -3 6 -11 10 -16 10 -6
0 -7 -4 -4 -10z"/>
<path d="M6359 9813 c-58 -35 -78 -119 -39 -161 12 -12 31 -22 43 -22 13 0 28
-5 35 -12 9 -9 12 -9 12 0 0 7 11 12 24 12 35 0 76 58 76 107 0 76 -84 118
-151 76z m109 -50 c32 -43 -3 -93 -69 -100 -40 -5 -46 -2 -58 19 -20 39 -11
71 29 91 39 19 78 15 98 -10z"/>
<path d="M8294 9750 c-35 -14 -74 -73 -74 -111 1 -51 28 -80 81 -86 55 -6 93
8 115 42 30 46 23 83 -26 126 -44 40 -59 44 -96 29z m61 -46 c21 -9 37 -49 29
-78 -6 -27 -51 -53 -81 -48 -12 2 -28 17 -37 37 -31 65 19 115 89 89z"/>
<path d="M7169 9577 c14 -15 30 -27 36 -27 7 0 20 -9 30 -20 10 -11 27 -22 38
-26 11 -4 29 -14 40 -24 18 -17 35 -21 156 -36 40 -5 52 -4 47 5 -4 6 -33 11
-69 11 -35 0 -73 6 -87 15 -14 7 -41 21 -60 30 -19 9 -44 24 -55 34 -11 10
-38 28 -60 41 l-40 23 24 -26z"/>
<path d="M7123 9515 c20 -41 54 -134 61 -167 4 -15 14 -35 24 -45 18 -17 52
-110 67 -180 6 -31 25 -56 25 -34 0 24 -66 203 -106 288 -24 51 -44 99 -44
107 0 8 -9 24 -21 37 l-20 24 14 -30z"/>
<path d="M7568 9453 c7 -3 16 -2 19 1 4 3 -2 6 -13 5 -11 0 -14 -3 -6 -6z"/>
<path d="M7694 9379 c-6 -8 -16 -30 -24 -49 -26 -71 -88 -196 -109 -219 -11
-13 -21 -28 -21 -32 0 -4 -11 -19 -25 -33 -14 -14 -25 -29 -25 -34 0 -4 -13
-21 -30 -37 -16 -16 -30 -32 -30 -37 0 -4 17 11 38 35 109 123 150 185 192
297 12 30 28 63 37 72 8 9 13 24 11 34 -2 14 -5 15 -14 3z"/>
<path d="M7682 9113 c-6 -16 -13 -42 -17 -59 -6 -33 -48 -140 -59 -151 -3 -3
-6 -17 -6 -30 0 -13 -12 -35 -26 -48 -14 -13 -24 -30 -21 -37 4 -8 6 -7 6 5 1
9 7 17 15 17 7 0 19 15 26 33 7 17 23 56 36 85 13 28 31 84 40 122 8 39 20 70
25 70 5 0 9 5 9 10 0 20 -18 9 -28 -17z"/>
<path d="M6766 8224 c-5 -14 -4 -15 9 -4 17 14 19 20 6 20 -5 0 -12 -7 -15
-16z"/>
<path d="M9698 7403 c-9 -10 -18 -31 -21 -48 -11 -66 -32 -150 -38 -155 -7 -5
-29 -123 -24 -128 3 -4 33 82 50 143 7 28 25 79 39 114 14 36 26 71 26 78 0
18 -14 16 -32 -4z"/>
<path d="M9921 7344 c-13 -30 -36 -226 -51 -451 -6 -81 -15 -182 -20 -223 -5
-41 -11 -160 -14 -265 l-5 -190 13 160 c7 88 19 239 25 335 7 96 16 189 22
206 5 17 9 66 9 110 0 69 14 189 36 307 8 43 2 48 -15 11z"/>
<path d="M3381 9990 c-12 -22 -36 -55 -52 -72 -16 -18 -29 -37 -29 -43 0 -5
-12 -23 -26 -40 -15 -16 -38 -47 -52 -67 -13 -21 -28 -38 -32 -38 -3 0 -17
-24 -30 -52 -13 -29 -31 -71 -42 -94 -17 -37 -17 -43 -3 -77 8 -20 19 -37 23
-37 5 0 17 -27 28 -60 20 -62 34 -77 34 -36 0 13 6 26 14 29 8 3 17 19 21 36
4 17 20 45 37 61 17 17 29 32 27 33 -2 1 -13 7 -24 13 -13 7 -21 24 -23 47 -3
29 1 38 20 48 13 7 26 17 30 23 5 8 8 7 8 -1 0 -7 9 -13 20 -13 11 0 20 5 20
10 0 6 -3 9 -7 8 -8 -1 -35 8 -68 23 -17 8 -16 9 7 4 15 -3 30 -1 33 5 12 19
31 10 48 -22 12 -26 16 -29 16 -12 1 11 -8 39 -19 62 -24 49 -26 85 -5 102 8
7 15 20 15 29 1 28 28 55 42 43 35 -28 48 -179 17 -197 -5 -4 -9 -18 -9 -32 0
-25 1 -25 18 -10 10 9 34 19 53 22 l34 5 -40 -20 c-28 -13 -34 -20 -20 -20 58
0 84 -64 47 -110 -18 -22 -18 -23 3 -46 12 -13 27 -42 34 -66 29 -96 29 -96
30 -70 1 12 5 22 10 22 5 0 13 10 17 23 3 12 12 29 19 37 29 34 37 86 21 138
-16 56 -42 109 -62 130 -8 7 -14 17 -14 22 0 4 -15 33 -34 65 -19 31 -38 70
-41 86 -4 16 -15 33 -24 39 -10 5 -28 32 -40 60 -12 27 -23 50 -24 50 -2 0
-13 -18 -26 -40z m55 -55 c9 -19 22 -35 29 -35 13 0 25 -43 25 -87 0 -22 -2
-23 -15 -10 -8 9 -23 37 -33 64 -22 60 -49 65 -74 14 -21 -41 -65 -88 -54 -58
3 10 6 24 6 31 0 7 11 25 25 40 14 15 25 33 25 40 0 16 20 36 37 36 6 0 20
-16 29 -35z m-196 -235 c0 -5 -7 -10 -16 -10 -8 0 -12 5 -9 10 3 6 10 10 16
10 5 0 9 -4 9 -10z m320 -16 c0 -8 -4 -12 -10 -9 -5 3 -10 10 -10 16 0 5 5 9
10 9 6 0 10 -7 10 -16z"/>
<path d="M3374 9825 c-17 -41 -17 -40 -3 -87 13 -50 32 -48 53 5 19 51 20 58
4 92 -16 35 -36 31 -54 -10z"/>
<path d="M2771 9741 c-12 -16 -21 -36 -21 -45 0 -9 -8 -24 -17 -34 -28 -28
-103 -189 -116 -247 -10 -51 -10 -54 20 -91 16 -22 41 -58 54 -81 28 -50 43
-56 27 -12 -13 37 -4 97 16 113 8 6 18 23 21 38 5 21 3 27 -14 33 -50 16 -26
102 25 92 l22 -4 -19 36 c-10 20 -19 42 -19 50 0 11 -3 11 -15 1 -8 -6 -20 -8
-26 -4 -9 5 -8 10 2 18 8 6 28 37 43 69 16 31 33 57 37 57 14 0 89 -74 89 -87
0 -7 -7 -13 -15 -13 -15 0 -55 38 -55 52 0 4 -6 8 -14 8 -19 0 -46 -39 -45
-65 1 -20 1 -20 6 0 13 53 43 58 72 11 24 -38 26 -67 9 -96 -7 -10 -8 -23 -4
-27 5 -4 11 -2 13 5 3 6 18 12 34 12 38 0 58 -37 40 -76 -12 -27 -7 -44 13
-44 17 0 49 -37 70 -79 17 -36 22 -126 7 -135 -5 -3 -11 -18 -13 -33 -3 -16
-9 -36 -13 -45 -6 -15 -2 -18 20 -18 22 0 26 4 22 20 -3 13 0 20 9 20 8 0 14
-7 14 -15 0 -8 7 -15 15 -15 16 0 20 20 7 36 -31 37 -52 176 -43 294 7 92 6
96 -18 127 -14 18 -30 33 -35 33 -4 0 -25 17 -45 38 -21 20 -60 59 -88 85
l-51 48 -21 -30z"/>
<path d="M3938 9709 c-10 -5 -18 -16 -18 -24 0 -8 -13 -21 -30 -30 -16 -8 -42
-28 -58 -43 -16 -15 -44 -41 -64 -57 l-36 -31 -4 -139 c-4 -130 -7 -145 -36
-210 -17 -38 -28 -73 -26 -77 10 -16 34 -7 34 12 0 11 7 20 15 20 18 0 20 -30
3 -31 -7 0 -2 -5 11 -10 13 -5 26 -8 28 -6 2 2 -4 34 -12 70 -15 66 -14 93 7
152 15 41 37 65 73 81 17 7 23 13 14 14 -27 0 -30 40 -7 72 14 20 27 28 40 25
16 -5 18 -1 12 29 -4 23 -2 40 7 51 12 15 12 16 -5 10 -14 -6 -17 -4 -12 9 3
8 6 22 6 30 0 8 7 14 15 14 8 0 15 3 15 8 0 4 9 13 20 20 17 10 23 9 42 -10
17 -17 20 -18 15 -4 -4 10 -10 29 -13 42 -7 27 -11 28 -36 13z"/>
<path d="M2783 9635 c-19 -21 -16 -66 7 -99 l19 -30 10 28 c14 34 14 45 0 85
-12 34 -18 37 -36 16z"/>
<path d="M3927 9643 c-4 -3 -7 -13 -7 -22 0 -14 2 -14 10 -1 9 13 12 12 25 -4
18 -23 29 -16 20 13 -6 20 -34 28 -48 14z"/>
<path d="M3285 9624 c-20 -20 -16 -53 7 -68 26 -16 74 16 70 46 -3 26 0 24
-34 32 -18 4 -32 1 -43 -10z"/>
<path d="M3444 9603 c-13 -48 19 -75 55 -46 19 16 21 22 12 46 -15 38 -58 38
-67 0z"/>
<path d="M3922 9588 c-16 -22 -23 -55 -16 -83 5 -20 11 -25 26 -22 15 4 18 1
13 -13 -5 -14 -2 -17 14 -13 29 8 58 -40 43 -72 -7 -14 -18 -25 -27 -25 -8 0
-15 -4 -15 -10 0 -5 4 -10 9 -10 21 0 34 -60 23 -113 -6 -28 -9 -53 -7 -55 4
-4 45 67 45 79 0 5 4 9 10 9 5 0 17 14 25 31 20 37 10 120 -26 214 -20 55 -23
57 -31 35 -6 -16 -5 -26 1 -28 17 -6 13 -29 -5 -36 -23 -9 -25 -8 -23 12 3 30
-1 35 -16 22 -12 -10 -15 -10 -15 2 0 8 5 19 10 24 8 8 7 19 -1 37 -14 30 -22
33 -37 15z"/>
<path d="M4001 9584 c0 -11 3 -14 6 -6 3 7 2 16 -1 19 -3 4 -6 -2 -5 -13z"/>
<path d="M3384 9563 c-4 -13 -13 -23 -21 -23 -11 0 -11 -4 -3 -20 13 -25 30
-26 31 -2 1 14 2 14 8 -3 28 -76 35 -85 65 -82 23 1 33 -4 43 -23 17 -31 11
-105 -11 -129 -9 -10 -16 -23 -16 -30 0 -7 -14 -30 -31 -51 -47 -58 -30 -69
23 -15 34 34 50 60 60 98 29 116 -6 216 -77 221 -16 0 -23 6 -20 14 3 7 -7 25
-20 40 l-25 27 -6 -22z"/>
<path d="M2862 9508 c-19 -19 -14 -55 8 -61 26 -7 44 17 36 48 -7 27 -25 32
-44 13z"/>
<path d="M3276 9481 c-23 -24 -30 -42 -35 -96 -9 -80 8 -135 58 -194 36 -43
65 -57 37 -18 -40 54 -76 143 -76 188 0 52 13 69 51 69 60 0 82 72 24 78 -23
2 -37 -4 -59 -27z"/>
<path d="M2254 9393 c-4 -48 -7 -131 -6 -183 l3 -95 37 -33 c20 -18 46 -38 56
-44 16 -9 18 -8 11 8 -18 45 -27 106 -16 117 17 17 13 27 -9 27 -48 0 -51 86
-2 92 24 3 27 8 30 41 2 28 -2 43 -15 53 -26 19 -32 17 -39 -12 -5 -18 0 -32
17 -50 l23 -25 -24 9 c-14 5 -26 19 -28 31 -2 11 -8 21 -13 21 -11 0 -12 87
-1 94 14 9 82 -16 82 -30 0 -8 -7 -11 -17 -8 -14 5 -13 1 4 -13 12 -10 23 -31
25 -48 3 -25 7 -29 32 -30 36 0 56 -27 39 -54 -14 -23 -8 -31 24 -31 13 0 26
-7 29 -15 3 -8 14 -17 24 -20 27 -9 44 -69 44 -152 -1 -69 7 -91 20 -58 3 8
12 15 21 15 20 0 19 17 -4 47 -23 28 -50 141 -54 227 -4 73 -20 91 -118 133
-101 43 -153 66 -160 70 -3 2 -10 -36 -15 -84z"/>
<path d="M2740 9455 c0 -31 26 -43 47 -22 21 21 9 47 -22 47 -20 0 -25 -5 -25
-25z"/>
<path d="M3381 9457 c-6 -16 -11 -32 -11 -36 0 -5 -12 -6 -27 -3 -21 4 -25 2
-20 -12 4 -9 2 -16 -2 -16 -5 0 -11 5 -13 11 -2 5 -11 7 -21 4 -28 -12 -20
-66 23 -153 67 -134 80 -133 152 8 13 25 26 47 29 50 13 11 17 53 7 81 -10 30
-31 36 -58 19 -12 -7 -18 0 -31 33 l-17 42 -11 -28z m99 -62 c0 -8 -7 -15 -15
-15 -8 0 -15 7 -15 15 0 8 7 15 15 15 8 0 15 -7 15 -15z m-90 -30 c0 18 2 18
20 -5 20 -26 25 -51 13 -64 -4 -4 -15 3 -24 16 -22 29 -32 19 -32 -33 0 -48
24 -73 35 -36 6 21 6 21 7 -3 1 -30 -13 -55 -26 -47 -5 3 -18 33 -28 66 -17
56 -17 61 -1 77 11 11 16 26 12 43 -5 24 -4 24 9 -4 11 -24 14 -26 15 -10z"/>
<path d="M3850 9455 c-9 -11 -9 -18 3 -35 14 -20 14 -20 32 0 15 16 15 22 5
35 -16 19 -24 19 -40 0z"/>
<path d="M3080 9378 c0 -55 7 -96 25 -150 14 -40 25 -74 25 -75 0 -2 7 -3 16
-3 16 0 17 8 3 150 -1 8 -5 20 -9 25 -5 6 -13 28 -19 50 -6 22 -17 49 -25 60
-14 18 -15 13 -16 -57z m54 -109 c9 -45 8 -65 -3 -53 -14 14 -25 84 -13 84 5
0 12 -14 16 -31z"/>
<path d="M2803 9422 c-9 -15 -7 -21 8 -30 11 -7 20 -8 24 -2 11 18 23 10 40
-26 12 -26 20 -33 28 -25 19 19 47 12 57 -15 15 -38 12 -110 -6 -152 -22 -50
-29 -25 -10 33 16 45 13 119 -4 130 -13 8 -39 -6 -43 -23 -4 -14 -6 -13 -12 5
-7 21 -33 39 -43 29 -2 -3 -7 -20 -11 -38 -6 -30 -41 -55 -41 -29 0 6 6 8 13
5 10 -4 14 8 15 45 0 35 -3 51 -14 55 -38 15 -73 -80 -59 -158 7 -35 75 -116
108 -129 24 -9 32 15 18 54 -11 32 -11 32 9 14 14 -13 20 -14 20 -5 0 8 11 0
24 -18 22 -31 23 -31 40 -13 36 40 42 221 7 221 -5 0 -11 9 -14 20 -6 23 -51
43 -78 35 -13 -5 -19 -1 -19 10 0 9 -4 14 -9 10 -5 -3 -12 -1 -16 5 -9 15 -19
12 -32 -8z m-21 -132 c-6 -43 4 -71 39 -108 17 -18 28 -36 24 -40 -8 -8 -52
43 -66 76 -14 36 -11 102 6 102 1 0 0 -13 -3 -30z m120 -48 c5 -19 7 -39 4
-45 -2 -7 -5 -2 -5 10 -1 12 -10 27 -20 33 -16 8 -20 6 -23 -13 -3 -16 -5 -12
-9 13 -4 33 -2 36 20 35 19 0 27 -7 33 -33z"/>
<path d="M3942 9432 c-19 -12 -5 -65 15 -58 8 3 19 6 24 6 6 0 9 12 7 27 -3
29 -23 39 -46 25z"/>
<path d="M3652 9388 c-7 -18 -20 -47 -27 -65 -18 -42 -29 -125 -21 -158 l7
-27 18 24 c33 43 69 258 43 258 -4 0 -13 -15 -20 -32z m-7 -115 c-7 -48 -25
-84 -25 -50 0 19 23 97 29 97 2 0 0 -21 -4 -47z"/>
<path d="M3886 9391 c-3 -5 0 -21 8 -36 8 -15 12 -34 9 -41 -3 -8 5 -18 21
-24 22 -8 26 -16 26 -51 0 -33 -6 -47 -32 -72 -34 -33 -62 -77 -54 -84 9 -9
49 24 77 65 49 72 48 166 -2 179 -13 4 -18 11 -14 21 13 33 -22 71 -39 43z"/>
<path d="M4290 9385 c-11 -13 -10 -14 3 -9 11 4 17 -2 20 -23 3 -23 4 -22 6
10 1 39 -8 47 -29 22z"/>
<path d="M3838 9372 c-57 -7 -98 -122 -80 -222 10 -60 38 -63 35 -5 -1 22 1
30 4 18 6 -30 12 -28 47 13 22 26 26 38 17 47 -6 6 -11 21 -11 34 0 14 -6 23
-15 23 -8 0 -15 7 -15 15 0 8 -4 15 -10 15 -11 0 -18 -26 -23 -85 -3 -32 -4
-28 -5 16 -2 66 11 85 51 70 29 -11 47 2 47 35 0 27 -6 31 -42 26z"/>
<path d="M4235 9360 c-4 -6 -22 -17 -41 -25 -19 -8 -40 -20 -47 -27 -11 -11
-39 -157 -31 -166 1 -2 11 5 22 15 10 10 27 23 38 29 16 10 17 13 5 28 -7 9
-9 16 -3 16 5 0 12 9 15 21 3 13 12 19 24 17 14 -2 18 4 19 31 0 19 5 36 12
39 14 4 16 32 3 32 -6 0 -13 -5 -16 -10z"/>
<path d="M4255 9284 c-18 -43 -19 -54 -4 -54 19 0 39 28 39 54 0 40 -18 40
-35 0z"/>
<path d="M2394 9296 c-19 -15 -19 -15 3 -37 l22 -22 7 27 c9 36 -6 50 -32 32z"/>
<path d="M3869 9287 c-11 -25 -11 -30 3 -38 21 -11 9 -61 -22 -94 -25 -26 -25
-35 -2 -34 28 1 83 74 89 119 3 23 1 40 -4 40 -17 0 -23 -13 -11 -27 6 -7 8
-16 5 -20 -4 -3 -15 14 -26 38 l-19 44 -13 -28z"/>
<path d="M3210 9231 c0 -27 -3 -63 -6 -80 -6 -31 -6 -32 22 -27 16 2 31 5 34
6 3 1 18 1 35 0 32 -2 31 0 -23 60 -12 14 -27 40 -33 57 -15 48 -29 40 -29
-16z"/>
<path d="M2594 9258 c3 -7 12 -42 21 -78 18 -77 40 -122 68 -140 19 -12 20
-10 14 49 -4 34 -14 73 -24 87 -9 14 -24 40 -33 57 -17 31 -54 52 -46 25z m96
-179 c0 -6 -9 -2 -20 11 -11 13 -20 30 -20 38 0 9 7 6 20 -11 11 -14 20 -31
20 -38z"/>
<path d="M2300 9248 c0 -20 21 -38 43 -38 32 0 18 44 -15 48 -19 2 -28 -1 -28
-10z"/>
<path d="M3540 9248 c0 -17 -63 -97 -77 -98 -7 0 -13 -7 -13 -15 0 -18 41 -20
58 -3 9 9 12 8 12 -5 0 -9 7 -17 15 -17 11 0 14 15 13 75 0 41 -2 75 -4 75 -2
0 -4 -5 -4 -12z"/>
<path d="M4200 9220 c0 -21 4 -30 13 -27 6 2 12 14 12 27 0 13 -6 25 -12 28
-9 2 -13 -7 -13 -28z"/>
<path d="M4297 9239 c-14 -8 -16 -18 -12 -43 5 -24 2 -38 -11 -50 -10 -11 -17
-31 -16 -52 1 -19 -3 -34 -7 -34 -5 0 -18 -3 -28 -7 -17 -6 -17 -5 1 15 15 17
17 30 11 68 -6 41 -9 45 -28 40 -12 -3 -27 -6 -34 -6 -14 0 -63 -79 -63 -101
0 -8 -9 -22 -20 -32 -22 -19 -27 -62 -8 -73 6 -4 14 -2 16 4 2 6 9 9 16 6 8
-3 17 5 21 18 8 22 8 22 12 -5 3 -20 9 -27 19 -23 8 3 14 1 14 -4 0 -6 -4 -10
-10 -10 -5 0 -10 -7 -10 -15 0 -8 3 -15 8 -15 11 1 44 50 32 50 -5 0 -2 8 8
18 9 11 20 17 24 15 5 -2 23 8 42 22 36 27 38 35 52 168 7 58 3 64 -29 46z
m-74 -92 c3 -7 -4 -19 -15 -26 -13 -8 -18 -19 -15 -33 3 -11 -1 -31 -10 -44
-13 -20 -13 -24 -1 -24 8 0 20 6 27 13 11 9 10 7 0 -10 -8 -13 -19 -23 -26
-23 -18 0 -25 36 -12 58 15 24 5 54 -16 46 -17 -7 -18 -3 -9 20 5 12 10 14 19
6 10 -9 16 -6 25 9 12 24 26 27 33 8z m-86 -119 c-3 -7 -5 -2 -5 12 0 14 2 19
5 13 2 -7 2 -19 0 -25z"/>
<path d="M2375 9219 c-4 -6 -4 -13 -1 -16 8 -8 36 5 36 17 0 13 -27 13 -35 -1z"/>
<path d="M2422 9198 c2 -19 9 -23 40 -23 20 0 39 -3 43 -7 11 -10 22 -118 13
-124 -4 -3 -8 13 -8 35 0 22 -5 52 -12 68 -11 27 -12 27 -15 6 -5 -25 -33 -32
-33 -8 0 8 -4 15 -10 15 -5 0 -10 -9 -10 -19 0 -11 -7 -26 -15 -35 -18 -17
-11 -44 19 -69 20 -18 20 -18 -12 -1 -17 10 -34 26 -37 36 -3 10 -8 28 -11 40
-5 16 -3 20 8 15 8 -3 20 -2 27 3 19 11 -4 50 -29 50 -17 0 -20 -7 -20 -47 0
-27 6 -57 13 -68 40 -67 54 -85 75 -94 13 -6 24 -11 26 -11 1 0 3 17 4 38 1
27 -4 41 -19 53 -14 10 -20 24 -17 40 3 22 6 19 36 -26 17 -27 32 -45 32 -40
0 6 7 1 15 -9 8 -11 17 -17 20 -14 10 9 7 112 -3 138 -24 62 -128 111 -120 58z"/>
<path d="M4053 9197 c-21 -23 -53 -88 -53 -106 0 -7 -7 -23 -16 -36 -16 -25
-12 -45 10 -45 17 0 66 77 66 103 0 12 5 39 11 60 13 48 8 54 -18 24z"/>
<path d="M4246 9192 c-8 -13 11 -35 23 -28 16 10 14 36 -3 36 -8 0 -17 -4 -20
-8z"/>
<path d="M2754 9123 c15 -81 14 -80 81 -62 l40 11 -35 18 c-19 10 -48 30 -64
45 l-28 26 6 -38z"/>
<path d="M3897 9082 c-34 -21 -30 -37 9 -37 24 0 30 5 32 28 4 31 -3 33 -41 9z"/>
<path d="M2040 9078 c1 -7 16 -40 35 -73 19 -33 44 -80 57 -104 13 -24 40 -57
62 -72 40 -30 47 -29 91 5 20 16 20 16 -2 35 -13 11 -23 29 -23 40 0 12 -6 24
-13 27 -9 3 -14 20 -13 47 2 67 -22 93 -89 102 -61 7 -89 -1 -38 -11 19 -4 35
-15 42 -30 6 -14 23 -30 38 -36 22 -9 24 -12 11 -15 -24 -6 -23 -20 2 -28 11
-3 20 -11 20 -16 0 -14 -16 -11 -30 6 -7 8 -19 15 -27 15 -11 0 -13 -7 -8 -31
5 -22 4 -29 -4 -25 -6 4 -11 20 -11 37 0 16 -5 29 -11 29 -5 0 -7 -4 -4 -10 3
-5 2 -10 -3 -10 -11 0 -32 54 -32 82 0 21 -22 48 -39 48 -6 0 -11 -6 -11 -12z"/>
<path d="M2103 9034 c-6 -16 12 -34 35 -34 15 0 16 22 0 38 -16 16 -27 15 -35
-4z"/>
<path d="M4365 9029 c-25 -7 -33 -17 -41 -49 -9 -30 -8 -40 1 -40 6 0 15 3 19
7 12 12 46 10 46 -3 0 -16 -17 -27 -24 -16 -3 5 -17 7 -30 5 -18 -4 -28 -15
-36 -39 -24 -72 3 -103 54 -63 21 17 27 28 24 50 -3 20 0 29 14 32 10 3 18 14
18 25 0 11 3 28 7 37 5 15 3 16 -15 6 -20 -11 -21 -10 -13 11 5 13 16 22 25
22 9 -1 16 4 16 12 0 16 -20 17 -65 3z"/>
<path d="M2287 8997 c8 -42 41 -97 58 -97 7 0 16 -6 18 -12 4 -10 8 -9 16 2 6
8 11 20 11 26 0 18 -62 91 -87 103 -21 10 -22 9 -16 -22z"/>
<path d="M4252 8944 c-31 -38 -36 -54 -16 -61 12 -4 57 73 52 89 -2 6 -18 -6
-36 -28z"/>
<path d="M2436 8945 c7 -17 30 -20 38 -6 3 5 -1 12 -10 15 -25 10 -34 7 -28
-9z"/>
<path d="M2934 8200 c-17 -4 -51 -16 -75 -28 -24 -12 -56 -25 -71 -31 -15 -6
-32 -19 -38 -31 -10 -19 -9 -20 17 -14 15 4 36 14 46 23 25 21 206 20 240 -2
12 -8 72 -31 132 -52 86 -30 126 -38 185 -39 l75 -1 0 29 c0 16 -7 32 -15 36
-8 4 -26 13 -39 19 -13 7 -58 23 -100 36 -167 49 -291 68 -357 55z"/>
<path d="M3010 8024 c-51 -17 -98 -41 -120 -62 l-25 -24 40 19 c22 10 42 21
46 25 11 16 106 38 159 37 63 -1 108 -15 142 -45 41 -35 52 -39 39 -15 -6 11
-28 32 -49 46 -33 22 -46 25 -127 24 -49 0 -97 -3 -105 -5z"/>
<path d="M3067 8000 c-44 -8 -104 -31 -170 -66 -16 -9 -36 -12 -50 -9 -18 6
-20 5 -10 -6 10 -10 9 -15 -5 -25 -15 -12 -14 -13 14 -14 23 0 33 -6 37 -19
10 -39 80 -62 201 -68 61 -3 129 0 151 5 25 6 32 10 17 11 -19 1 -21 4 -12 20
5 11 10 29 10 41 0 16 4 20 16 16 9 -3 18 -6 20 -6 2 0 4 -11 4 -24 0 -20 16
-36 35 -36 11 0 -39 98 -62 121 -20 22 -128 72 -144 68 -2 -1 -25 -5 -52 -9z
m-22 -84 c-4 -18 -2 -50 4 -71 l10 -38 -44 6 c-39 6 -124 52 -125 68 0 5 88
51 120 62 35 12 41 8 35 -27z m63 1 c2 -12 -3 -17 -17 -17 -12 0 -21 6 -21 13
0 31 32 34 38 4z"/>
<path d="M3933 7965 c-28 -14 -54 -32 -57 -40 -4 -12 -1 -12 19 -3 14 6 25 15
25 19 0 13 71 32 118 31 49 -1 101 -22 123 -48 10 -13 4 -11 -26 5 -23 12 -58
21 -83 21 -48 0 -142 -27 -142 -41 0 -5 -7 -9 -15 -9 -8 0 -15 -4 -15 -9 0 -5
-14 -24 -30 -41 -52 -56 -27 -57 30 -2 58 57 86 68 70 28 -11 -29 -3 -67 19
-85 14 -11 8 -13 -38 -8 -76 6 -40 -10 49 -23 110 -16 151 -5 216 56 32 30 34
54 6 54 -15 1 -15 2 1 11 20 12 23 29 4 29 -8 0 -24 12 -38 26 -57 61 -148 72
-236 29z m77 -85 c0 -5 -7 -10 -16 -10 -8 0 -12 5 -9 10 3 6 10 10 16 10 5 0
9 -4 9 -10z m155 -70 c-3 -6 -14 -14 -25 -20 -19 -10 -19 -12 -5 55 l7 30 14
-28 c8 -15 12 -32 9 -37z"/>
<path d="M3746 7925 c-9 -9 -16 -24 -16 -33 0 -10 -7 -28 -16 -40 -12 -18 -15
-36 -10 -75 11 -87 23 -84 28 6 3 48 13 99 22 118 19 37 15 47 -8 24z"/>
<path d="M2110 7715 c-24 -39 -31 -86 -12 -92 8 -3 12 6 12 29 1 65 44 87 94
47 28 -22 35 -49 12 -49 -16 0 -56 -47 -55 -64 0 -6 5 -1 11 12 22 45 97 41
99 -6 2 -42 -2 -66 -12 -76 -14 -16 -10 -58 8 -78 15 -17 15 -18 -10 -18 -15
0 -36 9 -48 21 -19 19 -21 19 -17 2 2 -10 17 -22 36 -28 17 -5 32 -13 32 -17
0 -4 6 -8 14 -8 8 0 22 -10 30 -22 l16 -22 0 28 c0 16 -9 44 -21 62 -17 28
-19 43 -13 77 11 68 7 92 -24 141 -29 47 -88 96 -116 96 -8 0 -24 -16 -36 -35z"/>
<path d="M3805 7400 c21 -79 19 -119 -7 -147 -12 -13 -19 -25 -16 -29 3 -3 22
12 43 33 32 33 36 41 30 73 -4 19 -13 42 -21 51 -8 8 -14 20 -14 25 0 6 -7 19
-15 30 -12 17 -12 12 0 -36z"/>
<path d="M3386 7368 c-12 -47 -6 -87 18 -112 21 -24 46 -34 46 -21 0 3 -12 16
-26 28 -27 24 -33 53 -21 100 4 15 3 27 -2 27 -5 0 -11 -10 -15 -22z"/>
<path d="M3493 7293 c-7 -2 -13 -11 -13 -19 0 -10 15 -14 65 -13 36 1 65 4 65
8 0 21 -83 38 -117 24z"/>
<path d="M3715 7255 c-27 -24 -45 -44 -40 -44 24 1 120 56 120 69 0 29 -31 19
-80 -25z"/>
<path d="M3505 7040 c-3 -5 -13 -10 -22 -10 -9 0 -48 -16 -87 -37 -51 -26 -83
-36 -113 -35 -37 0 -43 -3 -43 -20 0 -17 5 -19 38 -14 20 4 100 6 177 6 77 0
172 0 212 0 63 1 102 -5 176 -26 12 -4 17 0 17 15 0 13 -7 21 -17 21 -10 0
-27 12 -38 25 -54 69 -56 70 -161 66 -37 -2 -64 2 -68 8 -9 14 -63 14 -71 1z
m237 -35 c15 -6 48 -47 48 -60 0 -10 -49 -5 -56 6 -6 10 -38 9 -110 -6 -21 -5
-44 -1 -66 9 -35 17 -116 17 -165 1 -13 -4 -23 -3 -23 2 0 5 30 21 68 35 61
25 77 27 177 24 61 -2 118 -7 127 -11z"/>
<path d="M3438 6820 c27 -22 104 -40 173 -40 50 0 149 34 149 51 0 12 -3 11
-36 -6 -39 -20 -199 -20 -247 0 -49 20 -67 18 -39 -5z"/>
</g>
</svg>
