<?xml version="1.0" standalone="no"?>
<!DOCTYPE svg PUBLIC "-//W3C//DTD SVG 20010904//EN"
 "http://www.w3.org/TR/2001/REC-SVG-20010904/DTD/svg10.dtd">
<svg version="1.0" xmlns="http://www.w3.org/2000/svg"
 width="1295.000000pt" height="1294.000000pt" viewBox="0 0 1295.000000 1294.000000"
 preserveAspectRatio="xMidYMid meet">
<metadata>
Created by potrace 1.16, written by Peter Selinger 2001-2019
</metadata>
<g transform="translate(0.000000,1294.000000) scale(0.100000,-0.100000)"
fill="#000000" stroke="none">
<path d="M0 6470 l0 -6470 6475 0 6475 0 0 6470 0 6470 -6475 0 -6475 0 0
-6470z m6873 6091 c10 -7 17 -20 17 -27 0 -11 50 -137 96 -241 8 -17 14 -36
14 -42 0 -6 4 -11 9 -11 5 0 12 -10 16 -22 6 -23 40 -100 56 -128 4 -8 36 -71
71 -140 34 -69 65 -127 68 -130 3 -3 18 -32 34 -65 16 -33 34 -67 41 -75 7 -8
16 -26 20 -39 9 -30 82 -152 99 -166 7 -5 22 -30 34 -55 12 -25 33 -58 48 -75
l26 -30 -8 29 c-8 33 -68 140 -96 172 -10 11 -18 27 -19 35 0 8 -9 28 -20 44
-10 17 -36 64 -58 105 -21 41 -51 98 -65 125 -14 28 -26 55 -26 62 0 6 -4 13
-8 15 -4 2 -36 59 -71 128 -34 69 -66 132 -71 140 -4 8 -15 31 -23 50 -9 19
-32 71 -52 115 -59 127 -82 178 -94 209 l-11 28 57 -6 c32 -3 92 -8 133 -11
441 -34 1055 -170 1504 -335 130 -47 357 -138 365 -145 2 -2 -10 -7 -25 -10
-140 -31 -230 -169 -193 -294 2 -9 -8 -21 -26 -29 -16 -8 -32 -18 -35 -21 -3
-3 -27 -18 -55 -32 -27 -14 -76 -40 -107 -57 -81 -43 -95 -37 -90 41 3 56 0
66 -30 112 -23 35 -49 58 -88 78 -68 35 -109 33 -203 -12 -73 -34 -125 -81
-133 -120 -3 -14 -10 -36 -16 -48 -8 -17 -8 -30 0 -48 19 -40 15 -51 -36 -104
-28 -30 -55 -71 -65 -101 -11 -29 -36 -69 -62 -96 -59 -60 -64 -81 -91 -331
-6 -52 -10 -62 -28 -67 -12 -3 -36 -19 -53 -36 -35 -34 -50 -100 -38 -169 6
-38 -14 -101 -33 -101 -5 0 -16 -17 -25 -38 -23 -52 -23 -159 0 -184 15 -17
15 -21 -6 -61 -12 -23 -32 -58 -44 -77 -20 -32 -22 -48 -22 -196 l-1 -161 -29
-34 c-59 -67 -98 -140 -116 -217 -24 -101 -23 -155 2 -288 12 -60 23 -125 26
-145 6 -47 -20 -132 -52 -170 -14 -17 -25 -35 -25 -41 0 -14 -77 -116 -107
-143 -13 -11 -23 -25 -23 -30 -1 -6 -14 -26 -30 -45 -19 -21 -30 -46 -30 -64
0 -16 -12 -54 -26 -84 -22 -47 -25 -64 -20 -116 10 -114 24 -173 49 -212 26
-40 46 -114 31 -114 -13 0 -105 -89 -135 -130 -63 -87 -81 -173 -56 -278 l15
-63 -26 -10 c-14 -5 -46 -12 -71 -16 -25 -3 -68 -11 -96 -19 -27 -8 -86 -19
-130 -25 -44 -6 -111 -14 -149 -20 -38 -5 -83 -13 -100 -18 -17 -5 -65 -17
-106 -26 -41 -10 -111 -28 -155 -41 -44 -13 -107 -31 -140 -40 -33 -9 -64 -20
-70 -23 -5 -4 -44 -18 -85 -31 -87 -28 -185 -76 -239 -119 -22 -17 -43 -31
-49 -31 -6 0 -12 -4 -14 -8 -1 -5 -25 -23 -53 -42 -79 -54 -174 -137 -234
-205 -19 -22 -103 -107 -186 -190 -137 -137 -249 -258 -283 -307 -8 -10 -23
-29 -35 -42 -12 -12 -35 -39 -51 -59 -26 -32 -35 -37 -72 -37 -24 0 -46 -4
-49 -10 -3 -5 -12 -10 -19 -10 -14 0 -86 -32 -121 -53 -42 -26 -106 -102 -116
-139 -5 -22 -18 -42 -27 -45 -9 -4 -19 -10 -22 -14 -8 -12 -108 -77 -163 -106
-28 -16 -57 -34 -65 -40 -7 -7 -18 -13 -23 -13 -5 0 -38 -18 -73 -40 -59 -38
-68 -40 -139 -40 -42 0 -78 4 -82 9 -3 6 -27 13 -53 17 -42 6 -55 15 -122 85
-42 44 -80 79 -86 79 -5 0 -32 44 -59 97 -28 53 -57 104 -66 112 -9 9 -24 41
-34 71 -21 63 -33 93 -69 170 -14 30 -26 60 -26 67 0 6 -4 13 -8 15 -5 2 -22
32 -40 68 -43 89 -79 148 -110 183 -66 72 -86 87 -123 98 -34 11 -39 16 -39
43 0 17 -7 58 -14 91 l-15 60 31 48 c16 26 33 47 37 47 4 0 15 19 25 43 9 23
21 50 26 59 19 35 41 167 46 278 7 158 11 175 44 209 17 16 30 32 30 36 0 3
11 18 25 33 14 15 35 51 47 79 12 29 25 53 29 53 4 0 9 10 12 23 2 12 14 56
25 98 28 99 38 226 23 270 -15 43 -53 99 -67 99 -6 0 -21 9 -33 19 -21 19 -22
23 -11 78 17 87 18 88 61 134 77 82 97 167 59 246 -21 44 -20 48 19 153 48
127 7 233 -115 294 -33 16 -61 33 -64 36 -3 4 -32 16 -65 28 -95 32 -129 44
-150 53 -21 8 -32 10 -150 31 -38 6 -72 15 -75 18 -8 11 -256 39 -400 46 -158
7 -437 -19 -495 -45 -11 -5 -47 -17 -80 -27 -106 -31 -269 -127 -314 -186 -46
-58 -53 -182 -16 -263 41 -88 42 -97 23 -150 -33 -91 -21 -152 49 -249 55 -75
56 -94 4 -102 -31 -5 -52 -19 -95 -64 l-56 -58 0 -105 c0 -60 4 -109 10 -112
6 -3 10 -14 10 -23 1 -9 9 -35 20 -57 11 -22 19 -52 20 -66 0 -25 -36 -118
-49 -129 -10 -8 -29 -79 -36 -135 -4 -34 -1 -64 9 -94 15 -40 15 -46 -2 -80
-24 -51 -23 -163 2 -219 18 -40 19 -46 4 -92 -22 -68 -7 -129 44 -181 8 -8 36
-41 62 -74 27 -33 52 -62 55 -65 9 -8 86 -103 95 -118 4 -7 -6 -36 -25 -69
-44 -77 -45 -148 -2 -215 30 -48 112 -118 137 -118 8 0 47 -13 87 -30 41 -16
80 -30 87 -30 6 0 12 -10 12 -23 0 -13 4 -27 10 -33 18 -18 43 -193 32 -222
-6 -15 -13 -39 -16 -54 -4 -16 -11 -28 -16 -28 -6 0 -10 -8 -10 -19 0 -23 -55
-160 -87 -218 -13 -23 -23 -55 -23 -70 0 -16 -4 -33 -9 -39 -27 -28 -90 -313
-91 -408 0 -66 27 -165 56 -203 13 -17 24 -36 24 -41 0 -6 3 -12 8 -14 4 -1
20 -28 36 -58 16 -30 36 -62 45 -71 35 -35 68 -77 109 -139 24 -36 48 -66 53
-68 5 -2 9 -9 9 -16 0 -7 9 -23 20 -36 11 -13 20 -27 20 -32 0 -4 18 -35 40
-67 22 -32 40 -66 40 -75 0 -15 5 -26 31 -76 4 -8 24 -48 44 -87 20 -40 40
-73 46 -73 5 0 9 -7 9 -15 0 -22 72 -120 149 -201 39 -41 71 -78 71 -83 0 -10
-8 -9 -138 9 -68 10 -452 34 -532 34 -19 0 -73 -3 -120 -7 -47 -4 -121 -10
-164 -13 -43 -3 -86 -9 -95 -14 -9 -4 -63 -20 -121 -35 -58 -16 -116 -34 -130
-41 -14 -7 -45 -22 -70 -34 -25 -12 -63 -32 -85 -45 -22 -13 -43 -21 -47 -17
-12 13 -108 255 -103 260 3 3 38 6 78 7 l72 1 4 240 c11 548 -1 977 -28 1069
-5 17 -12 44 -15 60 l-6 30 16 -29 c25 -45 35 -84 44 -171 40 -378 44 -438 47
-755 3 -407 3 -392 19 -300 20 113 20 743 0 920 -9 74 -16 154 -16 178 0 23
-4 42 -9 42 -4 0 -11 15 -14 33 -3 17 -8 40 -12 50 -6 14 7 9 53 -18 33 -19
65 -35 71 -35 6 0 11 -4 11 -10 0 -5 17 -14 38 -20 38 -10 128 -86 147 -124
29 -56 95 -291 95 -337 0 -9 7 -39 14 -65 8 -27 25 -87 37 -134 11 -47 30
-107 40 -134 10 -27 21 -69 25 -93 3 -24 10 -46 15 -49 5 -3 9 -17 9 -32 0
-15 7 -36 15 -46 8 -11 15 -27 15 -37 0 -9 7 -33 15 -54 13 -29 19 -34 29 -25
19 15 10 73 -26 183 -16 49 -28 90 -26 91 2 1 26 0 54 -2 l52 -4 7 -128 c5
-103 10 -130 22 -134 9 -4 19 -4 22 0 7 7 8 390 1 398 -3 3 -16 3 -28 -1 -19
-4 -22 -12 -22 -51 l0 -45 -45 6 c-33 5 -48 3 -60 -9 -13 -14 -16 -13 -26 13
-6 15 -14 46 -19 68 -9 38 -20 83 -41 170 -6 22 -14 64 -20 94 -5 29 -14 62
-19 72 -6 10 -10 29 -10 42 0 14 -7 38 -15 53 -8 16 -15 42 -15 57 0 16 -4 36
-10 46 -10 19 -15 86 -9 110 2 8 -6 20 -19 26 -57 30 -67 50 -70 130 -2 82 0
83 46 42 17 -16 25 -18 34 -9 10 10 8 20 -6 46 -16 30 -17 38 -5 71 8 21 26
48 41 61 16 12 28 27 28 33 0 6 5 11 10 11 6 0 10 5 10 10 0 24 -51 8 -90 -29
l-42 -39 -41 39 c-23 21 -47 39 -52 39 -23 0 -54 88 -39 112 6 9 10 5 14 -11
3 -14 11 -26 18 -29 17 -5 52 82 52 132 0 42 1 43 43 56 23 7 53 16 67 20 14
5 43 11 65 15 86 15 102 45 23 45 -59 -1 -120 -16 -191 -48 -27 -12 -51 -22
-53 -22 -13 0 30 49 51 58 26 12 35 42 13 42 -7 0 -26 -7 -42 -15 -33 -18 -44
-14 -20 6 23 19 90 35 199 49 166 21 209 42 115 55 -64 9 -180 -2 -243 -22
-27 -8 -51 -12 -54 -9 -5 5 63 102 97 137 18 19 92 49 121 49 27 0 79 -31 79
-47 0 -7 4 -13 10 -13 5 0 17 -16 26 -35 9 -19 22 -35 29 -35 25 0 23 30 -5
87 -23 45 -38 62 -68 76 -45 20 -117 22 -159 5 -71 -30 -163 -150 -200 -258
-10 -30 -21 -56 -25 -58 -14 -6 -9 -78 7 -109 17 -34 11 -89 -11 -97 -19 -7
-18 -70 2 -112 15 -31 15 -35 0 -49 -9 -9 -16 -23 -16 -31 0 -8 -4 -22 -9 -32
-21 -37 -61 -131 -61 -141 0 -6 -16 -1 -35 10 -27 16 -35 28 -35 49 0 16 7 30
15 34 16 6 21 61 6 70 -5 3 -12 26 -15 51 -4 25 -14 57 -22 73 -27 53 -13 121
33 159 17 13 21 151 6 162 -20 13 -25 50 -24 163 1 114 -7 155 -36 186 -7 7
-13 19 -13 26 0 28 -54 121 -93 159 -79 77 -168 152 -190 159 -69 20 -191 0
-243 -41 -15 -12 -28 -20 -30 -18 -5 5 34 406 51 517 179 1199 682 2282 1481
3185 130 147 396 416 408 412 6 -2 16 -21 22 -43 6 -21 16 -52 22 -67 7 -16
12 -34 12 -41 0 -6 4 -16 9 -22 5 -5 14 -29 19 -54 6 -25 21 -80 33 -122 l21
-78 -30 -24 c-41 -36 -59 -101 -39 -148 14 -34 63 -78 86 -78 18 0 12 34 -8
47 -11 7 -27 28 -36 47 -15 31 -15 37 -1 63 8 15 28 42 44 60 22 23 27 34 18
43 -6 6 -19 50 -29 98 -10 48 -20 99 -24 114 -3 15 -11 33 -19 39 -8 6 -14 21
-14 33 0 11 -11 56 -24 98 l-24 78 61 55 c34 30 71 55 82 55 11 0 49 6 85 14
205 46 473 60 726 41 105 -8 227 -22 270 -31 43 -8 93 -17 111 -21 18 -3 38
-11 44 -19 14 -17 40 -18 33 -1 -14 36 -212 93 -374 107 -142 13 -574 8 -665
-7 -33 -6 -86 -16 -118 -23 -32 -6 -61 -10 -63 -7 -3 2 46 45 107 95 94 76
121 93 163 101 86 17 193 19 376 10 284 -15 430 -37 542 -82 43 -17 80 -28 83
-25 11 11 -8 38 -27 38 -10 0 -33 7 -49 16 -34 17 -175 57 -259 73 -82 15
-446 30 -515 21 -33 -5 -73 -9 -89 -9 -28 -1 -28 0 -12 18 24 27 235 172 399
275 152 95 457 266 476 266 6 0 11 -6 11 -12 1 -7 7 -49 15 -93 8 -44 15 -81
15 -81 0 -1 -18 -21 -40 -44 -46 -49 -55 -75 -46 -131 6 -40 49 -99 72 -99 15
0 34 -53 45 -129 15 -99 21 -123 38 -140 10 -10 25 -54 35 -99 10 -45 22 -84
27 -88 21 -12 8 -69 -21 -98 -17 -16 -30 -38 -30 -48 0 -10 -4 -18 -10 -18
-11 0 -14 -67 -2 -72 4 -1 15 -19 25 -38 10 -20 30 -41 46 -48 l28 -12 -4
-113 c-3 -61 2 -953 11 -1982 8 -1028 16 -1958 16 -2065 0 -107 5 -208 10
-225 5 -16 13 -43 18 -60 6 -20 11 48 15 208 4 131 5 243 2 247 -3 5 -10 690
-15 1522 -10 1562 -13 1779 -31 2228 l-11 265 -34 35 c-28 30 -34 43 -34 79 0
37 5 49 35 77 37 35 114 74 146 74 10 0 20 4 23 9 3 5 20 11 38 14 18 3 80 16
138 28 99 21 132 22 555 23 432 1 454 0 547 -22 104 -23 138 -27 122 -14 -13
12 -80 29 -144 37 -30 4 -63 12 -73 17 -30 16 -471 36 -587 27 -58 -4 -142 -8
-188 -8 -46 -1 -111 -7 -145 -15 -34 -8 -91 -19 -127 -25 -101 -15 -151 -28
-198 -51 -71 -34 -82 -26 -102 75 -6 33 -18 74 -25 90 -7 17 -21 67 -30 110
-10 44 -24 89 -31 100 -8 11 -14 27 -14 37 0 31 -22 66 -45 72 -59 15 -79 131
-32 182 59 63 242 144 326 144 12 0 21 4 21 9 0 8 58 18 330 56 229 33 524 29
811 -10 184 -25 238 -36 317 -66 13 -5 31 -9 40 -9 9 0 30 -7 46 -15 15 -8 34
-15 41 -15 8 0 20 -6 27 -13 7 -6 29 -21 49 -31 40 -21 69 -62 69 -96 0 -11 6
-33 14 -48 7 -15 17 -45 21 -67 4 -22 10 -44 14 -50 4 -5 16 -37 26 -70 10
-33 24 -71 31 -85 7 -14 28 -72 47 -130 19 -58 46 -134 60 -170 52 -133 79
-206 90 -240 6 -19 16 -38 23 -42 6 -4 17 -29 24 -55 7 -27 18 -55 25 -63 7
-8 25 -49 40 -90 16 -41 35 -82 42 -91 7 -8 13 -21 13 -27 0 -7 4 -20 9 -30
12 -25 37 -82 56 -127 28 -67 49 -105 57 -105 5 0 8 -5 8 -12 0 -6 20 -53 44
-102 24 -50 51 -107 60 -126 9 -19 20 -42 25 -50 5 -8 17 -33 27 -55 11 -22
21 -42 24 -45 3 -3 20 -36 39 -75 18 -38 39 -77 46 -85 7 -8 25 -37 40 -65 15
-27 38 -68 50 -90 12 -22 31 -56 41 -75 11 -19 25 -40 32 -48 6 -7 12 -22 12
-33 0 -10 4 -19 10 -19 5 0 21 -22 34 -48 35 -70 50 -80 66 -43 9 24 9 34 -2
55 -7 14 -28 53 -46 88 -19 35 -40 68 -48 74 -8 6 -14 17 -14 25 -1 8 -12 32
-25 54 -14 22 -31 55 -40 73 -8 19 -28 54 -45 78 -16 25 -30 49 -30 54 0 12
-34 74 -42 78 -9 4 -68 128 -68 142 0 5 -3 10 -7 12 -5 2 -19 28 -33 58 -13
30 -32 66 -41 80 -9 14 -19 37 -22 51 -4 14 -18 42 -32 63 -14 20 -25 41 -25
46 0 4 -8 23 -17 42 -9 18 -22 44 -29 59 -7 14 -23 52 -35 85 -12 32 -27 66
-33 74 -7 8 -20 40 -30 70 -11 30 -25 62 -32 71 -8 8 -14 21 -14 28 0 6 -16
46 -35 88 -39 83 -64 145 -72 183 -3 14 -9 27 -13 30 -4 3 -22 48 -40 100 -18
52 -36 100 -41 105 -4 6 -15 37 -24 70 -10 33 -28 82 -41 109 -13 27 -27 65
-30 84 -4 19 -15 58 -26 86 -26 71 -88 275 -109 361 -6 21 -16 53 -24 70 -17
37 -65 212 -109 401 -19 77 -38 150 -45 162 -19 36 -14 71 12 76 40 9 280 35
384 42 l101 7 17 -59 c9 -33 23 -72 31 -87 8 -16 14 -36 14 -46 0 -9 4 -21 8
-26 5 -6 14 -30 21 -55 7 -25 22 -65 33 -90 11 -25 24 -54 28 -65 25 -65 57
-140 92 -215 52 -113 56 -121 63 -147 4 -13 11 -23 16 -23 5 0 9 -7 9 -16 0
-9 6 -28 14 -42 25 -51 65 -137 82 -182 10 -25 20 -47 23 -50 3 -3 53 -97 110
-210 57 -113 119 -232 137 -265 18 -33 45 -82 59 -110 15 -27 42 -72 61 -100
19 -27 34 -55 34 -62 0 -7 3 -13 8 -13 4 0 23 -27 42 -60 19 -33 38 -60 43
-60 11 0 8 17 -5 32 -7 7 -28 42 -46 78 -34 69 -41 80 -84 146 -15 22 -38 65
-53 95 -14 30 -30 61 -35 69 -5 8 -19 35 -30 60 -12 25 -30 63 -41 85 -12 22
-34 69 -51 105 -57 119 -63 130 -70 130 -5 0 -8 5 -8 10 0 6 -13 40 -30 75
-16 35 -30 69 -30 75 0 5 -4 10 -9 10 -4 0 -16 21 -25 48 -10 26 -28 70 -41
97 -40 86 -55 123 -55 134 0 6 -4 11 -9 11 -5 0 -12 12 -16 27 -3 15 -24 64
-46 110 -21 45 -39 86 -39 91 0 4 -11 32 -25 60 -14 29 -25 55 -25 58 0 6 -10
29 -54 126 -14 31 -26 62 -26 68 0 7 -13 40 -29 73 -46 100 -46 105 -14 110
15 3 170 4 344 3 251 -1 319 -4 332 -15z m-1268 -68 c7 -17 12 -49 34 -188 6
-33 19 -94 29 -135 11 -41 23 -97 27 -124 4 -27 18 -81 31 -120 24 -73 33
-176 14 -176 -6 0 -28 9 -50 20 -22 11 -46 20 -54 20 -8 0 -16 4 -18 10 -3 11
-60 27 -238 65 -69 15 -128 30 -133 34 -7 7 3 97 39 346 8 61 18 134 21 163 3
29 10 55 15 58 12 8 206 42 244 43 22 1 34 -5 39 -16z m-325 -65 c0 -18 -9
-76 -20 -128 -11 -52 -25 -156 -30 -230 -6 -74 -13 -144 -17 -154 -5 -18 -12
-18 -117 -10 -278 21 -706 5 -896 -34 -140 -29 -248 -56 -270 -67 -14 -6 -39
-19 -57 -29 -61 -32 -67 -26 -81 76 -7 50 -9 95 -5 99 15 14 280 132 438 196
286 114 565 199 990 301 63 15 65 15 65 -20z m4050 -528 c109 -55 321 -178
465 -269 l120 -76 -75 -5 c-63 -4 -82 -10 -117 -35 -47 -34 -83 -93 -83 -136
0 -16 -6 -31 -12 -33 -59 -16 -109 -28 -143 -37 -90 -21 -85 -22 -85 7 0 39
-28 91 -53 98 -12 3 -39 3 -59 -1 -26 -4 -38 -2 -38 6 0 7 -9 32 -20 55 -11
24 -25 66 -31 92 -6 27 -15 57 -20 66 -13 26 -11 44 6 58 8 7 27 36 41 64 23
44 25 60 21 119 -2 37 -3 67 0 67 2 0 39 -18 83 -40z m-268 -8 c28 -23 34 -80
13 -118 -22 -41 -50 -48 -108 -28 -57 19 -74 55 -51 109 8 19 15 35 17 35 1 0
20 6 42 14 41 15 59 12 87 -12z m-809 -176 c11 -9 17 -27 17 -54 0 -32 -7 -47
-30 -70 -37 -38 -38 -71 -4 -135 14 -27 24 -55 22 -64 -5 -25 -38 -24 -48 1
-9 25 -38 52 -46 43 -10 -10 26 -74 57 -101 l30 -27 -51 -48 c-37 -35 -53 -59
-57 -84 -8 -54 6 -124 31 -154 21 -24 25 -25 58 -14 43 14 86 52 123 109 26
39 27 47 22 117 -3 41 -2 75 3 75 4 0 11 7 14 16 5 13 -1 15 -33 13 -44 -3
-71 13 -71 45 0 45 65 72 96 41 26 -26 38 -22 193 64 34 19 61 37 61 41 0 3
23 17 50 30 28 13 50 27 50 31 0 4 9 11 21 14 29 9 77 44 116 82 28 28 37 31
70 26 21 -3 40 -8 42 -10 3 -2 8 -25 12 -51 12 -81 29 -156 37 -161 4 -4 16
-33 26 -66 10 -33 33 -88 52 -123 19 -35 35 -74 36 -87 2 -24 10 -23 40 2 26
23 69 12 88 -22 9 -16 29 -34 43 -39 32 -12 216 9 262 28 17 7 60 21 98 30 37
9 78 26 92 38 21 18 23 27 18 63 -4 35 -1 46 20 68 30 34 68 35 101 3 33 -30
35 -80 4 -113 -23 -25 -48 -29 -65 -12 -7 7 -20 9 -30 5 -15 -6 -15 -8 -3 -16
11 -7 17 -41 22 -137 6 -129 22 -223 52 -320 l17 -53 44 0 45 0 0 -40 c0 -39
1 -40 34 -40 19 0 38 -4 41 -10 8 -12 157 -13 171 -1 5 4 43 17 84 27 75 19
104 37 95 62 -9 25 23 81 49 88 45 11 73 -3 86 -42 16 -49 0 -86 -46 -103 -19
-7 -40 -24 -48 -39 -26 -53 -49 -178 -61 -334 -6 -76 -6 -77 22 -90 28 -14 33
-32 19 -74 -6 -20 -4 -21 41 -17 87 9 108 17 111 44 5 35 31 59 62 59 21 0 30
-7 40 -29 18 -45 -4 -82 -60 -100 -25 -8 -53 -24 -63 -35 -46 -54 -99 -106
-108 -106 -33 0 -103 -65 -118 -109 -11 -34 -11 -34 9 -16 11 10 20 23 20 29
0 7 13 19 29 29 29 17 61 23 61 11 0 -11 -43 -69 -79 -105 -29 -31 -39 -36
-58 -28 -20 7 -25 5 -33 -17 -6 -14 -10 -28 -10 -32 0 -3 -14 -21 -32 -39 -22
-22 -33 -46 -37 -75 -5 -37 -10 -43 -32 -46 -18 -2 -31 -13 -43 -40 -10 -20
-26 -42 -36 -49 -10 -7 -21 -28 -25 -46 -10 -49 -26 -77 -47 -77 -10 0 -19 6
-19 13 -1 14 -3 20 -14 65 -4 17 -12 32 -16 32 -5 0 -13 10 -18 23 -5 13 -20
36 -33 53 -13 16 -37 49 -53 74 -17 24 -49 64 -72 88 -24 24 -43 48 -43 53 0
5 12 14 27 20 23 9 30 6 62 -29 48 -52 81 -93 81 -98 0 -3 15 -25 34 -50 19
-25 36 -50 38 -56 2 -6 9 -9 15 -7 11 4 -15 74 -38 103 -4 6 -30 38 -55 71
-26 33 -50 62 -54 65 -21 17 -17 40 13 63 43 33 77 43 77 23 0 -8 6 -19 14
-23 7 -4 24 -26 38 -48 14 -22 33 -46 42 -54 9 -7 16 -19 16 -26 0 -7 7 -18
15 -25 8 -7 15 -20 15 -29 1 -16 33 -61 44 -61 3 0 6 9 6 20 0 26 -27 80 -40
80 -6 0 -10 8 -10 19 0 10 -7 24 -15 31 -8 7 -15 18 -15 24 0 22 -150 209
-203 255 -11 9 -46 44 -80 79 -33 34 -65 62 -72 62 -6 0 -18 8 -27 18 -35 38
-97 92 -163 143 -38 29 -76 59 -83 66 -7 7 -33 25 -58 39 -24 14 -44 30 -44
35 0 5 -6 9 -13 9 -8 0 -32 13 -53 28 -21 15 -66 41 -99 57 -33 17 -62 33 -65
36 -9 12 -89 49 -105 49 -8 0 -15 3 -15 8 0 4 -24 16 -52 26 -29 10 -80 31
-113 46 -33 15 -80 33 -105 40 -25 7 -69 21 -99 32 -100 35 -203 49 -404 55
-167 5 -211 3 -282 -12 -47 -9 -93 -24 -102 -32 -16 -12 -12 -13 37 -8 30 4
71 11 90 16 51 13 342 10 435 -5 83 -13 267 -61 296 -77 9 -4 39 -16 65 -25
64 -22 339 -145 384 -173 19 -11 44 -25 55 -31 11 -6 34 -19 50 -30 17 -11 37
-23 45 -27 8 -3 17 -9 20 -13 3 -4 40 -31 83 -61 133 -92 128 -88 281 -222
100 -87 256 -247 256 -262 0 -8 -11 -17 -25 -21 -13 -3 -29 -12 -36 -20 -22
-26 -46 -14 -131 69 -47 45 -107 101 -134 124 -27 23 -65 56 -84 73 -19 17
-46 39 -60 48 -14 9 -53 38 -87 64 -34 27 -65 48 -68 48 -2 0 -48 29 -101 65
-52 35 -111 70 -130 77 -19 6 -34 16 -34 20 0 4 -8 8 -19 8 -10 0 -24 7 -31
15 -7 8 -16 15 -21 15 -8 0 -40 14 -164 71 -21 10 -135 51 -200 74 -22 7 -56
16 -75 20 -19 4 -39 11 -45 15 -24 19 -239 40 -399 40 -167 0 -267 -14 -304
-43 -20 -16 -35 5 -24 34 23 60 32 98 26 113 -13 34 40 67 144 91 35 8 82 15
104 15 53 0 118 20 118 36 0 18 -106 23 -153 7 -21 -7 -60 -15 -87 -19 -46 -6
-50 -5 -50 14 0 43 21 72 53 72 29 0 67 24 67 42 0 5 12 20 26 33 29 27 64 87
64 110 0 8 5 15 10 15 6 0 10 9 10 19 0 11 -4 23 -10 26 -5 3 -10 35 -10 70 0
53 -3 63 -15 59 -30 -12 -5 77 32 114 7 7 13 18 13 24 0 5 9 23 21 39 18 26
19 33 8 64 -10 27 -10 39 0 58 22 41 80 58 114 33z m1967 -380 c828 -632 1475
-1443 1899 -2378 117 -258 285 -718 268 -734 -4 -4 -80 -11 -169 -15 -90 -5
-246 -16 -348 -24 -346 -30 -385 -33 -485 -34 -124 -2 -138 -9 -91 -44 32 -25
41 -27 138 -27 57 0 177 7 268 15 294 26 713 55 718 50 2 -2 12 -34 21 -73
l18 -69 -121 -12 c-66 -6 -161 -11 -211 -12 -49 0 -121 -4 -160 -10 -67 -9
-318 -27 -399 -28 -33 -1 -37 -3 -26 -16 7 -8 19 -15 26 -15 8 0 14 -4 14 -10
0 -5 18 -10 40 -10 22 0 40 4 40 8 0 5 75 12 168 15 92 4 214 11 272 16 58 5
166 11 240 13 l135 3 27 -115 c14 -63 27 -122 27 -131 1 -13 -36 -17 -261 -29
-145 -7 -298 -15 -340 -17 -79 -5 -91 -12 -62 -40 14 -15 30 -15 143 -5 69 7
176 12 236 12 61 0 150 5 198 11 49 6 91 8 94 5 17 -16 73 -381 100 -646 13
-135 17 -267 18 -582 0 -223 -3 -410 -7 -414 -5 -4 -24 9 -43 29 -20 21 -44
37 -53 37 -20 1 -46 19 -55 40 -4 8 -11 22 -16 30 -5 8 -17 33 -27 55 -11 22
-22 42 -25 45 -7 5 -13 18 -223 440 -132 263 -173 341 -187 350 -13 9 -59 119
-59 141 0 12 -6 33 -14 47 -7 15 -19 45 -26 67 -14 46 -72 148 -105 185 -13
14 -24 30 -26 36 -12 37 -194 226 -241 250 -15 8 -28 18 -28 23 0 5 -17 17
-37 26 -21 10 -40 21 -43 24 -10 12 -120 61 -150 67 -16 4 -30 10 -30 13 0 11
-107 40 -190 51 -41 6 -77 14 -81 18 -3 4 -14 28 -24 55 -10 26 -21 47 -26 47
-4 0 -10 8 -13 18 -6 18 -93 113 -135 148 -16 13 -44 21 -90 24 l-66 5 -6 120
c-6 103 -11 128 -35 179 -34 71 -104 145 -174 183 -29 15 -56 36 -61 45 -5 10
-15 18 -21 18 -6 0 -21 11 -33 24 -12 13 -37 32 -55 41 -31 16 -32 18 -26 68
9 71 -7 184 -33 237 -11 24 -21 49 -21 55 0 6 16 26 35 45 19 19 35 40 35 47
0 8 6 16 14 19 8 3 17 21 20 40 5 23 13 34 24 34 41 1 74 51 82 124 3 34 11
52 24 60 24 13 34 20 66 47 14 12 34 29 45 38 29 23 135 156 135 169 0 6 6 15
13 19 6 4 21 25 31 46 11 20 25 37 32 37 17 0 75 58 104 105 33 52 50 102 50
144 0 52 -57 161 -84 161 -5 0 -18 7 -27 16 -26 23 -133 23 -177 0 -19 -10
-35 -16 -36 -14 -8 10 45 193 59 200 55 31 85 94 85 177 0 76 -15 126 -47 161
-13 13 -23 27 -23 31 0 3 -29 21 -64 39 -55 29 -70 32 -121 28 -31 -3 -60 -9
-63 -14 -4 -5 -20 -16 -37 -26 -35 -19 -75 -82 -75 -119 0 -23 -6 -27 -53 -39
-63 -15 -86 -12 -101 14 -19 33 -40 52 -73 65 -31 12 -32 15 -38 89 -3 43 -8
86 -10 98 -4 17 4 25 35 39 50 22 109 85 116 124 8 38 -3 117 -19 134 -7 7
-18 23 -25 36 -18 30 -13 28 118 -73z m-2198 -100 c-4 -56 -24 -106 -62 -151
-9 -11 -20 -28 -23 -37 -9 -25 -23 -22 -31 5 -16 62 3 130 55 188 22 24 39 48
39 52 0 5 6 7 13 4 8 -2 11 -22 9 -61z m302 48 c3 -9 6 -41 6 -73 0 -56 -1
-58 -56 -115 -36 -37 -60 -54 -66 -48 -19 19 -29 92 -18 130 12 42 22 56 68
95 38 31 57 34 66 11z m-29 -634 c6 -5 42 -11 80 -15 83 -9 213 -42 290 -75
11 -5 41 -16 66 -24 43 -14 144 -57 179 -77 8 -5 40 -20 70 -34 93 -44 140
-70 140 -77 0 -5 7 -8 15 -8 7 0 18 -6 22 -12 4 -7 30 -24 57 -38 48 -24 234
-156 296 -210 9 -8 43 -37 75 -65 32 -27 94 -83 137 -124 l78 -74 -31 -19
c-24 -15 -33 -16 -44 -6 -7 7 -40 38 -72 69 -32 31 -87 80 -123 110 -36 29
-66 57 -68 61 -2 4 -8 8 -13 8 -6 0 -20 11 -33 25 -13 14 -27 25 -31 25 -4 0
-21 12 -39 26 -45 36 -163 114 -174 114 -6 0 -12 6 -15 13 -7 17 -60 43 -115
56 -36 8 -41 7 -31 -5 7 -8 9 -32 5 -61 -17 -142 -18 -219 -1 -275 9 -32 20
-58 24 -58 23 0 33 -62 32 -185 -2 -133 -11 -194 -39 -255 -45 -102 -109 -219
-138 -253 -13 -16 -24 -32 -24 -37 0 -5 -13 -17 -30 -27 -16 -9 -30 -21 -30
-27 0 -13 -32 -35 -51 -36 -9 0 -22 -7 -29 -15 -7 -8 -25 -15 -41 -15 -15 0
-32 -6 -36 -12 -15 -23 -52 -38 -95 -38 -47 0 -78 13 -59 24 14 9 15 126 1
126 -5 0 -12 -12 -16 -27 -3 -16 -9 -37 -14 -48 -4 -11 -11 -28 -14 -38 -3
-10 -11 -17 -18 -15 -12 4 -46 67 -73 138 -36 91 -46 110 -82 144 -22 21 -59
41 -92 51 -31 10 -65 23 -76 29 -11 7 -47 18 -80 25 -33 7 -85 19 -115 28
-106 29 -125 33 -162 33 -21 0 -44 -7 -53 -16 -15 -16 -19 -15 -54 4 -34 20
-41 20 -83 7 -54 -16 -123 -57 -137 -82 -28 -52 -44 156 -16 211 8 15 15 36
15 46 0 29 11 50 26 50 9 0 14 -11 14 -27 0 -35 37 -112 68 -140 24 -23 72
-32 72 -14 0 5 -16 23 -35 39 -19 17 -37 42 -41 56 -3 15 -10 29 -15 32 -5 3
-9 18 -9 33 0 22 17 47 73 103 207 215 254 274 188 239 -11 -6 -39 -8 -64 -5
-48 7 -117 -10 -117 -29 0 -7 -3 -7 -9 -1 -5 5 -12 39 -16 75 -9 94 -1 100
125 98 54 -1 103 2 109 5 16 10 14 79 -3 101 -10 14 -30 20 -75 23 -34 2 -64
8 -67 13 -3 5 10 31 28 57 18 26 44 68 58 94 32 62 62 83 141 97 96 16 338 14
439 -5 47 -8 94 -17 105 -19 11 -2 54 -12 95 -24 41 -11 85 -21 98 -21 12 0
22 -3 22 -8 0 -4 24 -16 53 -26 46 -16 197 -85 237 -107 30 -18 41 -21 47 -15
7 7 -35 43 -62 52 -11 3 -27 12 -35 19 -8 6 -44 22 -80 34 -36 13 -81 30 -100
38 -66 28 -75 32 -125 51 -82 32 -120 42 -151 42 -16 0 -45 4 -64 10 -59 16
-269 27 -390 20 -124 -7 -176 -20 -227 -58 l-33 -23 0 28 c0 74 75 110 270
132 75 9 300 2 315 -9z m-687 -749 c11 -26 11 -33 -4 -55 -9 -15 -20 -26 -24
-26 -4 0 -19 -11 -33 -25 -34 -35 -45 -14 -14 27 14 18 30 50 37 71 14 45 21
46 38 8z m1654 -222 c18 -13 35 -26 38 -29 3 -3 19 -12 35 -19 18 -8 25 -16
17 -18 -13 -5 -73 20 -100 41 -16 13 -71 61 -106 93 -13 13 -26 34 -28 48 -4
20 4 15 53 -34 31 -32 72 -69 91 -82z m304 -157 c17 -15 36 -43 42 -61 15 -43
15 -154 1 -200 -17 -53 -17 -53 -44 -96 -36 -58 -36 -58 -85 -96 -24 -18 -53
-42 -64 -51 -11 -10 -25 -18 -32 -18 -7 0 -19 -6 -26 -13 -7 -8 -32 -26 -56
-40 -49 -32 -119 -36 -159 -10 -23 16 -25 21 -19 68 3 29 13 71 21 95 8 23 15
54 15 69 1 14 9 44 20 66 11 22 19 50 20 62 0 12 5 35 11 50 41 100 49 111
101 144 81 51 98 57 163 58 53 1 64 -3 91 -27z m-6956 -81 c113 -25 211 -51
225 -59 6 -4 38 -16 72 -28 34 -12 74 -31 89 -43 15 -11 33 -21 40 -21 16 0
34 -31 34 -57 0 -11 -13 -32 -30 -48 -16 -16 -30 -32 -30 -36 0 -4 -4 -19 -10
-34 l-10 -26 -37 20 c-110 58 -274 104 -443 126 -30 4 -68 9 -85 11 -16 2 -91
7 -165 10 -105 5 -153 3 -214 -10 -43 -9 -96 -16 -118 -16 -46 0 -180 -39
-280 -81 -38 -17 -73 -27 -78 -24 -6 3 -13 23 -16 44 -4 27 -14 43 -30 52 -32
17 -31 55 3 86 28 27 104 63 131 63 9 0 26 7 36 15 11 8 29 15 41 15 12 0 25
4 30 9 14 12 190 50 255 54 30 3 154 3 275 2 180 -2 237 -7 315 -24z m5082
-81 c19 -33 86 -69 129 -70 14 0 29 -4 35 -10 5 -5 47 -14 94 -19 95 -11 164
-34 135 -45 -25 -9 -135 -7 -180 5 -22 5 -92 11 -155 14 -63 2 -129 10 -146
16 -27 11 -36 10 -59 -5 -15 -10 -25 -19 -23 -21 2 -3 71 -9 154 -15 82 -5
184 -17 227 -25 43 -8 98 -15 122 -15 46 0 125 24 136 41 13 21 48 -9 55 -47
12 -67 -12 -206 -42 -245 -6 -8 -14 -22 -17 -32 -4 -9 -19 -22 -34 -27 -16 -6
-45 -19 -65 -31 -47 -25 -177 -35 -239 -19 -62 17 -99 60 -99 117 0 47 13 80
39 101 15 11 14 13 -2 26 -19 15 -178 33 -194 23 -6 -4 -8 -20 -5 -36 2 -18
-2 -36 -9 -44 -8 -8 -21 -24 -29 -36 -8 -11 -20 -21 -27 -21 -7 0 -13 -4 -13
-8 0 -9 -54 -42 -69 -42 -15 0 -14 53 0 67 7 7 18 73 25 149 8 75 19 143 25
150 6 7 48 31 95 54 46 22 88 49 94 60 14 27 22 25 42 -10z m-5075 -180 c81
-17 156 -35 165 -40 10 -6 24 -10 32 -10 8 0 36 -11 63 -24 26 -13 65 -31 86
-41 24 -11 37 -24 37 -37 0 -10 7 -32 14 -47 13 -24 13 -35 1 -80 -14 -53 -30
-81 -47 -81 -10 0 -5 105 7 153 7 24 5 27 -19 27 -16 0 -26 -6 -26 -14 0 -8
-11 -17 -25 -20 -28 -7 -34 -31 -10 -40 10 -3 15 -19 15 -43 0 -21 7 -48 15
-60 16 -22 11 -53 -9 -53 -6 0 -24 9 -41 20 -16 11 -40 20 -52 20 -12 0 -25 5
-28 10 -3 6 -16 10 -28 10 -13 0 -32 6 -43 14 -45 32 -424 72 -584 63 -135 -9
-345 -41 -365 -58 -6 -4 -33 -15 -60 -24 -28 -10 -57 -23 -66 -31 -43 -38 -59
6 -24 67 13 24 25 54 25 65 0 13 8 24 21 27 27 7 22 42 -6 42 -22 0 -85 59
-85 78 1 27 250 113 366 126 38 5 171 9 296 10 216 1 235 -1 375 -29z m-1031
-195 c17 -42 18 -84 1 -107 -34 -44 -76 72 -45 122 18 28 27 25 44 -15z m7544
-90 c7 -8 30 -18 52 -21 21 -4 40 -10 42 -13 6 -8 -35 -102 -50 -118 -31 -32
-25 -331 6 -341 15 -5 12 -48 -4 -61 -17 -14 -63 -125 -83 -201 -11 -45 -12
-63 -2 -100 7 -25 16 -49 20 -55 5 -5 9 -15 9 -22 0 -7 9 -38 21 -69 16 -41
38 -73 84 -118 35 -34 60 -67 57 -73 -4 -6 -27 -26 -52 -45 -25 -19 -65 -53
-90 -76 -25 -23 -49 -42 -55 -42 -5 0 -32 -12 -60 -25 -27 -14 -54 -25 -60
-25 -5 0 -22 -6 -37 -14 -14 -8 -43 -19 -65 -26 -21 -7 -43 -16 -49 -21 -5 -5
-35 -15 -65 -23 -84 -23 -122 -35 -144 -45 -11 -5 -60 -17 -110 -26 -49 -9
-130 -25 -180 -37 -99 -22 -334 -40 -377 -27 -15 4 -44 3 -65 -1 -21 -5 -56
-7 -78 -5 -22 3 -62 7 -90 10 -96 8 -196 47 -247 93 -40 37 -39 101 2 166 43
67 57 80 125 115 92 48 95 46 95 -49 0 -44 4 -80 8 -80 27 0 52 168 53 360 0
63 4 135 7 160 l7 45 60 6 c244 24 310 33 383 50 45 10 93 19 105 19 13 0 27
4 33 9 5 5 45 17 89 26 111 22 325 112 325 137 0 4 7 8 15 8 8 0 24 14 37 30
12 17 30 30 40 30 18 0 78 73 78 95 0 6 13 21 29 33 30 22 65 86 76 140 4 17
11 32 16 32 5 0 9 7 9 16 0 9 7 37 15 63 8 25 19 65 25 89 12 45 20 51 40 27z
m-6571 -49 c31 -7 94 -22 141 -32 47 -10 112 -33 145 -50 l60 -33 -3 -67 c-1
-38 -6 -71 -11 -74 -4 -3 -14 -40 -21 -83 -13 -75 -20 -91 -58 -119 -18 -14
-52 -80 -52 -103 0 -7 -5 -15 -10 -17 -6 -2 -13 -35 -16 -73 -3 -39 -7 -80
-10 -91 -4 -25 -88 -140 -119 -165 -11 -9 -36 -31 -55 -48 -47 -41 -76 -46
-128 -21 -46 22 -50 31 -26 51 40 33 56 107 33 152 -18 35 -59 66 -103 78 -23
6 -46 15 -52 20 -44 36 -245 88 -346 88 -31 1 -63 4 -72 7 -32 12 -15 24 37
24 30 1 60 7 71 15 11 8 26 15 34 15 26 0 82 50 97 87 40 96 -9 165 -135 191
-115 24 -205 31 -248 21 -24 -5 -47 -7 -51 -5 -12 8 -34 113 -28 130 4 9 15
19 24 22 10 3 33 12 52 20 19 9 53 19 75 24 23 5 66 16 96 25 30 10 93 21 140
25 121 12 472 3 539 -14z m7292 -116 c4 0 10 -13 14 -29 6 -30 70 -111 87
-111 5 0 27 -13 48 -30 21 -16 43 -30 48 -30 6 0 24 -12 39 -26 15 -14 32 -29
38 -32 19 -13 55 -71 76 -124 15 -39 19 -64 14 -98 -10 -75 -25 -83 -25 -15 0
66 -26 146 -59 183 -11 13 -21 27 -21 30 0 4 -17 18 -38 32 -20 14 -39 27 -42
31 -3 3 -27 16 -54 29 -52 25 -101 70 -111 101 -4 11 -10 19 -14 19 -8 0 -21
42 -36 113 -3 16 -2 45 2 65 7 35 8 33 17 -35 5 -40 12 -73 17 -73z m297 37
c17 -44 12 -54 -17 -35 -15 9 -21 23 -21 46 0 43 18 38 38 -11z m-8326 -198
c9 -5 28 -9 42 -9 14 0 27 -4 31 -9 3 -5 34 -13 70 -16 54 -6 67 -11 81 -33
14 -21 15 -30 4 -63 -25 -74 -79 -98 -222 -99 -53 0 -100 -4 -103 -10 -3 -5
-12 -10 -20 -10 -8 0 -25 -4 -40 -10 -22 -8 -24 -13 -15 -30 9 -17 5 -22 -42
-46 -29 -15 -55 -30 -58 -34 -3 -3 -13 -9 -22 -13 -20 -7 -38 18 -38 52 0 12
-11 44 -25 73 -30 62 -32 102 -5 145 22 37 47 51 145 83 39 12 84 28 100 35
30 13 86 10 117 -6z m8605 -26 c39 -50 66 -120 67 -173 0 -30 -3 -61 -7 -68
-15 -22 -27 -2 -27 44 0 48 -43 171 -66 190 -19 15 -18 24 2 24 9 0 23 -8 31
-17z m-947 -97 c0 -8 25 -33 56 -57 145 -115 174 -153 174 -239 0 -73 -16 -80
-24 -11 -11 98 -40 145 -123 202 -74 51 -127 119 -93 119 6 0 10 -6 10 -14z
m-6473 -38 c15 -7 33 -20 40 -28 21 -26 15 -84 -14 -126 -27 -40 -61 -119 -70
-164 -5 -23 -35 -69 -65 -102 -26 -26 -68 -117 -82 -174 -8 -32 -18 -102 -21
-154 -7 -97 -24 -177 -52 -240 -34 -77 -66 -136 -81 -151 -9 -9 -24 -25 -33
-35 -9 -11 -28 -29 -42 -41 -34 -29 -37 -62 -4 -56 14 3 26 -3 34 -15 16 -27
46 -143 38 -150 -7 -7 -67 24 -94 49 -11 11 -23 19 -26 19 -25 0 -65 79 -65
129 0 22 -5 52 -11 68 -23 56 -35 138 -27 170 5 17 22 41 38 53 40 28 42 84 5
128 -27 33 -30 43 -16 70 5 9 19 38 31 64 15 33 35 55 69 77 26 17 52 31 58
31 6 0 13 10 17 23 3 12 21 41 41 64 19 23 35 46 35 52 0 6 4 11 9 11 5 0 13
9 16 20 4 14 15 20 36 20 34 0 34 1 13 43 -15 28 -15 40 -4 112 20 121 72 206
142 232 43 15 52 15 85 1z m4394 -148 c6 -16 15 -30 20 -30 5 0 9 -6 9 -13 0
-18 56 -77 74 -77 8 0 18 -5 21 -10 4 -7 -3 -9 -22 -5 -47 11 -73 27 -73 47 0
10 -4 18 -10 18 -10 0 -40 63 -40 86 0 23 10 16 21 -16z m-5303 -66 c23 -8 49
-14 57 -14 8 0 15 -4 15 -9 0 -5 12 -12 28 -16 15 -3 34 -14 42 -24 8 -9 41
-25 72 -35 67 -20 82 -40 73 -97 -6 -35 -13 -42 -51 -60 -49 -24 -98 -22 -224
5 -45 10 -135 18 -225 20 -149 3 -150 3 -212 -27 -35 -16 -63 -33 -63 -36 0
-4 -20 -15 -45 -26 -28 -13 -45 -26 -45 -37 0 -21 23 -24 38 -5 6 7 44 30 85
51 l73 37 217 -3 c138 -2 220 -7 225 -13 4 -6 26 -17 49 -23 24 -7 51 -21 60
-31 12 -12 35 -19 73 -20 70 -3 94 -22 86 -70 -3 -19 -11 -38 -17 -42 -13 -8
-61 -3 -117 11 -24 6 -32 6 -29 -3 2 -7 23 -17 47 -23 43 -10 60 -26 41 -38
-19 -12 -166 -10 -220 4 -83 20 -421 -5 -421 -31 0 -4 -33 -24 -72 -44 -68
-34 -87 -49 -88 -67 0 -16 22 -7 53 22 50 47 112 71 216 83 134 16 353 12 409
-7 30 -10 32 -80 3 -96 -13 -7 -22 -7 -26 0 -3 5 -19 10 -35 10 -18 0 -34 8
-44 22 -15 22 -16 22 -16 2 0 -29 19 -44 57 -44 39 0 44 -21 11 -38 -13 -7
-66 -19 -118 -26 -148 -22 -252 -57 -293 -97 -19 -19 -45 -42 -58 -51 l-24
-17 33 -1 c21 0 47 11 75 31 l42 31 3 -28 c2 -15 -6 -45 -18 -66 -12 -21 -17
-38 -11 -38 16 0 81 72 87 97 7 27 7 27 37 11 62 -35 97 -70 97 -98 0 -38 -26
-98 -50 -112 -11 -7 -20 -18 -20 -24 0 -24 -80 -83 -134 -100 l-56 -18 -55 57
c-30 31 -55 59 -55 62 0 10 -92 123 -146 180 -58 61 -67 90 -58 181 6 55 3 70
-20 119 -31 67 -32 97 -6 175 19 56 19 62 3 131 -22 97 -10 142 53 204 25 25
48 45 52 45 4 0 14 9 22 21 8 12 31 32 50 45 34 24 35 24 240 18 132 -4 220
-11 248 -20z m5257 -28 c17 -9 36 -16 43 -16 6 0 12 -4 12 -10 0 -14 -46 -13
-73 1 -18 10 -24 8 -44 -17 -13 -16 -43 -49 -67 -74 -61 -62 -89 -115 -96
-180 l-6 -55 -13 30 c-16 36 -9 120 13 167 9 18 33 44 53 58 73 50 86 66 79
104 l-6 34 37 -13 c21 -7 52 -20 68 -29z m3187 -11 c38 -41 108 -61 108 -31 0
21 38 21 70 -2 75 -51 140 -121 140 -149 0 -28 -25 -30 -40 -4 -34 64 -90 94
-200 106 -71 8 -120 49 -120 99 0 23 6 20 42 -19z m-27 -335 c17 -5 59 -17 95
-26 36 -10 76 -24 90 -31 14 -7 33 -13 43 -13 34 0 16 -26 -25 -36 -47 -12
-133 -42 -160 -55 -10 -5 -23 -9 -30 -9 -6 0 -19 -6 -27 -13 -9 -7 -36 -22
-61 -32 -42 -18 -72 -37 -210 -134 -51 -36 -204 -193 -224 -230 -5 -9 -14 -20
-20 -26 -19 -17 -75 -105 -113 -177 -8 -15 -18 -30 -23 -33 -5 -3 -14 -22 -20
-43 -7 -20 -30 -74 -51 -119 -21 -46 -39 -88 -39 -96 0 -7 -6 -22 -14 -33 -18
-25 -33 -107 -16 -84 9 13 104 204 131 265 5 11 13 27 18 35 4 8 16 31 26 50
31 60 97 160 106 160 5 0 9 6 9 13 0 8 10 25 21 38 12 13 38 44 58 68 78 95
231 231 261 231 5 0 10 4 10 8 0 5 17 17 38 28 20 10 39 22 42 26 8 10 137 68
151 68 7 0 20 6 28 13 42 36 256 77 398 77 115 0 119 -1 190 -36 40 -20 73
-41 73 -45 0 -5 9 -9 19 -9 11 0 22 -4 25 -9 3 -5 18 -12 33 -16 16 -3 51 -24
80 -46 29 -21 54 -39 56 -39 12 0 147 -135 147 -146 0 -8 5 -14 10 -14 6 0 10
-5 10 -12 0 -6 10 -25 23 -42 31 -40 54 -88 63 -128 l7 -33 -49 45 c-27 25
-56 52 -65 60 -8 8 -41 33 -72 55 -36 25 -59 49 -63 66 -8 35 -99 83 -194 103
-92 20 -271 21 -366 2 -68 -13 -164 -44 -174 -56 -3 -3 -21 -12 -40 -20 -49
-19 -131 -69 -156 -97 -12 -13 -25 -23 -30 -23 -15 0 -146 -140 -178 -190 -17
-25 -43 -70 -59 -100 -16 -30 -40 -72 -53 -92 -13 -21 -24 -42 -24 -47 0 -4
-11 -28 -24 -52 -13 -24 -32 -69 -42 -99 -10 -30 -23 -62 -29 -70 -6 -8 -19
-42 -29 -75 -17 -62 -41 -127 -57 -157 -5 -10 -9 -29 -9 -42 0 -13 -12 -66
-26 -117 -29 -110 -37 -138 -59 -238 -9 -41 -18 -78 -21 -83 -5 -8 -16 -67
-34 -178 -20 -121 -31 -176 -40 -195 -5 -11 -18 -86 -30 -167 -11 -81 -24
-158 -29 -171 -5 -13 -12 -55 -15 -93 -10 -104 -25 -232 -36 -299 -5 -33 -10
-79 -10 -102 0 -24 -4 -43 -10 -43 -16 0 -87 -80 -106 -121 -11 -22 -26 -39
-36 -39 -9 0 -20 -4 -23 -10 -3 -5 -20 -16 -38 -25 -32 -15 -240 -187 -304
-251 -18 -18 -36 -34 -41 -36 -14 -5 -66 -47 -129 -105 -31 -29 -63 -53 -70
-53 -6 0 -16 -6 -20 -13 -4 -7 -23 -23 -41 -36 -19 -13 -44 -33 -56 -45 -59
-55 -109 -96 -117 -96 -5 0 -9 -5 -9 -10 0 -6 -18 -26 -40 -46 -39 -35 -50
-54 -31 -54 13 0 133 69 146 84 6 6 51 38 100 71 50 32 92 62 95 65 3 3 21 17
40 30 19 14 40 28 45 32 30 24 57 47 97 83 24 22 62 54 84 70 21 17 68 58 105
93 36 34 70 62 75 62 5 0 20 14 33 30 13 17 28 30 35 30 6 0 23 10 37 23 31
27 57 44 89 58 14 5 39 17 55 25 37 18 170 54 202 54 13 0 23 5 23 10 0 6 14
10 32 10 17 0 28 -3 25 -6 -4 -4 24 -17 60 -29 37 -13 69 -28 71 -34 2 -6 8
-11 13 -11 13 0 86 -49 120 -80 15 -14 33 -30 40 -36 53 -43 141 -158 199
-261 113 -198 172 -335 152 -355 -5 -5 -86 -10 -183 -11 l-174 -2 3 53 c5 73
-18 70 -42 -5 -16 -50 -84 -197 -124 -269 -7 -13 -28 -39 -47 -59 -19 -19 -35
-38 -35 -41 0 -21 -221 -200 -311 -250 -11 -6 -30 -20 -42 -31 -12 -10 -39
-28 -60 -39 -48 -24 -157 -131 -157 -154 0 -10 -7 -23 -15 -30 -8 -7 -15 -18
-15 -25 0 -14 -32 -86 -59 -131 -32 -53 -58 -236 -52 -367 2 -37 -1 -80 -7
-95 -5 -15 -15 -46 -22 -69 -10 -33 -21 -47 -52 -63 -71 -37 -92 -25 -103 55
-4 28 -18 87 -32 132 -23 77 -24 93 -19 239 5 142 9 165 38 248 40 116 58 203
49 230 -7 17 -16 3 -53 -74 -25 -52 -51 -112 -57 -132 -7 -21 -16 -40 -21 -43
-4 -3 -16 -29 -25 -58 -13 -43 -15 -85 -12 -242 3 -104 10 -227 17 -271 16
-103 7 -171 -23 -185 -12 -6 -35 -17 -50 -25 -39 -21 -73 -11 -81 23 -4 16
-17 55 -30 88 -13 33 -32 87 -42 120 -11 33 -22 62 -25 65 -4 3 -9 52 -13 110
-4 58 -12 149 -17 203 -13 111 -6 151 43 249 15 31 28 63 28 71 0 8 11 39 25
69 14 30 25 71 25 96 0 39 -1 41 -20 30 -16 -10 -23 -9 -43 10 -13 12 -26 22
-29 22 -4 0 -20 13 -36 30 -32 32 -76 42 -66 15 4 -8 2 -15 -3 -15 -6 0 -15
-11 -21 -25 -6 -13 -30 -34 -52 -45 -32 -16 -41 -26 -38 -43 2 -17 11 -23 40
-25 31 -3 40 2 61 30 14 18 27 42 30 53 2 11 3 3 2 -18 -3 -30 -12 -46 -39
-71 -42 -37 -45 -46 -12 -46 14 0 31 -7 40 -15 8 -8 26 -19 41 -25 31 -12 42
-36 27 -61 -7 -10 -12 -24 -12 -30 0 -7 -12 -37 -26 -68 l-27 -56 6 -200 c5
-180 8 -208 31 -277 35 -105 41 -150 27 -201 -11 -37 -19 -45 -62 -64 -27 -12
-57 -19 -65 -16 -18 7 -47 68 -70 148 -9 33 -31 92 -50 130 -30 64 -34 83 -44
220 -6 83 -15 186 -21 230 -11 89 -8 100 82 289 16 33 17 45 7 71 -9 27 -8 39
8 73 10 22 33 48 49 58 25 16 27 19 11 22 -12 3 -33 -12 -62 -44 -40 -43 -44
-52 -44 -100 0 -29 -3 -54 -7 -56 -13 -5 -59 -99 -76 -153 -8 -27 -17 -98 -20
-156 -3 -58 -10 -116 -16 -128 -9 -16 -9 -50 -1 -137 10 -114 10 -117 -14
-170 -25 -55 -51 -74 -101 -74 -38 0 -55 25 -55 83 0 29 -7 64 -14 79 -8 15
-19 69 -25 120 -11 93 -9 110 29 348 4 30 9 80 10 110 1 30 10 73 20 95 10 22
19 36 19 30 1 -5 18 17 38 50 21 33 41 65 45 70 18 23 74 99 83 114 5 9 21 34
35 56 30 46 60 108 60 124 0 6 4 11 9 11 4 0 11 17 14 38 3 20 8 45 13 56 6
16 4 17 -17 11 -13 -4 -29 -15 -36 -24 -11 -14 -13 -14 -14 -1 -4 43 23 106
49 112 13 4 23 24 34 69 9 35 21 84 27 109 6 25 21 95 32 155 11 61 24 119 30
130 5 11 14 54 19 95 5 41 16 111 25 155 8 44 20 109 25 144 6 35 13 68 16 73
7 10 14 55 34 208 6 47 15 94 20 105 5 11 14 79 20 150 32 366 35 383 70 530
22 91 26 113 54 285 9 53 34 158 56 235 23 77 46 158 51 180 6 21 14 44 18 50
4 5 16 39 25 74 10 35 26 79 37 98 10 18 19 38 19 44 0 5 9 29 20 51 11 23 20
50 20 59 0 10 6 22 13 26 7 4 21 28 31 53 10 25 23 54 28 65 6 10 24 44 39 74
16 30 32 57 37 60 4 3 23 31 41 61 19 30 37 57 41 60 3 3 15 20 26 39 10 19
27 43 37 53 9 10 17 23 17 28 0 6 -8 10 -17 10 -15 0 -16 -2 -3 -10 13 -8 13
-10 -1 -10 -20 0 -119 -109 -119 -130 0 -6 -7 -13 -15 -17 -9 -3 -22 -18 -31
-34 -8 -16 -30 -45 -49 -65 -19 -20 -35 -39 -35 -44 0 -4 -15 -26 -32 -48 -18
-22 -51 -70 -73 -106 -22 -36 -47 -68 -56 -71 -9 -3 -26 -24 -38 -48 -12 -23
-31 -53 -41 -67 l-20 -25 14 35 c8 19 31 64 50 100 19 36 47 88 62 115 15 28
27 52 26 55 0 3 5 8 12 12 7 4 18 25 26 48 7 22 17 40 22 40 4 0 8 9 8 19 0
10 6 21 13 24 7 2 22 25 35 50 12 24 29 50 37 57 8 7 24 32 35 56 10 24 23 44
28 44 5 0 15 19 22 43 7 23 26 59 44 79 83 98 145 194 146 225 0 12 11 30 25
41 14 11 25 25 25 31 0 6 5 11 10 11 6 0 22 10 35 23 14 12 46 33 72 46 27 13
65 35 86 49 63 42 347 75 367 43 7 -13 18 -13 72 -2 144 30 225 33 303 11z
m-1115 -145 c17 -21 -1 -39 -29 -30 -27 8 -28 45 -2 45 10 0 24 -7 31 -15z
m-2020 -10 c0 -8 -7 -15 -15 -15 -8 0 -15 -4 -15 -8 0 -5 -32 -40 -70 -78 -39
-38 -96 -107 -128 -154 -31 -47 -62 -91 -69 -98 -7 -7 -13 -22 -13 -32 0 -19
-15 -51 -42 -89 -17 -23 -17 -24 -52 -7 -22 10 -36 24 -36 35 0 20 43 107 66
132 8 8 14 22 14 31 0 16 58 108 68 108 4 0 22 24 41 54 41 65 90 97 196 126
46 12 55 11 55 -5z m110 -5 c0 -5 -7 -10 -15 -10 -8 0 -15 5 -15 10 0 6 7 10
15 10 8 0 15 -4 15 -10z m-5067 -78 c40 -36 2 -125 -40 -94 -10 7 -30 17 -45
23 -24 9 -28 17 -28 49 0 32 4 39 23 43 32 7 69 -2 90 -21z m6877 6 c0 -39
-32 -64 -65 -52 -21 8 -19 51 3 63 32 19 62 13 62 -11z m-1872 0 c-5 -15 -48
-24 -48 -10 0 14 12 22 33 22 10 0 17 -5 15 -12z m-64 -67 c7 -10 -22 -37 -30
-28 -9 8 3 37 15 37 5 0 12 -4 15 -9z m1831 -31 c10 -31 -3 -59 -35 -75 -36
-19 -80 -3 -80 29 0 52 100 92 115 46z m-2471 -14 c-3 -8 -12 -17 -20 -20 -8
-3 -14 -12 -14 -21 0 -8 -4 -15 -9 -15 -5 0 -23 -22 -41 -50 -18 -27 -36 -50
-41 -50 -5 0 -9 -4 -9 -8 0 -7 -95 -158 -117 -187 -5 -5 -20 -35 -36 -65 -15
-30 -45 -86 -67 -125 -79 -142 -220 -436 -220 -461 0 -8 -4 -14 -8 -14 -4 0
-16 -26 -26 -57 -10 -32 -22 -67 -27 -78 -4 -11 -11 -31 -15 -45 -4 -14 -10
-27 -14 -30 -8 -6 -79 -201 -92 -255 -5 -22 -13 -47 -17 -55 -11 -22 -99 -311
-131 -430 -5 -19 -18 -66 -29 -105 -10 -38 -27 -104 -37 -145 -9 -41 -21 -82
-25 -90 -4 -8 -15 -62 -24 -120 -9 -58 -20 -118 -25 -135 -10 -33 -33 -125
-49 -195 -6 -25 -18 -90 -26 -145 -8 -55 -19 -122 -25 -150 -7 -27 -14 -65
-17 -82 -3 -18 -9 -33 -14 -33 -5 0 -9 -6 -9 -14 0 -15 -55 -66 -71 -66 -11 0
-88 -84 -111 -121 -10 -16 -18 -36 -18 -44 0 -8 -4 -15 -10 -15 -5 0 -10 -15
-10 -34 0 -19 -4 -46 -10 -60 -11 -30 2 -118 19 -124 6 -2 11 -14 11 -27 0
-20 -7 -25 -35 -31 -19 -3 -38 -10 -41 -15 -9 -15 -42 -10 -65 9 -23 20 -64
103 -81 167 -11 40 -9 49 13 96 20 45 47 86 88 135 4 5 14 21 21 34 7 13 20
32 30 42 9 10 23 31 30 46 8 15 20 34 27 42 7 9 14 40 16 70 3 30 14 127 27
215 12 88 26 189 31 225 5 36 13 117 19 180 5 63 14 138 19 165 6 28 10 69 10
93 1 24 5 41 10 38 4 -3 11 25 15 62 4 37 16 119 27 182 11 63 25 142 30 174
6 33 12 63 15 68 3 5 10 33 14 61 5 29 13 68 19 87 5 19 17 64 27 100 9 36 20
74 24 85 4 11 13 40 19 65 57 221 80 308 87 324 5 13 4 17 -3 13 -6 -4 -23
-37 -38 -74 -14 -38 -33 -81 -41 -96 -8 -16 -14 -36 -14 -45 0 -10 -16 -62
-36 -117 -20 -55 -40 -116 -44 -135 -4 -19 -18 -71 -30 -115 -24 -85 -34 -131
-52 -235 -7 -36 -14 -67 -18 -70 -3 -3 -12 -36 -18 -75 -12 -71 -38 -207 -65
-345 -8 -41 -20 -133 -27 -205 -6 -71 -16 -147 -21 -167 -9 -34 -19 -115 -39
-318 -12 -129 -14 -134 -75 -166 -30 -16 -85 -46 -122 -66 -37 -20 -115 -60
-173 -88 -58 -28 -113 -55 -122 -60 -10 -6 -23 -10 -30 -10 -6 0 -19 -6 -27
-13 -9 -7 -36 -20 -61 -27 -25 -7 -65 -22 -90 -32 -72 -31 -83 -35 -125 -48
-22 -7 -53 -18 -70 -25 -47 -21 -124 -45 -143 -45 -10 0 -23 -5 -29 -11 -6 -6
-31 -15 -55 -20 -24 -5 -77 -15 -118 -24 -156 -31 -176 -35 -195 -44 -23 -11
-57 -16 -200 -32 -55 -6 -109 -14 -120 -19 -11 -5 -62 -11 -112 -15 -51 -3
-127 -15 -170 -26 -65 -16 -87 -18 -133 -9 -105 20 -190 42 -190 49 0 4 -14
15 -31 25 -17 10 -49 39 -72 64 -23 25 -83 87 -133 137 -153 153 -275 300
-317 382 -9 17 -22 37 -30 45 -7 7 -23 34 -35 59 -12 26 -31 54 -42 64 -11 10
-20 26 -20 37 0 10 -4 18 -10 18 -5 0 -12 11 -16 25 -3 14 -10 25 -14 25 -4 0
-15 21 -25 48 -10 26 -24 51 -32 55 -25 15 -13 34 29 46 50 15 171 73 176 84
2 4 8 7 13 7 5 0 17 8 28 18 10 9 44 37 76 62 103 81 252 224 260 251 4 10 10
19 14 19 4 0 25 24 46 53 22 28 44 57 48 62 24 30 112 175 140 228 17 34 35
65 40 68 4 3 20 41 36 85 16 43 34 93 41 109 17 43 37 122 45 180 3 28 13 59
21 70 15 20 15 20 34 -5 11 -14 20 -29 20 -33 0 -4 11 -20 25 -35 14 -15 25
-32 25 -37 0 -13 73 -95 85 -95 4 0 41 -33 80 -73 68 -70 115 -143 115 -180 0
-9 4 -18 9 -22 5 -3 20 -39 33 -80 13 -41 27 -75 32 -75 4 0 5 25 1 55 -4 37
-3 55 4 55 20 0 90 -71 111 -113 12 -23 32 -60 46 -82 13 -22 27 -47 30 -55 3
-8 11 -28 19 -45 31 -68 68 -257 85 -431 9 -92 8 -129 -5 -210 -9 -53 -20
-104 -25 -113 -4 -9 -11 -38 -15 -66 l-7 -50 21 33 c12 18 21 41 21 52 0 10 4
21 8 24 21 13 37 158 37 326 -1 180 -11 259 -47 360 -11 30 -29 82 -40 115
-12 33 -27 65 -33 70 -7 6 -15 18 -19 28 -5 15 -2 17 17 11 12 -4 24 -9 27
-13 3 -3 23 -19 44 -36 94 -69 240 -240 295 -343 8 -15 17 -29 20 -32 8 -7 27
-37 56 -92 23 -44 56 -79 43 -47 -3 8 -18 46 -33 84 -15 39 -33 75 -39 80 -6
6 -18 24 -26 40 -19 40 -63 102 -130 183 -65 79 -87 99 -160 149 -30 21 -61
44 -68 51 -7 6 -20 12 -29 12 -25 0 -70 37 -83 70 -7 16 -16 30 -21 30 -5 0
-9 6 -9 14 0 8 -16 24 -35 36 -20 12 -34 27 -32 34 1 6 23 21 48 34 36 18 56
21 109 18 36 -3 77 -8 92 -11 18 -5 31 -2 45 12 10 10 45 30 77 46 31 15 63
32 69 37 7 6 48 33 92 62 44 28 103 66 131 85 28 18 55 33 60 33 5 0 20 12 33
25 13 14 27 25 32 25 5 0 9 7 9 15 0 21 48 95 79 123 38 34 96 62 127 62 26 0
115 23 159 41 11 4 43 10 70 14 64 8 85 14 85 25 0 5 -29 7 -65 3 -36 -3 -65
-2 -65 3 0 10 41 62 85 109 17 17 61 65 98 106 275 299 393 417 477 479 19 14
48 37 64 51 39 32 140 98 189 124 20 11 37 22 37 26 0 4 8 9 18 13 9 3 24 10
32 15 8 5 29 14 45 21 17 7 38 17 49 22 46 24 189 72 266 89 47 11 114 26 150
35 148 35 294 62 342 63 28 1 36 -2 32 -13z m-4361 -18 c15 -12 16 -19 5 -70
-10 -47 -9 -71 6 -150 17 -86 46 -158 66 -158 4 0 15 -16 24 -35 10 -19 29
-43 44 -52 15 -10 45 -32 67 -49 22 -18 75 -48 117 -67 43 -20 82 -45 88 -57
17 -33 0 -44 -41 -27 -134 57 -256 72 -564 71 -264 0 -405 -13 -458 -40 -35
-17 -67 -18 -67 -1 1 30 41 56 128 82 41 12 77 31 105 56 23 22 47 39 53 39
13 0 74 66 74 80 0 5 10 19 23 32 53 53 77 124 77 225 0 61 3 75 18 79 9 3 42
17 72 30 60 26 136 31 163 12z m4957 -19 c0 -24 -23 -21 -28 4 -2 10 3 17 12
17 10 0 16 -9 16 -21z m1620 -36 c0 -4 -16 -21 -35 -39 -47 -43 -164 -98 -242
-115 -35 -7 -63 -16 -63 -20 0 -3 -24 -9 -52 -13 -29 -4 -66 -11 -83 -16 -60
-18 -263 -51 -400 -64 -224 -22 -449 4 -603 70 -18 8 -39 14 -47 14 -8 0 -15
4 -15 8 0 5 -16 17 -35 28 -43 23 -50 46 -31 99 18 51 31 54 50 13 16 -33 102
-98 130 -98 8 0 17 -4 21 -9 3 -6 27 -13 53 -17 26 -4 50 -12 54 -18 10 -15
596 -16 606 0 4 5 61 18 127 28 66 10 130 22 143 27 13 5 36 9 52 9 16 0 31 4
34 9 3 5 30 14 58 21 87 20 119 31 228 78 29 13 50 15 50 5z m2310 -21 c25
-12 56 -28 70 -36 14 -8 56 -30 94 -48 39 -17 86 -49 107 -70 20 -21 40 -38
44 -38 10 0 35 -27 35 -39 0 -6 7 -11 15 -11 8 0 15 -4 15 -9 0 -5 21 -31 46
-57 25 -27 59 -63 75 -80 16 -16 29 -33 29 -38 0 -6 51 -79 80 -113 5 -7 10
-17 10 -22 0 -5 6 -16 13 -23 7 -7 30 -43 50 -80 21 -37 43 -73 50 -80 29 -30
267 -533 267 -564 0 -17 -22 -18 -38 -2 -6 6 -14 9 -17 6 -7 -7 132 -148 146
-148 4 0 20 -12 35 -27 28 -28 61 -53 127 -98 24 -17 40 -36 44 -55 3 -17 9
-30 13 -30 5 0 11 -13 15 -30 4 -16 11 -32 16 -35 30 -19 -23 -362 -112 -717
-114 -456 -262 -858 -470 -1268 -130 -258 -175 -337 -198 -350 -28 -14 -396
-26 -404 -13 -4 6 2 31 13 54 14 31 20 66 20 119 0 76 -22 234 -39 280 -5 14
-19 66 -32 117 -12 51 -25 90 -29 88 -4 -2 -15 23 -24 56 -10 32 -22 61 -26
64 -4 2 -22 35 -41 72 -19 37 -37 70 -40 73 -3 3 -14 20 -23 39 -16 29 -60 94
-129 186 -56 76 -230 231 -299 267 -18 9 -38 21 -43 25 -19 15 -80 42 -107 49
-16 3 -28 10 -28 15 0 5 -7 9 -16 9 -22 0 -12 24 12 28 10 1 55 13 99 27 44
13 107 31 140 40 33 9 75 23 93 31 18 8 41 14 52 14 25 0 50 10 50 21 0 5 -7
9 -15 9 -8 0 -15 7 -15 15 0 25 250 135 308 135 11 0 39 7 62 15 56 20 555 23
610 5 19 -7 55 -16 80 -20 58 -10 190 -48 213 -61 26 -14 37 0 12 14 -11 7
-45 21 -75 33 -30 11 -66 25 -80 31 -30 13 -160 43 -187 43 -10 0 -25 6 -31
13 -16 15 -545 18 -577 3 -18 -9 -98 -29 -170 -43 -16 -3 -37 -11 -45 -18 -16
-12 -84 -45 -95 -45 -7 0 -103 -67 -146 -101 -14 -11 -52 -25 -85 -30 -142
-23 -176 -32 -244 -62 -56 -24 -157 -50 -173 -44 -16 6 -16 11 10 152 10 50
21 93 25 96 5 3 13 30 17 60 5 30 32 124 60 209 28 85 51 161 51 168 0 6 4 12
9 12 5 0 16 24 26 53 9 28 30 80 46 114 16 34 29 69 29 78 0 8 4 23 9 33 5 9
35 71 66 137 88 186 90 190 98 193 4 2 7 11 7 20 0 12 -5 10 -25 -8 -14 -13
-25 -27 -25 -32 0 -4 -18 -37 -40 -73 -22 -36 -40 -71 -40 -79 0 -7 -7 -19
-15 -26 -8 -7 -15 -16 -15 -21 0 -5 -18 -47 -40 -94 -22 -47 -40 -88 -40 -91
0 -3 -11 -29 -25 -58 -28 -59 -71 -175 -116 -311 -16 -49 -33 -99 -38 -110 -6
-11 -19 -58 -30 -105 -24 -95 -36 -115 -49 -79 -19 49 -31 96 -37 149 -4 30
-11 60 -17 67 -11 13 -24 111 -38 278 -5 66 -14 147 -20 180 -5 33 -10 105
-10 160 0 71 -3 96 -11 88 -17 -17 -13 -404 5 -560 21 -172 54 -329 76 -358
22 -30 33 -114 22 -184 -12 -80 -24 -95 -82 -106 -19 -4 -40 -11 -46 -16 -6
-5 -42 -13 -80 -18 -82 -11 -131 -25 -153 -44 -9 -8 -35 -19 -59 -25 -34 -8
-44 -7 -48 3 -3 8 2 68 10 135 9 67 16 137 16 155 0 19 4 36 9 39 5 4 9 26 9
51 0 70 12 123 28 129 12 5 15 22 13 83 -3 86 5 161 26 238 7 28 16 75 20 105
9 76 34 199 44 219 5 9 12 36 16 61 4 25 16 79 27 120 11 41 29 111 39 155 11
44 24 88 29 97 6 10 10 31 10 47 0 16 6 42 14 58 8 15 22 57 32 93 10 36 28
88 40 115 12 28 30 78 40 113 10 34 21 62 26 62 4 0 8 4 8 9 0 27 126 260 169
314 44 54 135 127 175 141 17 6 47 20 66 31 19 11 55 29 80 39 25 10 59 25 75
32 96 45 334 54 415 16z m-4045 -11 c-7 -23 -25 -29 -25 -8 0 14 21 39 28 33
2 -3 1 -14 -3 -25z m1865 10 c14 -26 5 -46 -46 -97 -38 -39 -47 -44 -88 -44
-39 0 -46 -3 -46 -19 0 -11 6 -21 13 -24 21 -7 -8 -48 -94 -133 -104 -105
-116 -114 -138 -114 -22 0 -26 4 -35 43 -6 26 0 35 59 91 36 34 65 64 65 68 0
14 84 88 101 88 11 0 24 11 31 25 6 14 15 25 20 25 4 0 8 5 8 11 0 6 16 31 36
55 30 36 42 44 70 44 23 0 37 -6 44 -19z m-1782 -38 c-4 -34 -48 -48 -48 -16
0 22 18 43 38 43 9 0 12 -9 10 -27z m-113 -90 c-11 -76 -11 -101 -1 -141 10
-42 -18 -57 -45 -24 -17 22 -39 29 -39 14 0 -10 38 -42 49 -42 19 0 61 -62 61
-91 0 -16 -2 -29 -5 -29 -2 0 -21 11 -41 25 -20 14 -41 25 -45 25 -17 0 29
-38 74 -60 25 -12 59 -38 77 -56 17 -19 38 -34 46 -34 8 0 14 -4 14 -10 0 -9
20 -19 110 -57 95 -40 132 -45 311 -41 148 4 190 9 284 32 61 16 114 32 120
37 5 5 25 9 45 9 19 0 63 7 98 15 62 15 82 13 82 -6 0 -12 -47 -55 -89 -80
-18 -11 -35 -29 -38 -40 -3 -10 -11 -19 -18 -19 -8 0 -21 -18 -31 -40 -14 -32
-23 -40 -44 -40 -40 0 -88 -28 -105 -61 -9 -17 -24 -29 -36 -29 -33 0 -82 -25
-120 -62 -27 -26 -49 -37 -83 -42 -35 -6 -55 -16 -81 -43 -32 -33 -37 -35 -61
-24 -30 13 -58 7 -93 -20 -19 -15 -34 -18 -77 -13 -42 5 -59 3 -81 -11 -18
-12 -28 -14 -31 -7 -8 26 -72 45 -130 39 -53 -6 -59 -4 -86 24 -16 16 -36 29
-44 29 -22 0 -52 30 -52 51 0 9 -18 36 -41 59 -25 25 -39 47 -35 56 3 8 0 34
-8 57 -20 63 -5 370 19 397 7 8 20 35 29 60 8 25 20 46 26 48 5 2 10 18 10 37
0 18 6 38 13 44 8 6 22 30 33 53 18 42 40 67 58 68 5 0 5 -25 1 -57z m85 -27
c0 -29 -12 -39 -34 -30 -19 7 -21 40 -3 47 26 11 37 6 37 -17z m87 11 c11 -17
59 -47 76 -47 8 0 34 -11 58 -24 79 -43 178 -56 435 -56 233 0 331 9 513 46
42 9 80 20 86 25 5 5 29 9 53 9 38 0 43 -2 32 -15 -6 -8 -33 -26 -58 -40 -37
-21 -51 -24 -64 -16 -36 22 -68 8 -82 -37 -10 -30 -40 -57 -92 -82 -52 -24
-64 -25 -64 -5 0 8 -4 15 -8 15 -4 0 -13 13 -19 30 -15 41 -55 55 -97 35 -27
-13 -56 -49 -56 -71 0 -2 18 8 40 22 45 30 84 27 93 -6 8 -30 -35 -76 -78 -84
-19 -4 -39 -14 -44 -23 -6 -11 -29 -19 -68 -24 -32 -4 -76 -12 -98 -18 -60
-16 -278 -15 -363 3 -71 15 -118 41 -171 95 -22 24 -23 25 -5 38 60 42 64 47
64 77 -1 32 -29 76 -50 76 -6 0 -21 -5 -33 -12 l-22 -12 24 -6 c32 -7 45 -31
37 -63 -5 -22 -12 -27 -36 -27 -31 0 -46 25 -36 58 3 9 2 32 -3 50 -18 63 10
131 36 89z m1402 -19 c-12 -23 -28 -38 -41 -38 -24 0 15 58 40 59 10 1 10 -4
1 -21z m-2180 -50 c-12 -24 -25 -45 -28 -48 -4 -3 -12 -17 -18 -32 -12 -27
-33 -38 -33 -18 0 6 5 10 10 10 6 0 10 5 10 11 0 13 68 119 76 119 2 0 -5 -19
-17 -42z m2111 -18 c0 -5 -9 -14 -20 -20 -22 -12 -23 -10 -14 14 7 17 34 22
34 6z m-1692 -12 c18 -18 15 -45 -10 -94 -25 -50 -55 -66 -75 -38 -17 23 -17
95 0 116 21 28 65 36 85 16z m272 -14 c0 -8 -5 -14 -11 -14 -5 0 -7 -5 -4 -11
4 -6 -2 -5 -14 3 -26 16 -27 35 -3 41 22 5 32 -1 32 -19z m1350 -24 c0 -11 -7
-20 -15 -20 -15 0 -21 21 -8 33 12 13 23 7 23 -13z m-1343 -40 c16 -24 6 -52
-16 -48 -17 3 -26 31 -17 54 7 19 19 18 33 -6z m1293 11 c0 -13 -26 -32 -33
-24 -14 13 -6 33 13 33 11 0 20 -4 20 -9z m-96 -66 c-3 -8 -21 -23 -39 -34
-34 -20 -34 -20 -40 0 -4 11 -5 22 -3 23 1 1 16 12 32 24 21 16 32 19 42 11 7
-6 10 -17 8 -24z m-1146 -58 c3 -23 0 -27 -21 -27 -29 0 -43 26 -26 47 18 21
44 11 47 -20z m-386 1 c29 -34 7 -108 -31 -108 -6 0 -11 -4 -11 -10 0 -15 -17
-12 -40 7 -25 21 -26 61 -2 102 21 37 56 41 84 9z m1394 -23 c-17 -25 -51 -31
-60 -10 -7 21 54 61 66 42 4 -6 1 -21 -6 -32z m157 -5 c-15 -18 -40 -38 -55
-46 -29 -15 -98 -19 -98 -6 0 16 166 97 178 86 2 -1 -9 -17 -25 -34z m141 24
c10 -4 16 -18 16 -38 0 -24 -8 -36 -33 -53 -54 -37 -63 -37 -76 -4 -15 34 -5
60 31 85 24 17 38 19 62 10z m-406 -49 c5 -21 -14 -35 -45 -35 -33 0 -28 40 7
53 22 8 35 3 38 -18z m-825 -7 c17 -27 -8 -50 -39 -36 -23 11 -32 37 -17 52
12 11 45 2 56 -16z m709 -37 c-3 -29 -1 -27 -29 -35 -32 -10 -53 29 -26 50 28
22 59 14 55 -15z m-608 -6 c22 -17 15 -45 -12 -45 -25 0 -44 23 -36 44 8 20
23 20 48 1z m500 -29 c-11 -36 -42 -47 -63 -22 -23 28 9 58 52 48 13 -3 16
-10 11 -26z m-5584 9 c47 -9 114 -20 150 -26 101 -17 170 -38 170 -53 0 -19
-17 -24 -140 -47 -224 -40 -643 -20 -847 43 -40 12 -43 35 -5 44 15 3 36 9 47
14 11 5 54 11 95 15 41 3 98 9 125 14 89 14 315 12 405 -4z m5203 0 c20 -8 57
-15 82 -15 32 0 45 -4 45 -14 0 -22 -26 -27 -103 -20 -86 8 -103 17 -79 45 9
10 17 19 18 19 1 0 18 -7 37 -15z m251 -11 c9 -24 -2 -34 -40 -34 -40 0 -46
21 -11 38 31 15 44 14 51 -4z m616 -10 c18 -21 1 -88 -23 -92 -42 -8 -65 59
-31 92 20 20 38 20 54 0z m-7857 -9 c20 -8 47 -26 61 -40 14 -14 28 -25 31
-25 12 0 125 -129 125 -143 0 -6 -4 -6 -12 0 -16 12 -142 33 -198 33 -41 0
-72 -6 -203 -37 -37 -8 -70 -14 -72 -11 -3 2 -2 33 1 69 7 71 33 111 97 149
40 23 121 26 170 5z m6291 -21 c34 -34 14 -98 -34 -109 -43 -10 -63 10 -56 53
10 62 56 91 90 56z m2206 -53 c0 -12 -20 -25 -27 -18 -7 7 6 27 18 27 5 0 9
-4 9 -9z m-736 -36 c15 -59 -76 -141 -126 -114 -28 15 -19 67 19 108 21 23 37
31 64 31 31 0 38 -4 43 -25z m-5587 -21 c3 -8 0 -41 -7 -72 -7 -31 -16 -79
-21 -106 -4 -27 -12 -52 -17 -55 -5 -3 -13 -22 -17 -41 -12 -60 -151 -327
-189 -366 -8 -7 -24 -30 -37 -51 -13 -21 -26 -40 -29 -43 -3 -3 -31 -41 -62
-85 -61 -86 -182 -215 -203 -215 -15 0 -45 75 -45 111 0 14 -4 29 -10 35 -11
11 -42 127 -60 229 -7 39 -18 88 -26 110 -7 22 -20 81 -29 130 -9 50 -25 115
-35 146 -11 31 -24 85 -31 120 -6 35 -13 76 -16 91 l-5 28 213 -6 c235 -7 409
5 524 35 90 24 94 24 102 5z m4135 -51 c26 -24 23 -67 -7 -87 -36 -24 -69 -20
-85 10 -12 22 -12 29 5 60 21 38 56 46 87 17z m-152 -52 c0 -22 9 -55 19 -73
11 -18 29 -67 42 -108 24 -81 63 -130 105 -130 16 0 24 -7 26 -22 2 -13 21
-34 46 -51 26 -18 42 -36 42 -49 0 -15 4 -18 18 -13 12 5 113 24 129 25 1 0
-4 13 -10 30 -16 43 1 80 48 107 35 20 41 20 67 7 33 -17 38 -59 12 -99 -13
-20 -25 -25 -55 -25 -45 0 -52 -17 -11 -26 15 -3 47 -15 70 -25 35 -16 47 -18
59 -8 11 10 21 10 48 0 30 -10 39 -9 73 8 31 16 47 18 72 11 38 -11 74 1 111
36 21 20 38 26 81 27 48 2 62 8 102 40 25 21 46 43 46 48 0 5 21 9 46 9 42 0
51 5 90 44 30 29 59 47 88 55 37 9 92 55 108 90 6 12 89 53 96 46 4 -3 -19
-55 -51 -115 -31 -59 -57 -115 -57 -124 0 -9 -4 -16 -9 -16 -5 0 -19 -27 -31
-60 -12 -33 -27 -63 -31 -66 -5 -3 -9 -15 -9 -27 0 -12 -7 -35 -15 -51 -8 -15
-15 -35 -15 -42 0 -8 -4 -14 -9 -14 -5 0 -12 -12 -16 -27 -3 -15 -10 -30 -13
-33 -4 -3 -15 -30 -25 -60 -10 -30 -25 -71 -34 -90 -39 -84 -93 -223 -93 -238
0 -7 -4 -20 -10 -30 -9 -16 -55 -161 -82 -257 -6 -22 -17 -51 -23 -65 -7 -14
-20 -52 -30 -85 -10 -33 -23 -73 -30 -90 -20 -47 -45 -131 -45 -149 0 -9 -4
-24 -9 -34 -5 -9 -17 -44 -26 -77 -21 -72 -50 -163 -66 -202 -18 -43 -26 -65
-39 -103 -19 -52 -54 -125 -62 -128 -5 -2 -8 -11 -8 -21 0 -9 -11 -32 -24 -51
-13 -19 -27 -46 -31 -60 -4 -14 -15 -32 -24 -40 -10 -8 -27 -31 -38 -50 -12
-19 -35 -48 -52 -64 -17 -17 -31 -35 -31 -41 0 -7 -9 -20 -21 -31 -11 -10 -29
-39 -40 -64 -11 -25 -23 -52 -28 -60 -4 -8 -14 -39 -21 -68 -7 -30 -19 -56
-28 -59 -8 -4 -38 1 -66 10 -28 9 -89 21 -136 28 -47 6 -117 18 -157 25 -40 8
-90 14 -113 14 -22 0 -40 4 -40 9 0 4 -33 11 -72 15 -183 16 -284 30 -298 42
-9 7 -47 18 -85 24 -60 10 -86 9 -177 -8 -101 -18 -110 -18 -140 -3 -23 12
-35 28 -46 63 -20 64 -3 93 60 101 24 3 72 11 108 17 46 8 88 8 145 1 44 -5
125 -12 180 -15 176 -10 391 -57 513 -112 29 -13 69 -28 90 -33 20 -5 47 -13
60 -16 12 -4 22 -3 22 2 0 11 -69 43 -93 43 -8 0 -22 6 -29 13 -7 7 -40 21
-73 32 -33 10 -64 22 -70 26 -34 24 -366 89 -455 89 -41 0 -82 4 -90 10 -17
10 -1 17 120 55 41 13 134 42 205 64 72 23 133 41 137 41 4 0 22 9 40 20 l33
21 -35 -6 c-19 -3 -57 -12 -85 -20 -27 -8 -111 -30 -185 -49 -244 -62 -305
-79 -325 -87 -35 -16 -169 -49 -197 -49 -35 0 -35 14 -1 58 41 54 89 128 115
175 13 23 26 44 30 47 15 12 40 106 65 243 3 15 9 27 14 27 5 0 9 10 9 23 0
20 25 122 49 201 31 103 65 231 86 331 20 97 36 159 46 180 4 11 22 73 39 138
17 66 35 126 40 135 13 25 50 164 50 188 0 11 4 24 8 30 5 5 17 36 27 69 10
33 30 92 45 130 15 39 33 93 40 120 8 28 19 59 26 70 6 11 19 43 28 72 10 28
25 62 35 75 10 13 26 48 36 78 20 61 52 120 66 120 5 0 9 -18 9 -39z m-6010
-11 c8 -5 34 -14 57 -20 24 -7 56 -28 75 -48 l33 -35 -36 21 c-71 43 -81 16
-19 -50 38 -41 50 -68 31 -68 -5 0 -14 7 -21 15 -7 8 -20 15 -29 15 -9 0 -25
7 -35 15 -11 8 -32 15 -47 15 -15 0 -31 5 -34 10 -8 12 -189 13 -213 1 -9 -5
-42 -17 -72 -26 -30 -10 -62 -24 -71 -31 -49 -43 -52 13 -3 69 26 31 32 43 20
45 -8 2 -25 -2 -36 -8 -19 -10 -21 -9 -18 11 3 24 38 39 138 59 25 5 63 14 85
19 42 10 168 4 195 -9z m7424 -11 c19 -56 -18 -99 -86 -99 -21 0 -29 6 -34 25
-8 33 3 75 20 75 7 0 19 7 26 16 20 23 63 14 74 -17z m721 -56 c-36 -77 -51
-112 -66 -148 -9 -23 -13 -26 -16 -12 -4 17 49 148 73 177 6 8 15 26 19 40 5
14 10 20 12 13 2 -6 -8 -38 -22 -70z m-1910 -29 c32 -35 32 -67 -2 -99 -36
-33 -71 -30 -94 10 -23 40 -23 57 2 89 27 34 63 34 94 0z m1026 -12 c28 -27 8
-71 -45 -99 -59 -32 -96 64 -38 99 35 23 58 22 83 0z m-1866 -107 c-9 -41 -21
-72 -26 -69 -5 3 -9 -3 -9 -13 0 -10 -7 -31 -15 -47 -8 -15 -15 -36 -15 -45 0
-9 -7 -25 -15 -35 -8 -11 -15 -28 -15 -38 0 -10 -3 -18 -7 -18 -5 0 -17 -30
-28 -66 -17 -56 -45 -105 -45 -78 0 11 57 181 70 209 22 48 60 150 60 161 0 7
6 19 13 26 8 7 20 38 27 68 20 81 24 33 5 -55z m-5420 28 c92 -31 124 -47 125
-65 0 -19 -26 -25 -32 -8 -2 6 -20 13 -40 17 -34 5 -39 3 -55 -26 -10 -17 -24
-31 -32 -31 -21 0 -11 -151 12 -174 23 -23 22 -35 -5 -45 -17 -6 -33 -3 -60
13 -43 24 -68 14 -49 -22 9 -16 6 -21 -16 -31 -15 -7 -44 -26 -66 -43 l-39
-31 -39 43 c-21 24 -39 49 -39 55 0 7 -12 24 -26 39 -25 24 -26 30 -20 84 4
31 14 83 23 116 18 63 19 64 133 107 60 22 163 23 225 2z m7108 -15 c18 -24
18 -27 2 -61 -37 -78 -148 -55 -115 24 12 28 66 69 84 65 6 -1 18 -14 29 -28z
m-719 -41 c14 -22 -8 -65 -40 -77 -53 -20 -84 12 -64 64 17 45 79 53 104 13z
m530 -19 c36 -38 22 -93 -28 -106 -41 -11 -66 5 -66 43 0 52 63 94 94 63z
m-1139 -17 c-3 -5 -1 -12 5 -16 5 -3 10 -1 10 4 0 6 5 11 10 11 17 0 11 -33
-13 -75 -12 -22 -33 -73 -46 -112 -14 -40 -28 -73 -33 -73 -11 0 0 61 13 75 5
5 9 17 9 27 0 9 11 43 25 74 17 39 22 61 15 69 -5 6 -7 15 -3 18 9 10 15 8 8
-2z m974 -17 c18 -13 22 -22 17 -47 -11 -52 -61 -73 -98 -40 -29 26 -23 60 15
83 39 24 37 24 66 4z m-6711 -19 c2 -2 -2 -13 -8 -25 -6 -12 -9 -33 -6 -46 8
-32 43 -32 58 1 10 22 8 29 -12 50 l-23 25 36 0 37 0 0 -133 c0 -101 -4 -138
-15 -154 -15 -21 -15 -21 -48 11 -28 27 -33 37 -29 64 2 19 -4 53 -16 85 -12
28 -24 72 -27 96 l-7 44 28 -7 c16 -4 30 -9 32 -11z m1972 0 c0 -8 -4 -15 -8
-15 -5 0 -14 -17 -20 -38 -7 -21 -21 -47 -32 -57 -11 -10 -20 -24 -20 -32 0
-7 -5 -13 -10 -13 -9 0 0 23 30 70 5 8 17 34 26 58 18 42 34 55 34 27z m-1812
-122 c2 -29 1 -60 -3 -70 -6 -16 -8 -16 -15 3 -5 12 -11 59 -14 105 -6 84 -6
84 11 49 9 -19 18 -58 21 -87z m2066 40 c-11 -47 -18 -55 -32 -33 -9 15 -9 20
0 20 6 0 8 3 5 7 -8 7 11 33 24 33 5 0 6 -12 3 -27z m3233 -135 c-3 -8 -6 -5
-6 6 -1 11 2 17 5 13 3 -3 4 -12 1 -19z m-5517 -115 c0 -21 3 -24 12 -15 35
35 87 -4 68 -52 -19 -50 -100 -38 -100 16 0 12 -7 18 -23 18 -17 0 -23 -6 -25
-26 -1 -15 -10 -32 -19 -39 -17 -13 -38 -7 -88 22 -19 11 -19 12 -2 30 9 11
17 23 17 27 0 4 7 14 15 22 13 14 15 13 15 -10 0 -14 4 -26 9 -26 5 0 17 -3
26 -7 16 -6 16 -4 0 21 -23 34 -12 43 51 44 41 1 44 0 44 -25z m1830 -6 c0 -2
-11 -18 -25 -37 -14 -19 -25 -31 -25 -26 0 15 31 66 40 66 6 0 10 -1 10 -3z
m3430 -6 c0 -6 -4 -13 -10 -16 -5 -3 -10 1 -10 9 0 9 5 16 10 16 6 0 10 -4 10
-9z m-3941 -33 c0 -7 -4 -22 -8 -33 -7 -17 -9 -15 -13 13 -3 22 -1 32 9 32 7
0 13 -6 12 -12z m-1104 -45 c8 -38 -6 -49 -30 -23 -16 18 -17 23 -5 45 16 29
25 23 35 -22z m7425 -13 c0 -5 -4 -10 -10 -10 -5 0 -10 -11 -10 -25 0 -14 -4
-25 -10 -25 -13 0 -13 12 0 44 9 25 30 36 30 16z m-7924 -55 c12 -11 55 -37
94 -59 70 -37 76 -38 154 -35 74 4 81 2 84 -16 2 -11 16 -30 30 -42 25 -20 26
-22 10 -40 -9 -10 -38 -29 -65 -43 -26 -14 -50 -28 -53 -31 -3 -4 -22 -14 -43
-23 l-38 -15 -39 39 c-22 22 -47 40 -55 40 -18 0 -107 56 -116 73 -4 6 -10 55
-15 107 -8 105 -11 102 52 45z m754 -20 c7 -9 15 -48 18 -88 l4 -72 -49 -23
c-52 -23 -78 -27 -87 -14 -5 8 32 92 45 102 4 3 10 21 14 40 14 67 31 84 55
55z m1218 -12 c-14 -16 -31 -39 -38 -53 -8 -14 -15 -20 -17 -13 -4 11 63 93
75 93 3 0 -6 -12 -20 -27z m5699 5 c-3 -8 -6 -5 -6 6 -1 11 2 17 5 13 3 -3 4
-12 1 -19z m-7247 -320 c0 -62 5 -142 10 -178 13 -93 24 -529 16 -632 l-8 -88
-64 0 c-35 0 -64 1 -64 3 0 2 11 27 25 55 29 61 33 95 9 90 -9 -2 -20 -10 -24
-18 -14 -27 -28 -65 -38 -95 -6 -22 -16 -31 -35 -33 -25 -3 -26 -2 -17 29 11
39 6 47 -20 31 -16 -10 -20 -7 -29 21 -57 184 -125 446 -117 455 3 3 6 0 6 -6
0 -7 5 -12 11 -12 12 0 9 37 -11 175 -26 178 -31 195 -55 195 -25 0 -35 17
-35 60 l0 29 45 -19 c25 -11 45 -17 45 -14 0 2 8 0 19 -5 12 -7 21 -26 25 -58
20 -150 38 -278 51 -353 9 -47 15 -98 15 -115 0 -36 14 -64 22 -43 6 16 1 109
-11 213 -6 44 -13 130 -16 190 l-5 110 54 23 c29 13 80 41 112 62 33 22 65 40
72 40 9 0 12 -29 12 -112z m7264 23 c-4 -20 -6 -44 -5 -54 2 -16 -35 -66 -49
-67 -4 0 -4 16 -2 35 2 19 8 35 13 35 5 0 9 8 9 18 0 10 8 43 17 73 15 48 18
51 21 25 2 -16 0 -45 -4 -65z m-6931 49 c6 -22 0 -25 -22 -11 -8 5 -11 16 -8
26 8 20 23 13 30 -15z m1177 -14 c0 -3 -4 -8 -10 -11 -5 -3 -10 -1 -10 4 0 6
5 11 10 11 6 0 10 -2 10 -4z m-1923 -143 c-3 -10 -5 -4 -5 12 0 17 2 24 5 18
2 -7 2 -21 0 -30z m2010 7 c-4 -17 -2 -18 13 -10 11 6 22 15 25 20 3 6 13 10
21 10 12 0 12 -4 4 -20 -11 -21 -126 -140 -135 -140 -13 0 37 87 58 101 5 4 7
11 3 17 -6 10 2 42 11 42 3 0 3 -9 0 -20z m5598 -99 c3 -5 1 -12 -5 -16 -5 -3
-10 1 -10 9 0 18 6 21 15 7z m-23 -92 c-12 -11 -22 -25 -22 -31 0 -6 -3 -9 -6
-5 -3 3 2 27 12 53 16 43 19 45 28 25 7 -17 5 -26 -12 -42z m-1976 -41 c-8
-18 -23 -70 -32 -115 -11 -54 -22 -83 -31 -83 -7 0 -13 5 -13 12 0 20 33 133
41 143 5 5 9 20 9 34 0 26 32 70 38 52 2 -5 -3 -25 -12 -43z m2024 32 c0 -5
-4 -10 -9 -10 -6 0 -13 5 -16 10 -3 6 1 10 9 10 9 0 16 -4 16 -10z m-5820 -43
c0 -22 -114 -77 -159 -77 -28 0 -41 4 -41 14 0 17 16 24 82 32 29 4 64 15 78
25 30 22 40 23 40 6z m5680 -280 c0 -5 -4 -5 -10 -2 -6 4 -10 -8 -11 -27 0
-18 -3 -27 -6 -20 -3 7 -2 29 2 49 5 27 9 33 16 22 5 -8 9 -18 9 -22z m2550
-22 c14 -8 35 -14 48 -15 12 0 22 -3 22 -8 0 -4 24 -18 53 -32 28 -14 62 -35
75 -47 13 -13 32 -23 42 -23 11 0 20 -3 20 -8 0 -4 12 -13 28 -20 37 -17 112
-88 112 -107 0 -8 5 -15 11 -15 14 0 33 -19 49 -50 7 -14 27 -43 44 -65 40
-52 59 -85 52 -93 -3 -3 -6 0 -6 7 0 7 -4 10 -9 6 -5 -3 -18 6 -29 20 -11 14
-25 25 -31 25 -6 0 -11 4 -11 10 0 5 -30 40 -67 77 -36 37 -73 76 -81 85 -9
10 -17 16 -19 14 -3 -2 -30 24 -61 59 -31 35 -63 64 -69 64 -7 1 -13 5 -13 9
0 5 -24 19 -52 32 -29 13 -76 34 -105 47 -28 13 -59 23 -67 23 -8 0 -18 5 -21
10 -9 15 56 11 85 -5z m-4700 -35 c0 -5 -5 -10 -11 -10 -5 0 -7 5 -4 10 3 6 8
10 11 10 2 0 4 -4 4 -10z m2170 -50 c0 -16 -5 -30 -11 -30 -10 0 -32 -22 -70
-68 -7 -9 -7 -22 0 -42 8 -23 6 -42 -8 -85 -10 -30 -16 -55 -12 -55 3 0 -13
-10 -37 -23 -39 -21 -66 -48 -72 -72 -1 -5 -5 -16 -8 -24 -3 -7 1 -23 8 -35 7
-11 17 -38 20 -58 6 -31 4 -39 -11 -43 -11 -4 -19 -10 -19 -15 0 -12 -54 -40
-75 -40 -14 0 -12 6 9 31 14 17 27 40 28 52 0 12 2 33 3 47 2 25 35 120 45
130 8 8 40 107 40 124 0 9 6 19 14 22 8 3 17 16 20 29 4 14 18 36 32 50 14 15
24 29 21 32 -4 3 0 12 8 19 7 8 11 22 8 33 -6 25 16 50 45 51 18 0 22 -5 22
-30z m340 -50 c0 -5 -4 -10 -10 -10 -5 0 -10 5 -10 10 0 6 5 10 10 10 6 0 10
-4 10 -10z m-7419 -310 c3 -81 1 -114 -7 -113 -7 1 -35 -1 -63 -6 -46 -7 -53
-6 -62 11 -21 39 -79 211 -74 217 8 8 188 18 197 11 3 -3 8 -57 9 -120z m7569
-165 c-7 -8 -19 -15 -26 -15 -8 0 -14 7 -14 15 0 10 10 15 26 15 22 0 25 -2
14 -15z m2707 -67 c-3 -8 -6 -5 -6 6 -1 11 2 17 5 13 3 -3 4 -12 1 -19z
m-9137 -89 c80 -5 179 -13 220 -18 41 -5 147 -14 235 -21 175 -14 170 -13 265
-99 25 -22 53 -43 63 -47 9 -3 17 -9 17 -14 0 -4 11 -11 25 -14 45 -11 26 -26
-32 -26 -241 0 -744 -22 -788 -35 -27 -8 -84 -21 -126 -29 -98 -19 -255 -81
-286 -112 -8 -8 -19 -14 -24 -14 -21 0 -179 -153 -179 -174 0 -7 -9 -21 -20
-31 -11 -10 -20 -24 -20 -31 0 -7 -4 -14 -8 -16 -11 -4 -52 -73 -52 -87 0 -25
20 -8 47 39 15 27 31 50 36 50 4 0 7 5 7 10 0 47 190 221 268 244 12 4 22 11
22 15 0 9 216 80 303 100 88 21 396 33 772 30 500 -3 1038 -3 1338 0 137 2
251 0 255 -3 8 -8 -22 -90 -69 -192 l-37 -80 -599 -14 c-329 -7 -794 -16
-1033 -20 -443 -7 -504 -12 -667 -54 -75 -20 -203 -77 -203 -92 0 -6 -16 -19
-35 -30 -19 -10 -35 -22 -35 -26 0 -5 -4 -8 -9 -8 -21 0 -90 -75 -116 -125
-15 -30 -31 -55 -36 -55 -5 0 -9 -10 -9 -22 -1 -13 -7 -34 -15 -48 -8 -14 -14
-35 -15 -47 -1 -57 -24 -28 -226 287 -69 108 -67 102 -36 161 15 29 37 63 50
75 12 12 22 25 22 29 0 4 12 19 26 32 14 13 24 27 20 30 -6 6 -94 -82 -134
-136 -13 -17 -28 -31 -33 -31 -5 0 -19 17 -32 38 -42 65 -207 388 -207 403 0
26 111 94 205 127 81 28 199 61 295 82 50 11 418 10 590 -1z m9168 -33 c-1
-14 -6 -23 -9 -20 -10 6 -7 44 3 44 4 0 7 -11 6 -24z m-6164 -62 c4 -37 13
-76 21 -88 19 -25 19 -80 2 -98 -39 -39 -181 -338 -174 -367 3 -12 7 -9 17 12
7 15 17 27 22 27 4 0 8 5 8 12 0 18 112 240 132 262 10 11 18 26 18 33 0 24
48 14 70 -14 18 -23 20 -35 15 -72 -9 -60 -21 -83 -58 -106 -17 -11 -44 -40
-59 -65 -23 -38 -29 -59 -31 -122 -2 -58 -8 -82 -22 -97 -10 -12 -23 -21 -29
-21 -10 0 -57 -50 -91 -96 -10 -14 -19 -15 -64 -5 -81 17 -173 14 -226 -9 -41
-17 -46 -18 -52 -4 -3 9 -2 19 3 23 18 12 65 121 101 234 3 9 9 17 14 17 5 0
9 5 9 11 0 25 109 250 126 261 6 4 21 29 32 55 11 27 35 63 51 81 17 18 31 35
31 38 0 5 60 85 71 94 3 3 14 20 24 38 11 17 22 32 26 32 3 0 9 -30 13 -66z
m-578 -46 c-14 -24 -33 -57 -42 -74 -16 -31 -17 -31 -121 -38 -126 -7 -397 4
-385 16 4 4 37 13 73 19 35 6 73 14 84 19 11 4 54 16 95 26 41 9 107 27 145
40 87 28 102 31 143 33 l33 1 -25 -42z m1792 -58 c2 -5 10 -10 18 -10 27 0 95
-43 116 -74 12 -17 26 -32 30 -34 4 -2 8 -9 8 -16 0 -8 9 -25 20 -39 11 -14
20 -32 20 -41 0 -9 5 -16 10 -16 6 0 10 -38 10 -94 0 -53 -4 -98 -10 -101 -5
-3 -10 -15 -10 -26 0 -22 -39 -138 -52 -153 -4 -6 -21 -27 -36 -48 -43 -56
-135 -136 -165 -143 -15 -4 -27 -11 -27 -15 0 -9 -56 -24 -170 -45 -147 -27
-239 -6 -331 77 -46 41 -76 111 -85 198 -7 59 19 212 36 218 6 2 10 14 10 27
0 12 7 28 15 35 8 7 15 17 15 22 0 8 45 74 60 88 3 3 15 17 27 32 34 45 134
114 193 134 30 11 57 22 60 25 15 20 232 19 238 -1z m-1824 -266 c12 -31 6
-54 -24 -87 -30 -35 -66 -47 -54 -18 3 9 12 35 18 59 6 24 15 40 19 36 4 -4 7
0 7 9 0 22 26 22 34 1z m-202 -150 c3 -3 -5 -24 -18 -47 -13 -23 -32 -60 -42
-82 l-19 -40 -94 -1 c-253 -3 -776 -21 -785 -27 -6 -3 -162 -11 -345 -17 -464
-14 -792 -30 -804 -41 -6 -4 -31 -11 -55 -15 -25 -4 -61 -14 -80 -23 -32 -14
-33 -15 -12 -19 13 -2 37 1 54 7 17 6 44 11 59 11 15 0 30 4 33 8 3 5 72 12
153 15 81 4 238 11 348 17 110 5 342 15 515 21 173 6 425 14 560 19 135 5 278
14 318 20 61 9 75 9 94 -4 12 -9 18 -16 12 -16 -14 0 -47 -31 -97 -90 -43 -51
-117 -130 -122 -130 -2 0 -18 -15 -37 -34 l-34 -34 -139 -6 c-77 -4 -162 -11
-190 -16 -54 -11 -203 -24 -440 -40 -82 -5 -184 -15 -225 -21 -147 -22 -189
-23 -212 -2 -11 10 -26 30 -32 44 -10 24 -32 56 -77 112 -10 13 -21 17 -29 12
-11 -7 -10 -10 1 -19 8 -6 23 -28 32 -48 10 -21 29 -50 42 -64 14 -15 25 -35
25 -45 0 -21 -16 -26 -113 -32 -81 -6 -91 5 -55 55 26 35 53 106 45 115 -3 2
-26 -30 -51 -74 -25 -43 -49 -84 -53 -92 -5 -7 -29 -17 -53 -21 -25 -5 -74
-14 -109 -20 -59 -12 -65 -11 -78 6 -7 10 -13 27 -13 38 0 12 -16 36 -35 55
-19 19 -35 38 -35 42 0 5 -9 13 -20 19 -18 10 -19 8 -10 -12 5 -13 22 -50 39
-83 16 -33 26 -64 21 -69 -11 -11 -85 -25 -139 -26 -35 0 -42 3 -37 16 3 9 6
19 6 24 0 5 7 16 16 24 8 9 18 33 21 53 9 55 -8 35 -76 -89 -18 -31 -27 -38
-65 -43 -57 -9 -69 -1 -61 38 11 52 47 161 56 172 11 11 12 45 1 45 -14 0 -47
-44 -59 -80 -7 -19 -15 -59 -18 -90 -10 -96 -12 -100 -45 -100 -23 0 -37 11
-73 58 -69 90 -68 82 -31 188 33 94 113 223 166 269 26 23 66 45 80 45 5 0 35
13 66 28 55 27 88 37 197 61 102 22 260 30 660 36 381 5 772 17 1160 35 219 9
331 11 337 4z m898 -35 c0 -10 -4 -19 -10 -19 -5 0 -10 12 -10 26 0 14 4 23
10 19 6 -3 10 -15 10 -26z m5402 -79 c24 -22 51 -43 61 -46 29 -9 19 -24 -16
-24 -19 0 -56 -7 -83 -15 -27 -8 -61 -15 -76 -15 -29 0 -135 -24 -183 -42 -75
-28 -154 -64 -165 -77 -3 -3 -23 -15 -45 -26 -48 -23 -70 -42 -144 -116 -81
-81 -111 -117 -111 -134 0 -23 16 -18 36 13 25 38 147 162 160 162 6 0 24 12
39 26 15 14 53 35 84 47 31 12 58 23 61 27 11 11 77 39 120 48 25 6 68 16 95
22 108 25 316 50 422 50 62 0 134 4 160 10 26 5 136 14 243 20 107 5 227 14
265 19 39 6 128 10 198 10 l128 1 -12 -22 c-7 -13 -49 -80 -95 -150 l-82 -126
-74 -5 c-40 -3 -113 -10 -163 -15 -49 -6 -171 -15 -270 -21 -99 -6 -211 -16
-250 -22 -38 -6 -115 -15 -170 -20 -132 -11 -225 -33 -352 -82 -46 -18 -83
-38 -83 -44 0 -7 -4 -13 -10 -13 -12 0 -100 -53 -100 -61 0 -3 -22 -30 -49
-59 -28 -30 -61 -77 -75 -105 -38 -76 -85 -217 -96 -293 -6 -37 -13 -260 -16
-497 -4 -236 -9 -433 -13 -437 -10 -11 -225 -144 -243 -151 -17 -6 -18 23 -18
518 0 487 -4 571 -25 505 -4 -12 -7 -253 -9 -536 -1 -490 -2 -517 -20 -530
-10 -7 -53 -31 -96 -53 l-77 -40 -6 262 c-4 144 -7 327 -8 407 -1 80 -4 156
-8 170 -14 49 -21 -111 -21 -491 l0 -376 -137 -66 c-76 -36 -165 -78 -198 -92
-79 -35 -406 -165 -414 -165 -4 0 -7 17 -7 38 3 146 -18 1150 -23 1171 -11 39
-21 -475 -14 -710 3 -112 2 -275 -2 -361 l-7 -157 -91 -30 c-50 -17 -92 -29
-94 -28 -1 2 -6 368 -9 814 l-7 810 37 38 c20 22 36 45 36 52 0 26 19 12 39
-30 12 -24 21 -46 21 -50 0 -4 10 -24 23 -45 13 -20 31 -58 41 -85 21 -56 64
-102 103 -110 41 -8 103 13 121 42 46 72 64 74 83 11 9 -28 19 -40 38 -46 34
-9 362 -5 380 6 21 11 -79 23 -136 16 -70 -9 -79 1 -54 57 12 25 21 50 21 54
0 4 4 14 9 22 8 12 15 9 41 -12 53 -45 119 -31 184 38 30 32 56 101 56 148 0
41 63 322 77 338 7 8 13 24 13 35 0 10 7 28 15 38 8 11 15 27 15 37 0 9 8 27
18 40 10 13 29 44 43 69 48 91 162 218 225 250 16 8 31 17 34 21 3 3 40 29 84
59 43 30 91 66 107 81 32 30 46 33 254 49 77 6 145 12 150 15 39 14 77 3 117
-35z m-5057 -221 c5 -5 28 -9 52 -9 40 0 49 -5 115 -70 39 -38 68 -73 64 -77
-4 -5 -123 -10 -264 -13 -141 -3 -248 -7 -236 -8 11 -1 26 -8 32 -14 19 -19
532 -18 554 0 21 17 208 -5 208 -25 0 -7 -5 -13 -10 -13 -6 0 -36 -25 -68 -55
-31 -30 -61 -55 -65 -55 -13 0 -130 -87 -191 -142 -55 -50 63 5 164 76 36 25
74 52 84 58 10 7 55 49 100 93 51 50 105 92 145 112 62 32 65 33 130 23 82
-14 141 -31 141 -42 0 -4 -3 -8 -7 -8 -5 0 -24 -15 -44 -33 -65 -57 -84 -72
-125 -92 -21 -11 -52 -29 -69 -41 -16 -11 -37 -24 -45 -27 -17 -8 -52 -29 -60
-37 -3 -3 -30 -17 -61 -32 -52 -25 -93 -58 -72 -58 5 0 33 11 61 25 29 14 56
25 62 25 17 0 235 121 250 139 3 3 18 13 33 20 15 8 50 36 78 63 57 55 77 67
102 62 112 -17 164 -27 172 -32 6 -4 46 -16 90 -27 74 -19 80 -23 77 -45 -1
-14 -10 -29 -18 -33 -9 -5 -25 -18 -35 -28 -11 -11 -23 -19 -29 -19 -5 0 -10
-3 -10 -8 0 -4 -17 -16 -37 -27 -21 -11 -40 -22 -43 -25 -29 -31 -237 -144
-323 -175 -26 -10 -50 -22 -53 -26 -3 -5 -13 -9 -23 -9 -10 0 -58 -16 -107
-36 -49 -19 -116 -44 -148 -55 -33 -11 -67 -25 -75 -32 -9 -7 -47 -23 -86 -36
-38 -13 -83 -29 -100 -36 -16 -7 -60 -23 -97 -35 -38 -12 -68 -26 -68 -31 0
-5 -6 -9 -13 -9 -8 0 -22 -9 -32 -20 -14 -15 -15 -20 -4 -20 38 0 251 31 299
43 106 27 188 41 300 53 82 9 215 36 225 46 10 11 -214 5 -307 -8 -30 -4 -48
-3 -48 3 0 6 21 18 48 28 26 10 49 21 52 25 3 3 28 14 55 24 81 29 177 67 220
88 102 49 155 78 155 86 0 4 17 14 37 21 46 17 183 101 183 112 0 5 11 9 25 9
29 0 30 -3 11 -38 -7 -15 -18 -38 -24 -52 -31 -72 -45 -100 -52 -100 -5 0 -11
-19 -15 -42 -4 -24 -19 -63 -34 -88 -41 -70 -51 -89 -51 -100 0 -6 -13 -29
-30 -52 -16 -22 -30 -46 -30 -52 0 -7 -15 -41 -33 -76 -17 -36 -41 -90 -51
-120 -11 -30 -22 -57 -26 -60 -11 -9 -39 -94 -46 -140 -4 -25 -11 -50 -15 -56
-27 -34 -70 -430 -89 -814 -6 -113 -15 -224 -20 -247 -6 -23 -10 -64 -10 -90
0 -26 -5 -64 -11 -83 -6 -19 -14 -66 -18 -105 l-6 -70 -115 3 -114 2 -39 43
c-22 23 -67 72 -101 108 -33 37 -88 98 -121 135 -33 38 -75 84 -92 102 -18 19
-33 37 -33 40 0 3 -19 24 -42 47 -35 32 -92 97 -128 144 -3 3 -16 15 -29 26
l-24 20 13 -25 c7 -14 19 -32 26 -40 7 -8 41 -48 74 -87 34 -40 65 -73 70 -73
6 0 10 -5 10 -10 0 -16 230 -287 319 -377 18 -18 31 -37 27 -40 -15 -15 -443
44 -702 97 -379 77 -778 201 -1141 354 -141 59 -485 225 -517 249 -18 13 -18
14 0 43 30 48 95 125 159 190 83 83 210 194 223 194 6 0 17 6 24 14 8 7 50 36
93 64 44 28 92 60 106 71 14 11 39 26 55 33 16 7 31 15 34 18 3 3 30 16 60 29
30 13 88 39 128 57 40 19 84 37 97 40 14 3 28 10 31 15 3 5 16 9 30 9 13 0 24
4 24 9 0 4 30 18 68 31 37 12 76 27 87 34 11 7 40 18 65 26 25 8 56 20 70 27
14 7 33 13 43 13 9 0 17 4 17 9 0 5 15 13 33 16 17 4 70 21 117 37 47 16 110
36 140 45 30 8 64 20 75 27 11 7 36 18 56 25 20 6 44 20 53 30 15 17 13 17
-41 14 -32 -3 -67 -8 -78 -13 -11 -5 -51 -16 -90 -26 -38 -10 -72 -20 -75 -23
-3 -3 -86 -33 -185 -66 -99 -33 -200 -69 -225 -81 -25 -12 -63 -27 -85 -34
-36 -12 -89 -35 -137 -61 -10 -5 -29 -9 -43 -9 -14 0 -25 -4 -25 -8 0 -5 -26
-19 -57 -31 -32 -13 -95 -41 -139 -62 -45 -22 -86 -39 -93 -39 -6 0 -11 -4
-11 -8 0 -5 -17 -16 -39 -25 -21 -10 -58 -31 -82 -47 -24 -16 -49 -30 -56 -30
-6 0 -13 -4 -15 -8 -1 -5 -36 -29 -75 -55 -40 -26 -73 -51 -73 -57 0 -5 -6
-10 -12 -10 -29 0 -303 -289 -331 -348 -5 -12 -15 -22 -20 -22 -14 0 -225 126
-365 219 -386 255 -685 503 -1027 852 -182 186 -403 435 -394 443 6 5 192 35
294 46 50 6 142 18 205 26 237 30 269 34 425 49 88 9 214 20 279 25 66 5 127
12 135 16 9 4 61 10 116 14 55 4 145 12 200 18 55 6 177 18 270 27 94 9 214
20 268 25 54 6 132 10 173 10 41 0 83 4 93 10 10 5 72 14 137 19 204 18 311
41 186 41 -33 0 -63 4 -66 9 -7 11 47 58 84 75 14 6 31 16 38 23 7 7 24 13 37
13 13 0 26 4 29 9 11 17 89 21 172 10 86 -11 286 3 309 22 25 19 350 18 370
-2z m6049 -211 c-21 -36 -189 -250 -198 -254 -6 -2 -119 -13 -251 -25 -395
-35 -415 -37 -448 -48 -18 -5 -49 -12 -69 -16 -61 -10 -159 -72 -177 -112 -14
-30 -2 -29 45 5 65 47 166 77 309 92 55 5 174 19 265 29 281 33 292 34 281 13
-28 -49 -464 -522 -482 -522 -7 0 -30 30 -74 99 -91 141 -114 167 -101 115 10
-38 36 -94 45 -94 3 0 15 -17 26 -37 11 -21 30 -55 43 -77 l24 -38 -39 -40
c-44 -45 -231 -212 -243 -216 -4 -2 -18 13 -30 33 -25 40 -59 75 -73 75 -13 0
3 -42 23 -61 23 -23 45 -78 34 -89 -5 -5 -40 -34 -79 -64 l-70 -56 -3 188 c-4
317 17 510 64 563 17 19 18 40 2 33 -17 -6 -56 -66 -64 -98 -3 -14 -10 -26
-14 -26 -20 0 -33 -144 -37 -412 l-5 -287 -42 -34 c-22 -19 -81 -62 -131 -96
l-90 -62 -8 308 c-9 350 -4 532 17 615 17 68 44 143 65 178 37 63 67 106 85
120 10 8 29 24 41 36 13 12 39 31 59 43 20 13 36 26 36 31 0 4 30 20 68 35 37
15 81 33 97 40 43 18 132 33 275 46 69 6 134 15 145 20 11 4 108 13 215 20
107 6 242 17 300 24 144 18 173 18 164 3z m-4418 -77 c61 -16 117 -32 124 -36
8 -5 30 -12 49 -16 59 -12 184 -49 221 -65 19 -8 44 -19 55 -24 11 -5 37 -14
57 -20 21 -6 40 -16 44 -21 8 -14 -6 -87 -19 -102 -25 -27 -37 -58 -37 -96 0
-22 -4 -43 -10 -46 -5 -3 -10 -20 -10 -37 0 -16 -6 -44 -14 -61 -8 -18 -22
-57 -31 -87 -10 -30 -28 -82 -41 -115 -13 -33 -28 -78 -33 -100 -22 -92 -30
-116 -39 -128 -5 -7 -12 -23 -15 -37 -2 -14 -21 -70 -40 -125 -19 -55 -38
-113 -41 -129 -9 -35 -16 -27 -41 44 -10 30 -25 66 -32 80 -7 14 -13 31 -13
38 0 6 -4 12 -8 12 -5 0 -17 35 -27 78 -9 42 -21 87 -26 100 -5 13 -9 89 -9
170 -1 143 -1 146 -17 117 -25 -43 -25 -314 -1 -365 10 -19 27 -66 39 -105 12
-38 27 -79 34 -91 7 -11 25 -58 39 -104 l25 -83 -24 -74 c-14 -40 -25 -80 -25
-88 0 -8 -4 -15 -9 -15 -5 0 -13 -15 -16 -33 -12 -50 -56 -181 -66 -191 -5 -6
-9 -19 -9 -30 0 -22 -29 -104 -61 -173 -10 -24 -19 -49 -19 -57 0 -8 -4 -17
-9 -21 -5 -3 -12 -19 -16 -35 -4 -17 -10 -30 -15 -30 -5 0 -10 -10 -12 -22 -2
-12 -8 -23 -14 -25 -8 -3 -13 54 -17 199 -6 208 -20 334 -66 583 -6 33 -13 81
-16 108 -4 26 -10 47 -16 47 -14 0 -11 -69 5 -120 8 -25 22 -126 31 -225 9
-99 20 -227 25 -285 6 -58 10 -177 10 -265 0 -138 -3 -168 -21 -215 -11 -30
-24 -66 -29 -80 -4 -14 -15 -39 -24 -56 l-16 -32 -213 -6 c-200 -6 -312 -4
-322 6 -5 5 9 132 30 273 8 55 19 177 24 271 16 278 31 467 41 499 5 17 13 77
19 135 10 114 25 204 39 235 5 11 17 47 27 80 10 33 28 83 40 110 12 28 30 75
40 105 10 30 21 57 24 60 8 6 35 70 53 125 7 22 23 55 36 74 12 19 25 46 29
60 3 13 16 39 27 56 12 17 29 51 40 75 10 25 31 72 47 105 15 33 30 67 33 75
3 8 10 22 15 30 5 8 14 33 21 55 25 82 41 107 64 100 12 -3 71 -19 132 -34z
m1093 -575 c6 -8 24 -19 39 -25 l27 -11 -2 -817 -2 -817 -23 -9 c-40 -15 -202
-57 -220 -57 -16 0 -16 3 -1 47 9 27 19 53 23 58 4 6 17 38 30 72 12 35 26 63
30 63 4 0 10 10 14 23 3 12 21 48 40 80 43 71 52 97 34 97 -18 0 -38 -25 -65
-80 -13 -25 -23 -41 -23 -35 0 5 -9 -8 -20 -30 -11 -22 -20 -47 -20 -57 0 -9
-4 -19 -9 -22 -15 -9 -45 -76 -71 -154 -13 -40 -31 -77 -39 -82 -22 -11 -272
-62 -278 -56 -3 2 0 19 6 38 38 120 51 162 71 233 12 44 27 94 34 110 7 17 21
64 32 105 10 41 21 77 24 80 4 3 14 37 24 75 10 39 28 106 41 150 14 44 31
107 40 140 9 33 21 74 26 90 22 63 50 190 69 312 4 28 11 57 15 62 3 6 10 32
15 59 20 108 32 157 39 162 4 3 18 48 30 100 13 52 25 98 28 103 7 12 30 8 42
-7z m-732 -1822 c-3 -3 -12 -4 -19 -1 -8 3 -5 6 6 6 11 1 17 -2 13 -5z m-470
-26 c-3 -8 -6 -5 -6 6 -1 11 2 17 5 13 3 -3 4 -12 1 -19z m546 15 c-7 -2 -19
-2 -25 0 -7 3 -2 5 12 5 14 0 19 -2 13 -5z"/>
<path d="M4480 11689 c-134 -9 -360 -46 -454 -74 -26 -8 -55 -15 -62 -15 -8 0
-14 -3 -14 -7 0 -5 -20 -16 -45 -26 -45 -19 -59 -37 -30 -37 9 0 33 9 53 19
21 11 56 23 77 26 22 4 45 11 50 15 19 14 212 38 490 61 119 9 473 6 610 -6
188 -16 355 -43 355 -56 0 -5 8 -9 19 -9 10 0 37 -6 59 -14 49 -18 62 -9 23
15 -31 19 -82 36 -146 49 -22 4 -76 17 -120 28 -44 11 -116 23 -160 26 -166
11 -575 14 -705 5z"/>
<path d="M5719 11445 c-9 -16 -24 -55 -34 -85 -10 -30 -22 -66 -28 -80 -6 -14
-14 -45 -18 -70 -4 -25 -17 -85 -28 -134 -23 -100 -25 -116 -12 -116 13 0 91
242 91 284 0 19 27 110 42 142 5 11 8 36 6 55 l-3 34 -16 -30z"/>
<path d="M3781 10876 c-17 -38 -42 -108 -54 -155 -12 -47 -25 -89 -30 -92 -4
-3 -10 -37 -13 -75 -6 -61 -5 -67 8 -54 8 8 25 58 38 110 12 52 27 100 32 106
15 20 59 185 55 208 -2 16 -12 3 -36 -48z"/>
<path d="M5640 10897 c0 -6 4 -26 8 -42 12 -40 -8 -87 -48 -115 -16 -12 -30
-28 -30 -36 0 -27 38 -14 79 27 37 37 41 46 41 92 0 38 -5 54 -22 68 -25 22
-28 23 -28 6z"/>
<path d="M4520 10879 c-69 -5 -141 -13 -160 -18 -19 -6 -87 -18 -150 -28 -70
-10 -129 -25 -150 -38 l-35 -20 31 -3 c17 -2 64 6 105 18 51 14 155 27 334 41
231 18 282 19 455 9 269 -16 397 -27 450 -39 25 -6 56 -10 70 -11 21 0 22 2
10 14 -18 16 -155 46 -213 46 -24 0 -47 4 -53 10 -12 12 -299 30 -454 28 -63
0 -171 -5 -240 -9z"/>
<path d="M4532 10325 c1 -540 12 -1090 18 -855 6 266 -2 1244 -11 1265 -4 11
-7 -173 -7 -410z"/>
<path d="M5094 9809 c4 -503 9 -990 13 -1084 17 -468 20 -343 17 625 -4 1084
-9 1356 -26 1366 -6 4 -8 -318 -4 -907z"/>
<path d="M5570 10645 c-1 -11 -1 -65 0 -120 0 -55 5 -563 10 -1130 12 -1326
21 -1795 33 -1795 6 0 7 402 2 1118 -10 1481 -17 1902 -32 1927 l-12 20 -1
-20z"/>
<path d="M2810 10576 c-58 -8 -125 -19 -150 -25 -25 -5 -57 -13 -72 -17 -16
-3 -28 -10 -28 -13 0 -16 13 -19 43 -9 138 42 438 58 697 37 63 -5 151 -12
195 -15 95 -8 93 7 -3 18 -37 4 -87 12 -112 18 -75 17 -451 21 -570 6z"/>
<path d="M7110 10560 c6 -11 13 -20 16 -20 2 0 0 9 -6 20 -6 11 -13 20 -16 20
-2 0 0 -9 6 -20z"/>
<path d="M3720 10431 c0 -6 5 -13 10 -16 27 -17 -5 -135 -36 -135 -20 0 -25
-30 -7 -37 12 -5 28 6 55 37 43 48 49 84 21 131 -16 28 -43 40 -43 20z"/>
<path d="M2765 10383 c-120 -21 -208 -46 -213 -60 -5 -17 51 -17 81 -1 30 16
203 30 382 32 l150 1 6 -253 c4 -139 9 -255 12 -258 9 -9 19 313 13 403 -4 49
-3 94 2 102 8 11 22 11 78 3 38 -6 123 -14 189 -17 110 -5 118 -4 92 10 -16 8
-50 17 -75 21 -26 3 -85 12 -131 20 -111 19 -475 17 -586 -3z"/>
<path d="M2470 10031 c0 -110 2 -131 15 -131 12 0 15 20 15 119 0 93 -3 121
-15 131 -13 11 -15 -3 -15 -119z"/>
<path d="M3662 9313 c-1 -546 1 -834 8 -838 11 -7 12 1033 1 1430 -5 162 -8
-30 -9 -592z"/>
<path d="M3673 8045 c0 -38 2 -53 4 -32 2 20 2 52 0 70 -2 17 -4 1 -4 -38z"/>
<path d="M3684 6945 c0 -170 2 -242 3 -158 2 83 2 223 0 310 -1 87 -3 19 -3
-152z"/>
<path d="M1305 6009 c-17 -17 -17 -21 -5 -29 8 -5 18 -10 21 -10 3 0 4 -12 1
-26 -3 -15 1 -29 8 -34 21 -13 50 12 50 42 0 18 5 28 15 28 22 0 19 27 -4 40
-30 15 -64 11 -86 -11z"/>
<path d="M1234 4975 c-5 -22 -9 -183 -9 -358 0 -272 2 -319 15 -327 26 -16 40
-11 40 15 0 14 21 66 48 117 52 102 74 158 63 158 -10 0 -41 -34 -41 -44 0 -4
-11 -22 -25 -40 -14 -18 -25 -38 -25 -43 0 -6 -7 -16 -15 -23 -13 -11 -15 4
-10 131 6 146 -5 355 -23 419 l-9 35 -9 -40z"/>
<path d="M1343 4373 c-36 -38 -57 -83 -38 -83 13 0 65 55 71 74 3 12 13 29 22
39 12 14 13 17 1 16 -8 -1 -33 -21 -56 -46z"/>
<path d="M8900 11602 c0 -7 4 -20 9 -30 6 -9 13 -30 16 -46 8 -40 19 -24 11
17 -6 35 -35 82 -36 59z"/>
<path d="M8773 11442 c-28 -4 -177 -143 -210 -196 -25 -38 -25 -39 -9 -115 23
-117 40 -156 64 -154 25 3 177 106 215 146 36 39 42 67 28 140 -26 147 -46
186 -88 179z m24 -64 c5 -7 15 -50 23 -96 16 -102 11 -113 -69 -165 -33 -21
-71 -49 -86 -63 -34 -31 -43 -30 -50 4 -3 15 -10 43 -15 63 -21 78 -14 103 43
160 52 52 124 109 137 109 4 0 12 -6 17 -12z"/>
<path d="M8565 11416 c-42 -19 -74 -45 -55 -45 18 1 89 27 76 28 -6 1 -1 8 10
16 24 18 9 19 -31 1z"/>
<path d="M8996 11350 c7 -45 22 -77 56 -120 16 -19 28 -40 28 -47 0 -7 7 -13
15 -13 8 0 19 -9 25 -21 13 -24 -2 -49 -31 -49 -9 0 -24 -7 -33 -15 -8 -8 -19
-15 -24 -15 -6 0 -20 -21 -32 -46 -19 -39 -22 -57 -17 -114 6 -68 25 -113 53
-124 13 -5 52 9 142 53 23 11 41 32 58 67 22 45 24 59 18 114 -6 51 -11 63
-30 72 -13 6 -26 19 -29 29 -3 9 -12 20 -20 23 -8 3 -15 12 -15 21 0 8 -7 15
-16 15 -20 0 -34 15 -69 70 -15 25 -31 47 -35 50 -4 3 -17 23 -28 45 l-21 40
5 -35z m192 -272 c17 -21 25 -104 13 -140 -7 -23 -25 -42 -56 -60 -96 -58
-120 -48 -120 50 0 68 1 70 40 106 22 19 48 36 57 36 9 0 20 5 23 10 9 14 30
13 43 -2z"/>
<path d="M9436 11100 c-159 -6 -185 -19 -76 -40 56 -11 79 -11 104 -2 18 7 42
12 54 12 12 0 36 9 54 20 18 11 26 19 18 18 -8 -1 -78 -5 -154 -8z"/>
<path d="M8041 11020 c-24 -21 -23 -50 2 -50 15 0 57 44 57 60 0 17 -33 11
-59 -10z"/>
<path d="M8376 11013 c-10 -24 19 -44 47 -34 12 5 22 17 22 27 0 27 -59 33
-69 7z"/>
<path d="M9579 10970 c-37 -15 -147 -76 -150 -83 0 -1 -4 -42 -8 -92 -9 -95 1
-155 24 -155 7 0 41 16 75 35 34 19 65 35 68 35 4 0 20 19 37 42 26 37 30 52
33 131 4 69 1 91 -9 98 -18 11 -15 11 -70 -11z m41 -65 c0 -54 -19 -145 -30
-145 -4 0 -31 -16 -60 -35 -57 -39 -97 -47 -85 -17 4 9 10 47 14 84 5 54 11
70 31 87 14 11 30 21 35 21 6 1 26 12 45 25 19 13 38 24 43 24 4 1 7 -19 7
-44z"/>
<path d="M9780 10914 c0 -52 52 -216 70 -222 29 -10 -5 -50 -49 -58 -18 -4
-45 -23 -66 -47 -34 -39 -35 -41 -35 -129 0 -84 1 -89 24 -99 15 -7 46 -9 80
-5 92 12 156 80 156 167 0 44 15 55 53 41 38 -14 195 -16 215 -3 22 13 -11 21
-91 21 -76 0 -137 16 -137 37 0 8 -14 13 -38 13 -36 0 -72 22 -72 44 0 4 -11
31 -25 60 -14 29 -34 88 -45 132 -25 98 -40 116 -40 48z m136 -366 c-5 -37
-16 -74 -28 -91 -35 -49 -129 -76 -142 -41 -11 27 -6 98 8 124 19 34 82 68
130 69 l39 1 -7 -62z"/>
<path d="M8800 10920 c-28 -28 -27 -54 3 -46 12 3 34 6 50 6 32 0 36 19 9 43
-24 22 -38 21 -62 -3z"/>
<path d="M8705 10840 c28 -12 47 -12 40 0 -3 6 -18 10 -33 9 -24 0 -25 -1 -7
-9z"/>
<path d="M8830 10801 c0 -13 55 -33 77 -29 14 3 12 7 -14 21 -35 18 -63 22
-63 8z"/>
<path d="M9207 10733 c-16 -15 -5 -40 23 -57 25 -14 34 -15 45 -6 21 18 18 36
-7 54 -24 17 -50 21 -61 9z"/>
<path d="M9200 10634 c0 -14 49 -50 113 -83 37 -18 67 -36 67 -40 0 -4 17 -15
37 -26 39 -21 68 -43 114 -87 16 -14 45 -36 64 -48 19 -12 35 -26 35 -31 0 -5
7 -9 15 -9 8 0 15 7 15 15 0 8 -4 15 -10 15 -5 0 -22 12 -38 28 -45 43 -81 72
-90 72 -4 0 -21 14 -39 30 -18 17 -36 30 -42 30 -6 0 -36 18 -67 40 -32 22
-63 40 -71 40 -7 0 -13 4 -13 10 0 5 -17 17 -37 26 -21 10 -41 19 -45 21 -5 2
-8 1 -8 -3z"/>
<path d="M9535 10520 c-9 -15 22 -80 39 -80 14 0 46 25 46 36 0 9 -55 53 -67
54 -6 0 -14 -4 -18 -10z"/>
<path d="M10208 10446 c-20 -6 -40 -14 -44 -18 -4 -5 -16 -8 -27 -8 -24 0 -65
-42 -85 -89 -22 -52 -32 -121 -17 -121 15 0 32 36 41 87 3 21 11 44 16 50 11
14 111 63 128 63 13 0 4 -82 -13 -115 -14 -29 -60 -70 -96 -84 -36 -16 -44
-46 -8 -35 73 22 131 73 142 124 4 19 11 40 15 45 12 16 21 81 14 99 -7 18
-14 19 -66 2z"/>
<path d="M9846 10130 c82 -83 153 -159 158 -170 5 -11 13 -20 18 -20 4 0 8 -6
8 -13 0 -8 10 -23 23 -35 12 -11 31 -38 42 -59 10 -21 32 -54 47 -74 15 -20
28 -42 28 -48 0 -6 5 -11 10 -11 6 0 10 6 10 14 0 26 -48 121 -79 156 -17 19
-31 40 -31 47 0 6 -11 20 -25 31 -14 11 -25 23 -25 26 0 10 -16 28 -108 124
-46 48 -84 92 -85 97 -1 6 14 10 33 10 40 0 52 25 25 55 -21 23 -54 15 -66
-16 -12 -32 -39 -30 -74 6 -16 17 -35 30 -44 30 -8 0 53 -68 135 -150z"/>
<path d="M10334 10221 c6 -58 -5 -76 -59 -101 -50 -23 -91 -81 -107 -152 -13
-61 -4 -84 38 -98 29 -10 42 -10 63 1 52 26 88 58 101 91 32 84 43 98 80 98
l35 1 -30 24 c-16 14 -40 25 -52 25 -16 0 -23 8 -28 33 -4 17 -11 37 -15 42
-5 6 -13 26 -19 45 l-11 35 4 -44z m26 -153 c0 -50 -21 -98 -53 -120 -18 -12
-34 -26 -37 -30 -3 -4 -17 -9 -30 -10 -24 -3 -25 0 -23 42 4 79 52 137 116
139 22 1 27 -3 27 -21z"/>
<path d="M10055 10030 c-10 -17 20 -44 40 -36 9 3 15 14 13 23 -4 21 -43 30
-53 13z"/>
<path d="M10241 9831 c-16 -28 -14 -33 12 -29 14 2 22 10 22 22 0 27 -21 31
-34 7z"/>
<path d="M12190 7450 c-85 -4 -163 -8 -172 -9 -21 -1 -24 -29 -5 -36 18 -7
483 21 498 31 22 13 -20 23 -96 22 -38 -1 -140 -5 -225 -8z"/>
<path d="M12526 7228 c-3 -50 -6 -254 -6 -452 0 -311 2 -365 16 -384 8 -12 19
-22 25 -22 5 0 9 74 9 180 0 113 -4 180 -10 180 -6 0 -10 105 -10 295 0 290
-11 383 -24 203z"/>
<path d="M8105 10254 c-29 -31 -32 -59 -8 -82 14 -14 48 -18 218 -23 l202 -5
59 -34 c32 -18 74 -46 92 -61 40 -35 56 -37 46 -6 -20 65 -95 169 -138 189
-12 5 -37 18 -56 29 -31 17 -56 19 -213 19 l-178 0 -24 -26z"/>
<path d="M8245 9996 c-16 -7 -36 -25 -44 -39 -8 -15 -20 -27 -28 -27 -7 0 -13
-4 -13 -10 0 -5 7 -10 15 -10 8 0 15 5 15 10 0 20 18 9 24 -14 6 -25 31 -36
81 -36 39 0 50 9 59 43 7 31 35 36 60 12 8 -8 18 -15 22 -15 4 0 17 -9 28 -19
30 -28 76 -38 76 -17 0 9 -12 22 -27 29 -16 6 -35 18 -43 26 -8 7 -29 20 -46
27 -18 8 -35 18 -38 23 -3 5 -23 12 -43 15 -21 4 -45 9 -53 11 -8 2 -28 -2
-45 -9z"/>
<path d="M7970 9589 c0 -26 -7 -50 -21 -67 -20 -25 -20 -27 -3 -31 38 -7 68
70 48 123 -11 30 -24 16 -24 -25z"/>
<path d="M7728 9569 c-27 -15 -22 -26 17 -33 19 -4 47 -13 62 -21 38 -20 53
-19 53 5 0 15 -13 26 -46 40 -52 23 -62 24 -86 9z"/>
<path d="M9432 9469 c-13 -5 -29 -14 -36 -21 -7 -7 -25 -22 -39 -33 -15 -11
-27 -25 -27 -31 0 -6 -9 -19 -20 -29 -17 -15 -20 -29 -19 -73 2 -50 0 -55 -34
-86 -25 -22 -37 -41 -37 -59 0 -33 16 -43 36 -23 9 9 32 16 54 16 21 0 42 5
45 10 3 6 -2 10 -12 10 -10 0 -24 4 -32 9 -11 7 -10 13 8 32 19 20 20 30 15
86 -6 57 -5 63 12 63 25 -1 47 -19 61 -52 7 -16 18 -28 24 -28 20 0 0 54 -31
81 -17 14 -30 31 -30 37 0 15 45 33 64 26 8 -3 17 3 20 14 9 26 39 33 64 16
14 -10 21 -31 27 -79 8 -80 25 -76 25 7 0 80 -25 118 -78 117 -20 0 -47 -4
-60 -10z"/>
<path d="M9460 9140 c-38 -33 -35 -52 4 -23 24 17 40 42 33 49 -1 2 -18 -10
-37 -26z"/>
<path d="M2000 9400 c-41 -4 -88 -13 -103 -19 -16 -6 -39 -11 -51 -11 -26 0
-162 -42 -213 -65 -17 -8 -35 -15 -40 -15 -11 0 -43 -33 -43 -43 0 -4 7 -7 15
-7 8 0 15 5 15 10 0 6 9 10 20 10 10 0 34 6 52 14 37 16 114 42 168 57 78 20
311 40 455 38 235 -3 448 -38 582 -95 17 -8 40 -14 51 -14 11 0 22 -6 25 -14
3 -7 19 -16 36 -18 40 -6 41 16 2 36 -60 32 -219 85 -286 96 -38 7 -78 16 -88
22 -43 22 -434 34 -597 18z"/>
<path d="M2229 9163 c-105 -65 -62 -213 62 -213 52 0 79 18 100 65 19 44 20
48 4 89 -14 37 -24 47 -59 60 -52 20 -74 20 -107 -1z m106 -21 c11 -9 26 -29
34 -44 27 -52 -18 -108 -87 -108 -34 0 -44 7 -67 47 -17 29 -17 32 -2 48 10 9
17 22 17 28 0 15 49 46 70 46 8 0 24 -7 35 -17z"/>
<path d="M1802 9130 c-43 -18 -71 -61 -71 -110 -1 -51 18 -80 65 -104 28 -14
35 -14 61 -1 17 8 37 23 47 34 20 22 31 80 22 113 -15 56 -74 88 -124 68z m61
-31 c31 -17 37 -28 37 -72 0 -68 -76 -112 -122 -70 -36 32 -21 114 25 137 39
19 34 18 60 5z"/>
<path d="M2717 9101 c-44 -28 -43 -31 4 -26 62 8 74 -3 73 -70 -1 -42 -6 -59
-20 -70 -22 -17 -64 -20 -64 -5 0 6 -7 10 -15 10 -19 0 -19 -24 0 -40 46 -38
145 21 145 86 0 46 -17 85 -48 111 -32 27 -39 27 -75 4z"/>
<path d="M2023 9074 c-3 -8 1 -22 9 -31 12 -12 20 -13 37 -4 25 14 28 36 5 45
-26 10 -44 7 -51 -10z"/>
<path d="M2513 9083 c-21 -8 -16 -60 6 -66 40 -10 68 32 39 61 -13 13 -24 14
-45 5z"/>
<path d="M8625 8022 c-5 -4 -18 -24 -27 -44 -10 -21 -22 -38 -28 -38 -5 0 -10
-7 -10 -15 0 -8 -3 -15 -7 -15 -5 0 -17 -18 -27 -40 -11 -22 -22 -40 -25 -40
-4 0 -15 -17 -26 -37 -11 -21 -28 -47 -37 -57 -23 -25 -60 -96 -50 -96 9 1 92
117 92 130 0 5 6 13 14 17 7 4 29 33 47 63 18 30 41 63 50 73 10 11 20 31 24
45 4 15 11 30 17 33 6 4 9 12 7 18 -2 5 -8 7 -14 3z"/>
<path d="M1860 8438 c0 -24 34 -40 78 -36 50 4 38 23 -16 24 -26 0 -47 6 -53
15 -7 11 -9 11 -9 -3z"/>
<path d="M2200 7995 c0 -8 7 -15 15 -15 8 0 15 -4 15 -9 0 -5 14 -12 31 -16
22 -5 36 -3 47 9 15 15 15 16 -5 16 -11 0 -37 7 -56 15 -20 8 -39 15 -42 15
-3 0 -5 -7 -5 -15z"/>
<path d="M1660 7805 c0 -14 5 -25 10 -25 6 0 10 11 10 25 0 14 -4 25 -10 25
-5 0 -10 -11 -10 -25z"/>
<path d="M10005 7733 c-31 -16 -106 -64 -115 -74 -3 -3 -30 -24 -60 -47 -50
-37 -79 -68 -105 -112 -9 -15 61 32 80 54 6 7 31 27 58 46 26 18 47 36 47 39
0 3 13 12 28 19 16 6 38 21 50 32 12 11 24 20 27 20 8 0 35 27 35 34 0 9 -11
6 -45 -11z"/>
<path d="M9551 6135 c-6 -22 -11 -46 -11 -53 0 -7 -6 -23 -14 -35 -14 -21 -52
-142 -63 -202 -3 -16 -11 -39 -18 -50 -7 -11 -20 -56 -30 -100 -9 -44 -21 -90
-25 -101 -5 -12 -16 -52 -24 -90 -9 -38 -20 -82 -25 -99 -5 -16 -13 -50 -16
-75 -4 -25 -11 -49 -15 -55 -4 -5 -11 -26 -14 -45 -4 -19 -16 -73 -27 -119
-11 -46 -22 -102 -25 -125 -3 -22 -9 -54 -14 -71 -5 -16 -17 -79 -27 -140 -10
-60 -21 -113 -26 -116 -5 -4 -13 -37 -18 -75 -5 -38 -13 -91 -18 -119 -6 -27
-13 -90 -16 -140 l-5 -90 16 45 c8 25 19 77 24 117 5 39 13 80 19 90 5 10 17
61 27 113 9 52 25 129 36 170 18 74 40 189 53 284 4 27 10 56 15 65 5 9 16 50
25 91 16 76 26 116 51 205 24 87 44 180 44 208 0 14 6 41 14 59 8 18 24 76 37
128 12 52 28 109 36 127 17 42 55 213 50 227 -2 6 -9 -7 -16 -29z"/>
<path d="M8788 3624 c-65 -34 -107 -99 -108 -161 0 -40 28 -25 46 25 12 30 38
66 73 100 41 39 50 52 36 52 -11 -1 -32 -7 -47 -16z"/>
<path d="M9026 3483 c-41 -11 -89 -94 -71 -123 10 -16 33 6 40 40 3 16 13 34
21 41 13 11 40 51 32 48 -2 -1 -11 -3 -22 -6z"/>
<path d="M9290 3318 c-20 -22 -30 -95 -10 -83 6 3 10 12 10 19 0 7 9 23 20 36
37 43 19 69 -20 28z"/>
<path d="M8275 2338 c-4 -10 -4 -26 0 -35 8 -17 8 -17 12 0 3 9 3 25 0 35 -4
16 -4 16 -12 0z"/>
<path d="M8920 2154 c0 -3 7 -12 15 -20 8 -9 15 -24 15 -33 0 -10 7 -24 15
-31 26 -22 18 31 -10 63 -23 26 -35 33 -35 21z"/>
<path d="M4320 5609 c14 -6 33 -15 42 -20 10 -5 29 -9 43 -9 13 0 59 -9 102
-19 101 -25 230 -41 323 -41 92 0 250 20 250 31 0 5 -71 9 -157 9 -150 0 -389
19 -498 40 -27 6 -68 12 -90 15 -36 5 -37 4 -15 -6z"/>
<path d="M3643 5289 c0 -86 -7 -212 -16 -284 -17 -133 -22 -355 -8 -390 11
-27 21 37 21 136 0 41 9 140 20 219 26 188 27 357 1 424 l-18 49 0 -154z"/>
<path d="M2131 7096 c-8 -9 -26 -16 -42 -16 -16 0 -29 -4 -29 -10 0 -6 62 -10
167 -10 170 0 193 7 93 30 -95 21 -174 24 -189 6z"/>
<path d="M2030 6971 c-45 -9 -81 -29 -60 -33 8 -2 94 -3 190 -3 96 0 214 -4
263 -9 51 -5 87 -5 87 0 0 5 -28 18 -63 28 -47 15 -99 20 -222 22 -88 2 -176
-1 -195 -5z"/>
<path d="M11440 5631 c-36 -5 -94 -18 -129 -29 -35 -12 -70 -22 -76 -22 -16 0
-189 -89 -193 -100 -2 -4 -28 -23 -58 -41 -29 -18 -54 -37 -54 -41 0 -4 -4 -8
-10 -8 -17 0 -157 -147 -215 -225 -63 -85 -69 -124 -9 -56 92 104 242 250 284
276 25 15 56 39 69 51 13 13 30 24 37 24 7 0 17 6 21 13 10 15 70 47 88 47 8
0 29 9 48 20 69 41 203 61 411 61 181 1 189 2 151 16 -47 17 -266 26 -365 14z"/>
<path d="M10271 5424 c0 -11 3 -14 6 -6 3 7 2 16 -1 19 -3 4 -6 -2 -5 -13z"/>
<path d="M9900 5196 c0 -32 31 -148 60 -221 5 -11 11 -28 14 -37 3 -10 10 -18
16 -18 15 0 12 29 -5 46 -8 9 -15 30 -15 48 0 18 -3 36 -7 40 -5 4 -13 29 -20
54 -6 26 -18 65 -27 87 l-15 40 -1 -39z"/>
<path d="M11425 4920 c-3 -4 10 -13 28 -20 17 -7 58 -25 90 -41 32 -16 64 -29
71 -29 7 0 21 -9 31 -20 10 -11 26 -20 35 -20 10 0 23 -7 30 -15 7 -8 21 -15
31 -15 11 0 19 -4 19 -10 0 -5 15 -16 33 -24 28 -14 168 -119 235 -177 13 -11
27 -18 30 -15 3 4 -4 13 -15 21 -12 8 -39 32 -60 53 -22 20 -56 51 -77 67 -21
17 -44 36 -51 43 -8 6 -18 12 -24 12 -5 0 -16 6 -23 13 -17 15 -32 23 -155 88
-110 58 -220 101 -228 89z"/>
<path d="M12065 4510 c3 -5 11 -10 16 -10 6 0 7 5 4 10 -3 6 -11 10 -16 10 -6
0 -7 -4 -4 -10z"/>
<path d="M7650 7059 c-46 -28 -59 -48 -60 -85 0 -22 9 -38 30 -57 36 -32 52
-33 96 -6 46 28 64 56 64 99 0 67 -62 90 -130 49z m84 -15 c37 -36 -5 -114
-62 -114 -59 0 -69 48 -21 98 35 35 59 40 83 16z"/>
<path d="M7476 7023 c-9 -22 5 -34 32 -27 31 9 30 44 -2 44 -13 0 -27 -8 -30
-17z"/>
<path d="M7904 7020 c-29 -11 -37 -26 -29 -50 8 -26 49 -26 74 -1 19 19 19 20
0 40 -11 12 -21 21 -22 20 -1 0 -12 -4 -23 -9z"/>
<path d="M7018 6103 c-10 -2 -18 -9 -18 -14 0 -6 8 -5 20 1 11 6 20 13 20 15
0 3 -1 4 -2 4 -2 -1 -11 -3 -20 -6z"/>
<path d="M7100 6039 c-34 -17 -40 -23 -26 -27 10 -2 22 2 27 10 13 20 133 16
157 -5 20 -18 42 -22 42 -8 0 18 -50 41 -102 46 -42 5 -62 1 -98 -16z"/>
<path d="M6877 6009 c-10 -11 -27 -39 -39 -62 -12 -23 -26 -45 -31 -48 -5 -4
-9 -55 -10 -115 -2 -138 17 -185 106 -261 53 -45 97 -58 197 -58 84 0 102 3
154 29 105 51 180 129 227 232 24 53 29 77 29 144 0 73 -2 82 -28 111 l-28 31
1 -104 c0 -100 -17 -188 -37 -188 -5 0 -12 -9 -16 -19 -4 -11 -33 -47 -65 -80
-51 -52 -68 -64 -127 -81 -147 -44 -250 -14 -327 95 -27 39 -28 44 -27 154 1
84 5 117 15 125 17 13 49 80 49 101 0 21 -21 17 -43 -6z"/>
<path d="M7115 5979 c-32 -9 -85 -55 -111 -94 -22 -34 -11 -115 21 -145 30
-28 48 -19 34 17 -10 27 -3 46 10 25 4 -6 21 -15 39 -18 27 -6 37 -1 67 29 39
39 47 86 19 125 -20 29 -4 29 24 0 12 -14 22 -40 24 -63 2 -33 7 -41 27 -43
33 -5 48 13 29 35 -8 10 -21 34 -27 54 -10 32 -51 84 -51 65 0 -3 -16 1 -36 9
-20 8 -37 15 -38 14 0 0 -14 -5 -31 -10z m17 -131 c-17 -17 -25 -3 -17 29 l7
28 11 -23 c7 -16 7 -26 -1 -34z"/>
<path d="M7320 5818 c-1 -30 -38 -89 -74 -118 -57 -44 -130 -64 -192 -50 -27
6 -57 20 -67 31 -21 22 -31 21 -22 -4 4 -8 29 -25 57 -37 55 -23 118 -21 184
6 42 18 103 82 111 117 3 15 10 30 14 33 12 7 11 34 -1 34 -5 0 -10 -6 -10
-12z"/>
<path d="M7200 5782 c0 -5 -20 -18 -45 -30 -55 -26 -59 -44 -9 -40 27 2 43 11
61 34 20 27 21 33 8 37 -8 4 -15 3 -15 -1z"/>
<path d="M6840 5320 c0 -5 5 -10 10 -10 6 0 10 5 10 10 0 6 -4 10 -10 10 -5 0
-10 -4 -10 -10z"/>
<path d="M456 6287 c-32 -28 -31 -65 2 -52 9 4 27 10 40 13 22 4 23 2 16 -32
-5 -30 -3 -40 12 -51 26 -20 31 -19 50 11 13 19 14 28 5 37 -19 19 -12 37 14
37 14 0 25 5 25 11 0 23 -34 43 -84 47 -43 3 -55 0 -80 -21z"/>
<path d="M745 5407 c-59 -32 -66 -45 -60 -97 3 -25 10 -90 15 -144 6 -55 14
-102 19 -105 4 -3 11 -16 15 -29 13 -39 27 -13 21 36 -12 92 -23 266 -18 278
3 7 13 16 22 19 26 8 62 45 56 56 -9 14 -26 11 -70 -14z"/>
<path d="M5960 3719 c-70 -33 -169 -107 -170 -126 0 -7 -3 -13 -8 -13 -4 0
-13 -14 -20 -30 -8 -17 -19 -36 -25 -43 -28 -29 -60 -177 -39 -177 7 0 15 12
18 28 12 51 56 137 100 196 77 102 176 156 287 156 97 0 179 -69 191 -161 8
-61 -2 -155 -18 -172 -7 -7 -20 -33 -30 -59 -23 -61 -106 -145 -182 -183 -45
-23 -76 -31 -132 -34 -87 -4 -125 11 -175 69 -19 22 -37 40 -42 40 -4 0 -5
-16 -2 -34 6 -37 67 -106 93 -106 8 0 14 -4 14 -10 0 -17 165 -12 207 6 93 41
121 57 163 97 72 69 99 106 116 161 9 28 22 68 30 89 8 20 14 59 14 85 0 200
-197 312 -390 221z"/>
<path d="M5875 3502 c-6 -4 -22 -25 -38 -48 -27 -41 -35 -74 -17 -74 6 0 10 8
10 19 0 10 10 33 23 52 41 61 44 67 22 51z"/>
<path d="M6113 3431 c-7 -12 -13 -27 -13 -34 0 -33 -133 -137 -176 -137 -13 0
-24 -5 -24 -10 0 -38 108 -12 156 38 42 44 77 111 72 141 -3 22 -3 22 -15 2z"/>
<path d="M9680 2648 c-11 -18 -20 -43 -20 -56 0 -13 -6 -35 -14 -50 -7 -15
-17 -49 -20 -77 -7 -46 -6 -48 8 -29 8 11 18 34 21 50 4 16 15 52 25 79 19 56
32 115 25 115 -3 0 -14 -15 -25 -32z"/>
<path d="M8960 1632 c0 -5 9 -27 20 -50 11 -22 20 -47 21 -54 0 -7 9 -26 19
-43 11 -16 29 -48 41 -70 35 -64 71 -107 81 -97 6 6 -1 28 -18 58 -15 27 -40
74 -56 104 -63 122 -108 184 -108 152z"/>
<path d="M8847 1540 c-14 -16 -29 -40 -33 -52 -3 -12 -20 -44 -36 -70 -17 -27
-29 -51 -26 -53 7 -7 24 10 48 50 13 22 31 49 41 60 15 17 43 95 34 95 -2 0
-15 -13 -28 -30z"/>
<path d="M8920 1315 c0 -8 7 -15 15 -15 8 0 15 7 15 15 0 8 -7 15 -15 15 -8 0
-15 -7 -15 -15z"/>
<path d="M9133 1273 c-7 -2 -13 -9 -13 -15 0 -5 -8 -17 -19 -26 -10 -10 -34
-46 -52 -82 -19 -36 -37 -66 -41 -68 -5 -2 -8 -8 -8 -14 0 -6 -11 -35 -25 -65
-27 -55 -55 -71 -55 -29 0 13 -7 29 -15 36 -8 7 -15 18 -15 25 0 17 -30 83
-55 120 -11 17 -25 39 -31 49 -13 24 -54 53 -54 38 0 -6 7 -17 15 -26 8 -8 15
-18 15 -21 0 -7 16 -45 44 -105 6 -14 13 -27 16 -30 4 -3 18 -30 34 -60 45
-91 57 -110 66 -110 12 0 50 60 75 118 10 23 22 42 25 42 4 0 15 20 26 45 10
25 21 45 25 45 4 0 12 15 20 33 7 17 21 44 31 59 27 39 24 55 -9 41z"/>
<path d="M4591 2697 c19 -12 52 -31 74 -42 22 -11 63 -34 90 -50 94 -58 211
-94 315 -100 71 -3 82 -2 45 4 -27 5 -70 15 -95 24 -25 8 -65 20 -89 27 -24 6
-60 22 -80 34 -20 12 -52 28 -71 36 -19 7 -42 19 -50 26 -14 12 -148 64 -165
64 -4 0 7 -10 26 -23z"/>
<path d="M5350 2432 c-108 -51 -135 -62 -146 -62 -6 0 -25 -7 -40 -15 -16 -8
-37 -15 -46 -15 -10 0 -18 -4 -18 -9 0 -5 -15 -12 -34 -15 -19 -4 -61 -15 -93
-25 -125 -39 -262 -72 -398 -96 -132 -23 -446 -33 -580 -18 -165 17 -293 42
-430 82 -55 16 -135 38 -177 47 -43 10 -78 21 -78 25 0 4 -12 10 -27 14 -16 3
-56 18 -91 32 -34 13 -67 23 -73 21 -10 -3 16 -18 66 -39 11 -4 40 -17 65 -27
129 -56 478 -156 600 -172 205 -27 258 -30 407 -26 200 5 462 35 488 55 5 5
46 16 89 25 82 16 367 106 376 118 3 3 19 10 35 14 16 4 53 22 82 41 29 18 56
33 61 33 5 0 15 7 22 15 10 12 9 15 -6 14 -11 0 -35 -8 -54 -17z"/>
<path d="M3078 2413 c7 -3 16 -2 19 1 4 3 -2 6 -13 5 -11 0 -14 -3 -6 -6z"/>
<path d="M4298 1253 c7 -3 16 -2 19 1 4 3 -2 6 -13 5 -11 0 -14 -3 -6 -6z"/>
<path d="M4195 1226 c-80 -26 -215 -92 -215 -105 0 -5 -11 -12 -25 -15 -14 -4
-25 -11 -25 -16 0 -6 -6 -10 -13 -10 -7 0 -26 -13 -42 -30 -16 -16 -33 -30
-38 -30 -5 0 -26 -19 -47 -42 -42 -47 -35 -66 9 -24 15 14 32 26 39 26 7 0 12
4 12 8 0 5 22 24 50 43 27 19 50 37 50 42 0 4 4 7 10 7 5 0 38 17 72 38 35 21
79 46 98 55 19 10 42 22 50 27 8 5 35 18 60 29 61 26 40 25 -45 -3z"/>
<path d="M10491 2152 c-12 -17 -21 -36 -21 -44 0 -8 -5 -19 -11 -25 -14 -14
-35 -50 -50 -85 -6 -16 -15 -28 -19 -28 -10 0 -34 -69 -27 -76 8 -8 63 66 97
130 31 57 63 146 56 154 -2 2 -13 -10 -25 -26z"/>
<path d="M7110 2528 c-10 -18 -24 -38 -29 -45 -6 -7 -11 -17 -11 -23 0 -5 -6
-10 -14 -10 -12 0 -86 -110 -86 -129 0 -5 -10 -28 -23 -52 -13 -24 -31 -71
-41 -104 -9 -33 -22 -75 -27 -93 -6 -19 -8 -36 -5 -39 5 -5 26 37 62 122 15
37 72 153 108 223 15 29 38 64 51 78 13 14 27 39 30 55 4 16 11 29 16 29 5 0
9 5 9 10 0 21 -21 9 -40 -22z"/>
</g>
</svg>
