<?xml version="1.0" standalone="no"?>
<!DOCTYPE svg PUBLIC "-//W3C//DTD SVG 20010904//EN"
 "http://www.w3.org/TR/2001/REC-SVG-20010904/DTD/svg10.dtd">
<svg version="1.0" xmlns="http://www.w3.org/2000/svg"
 width="1250.000000pt" height="1249.000000pt" viewBox="0 0 1250.000000 1249.000000"
 preserveAspectRatio="xMidYMid meet">
<metadata>
Created by potrace 1.16, written by Peter Selinger 2001-2019
</metadata>
<g transform="translate(0.000000,1249.000000) scale(0.100000,-0.100000)"
fill="#000000" stroke="none">
<path d="M0 6245 l0 -6245 6250 0 6250 0 0 6245 0 6245 -6250 0 -6250 0 0
-6245z m6525 6145 c871 -42 1651 -239 2420 -609 837 -404 1614 -1036 2187
-1781 136 -176 364 -517 464 -690 468 -818 732 -1687 804 -2650 13 -179 4
-840 -14 -1015 -50 -478 -136 -891 -276 -1320 l-61 -184 -42 -5 c-157 -19
-230 -26 -273 -26 -27 0 -83 -5 -124 -10 -194 -27 -725 -84 -890 -95 -47 -4
-139 -13 -205 -20 -173 -21 -295 -34 -415 -45 -109 -10 -321 -33 -735 -80
-159 -18 -362 -41 -460 -51 -55 -5 -156 -17 -225 -25 -69 -8 -176 -19 -238
-24 l-113 -9 -142 55 c-78 31 -189 78 -247 106 -58 28 -114 55 -125 58 -11 4
-38 14 -60 23 -22 8 -78 30 -125 48 -47 17 -89 35 -93 39 -5 4 -3 34 3 67 15
84 -3 383 -29 483 -54 208 -120 338 -213 419 -26 22 -28 30 -28 94 0 83 -26
164 -78 246 -19 31 -38 58 -41 61 -3 3 -24 27 -45 54 -22 26 -52 62 -68 80
-48 51 -81 105 -127 206 -24 52 -63 131 -86 175 -24 44 -61 114 -83 155 -21
41 -56 107 -77 145 -21 39 -49 93 -63 120 -13 28 -28 52 -33 53 -5 2 -9 7 -9
11 0 8 -165 308 -179 325 -11 13 -41 67 -89 156 -19 36 -43 77 -53 92 -11 14
-19 31 -19 37 0 6 -4 11 -10 11 -5 0 -10 5 -10 10 0 20 -104 170 -182 262 -10
12 -18 25 -18 30 0 9 -156 166 -211 213 -42 36 -112 81 -169 110 -30 15 -58
33 -62 39 -11 16 -10 240 1 268 5 13 26 46 47 73 71 93 87 138 86 245 0 63 5
104 14 122 8 16 15 61 16 109 1 81 2 84 43 138 69 92 85 136 85 228 0 70 2 81
18 85 37 10 63 88 66 200 2 66 9 117 20 142 12 28 16 70 16 162 0 107 3 128
21 158 18 30 20 45 14 98 -4 35 -8 108 -9 163 -2 119 -5 129 -64 220 -59 92
-119 148 -202 187 -55 27 -73 42 -99 83 -18 28 -59 70 -91 95 -33 25 -70 53
-82 64 -38 31 -197 102 -283 126 -68 19 -86 21 -122 11 -41 -11 -45 -10 -90
26 -27 20 -86 54 -133 76 l-85 40 -137 -1 c-115 0 -147 -4 -199 -22 -51 -18
-71 -21 -113 -14 -111 18 -328 -4 -360 -36 -6 -6 -18 -10 -27 -10 -10 0 -43
-23 -74 -52 -47 -43 -63 -52 -89 -50 -63 6 -205 -31 -242 -63 -6 -5 -26 -23
-44 -38 -39 -36 -76 -114 -85 -186 -6 -46 -11 -55 -39 -70 -63 -33 -111 -92
-126 -154 -12 -51 -19 -62 -55 -87 -52 -36 -70 -75 -61 -136 5 -40 2 -50 -22
-82 -24 -32 -27 -44 -28 -121 -1 -65 -6 -98 -22 -134 -15 -34 -22 -69 -22
-115 0 -66 -1 -67 -38 -92 -41 -26 -78 -62 -134 -131 -20 -24 -48 -57 -63 -74
-49 -56 -59 -85 -60 -172 0 -74 -2 -84 -26 -110 -49 -52 -59 -78 -65 -159 -6
-96 -13 -116 -81 -221 -76 -117 -93 -157 -93 -230 0 -54 -3 -64 -22 -74 -13
-7 -39 -24 -58 -39 -19 -14 -51 -32 -70 -39 -19 -8 -53 -21 -75 -31 -22 -9
-67 -25 -100 -34 -33 -10 -82 -26 -110 -36 -27 -10 -75 -26 -105 -36 -131 -39
-277 -86 -295 -94 -11 -5 -47 -18 -80 -30 -33 -12 -105 -43 -160 -70 -178 -87
-271 -130 -278 -130 -4 0 -24 -11 -45 -24 -20 -13 -81 -50 -136 -81 -54 -32
-108 -68 -120 -80 -11 -11 -31 -28 -44 -37 -50 -34 -156 -143 -229 -235 -43
-54 -84 -106 -92 -115 -14 -17 -53 -83 -95 -163 -12 -22 -33 -58 -48 -80 -33
-51 -106 -174 -135 -228 -13 -23 -23 -35 -24 -27 -6 86 31 433 71 665 204
1191 730 2256 1555 3149 991 1071 2332 1757 3765 1925 406 48 660 58 1015 41z
m-1786 -1685 c65 -17 114 -39 131 -60 42 -51 75 -63 250 -90 111 -17 173 -32
215 -53 30 -14 137 -100 143 -114 2 -4 24 -32 49 -63 34 -41 63 -63 117 -89
138 -67 217 -176 221 -306 3 -97 -18 -156 -42 -117 -11 17 -108 87 -121 87 -6
0 -12 3 -14 8 -4 10 -177 93 -248 119 -165 62 -413 127 -575 152 -289 44 -297
45 -645 45 -298 1 -357 -2 -435 -17 -49 -11 -108 -23 -130 -27 -70 -14 -161
-39 -191 -51 -47 -19 -99 -41 -106 -46 -4 -2 -3 9 3 26 10 28 45 64 84 87 12
7 25 35 36 77 35 137 96 188 249 208 92 12 98 16 91 62 0 4 3 7 8 7 5 0 16 6
23 13 30 30 108 77 127 77 11 0 22 4 25 9 3 5 18 11 33 14 16 3 48 11 73 17
34 9 68 9 142 -1 85 -11 102 -10 140 4 101 39 250 48 347 22z m-99 -545 c86
-10 174 -24 330 -52 244 -43 567 -160 687 -247 24 -17 46 -31 50 -31 5 0 32
-23 62 -52 50 -48 55 -57 59 -105 8 -95 -4 -99 -82 -28 -37 34 -66 45 -66 26
0 -12 29 -41 40 -41 5 0 6 -16 3 -35 -4 -23 -2 -35 6 -35 7 0 9 9 5 25 -8 34
5 31 41 -8 36 -40 54 -86 44 -112 -4 -11 -8 -37 -8 -57 -1 -38 -21 -55 -21
-19 0 11 -5 23 -11 27 -8 5 -9 -8 -4 -45 4 -28 3 -51 -2 -51 -22 0 -53 33 -53
57 0 21 -2 23 -15 13 -11 -10 -18 -9 -30 3 -8 8 -20 18 -27 20 -9 4 -4 13 15
27 15 12 27 29 27 38 0 12 -7 9 -28 -11 -35 -34 -50 -34 -62 -2 -11 30 -34 34
-25 5 7 -24 2 -25 -33 -7 -15 8 -44 22 -64 32 -21 10 -38 21 -38 24 0 3 19 15
42 26 22 11 43 28 46 37 2 10 10 18 17 18 6 0 20 9 30 20 10 11 24 20 32 20 7
0 13 7 13 15 0 8 -4 15 -9 15 -5 0 -14 -7 -21 -15 -17 -21 -40 -19 -40 4 0 10
-7 25 -16 32 -15 12 -16 11 -10 -9 3 -12 9 -31 12 -43 7 -23 -7 -38 -75 -83
-43 -27 -45 -28 -58 -10 -11 16 -15 16 -22 5 -8 -12 -14 -12 -43 -1 -43 18
-43 17 -25 35 20 19 34 19 45 -1 6 -11 12 -13 16 -6 4 6 -5 29 -20 52 l-27 40
32 30 c17 17 38 30 46 30 8 0 15 7 15 15 0 20 -12 19 -38 -2 -11 -10 -31 -27
-44 -38 -12 -11 -29 -18 -35 -17 -18 4 -16 -23 2 -38 8 -7 15 -19 15 -27 0 -7
-7 -16 -15 -19 -8 -4 -15 -12 -15 -20 0 -18 -14 -18 -53 0 -32 13 -143 48
-202 61 -29 7 -29 7 -7 16 12 5 25 15 28 24 4 8 16 15 29 15 23 0 53 26 42 36
-8 8 -47 -6 -47 -17 0 -5 -4 -9 -10 -9 -5 0 -26 -11 -46 -25 -20 -14 -42 -25
-49 -25 -14 0 -85 67 -85 80 0 5 -15 28 -33 52 -43 57 -117 181 -117 196 0 14
0 14 75 -1 56 -12 148 -7 115 5 -46 18 -237 49 -314 52 -62 2 -55 -21 9 -29
71 -8 72 -34 2 -70 -23 -11 -35 -35 -18 -35 6 0 20 9 30 19 11 11 30 26 43 35
21 13 25 13 46 -4 13 -11 21 -24 17 -30 -7 -12 16 -51 53 -90 13 -14 30 -38
38 -55 7 -16 25 -41 39 -54 14 -13 25 -31 25 -41 0 -16 -4 -17 -32 -9 -51 15
-125 28 -215 39 -88 10 -173 40 -173 62 1 7 19 25 40 40 22 15 40 32 40 38 0
17 -14 11 -55 -24 -21 -19 -44 -32 -49 -30 -6 2 -22 20 -35 39 -13 19 -27 35
-32 35 -14 0 -40 -45 -28 -49 6 -2 15 2 19 9 6 10 15 6 34 -16 14 -16 26 -34
26 -40 0 -22 -49 -44 -100 -44 -27 0 -50 -4 -50 -10 0 -5 3 -10 8 -10 87 -4
284 -23 346 -34 44 -8 128 -22 186 -32 122 -19 213 -42 354 -88 55 -18 121
-39 146 -47 25 -7 47 -16 50 -19 3 -3 28 -14 55 -24 75 -28 179 -79 188 -93 4
-7 14 -13 21 -13 8 0 19 -7 26 -15 7 -9 28 -22 46 -31 20 -10 40 -31 53 -56
17 -34 18 -45 7 -80 -15 -53 -36 -67 -63 -42 -70 64 -71 65 -208 140 -34 18
-99 47 -145 64 -47 17 -94 35 -105 40 -24 11 -167 52 -245 70 -30 7 -65 16
-78 21 -13 5 -34 9 -48 9 -14 0 -33 4 -42 9 -20 10 -204 37 -352 51 -139 14
-598 13 -730 -1 -58 -6 -139 -15 -180 -19 -78 -8 -266 -42 -335 -61 -89 -24
-95 -24 -95 5 0 45 29 103 58 115 63 24 130 44 172 52 252 47 553 79 735 79
72 0 137 5 145 10 8 5 11 10 5 11 -31 2 -60 11 -71 20 -7 6 -19 7 -25 3 -20
-12 -199 -17 -199 -5 0 5 6 11 13 14 6 2 9 8 4 12 -4 5 -17 -1 -30 -13 -13
-12 -30 -22 -39 -22 -15 0 -68 46 -68 60 0 4 -11 15 -25 24 -23 15 -25 15 -41
-9 -20 -30 -12 -44 12 -21 15 16 18 14 49 -21 l33 -38 -62 -6 c-33 -4 -73 -5
-88 -2 -17 3 -28 1 -28 -6 0 -6 -17 -11 -38 -11 -29 0 -45 7 -65 28 -15 15
-27 32 -27 38 0 5 14 25 30 44 31 36 37 50 21 50 -11 0 -51 -53 -51 -68 0 -26
-28 -16 -62 22 -20 22 -40 37 -44 33 -4 -4 9 -24 29 -44 21 -20 37 -39 37 -42
0 -3 -18 -27 -41 -53 -47 -55 -77 -62 -111 -23 -12 14 -26 25 -31 25 -12 0
-46 42 -47 57 0 16 77 105 104 119 11 7 40 15 64 19 35 6 42 4 42 -9 0 -9 3
-16 6 -16 9 0 34 28 34 37 0 10 78 33 110 33 22 0 28 -26 8 -33 -7 -2 -10 -7
-6 -11 3 -4 15 -2 26 5 17 10 23 7 55 -27 19 -21 39 -36 42 -32 4 4 -11 26
-34 49 -22 23 -38 45 -36 50 6 8 74 23 158 34 47 6 57 -1 35 -23 -6 -6 -8 -15
-4 -19 4 -5 21 7 37 24 28 33 30 33 146 40 113 6 117 6 100 -12 -26 -26 -12
-31 19 -6 35 28 49 27 71 -5 25 -35 69 -84 77 -84 14 0 4 19 -34 61 l-39 44
67 2 c167 7 176 28 15 36 -120 7 -338 -8 -560 -37 -137 -18 -417 -89 -491
-124 -17 -8 -35 -12 -38 -9 -15 15 -5 61 17 79 38 29 125 77 182 99 78 31 299
72 532 99 99 11 507 5 635 -10z m-1310 -286 c0 -4 -9 -22 -21 -41 -17 -27 -24
-31 -35 -22 -9 7 -14 8 -14 1 0 -6 6 -12 13 -15 9 -3 8 -8 -3 -22 -14 -17 -13
-18 2 -12 12 4 23 -2 37 -21 19 -28 19 -28 -1 -61 -14 -21 -27 -31 -38 -28 -9
2 -28 -4 -41 -14 -41 -31 -49 -25 -49 40 0 62 10 89 51 138 33 39 99 77 99 57z
m1144 -110 c25 -9 19 -24 -9 -24 -24 0 -32 10 -18 23 8 8 8 8 27 1z m-899 -24
c23 -25 20 -28 -30 -30 -59 -3 -60 -2 -35 25 28 30 41 31 65 5z m-211 -46 c8
-21 -1 -34 -25 -34 -22 0 -23 4 -9 31 13 23 26 24 34 3z m650 -246 c-10 -13
-35 -39 -55 -58 -30 -29 -37 -44 -42 -89 -6 -48 -12 -59 -51 -95 -55 -51 -72
-80 -80 -134 -4 -29 -17 -54 -40 -78 l-34 -36 1 -102 c1 -93 -1 -105 -27 -150
-31 -53 -31 -70 -1 -185 12 -48 14 -71 6 -94 -18 -49 -13 -94 16 -150 21 -41
27 -69 29 -130 3 -66 7 -82 26 -102 13 -14 28 -25 34 -25 11 0 114 -104 114
-115 0 -3 -5 -16 -11 -27 -15 -27 1 -41 36 -32 18 4 38 24 61 59 40 64 86 103
168 144 108 54 157 65 259 58 130 -9 148 -14 195 -56 60 -54 168 -81 200 -49
9 9 22 8 54 -1 73 -22 93 -43 119 -123 29 -92 52 -132 85 -146 33 -16 34 -15
34 8 0 11 -4 20 -10 20 -22 0 -8 34 28 69 20 20 46 50 57 65 23 33 63 83 86
108 28 32 101 168 124 231 13 34 32 116 44 182 31 170 57 262 95 326 50 85 57
115 57 253 0 69 3 126 7 126 8 0 44 -24 72 -47 8 -7 24 -19 35 -27 45 -32 16
-220 -48 -316 -17 -25 -37 -49 -44 -53 -7 -4 -13 -20 -13 -35 0 -15 -7 -60
-15 -100 -15 -73 -13 -104 11 -151 9 -16 13 -53 12 -96 -2 -70 -2 -70 -5 -13
-3 44 -9 60 -23 68 -15 8 -23 5 -39 -16 -36 -46 -82 -151 -91 -210 -11 -69 -1
-87 31 -58 14 12 10 1 -13 -31 -33 -49 -68 -156 -68 -210 0 -31 -39 -90 -103
-157 -43 -46 -57 -80 -57 -138 0 -39 -57 -109 -115 -139 -45 -24 -51 -31 -55
-66 -3 -22 -17 -60 -30 -85 -23 -41 -59 -69 -140 -107 -21 -9 -30 -24 -30 -52
0 -25 -35 -71 -54 -71 -6 0 -42 -21 -80 -45 -59 -38 -77 -45 -120 -45 -33 0
-62 -7 -84 -20 -76 -46 -133 -47 -232 -3 -18 9 -65 18 -103 20 -61 4 -167 40
-187 63 -17 21 -72 49 -105 56 -69 12 -141 70 -178 144 -19 36 -43 70 -56 76
-65 33 -111 113 -111 195 0 36 -5 54 -20 69 -11 11 -24 20 -28 20 -22 0 -72
127 -72 183 0 24 -26 102 -60 182 -23 55 -21 90 14 230 12 46 13 68 4 100 -19
69 -15 109 16 156 26 39 28 47 22 106 -6 60 -4 68 28 126 43 79 49 105 36 163
-15 64 1 112 38 116 41 5 41 35 0 52 -47 20 -88 76 -88 122 0 31 -76 84 -119
84 -59 0 -137 -70 -182 -166 -27 -57 -30 -71 -31 -180 -1 -107 1 -124 24 -174
14 -30 31 -76 38 -103 7 -26 17 -50 21 -53 5 -3 9 -14 9 -24 0 -10 14 -52 30
-93 31 -79 36 -106 21 -135 -4 -9 -17 -35 -27 -56 -21 -45 -69 -95 -129 -135
-35 -24 -45 -26 -77 -18 -20 5 -43 16 -50 25 -8 9 -20 59 -27 111 -7 52 -18
103 -25 114 -14 24 -102 87 -120 87 -8 0 -18 5 -21 10 -3 6 -24 10 -47 10 -37
0 -40 -2 -36 -25 4 -21 0 -26 -40 -40 -61 -20 -61 -20 -55 23 10 74 40 140 83
182 23 23 43 83 49 148 5 66 12 84 41 127 32 46 35 56 35 123 0 62 3 76 20 90
36 29 55 65 55 102 0 52 27 92 106 158 63 53 78 61 135 70 35 6 96 20 134 32
125 38 222 59 327 71 57 6 128 14 158 19 30 4 106 8 169 9 l114 1 -19 -22z
m571 11 c222 -19 555 -100 720 -174 17 -8 61 -28 100 -45 104 -46 167 -89 160
-109 -4 -9 -11 -63 -16 -121 -5 -58 -12 -117 -15 -133 l-6 -27 -48 43 c-58 52
-87 58 -258 50 -113 -6 -113 -6 -138 -38 -54 -71 -17 -89 186 -90 122 0 150
-3 180 -19 19 -10 37 -20 39 -22 1 -1 -9 -27 -23 -56 -25 -51 -57 -179 -76
-303 -5 -33 -16 -85 -25 -115 -17 -62 -94 -228 -116 -250 -19 -19 -106 -134
-139 -183 -14 -20 -30 -37 -37 -37 -7 0 -17 18 -23 40 -15 54 -68 121 -115
145 -22 11 -42 21 -44 23 -3 1 6 14 20 28 18 20 23 35 22 72 -1 52 13 279 28
440 9 105 31 175 62 201 10 7 17 20 17 28 0 24 -57 -23 -84 -70 -18 -30 -27
-69 -35 -137 -6 -52 -15 -136 -21 -186 -5 -50 -10 -134 -10 -187 0 -52 -4
-107 -10 -121 -22 -58 -136 -76 -203 -31 -20 14 -37 30 -37 34 0 15 -102 61
-135 61 -43 0 -64 37 -48 81 9 23 9 29 0 26 -22 -7 -38 -51 -31 -86 l5 -34
-48 6 c-67 8 -153 -13 -253 -61 -73 -35 -104 -60 -151 -121 l-26 -33 -44 47
c-24 26 -61 58 -81 72 -36 22 -38 26 -38 77 0 48 -29 145 -52 171 -11 13 -10
57 3 107 9 35 8 54 -6 103 -30 104 -29 116 6 185 33 66 40 119 25 190 -7 30
-4 39 20 65 40 42 54 72 54 115 0 32 8 46 58 97 53 53 59 65 65 112 5 44 13
59 47 92 26 25 40 48 40 64 l0 25 208 0 c114 0 261 -5 327 -11z m-1202 -363
c17 -15 27 -33 27 -51 0 -28 38 -105 52 -105 13 0 9 -35 -9 -71 l-17 -33 -14
54 c-26 102 -61 160 -97 160 -31 0 -71 -37 -79 -73 -6 -27 -6 -27 27 10 l34
37 29 -23 c27 -21 27 -22 6 -28 -12 -3 -22 -9 -22 -13 0 -5 8 -6 18 -3 14 3
23 -5 35 -30 24 -50 21 -70 -12 -85 -28 -12 -47 -39 -36 -50 3 -3 18 4 34 16
16 11 31 18 35 15 12 -12 6 -45 -14 -70 -23 -30 -25 -79 -9 -202 11 -82 11
-84 -17 -136 -23 -44 -30 -51 -44 -43 -9 6 -22 31 -29 57 -30 106 -55 179 -78
227 -69 147 -43 342 60 429 48 41 81 44 120 11z m41 -408 c-20 -38 -29 -48
-32 -35 -6 27 7 87 18 87 6 0 10 6 10 14 0 8 6 16 13 19 22 7 18 -31 -9 -85z
m-89 -546 c-35 -112 -28 -260 16 -354 9 -21 23 -62 30 -90 22 -94 51 -167 77
-193 13 -14 29 -25 33 -25 5 0 9 -24 9 -52 1 -77 41 -154 101 -193 33 -21 52
-43 69 -79 12 -27 32 -59 44 -71 49 -50 159 -115 192 -115 9 0 43 -18 75 -39
68 -46 186 -85 232 -78 31 5 157 -39 157 -55 0 -12 -85 -76 -135 -101 -28 -14
-73 -33 -102 -42 -48 -16 -53 -21 -68 -64 -9 -25 -25 -65 -36 -89 -10 -23 -19
-50 -19 -60 -1 -9 -7 -28 -14 -41 -13 -23 -13 -22 -34 30 -11 30 -23 66 -26
81 -4 15 -19 49 -34 75 -26 43 -33 49 -73 54 -24 3 -64 14 -89 23 -52 19 -173
76 -180 85 -3 4 -36 26 -73 50 -72 47 -203 169 -278 261 -80 99 -73 77 -121
335 -11 61 -26 148 -33 195 -7 47 -18 102 -23 124 -6 21 -14 88 -18 147 l-7
109 37 0 c20 0 45 5 56 12 26 17 36 3 20 -27 -7 -14 -10 -28 -6 -32 7 -7 30
22 60 77 10 19 33 51 51 71 34 38 79 124 90 174 l7 30 15 -39 c15 -35 15 -43
-2 -94z m2194 41 c-18 -31 -35 -51 -37 -44 -5 15 15 67 42 106 36 52 32 2 -5
-62z m50 -12 c-12 -23 -26 -41 -30 -41 -5 0 4 20 19 44 34 55 42 52 11 -3z
m-2733 -5 c-9 -14 -16 -33 -16 -41 0 -9 -5 -25 -11 -37 -11 -20 -12 -19 -43
11 -18 17 -35 28 -39 25 -11 -12 -8 -24 6 -24 8 0 22 -9 32 -20 18 -19 17 -21
-1 -55 -10 -19 -24 -35 -31 -35 -8 0 -21 -13 -31 -29 -16 -26 -19 -28 -37 -15
-60 44 -85 68 -85 83 0 24 37 81 58 88 9 3 42 17 72 31 60 27 133 52 139 46 2
-2 -4 -15 -13 -28z m54 -7 c0 -40 21 -122 33 -130 5 -4 15 -67 23 -140 8 -74
18 -161 23 -194 5 -33 17 -109 26 -170 9 -60 23 -137 32 -170 8 -33 19 -85 24
-115 5 -30 14 -80 19 -110 6 -30 14 -93 20 -140 9 -88 23 -193 41 -315 10 -70
20 -215 38 -550 13 -235 14 -678 1 -802 -5 -54 -15 -186 -21 -293 -19 -333
-21 -355 -29 -363 -4 -5 -24 23 -44 62 -42 83 -44 114 -21 341 18 180 22 916
6 1170 -18 289 -29 420 -46 510 -8 47 -15 104 -15 127 0 23 -4 64 -9 90 -5 26
-15 89 -22 138 -6 50 -18 119 -26 155 -8 36 -19 88 -23 115 -5 28 -18 104 -30
170 -12 66 -27 156 -33 200 -16 111 -15 360 1 408 16 45 32 48 32 6z m-316
-86 c-16 -24 -19 -48 -19 -158 0 -72 8 -184 18 -250 35 -242 45 -302 65 -410
26 -139 47 -281 67 -465 9 -80 20 -165 25 -190 20 -94 35 -501 34 -924 0 -415
-1 -439 -19 -452 -23 -17 -36 -7 -55 41 -7 19 -17 35 -21 35 -4 0 -8 195 -8
433 0 463 -5 576 -45 957 -27 251 -32 292 -67 490 -60 344 -89 561 -90 675 -1
170 9 200 79 232 47 20 56 16 36 -14z m237 -246 c-5 -5 -32 13 -62 42 l-52 51
19 22 c10 12 32 36 49 55 l30 33 12 -97 c7 -55 8 -102 4 -106z m-411 26 c0
-75 4 -162 10 -192 5 -31 19 -103 30 -161 10 -58 26 -152 35 -210 9 -58 20
-132 26 -165 5 -33 12 -85 15 -115 3 -30 10 -64 15 -75 8 -19 31 -234 50 -475
13 -172 30 -877 23 -983 l-7 -98 -81 78 c-44 43 -94 88 -111 100 -36 27 -55
41 -122 93 -29 22 -69 49 -90 61 -21 11 -54 30 -73 41 -84 51 -284 138 -315
138 -21 0 -19 -25 11 -105 14 -38 33 -96 43 -127 9 -31 20 -60 24 -64 4 -4 7
-13 7 -20 0 -13 48 -120 126 -279 85 -174 125 -231 184 -257 31 -13 31 -28 -1
-28 -10 0 -19 -2 -19 -5 0 -9 32 -69 40 -75 3 -3 28 -38 53 -78 26 -40 56 -83
67 -95 11 -11 20 -24 20 -27 0 -4 8 -17 18 -29 9 -12 33 -42 52 -67 19 -25 56
-66 82 -92 30 -28 44 -50 39 -56 -5 -6 -12 -62 -16 -124 -6 -99 -5 -112 8
-106 24 9 40 69 41 150 l1 72 27 -14 c17 -9 25 -20 22 -28 -7 -19 44 -106 61
-106 8 0 26 -12 42 -27 l27 -28 -44 -9 c-60 -11 -200 -54 -214 -65 -13 -10
-147 -59 -191 -70 -16 -5 -61 -23 -100 -41 -113 -53 -120 -54 -147 -15 -22 34
-64 57 -122 70 -16 3 -46 22 -65 41 -20 19 -43 34 -51 34 -9 0 -21 5 -27 11
-12 12 -63 26 -148 41 -37 6 -69 18 -85 32 -14 13 -56 35 -95 51 -38 15 -79
31 -90 36 -11 4 -30 11 -43 14 -35 10 -42 34 -32 110 5 39 9 91 10 116 0 30
11 70 32 115 17 38 35 85 39 104 4 19 13 53 19 75 6 22 14 54 17 70 3 17 9 32
12 35 4 3 15 43 25 90 10 47 22 101 26 120 5 19 14 69 21 110 6 41 15 95 20
120 36 175 49 573 25 766 -20 157 -55 323 -77 366 -5 10 -9 29 -9 42 0 14 -4
27 -9 31 -5 3 -17 27 -27 53 -27 75 -75 172 -85 172 -5 0 -9 6 -9 13 0 6 -11
26 -25 42 -32 39 -24 15 31 -90 23 -44 45 -96 48 -115 4 -19 11 -44 16 -55 14
-36 51 -188 60 -253 5 -35 11 -66 14 -71 22 -35 28 -605 8 -746 -38 -267 -45
-311 -53 -319 -5 -6 -9 -24 -9 -42 0 -17 -4 -44 -9 -60 -5 -16 -14 -56 -21
-89 -7 -33 -16 -71 -20 -85 -5 -14 -16 -52 -26 -85 -9 -33 -20 -64 -24 -68 -4
-4 -12 52 -18 125 -16 194 -46 383 -64 402 -4 6 -8 20 -8 32 0 12 -16 70 -35
128 -19 59 -35 112 -35 117 0 34 -198 420 -219 427 -17 6 -13 -10 9 -38 11
-14 20 -33 20 -42 0 -9 4 -19 9 -23 5 -3 15 -22 22 -43 6 -20 21 -57 33 -82
12 -25 36 -92 54 -150 18 -58 40 -125 49 -150 8 -25 19 -63 24 -85 4 -22 15
-71 24 -110 28 -124 56 -355 67 -545 10 -165 9 -195 -7 -277 -10 -51 -21 -93
-24 -93 -10 0 -71 55 -71 64 0 5 -20 36 -44 70 -126 175 -305 307 -466 345
-134 31 -182 34 -297 21 -69 -8 -117 -10 -122 -4 -10 10 -51 227 -75 394 -30
208 -55 494 -57 655 -2 108 0 114 89 279 18 32 32 63 33 70 0 6 13 31 29 56
16 25 47 81 70 125 23 44 47 87 54 95 7 8 29 45 49 81 20 36 43 72 52 79 8 7
15 19 15 26 0 8 3 14 8 14 4 0 12 9 17 20 6 11 58 84 116 162 134 180 246 294
371 379 31 21 60 44 63 49 4 6 39 27 78 46 40 20 79 43 88 50 18 16 240 114
344 151 39 14 84 33 100 41 17 9 86 36 155 60 366 128 546 190 558 191 9 1 12
-32 12 -136z m229 98 c22 -21 41 -41 41 -44 0 -4 -10 -17 -23 -29 -13 -13 -30
-38 -38 -56 -7 -17 -17 -32 -20 -32 -3 0 -9 21 -13 46 -9 67 -7 154 3 154 5 0
27 -17 50 -39z m129 -117 c35 -34 52 -58 45 -61 -7 -2 -13 -9 -13 -13 0 -5
-12 -30 -27 -55 -31 -51 -55 -57 -78 -21 -15 23 -43 41 -52 33 -2 -2 15 -23
38 -45 l41 -41 -18 -30 c-10 -17 -14 -34 -10 -38 5 -4 11 -3 13 3 2 6 10 20
18 30 15 18 16 18 45 -15 16 -19 33 -32 36 -28 9 8 -23 56 -42 64 -17 6 -18
17 -1 35 6 7 22 31 34 53 12 22 26 41 31 43 11 3 39 -134 46 -226 5 -57 3 -68
-27 -120 -60 -109 -48 -105 -111 -38 -31 32 -59 56 -63 52 -6 -6 36 -56 87
-101 l24 -23 -18 -41 c-11 -22 -23 -41 -28 -41 -4 0 -8 -4 -8 -10 0 -24 31 -7
44 24 21 51 33 51 67 2 18 -25 36 -43 40 -40 10 6 0 34 -12 34 -5 0 -9 6 -9
13 0 7 -11 23 -25 35 -23 20 -25 47 -5 62 4 3 17 26 28 53 34 78 38 72 62
-103 7 -47 16 -93 21 -102 11 -22 -9 -25 -31 -5 -7 6 -4 -1 8 -17 21 -28 18
-55 -8 -71 -6 -3 -10 -13 -10 -22 0 -13 3 -13 15 -3 8 7 15 19 15 26 0 8 6 14
14 14 9 0 16 -18 20 -52 3 -29 11 -92 18 -140 10 -76 10 -90 -4 -105 -19 -23
-30 -53 -19 -53 5 0 11 10 15 22 3 15 9 19 15 13 9 -9 15 -55 38 -302 7 -72 1
-101 -27 -133 -24 -27 -29 -60 -6 -41 8 7 17 23 20 36 4 14 10 25 15 25 16 0
32 -404 16 -429 -5 -10 -4 -16 3 -19 14 -4 18 -332 5 -332 -9 0 -53 62 -53 74
0 4 -13 21 -30 39 -16 18 -30 36 -30 40 0 5 12 24 26 43 15 19 24 38 20 42 -4
4 -17 -5 -28 -21 -25 -34 -45 -35 -60 -2 -6 14 -15 25 -19 25 -4 0 -10 11 -13
25 -3 13 -15 29 -26 35 -26 14 -26 0 0 -28 11 -12 20 -24 20 -29 0 -4 12 -24
27 -45 l26 -39 -20 -27 c-11 -15 -23 -37 -27 -48 -4 -12 -15 -29 -26 -39 -11
-10 -20 -24 -20 -32 0 -11 5 -10 25 3 14 9 25 23 25 30 0 21 43 84 58 84 15 0
52 -58 52 -82 0 -10 6 -18 13 -18 7 0 25 -14 40 -31 34 -39 38 -98 8 -106 -11
-3 -27 -19 -36 -36 -38 -73 -45 -84 -64 -102 -24 -21 -42 -11 -61 35 -7 17
-16 30 -20 30 -13 0 2 -49 21 -66 24 -22 24 -45 -1 -72 -11 -12 -20 -26 -20
-31 0 -5 -10 -27 -22 -47 -15 -26 -18 -36 -7 -32 8 2 26 26 40 54 39 76 70 68
108 -28 12 -31 45 -40 34 -10 -4 9 -9 19 -12 22 -3 3 -19 29 -34 59 -25 47
-27 55 -14 70 8 9 24 34 36 56 21 41 55 85 65 85 18 0 -10 -396 -29 -420 -7
-8 -18 -26 -24 -40 l-12 -25 20 25 21 25 0 -97 c0 -54 -2 -98 -4 -98 -7 0 -56
80 -56 91 0 6 -15 29 -33 52 -19 23 -44 60 -58 82 -13 22 -38 55 -56 75 -27
28 -33 42 -33 80 0 93 13 240 22 240 4 0 8 -6 8 -14 0 -8 7 -16 15 -20 23 -8
18 8 -10 34 l-24 23 0 256 c1 218 3 260 17 284 9 15 22 27 29 27 8 0 16 13 19
30 4 16 13 35 20 41 8 6 14 17 14 23 0 6 4 17 9 25 7 11 14 8 35 -15 14 -16
29 -39 32 -51 3 -12 12 -24 21 -27 20 -8 8 29 -18 55 -10 10 -19 24 -19 30 0
7 -8 18 -17 25 -16 12 -16 15 -3 27 19 15 43 68 35 76 -4 3 -10 -1 -15 -10 -5
-9 -18 -27 -29 -40 l-19 -24 -21 25 c-11 14 -20 30 -21 36 0 16 -29 38 -37 30
-4 -4 -3 -10 3 -14 6 -4 19 -22 28 -39 9 -18 21 -33 26 -33 6 0 10 -6 10 -14
0 -17 -53 -118 -79 -152 l-19 -24 -6 43 c-8 61 -11 266 -3 273 3 4 1 16 -4 27
-6 11 -9 40 -6 63 2 24 1 44 -3 44 -4 0 -10 35 -13 78 -4 42 -9 111 -13 152
-7 72 -7 74 11 60 17 -13 18 -13 10 0 -5 8 -17 21 -27 28 -12 9 -18 26 -18 56
0 23 -4 67 -9 97 -15 90 -20 139 -12 139 4 0 16 -9 27 -21 10 -11 38 -39 62
-61 23 -23 39 -44 34 -47 -5 -3 -16 -22 -26 -41 l-17 -34 29 27 c15 15 32 27
37 27 5 0 24 -14 42 -32 43 -42 42 -24 -2 27 -31 35 -33 41 -20 55 8 9 15 23
15 31 -1 9 -7 7 -19 -8 -11 -13 -22 -23 -25 -23 -4 0 -37 29 -74 65 -61 60
-66 67 -54 86 8 12 10 24 6 27 -4 4 -9 1 -11 -5 -10 -28 -20 -10 -31 60 -7 39
-19 112 -27 162 l-15 90 25 21 c14 12 25 29 25 38 0 23 -19 10 -30 -20 -14
-36 -27 -29 -33 19 -3 23 -11 76 -17 117 -12 90 -6 128 26 165 13 15 24 32 24
36 0 11 30 39 41 39 5 0 36 -25 67 -56z m2651 -345 c53 -28 103 -57 111 -64 8
-7 38 -28 65 -47 28 -18 61 -42 75 -53 48 -39 189 -187 195 -206 4 -10 10 -19
14 -19 9 0 110 -151 157 -235 16 -27 42 -70 60 -95 17 -25 55 -88 84 -140 29
-52 64 -112 77 -132 12 -21 23 -40 23 -44 0 -3 8 -18 19 -32 10 -15 34 -56 53
-92 20 -36 52 -96 73 -135 21 -38 41 -74 45 -80 9 -12 97 -179 157 -295 24
-47 47 -92 52 -100 5 -8 28 -52 50 -98 46 -93 83 -151 145 -222 94 -109 126
-170 158 -300 20 -81 50 -141 107 -220 14 -19 28 -37 31 -40 14 -14 90 -166
108 -215 22 -61 44 -203 49 -327 3 -71 3 -128 -1 -128 -4 0 -45 10 -93 22 -77
19 -91 20 -137 8 -28 -7 -71 -24 -96 -38 -25 -14 -54 -30 -64 -36 -11 -6 -29
-20 -41 -31 -12 -11 -41 -37 -66 -57 -24 -20 -55 -55 -69 -78 -14 -22 -28 -40
-32 -40 -4 0 -16 17 -27 38 -19 36 -108 133 -183 199 -19 17 -67 48 -104 69
-38 20 -83 45 -99 55 -30 18 -59 26 -185 54 -78 18 -220 19 -304 4 -73 -14
-189 -48 -196 -58 -3 -4 -21 -14 -40 -23 -19 -9 -46 -27 -59 -39 l-23 -22 7
24 c4 13 11 26 14 29 4 3 13 19 19 35 26 64 174 190 254 217 18 6 38 14 43 18
13 10 120 36 229 56 183 34 371 -6 596 -127 25 -13 51 -30 58 -36 7 -7 17 -13
21 -13 4 0 25 -16 46 -36 22 -20 53 -45 68 -56 27 -20 29 -20 19 -2 -6 10 -19
26 -29 35 -10 9 -33 33 -51 53 -19 20 -38 36 -43 36 -6 0 -22 12 -37 26 -38
36 -169 103 -267 135 -71 24 -239 38 -335 28 -148 -15 -197 -28 -307 -80 -57
-26 -103 -45 -103 -42 0 11 73 97 119 142 83 79 195 164 251 188 30 14 78 36
106 49 108 53 297 86 434 77 58 -4 82 -2 75 5 -11 12 -180 42 -234 42 -49 0
-186 -27 -225 -44 -17 -8 -41 -17 -54 -21 -75 -21 -245 -119 -310 -177 -60
-54 -147 -142 -162 -164 -30 -41 -71 -86 -76 -82 -4 5 35 109 46 118 3 3 21
36 40 74 19 38 52 91 73 117 20 27 37 52 37 56 0 7 111 121 179 184 15 15 48
40 72 55 24 16 51 35 58 43 17 16 155 81 174 81 6 1 23 7 37 15 l25 14 -27 1
c-35 0 -211 -63 -248 -90 -15 -11 -33 -20 -39 -20 -6 0 -11 -4 -11 -10 0 -5
-5 -10 -10 -10 -15 0 -109 -71 -142 -106 -15 -16 -33 -34 -40 -40 -23 -20 -98
-104 -98 -111 0 -3 -16 -28 -35 -54 -19 -27 -35 -52 -35 -55 0 -3 -13 -25 -30
-49 -16 -24 -30 -50 -30 -59 0 -8 -4 -18 -10 -21 -5 -3 -10 -15 -10 -26 0 -54
-32 5 -70 131 -12 41 -27 88 -33 104 -10 27 -8 47 23 206 5 25 16 90 25 145 9
55 23 134 31 175 9 41 22 111 29 155 8 44 19 107 25 140 16 93 62 402 71 480
18 158 33 541 22 586 l-11 44 -1 -56 c-1 -72 -30 -359 -37 -370 -3 -5 -11 -57
-19 -116 -8 -60 -19 -137 -24 -173 -23 -158 -32 -219 -37 -270 -3 -30 -9 -64
-14 -75 -4 -11 -16 -72 -25 -135 -9 -63 -23 -142 -30 -175 -7 -33 -18 -94 -25
-135 -6 -41 -18 -100 -26 -131 -8 -31 -23 -110 -34 -175 -11 -66 -25 -141 -31
-169 -27 -124 -50 -224 -60 -265 -6 -25 -22 -92 -34 -150 -13 -58 -30 -132
-39 -165 -8 -33 -25 -104 -38 -159 l-22 -98 -94 -70 c-51 -38 -96 -68 -98 -65
-6 5 12 127 31 217 19 91 47 276 65 430 44 377 54 482 81 825 17 219 22 856 9
1075 -13 201 -66 720 -80 785 -5 22 -10 66 -10 97 0 57 1 58 43 85 64 42 106
93 126 156 7 20 15 37 18 37 4 0 49 -23 102 -51z m-335 -341 c10 -50 17 -96
25 -169 5 -42 11 -89 15 -105 3 -16 14 -128 23 -249 21 -264 24 -1045 5 -1325
-29 -413 -44 -581 -61 -680 -6 -30 -14 -89 -20 -130 -5 -41 -17 -129 -26 -195
-25 -193 -34 -252 -62 -395 l-26 -135 -53 -53 c-64 -63 -63 -65 -30 113 42
225 54 295 76 465 11 91 27 199 35 240 8 41 19 125 25 185 5 61 15 151 20 200
35 329 55 1028 40 1395 -13 310 -37 595 -61 734 l-11 59 34 32 c41 40 46 41
52 13z m-95 -160 c6 -62 14 -123 17 -135 3 -16 0 -23 -11 -23 -8 0 -15 4 -15
9 0 5 -16 26 -35 47 -35 39 -44 67 -25 79 6 3 10 13 10 22 0 13 -5 12 -25 -7
-14 -13 -25 -18 -25 -11 0 6 6 14 14 17 8 3 22 24 31 47 18 45 33 67 45 67 4
0 13 -51 19 -112z m-1579 -208 c4 0 25 -13 46 -30 22 -16 44 -33 49 -37 32
-25 208 -102 255 -113 30 -6 62 -14 71 -16 18 -5 49 -65 49 -95 0 -19 42 -119
75 -179 22 -40 49 -37 64 7 7 21 16 47 21 58 4 11 16 43 25 70 9 28 28 73 41
100 21 45 28 52 71 64 26 8 62 23 78 33 17 10 41 23 55 30 14 7 54 41 90 75
36 35 69 63 75 63 5 0 34 12 63 27 76 38 85 30 93 -83 28 -395 31 -505 26
-984 -3 -278 -10 -541 -16 -585 -6 -44 -15 -150 -21 -236 -9 -152 -26 -294
-55 -474 -8 -49 -22 -144 -31 -210 -30 -229 -33 -250 -43 -280 -6 -16 -18 -79
-26 -140 -9 -60 -20 -135 -25 -165 -11 -72 -31 -150 -39 -151 -3 0 -53 -4
-111 -9 -58 -5 -143 -14 -190 -19 -47 -6 -140 -15 -207 -21 -67 -5 -128 -11
-134 -12 -23 -5 -40 99 -29 180 17 128 13 187 -15 231 -14 21 -36 43 -48 49
-12 6 -78 36 -147 68 -183 85 -185 86 -188 120 -2 16 -8 34 -13 40 -8 10 -30
93 -46 175 -3 14 -26 70 -52 124 l-47 97 8 82 c5 44 15 144 24 221 40 366 50
1228 19 1516 -9 79 -18 176 -21 214 -3 39 -12 126 -20 195 -8 69 -18 152 -21
185 l-6 60 123 -122 c67 -68 126 -123 130 -123z m1460 165 c0 -15 -4 -24 -34
-82 -15 -29 -15 -33 -2 -33 9 0 16 6 16 13 0 26 26 67 42 67 10 0 26 -12 35
-27 10 -16 30 -39 46 -51 15 -13 27 -29 27 -36 0 -11 -64 -141 -76 -155 -4 -5
-24 17 -59 64 -17 22 -36 45 -44 51 -8 6 -15 20 -16 30 -1 10 -5 46 -10 78 -7
55 -6 60 16 77 29 23 59 24 59 4z m-85 -312 c9 -125 19 -231 22 -236 9 -14 3
-854 -7 -1022 -15 -234 -28 -412 -39 -515 -30 -278 -61 -533 -69 -567 -6 -21
-15 -83 -22 -138 -6 -55 -18 -131 -25 -170 -14 -72 -31 -167 -39 -220 -12 -71
-42 -201 -49 -212 -5 -7 -26 -13 -48 -13 l-40 0 6 48 c4 26 10 58 15 72 4 14
15 68 24 120 9 52 23 136 32 185 15 90 45 292 64 435 6 41 15 109 22 150 20
139 35 308 79 920 21 293 -5 1235 -37 1348 -7 26 11 52 36 52 10 0 23 7 31 16
12 14 14 14 21 -5 4 -12 15 -123 23 -248z m243 23 c19 -148 16 -258 -7 -287
-10 -13 -28 -45 -40 -71 -25 -57 -40 -67 -57 -42 -22 31 -36 46 -40 41 -6 -6
18 -57 27 -57 19 0 16 -36 -8 -78 -14 -26 -31 -57 -37 -69 -14 -29 -26 -29
-27 0 -4 118 -3 257 2 257 3 0 11 -10 17 -22 8 -18 11 -19 11 -6 1 10 -7 25
-18 35 -15 15 -20 44 -30 164 -6 81 -11 161 -11 178 l0 32 25 -18 c13 -10 25
-24 25 -31 0 -7 12 -23 27 -36 l27 -23 -38 -73 c-23 -42 -33 -71 -25 -68 8 2
25 28 38 56 14 29 28 52 32 52 5 0 16 -12 26 -26 38 -54 62 -79 69 -71 4 4 -2
17 -13 30 -11 12 -28 37 -39 55 -10 17 -22 32 -26 32 -4 0 9 32 29 70 20 39
40 70 43 70 4 0 12 -42 18 -94z m18 -763 c-2 -202 -3 -402 -4 -443 0 -41 -6
-133 -13 -203 -11 -116 -15 -132 -38 -156 -14 -15 -38 -49 -53 -74 -29 -50
-42 -57 -52 -29 -12 33 -38 73 -43 68 -3 -3 6 -28 21 -56 l27 -51 -27 -35
c-32 -41 -27 -55 6 -19 13 14 27 25 32 25 5 0 17 -20 28 -44 18 -43 40 -68 40
-46 0 6 -11 32 -25 59 -20 38 -24 53 -16 74 5 14 14 28 20 31 5 3 19 26 31 51
31 64 44 58 37 -17 -4 -35 -11 -112 -17 -173 -8 -84 -15 -116 -30 -135 -11
-14 -37 -49 -57 -77 -20 -29 -42 -53 -49 -53 -13 0 -36 33 -40 58 -3 18 -12
27 -20 20 -3 -4 4 -25 15 -49 12 -23 21 -49 21 -56 0 -15 -40 -76 -53 -82 -5
-2 -12 -14 -17 -27 -29 -75 -34 35 -9 171 5 28 11 92 14 144 3 52 8 98 11 103
5 8 16 108 28 273 6 70 14 275 15 368 1 69 4 81 26 103 14 14 25 30 25 35 0 6
14 31 31 56 23 32 34 42 42 34 20 -20 26 -12 15 19 -8 24 -7 35 4 48 8 9 20
32 28 50 7 17 16 32 21 32 5 0 9 7 9 16 0 27 -30 -4 -52 -53 -22 -49 -32 -52
-59 -20 -14 17 -18 19 -19 6 0 -9 7 -22 15 -29 8 -7 15 -19 15 -27 0 -21 -82
-153 -92 -147 -4 3 -6 9 -3 14 3 4 5 94 6 200 1 183 2 193 22 213 12 12 21 28
19 34 -2 7 1 13 6 13 6 0 17 16 26 35 21 44 40 44 61 3 20 -43 43 -73 50 -66
3 3 -11 32 -30 64 -37 60 -39 90 -11 124 6 8 21 32 31 53 l20 38 7 -50 c4 -28
6 -216 4 -418z m-3056 -127 c8 -6 49 -29 90 -50 149 -76 291 -185 451 -346
128 -128 155 -166 181 -263 6 -25 20 -56 30 -69 17 -23 18 -23 18 36 l0 59 32
-44 c17 -24 34 -46 37 -49 24 -20 84 -126 97 -171 17 -59 34 -85 34 -54 0 19
3 16 58 -70 42 -68 112 -228 112 -259 0 -29 4 -36 19 -36 18 0 51 -61 51 -94
0 -8 4 -16 9 -18 7 -2 32 -97 70 -270 5 -21 22 -65 39 -98 16 -33 27 -60 23
-60 -4 0 -28 19 -53 43 -33 29 -63 74 -102 149 -30 59 -66 124 -80 145 -14 21
-26 42 -26 48 1 5 8 -2 16 -17 8 -16 18 -28 22 -28 4 0 16 -17 27 -37 16 -31
73 -113 92 -133 2 -2 -1 9 -7 25 -6 16 -14 32 -18 35 -7 5 -13 16 -60 99 -14
25 -37 64 -52 86 -14 22 -34 57 -43 77 -10 21 -23 41 -31 45 -7 4 -27 33 -45
63 -30 51 -130 202 -149 225 -4 6 -28 37 -52 70 -24 33 -46 62 -50 65 -5 5
-20 25 -60 85 -18 26 -78 99 -140 170 -25 29 -63 74 -85 100 -67 80 -178 205
-182 205 -8 0 33 -62 62 -94 16 -17 46 -54 65 -82 19 -27 38 -50 42 -52 4 -2
8 -9 8 -16 0 -6 8 -18 18 -27 9 -8 26 -28 37 -43 11 -16 29 -40 41 -55 11 -14
52 -74 91 -133 39 -58 91 -135 115 -170 24 -35 50 -76 58 -93 8 -16 18 -32 21
-35 6 -6 145 -217 177 -270 11 -19 42 -71 67 -115 26 -44 55 -93 65 -110 10
-16 21 -41 25 -54 l7 -24 -28 22 c-16 12 -59 42 -96 66 -36 24 -75 51 -85 59
-16 13 -92 72 -170 133 -15 12 -39 32 -53 45 l-25 23 48 3 c55 4 60 14 15 33
-17 7 -53 28 -79 46 -27 18 -54 33 -60 33 -22 0 -159 152 -159 176 0 14 -10
30 -25 40 -24 16 -59 59 -139 172 l-39 54 39 -6 c95 -16 157 -19 150 -7 -4 6
-15 11 -25 11 -10 0 -26 9 -36 20 -10 11 -23 20 -29 20 -13 0 -186 113 -186
121 0 4 -17 36 -38 70 -72 120 -191 379 -232 504 -12 39 -26 80 -31 92 -4 11
-5 23 -3 26 6 6 91 -29 114 -47z m-1415 -846 c40 -11 48 -14 115 -43 19 -9 48
-20 63 -26 46 -18 144 -89 205 -149 59 -58 107 -120 100 -127 -2 -3 -21 5 -42
16 -35 19 -93 41 -176 67 -118 37 -338 38 -464 2 l-64 -18 -32 131 c-18 73
-34 141 -37 151 -5 18 1 19 143 13 82 -3 167 -10 189 -17z m4399 -292 c-5 -76
-23 -186 -33 -203 -3 -5 -7 -23 -8 -40 -7 -99 -14 -166 -23 -208 -6 -26 -10
-65 -10 -87 0 -21 -4 -42 -10 -45 -5 -3 -10 -21 -10 -39 0 -24 -6 -36 -24 -46
-13 -7 -32 -26 -41 -44 -9 -17 -28 -39 -42 -49 -24 -18 -25 -18 -38 0 -8 10
-15 24 -15 31 0 15 -20 16 -20 1 0 -6 9 -24 21 -40 21 -29 21 -30 2 -47 -10
-9 -35 -38 -56 -63 -28 -35 -34 -48 -25 -57 17 -17 27 -15 21 6 -2 11 11 33
37 61 46 48 60 46 80 -15 6 -19 18 -34 26 -34 10 0 6 15 -17 55 -32 57 -31 67
8 98 13 10 30 32 38 48 27 51 32 32 18 -68 -8 -54 -16 -120 -19 -148 -3 -27
-14 -69 -25 -92 -18 -40 -22 -43 -58 -43 -21 0 -66 -3 -101 -7 -63 -6 -63 -6
-56 18 3 13 13 62 21 109 9 47 23 126 32 175 9 50 17 99 18 110 1 11 5 38 9
60 4 22 14 81 22 130 8 50 20 109 25 133 5 23 9 58 9 77 0 29 6 39 35 57 20
13 38 34 42 48 9 39 39 63 62 50 30 -15 36 -12 17 9 -16 18 -15 21 16 67 17
27 35 51 38 54 4 3 12 15 19 28 6 12 14 22 16 22 2 0 2 -33 -1 -72z m-4248 -9
c32 -6 68 -14 79 -19 11 -4 57 -20 103 -35 46 -14 105 -38 130 -52 26 -14 72
-39 102 -55 81 -43 82 -48 13 -48 -58 0 -203 -32 -291 -64 -84 -31 -207 -100
-244 -138 -10 -9 -38 -31 -63 -48 -25 -17 -45 -35 -45 -39 0 -5 -6 -11 -14
-14 -11 -5 -31 43 -84 206 -90 274 -87 264 -60 272 13 3 32 10 43 15 64 29
228 38 331 19z m2244 -131 c0 -13 0 -14 -29 32 l-23 35 26 -28 c14 -15 26 -33
26 -39z m40 -60 c0 -6 -7 -5 -15 2 -8 7 -15 17 -15 22 0 6 7 5 15 -2 8 -7 15
-17 15 -22z m20 -28 c0 -5 -2 -10 -4 -10 -3 0 -8 5 -11 10 -3 6 -1 10 4 10 6
0 11 -4 11 -10z m-1720 -49 c97 -25 137 -40 177 -65 41 -26 42 -36 3 -36 -33
0 -129 -34 -175 -61 -16 -10 -46 -26 -65 -35 -19 -10 -47 -30 -63 -46 -15 -15
-33 -28 -41 -28 -20 0 -185 -163 -258 -255 -34 -44 -88 -122 -118 -173 l-55
-94 -43 94 c-69 148 -162 375 -162 396 0 10 16 32 36 48 20 16 41 34 48 40 86
80 317 193 436 213 41 7 80 15 85 16 30 10 130 2 195 -14z m4904 -90 c85 -31
166 -67 176 -80 3 -3 18 -14 35 -23 45 -25 149 -118 176 -158 13 -19 36 -48
51 -66 43 -49 49 -74 28 -120 -11 -21 -25 -58 -32 -81 -7 -24 -15 -43 -18 -43
-3 0 -18 24 -34 53 -16 28 -47 75 -68 103 -21 28 -38 53 -38 56 0 13 -100 109
-161 155 -79 59 -112 78 -175 98 -27 9 -58 20 -69 25 -30 15 -174 40 -225 40
-25 0 -79 -6 -120 -14 -73 -13 -97 -21 -208 -72 -29 -13 -57 -24 -62 -24 -15
0 82 86 117 104 48 24 158 61 238 80 11 3 83 3 160 2 127 -3 148 -7 229 -35z
m-4469 -72 l80 -33 -40 -8 c-111 -21 -156 -35 -220 -69 -106 -56 -135 -73
-135 -81 0 -5 -7 -8 -15 -8 -8 0 -15 -3 -15 -7 0 -5 -15 -18 -34 -31 -36 -25
-166 -150 -166 -160 0 -4 -19 -27 -41 -52 -22 -25 -52 -65 -66 -90 -15 -25
-34 -54 -44 -65 -23 -26 -126 -231 -149 -296 l-17 -51 -46 84 c-24 45 -57 107
-72 136 l-26 54 23 36 c13 21 30 51 38 67 56 114 298 405 353 424 7 2 32 20
57 41 73 60 218 125 320 144 57 10 138 -3 215 -35z m1067 14 c63 -25 198 -103
198 -114 0 -5 5 -9 10 -9 14 0 106 -63 147 -101 18 -16 35 -29 39 -29 23 0
231 -203 266 -260 30 -49 40 -64 79 -125 15 -22 29 -50 33 -62 4 -13 13 -29
20 -36 8 -7 30 -48 49 -90 31 -68 33 -76 15 -66 -23 13 -20 5 19 -47 51 -68
18 -154 -60 -154 -36 0 -47 6 -92 53 -29 29 -60 69 -69 88 -9 19 -36 59 -61
89 -25 30 -45 58 -45 63 0 4 -11 20 -24 35 -54 60 -66 75 -66 83 0 20 -392
303 -411 297 -6 -2 37 -46 96 -98 60 -52 119 -105 132 -117 13 -13 26 -23 28
-23 15 0 148 -130 178 -175 12 -17 45 -64 72 -105 110 -160 125 -189 125 -239
-1 -67 -34 -101 -101 -101 -27 0 -50 18 -173 143 -77 79 -154 160 -171 180
-16 20 -34 37 -40 37 -5 0 -32 23 -60 51 -57 57 -92 79 -130 79 -15 0 -35 5
-46 10 -11 6 -19 7 -19 1 0 -5 -17 -16 -39 -24 -86 -35 -150 -129 -151 -223 0
-82 26 -119 125 -174 19 -11 42 -20 50 -20 7 0 20 -6 27 -13 18 -17 65 -37 87
-37 9 0 27 -9 39 -20 12 -11 25 -20 30 -20 14 0 44 -37 35 -43 -20 -12 -129
-28 -200 -30 -75 -2 -170 17 -288 59 -23 8 -79 14 -125 14 -124 0 -298 43
-350 85 -8 7 -29 20 -47 29 -27 14 -135 92 -184 134 -10 9 -45 16 -86 18 -37
2 -104 10 -148 18 -44 8 -118 20 -165 26 -47 6 -91 13 -97 15 -12 4 24 96 68
178 8 13 24 43 37 66 42 77 151 223 215 289 64 66 136 132 145 132 2 0 16 8
30 18 53 36 113 51 180 45 34 -3 62 -10 62 -14 0 -20 115 6 165 37 11 6 67 28
125 48 58 19 123 44 146 55 22 11 85 34 140 52 54 18 110 38 124 46 33 17 61
16 112 -4z m3162 -58 c95 -15 181 -45 231 -79 16 -12 45 -29 64 -39 55 -30
138 -107 177 -163 36 -52 36 -52 19 -85 -16 -31 -18 -32 -31 -14 -7 10 -11 21
-9 26 3 4 1 10 -4 13 -15 10 -23 -69 -12 -111 32 -113 -5 -271 -78 -342 -23
-22 -41 -42 -41 -46 0 -4 -9 -19 -20 -35 -11 -15 -38 -63 -61 -106 -49 -92
-136 -225 -156 -237 -7 -4 -13 -14 -13 -21 0 -19 -61 -46 -103 -46 -41 0 -87
33 -87 61 0 11 25 72 55 134 30 63 55 119 55 125 0 5 5 10 10 10 6 0 10 7 10
15 0 8 4 23 10 33 5 9 16 35 24 57 25 73 41 110 48 115 12 10 50 101 44 107
-7 7 -56 -44 -56 -58 0 -5 -3 -9 -7 -9 -5 0 -13 -10 -19 -23 -5 -12 -31 -62
-57 -110 -26 -49 -47 -95 -47 -101 0 -7 -12 -35 -27 -62 -14 -27 -50 -96 -79
-153 -77 -151 -121 -191 -209 -191 -35 0 -52 6 -70 25 -14 13 -25 29 -25 35 0
13 42 135 63 181 8 19 29 72 47 119 42 109 143 346 164 385 9 17 16 37 16 45
0 24 -44 -28 -80 -95 -18 -33 -38 -67 -45 -75 -7 -8 -40 -85 -74 -170 -34 -85
-66 -164 -71 -175 -5 -11 -16 -42 -25 -69 -30 -92 -76 -175 -106 -191 -69 -36
-80 -39 -99 -27 -11 7 -26 12 -34 12 -21 0 -56 53 -56 85 0 27 17 88 52 185
32 90 66 192 79 240 7 25 32 86 55 135 23 50 48 108 55 130 7 22 19 49 26 60
17 25 17 46 1 40 -14 -6 -42 -48 -71 -110 -11 -22 -22 -42 -26 -45 -26 -21
-123 -277 -172 -455 -25 -89 -62 -176 -82 -190 -49 -34 -137 -7 -157 48 -11
34 -5 120 15 187 7 25 23 83 35 130 47 186 50 195 100 305 23 52 71 183 78
215 5 22 4 24 -12 11 -16 -13 -96 -172 -96 -190 0 -5 -3 -11 -7 -13 -22 -9
-83 -160 -83 -204 0 -28 -73 -106 -141 -152 -96 -64 -231 -65 -264 -1 -22 41
-13 61 48 111 68 57 103 96 185 207 87 118 163 187 392 357 77 58 237 153 257
154 7 0 52 19 100 42 59 28 114 45 168 54 107 16 126 16 229 -1z m1318 -28
c37 -13 71 -26 75 -30 3 -4 15 -7 25 -7 10 0 18 -4 18 -9 0 -5 12 -12 28 -16
15 -3 61 -22 102 -41 41 -20 98 -46 125 -59 119 -56 186 -85 195 -85 6 0 10
-4 10 -10 0 -5 8 -10 18 -10 9 0 44 -13 77 -29 33 -16 94 -43 135 -61 41 -18
104 -45 140 -62 75 -34 122 -56 200 -91 170 -77 219 -100 253 -117 22 -11 46
-20 54 -20 8 0 36 -11 62 -24 25 -13 73 -34 106 -47 79 -29 192 -78 310 -135
28 -13 55 -24 62 -24 6 0 13 -3 15 -7 2 -5 23 -16 48 -25 59 -22 169 -68 250
-105 36 -16 86 -38 112 -49 27 -10 48 -22 48 -26 0 -5 7 -8 17 -8 9 0 91 -36
182 -81 91 -44 175 -84 186 -89 11 -4 46 -20 78 -34 32 -14 61 -26 65 -26 4 0
34 -13 67 -29 55 -26 96 -45 195 -88 81 -36 189 -86 246 -113 34 -17 66 -30
71 -30 6 0 30 -11 54 -24 24 -13 65 -32 92 -41 26 -10 46 -20 43 -22 -2 -2
-53 -15 -113 -27 -113 -24 -212 -64 -291 -118 -67 -46 -66 -45 -151 -129 -87
-86 -131 -155 -168 -261 -23 -66 -24 -84 -20 -185 l5 -113 -26 -19 -27 -19
-95 50 c-52 28 -171 89 -265 136 -523 260 -1108 555 -1115 562 -10 10 -156 80
-167 80 -6 0 -13 4 -15 9 -1 5 -39 26 -83 48 -44 22 -172 87 -285 145 -113 59
-288 148 -390 200 -102 51 -187 95 -190 98 -3 3 -39 22 -80 42 -41 21 -122 62
-180 93 -57 30 -110 55 -116 55 -7 0 -14 3 -16 8 -1 4 -32 22 -68 40 -141 72
-293 154 -300 163 -3 4 -38 23 -79 43 -101 49 -111 59 -111 115 0 86 23 200
57 278 7 17 13 36 13 42 0 17 78 149 107 181 50 55 100 100 122 112 14 7 28
16 31 19 11 13 117 47 150 48 19 0 65 -10 102 -22z m-5364 -32 c35 -8 74 -22
85 -31 l22 -16 -22 6 c-66 20 -194 1 -244 -35 -15 -10 -30 -19 -33 -19 -13 0
-110 -75 -159 -124 -28 -28 -73 -78 -99 -111 -26 -33 -52 -65 -56 -70 -10 -12
-85 -124 -93 -139 -9 -17 -28 -54 -51 -99 -12 -23 -27 -49 -33 -57 -7 -8 -25
-49 -40 -90 -15 -41 -31 -83 -36 -92 -5 -10 -9 -24 -9 -31 0 -8 -21 -25 -47
-38 -27 -13 -66 -34 -87 -47 -45 -28 -47 -26 -87 50 -20 40 -21 37 21 133 57
132 75 172 85 185 7 8 28 44 48 80 19 36 44 75 54 87 36 42 48 58 65 84 17 27
143 157 194 200 50 43 192 131 237 147 51 18 151 40 192 41 17 0 59 -6 93 -14z
m10043 -143 c-144 -361 -332 -720 -559 -1067 -107 -164 -261 -375 -273 -375
-5 0 -32 11 -59 25 -27 14 -77 35 -112 49 -62 23 -103 41 -226 97 -35 16 -69
29 -77 29 -8 0 -15 5 -15 10 0 6 -5 10 -10 10 -6 0 -48 16 -93 36 -45 20 -98
43 -117 52 -19 8 -67 30 -107 48 -39 19 -77 34 -85 34 -8 0 -18 4 -24 8 -5 4
-45 23 -89 41 -44 18 -89 37 -100 41 -11 5 -31 12 -45 16 -14 4 -37 15 -52 25
-14 11 -31 19 -37 19 -6 0 -19 4 -29 9 -20 11 -112 53 -159 72 -18 8 -33 17
-33 21 0 5 -7 8 -16 8 -8 0 -41 12 -72 26 -31 14 -70 32 -87 39 -36 16 -94 42
-199 89 -43 20 -85 36 -92 36 -8 0 -14 5 -14 10 0 6 -6 10 -12 10 -11 0 -110
43 -323 140 -33 15 -78 35 -100 45 -22 9 -48 21 -57 26 -10 5 -24 9 -32 9 -8
0 -16 3 -18 8 -1 4 -46 29 -98 55 -52 27 -99 52 -103 56 -10 10 54 20 208 31
126 10 201 16 560 50 121 12 266 25 323 30 57 5 111 11 120 14 9 3 85 10 167
16 83 6 182 15 220 20 39 6 126 14 195 19 69 6 204 19 301 30 97 11 227 25
290 30 108 10 199 19 419 41 234 24 405 40 525 51 72 6 153 14 180 18 28 4 51
4 53 0 2 -4 -15 -52 -37 -107z m-8541 33 c34 -19 65 -35 69 -35 17 0 149 -71
165 -89 17 -18 18 -34 13 -158 -2 -76 0 -159 5 -186 16 -76 4 -77 -36 -2 -20
39 -44 82 -54 97 -9 14 -30 48 -46 75 -16 26 -51 76 -78 110 -26 35 -55 78
-63 98 -8 19 -22 51 -30 70 -15 35 -19 55 -11 55 2 0 32 -16 66 -35z m1237
-548 c-30 -29 -70 -64 -89 -79 -47 -36 -56 -87 -27 -152 11 -26 27 -49 35 -52
8 -2 22 -7 32 -10 9 -4 -50 -17 -133 -30 -82 -13 -179 -28 -215 -33 -36 -6
-105 -16 -155 -21 -83 -10 -195 -30 -203 -36 -2 -1 2 -19 9 -39 13 -35 16 -37
49 -31 19 3 100 15 180 26 167 23 333 48 405 60 80 14 159 24 169 21 5 -1 30
2 55 8 25 5 66 12 91 16 l46 6 -4 -71 c-6 -92 14 -139 70 -169 43 -22 109 -28
152 -11 23 8 29 6 48 -21 59 -80 185 -91 259 -23 29 28 44 30 53 9 11 -29 75
-48 136 -41 62 8 89 22 143 79 l39 40 21 -25 c28 -31 88 -52 131 -44 54 10
121 60 162 121 54 79 82 124 102 165 9 19 27 49 40 67 12 17 22 38 22 47 0 9
5 16 10 16 6 0 10 6 10 14 0 28 60 67 99 65 20 -1 49 3 64 10 16 6 43 11 60
11 18 0 53 7 78 14 38 12 50 12 65 2 32 -21 228 -125 339 -178 11 -5 47 -25
80 -43 33 -19 85 -46 115 -61 30 -16 57 -31 60 -35 3 -3 20 -10 37 -14 18 -3
35 -10 38 -15 6 -9 53 -34 280 -149 72 -36 132 -68 135 -71 3 -3 64 -34 135
-70 72 -35 142 -72 157 -82 14 -10 33 -18 41 -18 9 0 17 -3 19 -7 2 -5 50 -32
108 -62 176 -90 324 -167 345 -179 11 -6 34 -17 50 -25 17 -8 100 -50 186 -94
85 -44 164 -85 175 -90 10 -6 30 -15 43 -22 142 -75 258 -135 426 -221 452
-233 503 -259 560 -290 33 -18 84 -45 114 -61 29 -15 58 -32 63 -37 23 -23
-560 -442 -825 -592 -54 -30 -142 -55 -507 -140 -19 -5 -53 -14 -75 -19 -22
-6 -62 -16 -90 -22 -27 -6 -68 -15 -90 -21 -22 -5 -58 -13 -80 -17 -22 -5 -96
-23 -165 -40 -69 -17 -152 -38 -185 -45 -97 -23 -357 -86 -395 -95 -19 -5 -60
-14 -90 -21 -30 -6 -71 -15 -90 -20 -39 -11 -285 -69 -400 -94 -41 -10 -136
-32 -210 -51 -74 -18 -162 -38 -195 -45 -33 -6 -71 -15 -85 -19 -14 -5 -52
-14 -85 -21 -33 -7 -78 -19 -100 -27 -37 -13 -32 -13 80 -10 66 2 131 9 145
14 14 6 50 16 80 22 86 19 222 51 255 60 17 5 82 21 145 36 63 15 138 33 165
41 45 11 176 43 435 105 47 11 101 24 120 29 19 5 96 23 170 41 139 32 167 39
235 57 80 21 300 75 320 78 19 2 191 43 362 85 45 12 88 19 94 17 14 -5 -227
-125 -411 -205 -603 -264 -1308 -439 -1955 -487 -38 -3 -108 -9 -155 -12 -110
-8 -580 -8 -690 0 -232 17 -307 25 -505 51 -349 47 -729 135 -1087 251 -43 14
-78 30 -78 35 0 12 97 110 136 137 100 69 248 126 365 142 182 25 388 -45 474
-162 46 -61 47 -245 2 -316 -11 -17 11 -24 64 -20 42 3 44 4 61 53 31 88 20
182 -35 293 -31 63 -66 101 -142 157 -22 17 -41 33 -43 38 -2 4 -8 7 -13 7 -5
0 -75 44 -156 97 -82 53 -241 158 -355 232 -219 144 -380 249 -406 266 -9 6
-21 14 -26 18 -6 4 -74 49 -151 99 -77 51 -141 96 -143 100 -2 4 -8 8 -12 8
-9 0 -72 39 -95 58 -6 5 -15 11 -21 13 -13 5 -308 202 -314 210 -3 3 -9 8 -15
10 -5 2 -91 58 -190 124 -99 66 -184 122 -190 124 -5 2 -14 8 -20 13 -5 5
-109 74 -230 153 -121 79 -224 148 -230 152 -5 4 -48 32 -95 62 -178 114 -269
176 -270 184 0 4 14 7 31 7 18 0 86 9 153 20 286 46 384 60 417 60 19 0 68 7
109 16 41 9 138 24 215 34 170 23 412 58 443 65 l22 5 -26 39 c-23 36 -24 42
-13 80 10 35 14 39 31 30 10 -6 23 -20 27 -33 5 -12 16 -28 24 -35 9 -7 23
-35 32 -62 10 -29 27 -56 41 -65 36 -24 184 -176 179 -184 -2 -4 -30 -10 -62
-13 -32 -4 -89 -11 -128 -17 -38 -5 -104 -14 -145 -20 -41 -5 -106 -15 -145
-20 -38 -6 -104 -15 -145 -21 -142 -18 -175 -29 -75 -23 50 3 115 9 145 14 30
5 100 14 155 20 220 24 283 31 350 41 39 6 76 13 83 15 13 4 17 60 4 68 -5 3
-23 52 -41 108 -18 57 -36 112 -41 123 -4 11 -11 27 -14 35 -3 8 -16 31 -28
50 -18 29 -22 52 -23 130 -1 60 -8 113 -19 144 -16 48 -14 100 4 111 5 3 53
10 107 15 261 23 350 31 493 46 228 22 365 30 369 21 2 -5 -22 -32 -52 -60z
m-1939 -44 c-9 -10 -20 -31 -25 -48 -7 -22 -17 -31 -39 -35 -20 -4 -30 -12
-32 -28 -3 -18 1 -22 20 -21 17 1 18 3 6 6 -26 7 -22 23 5 23 26 0 47 17 47
40 1 22 40 68 47 53 8 -22 23 -14 23 12 0 31 10 32 43 1 56 -52 42 -153 -17
-130 -9 4 -14 20 -14 49 1 24 5 42 10 39 4 -3 8 -21 8 -40 0 -21 4 -33 10 -29
17 10 11 61 -9 86 l-19 24 -11 -43 c-8 -26 -18 -42 -27 -42 -12 0 -14 7 -9 31
5 22 4 29 -4 25 -6 -4 -11 -22 -11 -41 0 -18 -6 -36 -12 -39 -7 -3 -1 -3 13 0
20 4 33 -1 53 -21 16 -16 33 -24 42 -21 10 4 14 1 11 -6 -2 -7 -13 -12 -23
-10 -98 15 -102 15 -108 -6 -4 -11 -13 -23 -21 -26 -17 -6 -20 5 -4 21 7 7 6
12 -5 16 -10 4 -13 1 -9 -9 4 -10 0 -12 -10 -8 -10 3 -21 -2 -29 -15 -20 -33
-28 -25 -28 29 0 59 15 93 62 136 52 49 104 70 66 27z m207 -60 c52 -124 -51
-262 -197 -263 -64 0 -69 15 -8 30 30 7 62 24 83 44 46 43 87 134 87 192 0 52
13 51 35 -3z m90 -63 c18 -20 17 -20 -8 -20 -20 0 -27 5 -27 20 0 11 4 20 8
20 5 0 17 -9 27 -20z m-289 -76 c-24 -17 -39 -18 -33 -1 2 6 9 12 15 12 5 0
14 3 18 8 4 4 10 4 13 1 3 -3 -3 -12 -13 -20z m64 16 c12 -9 8 -16 -24 -45
-33 -29 -47 -35 -84 -35 l-45 0 22 24 c17 18 30 23 61 20 37 -3 40 -1 40 21 0
27 7 30 30 15z m-144 -12 c-7 -34 -23 -61 -30 -50 -4 6 1 23 10 37 18 28 24
31 20 13z m480 -80 c119 -125 117 -123 102 -148 -17 -27 -86 -60 -127 -60 -30
0 -94 30 -153 71 -14 11 -30 19 -34 19 -12 0 -44 32 -44 44 0 6 20 36 45 66
25 30 45 62 45 72 0 19 14 26 51 27 21 1 46 -19 115 -91z m1799 62 c-3 -5 -21
-10 -38 -10 -24 0 -28 3 -17 10 20 13 63 13 55 0z m-3320 -27 c107 -17 112
-19 200 -79 211 -144 342 -192 527 -193 80 -1 181 -19 211 -38 7 -5 -7 -10
-38 -14 -59 -8 -171 -24 -270 -39 -181 -27 -171 -29 -268 34 -48 31 -91 56
-97 56 -5 0 -10 5 -10 10 0 6 -5 10 -10 10 -12 0 -153 92 -158 103 -2 4 -8 7
-13 7 -5 0 -33 16 -63 35 -30 19 -60 35 -66 35 -5 0 -10 5 -10 10 0 6 -7 10
-15 10 -8 0 -15 3 -15 8 0 4 -18 16 -41 26 -22 11 -42 23 -45 28 -8 13 63 9
181 -9z m-167 -40 c15 -10 29 -20 32 -23 5 -6 83 -61 247 -173 46 -32 85 -57
89 -57 3 0 26 -15 51 -32 83 -60 130 -92 218 -151 47 -31 92 -62 98 -68 7 -6
57 -41 113 -77 55 -37 114 -76 130 -87 352 -235 748 -495 755 -495 5 0 9 -4 9
-10 0 -5 3 -10 8 -10 6 0 402 -257 427 -277 6 -5 75 -50 155 -102 80 -52 147
-98 148 -102 2 -5 8 -9 14 -9 6 0 26 -11 44 -25 18 -14 37 -25 42 -25 6 0 12
-3 14 -8 2 -4 66 -49 143 -99 77 -51 145 -96 150 -101 6 -5 15 -11 21 -13 12
-5 307 -202 314 -209 3 -4 47 -33 97 -66 51 -32 93 -62 93 -66 0 -5 -28 -8
-62 -9 -87 -1 -90 -1 -228 -37 -40 -10 -130 -48 -176 -73 -61 -34 -79 -44 -84
-49 -3 -3 -26 -23 -53 -44 -36 -29 -98 -102 -122 -144 -3 -4 -248 95 -390 158
-1043 462 -1972 1251 -2618 2221 -53 80 -97 150 -97 155 0 5 10 16 23 23 95
61 119 73 163 85 75 21 199 20 232 -1z m2286 -76 c20 -53 20 -57 -1 -74 -17
-13 -16 -13 6 -11 13 2 27 -4 32 -12 26 -48 52 -111 48 -115 -3 -2 -17 6 -31
19 -15 12 -38 31 -52 42 -14 10 -26 26 -26 36 0 9 -6 21 -13 25 -12 8 -62 103
-60 113 2 6 41 18 64 19 10 1 22 -15 33 -42z m-890 -19 c-6 -10 -38 -11 -48
-1 -3 4 4 12 16 19 23 12 43 1 32 -18z m8146 -697 c0 -23 -337 -387 -482 -522
l-99 -92 7 74 c7 81 35 154 86 227 43 62 184 202 204 202 3 0 25 13 49 30 46
32 169 80 228 89 4 0 7 -3 7 -8z"/>
<path d="M4093 10133 c9 -2 25 -2 35 0 9 3 1 5 -18 5 -19 0 -27 -2 -17 -5z"/>
<path d="M3550 10051 c0 -5 9 -7 20 -4 11 3 20 7 20 9 0 2 -9 4 -20 4 -11 0
-20 -4 -20 -9z"/>
<path d="M4987 9968 c7 -8 36 -21 64 -28 41 -11 57 -22 72 -47 10 -18 26 -33
35 -33 12 0 13 3 4 12 -18 18 -15 31 6 25 52 -17 95 -36 80 -37 -11 0 -18 -8
-18 -20 0 -25 8 -25 36 1 20 19 27 20 55 10 21 -7 36 -8 43 -1 6 6 3 12 -10
16 -10 4 -37 15 -59 24 -50 22 -213 71 -285 85 -29 7 -33 5 -23 -7z"/>
<path d="M4105 9950 c-10 -11 -16 -23 -13 -26 8 -7 46 17 52 33 8 20 -19 15
-39 -7z"/>
<path d="M4000 9954 c0 -16 23 -44 35 -44 20 0 19 13 -3 33 -19 17 -32 22 -32
11z"/>
<path d="M4390 9953 c0 -5 5 -15 10 -23 9 -13 11 -13 19 0 5 8 7 18 5 22 -6
10 -34 11 -34 1z"/>
<path d="M4850 9915 c-16 -19 -3 -40 16 -24 15 13 19 39 5 39 -5 0 -14 -7 -21
-15z"/>
<path d="M3836 9901 c-10 -11 -13 -22 -8 -25 9 -6 20 4 36 32 11 19 -9 14 -28
-7z"/>
<path d="M5470 9891 c0 -5 5 -13 10 -16 6 -3 10 -2 10 4 0 5 -4 13 -10 16 -5
3 -10 2 -10 -4z"/>
<path d="M4036 9861 c-36 -38 -30 -62 7 -26 l27 27 36 -36 c41 -41 54 -45 54
-16 0 14 -7 20 -24 20 -17 0 -28 9 -38 30 -16 37 -27 38 -62 1z"/>
<path d="M5000 9875 c-10 -13 -9 -15 9 -15 12 0 21 6 21 15 0 8 -4 15 -9 15
-5 0 -14 -7 -21 -15z"/>
<path d="M3925 9870 c4 -6 11 -8 16 -5 14 9 11 15 -7 15 -8 0 -12 -5 -9 -10z"/>
<path d="M5447 9808 c11 -13 26 -33 32 -45 6 -13 19 -23 27 -23 8 0 12 5 9 10
-10 16 1 12 72 -26 39 -20 69 -31 71 -25 5 15 -17 35 -63 56 -22 11 -42 22
-45 26 -9 12 -89 49 -106 49 -16 0 -15 -3 3 -22z"/>
<path d="M5182 9804 c-12 -8 -22 -19 -22 -25 0 -16 32 -10 46 9 26 34 13 42
-24 16z"/>
<path d="M3426 9801 c-4 -7 -5 -15 -2 -18 9 -9 19 4 14 18 -4 11 -6 11 -12 0z"/>
<path d="M4737 9803 c-9 -9 -9 -43 1 -43 11 0 32 37 25 44 -8 8 -18 8 -26 -1z"/>
<path d="M4957 9796 c-7 -16 18 -54 28 -44 9 9 -3 58 -14 58 -5 0 -11 -6 -14
-14z"/>
<path d="M5250 9801 c0 -16 32 -71 41 -71 11 0 11 0 -2 38 -9 28 -39 53 -39
33z"/>
<path d="M4033 9643 c9 -2 25 -2 35 0 9 3 1 5 -18 5 -19 0 -27 -2 -17 -5z"/>
<path d="M4255 9640 c3 -5 13 -10 21 -10 8 0 14 5 14 10 0 6 -9 10 -21 10 -11
0 -17 -4 -14 -10z"/>
<path d="M3680 9630 c0 -5 18 -10 40 -10 22 0 40 5 40 10 0 6 -18 10 -40 10
-22 0 -40 -4 -40 -10z"/>
<path d="M4460 9630 c0 -5 17 -10 38 -9 30 0 33 2 17 9 -28 12 -55 12 -55 0z"/>
<path d="M3473 9599 c-25 -9 -30 -19 -10 -19 15 0 43 17 37 23 -3 3 -15 1 -27
-4z"/>
<path d="M5550 9551 c0 -20 17 -37 27 -28 7 8 -7 47 -18 47 -5 0 -9 -9 -9 -19z"/>
<path d="M3275 9550 c-3 -5 1 -10 9 -10 9 0 16 5 16 10 0 6 -4 10 -9 10 -6 0
-13 -4 -16 -10z"/>
<path d="M5724 9514 c3 -9 6 -18 6 -20 0 -12 29 -2 34 12 9 23 8 24 -20 24
-20 0 -25 -4 -20 -16z"/>
<path d="M5160 9500 c0 -9 100 -43 107 -36 3 2 -12 10 -31 17 -20 7 -36 17
-36 21 0 4 -9 8 -20 8 -11 0 -20 -4 -20 -10z"/>
<path d="M5480 9381 c0 -5 7 -11 15 -15 8 -3 15 -1 15 3 0 5 -7 11 -15 15 -8
3 -15 1 -15 -3z"/>
<path d="M5585 9320 c3 -5 11 -10 16 -10 6 0 7 5 4 10 -3 6 -11 10 -16 10 -6
0 -7 -4 -4 -10z"/>
<path d="M3210 9698 c0 -19 2 -20 10 -8 13 19 13 30 0 30 -5 0 -10 -10 -10
-22z"/>
<path d="M4640 7977 c0 -7 -10 -24 -22 -36 -20 -22 -26 -23 -109 -18 -48 3
-97 10 -108 16 -50 27 -257 -2 -295 -42 -57 -59 -77 -118 -59 -176 21 -70 67
-129 159 -202 42 -33 96 -39 143 -14 33 16 79 68 92 102 8 22 9 22 56 8 26 -8
63 -15 81 -15 29 0 32 -3 32 -31 0 -64 34 -100 97 -101 109 -1 207 103 220
234 5 47 2 62 -17 92 -35 58 -79 86 -133 86 -38 0 -53 6 -82 32 -28 24 -35 36
-30 55 4 16 1 23 -10 23 -8 0 -15 -6 -15 -13z m-310 -103 c25 -8 53 -19 62
-24 10 -6 24 -10 32 -10 8 0 16 -4 18 -8 6 -16 173 -62 222 -62 27 0 77 5 112
12 35 6 67 9 70 5 3 -3 12 -23 19 -43 11 -31 10 -46 -1 -83 -25 -83 -107 -158
-160 -145 -49 12 -60 75 -17 96 15 7 29 21 31 31 3 16 -4 18 -65 16 -90 -2
-157 9 -218 36 -27 12 -54 21 -60 21 -16 -1 -6 -29 17 -47 19 -15 19 -17 4
-46 -22 -44 -63 -73 -101 -73 -38 0 -87 36 -145 106 -37 45 -40 53 -40 110 0
48 4 65 20 79 25 22 120 55 140 48 8 -2 35 -11 60 -19z m193 11 c102 -3 122
-6 140 -23 34 -31 62 -42 109 -43 l43 -1 -45 -10 c-63 -13 -188 -5 -230 14
-64 29 -124 51 -180 64 l-55 14 50 -7 c28 -3 103 -7 168 -8z"/>
<path d="M4240 9151 c-25 -4 -60 -14 -79 -24 -19 -9 -39 -17 -45 -17 -6 0 -26
-13 -45 -29 l-34 -28 134 -5 c123 -5 140 -8 207 -37 98 -43 247 -91 281 -91
68 0 96 69 45 109 -15 12 -57 30 -93 41 -36 11 -75 24 -86 30 -32 15 -156 48
-200 53 -22 3 -60 2 -85 -2z"/>
<path d="M4536 8857 c3 -10 9 -15 12 -12 3 3 0 11 -7 18 -10 9 -11 8 -5 -6z"/>
<path d="M4140 8857 c0 -26 26 -57 49 -57 26 -1 61 -20 61 -34 0 -4 -10 -4
-22 0 -21 6 -21 5 4 -15 33 -26 100 -51 139 -51 31 0 79 19 79 31 0 4 20 7 45
7 52 -1 63 5 45 27 -8 10 -31 15 -70 15 -75 0 -151 16 -219 47 -56 25 -111 40
-111 30z"/>
<path d="M5013 8663 c-25 -9 -13 -23 21 -23 37 0 60 -19 50 -43 -9 -24 51 -50
117 -50 53 0 119 19 119 35 0 5 9 8 20 8 11 0 20 7 20 15 0 12 -14 15 -62 15
-58 1 -121 12 -208 39 -37 12 -57 13 -77 4z m267 -83 c0 -5 -5 -10 -11 -10 -5
0 -7 5 -4 10 3 6 8 10 11 10 2 0 4 -4 4 -10z"/>
<path d="M3230 8758 c0 -23 21 -78 30 -78 4 0 1 19 -7 42 -16 48 -23 58 -23
36z"/>
<path d="M2833 7523 c9 -9 20 -13 24 -9 4 4 1 11 -7 16 -25 16 -35 11 -17 -7z"/>
<path d="M2746 7482 c-3 -6 -1 -14 5 -17 15 -10 25 3 12 16 -7 7 -13 7 -17 1z"/>
<path d="M2810 7124 c0 -8 5 -12 10 -9 6 4 8 11 5 16 -9 14 -15 11 -15 -7z"/>
<path d="M2855 6820 c-3 -5 1 -10 10 -10 9 0 13 5 10 10 -3 6 -8 10 -10 10 -2
0 -7 -4 -10 -10z"/>
<path d="M2807 6713 c10 -15 28 -37 40 -50 13 -12 23 -26 23 -32 0 -5 -18 -39
-41 -76 -22 -37 -38 -69 -36 -72 12 -11 46 24 56 56 6 20 17 45 24 56 16 21
24 17 66 -42 21 -31 41 -43 41 -25 0 4 -18 28 -40 52 -22 25 -40 48 -40 52 0
4 14 30 30 58 17 29 25 50 18 48 -7 -3 -22 -21 -33 -41 -11 -20 -25 -37 -32
-37 -7 0 -27 18 -44 40 -36 45 -59 54 -32 13z"/>
<path d="M2884 6429 c-10 -17 23 -46 37 -32 7 7 9 19 6 27 -7 18 -33 21 -43 5z"/>
<path d="M2903 5984 c-3 -8 2 -23 11 -32 15 -15 18 -15 26 -2 5 8 10 23 10 33
0 22 -38 23 -47 1z"/>
<path d="M3006 5895 c-19 -28 -21 -45 -5 -45 6 0 13 9 16 20 3 11 9 20 14 20
5 0 9 7 9 15 0 23 -16 18 -34 -10z"/>
<path d="M2906 5545 c-9 -24 -8 -25 20 -25 19 0 25 5 22 17 -4 23 -34 28 -42
8z"/>
<path d="M2913 5113 c-18 -6 -16 -23 1 -23 17 0 30 16 19 23 -5 2 -14 2 -20 0z"/>
<path d="M4940 7040 c0 -5 5 -10 10 -10 6 0 10 5 10 10 0 6 -4 10 -10 10 -5 0
-10 -4 -10 -10z"/>
<path d="M4890 6780 c0 -5 5 -10 10 -10 6 0 10 5 10 10 0 6 -4 10 -10 10 -5 0
-10 -4 -10 -10z"/>
<path d="M4920 6420 c0 -5 7 -10 15 -10 8 0 15 5 15 10 0 6 -7 10 -15 10 -8 0
-15 -4 -15 -10z"/>
<path d="M4932 6018 c-20 -20 -14 -38 13 -38 28 0 31 8 12 33 -10 14 -15 15
-25 5z"/>
<path d="M4860 5901 c10 -21 30 -37 30 -26 0 14 -21 45 -31 45 -6 0 -6 -7 1
-19z"/>
<path d="M4984 5698 c3 -7 9 -21 12 -30 7 -19 34 -33 34 -17 0 15 -31 59 -42
59 -5 0 -7 -6 -4 -12z"/>
<path d="M4922 5577 c-14 -16 -6 -27 20 -27 13 0 18 6 16 17 -4 22 -22 27 -36
10z"/>
<path d="M4986 5463 c-10 -21 -24 -49 -33 -61 l-15 -24 -24 23 c-13 12 -24 28
-24 35 0 6 -7 17 -15 24 -8 7 -15 9 -15 5 0 -10 33 -67 48 -83 18 -20 15 -38
-13 -66 -14 -14 -25 -30 -25 -36 0 -7 -9 -23 -20 -37 -22 -29 -21 -37 4 -27 9
3 16 15 16 25 0 26 54 84 69 74 7 -4 21 -26 31 -50 10 -24 23 -46 29 -49 15
-10 14 20 -1 36 -25 26 -62 110 -52 116 11 8 84 117 84 126 0 3 -6 6 -13 6 -7
0 -21 -17 -31 -37z"/>
<path d="M4910 5150 c0 -11 4 -20 9 -20 11 0 22 26 14 34 -12 12 -23 5 -23
-14z"/>
<path d="M4822 4837 c-23 -24 -28 -37 -14 -37 4 0 16 14 25 30 22 36 18 38
-11 7z"/>
<path d="M4876 4763 c-11 -11 -6 -23 9 -23 8 0 15 4 15 9 0 13 -16 22 -24 14z"/>
<path d="M4905 4450 c20 -23 29 -21 19 4 -3 9 -13 16 -22 16 -13 0 -12 -3 3
-20z"/>
<path d="M4816 4375 c-3 -9 1 -18 10 -22 19 -7 39 11 30 26 -10 16 -33 13 -40
-4z"/>
<path d="M4864 4260 c-21 -27 -44 -49 -50 -50 -6 0 -17 11 -24 25 -7 14 -17
25 -21 25 -11 0 3 -43 18 -59 12 -11 11 -17 -6 -35 -28 -30 -26 -40 3 -21 22
14 25 14 40 0 19 -19 21 -12 5 17 -9 17 -5 27 28 66 34 41 59 82 49 82 -1 0
-20 -22 -42 -50z"/>
<path d="M4840 4113 c0 -4 5 -15 10 -23 8 -13 10 -13 10 2 0 9 -4 20 -10 23
-5 3 -10 3 -10 -2z"/>
<path d="M4730 4095 c-7 -9 -11 -18 -8 -20 3 -3 11 1 18 10 7 9 11 18 8 20 -3
3 -11 -1 -18 -10z"/>
<path d="M4760 4004 c0 -17 22 -14 28 4 2 7 -3 12 -12 12 -9 0 -16 -7 -16 -16z"/>
<path d="M4697 3630 c-22 -26 -22 -27 13 -27 33 0 36 5 17 30 -11 16 -13 16
-30 -3z"/>
<path d="M3582 3290 c-14 -18 -22 -44 -22 -68 0 -39 10 -57 45 -82 16 -12 15
-9 -3 12 -13 15 -26 45 -29 69 -6 39 -4 45 28 71 20 17 27 28 18 28 -8 0 -25
-13 -37 -30z"/>
<path d="M6948 2703 c12 -2 32 -2 45 0 12 2 2 4 -23 4 -25 0 -35 -2 -22 -4z"/>
<path d="M6830 2689 c-25 -4 -68 -8 -97 -8 -28 -1 -54 -5 -57 -10 -3 -4 -27
-11 -53 -14 -27 -3 -77 -10 -113 -16 -36 -6 -106 -15 -155 -21 -50 -6 -139
-18 -200 -25 -131 -16 -226 -31 -280 -45 -47 -12 -73 -16 -146 -25 -30 -3 -70
-8 -89 -10 -19 -3 -71 -9 -115 -15 -44 -5 -105 -14 -135 -20 -62 -12 -156 -25
-275 -40 -44 -5 -105 -14 -135 -20 -30 -5 -98 -14 -150 -20 -96 -11 -167 -21
-275 -40 -33 -6 -98 -15 -145 -20 -83 -9 -310 -43 -360 -54 -62 -13 -219 -39
-260 -43 -80 -7 -267 -34 -296 -43 l-29 -8 30 -1 c17 0 59 4 95 9 36 6 119 17
185 25 66 8 131 17 145 20 24 5 151 23 215 30 17 2 68 10 115 20 109 21 170
30 355 51 83 9 152 21 155 25 3 4 30 9 60 11 112 9 336 40 352 49 10 5 36 9
58 9 22 0 108 11 192 25 84 14 194 30 243 35 111 12 275 37 375 57 41 8 109
19 150 24 41 4 118 13 170 19 52 5 107 14 122 19 15 6 71 13 125 17 54 3 103
10 108 14 6 4 28 10 50 13 91 13 145 24 152 30 8 9 -27 7 -87 -4z"/>
<path d="M7425 2515 c-5 -3 -44 -9 -85 -14 -41 -6 -129 -20 -195 -31 -66 -11
-160 -25 -210 -30 -49 -6 -112 -15 -140 -21 -27 -5 -79 -14 -115 -19 -36 -5
-130 -19 -210 -30 -80 -12 -172 -25 -205 -30 -57 -9 -113 -21 -145 -33 -8 -3
-44 -8 -80 -11 -61 -5 -129 -14 -275 -37 -33 -6 -91 -14 -130 -19 -38 -5 -90
-14 -115 -20 -45 -10 -156 -28 -340 -55 -52 -8 -153 -24 -225 -36 -71 -11
-158 -24 -191 -29 -34 -4 -66 -10 -71 -13 -6 -4 -55 -11 -109 -17 -55 -6 -139
-19 -189 -30 -49 -10 -117 -22 -150 -25 -33 -3 -85 -10 -115 -15 -30 -5 -106
-17 -167 -26 -62 -10 -113 -21 -113 -26 0 -12 46 -10 135 7 187 35 265 47 350
56 50 5 113 16 142 24 28 8 73 15 99 15 26 0 61 4 78 9 17 5 74 15 126 21 52
7 100 16 105 20 6 5 60 14 120 20 61 6 119 14 130 19 18 8 124 24 240 37 64 7
174 24 255 40 144 29 235 44 271 44 20 0 39 3 43 8 4 4 60 12 124 19 117 12
242 33 317 53 22 6 78 15 125 20 149 17 233 29 290 40 30 6 123 20 205 31 83
11 167 23 188 26 20 3 40 9 43 14 3 5 20 9 37 9 50 0 187 24 187 32 0 8 -17 9
-35 3z"/>
<path d="M7775 2290 c-11 -5 -40 -9 -64 -9 -42 -1 -87 -10 -161 -33 -37 -12
-175 -34 -300 -48 -41 -4 -100 -13 -130 -20 -30 -6 -91 -17 -135 -25 -44 -7
-80 -14 -80 -15 0 -1 -18 -3 -40 -5 -22 -2 -65 -8 -95 -14 -151 -27 -302 -52
-365 -61 -38 -6 -97 -15 -130 -21 -33 -6 -100 -17 -150 -25 -49 -8 -115 -19
-145 -25 -30 -6 -66 -11 -80 -10 -14 0 -34 -4 -45 -9 -11 -4 -60 -14 -110 -20
-49 -7 -112 -16 -140 -21 -27 -5 -80 -12 -117 -15 -38 -4 -68 -11 -68 -15 0
-5 -20 -9 -44 -9 -25 0 -48 -4 -51 -10 -3 -5 -26 -10 -50 -10 -24 0 -47 -4
-50 -10 -3 -5 -25 -10 -48 -10 -23 0 -89 -9 -147 -20 -58 -11 -118 -20 -134
-20 -16 0 -52 -6 -80 -14 -61 -18 -254 -54 -351 -66 -38 -5 -97 -15 -130 -23
l-60 -15 58 -1 c31 -1 65 3 75 9 16 9 161 33 298 50 34 4 66 10 72 14 10 6
188 39 332 61 47 7 126 20 175 29 50 9 109 16 133 16 23 0 42 4 42 9 0 9 35
16 130 27 25 3 54 9 65 13 11 5 97 18 190 30 94 12 211 31 260 41 139 30 202
41 310 55 55 8 181 27 280 44 99 17 194 31 210 31 17 0 35 4 40 9 6 5 48 13
95 19 47 6 146 21 220 35 74 14 173 30 220 36 85 12 135 21 220 40 25 5 74 16
110 24 58 13 61 15 25 15 -22 0 -49 -3 -60 -8z"/>
<path d="M8270 2060 c-69 -10 -138 -23 -155 -29 -37 -13 -223 -50 -290 -57
-56 -6 -217 -37 -310 -60 -33 -8 -118 -24 -189 -34 -71 -11 -132 -23 -135 -26
-9 -10 100 2 239 26 177 30 210 37 255 50 22 6 94 20 160 31 229 37 300 50
380 68 22 5 76 16 119 25 43 8 81 18 84 21 7 7 -16 5 -158 -15z"/>
<path d="M7086 1841 c-3 -5 -36 -14 -73 -21 -38 -7 -90 -18 -118 -25 -27 -8
-81 -17 -120 -20 -38 -4 -74 -10 -80 -15 -5 -4 -26 -10 -45 -13 -92 -13 -339
-57 -370 -66 -47 -13 -233 -49 -345 -67 -49 -7 -110 -18 -135 -23 -25 -6 -64
-10 -88 -11 -24 0 -57 -7 -74 -16 -18 -9 -59 -20 -92 -25 -63 -8 -276 -44
-356 -60 -25 -4 -71 -12 -102 -18 -31 -5 -63 -13 -70 -17 -7 -5 -56 -14 -108
-22 -52 -7 -113 -15 -135 -18 -22 -4 -44 -10 -49 -15 -15 -14 40 -11 124 7 41
8 84 16 95 16 22 1 135 22 200 38 22 5 57 10 78 10 20 0 37 5 37 10 0 6 10 10
22 10 12 0 49 5 82 11 114 20 161 28 236 40 41 6 95 18 120 26 25 9 70 19 100
24 30 4 71 11 90 14 19 3 89 15 155 26 66 11 143 24 170 30 65 13 177 34 290
54 50 9 138 27 198 41 59 13 118 24 130 24 12 0 76 12 142 26 66 14 132 28
148 31 45 9 41 23 -7 23 -25 0 -47 -4 -50 -9z"/>
<path d="M8820 1830 c-41 -9 -109 -23 -150 -30 -41 -7 -100 -19 -130 -27 -30
-8 -93 -21 -140 -28 -83 -13 -104 -17 -240 -50 -36 -9 -105 -23 -155 -30 -49
-8 -116 -21 -148 -30 -32 -8 -71 -15 -87 -15 -38 0 -120 -22 -120 -32 0 -4
-16 -8 -36 -8 -19 0 -74 -9 -122 -19 -132 -30 -431 -91 -487 -100 -27 -5 -95
-18 -150 -30 -55 -12 -156 -33 -225 -46 -69 -13 -168 -34 -220 -45 -52 -11
-117 -24 -145 -29 -27 -5 -111 -21 -186 -35 -75 -14 -152 -26 -171 -26 -20 0
-41 -6 -47 -14 -7 -8 -38 -18 -69 -21 -31 -4 -88 -13 -127 -21 -78 -16 -201
-39 -315 -59 -105 -19 -209 -48 -186 -53 20 -4 185 24 221 38 11 4 49 13 85
19 157 26 186 32 202 41 10 6 35 10 55 10 21 0 54 4 73 9 19 5 68 14 108 21
39 7 72 17 72 22 0 4 20 8 45 8 25 0 53 4 63 9 17 9 160 35 290 52 40 5 89 16
108 24 20 8 49 15 65 15 15 0 54 7 86 16 32 9 105 24 163 32 58 9 107 19 110
23 3 4 37 12 75 17 75 11 287 55 345 71 19 6 114 24 210 41 96 17 186 36 200
42 27 12 30 13 105 23 28 4 59 10 70 15 11 5 40 11 65 14 25 3 81 13 125 21
44 9 112 23 150 30 39 7 104 20 145 29 151 34 207 45 320 66 188 34 220 41
220 51 0 13 -33 10 -120 -11z"/>
<path d="M9317 1574 c-4 -5 -113 -30 -322 -74 -22 -5 -83 -19 -135 -31 -52
-11 -140 -29 -195 -39 -55 -10 -125 -25 -155 -33 -111 -30 -247 -61 -320 -73
-209 -36 -255 -46 -270 -59 -9 -8 -28 -15 -43 -15 -14 0 -49 -5 -79 -11 -29
-6 -78 -15 -108 -21 -101 -18 -155 -30 -175 -38 -11 -4 -69 -17 -130 -30 -60
-12 -129 -26 -152 -31 -23 -5 -55 -9 -70 -9 -16 0 -33 -4 -39 -8 -9 -8 -76
-25 -144 -37 -19 -3 -62 -12 -95 -20 -33 -7 -82 -19 -110 -25 -27 -6 -66 -15
-85 -21 -19 -5 -60 -14 -90 -18 -30 -5 -93 -16 -140 -25 -47 -9 -111 -22 -143
-28 -32 -6 -60 -15 -63 -19 -3 -5 -17 -9 -31 -9 -14 0 -60 -9 -102 -19 -42
-11 -112 -25 -156 -31 -101 -15 -144 -25 -335 -78 l-35 -10 30 -1 c17 0 48 4
70 10 22 6 72 17 110 25 39 8 88 18 110 23 22 5 130 27 240 50 110 22 225 48
255 56 30 8 67 15 82 15 15 0 29 4 32 9 3 5 29 11 58 14 50 6 90 14 198 38 25
5 68 13 95 17 28 4 56 11 62 15 7 4 59 17 115 28 57 12 121 25 143 30 22 6 94
20 160 33 125 25 278 60 331 76 16 6 73 16 125 24 108 17 187 34 203 44 13 9
101 27 219 47 49 8 103 18 120 24 18 5 57 14 87 20 30 6 93 20 140 31 47 11
130 29 185 40 55 11 118 25 140 31 22 6 84 18 137 27 53 9 100 20 104 25 4 4
16 7 28 7 34 0 196 43 196 52 0 9 -43 11 -53 2z"/>
</g>
</svg>
