<?xml version="1.0" standalone="no"?>
<!DOCTYPE svg PUBLIC "-//W3C//DTD SVG 20010904//EN"
 "http://www.w3.org/TR/2001/REC-SVG-20010904/DTD/svg10.dtd">
<svg version="1.0" xmlns="http://www.w3.org/2000/svg"
 width="1295.000000pt" height="1294.000000pt" viewBox="0 0 1295.000000 1294.000000"
 preserveAspectRatio="xMidYMid meet">
<metadata>
Created by potrace 1.16, written by Peter Selinger 2001-2019
</metadata>
<g transform="translate(0.000000,1294.000000) scale(0.100000,-0.100000)"
fill="#000000" stroke="none">
<path d="M0 6470 l0 -6470 6475 0 6475 0 0 6470 0 6470 -6475 0 -6475 0 0
-6470z m6980 6097 c19 -3 69 -8 110 -12 494 -42 1089 -178 1566 -358 263 -99
382 -152 619 -272 1278 -646 2300 -1724 2873 -3030 248 -565 421 -1222 478
-1810 3 -38 8 -77 9 -86 30 -163 26 -921 -5 -1204 -88 -791 -288 -1467 -633
-2150 -237 -469 -519 -882 -875 -1288 l-104 -118 -21 42 c-15 30 -32 47 -61
60 -54 25 -124 24 -156 -1 l-25 -19 57 6 c99 10 157 -28 158 -102 0 -39 -5
-45 -147 -184 -195 -189 -263 -248 -256 -221 7 28 -20 17 -37 -16 -7 -13 -17
-24 -22 -24 -4 0 -8 -5 -8 -11 0 -6 -15 -25 -32 -41 -32 -29 -35 -29 -120 -24
-72 4 -88 2 -88 -10 0 -8 11 -14 28 -15 15 0 45 -6 67 -12 l39 -12 -109 -86
c-940 -734 -2039 -1165 -3250 -1275 -262 -23 -902 -23 -1056 1 -13 2 -58 6
-99 9 -175 15 -515 70 -729 118 -706 158 -1388 445 -1986 836 l-130 84 53 22
c82 33 262 225 262 279 0 7 7 26 16 42 10 17 18 66 21 115 5 82 4 89 -28 155
-18 39 -47 86 -64 105 -31 35 -65 85 -65 95 0 3 5 5 11 5 6 0 17 7 26 16 16
16 15 23 -17 124 -42 128 -37 237 16 402 20 62 40 120 44 129 5 9 11 37 15 62
6 40 14 53 53 84 99 82 136 145 149 255 7 56 26 75 103 107 30 13 69 29 85 36
38 16 93 35 220 75 55 18 105 36 112 42 7 5 39 24 72 41 66 35 111 67 156 111
25 24 49 33 140 52 61 12 128 32 148 43 48 27 48 27 125 -10 47 -23 84 -33
134 -37 l70 -5 -6 -30 c-4 -17 -10 -34 -15 -37 -5 -3 -13 -18 -16 -33 -4 -15
-11 -27 -16 -27 -5 0 -9 -9 -9 -19 0 -10 -7 -22 -16 -25 -9 -4 -14 -9 -11 -12
6 -6 -80 -147 -134 -219 -21 -27 -63 -76 -93 -109 -41 -43 -59 -72 -71 -113
-18 -60 -16 -76 20 -198 13 -44 26 -114 29 -155 6 -68 21 -108 51 -135 24 -22
92 -72 126 -93 20 -12 57 -46 82 -75 25 -28 55 -63 67 -77 12 -14 36 -45 53
-70 17 -25 34 -46 39 -48 4 -2 8 -10 8 -17 0 -7 4 -15 8 -17 5 -1 23 -31 41
-65 80 -150 217 -232 341 -204 39 9 47 7 84 -18 67 -44 96 -53 195 -59 l94 -5
-8 -61 c-18 -146 -5 -210 45 -231 24 -10 173 -6 184 5 6 6 18 10 27 10 22 0
85 28 181 82 97 54 120 73 163 134 27 38 35 59 35 93 0 31 7 53 23 75 34 44
61 137 54 183 -8 50 0 80 24 86 10 3 19 13 19 23 0 9 7 25 15 35 9 9 19 47 24
89 4 39 12 75 18 78 6 4 28 30 48 57 21 28 41 52 44 55 4 3 22 25 41 50 47 62
144 154 208 197 29 20 67 53 84 73 21 27 42 41 74 49 24 6 48 17 54 24 85 101
113 175 92 245 -44 150 -2 421 87 556 34 51 61 79 142 144 60 47 69 58 85 112
17 58 20 61 87 100 38 22 74 40 78 40 5 0 9 3 9 8 0 4 18 16 40 26 22 11 40
23 40 27 0 8 30 26 89 54 26 12 49 15 91 10 31 -4 61 -10 67 -13 18 -12 21
-90 12 -295 -9 -203 -22 -343 -39 -407 -5 -19 -14 -57 -21 -85 -17 -72 -32
-96 -94 -159 l-55 -56 0 -68 c0 -110 -18 -138 -279 -432 -36 -41 -123 -132
-192 -202 -83 -83 -129 -137 -132 -155 -17 -88 -33 -133 -61 -175 -17 -27 -33
-48 -36 -48 -3 0 -37 -23 -75 -50 -74 -54 -91 -77 -120 -155 -11 -27 -29 -66
-41 -85 -13 -19 -32 -64 -44 -100 -12 -36 -26 -74 -31 -85 -18 -39 -59 -178
-59 -202 0 -29 42 -97 72 -117 13 -8 37 -18 53 -21 17 -4 49 -14 73 -22 75
-28 252 -1 354 53 36 19 39 18 32 -13 l-7 -28 30 32 c32 34 68 43 76 21 2 -7
7 -10 11 -6 13 12 -16 46 -36 40 -26 -6 -23 5 12 44 50 58 71 110 77 193 3 42
12 85 19 96 16 22 19 91 4 100 -5 3 -1 14 10 25 11 11 22 31 26 44 3 15 14 26
27 28 12 2 27 14 34 27 6 14 28 35 49 47 42 25 74 69 74 101 0 12 4 24 9 27 4
3 11 26 14 51 4 24 11 53 16 62 5 10 18 36 29 58 19 39 37 60 162 190 31 33
78 92 102 130 59 92 86 115 196 171 37 19 77 66 92 110 8 22 23 35 57 49 26
11 60 31 76 44 32 27 77 93 77 114 0 8 9 43 20 78 11 35 26 119 34 186 17 141
48 238 111 349 25 43 45 82 45 87 0 5 29 52 64 106 35 53 71 112 80 131 9 20
29 43 44 52 31 18 213 201 282 283 24 28 46 52 50 55 11 7 135 200 165 256 14
27 30 56 35 64 18 31 40 84 40 96 0 7 6 28 14 46 26 60 56 224 62 342 7 117
18 148 29 79 11 -72 27 -148 36 -171 5 -13 9 -32 9 -43 0 -19 67 -168 80 -179
4 -3 9 -12 13 -20 25 -56 101 -136 162 -171 40 -23 62 -29 112 -29 40 0 82 -8
115 -21 36 -14 85 -23 155 -26 113 -6 159 3 257 48 38 18 64 25 75 19 9 -4 33
-16 55 -26 44 -21 146 -119 146 -140 0 -8 3 -14 8 -14 4 0 15 -21 24 -48 20
-55 53 -94 76 -90 27 5 52 67 52 130 0 69 -51 183 -112 253 -52 59 -30 58 63
-3 106 -69 146 -122 213 -275 13 -30 21 -38 39 -35 41 6 47 126 11 237 -12 39
12 17 37 -35 18 -34 28 -44 43 -42 18 3 21 11 24 58 5 81 -32 196 -83 259 -28
34 -99 103 -124 121 -11 8 -21 17 -21 21 0 7 67 -14 117 -36 17 -8 34 -15 37
-15 6 0 132 -76 149 -91 49 -40 92 -69 104 -69 21 0 31 40 21 78 -11 38 -40
94 -70 132 -23 29 -119 129 -143 149 -28 23 -9 23 41 0 27 -12 84 -49 127 -83
44 -33 89 -68 101 -76 11 -8 22 -18 24 -22 2 -5 10 -8 17 -8 32 0 26 67 -14
152 -34 70 -193 229 -266 266 -141 70 -246 101 -344 103 -41 0 -43 1 -21 10
14 6 64 13 111 16 88 6 160 -10 200 -44 8 -7 19 -13 23 -13 4 0 32 -12 62 -26
92 -43 114 -12 38 55 -56 49 -158 102 -239 124 -65 18 -205 23 -346 12 -122
-10 -182 5 -266 64 -37 27 -78 62 -89 78 l-21 29 127 -4 127 -4 69 37 c85 46
154 113 154 149 0 39 -18 40 -86 7 -88 -42 -167 -52 -252 -31 -121 30 -200 80
-327 206 -63 63 -118 114 -122 114 -5 0 -20 11 -34 24 -43 40 -129 82 -203
100 -88 22 -150 15 -283 -30 -56 -19 -112 -34 -125 -34 -13 0 -28 -4 -33 -9
-6 -5 -41 -11 -78 -14 l-68 -5 -107 108 c-124 124 -178 166 -322 247 -107 60
-276 133 -308 133 -10 0 -22 4 -28 9 -5 4 -45 16 -89 25 -44 10 -97 22 -117
27 -20 5 -85 12 -145 16 -97 5 -110 8 -119 27 -6 12 -28 50 -49 86 -21 36 -60
108 -87 160 -28 52 -53 100 -58 105 -4 6 -25 44 -47 86 -77 142 -149 243 -231
321 -44 42 -94 84 -111 92 -20 11 -39 35 -56 70 -31 66 -31 80 1 114 14 15 40
54 57 87 27 54 30 69 31 150 0 50 -5 106 -11 125 -47 147 -48 120 12 390 8 36
15 76 15 90 0 37 52 53 175 55 55 1 110 7 122 13 12 7 62 12 110 12 65 0 105
6 148 21 33 12 98 24 145 28 69 6 97 14 143 39 65 36 106 64 107 73 0 4 12 28
27 55 28 49 41 83 90 226 l27 77 55 -5 c88 -9 175 10 229 49 45 32 49 38 89
159 56 167 110 379 119 460 l6 65 57 26 c89 42 113 66 116 116 1 24 6 46 11
50 17 12 44 72 44 97 0 14 10 38 21 54 18 23 21 38 17 79 -4 41 -1 54 13 67
12 10 19 31 19 51 0 27 -9 42 -45 76 l-45 42 98 195 c54 107 110 214 125 237
15 24 27 45 27 47 0 2 16 28 35 57 19 30 35 63 35 75 0 36 -31 86 -89 141 -31
30 -91 88 -134 129 l-78 74 -134 0 c-112 0 -143 -3 -187 -21 -29 -11 -61 -28
-70 -36 -22 -20 -57 -145 -77 -278 -10 -66 -40 -232 -65 -364 -9 -46 -16 -98
-16 -117 0 -30 -3 -34 -40 -44 -46 -12 -77 -38 -112 -95 -14 -23 -42 -58 -62
-78 -20 -21 -36 -41 -36 -45 -1 -4 -5 -53 -9 -110 l-9 -102 -81 -80 c-75 -73
-87 -81 -154 -100 -84 -24 -97 -31 -157 -81 -26 -22 -72 -46 -110 -59 -75 -24
-142 -55 -185 -86 -16 -11 -38 -24 -47 -27 -10 -4 -18 -10 -18 -15 0 -10 -63
-28 -120 -35 -47 -6 -152 12 -165 28 -6 7 -29 16 -51 19 -30 5 -44 14 -52 31
-14 30 -64 62 -168 107 -111 48 -234 135 -327 232 -59 62 -76 86 -72 101 43
147 47 201 19 222 -13 10 -17 30 -18 100 -1 64 -6 97 -20 122 -23 42 -94 120
-121 132 -11 5 -40 21 -64 34 -87 49 -374 125 -475 125 -58 0 -122 -17 -155
-42 -16 -12 -41 -18 -79 -18 -119 0 -182 -47 -196 -146 -4 -29 -15 -57 -29
-72 -21 -22 -22 -32 -22 -182 0 -148 1 -160 21 -182 16 -16 20 -32 17 -53 -2
-16 4 -55 14 -85 13 -39 17 -70 13 -109 -8 -75 -5 -163 7 -186 28 -52 33 -78
36 -175 3 -95 14 -140 44 -190 2 -3 -12 -11 -29 -19 -113 -46 -158 -74 -231
-142 -33 -31 -64 -50 -96 -58 -26 -7 -65 -27 -87 -46 -21 -19 -41 -35 -44 -35
-3 0 -14 -15 -25 -32 -10 -18 -21 -35 -24 -38 -19 -16 -61 -95 -87 -160 -22
-58 -40 -85 -82 -125 -35 -33 -65 -75 -89 -123 -19 -40 -68 -115 -109 -168
-40 -53 -76 -105 -79 -115 -4 -10 -11 -19 -16 -19 -5 0 -9 -7 -9 -15 0 -9 -7
-18 -16 -22 -9 -3 -27 -28 -39 -55 l-23 -50 -33 31 c-29 25 -31 29 -12 24 16
-3 25 0 29 11 3 9 14 16 25 16 10 0 23 8 28 18 29 55 -141 175 -321 228 -40
12 -55 20 -51 30 7 18 -12 41 -51 61 -51 26 -195 16 -216 -16 -3 -5 -25 -18
-50 -29 -41 -19 -46 -20 -57 -5 -7 9 -13 24 -13 33 0 9 -4 20 -9 25 -5 6 -28
46 -51 90 -68 131 -114 168 -175 139 -36 -17 -57 -56 -69 -129 -9 -53 -35
-122 -61 -164 -19 -31 -25 -34 -80 -38 -33 -3 -82 -11 -110 -18 -49 -13 -50
-13 -73 13 -12 15 -25 38 -28 52 -3 14 -9 34 -14 45 -4 11 -13 40 -20 65 -22
82 -54 134 -89 144 -66 19 -109 -32 -135 -160 -9 -44 -33 -112 -53 -153 -31
-61 -37 -85 -39 -143 -1 -47 -7 -75 -18 -87 -9 -10 -16 -20 -16 -24 0 -3 -10
-23 -22 -44 -25 -41 -26 -46 -37 -117 -4 -28 -13 -52 -20 -54 -21 -7 -40 -58
-35 -94 8 -48 -48 -181 -96 -230 -20 -21 -41 -38 -46 -38 -21 0 -47 -68 -51
-135 -4 -53 -11 -78 -29 -102 -29 -38 -30 -53 -6 -53 16 0 18 -7 14 -53 -3
-41 0 -57 13 -71 18 -18 18 -20 -9 -126 -22 -83 -123 -288 -147 -295 -9 -3
-36 -37 -58 -75 -33 -56 -41 -78 -41 -119 0 -41 -5 -55 -30 -83 -16 -18 -30
-36 -30 -40 0 -11 -44 -62 -96 -113 -73 -71 -89 -123 -57 -185 9 -19 17 -61
19 -95 1 -33 2 -69 3 -81 0 -11 14 -40 30 -65 16 -24 32 -66 36 -93 4 -27 10
-56 15 -65 4 -9 16 -33 26 -55 25 -52 86 -101 140 -115 24 -6 44 -16 44 -21 0
-20 80 -87 119 -100 34 -11 50 -11 89 -1 26 7 54 12 62 11 8 0 46 -3 84 -6 84
-7 141 12 201 67 39 36 44 38 93 33 29 -3 57 -2 61 1 5 3 54 7 108 9 66 3 119
11 163 26 73 24 207 99 259 143 32 28 35 28 42 11 4 -11 8 -39 9 -64 1 -25 8
-81 16 -125 35 -187 35 -199 18 -261 -8 -33 -24 -92 -34 -133 -12 -45 -29 -84
-43 -100 -14 -14 -32 -40 -40 -56 -17 -33 -47 -226 -45 -290 0 -22 -5 -78 -12
-125 -22 -156 4 -387 59 -532 6 -16 8 -70 4 -131 -6 -100 -7 -106 -33 -126
-34 -24 -69 -76 -135 -196 -43 -77 -70 -110 -188 -225 -126 -123 -228 -204
-335 -269 -56 -33 -72 -66 -72 -148 0 -57 -5 -78 -32 -128 -31 -58 -32 -65
-35 -200 -2 -136 -13 -203 -40 -255 -7 -14 -13 -33 -13 -42 0 -9 -4 -20 -10
-23 -5 -3 -10 -14 -10 -23 0 -9 -6 -28 -13 -42 -7 -14 -24 -54 -37 -90 -13
-36 -29 -72 -37 -81 -7 -8 -13 -18 -13 -22 0 -5 -25 -61 -75 -172 -34 -73 -24
-162 27 -253 17 -31 20 -48 15 -105 -3 -37 -11 -83 -18 -101 -10 -28 -9 -56 5
-153 10 -65 22 -140 28 -166 6 -26 8 -50 5 -53 -6 -6 -151 111 -302 246 -167
149 -489 479 -619 635 -812 972 -1298 2126 -1416 3366 -31 322 -34 816 -6
1124 72 803 274 1523 625 2225 618 1235 1653 2243 2901 2825 680 318 1415 508
2175 565 115 8 845 6 905 -3z m2344 -850 c66 -16 76 -33 52 -99 -16 -46 -32
-84 -101 -233 -19 -40 -68 -182 -95 -275 -12 -41 -29 -97 -37 -125 -8 -27 -18
-59 -23 -71 -4 -12 -11 -48 -15 -80 -9 -75 -13 -80 -37 -54 -15 16 -29 21 -53
18 -31 -4 -32 -2 -24 20 23 60 3 89 -62 94 -33 2 -43 7 -40 18 1 8 14 71 26
140 38 199 74 389 89 465 8 39 18 92 23 120 8 48 9 49 53 61 57 15 181 15 244
1z m162 -105 c11 -9 35 -37 53 -63 27 -40 32 -54 26 -80 -8 -35 -55 -130 -98
-196 -15 -24 -27 -47 -27 -52 0 -5 -4 -11 -8 -13 -8 -3 -64 -116 -100 -198 -8
-19 -18 -42 -23 -51 -4 -9 -11 -33 -15 -54 -7 -37 -7 -37 -45 -31 -70 11 -105
-21 -97 -90 2 -24 -1 -30 -19 -32 -29 -4 -29 5 1 92 21 64 47 147 108 346 11
36 26 77 34 92 8 14 14 31 14 38 0 7 7 28 16 48 8 21 21 51 28 67 7 17 20 46
29 65 21 48 44 101 51 123 7 21 35 16 72 -11z m-3231 -397 c44 -8 98 -19 120
-25 83 -22 210 -63 215 -69 3 -3 21 -15 41 -26 52 -29 93 -66 124 -113 25 -38
26 -46 20 -102 -4 -33 -9 -60 -11 -60 -2 0 -20 12 -41 26 -21 14 -47 30 -58
35 -11 5 -35 19 -54 30 -84 50 -250 103 -421 135 -72 13 -122 15 -216 11 -66
-4 -128 -9 -137 -13 -26 -9 -22 36 6 77 22 33 25 34 90 34 55 1 71 5 94 25 27
23 91 48 128 49 11 1 56 -6 100 -14z m0 -209 c120 -27 287 -84 344 -118 154
-91 196 -131 195 -188 0 -34 -32 -119 -46 -120 -16 0 -19 22 -4 33 15 11 15
14 -4 34 -21 23 -50 21 -50 -2 0 -7 7 -16 16 -19 9 -4 14 -9 12 -12 -3 -3 -23
7 -44 21 -57 39 -120 69 -196 94 -38 13 -68 24 -68 26 0 2 12 3 26 2 40 -3 40
20 1 39 -39 19 -70 13 -61 -11 7 -17 -16 -21 -32 -5 -5 5 -68 19 -139 30 -183
30 -289 22 -400 -30 -16 -8 -33 -19 -37 -25 -5 -6 -8 -3 -8 8 0 9 3 17 8 17
16 1 44 29 37 40 -5 7 -11 8 -19 1 -9 -8 -12 5 -14 54 -2 55 0 65 18 75 24 13
26 30 3 30 -39 0 8 21 88 40 107 24 224 20 374 -14z m2587 -160 l-4 -33 38 6
c41 7 48 28 8 23 -20 -3 -25 0 -22 15 5 25 95 32 104 8 15 -38 -49 -100 -123
-118 -50 -13 -52 -15 -78 -97 -9 -30 -34 -93 -55 -140 -21 -47 -55 -125 -75
-175 -21 -49 -43 -101 -51 -115 -22 -41 -74 -158 -74 -167 0 -8 -39 -85 -98
-197 -18 -32 -32 -70 -32 -83 0 -36 25 -77 72 -117 34 -30 38 -36 21 -36 -11
0 -38 -15 -59 -34 -87 -77 -115 -98 -121 -93 -3 4 -9 77 -13 164 -9 224 -4
297 30 428 34 132 59 173 157 251 26 21 62 54 80 73 31 31 33 32 33 12 0 -33
23 -20 32 18 l9 32 20 -23 21 -23 -7 25 c-29 111 -29 109 -8 178 12 37 24 79
27 95 4 15 11 27 16 27 5 0 19 19 31 43 27 53 66 87 99 87 24 0 26 -3 22 -34z
m472 -52 c29 -27 36 -40 30 -57 -11 -38 -21 -40 -74 -13 -28 14 -60 26 -70 26
-20 0 -32 33 -24 67 11 44 79 33 138 -23z m-3159 -5 c33 -6 71 -15 85 -19 14
-5 37 -11 53 -14 24 -6 27 -11 27 -50 0 -28 9 -60 27 -92 21 -37 28 -65 30
-114 2 -36 4 -94 5 -130 4 -79 10 -90 53 -90 40 0 43 4 49 63 7 76 33 131 71
151 81 44 89 -48 16 -174 -5 -8 -14 -27 -22 -42 -13 -30 -37 -36 -57 -16 -7 7
-12 9 -12 4 0 -14 29 -36 48 -36 16 0 21 -9 26 -48 9 -66 38 -143 75 -194 l31
-44 -34 -69 c-19 -39 -46 -105 -61 -147 -15 -43 -32 -78 -36 -78 -5 0 -9 -6
-9 -12 0 -19 -216 -121 -274 -130 -19 -3 -46 -69 -46 -115 0 -13 -4 -23 -9
-23 -11 0 -21 50 -21 105 0 45 -10 53 -84 70 -32 7 -75 47 -57 53 6 2 27 -6
46 -18 48 -29 44 -8 -5 31 -42 34 -46 47 -33 122 l6 39 19 -64 c11 -34 25 -74
32 -87 11 -24 11 -24 14 8 3 27 -22 126 -44 177 -3 6 17 19 43 29 104 39 259
158 292 224 22 45 46 130 38 137 -3 4 -9 -7 -12 -22 -26 -113 -78 -176 -223
-267 -82 -52 -124 -67 -186 -67 -78 0 -156 57 -156 114 0 9 -4 16 -10 16 -6 0
-10 35 -10 86 0 85 -13 155 -34 183 -13 17 -9 262 4 275 7 7 10 4 10 -6 0 -28
22 -33 41 -9 10 12 20 17 24 11 8 -12 -25 -120 -42 -138 -7 -7 -13 -32 -13
-56 0 -36 4 -44 30 -59 22 -13 40 -16 67 -11 20 4 46 8 57 9 12 1 26 3 32 4
20 2 25 32 8 54 -16 22 -16 22 -10 -5 4 -19 2 -28 -6 -29 -7 -1 -26 -3 -43 -4
-16 -2 -42 -6 -56 -10 -31 -8 -59 15 -59 48 0 12 10 42 21 67 12 25 23 77 26
118 7 88 -5 107 -76 117 l-47 6 14 60 c13 50 20 63 46 76 17 9 33 19 36 23 6
10 145 26 190 22 19 -1 62 -7 95 -13z m3117 -106 c38 -28 48 -41 48 -63 0 -39
-11 -43 -60 -24 -32 13 -45 25 -57 55 -8 22 -18 39 -22 39 -3 0 -12 9 -19 21
-12 19 -11 20 25 13 20 -4 59 -22 85 -41z m-452 -4 l-21 -34 7 30 c4 17 12 33
18 37 19 12 18 1 -4 -33z m-2164 -61 c30 -18 85 -67 122 -108 171 -191 331
-315 451 -351 23 -7 40 -14 38 -16 -5 -4 -146 26 -172 37 -11 5 -31 12 -45 16
-14 4 -42 18 -62 30 -21 13 -41 24 -45 24 -5 0 -22 14 -40 30 -18 17 -36 30
-40 30 -12 0 -113 98 -113 110 0 5 -4 10 -10 10 -5 0 -10 5 -10 11 0 6 -11 25
-25 43 -14 18 -25 38 -25 44 0 7 -3 12 -8 12 -4 0 -16 16 -26 35 -10 19 -27
43 -38 55 -26 28 -15 25 48 -12z m2147 -102 c-5 -28 22 -106 38 -106 5 0 24
-13 42 -30 19 -16 43 -30 52 -30 10 0 35 -5 57 -12 32 -9 44 -9 73 5 l35 17 0
-30 c0 -16 -6 -49 -14 -72 -8 -24 -17 -59 -21 -78 -4 -19 -11 -41 -15 -50 -4
-8 -15 -46 -24 -85 -9 -38 -23 -95 -32 -125 -8 -30 -21 -79 -28 -107 -7 -29
-18 -58 -23 -65 -6 -7 -13 -30 -17 -50 -8 -46 -19 -48 -37 -7 -7 18 -23 45
-37 60 -21 25 -22 33 -13 62 6 18 18 67 27 108 8 40 21 105 29 142 8 38 24 97
36 130 29 81 39 126 29 132 -12 8 -27 -16 -45 -75 -10 -30 -24 -75 -32 -100
-8 -25 -24 -85 -35 -135 -11 -49 -26 -119 -35 -155 -8 -36 -17 -68 -21 -72 -4
-4 -32 5 -61 19 -46 23 -68 27 -140 28 -47 0 -103 -4 -125 -8 l-38 -8 20 33
c41 69 70 126 112 223 24 55 48 102 52 103 4 2 8 10 8 19 0 8 6 27 14 41 8 15
24 52 36 82 11 30 26 66 32 80 23 55 41 96 54 125 7 17 16 44 20 60 4 17 9 35
13 40 9 15 21 -75 14 -109z m-2971 55 c13 -5 31 -12 41 -15 10 -3 16 -10 12
-16 -3 -5 -15 -6 -28 -1 -14 5 -30 5 -40 0 -12 -7 -19 -4 -26 9 -16 30 0 39
41 23z m3432 -22 c31 -24 34 -57 7 -88 -18 -21 -19 -21 -50 -4 -31 18 -40 33
-21 33 6 0 10 18 10 40 0 46 13 51 54 19z m-34 -171 c0 -17 -49 -60 -82 -71
-13 -5 -18 -1 -18 14 0 15 5 19 19 14 24 -7 39 13 16 22 -19 7 -14 55 7 81 10
12 16 10 35 -14 13 -16 23 -37 23 -46z m-890 -106 c0 -5 -7 -17 -15 -28 -8
-10 -15 -26 -15 -34 0 -8 -7 -28 -15 -44 -8 -15 -15 -34 -15 -41 0 -7 -10 -41
-22 -76 -20 -58 -22 -83 -22 -279 0 -173 4 -227 18 -275 9 -33 21 -81 26 -107
10 -50 40 -121 76 -179 l23 -36 -42 -28 c-25 -16 -69 -32 -112 -39 -38 -7 -86
-19 -105 -28 -83 -36 -92 -38 -160 -32 -55 5 -80 3 -117 -11 -53 -20 -151 -25
-250 -11 -46 6 -63 6 -63 -3 0 -6 6 -12 13 -12 21 -2 -66 -18 -101 -18 -50 -1
-65 20 -58 77 l7 47 -20 -25 -21 -25 0 55 c0 30 -5 62 -10 70 -7 10 -10 -13
-10 -75 0 -58 4 -95 12 -103 8 -8 8 -12 1 -12 -13 0 -57 44 -91 90 -14 19 -31
40 -37 45 -20 17 -61 89 -69 118 -7 29 -26 37 -26 10 0 -42 81 -169 157 -246
46 -45 107 -70 159 -64 43 4 45 3 40 -17 -2 -11 -8 -50 -12 -86 -3 -36 -10
-69 -14 -75 -4 -5 -11 -30 -15 -55 -4 -25 -12 -51 -17 -57 -6 -7 -8 -13 -5
-13 8 0 -52 -150 -72 -179 -22 -33 -33 -61 -22 -61 10 0 46 40 62 70 13 24 13
24 32 -35 31 -99 47 -164 47 -192 0 -46 -89 -165 -134 -179 -12 -4 -39 -15
-61 -24 -22 -10 -51 -20 -65 -23 -24 -6 -24 -5 -5 8 44 32 76 71 99 119 14 28
23 52 21 54 -5 6 -45 -32 -45 -43 0 -20 -71 -86 -142 -132 -24 -15 -45 -31
-48 -34 -18 -25 -215 -72 -350 -84 l-65 -6 45 30 c53 35 61 42 119 104 66 69
43 68 -31 -2 -99 -93 -178 -141 -232 -141 -55 0 -128 42 -182 106 -27 31 -50
51 -52 45 -2 -5 1 -16 7 -23 50 -63 90 -102 120 -116 l36 -17 -59 -3 c-33 -2
-62 1 -65 5 -12 16 -61 43 -78 43 -10 0 -34 -8 -53 -18 -20 -11 -67 -22 -108
-25 l-72 -6 -15 36 c-23 54 -18 95 19 191 19 48 50 130 69 182 19 52 44 113
55 135 11 22 73 173 137 335 64 162 123 309 131 327 8 17 14 34 14 38 0 7 43
104 64 145 8 14 23 54 35 90 12 36 26 74 31 85 33 73 50 116 50 127 0 8 4 18
9 23 7 8 33 75 36 95 0 3 11 27 23 54 12 27 22 52 22 57 0 5 5 9 10 9 6 0 10
5 10 11 0 6 14 35 32 64 51 86 125 115 313 121 127 5 129 4 105 -13 -46 -33
-80 -77 -116 -151 -19 -41 -33 -76 -30 -79 2 -3 19 24 36 59 40 80 82 127 145
163 47 26 55 27 140 22 50 -3 117 -14 149 -25 l60 -19 -31 -16 c-17 -9 -37
-22 -45 -30 -7 -7 -31 -26 -53 -42 -41 -31 -57 -47 -50 -53 4 -5 89 49 93 59
2 5 7 9 12 9 5 0 35 18 68 41 47 33 71 42 125 49 36 4 70 11 76 15 6 3 11 2
11 -4 0 -21 -125 -131 -149 -131 -6 0 -11 -4 -11 -10 0 -17 16 -11 69 24 35
24 51 30 51 20 0 -8 -3 -14 -8 -14 -8 0 -36 -59 -30 -65 2 -2 36 39 76 93 120
161 141 179 252 212 75 22 131 46 140 60 3 5 32 26 65 49 58 39 85 50 85 33z
m-1325 -87 c22 -14 146 -48 244 -67 60 -12 102 -31 91 -41 -3 -2 -78 -7 -167
-10 l-163 -6 0 28 c0 15 -10 43 -23 62 -39 58 -40 59 -20 52 10 -4 27 -12 38
-18z m1638 -389 c30 -8 74 -26 97 -41 30 -19 45 -24 53 -16 14 14 27 14 27 1
0 -6 9 -20 19 -31 10 -11 22 -41 26 -67 6 -41 4 -48 -17 -65 -20 -17 -34 -19
-99 -14 -42 3 -92 12 -110 20 -19 9 -56 25 -83 37 -27 12 -55 27 -61 34 -6 6
-24 20 -39 31 -21 16 -56 66 -56 81 0 8 61 34 80 34 20 0 20 -1 6 -16 -30 -29
-20 -73 26 -116 23 -21 46 -38 52 -38 6 0 23 -7 38 -14 39 -21 128 -30 161
-17 21 8 26 8 21 0 -4 -7 -1 -10 7 -7 21 7 33 63 22 101 l-10 32 -9 -34 c-9
-31 -11 -33 -26 -17 -40 40 -114 66 -187 66 -45 0 -71 -4 -71 -11 0 -6 9 -13
20 -16 20 -5 29 -33 10 -33 -15 0 -50 42 -50 61 0 19 21 39 59 56 34 15 32 15
94 -1z m-2732 -23 c-28 -54 -39 -276 -21 -408 11 -76 66 -274 81 -289 5 -6 9
-18 9 -27 0 -23 62 -146 118 -233 l44 -70 -23 -70 c-13 -39 -29 -82 -36 -96
-7 -14 -13 -31 -13 -38 0 -7 -4 -20 -10 -30 -31 -57 -149 -424 -156 -487 l-7
-55 -23 28 c-13 15 -27 35 -30 45 -3 9 -9 17 -14 17 -4 0 -7 36 -6 79 l1 80
23 -15 c23 -15 24 -15 17 5 -3 12 -22 44 -41 72 -19 28 -37 62 -40 75 -3 13
-10 24 -14 24 -4 0 -10 8 -13 18 -3 9 -23 58 -45 107 -50 113 -107 284 -141
420 -5 22 -14 59 -20 81 -6 23 -11 53 -11 67 0 14 -4 29 -10 32 -5 3 -10 15
-10 26 0 10 -5 19 -11 19 -13 0 -6 -80 16 -187 8 -37 13 -69 11 -71 -2 -1 -12
15 -23 37 -11 22 -22 38 -25 36 -2 -3 -19 25 -37 60 -17 36 -34 65 -37 65 -15
0 54 -165 76 -180 18 -13 82 -139 106 -208 15 -42 35 -94 45 -115 34 -71 33
-91 -1 -131 -40 -44 -56 -45 -73 -3 -12 26 -32 41 -109 80 -52 26 -99 47 -105
47 -13 0 -46 47 -63 90 -14 35 -64 90 -82 90 -5 0 7 -19 26 -42 20 -23 36 -45
36 -50 0 -8 -52 12 -61 25 -15 20 -239 37 -239 18 0 -6 27 -10 59 -10 33 0 68
-4 79 -10 12 -6 31 -11 44 -11 35 -1 99 -34 136 -71 l34 -33 -24 -10 c-29 -13
-47 -36 -48 -58 0 -10 -6 -18 -14 -18 -8 0 -23 -11 -34 -25 -11 -14 -25 -25
-31 -25 -6 0 -11 -4 -11 -10 0 -5 -6 -10 -12 -10 -7 0 -29 -14 -48 -30 -19
-16 -46 -30 -60 -30 -43 0 -201 28 -213 38 -7 5 -24 12 -39 16 -23 5 -28 12
-28 35 0 59 8 64 49 34 20 -15 39 -32 43 -37 4 -6 10 -7 14 -3 4 4 -11 25 -34
48 -23 22 -42 44 -42 48 0 4 11 17 24 29 14 11 30 40 36 64 12 41 35 69 123
146 47 41 42 53 -8 22 l-37 -23 16 31 c9 17 43 58 76 91 67 67 100 116 100
146 0 12 13 36 30 55 l30 35 -6 -45 c-4 -25 -4 -43 -1 -40 3 3 26 55 50 115
45 111 118 265 140 292 59 75 97 104 159 121 l36 10 -19 -56 c-20 -59 -25 -94
-7 -52 39 89 54 114 91 145 48 41 140 95 162 95 9 0 13 5 10 10 -3 6 2 10 12
10 10 0 36 11 58 24 49 29 58 31 46 9z m2761 -73 c51 -14 57 -29 11 -25 -21 1
-29 0 -18 -2 38 -9 40 -23 4 -23 -28 0 -59 13 -89 37 -7 6 23 23 40 23 8 0 32
-5 52 -10z m87 -43 c15 -19 -6 -37 -43 -36 -30 0 -30 1 -8 11 12 6 22 17 22
25 0 17 14 17 29 0z m-2320 -173 c-17 -44 -46 -119 -64 -169 -49 -132 -164
-408 -174 -418 -5 -5 -12 0 -16 12 -3 12 -10 21 -15 21 -8 0 -61 121 -75 170
-3 14 -10 34 -14 45 -27 66 -43 133 -56 234 -20 154 -22 144 23 136 73 -13 78
-21 85 -141 4 -77 10 -112 21 -123 28 -27 36 -10 62 129 18 95 20 100 41 100
35 0 187 63 199 82 3 5 8 7 10 5 3 -2 -9 -40 -27 -83z m-2586 -302 c9 -21 17
-44 17 -50 0 -7 4 -12 8 -12 5 0 16 -19 26 -42 11 -24 27 -60 36 -80 55 -116
51 -245 -11 -374 -38 -81 -49 -121 -29 -109 6 3 15 -6 22 -22 11 -28 11 -28
21 22 l10 49 14 -44 c28 -93 53 -227 53 -292 0 -64 -12 -89 -24 -50 -13 41
-184 214 -234 238 -20 9 -39 20 -42 23 -8 10 -97 51 -122 58 -13 3 -36 7 -52
10 -26 5 -28 8 -23 39 7 40 52 110 85 132 22 14 22 14 22 -42 0 -31 5 -56 10
-56 6 0 10 7 10 17 0 14 2 14 20 -2 27 -25 33 -15 21 32 -15 53 -15 158 -2
217 13 52 55 148 75 169 21 21 46 96 46 136 0 42 8 71 19 71 4 0 15 -17 24
-38z m-625 -48 c7 -23 12 -53 12 -68 0 -14 4 -34 9 -44 62 -122 91 -181 91
-186 0 -3 -7 -6 -15 -6 -34 0 -128 -41 -161 -69 -41 -37 -50 -38 -58 -8 -13
49 -5 107 23 169 16 35 36 99 46 143 9 44 18 91 21 104 6 30 17 18 32 -35z
m879 -209 c-40 -41 -79 -75 -85 -75 -7 0 -12 16 -12 40 0 35 3 40 23 40 12 0
49 16 82 34 33 19 61 34 63 35 2 0 -30 -33 -71 -74z m213 -25 c-8 -5 -21 -10
-28 -10 -20 0 -192 -82 -192 -91 0 -9 83 18 125 41 58 32 122 43 216 38 50 -3
96 -11 102 -17 6 -6 20 -12 32 -13 11 0 -34 -4 -100 -9 -77 -4 -134 -13 -160
-24 -46 -20 -33 -31 19 -16 20 5 36 7 36 5 0 -9 -88 -42 -146 -55 -32 -7 -84
-25 -114 -41 -53 -27 -110 -37 -110 -19 0 5 14 15 30 23 36 15 41 32 6 18 -13
-5 -27 -6 -31 -2 -4 4 10 12 31 18 22 6 38 17 40 27 2 18 -21 23 -31 7 -12
-20 -35 -10 -35 15 0 16 6 25 16 25 9 0 28 6 42 14 103 53 165 74 227 75 29 0
36 -2 25 -9z m-668 -25 c-22 -130 -27 -151 -41 -159 -9 -5 -31 -25 -48 -43
-18 -19 -33 -31 -33 -26 0 5 4 13 9 19 14 15 23 54 13 54 -14 0 -44 -87 -49
-142 -3 -27 -9 -48 -14 -48 -13 0 -22 66 -14 117 8 54 25 82 79 135 30 29 36
38 22 38 -23 0 -114 -93 -120 -122 -3 -13 -7 -34 -10 -48 -4 -18 -20 -33 -60
-53 -62 -31 -155 -117 -180 -165 -9 -18 -18 -32 -20 -32 -7 0 23 106 37 131
23 44 71 114 95 141 13 14 22 32 20 39 -3 8 -11 4 -26 -11 -29 -32 -28 -9 2
39 39 61 94 101 206 149 14 6 50 10 80 9 49 -2 55 -4 52 -22z m-322 -74 c0
-18 -30 -32 -62 -29 l-33 4 35 16 c40 19 60 22 60 9z m-40 -49 c0 -9 -22 -60
-41 -94 -5 -10 -9 -23 -9 -28 0 -6 -11 -35 -25 -64 -23 -49 -27 -52 -55 -48
-26 4 -29 7 -18 20 12 14 10 14 -12 2 -14 -7 -27 -16 -30 -19 -8 -10 -93 -51
-97 -47 -7 7 19 61 40 84 19 20 88 57 172 93 24 10 27 13 11 17 -26 6 -103
-25 -158 -64 -27 -19 -48 -30 -48 -26 0 12 32 56 52 70 11 8 26 22 36 31 28
30 69 52 119 66 60 17 63 17 63 7z m1125 -23 c59 -9 89 -20 135 -50 33 -21 60
-40 60 -43 0 -2 -17 2 -37 10 -45 16 -133 18 -133 4 0 -5 21 -10 48 -10 26 0
60 -7 76 -15 15 -8 34 -15 40 -15 7 0 21 -7 32 -16 18 -15 18 -15 -6 -9 -52
13 -77 15 -161 16 -47 0 -119 -7 -160 -15 -115 -22 -163 -27 -179 -16 -11 7
-6 10 21 10 19 0 39 4 45 8 5 5 29 14 54 21 25 7 54 17 65 21 l20 9 -20 0
c-11 0 -49 -6 -85 -14 -76 -17 -156 -19 -165 -5 -4 6 15 10 50 10 41 0 71 7
111 27 49 24 69 43 44 43 -5 0 -10 -4 -10 -10 0 -5 -11 -10 -25 -10 -14 0 -25
5 -25 10 0 7 -7 7 -21 0 -11 -6 -30 -10 -42 -8 -20 3 -18 6 13 22 31 17 97 31
157 35 12 0 56 -4 98 -10z m-210 -59 c-3 -5 -11 -10 -16 -10 -6 0 -7 5 -4 10
3 6 11 10 16 10 6 0 7 -4 4 -10z m-195 -45 c15 -28 14 -30 -17 -39 -19 -6 -23
-3 -23 13 0 25 10 51 19 51 4 0 14 -11 21 -25z m-554 -100 c-1 -1 -27 1 -59 3
-57 4 -58 5 -40 22 11 10 33 24 49 33 l29 15 11 -36 c6 -21 10 -37 10 -37z
m1011 36 c38 -6 76 -19 100 -35 l38 -26 -47 0 c-66 0 -69 -17 -4 -22 39 -3 86
-20 168 -60 115 -56 164 -74 232 -83 22 -2 41 -7 44 -10 13 -13 -16 -19 -102
-23 -86 -4 -145 5 -222 35 -11 4 -15 2 -12 -7 5 -15 93 -50 126 -50 48 0 9
-19 -52 -25 -63 -7 -192 7 -224 25 -9 5 -39 19 -65 32 -48 22 -80 49 -41 34
10 -4 33 -10 49 -12 l30 -5 -25 15 c-14 8 -33 15 -42 16 -10 0 -18 5 -18 11 0
6 10 10 23 9 46 -4 51 2 12 16 l-40 14 73 -5 c39 -2 78 -7 85 -12 6 -4 20 -9
31 -10 15 -3 17 -1 7 11 -19 23 -110 49 -176 51 -105 2 -125 5 -125 15 0 6 10
10 23 10 12 0 31 7 41 15 19 14 18 15 -15 16 -29 2 -30 3 -7 6 14 2 32 10 38
18 10 11 6 16 -16 21 -25 7 -26 8 -9 15 27 10 49 10 122 0z m-417 -40 c11 -35
11 -40 -8 -59 l-21 -21 -10 32 c-5 18 -12 40 -16 50 -5 12 -2 17 9 17 9 0 16
5 16 10 0 24 18 7 30 -29z m65 13 c17 -14 54 -38 83 -51 29 -14 63 -39 75 -55
12 -16 47 -56 77 -89 30 -33 63 -77 74 -97 10 -20 22 -44 27 -52 5 -8 16 -31
24 -50 44 -97 71 -149 78 -149 11 -1 9 37 -3 44 -5 3 -10 13 -10 20 0 8 -11
38 -24 67 -13 29 -27 64 -31 78 -6 21 -3 19 18 -10 56 -80 227 -350 227 -360
0 -17 28 -42 32 -29 5 16 44 -42 89 -131 22 -44 44 -80 50 -80 6 0 7 6 4 13
-4 6 16 -12 44 -42 28 -30 51 -60 51 -67 0 -7 13 -37 28 -67 l28 -54 -46 -74
c-37 -63 -100 -150 -154 -216 -42 -53 -233 -243 -242 -243 -7 0 -14 -4 -16 -9
-4 -13 -129 -114 -175 -142 -21 -13 -44 -29 -51 -36 -7 -7 -17 -13 -21 -13 -4
0 -21 -11 -37 -25 -30 -26 -202 -115 -223 -115 -6 0 -19 -4 -29 -10 -27 -15
-143 -50 -168 -50 -20 0 -23 7 -33 88 -6 48 -15 117 -21 155 -14 92 -14 90 23
106 34 16 120 76 159 113 37 34 92 127 107 178 7 25 19 58 27 73 8 16 14 33
14 39 0 5 7 24 15 41 31 69 59 317 35 317 -10 0 -20 -33 -19 -65 0 -11 -4 -42
-9 -70 -12 -60 -15 -35 -12 95 2 101 -16 257 -36 313 -12 35 -12 43 1 63 30
46 10 175 -30 191 -13 4 -14 8 -4 14 18 11 18 281 0 324 -11 26 -41 128 -41
140 0 11 17 3 45 -21z m1275 -4 c19 -11 58 -31 87 -44 29 -14 57 -34 62 -45
12 -21 15 -139 5 -165 -9 -25 -24 -19 -24 9 0 27 -44 77 -112 129 -59 44 -45
11 23 -56 70 -69 87 -118 51 -151 -19 -17 -20 -17 -41 18 -11 19 -29 38 -38
42 -10 4 -20 10 -23 13 -9 13 -100 62 -100 55 0 -12 47 -53 94 -80 29 -17 49
-38 61 -66 18 -40 18 -40 -4 -62 -13 -13 -24 -18 -29 -12 -21 30 -122 103
-150 109 -17 4 -32 5 -32 3 0 -3 27 -24 60 -46 33 -23 69 -49 80 -58 28 -24
26 -61 -4 -75 -21 -9 -30 -7 -64 20 -45 36 -89 58 -99 49 -4 -4 2 -14 13 -22
18 -14 18 -14 -8 -15 -56 0 -93 32 -109 95 -7 28 -8 29 -14 8 -4 -13 -11 -23
-16 -23 -52 0 30 178 102 223 30 19 41 9 14 -13 -8 -7 -15 -29 -15 -50 0 -24
-7 -43 -20 -55 -15 -14 -20 -29 -18 -54 4 -46 28 -54 28 -9 0 18 7 42 15 52 8
11 15 34 15 52 0 17 9 42 19 55 13 17 17 33 14 55 -5 27 -1 34 26 50 17 10 31
25 31 33 0 24 31 51 59 51 15 0 42 -9 61 -20z m-2058 -42 c4 -30 48 -39 48
-10 0 16 8 21 41 24 35 3 42 0 49 -18 11 -28 37 -37 48 -17 13 22 31 8 25 -18
-4 -12 0 -25 8 -30 26 -16 -14 -10 -46 7 -20 11 -65 18 -132 22 -57 2 -103 7
-103 10 0 8 43 51 52 51 4 1 8 -9 10 -21z m-162 -23 c0 -18 -7 -26 -26 -31
-17 -4 -29 -2 -35 7 -10 17 6 36 34 42 12 2 23 5 25 6 1 0 2 -10 2 -24z m-115
-37 c-2 -25 -44 -53 -59 -38 -11 11 26 47 60 60 0 0 0 -10 -1 -22z m596 2 c24
-11 36 -20 27 -20 -13 0 -18 -8 -18 -26 0 -21 4 -25 23 -22 14 2 21 9 21 21
-2 22 7 22 39 -3 14 -11 30 -20 35 -20 5 0 12 -7 16 -15 4 -10 -1 -15 -14 -15
-13 0 -20 -7 -20 -20 0 -20 -15 -28 -22 -12 -4 11 -113 80 -147 94 -15 6 -21
12 -13 15 6 3 12 13 12 24 0 24 7 24 61 -1z m412 -85 c-16 -12 -19 -11 -24 13
-11 47 -10 62 5 56 8 -3 18 1 22 8 6 9 10 0 12 -25 2 -29 -2 -42 -15 -52z
m-593 50 c75 -26 219 -101 240 -124 3 -3 25 -22 50 -42 71 -58 113 -100 156
-159 38 -51 40 -59 39 -115 -2 -44 -11 -78 -34 -127 -17 -36 -31 -69 -31 -72
0 -26 -164 -315 -191 -336 -3 -3 -9 -15 -13 -27 -4 -13 -11 -23 -15 -23 -4 0
-18 -21 -31 -47 -13 -27 -48 -84 -78 -128 -79 -115 -89 -127 -95 -112 -2 6
-29 21 -58 31 -30 11 -65 28 -79 38 -16 13 -26 15 -28 8 -5 -14 37 -60 55 -60
7 0 21 -4 31 -9 9 -6 29 -12 45 -16 34 -7 34 -12 -6 -57 -17 -20 -52 -62 -77
-92 -25 -30 -53 -55 -62 -55 -9 -1 -25 -14 -35 -31 -9 -16 -20 -30 -24 -30 -4
0 -25 28 -48 63 -62 95 -72 108 -126 162 -110 109 -262 185 -371 185 -68 0
-75 6 -59 43 27 63 43 103 71 177 15 41 37 91 48 110 27 48 34 245 13 345 -18
81 -15 91 49 150 46 44 94 115 94 141 0 19 69 106 117 147 25 22 120 67 140
67 2 0 3 -22 3 -50 0 -40 3 -48 15 -44 8 4 15 15 15 26 0 12 10 36 22 56 l21
35 96 -6 c53 -4 116 -14 141 -22z m2143 -50 c16 -34 16 -36 -13 -98 -22 -45
-38 -66 -61 -76 -23 -10 -34 -10 -42 -2 -8 8 -8 11 0 11 6 0 14 14 18 30 4 17
10 30 14 30 4 0 17 9 29 20 17 16 22 32 22 70 0 59 10 63 33 15z m-2633 10 c0
-3 -9 -15 -20 -27 -22 -24 -26 -18 -8 12 12 19 28 27 28 15z m878 -75 c5 0 12
-7 16 -15 3 -8 1 -15 -4 -15 -6 0 -10 -9 -10 -20 0 -24 26 -38 42 -22 7 7 18
2 34 -18 30 -35 30 -40 2 -40 -14 0 -50 26 -93 65 -45 42 -64 65 -52 65 11 0
17 8 17 23 l1 22 18 -22 c11 -13 24 -23 29 -23z m232 -20 c0 -43 -3 -50 -20
-50 -17 0 -20 7 -20 44 0 34 4 46 18 49 9 3 18 5 20 6 1 0 2 -21 2 -49z m935
-6 c-9 -26 -17 -69 -18 -96 -1 -26 -4 -48 -7 -48 -3 0 -22 18 -43 40 -22 21
-47 42 -58 45 -10 4 -19 10 -19 15 0 5 -9 12 -20 15 -11 3 -20 10 -20 14 0 11
63 31 101 31 19 0 48 8 64 19 17 10 31 17 33 16 2 -2 -4 -25 -13 -51z m697 9
c0 -10 0 -57 -2 -104 -3 -111 20 -167 98 -241 l56 -53 4 -91 c3 -76 0 -98 -17
-136 -22 -49 -68 -85 -141 -110 l-45 -15 -38 43 c-27 31 -34 44 -23 44 9 0 16
4 16 10 0 18 -25 65 -44 83 -19 17 -19 19 -3 46 22 38 22 78 -1 90 -11 6 -34
5 -65 -2 -26 -5 -49 -8 -52 -5 -3 2 4 30 14 61 11 31 23 88 27 127 5 57 10 70
24 70 26 0 104 79 140 143 33 58 49 71 52 40z m-822 -104 c33 -26 40 -35 27
-37 -10 -2 -23 1 -30 6 -23 17 -46 22 -41 8 5 -14 42 -29 142 -60 47 -15 55
-15 81 -1 18 9 32 11 36 5 12 -20 -82 -52 -160 -53 -41 -1 -75 -3 -75 -4 0 -1
15 -10 33 -20 23 -12 54 -16 112 -15 l80 1 -75 -20 c-51 -14 -89 -18 -120 -14
-54 8 -139 34 -160 49 -8 6 -37 22 -63 36 -51 26 -121 79 -114 86 2 2 24 -6
48 -20 49 -26 104 -42 95 -27 -3 5 -27 19 -53 32 -37 18 -43 24 -28 29 15 5
13 9 -16 29 -19 13 -25 20 -14 16 11 -3 34 -8 50 -11 23 -3 16 3 -30 26 l-60
31 70 -5 c39 -3 95 -2 125 2 49 7 57 5 75 -13 11 -12 40 -37 65 -56z m-818
-24 c-2 -15 -11 -25 -22 -25 -13 0 -16 6 -12 25 2 15 11 25 22 25 13 0 16 -6
12 -25z m-89 -54 c-14 -13 -17 -13 -30 4 -8 12 -10 21 -3 23 5 2 10 11 10 20
0 13 5 12 19 -7 17 -22 17 -26 4 -40z m98 -29 c29 -26 32 -34 32 -85 0 -47 -4
-61 -23 -77 -46 -40 -90 -20 -111 50 -20 66 11 135 63 139 4 1 22 -12 39 -27z
m1328 -90 c-11 -67 -23 -102 -32 -92 -6 7 18 144 28 159 14 24 15 3 4 -67z
m-486 -42 c21 0 63 -12 95 -28 31 -16 73 -36 92 -44 l35 -16 -70 -7 c-55 -6
-80 -4 -118 9 -60 21 -70 16 -22 -13 27 -16 53 -21 103 -21 51 0 73 -5 92 -20
14 -11 34 -20 45 -20 18 -1 18 -2 3 -11 -34 -19 -169 -23 -238 -5 -102 26
-194 87 -226 148 -23 44 -15 55 15 21 15 -18 31 -33 34 -33 13 0 7 16 -13 38
-23 25 -15 29 15 8 11 -7 31 -17 45 -21 22 -7 23 -6 11 9 -7 9 -19 16 -27 16
-7 0 -15 4 -18 9 -3 4 20 2 52 -5 31 -8 74 -14 95 -14z m327 -5 c0 -10 -10
-15 -32 -15 l-33 1 25 14 c32 18 40 18 40 0z m1054 -36 c51 -40 75 -110 59
-169 -7 -24 -8 -23 -13 9 -8 51 -26 49 -32 -4 -6 -51 -22 -75 -50 -75 -11 0
-18 -5 -15 -12 2 -8 20 -12 42 -12 l38 2 -24 -19 c-13 -10 -34 -19 -46 -19
-27 0 -83 46 -83 70 0 10 -7 23 -15 30 -23 19 -21 131 4 152 10 8 20 20 22 24
6 14 53 43 70 43 9 1 28 -8 43 -20z m-2294 -71 c0 -16 -4 -28 -10 -28 -5 0
-10 5 -10 11 0 7 -10 9 -25 5 l-25 -6 17 34 c14 30 18 33 34 23 11 -7 19 -23
19 -39z m84 -9 c7 -14 15 -57 19 -96 l6 -70 -25 5 c-14 2 -23 6 -21 9 3 2 1
19 -3 38 -6 28 -4 34 11 38 27 7 23 36 -6 47 -17 7 -25 17 -25 34 0 32 26 29
44 -5z m1159 -3 l-16 -34 -39 14 c-21 7 -44 17 -50 21 -12 7 58 29 99 32 22 1
22 0 6 -33z m2157 -6 c3 -4 23 -18 45 -32 41 -26 114 -93 150 -138 55 -69 110
-164 227 -389 21 -41 45 -82 53 -91 8 -9 15 -19 15 -23 0 -3 20 -38 45 -76 25
-38 45 -73 45 -77 0 -4 11 -22 25 -40 14 -18 25 -37 25 -42 0 -6 3 -12 8 -14
4 -1 25 -25 47 -53 35 -45 284 -304 393 -408 23 -23 42 -44 42 -47 0 -3 -26
-14 -57 -25 -32 -10 -78 -33 -103 -50 -73 -50 -72 -50 -58 -18 7 15 18 34 25
41 13 13 18 32 9 32 -9 0 -76 -68 -76 -76 0 -5 -16 -26 -35 -48 -19 -21 -35
-44 -35 -51 0 -7 -4 -15 -8 -17 -5 -1 -20 -23 -34 -47 l-26 -43 -40 53 c-22
30 -75 124 -117 209 -42 85 -85 171 -95 190 -59 111 -200 410 -206 435 -6 28
-42 104 -54 115 -3 3 -19 26 -35 52 -17 27 -36 48 -42 48 -7 0 -13 5 -13 10 0
6 -16 28 -36 48 -20 20 -53 60 -74 87 -72 96 -147 165 -236 216 -143 83 -244
144 -244 150 0 5 103 35 160 45 59 11 108 27 175 55 76 32 120 39 135 19z
m-2018 -22 c46 -13 33 -28 -24 -28 -36 0 -50 15 -31 33 8 9 9 9 55 -5z m-1442
-17 c0 -5 9 -11 20 -13 l20 -3 -20 -37 c-11 -21 -20 -43 -20 -50 0 -20 -71
-158 -81 -158 -5 0 -9 -7 -9 -15 0 -8 -4 -15 -9 -15 -5 0 -13 -10 -16 -21 -7
-22 -59 -102 -82 -127 -7 -7 -13 -16 -13 -20 0 -4 -16 -25 -35 -47 -23 -26
-35 -34 -35 -23 0 9 -7 19 -16 22 -15 6 -15 8 -2 24 9 9 19 28 23 41 8 25 8
25 24 5 14 -17 19 -18 29 -8 17 18 15 44 -3 44 -8 0 -15 3 -15 6 0 6 36 70 47
83 2 3 9 -3 16 -13 8 -11 19 -15 30 -10 21 8 22 40 2 51 -9 5 -12 17 -8 31 5
19 10 22 39 16 30 -5 34 -4 34 14 0 12 -7 25 -16 30 -14 8 -14 13 5 48 11 21
20 34 21 28 0 -22 40 -23 51 -2 12 23 -6 52 -28 44 -10 -4 -11 -1 -3 14 5 10
14 30 20 44 9 25 30 36 30 17z m1270 -28 c-1 -5 -9 -26 -20 -48 -11 -22 -19
-44 -20 -49 0 -5 -8 -27 -17 -47 -17 -36 -20 -38 -53 -32 -19 3 -39 8 -45 12
-5 3 -16 6 -22 7 -16 3 -83 44 -83 51 0 3 7 3 15 -1 17 -6 21 9 5 19 -5 3 -10
11 -10 16 0 6 15 -1 33 -15 50 -38 58 -31 13 9 -38 33 -38 35 -15 36 l24 1
-25 7 c-17 5 -21 9 -12 15 21 13 57 -4 106 -50 17 -16 45 -24 50 -15 7 11 -23
37 -52 46 -33 10 -19 18 51 31 34 6 65 12 70 13 4 0 7 -2 7 -6z m200 -8 c0 -6
-58 -37 -97 -51 -36 -13 -39 -8 -21 31 10 22 17 25 65 25 29 0 53 -2 53 -5z
m-1387 -127 c8 -144 1 -252 -24 -408 -25 -160 -48 -216 -107 -272 -77 -71
-174 -108 -284 -108 -30 0 -46 -7 -67 -27 -15 -16 -53 -52 -86 -81 l-59 -54
-12 43 c-22 74 -15 95 57 169 l65 68 13 -29 c7 -16 17 -29 23 -29 12 0 -1 62
-15 72 -10 6 22 58 65 103 11 11 47 59 81 106 34 47 73 96 85 110 13 13 28 33
33 44 14 29 31 56 59 95 44 61 133 235 145 283 13 52 22 26 28 -85z m1519 75
c10 -9 18 -23 18 -31 0 -10 -8 -6 -25 12 -14 15 -25 29 -25 32 0 9 14 3 32
-13z m408 -47 c0 -25 -5 -35 -19 -39 -20 -5 -21 2 -3 46 15 36 22 34 22 -7z
m78 -21 c2 -17 8 -34 13 -39 5 -6 9 -17 9 -25 0 -22 94 -111 116 -111 13 0 7
10 -23 38 -42 37 -93 118 -93 146 0 12 11 16 45 16 26 0 45 -5 45 -11 0 -14
41 -48 58 -49 6 0 12 -4 12 -10 0 -17 74 -11 108 10 17 11 32 24 32 28 0 5 55
13 123 17 203 14 240 10 214 -26 -17 -22 -95 -78 -137 -97 l-35 -16 28 -4 c35
-4 100 33 150 87 l38 41 132 -69 c160 -83 309 -172 359 -215 20 -17 66 -56
101 -86 62 -53 158 -182 205 -275 35 -71 69 -237 103 -515 28 -226 57 -345
112 -459 32 -67 34 -22 4 87 -33 116 -43 164 -56 247 -16 100 -31 223 -31 248
0 21 1 21 13 -3 7 -14 35 -81 61 -150 26 -69 54 -139 62 -157 8 -17 14 -36 14
-41 0 -6 7 -23 15 -39 8 -15 24 -48 35 -73 27 -59 106 -208 118 -223 6 -7 33
-52 61 -102 77 -133 78 -190 5 -248 -13 -10 -29 -33 -35 -52 -7 -19 -16 -35
-19 -35 -4 0 -18 15 -33 33 -56 70 -155 187 -236 278 -135 151 -141 158 -141
164 0 4 -6 12 -12 19 -22 22 -205 219 -237 256 -50 55 -213 284 -224 315 -3 6
-7 7 -11 4 -7 -7 77 -157 97 -174 7 -6 21 -26 31 -45 27 -48 105 -145 176
-219 14 -14 48 -53 76 -86 59 -71 90 -108 124 -145 14 -15 41 -46 60 -70 19
-24 46 -55 60 -70 29 -31 69 -80 108 -129 15 -19 34 -42 42 -51 49 -53 107
-128 136 -177 37 -63 44 -115 20 -161 -15 -29 -50 -62 -65 -62 -5 0 -11 -3
-13 -7 -4 -11 -64 -43 -79 -43 -8 0 -43 -9 -80 -21 -76 -24 -153 -90 -164
-140 -7 -30 -25 -40 -25 -15 0 8 -11 36 -25 62 -14 26 -25 55 -25 65 0 11 -4
19 -10 19 -5 0 -13 12 -16 27 -4 14 -18 45 -31 67 l-25 41 6 -35 c10 -57 48
-170 57 -170 5 0 9 -6 9 -12 0 -7 14 -42 30 -77 35 -73 31 -85 -31 -101 -19
-5 -59 -16 -90 -24 -77 -22 -263 -28 -327 -12 -27 8 -88 32 -135 55 -83 40
-177 71 -217 71 -11 0 -23 8 -28 18 -14 26 -60 161 -73 212 -17 71 -68 307
-85 400 -17 88 -54 214 -99 335 -52 140 -74 245 -81 380 -3 72 -12 153 -20
180 -7 28 -18 109 -24 180 -6 72 -15 150 -19 175 -12 59 -6 62 16 11 10 -22
21 -41 25 -41 5 0 8 -5 8 -10 0 -35 158 -195 175 -178 3 2 -21 31 -51 64 -68
72 -114 141 -144 214 -13 30 -28 61 -34 69 -13 17 -6 14 62 -32 24 -16 46 -26
50 -22 4 4 1 10 -6 12 -7 3 -18 10 -25 16 -6 7 -36 32 -66 57 -30 24 -70 69
-89 98 -46 73 -69 99 -120 134 -24 16 -41 32 -39 35 7 6 128 -26 152 -41 11
-7 38 -22 60 -35 l40 -23 -48 46 c-27 25 -56 46 -65 46 -11 0 -13 3 -5 11 7 7
17 7 29 2 11 -5 56 -28 102 -51 90 -44 105 -37 28 15 -78 53 -156 72 -272 66
-67 -3 -121 0 -168 10 -81 18 -191 7 -243 -23 l-32 -19 -43 42 c-24 23 -60 51
-81 62 -20 11 -37 27 -37 36 0 9 -7 22 -15 29 -9 7 -14 14 -12 16 7 7 72 -30
129 -73 66 -51 83 -54 73 -15 -3 15 -11 29 -16 30 -5 2 -9 8 -9 12 0 5 -14 24
-30 42 l-31 33 27 21 c15 12 45 25 67 28 55 9 177 67 207 99 32 34 40 34 40 0
0 -59 77 -164 148 -202 35 -19 26 -4 -42 70 -50 55 -66 80 -80 127 -9 32 -16
70 -16 84 0 23 3 25 33 19 26 -6 33 -12 35 -36z m-617 15 c82 -22 182 -92 108
-76 -19 4 -59 10 -89 13 -30 2 -70 13 -88 24 -18 10 -39 19 -47 19 -17 0 -28
17 -20 30 7 11 73 6 136 -10z m-1291 -49 c0 -55 -2 -59 -25 -63 -24 -5 -25 -3
-25 43 0 37 4 49 15 49 9 0 18 7 21 15 11 27 14 16 14 -44z m1208 -22 c53 -29
151 -91 182 -116 60 -47 80 -66 80 -76 0 -8 -3 -8 -8 -2 -22 30 -105 56 -194
61 -51 3 -104 9 -118 14 -14 5 -37 11 -52 14 -16 4 -28 11 -28 17 0 7 10 9 23
6 12 -3 35 -9 51 -13 19 -4 27 -3 23 3 -4 6 -24 13 -46 17 l-39 6 24 50 c13
27 29 50 35 50 6 0 36 -14 67 -31z m-218 -26 c0 -40 -15 -44 -45 -13 l-29 30
37 0 c29 0 37 -4 37 -17z m-30 -60 c0 -22 -16 -14 -28 12 -11 23 -10 24 8 13
11 -7 20 -18 20 -25z m-968 -41 c-3 -31 -8 -37 -28 -38 -22 -2 -24 2 -24 40 0
41 1 42 28 38 25 -3 27 -7 24 -40z m951 5 c-7 -11 -23 2 -23 19 0 12 2 12 14
2 8 -7 12 -16 9 -21z m135 -33 c14 -45 4 -241 -12 -217 -15 23 -33 78 -41 125
-8 45 -25 41 -25 -6 0 -83 64 -201 130 -238 22 -13 40 -27 40 -31 0 -19 71
-117 85 -117 8 0 15 -7 15 -15 0 -8 5 -15 10 -15 6 0 10 -6 10 -13 0 -32 106
-107 151 -107 18 0 15 5 -19 30 -23 16 -49 47 -59 67 -9 21 -20 45 -24 54 -6
13 3 12 49 -7 32 -13 62 -24 68 -24 13 0 34 -43 34 -70 0 -15 7 -20 24 -20 14
0 27 -4 30 -8 15 -25 -27 -258 -54 -297 -4 -5 -17 -39 -30 -75 -13 -36 -26
-69 -30 -75 -4 -5 -17 -39 -30 -75 -13 -36 -26 -67 -29 -70 -3 -3 -16 -25 -27
-50 -79 -165 -149 -306 -154 -310 -3 -3 -21 -30 -40 -60 -76 -123 -151 -213
-311 -372 -92 -93 -170 -168 -174 -168 -3 0 -12 -6 -19 -12 -97 -93 -260 -210
-332 -237 -43 -17 -51 -17 -83 -4 -41 17 -95 12 -122 -13 -18 -16 -23 -15 -91
32 -40 27 -97 74 -127 105 -53 53 -131 176 -131 205 0 8 -4 14 -8 14 -24 0
-49 137 -34 188 6 20 18 66 27 102 9 36 23 87 31 114 8 26 14 57 14 67 0 41
17 16 32 -48 8 -38 25 -90 37 -118 48 -108 103 -215 112 -215 5 0 9 -7 9 -15
0 -8 4 -15 8 -15 5 0 15 -11 22 -25 7 -14 16 -23 18 -20 5 5 -47 125 -59 135
-10 9 -59 114 -59 127 0 7 -4 21 -9 31 -36 66 -115 396 -141 594 -5 37 -12 78
-15 91 -6 22 -2 25 42 36 84 20 206 62 263 89 61 29 184 106 214 134 11 10 25
18 31 18 20 0 195 145 298 247 54 54 146 159 203 233 57 74 109 140 114 147 6
7 10 15 10 19 0 4 6 15 14 23 8 9 22 32 33 51 32 59 87 131 94 123 3 -5 11
-22 17 -39z m51 4 c46 -42 61 -97 64 -228 4 -127 -3 -136 -23 -35 -6 33 -23
77 -36 97 -19 30 -24 51 -24 101 0 36 -5 68 -12 75 -22 22 7 13 31 -10z m214
-42 c20 -16 37 -32 37 -36 0 -9 -80 13 -127 35 -17 8 -37 15 -45 15 -17 -1 30
-40 48 -40 8 0 14 -5 14 -11 0 -5 5 -7 10 -4 6 3 10 2 10 -4 0 -5 20 -13 45
-17 25 -3 48 -10 51 -15 3 -5 14 -9 24 -9 10 0 25 -6 32 -13 7 -6 29 -25 48
-41 20 -17 26 -26 15 -22 -11 4 -40 12 -65 18 -25 6 -69 17 -97 25 -29 8 -58
13 -65 10 -16 -5 51 -35 114 -50 39 -10 50 -18 65 -47 10 -19 21 -37 24 -40 3
-3 11 -20 18 -38 8 -17 29 -46 48 -62 20 -18 28 -30 19 -30 -28 0 -63 22 -80
50 -23 39 -44 60 -62 60 -11 0 -9 -8 9 -32 31 -42 50 -91 45 -115 -4 -15 -7
-14 -17 8 -7 15 -47 48 -88 75 -41 26 -88 63 -105 83 -25 29 -29 31 -23 11 4
-13 13 -30 19 -37 23 -29 71 -73 79 -73 10 0 28 -15 67 -55 23 -23 27 -31 14
-33 -16 -4 -69 28 -118 72 -16 14 -31 24 -34 22 -2 -3 5 -24 16 -48 23 -49 36
-88 29 -88 -3 0 -17 20 -32 45 -14 25 -30 43 -34 40 -15 -9 -30 78 -35 206 -4
119 -9 141 -44 213 -3 4 27 7 64 5 57 -4 76 -9 107 -33z m-1306 -38 c-3 -7 -5
-2 -5 12 0 14 2 19 5 13 2 -7 2 -19 0 -25z m-57 -29 c0 -35 -2 -39 -26 -39
-20 0 -25 4 -20 16 3 9 6 28 6 44 0 23 3 27 20 23 16 -4 20 -14 20 -44z m-460
-89 c6 0 1 -14 -11 -32 -13 -17 -25 -26 -27 -20 -2 7 -10 12 -17 12 -8 0 -11
7 -8 20 3 11 9 20 13 20 5 0 12 10 16 22 l7 23 8 -23 c5 -12 13 -22 19 -22z
m1620 -35 c7 -25 10 -48 7 -52 -9 -8 -37 60 -37 87 0 34 16 15 30 -35z m-2644
39 c16 -4 20 -11 16 -30 -3 -19 0 -24 16 -24 24 0 35 23 19 40 -10 10 -4 11
28 6 54 -9 54 -9 107 -34 26 -12 52 -22 57 -22 6 0 11 -3 11 -8 0 -4 17 -16
37 -27 60 -32 156 -133 218 -229 31 -50 32 -52 12 -52 -27 1 -35 -31 -11 -41
10 -4 22 0 30 11 11 16 13 16 19 -3 17 -55 -30 -83 -56 -33 -8 15 -16 29 -19
32 -3 3 -17 21 -31 40 -49 65 -200 210 -219 210 -5 0 -10 5 -10 10 0 6 -4 10
-9 10 -5 0 -44 17 -88 37 -69 33 -87 37 -160 37 -46 1 -83 5 -83 9 0 5 13 22
29 38 29 29 47 34 87 23z m1456 -30 c-7 -49 -14 -64 -28 -64 -10 0 -14 6 -10
18 3 9 8 30 12 45 7 31 31 32 26 1z m1878 15 c25 -5 50 -11 55 -12 40 -10 163
-109 210 -169 21 -27 74 -206 85 -288 6 -47 15 -115 20 -153 6 -37 10 -89 10
-115 -1 -45 -1 -46 -14 -22 -8 14 -23 68 -35 120 -12 52 -26 109 -31 126 -6
17 -10 40 -10 52 0 11 -4 24 -10 27 -5 3 -10 13 -10 21 0 19 -51 125 -66 139
-6 6 -25 30 -42 55 -42 60 -60 80 -102 111 -86 63 -173 82 -250 55 -42 -14
-46 -14 -57 1 -19 25 -16 32 15 38 15 3 41 10 57 14 41 12 121 12 175 0z
m-308 -33 c54 -23 62 -38 29 -57 l-27 -16 -22 44 c-11 23 -19 43 -18 43 2 0
19 -6 38 -14z m-2062 -41 c5 3 10 2 10 -4 0 -5 -4 -11 -8 -13 -5 -1 -20 -21
-35 -43 -23 -33 -27 -36 -27 -17 0 13 -6 22 -16 22 -11 0 -9 8 12 35 20 27 30
33 40 24 7 -6 18 -8 24 -4z m-871 -39 c34 -14 85 -39 112 -56 54 -33 189 -166
217 -212 9 -15 19 -28 23 -28 4 0 16 -18 27 -39 20 -37 20 -39 2 -44 -49 -13
-80 -157 -45 -210 l17 -27 -45 -19 c-60 -26 -88 -52 -141 -131 -58 -86 -108
-125 -156 -122 -47 3 -114 3 -177 0 -45 -2 -58 2 -90 28 -59 48 -73 82 -71
172 2 55 -2 87 -14 112 -114 242 -112 231 -62 280 89 87 107 111 164 224 22
44 46 83 52 88 27 16 124 8 187 -16z m3109 -13 c-10 -21 -17 -48 -15 -60 7
-39 -10 -25 -32 26 -11 27 -21 52 -21 55 0 6 29 13 61 15 l27 1 -20 -37z m-78
-11 c0 -8 9 -27 21 -43 14 -20 16 -29 7 -29 -7 0 -26 21 -42 46 -23 37 -26 48
-15 54 14 9 29 -5 29 -28z m193 22 c56 -29 86 -64 54 -64 -19 0 -44 -30 -52
-62 -8 -32 -13 -34 -43 -12 -30 21 -27 52 8 93 35 39 33 51 -4 24 -16 -11 -28
-32 -32 -55 -5 -28 -11 -38 -25 -38 -23 0 -23 11 -4 78 14 45 19 52 41 52 14
0 39 -7 57 -16z m-230 -53 c10 -12 9 -13 -10 -3 -29 16 -36 29 -28 50 6 14 8
13 16 -7 6 -14 15 -32 22 -40z m-1677 1 c-25 -48 -35 -46 -18 4 9 28 18 42 24
36 6 -6 4 -21 -6 -40z m-549 -60 c-37 -52 -47 -59 -57 -42 -4 6 -16 10 -26 8
-24 -4 -31 -45 -9 -50 14 -3 13 -7 -7 -29 l-23 -25 -22 21 -22 21 76 81 c69
73 78 79 98 69 l23 -11 -31 -43z m2563 29 c0 -4 17 -29 38 -57 20 -27 44 -63
52 -79 8 -17 19 -36 24 -44 17 -23 55 -145 56 -177 0 -17 -7 -37 -15 -44 -12
-10 -18 -6 -34 21 -21 34 -17 51 17 72 7 5 10 13 6 18 -4 6 -15 4 -30 -5 -31
-21 -33 -20 -44 9 -12 31 -4 52 22 58 11 3 17 10 13 16 -9 16 -22 13 -43 -10
l-20 -20 -21 30 -22 30 21 21 c11 11 25 20 32 20 8 0 9 3 2 10 -14 14 -42 3
-55 -21 -9 -18 -10 -18 -29 1 -28 28 -25 46 10 72 30 22 39 38 21 38 -5 0 -25
-15 -43 -33 -28 -27 -37 -31 -46 -20 -26 28 38 120 74 106 8 -3 14 -8 14 -12z
m-390 -62 c0 -6 -4 -7 -10 -4 -5 3 -10 11 -10 16 0 6 5 7 10 4 6 -3 10 -11 10
-16z m217 -76 c102 -100 134 -144 214 -298 23 -44 45 -84 50 -89 5 -6 9 -18 9
-27 0 -9 7 -19 15 -23 8 -3 15 -16 15 -29 0 -13 4 -27 9 -32 5 -6 14 -28 20
-50 7 -22 18 -51 24 -64 9 -19 9 -25 0 -28 -7 -3 -13 -18 -13 -35 0 -25 3 -29
19 -25 17 4 22 -7 41 -77 12 -44 25 -99 30 -121 5 -22 12 -48 15 -57 5 -13 2
-18 -10 -18 -13 0 -16 -8 -13 -37 2 -29 7 -38 21 -37 11 1 19 -7 23 -25 3 -14
10 -42 14 -61 17 -71 22 -138 11 -145 -16 -9 -13 -45 4 -51 23 -9 18 -21 -7
-20 -19 1 -22 -4 -20 -23 6 -53 41 -63 43 -13 1 18 4 11 9 -18 4 -25 13 -72
19 -105 6 -33 14 -87 17 -120 4 -33 12 -74 19 -91 14 -34 66 -64 112 -64 l28
-1 -28 -15 c-28 -15 -28 -34 -1 -34 8 0 12 -4 9 -10 -9 -14 13 -50 32 -50 11
0 14 7 11 24 -3 15 0 27 8 30 8 3 11 12 8 21 -3 8 -4 15 -1 15 2 0 16 -35 31
-77 15 -43 30 -85 35 -94 8 -14 1 -14 -68 -2 -136 23 -181 34 -181 44 0 5 7 9
15 9 36 0 -2 43 -48 54 -32 8 -47 -15 -27 -39 10 -13 9 -15 -9 -15 -24 0 -27
5 -35 70 -6 41 -5 43 9 26 11 -15 18 -17 26 -9 18 18 6 48 -19 47 -16 0 -22 5
-22 22 0 12 -3 29 -6 38 -4 11 -1 16 10 16 24 0 20 41 -4 47 -16 4 -20 14 -20
48 0 23 -4 55 -9 71 -16 52 -22 154 -9 151 7 -1 14 8 16 21 3 17 -2 25 -17 29
-15 4 -24 21 -36 77 -9 39 -18 91 -19 116 -1 25 -6 51 -10 58 -4 7 -18 55 -30
107 -19 76 -20 95 -9 99 7 3 13 12 13 20 0 14 -8 23 -43 53 -8 6 -22 46 -31
90 -10 43 -24 90 -32 105 -19 36 -18 53 2 33 19 -18 38 -15 42 7 4 22 -27 50
-48 43 -13 -4 -21 3 -33 32 -10 26 -12 42 -5 50 11 14 2 33 -16 33 -11 0 -56
87 -56 109 0 5 -11 22 -24 38 -13 15 -40 64 -60 108 -20 44 -42 89 -48 100
-10 18 -9 18 5 7 11 -9 17 -10 22 -2 10 16 -23 49 -43 43 -12 -3 -28 10 -50
41 -19 25 -39 46 -45 46 -15 0 14 20 29 20 6 0 51 -39 101 -87z m87 -26 c71
-73 134 -162 123 -174 -2 -2 -21 23 -41 56 -36 56 -126 154 -160 173 -16 9
-22 28 -9 28 4 0 43 -37 87 -83z m2301 38 c86 -6 168 -23 280 -56 65 -19 88
-28 205 -82 42 -19 149 -84 160 -97 3 -3 21 -17 40 -30 81 -57 210 -184 271
-267 23 -32 46 -60 50 -63 4 -3 37 -63 73 -134 62 -122 102 -230 126 -341 6
-27 16 -69 21 -93 15 -70 22 -350 10 -419 -6 -35 -16 -91 -21 -125 -23 -143
-137 -420 -215 -522 -17 -23 -45 -62 -63 -89 -41 -62 -44 -65 -133 -155 -81
-83 -94 -95 -172 -150 -29 -20 -54 -39 -57 -43 -3 -4 -33 -23 -68 -44 -65 -38
-84 -61 -62 -75 16 -10 35 -4 73 23 16 10 30 17 33 14 4 -4 -89 -149 -113
-174 -6 -7 -37 -64 -69 -125 -31 -62 -60 -115 -64 -118 -4 -3 -13 -25 -20 -50
-6 -25 -16 -53 -21 -62 -5 -10 -13 -59 -19 -109 -6 -50 -12 -95 -15 -99 -2 -4
-9 -40 -16 -81 -22 -150 -53 -204 -136 -241 -45 -20 -89 -60 -99 -92 -10 -30
-46 -66 -102 -102 -29 -19 -55 -34 -58 -34 -9 0 -60 -56 -149 -166 -49 -60
-92 -111 -95 -114 -3 -3 -21 -25 -40 -50 -19 -25 -48 -59 -65 -75 -51 -51 -55
-60 -71 -151 -19 -112 -43 -184 -59 -184 -7 0 -18 -7 -25 -15 -18 -22 -30 -18
-30 9 0 13 -7 29 -15 36 -12 10 -15 7 -20 -17 -4 -15 -12 -41 -20 -58 l-14
-30 0 27 c-2 55 -34 45 -77 -24 -31 -48 -31 -107 -2 -159 12 -21 19 -41 16
-44 -15 -16 -219 4 -259 25 -11 7 -42 11 -67 10 -68 -4 -76 -2 -99 19 -32 30
-18 67 46 129 31 30 82 79 114 110 67 65 103 121 122 189 24 91 41 113 238
313 109 110 196 200 193 200 -6 0 6 15 66 84 50 56 105 176 118 255 7 41 16
79 21 85 5 6 25 31 45 55 49 62 80 126 93 194 6 32 13 63 17 68 3 6 8 132 10
281 4 253 14 339 30 281 7 -24 24 -32 24 -10 0 6 -9 41 -21 77 -19 61 -19 72
-8 170 12 99 13 103 25 75 7 -16 13 -39 14 -51 0 -11 7 -29 16 -40 14 -18 15
-14 11 51 -2 39 -11 86 -19 105 -46 104 -43 173 14 289 18 36 39 86 48 110 16
47 15 46 150 117 88 45 123 68 168 109 31 27 33 34 29 75 -3 25 -25 105 -51
179 -25 73 -48 150 -52 170 -3 20 -13 61 -21 91 -8 30 -18 71 -23 90 -8 41
-57 191 -75 235 -6 17 -22 56 -35 88 -13 33 -29 61 -36 64 -14 5 -8 29 14 56
11 12 30 17 71 17 89 0 127 16 192 79 33 31 59 64 59 71 0 8 -23 40 -51 70
-117 127 -232 250 -306 326 -135 139 -147 159 -90 150 17 -3 68 -8 112 -11z
m-4940 -47 c41 -37 40 -51 -10 -104 l-34 -36 -31 22 c-19 14 -30 30 -30 46 0
24 48 103 63 104 4 0 23 -14 42 -32z m-152 -125 c-15 -23 -18 -24 -21 -9 -2
10 2 22 10 27 24 16 29 9 11 -18z m547 10 c1 -10 6 -65 11 -123 17 -171 18
-162 -15 -171 -19 -5 -35 -4 -44 3 -8 7 -27 11 -44 10 -16 -1 -36 5 -45 14 -9
8 -25 13 -35 11 -11 -3 -55 6 -98 20 -72 23 -78 27 -69 44 5 11 30 25 54 31
36 10 47 18 55 43 6 16 26 41 45 55 18 14 39 35 46 47 12 22 33 29 102 32 29
1 37 -3 37 -16z m2036 -43 c10 -22 24 -40 29 -41 6 0 0 -4 -13 -10 -31 -12
-25 -44 7 -43 39 1 52 -32 40 -106 -10 -69 -44 -202 -59 -235 -5 -11 -19 -42
-31 -70 -78 -178 -186 -366 -256 -443 -23 -26 -43 -52 -43 -58 0 -6 -7 -18
-16 -25 -9 -8 -27 -30 -39 -50 -13 -20 -51 -69 -86 -110 -74 -88 -425 -439
-438 -439 -5 0 -16 -6 -23 -13 -7 -7 -31 -26 -53 -42 -22 -17 -42 -32 -45 -35
-35 -35 -220 -155 -250 -162 -19 -4 -17 -7 -39 74 -18 68 -15 88 17 88 13 0
83 34 107 53 72 54 121 93 123 99 2 5 8 8 12 8 5 0 22 12 38 28 15 15 45 38
65 52 20 14 115 104 210 200 144 146 187 197 258 305 90 136 258 466 329 645
23 58 46 109 51 115 5 5 9 16 9 25 0 8 7 27 14 42 8 16 17 49 21 75 3 27 8 67
11 91 6 51 19 46 50 -18z m-2503 26 c36 -28 11 -57 -28 -32 -15 10 -22 22 -19
31 7 18 23 19 47 1z m105 -11 c-3 -3 -9 2 -12 12 -6 14 -5 15 5 6 7 -7 10 -15
7 -18z m-241 -52 c-4 -6 -7 -38 -6 -70 2 -45 0 -58 -12 -58 -23 0 -24 110 -2
159 l18 40 6 -29 c3 -17 1 -35 -4 -42z m211 -34 c-6 -54 -11 -65 -27 -54 -14
8 -14 91 0 117 11 20 12 20 21 3 6 -9 8 -39 6 -66z m39 39 c-3 -7 -5 -2 -5 12
0 14 2 19 5 13 2 -7 2 -19 0 -25z m-134 -23 c33 -24 34 -51 4 -86 -38 -46 -61
-52 -87 -24 -20 21 -22 31 -16 72 7 55 39 92 60 70 7 -6 25 -21 39 -32z m225
3 c2 -15 -3 -28 -12 -31 -17 -7 -29 18 -20 45 8 26 28 17 32 -14z m-68 -42 c0
-8 -7 -16 -15 -20 -17 -6 -18 -4 -9 18 8 20 24 21 24 2z m2850 -11 c0 -14 0
-28 0 -32 0 -5 -4 -9 -9 -11 -11 -4 -21 35 -14 54 9 23 23 16 23 -11z m-3903
-89 c-6 -13 -27 38 -33 79 -4 22 1 17 16 -19 11 -27 19 -54 17 -60z m1010 14
c31 -16 62 -30 69 -30 11 0 78 -27 93 -37 3 -2 -1 -9 -7 -15 -7 -7 -12 -20
-12 -30 0 -14 -8 -18 -39 -18 -22 0 -42 4 -45 9 -3 5 -21 12 -40 15 -21 4 -52
23 -79 49 -39 37 -43 45 -34 65 13 29 26 28 94 -8z m2913 0 c0 -5 -2 -10 -4
-10 -3 0 -8 5 -11 10 -3 6 -1 10 4 10 6 0 11 -4 11 -10z m-35 -56 c10 -20 39
-52 63 -72 81 -67 82 -68 82 -122 0 -92 30 -238 80 -392 28 -84 55 -162 62
-173 6 -11 20 -63 30 -115 10 -52 22 -117 28 -145 21 -108 51 -262 56 -292 l6
-32 -33 11 c-90 29 -107 42 -118 83 -5 22 -12 63 -15 90 -3 28 -15 113 -26
190 -12 77 -26 172 -31 210 -12 80 -26 149 -64 305 -54 227 -103 381 -146 462
-11 22 -11 28 -1 28 4 0 16 -16 27 -36z m-2996 12 c21 -14 0 -26 -45 -26 -37
0 -44 -3 -44 -20 0 -11 -4 -20 -8 -20 -5 0 -17 -17 -28 -37 -10 -21 -24 -45
-30 -53 -6 -8 -19 -37 -29 -65 -11 -30 -35 -67 -62 -92 -42 -41 -46 -43 -106
-43 l-62 0 33 21 c34 22 45 46 15 34 -10 -4 -27 -10 -38 -13 -11 -2 -25 -9
-31 -13 -6 -5 -43 -14 -83 -21 l-73 -12 -24 27 c-13 16 -24 32 -24 37 0 17 50
22 95 10 39 -11 51 -10 90 5 25 9 45 21 45 26 0 5 17 9 38 9 30 0 45 7 64 29
14 15 29 39 33 52 12 38 78 118 98 119 22 0 22 -13 0 -31 -31 -27 -72 -142
-43 -124 6 4 16 21 24 38 7 18 32 52 55 76 22 24 41 50 41 57 0 31 65 51 99
30z m2661 -22 c0 -8 4 -22 9 -32 24 -44 41 -87 41 -104 0 -10 4 -26 9 -36 5
-9 19 -51 31 -92 12 -41 26 -86 31 -100 4 -14 18 -68 29 -120 12 -52 27 -122
35 -155 7 -33 20 -112 29 -175 9 -63 24 -159 32 -213 8 -54 18 -127 21 -163 3
-35 10 -67 14 -70 5 -3 9 -31 9 -61 0 -101 33 -254 61 -278 27 -26 172 -64
286 -77 56 -6 108 -15 115 -19 10 -6 7 -34 -14 -131 -29 -136 -46 -205 -54
-228 -3 -8 -6 -17 -6 -20 -3 -20 -59 -175 -67 -184 -5 -6 -12 -22 -16 -35 -21
-68 -170 -272 -234 -319 -20 -15 -38 -30 -41 -34 -3 -4 -44 -16 -90 -28 -47
-12 -93 -24 -102 -26 -12 -4 -18 0 -18 10 0 9 4 16 8 16 13 0 46 77 82 190 33
107 56 161 88 215 30 48 42 117 42 227 -1 90 -2 101 -15 85 -8 -11 -17 -57
-21 -108 -3 -49 -11 -89 -16 -89 -5 0 -7 -4 -3 -9 3 -5 1 -12 -5 -16 -5 -3
-10 -14 -10 -24 0 -10 -11 -38 -25 -62 -31 -55 -29 -49 -56 -139 -12 -41 -26
-79 -31 -84 -4 -6 -8 -17 -8 -25 0 -31 -64 -143 -96 -169 -19 -15 -55 -34 -81
-43 -40 -13 -54 -25 -84 -70 -43 -64 -160 -185 -189 -194 -11 -3 -20 -11 -20
-16 0 -5 -7 -9 -15 -9 -8 0 -15 -4 -15 -9 0 -5 -14 -14 -31 -21 -17 -7 -36
-18 -42 -24 -17 -15 -158 -110 -177 -118 -8 -3 -54 -38 -102 -77 -56 -44 -88
-65 -88 -55 0 29 -25 8 -38 -32 -11 -31 -11 -50 -1 -96 12 -57 7 -126 -9 -137
-14 -10 -52 -121 -52 -152 0 -38 15 -37 29 2 l11 32 25 -34 c13 -19 29 -43 34
-54 31 -69 145 -157 185 -142 8 3 12 -3 12 -16 -1 -17 6 -23 29 -27 17 -3 30
-11 30 -20 0 -8 17 -18 40 -25 35 -9 40 -13 40 -40 0 -25 5 -31 30 -35 35 -7
65 -2 65 11 0 5 -13 9 -28 9 -37 0 -44 8 -30 34 16 30 27 35 58 25 56 -20 106
-166 97 -282 -7 -84 -41 -157 -72 -157 -12 0 -44 15 -71 33 -48 32 -50 32
-154 29 -99 -2 -106 -1 -130 21 -34 33 -57 62 -109 138 -25 35 -48 66 -53 67
-4 2 -8 10 -8 18 0 8 -4 14 -8 14 -5 0 -18 17 -29 38 -12 20 -44 65 -72 100
-56 70 -61 82 -31 82 11 0 20 6 20 14 0 19 -45 50 -109 76 -29 11 -69 29 -89
40 -74 39 -76 43 -83 143 -5 58 -15 110 -28 140 -32 75 -24 160 19 197 4 3 13
15 22 28 8 12 33 42 55 65 69 73 134 165 181 255 58 113 116 228 135 272 63
141 108 229 129 254 32 35 74 123 64 133 -4 4 -25 -12 -46 -35 -22 -23 -41
-42 -44 -42 -7 0 -56 106 -86 188 -12 32 -24 40 -34 24 -14 -23 47 -170 88
-214 15 -16 17 -24 8 -37 -7 -9 -29 -51 -49 -93 -21 -43 -43 -78 -50 -78 -33
0 -222 185 -311 305 -4 6 -33 62 -64 125 -64 131 -100 240 -117 355 -7 44 -14
87 -17 96 -3 11 11 22 46 38 47 21 183 109 255 163 141 108 250 204 364 323
130 134 183 194 262 300 33 44 68 89 78 100 22 24 141 204 141 212 0 4 6 14
14 22 18 21 128 239 167 333 32 77 44 112 61 190 10 43 28 58 28 22z m4007 0
c92 -31 134 -55 186 -107 29 -29 60 -61 68 -72 12 -17 9 -16 -26 5 -22 13 -42
27 -45 31 -17 22 -161 74 -231 84 -51 7 -102 -2 -93 -16 3 -5 24 -9 48 -9 41
0 175 -36 186 -50 3 -3 29 -18 58 -34 80 -40 177 -131 229 -213 9 -15 20 -30
24 -33 3 -3 19 -23 35 -46 16 -22 41 -55 56 -72 34 -40 154 -132 174 -132 7 0
14 -3 14 -7 0 -5 28 -17 63 -28 48 -16 89 -20 185 -20 97 0 122 -3 120 -13 -5
-21 -134 -62 -197 -62 -85 0 -214 51 -283 112 -21 18 -50 43 -65 55 -60 48
-131 121 -172 175 -86 115 -211 204 -313 223 -42 8 -54 -9 -15 -20 29 -8 101
-38 107 -45 3 -3 23 -17 45 -31 48 -32 125 -104 125 -118 0 -5 4 -11 9 -13 5
-1 30 -36 56 -76 103 -160 213 -274 314 -327 82 -44 157 -51 298 -31 74 10
142 14 175 10 160 -19 293 -81 393 -182 35 -36 62 -68 59 -71 -3 -3 -8 -1 -12
5 -15 22 -120 77 -191 101 -65 21 -93 25 -193 24 -72 -1 -142 -8 -180 -18 -49
-12 -88 -14 -174 -9 -127 7 -145 12 -272 73 -51 25 -96 42 -100 38 -10 -9 21
-31 98 -69 118 -58 155 -66 367 -75 109 -5 207 -12 218 -16 48 -16 152 -72
176 -95 15 -14 42 -37 60 -52 98 -77 104 -93 17 -44 -112 62 -149 71 -293 70
-87 0 -145 -6 -176 -16 -39 -13 -58 -13 -125 -3 -43 7 -97 19 -119 28 -57 21
-181 86 -202 106 -26 24 -142 111 -148 111 -31 0 134 -153 184 -172 10 -3 22
-11 25 -17 15 -24 141 -72 226 -86 25 -4 54 -9 65 -12 11 -2 56 -10 100 -17
151 -26 207 -54 292 -145 48 -51 58 -76 16 -36 -60 56 -132 86 -296 126 -89
22 -193 51 -232 64 -38 13 -71 22 -73 21 -11 -12 193 -100 209 -91 4 3 10 1
13 -4 3 -5 25 -12 50 -15 76 -12 181 -93 250 -193 20 -29 36 -55 36 -59 0 -3
-17 8 -37 25 -53 45 -56 47 -84 61 -13 7 -26 16 -29 20 -20 28 -182 53 -397
62 -62 3 -70 2 -60 -11 10 -12 9 -14 -8 -7 -11 4 -42 12 -70 18 -27 6 -67 20
-88 31 -37 19 -55 18 -43 -1 19 -31 151 -74 269 -88 31 -3 57 -9 57 -13 0 -4
20 -12 45 -19 51 -14 113 -50 153 -90 41 -40 82 -99 82 -116 0 -8 5 -18 10
-21 6 -3 10 -11 10 -17 0 -6 -13 7 -29 28 -25 35 -41 51 -113 109 -17 14 -64
36 -138 66 -26 10 -74 13 -180 12 -228 -4 -299 25 -409 166 -32 40 -36 42 -47
26 -13 -17 -14 -16 -24 6 -5 13 -14 31 -19 39 -5 8 -13 26 -19 40 -5 14 -14
36 -21 50 -14 33 -81 278 -81 300 0 28 -39 172 -62 230 -12 30 -37 79 -56 108
-31 49 -32 53 -10 41 39 -20 142 -132 165 -179 28 -54 73 -186 73 -212 0 -10
4 -18 8 -18 4 0 14 -28 21 -62 8 -35 23 -83 33 -108 27 -61 89 -162 95 -156 3
3 -11 39 -31 80 -20 42 -36 82 -36 90 0 8 -4 17 -8 20 -5 3 -14 31 -21 63 -7
32 -17 68 -22 81 -5 13 -9 31 -9 42 0 10 -6 31 -14 47 -8 15 -19 40 -25 56
-35 88 -72 149 -117 192 -57 56 -107 95 -121 95 -7 0 -13 5 -13 10 0 6 -6 10
-14 10 -8 0 -21 6 -28 13 -7 7 -29 20 -49 28 -64 25 -151 98 -163 137 -8 23
10 31 30 13 5 -5 50 -16 99 -25 173 -31 197 -37 252 -67 30 -16 60 -34 66 -39
7 -5 26 -20 42 -33 17 -12 38 -29 48 -36 9 -7 17 -10 17 -6 0 15 -107 110
-146 130 -21 11 -42 25 -46 30 -4 6 -11 9 -15 9 -4 -1 -12 0 -18 1 -5 2 -67
13 -137 25 -175 29 -215 46 -245 101 -25 47 -19 58 19 37 31 -17 328 -25 328
-9 0 7 -38 11 -117 11 -174 0 -267 27 -304 86 l-19 31 100 2 c56 1 109 5 118
10 17 9 87 32 172 57 63 18 170 17 227 -2z m-6337 -28 c0 -33 -21 -66 -41 -66
-13 0 -11 26 5 65 19 45 36 45 36 1z m-220 -26 c32 -16 77 -33 100 -36 23 -4
47 -13 55 -20 16 -16 61 -19 70 -4 8 13 75 13 75 1 0 -11 -95 -71 -113 -71 -7
0 -18 -5 -23 -10 -14 -14 -134 -41 -210 -47 -57 -5 -63 -3 -69 16 -3 12 -9 21
-13 21 -4 0 -13 4 -21 9 -11 7 -10 20 9 77 13 38 25 75 26 82 5 21 52 14 114
-18z m313 8 c8 -30 2 -35 -33 -30 -24 3 -30 9 -30 28 0 20 5 24 29 24 21 0 30
-6 34 -22z m-513 -185 c0 -27 -11 -63 -19 -63 -4 0 -15 6 -25 13 -14 10 -15
18 -7 40 12 31 51 38 51 10z m50 -33 c0 -20 -5 -30 -15 -30 -16 0 -19 17 -9
44 10 26 24 18 24 -14z m7072 -8 c94 -80 220 -142 292 -142 17 0 37 -4 45 -9
27 -17 -1 -31 -62 -31 -93 1 -149 15 -169 42 -10 12 -51 56 -90 96 -70 71 -80
99 -16 44z m-2312 -49 c24 -37 53 -78 66 -91 12 -14 25 -41 29 -61 3 -20 9
-47 12 -61 4 -21 1 -20 -21 12 -27 38 -136 247 -136 261 0 16 10 4 50 -60z
m231 -161 c16 -60 15 -62 -2 -62 -11 0 -19 -7 -19 -15 0 -8 -4 -14 -9 -12 -5
1 -16 -6 -23 -16 -13 -18 -15 -16 -25 16 -8 28 -8 34 2 31 17 -7 28 12 20 36
-9 27 -33 25 -37 -2 -3 -20 -5 -19 -15 10 -11 28 -10 32 6 32 10 0 28 11 41
25 13 14 29 24 34 22 6 -2 18 -31 27 -65z m1399 -9 c50 -36 105 -100 136 -158
24 -45 65 -178 84 -270 19 -96 31 -148 40 -170 4 -11 13 -40 20 -65 25 -89 63
-182 86 -209 13 -16 24 -33 24 -37 0 -5 10 -22 23 -38 108 -138 159 -163 395
-192 76 -9 51 -27 -35 -26 -67 1 -149 15 -188 32 -84 36 -108 52 -170 115 -73
73 -212 273 -233 336 -8 22 -12 85 -11 155 1 117 -1 134 -23 224 -21 85 -124
217 -209 267 -17 10 -31 32 -41 63 l-16 48 47 -29 c25 -16 57 -37 71 -46z m-2
-110 c124 -118 143 -173 152 -446 4 -136 11 -212 18 -219 7 -7 12 -21 12 -32
0 -24 70 -143 99 -170 22 -20 27 -36 12 -36 -4 0 -19 10 -32 23 -101 97 -124
163 -149 417 -20 212 -44 286 -109 342 -30 25 -45 48 -55 84 -22 77 -25 94
-17 94 5 0 35 -26 69 -57z m-1377 -2 c15 8 20 4 27 -23 7 -27 5 -36 -12 -49
-19 -16 -19 -17 -2 -43 11 -18 23 -25 34 -22 14 5 20 -4 30 -42 7 -26 16 -61
21 -79 7 -24 5 -33 -6 -37 -22 -9 -11 -39 17 -46 18 -4 27 -16 36 -46 l12 -41
-34 -13 c-22 -9 -34 -20 -34 -32 0 -27 26 -33 56 -13 14 9 27 15 27 13 9 -16
37 -109 37 -122 0 -9 -7 -16 -15 -16 -8 0 -15 -4 -15 -8 0 -4 -12 -13 -27 -19
-16 -7 -47 -23 -69 -37 -36 -21 -41 -22 -37 -7 7 26 -26 35 -49 14 -17 -15
-17 -18 -4 -32 14 -13 11 -17 -32 -39 -58 -30 -186 -82 -201 -82 -6 0 -11 7
-11 15 0 20 -39 19 -47 -1 -3 -9 0 -20 8 -25 11 -7 9 -9 -7 -9 -11 0 -24 -3
-28 -7 -9 -10 -78 -33 -96 -32 -10 0 -11 2 -2 6 14 6 16 33 2 33 -19 0 -10 18
12 23 13 4 26 0 33 -10 15 -20 45 -10 45 15 0 12 13 22 45 31 25 7 45 17 45
21 0 16 34 21 42 5 14 -24 38 -18 38 10 0 14 -4 25 -10 25 -5 0 0 11 12 26 21
23 24 24 35 8 7 -9 9 -29 6 -45 -7 -34 8 -38 38 -10 13 12 18 24 13 32 -21 34
-13 57 24 72 20 8 52 12 70 10 28 -5 32 -2 32 16 0 12 7 33 16 47 13 19 14 30
7 47 -6 12 -18 64 -28 115 -10 50 -21 92 -25 92 -4 0 -10 10 -13 23 -3 12 -10
39 -15 59 -7 28 -7 35 3 32 14 -6 28 23 19 38 -3 5 -14 8 -25 5 -14 -4 -21 5
-33 39 -13 38 -13 44 0 44 16 0 19 26 4 35 -6 4 -17 1 -25 -5 -12 -10 -15 -9
-15 4 0 9 7 16 15 16 8 0 15 8 15 17 0 13 3 14 12 5 7 -7 17 -8 29 -1z m-1
-331 c7 -30 19 -73 26 -95 7 -22 15 -56 17 -75 4 -31 1 -38 -26 -55 -80 -52
-103 -65 -113 -65 -7 0 -13 24 -16 58 -2 31 -12 74 -22 94 -12 26 -16 47 -11
70 9 41 33 88 44 88 5 0 22 20 37 44 l28 45 12 -27 c6 -15 17 -52 24 -82z
m-4338 -210 c18 -36 36 -69 40 -75 5 -5 25 -32 46 -60 51 -68 96 -109 167
-152 86 -53 88 -56 76 -100 -6 -21 -11 -53 -11 -71 l0 -33 -59 46 c-188 148
-317 313 -334 428 -5 32 -3 37 14 37 26 0 25 36 -1 43 -17 4 -20 10 -14 34 11
47 17 48 31 8 7 -22 28 -69 45 -105z m-16 -238 c29 -38 174 -186 209 -212 42
-32 101 -67 123 -74 12 -4 22 -14 22 -23 0 -21 46 -80 67 -87 15 -5 18 -19 20
-74 3 -98 111 -402 162 -460 12 -13 21 -26 21 -28 0 -7 60 -94 120 -175 l24
-33 -59 34 c-33 18 -67 39 -76 47 -8 7 -20 13 -26 13 -14 0 -84 60 -168 145
-62 62 -165 207 -165 232 0 15 -49 57 -57 49 -10 -10 25 -105 53 -142 13 -17
24 -34 24 -38 0 -22 190 -226 211 -226 4 0 14 -6 21 -13 21 -20 100 -72 133
-86 l30 -13 -28 -24 c-42 -36 -150 -64 -247 -64 -55 0 -93 -5 -116 -16 -38
-18 -47 -40 -11 -30 12 4 38 10 57 13 31 6 33 5 20 -8 -8 -8 -33 -28 -55 -44
-22 -17 -42 -33 -45 -36 -7 -8 -236 -119 -245 -119 -5 0 -26 -9 -49 -19 -23
-10 -77 -29 -121 -42 -82 -24 -181 -81 -209 -121 -14 -20 -16 -20 -16 -4 0 15
-3 16 -15 6 -8 -7 -15 -24 -15 -37 0 -14 -16 -59 -35 -100 -19 -41 -35 -78
-35 -82 0 -21 -82 -104 -125 -127 -35 -18 -51 -52 -19 -40 13 5 14 1 9 -27 -9
-42 -44 -147 -56 -169 -5 -10 -9 -23 -9 -30 0 -7 -6 -25 -14 -40 -43 -82 -43
-246 -1 -400 6 -25 5 -28 -19 -28 -22 0 -26 -4 -26 -31 0 -26 -2 -29 -14 -19
-8 6 -25 10 -38 8 -19 -2 -24 -10 -26 -42 -2 -21 2 -50 8 -65 11 -25 80 -81
100 -81 27 0 12 -75 -18 -85 -10 -2 -44 -30 -77 -60 -32 -30 -61 -55 -63 -55
-2 0 -27 -11 -56 -24 -86 -40 -120 -43 -150 -13 -21 21 -24 31 -19 68 3 24 10
52 15 61 5 10 11 60 15 111 6 90 5 95 -22 137 -16 25 -35 51 -42 59 -20 20 -9
90 26 155 14 28 36 76 48 106 163 418 163 416 163 569 0 122 1 130 35 211 28
70 35 98 35 157 0 65 3 74 28 100 16 15 42 35 58 43 184 95 432 355 549 575
20 39 62 95 93 126 l56 56 -3 60 c-2 61 12 92 26 56 19 -50 92 -133 117 -133
9 0 7 28 -2 32 -16 7 -80 105 -106 163 -15 33 -32 68 -37 77 -5 10 -9 26 -9
36 0 10 -4 22 -8 28 -5 5 -19 44 -31 87 -19 65 -23 103 -24 235 0 86 3 168 7
181 8 22 11 19 41 -38 18 -34 46 -79 61 -99z m507 -106 c40 -37 60 -93 54
-153 -8 -74 -37 -113 -85 -113 -93 0 -135 164 -65 258 29 39 60 41 96 8z
m3383 -7 c-6 -4 -22 -10 -36 -14 l-25 -7 24 25 c18 20 26 23 36 14 10 -9 10
-14 1 -18z m434 -30 c0 -6 -18 -44 -39 -83 -41 -73 -67 -179 -57 -222 9 -33
-49 -88 -186 -178 -62 -41 -149 -99 -193 -130 -44 -31 -86 -56 -92 -56 -7 0
-13 -4 -13 -10 0 -5 -36 -28 -81 -50 -100 -49 -114 -44 -122 41 -5 59 -37 117
-64 118 -8 1 -13 16 -13 39 0 21 -7 47 -15 58 -8 10 -15 32 -15 47 0 37 -28
97 -45 97 -13 0 -17 12 -31 94 l-7 38 44 -4 c101 -11 353 43 387 82 10 11 15
12 18 3 9 -21 64 -15 216 22 154 37 233 63 269 89 28 19 39 20 39 5z m-1203
-124 c51 -25 99 -45 106 -45 7 0 17 -4 23 -9 5 -5 20 -11 34 -13 23 -3 26 -9
36 -73 6 -38 15 -78 19 -88 6 -14 -3 -22 -46 -41 -30 -13 -70 -27 -89 -30 -49
-10 -150 -49 -150 -58 0 -5 -6 -8 -12 -8 -10 0 -13 40 -14 163 0 128 -4 170
-17 201 -9 21 -17 40 -17 42 0 13 45 -2 127 -41z m-201 -55 c26 0 -1 -225 -47
-375 -31 -105 -53 -166 -60 -171 -5 -3 -9 -14 -9 -24 0 -10 -6 -25 -12 -32 -7
-7 -24 -35 -37 -63 -27 -54 -33 -63 -72 -105 -14 -16 -38 -43 -52 -60 -16 -18
-27 -25 -27 -17 0 21 -23 37 -39 28 -19 -12 -10 -56 12 -55 25 2 21 -12 -16
-50 -27 -28 -46 -37 -97 -46 -61 -11 -89 -7 -60 10 8 5 24 15 34 23 18 13 22
12 36 -5 15 -19 17 -19 33 -4 18 18 13 43 -8 48 -9 2 2 21 31 53 24 28 47 58
50 68 3 9 10 17 15 17 5 0 9 5 9 11 0 6 11 25 24 42 13 18 32 50 44 72 18 35
28 62 68 170 37 100 75 255 92 368 l16 109 29 -6 c16 -3 35 -6 43 -6z m59 -50
c4 -23 5 -101 3 -175 -3 -124 -5 -135 -24 -145 -26 -14 -49 -54 -59 -100 -10
-44 -54 -143 -69 -152 -22 -15 -27 -7 -13 20 24 45 60 138 81 207 33 110 46
179 52 279 7 111 18 134 29 66z m-2364 -132 c18 -76 36 -138 41 -138 4 0 8 -7
8 -15 0 -8 18 -52 40 -99 22 -46 40 -87 40 -90 0 -3 17 -31 38 -62 20 -31 42
-64 47 -72 38 -59 170 -189 245 -242 l34 -24 -34 -8 c-44 -10 -87 -1 -72 14
15 15 4 38 -18 38 -25 0 -35 -18 -20 -35 11 -13 7 -15 -19 -15 -24 0 -43 11
-79 48 -68 68 -131 142 -149 177 -9 17 -19 32 -22 35 -3 3 -15 21 -25 40 -11
19 -22 37 -26 40 -12 10 -98 197 -114 250 -10 30 -21 64 -26 75 -5 11 -11 36
-14 55 -3 19 -9 51 -12 70 -6 33 -4 36 30 48 20 7 44 24 54 37 9 13 18 20 19
17 1 -4 16 -69 34 -144z m2767 -65 c-6 -7 -15 -13 -20 -13 -6 0 -22 -8 -36
-19 -15 -10 -58 -24 -97 -31 -38 -6 -78 -16 -87 -21 -24 -12 -65 -11 -73 1 -4
6 6 10 22 10 16 0 33 4 39 8 5 5 41 17 79 27 39 10 74 22 80 26 5 5 16 9 25 9
8 0 26 9 40 20 27 20 48 7 28 -17z m38 -60 c7 -10 13 -36 14 -58 0 -39 -29
-147 -43 -161 -12 -13 -8 15 13 77 20 59 20 122 -1 135 -10 6 -12 24 -3 24 4
0 13 -8 20 -17z m-41 -43 c6 -38 -7 -104 -26 -124 -4 -5 -24 5 -46 23 -49 41
-51 42 -95 66 -40 20 -35 34 12 35 14 1 45 9 70 20 69 28 77 26 85 -20z m-271
-40 c80 -27 133 -60 200 -122 78 -73 140 -198 98 -198 -4 0 -16 20 -26 45 -11
25 -23 45 -28 45 -4 0 -8 7 -8 15 0 8 -4 15 -10 15 -5 0 -10 6 -10 13 0 31
-65 96 -125 126 -78 39 -180 54 -222 33 -26 -14 -27 -14 -14 2 12 15 63 43 81
45 3 0 32 -8 64 -19z m397 -100 c17 -56 4 -124 -27 -145 -14 -9 -27 -15 -28
-13 -2 2 -9 17 -17 33 -15 31 -9 70 19 138 7 16 12 33 12 39 0 22 30 -16 41
-52z m-393 31 c33 -11 70 -25 83 -33 68 -38 172 -195 149 -223 -10 -12 -20 -5
-59 34 -72 73 -136 93 -279 89 -61 -2 -112 -2 -112 -2 0 10 54 115 63 122 10
8 65 28 88 31 4 1 33 -8 67 -18z m-210 -179 c-13 -29 -38 -102 -42 -124 -10
-43 -24 -33 -16 10 10 51 40 122 52 122 5 0 8 -3 6 -8z m287 -19 c45 -24 95
-67 95 -83 0 -5 4 -10 8 -10 5 0 13 -10 19 -23 8 -16 7 -25 -2 -34 -10 -9 -18
-5 -36 21 -48 70 -210 120 -321 98 -46 -9 -47 -9 -36 12 25 48 27 49 133 44
75 -4 110 -10 140 -25z m333 -67 c-18 -17 -51 -44 -73 -60 -22 -16 -65 -55
-95 -86 -47 -48 -69 -64 -100 -75 -26 -9 -48 -21 -63 -33 -20 -17 -78 -30
-187 -41 -41 -4 -127 -14 -191 -21 -64 -7 -123 -10 -132 -7 -10 4 -17 17 -17
32 0 24 1 25 16 11 19 -19 0 -19 215 -2 126 11 190 20 227 35 54 21 93 42 102
52 3 4 16 10 29 14 14 4 51 34 83 66 32 33 61 59 63 59 6 0 40 29 104 87 42
38 46 40 49 21 3 -14 -8 -32 -30 -52z m-704 30 c-3 -9 -10 -16 -15 -16 -5 0
-4 9 3 20 14 22 21 20 12 -4z m252 -37 c74 -10 132 -36 162 -71 10 -13 6 -21
-25 -47 -41 -35 -59 -40 -43 -12 6 13 7 22 0 26 -5 3 -18 -14 -29 -39 -20 -42
-57 -66 -81 -51 -24 15 1 86 37 108 14 9 18 37 5 37 -4 0 -23 -15 -41 -34 -27
-28 -35 -45 -39 -86 l-5 -51 -40 3 c-44 3 -61 22 -27 31 20 5 29 37 10 37 -5
0 -9 -5 -7 -11 1 -6 -4 -14 -10 -16 -22 -8 -14 12 20 53 60 73 61 74 45 74
-20 0 -88 -69 -103 -105 -8 -18 -10 -36 -4 -46 4 -9 5 -19 2 -23 -11 -11 -58
-6 -77 9 -11 9 -14 15 -7 15 7 0 20 8 29 17 16 16 16 16 -5 11 -39 -10 -35 8
12 53 27 26 44 52 43 64 -4 61 -1 65 51 65 27 0 84 -5 127 -11z m-276 -136
c-11 -14 -20 -33 -20 -42 0 -26 -21 -41 -58 -41 -44 0 -72 16 -72 41 0 18 4
20 26 15 17 -5 35 -1 50 9 27 17 32 35 9 35 -8 0 -15 -4 -15 -10 0 -5 -9 -10
-20 -10 -11 0 -20 7 -20 15 0 8 6 15 13 15 7 0 35 21 62 48 l49 47 8 -48 c7
-41 6 -52 -12 -74z m-60 97 c0 -5 -5 -10 -11 -10 -5 0 -7 5 -4 10 3 6 8 10 11
10 2 0 4 -4 4 -10z m-115 -160 c3 -5 -1 -10 -9 -10 -9 0 -16 5 -16 10 0 6 4
10 9 10 6 0 13 -4 16 -10z m671 -77 c-57 -116 -82 -236 -72 -352 19 -232 19
-256 1 -296 -13 -26 -29 -42 -54 -52 -71 -28 -87 -38 -148 -95 -34 -32 -66
-58 -72 -58 -12 0 -186 -171 -240 -235 -18 -22 -47 -61 -64 -87 -18 -27 -35
-48 -39 -48 -4 0 -10 16 -14 35 -3 19 -10 35 -15 35 -13 0 -11 -147 2 -156 16
-9 5 -80 -15 -100 -12 -11 -26 -14 -47 -10 -24 4 -36 0 -56 -20 -21 -21 -24
-31 -19 -59 4 -19 12 -40 19 -48 44 -48 47 -92 10 -125 -26 -23 -33 -24 -112
-18 -47 4 -98 13 -114 21 -17 8 -35 15 -40 15 -5 0 -30 10 -54 22 -74 37 -68
65 40 180 32 34 49 84 41 124 -9 47 24 100 107 174 118 105 191 180 253 262
32 43 63 81 70 85 7 5 21 22 32 38 10 17 21 32 24 35 31 28 44 71 45 141 0 70
3 81 33 122 37 52 40 80 13 140 -36 79 -82 227 -75 238 2 4 39 9 81 13 90 7
207 21 243 29 14 3 51 11 83 18 32 7 60 16 63 21 3 4 13 8 22 8 10 0 33 11 52
25 19 13 36 24 37 25 1 0 -8 -21 -21 -47z m-726 -50 c1 -25 29 -58 66 -76 35
-18 41 -32 77 -177 25 -102 25 -105 7 -120 -43 -35 -60 -81 -60 -167 0 -45 -4
-83 -8 -85 -5 -1 -26 -30 -46 -62 -21 -33 -44 -66 -52 -73 -8 -8 -14 -18 -14
-22 0 -12 -133 -145 -245 -245 -134 -120 -138 -127 -143 -205 -4 -54 -9 -70
-32 -92 l-27 -27 -31 55 c-18 30 -32 58 -32 62 0 13 -89 89 -124 106 -33 16
-43 16 -94 5 -85 -19 -162 -24 -162 -10 0 8 -14 9 -46 4 -43 -6 -46 -5 -40 13
11 34 -13 43 -86 33 -37 -6 -74 -7 -82 -4 -18 7 -86 96 -86 113 0 6 -4 11 -9
11 -5 0 -14 13 -19 29 -8 24 -6 37 10 71 23 46 25 66 13 155 -6 51 -4 63 11
80 22 24 120 95 132 95 4 0 30 18 57 40 28 22 54 40 58 40 5 0 24 12 43 26 19
15 34 23 34 20 0 -7 52 31 129 92 51 41 143 133 173 172 69 93 99 109 213 115
40 2 84 11 104 20 29 16 42 16 100 6 53 -9 79 -8 131 3 36 7 68 14 73 15 4 0
7 -7 7 -16z m-5141 -546 c48 -71 91 -149 91 -164 0 -4 -11 9 -25 29 -14 20
-25 42 -25 47 0 6 -3 11 -8 11 -4 0 -16 17 -27 38 -11 20 -22 39 -25 42 -11
11 -50 70 -50 75 0 15 24 -12 69 -78z"/>
<path d="M10691 3225 c-49 -15 -91 -50 -91 -76 0 -10 -4 -21 -10 -24 -5 -3
-10 -26 -10 -51 0 -30 -4 -44 -13 -44 -17 0 -49 -34 -41 -43 10 -9 61 20 68
38 3 9 6 31 6 49 0 49 48 109 97 124 52 15 135 15 168 0 15 -7 33 -25 42 -41
19 -39 29 -132 14 -141 -15 -10 -14 -26 2 -26 8 0 24 -9 37 -20 13 -11 28 -20
35 -20 39 0 74 -130 44 -166 -12 -14 -8 -15 44 -9 78 10 137 -12 163 -60 17
-33 18 -37 2 -79 -12 -32 -13 -43 -4 -40 18 7 46 59 46 86 0 33 -46 97 -75
104 -14 3 -25 10 -25 15 0 5 -25 9 -55 9 l-55 0 0 41 c0 48 -24 105 -48 114
-9 3 -32 16 -49 28 -29 20 -32 26 -27 55 7 38 -10 103 -38 144 -32 46 -136 61
-227 33z"/>
<path d="M10261 2968 c-106 -12 -224 -84 -267 -163 -10 -19 -22 -35 -25 -35
-13 0 -31 -100 -24 -138 5 -30 2 -43 -14 -61 -12 -14 -21 -38 -21 -56 0 -30
-4 -33 -36 -39 -42 -8 -68 -28 -100 -78 -20 -31 -24 -51 -24 -112 0 -77 6
-106 21 -106 5 0 9 35 9 78 0 117 43 181 122 182 18 1 47 7 63 14 l30 13 -37
8 c-21 4 -38 9 -38 12 0 22 45 83 69 93 34 14 44 46 12 35 -14 -4 -20 0 -25
19 -7 29 12 126 24 126 5 0 11 8 15 19 17 53 127 133 217 157 69 18 95 18 157
-3 66 -21 98 -58 107 -123 l6 -48 50 -7 c32 -5 59 -16 76 -32 24 -22 27 -32
26 -85 -1 -32 -6 -64 -13 -71 -6 -6 -11 -18 -11 -26 0 -11 8 -7 25 13 26 30
41 100 30 135 -12 38 -65 79 -112 86 -31 4 -43 11 -43 23 0 29 -25 90 -46 113
-44 49 -122 69 -223 57z"/>
<path d="M8745 2506 c-63 -21 -119 -57 -159 -104 -6 -7 -17 -19 -25 -28 -28
-31 -71 -129 -77 -176 -5 -38 -12 -52 -28 -58 -23 -9 -49 -36 -59 -63 -10 -25
-50 -38 -61 -20 -13 23 -70 43 -122 43 -34 0 -56 -7 -83 -27 -81 -58 -130
-159 -102 -212 7 -12 8 -21 2 -21 -5 0 -12 -9 -16 -19 -4 -14 -22 -23 -61 -32
-76 -17 -134 -72 -134 -128 0 -53 16 -61 24 -12 7 45 45 87 87 96 16 4 29 11
29 16 0 5 13 9 29 9 43 0 66 10 49 22 -10 6 -5 15 22 39 28 24 31 29 13 24
-20 -6 -23 -3 -23 25 0 46 22 91 72 143 41 44 47 47 94 47 28 0 65 -5 81 -10
l30 -11 -35 -35 c-37 -37 -37 -61 1 -27 24 22 85 46 97 38 5 -3 20 15 34 40
18 29 42 53 69 67 32 17 37 23 24 26 -47 10 22 165 107 242 74 67 106 85 165
90 70 7 100 -4 94 -34 -4 -19 -3 -20 9 -4 39 46 137 58 202 25 92 -48 141
-195 71 -213 -38 -9 -30 -21 18 -27 23 -2 52 -8 65 -12 18 -6 21 -4 16 8 -12
33 78 33 145 -1 54 -26 72 -59 79 -143 5 -50 11 -74 20 -73 6 1 30 2 52 3 22
0 40 6 40 11 0 6 -7 10 -15 10 -27 0 -16 18 18 29 19 6 46 7 67 2 31 -7 39 -4
68 23 33 31 35 31 133 30 88 -1 97 0 80 13 -11 7 -49 16 -83 19 -71 7 -130
-12 -148 -47 -10 -18 -17 -20 -60 -14 -43 6 -51 4 -83 -24 -19 -17 -39 -31
-45 -31 -5 0 -12 21 -15 48 -3 26 -8 60 -12 75 -8 32 -46 77 -64 77 -6 0 -11
4 -11 9 0 16 -122 39 -152 29 -15 -6 -28 -14 -28 -18 0 -4 -8 -6 -18 -3 -16 4
-18 12 -14 57 4 45 0 59 -24 98 -34 55 -65 81 -117 98 -39 12 -129 7 -156 -9
-8 -5 -27 -3 -47 5 -41 17 -76 17 -129 0z"/>
<path d="M10245 1753 c-26 -48 -83 -106 -118 -121 -29 -12 -145 -16 -183 -6
-20 5 -20 6 7 62 25 53 29 98 5 58 -72 -118 -101 -145 -167 -153 -24 -3 -53
-12 -64 -19 -20 -15 -145 -20 -145 -6 0 4 16 20 35 35 19 15 35 37 35 48 0 18
-5 16 -42 -15 -23 -20 -50 -36 -60 -36 -10 0 -21 -8 -24 -17 -14 -43 -29 -64
-56 -75 -15 -7 -28 -16 -28 -19 0 -10 -83 -29 -122 -29 -41 0 -107 23 -118 40
-5 9 -9 9 -14 1 -9 -14 -66 -15 -66 -1 0 5 11 12 24 16 27 6 93 70 83 80 -4 4
-24 -5 -45 -20 -21 -14 -48 -26 -59 -26 -15 0 -25 -10 -33 -34 -15 -46 -36
-63 -116 -92 -55 -20 -81 -25 -128 -21 -32 3 -62 10 -65 15 -11 17 -51 25 -51
10 0 -44 145 -70 244 -44 59 16 75 24 111 61 25 25 115 26 160 1 17 -9 53 -16
82 -16 48 0 66 4 133 33 34 15 80 58 80 75 0 9 6 12 18 7 41 -17 140 -18 172
-1 18 9 46 16 61 16 31 0 75 17 101 38 14 11 24 12 49 3 49 -17 160 -14 200 6
44 22 93 75 119 129 22 48 24 54 12 54 -4 0 -16 -17 -27 -37z"/>
<path d="M7720 1687 c-14 -6 -42 -28 -62 -50 -32 -33 -38 -45 -38 -83 0 -24 5
-44 10 -44 6 0 10 15 10 34 0 58 73 126 135 126 28 0 34 15 9 24 -21 8 -34 7
-64 -7z"/>
<path d="M8243 1653 c-12 -2 -33 -17 -47 -33 -13 -16 -35 -32 -47 -35 -33 -9
-60 -33 -88 -78 -32 -52 -21 -56 18 -6 42 52 68 62 132 48 61 -13 71 -7 30 17
-38 22 -39 41 -4 55 38 14 81 2 98 -29 l14 -27 0 25 c1 14 -3 30 -7 37 -7 12
-57 34 -70 32 -4 -1 -17 -4 -29 -6z"/>
<path d="M8710 1494 c-36 -19 -77 -38 -92 -43 -16 -6 -28 -16 -28 -23 0 -23
-49 -67 -82 -73 -18 -3 -60 -7 -93 -8 l-59 -2 3 43 c1 25 -2 42 -8 42 -6 0
-11 -11 -11 -24 0 -29 -47 -71 -108 -97 -47 -21 -107 -25 -117 -9 -8 13 -45
13 -45 1 0 -6 10 -17 22 -25 42 -30 157 -15 202 27 11 9 22 17 25 17 3 0 51 2
106 3 112 2 162 20 186 63 8 15 39 39 76 56 64 31 103 61 103 78 0 14 -8 12
-80 -26z"/>
<path d="M7518 1484 c-27 -14 -48 -42 -48 -63 0 -19 17 -12 23 8 8 30 63 54
97 43 29 -11 113 9 92 22 -5 3 -23 1 -40 -5 -22 -7 -36 -7 -51 0 -26 14 -40
13 -73 -5z"/>
<path d="M7885 1330 c-29 -32 -73 -50 -106 -43 -20 4 -29 2 -29 -7 0 -23 -34
-39 -82 -40 -26 0 -50 5 -53 10 -4 6 -11 8 -16 5 -5 -4 -9 1 -9 9 0 24 -15 19
-43 -16 -22 -25 -35 -32 -69 -34 -24 -2 -45 -3 -47 -3 -2 -1 3 -8 10 -17 18
-22 72 -12 116 22 22 17 38 23 42 16 22 -36 103 -36 153 -1 14 11 39 19 55 19
15 0 41 7 56 15 27 14 57 11 57 -6 0 -23 97 -3 126 25 16 17 19 36 4 36 -5 0
-10 -4 -10 -8 0 -14 -77 -33 -103 -27 -19 5 -23 12 -20 30 6 31 -10 39 -32 15z"/>
<path d="M5819 1335 c-3 -2 -70 -11 -150 -20 -274 -29 -339 -40 -339 -57 0 -6
8 -7 18 -3 21 8 350 52 486 65 114 11 136 20 49 20 -33 0 -62 -2 -64 -5z"/>
<path d="M6145 1324 c-143 -21 -218 -36 -250 -51 l-30 -14 30 6 c83 18 312 55
344 56 20 0 45 4 56 9 30 13 -42 10 -150 -6z"/>
<path d="M7400 1246 c-11 -23 -26 -34 -60 -45 -55 -17 -57 -18 -42 -33 8 -8
22 -7 56 6 44 17 76 51 76 80 0 28 -15 24 -30 -8z"/>
<path d="M5100 1263 c-109 -3 -454 -31 -600 -48 -69 -8 -156 -17 -195 -20
-183 -13 -320 -27 -325 -32 -11 -12 350 11 560 36 128 16 410 40 540 47 63 3
133 10 155 14 l40 8 -50 -1 c-27 -1 -84 -2 -125 -4z"/>
<path d="M5543 1203 c9 -2 23 -2 30 0 6 3 -1 5 -18 5 -16 0 -22 -2 -12 -5z"/>
<path d="M5473 1193 c9 -2 25 -2 35 0 9 3 1 5 -18 5 -19 0 -27 -2 -17 -5z"/>
<path d="M5875 1189 c-122 -11 -247 -26 -380 -44 -66 -10 -147 -21 -180 -25
-181 -23 -302 -42 -320 -50 -11 -4 -56 -14 -100 -20 -44 -6 -100 -16 -125 -21
-25 -4 -58 -11 -74 -14 -15 -3 -26 -9 -23 -12 4 -3 48 2 99 10 51 9 131 21
178 27 47 6 119 18 160 26 41 8 109 19 150 24 41 5 138 18 215 30 123 17 212
28 570 68 l80 9 -85 0 c-47 0 -121 -3 -165 -8z"/>
<path d="M5245 1179 c-27 -5 -106 -13 -175 -19 -183 -16 -280 -27 -415 -45
-66 -10 -142 -19 -170 -22 -27 -2 -63 -10 -80 -18 -16 -7 -55 -18 -86 -25 -31
-6 -65 -17 -75 -25 -13 -9 13 -5 76 11 52 13 111 24 131 24 19 0 39 4 45 10
10 10 164 31 404 56 80 8 183 19 230 24 47 4 137 14 200 20 63 7 117 14 119
16 8 7 -153 2 -204 -7z"/>
<path d="M7090 1179 c-173 -23 -217 -30 -252 -41 -61 -18 -44 -26 25 -11 34 8
96 18 137 23 41 5 118 14 169 20 52 6 97 13 100 15 7 8 -107 3 -179 -6z"/>
<path d="M6653 1123 c9 -2 23 -2 30 0 6 3 -1 5 -18 5 -16 0 -22 -2 -12 -5z"/>
<path d="M6480 1109 c-19 -4 -71 -13 -115 -19 -44 -7 -89 -19 -100 -27 -18
-14 -16 -14 30 -8 28 4 55 10 60 14 6 5 57 14 115 21 142 17 185 28 105 28
-33 0 -76 -4 -95 -9z"/>
<path d="M7150 1097 c-47 -4 -141 -17 -210 -27 -69 -11 -143 -20 -166 -20 -22
0 -65 -4 -95 -9 -30 -5 -90 -15 -134 -21 -100 -14 -233 -49 -242 -63 -4 -7 2
-8 18 -3 44 14 123 28 299 55 30 5 136 18 235 30 99 12 203 26 230 32 28 5 90
14 140 20 49 5 92 12 94 15 6 6 -43 3 -169 -9z"/>
<path d="M5750 1080 c-25 -4 -83 -13 -130 -19 -134 -18 -154 -21 -159 -26 -11
-12 10 -11 94 1 50 8 133 18 185 23 52 5 113 14 135 19 39 10 39 10 -20 10
-33 -1 -80 -4 -105 -8z"/>
<path d="M7360 1080 c-96 -16 -166 -33 -195 -46 -26 -13 -26 -14 -5 -9 14 3
75 14 135 24 61 11 121 24 135 30 l25 10 -25 -1 c-14 0 -45 -4 -70 -8z"/>
<path d="M6038 985 c-3 -3 -36 -10 -74 -15 -96 -13 -143 -24 -188 -44 -53 -22
-39 -31 21 -12 70 22 118 33 203 47 41 6 91 15 110 19 33 8 32 8 -16 9 -28 1
-53 -1 -56 -4z"/>
<path d="M6007 11003 c-23 -6 -18 -37 6 -41 29 -6 67 7 67 22 0 22 -31 30 -73
19z"/>
<path d="M6147 10983 c-30 -8 -13 -28 28 -31 34 -3 66 10 54 23 -9 8 -63 14
-82 8z"/>
<path d="M5833 10960 c-13 -5 -23 -17 -23 -26 0 -13 6 -15 27 -9 31 7 53 23
53 36 0 11 -28 11 -57 -1z"/>
<path d="M5917 10944 c-15 -15 -6 -24 24 -24 20 0 29 4 27 13 -5 14 -40 21
-51 11z"/>
<path d="M6257 10943 c-11 -10 -8 -20 8 -27 22 -8 45 3 38 20 -5 14 -35 19
-46 7z"/>
<path d="M6340 10926 c0 -16 43 -27 61 -16 19 12 0 30 -32 30 -18 0 -29 -5
-29 -14z"/>
<path d="M5990 10905 c0 -10 10 -15 30 -15 20 0 30 5 30 15 0 10 -10 15 -30
15 -20 0 -30 -5 -30 -15z"/>
<path d="M6142 10898 c3 -7 19 -14 37 -16 24 -3 32 0 29 10 -3 7 -19 14 -37
16 -24 3 -32 0 -29 -10z"/>
<path d="M5813 10880 c-24 -10 -31 -34 -13 -45 11 -7 70 22 70 34 0 7 -26 23
-33 20 -1 0 -12 -4 -24 -9z"/>
<path d="M6255 10869 c-9 -13 12 -29 38 -29 26 0 17 34 -10 38 -11 2 -24 -2
-28 -9z"/>
<path d="M6556 10872 c-15 -14 -3 -34 29 -49 37 -17 49 -15 40 8 -6 17 -61 50
-69 41z"/>
<path d="M5950 10855 c0 -13 9 -16 43 -13 23 2 42 8 42 13 0 6 -19 11 -42 13
-34 3 -43 0 -43 -13z"/>
<path d="M6376 10861 c-8 -13 16 -30 52 -37 35 -7 43 7 18 32 -16 16 -62 19
-70 5z"/>
<path d="M6510 10806 c0 -16 21 -26 56 -26 31 0 32 26 2 34 -37 10 -58 7 -58
-8z"/>
<path d="M6570 10737 c0 -16 72 -51 91 -45 8 3 3 13 -15 31 -28 28 -76 37 -76
14z"/>
<path d="M6705 10730 c-10 -16 15 -40 41 -40 29 0 30 10 4 33 -23 20 -36 21
-45 7z"/>
<path d="M9236 10818 c-5 -10 -17 -18 -28 -18 -22 0 -20 -24 3 -27 24 -5 41
13 37 38 -4 21 -6 22 -12 7z"/>
<path d="M6035 10623 c-53 -16 -66 -28 -58 -50 7 -19 34 -16 90 8 30 14 67 21
101 21 56 -1 60 1 38 24 -19 18 -106 17 -171 -3z"/>
<path d="M6058 10554 c-28 -14 -38 -34 -18 -34 6 0 10 5 10 10 0 6 7 10 15 10
8 0 15 -9 15 -20 0 -12 7 -20 16 -20 9 0 18 9 21 20 6 22 24 25 54 9 11 -6 25
-8 32 -6 14 5 -44 32 -88 41 -18 3 -41 0 -57 -10z"/>
<path d="M6541 10464 c-17 -18 -25 -38 -26 -68 -1 -24 -5 -48 -9 -55 -10 -16
3 -14 20 3 16 17 19 46 4 46 -5 0 -10 5 -10 11 0 21 34 3 41 -21 6 -21 7 -19
8 13 1 23 -3 36 -9 32 -5 -3 -10 3 -10 13 0 24 23 35 40 19 9 -9 11 -8 8 8 -5
29 -30 29 -57 -1z"/>
<path d="M5895 10150 c-45 -8 -18 -18 40 -15 28 2 70 4 95 4 31 1 41 4 31 10
-16 10 -116 11 -166 1z"/>
<path d="M5985 10100 c-11 -5 -35 -9 -52 -9 -47 -1 -41 -21 6 -21 24 0 48 8
62 20 25 20 18 25 -16 10z"/>
<path d="M6365 9853 c-15 -49 -30 -95 -33 -103 -3 -10 -2 -12 6 -5 14 13 72
155 72 178 0 39 -18 12 -45 -70z"/>
<path d="M6435 9662 c-38 -20 -72 -39 -75 -43 -3 -3 -16 -12 -30 -19 -14 -8
-20 -15 -13 -17 7 -3 43 12 80 33 38 20 80 43 96 51 15 8 27 19 27 24 0 13 -7
11 -85 -29z"/>
<path d="M6214 9549 c-3 -6 -17 -8 -30 -5 -26 7 -31 -3 -12 -22 24 -24 76 -3
78 31 0 11 -28 8 -36 -4z"/>
<path d="M7311 8715 c-8 -16 -21 -46 -29 -65 -34 -76 -48 -101 -72 -127 -36
-39 -100 -125 -100 -136 0 -5 12 6 28 25 79 96 120 129 88 71 -24 -44 -56
-121 -56 -135 0 -22 80 128 84 159 1 7 5 16 9 19 4 4 7 14 7 23 0 20 42 124
53 132 5 3 7 19 5 35 l-4 29 -13 -30z"/>
<path d="M3914 8918 c13 -48 19 -149 9 -171 -6 -12 -15 -34 -22 -49 -13 -35
-29 -36 -41 -2 -6 15 -19 39 -30 55 -11 15 -25 53 -32 83 -12 63 -23 71 -32
25 -8 -40 2 -77 30 -115 38 -50 57 -104 50 -146 -5 -28 -3 -36 6 -33 14 6 35
38 79 125 34 66 39 151 12 212 -18 41 -39 53 -29 16z"/>
<path d="M4211 7703 c0 -21 4 -47 9 -58 6 -17 9 -15 15 17 7 39 0 78 -16 78
-5 0 -9 -17 -8 -37z"/>
<path d="M3480 8105 c0 -12 13 -15 61 -15 81 0 77 24 -4 28 -46 2 -57 0 -57
-13z"/>
<path d="M3315 7974 c-14 -15 -25 -35 -25 -45 0 -11 -1 -22 -2 -26 -2 -3 3 -8
10 -10 6 -3 12 3 12 11 0 9 11 34 25 56 29 45 16 53 -20 14z"/>
<path d="M3016 7933 c-9 -26 -16 -55 -16 -65 0 -34 16 -18 29 30 7 26 15 55
18 65 3 9 1 17 -5 17 -6 0 -17 -21 -26 -47z"/>
<path d="M3499 7961 c-14 -3 -40 -18 -58 -33 -46 -39 -79 -108 -51 -108 6 0
10 7 10 15 0 9 18 35 40 59 48 52 90 64 138 40 18 -8 38 -14 45 -11 15 5 -41
35 -74 40 -13 2 -36 1 -50 -2z"/>
<path d="M3473 7898 c-40 -29 -59 -61 -68 -118 -4 -25 -12 -51 -18 -58 -13
-16 0 -29 14 -15 8 8 22 7 52 -3 94 -33 177 8 191 95 4 30 11 41 24 41 25 0
62 28 62 47 0 11 -5 13 -17 7 -41 -17 -91 -16 -131 5 -52 27 -70 26 -109 -1z
m54 -52 c-9 -23 -37 -20 -37 3 0 21 20 33 34 20 5 -4 6 -15 3 -23z"/>
<path d="M3053 7885 c-13 -24 -27 -85 -19 -85 10 0 37 73 33 90 -2 12 -5 11
-14 -5z"/>
<path d="M3633 7717 c-12 -19 -55 -44 -91 -51 -45 -10 -40 -26 9 -26 33 0 46
6 75 36 19 20 34 41 34 45 0 13 -18 11 -27 -4z"/>
<path d="M4036 8035 c-25 -25 -22 -110 5 -128 28 -20 55 -11 70 25 10 25 10
37 -3 72 -16 46 -45 58 -72 31z m59 -26 c4 -11 4 -36 0 -55 -5 -29 -10 -35
-28 -32 -24 3 -34 40 -23 84 8 30 42 32 51 3z"/>
<path d="M6247 7869 c-22 -13 -47 -68 -47 -101 1 -22 1 -22 15 -4 8 11 15 27
15 36 0 9 11 27 25 40 37 35 32 52 -8 29z"/>
<path d="M6735 7422 c-27 -10 -81 -40 -120 -68 -76 -54 -113 -74 -190 -99 -68
-23 -82 -39 -26 -30 75 12 177 61 250 119 39 31 74 56 79 56 4 0 26 9 48 20
49 24 26 25 -41 2z"/>
<path d="M6850 6290 c0 -15 4 -30 9 -35 5 -6 30 -53 57 -105 41 -82 165 -286
183 -300 3 -3 19 -23 36 -45 16 -22 42 -53 58 -70 27 -28 28 -28 16 -5 -6 14
-15 27 -18 30 -3 3 -10 12 -16 21 -5 9 -53 81 -106 160 -53 79 -119 189 -147
244 -67 130 -72 137 -72 105z"/>
<path d="M4739 5323 c-17 -19 -71 -129 -85 -173 -23 -72 -9 -61 36 30 17 36
41 82 52 103 22 43 20 68 -3 40z"/>
<path d="M2814 7115 c-7 -18 3 -35 21 -35 15 0 24 19 18 38 -6 17 -32 15 -39
-3z"/>
<path d="M2934 7049 c-3 -6 0 -17 7 -25 18 -17 44 -2 36 20 -7 18 -33 21 -43
5z"/>
<path d="M3040 6916 c0 -18 27 -39 40 -31 5 3 10 15 10 26 0 14 -7 19 -25 19
-15 0 -25 -6 -25 -14z"/>
<path d="M2683 6786 c-17 -19 -11 -21 46 -18 35 3 51 8 51 18 0 19 -80 18 -97
0z"/>
<path d="M2700 6723 c-20 -8 -40 -29 -40 -43 0 -7 6 -8 19 0 28 14 31 13 31
-13 0 -13 -16 -39 -39 -61 -54 -53 -66 -146 -19 -146 15 0 19 5 15 19 -8 33
11 51 53 51 29 0 40 -4 40 -15 0 -8 5 -15 12 -15 14 0 -20 -33 -44 -43 -10 -3
-18 -11 -18 -17 0 -29 80 8 114 54 28 37 28 129 1 180 -24 44 -81 66 -125 49z"/>
<path d="M2850 6716 c0 -8 4 -17 9 -20 5 -4 12 -24 16 -46 4 -22 11 -42 16
-46 15 -9 10 65 -6 96 -16 32 -35 40 -35 16z"/>
<path d="M2550 6540 c0 -30 16 -69 35 -82 16 -12 16 -2 -2 56 -19 62 -33 73
-33 26z"/>
<path d="M2831 6469 c-21 -23 -28 -49 -13 -49 10 0 45 60 39 66 -3 3 -14 -5
-26 -17z"/>
<path d="M2640 6401 c0 -10 30 -24 37 -17 3 3 2 9 -2 15 -8 13 -35 15 -35 2z"/>
<path d="M5940 6728 c1 -18 25 -48 39 -48 14 0 14 15 1 41 -12 21 -40 26 -40
7z"/>
<path d="M5960 6630 c0 -18 3 -19 21 -9 17 9 19 13 8 20 -22 14 -29 11 -29
-11z"/>
<path d="M6050 6558 c0 -24 18 -41 34 -35 14 6 14 10 4 27 -14 22 -38 27 -38
8z"/>
<path d="M6050 6471 c0 -24 22 -42 39 -32 10 7 11 13 2 30 -14 26 -41 28 -41
2z"/>
<path d="M6134 6358 c3 -13 6 -26 6 -30 0 -5 7 -8 15 -8 10 0 15 10 15 30 0
24 -4 30 -21 30 -17 0 -20 -4 -15 -22z"/>
<path d="M6174 6187 c-3 -10 -3 -33 0 -53 5 -26 12 -34 24 -32 22 5 21 64 -2
86 -14 14 -16 14 -22 -1z"/>
<path d="M6234 6047 c-11 -30 0 -62 24 -65 18 -3 22 1 22 21 0 13 -9 32 -20
42 -17 16 -20 16 -26 2z"/>
<path d="M6255 5900 c-9 -15 3 -47 21 -54 8 -3 17 1 21 11 11 28 -27 68 -42
43z"/>
<path d="M6268 5804 c-11 -10 8 -59 24 -62 21 -4 33 34 18 53 -13 15 -32 19
-42 9z"/>
<path d="M6314 5646 c-8 -21 15 -68 30 -63 20 6 17 43 -3 61 -19 17 -21 18
-27 2z"/>
<path d="M6352 5378 c5 -32 28 -35 28 -4 0 17 -5 26 -16 26 -10 0 -14 -7 -12
-22z"/>
<path d="M6408 5315 c-3 -3 -3 -17 0 -30 5 -29 32 -34 32 -6 0 19 -23 45 -32
36z"/>
<path d="M6358 5265 c-10 -10 4 -56 16 -52 17 5 20 57 3 57 -7 0 -16 -2 -19
-5z"/>
<path d="M6395 5150 c-11 -18 6 -51 23 -48 21 4 28 38 10 49 -17 11 -26 11
-33 -1z"/>
<path d="M6463 5044 c-7 -19 11 -39 26 -30 16 10 13 33 -4 40 -9 3 -18 -1 -22
-10z"/>
<path d="M6540 4956 c0 -29 17 -43 33 -27 8 8 9 16 1 28 -17 27 -34 27 -34 -1z"/>
<path d="M6634 4916 c-9 -22 4 -36 32 -36 21 0 25 4 22 23 -4 26 -45 37 -54
13z"/>
<path d="M8425 3482 c-43 -31 -68 -116 -66 -224 3 -86 -2 -96 -74 -173 -25
-26 -45 -55 -45 -65 0 -10 -12 -32 -26 -49 -19 -22 -22 -31 -11 -31 22 0 77
55 77 77 0 10 24 41 54 70 l54 52 4 123 c4 107 8 130 30 176 25 49 26 61 3 44z"/>
<path d="M5743 6442 c-9 -15 -7 -21 7 -30 22 -13 46 8 36 33 -7 20 -29 19 -43
-3z"/>
<path d="M5697 6293 c-12 -11 -7 -53 6 -53 17 0 43 18 39 27 -12 27 -33 39
-45 26z"/>
<path d="M5615 6130 c-8 -25 1 -40 25 -40 10 0 22 5 25 10 11 17 -6 50 -25 50
-10 0 -21 -9 -25 -20z"/>
<path d="M5544 5975 c-8 -21 3 -48 19 -43 19 7 22 58 2 58 -8 0 -18 -7 -21
-15z"/>
<path d="M5450 5820 c-13 -25 -6 -40 21 -40 16 0 20 6 17 27 -4 34 -23 41 -38
13z"/>
<path d="M5347 5674 c-4 -4 -7 -18 -7 -31 0 -20 5 -24 23 -21 16 2 22 10 22
28 0 24 -23 39 -38 24z"/>
<path d="M5234 5535 c-8 -20 4 -35 27 -35 14 0 19 7 19 25 0 18 -5 25 -20 25
-11 0 -23 -7 -26 -15z"/>
<path d="M5120 5395 c-16 -19 -5 -49 16 -41 9 3 20 6 25 6 5 0 9 11 9 25 0 29
-29 35 -50 10z"/>
<path d="M4957 5253 c-4 -3 -7 -19 -7 -35 0 -23 4 -28 25 -28 18 0 26 7 31 24
3 14 3 30 -1 35 -7 12 -38 15 -48 4z"/>
<path d="M4803 5113 c-18 -7 -16 -48 2 -63 21 -18 45 4 45 41 0 29 -15 36 -47
22z"/>
<path d="M4627 4973 c-4 -3 -7 -17 -7 -30 0 -32 45 -33 53 -1 3 12 4 25 1 30
-6 10 -38 11 -47 1z"/>
<path d="M5040 3219 c-37 -41 -55 -118 -39 -166 6 -18 14 -33 18 -33 5 0 11
34 14 75 4 59 11 81 32 109 35 45 15 58 -25 15z"/>
<path d="M9580 6272 c0 -6 12 -11 28 -11 15 0 65 -2 110 -5 58 -3 81 -1 73 7
-14 14 -211 23 -211 9z"/>
<path d="M10038 5951 c12 -10 22 -23 22 -29 0 -6 6 -15 13 -19 19 -12 61 -73
88 -128 28 -56 75 -130 102 -159 23 -26 22 -15 -4 31 -12 21 -43 77 -70 125
-52 96 -133 198 -157 198 -11 0 -10 -5 6 -19z"/>
<path d="M10057 5499 c12 -55 36 -127 56 -169 19 -41 29 -56 77 -118 55 -71
249 -167 378 -186 76 -11 38 24 -42 40 -20 3 -39 10 -42 15 -3 5 -13 9 -22 9
-9 0 -57 20 -108 45 -127 63 -196 141 -254 287 -34 85 -53 119 -43 77z"/>
<path d="M8160 5937 c0 -13 7 -30 16 -38 14 -11 15 -9 12 21 -4 39 -28 54 -28
17z"/>
<path d="M8260 5536 c0 -29 10 -38 29 -27 17 11 5 51 -15 51 -8 0 -14 -10 -14
-24z"/>
<path d="M8280 5421 c0 -12 6 -21 16 -21 9 0 14 7 12 17 -5 25 -28 28 -28 4z"/>
<path d="M8348 5219 c-24 -14 -23 -49 1 -49 24 0 45 25 37 45 -6 17 -14 18
-38 4z"/>
<path d="M3834 5215 c-8 -20 4 -35 27 -35 14 0 19 7 19 25 0 18 -5 25 -20 25
-11 0 -23 -7 -26 -15z"/>
<path d="M3900 5121 c0 -27 13 -33 35 -17 21 15 12 36 -16 36 -12 0 -19 -7
-19 -19z"/>
<path d="M3975 5040 c-8 -24 1 -40 21 -40 20 0 29 27 14 45 -17 20 -27 19 -35
-5z"/>
<path d="M4046 4952 c-9 -14 12 -35 28 -29 23 9 20 37 -3 37 -11 0 -22 -4 -25
-8z"/>
<path d="M4130 4881 c0 -24 25 -34 40 -16 15 18 5 35 -21 35 -12 0 -19 -7 -19
-19z"/>
<path d="M4060 4182 c0 -6 9 -31 20 -57 11 -26 20 -65 20 -87 0 -35 2 -39 15
-28 18 15 21 100 4 117 -6 6 -16 21 -23 34 -12 24 -36 38 -36 21z"/>
<path d="M3635 3697 c-40 -25 -126 -112 -151 -154 -17 -29 -24 -55 -22 -76 4
-32 4 -32 31 23 28 57 44 78 131 168 49 50 53 64 11 39z"/>
<path d="M4330 4912 c0 -4 12 -20 26 -35 14 -15 28 -43 31 -62 7 -43 23 -46
23 -5 0 32 -22 75 -49 98 -17 14 -31 16 -31 4z"/>
<path d="M4266 4852 c-10 -41 2 -129 21 -159 11 -17 24 -23 47 -22 21 1 24 3
10 6 -41 8 -56 38 -63 125 -6 70 -8 78 -15 50z"/>
<path d="M6734 4645 c-7 -18 3 -35 22 -35 8 0 14 10 14 25 0 27 -27 35 -36 10z"/>
<path d="M6721 4527 c-6 -6 -11 -19 -11 -30 0 -27 44 -19 48 9 3 25 -20 38
-37 21z"/>
<path d="M6687 4424 c-4 -4 -7 -18 -7 -31 0 -18 5 -23 26 -23 22 0 25 4 22 27
-3 27 -26 41 -41 27z"/>
<path d="M6657 4314 c-12 -13 -7 -52 7 -57 18 -7 39 17 34 40 -3 18 -29 29
-41 17z"/>
<path d="M6610 4170 c0 -23 4 -30 20 -30 16 0 20 7 20 30 0 23 -4 30 -20 30
-16 0 -20 -7 -20 -30z"/>
<path d="M6567 4094 c-4 -4 -7 -18 -7 -31 0 -20 5 -24 23 -21 16 2 22 10 22
28 0 24 -23 39 -38 24z"/>
<path d="M6499 3984 c-15 -19 -4 -44 20 -44 17 0 31 18 31 40 0 15 -39 18 -51
4z"/>
<path d="M4382 4568 c2 -13 10 -23 18 -23 8 0 16 10 18 23 3 17 -2 22 -18 22
-16 0 -21 -5 -18 -22z"/>
<path d="M4406 4471 c-9 -14 4 -41 20 -41 8 0 14 10 14 25 0 25 -23 35 -34 16z"/>
<path d="M4443 4344 c-6 -17 14 -36 32 -31 6 2 11 13 13 25 3 17 -2 22 -18 22
-11 0 -23 -7 -27 -16z"/>
<path d="M4484 4265 c-7 -18 12 -45 32 -45 19 0 18 46 -2 54 -22 8 -24 8 -30
-9z"/>
<path d="M4526 4183 c-4 -9 0 -23 9 -32 13 -14 17 -14 31 1 15 15 15 18 1 32
-20 21 -33 20 -41 -1z"/>
<path d="M4575 4080 c-8 -13 13 -40 30 -40 18 0 28 32 13 42 -18 11 -36 10
-43 -2z"/>
<path d="M4634 3999 c-3 -6 0 -17 7 -25 18 -17 44 -2 36 20 -7 18 -33 21 -43
5z"/>
<path d="M4723 3903 c-3 -8 2 -22 11 -31 15 -15 18 -15 26 -2 15 24 12 37 -11
43 -13 3 -22 0 -26 -10z"/>
<path d="M6950 3815 c-8 -9 -8 -15 -2 -15 12 0 26 19 19 26 -2 2 -10 -2 -17
-11z"/>
<path d="M6994 3442 c-4 -9 -8 -87 -8 -173 l-1 -157 -45 -43 c-39 -37 -42 -43
-25 -47 10 -2 21 1 23 7 2 6 10 11 18 11 8 0 14 4 14 8 0 5 11 14 24 21 36 20
43 47 35 146 -4 50 -8 122 -8 162 -1 72 -12 98 -27 65z"/>
</g>
</svg>
