<?xml version="1.0" encoding="UTF-8"?><svg id="Layer_1" xmlns="http://www.w3.org/2000/svg" xmlns:xlink="http://www.w3.org/1999/xlink" viewBox="0 0 67.46 97.22"><defs><style>.cls-1{fill:none;}.cls-2{fill:#231f20;}.cls-3{fill:#bbbdbf;}.cls-4,.cls-5{fill:#fff;}.cls-5{stroke:#231f20;stroke-miterlimit:10;stroke-width:2px;}.cls-6{clip-path:url(#clippath);}</style><clipPath id="clippath"><rect class="cls-1" x="5.25" y="6.05" width="55.8" height="83.89"/></clipPath></defs><rect class="cls-5" x="1" y="1" width="65.46" height="95.22"/><g class="cls-6"><path class="cls-4" d="M45.1,69.41c-2.17-.51-4.35-.63-6.57-.76-3.23-.18-6.53.44-9.67-.32-.69-.17-1.37-.4-2.08-.44-1.02-.06-2.01.27-2.96.63-2.16.82-4.25,1.82-6.23,2.99-.36.21-.73.44-1,.75-.32.37-.5.84-.67,1.29-.4,1.07-.81,2.14-1.21,3.21-.15.41-.31.85-.22,1.28.22,1.09,1.75,1.32,2.38,2.24-.92.3-1.61,1.2-1.67,2.16-.06.97.53,1.94,1.41,2.34.3.14.63.21.93.35.37.17.69.42,1.03.64,1.33.88,2.91,1.34,4.49,1.51.91.1,1.82.11,2.74.12.78,0,1.56.02,2.33.03.94.01,1.88.02,2.81-.02,2.47-.12,4.88-.36,7.15-1.34.9-.39,1.81-.78,2.71-1.16.35-.15.71-.31,1.09-.37.67-.11,1.4-.03,2.09-.11.33-.04.66-.07.99-.07.9.02,1.74.35,2.54.73.75.36,1.33.44,2.15.51.32.03.63.14.93.24.54.19,1.07.38,1.58.64.41.21.79.46,1.21.63,1.33.55,3.04.16,4.12,1.31.38.4.73,1,1.28.94.42-.04.68-.47.87-.85.26-.5.51-1.01.67-1.55.12-.42.19-.85.24-1.29.56-4.4.16-8.92-1.14-13.17-.59-.36-1.38-.66-2.03-.9-.9-.32-1.83-.52-2.76-.71-2.17-.45-4.36-.9-6.58-.93-.37,0-.75,0-1.1-.11-.57-.18-1.28-.6-1.86-.46"/><path class="cls-3" d="M48.34,47.75c-.48-.5-.96-1-1.44-1.5-.18-.19-.37-.38-.59-.53-.27-.18-.59-.28-.91-.37-1.3-.38-2.62-.7-3.96-.79-.38-.03-.77-.03-1.15-.1-.33-.06-.65-.17-.98-.22-.94-.15-1.92.16-2.85-.04-.11-.02-.22-.06-.31-.13-.09-.07-.14-.18-.18-.29-.23-.57-.28-1.21-.16-1.81.11-.51.33-.98.56-1.44.07-.14.13-.28.22-.4.47-.68.41-1.62.47-2.44.02-.27.02-.55.1-.82.09-.33.27-.62.36-.95.07-.25.07-.5.1-.76.05-.48.16-.95.22-1.43.15-1.25-.07-2.54-.64-3.66-.46-.9-1.31-1.74-2.31-1.95-.32-.07-.69-.08-.96.12-.25.19-.34.51-.41.82-.36,1.65-.29,3.4-.96,4.94-.22.51-.52.98-.77,1.47-.24.5-.43,1.02-.63,1.53-.51,1.28-1.11,2.53-1.81,3.71-.32.54-.66,1.08-1.06,1.56-.36.43-.76.83-1.09,1.28-.74,1.01-1.09,2.29-1.96,3.2-.22.23-.1.63-.21.92-.38.97-.77,1.94-1.32,2.82-.55.89-1.26,1.69-2.16,2.21-.73.43-1.48.66-2.24,1.04-4.15,2.13-8.49,3.86-12.91,5.35-.26.09-.52.18-.71.37-.38.38-.33,1.01-.25,1.54.42,2.8.31,5.75.46,8.57.12,2.23.24,4.46.17,6.7-.01.45.1,1.07.55,1.09.15,0,.29-.06.43-.13,1.06-.54,2.12-1.08,3.18-1.63,2.18-1.12,4.36-2.24,6.44-3.54.54-.34,1.07-.69,1.63-1,.48-.26.98-.48,1.48-.69,1.15-.5,2.29-1.01,3.44-1.51,1.24-.54,2.51-1.09,3.86-1.18.88-.06,1.75.08,2.62.23,1.52.25,3.06.53,4.6.39,2.16-.19,4.27-.72,6.4-1.14.2-.04.4-.08.59-.15.23-.09.44-.22.65-.34.51-.29,1.05-.54,1.6-.73.5-.17,1.02-.31,1.43-.65.83-.7.81-2.08.12-2.92.56-.38.88-1.04,1.44-1.42.39-.26.89-.38,1.19-.75.25-.31.29-.74.22-1.13-.07-.39-.25-.75-.4-1.11-.32-.73-.57-1.63-.12-2.29.32-.46.93-.72,1.1-1.25.16-.51-.02-1.06.08-1.58.03-.18.08-.35.07-.53,0-.28-.13-.54-.21-.81-.34-1.22.78-2.87-.1-3.78"/><path class="cls-3" d="M23.32,50.52c-.6.12-1.26-.03-1.75-.4-.43-.33-.71-.8-.99-1.27-1.2-2.01-2.41-4.02-3.61-6.03-.48-.79-.95-1.59-1.32-2.44-.25-.57-.44-1.15-.69-1.72-.44-1.02-1.04-1.97-1.63-2.92-.82-1.3-1.63-2.6-2.45-3.9-.44-.69-.44-1.43-.49-2.25-.04-.51.04-1.09.45-1.39.14-.1.31-.16.47-.21.99-.28,2.07-.16,3.03.24.95.4,1.78,1.06,2.47,1.82,1.73,1.92,2.62,4.43,3.8,6.72.26.5.65,1.07,1.21,1.05.4,0,.73-.31.99-.61.96-1.09,1.63-2.42,1.95-3.84.15-.68.23-1.38.32-2.07.08-.57.17-1.14.3-1.7.08-.33.17-.67.19-1.01.03-.77-.33-1.49-.68-2.18-.4-.78-.14-1.65-.21-2.52-.09-1.1-.18-2.21-.27-3.31-.08-.92-.15-1.83-.17-2.75,0-.33-.01-.65-.01-.98,0-.9,0-1.8-.01-2.7,0-1.04,0-2.1.25-3.11.18-.69.09-1.46.45-2.08.36-.62,1.04-1.09,1.75-1.06.86.04,1.56.77,1.86,1.58s.28,1.69.32,2.55c.11,2.87.79,5.69,1.54,8.46.43,1.57.88,3.17.8,4.8-.02.47-.07,1.02.27,1.35.25.24.62.28.96.32.22.02.47.03.63-.12.11-.1.15-.25.18-.4.23-1.11-.04-2.27.04-3.4.05-.76.25-1.49.37-2.24.08-.48.13-.95.18-1.43.12-1.05.27-2.1.43-3.15.07-.49.14-.98.22-1.48.25-1.69.5-3.39.75-5.08.11-.77.24-1.58.69-2.22.56-.79,1.6-1.21,2.55-1.02.16.03.32.08.44.19.1.09.17.21.23.34.57,1.16.9,2.47.71,3.75-.05.3-.12.6-.19.9-.31,1.45-.39,2.94-.46,4.43-.15,3.22-.31,6.44-.46,9.66.14.05.26-.12.32-.26,1.4-3.32,2.81-6.69,3.26-10.26.13-1.02.19-2.08.59-3.03.25-.58.52-1.08,1.09-1.35.57-.28,1.22-.34,1.85-.36.3,0,.62,0,.88.17.27.18.41.5.53.8.19.49.38.99.34,1.51-.02.3-.13.59-.23.88-.85,2.5-1.39,5.11-1.58,7.74-.06.77-.09,1.54-.24,2.3-.12.6-.36,1.14-.55,1.72-.18.58-.2,1.24-.36,1.85-.25.98-.55,1.9-.65,2.92-.03.34-.05.69.04,1.02.09.33.29.65.6.79.05.02.1.04.15.02.04-.02.07-.06.09-.1.3-.5.55-1.04.8-1.57.14-.29.27-.58.41-.87.64-1.37,1.28-2.77,1.42-4.27.04-.47.04-.94.07-1.4.04-.48.12-.96.24-1.42.13-.49.31-.98.62-1.39.3-.41.74-.74,1.24-.83.51-.1,1.03.04,1.52.18.18.05.37.11.52.23.15.13.22.32.29.5.27.79.36,1.64.25,2.47-.05.34-.12.67-.2,1-.77,3.23-1.68,6.44-3.03,9.48-.24.54-.5,1.11-.38,1.69.58,2.92-.35,5.83-1.07,8.71-.1.4-.24.84-.59,1.06-.54.32-1.21-.05-1.77-.32-2.6-1.24-5.82-.28-8.46-1.43-.15-.07-.3-.14-.42-.25-.24-.21-.36-.52-.42-.82-.27-1.43.58-2.79,1.11-4.15.62-1.58.83-3.29.85-4.99.01-1.74-.27-3.67-1.59-4.8-.4-.34-.9-.6-1.42-.61-.53,0-1.08.27-1.29.75-.11.25-.13.54-.16.81-.38,4.62-2.63,8.89-5.29,12.69-.56.8-1.14,1.59-1.66,2.42-1.1,1.78-2.01,3.79-3.1,5.58"/><path class="cls-2" d="M59.45,89.95c.31-.37.47-.8.58-1.26.44-1.83.93-3.64,1.02-5.53.07-1.47-.14-2.93-.26-4.39-.11-1.29-.2-2.59-.31-3.88-.08-.98-.57-1.82-.93-2.7-.07-.17-.27-.19-.43-.24-2.52-.79-5-1.7-7.68-1.92-1.83-.15-3.63-.6-5.44-.88-1.87-.29-3.75-.53-5.63-.79-.16-.02-.32-.07-.63-.15.82-.16,1.51-.29,2.1-.67.38-.25.62-.66,1.09-.85.51-.22,1.01-.46,1.54-.66.76-.28,1.31-.77,1.34-1.69.01-.54.17-1.07.24-1.61.08-.73.56-1.18,1.09-1.57,1.15-.85,1.28-1.12.94-2.52-.07-.27-.1-.58-.24-.8-.35-.56-.23-1.05.15-1.5.53-.63.72-1.39.96-2.13.24-.76.1-1.5-.11-2.22-.14-.5.02-.96.04-1.43.02-.89-.08-1.76-.17-2.64-.07-.69-.58-1.12-.99-1.6-.18-.22-.22-.37-.13-.64.42-1.33.61-2.71.91-4.06.44-1.92.5-3.86.61-5.81.06-1.19.59-2.25,1.02-3.32.25-.62.44-1.24.57-1.88.35-1.71,1.06-3.33,1.36-5.05.19-1.09.47-2.17.42-3.29-.07-1.54-1.26-2.56-2.79-2.34-.97.14-1.51.86-1.81,1.67-.48,1.3-.69,2.68-.82,4.07-.08.89-.53,1.68-.86,2.49-.43,1.06-.86,2.12-1.31,3.17-.06.15-.04.48-.27.41-.25-.07-.5-.26-.51-.6-.02-.55.06-1.08.19-1.62.54-2.17,1.16-4.32,1.57-6.51.24-1.3.37-2.64.48-3.96.09-1.1.38-2.13.73-3.17.36-1.06.75-2.12.9-3.24.16-1.1-.54-1.88-1.51-2.41-.87-.48-1.89-.27-2.69.32-1.09.81-1.37,1.99-1.54,3.2-.19,1.3-.48,2.58-.83,3.85-.67,2.44-1.74,4.74-2.44,7.17-.05-1.24-.03-2.47.1-3.69.2-1.93.38-3.85.3-5.79-.04-.86.15-1.71.28-2.57.21-1.37.53-2.76.36-4.14-.21-1.65-1.06-2.58-2.62-2.5-.81.04-1.3.54-1.71,1.14-.56.83-.84,1.77-.92,2.75-.24,3.04-.88,6.02-1.36,9.02-.4,2.43-.52,4.89-.78,7.33-.03.26.04.53-.39.51-.38-.02-.51-.16-.56-.53-.25-1.84-.32-3.72-.92-5.49-.77-2.28-1.13-4.62-1.51-6.98-.16-.96-.26-1.94-.23-2.92.03-1.1-.46-1.98-1.14-2.74-.81-.92-2.64-.57-3.24.56-.33.63-.55,1.31-.61,2.04-.2,2.46-.11,4.93-.07,7.39.02,1,.21,2.01.31,3.02.15,1.38.27,2.76.32,4.15.04.93.24,1.82.46,2.72.22.91-.16,1.74-.28,2.61-.11.84-.26,1.67-.29,2.51,0,.15.02.31-.09.43-.7.76-.91,1.76-1.3,2.67-.24.54-.68.83-1.1,1.17-.25.19-.33-.05-.44-.17-.79-.83-1.3-1.84-1.78-2.86-.41-.88-.75-1.8-1.28-2.63-1.38-2.18-3.08-3.93-5.78-4.34-.62-.09-1.23,0-1.82.22-.28.1-.45.3-.57.59-.38.92-.3,1.83.01,2.74.24.71.59,1.38.94,2.05,1,1.94,2.35,3.67,3.39,5.58.73,1.35,1.27,2.8,1.91,4.2.53,1.16.98,2.36,1.75,3.4.43.59.83,1.21,1.14,1.87.65,1.38,1.56,2.56,2.76,3.51-1.62,1.34-3.44,2.27-5.37,3.03-1.03.4-1.93,1.08-2.98,1.45-2.64.95-5.27,1.96-7.92,2.88-.56.19-.68.49-.66.98.06,1.48.12,2.97.18,4.45.13,3.4.27,6.8.4,10.21.04.9.08,1.8.1,2.71,0,.32.12.42.43.44.65.04,1.18-.3,1.67-.6.51-.32,1.08-.53,1.57-.86,1.4-.93,2.98-1.49,4.45-2.28.68-.36,1.34-.71,2.01-1.28-.26.97-.57,1.81-.94,2.62-.29.62-.38,1.33-.8,1.9-.12.17-.05.44.01.66.24.85.7,1.53,1.49,1.96.17.1.38.15.52.39-.79.43-1.3,1.1-1.43,1.97-.21,1.36.16,2.37,1.48,2.78.47.15.82.42,1.16.75.79.75,1.69,1.19,2.79,1.46,2.42.57,4.88.53,7.33.7,1.47.1,2.93.19,4.39.02,1.85-.22,3.68-.49,5.41-1.26.29-.13.59-.22.89-.33,1.17-.43,2.35-.8,3.6-.99.87-.13,1.69-.54,2.62-.53.56,0,1.07.02,1.58.27.89.45,1.89.44,2.84.67,1.28.31,2.47.87,3.72,1.28,1.43.47,2.82,1.01,4.17,1.67.77.37,1.53.75,2.23,1.26h.34ZM24.98,67.67c.25-.2-.23-.26-.06-.47.4.05.8.1,1.29.16-.44.22-.84.27-1.25.29-.15.28-.45.31-.71.36-1.96.44-3.55,1.72-5.46,2.32-1.04.33-1.94,1.12-2.92,1.68-1.11.63-2.03,1.58-3.22,2.07-1.9.77-3.7,1.72-5.43,2.8-.45.28-.83.06-.85-.45-.04-.85-.07-1.69-.1-2.54-.1-2.48-.19-4.96-.3-7.44-.09-2.14-.19-4.29-.28-6.43-.01-.25-.02-.46.3-.57,1.31-.46,2.6-.96,3.91-1.41,1.01-.34,2.05-.55,3.03-.99,1.94-.88,3.97-1.57,5.94-2.4,1.15-.48,2.07-1.28,3.1-1.93,1.12-.72,1.95-1.71,2.35-3,.24-.78.6-1.49.99-2.2.17-.31.36-.61.51-.94.81-1.7,1.86-3.27,3-4.76.88-1.15,1.7-2.32,2.29-3.66.26-.59.47-1.17.58-1.81.1-.62.35-.75.99-.64.2.03.39.15.65.02-.39-.21-.79-.22-1.19-.3.43-.72.84-1.41.96-2.23.06-.42.26-.6.75-.57,1.2.06,1.44-.22,1.56-1.41.06-.6.11-1.2.09-1.8,0-.26.12-.47.28-.58.15-.11.32.14.45.26.41.39.71.84.9,1.4.61,1.76.37,3.54.12,5.3-.28,1.97-1.03,3.8-1.84,5.6-.15.33-.29.65-.21,1.03.11.53.21,1.06.33,1.63-.34-.05-.68-.1-.95-.14.22-.67-.26-1.29-.1-1.91.16-.62.36-1.23.54-1.84-.35.28-.39.7-.66,1.16-.03-1.5.53-2.76.81-4.12-.43.49-.46,1.08-.8,1.58-.39.58-.51,1.38-.79,2.07-.32.75-.2,1.55-.12,2.34.08.84.2.91,1.04,1.09,1.52.33,3.07.24,4.59.44,1.22.16,2.46-.12,3.7.1,1.06.18,2.12.27,2.96,1.04.11.1.26.16.39.22.39.17.66.39.42.86-.19.36,0,.77-.15,1.14-.24.63-.73,1.01-1.27,1.36-.12.08-.32.28-.24.29.47.05.24.41.31.62.02.06.02.21.07.16.38-.36.47.11.66.26.1-.19.05-.33-.01-.47-.07-.18.04-.28.16-.38.08-.06.15-.01.19.05.09.14.01.24-.07.35-.15.18-.23.31.13.22.15-.04.11.11.08.18-.04.1-.14.24.06.22.22-.02.52.17.62,0,.14-.24.29-.69.17-.85-.32-.41-.12-.76-.07-1.14.04-.27.21-.53.12-.83-.22.17-.11.5-.41.75.19-.64.27-1.2.32-1.77.74,1.07.89,2.26.78,3.51-.01.12-.09.26-.27.19-.68-.28-.31.17-.27.39.03.16.19.22.29.33.49.53.68,1.15.57,1.87-.03.17-.04.46-.1.48-.54.1-.65.81-1.22.84-.07,0-.18-.06-.19.04-.02.4-.37.48-.61.67-.12.1-.18.22-.1.34.17.26.05.52,0,.8.11-.06.2-.14.27-.14.06,0,.06.12.02.19-.09.21-.28.38-.26.67.51-.49.6-.48.87.2.21.52.4,1.06.53,1.6.12.52.01,1.01-.52,1.33-.04-.23.23-.45-.04-.69-.2.38-.52.59-.86.79-.63.36-1.29.63-2.01.67-.54.03-.64.24-.45.74-.13-.3-.7-.05-.56-.63-.54.4-1.08.67-1.76.57.25-.3.68-.26.85-.65-.7.28-1.39.56-2.18.88.3.06.5.07.66.14.83.34,1.72.3,2.58.3.22,0,.47-.12.63.06.16.19-.2.32-.15.71.17-.5.38-.22.57-.2.49.06.99.66.89,1.12-.15.63-.45,1.16-1.15,1.32-.57.13-1.13.21-1.71-.06-.19-.09-.42.07-.61.2.49.41-.22.37-.17.62-.15-.18.09-.37-.11-.58-.05.24-.34.23-.38.41-.14.54-.93.89-1.52.63.35-.18.69-.35,1.08-.55-.24-.1-.36.03-.51.04-.51.01-1.05,1-1.52-.04-.68-.12-.9-.81-1.39-1.16-.21-.15-.35-.43-.79-.39.56.59,1.06,1.11,1.58,1.66-.82.4-1.34-.26-1.97-.48-.01.31.33.29.32.52-.96.34-1.81,0-2.63-.5.06.39.47.38.6.66-.79.19-1.48-.04-2.12-.46-.09.26.27.27.13.5-.14,0-.29,0-.44,0-1.04-.06-2.09-.05-3.13.03-.6.05-1.2.12-1.79.15-1.4.06-2.79-.39-4.2-.17-.09.01-.18-.03-.27-.06-.56-.2-1.14-.2-1.72-.2-1.46.01-2.93-.04-4.39.15-1.36.18-2.68.55-4,.92-.15.04-.3.13-.26.32.05.22.23.16.37.12.49-.12.97-.26,1.46-.4,1.4-.49,2.79-.33,4.19,0-1.02.11-2.03-.31-3.05,0,.38.06.76.12,1.15.18-.8.23-1.52-.2-2.29-.18.06.18.23.18.37.22.87.22,1.75.43,2.62.64.08.02.18.06.23-.07-.1-.2-.39-.08-.5-.34.89-.26,1.7.17,2.55.26-.09-.29-.45-.18-.55-.42.55-.11,1.1.05,1.63-.05.51-.09,1-.14,1.49,0,.35.1.77-.19,1.05.16.33.4.56-.11.87-.09-.43-.26-.87-.52-1.35-.81.76,0,1.18.63,1.86.81-.15-.38-.56-.38-.72-.7.62-.05,1.01.39,1.47.63M44.66,23.66c-.84.43-1.66,0-2.5,0,.63.3,1.3.5,1.98.34.47-.11.59.01.47.61.17-.3.24-.42.32-.55-.54,1.73-.92,3.48-1.28,5.38-.15-.31-.23-.48-.33-.68-.24.34-.54.52-.83.73-.28.21.12.66-.31.75.13.28.57-.23.54.25-.03.46.25.69.54.92.35.29.7.56.91.98.07.14.22.25.36.35.28.19.47.16.55-.22.16-.75.53-1.43.8-2.14.12-.31.28-.36.6-.18.38.22.8.4,1.43.29-.6-.34-1.19-.31-1.57-.76.27-.09.4.26.74.07-.92-.24-.56-.72-.34-1.22.29-.65.6-1.3.78-1.99.14-.52.26-.72.76-.38.1.07.29.22.37,0,.06-.15-.13-.21-.25-.25-.63-.2-.75-.64-.72-1.25.06-1.04.35-2.04.66-3.02.26-.84,1.23-1.35,2.07-1.24.78.1,1.28.67,1.4,1.67.18,1.49-.29,2.9-.66,4.31-.11.41-.47.37-.79.32-.2-.03-.4-.2-.63.02.23.23.51.29.78.26.49-.05.53.24.4.56-.42,1.05-.62,2.16-1.02,3.21-.17.45-.37.69-.99.38-.19-.1-.38-.32-.66-.1.24.22.48.42.75.42.68-.02.55.41.45.78-.24.87-.52,1.72-.79,2.58-.11.33-.3.54-.7.35-.35-.17-.77-.08-1.12-.32.23.35.46.68.51,1.06.02.18.07.24.19.32.62.42.82,1.13.48,1.81-.41.82-.84,1.64-1.26,2.46-.04.08-.12.21.01.22.41.01.13.18.07.28-.21.36-.42.71-.64,1.07.34.08.37-.31.63-.28.15.25.15.58-.11.63-.52.09-.36.63-.77.83.28.07.57-.14.62.22.03.19-.04.34-.19.44-.23.14-.18-.24-.4-.21.09.3.13.61-.09.88-.1.13.38.21.05.33-.23.09-.2-.2-.28-.32-.1-.16-.46-.2-.55-.02-.09.17-.16.08-.26.05-1.26-.42-2.57-.51-3.88-.6-1.39-.1-2.77-.23-4.16-.35-.18-.02-.45.01-.49-.19-.1-.54-.47-1.08-.08-1.68.14.19.26.36.39.54.19-.19.06-.33-.01-.43-.29-.4-.24-.79-.07-1.22.39-.95.75-1.92,1.11-2.88.12-.31.26-.2.4-.05.42.45.95.75,1.47,1.03,1.41.75,2.94,1.22,4.41,1.83.11.05.25.09.5-.07-.77-.16-1.33-.57-1.97-.8-1.52-.54-3.02-1.13-4.24-2.25-.13-.12-.34-.16-.3-.42.05-.33.03-.67.05-1.01.1-1.82.3-3.62-.21-5.43-.48-1.72-2.3-3.31-4.16-2.54-.23.1-.42.16-.41.44.03.89-.29,1.74-.25,2.63.02.5-.12,1.01-.33,1.52-.15-.17-.24-.29-.34-.39-.1-.09-.2-.29-.36-.14-.14.13-.02.28.08.4.07.09.13.18.21.26.39.39.34.78.07,1.22-.29.46-.57.93-.82,1.42-.14.27-.28.42-.61.29.06.24.32.39.22.56-.24.4-.19.87-.37,1.29-.55,1.33-1.43,2.45-2.23,3.63-1.46,2.14-2.94,4.27-4.01,6.64-.32.7-.7,1.37-.97,2.17-.29-.44-.54-.81-.79-1.19-.03.02-.06.03-.09.05.2.41.4.81.6,1.23-.87.22-.72-.53-.97-.91-.14-.03-.06.34-.34.18-.28-.16-.61-.38-.54-.65.13-.55-.28-.62-.56-.81-.32-.21-.61-.42-.33-.85.05-.08.05-.14.03-.21-.17-.53.1-1.03.08-1.55,0-.13.27-.29.02-.36-.25-.08-.29.19-.31.37-.04.32.04.66-.18,1-.33-.34-.78-.42-1.01-.79-.17-.28-.12-.43.45-.35-.89-.51-.71-1.16-.61-1.78.07-.4.11-.79.04-1.31-.36.62-.17,1.26-.45,1.8-.33-.19-.47-.52-.69-.77-.23-.26-.27-.61-.37-.93-.09-.29-.14-.61-.34-.9-.08.29.19.52.04.78-.62-.64-.65-.88-.22-1.57.27-.42.48-.87.61-1.53-.59.57-.68,1.31-1.23,1.76-.6-.98-.98-2.07-1.51-3.08-.16-.29-.55-.57-.1-.96.11-.09-.06-.44.21-.45.4-.01.24-.16.11-.32-.56-.7-1.09-1.44-2-1.75-.36-.12-.66-.45-.86-.72-.77-1-1.32-2.15-1.59-3.39-.09-.41-.07-.86.02-1.29.06-.31.24-.47.52-.52,1.9-.36,3.64-.14,4.95,1.47.57.7,1.18,1.38,1.65,2.15.54.89,1,1.84,1.12,2.92.08.73.31,1.43.4,2.16.05.43.43.46.61.45.26-.03.09-.34.06-.53-.05-.34-.13-.67-.2-1.01.6.83,1.09,1.71,1.56,2.59.06.1.02.26.03.39.02.2-.2.5.16.55.32.04.26-.31.33-.5.14-.41.24-.83.63-1.09.69-.45,1.38-.91,2.21-1.07.25-.05.46-.16.63-.34.09-.09.32-.14.18-.34-.1-.15-.25-.08-.4-.06-.48.08-.85.45-1.45.51.59-.8,1-1.62,1.37-2.46.03-.07.08-.15.14-.17.53-.17.55-.87,1.07-1.05.1-.04.17-.22.07-.34-.11-.13-.24-.06-.35.01-.23.15-.46.3-.74.48.19-1.53.59-2.95.67-4.41.02-.37.29-.59.65-.69.19-.05.39-.08.64-.26-.37-.07-.55-.47-.95-.16-.39.31-.57.11-.59-.32,0-.19-.04-.37-.06-.56-.21-1.7-.45-3.39-.63-5.09-.07-.66.26-.9.76-1.11.18-.07.47-.03.5-.38-.39,0-.71.15-1.02.32-.22.12-.34.13-.35-.17-.01-1.3-.19-2.59-.1-3.89.03-.45.02-.9.5-1.16.09-.05.22-.16.15-.27-.1-.15-.23-.05-.34.03-.07.05-.13.15-.29.08,0-1.31-.03-2.64.02-3.96.02-.57.18-1.15.32-1.71.24-.94,1.56-1.5,2.17-.92.78.74,1.33,1.63,1.31,2.76-.02.92,0,1.85.13,2.76.08.54-.17.53-.51.44-.35-.09-.67-.1-1.1.19.49.03.84.1,1.18.07.47-.04.62.19.69.6.2,1.22.41,2.44.62,3.66.12.71.12.67-.58.73-.44.04-.89-.1-1.48.08.48.2.83.16,1.26.19-.46.33-1.06.3-1.17.92.52-.34,1.09-.54,1.63-.83.34-.18.54-.12.71.23.38.77.52,1.61.63,2.44.07.55.34,1.09.19,1.69-.21-.11-.21-.42-.61-.46.42.56.54,1.1.18,1.59-.13.19-.14.29-.14.51.02.46.4.61.62.89.14.18.16.47.48.51.5.06,1,.18,1.5.25.91.13.91.12.69-.69,0-.02.04-.05.09-.1.05.05.12.08.16.14.28.37.53-.02.67-.11.27-.17-.11-.26-.18-.4-.19-.4-.66-.68-.69-1.13-.13-1.96.21-3.9.42-5.84.02-.15.01-.35.2-.36.44,0,.62-.45,1-.54-.26.05-.54-.15-.78.13-.13.15-.28.05-.25-.16.07-.54.11-1.09.24-1.61.55-2.21.84-4.46.98-6.73.05-.91.33-1.77.77-2.57.47-.85,1.62-1.28,2.29-.86,1.25.79,1.62,3.16.7,4.32-.19.23-.48.51-.34.84.25.55.06.96-.5.97-.62.02-1.23,0-1.85-.06.22.32.54.31.86.34.46.04.92-.04,1.4.02.35.04.3.09.29.34-.03.83-.06,1.65-.04,2.48.02,1.03-.01,2.07-.13,3.1-.04.33-.13.47-.52.46-.85-.03-1.71.04-2.64-.1.17.31.36.32.57.32.69,0,1.39,0,2.08,0,.32,0,.45.1.4.43-.24,1.62-.24,3.26-.3,4.89,0,.22.1.51-.11.64-.26.16-.33-.23-.53-.28-.03,0-.06.02-.1.04-.02.27.32.41.26.69-.2.08-.31-.22-.54-.07.17.3.3.61.13.94.2.05.31-.32.45-.08.14.24-.19.09-.26.21-.08.14-.06.24,0,.37.19.36.96.76,1.38.71.26-.03.41-.09.29-.43-.18-.5-.19-1.04-.06-1.56.25-1.04.54-2.07.89-3.08.12-.34.25-.36.53-.21.17.09.35.17.57.02q-.72-.49-.41-1.4c.26-.77.54-1.52.75-2.3.47-1.73,1.11-3.4,1.24-5.24.07-1.1.25-2.32,1.39-3.06.68-.44,1.42-.53,2.15-.07.7.43,1.12,1.3.98,2-.33,1.59-.94,3.08-1.44,4.62-.27.84-.31.82-1.2.78-.04,0-.12,0-.09.15.24.05.5.17.77.16.36,0,.34.19.31.43-.11,1.18-.23,2.35-.33,3.53-.02.23-.17.34-.29.51-.28.37-.71,0-.95.31.16.18.39.16.57.26M21.9,81.31c-.07.2.31.24.13.43-.14.14-.27-.02-.4-.08-.17-.07-.33-.18-.52-.13-.08.22.27.18.18.52-.36-.34-.75-.53-.92-1-.24-.66,0-1.3-.01-1.94-.04-2.27.35-4.49.7-6.72.24-1.52.87-2.7,2.4-3.24.62-.22,1.23-.46,1.85-.66.56-.18,1.12-.3,1.72-.23,1.71.2,3.42.39,5.11.77,1.43.32,2.92.05,4.38.13,1.04.06,2.04-.35,3.08-.23,1.47.16,2.94.26,4.41.54,2.76.52,5.55.95,8.34,1.3,1.92.24,3.78.76,5.62,1.37.89.29,1.33.83,1.5,1.68.35,1.71.49,3.45.65,5.19.22,2.31.51,4.59-.1,6.89-.25.96-.41,1.95-.63,2.92-.04.16-.03.48-.37.3-.65-.33-1.31-.66-1.96-.99-.07-.04-.13-.11-.2-.16.32-.35-.07-.24-.19-.29-.59-.22-1.27-.09-1.81-.5.14-.19.42-.02.57-.25-1.4-.07-2.71-.35-4.01-1.11.46-.08.8.05,1.12-.15-.78.05-1.46-.35-2.18-.48-.95-.18-1.89-.59-2.9-.38-.12.03-.26-.03-.39-.07-.46-.15.11-.2.03-.33-.6-.14-1.27.07-1.85-.37.17-.11.39-.05.5-.34-.93.27-1.76.15-2.57-.43.73-.31,1.35-.66,1.95-1.18-.58-.21-.87.37-1.34.3.07-.25.37-.25.38-.51-.25-.08-.38.11-.53.23-.21.18-.44.28-.72.25-.16-.02-.25-.14-.45-.13-.71.03-1.26.49-1.91.67-.55.16-.72-.07-1.18-.19.34-.17.6-.04.8-.27-.92.19-1.62-.18-2.24-.87.06.6-.21.52-.51.38-.34-.17-.58-.51-1.01-.57.02.32.36.36.43.69-1.29-.06-1.7-1.34-2.71-1.83.37.68.9,1.14,1.5,1.71-1.73-.44-1.87-2.06-2.7-3.12-.01.36.21.65.29,1.06-.35-.44-.55-.86-.86-1.22-.86-1.01-2.03-1.46-3.21-1.89-.87-.32-1.33-.92-1.45-1.83-.08-.58-.02-1.17-.05-1.75,0-.12,0-.29-.18-.3-.16,0-.21.14-.22.28-.07.81-.12,1.61.1,2.41.06.23.28.59-.09.65-.18.03-.58.08-.77-.3-.34-.66-.75-1.28-1.14-1.92-.11.08-.11.15-.08.22.24.59.51,1.16.86,1.68.18.26.2.52.16.81-.34-.18-.7.28-1.07-.08-.64-.63-1.18-1.31-1.5-2.15-.06-.15-.1-.45-.34-.34-.18.08-.03.3.03.45.31.77.69,1.49,1.34,2.06.41.36.75.79,1.15,1.15.28.25.14.36-.08.49-.69.43-1.28,1.04-2.18,1.06.48.31.92.17,1.32-.09.46-.3.89-.63,1.33-.95.25-.18.45-.22.65.09.41.67.83,1.34.96,2.14.02.11,0,.24.19.21.1-.24.04-.46-.03-.7-.14-.47-.39-.89-.6-1.33-.26-.54.09-1.28.66-1.41.09-.02.16,0,.19.07.11.26.34.24.57.3.39.1.78.23.74.76-.01.17.09.26.24.24.43-.07.18.48.49.51-.09.18-.24.28-.42.35-.18.07-.37.12-.5.29.19.15.32-.13.5-.01-.28.68-1.06.77-1.47,1.31.25-.13.51-.26.8-.42-1.44,2.13-2.3,2.67-4.57,2.12.39-.17.82,0,1.31-.32-1.16.03-1.65-.87-2.51-1.31.25.5.73.63,1.04,1.09-.62-.11-.93-.48-1.29-.81-.35-.32-.67-.69-1.12-.89.01.1.06.16.1.22.15.22.59.39.42.63-.2.3-.45-.21-.77-.15M33.77,82.27c1.48-.22,2.66.57,3.97.83,1.5.3,2.97.59,4.51.3.35-.06.65.02.89.39-.16,0-.27.01-.38,0-.21-.03-.21-.03-.35.21-.02.04-.09.07-.13.06-.72-.18-1.41.36-2.13.1-.09-.03-.22-.08-.31.06.07.06.18.11.18.16,0,.15-.16.12-.26.14-.56.12-1.08-.18-1.72.05-1.09.39-2.29.28-3.41-.2-.21-.09-.43-.19-.85-.07,1.53.85,3.11,1,4.64,1.28-.03.15-.13.15-.21.18-1.15.45-2.37.69-3.55,1.03-1.78.5-3.56.31-5.35.32-.11,0-.22-.06-.32-.1-.61-.28-1.22-.58-1.83-.86-.25-.12-.37-.3-.5-.56-.29-.59.14-1.15-.06-1.73.28.08.13.42.38.47.13-.31-.14-.75.1-.91.47-.32.99-.59,1.45-.94.18-.14.41.37.71.44.03,0,.07-.02.19-.07-.18-.19-.33-.37-.49-.54-.13-.13-.14-.25,0-.39.17-.18.25-.04.36.06.23.24.46.48.69.72.04-.29-.1-.44-.23-.6-.11-.14-.11-.26.02-.4.15-.17.25-.05.38.03.18.11.27.42.57.35,0-.21-.14-.29-.24-.4-.1-.11-.34-.2-.12-.4.2-.18.34-.06.43.14.06.16.26.2.32.13.32-.39.82.02,1.18-.43-.07.27-.34.28-.24.48.08.14.23.07.36.06.22-.02.45-.03.67-.05.42-.03.75.27,1.18.3-.15.14-.35.01-.52.31M21.36,85.79c-.57-.07-1.14.05-1.71,0-.37-.03-.57-.14-.77-.44-.3-.45-.7-.72-1.3-.75-.63-.03-1.32-.12-1.76-.62-.72-.83-.45-2.42.47-3.01.23-.14.52-.4.81-.16.58.48,1.35.72,1.76,1.43.16.27.37.52.51.81.16.33.25.22.44-.02.27-.34-.2-.57-.04-.9.4.26.29.85.8,1.12-.08-.34-.14-.59-.2-.84.04-.02.08-.04.12-.06.2.6.71.98.94,1.53.25-.07.03-.39.29-.39.23,0,.3.18.38.36.03.08.06.25.13.21.48-.3.29.18.38.32.05.08,0,.24.16.24.15-.15.01-.38.1-.51.96.6.5,1.41.34,2.19.74-.62.54-1.41.49-2.16.29.19.43.15.36-.04-.13-.35.42-.41.24-.73.07-.03.15-.1.2-.08.38.16.82.02,1.19.28.11.08.22.13.24.28.07.77.43,1.46.59,2.2.03.12.05.35.25.32.73-.11,1.17.42,1.73.71-.87.06-1.54-.58-2.37-.66.23.15.47.3.8.51-.94-.04-1.68-.48-2.54-.47.1.23.37.13.49.28-.7.22-1.34-.09-2.07-.23.22.29.51.22.68.52-.46-.11-.86-.2-1.3-.3.24-.2.54-.27.66-.68-.36.26-.67.44-1.02.23.13-.22.46-.19.55-.49-.48.09-.91.38-1.42.3.08-.2.36-.02.4-.29M19.15,81.32c-.67-.08-1.2-.34-1.67-.74-.36-.31-.58-.67-.41-1.18.16-.51.14-1.04.13-1.57-.02-.51,0-1.01.11-1.51.36-1.56,1.04-3.01,1.58-4.51.3-.84.98-1.29,1.83-1.49.19-.04.34-.03.31.24-.02.17,0,.34-.03.5-.35,1.68-.75,3.36-.9,5.08-.06.62-.34,1.21-.27,1.83.07.69-.18,1.33-.2,2-.01.39-.15.56-.44.71-.33.17-.42.39-.04.65M15.69,78.95c-.9-.98-.92-1.09-.38-2.27.17-.37.36-.74.5-1.13.42-1.19,1.07-2.27,1.65-3.37.12-.22.33-.36.55-.29.22.07.12.34.08.49-.11.51-.23,1.03-.41,1.52-.25.7-.58,1.4-.84,2.08-.31.83-.6,1.79-.33,2.69-.11.21-.29-.36-.33.11-.01.17.2.32.05.53-.27-.22-.23-.66-.56-.83-.14.19.15.33,0,.49M34.86,29.65c-.06.16,0,.23.04.32.14.34.19.6-.12.94-.24.26-.87.6-.29,1.14.05.05.03.11-.03.12-.05.01-.15.02-.16,0-.2-.61-.5-.27-.88.08.11-1.18.22-2.2.3-3.22.04-.47.31-.52.7-.47.43.05.77.28.72.68-.03.22.11.44-.02.67-.09-.09-.16-.17-.26-.27M31.59,66.79c.55,0,1.16-.29,1.66.3-.85.22-.92.21-1.66-.3M35.98,67.08c.91-.4,1.14-.4,1.48.03-.5.01-.98.46-1.48-.03M34.19,67.34c.62-.02,1.13-.37,1.74.13-.63.03-1.12.41-1.74-.13M41.46,62.24s0-.05,0-.07c.52-.05,1.03-.1,1.55-.14.12,0,.3-.07.31.11.02.2-.15.24-.31.22-.52-.04-1.03-.08-1.55-.13M32.66,67.46c.5.03.97-.32,1.39.23-.5.09-.95.3-1.39-.23M33.52,66.78c.53.03,1.01-.23,1.57.2-.61,0-1.1.37-1.57-.2M28.62,67.31c.64-.3,1.29-.25,1.68.14-.58-.05-1.11-.09-1.68-.14M33.62,43.09c.07-.56-.28-1.18.28-1.69.13.63-.17,1.15-.28,1.69M32.59,67.89c-.49.06-.92.1-1.22-.39.47-.04.89-.09,1.22.39M25.04,66.97s0-.06.01-.08c.67.09,1.34.18,2,.27,0,.05-.01.09-.02.14-.67-.11-1.33-.21-2-.32M19.58,46.41c.39.24.33.63.4,1.02-.59-.2-.18-.73-.4-1.02M31.39,67.11c-.52,0-.87-.05-1.25-.31.5-.16.82.01,1.25.31M47.7,40.42c.14.3.2.54.03.78-.05.08-.14.06-.18-.02-.14-.27-.17-.52.14-.77M12.74,34.37c.12.35.78.43.5,1.02-.3-.3-.46-.63-.5-1.02M23.52,82.29c-.5.22-.86.23-1.21-.12.4-.08.73.06,1.21.12"/><path class="cls-2" d="M44.28,56.69c-.28-.15-.5,0-.86-.08.46-.16.31-.89.99-.63.07.03.46-.54.69-.45.44.19.4-.21.56-.33.25-.19-.23-.18-.12-.35-.18-.07-.12.11-.15.16-.09.17-.2.26-.4.26-.13-.23.23-.43.03-.7-.23.36-.27.84-.86,1.09.23-.26.27-.43.18-.68-.22.42-.58.56-.97.65-.15-.16.15-.29-.03-.43-.65.61-1.03,1.45-1.7,2.06.81-.42,1.74-.28,2.64-.57M42.35,56.81c.33-.39.75-.47,1.23-.7-.34.5-.65.78-1.23.7"/><path class="cls-2" d="M43.89,49.6c-.23.47-.58.67-1.1.85.47.07.75-.04,1.04-.12.21-.06.21-.07.17-.34-.02-.15.1-.25.19-.32.4-.32.34-.83.55-1.24-.32.31-.54.75-1.11.67.1-.2.2-.39.29-.58-.7.53-1.09,1.48-2.13,1.52-.09-.14.16-.25.02-.41-.35.25-.51.65-.74.98-.06.08-.17.18-.03.29.1.08.21.1.31.04.27-.17.56-.32.8-.52.49-.4,1.06-.6,1.74-.8"/><path class="cls-2" d="M40.79,57.26c.54-.5,1.08-1,1.57-1.71-.57.62-1.07,1.16-1.57,1.71"/></g></svg>