<?xml version="1.0" standalone="no"?>
<!DOCTYPE svg PUBLIC "-//W3C//DTD SVG 20010904//EN"
 "http://www.w3.org/TR/2001/REC-SVG-20010904/DTD/svg10.dtd">
<svg version="1.0" xmlns="http://www.w3.org/2000/svg"
 width="1249.000000pt" height="1249.000000pt" viewBox="0 0 1249.000000 1249.000000"
 preserveAspectRatio="xMidYMid meet">
<metadata>
Created by potrace 1.16, written by Peter Selinger 2001-2019
</metadata>
<g transform="translate(0.000000,1249.000000) scale(0.100000,-0.100000)"
fill="#000000" stroke="none">
<path d="M0 6245 l0 -6245 6245 0 6245 0 0 6245 0 6245 -6245 0 -6245 0 0
-6245z m6660 6145 c413 -31 721 -80 1085 -171 685 -171 1343 -463 1927 -855
897 -602 1613 -1418 2089 -2379 149 -302 230 -497 329 -795 113 -339 191 -658
240 -980 30 -196 26 -170 55 -450 22 -214 28 -725 10 -890 -2 -19 -6 -75 -10
-125 -9 -126 -41 -388 -65 -527 -269 -1574 -1124 -2962 -2419 -3927 -205 -153
-494 -337 -702 -449 -112 -60 -293 -152 -295 -149 -1 2 -301 592 -597 1177
-124 245 -227 459 -229 475 l-3 30 458 3 457 2 0 193 -1 192 -491 444 -490
444 6 201 c8 222 13 266 30 266 6 0 40 -44 76 -97 36 -53 100 -142 143 -197
43 -56 129 -168 191 -251 133 -177 263 -330 401 -473 156 -161 208 -187 293
-143 54 28 87 60 218 211 64 74 122 136 129 138 6 1 81 -57 166 -131 129 -111
160 -143 189 -197 36 -64 100 -134 306 -330 61 -58 132 -133 159 -168 61 -78
103 -105 166 -106 56 -1 84 20 101 76 6 21 13 38 16 38 2 0 32 -13 66 -29 33
-16 88 -35 122 -41 84 -17 125 1 149 62 l17 45 41 -8 c83 -15 139 41 130 128
-5 43 -5 43 28 43 119 0 186 130 116 222 -30 39 -185 148 -299 212 -160 87
-338 267 -338 339 0 10 29 21 93 36 171 40 307 113 341 185 22 47 20 114 -4
154 -36 59 -101 67 -219 26 -61 -22 -103 -28 -216 -34 -100 -6 -158 -14 -203
-29 -35 -11 -79 -21 -98 -21 -40 0 -138 -31 -207 -66 l-47 -23 -105 96 c-92
84 -105 100 -105 128 0 35 -19 61 -333 454 l-148 185 55 55 c30 31 62 72 70
93 9 20 29 47 46 60 17 12 45 35 63 49 46 37 61 40 109 23 162 -58 351 -71
470 -34 52 16 80 33 132 80 42 38 75 60 90 60 50 0 158 42 229 90 76 51 118
96 138 147 19 49 30 140 20 165 -5 14 -6 30 -2 37 5 7 57 23 117 37 123 28
227 73 321 140 91 65 188 158 238 229 33 46 56 66 93 83 102 46 175 132 207
243 16 57 16 57 77 80 65 24 174 92 248 153 143 120 220 282 220 464 0 149
-49 253 -182 384 -37 37 -68 70 -68 73 0 3 11 27 24 53 40 80 58 157 58 253
-1 188 -65 295 -227 377 -79 40 -143 55 -210 50 l-54 -5 -73 74 c-40 40 -80
73 -89 73 -8 0 -41 -18 -72 -40 -30 -22 -60 -40 -65 -40 -5 0 -29 9 -53 20
-65 29 -79 27 -79 -14 0 -43 -18 -62 -67 -71 -21 -4 -69 -20 -108 -37 -60 -27
-73 -29 -100 -19 -17 6 -43 11 -56 11 -14 0 -44 14 -67 32 -32 24 -42 39 -42
61 0 51 -80 105 -119 80 -8 -5 -19 -24 -23 -41 -6 -20 -15 -32 -26 -32 -16 0
-17 16 -15 192 2 106 -1 206 -5 222 -7 24 -18 33 -64 50 -73 28 -86 40 -90 84
-3 37 -3 37 -53 40 -38 3 -60 -2 -92 -20 l-43 -23 0 -157 c0 -142 -2 -157 -18
-162 -10 -3 -26 -19 -35 -36 -31 -52 -57 -32 -57 46 0 19 -6 34 -15 38 -9 3
-15 18 -15 35 0 28 -21 61 -39 61 -4 0 -13 11 -19 24 -7 16 -21 26 -39 28
l-28 3 -1 295 c-1 318 -3 328 -54 355 -16 8 -33 22 -38 31 -10 17 -76 32 -146
33 -22 1 -48 8 -57 17 -48 43 -109 3 -109 -70 0 -53 -9 -86 -24 -86 -40 -1
-40 -6 -49 -412 -2 -70 -6 -130 -9 -134 -4 -3 -16 -1 -27 6 -20 10 -21 19 -21
138 0 170 -19 208 -112 227 -27 5 -28 7 -28 71 0 52 -7 85 -34 153 -54 133
-126 333 -126 348 0 7 10 32 22 57 l21 44 -22 42 c-21 40 -21 42 -4 71 15 25
16 33 4 62 -8 17 -17 57 -21 87 -8 69 -37 130 -62 130 -11 0 -25 -14 -35 -35
-20 -43 -28 -44 -48 -5 -19 37 -19 51 2 95 16 33 16 38 -1 85 -16 46 -17 52
-2 81 20 39 20 58 1 83 -10 13 -15 44 -15 90 0 54 -5 79 -20 104 -19 30 -20
48 -18 180 2 91 -1 149 -7 152 -6 3 -12 -50 -15 -145 -4 -131 -8 -155 -28
-192 -14 -28 -24 -69 -29 -118 -3 -42 -10 -78 -14 -81 -12 -7 -11 -51 1 -59
13 -8 13 -84 -1 -124 -8 -23 -8 -39 -1 -55 13 -30 -12 -163 -37 -191 -25 -27
-29 -44 -36 -155 -16 -282 -19 -300 -47 -272 -14 14 -17 241 -9 567 2 88 4
191 3 230 0 38 4 75 9 81 6 8 8 76 4 186 -5 146 -9 177 -25 199 -15 22 -20 52
-24 170 -3 79 -11 178 -17 219 -11 73 -18 197 -19 330 -1 119 -18 42 -19 -89
-1 -78 -7 -142 -16 -168 -8 -23 -12 -51 -10 -63 2 -12 -2 -35 -10 -51 -11 -21
-15 -65 -15 -173 l0 -145 -32 -36 -31 -36 -5 -193 c-3 -137 -1 -195 7 -200 6
-4 11 -30 11 -58 0 -39 -7 -62 -35 -106 l-34 -57 -4 -544 c-4 -514 -5 -545
-23 -558 -23 -17 -32 -86 -33 -250 -1 -151 -3 -158 -42 -138 -15 9 -39 26 -51
39 -21 22 -34 25 -145 31 l-122 8 -13 -31 c-7 -17 -28 -41 -47 -54 -60 -41
-65 -66 -71 -413 -5 -292 -6 -310 -23 -310 -18 0 -19 17 -17 382 l1 382 -37
41 c-29 32 -43 40 -60 36 -13 -4 -25 -2 -28 2 -3 5 -8 156 -11 338 -9 437 -17
573 -36 585 -8 5 -32 9 -54 9 -57 0 -83 9 -90 31 -5 16 -16 19 -69 19 -57 0
-68 -3 -106 -34 l-44 -34 -42 29 c-24 16 -46 34 -49 39 -12 19 -51 10 -102
-25 -58 -39 -74 -42 -93 -19 -21 24 -149 96 -215 120 -34 12 -83 25 -110 29
-97 13 -89 -11 -82 229 4 116 9 256 12 311 l6 100 -36 48 c-19 26 -41 47 -49
47 -15 0 -80 -92 -91 -127 -9 -30 -28 -29 -64 5 -21 19 -38 55 -61 130 -18 57
-38 102 -45 102 -6 0 -33 -45 -59 -100 -70 -148 -96 -155 -145 -39 -18 44 -39
78 -45 76 -15 -5 -52 -155 -59 -242 -4 -38 -7 -178 -7 -310 0 -132 -4 -246 -9
-254 -7 -11 -21 -2 -61 42 -73 80 -80 77 -80 -32 l0 -89 -62 -56 c-57 -52 -98
-70 -112 -48 -10 17 -11 189 0 203 7 9 11 77 12 194 l0 180 -27 22 -26 21 -3
289 c-3 257 -6 293 -23 331 -11 25 -24 42 -31 40 -31 -11 -40 -90 -42 -358 -1
-259 -2 -266 -24 -294 -21 -27 -22 -37 -21 -197 0 -157 2 -170 20 -179 14 -8
19 -21 19 -55 0 -29 -4 -45 -12 -45 -179 -4 -276 -14 -305 -32 -18 -10 -34
-27 -37 -36 -2 -9 -8 -120 -11 -247 -4 -126 -9 -233 -11 -236 -2 -4 -5 -260
-6 -570 -2 -660 -5 -752 -30 -757 -16 -3 -17 18 -18 280 0 156 5 451 11 657
l11 373 -26 25 c-20 18 -26 33 -26 65 0 23 -7 49 -15 59 -14 14 -16 57 -15
290 0 151 1 295 2 321 1 50 -11 73 -42 83 -17 5 -18 14 -13 96 6 89 6 91 -21
116 -19 17 -26 32 -22 45 3 14 -5 29 -26 48 -29 27 -30 30 -23 88 5 46 3 67
-10 91 -13 26 -15 60 -13 202 3 161 2 171 -17 185 -19 14 -20 29 -25 234 -4
154 -9 223 -17 231 -7 7 -16 9 -20 5 -5 -4 -8 -110 -8 -234 0 -163 -4 -233
-13 -249 -8 -15 -12 -74 -12 -190 0 -93 -4 -173 -9 -179 -5 -5 -11 -36 -12
-69 -3 -65 -16 -115 -30 -115 -5 0 -16 -11 -25 -26 -13 -19 -18 -53 -20 -140
-2 -63 -8 -122 -13 -132 -5 -10 -13 -70 -16 -133 -4 -63 -8 -134 -10 -159 -2
-25 -4 -108 -4 -186 l-1 -141 -39 -11 c-62 -19 -64 -25 -62 -197 l2 -155 -55
-35 -56 -36 0 -150 c0 -150 0 -150 -22 -147 -21 3 -23 9 -26 83 -2 43 -7 84
-12 90 -6 7 -37 20 -70 30 -33 10 -61 23 -61 29 -1 6 -2 120 -3 254 -2 156 -6
246 -13 253 -6 6 -37 13 -69 16 -56 5 -62 3 -106 -31 -44 -34 -46 -38 -50 -93
-3 -32 -5 -132 -6 -222 0 -164 -6 -189 -36 -178 -12 5 -16 21 -16 61 0 74 -6
85 -57 107 -103 44 -110 31 -118 -236 -6 -199 -8 -211 -28 -229 l-22 -18 -9
46 c-8 46 -9 47 -39 40 l-30 -6 7 125 6 125 -25 16 c-23 15 -25 23 -25 87 0
39 -5 79 -10 90 -16 29 -54 24 -84 -12 -23 -27 -26 -40 -28 -112 -3 -131 -3
-134 -21 -160 -11 -17 -17 -52 -19 -107 -3 -78 -5 -84 -32 -104 l-28 -21 -15
23 c-9 12 -26 22 -38 22 -23 0 -35 -22 -35 -66 0 -12 -9 -33 -20 -47 -16 -20
-19 -34 -14 -71 7 -50 -2 -58 -28 -22 -15 20 -17 72 -20 487 -1 255 -5 525 -8
599 l-5 135 -51 110 c-28 61 -57 129 -63 152 -14 52 -42 73 -97 73 -38 0 -51
-8 -142 -85 -55 -46 -102 -92 -104 -102 -3 -10 -6 -47 -7 -83 -2 -72 -17 -102
-61 -125 -20 -10 -32 -27 -39 -53 -17 -66 -34 -417 -36 -742 0 -36 3 -119 7
-185 l8 -120 -30 -17 c-27 -15 -30 -22 -30 -65 0 -46 -1 -47 -16 -25 -24 35
-104 28 -104 -9 0 -10 -10 -25 -22 -34 -19 -13 -24 -27 -28 -87 l-5 -72 -37
-11 c-20 -6 -42 -15 -48 -21 -7 -7 -39 -9 -85 -6 -79 5 -157 -10 -187 -36 -12
-10 -18 -30 -18 -59 0 -32 -4 -43 -15 -43 -12 0 -15 15 -15 79 0 50 -4 83 -12
87 -23 14 -134 33 -196 34 -56 0 -65 -3 -69 -20 -3 -11 -8 -20 -12 -20 -3 -1
-60 -2 -126 -4 -104 -2 -133 -7 -214 -35 -208 -70 -312 -152 -383 -299 -35
-75 -42 -83 -61 -77 -69 20 -94 18 -156 -15 -72 -39 -149 -112 -188 -178 -24
-40 -29 -61 -33 -147 l-5 -99 -38 -8 c-62 -13 -109 -43 -173 -109 -82 -87
-116 -159 -122 -260 -4 -74 -2 -84 27 -144 l32 -64 -21 -29 c-34 -46 -49 -113
-45 -199 5 -101 34 -192 86 -271 93 -142 199 -228 344 -279 76 -27 89 -28 250
-28 164 1 173 2 265 33 88 29 96 30 107 15 20 -26 16 -46 -16 -90 -103 -142
-127 -277 -77 -427 34 -99 75 -165 144 -227 103 -91 231 -140 535 -204 81 -17
76 -13 169 -119 53 -61 106 -97 183 -125 112 -42 343 -27 519 35 l69 24 55
-51 c67 -61 146 -116 229 -158 35 -17 63 -35 63 -39 0 -15 -183 -216 -316
-347 -133 -131 -154 -158 -154 -193 0 -25 -108 -115 -129 -108 -9 2 -44 16
-79 31 -35 14 -96 33 -135 41 -40 8 -101 23 -137 33 -39 12 -111 22 -180 25
-75 3 -150 14 -215 31 -139 35 -168 34 -212 -10 -32 -32 -35 -40 -31 -78 15
-134 126 -226 322 -268 50 -11 95 -24 99 -28 13 -13 -30 -98 -75 -147 -59 -64
-125 -112 -316 -233 -287 -181 -315 -210 -290 -286 17 -50 55 -77 117 -83 28
-2 51 -6 51 -7 0 -1 -6 -18 -14 -36 -36 -90 27 -159 145 -159 31 0 38 -4 43
-25 8 -31 71 -65 123 -67 52 -1 98 9 167 40 33 15 61 22 63 17 12 -35 46 -75
70 -81 37 -10 108 11 165 47 26 17 85 72 130 122 46 49 131 130 190 179 127
105 191 175 244 265 35 60 87 109 104 98 4 -2 15 -26 25 -52 30 -81 123 -262
159 -311 19 -26 50 -62 69 -81 33 -31 39 -33 81 -27 57 9 51 4 696 540 278
231 540 456 584 500 43 45 76 73 73 64 -3 -9 -11 -45 -18 -80 -20 -108 -21
-110 -121 -190 -53 -42 -125 -109 -159 -148 -56 -62 -199 -182 -771 -643 l-88
-71 0 -193 0 -193 334 0 335 0 11 -58 c6 -31 22 -98 35 -147 24 -91 24 -91 9
-235 -30 -293 -78 -416 -341 -879 -108 -190 -198 -348 -200 -351 -6 -7 -184
86 -373 194 -1503 860 -2587 2336 -2954 4021 -55 252 -82 426 -121 785 -25
236 -25 936 0 1065 2 11 7 54 10 95 15 183 61 468 115 716 367 1666 1432 3120
2923 3988 797 464 1742 755 2642 812 55 4 102 8 104 10 9 8 631 3 751 -6z
m2010 -1362 c0 -9 -4 -20 -10 -23 -6 -4 -10 9 -10 32 0 28 3 34 10 23 5 -8 10
-23 10 -32z m11 -231 c4 -104 10 -150 22 -173 24 -46 26 -344 3 -379 -11 -17
-14 -34 -9 -52 4 -16 7 -444 7 -952 l1 -925 28 -7 c59 -16 63 -7 72 166 3 66
8 147 10 180 3 33 7 224 11 425 3 201 9 441 14 534 8 151 11 172 28 185 15 12
23 39 33 104 13 92 25 113 59 102 16 -5 20 -15 20 -46 0 -58 36 -155 82 -221
39 -55 79 -81 63 -40 -3 9 -13 43 -20 76 -17 71 -21 76 -29 36 -3 -18 -10 -29
-16 -25 -17 11 -10 49 14 79 l23 28 17 -23 c9 -13 16 -43 16 -67 0 -24 7 -57
16 -74 15 -28 15 -34 -1 -68 -16 -35 -16 -39 4 -75 17 -33 18 -41 7 -69 -8
-20 -19 -30 -29 -28 -15 3 -17 -11 -17 -113 l0 -115 -42 6 c-24 4 -47 10 -52
15 -5 4 -9 115 -10 246 -2 224 -4 244 -30 343 -15 57 -29 106 -31 109 -16 15
-16 -20 0 -96 30 -149 33 -182 28 -388 -5 -188 -6 -201 -26 -218 -18 -15 -19
-20 -6 -28 7 -5 17 -9 22 -9 15 0 7 -63 -10 -75 -16 -12 -16 -14 0 -30 20 -19
13 -62 -12 -83 -15 -11 -14 -13 2 -23 22 -13 23 -81 1 -100 -14 -11 -14 -13 1
-21 13 -8 15 -42 15 -275 -1 -252 4 -302 27 -279 5 4 8 126 9 270 0 144 4 267
8 274 10 17 41 15 56 -3 10 -12 11 -47 6 -145 -6 -112 -4 -133 10 -155 15 -22
16 -48 10 -213 -14 -410 -11 -502 14 -475 11 11 19 177 22 465 1 184 -1 240
-12 252 -20 25 -8 233 15 250 15 11 15 13 1 25 -25 21 -18 81 9 81 12 0 25 62
25 110 0 8 -3 76 -5 150 l-5 135 44 -130 c24 -71 53 -151 64 -176 22 -52 26
-78 23 -196 -1 -71 -4 -85 -26 -111 -29 -35 -31 -49 -9 -73 16 -18 15 -29 -8
-61 -10 -14 -9 -20 5 -36 22 -25 22 -44 -3 -60 -26 -16 -25 -30 1 -58 21 -22
21 -24 5 -49 -17 -25 -17 -28 1 -47 16 -19 18 -38 15 -217 -1 -108 -6 -227
-10 -265 -6 -63 -9 -70 -32 -76 -28 -8 -240 17 -252 28 -13 13 -28 112 -28
183 0 83 -6 99 -35 99 -37 0 -44 -20 -46 -130 -2 -124 -9 -150 -42 -150 -37 0
-44 17 -50 117 -3 50 -8 96 -11 102 -10 15 -41 14 -54 -2 -7 -8 -13 -100 -17
-232 -5 -189 -9 -220 -23 -232 -24 -18 -60 -16 -90 5 -15 11 -53 29 -85 42
-42 18 -59 30 -64 47 -7 32 5 445 18 556 l9 87 68 65 c61 59 65 66 48 76 -17
10 -18 19 -10 103 4 50 8 399 9 776 1 618 3 689 18 722 22 49 22 121 1 139
-15 12 -16 35 -11 193 6 167 8 182 29 210 21 28 23 43 26 166 1 74 5 146 8
159 5 23 6 23 22 7 14 -13 18 -44 23 -159z m-3836 -37 c-3 -5 -15 -10 -26 -10
-11 0 -17 5 -14 10 3 6 15 10 26 10 11 0 17 -4 14 -10z m3 -57 c-2 -20 -9 -29
-25 -31 -18 -3 -23 1 -23 21 0 29 7 37 32 37 15 0 19 -6 16 -27z m762 7 c0 -5
-4 -10 -10 -10 -5 0 -10 5 -10 10 0 6 5 10 10 10 6 0 10 -4 10 -10z m9 -44 c8
-10 10 -68 7 -197 -2 -101 -1 -212 3 -247 8 -74 0 -95 -26 -69 -16 16 -18 43
-21 239 -4 269 2 316 37 274z m-774 -52 c0 -22 -5 -29 -20 -29 -23 0 -32 30
-14 51 18 22 34 11 34 -22z m3 -81 c2 -23 -2 -32 -17 -36 -11 -2 -22 -2 -25 1
-10 10 -6 48 6 60 19 19 33 9 36 -25z m0 -76 c3 -12 -4 -17 -22 -17 -27 0 -37
24 -13 33 19 8 32 2 35 -16z m1515 -44 c21 -77 22 -96 12 -243 -4 -69 -9 -145
-11 -170 -1 -25 -3 -105 -3 -177 l-1 -133 -29 0 c-16 0 -41 4 -56 10 -25 10
-25 11 -20 87 2 43 7 186 10 318 6 239 6 240 35 303 16 34 33 62 38 62 5 0 16
-26 25 -57z m-242 -55 c24 -62 24 -68 21 -358 -2 -162 -7 -299 -12 -303 -4 -5
-27 -11 -50 -14 l-42 -6 4 304 c4 260 7 314 24 372 10 37 22 67 25 67 4 0 17
-28 30 -62z m2849 -35 c0 -39 6 -76 16 -95 20 -38 9 -50 -42 -46 -37 3 -39 5
-36 33 18 197 25 222 49 190 7 -11 13 -45 13 -82z m-4135 53 c6 -30 2 -93 -7
-101 -2 -2 -12 -5 -23 -7 -18 -3 -20 3 -20 52 0 30 4 63 8 73 13 28 36 20 42
-17z m1798 -28 c23 -41 23 -48 16 -158 -4 -63 -8 -167 -8 -230 -2 -222 -13
-270 -56 -254 -13 5 -15 43 -15 259 0 220 -2 254 -16 266 -24 20 -33 51 -22
74 9 18 68 85 75 85 1 0 13 -19 26 -42z m-399 -325 c-3 -153 -7 -288 -10 -301
-4 -19 -10 -23 -32 -20 -22 2 -27 8 -26 31 0 15 1 144 2 286 l2 259 28 10 c15
6 30 11 35 11 4 1 5 -124 1 -276z m252 225 l54 -33 -2 -259 -3 -258 -60 -19
c-91 -28 -89 -34 -81 221 4 118 9 224 11 235 2 11 4 48 4 83 1 38 5 62 12 62
6 0 35 -15 65 -32z m-1696 -222 l0 -204 -47 -26 c-36 -21 -48 -24 -55 -14 -12
20 -9 79 7 123 8 22 15 56 15 75 0 27 7 42 30 62 17 14 30 32 30 39 0 7 -9 4
-23 -9 -13 -12 -26 -22 -30 -22 -11 0 -8 100 4 123 12 23 48 56 62 57 4 0 7
-92 7 -204z m81 183 c16 -11 29 -30 29 -42 0 -11 9 -31 21 -43 28 -30 18 -45
-24 -33 -41 12 -60 12 -52 -1 3 -5 24 -14 45 -20 l40 -11 0 -59 c0 -53 3 -61
26 -77 l27 -17 -6 -155 c-4 -85 -9 -156 -12 -159 -3 -3 -30 0 -61 7 -38 9 -59
10 -66 3 -7 -7 5 -13 38 -17 91 -12 84 0 84 -151 0 -74 -2 -134 -5 -134 -3 0
-27 11 -53 25 -26 14 -57 25 -69 25 l-23 0 0 440 c0 485 -3 465 61 419z m4112
-96 c4 -21 10 -51 13 -67 6 -25 4 -28 -10 -23 -10 4 -31 7 -48 7 l-30 0 6 51
c8 63 11 69 40 69 19 0 24 -7 29 -37z m-3347 -23 l44 -31 0 -174 c0 -105 -4
-176 -10 -180 -6 -4 -10 -55 -10 -120 0 -111 1 -115 25 -127 l24 -13 -45 -60
c-25 -33 -64 -99 -87 -147 -23 -49 -45 -88 -50 -88 -5 0 -5 74 -1 165 5 121 4
165 -5 165 -7 0 -11 -20 -12 -52 -2 -213 -12 -382 -24 -433 -18 -77 -22 -109
-30 -225 -9 -134 -8 -130 -66 -130 -52 0 -68 -16 -21 -22 l27 -3 0 -220 0
-219 -43 -29 c-33 -22 -42 -34 -41 -55 1 -15 -7 -54 -19 -87 -33 -96 -37 -154
-13 -192 12 -20 29 -33 41 -33 11 0 20 -7 20 -15 0 -12 -14 -15 -70 -15 -47 0
-72 4 -75 13 -11 28 0 984 15 1347 6 129 10 284 10 343 0 100 2 110 23 131 22
22 31 23 172 25 91 1 154 6 162 12 20 17 6 120 -19 140 -19 15 -20 25 -16 170
3 85 8 162 12 172 11 24 31 21 82 -13z m2898 -777 c-2 -373 -5 -718 -8 -768
-5 -82 -8 -92 -36 -119 l-29 -30 6 224 c5 201 8 228 25 250 18 23 19 46 17
560 -1 294 -1 541 0 548 0 6 7 12 14 12 11 0 13 -123 11 -677z m-5581 75 c9
-638 9 -1173 0 -1164 -5 4 -15 40 -23 79 -13 62 -18 72 -37 75 -18 3 -25 -3
-33 -25 -11 -31 -12 -33 -57 -93 -23 -30 -33 -54 -33 -79 0 -20 -7 -45 -15
-55 -21 -28 -19 -56 10 -98 21 -31 23 -40 13 -69 -26 -82 -16 -76 -114 -71
-133 6 -126 -1 -126 128 0 209 0 212 22 219 17 5 20 15 20 61 0 49 3 55 25 64
18 7 25 17 25 37 1 16 1 143 2 283 1 302 20 738 34 775 3 8 14 17 25 20 37 12
57 52 64 133 7 72 26 132 43 132 4 0 36 25 72 55 35 30 67 55 70 55 4 0 10
-208 13 -462z m1837 172 l0 -218 -50 -12 c-74 -18 -80 -13 -75 62 3 35 8 124
11 200 l6 136 46 30 c26 16 50 27 55 25 4 -2 7 -102 7 -223z m1142 133 c26
-31 29 -41 12 -57 -29 -30 -44 -20 -44 29 0 48 8 55 32 28z m498 -111 c66 -26
82 -27 78 -5 -2 12 6 19 27 24 58 13 191 9 246 -7 66 -19 202 -95 247 -138 40
-37 193 -292 216 -359 9 -26 16 -67 16 -90 0 -23 11 -118 25 -212 17 -114 25
-209 24 -290 0 -66 4 -133 10 -148 6 -15 17 -54 24 -86 l14 -59 -34 5 c-27 5
-32 3 -28 -10 4 -8 7 -46 9 -83 1 -38 10 -103 19 -144 16 -73 16 -75 -3 -89
-27 -19 -25 -66 4 -118 22 -38 23 -43 9 -55 -29 -23 -53 -91 -53 -149 0 -119
-32 -148 -148 -133 -37 5 -106 8 -154 7 -48 -2 -89 1 -92 6 -3 5 -6 69 -6 142
-1 142 16 227 41 220 8 -2 21 -4 29 -5 17 -1 55 70 70 131 6 23 29 65 53 93
79 97 87 111 87 157 0 24 7 60 16 81 9 20 20 75 25 122 4 47 11 100 15 118 5
24 2 38 -11 52 -27 30 -44 25 -92 -27 -23 -26 -43 -43 -44 -38 -1 19 -7 50
-14 80 -5 23 -2 37 12 54 l19 24 42 -24 c22 -13 44 -21 47 -17 11 11 -18 46
-56 67 -54 31 -158 147 -186 209 -14 29 -23 56 -20 58 3 3 29 -2 58 -10 81
-24 179 -19 179 9 0 13 -16 17 -125 31 -101 13 -158 52 -250 169 -92 118 -159
140 -247 78 -59 -40 -50 -55 15 -28 84 35 141 10 220 -95 27 -36 61 -79 78
-95 16 -17 29 -40 29 -52 0 -11 13 -47 30 -79 16 -32 28 -60 26 -61 -2 -2 -20
3 -42 10 -59 21 -226 49 -269 45 -42 -3 -68 -29 -49 -48 7 -7 49 -11 102 -11
108 1 234 -28 269 -61 21 -19 26 -20 34 -8 8 12 15 9 40 -20 31 -36 32 -48 8
-107 -11 -28 -11 -34 4 -51 27 -29 21 -68 -17 -109 -18 -21 -36 -51 -40 -68
-4 -16 -21 -52 -38 -78 -26 -40 -29 -50 -17 -58 8 -5 18 -9 23 -9 5 0 3 -7 -4
-14 -16 -20 -153 -50 -200 -43 -22 3 -64 19 -94 37 -50 28 -55 34 -50 58 4 22
-2 34 -34 66 -22 21 -46 36 -53 34 -8 -3 2 -18 25 -41 33 -33 37 -43 34 -79
-3 -39 -1 -43 37 -64 89 -52 107 -57 178 -51 121 10 225 77 188 121 -9 11 -7
21 8 47 10 19 22 45 26 59 4 13 17 37 28 52 17 24 22 25 31 12 10 -13 20 -4
65 52 50 62 55 66 67 49 15 -20 16 -19 -39 -89 -36 -45 -87 -168 -87 -210 0
-18 -11 -64 -24 -102 -13 -39 -26 -93 -30 -122 -13 -105 -61 -195 -80 -147 -8
23 -34 18 -41 -7 -4 -13 -18 -47 -33 -76 -24 -50 -27 -52 -57 -46 -30 5 -34 3
-62 -48 -45 -80 -120 -158 -150 -158 -14 0 -42 -13 -63 -30 -50 -40 -64 -38
-76 8 -7 29 -14 38 -34 40 -20 2 -30 -6 -50 -38 -14 -22 -30 -40 -36 -40 -6 0
-21 12 -35 26 -34 37 -78 55 -101 41 -27 -17 -109 68 -145 150 -27 61 -48 78
-59 48 -4 -8 -10 -15 -15 -15 -13 0 -39 98 -39 146 0 52 -22 75 -49 50 -17
-16 -20 -11 -65 98 -43 102 -48 124 -52 207 -4 104 -40 252 -79 328 -27 55
-29 61 -17 61 5 0 17 -18 27 -40 21 -47 55 -82 55 -58 0 9 -11 41 -25 72 -14
31 -25 58 -25 61 0 2 21 18 46 36 66 45 88 11 33 -52 -25 -29 -22 -46 38 -171
37 -79 44 -100 34 -112 -14 -17 -5 -40 29 -71 12 -11 28 -32 36 -47 15 -29 54
-54 97 -62 16 -3 46 5 76 20 36 18 55 23 67 16 12 -7 28 -5 50 4 18 8 47 14
64 14 36 0 40 21 8 35 -14 6 -24 21 -26 38 -3 23 2 30 31 42 33 13 64 41 56
50 -3 2 -27 -8 -54 -23 -46 -25 -50 -30 -53 -68 -3 -48 -32 -68 -82 -57 -21 4
-36 1 -48 -11 -43 -38 -142 -23 -161 26 -5 13 -18 32 -30 42 -14 13 -19 26
-15 42 4 17 -7 46 -36 100 -23 42 -48 94 -56 116 -14 39 -13 41 12 65 23 21
26 30 21 69 -4 38 -1 50 19 72 19 22 23 24 24 10 0 -25 12 -23 66 12 58 36
132 52 232 50 108 -3 112 -3 112 20 0 22 -46 50 -84 50 -44 0 -199 -40 -248
-65 -27 -12 -48 -21 -48 -20 0 2 16 27 35 57 20 29 41 70 47 92 8 26 24 47 49
65 262 184 299 203 349 184 27 -10 30 -9 30 7 0 10 -11 27 -25 38 -47 37 -124
9 -245 -89 -100 -82 -169 -126 -259 -165 -106 -46 -106 -76 -1 -39 24 8 46 13
49 10 3 -4 -8 -31 -23 -61 -38 -72 -128 -162 -203 -202 -33 -17 -66 -39 -73
-47 -17 -21 -24 -249 -10 -340 13 -85 46 -159 94 -212 35 -39 87 -148 101
-212 4 -17 17 -44 29 -59 21 -25 22 -33 15 -102 -4 -41 -8 -115 -9 -165 0 -49
-4 -94 -8 -100 -4 -5 -38 -11 -76 -12 -93 -3 -175 -26 -273 -75 -52 -26 -86
-38 -92 -33 -5 6 3 65 20 145 16 74 32 148 36 164 5 26 3 28 -16 23 -20 -5
-21 -1 -23 71 -3 122 1 143 32 205 35 67 35 67 14 67 -8 0 -40 -24 -71 -52
-46 -44 -54 -49 -48 -28 4 14 16 37 26 52 11 14 19 34 19 43 0 9 12 27 27 38
14 11 43 58 64 103 21 45 43 84 49 86 9 3 9 30 0 106 -9 76 -9 128 -1 200 5
53 13 137 16 185 18 270 70 399 246 617 95 118 168 171 289 212 78 26 261 20
340 -10z m877 -66 l33 -21 -1 -160 c-1 -205 -5 -218 -47 -123 -27 63 -32 86
-34 172 -2 67 -7 101 -15 103 -8 3 -14 -13 -19 -46 -4 -28 -10 -51 -14 -51
-15 0 -81 91 -78 107 2 9 23 29 48 44 50 29 39 31 127 -25z m239 -98 c1 -81 4
-154 7 -161 3 -9 29 -16 72 -19 37 -3 71 -10 75 -14 13 -13 34 -622 22 -640
-4 -6 -17 -15 -30 -19 -13 -3 -28 -19 -34 -33 -7 -17 -12 -168 -14 -411 -1
-211 -6 -387 -11 -392 -4 -4 -37 -19 -73 -32 -36 -13 -91 -41 -122 -61 -32
-20 -60 -36 -63 -36 -3 0 -5 11 -5 25 0 26 39 75 60 75 17 0 11 41 -11 77
l-22 35 27 22 28 22 -17 56 c-12 42 -14 75 -9 130 3 40 9 77 12 83 3 5 8 129
9 275 2 146 8 326 12 400 4 74 9 274 10 444 1 170 4 313 7 318 3 5 20 8 37 6
l32 -3 1 -147z m147 85 c4 -2 7 -55 7 -118 0 -63 -3 -115 -7 -118 -5 -2 -34
-1 -65 1 l-58 4 0 125 0 125 58 -7 c31 -4 60 -9 65 -12z m-2734 -244 c53 -34
99 -67 103 -73 4 -6 8 -30 8 -53 0 -33 4 -43 20 -48 32 -10 26 -51 -10 -70
-16 -8 -32 -25 -34 -38 -12 -53 -16 -234 -18 -720 -1 -471 -3 -519 -18 -527
-9 -5 -27 -6 -39 -3 l-23 6 2 736 c1 405 2 741 1 746 -2 6 -6 1 -10 -10 -5
-11 -7 -132 -5 -270 2 -137 1 -463 -3 -722 l-6 -473 -34 -6 c-18 -3 -49 -3
-68 0 l-35 7 0 115 c0 115 0 115 -30 142 l-30 28 -2 233 c-2 147 -7 236 -13
238 -6 2 -32 -15 -59 -37 -38 -32 -56 -40 -87 -40 -21 0 -39 -4 -39 -10 0 -5
12 -10 28 -10 15 0 32 -4 38 -8 8 -5 13 -84 16 -244 l4 -238 -27 0 c-35 0 -99
-58 -100 -91 -4 -99 1 -173 13 -180 7 -5 31 -9 53 -10 25 -1 31 -3 17 -6 -13
-3 -26 -11 -29 -19 -8 -22 -134 -19 -163 4 l-23 18 28 28 c26 27 27 30 21 109
-3 45 -8 222 -11 392 -3 171 -8 327 -11 347 -4 30 -2 39 11 44 9 4 20 3 24 -2
5 -5 11 -175 15 -378 5 -361 17 -482 29 -294 3 51 4 149 3 218 -2 69 -4 269
-6 444 l-4 320 52 38 52 39 0 147 c0 103 4 153 13 165 13 17 209 75 261 76 19
1 61 -20 125 -60z m-761 39 c17 -17 17 -739 0 -756 -7 -7 -29 -12 -50 -12 -48
0 -55 -14 -57 -110 -3 -110 -14 -183 -28 -188 -10 -3 -13 15 -13 65 0 63 -3
72 -27 95 -16 14 -43 29 -60 33 l-33 7 1 116 c1 64 4 142 7 172 7 54 8 55 42
60 l35 5 5 232 5 232 34 25 c19 14 38 23 44 19 6 -4 8 -87 6 -222 -4 -318 -1
-461 12 -461 8 0 10 100 9 338 -1 185 -2 343 -1 350 1 15 53 16 69 0z m4886
-68 c21 -8 26 -16 26 -46 0 -35 -1 -35 -32 -29 -72 14 -82 23 -71 64 6 23 35
27 77 11z m597 -55 c16 -9 59 -19 96 -22 52 -5 73 -12 95 -32 29 -26 30 -27
32 -151 2 -69 0 -188 -4 -265 -5 -77 -9 -308 -10 -512 -1 -205 -5 -374 -8
-376 -4 -2 -42 3 -86 11 l-78 14 7 172 c10 205 13 981 4 1048 -6 49 -14 66
-26 54 -4 -3 -8 -149 -9 -324 -2 -174 -6 -423 -9 -552 -4 -129 -8 -266 -9
-305 -2 -85 -7 -96 -44 -86 l-27 8 3 653 c2 444 7 658 14 667 14 17 23 16 59
-2z m-619 -45 c43 -12 63 -40 53 -77 -4 -19 -10 -23 -23 -18 -9 4 -32 13 -51
20 -35 13 -45 34 -35 68 6 20 7 20 56 7z m4 -121 c7 -6 9 -22 5 -42 -7 -32
-18 -36 -58 -22 -14 5 -18 67 -6 78 7 8 42 -1 59 -14z m511 -171 c-4 -101 -7
-237 -8 -303 -2 -102 -3 -112 -10 -65 -8 62 -11 514 -2 536 3 8 10 14 16 14 7
0 8 -58 4 -182z m-6013 156 c3 -9 4 -19 2 -22 -2 -4 -7 -117 -12 -252 -4 -135
-9 -257 -10 -272 -1 -16 -2 -41 -3 -56 -1 -28 -2 -28 -58 -28 -32 0 -68 -4
-80 -8 -22 -8 -23 -6 -23 56 0 64 1 65 38 89 l37 24 5 90 c4 63 10 97 23 115
13 19 17 46 17 126 0 87 3 105 21 128 24 30 34 33 43 10z m296 -46 c0 -7 2
-218 5 -469 5 -445 5 -457 -15 -481 -11 -14 -22 -43 -26 -64 -3 -22 -7 -40 -8
-41 -1 -1 -32 -5 -69 -9 l-67 -7 0 34 c0 19 -7 48 -16 64 -36 67 -60 449 -30
475 8 6 16 30 18 53 4 56 28 62 28 8 0 -48 18 -61 57 -40 50 27 54 44 62 266
l8 208 3 -150 c3 -172 15 -152 19 29 1 66 4 123 7 128 8 12 24 10 24 -4z
m5546 -130 c16 -17 20 -47 27 -221 11 -264 1 -739 -16 -749 -7 -4 -29 -8 -49
-8 -31 0 -38 4 -38 19 0 11 9 22 19 26 28 8 34 33 11 45 -12 6 -27 7 -44 1
-31 -13 -33 -8 -25 82 13 158 11 348 -5 371 -9 15 -11 28 -5 37 13 21 11 50
-6 69 -14 15 -14 18 0 30 18 15 20 53 4 82 -8 14 -8 23 0 31 14 14 14 52 0 76
-10 15 -8 22 10 40 13 13 21 34 21 54 0 18 5 38 11 44 14 14 60 -1 85 -29z
m949 -256 c-1 -23 -2 -172 -3 -332 -1 -185 -6 -290 -12 -290 -6 0 -10 119 -10
336 0 264 3 335 13 332 7 -3 12 -22 12 -46z m68 -95 c9 -212 -2 -515 -20 -521
-26 -10 -31 39 -32 319 -2 304 2 345 29 345 15 0 18 -17 23 -143z m-116 -39
c-4 -84 -7 -233 -7 -330 l0 -177 -30 -16 c-16 -8 -33 -15 -38 -15 -13 0 -24
188 -16 262 6 52 13 68 41 97 l33 34 0 149 c0 104 3 148 11 148 9 0 10 -41 6
-152z m-2473 111 l26 -31 0 -367 c-1 -201 -5 -372 -9 -380 -23 -37 -28 11 -26
251 1 139 -1 278 -4 308 l-7 55 -7 -45 c-5 -25 -9 -164 -10 -310 -2 -258 -3
-265 -22 -265 -16 0 -20 6 -19 30 12 303 15 615 7 615 -12 0 -20 -131 -22
-385 -2 -231 -6 -271 -32 -278 -10 -3 -23 1 -29 8 -11 13 -12 483 -2 688 l4
88 47 24 c61 32 74 31 105 -6z m324 -119 c3 -159 -11 -656 -19 -664 -3 -4 -45
-3 -93 0 l-87 7 3 301 c3 289 4 303 26 348 13 29 34 54 51 63 16 8 33 25 37
37 9 30 23 39 54 36 l25 -3 3 -125z m-2475 45 c40 -128 61 -295 38 -295 -4 0
-21 28 -37 63 -24 54 -28 77 -32 182 -4 128 3 140 31 50z m2617 40 c23 -27 9
-759 -14 -783 -3 -3 -17 0 -31 6 l-25 12 0 367 c0 203 3 378 6 391 7 26 45 30
64 7z m-4972 -197 c-2 -112 1 -251 5 -309 l8 -106 -58 -5 c-32 -3 -61 -4 -65
-1 -5 2 -8 100 -8 216 1 178 3 209 14 195 16 -22 42 -23 49 -4 3 8 3 31 0 50
-4 25 0 44 16 69 11 19 21 45 21 59 0 22 7 38 17 38 2 0 3 -91 1 -202z m1006
190 c3 -7 7 -174 10 -370 l6 -358 -36 -15 c-52 -21 -61 -19 -139 33 l-70 47
-6 75 c-3 48 -13 89 -26 112 -14 25 -21 58 -22 102 -1 55 2 68 24 95 22 25 27
42 31 118 3 48 7 104 9 123 2 19 4 38 4 43 2 13 211 8 215 -5z m5701 -78 c9
-16 22 -30 29 -30 16 0 26 -21 26 -53 0 -11 6 -28 14 -36 12 -13 13 -55 8
-250 l-7 -234 -49 -30 c-35 -22 -50 -27 -55 -18 -18 29 -23 613 -5 669 6 21
23 13 39 -18z m-6052 -24 c11 -11 15 -59 19 -200 5 -147 9 -189 22 -208 15
-21 23 -108 11 -120 -3 -3 -31 1 -63 8 -31 8 -72 14 -89 14 -30 0 -33 3 -33
30 0 17 9 43 20 58 18 24 20 44 21 204 l1 178 30 25 c34 29 41 30 61 11z
m3174 -33 c-3 -21 -10 -63 -16 -93 -6 -30 -13 -72 -17 -93 -3 -22 -17 -51 -34
-70 -34 -37 -37 -26 -15 47 8 27 15 64 15 82 0 18 4 35 9 38 4 3 11 20 14 38
8 49 25 88 38 88 8 0 10 -13 6 -37z m2408 -271 c-4 -128 -9 -231 -12 -228 -5
4 -3 322 2 381 1 17 4 57 5 90 2 45 4 51 8 25 2 -19 1 -140 -3 -268z m-5997
232 c30 -12 32 -16 32 -61 0 -27 -5 -54 -10 -59 -15 -15 -50 -148 -50 -188 0
-19 -9 -45 -21 -60 -18 -22 -20 -36 -15 -73 6 -43 5 -45 -17 -39 -53 13 -95
36 -100 56 -3 12 -6 102 -7 202 -1 148 2 185 15 204 8 13 22 24 30 24 13 0 15
-25 15 -152 0 -103 4 -148 10 -138 5 8 10 78 10 156 0 77 3 144 7 148 8 8 55
-1 101 -20z m-659 -61 c1 -18 10 -47 21 -65 11 -18 20 -50 20 -70 0 -20 5 -49
10 -64 8 -19 21 -244 15 -244 0 0 -25 9 -55 19 -30 11 -72 22 -92 26 -42 8
-47 25 -27 85 11 29 9 38 -12 76 -21 38 -22 47 -11 77 7 18 12 47 12 64 0 22
15 50 52 97 56 71 66 70 67 -1z m-401 -162 c2 -127 -1 -188 -9 -197 -7 -8 -30
-14 -55 -14 l-44 0 0 155 c0 153 0 156 25 179 14 13 25 30 25 38 0 21 11 29
35 26 19 -3 20 -10 23 -187z m1105 6 c-4 -17 6 -62 22 -112 35 -103 29 -124
-40 -150 -54 -21 -65 -15 -67 38 -1 26 5 44 20 60 16 17 22 36 22 68 0 41 13
116 26 149 10 24 23 -19 17 -53z m7102 -63 c0 -28 5 -57 11 -65 17 -22 23 -45
15 -57 -5 -8 -24 -7 -71 6 -64 17 -65 18 -65 52 0 31 3 35 30 40 24 4 31 12
38 43 7 27 14 37 26 35 12 -3 16 -15 16 -54z m-8845 23 l65 -12 3 -53 c2 -28
0 -52 -4 -52 -3 0 -32 15 -63 34 -31 19 -75 42 -98 51 -55 22 -57 45 -5 45 20
-1 66 -6 102 -13z m9606 -105 c-11 -10 -86 31 -86 47 0 9 19 28 43 43 l42 27
3 -55 c2 -31 1 -59 -2 -62z m-2570 22 c7 -109 14 -152 27 -162 7 -6 45 -14 85
-17 39 -4 72 -11 72 -15 0 -5 -23 -16 -50 -25 -40 -13 -69 -15 -143 -10 -106
8 -124 -1 -112 -54 5 -26 3 -32 -24 -45 -53 -28 -53 -27 -47 125 3 78 8 144
11 147 3 3 5 -12 5 -34 0 -21 4 -44 8 -51 4 -7 34 -15 66 -19 80 -10 86 -1 86
135 0 116 9 130 16 25z m2434 48 c22 -14 23 -17 7 -20 -31 -6 -87 8 -87 22 0
30 31 30 80 -2z m-8962 -70 c2 -52 -1 -82 -8 -82 -6 0 -10 25 -10 58 0 46 -4
63 -20 77 -16 14 -17 20 -8 27 33 21 43 4 46 -80z m-118 37 c61 -17 67 -22 68
-71 2 -56 -5 -66 -64 -82 -27 -8 -59 -17 -72 -21 -23 -8 -23 -7 -21 81 2 103
5 116 28 110 9 -3 36 -10 61 -17z m-142 -95 c-4 -125 -16 -143 -61 -91 -26 30
-28 37 -23 101 5 73 9 81 41 89 48 11 47 13 43 -99z m-375 65 c26 -5 66 -18
89 -30 54 -28 139 -109 178 -169 19 -29 45 -55 67 -65 35 -17 36 -17 147 24
186 68 224 75 386 74 170 -1 285 -19 373 -61 100 -47 190 -151 217 -253 18
-66 46 -80 117 -60 67 19 178 22 254 7 232 -48 408 -229 441 -451 6 -45 18
-88 27 -97 9 -10 50 -24 100 -33 45 -9 107 -27 137 -40 77 -34 194 -112 194
-129 0 -8 -29 -73 -64 -143 -67 -133 -178 -419 -191 -487 -3 -22 -40 -116 -82
-210 -41 -94 -82 -188 -91 -210 -15 -38 -15 -38 -61 -32 -66 9 -192 73 -294
150 -49 36 -95 66 -102 66 -7 0 -61 -39 -121 -86 -140 -110 -168 -126 -310
-177 l-119 -42 -165 1 c-144 1 -177 4 -261 26 -116 32 -202 74 -268 132 -27
24 -70 52 -97 62 -47 18 -48 18 -108 -6 -345 -133 -528 -133 -722 0 -68 45
-100 91 -134 186 -7 19 -25 39 -45 50 -38 20 -31 21 -200 -31 -80 -25 -105
-28 -230 -28 -168 -1 -249 19 -337 83 -99 70 -199 222 -223 337 -18 87 -6 146
41 201 52 61 53 87 5 151 -66 88 -66 149 0 252 70 107 170 189 232 189 45 0
57 23 57 113 0 66 5 92 25 135 30 64 111 146 184 185 53 29 97 32 158 12 19
-6 26 2 63 80 71 149 183 238 380 300 136 43 227 49 353 24z m9680 -67 c67
-38 84 -39 163 -11 177 61 339 16 405 -114 63 -122 57 -333 -12 -469 -10 -20
-19 -42 -19 -47 0 -6 25 -37 55 -68 196 -205 234 -418 115 -654 -82 -161 -196
-246 -400 -296 -33 -8 -35 -12 -47 -72 -12 -61 -56 -144 -90 -172 -13 -12 -14
-7 -6 46 24 173 -7 372 -85 538 -37 80 -101 160 -147 185 -18 9 -18 14 -7 44
44 122 -36 323 -153 389 l-55 31 0 90 c0 151 -49 285 -145 395 -25 28 -45 56
-45 62 0 14 93 87 144 113 73 38 118 48 197 45 64 -3 86 -9 132 -35z m-495 2
c4 -28 -30 -69 -51 -61 -17 7 -24 66 -10 81 15 15 58 1 61 -20z m-6211 -27 c3
-4 0 -13 -7 -22 -17 -20 -170 -22 -170 -2 0 30 24 39 98 34 40 -2 75 -7 79
-10z m5984 -36 c72 -27 185 -107 233 -163 87 -101 117 -189 118 -345 0 -59 2
-116 5 -125 2 -10 25 -24 55 -34 72 -24 121 -72 152 -149 33 -83 33 -144 1
-213 -14 -30 -25 -57 -25 -61 0 -3 22 -14 49 -24 65 -23 120 -84 158 -177 81
-194 85 -425 11 -599 -44 -104 -148 -224 -277 -320 -104 -77 -204 -126 -311
-152 -47 -11 -102 -25 -122 -30 l-37 -9 6 -68 c8 -100 -19 -171 -94 -241 -75
-71 -160 -110 -253 -118 -70 -6 -75 -8 -133 -60 -80 -71 -133 -87 -292 -87
-111 1 -127 3 -205 33 -128 49 -124 49 -188 4 -32 -22 -79 -52 -107 -65 -50
-26 -175 -68 -200 -68 -7 0 -27 21 -43 48 -17 26 -69 84 -115 129 -84 83 -84
83 -125 200 -22 65 -66 189 -97 277 -30 87 -87 267 -125 400 -38 132 -87 293
-109 356 -49 145 -190 530 -201 550 -5 9 -12 43 -15 75 -20 176 -78 288 -222
426 -154 147 -295 212 -461 210 -65 -1 -102 3 -122 14 -16 8 -51 15 -77 15
-64 0 -84 13 -52 33 54 36 199 97 274 116 225 57 436 53 635 -11 83 -26 117
-44 159 -80 18 -16 53 -39 77 -50 l43 -22 168 86 c264 135 420 186 633 206
192 18 372 3 499 -42 24 -9 52 -16 62 -16 10 0 64 28 121 62 57 35 139 76 183
91 74 26 89 27 195 24 87 -3 129 -9 171 -26z m-6033 -29 c15 -5 17 -149 2
-154 -5 -1 -43 -2 -85 0 l-75 4 0 79 0 80 73 -2 c39 -1 78 -4 85 -7z m-1165
-44 l68 -32 72 24 c96 31 227 38 332 16 148 -31 231 -83 326 -206 67 -86 67
-86 175 -94 122 -10 222 -54 295 -132 38 -40 119 -164 118 -180 0 -5 -37 -38
-81 -74 -91 -74 -161 -151 -238 -262 l-53 -78 -54 46 c-30 26 -87 63 -127 84
-66 34 -107 47 -217 64 -36 6 -36 7 -53 85 -24 110 -64 187 -136 264 -79 85
-179 152 -295 197 -88 34 -94 35 -233 35 l-143 1 -35 64 c-19 35 -53 84 -76
107 -23 23 -40 44 -37 47 19 17 85 42 139 53 91 17 172 8 253 -29z m2435 -39
c18 -37 34 -55 49 -57 12 -2 34 -20 49 -40 43 -59 106 -122 138 -139 27 -14
31 -14 42 2 12 17 15 16 41 -12 32 -34 87 -66 97 -55 4 3 16 26 27 51 22 50
29 48 44 -12 14 -53 34 -57 88 -21 23 16 52 29 63 29 38 1 148 115 188 193 16
31 19 33 35 18 10 -9 23 -16 29 -16 8 0 12 -24 12 -74 0 -147 33 -298 70 -321
10 -6 11 1 6 28 l-7 36 51 -22 c27 -11 50 -24 50 -27 0 -15 -226 -134 -283
-150 -192 -53 -609 -51 -784 5 -120 38 -262 127 -251 157 7 16 135 75 144 66
3 -3 -7 -31 -22 -62 -28 -56 -27 -80 2 -56 55 46 86 190 84 392 -1 150 -1 153
5 146 3 -3 18 -29 33 -59z m2962 -7 c0 -7 -57 -32 -73 -32 -4 0 -7 9 -7 20 0
17 7 20 40 20 22 0 40 -4 40 -8z m-3950 -11 c63 0 174 1 247 2 72 1 135 -1
138 -5 3 -3 1 -34 -5 -68 -10 -53 -9 -65 4 -79 13 -14 14 -25 5 -57 -31 -120
-40 -144 -54 -144 -12 0 -15 19 -15 105 0 98 -1 105 -22 116 -13 7 -42 13 -66
13 -58 1 -74 -20 -71 -95 3 -68 -3 -79 -46 -79 -61 0 -65 5 -65 81 l0 70 -43
18 c-60 26 -103 34 -169 33 -31 -1 -59 2 -62 7 -3 4 9 27 26 50 26 35 35 41
57 37 14 -3 78 -5 141 -5z m-62 -123 c18 -5 30 -13 27 -18 -2 -4 -47 -11 -98
-15 -75 -5 -101 -3 -135 10 -23 10 -39 21 -36 27 7 12 199 9 242 -4z m-225
-37 c26 -11 47 -25 47 -31 0 -7 -3 -10 -7 -8 -5 2 -36 17 -70 33 -35 15 -63
32 -63 36 0 9 14 4 93 -30z m547 19 c0 -13 -11 -13 -30 0 -12 8 -11 10 8 10
12 0 22 -4 22 -10z m-23 -31 c15 -15 5 -209 -11 -226 -6 -6 -28 -18 -48 -27
-37 -15 -38 -15 -44 9 -9 37 -23 43 -107 49 -83 6 -117 18 -117 41 0 12 23 15
135 15 l135 0 0 68 c0 38 3 72 7 75 10 11 38 8 50 -4z m2381 -148 c79 -41 134
-116 151 -207 17 -90 -10 -295 -58 -449 -33 -105 -149 -421 -187 -512 -106
-251 -333 -638 -564 -963 -58 -83 -271 -360 -275 -360 -2 0 -65 56 -141 125
-75 69 -142 125 -147 125 -5 0 -30 -17 -56 -38 -83 -68 -89 -71 -60 -32 14 19
86 118 159 220 73 102 158 219 190 260 81 107 148 209 252 383 50 84 134 215
188 292 54 77 122 178 151 225 63 103 261 507 289 591 30 93 53 263 40 307 -5
20 -10 40 -10 45 0 13 40 7 78 -12z m-220 -27 c44 -4 65 -10 69 -21 9 -22 -12
-146 -39 -228 -28 -87 -231 -497 -290 -585 -25 -36 -92 -134 -151 -218 -58
-85 -143 -215 -188 -290 -113 -189 -364 -555 -636 -927 -242 -333 -195 -285
-658 -658 -231 -186 -498 -401 -594 -478 -95 -77 -175 -138 -177 -136 -2 2 2
69 10 148 8 79 18 180 21 224 3 44 10 107 15 140 5 33 16 123 25 200 25 217
99 652 149 865 8 36 36 166 62 290 25 124 55 252 65 285 22 68 36 195 23 195
-5 0 -20 -28 -33 -62 -13 -35 -47 -121 -75 -193 l-50 -130 -7 55 c-4 30 -10
129 -14 220 -7 173 -11 208 -25 194 -10 -10 -17 -103 -25 -319 -14 -382 -20
-470 -36 -513 -9 -24 -65 -337 -100 -562 -11 -69 -28 -156 -39 -195 -19 -70
-60 -330 -60 -384 0 -31 -83 -208 -132 -279 -64 -95 -200 -220 -491 -454 -164
-132 -362 -294 -440 -361 -78 -67 -171 -146 -207 -175 -36 -30 -66 -58 -68
-63 -2 -5 -12 -9 -21 -9 -16 0 -19 13 -24 103 -4 72 -16 137 -41 222 -19 66
-46 162 -60 213 -50 177 -136 332 -245 436 -34 31 -61 61 -61 64 0 4 24 27 54
50 95 76 287 281 446 477 278 341 388 435 700 600 214 113 220 117 220 132 0
21 -23 16 -177 -42 -81 -31 -151 -54 -156 -52 -4 1 6 20 23 42 51 63 163 224
204 292 62 104 229 506 257 618 30 124 203 480 321 661 152 234 281 338 530
428 51 19 153 64 227 100 73 36 139 66 146 66 7 0 20 -17 28 -38 31 -77 202
-207 330 -251 124 -43 381 -53 617 -25 153 19 225 42 346 112 122 71 186 123
211 171 10 20 21 41 25 47 7 10 64 10 196 -2z m527 -46 c181 -59 385 -242 430
-384 32 -103 22 -154 -109 -540 -115 -338 -187 -497 -386 -849 -59 -104 -152
-271 -207 -370 -255 -457 -428 -745 -446 -745 -7 1 -49 36 -94 78 l-82 77 49
64 c74 94 215 306 313 469 79 132 127 232 127 267 0 28 -30 15 -55 -22 -14
-21 -81 -121 -148 -223 -120 -181 -197 -288 -300 -420 -28 -36 -52 -67 -54
-69 -2 -3 -77 63 -226 199 -17 16 -11 25 125 191 306 372 473 617 623 914 107
213 265 623 316 825 58 229 60 421 4 554 -7 16 -5 18 26 11 19 -4 61 -16 94
-27z m-2832 -7 c31 -2 21 -49 -15 -71 -46 -28 -53 -26 -82 23 l-26 42 23 6
c12 3 36 5 52 3 17 -1 38 -2 48 -3z m3406 -954 c38 -117 99 -314 135 -437 65
-223 121 -396 210 -644 26 -71 44 -131 41 -134 -2 -3 -57 20 -121 51 -121 60
-144 66 -144 42 0 -19 34 -50 90 -83 109 -63 260 -170 319 -226 75 -72 112
-119 256 -326 118 -169 153 -214 261 -335 89 -100 224 -275 224 -289 -1 -6
-28 -31 -61 -56 -199 -148 -559 -597 -620 -772 -7 -21 -16 -38 -20 -38 -3 0
-69 64 -146 143 -103 106 -191 212 -338 407 -243 323 -308 423 -300 461 5 22
1 31 -21 46 -72 48 -98 86 -144 213 l-45 125 2 141 c2 183 17 334 53 514 39
197 48 266 75 635 9 129 44 272 125 512 96 285 88 263 94 263 3 0 36 -96 75
-213z m-343 -543 c-3 -9 -20 -88 -37 -175 -18 -88 -33 -158 -35 -157 -1 2 -6
45 -9 97 l-7 94 38 79 c21 43 42 78 47 78 5 0 6 -7 3 -16z m-6732 -129 c77
-54 189 -107 266 -126 127 -31 326 -4 491 66 107 46 127 45 189 -10 136 -121
435 -207 660 -191 92 6 145 19 257 59 120 44 139 55 304 184 l57 44 63 -48
c74 -56 181 -113 257 -138 28 -9 52 -21 52 -25 0 -21 -240 -373 -323 -473 -22
-26 -81 -81 -131 -121 -50 -41 -146 -131 -214 -200 -122 -126 -123 -127 -160
-120 -111 19 -237 97 -330 203 -29 34 -60 61 -69 61 -8 0 -55 -16 -104 -35
-151 -61 -346 -77 -459 -40 -39 13 -65 32 -104 73 -109 117 -121 127 -178 145
-32 10 -92 22 -135 27 -229 27 -342 77 -459 203 -134 145 -149 295 -44 460 16
26 34 47 39 47 6 0 39 -20 75 -45z m6529 -317 c4 -40 4 -199 1 -353 -3 -154
-7 -395 -9 -535 -3 -238 -5 -255 -22 -258 -34 -7 -37 -21 -10 -42 l27 -21 0
-196 c0 -108 -4 -193 -9 -191 -16 6 -621 559 -621 568 0 5 32 62 71 127 93
153 407 704 489 856 34 64 66 117 70 117 4 0 10 -33 13 -72z m-659 -1093 c474
-428 1027 -930 1230 -1115 l370 -335 -532 -3 c-293 -1 -532 -5 -532 -9 0 -7
240 -485 405 -808 56 -110 183 -360 282 -555 99 -195 229 -451 288 -568 59
-117 106 -214 104 -215 -13 -10 -386 -163 -500 -205 -461 -171 -1045 -302
-1544 -347 -280 -25 -691 -31 -950 -13 -619 41 -1205 165 -1765 375 -157 59
-443 179 -479 202 -15 10 -14 13 377 701 101 179 281 496 400 705 119 209 260
458 314 553 54 95 98 175 98 177 0 3 -287 6 -637 7 l-638 3 1125 906 c619 498
1251 1007 1405 1131 268 217 281 225 299 210 11 -10 407 -368 880 -797z m2156
417 c0 -18 -59 -64 -75 -58 -27 10 -13 38 25 52 43 15 50 16 50 6z m-7648
-763 c70 -26 104 -32 218 -39 91 -5 155 -15 195 -28 33 -11 96 -31 140 -43 53
-16 103 -39 152 -72 71 -48 93 -52 93 -19 0 16 166 153 217 181 21 11 26 7 73
-56 48 -65 180 -315 180 -340 0 -21 -205 -153 -227 -147 -17 5 -31 -12 -83
-97 -67 -109 -157 -211 -270 -305 -38 -32 -97 -94 -130 -139 -105 -144 -235
-246 -278 -219 -9 6 -18 18 -20 27 -3 14 116 165 172 216 14 14 26 28 26 33 0
20 -40 2 -184 -87 -157 -96 -199 -117 -271 -139 -48 -14 -75 -10 -75 12 0 35
52 88 198 198 143 109 176 144 134 144 -9 0 -84 -40 -165 -90 -155 -95 -297
-170 -321 -170 -7 0 -19 7 -26 15 -10 12 -8 24 11 62 20 39 49 66 174 160 166
123 185 140 185 160 0 27 -11 22 -313 -136 -159 -83 -200 -90 -205 -35 -2 25
5 38 45 76 27 25 94 71 148 103 269 158 396 258 441 348 26 50 33 54 52 35 22
-22 13 24 -17 88 -32 69 -34 69 -184 108 -139 36 -257 120 -257 182 0 53 54
57 172 13z m8100 -151 c57 -51 121 -107 141 -125 20 -18 37 -42 37 -53 0 -28
20 -25 76 13 69 46 111 62 264 101 111 28 160 35 275 38 120 5 150 9 209 32
81 31 106 32 136 8 30 -24 21 -51 -33 -103 -58 -57 -103 -77 -230 -106 -61
-13 -119 -29 -128 -33 -16 -9 -79 -119 -79 -139 0 -7 9 -9 23 -6 20 6 25 1 37
-36 29 -85 149 -191 425 -371 144 -94 195 -143 195 -188 0 -17 -3 -30 -7 -31
-5 0 -16 -2 -25 -4 -22 -4 -146 56 -266 129 -103 62 -186 106 -202 106 -25 0
-6 -41 33 -71 87 -68 263 -215 279 -234 10 -11 22 -35 29 -54 9 -27 9 -36 -5
-49 -15 -15 -21 -14 -84 17 -37 18 -142 82 -233 142 -91 60 -173 109 -182 109
-39 0 -9 -35 127 -147 186 -153 241 -232 156 -225 -55 4 -145 52 -310 161 -83
56 -155 101 -160 101 -21 0 -8 -24 45 -88 61 -73 118 -182 109 -207 -10 -24
-51 -17 -88 15 -19 17 -78 88 -133 158 -54 70 -152 181 -219 247 -115 115
-180 200 -247 325 -20 37 -32 50 -44 46 -16 -7 -68 28 -266 176 l-118 89 20
27 c57 80 307 322 332 322 4 0 53 -42 111 -92z m-5352 -1407 c0 -9 -177 -326
-218 -391 -15 -24 -17 -18 -48 155 -18 99 -35 195 -39 213 l-6 32 156 0 c91 0
155 -4 155 -9z"/>
<path d="M8497 8123 c-11 -249 -9 -365 5 -361 22 8 28 62 28 264 1 172 -7 254
-23 254 -2 0 -7 -71 -10 -157z"/>
<path d="M4840 9800 c0 -5 17 -12 38 -15 20 -3 46 -8 56 -10 29 -6 5 11 -33
24 -41 14 -61 14 -61 1z"/>
<path d="M4846 9391 c11 -11 86 -32 92 -26 3 3 -11 12 -31 20 -41 17 -77 20
-61 6z"/>
<path d="M5571 9959 c1 -41 5 -87 10 -104 5 -19 7 6 4 69 -5 116 -16 143 -14
35z"/>
<path d="M5259 9073 c0 -280 -2 -517 -4 -528 -7 -48 -13 -677 -5 -653 4 15 11
130 14 255 4 125 9 298 11 383 19 657 17 1050 -6 1050 -5 0 -9 -211 -10 -507z"/>
<path d="M5358 9428 c-9 -136 -7 -694 2 -708 7 -11 10 -3 10 30 0 25 3 201 7
393 4 243 3 347 -5 347 -6 0 -12 -28 -14 -62z"/>
<path d="M2876 9733 c-8 -8 -5 -874 4 -1068 5 -119 7 -70 9 235 1 212 4 485 7
607 5 203 1 247 -20 226z"/>
<path d="M2735 9440 c-12 -18 -16 -1059 -5 -1105 5 -21 8 -24 10 -10 1 11 3
28 5 38 8 42 15 1025 7 1057 -6 27 -10 32 -17 20z"/>
<path d="M4730 9580 c-39 -32 -36 -51 3 -25 23 14 42 43 35 51 -2 1 -19 -10
-38 -26z"/>
<path d="M4715 9379 c-12 -19 5 -23 22 -6 16 16 16 17 1 17 -9 0 -20 -5 -23
-11z"/>
<path d="M6330 8786 c0 -18 32 -76 43 -76 13 0 8 24 -13 58 -21 35 -30 40 -30
18z"/>
<path d="M6516 8768 c-17 -24 -22 -68 -7 -68 9 0 41 61 41 79 0 18 -18 12 -34
-11z"/>
<path d="M6070 8756 c-61 -13 -112 -35 -117 -52 -5 -14 73 -68 120 -83 32 -11
47 -10 106 8 38 12 76 21 84 21 29 0 29 22 1 52 -55 57 -109 72 -194 54z m-30
-66 c0 -30 0 -30 -25 -14 -35 23 -32 44 7 44 13 0 18 -8 18 -30z m110 21 c0
-14 -18 -23 -30 -16 -6 4 -8 11 -5 16 8 12 35 12 35 0z m99 -35 c-2 -2 -16 -7
-32 -11 -23 -6 -26 -5 -21 11 3 11 8 25 10 33 4 12 9 10 26 -7 12 -12 20 -23
17 -26z"/>
<path d="M6645 8726 c-38 -17 -89 -70 -83 -87 5 -14 84 -39 140 -43 46 -4 134
11 170 30 75 39 -11 110 -137 113 -33 0 -73 -5 -90 -13z m15 -57 c0 -24 -3
-30 -16 -25 -9 3 -25 6 -37 6 -21 1 -21 2 6 25 37 33 47 31 47 -6z m196 -24
c-23 -18 -36 -11 -36 19 0 34 11 39 34 16 21 -21 21 -21 2 -35z m-106 31 c0
-16 -18 -31 -27 -22 -8 8 5 36 17 36 5 0 10 -6 10 -14z"/>
<path d="M6297 8624 c-33 -41 -29 -54 8 -30 15 10 25 26 25 41 0 14 -1 25 -2
25 -2 0 -16 -16 -31 -36z"/>
<path d="M6525 8626 c9 -41 34 -76 56 -76 24 0 24 4 -3 33 -13 14 -31 35 -41
48 l-18 24 6 -29z"/>
<path d="M6368 8466 c-7 -36 8 -54 16 -21 4 16 3 32 -2 37 -6 6 -11 0 -14 -16z"/>
<path d="M6290 8283 c0 -10 105 -53 128 -53 25 0 112 33 112 42 0 11 -36 10
-81 -3 -32 -10 -46 -9 -82 5 -46 17 -77 21 -77 9z"/>
<path d="M6115 8121 c9 -23 9 -22 1 -73 -12 -69 17 -191 51 -218 38 -29 70
-25 107 13 l31 34 98 -5 c93 -4 99 -6 119 -32 24 -33 54 -44 71 -26 6 7 19 11
29 8 13 -3 20 8 33 54 8 33 22 79 30 104 8 25 15 60 15 78 0 17 5 32 10 32 6
0 10 5 10 10 0 6 -24 10 -53 10 -28 0 -68 5 -87 11 -21 7 -122 12 -253 13
-193 2 -217 0 -212 -13z m238 -33 c13 -6 48 -8 92 -4 64 6 101 0 133 -20 11
-7 -31 -62 -50 -67 -48 -13 -222 -2 -255 16 -37 20 -37 20 -20 48 10 17 10 23
0 26 -7 3 -13 9 -13 14 0 11 86 2 113 -13z m-160 -52 c79 -63 129 -79 244 -78
88 1 146 15 196 48 41 27 47 18 21 -31 -9 -16 -16 -47 -16 -68 -1 -42 -25 -67
-65 -67 -31 0 -52 42 -33 65 21 26 4 29 -61 10 -71 -19 -116 -15 -191 17 -27
11 -51 19 -53 16 -3 -3 4 -17 16 -32 l21 -27 -26 -26 c-20 -20 -29 -24 -38
-15 -7 7 -20 12 -29 12 -11 0 -20 14 -27 43 -21 84 -24 167 -5 167 2 0 23 -15
46 -34z"/>
<path d="M6355 8019 c-15 -6 -11 -8 18 -8 20 -1 37 1 37 3 0 9 -37 12 -55 5z"/>
<path d="M6478 8013 c7 -3 16 -2 19 1 4 3 -2 6 -13 5 -11 0 -14 -3 -6 -6z"/>
<path d="M7595 9179 c-9 -14 -13 -155 -20 -649 -4 -217 -7 -432 -9 -478 -2
-85 7 -127 17 -76 4 16 9 103 13 194 3 91 8 179 10 195 2 17 7 206 10 421 5
278 4 393 -4 398 -6 3 -14 1 -17 -5z"/>
<path d="M4860 9243 c0 -5 -2 -44 -4 -88 -2 -44 -5 -330 -5 -635 -2 -780 -3
-736 10 -723 17 17 27 1453 10 1453 -6 0 -11 -3 -11 -7z"/>
<path d="M4987 8933 c-4 -108 -6 -383 -5 -612 1 -337 2 -384 8 -246 13 304 22
1055 12 1055 -5 0 -12 -88 -15 -197z"/>
<path d="M4576 8828 c-10 -39 -7 -288 4 -288 6 0 10 58 10 155 0 85 -2 155 -4
155 -2 0 -6 -10 -10 -22z"/>
<path d="M4149 9194 c-5 -97 4 -470 11 -478 8 -8 1 494 -6 503 -2 2 -5 -9 -5
-25z"/>
<path d="M3813 8545 c0 -22 2 -30 4 -17 2 12 2 30 0 40 -3 9 -5 -1 -4 -23z"/>
<path d="M9320 8696 c0 -14 5 -28 10 -31 6 -3 10 1 10 9 0 9 7 16 16 16 23 0
11 24 -14 28 -18 3 -22 -2 -22 -22z"/>
<path d="M9333 8613 c-15 -5 -18 -73 -3 -73 6 0 10 9 10 20 0 12 9 24 22 29
22 8 22 8 3 18 -11 6 -26 8 -32 6z"/>
<path d="M9333 8483 c-15 -5 -17 -41 -5 -61 6 -9 12 -6 20 13 6 14 18 25 27
25 20 0 19 16 -1 24 -18 7 -23 7 -41 -1z"/>
<path d="M9340 8355 c0 -11 7 -15 23 -13 12 2 22 8 22 13 0 6 -10 11 -22 13
-16 2 -23 -2 -23 -13z"/>
<path d="M8092 8153 c2 -293 2 -295 9 -118 10 280 10 415 -1 415 -6 0 -9 -105
-8 -297z"/>
<path d="M8009 8363 c-3 -178 0 -547 5 -542 2 2 7 136 11 297 5 210 4 292 -4
292 -6 0 -11 -20 -12 -47z"/>
</g>
</svg>
