<?xml version="1.0" standalone="no"?>
<!DOCTYPE svg PUBLIC "-//W3C//DTD SVG 20010904//EN"
 "http://www.w3.org/TR/2001/REC-SVG-20010904/DTD/svg10.dtd">
<svg version="1.0" xmlns="http://www.w3.org/2000/svg"
 width="1249.000000pt" height="1249.000000pt" viewBox="0 0 1249.000000 1249.000000"
 preserveAspectRatio="xMidYMid meet">
<metadata>
Created by potrace 1.16, written by Peter Selinger 2001-2019
</metadata>
<g transform="translate(0.000000,1249.000000) scale(0.100000,-0.100000)"
fill="#000000" stroke="none">
<path d="M0 6245 l0 -6245 6245 0 6245 0 0 6245 0 6245 -6245 0 -6245 0 0
-6245z m6640 6144 c646 -47 1237 -177 1815 -399 1238 -477 2289 -1343 3003
-2477 605 -960 933 -2081 936 -3203 1 -249 -9 -583 -18 -612 -3 -7 -7 -47 -11
-88 -18 -221 -75 -548 -145 -835 -114 -464 -266 -876 -480 -1300 l-95 -190
-44 -3 c-62 -5 -84 3 -134 46 -24 20 -59 45 -76 54 -17 10 -34 25 -37 35 -37
121 -148 227 -216 209 -13 -3 -49 9 -92 30 -88 42 -120 47 -190 27 -53 -15
-55 -15 -86 8 -46 35 -138 32 -215 -6 -41 -20 -65 -26 -87 -21 -48 9 -168 -29
-198 -64 -14 -16 -44 -33 -70 -40 -66 -18 -111 -44 -147 -84 -17 -20 -40 -36
-50 -36 -32 0 -84 -39 -99 -75 -9 -23 -28 -42 -54 -55 -28 -14 -46 -32 -57
-58 -26 -63 -29 -66 -59 -75 -34 -11 -107 -61 -184 -127 -76 -64 -109 -86
-161 -106 -53 -21 -60 -30 -47 -59 14 -30 181 -112 280 -137 76 -19 92 -19
223 -6 26 3 30 0 33 -26 2 -18 -4 -36 -18 -51 -47 -51 -28 -161 34 -195 36
-19 42 -7 17 33 -29 47 -26 76 10 119 25 32 29 43 23 73 -8 43 9 88 42 110 35
23 30 52 -12 77 -45 26 -54 51 -39 102 l12 41 56 1 c37 1 68 9 92 23 33 19 39
20 88 7 71 -18 101 -12 198 42 140 79 105 102 -47 31 -90 -42 -104 -44 -202
-23 -26 5 -40 1 -70 -20 -45 -31 -72 -32 -129 -7 -53 25 -75 58 -71 108 3 33
8 41 41 56 20 10 37 25 37 32 0 8 14 30 31 50 25 29 38 35 70 35 40 0 46 4 82
60 29 44 67 63 140 68 50 4 59 8 74 33 26 44 75 63 128 50 66 -17 84 -14 121
19 51 44 74 46 139 14 l56 -29 48 28 c58 32 81 33 138 8 34 -16 41 -23 36 -40
-5 -18 -1 -21 27 -21 44 0 141 -29 164 -49 45 -38 62 -147 29 -183 -14 -16
-17 -46 -20 -194 -2 -167 -3 -178 -27 -219 -23 -39 -24 -44 -9 -56 9 -8 18
-13 20 -11 15 11 30 -1 25 -23 -4 -24 -3 -25 57 -25 33 0 61 -3 61 -6 0 -13
-164 -239 -276 -378 -426 -532 -935 -990 -1502 -1352 -201 -129 -341 -206
-383 -211 -35 -5 -43 -1 -82 34 -92 84 -266 114 -370 64 l-48 -24 -47 46 c-80
78 -167 98 -244 55 -35 -20 -42 -21 -71 -9 -114 47 -207 50 -309 11 -100 -38
-201 -120 -183 -150 5 -8 13 -6 29 8 40 37 121 80 190 101 97 30 163 28 246
-9 83 -37 95 -37 159 -4 45 24 54 25 81 14 29 -12 76 -63 113 -122 25 -41 62
-46 95 -15 57 55 172 73 247 38 22 -10 57 -36 78 -58 l38 -39 -178 -87 c-469
-226 -986 -399 -1481 -493 -122 -23 -145 -25 -153 -13 -5 8 -36 95 -68 194
-33 99 -69 207 -80 240 -92 281 -201 705 -188 737 7 19 68 31 110 22 18 -3 49
-15 69 -25 55 -28 90 -24 137 15 57 48 101 61 206 61 82 0 93 -2 129 -27 51
-36 70 -35 121 6 80 66 120 81 220 80 72 -1 105 -6 165 -28 41 -16 94 -33 117
-39 42 -10 44 -9 77 25 51 53 108 68 248 68 120 0 158 8 158 35 0 10 -11 15
-32 16 -18 1 -44 4 -58 8 -25 7 -24 8 29 64 79 84 142 111 261 114 78 2 97 6
108 20 87 123 111 141 195 150 l53 5 36 77 c66 138 119 189 215 209 32 7 42
15 65 57 44 83 89 120 178 150 61 20 80 31 80 45 0 10 -6 20 -14 23 -23 9
-164 -31 -203 -58 -21 -14 -41 -25 -44 -25 -4 0 -29 18 -55 40 -60 50 -178 90
-264 90 -54 0 -60 2 -80 30 -27 38 -85 68 -145 77 -43 5 -47 8 -67 55 -22 52
-56 82 -104 94 -40 9 -51 19 -57 54 -8 37 -67 103 -119 132 -26 15 -48 38 -63
68 -25 49 -54 79 -90 95 -13 5 -34 26 -47 45 -14 22 -44 45 -78 62 -47 23 -67
43 -69 71 -1 4 14 5 33 1 29 -5 49 2 128 44 163 88 201 125 166 160 -7 7 -26
12 -43 12 -46 0 -84 29 -124 94 -22 37 -48 65 -68 75 -27 13 -33 22 -33 49 0
55 -25 100 -64 116 -20 8 -46 32 -61 55 -26 39 -92 81 -127 81 -9 0 -38 11
-65 25 -27 14 -71 29 -98 34 -28 4 -74 21 -103 36 -62 33 -138 43 -194 24 -33
-10 -47 -10 -86 1 -76 21 -117 23 -150 6 -21 -11 -44 -14 -75 -10 -39 6 -47 3
-81 -26 -39 -35 -76 -96 -76 -127 0 -23 -47 -93 -62 -93 -6 0 -34 -17 -62 -39
-71 -53 -129 -81 -169 -81 -18 0 -42 -6 -53 -14 -18 -14 -18 -15 11 -47 38
-40 156 -117 215 -140 56 -21 63 -43 17 -58 -63 -21 -137 -118 -137 -180 0
-21 -11 -43 -35 -69 -41 -47 -52 -73 -60 -149 -3 -32 -11 -77 -17 -101 -6 -23
-8 -58 -5 -78 5 -28 0 -48 -18 -83 -29 -54 -31 -89 -8 -149 15 -41 15 -45 -5
-86 -30 -60 -29 -121 3 -169 19 -27 23 -42 17 -54 -5 -10 -12 -42 -15 -72 -7
-62 7 -102 55 -153 25 -27 28 -35 19 -55 -23 -50 -9 -123 32 -170 17 -19 18
-26 8 -54 -6 -18 -11 -68 -11 -112 0 -69 -3 -84 -22 -104 -29 -31 -34 -29 -42
15 -3 20 -13 75 -21 122 -17 96 -54 382 -61 480 -3 36 -7 81 -9 100 -3 19 -7
87 -10 150 -7 146 -25 431 -35 580 -5 63 -7 277 -4 475 2 198 4 437 4 530 0
94 6 314 14 490 l13 320 35 80 c52 118 82 232 132 505 25 135 53 283 62 330 8
47 28 141 44 210 53 229 68 377 81 770 6 201 14 368 18 372 3 4 31 -6 61 -23
202 -109 454 -210 641 -258 87 -22 211 -41 270 -41 l39 0 -6 -72 c-4 -56 -1
-95 16 -168 14 -60 25 -151 30 -245 5 -96 14 -167 25 -198 34 -99 38 -162 19
-315 -17 -141 -17 -143 3 -170 27 -37 113 -58 171 -43 55 15 133 76 189 147
68 88 84 131 90 246 3 54 9 97 12 96 4 -2 30 -12 59 -22 44 -17 53 -25 63 -55
19 -59 49 -113 91 -163 32 -39 50 -78 92 -207 57 -174 69 -197 120 -236 38
-29 127 -48 163 -34 30 11 80 90 100 158 11 39 13 73 9 122 -4 38 -4 69 0 69
3 0 32 -15 63 -34 106 -64 193 -95 290 -105 72 -8 102 -7 139 4 63 19 122 70
131 114 6 33 8 34 57 36 95 3 215 98 214 169 -1 27 -11 64 -34 116 -5 12 4 21
33 33 22 10 52 32 67 50 25 30 26 35 21 114 -10 135 -29 156 -202 216 -331
116 -460 195 -635 390 -248 275 -405 381 -720 486 -108 36 -178 66 -232 100
l-78 48 48 -5 c37 -3 59 1 90 17 32 17 47 19 62 11 15 -8 25 -5 53 20 20 17
46 30 61 30 15 0 37 5 49 12 12 6 57 12 99 13 58 1 82 5 96 18 11 10 26 15 34
12 8 -3 30 5 49 18 61 41 51 98 -37 205 -58 71 -89 170 -81 265 5 64 38 253
53 300 8 25 30 22 282 -32 272 -58 321 -66 306 -51 -13 13 -261 76 -437 111
-64 12 -121 26 -127 29 -13 8 69 310 118 435 34 86 43 100 68 108 16 5 43 20
61 33 23 18 39 22 61 18 27 -6 31 -3 42 30 6 20 13 36 15 36 2 0 16 -5 31 -10
44 -17 58 3 49 70 -4 30 -8 82 -9 116 -1 50 -6 65 -29 94 -19 22 -27 40 -23
54 3 12 13 57 22 101 9 46 24 89 36 101 10 12 49 34 86 49 122 51 131 76 45
128 -32 20 -84 47 -115 61 l-58 25 0 62 c0 47 -8 82 -36 151 -20 49 -34 90
-32 91 30 16 43 28 42 41 -2 16 -77 140 -116 188 -18 23 -19 29 -7 44 12 14 5
24 -62 89 -42 40 -79 80 -82 89 -4 9 -30 27 -59 39 -29 13 -84 47 -123 76
-109 82 -124 88 -265 97 -183 11 -189 10 -385 -76 -60 -27 -137 -56 -170 -65
-75 -21 -83 -29 -60 -55 10 -11 16 -21 14 -23 -108 -75 -169 -134 -169 -165 0
-14 -22 -54 -49 -91 -55 -74 -224 -396 -218 -414 2 -7 14 -13 26 -15 18 -3 22
-8 16 -25 -34 -118 -57 -227 -62 -299 -6 -92 2 -118 37 -118 14 0 18 -12 24
-61 3 -33 15 -81 26 -106 17 -40 23 -45 45 -41 21 4 26 1 31 -21 3 -14 10 -42
14 -61 5 -19 11 -60 15 -90 9 -74 32 -171 57 -242 11 -33 18 -62 15 -64 -4 -4
-235 22 -485 56 -40 6 -83 10 -95 9 -59 -2 51 -28 203 -49 232 -30 401 -57
408 -65 4 -4 -2 -11 -13 -18 -11 -6 -32 -23 -47 -37 -51 -51 -18 -88 110 -126
l76 -21 42 -79 42 -79 -8 -80 c-4 -45 -24 -148 -44 -231 -55 -230 -47 -298 37
-326 37 -12 48 -12 63 -1 38 28 40 16 18 -120 -3 -20 -10 -40 -15 -43 -34 -21
-403 280 -640 523 -173 177 -210 229 -349 493 -98 186 -181 328 -239 410 -93
133 -252 261 -398 322 -57 23 -62 32 -38 58 27 30 29 82 6 135 -23 52 -26 80
-11 90 6 4 10 -6 10 -22 0 -30 33 -93 49 -93 5 0 2 18 -6 40 -14 35 -14 50 -4
108 7 37 10 78 7 92 -2 14 -5 35 -5 47 -1 11 -16 39 -35 61 -24 30 -35 54 -39
92 -4 29 -14 66 -24 83 -22 38 -101 80 -184 97 -49 11 -65 21 -125 79 -54 53
-81 71 -126 85 -65 20 -163 19 -240 -4 -42 -12 -50 -12 -90 6 -112 50 -327
-14 -360 -107 -11 -32 -35 -49 -67 -49 -34 0 -114 -31 -149 -57 -42 -32 -69
-75 -77 -126 -6 -30 -21 -54 -67 -101 -93 -94 -109 -128 -92 -193 9 -35 19
-28 32 24 8 30 16 43 23 36 10 -10 -5 -67 -25 -92 -22 -28 -88 -62 -174 -90
-48 -15 -101 -35 -117 -44 -33 -17 -77 -61 -94 -94 -25 -48 -4 -136 40 -166
l22 -16 -31 -29 c-44 -42 -90 -45 -209 -17 -18 4 -23 1 -23 -14 0 -13 15 -25
49 -40 27 -11 57 -21 65 -21 9 0 16 -4 16 -9 0 -19 -77 -35 -158 -34 -86 0
-101 -10 -51 -34 40 -20 140 -43 183 -43 l39 0 -24 -26 c-29 -32 -102 -70
-151 -79 -22 -4 -52 -1 -82 9 -57 20 -56 20 -56 1 0 -15 110 -75 137 -75 6 0
14 -4 17 -9 8 -12 -127 -63 -224 -85 -109 -26 -110 -26 -110 -41 0 -8 11 -17
24 -21 21 -5 -2 -22 -156 -115 -99 -60 -181 -109 -182 -109 -6 0 6 121 19 205
8 50 19 128 25 175 19 156 88 459 150 654 16 50 45 186 64 302 20 116 45 242
57 280 26 85 119 326 149 385 36 72 127 186 183 230 54 44 165 102 178 94 17
-11 72 -122 71 -145 0 -14 -23 -63 -50 -110 -125 -217 -187 -388 -180 -497 7
-127 71 -227 205 -320 82 -58 141 -71 212 -46 33 11 62 29 74 45 12 16 31 80
47 155 34 158 59 213 145 328 80 106 118 184 146 303 28 116 22 206 -21 333
-18 51 -36 122 -40 156 -16 126 -155 290 -314 369 -126 62 -188 72 -314 51
-145 -24 -371 -100 -465 -155 -99 -59 -200 -176 -275 -320 -67 -129 -94 -200
-142 -385 -24 -92 -59 -197 -91 -267 -28 -63 -60 -137 -70 -163 -25 -63 -65
-273 -79 -422 -17 -180 -33 -250 -109 -480 -84 -258 -117 -393 -133 -554 l-12
-125 -86 -85 c-108 -107 -153 -181 -179 -292 -35 -145 -86 -284 -125 -338 -27
-37 -54 -58 -104 -83 -70 -35 -112 -81 -112 -124 0 -18 -11 -29 -42 -45 -176
-89 -273 -206 -297 -357 -5 -32 -16 -76 -25 -97 -36 -86 -12 -205 51 -251 58
-43 204 -102 339 -139 76 -20 142 -40 146 -44 5 -4 -1 -47 -12 -97 -10 -49
-26 -143 -34 -209 -42 -336 -89 -567 -174 -870 -43 -152 -109 -463 -142 -670
-22 -137 -48 -255 -59 -267 -13 -15 -79 42 -111 94 -18 29 -50 72 -71 95 -22
24 -39 52 -39 63 0 37 -29 79 -69 99 -21 11 -41 27 -45 36 -7 20 -66 45 -105
45 -17 0 -47 12 -68 26 -27 18 -46 24 -66 20 -18 -4 -45 2 -72 14 -49 22 -95
26 -112 9 -8 -8 -24 -7 -59 5 -68 23 -104 20 -169 -14 -35 -18 -72 -30 -96
-30 -32 0 -43 -6 -66 -35 -15 -19 -34 -35 -42 -35 -7 0 -29 -16 -48 -36 -24
-26 -49 -40 -90 -51 -31 -8 -87 -30 -125 -49 -38 -19 -94 -40 -125 -47 -70
-16 -83 -34 -61 -81 21 -43 131 -135 214 -178 l62 -32 -18 -46 c-10 -26 -16
-58 -13 -73 4 -21 -1 -35 -21 -56 -19 -20 -28 -41 -30 -73 -2 -28 -13 -58 -27
-78 -19 -24 -24 -45 -24 -89 0 -44 -6 -64 -23 -85 -23 -30 -26 -47 -23 -132 2
-37 -2 -54 -14 -64 -28 -23 -35 -56 -25 -112 9 -47 8 -54 -9 -68 -11 -8 -23
-30 -28 -48 -8 -33 -9 -32 -62 85 -267 584 -457 1269 -516 1858 -3 33 -8 71
-10 85 -6 36 -16 182 -23 350 -7 151 1 665 12 760 3 30 13 120 21 200 16 148
71 499 85 534 5 15 61 39 221 98 328 120 742 259 1079 364 621 192 702 237
557 310 l-51 26 22 18 c47 38 446 156 662 195 156 28 230 46 230 56 0 5 -18 7
-42 3 -289 -41 -487 -84 -702 -154 -189 -62 -229 -100 -156 -147 81 -52 79
-48 40 -72 -19 -11 -267 -97 -550 -191 -421 -139 -852 -294 -1249 -448 l-53
-21 7 37 c14 83 78 328 126 487 236 785 632 1514 1174 2165 153 183 538 573
716 724 570 483 1203 853 1892 1105 410 150 842 256 1277 315 178 24 228 29
445 46 133 10 641 9 785 -1z m-1814 -1115 c32 -19 78 -54 102 -77 43 -42 118
-175 110 -197 -7 -22 -63 36 -98 101 -55 103 -127 163 -183 151 -23 -5 -17
-26 9 -31 32 -5 54 -32 95 -112 27 -55 52 -88 86 -115 75 -62 160 -152 179
-191 42 -91 -3 -296 -100 -448 -35 -55 -32 -33 5 45 26 52 33 80 36 149 5 76
2 97 -26 182 -30 92 -55 127 -67 94 -3 -8 0 -64 6 -126 14 -131 7 -211 -26
-322 -13 -44 -24 -96 -24 -114 0 -20 -17 -66 -41 -112 -35 -68 -42 -90 -49
-172 -7 -86 -32 -169 -51 -169 -29 0 -79 92 -79 148 0 32 53 148 81 178 29 31
102 307 94 356 -6 35 -34 68 -59 68 -5 0 -43 -35 -84 -77 -41 -43 -66 -64 -56
-48 65 108 96 164 104 195 22 77 0 285 -30 285 -11 0 -13 -12 -11 -52 1 -29 0
-53 -3 -53 -3 0 -12 16 -20 34 -11 26 -28 42 -67 62 -71 36 -137 31 -239 -19
-153 -74 -236 -165 -306 -333 -20 -49 -49 -111 -64 -139 -15 -27 -33 -68 -40
-90 -7 -22 -28 -70 -46 -106 -18 -36 -39 -91 -48 -123 -16 -63 -32 -90 -23
-41 2 17 16 85 30 153 24 116 26 152 7 152 -10 0 -77 -156 -101 -235 -11 -33
-19 -80 -19 -105 0 -25 -12 -76 -26 -115 -36 -100 -42 -143 -50 -322 -6 -141
-5 -161 9 -166 30 -11 15 -116 -72 -487 -25 -108 -48 -241 -92 -544 -14 -104
-24 -117 -99 -144 -36 -13 -92 -24 -125 -25 l-60 -2 3 35 c2 19 10 62 17 95 7
33 16 101 20 150 4 50 11 113 16 140 5 28 14 93 19 145 5 52 21 138 34 190 52
197 87 313 101 339 l14 26 0 -35 c1 -46 -20 -121 -53 -192 -30 -62 -90 -350
-80 -380 15 -48 47 7 94 162 18 58 50 143 72 189 53 112 75 225 59 304 -7 32
-14 97 -17 145 -3 63 -9 90 -20 99 -13 10 -15 26 -9 100 3 48 8 95 10 103 2 8
9 53 15 99 8 71 17 96 51 155 79 134 91 151 153 212 76 75 159 219 187 322 11
41 26 87 35 103 28 55 34 79 21 79 -19 0 -94 -118 -116 -180 -28 -85 -75 -160
-132 -215 -29 -27 -49 -43 -46 -35 3 8 19 47 36 87 17 39 43 116 56 170 44
171 53 192 83 199 62 12 94 39 162 134 38 54 99 124 135 158 71 64 177 126
238 137 21 4 42 16 47 26 12 21 39 25 171 27 93 2 97 1 155 -34z m-707 -181
c-41 -43 -94 -111 -118 -151 -39 -64 -75 -102 -87 -90 -7 7 76 140 113 182 42
48 144 135 157 136 5 0 -24 -35 -65 -77z m4671 -263 c47 -7 96 -14 108 -16 13
-3 45 -26 72 -53 26 -26 61 -53 78 -60 16 -7 32 -21 35 -31 3 -11 28 -29 58
-43 70 -31 98 -61 81 -88 -11 -17 -4 -28 55 -96 36 -43 72 -85 80 -94 11 -13
11 -22 -2 -52 -15 -35 -14 -37 40 -143 52 -100 55 -111 55 -179 l0 -72 -82 5
c-48 2 -89 10 -98 18 -8 7 -46 21 -83 31 -50 14 -64 22 -56 30 7 7 9 19 5 29
-6 14 -16 16 -76 10 -66 -6 -69 -5 -72 16 -3 20 -8 23 -49 21 -43 -2 -46 -1
-62 32 -18 39 -46 46 -54 15 -4 -14 -14 -20 -33 -20 -15 0 -47 -7 -71 -15 -39
-14 -45 -14 -55 0 -15 20 -32 19 -73 -6 l-34 -21 -28 21 c-40 30 -59 27 -59
-9 0 -28 -2 -30 -39 -30 -22 0 -43 -5 -46 -10 -4 -6 -24 -19 -45 -30 -30 -15
-58 -19 -127 -19 -114 0 -195 -29 -330 -118 -59 -40 -66 -53 -26 -53 29 0 183
-68 183 -81 0 -4 -4 -11 -10 -14 -15 -9 -12 -43 4 -52 8 -4 15 -17 17 -28 3
-12 14 -21 29 -24 56 -7 54 -60 -6 -131 -76 -91 -109 -180 -68 -180 8 0 14 -9
14 -20 0 -12 10 -24 24 -30 13 -4 26 -20 30 -34 11 -46 68 -98 144 -133 41
-19 93 -49 117 -67 24 -18 54 -36 67 -39 15 -4 33 -25 51 -59 26 -51 27 -59
21 -143 -8 -105 7 -186 68 -395 31 -104 41 -157 44 -230 3 -52 6 -115 8 -140
1 -25 28 -111 60 -193 54 -141 61 -175 30 -163 -10 4 -14 -2 -14 -21 0 -24 -1
-25 -22 -11 -13 9 -27 29 -32 47 -5 17 -16 31 -24 31 -11 0 -13 -9 -7 -46 6
-44 5 -45 -15 -39 -14 5 -25 1 -33 -10 -20 -26 -46 -8 -58 41 -13 51 -39 60
-39 15 0 -35 -15 -48 -35 -31 -8 7 -21 10 -29 7 -23 -9 -25 13 -10 104 22 125
20 240 -4 334 -12 44 -28 125 -37 180 -26 160 -76 297 -140 385 -57 78 -143
252 -168 340 -14 47 -30 126 -37 175 -12 89 -73 308 -92 332 -6 7 -20 10 -33
7 -22 -5 -23 -2 -35 83 -7 53 -19 98 -30 115 -17 23 -18 34 -9 90 12 75 30
134 76 247 28 67 33 89 25 106 -8 17 -5 33 12 71 26 56 157 271 221 361 8 12
53 45 100 73 76 46 84 53 75 71 -9 16 -7 21 12 28 13 4 50 18 83 30 33 12 80
34 103 48 75 43 126 47 302 23z m-3970 -415 c-4 -18 -21 -64 -38 -101 -17 -38
-36 -88 -42 -110 -5 -23 -20 -53 -31 -68 -29 -37 -59 -119 -59 -162 0 -19 9
-54 20 -77 l21 -42 -35 40 c-20 22 -43 54 -52 71 -17 30 -16 35 6 105 13 41
34 95 48 122 14 26 22 50 19 54 -12 11 -46 -28 -72 -81 l-24 -51 -1 36 c0 84
9 99 123 212 112 110 132 119 117 52z m359 -372 c-13 -20 -25 -31 -27 -25 -2
7 7 29 19 49 13 20 25 31 27 25 2 -7 -7 -29 -19 -49z m3747 -17 c18 5 26 1 31
-12 10 -28 19 -31 69 -24 41 6 45 5 50 -17 4 -13 16 -25 28 -28 11 -2 48 -10
81 -16 l60 -13 -52 -14 c-73 -20 -68 -36 9 -27 144 17 285 0 398 -48 l35 -14
-30 -7 c-196 -46 -365 -110 -365 -138 0 -14 26 -7 135 35 50 20 108 38 130 42
l40 6 -54 -30 c-29 -17 -79 -52 -110 -78 -31 -26 -58 -48 -60 -50 -2 -2 13
-41 34 -88 26 -59 49 -95 74 -116 25 -20 30 -29 18 -29 -23 0 -21 -13 7 -55
25 -36 42 -92 32 -102 -3 -3 -17 2 -30 11 -37 24 -46 20 -46 -21 0 -29 -3 -34
-12 -25 -19 19 -35 14 -42 -13 -8 -31 -50 -58 -136 -87 -36 -11 -94 -34 -128
-50 -73 -32 -79 -33 -62 -14 6 8 40 24 76 36 47 16 64 26 64 40 0 10 7 20 15
24 8 3 15 12 15 20 0 8 23 27 51 42 50 27 89 77 69 89 -5 3 -14 -4 -20 -15 -6
-11 -35 -34 -65 -51 -30 -17 -55 -37 -55 -45 0 -8 -7 -17 -16 -21 -8 -3 -19
-16 -24 -27 -5 -14 -23 -27 -47 -34 -65 -20 -102 -49 -143 -114 -77 -123 -78
-124 -98 -78 -8 18 -28 36 -53 47 l-40 17 41 19 c26 13 40 26 40 38 0 27 -17
23 -80 -16 -30 -18 -57 -30 -60 -25 -5 8 -83 40 -96 40 -2 0 -4 -4 -4 -10 0
-5 14 -17 32 -26 29 -15 30 -17 12 -26 -30 -17 -74 -60 -74 -75 0 -21 -35 -15
-58 10 -11 12 -39 60 -61 106 -41 85 -66 121 -84 121 -16 0 -77 67 -77 84 0 9
-19 25 -42 37 -69 34 -73 40 -46 60 29 22 19 34 -11 13 -34 -24 -25 -64 20
-88 33 -18 51 -40 87 -103 7 -13 24 -26 38 -29 24 -6 69 -53 59 -62 -3 -3 -23
9 -45 27 -22 17 -70 45 -107 62 -92 41 -143 91 -143 140 0 29 -5 39 -20 44
-21 7 -24 18 -10 50 5 13 3 26 -8 37 -13 16 -12 21 14 54 80 101 81 103 63
167 -8 30 -15 37 -34 37 -21 0 -25 5 -25 29 0 17 -6 31 -16 35 -15 6 -11 26 5
26 5 0 37 -21 71 -46 34 -25 64 -43 66 -41 10 10 -10 37 -52 66 -24 18 -44 34
-44 36 0 2 14 -1 31 -7 50 -17 44 -2 -10 23 -28 12 -49 24 -47 27 3 2 42 -6
87 -17 90 -23 109 -25 109 -13 0 20 -147 57 -289 72 -52 6 -97 12 -99 15 -6 6
98 63 158 86 47 18 76 21 208 21 112 -1 152 2 149 11 -2 6 -14 14 -27 17 -24
6 -23 6 11 28 20 12 48 20 64 19 25 -2 33 5 52 41 1 2 15 -6 32 -19 l30 -22
35 26 c29 23 35 24 40 11 7 -19 38 -16 109 12 46 18 49 18 61 1 18 -24 36 -21
36 6 0 20 2 19 26 -11 20 -25 30 -31 50 -26z m-5100 -326 l-26 -75 6 62 c3 35
13 86 22 115 l17 53 3 -40 c2 -25 -7 -70 -22 -115z m5554 -115 c-7 -9 -15 -13
-18 -10 -3 2 1 11 8 20 7 9 15 13 18 10 3 -2 -1 -11 -8 -20z m50 -47 c-7 -29
-15 -57 -18 -62 -7 -12 -32 23 -32 45 0 19 49 83 57 75 3 -3 0 -29 -7 -58z
m-2864 -63 c-9 -20 -20 -34 -26 -30 -16 10 -12 37 12 75 20 31 23 33 26 14 2
-12 -4 -38 -12 -59z m-1785 -1 c-12 -19 -21 -44 -21 -54 0 -19 -45 -80 -59
-80 -4 0 -13 11 -19 25 -10 21 -9 32 2 53 15 29 49 63 81 80 34 19 38 13 16
-24z m1398 -133 c17 -5 27 -18 36 -49 25 -84 62 -99 61 -24 l-1 47 44 3 c24 2
47 0 52 -5 4 -4 -4 -40 -18 -80 -24 -69 -26 -103 -4 -103 5 0 24 26 41 58 53
97 62 106 119 98 127 -17 254 -80 353 -174 100 -95 161 -187 254 -381 41 -84
90 -180 109 -213 19 -32 35 -61 35 -64 0 -2 -35 22 -77 55 -145 109 -340 219
-463 259 -130 43 -362 82 -483 82 -111 0 -175 -20 -237 -75 -27 -24 -71 -56
-97 -71 -86 -48 -120 -74 -147 -112 -14 -20 -26 -33 -26 -28 0 21 170 318 241
423 16 23 29 49 29 57 0 29 -41 17 -75 -21 -71 -81 -198 -250 -222 -296 -13
-27 -26 -47 -28 -45 -7 6 51 203 80 276 14 34 25 71 25 81 0 12 22 31 67 57
62 37 123 100 123 130 0 25 21 25 51 0 36 -31 65 -35 54 -8 -23 53 -17 118 13
125 25 7 63 6 91 -2z m-389 -121 c0 -17 -7 -44 -15 -59 -19 -38 -115 -118
-115 -97 0 8 -9 24 -21 35 l-21 19 25 39 c35 55 83 93 118 93 26 0 29 -3 29
-30z m-312 -73 c23 -99 15 -135 -40 -194 -32 -33 -30 -53 3 -53 29 0 90 28
116 52 13 12 25 20 27 17 2 -2 -5 -38 -15 -79 -27 -111 -24 -179 12 -301 26
-86 32 -123 34 -214 2 -140 20 -205 100 -375 36 -74 81 -182 100 -239 20 -57
57 -145 82 -195 67 -135 203 -335 266 -393 60 -54 192 -125 272 -145 28 -7 51
-13 53 -14 1 -1 -22 -48 -52 -105 -102 -195 -182 -429 -147 -429 7 0 22 24 34
53 30 73 112 238 130 262 13 17 13 10 0 -65 -18 -106 -15 -422 5 -442 9 -10
12 11 12 103 0 163 34 413 75 555 13 45 28 63 142 169 139 128 262 220 275
207 5 -5 10 -85 10 -178 2 -191 -6 -309 -37 -584 -5 -42 -48 -358 -76 -560
-19 -137 -103 -565 -135 -695 -33 -130 -159 -528 -209 -660 -362 -946 -490
-1365 -591 -1935 -39 -219 -41 -511 -3 -473 6 6 15 67 20 135 10 127 49 338
100 538 44 171 216 742 254 845 18 50 63 171 100 270 37 99 93 252 125 340 78
216 85 232 94 209 4 -9 4 -36 2 -58 -3 -23 -8 -117 -11 -211 -4 -93 -8 -183
-10 -200 -2 -16 -6 -95 -10 -175 -4 -80 -8 -151 -11 -159 -2 -7 -4 -189 -4
-405 0 -588 19 -868 86 -1276 32 -197 98 -558 124 -675 11 -49 29 -130 39
-180 48 -219 115 -482 161 -625 27 -85 58 -186 69 -225 12 -38 32 -107 45
-152 l24 -82 -26 -5 c-49 -10 -285 -35 -402 -43 -147 -10 -739 -10 -890 0
-486 32 -1036 143 -1522 307 -608 205 -1172 498 -1690 879 l-116 86 -5 55
c-10 105 2 937 17 1250 24 488 51 736 112 1040 39 194 123 543 148 618 33 96
140 336 213 477 125 241 296 592 333 686 48 118 106 315 125 423 24 140 45
267 60 376 9 62 26 129 41 163 28 64 42 127 27 127 -15 0 -48 -41 -79 -98 -35
-67 -134 -175 -174 -192 -23 -10 -37 -10 -55 -2 -26 12 -40 53 -90 252 -15 58
-36 126 -47 153 l-21 47 77 80 c66 69 85 98 142 215 36 75 63 141 61 148 -4
13 -26 -22 -104 -161 -28 -49 -79 -117 -123 -164 l-75 -81 -80 85 c-105 112
-136 165 -201 353 -46 134 -56 173 -65 276 -12 132 -10 138 44 160 155 61 413
173 462 199 174 95 295 196 375 315 52 76 131 156 225 226 74 55 406 266 440
279 13 5 42 21 64 35 22 14 49 25 58 25 10 0 42 11 72 25 30 14 56 23 58 21
10 -10 -186 -201 -265 -259 -45 -33 -81 -65 -79 -71 6 -20 54 -18 96 4 125 63
262 171 325 255 12 15 15 16 16 5 0 -32 -84 -145 -122 -163 -21 -10 -38 -25
-38 -32 0 -19 32 -35 71 -35 32 0 38 5 146 129 28 33 31 34 60 21 30 -14 30
-14 16 -49 -8 -19 -23 -66 -33 -105 -19 -73 -49 -145 -283 -682 -255 -584
-302 -771 -295 -1177 3 -183 5 -217 21 -240 9 -15 21 -27 25 -27 4 0 6 64 5
143 -2 213 34 460 103 700 32 112 76 226 232 607 102 250 189 482 220 588 22
74 44 124 80 180 27 42 57 91 66 107 l15 30 1 -26 c0 -14 -39 -178 -86 -365
-138 -549 -137 -543 -140 -974 -3 -370 3 -466 32 -521 24 -47 33 -23 24 61
-10 100 -4 516 10 660 16 170 36 279 95 535 72 309 86 379 99 513 l11 113 60
32 c70 37 97 77 115 171 6 33 16 71 21 84 14 34 36 27 44 -15 4 -21 16 -54 27
-74 39 -70 2 -143 -71 -141 -35 1 -40 -12 -12 -28 45 -24 142 -5 192 37 46 39
61 84 65 199 4 103 21 173 51 206 26 29 38 21 51 -35z m3712 -131 c0 -3 -23
-62 -50 -131 -47 -117 -120 -370 -120 -415 0 -11 -13 -48 -29 -82 -35 -76 -50
-179 -45 -303 6 -128 23 -170 94 -239 54 -51 65 -69 58 -93 -1 -5 -8 -7 -15
-5 -7 2 -13 -4 -13 -13 0 -26 -29 -17 -45 15 -17 33 -34 39 -36 13 -1 -10 -2
-22 -4 -28 -1 -5 -3 -17 -3 -25 -2 -11 -5 -11 -14 -2 -18 18 -28 15 -28 -8 0
-11 -6 -20 -14 -20 -16 0 -46 26 -46 41 0 19 -27 8 -38 -15 -8 -17 -17 -23
-30 -19 -11 2 -23 0 -26 -6 -22 -34 -49 33 -34 84 18 64 10 187 -18 275 -38
118 -35 174 11 249 30 48 38 73 48 151 9 77 15 94 32 102 29 13 85 134 85 183
0 121 43 181 179 250 84 43 101 50 101 41z m-3506 -101 c-52 -135 -54 -138
-48 -70 10 114 13 125 47 145 17 11 32 18 34 17 1 -2 -14 -43 -33 -92z m-672
8 c11 -48 -29 -111 -84 -134 -25 -10 -31 -10 -39 2 -5 8 -9 18 -9 23 0 9 111
124 122 125 3 1 8 -7 10 -16z m-233 -177 c-19 -41 -57 -82 -66 -72 -4 4 47 97
66 119 24 29 24 4 0 -47z m1691 23 c211 -37 348 -95 575 -243 61 -40 146 -106
190 -148 44 -41 101 -88 126 -104 25 -16 121 -107 213 -201 189 -194 232 -231
448 -384 407 -289 489 -338 683 -407 145 -52 326 -143 461 -233 118 -80 287
-241 378 -362 28 -38 78 -89 111 -114 86 -65 277 -155 443 -209 78 -25 153
-54 165 -64 21 -18 21 -20 5 -36 -31 -32 -159 -19 -378 37 -63 16 -129 29
-147 29 -20 0 -67 18 -118 45 -46 24 -109 51 -139 60 -35 10 -56 22 -58 33 -3
14 -8 13 -31 -10 -34 -34 -35 -50 -3 -42 29 7 202 -78 337 -167 112 -74 167
-102 255 -130 119 -38 163 -67 179 -117 10 -33 -48 -56 -124 -47 -89 10 -484
141 -536 178 -129 93 -250 192 -247 204 4 19 -12 16 -39 -7 l-24 -19 23 -1
c16 0 43 -20 80 -61 89 -96 378 -318 535 -410 31 -18 57 -37 57 -41 0 -16 -81
-30 -151 -27 -92 5 -184 46 -311 140 -48 35 -108 76 -133 91 -25 15 -53 42
-63 59 -9 17 -34 60 -55 96 -21 35 -36 71 -33 79 7 18 -4 18 -32 -2 -25 -17
-29 -34 -7 -34 39 0 108 -177 121 -311 4 -41 13 -92 21 -114 21 -59 27 -165
11 -195 -21 -39 -71 -39 -106 -2 -26 28 -71 146 -103 272 -15 61 -41 110 -87
163 -52 59 -69 103 -53 129 7 11 10 22 8 24 -2 3 -33 12 -68 22 -54 15 -229
113 -229 129 0 2 11 19 25 37 49 64 100 211 90 261 -2 11 -4 36 -4 55 -1 54
-19 24 -35 -62 -19 -101 -63 -188 -137 -276 -58 -68 -67 -96 -31 -90 22 4 35
-67 36 -197 1 -115 -16 -161 -81 -214 -42 -35 -80 -46 -124 -36 l-31 7 6 57
c3 31 9 79 14 106 9 58 -5 140 -45 259 -24 74 -25 87 -19 197 6 101 4 129 -14
206 -33 135 -37 244 -11 320 12 34 21 65 21 68 0 12 -28 4 -44 -14 -13 -14
-33 -19 -85 -20 -175 -4 -452 98 -829 305 -121 66 -279 120 -397 134 -100 12
-268 58 -360 100 -79 35 -172 93 -325 200 -125 88 -195 127 -300 171 -60 24
-123 77 -147 124 -26 48 -44 144 -42 219 1 39 4 74 6 79 3 4 24 -14 48 -40 24
-27 46 -45 49 -42 4 4 -14 45 -39 93 -50 96 -53 113 -26 171 40 89 146 155
249 155 60 0 132 12 132 21 0 5 -31 9 -70 9 -81 0 -91 14 -37 53 94 71 168 77
407 36z m2115 10 c4 -12 2 -26 -4 -32 -8 -8 -11 -7 -11 5 0 9 -3 23 -6 32 -3
9 -1 16 4 16 6 0 14 -9 17 -21z m284 -35 c-12 -14 -14 -14 -26 2 -18 25 -16
33 10 43 18 7 23 5 25 -11 2 -10 -2 -26 -9 -34z m-804 -25 l28 -52 -39 7 c-44
9 -94 33 -94 45 0 11 51 50 66 51 6 0 23 -23 39 -51z m680 30 c56 1 69 -9 61
-51 l-6 -34 -80 1 c-44 1 -82 3 -84 6 -4 4 -9 75 -7 90 1 4 18 2 39 -3 20 -6
55 -10 77 -9z m-140 -59 c3 -5 1 -10 -4 -10 -6 0 -11 5 -11 10 0 6 2 10 4 10
3 0 8 -4 11 -10z m232 -22 c-3 -8 -6 -5 -6 6 -1 11 2 17 5 13 3 -3 4 -12 1
-19z m-160 -85 c32 -3 67 2 106 15 l57 19 -13 -21 c-8 -12 -31 -24 -53 -29
-35 -7 -57 -7 -144 -3 -16 1 -32 13 -47 35 -34 50 -28 60 11 22 27 -26 46 -35
83 -38z m63 47 c3 0 -3 -5 -13 -11 -19 -11 -77 -3 -77 11 0 6 50 7 90 0z m60
1 c0 -5 -11 -11 -25 -13 -20 -4 -23 -3 -14 8 13 16 39 19 39 5z m-206 -91 c22
-8 26 -16 25 -47 0 -21 -4 -56 -8 -78 l-7 -40 -22 71 c-21 68 -27 104 -18 104
3 0 16 -4 30 -10z m133 -68 c-7 -57 -36 -134 -47 -127 -5 3 -7 15 -5 28 2 12
6 46 10 76 7 64 11 71 32 71 13 0 15 -9 10 -48z m-3030 -164 c-2 -24 -4 -5 -4
42 0 47 2 66 4 43 2 -24 2 -62 0 -85z m-2539 22 c0 -35 6 -48 48 -93 27 -28
53 -56 59 -60 10 -8 143 -1 178 9 64 19 -48 -92 -186 -183 -92 -60 -303 -160
-315 -149 -2 3 5 17 16 33 32 46 70 166 82 260 15 114 26 147 62 189 41 46 57
44 56 -6z m5133 -180 c30 -139 35 -193 16 -208 -12 -10 -15 -7 -20 18 -9 43
-24 37 -34 -12 -7 -35 -13 -42 -29 -40 -48 9 -48 45 -5 222 17 68 31 134 32
145 0 20 0 20 8 0 5 -11 19 -67 32 -125z m388 -213 c0 -16 -3 -26 -8 -23 -13
8 -23 70 -14 92 6 16 8 14 14 -11 4 -16 7 -43 8 -58z m-6038 -399 c1 -64 14
-126 56 -258 54 -176 104 -283 170 -371 l50 -66 -46 3 c-79 5 -373 70 -433 96
-126 53 -187 119 -166 179 5 16 27 48 49 73 44 50 48 61 19 53 -11 -3 -20 -3
-20 -1 0 2 19 39 43 81 50 93 112 156 193 200 70 39 84 40 85 11z m319 -795
c0 -16 -7 -57 -15 -93 -9 -36 -20 -104 -25 -152 -6 -48 -21 -115 -34 -150 -13
-35 -31 -107 -41 -161 -18 -101 -44 -152 -31 -61 3 27 9 81 11 119 11 149 16
185 52 353 35 162 38 172 60 172 18 0 23 -5 23 -27z m90 -39 c7 -20 29 -107
50 -193 33 -137 37 -159 25 -181 -7 -14 -20 -51 -28 -82 -8 -31 -26 -72 -41
-90 -69 -91 -200 -443 -267 -715 -17 -71 -52 -189 -77 -263 l-47 -135 3 -179
c1 -98 7 -186 12 -195 16 -29 31 37 36 154 2 61 11 133 19 160 17 59 89 222
81 185 -2 -14 -19 -90 -36 -170 -24 -115 -31 -169 -31 -261 0 -108 -3 -122
-30 -179 -16 -34 -41 -76 -55 -93 -14 -16 -34 -48 -46 -70 -11 -23 -38 -64
-58 -92 -21 -27 -48 -70 -60 -95 -12 -25 -41 -65 -65 -90 -24 -25 -73 -85
-109 -134 -52 -70 -66 -84 -66 -64 0 41 28 125 110 323 81 196 110 290 130
410 13 82 119 502 219 867 79 289 91 347 91 429 0 42 6 68 26 103 14 26 36 84
49 129 12 45 39 114 58 152 28 56 38 92 50 180 8 61 12 141 11 178 -4 64 -3
67 15 57 11 -5 25 -26 31 -46z m217 -514 c31 0 35 -2 30 -22 -2 -13 -23 -113
-46 -223 -43 -213 -43 -214 -119 -432 -47 -136 -112 -265 -160 -321 l-23 -27
13 30 c8 17 39 82 70 145 46 94 62 140 87 257 31 142 79 485 80 577 1 21 5 27
17 22 9 -3 32 -6 51 -6z m-256 -317 c-27 -120 -55 -249 -61 -286 -10 -67 -56
-207 -80 -243 -11 -18 -11 -18 -5 1 4 11 17 70 30 130 12 61 34 157 48 215 14
58 33 141 41 186 14 75 65 228 74 219 2 -2 -19 -102 -47 -222z m-1493 -835
c30 -18 39 -20 65 -10 25 9 36 8 70 -9 29 -15 49 -19 75 -14 30 6 39 2 68 -26
29 -28 38 -31 71 -26 40 6 58 -1 109 -41 25 -20 29 -31 28 -69 -1 -25 -7 -48
-14 -53 -10 -6 -6 -16 14 -42 26 -34 26 -36 10 -74 -9 -21 -23 -43 -31 -49
-12 -9 -13 -16 -4 -33 15 -29 14 -59 -4 -66 -8 -3 -15 -14 -15 -25 0 -37 -22
-69 -59 -84 -33 -14 -34 -16 -13 -22 22 -7 31 -25 12 -25 -5 0 -10 -7 -10 -15
0 -11 12 -15 45 -15 36 0 45 -4 46 -17 2 -54 28 -93 61 -93 11 0 23 -11 29
-27 15 -40 39 -63 66 -63 29 0 29 -3 -3 -86 -107 -281 -158 -469 -174 -639
-19 -209 -50 -374 -81 -435 -48 -97 -99 -232 -129 -345 -40 -150 -135 -430
-146 -430 -24 0 -321 381 -476 611 -99 147 -251 397 -289 476 -21 44 -21 48
-6 72 22 33 21 54 -3 107 -27 61 -25 97 6 130 24 25 25 31 15 60 -19 56 -14
107 14 133 24 23 25 28 19 90 -7 66 -7 66 29 99 35 33 35 34 25 85 -12 60 0
102 38 127 15 9 24 25 24 41 0 14 6 37 14 53 16 30 90 101 106 101 6 0 10 8
10 19 0 23 -31 32 -72 21 -30 -9 -30 -9 -24 22 9 47 33 78 71 94 l34 14 -14
47 c-19 61 -19 68 2 89 13 13 18 38 20 107 2 91 16 127 49 127 7 0 30 16 49
36 38 38 48 39 112 13 39 -16 53 -6 29 20 -45 50 63 82 132 39z m707 -724
c-19 -53 -35 -99 -35 -103 0 -3 -9 8 -20 26 -10 18 -32 39 -48 47 -16 8 -32
26 -34 38 -3 13 -9 32 -13 42 -8 19 -8 19 15 3 37 -26 75 -21 112 13 56 51 61
38 23 -66z m370 -149 c-42 -173 -74 -255 -135 -345 -32 -46 -54 -95 -61 -135
-8 -50 -93 -253 -163 -393 -61 -122 -92 -204 -131 -347 -30 -113 -93 -275
-106 -275 -4 0 -5 39 -2 88 4 72 15 114 63 247 103 284 169 513 155 536 -13
20 -34 -13 -67 -104 -18 -51 -34 -84 -36 -74 -5 23 40 234 76 357 19 69 33 97
47 104 11 5 40 36 65 68 25 33 87 104 138 157 76 78 102 115 145 198 28 56 53
101 54 100 1 -2 -18 -83 -42 -182z m4956 -115 c9 0 33 -12 54 -26 l38 -25 59
26 c62 28 98 28 154 3 18 -9 22 -16 18 -35 -6 -24 -6 -24 59 -17 63 6 68 5
122 -29 46 -29 62 -34 81 -27 35 14 48 5 78 -51 19 -34 38 -54 62 -64 19 -8
34 -18 34 -24 0 -27 -25 -69 -65 -106 -35 -32 -45 -48 -45 -74 0 -17 -7 -43
-16 -56 -10 -16 -14 -41 -12 -77 3 -49 1 -53 -19 -53 -38 0 -30 -18 15 -33 29
-9 44 -21 48 -37 3 -12 16 -32 29 -44 19 -16 24 -30 23 -65 -1 -58 6 -66 53
-66 22 0 53 -7 69 -15 26 -13 30 -21 30 -55 0 -49 27 -71 76 -63 55 9 66 -8
58 -92 -8 -84 4 -100 40 -58 l25 28 46 -24 c56 -30 71 -51 79 -111 7 -52 34
-80 77 -80 16 0 38 -9 49 -20 23 -23 54 -84 64 -123 9 -38 47 -54 90 -39 46
17 79 2 110 -47 31 -48 50 -55 110 -40 26 6 61 9 78 5 36 -7 140 -57 176 -85
21 -15 22 -20 11 -44 -9 -20 -25 -30 -68 -43 -72 -20 -140 -89 -195 -194 -44
-85 -49 -90 -92 -90 -50 0 -114 -41 -164 -106 l-47 -59 -89 -5 c-70 -5 -100
-12 -140 -33 -58 -29 -139 -115 -154 -163 l-11 -32 -97 -4 c-103 -4 -173 -27
-220 -70 -25 -24 -14 -25 -157 18 -27 8 -93 18 -146 21 -112 7 -157 -5 -244
-62 l-55 -37 -52 22 c-40 17 -70 22 -138 21 -102 0 -165 -19 -233 -68 l-48
-36 -37 17 c-20 9 -57 20 -82 24 -52 9 -70 33 -70 100 0 35 6 49 34 76 l33 34
-14 57 c-17 66 -6 141 27 182 26 34 25 40 -10 70 -35 29 -40 78 -15 127 23 44
19 54 -36 88 -59 36 -79 73 -79 145 0 73 10 82 58 55 22 -12 42 -22 46 -22 17
0 1 29 -44 76 -60 63 -68 109 -25 146 32 28 31 43 -5 97 -17 24 -30 53 -30 63
0 29 26 73 55 92 25 16 25 17 9 54 -20 48 -11 91 26 127 36 34 36 39 10 88
l-21 38 25 54 c13 30 45 76 70 102 51 53 55 63 26 63 -17 0 -19 3 -11 19 16
28 104 90 140 97 25 5 31 11 31 33 0 15 -5 32 -11 38 -9 9 -6 20 10 46 25 40
27 70 6 87 -19 16 -19 59 0 84 21 28 18 49 -10 74 -28 25 -32 52 -10 85 12 19
21 46 24 79 1 3 17 16 36 28 29 18 44 21 81 15 36 -5 49 -3 71 15 17 13 35 19
48 16 11 -3 27 -6 36 -6z m-5065 -381 c-9 -46 -25 -156 -36 -244 -35 -274 -32
-264 -98 -362 -100 -149 -179 -329 -197 -448 -4 -27 -15 -66 -25 -85 -29 -58
-107 -269 -125 -339 -9 -35 -13 -71 -10 -80 4 -10 31 46 74 154 37 94 82 199
99 235 18 36 32 74 32 85 0 50 36 147 107 293 61 124 78 151 81 130 2 -15 -4
-41 -14 -59 -9 -18 -48 -130 -86 -248 -38 -119 -95 -268 -125 -331 -53 -112
-104 -256 -159 -450 -14 -52 -28 -97 -30 -99 -1 -2 -23 14 -48 34 -44 35 -46
39 -40 76 5 31 3 39 -9 39 -8 0 -18 -8 -21 -17 -6 -15 -9 -14 -29 5 -18 19
-20 25 -9 40 38 54 75 125 94 182 20 59 22 86 22 292 1 149 5 231 12 238 8 8
9 -5 6 -45 -3 -40 0 -61 12 -81 14 -21 20 -23 32 -13 41 34 115 220 165 413
31 122 43 155 68 180 16 17 41 60 55 96 15 36 49 104 76 151 57 99 74 143 90
231 11 61 37 125 46 115 3 -3 -2 -42 -10 -88z m8953 -727 l-44 -70 -70 5 c-38
3 -72 7 -73 9 -2 1 2 15 10 30 10 22 27 32 83 49 39 12 84 29 100 37 17 9 32
15 34 13 2 -2 -16 -35 -40 -73z m-9569 -687 c-14 -108 -84 -255 -109 -230 -19
19 25 255 69 372 22 59 41 109 42 112 8 23 7 -190 -2 -254z m486 83 c-4 -62
-11 -153 -16 -203 -5 -49 -12 -205 -15 -345 -4 -140 -10 -260 -14 -267 -5 -10
-37 13 -109 77 -92 82 -102 93 -96 118 55 248 105 405 179 562 29 63 57 127
60 143 14 53 17 25 11 -85z"/>
<path d="M10844 7852 c-32 -20 -109 -222 -160 -417 l-29 -110 -2 145 c-3 169
-7 190 -32 190 -28 0 -39 -61 -56 -298 -8 -114 -15 -211 -15 -216 0 -25 -14
16 -70 200 -85 278 -98 314 -121 314 -11 0 -19 -4 -19 -8 0 -4 16 -55 35 -112
25 -74 32 -107 24 -116 -7 -8 -5 -30 5 -71 17 -68 40 -232 33 -239 -2 -3 -22
6 -42 21 -49 33 -81 33 -92 -1 -8 -23 -14 -25 -88 -30 -44 -3 -104 -6 -132 -7
-55 0 -63 -6 -38 -27 11 -9 33 -11 83 -5 37 4 99 8 137 9 65 1 70 3 73 24 5
31 22 28 73 -13 73 -58 78 -52 63 62 -8 53 -12 98 -11 100 2 1 21 -55 41 -125
21 -70 42 -131 46 -135 13 -14 40 95 41 167 1 39 5 100 9 136 6 50 7 29 7 -87
-1 -107 2 -156 11 -165 20 -20 31 2 48 88 31 164 68 314 111 447 24 77 46 137
49 134 6 -6 -31 -249 -67 -432 -38 -198 -46 -277 -27 -292 20 -17 32 -5 53 52
22 59 35 77 35 48 0 -39 11 -53 42 -53 16 0 43 -7 60 -16 21 -11 69 -18 147
-21 100 -5 118 -3 130 11 7 9 10 16 5 17 -5 1 -58 3 -118 5 -91 3 -118 7 -155
27 -45 23 -46 24 -49 76 -2 29 4 76 12 106 22 75 21 105 -4 105 -16 0 -30 -19
-61 -82 -44 -92 -44 -89 -14 82 44 243 74 482 65 501 -12 20 -19 23 -36 11z"/>
<path d="M1419 5668 c-79 -95 -146 -176 -148 -181 -2 -5 9 -7 25 -5 27 3 90
66 236 238 l46 55 7 -30 c20 -87 28 -107 49 -132 21 -24 27 -26 48 -16 14 6
39 36 57 67 17 31 35 56 39 56 5 0 33 -18 63 -41 66 -50 102 -69 128 -69 11 0
43 20 71 45 28 25 60 45 72 45 12 0 44 -17 72 -38 103 -78 134 -77 44 0 -105
90 -152 96 -228 33 -23 -19 -47 -35 -53 -35 -5 0 -33 17 -61 38 -104 79 -141
83 -185 21 -17 -22 -32 -46 -35 -52 -8 -22 -23 12 -30 68 -9 79 -21 105 -49
105 -18 0 -56 -39 -168 -172z"/>
<path d="M9447 4533 c-4 -8 1 -49 38 -308 9 -66 19 -145 22 -175 l5 -55 -33
55 c-24 38 -42 56 -58 58 -19 3 -23 0 -17 -14 15 -39 26 -107 21 -125 -8 -26
-34 -24 -86 6 -26 15 -60 25 -83 25 -33 0 -44 -6 -79 -45 -22 -25 -47 -45 -54
-45 -24 0 -11 -45 13 -48 16 -2 34 11 64 47 24 28 51 53 61 56 10 3 42 -7 75
-25 93 -49 143 -33 131 43 -4 27 -3 28 10 12 7 -11 13 -29 13 -41 0 -24 44
-59 61 -48 11 7 10 32 -10 184 -16 118 -12 121 25 25 58 -152 95 -233 115
-251 30 -27 47 -11 54 53 14 135 41 242 73 291 19 30 27 18 42 -64 16 -85 42
-126 78 -122 22 2 32 14 53 57 l27 54 17 -34 c46 -91 95 -103 178 -41 49 35
55 37 127 37 41 -1 116 -4 165 -8 69 -6 84 -5 65 4 -68 29 -301 52 -345 33
-11 -5 -42 -22 -68 -38 -58 -34 -64 -31 -99 59 -22 54 -27 60 -53 60 -25 0
-30 -6 -50 -60 -23 -62 -37 -75 -43 -40 -10 63 -35 142 -49 158 -25 27 -63 18
-90 -22 -29 -43 -51 -114 -65 -213 -6 -43 -14 -78 -18 -78 -13 0 -97 233 -145
400 -26 91 -51 171 -57 178 -12 14 -25 16 -31 5z"/>
<path d="M10290 2699 c0 -33 6 -47 33 -74 43 -43 105 -62 156 -49 34 9 41 8
65 -12 32 -28 96 -47 130 -38 15 3 47 -3 81 -15 65 -25 103 -26 150 -7 40 17
56 43 44 74 -10 25 -23 27 -61 8 -67 -35 -96 -39 -141 -18 -53 26 -63 27 -110
17 -36 -7 -41 -5 -78 31 -38 37 -40 38 -72 25 -63 -26 -100 -25 -135 4 -24 20
-32 35 -32 61 0 24 -5 34 -15 34 -11 0 -15 -11 -15 -41z"/>
<path d="M9987 2278 c-72 -15 -136 -58 -162 -109 -11 -21 -20 -25 -43 -21 -33
4 -68 -27 -106 -94 -17 -31 -28 -39 -51 -40 -68 -2 -105 -16 -153 -59 -51 -46
-97 -131 -86 -159 10 -25 20 -19 39 24 38 84 130 144 217 143 l57 -1 31 54
c35 63 67 88 103 79 21 -6 28 -2 41 23 36 70 127 112 242 112 60 0 86 12 68
30 -14 14 -156 26 -197 18z"/>
<path d="M4505 11124 c-49 -26 -113 -67 -141 -93 -28 -25 -74 -65 -102 -89
-51 -43 -81 -87 -107 -163 -22 -61 0 -55 46 13 53 80 83 113 139 151 25 17 70
51 99 75 30 24 81 57 113 73 l58 29 68 -28 c80 -34 123 -44 142 -32 11 7 8 11
-13 19 -16 6 -31 11 -33 11 -3 0 -36 18 -74 40 -38 22 -77 40 -87 40 -10 0
-58 -21 -108 -46z"/>
<path d="M3597 9023 c-20 -43 -50 -128 -67 -190 -17 -62 -40 -132 -51 -157
-33 -76 -64 -356 -39 -356 11 0 23 43 45 165 10 56 36 135 67 210 39 92 55
145 69 235 10 63 21 127 25 143 12 52 -13 26 -49 -50z"/>
<path d="M8232 9684 c-21 -81 -24 -107 -13 -100 19 12 46 115 34 127 -9 9 -14
1 -21 -27z"/>
<path d="M8831 9631 c-21 -33 -44 -73 -51 -90 -16 -39 -27 -39 -35 -1 -12 53
-27 47 -24 -9 4 -56 -2 -63 -25 -29 -9 12 -19 19 -22 15 -11 -11 46 -77 66
-77 22 0 33 14 106 138 50 86 58 112 33 112 -5 0 -27 -27 -48 -59z"/>
<path d="M8898 9561 c-62 -64 -90 -112 -73 -129 4 -4 21 11 38 33 17 22 55 64
84 94 49 50 58 71 30 71 -6 0 -42 -31 -79 -69z"/>
<path d="M8500 9571 c0 -5 28 -40 63 -78 34 -37 72 -81 84 -98 27 -38 40 -27
18 16 -30 57 -165 189 -165 160z"/>
<path d="M9214 9459 c-3 -6 -22 -17 -40 -25 -21 -9 -34 -21 -34 -33 0 -36 -26
-45 -126 -42 l-94 2 -80 -81 c-44 -44 -80 -83 -80 -87 0 -3 14 -3 30 1 29 5
30 4 30 -29 0 -19 5 -35 10 -35 27 0 169 63 187 83 28 30 45 65 38 77 -3 5
-27 16 -53 24 l-47 15 70 0 c77 1 132 23 151 59 6 12 23 31 37 42 27 22 35 40
18 40 -6 0 -13 -5 -17 -11z m-194 -190 c0 -5 -4 -9 -10 -9 -5 0 -10 7 -10 16
0 8 5 12 10 9 6 -3 10 -10 10 -16z m-46 -13 c9 -13 7 -20 -9 -32 -11 -8 -26
-13 -35 -12 -22 5 -25 40 -4 55 22 16 34 13 48 -11z m-73 -52 c10 -13 10 -17
-2 -25 -23 -14 -39 -10 -39 9 0 34 20 42 41 16z"/>
<path d="M8230 9437 c0 -8 5 -19 10 -22 6 -3 10 -16 10 -28 1 -27 64 -77 97
-77 12 0 23 -6 23 -13 0 -24 89 -115 119 -122 35 -7 151 13 151 27 0 5 -15 28
-34 51 -18 23 -39 52 -45 65 -18 35 -50 42 -129 30 -88 -14 -157 1 -149 32 3
12 -6 29 -24 46 -22 21 -29 24 -29 11z m280 -162 c10 -12 10 -18 0 -30 -16
-19 -39 -19 -46 0 -6 15 11 45 26 45 4 0 13 -7 20 -15z"/>
<path d="M8750 9125 c-32 -33 -33 -35 -11 -35 21 0 71 43 71 61 0 19 -28 7
-60 -26z"/>
<path d="M8600 9131 c0 -14 47 -41 72 -41 19 1 17 4 -17 25 -43 27 -55 30 -55
16z"/>
<path d="M8777 9055 c-39 -27 -48 -45 -21 -45 25 0 84 40 84 56 0 21 -21 17
-63 -11z"/>
<path d="M8613 9035 c24 -21 77 -35 77 -20 0 7 -78 45 -92 45 -7 0 0 -12 15
-25z"/>
<path d="M5056 7968 c-35 -173 -31 -435 10 -703 22 -142 77 -374 120 -507 91
-282 299 -702 474 -958 40 -58 106 -127 115 -119 2 3 -26 55 -63 115 -130 207
-274 504 -367 754 -152 409 -249 897 -254 1273 -1 76 -4 144 -8 152 -8 22 -22
18 -27 -7z"/>
<path d="M6100 8080 c0 -16 102 -114 185 -176 150 -114 389 -242 554 -297 93
-32 127 -23 40 10 -221 82 -525 267 -729 442 -37 32 -50 37 -50 21z"/>
<path d="M1692 4510 c-12 -16 -31 -30 -40 -30 -10 0 -33 -11 -52 -25 -19 -14
-41 -25 -51 -25 -9 0 -24 -11 -33 -25 -15 -22 -22 -25 -51 -19 -39 7 -45 -4
-17 -29 28 -25 85 -21 120 8 17 14 39 25 51 25 12 0 31 10 42 21 12 12 36 25
55 31 23 6 36 16 40 33 16 63 -26 87 -64 35z"/>
<path d="M1193 4098 c-51 -65 10 -249 88 -265 16 -3 38 -18 50 -34 24 -35 68
-59 104 -59 14 0 38 -9 53 -20 49 -36 152 -26 152 15 0 18 -20 23 -53 14 -33
-9 -65 1 -91 30 -12 13 -30 20 -52 19 -37 -1 -58 13 -77 51 -9 20 -21 27 -49
29 -51 4 -82 57 -94 167 -7 56 -16 72 -31 53z"/>
<path d="M1029 3261 c-24 -24 -29 -38 -29 -76 0 -50 16 -89 49 -119 11 -10 23
-35 27 -55 8 -45 26 -76 73 -122 20 -20 53 -57 74 -82 30 -37 49 -50 92 -62
57 -17 130 -23 141 -13 13 13 -8 27 -73 47 -84 25 -108 42 -133 91 -11 22 -34
47 -50 55 -17 9 -30 17 -30 18 0 2 -5 30 -11 63 -12 66 -23 84 -50 84 -41 0
-59 88 -29 145 11 21 20 43 20 47 0 19 -44 6 -71 -21z"/>
<path d="M7547 3443 c-13 -12 -7 -68 9 -91 20 -29 69 -54 98 -50 13 1 36 -9
55 -25 39 -33 84 -35 126 -7 17 11 44 20 62 20 54 0 75 40 57 108 -9 32 -42
29 -50 -5 -12 -55 -16 -63 -29 -63 -8 0 -17 5 -20 10 -13 20 -45 10 -60 -20
-20 -39 -38 -38 -64 5 -22 38 -36 42 -64 20 -35 -26 -84 9 -93 67 -6 37 -13
45 -27 31z"/>
<path d="M7425 3240 c-81 -18 -125 -72 -125 -154 0 -18 -7 -39 -15 -46 -25
-21 -37 -83 -25 -135 10 -44 9 -48 -15 -67 -30 -23 -33 -60 -7 -102 17 -29 17
-30 -6 -53 -20 -20 -23 -31 -18 -61 10 -63 73 -123 114 -107 13 5 10 9 -14 24
-40 24 -58 68 -45 104 6 15 18 27 26 27 24 0 29 28 10 50 -10 11 -18 36 -19
57 -1 30 3 38 19 41 38 8 46 21 30 53 -23 44 -19 112 9 146 16 19 25 45 28 82
5 46 11 60 40 86 19 18 41 35 49 37 26 10 -5 25 -36 18z"/>
<path d="M8097 3113 c-19 -19 -5 -31 31 -26 52 7 81 -18 93 -81 11 -62 23 -76
65 -76 32 0 34 -3 45 -46 7 -25 17 -47 23 -49 6 -2 24 -6 39 -9 22 -5 33 -17
48 -54 23 -55 42 -72 80 -72 38 0 49 -19 62 -102 11 -76 29 -110 53 -101 11 4
14 27 14 92 0 82 -2 89 -28 114 -15 15 -42 32 -60 38 -19 6 -43 28 -60 52 -15
23 -43 52 -62 65 -19 13 -43 38 -54 57 -12 21 -36 42 -62 54 -34 16 -43 26
-48 54 -7 37 -24 56 -73 81 -32 16 -94 22 -106 9z"/>
<path d="M7216 2094 c-3 -9 -6 -39 -6 -68 0 -61 26 -108 77 -141 17 -11 38
-33 47 -50 25 -44 63 -68 117 -73 42 -4 52 -9 70 -38 61 -100 171 -115 251
-34 67 67 35 84 -48 25 -55 -39 -63 -41 -103 -20 -19 10 -36 32 -51 70 -21 53
-25 56 -49 50 -85 -21 -117 -11 -135 44 -9 28 -18 36 -51 45 -49 14 -74 58
-82 146 -6 59 -23 80 -37 44z"/>
</g>
</svg>
