<?xml version="1.0" standalone="no"?>
<!DOCTYPE svg PUBLIC "-//W3C//DTD SVG 20010904//EN"
 "http://www.w3.org/TR/2001/REC-SVG-20010904/DTD/svg10.dtd">
<svg version="1.0" xmlns="http://www.w3.org/2000/svg"
 width="1249.000000pt" height="1249.000000pt" viewBox="0 0 1249.000000 1249.000000"
 preserveAspectRatio="xMidYMid meet">
<metadata>
Created by potrace 1.16, written by Peter Selinger 2001-2019
</metadata>
<g transform="translate(0.000000,1249.000000) scale(0.100000,-0.100000)"
fill="#000000" stroke="none">
<path d="M0 6245 l0 -6245 6245 0 6245 0 0 6245 0 6245 -6245 0 -6245 0 0
-6245z m6730 6141 c19 -2 71 -8 115 -11 267 -21 640 -89 975 -176 1569 -408
2954 -1472 3767 -2894 479 -836 750 -1757 803 -2720 12 -229 13 -572 1 -580
-5 -3 -42 34 -83 81 -40 48 -114 135 -163 193 -50 58 -116 142 -148 186 -31
44 -85 117 -119 162 -83 107 -133 192 -241 403 -49 96 -122 229 -162 295 -54
89 -81 147 -105 225 -34 110 -67 184 -105 235 -12 17 -45 68 -74 114 -60 97
-108 154 -242 289 -52 54 -123 139 -158 189 -70 103 -152 185 -227 225 -27 15
-94 39 -149 53 -192 51 -265 76 -275 95 -6 12 -7 89 -3 212 3 106 7 463 7 793
1 472 -2 605 -12 623 -29 50 -189 113 -830 327 l-474 158 -101 -7 c-123 -8
-289 -29 -440 -56 -62 -10 -179 -29 -262 -40 -167 -24 -277 -46 -600 -119
-121 -27 -283 -61 -360 -75 -175 -33 -192 -40 -204 -80 -20 -66 -26 -278 -26
-1033 0 -430 -3 -784 -7 -788 -3 -4 -73 -26 -155 -50 -81 -24 -174 -53 -205
-65 -99 -37 -457 -259 -579 -359 -31 -25 -103 -84 -160 -130 -57 -47 -134
-111 -171 -144 l-68 -59 -222 31 c-229 31 -277 36 -433 46 -49 4 -135 12 -190
20 -194 27 -204 27 -302 12 -54 -9 -163 -23 -243 -32 -80 -9 -170 -20 -200
-25 -30 -5 -84 -12 -120 -15 -36 -3 -110 -12 -165 -20 -55 -8 -120 -16 -145
-19 -164 -20 -397 -49 -590 -76 -274 -37 -607 -77 -715 -85 -44 -3 -93 -8
-110 -10 -16 -2 -79 -8 -140 -15 -60 -6 -155 -18 -210 -26 -55 -8 -244 -34
-420 -59 -176 -25 -351 -51 -390 -59 -38 -8 -106 -18 -150 -22 -200 -16 -206
-17 -229 -47 -21 -28 -21 -38 -24 -525 -1 -273 -2 -677 0 -897 2 -401 -3
-1828 -6 -1832 -1 -2 -13 -4 -25 -5 -27 -3 -32 8 -111 269 -135 443 -214 880
-251 1377 -11 155 -10 672 2 836 37 509 136 1007 298 1500 266 806 687 1534
1250 2164 157 175 465 475 626 610 808 675 1743 1127 2755 1330 305 61 662
104 950 112 113 4 206 7 207 8 4 3 513 -13 543 -18z m2076 -2001 c16 -521 6
-1756 -15 -1778 -5 -4 -64 -3 -132 4 l-124 12 -1 61 c-2 78 -15 88 -105 83
-37 -3 -71 -7 -78 -11 -17 -11 -29 -73 -36 -192 -7 -120 -5 -125 48 -138 26
-6 27 -8 27 -74 0 -98 5 -102 125 -105 l100 -2 5 75 5 75 75 -3 c41 -2 81 -9
89 -15 11 -9 13 -39 8 -149 -3 -75 -8 -141 -12 -147 -8 -14 -83 -13 -228 3
-107 12 -126 18 -210 60 -116 58 -189 68 -467 64 l-195 -3 -80 37 c-84 38
-145 53 -260 64 -38 3 -115 14 -170 25 -55 10 -124 21 -152 25 -29 4 -53 12
-53 18 -5 193 3 2053 8 2057 4 4 142 28 307 53 165 25 406 64 535 87 545 95
917 156 945 155 l30 -1 11 -340z m378 251 c147 -46 269 -86 272 -89 10 -10 -8
-137 -20 -137 -6 0 -34 6 -62 14 -61 16 -78 9 -94 -41 -29 -85 -11 -111 99
-147 159 -52 184 -48 207 30 14 49 18 54 43 54 16 0 33 6 39 13 9 11 19 57 21
105 1 6 7 12 14 12 25 0 303 -124 320 -143 15 -17 17 -41 17 -186 0 -91 -3
-264 -7 -384 -5 -191 -8 -217 -22 -215 -12 2 -17 18 -19 60 -3 50 -6 57 -30
66 -35 14 -373 79 -485 94 -99 13 -117 6 -117 -47 0 -48 -9 -65 -36 -65 -34 0
-53 -37 -71 -136 -22 -133 -7 -174 64 -174 47 0 52 -9 48 -92 -5 -130 15 -178
76 -178 26 0 27 -3 31 -57 8 -98 9 -489 2 -507 -4 -11 -13 -15 -26 -11 -10 4
-67 -1 -126 -11 -131 -21 -147 -33 -138 -108 9 -67 20 -78 75 -74 l46 3 3 -70
c1 -38 -1 -76 -6 -82 -5 -8 -53 -17 -123 -23 -64 -5 -149 -16 -189 -24 -41 -7
-80 -11 -88 -9 -10 4 -12 35 -6 157 4 84 11 154 17 158 6 3 30 9 53 13 24 3
47 11 50 17 9 15 7 159 -3 169 -4 4 -33 9 -63 11 l-55 3 1 270 c1 408 11 1840
13 1843 2 4 0 4 275 -82z m470 -166 c5 -5 5 -26 0 -52 -9 -42 -10 -43 -48 -41
-22 2 -55 11 -75 20 -30 15 -36 24 -39 55 -2 20 2 46 8 57 10 21 11 20 78 -5
37 -14 71 -29 76 -34z m-234 -94 c129 -36 140 -42 140 -71 0 -39 -18 -65 -45
-65 -28 0 -185 48 -202 62 -13 11 -7 64 10 86 11 15 -3 16 97 -12z m280 -720
c212 -44 256 -56 258 -70 7 -34 -13 -39 -86 -22 -60 13 -432 66 -469 66 -9 0
-13 13 -13 40 0 37 2 40 28 39 15 0 142 -24 282 -53z m-227 -75 c6 -6 6 -54 2
-121 l-7 -112 -71 7 c-98 9 -107 15 -107 74 0 65 17 153 33 164 15 10 137 1
150 -12z m217 -16 c164 -21 176 -23 162 -37 -9 -9 -41 -7 -125 5 -62 9 -129
17 -149 17 -42 0 -68 8 -68 21 0 13 35 11 180 -6z m210 -252 c0 -109 2 -243 5
-298 8 -210 18 -642 16 -695 -2 -56 -12 -77 -29 -67 -5 4 -12 149 -16 329 -3
178 -9 452 -13 609 -3 158 -3 294 0 303 4 9 13 16 22 16 13 0 15 -27 15 -197z
m94 177 c20 -7 26 -17 26 -39 0 -23 -5 -30 -27 -34 -39 -7 -63 9 -63 42 0 43
15 50 64 31z m-13 -132 c4 -87 -4 -195 -16 -208 -10 -9 -18 -11 -24 -5 -8 8
-15 145 -12 213 1 6 12 12 26 12 14 0 25 -6 26 -12z m59 -50 c0 -34 -14 -57
-27 -45 -3 3 -2 29 2 58 8 58 25 50 25 -13z m-575 -19 c11 -16 16 -119 9 -161
-5 -32 -10 -38 -29 -38 -20 0 -26 8 -36 43 -19 72 -17 136 5 153 24 17 42 18
51 3z m575 -536 c-1 -314 -4 -461 -12 -470 -11 -14 -74 -18 -81 -5 -3 4 -8
192 -12 418 l-8 412 37 12 c31 10 37 17 42 51 4 23 12 39 20 39 12 0 14 -75
14 -457z m-1550 -140 c0 -65 -4 -124 -9 -132 -11 -18 -84 -26 -110 -12 -19 11
-20 17 -14 124 3 61 10 118 16 125 5 7 32 12 63 12 l54 0 0 -117z m230 -52
l75 -6 3 -62 c2 -46 -1 -63 -10 -64 -42 -3 -131 3 -185 13 -47 7 -63 14 -64
27 -2 32 3 96 8 104 3 5 26 6 52 2 25 -4 80 -10 121 -14z m1491 0 c24 -11 94
-34 154 -51 144 -42 203 -71 271 -132 82 -76 146 -198 97 -185 -65 18 -124 28
-133 22 -28 -17 0 -40 141 -111 84 -42 191 -103 238 -135 l87 -58 71 -133 c86
-164 87 -165 119 -351 53 -308 238 -982 296 -1077 31 -52 38 -19 11 60 -24 71
-57 256 -67 368 -14 170 -18 242 -13 242 3 0 24 -35 48 -77 23 -43 71 -125
107 -183 36 -58 94 -157 129 -220 117 -206 149 -247 329 -411 53 -48 218 -228
223 -242 2 -7 17 -26 34 -44 l30 -32 -6 -90 c-4 -50 -10 -115 -13 -144 l-6
-55 -87 -22 c-47 -12 -124 -35 -171 -52 -47 -17 -149 -53 -228 -79 -115 -38
-161 -59 -235 -108 -120 -79 -197 -112 -274 -118 -54 -5 -69 -2 -130 26 -54
26 -87 52 -156 124 -133 138 -161 179 -317 462 -78 143 -159 284 -180 313 -20
29 -156 173 -301 320 -248 251 -372 362 -405 362 -28 0 -13 -30 35 -70 27 -23
70 -68 95 -100 25 -32 80 -95 121 -140 41 -45 102 -121 135 -168 32 -48 81
-114 107 -147 91 -113 136 -189 251 -424 63 -130 133 -265 157 -301 49 -77
177 -228 242 -286 l47 -42 -41 -6 c-84 -15 -196 7 -463 90 -183 56 -185 56
-285 52 -88 -4 -112 -10 -200 -45 -142 -58 -199 -73 -274 -73 -82 0 -111 16
-183 103 -86 105 -235 369 -309 547 -62 150 -77 202 -84 295 -10 119 -16 156
-45 275 -16 63 -36 147 -44 187 -19 93 -42 143 -112 250 -74 113 -124 166
-190 204 -69 39 -92 33 -40 -12 99 -87 122 -117 184 -239 35 -70 69 -153 77
-190 8 -36 28 -124 44 -197 36 -156 50 -246 51 -328 1 -76 12 -126 57 -245 56
-150 80 -206 123 -275 38 -62 140 -259 140 -270 0 -3 -30 -2 -67 1 -58 5 -86
1 -193 -29 -69 -19 -138 -40 -153 -46 -16 -6 -58 -11 -95 -11 -37 0 -96 -7
-131 -15 -83 -20 -189 -22 -221 -5 -14 7 -57 43 -95 79 -81 77 -136 105 -243
127 -42 9 -78 17 -80 19 -1 1 59 84 133 185 135 181 155 213 155 251 0 45 -30
28 -131 -73 -61 -62 -136 -125 -182 -154 -43 -27 -108 -71 -145 -99 -90 -67
-121 -79 -307 -119 -114 -24 -187 -46 -255 -76 -176 -79 -221 -91 -380 -105
-91 -8 -228 13 -304 48 -67 31 -266 165 -266 179 0 15 53 108 100 178 21 30
84 102 142 160 200 202 283 351 323 578 17 99 92 271 183 420 105 172 195 343
184 354 -15 15 -32 2 -142 -117 -114 -124 -300 -373 -337 -452 -13 -29 -37
-97 -52 -150 -53 -184 -102 -273 -250 -453 -47 -57 -118 -153 -158 -213 -39
-59 -73 -105 -76 -100 -3 4 -8 139 -11 298 -4 160 -14 421 -23 580 -12 218
-14 404 -11 748 6 506 6 502 -57 539 -54 30 -254 68 -528 99 -59 7 -110 16
-114 21 -12 21 205 209 272 234 15 6 14 1 -9 -37 -43 -70 -60 -108 -52 -116 4
-5 17 6 29 22 12 17 58 69 102 116 44 47 107 115 140 151 33 36 85 81 115 100
88 56 269 144 345 167 76 24 231 51 240 43 3 -3 5 -40 5 -82 l0 -76 -85 -27
c-46 -16 -87 -33 -91 -38 -4 -6 47 -8 148 -3 123 5 168 3 228 -10 41 -9 136
-28 210 -42 74 -14 203 -48 285 -76 116 -38 173 -52 250 -59 182 -16 219 -20
330 -35 147 -19 145 -19 202 -58 94 -64 284 -148 300 -132 8 8 12 5 -79 50
-90 43 -100 61 -30 52 26 -3 90 -8 142 -11 52 -4 104 -11 116 -17 16 -7 40 -2
110 25 82 32 170 50 359 72 92 10 313 60 515 116 251 69 370 77 498 33 42 -15
99 -37 126 -50 70 -34 87 -31 50 7 -37 39 -94 68 -216 108 l-98 33 0 139 c0
156 -2 152 71 120z m-1223 -38 c2 -23 -2 -51 -7 -62 -14 -25 -70 -39 -82 -20
-12 19 -11 72 1 104 9 23 15 26 47 23 37 -3 38 -4 41 -45z m451 -97 c20 -24
30 -73 18 -85 -6 -6 -38 -11 -71 -11 -34 0 -79 -5 -100 -10 -56 -13 -76 1 -76
51 0 23 5 42 13 45 11 4 120 17 188 23 9 0 22 -5 28 -13z m-875 -29 c23 -17
26 -104 5 -118 -8 -5 -35 -9 -61 -9 -64 0 -93 27 -84 79 3 20 6 42 6 49 0 17
110 16 134 -1z m914 -182 l-3 -58 -54 -14 c-30 -7 -58 -10 -62 -6 -10 11 -16
84 -9 113 5 22 12 26 60 30 30 3 59 3 63 -1 4 -3 7 -32 5 -64z m-4708 -443
c211 -30 310 -40 705 -77 88 -9 167 -17 175 -20 8 -2 56 -7 105 -11 50 -3 97
-8 105 -10 8 -1 24 -3 34 -3 11 -1 17 -3 14 -6 -3 -3 -180 -43 -394 -89 -214
-46 -524 -114 -689 -150 -319 -69 -1292 -290 -1461 -331 l-100 -25 -76 20
c-164 43 -936 164 -1183 185 -124 11 -346 45 -495 76 -80 17 -194 39 -255 50
-158 28 -165 33 -75 52 82 17 322 54 410 62 30 3 75 8 100 10 25 2 86 9 135
14 50 5 124 12 165 16 101 8 364 44 965 130 212 30 226 32 470 50 110 9 259
24 330 35 204 31 281 40 410 47 66 3 122 8 125 10 13 12 279 -7 480 -35z
m1525 -377 c0 -110 -2 -549 -4 -975 -1 -426 0 -797 2 -825 12 -116 19 -1460 8
-1487 -6 -17 -24 -33 -46 -42 -57 -24 -124 -75 -228 -173 -107 -101 -152 -127
-323 -186 -137 -48 -223 -92 -329 -172 -50 -37 -106 -75 -125 -85 -38 -19
-241 -92 -245 -88 -1 2 -5 404 -9 893 -3 490 -9 1009 -12 1155 l-7 265 43 50
42 49 -4 120 c-2 69 -9 131 -16 144 -21 37 -81 29 -342 -48 -286 -84 -393
-121 -575 -198 -172 -72 -189 -78 -245 -93 -102 -26 -126 -70 -117 -218 9
-153 26 -181 108 -181 l42 0 -7 -812 c-4 -447 -9 -829 -11 -848 -4 -31 -4
-282 -1 -775 l1 -140 -85 -31 c-77 -28 -349 -138 -442 -178 -29 -12 -38 -13
-38 -4 -4 157 3 555 10 568 5 10 37 24 77 35 82 22 119 39 156 73 40 38 50 87
42 212 l-7 107 29 6 c46 9 176 74 196 98 11 14 17 38 17 69 0 54 -27 205 -41
232 -12 22 -51 23 -105 5 -22 -8 -54 -17 -72 -20 -33 -7 -34 -5 -55 42 -28 69
-48 76 -154 55 -50 -10 -88 -13 -93 -8 -5 5 -10 79 -10 164 -1 85 -5 295 -10
465 -5 171 -12 650 -15 1065 -3 415 -8 868 -12 1007 l-6 252 24 10 c13 5 63
16 109 26 47 9 270 59 495 110 226 52 469 106 540 120 153 31 287 61 675 155
294 71 375 88 790 165 135 25 270 51 300 59 91 23 85 37 85 -189z m-5480 -75
c55 -10 199 -39 320 -64 121 -25 249 -48 285 -51 36 -3 160 -21 275 -40 116
-19 246 -39 290 -45 44 -7 111 -18 148 -26 88 -18 284 -41 417 -49 272 -15
632 -71 656 -101 13 -17 28 -1138 29 -2193 l0 -744 -34 -3 c-58 -4 -61 -15
-62 -175 -1 -79 -5 -173 -10 -209 -4 -36 -9 -147 -10 -246 -3 -208 -1 -217 76
-254 26 -12 50 -32 54 -44 4 -11 6 -139 3 -284 -5 -291 -5 -293 -64 -249 -18
14 -73 42 -122 63 -103 43 -209 108 -391 239 -140 100 -279 179 -390 220 -105
39 -177 84 -309 189 -96 76 -154 112 -290 182 -198 100 -211 109 -325 223 -60
60 -110 99 -166 130 -160 88 -232 134 -340 219 -60 47 -137 102 -170 123 l-60
36 -3 414 c-2 228 2 533 8 679 6 146 14 347 17 448 3 100 9 184 12 187 4 2 25
-1 47 -7 54 -15 89 -5 102 29 6 16 13 86 17 158 3 71 8 132 11 134 2 2 47 3
99 2 121 -3 134 7 137 107 4 137 2 141 -59 151 -37 6 -38 8 -38 46 1 22 5 70
9 106 7 59 6 69 -11 86 -22 22 -154 58 -251 69 -75 8 -92 22 -93 77 0 23 -2
51 -4 62 -2 11 -7 114 -11 228 -8 235 -8 235 60 210 23 -8 86 -23 141 -33z
m-34 -610 c87 -22 130 -39 141 -55 6 -8 0 -144 -7 -153 -1 -1 -34 6 -73 17
-39 11 -96 23 -127 26 -30 4 -57 10 -59 14 -2 3 -7 43 -10 89 l-7 82 31 0 c17
0 67 -9 111 -20z m-48 -259 l47 -15 -1 -86 c0 -47 -6 -152 -12 -235 l-12 -150
-38 -3 c-68 -6 -67 -8 -67 270 0 234 1 250 18 242 9 -4 38 -14 65 -23z m287
-52 c6 -9 2 -128 -4 -136 -1 -1 -38 1 -82 5 l-79 7 -3 64 c-2 35 -1 69 1 76 6
15 157 1 167 -16z m3975 -466 c-12 -120 -16 -128 -98 -161 -40 -16 -97 -37
-127 -47 -89 -28 -241 -91 -403 -165 -129 -58 -303 -120 -340 -120 -5 0 -48
-16 -94 -36 -70 -30 -87 -34 -95 -23 -5 8 -7 59 -4 118 4 83 9 108 23 122 10
10 63 33 118 52 55 20 172 63 260 97 181 71 683 227 733 229 l34 1 -7 -67z
m-85 -355 c0 -330 10 -1478 14 -1593 3 -82 8 -263 11 -400 4 -219 3 -254 -11
-273 -21 -30 -70 -28 -66 3 3 28 -18 1739 -23 1800 -3 39 -7 407 -5 472 0 13
46 42 68 43 8 0 12 -17 12 -52z m7399 -390 c-246 -1414 -977 -2689 -2083
-3636 -688 -588 -1567 -1044 -2441 -1265 -1548 -393 -3148 -189 -4529 577
-1251 695 -2239 1827 -2753 3155 -24 62 -41 116 -39 119 9 8 99 -49 161 -103
53 -46 166 -125 179 -125 3 0 92 -42 198 -94 208 -101 270 -143 343 -233 68
-83 128 -124 320 -219 143 -70 185 -96 261 -161 49 -43 106 -90 125 -105 l34
-27 -87 -1 c-83 0 -124 -14 -76 -25 109 -25 167 -35 253 -44 90 -10 110 -17
210 -66 61 -30 151 -86 200 -124 188 -145 309 -218 456 -278 41 -16 106 -49
144 -71 108 -66 113 -65 278 13 239 114 248 117 372 123 127 5 158 15 107 33
l-34 12 129 47 c71 26 156 59 189 74 32 16 128 57 212 92 210 88 211 88 375
218 194 153 210 163 332 206 130 46 192 83 298 180 96 86 148 117 272 161 193
68 242 97 371 220 165 157 279 214 454 227 135 11 105 43 -65 70 -36 6 -49 12
-46 23 3 10 13 925 11 997 0 21 12 14 90 -49 192 -154 375 -200 643 -160 119
17 156 28 255 70 163 70 182 76 312 96 167 25 260 52 320 91 61 40 70 41 147
12 47 -18 75 -40 153 -118 166 -168 236 -203 401 -202 139 0 228 15 396 63
159 45 184 46 324 18 57 -12 120 -21 140 -20 21 0 57 -8 82 -19 83 -37 255
-24 390 29 101 40 171 55 224 47 25 -3 136 -36 247 -73 l201 -67 145 -1 c134
0 151 2 230 29 47 16 119 45 160 66 41 20 102 42 135 50 68 14 124 41 240 113
96 59 108 64 205 83 41 8 154 41 250 74 96 33 182 60 191 60 15 0 13 -18 -12
-162z m-8812 -1285 c15 -22 19 -62 25 -247 4 -122 10 -257 14 -301 6 -72 4
-82 -14 -98 -24 -21 -140 -53 -152 -41 -5 5 -11 90 -14 189 -4 99 -10 218 -14
265 -4 47 -7 119 -7 160 l0 75 65 11 c36 7 68 12 72 13 4 1 15 -11 25 -26z
m-269 -6 c7 -8 14 -131 18 -345 l7 -332 -24 0 c-51 0 -52 5 -43 176 4 88 8
231 10 319 1 88 2 168 3 178 1 20 14 22 29 4z m528 -60 c11 -30 21 -163 12
-173 -10 -13 -127 -38 -136 -30 -3 4 -11 40 -17 81 -14 89 -9 100 55 120 58
18 79 18 86 2z"/>
<path d="M8439 10125 c-3 -2 -45 -6 -94 -9 -51 -3 -114 -13 -145 -24 l-55 -19
3 -58 c4 -86 13 -97 75 -93 l51 3 1 -72 c0 -39 3 -75 7 -79 10 -10 122 -6 152
6 34 13 39 24 37 94 0 33 3 66 7 71 4 6 25 15 47 21 40 9 40 9 37 54 -1 25 -7
60 -13 78 -10 30 -13 32 -58 32 -26 0 -50 -2 -52 -5z m87 -61 c3 -19 3 -39 -2
-44 -5 -5 -37 -12 -71 -16 -70 -7 -64 -13 -67 63 -1 19 31 30 96 32 35 1 37
-1 44 -35z m-191 -6 c13 -57 10 -72 -15 -85 -14 -6 -50 -13 -79 -15 -52 -3
-54 -2 -62 27 -15 54 -3 73 54 83 85 16 96 14 102 -10z m83 -140 c7 -7 12 -31
12 -54 0 -48 -9 -54 -76 -54 l-44 0 0 50 c0 36 5 52 18 59 24 14 75 14 90 -1z"/>
<path d="M7145 9609 c-67 -16 -64 4 -67 -388 0 -55 10 -71 45 -71 14 0 17 -9
17 -50 0 -73 20 -90 113 -92 148 -3 152 -1 164 87 l8 60 45 5 45 5 1 75 1 75
63 7 c36 4 70 14 81 24 22 20 26 86 6 103 -18 14 -144 25 -201 17 -57 -9 -76
-27 -76 -75 0 -48 -14 -61 -67 -61 -54 0 -59 9 -67 140 -10 147 -20 160 -111
139z m63 -42 c6 -6 14 -90 18 -186 6 -143 4 -175 -7 -182 -22 -14 -107 -11
-112 4 -5 14 2 312 9 344 6 29 72 44 92 20z m383 -136 c58 -1 75 -13 63 -45
-8 -22 -30 -27 -135 -33 -92 -6 -97 -5 -104 16 -16 50 11 69 90 64 17 -1 55
-2 86 -2z m-115 -138 c10 -10 14 -30 12 -57 l-3 -41 -100 4 c-55 2 -103 5
-107 8 -5 2 -8 22 -8 44 0 48 10 53 115 56 56 1 79 -3 91 -14z m-97 -152 c10
-6 12 -20 8 -46 -3 -21 -8 -40 -11 -42 -6 -7 -176 -4 -187 2 -10 7 -12 78 -2
88 10 10 176 8 192 -2z"/>
<path d="M5905 7318 c-70 -12 -172 -47 -190 -65 -11 -10 -15 -38 -15 -104 0
-89 0 -89 -27 -95 -56 -11 -142 -46 -157 -63 -36 -40 -42 -202 -10 -280 l14
-34 53 7 c28 4 68 10 88 12 34 6 35 4 45 -32 13 -56 46 -63 171 -35 164 37
173 44 173 141 0 55 -20 75 -63 65 -23 -6 -24 -4 -30 62 -3 37 -9 88 -12 113
l-6 45 43 20 43 20 -3 105 c-2 58 -7 109 -12 114 -12 12 -48 14 -105 4z m55
-111 l0 -64 -101 -27 c-56 -15 -103 -25 -105 -23 -2 2 -5 29 -6 61 l-3 58 90
28 c130 40 125 42 125 -33z m-69 -222 c4 -16 7 -62 8 -102 l1 -71 -47 -16
c-88 -28 -256 -67 -277 -64 -19 3 -22 11 -27 88 -8 104 2 131 51 142 19 4 82
19 140 32 130 31 143 30 151 -9z m116 -231 c10 -27 -18 -42 -125 -67 -79 -19
-106 -22 -118 -13 -23 17 -5 29 101 65 102 35 133 38 142 15z"/>
<path d="M5740 5243 c-47 -7 -251 -88 -278 -110 -26 -20 -27 -24 -25 -110 3
-99 11 -220 19 -275 5 -36 5 -37 -36 -49 -23 -7 -56 -26 -72 -41 l-31 -29 7
-167 c8 -203 13 -226 50 -230 45 -5 286 97 317 134 8 10 14 39 14 72 l0 54
115 47 c63 26 160 65 215 87 119 46 145 68 145 121 0 54 -27 172 -45 199 -21
33 -54 31 -169 -11 -53 -19 -101 -35 -106 -35 -6 0 -10 22 -10 48 0 60 -38
273 -52 290 -11 12 -13 12 -58 5z m28 -208 c12 -69 17 -128 12 -140 -16 -40
-250 -140 -250 -106 0 6 -7 68 -16 136 -12 93 -13 129 -5 139 6 7 44 25 84 40
39 15 88 35 107 46 19 10 38 15 42 12 4 -4 16 -61 26 -127z m319 -157 c15 -20
35 -102 31 -128 -2 -19 -14 -27 -61 -41 -32 -10 -119 -41 -192 -69 -74 -29
-140 -50 -148 -47 -7 3 -19 30 -26 61 -20 92 -14 97 219 182 160 59 163 59
177 42z m-468 -318 c12 -63 21 -122 21 -131 0 -14 -105 -59 -221 -96 -19 -6
-23 8 -40 160 -7 68 -8 112 -2 118 14 14 207 78 214 70 4 -3 16 -58 28 -121z"/>
<path d="M2132 6552 c-22 -15 -32 -74 -32 -191 l0 -113 -32 6 c-60 12 -156 19
-182 12 -36 -9 -52 -48 -60 -147 l-6 -85 33 -31 c29 -27 43 -32 152 -46 247
-34 351 -47 395 -49 l45 -3 11 -100 c6 -55 16 -111 23 -123 17 -31 60 -48 156
-62 44 -6 98 -15 120 -20 58 -14 111 -12 124 4 13 15 31 332 24 396 -7 50 -40
79 -118 101 -37 10 -70 21 -73 23 -2 3 4 73 13 155 23 200 30 190 -152 225
-261 49 -415 66 -441 48z m313 -103 c77 -11 155 -24 173 -30 l32 -11 -6 -121
c-4 -67 -8 -124 -10 -126 -2 -2 -32 4 -66 13 -35 9 -136 32 -226 51 -89 19
-167 37 -172 40 -5 3 -7 27 -5 53 2 26 4 73 5 106 l0 59 68 -7 c37 -4 130 -16
207 -27z m-445 -274 c25 -4 80 -16 123 -26 43 -11 126 -28 185 -37 l107 -18 3
-63 c3 -62 2 -63 -20 -58 -13 3 -124 22 -247 42 -123 19 -228 38 -232 41 -11
6 -12 118 -2 127 4 4 14 5 22 3 9 -3 36 -8 61 -11z m700 -134 l125 -37 -1 -90
c0 -49 -4 -123 -8 -165 l-8 -77 -31 8 c-18 5 -73 14 -123 21 -51 6 -97 14
-102 18 -12 7 -25 345 -15 355 11 11 35 6 163 -33z"/>
<path d="M1450 5080 c-11 -7 -15 -30 -15 -98 0 -98 8 -117 56 -127 17 -4 32
-12 34 -18 2 -7 6 -79 10 -162 6 -157 26 -332 39 -354 15 -24 148 -102 169
-99 21 3 22 8 22 130 0 71 4 131 10 137 7 6 49 -9 125 -46 146 -70 419 -183
443 -183 23 0 24 7 31 116 9 155 -1 169 -160 238 -95 42 -115 58 -108 88 2 13
7 57 11 100 5 71 4 78 -18 100 -30 30 -215 97 -414 149 -152 39 -208 46 -235
29z m90 -70 c10 -5 63 -21 118 -35 116 -29 352 -112 368 -129 11 -10 5 -108
-7 -121 -6 -5 -264 92 -347 132 -31 15 -84 34 -117 43 -54 14 -60 18 -63 44
-4 37 5 76 19 76 6 0 19 -4 29 -10z m136 -260 c20 -8 21 -17 28 -215 4 -114 5
-209 2 -212 -10 -10 -71 33 -82 58 -12 24 -17 73 -30 283 l-7 108 34 -7 c19
-4 43 -11 55 -15z m244 -112 c78 -42 243 -107 315 -124 63 -14 75 -29 75 -94
0 -32 -4 -61 -9 -64 -5 -3 -73 23 -152 58 -79 35 -186 79 -236 96 -51 18 -94
35 -95 39 -10 40 -2 145 10 139 4 -2 45 -24 92 -50z"/>
</g>
</svg>
