<?xml version="1.0" standalone="no"?>
<!DOCTYPE svg PUBLIC "-//W3C//DTD SVG 20010904//EN"
 "http://www.w3.org/TR/2001/REC-SVG-20010904/DTD/svg10.dtd">
<svg version="1.0" xmlns="http://www.w3.org/2000/svg"
 width="1249.000000pt" height="1249.000000pt" viewBox="0 0 1249.000000 1249.000000"
 preserveAspectRatio="xMidYMid meet">
<metadata>
Created by potrace 1.16, written by Peter Selinger 2001-2019
</metadata>
<g transform="translate(0.000000,1249.000000) scale(0.100000,-0.100000)"
fill="#000000" stroke="none">
<path d="M0 6245 l0 -6245 6245 0 6245 0 0 6245 0 6245 -6245 0 -6245 0 0
-6245z m6675 6144 c1349 -101 2572 -608 3603 -1493 96 -83 102 -91 102 -126 0
-46 -9 -53 -83 -75 -56 -16 -58 -18 -52 -43 7 -29 32 -62 47 -62 4 0 29 -10
53 -21 38 -18 45 -25 39 -43 -3 -11 -13 -28 -20 -36 -13 -13 -18 -11 -40 17
-29 37 -92 60 -122 44 -30 -16 -104 -118 -100 -138 6 -35 37 -25 87 26 27 28
55 51 63 51 7 -1 28 -21 46 -45 31 -42 79 -68 108 -58 6 2 26 35 44 73 19 39
37 67 40 63 4 -5 12 -27 19 -50 7 -26 22 -50 40 -62 27 -20 28 -21 23 -103 -3
-68 -9 -90 -29 -120 -21 -31 -29 -36 -43 -28 -32 17 -49 0 -90 -89 -56 -120
-65 -136 -78 -134 -14 3 -52 -47 -82 -107 -12 -25 -24 -47 -26 -49 -2 -2 -17
11 -34 28 -26 26 -30 36 -25 61 7 32 14 37 32 19 22 -22 38 -1 73 87 19 48 49
110 67 137 18 27 33 60 33 73 0 38 -42 32 -77 -10 -15 -19 -40 -39 -54 -44
-18 -7 -38 -34 -66 -89 -51 -99 -65 -142 -72 -223 -7 -79 -28 -88 -47 -20 -7
25 -24 72 -38 105 -14 34 -28 81 -32 105 -6 40 -5 44 8 32 16 -13 48 -7 48 9
0 5 23 47 51 94 49 81 51 88 47 142 -4 46 -10 60 -31 78 -15 11 -27 30 -27 41
0 12 -5 35 -11 52 -9 26 -17 31 -57 39 l-47 8 5 40 c9 70 5 160 -9 192 -9 22
-22 34 -42 38 -63 14 -121 -17 -236 -126 -34 -33 -69 -59 -78 -59 -9 0 -45
-25 -80 -55 -34 -30 -65 -55 -69 -55 -14 0 -5 28 24 73 38 61 45 90 30 127
-10 25 -18 30 -46 30 -21 0 -34 5 -34 13 0 6 18 46 40 87 43 81 46 95 28 134
-7 18 -22 28 -46 32 -45 9 -88 -13 -192 -96 -78 -62 -218 -160 -229 -160 -4 0
-15 16 -26 36 -27 50 -55 66 -116 66 -71 -1 -95 11 -164 78 -86 85 -125 100
-260 100 -106 0 -113 -1 -179 -35 -39 -19 -77 -35 -86 -35 -24 0 -66 48 -89
102 -23 55 -39 65 -87 60 -30 -4 -40 -12 -66 -54 -17 -27 -35 -47 -41 -45 -7
2 -42 70 -79 152 -82 179 -95 195 -158 195 -25 0 -54 -6 -63 -12 -9 -7 -43
-85 -76 -173 -63 -173 -56 -164 -131 -150 -19 4 -48 2 -64 -4 -27 -11 -28 -14
-22 -54 14 -87 19 -177 9 -177 -15 0 -65 76 -108 163 -21 43 -46 82 -54 86 -9
5 -34 6 -56 2 -44 -7 -39 3 -61 -138 -5 -34 -27 -45 -37 -19 -3 8 -29 33 -57
55 -45 35 -59 41 -101 41 l-49 0 0 -100 c0 -55 -3 -100 -6 -100 -3 0 -24 14
-45 31 -33 26 -39 37 -39 67 -1 67 -30 205 -47 225 -38 42 -46 40 -133 -33
-45 -39 -86 -70 -90 -70 -4 0 -11 28 -14 62 -6 51 -13 67 -41 95 -18 18 -38
33 -45 33 -7 0 -42 -29 -79 -65 l-68 -65 -105 0 c-118 0 -120 -1 -138 -70 -20
-78 -30 -87 -110 -95 -39 -4 -77 -13 -84 -21 -17 -17 -26 -8 -26 27 0 39 -31
55 -65 33 -25 -16 -25 -16 -39 17 -7 19 -16 56 -20 84 -5 46 -24 75 -48 75 -5
0 -18 -21 -30 -47 -63 -136 -227 -373 -259 -373 -5 0 -2 16 6 36 25 61 16 114
-21 114 -7 0 -45 -35 -85 -77 -41 -43 -104 -109 -141 -148 l-67 -70 -41 24
c-55 31 -70 23 -70 -34 l0 -47 -32 7 c-61 13 -62 14 -13 114 68 139 61 163
-44 144 -31 -6 -57 -9 -59 -8 -5 4 30 70 114 216 41 71 74 136 74 143 0 7 -7
19 -15 26 -12 10 -22 8 -52 -11 -142 -85 -393 -331 -503 -494 -33 -48 -34 -49
-41 -25 -4 14 -7 77 -8 140 -1 119 -7 140 -43 140 -21 0 -83 -118 -118 -225
-12 -38 -24 -73 -27 -77 -4 -8 -82 43 -83 55 0 4 11 29 24 56 37 71 42 125 15
152 -21 21 -29 21 -101 3 l-28 -6 0 57 c0 31 5 99 11 151 6 51 8 105 5 118 -7
29 -37 41 -65 26 -11 -5 -88 -83 -172 -173 -83 -89 -155 -163 -159 -165 -4 -1
-13 23 -20 53 -17 70 -28 85 -64 88 -27 2 -33 -5 -87 -102 -70 -125 -76 -132
-84 -98 -13 50 -43 66 -130 68 -103 2 -114 6 -125 35 -19 48 -92 57 -157 20
-44 -25 -52 -23 -66 17 -6 15 -16 18 -53 15 l-46 -3 -57 -92 c-31 -51 -59 -92
-62 -92 -13 -1 -59 166 -73 267 -8 56 -18 106 -21 111 -12 20 333 259 615 428
182 108 537 289 723 367 625 264 1309 428 1982 476 141 9 728 9 860 -1z m1093
-1286 c29 -65 66 -139 82 -165 l30 -48 57 0 c52 0 60 3 93 35 36 36 36 36 55
15 21 -23 23 -21 -35 -40 -41 -14 -45 -18 -48 -50 -4 -40 35 -145 78 -210 29
-43 29 -45 9 -52 -29 -11 -106 -179 -132 -288 -12 -50 -25 -90 -29 -90 -12 0
-20 41 -23 123 -2 47 -13 112 -25 152 -12 39 -41 144 -65 235 -29 113 -47 166
-58 168 -8 2 -16 -5 -19 -15 -7 -30 18 -224 41 -311 12 -45 21 -84 21 -88 0
-4 -40 47 -88 112 -49 66 -105 136 -125 157 -66 71 -57 28 16 -76 40 -56 95
-137 121 -179 l48 -78 -22 -44 -21 -45 -57 36 c-119 76 -137 89 -190 137 -69
64 -74 78 -50 146 16 45 19 72 15 145 -3 50 -9 99 -13 109 -6 17 -4 18 17 11
13 -4 45 -10 71 -12 58 -6 62 -1 122 167 56 159 57 160 65 160 4 0 31 -53 59
-117z m-3889 -50 c-4 -27 -8 -107 -8 -180 -1 -107 2 -135 15 -147 17 -18 50
-21 59 -6 3 6 10 10 16 10 5 0 -2 -21 -15 -48 -34 -68 -26 -98 33 -124 90 -38
102 -64 80 -168 -13 -62 -27 -64 -116 -15 -104 57 -112 47 -64 -85 l30 -80
-29 -15 c-41 -21 -52 -47 -64 -155 -7 -54 -16 -95 -22 -95 -16 0 -93 93 -100
120 -5 19 6 44 41 100 32 52 44 81 40 95 -8 25 -42 26 -50 3 -3 -10 -23 -38
-44 -62 l-38 -45 -18 34 c-16 31 -17 42 -6 94 7 33 24 88 37 122 48 118 14
187 -48 99 -19 -27 -39 -83 -62 -175 -38 -154 -42 -154 -72 8 -22 116 -21 112
-43 112 -25 0 -30 -30 -19 -121 11 -96 34 -181 63 -244 13 -27 22 -52 19 -54
-10 -11 -136 64 -191 113 l-55 50 5 55 c4 31 15 94 26 141 11 47 23 114 26
150 6 57 14 76 63 151 31 47 65 101 76 120 l18 34 23 -51 c16 -37 31 -54 54
-63 40 -17 40 -16 144 118 92 121 197 251 201 251 2 0 -1 -21 -5 -47z m2492
-50 c4 -102 6 -114 29 -138 13 -14 31 -25 41 -25 9 0 58 36 108 80 57 51 93
76 96 68 7 -19 24 -101 25 -114 0 -7 -17 -9 -51 -6 -83 8 -84 -5 -12 -181 24
-59 41 -112 38 -117 -13 -20 -46 -10 -56 18 -14 37 -50 73 -139 142 -71 54
-112 80 -124 80 -3 0 -6 -8 -5 -17 0 -10 31 -45 69 -77 38 -33 68 -62 66 -64
-2 -2 -26 8 -53 21 -65 33 -202 81 -210 74 -16 -17 16 -41 124 -95 206 -104
205 -103 200 -137 -6 -36 23 -126 64 -203 16 -30 27 -57 25 -59 -2 -2 -20 5
-40 15 -44 24 -74 18 -87 -15 -15 -39 -11 -60 28 -165 20 -54 34 -101 30 -104
-9 -10 -43 5 -82 36 -82 65 -192 59 -350 -19 -97 -48 -145 -84 -131 -98 3 -4
65 12 136 35 96 31 146 42 192 42 96 0 105 -5 111 -55 2 -26 18 -65 36 -93 17
-27 31 -52 31 -55 0 -4 -22 -18 -49 -32 -39 -19 -52 -32 -61 -61 -12 -35 -10
-90 6 -128 6 -16 3 -18 -27 -14 -19 3 -72 16 -119 30 -84 26 -255 52 -281 44
-8 -2 -36 -7 -63 -10 -43 -5 -47 -4 -41 12 4 9 11 33 16 52 9 41 -7 65 -58 86
l-32 14 20 46 c21 46 22 85 3 187 -6 37 -4 41 57 100 35 34 64 69 64 77 0 8
21 25 47 37 74 35 397 143 453 151 34 5 50 12 50 22 0 13 -21 15 -130 14 -115
-1 -143 -4 -243 -33 -63 -18 -116 -31 -118 -28 -2 2 34 30 80 63 85 59 106 85
106 128 0 38 -43 58 -144 68 -124 11 -127 13 -76 27 58 17 70 27 70 61 0 19
-9 35 -27 49 -27 20 -27 21 -9 36 11 9 27 43 37 82 l17 68 113 0 114 0 50 51
c28 29 53 52 58 53 4 1 7 -11 8 -26z m-3876 -238 c62 -157 84 -185 143 -185
25 0 30 5 42 43 7 23 28 73 47 110 27 55 38 67 51 62 9 -4 36 -10 60 -12 34
-5 49 -1 82 21 48 31 57 32 65 6 10 -32 43 -43 126 -42 l77 1 6 -72 c6 -66 -9
-405 -18 -415 -2 -2 -37 35 -77 82 -39 47 -79 88 -87 91 -24 9 -52 -5 -52 -26
0 -43 92 -293 148 -405 69 -135 70 -134 -38 -114 -127 24 -136 3 -46 -100 36
-41 66 -77 66 -80 0 -3 -20 -12 -45 -21 l-44 -16 -25 71 c-35 99 -78 247 -73
252 2 2 18 -7 36 -20 64 -47 129 -59 115 -22 -7 18 -194 161 -299 228 -64 41
-116 91 -216 207 -34 39 -69 54 -69 30 0 -6 17 -43 37 -82 51 -96 134 -183
222 -232 39 -21 69 -40 68 -42 -7 -7 -88 27 -217 91 -72 36 -141 66 -151 66
-81 0 130 -142 276 -186 33 -10 64 -21 69 -25 10 -8 -39 -99 -54 -99 -4 0 -32
29 -60 65 -47 60 -55 65 -90 65 l-38 0 -42 -115 c-23 -63 -45 -115 -49 -115
-4 0 -33 27 -66 61 -133 135 -188 118 -159 -49 16 -92 13 -102 -32 -102 -36 0
-98 -26 -178 -75 l-77 -46 -22 28 c-42 55 -131 144 -164 164 -23 15 -31 25
-24 33 5 6 19 84 30 172 12 89 35 217 52 285 34 141 34 173 2 177 -17 3 -26
-6 -41 -35 -31 -61 -72 -180 -97 -287 -14 -54 -26 -101 -28 -103 -6 -6 -16 62
-22 162 l-6 90 142 153 c127 136 146 152 175 152 l33 0 -1 -102 c-1 -96 2
-111 40 -222 54 -153 54 -162 0 -186 -24 -11 -55 -20 -70 -20 -16 0 -28 -5
-28 -10 0 -50 105 -175 184 -220 89 -52 144 -30 75 29 -93 80 -119 105 -112
111 4 3 26 12 48 19 82 27 82 37 14 212 -27 72 -48 133 -45 136 3 3 30 -15 61
-41 54 -44 109 -64 140 -52 12 4 15 23 15 83 2 244 47 480 120 623 l23 45 22
-90 c12 -50 35 -122 50 -160z m2200 69 c-77 -143 -86 -172 -60 -194 13 -11 26
-8 75 13 33 14 60 21 60 16 0 -5 -14 -38 -31 -72 -62 -122 -56 -148 40 -161
54 -7 58 -12 41 -62 -5 -16 -11 -87 -13 -158 l-5 -130 -49 -16 c-27 -9 -65
-26 -85 -38 l-36 -22 -36 42 c-20 23 -36 45 -36 50 0 5 26 25 57 45 52 33 55
37 38 49 -18 14 -26 12 -108 -26 -24 -12 -29 -11 -42 6 -23 29 -12 77 44 189
48 96 55 115 52 143 -2 18 -56 15 -74 -5 -32 -37 -127 -208 -127 -230 0 -14
-14 -37 -34 -56 -18 -18 -35 -38 -37 -44 -2 -7 -26 40 -54 104 -47 110 -75
149 -75 105 0 -10 14 -59 31 -108 20 -58 34 -124 40 -189 6 -55 15 -112 20
-127 7 -18 8 -32 1 -44 -9 -16 -13 -14 -32 19 -12 21 -36 45 -52 53 -28 15
-31 14 -64 -11 -41 -31 -32 -39 -118 90 -35 52 -64 112 -84 173 -17 50 -29 92
-26 92 3 0 31 -11 64 -25 71 -30 106 -32 119 -7 6 11 22 70 36 133 26 118 47
188 73 249 l16 35 7 -40 c4 -22 8 -80 9 -130 0 -92 14 -140 40 -140 8 0 31 29
50 65 51 93 73 124 199 275 99 120 226 243 237 232 3 -2 -29 -67 -71 -143z
m-2436 44 c-37 -109 -54 -195 -70 -355 -7 -73 -14 -133 -16 -133 -3 0 -32 21
-66 47 -34 26 -64 48 -65 50 -2 1 8 32 23 69 24 60 26 72 15 106 -6 22 -19 47
-30 58 -17 17 -17 19 24 57 52 50 205 183 210 183 2 0 -9 -37 -25 -82z m6344
45 c17 -8 60 -44 98 -79 72 -68 87 -75 170 -77 51 -2 54 -3 52 -27 -5 -46 -12
-66 -33 -90 -11 -13 -20 -30 -20 -38 0 -46 -122 -180 -269 -294 -62 -49 -81
-57 -81 -35 -1 6 -3 37 -6 68 -5 52 -2 62 54 176 32 66 69 134 80 151 32 45
29 72 -8 72 -24 0 -36 -10 -68 -52 -21 -29 -49 -71 -63 -93 l-24 -40 -2 40
c-5 72 -25 189 -39 223 -7 18 -20 32 -29 32 -14 0 -16 -7 -10 -48 8 -57 -18
-230 -42 -279 -9 -19 -23 -37 -30 -40 -9 -4 -47 26 -99 78 -119 118 -177 241
-126 267 9 5 60 17 112 26 52 10 122 30 155 46 33 16 69 31 80 33 32 9 115 -3
148 -20z m-3012 -62 c28 -67 53 -89 81 -72 11 7 22 10 24 8 3 -2 13 -35 24
-73 18 -63 18 -70 3 -79 -42 -27 -55 -43 -55 -69 0 -54 17 -61 190 -66 l157
-5 -49 -35 c-55 -40 -181 -190 -191 -228 -4 -17 0 -34 13 -51 19 -26 19 -26
-9 -48 -34 -29 -40 -29 -69 2 -41 43 -121 89 -204 116 l-79 26 92 63 c96 66
118 89 99 108 -11 11 -66 -7 -146 -47 -20 -10 -48 -22 -61 -26 l-23 -7 22 30
c20 27 80 206 80 238 0 31 -19 10 -71 -77 -69 -118 -237 -289 -282 -289 -32 0
-122 -90 -142 -143 -16 -41 -17 -42 -63 -42 -26 0 -58 -2 -72 -5 l-25 -5 3
130 c1 72 6 144 10 160 7 26 10 21 16 -40 9 -93 15 -115 32 -115 10 0 14 15
15 50 1 28 3 55 4 60 1 6 3 37 4 71 l1 60 26 -20 27 -21 43 35 c33 28 49 34
68 29 61 -15 211 70 313 178 52 55 103 130 144 207 11 22 23 41 25 41 2 0 13
-22 25 -49z m1620 -47 c7 -15 35 -45 61 -69 47 -42 47 -42 36 -83 -9 -35 -7
-47 11 -84 53 -109 169 -216 317 -294 l73 -39 -6 -130 c-4 -103 -2 -143 11
-194 9 -35 15 -66 13 -67 -5 -6 -137 80 -137 88 0 4 20 38 46 74 31 46 44 75
42 93 -4 31 -20 31 -133 -4 -43 -13 -78 -19 -81 -14 -3 6 0 59 7 120 14 132
10 141 -51 114 -22 -10 -42 -16 -44 -14 -2 2 -18 49 -36 104 -31 93 -65 175
-74 175 -21 0 -36 -17 -36 -39 0 -40 37 -150 70 -208 l30 -52 -28 10 c-62 24
-190 137 -240 212 -29 43 -62 50 -62 13 0 -32 68 -132 128 -188 26 -25 72 -56
100 -69 29 -13 52 -26 52 -29 0 -3 -16 -15 -34 -27 l-34 -22 -65 62 c-106 103
-157 119 -180 58 l-11 -29 -74 65 c-41 35 -94 74 -117 85 -41 20 -45 20 -69 4
-18 -11 -26 -25 -26 -46 0 -42 -15 -37 -29 9 -19 64 -10 73 82 86 27 3 50 12
53 19 2 6 -16 58 -41 115 -25 57 -44 105 -41 108 2 3 21 -11 43 -30 53 -48 74
-57 133 -57 46 0 51 3 61 28 6 15 11 53 11 85 0 31 4 57 8 57 5 0 18 -12 30
-27 31 -39 58 -52 111 -53 52 0 60 7 78 68 14 49 22 52 42 16z m2101 -100
c-28 -72 -10 -114 51 -114 15 0 27 -4 27 -10 0 -27 -26 -59 -61 -74 -26 -11
-60 -43 -96 -88 -57 -70 -75 -76 -54 -16 15 42 14 54 -5 72 -32 33 -57 19
-175 -96 -86 -84 -129 -135 -168 -200 -29 -49 -54 -88 -57 -88 -2 0 -4 56 -4
124 l0 124 48 30 c61 40 123 104 159 166 26 45 36 53 104 80 83 34 168 82 214
119 17 14 31 24 33 22 1 -1 -6 -24 -16 -51z m-3505 21 c18 -11 33 -23 33 -26
0 -3 -15 -13 -34 -22 -31 -14 -35 -14 -40 -1 -9 22 -7 76 2 72 4 -2 22 -12 39
-23z m4708 -73 c-28 -6 -45 7 -45 35 l0 27 31 -30 c24 -23 27 -30 14 -32z
m-629 -29 c-21 -155 -5 -219 56 -225 27 -2 33 -8 40 -36 5 -19 20 -40 37 -50
l28 -17 -29 -75 c-47 -121 -47 -121 -47 -72 -2 88 -43 107 -108 48 -49 -43
-163 -126 -173 -126 -5 0 -14 25 -21 56 -7 31 -19 63 -27 70 -26 27 -109 21
-219 -17 -48 -16 -90 -29 -95 -29 -4 0 -7 24 -6 53 1 29 -4 67 -11 85 -8 19
-10 36 -5 40 5 4 25 22 44 39 l36 33 39 -20 c62 -32 77 -27 145 48 65 70 93
91 124 92 10 0 54 34 97 75 43 41 84 75 90 75 7 0 9 -16 5 -47z m546 -25 c-6
-6 -15 -8 -19 -4 -4 4 -1 11 7 16 19 12 27 3 12 -12z m189 -102 c-9 -39 -16
-53 -26 -50 -13 5 -17 21 -30 129 l-6 50 37 -37 37 -37 -12 -55z m-2398 -18
c24 -18 52 -38 62 -44 17 -9 16 -15 -19 -77 -42 -75 -52 -85 -60 -60 -7 26
-36 183 -36 199 0 20 4 18 53 -18z m2573 -105 c-3 -3 -77 25 -84 32 -2 2 -1
13 3 25 7 21 9 21 46 -16 21 -21 37 -39 35 -41z m-2362 -45 c7 -78 32 -186 47
-205 6 -6 20 -14 33 -17 19 -5 36 6 90 59 36 36 70 65 75 65 4 0 11 -26 15
-57 4 -32 13 -86 22 -120 14 -56 14 -64 -1 -92 -8 -17 -18 -31 -21 -31 -4 0
-19 11 -36 25 -32 27 -92 34 -101 12 -3 -8 -11 -58 -17 -111 -14 -105 -23
-119 -62 -92 -26 18 -68 21 -68 5 0 -6 15 -47 34 -90 19 -43 30 -79 25 -79
-38 0 -228 169 -317 282 -34 43 -72 63 -72 38 0 -33 87 -155 162 -227 23 -23
68 -58 98 -77 30 -20 52 -36 49 -36 -18 0 -158 54 -242 94 -98 46 -127 54
-127 37 0 -15 64 -66 131 -103 67 -38 256 -102 333 -113 47 -7 58 -18 30 -29
-8 -3 -26 1 -39 10 -43 28 -66 15 -123 -68 l-53 -78 -117 -2 c-299 -5 -294 -5
-361 26 -33 16 -61 33 -61 37 0 3 27 14 60 23 46 13 60 21 60 36 0 37 -19 67
-61 95 -48 31 -149 123 -149 135 0 4 31 7 70 6 53 -1 73 3 87 16 16 17 15 22
-10 111 -20 69 -27 115 -27 181 0 81 14 211 26 246 4 9 25 -23 55 -82 50 -100
81 -132 121 -126 18 2 24 10 26 38 8 110 74 334 92 313 3 -4 14 -42 24 -83 41
-180 56 -210 104 -210 24 0 29 6 46 60 17 57 123 250 137 250 3 0 9 -32 13
-72z m2313 -9 c26 -12 69 -27 95 -33 44 -10 55 -20 143 -126 52 -63 95 -117
95 -121 0 -18 -64 -147 -83 -167 -17 -18 -71 -52 -83 -52 -1 0 -5 39 -9 88 -3
48 -8 97 -11 109 -5 25 -41 38 -141 49 l-61 6 -5 97 c-3 53 -9 113 -12 134 -9
45 1 47 72 16z m-3866 -98 c77 -75 117 -108 128 -104 26 9 41 35 41 70 0 18 4
33 9 33 15 0 81 -82 87 -107 11 -40 43 -29 139 49 33 26 67 48 77 48 9 0 27
10 39 23 l22 22 -6 -90 c-4 -49 -9 -107 -13 -127 -8 -48 -1 -48 113 -8 47 17
88 29 90 26 3 -2 -12 -29 -32 -59 -21 -32 -38 -69 -38 -88 -2 -31 3 -36 76
-78 42 -25 77 -49 77 -54 0 -5 -19 -8 -42 -7 -24 2 -58 2 -77 1 -31 -1 -33 -3
-26 -28 11 -47 50 -105 115 -171 l61 -62 -26 -10 c-15 -6 -32 -10 -38 -10 -7
0 -29 -5 -49 -10 -35 -10 -37 -13 -35 -47 2 -30 -3 -39 -22 -49 -74 -38 -78
68 -5 125 15 12 33 21 41 21 23 0 9 24 -19 34 -33 12 -88 -15 -111 -53 -10
-17 -17 -50 -17 -80 0 -50 0 -50 -40 -61 -59 -16 -87 -88 -68 -172 7 -32 5
-46 -8 -65 -12 -19 -14 -38 -10 -77 4 -28 6 -71 6 -94 0 -36 5 -49 30 -72 l30
-28 -26 -17 c-33 -22 -29 -55 11 -75 54 -28 57 -30 44 -46 -16 -20 -29 -17
-29 6 0 10 -9 24 -19 29 -29 16 -45 -10 -38 -62 4 -32 14 -49 41 -72 32 -27
34 -32 21 -49 -9 -12 -15 -43 -15 -76 0 -47 4 -62 26 -85 14 -15 24 -29 22
-30 -3 -3 -81 -20 -150 -32 -41 -8 -45 18 -13 89 36 81 32 150 -11 185 -54 43
-131 66 -222 66 -97 0 -93 -12 -41 130 l32 87 57 0 c31 0 92 -9 135 -20 91
-23 115 -25 115 -7 0 14 -88 68 -144 88 -20 7 -36 17 -36 21 0 5 11 30 25 57
43 82 50 151 36 337 l-12 164 51 97 c27 54 77 132 110 172 59 74 66 91 41 99
-17 6 -137 -118 -190 -196 -24 -35 -47 -60 -51 -55 -7 8 -32 163 -45 283 -7
68 -19 90 -37 72 -23 -23 -19 -231 7 -397 8 -48 7 -49 -12 -35 -81 59 -187
141 -234 182 -59 51 -69 56 -69 34 0 -13 73 -84 318 -312 l55 -51 -34 -42
c-36 -46 -110 -104 -145 -115 -18 -5 -22 0 -32 43 -17 75 -51 141 -72 141 -36
0 -50 -28 -50 -96 0 -48 -3 -64 -14 -64 -18 0 -109 100 -142 156 -41 70 -79
52 -90 -45 -9 -80 -12 -84 -60 -68 -51 18 -57 47 -15 86 43 41 41 76 -9 142
-54 72 -50 88 24 110 33 10 63 24 67 31 15 23 10 72 -11 106 -25 40 -25 41 0
35 11 -3 33 0 50 7 22 9 30 20 32 43 4 42 -15 130 -42 190 -12 27 -19 51 -17
54 3 2 22 -7 44 -21 65 -43 114 -56 151 -40 27 11 32 18 32 48 0 19 -4 45 -9
59 -23 60 -39 127 -30 127 5 0 59 -49 120 -109z m2202 34 c8 -104 58 -136 120
-77 l29 27 -2 -45 c-4 -73 -1 -89 20 -110 28 -28 61 -25 138 14 71 36 202 79
212 70 9 -10 8 -197 -2 -269 -7 -47 -16 -75 -29 -87 -27 -23 -24 -49 11 -93
17 -21 30 -41 30 -44 0 -4 -16 -15 -35 -25 -19 -10 -42 -27 -51 -37 -21 -23
-10 -57 22 -65 13 -3 24 -9 24 -13 0 -4 -18 -25 -41 -46 -89 -87 -92 -153 -7
-160 52 -4 39 -19 -32 -37 -97 -24 -98 -24 -111 25 -6 23 -15 47 -21 54 -5 6
-51 21 -101 33 -134 31 -129 28 -117 50 6 10 10 34 10 53 0 38 65 178 142 305
50 83 58 124 26 130 -9 2 -26 -7 -38 -20 -38 -41 -130 -186 -165 -260 l-34
-73 -1 45 c0 25 -1 103 -2 173 -1 88 -5 133 -14 145 -12 15 -15 15 -24 2 -5
-8 -10 -33 -11 -55 0 -22 -2 -49 -5 -60 -4 -21 -5 -237 -1 -269 1 -10 -3 -21
-9 -23 -14 -5 -52 68 -100 191 -35 89 -55 119 -70 103 -7 -7 38 -147 77 -237
15 -35 25 -68 23 -72 -7 -10 -44 -10 -45 0 -1 4 -3 22 -5 41 -6 49 -20 61 -73
61 -36 0 -70 -11 -140 -45 -51 -25 -94 -45 -97 -45 -5 0 -57 112 -68 148 -7
20 -4 22 37 22 53 0 54 2 62 108 9 105 11 110 38 84 29 -27 75 -44 98 -37 11
4 36 42 60 93 22 48 65 128 95 179 53 91 147 213 163 213 5 0 11 -29 14 -65z
m-2379 -25 c15 -38 15 -43 2 -30 -9 8 -19 31 -22 50 -9 44 -2 38 20 -20z
m-3354 -215 c36 -20 112 -53 170 -71 104 -34 105 -34 130 -16 26 19 26 19 64
-14 49 -43 102 -67 130 -60 31 8 44 42 52 133 3 43 9 81 13 86 8 8 108 -146
130 -199 11 -29 46 -54 72 -54 6 0 24 10 41 21 23 17 32 19 38 9 19 -30 48
-270 33 -270 -3 0 -43 36 -89 80 -80 77 -120 100 -145 85 -16 -10 -5 -129 22
-255 26 -117 48 -231 48 -247 1 -20 -25 -16 -79 12 -53 27 -100 33 -100 13 0
-7 16 -51 35 -98 40 -96 42 -110 18 -111 -48 -2 -118 -10 -121 -14 -3 -2 1
-18 7 -36 6 -18 10 -33 9 -35 -9 -8 -215 -44 -253 -44 -76 0 -290 80 -360 134
-19 15 -18 15 18 16 46 0 107 27 107 46 0 7 -34 33 -76 56 -42 24 -93 55 -114
70 -38 27 -125 127 -117 134 2 3 23 -3 47 -11 53 -19 139 -19 163 0 18 13 15
17 -40 77 -54 58 -133 166 -133 182 0 4 27 18 60 33 37 16 60 32 60 42 0 8
-26 42 -57 74 l-58 59 52 -7 c56 -7 113 6 133 30 13 16 -7 62 -88 211 -21 38
-46 90 -56 115 l-18 44 94 -91 c51 -50 122 -108 158 -129z m2122 160 c32 -9
79 -25 105 -36 56 -24 143 -105 143 -133 0 -11 5 -34 12 -52 11 -31 10 -34
-47 -98 -47 -54 -58 -74 -62 -110 -5 -40 -3 -45 29 -70 19 -14 41 -26 49 -26
30 -1 -16 -18 -66 -25 -75 -10 -79 -14 -85 -97 -6 -81 3 -75 -92 -62 l-48 7
-57 -118 c-48 -99 -59 -115 -68 -99 -48 85 -162 158 -270 173 -71 10 -145 49
-145 76 0 23 -37 55 -63 55 -16 0 -42 22 -85 69 -53 60 -62 75 -62 108 0 21
-7 51 -15 67 -15 28 -15 31 16 62 44 45 115 81 192 98 l67 13 49 -47 c53 -50
103 -144 141 -265 25 -79 53 -116 72 -97 9 9 5 38 -16 129 -29 122 -59 195
-95 227 -30 28 -26 35 17 29 136 -19 207 -55 278 -143 75 -93 108 -96 63 -7
-37 73 -95 142 -154 182 l-58 40 69 5 c55 4 69 8 72 22 5 28 -40 39 -169 39
-66 1 -119 3 -119 6 0 14 47 67 74 85 28 18 43 19 151 14 66 -3 146 -12 177
-21z m5149 -71 c-5 -111 30 -138 151 -114 33 6 64 8 68 3 4 -4 11 -50 14 -102
4 -52 12 -106 19 -120 15 -31 49 -38 82 -17 33 22 34 21 28 -23 -4 -27 0 -48
13 -71 l19 -32 -70 -64 c-68 -62 -71 -64 -126 -64 -45 0 -60 -4 -77 -23 -37
-40 -55 -96 -53 -174 0 -40 -3 -73 -7 -73 -5 0 -16 26 -26 58 -10 31 -33 78
-52 105 -38 53 -40 66 -18 108 8 17 21 62 28 99 16 82 20 279 7 299 -12 19
-18 -6 -25 -115 -8 -110 -53 -284 -74 -284 -5 0 -19 11 -32 25 -44 47 -58 17
-15 -33 28 -33 33 -57 11 -49 -76 29 -185 32 -252 7 -17 -7 -32 -6 -45 1 -31
16 -168 14 -211 -4 -55 -23 -128 -76 -128 -92 0 -26 21 -26 66 0 67 39 150 65
211 65 l54 0 -34 -30 c-19 -16 -44 -51 -55 -78 -24 -55 -47 -175 -38 -198 8
-20 26 -8 26 17 0 11 14 56 31 101 31 80 96 168 124 168 20 0 46 -79 52 -157
5 -55 9 -73 21 -73 21 0 12 162 -12 208 -9 18 -14 37 -11 42 3 6 39 10 79 10
57 0 83 -5 121 -25 33 -16 51 -21 56 -14 4 7 19 -7 36 -32 41 -60 75 -128 69
-138 -3 -4 -29 -11 -58 -14 -65 -6 -189 -65 -236 -110 -18 -18 -47 -56 -63
-84 -26 -45 -33 -52 -49 -43 -35 19 -61 10 -113 -39 -45 -42 -56 -48 -84 -44
-29 5 -39 -2 -101 -65 l-69 -70 -33 15 c-19 7 -36 15 -38 18 -2 2 18 45 44 95
39 77 46 96 38 119 -13 37 -61 40 -111 7 -20 -14 -38 -24 -40 -22 -2 2 10 42
28 90 34 96 33 132 -5 142 -13 3 -40 -2 -61 -10 -21 -9 -41 -16 -45 -16 -8 0
-5 84 5 123 9 34 -5 53 -47 61 l-31 6 52 54 c53 57 64 93 36 116 -11 9 -13 16
-5 24 15 15 12 48 -10 91 -11 22 -20 41 -20 43 0 7 251 -7 312 -17 31 -5 66
-15 78 -21 11 -6 20 -9 20 -6 0 3 24 -3 53 -13 28 -10 58 -16 65 -14 7 3 12
25 12 60 l0 54 26 -20 c46 -36 59 -28 101 57 32 63 44 78 65 80 22 3 31 15 62
90 47 113 52 120 68 104 18 -18 46 -15 53 7 9 28 66 104 73 97 3 -4 4 -31 3
-62z m-9118 3 c8 -12 27 -54 42 -92 15 -39 40 -89 56 -112 31 -48 31 -49 -26
-29 -22 8 -73 18 -112 21 -61 6 -76 12 -99 36 l-27 28 67 85 c37 47 71 86 75
86 5 0 15 -10 24 -23z m8411 -29 c3 -13 8 -43 11 -68 3 -25 22 -84 41 -131 18
-48 34 -92 34 -99 0 -9 -13 -11 -47 -6 -27 4 -101 9 -166 13 -103 5 -117 8
-112 22 4 9 9 53 12 99 5 76 8 84 29 93 53 19 111 49 144 73 44 31 49 31 54 4z
m-5375 -69 l52 -42 -22 -23 c-32 -34 -37 -106 -11 -152 11 -20 22 -59 24 -87
3 -45 1 -50 -19 -53 -13 -2 -31 -14 -42 -28 -23 -29 -31 -30 -54 -3 -13 15
-27 19 -55 17 -33 -3 -40 -8 -65 -55 -16 -29 -35 -53 -43 -53 -17 0 -17 10 1
85 8 33 14 86 15 119 0 57 1 60 47 99 47 42 86 113 98 181 4 20 11 36 15 36 4
0 31 -19 59 -41z m6726 -214 c106 -149 215 -317 215 -331 -1 -5 -20 -21 -44
-37 l-44 -27 -44 19 c-24 10 -58 22 -76 26 -44 9 -48 22 -17 55 20 21 25 34
20 50 -7 21 -12 22 -59 16 -29 -3 -78 -15 -111 -26 -77 -26 -90 -25 -60 5 29
28 33 80 11 123 -20 38 -7 96 44 207 40 85 43 88 57 70 8 -11 57 -79 108 -150z
m-8643 127 c25 -41 104 -112 128 -113 11 -1 28 -2 37 -3 12 -1 23 14 36 49 10
28 22 54 26 58 9 9 121 -243 121 -271 0 -16 73 -134 120 -194 27 -35 16 -35
-56 -3 -62 27 -91 25 -103 -7 -6 -18 -11 -12 -35 36 -40 81 -116 161 -173 180
-58 20 -73 20 -73 1 0 -8 22 -26 49 -39 66 -34 103 -67 145 -130 59 -89 53
-95 -20 -20 -86 88 -155 123 -260 131 -63 5 -74 3 -80 -11 -9 -25 4 -34 64
-46 52 -10 139 -48 180 -81 22 -17 20 -17 -72 -12 -79 5 -100 3 -121 -11 -47
-31 -31 -39 61 -31 103 8 202 -12 267 -56 23 -16 50 -29 61 -29 16 0 18 6 13
40 l-5 41 37 -53 37 -53 -58 -3 c-49 -2 -63 1 -91 21 -35 27 -86 40 -106 28
-9 -6 -10 -27 -5 -79 4 -50 3 -72 -5 -72 -6 0 -55 25 -109 55 -107 60 -172 73
-172 36 0 -13 -10 -20 -32 -25 -17 -3 -34 -4 -37 -1 -3 3 0 26 7 50 17 65 16
95 -5 95 -10 0 -63 -11 -118 -24 -55 -14 -102 -23 -103 -21 -2 2 2 19 9 39 9
26 10 41 2 59 -13 29 -46 37 -144 37 -38 0 -69 3 -69 8 1 14 140 113 202 142
35 17 80 30 101 30 33 0 37 3 37 26 0 14 -7 53 -16 86 -8 33 -13 62 -10 65 2
2 21 -11 43 -30 59 -53 113 -87 140 -87 20 0 30 13 62 80 22 44 44 93 49 110
14 37 23 38 44 2z m-1265 -79 c16 -28 22 -50 18 -63 -4 -12 -1 -28 6 -36 12
-14 17 -159 7 -170 -3 -2 -22 3 -44 12 -23 10 -82 19 -145 23 l-107 6 107 152
c118 169 105 164 158 76z m322 -104 c48 -28 114 -75 147 -104 l59 -53 -57 -59
c-41 -41 -58 -66 -58 -85 0 -49 46 -63 127 -38 69 21 153 32 170 22 8 -5 8
-19 -2 -57 -15 -59 -5 -97 29 -113 30 -14 59 -6 112 30 46 31 133 72 139 66 2
-2 -3 -24 -11 -48 -31 -89 7 -125 94 -91 l52 21 19 -38 c20 -40 36 -102 27
-102 -4 0 -50 22 -104 49 -152 76 -272 104 -272 64 0 -10 27 -54 60 -97 33
-44 58 -81 57 -83 -2 -2 -39 6 -82 17 -129 33 -247 23 -230 -20 3 -8 43 -35
90 -59 46 -24 99 -56 117 -71 l32 -27 -28 -34 c-16 -19 -42 -49 -57 -67 l-29
-33 -58 47 c-67 55 -149 95 -194 96 -131 1 -249 -32 -258 -72 -5 -23 -37 -42
-53 -33 -4 3 -25 2 -47 -2 -36 -6 -40 -11 -61 -63 -12 -31 -30 -73 -40 -94
-18 -35 -19 -36 -54 -26 -53 17 -102 -3 -176 -70 -68 -62 -151 -122 -168 -122
-7 0 -11 26 -11 65 0 117 -32 155 -115 142 l-35 -6 16 37 c8 20 49 90 90 154
79 123 83 139 46 181 -17 20 -110 24 -143 7 -38 -21 -20 17 51 107 75 93 78
103 54 180 -8 27 30 53 124 84 34 11 62 25 62 30 0 19 -27 74 -43 88 -10 7
-17 18 -17 23 0 13 64 38 143 54 62 13 75 13 124 -1 30 -9 65 -27 77 -40 14
-15 33 -23 52 -23 45 1 74 -11 131 -53 58 -43 79 -76 89 -136 6 -37 3 -42 -30
-70 -21 -17 -105 -56 -199 -92 -171 -67 -193 -80 -184 -105 9 -23 45 -20 161
13 136 39 146 41 146 29 0 -5 -65 -76 -145 -157 -80 -81 -145 -153 -145 -159
0 -30 49 -4 181 96 156 116 248 204 274 259 9 19 18 33 20 31 2 -2 6 -55 10
-118 4 -63 9 -117 11 -120 3 -2 13 1 22 6 14 9 18 31 20 125 2 63 -2 134 -8
158 -6 24 -9 45 -7 47 12 12 138 -46 208 -97 77 -55 119 -73 119 -49 0 12
-106 139 -129 156 -24 17 -145 55 -198 62 -44 7 -47 10 -78 67 -25 47 -45 69
-93 102 -33 22 -79 44 -101 48 -58 10 -65 22 -50 94 6 34 16 61 21 61 5 0 42
-18 83 -40 40 -23 76 -37 79 -32 11 19 -23 56 -99 105 -56 37 -85 63 -96 87
-10 19 -15 38 -13 42 8 13 141 -41 233 -93z m2567 -246 c33 -18 78 -35 100
-39 l41 -6 17 46 c22 57 32 63 59 38 12 -12 41 -24 63 -28 38 -6 43 -4 63 25
12 17 26 31 30 31 4 0 36 -50 70 -111 35 -61 88 -137 117 -169 30 -31 54 -61
54 -64 0 -4 -15 -20 -34 -36 -19 -17 -60 -62 -91 -100 -47 -58 -62 -70 -87
-70 -26 0 -32 6 -59 65 -16 36 -41 107 -55 158 -33 119 -40 137 -59 137 -20 0
-19 -31 6 -135 11 -48 19 -91 17 -97 -6 -16 -142 116 -178 172 -30 47 -50 63
-50 40 0 -20 58 -125 93 -170 20 -24 35 -45 34 -47 -2 -1 -39 9 -82 22 -44 14
-90 25 -102 25 -34 0 -28 -28 10 -44 17 -8 84 -38 147 -66 63 -29 130 -58 148
-65 l34 -12 -45 -26 c-24 -14 -69 -47 -100 -72 l-56 -45 -38 22 c-33 20 -52
23 -153 23 -137 0 -193 -16 -293 -82 -61 -40 -84 -63 -170 -168 l-25 -30 -54
51 c-33 31 -79 61 -121 79 -63 26 -68 31 -64 54 12 58 27 83 45 76 33 -14 136
-22 177 -14 23 4 83 25 133 47 l90 39 43 -29 c23 -15 46 -28 50 -28 20 0 19
25 -1 52 -25 35 -23 39 27 47 51 8 53 31 10 112 -19 35 -37 74 -41 86 -7 22
-6 22 26 9 33 -14 64 -19 106 -17 19 1 22 6 22 42 0 23 -12 94 -26 158 -32
143 -53 269 -46 276 4 3 36 -25 72 -62 37 -39 92 -82 126 -100z m559 -83 c40
-64 75 -88 75 -52 1 42 16 45 62 12 27 -19 63 -34 94 -39 l49 -7 -37 -6 c-20
-4 -60 -23 -90 -42 -29 -20 -58 -36 -63 -36 -26 0 -175 230 -175 270 0 15 51
-45 85 -100z m905 95 c9 -11 8 -22 -7 -54 -20 -45 -29 -49 -49 -23 -20 26 -17
59 8 76 28 20 32 20 48 1z m5440 -29 c-12 -31 2 -43 66 -55 87 -17 217 -74
244 -107 12 -13 10 -19 -13 -37 -26 -21 -27 -26 -24 -94 2 -40 10 -79 17 -87
21 -27 4 -43 -53 -50 -80 -10 -118 -53 -157 -178 -11 -35 -20 -74 -20 -88 -1
-46 -13 -54 -51 -34 -50 26 -117 22 -179 -12 l-52 -28 -41 22 c-49 26 -90 28
-131 7 -15 -8 -42 -15 -58 -15 -23 0 -29 -4 -24 -15 9 -24 -6 -17 -46 22 -36
35 -40 37 -70 25 -30 -11 -34 -9 -75 29 -41 38 -46 40 -88 33 l-45 -6 0 52 c0
55 40 172 69 202 33 34 151 89 221 104 40 8 74 13 76 11 9 -9 54 -201 54 -229
0 -24 12 -60 25 -76 2 -2 13 2 25 8 21 11 22 16 16 104 -4 50 -12 106 -18 124
-5 18 -8 35 -6 37 12 12 86 -42 174 -127 95 -92 134 -116 134 -84 0 24 -86
130 -152 188 -75 65 -91 75 -155 88 l-49 11 4 67 c5 82 36 161 66 167 11 2 59
6 106 9 47 3 108 12 135 20 76 22 86 21 75 -8z m-5105 -9 c26 -22 27 -24 12
-59 -8 -20 -27 -44 -42 -54 -25 -16 -27 -16 -50 6 -14 13 -25 32 -25 41 0 19
56 89 70 89 5 0 21 -10 35 -23z m105 13 c0 -5 -4 -10 -9 -10 -6 0 -13 5 -16
10 -3 6 1 10 9 10 9 0 16 -4 16 -10z m2648 -23 c9 -24 24 -39 57 -55 57 -28
65 -28 125 3 60 30 60 30 60 2 0 -37 20 -53 95 -77 39 -12 74 -26 79 -30 4 -5
-10 -20 -33 -34 -22 -15 -41 -32 -41 -39 1 -29 42 -98 109 -181 52 -65 68 -92
61 -101 -6 -7 -65 -36 -133 -65 -127 -54 -151 -68 -228 -131 -35 -30 -71 -78
-85 -117 0 -1 -17 13 -36 31 -59 55 -103 72 -188 71 -56 -1 -91 -8 -141 -27
-36 -15 -68 -27 -71 -27 -4 0 -16 16 -28 35 -19 30 -20 40 -11 67 6 17 11 53
11 81 l0 50 54 -6 c56 -6 161 -52 240 -106 22 -16 51 -31 63 -35 29 -9 40 12
11 23 -13 5 -41 23 -63 41 -22 18 -75 50 -118 70 -93 44 -88 49 56 57 120 7
205 -13 271 -63 44 -33 66 -42 66 -26 0 19 -80 83 -134 108 -78 36 -219 45
-314 20 -78 -20 -88 -20 -74 -3 44 53 149 331 130 343 -15 10 -23 -3 -72 -118
-60 -142 -90 -199 -114 -221 -19 -18 -21 -17 -72 32 -29 28 -57 51 -62 51 -17
0 -6 23 48 102 30 45 71 112 89 149 19 37 39 70 44 73 5 4 21 -5 35 -19 14
-14 35 -25 48 -25 13 0 70 30 128 65 58 35 110 65 115 65 6 0 16 -15 23 -33z
m-2558 -27 c26 -51 25 -64 -6 -89 -32 -25 -38 -26 -58 -5 -24 23 -20 83 6 111
12 13 25 23 30 23 4 0 17 -18 28 -40z m-412 18 c19 -19 14 -44 -14 -77 -35
-41 -64 -41 -64 -1 0 66 45 111 78 78z m543 -28 c5 0 9 -4 9 -10 0 -14 -13
-12 -36 6 -17 14 -17 15 -1 10 10 -3 23 -6 28 -6z m5259 -205 c108 -197 119
-222 98 -222 -7 0 -37 -5 -66 -12 -29 -8 -55 -11 -57 -9 -2 2 1 23 7 46 17 67
6 88 -52 102 -27 7 -50 15 -50 19 0 4 13 25 30 47 35 46 38 79 10 94 -21 11
-89 80 -90 91 0 7 40 27 56 28 6 1 57 -82 114 -184z m-5941 128 c15 -34 13
-54 -8 -82 -39 -51 -82 8 -60 82 12 41 15 44 35 35 12 -6 27 -21 33 -35z
m-139 -29 c5 -12 12 -38 15 -58 9 -43 -3 -46 -48 -12 -18 14 -44 29 -60 35
-32 13 -33 20 -7 54 18 23 23 24 56 14 21 -6 39 -20 44 -33z m2170 10 c58 -30
68 -39 59 -51 -10 -12 -17 -9 -43 15 -17 17 -46 37 -63 46 -29 15 -42 26 -28
26 2 0 36 -16 75 -36z m-1064 -22 c-12 -11 -36 9 -36 30 l1 23 20 -24 c11 -13
17 -26 15 -29z m487 -18 c15 -70 4 -157 -29 -221 -26 -51 -33 -58 -59 -58 -25
0 -30 4 -32 25 -6 60 -26 166 -34 182 -7 14 2 24 45 53 30 20 60 42 67 51 18
22 32 12 42 -32z m-771 9 c31 -30 36 -54 13 -73 -18 -15 -31 -7 -50 29 -13 25
-11 71 3 71 3 0 19 -12 34 -27z m1077 -4 c9 -27 8 -33 -14 -55 -37 -37 -53
-28 -45 25 2 19 30 61 40 61 5 0 13 -14 19 -31z m-2283 -4 c-4 -10 3 -19 19
-27 17 -8 30 -28 45 -71 11 -34 20 -67 20 -74 0 -8 -20 -22 -45 -33 -104 -45
-295 -187 -295 -220 0 -29 30 -25 79 10 77 56 216 131 280 150 89 28 95 25 27
-13 -64 -34 -207 -168 -251 -236 -26 -38 -28 -71 -5 -71 5 0 47 34 92 76 100
92 196 156 297 200 84 37 101 62 56 82 -14 6 -25 16 -25 21 0 5 -19 12 -42 16
-68 11 -69 13 -49 73 10 29 21 55 24 58 5 5 89 -44 150 -88 9 -7 23 -37 31
-66 7 -30 21 -61 29 -70 15 -14 13 -19 -23 -59 -47 -50 -50 -76 -19 -158 15
-40 29 -59 51 -71 22 -12 28 -19 21 -32 -4 -9 -8 -43 -8 -74 0 -67 25 -108 75
-122 24 -7 36 -19 50 -50 9 -23 27 -49 38 -60 15 -13 20 -26 15 -46 -7 -38 13
-96 43 -119 13 -10 24 -29 24 -42 1 -48 37 -109 74 -124 74 -31 112 -9 125 73
5 26 12 38 26 40 11 2 31 14 43 25 21 20 23 28 18 78 -10 82 -5 87 55 75 46
-9 55 -8 93 12 22 13 35 17 29 11 -17 -17 -17 -45 0 -52 17 -6 125 2 168 13
20 6 57 26 82 45 l45 34 11 -63 c16 -90 14 -102 -19 -138 l-29 -33 -1 73 c0
42 -4 72 -10 72 -19 0 -32 -55 -39 -170 l-8 -115 -51 -74 c-100 -143 -149
-331 -138 -523 3 -59 9 -114 12 -123 5 -13 2 -15 -19 -10 -13 4 -78 7 -143 8
-116 2 -121 1 -185 -30 -92 -46 -188 -136 -196 -185 -5 -35 8 -68 26 -68 4 0
23 15 43 34 26 25 50 37 83 42 50 7 191 1 201 -9 13 -12 -31 -101 -73 -148
-66 -73 -94 -78 -234 -44 -139 34 -242 36 -384 6 -137 -28 -224 -73 -303 -155
-34 -35 -62 -73 -62 -84 0 -27 27 -47 60 -44 26 2 28 -1 38 -55 6 -32 14 -115
17 -184 3 -69 8 -136 10 -150 2 -13 11 -105 20 -204 9 -99 25 -242 36 -318 24
-175 24 -213 -2 -256 -11 -19 -24 -52 -27 -74 -7 -37 -10 -41 -54 -52 -26 -6
-65 -24 -87 -39 l-39 -27 -129 54 c-226 97 -433 203 -628 322 -173 106 -518
285 -755 393 -150 68 -143 48 -77 214 32 79 62 150 67 158 7 11 28 15 82 15
59 0 85 5 133 28 108 50 157 116 169 222 3 33 15 89 26 123 23 73 25 144 8
253 -10 70 -9 83 10 145 34 110 37 152 13 228 -27 88 -28 197 -2 263 41 107
35 187 -25 325 -39 88 -41 99 -15 122 23 21 25 20 50 -82 30 -117 39 -132 72
-132 25 0 33 8 64 69 19 38 39 72 45 76 5 3 39 -53 78 -132 64 -130 70 -138
100 -141 29 -3 34 1 78 78 45 77 48 80 65 64 13 -12 19 -31 19 -61 0 -35 6
-50 28 -72 23 -23 27 -35 24 -67 -3 -29 3 -48 20 -74 30 -44 63 -61 113 -58
l40 3 3 49 c3 44 5 48 25 42 12 -4 40 -9 63 -12 54 -8 93 23 101 81 5 35 11
42 49 61 37 17 46 19 55 8 6 -8 23 -14 38 -14 23 1 31 11 69 90 23 50 46 90
51 90 4 0 16 -21 26 -47 38 -102 105 -224 130 -235 35 -16 55 -4 55 34 0 36
34 185 44 195 9 9 9 8 63 -107 58 -123 123 -210 156 -210 22 0 23 2 21 113 -2
120 10 255 23 268 5 5 29 3 53 -4 79 -23 84 -18 77 81 -6 87 -21 120 -50 109
-8 -3 -17 -26 -21 -57 -4 -28 -10 -50 -14 -48 -45 24 -88 39 -106 36 -33 -5
-46 -62 -47 -215 0 -78 -4 -132 -9 -127 -10 11 -110 240 -110 254 0 14 -42 40
-67 40 -28 0 -32 -7 -64 -120 l-26 -95 -27 53 c-15 29 -38 85 -53 125 -14 40
-31 75 -37 79 -29 19 -57 7 -88 -37 -18 -25 -36 -45 -41 -45 -5 0 -6 23 -3 53
3 28 6 70 6 92 -1 22 4 70 10 107 l12 66 52 -5 52 -5 43 57 43 57 24 -24 c24
-23 24 -25 9 -67 -22 -63 -22 -157 0 -181 21 -23 45 -11 45 21 0 23 45 148 58
161 6 6 28 -29 61 -98 29 -60 59 -116 68 -126 19 -21 43 -24 43 -4 0 17 -71
189 -111 267 -28 56 -30 89 -5 89 22 0 100 -58 121 -90 21 -32 45 -40 45 -15
0 47 -75 128 -129 140 -37 8 -38 19 -10 109 24 80 19 109 -19 104 -23 -3 -35
-19 -85 -118 -33 -63 -62 -116 -66 -118 -5 -1 -14 4 -21 13 -14 17 -52 20 -79
5 -10 -5 -33 -32 -51 -60 -18 -27 -35 -50 -39 -50 -3 0 -15 19 -26 43 -16 33
-26 43 -48 45 -36 4 -68 -30 -144 -153 -31 -52 -60 -91 -64 -87 -4 4 -3 38 2
75 11 89 1 117 -43 117 -28 0 -43 -10 -100 -72 -66 -71 -67 -72 -52 -33 22 55
81 171 111 218 21 34 23 42 13 72 -7 22 -18 35 -32 37 -12 2 -23 8 -25 14 -4
11 56 104 103 161 22 27 25 39 20 68 -5 25 -15 39 -32 47 -13 6 -24 14 -24 18
0 14 129 158 192 213 106 93 157 125 144 92z m979 -6 c0 -7 -8 -15 -17 -17
-18 -3 -25 18 -11 32 10 10 28 1 28 -15z m-226 -31 c13 -22 12 -29 -5 -64 -34
-70 -104 -70 -104 0 0 38 9 52 46 76 35 22 45 21 63 -12z m76 22 c3 -5 1 -10
-4 -10 -6 0 -11 5 -11 10 0 6 2 10 4 10 3 0 8 -4 11 -10z m881 -69 c2 -7 11
-10 19 -7 18 7 18 8 0 -45 -15 -43 -41 -79 -56 -79 -4 0 -13 15 -19 34 -6 19
-18 40 -26 47 -28 23 -38 -6 -39 -113 0 -83 -5 -116 -25 -172 -24 -65 -30 -74
-90 -116 -59 -42 -69 -54 -117 -150 -39 -79 -67 -120 -111 -163 l-59 -59 2 52
c3 51 5 53 43 70 53 24 75 58 67 103 -6 30 -4 36 13 41 11 4 37 25 57 48 34
37 37 45 32 85 -4 36 -1 48 14 61 10 9 19 28 19 42 0 15 12 37 31 54 29 27 31
33 25 77 -6 44 -4 49 29 82 31 31 35 41 35 88 0 51 0 52 20 34 14 -13 28 -16
54 -11 29 6 37 13 47 44 l13 37 9 -35 c5 -19 11 -41 13 -49z m798 60 c21 -23
15 -36 -26 -57 -56 -29 -106 7 -76 55 17 28 78 29 102 2z m-1056 -13 c20 -20
14 -43 -23 -78 -31 -30 -38 -33 -62 -24 -21 7 -29 17 -31 40 -3 33 7 46 53 62
40 14 49 14 63 0z m1295 -7 c15 -15 11 -60 -8 -81 -27 -30 -72 -42 -90 -24
-20 20 -19 74 1 103 14 19 23 22 52 17 19 -3 40 -10 45 -15z m330 -8 c-3 -10
-12 -26 -18 -36 -11 -16 -13 -15 -17 13 -5 34 -2 40 23 40 13 0 17 -5 12 -17z
m-2160 -14 c14 -22 1 -66 -24 -80 -16 -8 -23 -8 -29 1 -7 12 -7 17 5 73 6 31
30 34 48 6z m157 6 c23 -28 -20 -106 -47 -84 -25 21 -12 99 17 99 10 0 23 -7
30 -15z m1750 -10 c0 -8 -7 -15 -15 -15 -8 0 -15 7 -15 15 0 8 7 15 15 15 8 0
15 -7 15 -15z m150 2 c0 -14 -40 -37 -65 -37 -21 0 -28 19 -15 35 16 19 80 20
80 2z m-5236 -49 c77 -88 96 -136 96 -243 l0 -92 -57 -28 c-37 -18 -62 -24
-71 -19 -7 5 -30 40 -50 78 -39 74 -84 118 -102 100 -12 -12 10 -67 60 -151
29 -49 30 -53 12 -53 -11 0 -46 16 -78 35 -63 38 -140 65 -186 65 -58 0 -28
-28 74 -71 66 -27 73 -39 25 -39 -57 0 -138 -29 -238 -86 -120 -68 -132 -69
-114 -10 11 37 11 47 -1 65 -8 12 -24 21 -35 21 -30 0 -23 22 18 56 35 29 36
32 24 61 -12 30 -35 51 -126 110 -70 47 -31 44 99 -7 108 -42 136 -48 136 -27
0 15 -63 120 -102 170 -17 21 -28 40 -26 43 3 2 55 -21 116 -51 117 -59 214
-87 232 -69 7 7 2 37 -19 95 -16 46 -28 85 -26 87 6 7 128 -69 161 -100 30
-28 96 -52 108 -40 4 3 6 38 6 79 0 40 4 73 9 73 5 0 30 -24 55 -52z m255 3
c53 -28 53 -42 -2 -35 -34 5 -47 2 -67 -15 l-25 -21 34 -29 c18 -16 71 -50
117 -76 46 -26 81 -52 78 -57 -4 -6 2 -37 11 -69 10 -33 15 -62 11 -66 -4 -4
-46 3 -94 15 -48 12 -100 23 -117 24 l-30 3 3 71 c4 64 0 80 -32 154 -34 78
-43 119 -31 132 10 10 103 -11 144 -31z m6155 24 c-4 -9 3 -19 18 -26 19 -8
43 -6 106 9 45 10 84 17 86 14 3 -2 -4 -17 -16 -32 -26 -35 -18 -77 15 -85 14
-4 51 4 90 19 37 14 67 21 67 17 0 -5 -14 -48 -32 -96 l-31 -86 20 -27 c17
-22 28 -27 62 -26 35 1 41 -2 35 -15 -21 -54 -22 -71 -3 -95 11 -13 33 -27 49
-31 17 -4 30 -10 30 -15 0 -4 -21 -20 -46 -35 -46 -27 -46 -28 -40 -69 4 -22
9 -51 12 -63 7 -25 -27 -47 -91 -58 -50 -9 -75 -22 -75 -38 0 -7 14 -41 30
-75 17 -35 30 -66 30 -69 0 -2 -35 -1 -78 2 l-78 7 -62 -66 c-34 -36 -80 -91
-103 -121 -23 -30 -45 -52 -50 -49 -17 10 -9 53 11 64 29 16 26 67 -8 121 -16
24 -67 82 -114 129 -47 47 -111 114 -143 149 l-58 64 32 29 c18 16 43 28 59
28 36 0 115 -38 204 -98 95 -64 131 -82 163 -82 35 0 28 21 -10 31 -15 5 -62
35 -104 67 -42 32 -91 67 -109 76 -19 10 -31 20 -28 24 12 11 164 1 223 -15
130 -35 173 -40 173 -19 0 16 -101 58 -178 75 -29 6 -89 11 -132 11 -44 0 -80
4 -80 9 0 11 147 79 220 101 80 26 79 42 -16 165 -42 55 -88 113 -103 128
l-26 29 24 19 c28 23 63 26 55 4z m-3624 -50 c38 -20 40 -56 5 -91 -21 -20
-29 -23 -40 -14 -8 6 -14 24 -13 38 1 15 -2 39 -6 55 -10 32 8 36 54 12z
m1848 -25 c20 -16 54 -36 74 -44 20 -9 39 -20 43 -26 10 -16 -13 -49 -46 -66
-67 -34 -114 18 -70 77 25 34 12 47 -32 30 -22 -9 -27 -7 -32 10 -6 17 9 49
22 49 2 0 21 -13 41 -30z m-1138 5 c16 -10 12 -61 -6 -76 -31 -25 -70 24 -53
68 8 21 32 25 59 8z m556 -72 c3 -38 1 -66 -8 -82 -13 -23 -83 -70 -91 -61 -2
3 -7 29 -10 58 -6 50 -4 55 27 90 18 20 39 48 46 61 11 21 14 22 21 8 5 -8 12
-42 15 -74z m1098 62 c11 -8 37 -15 58 -15 46 0 96 -24 167 -80 66 -52 86 -95
76 -165 -4 -27 -8 -65 -8 -82 -2 -37 -8 -40 -27 -17 -32 38 -209 114 -266 114
-41 0 -17 -35 39 -55 l52 -19 -58 -8 c-71 -9 -194 -45 -203 -59 -3 -6 -1 -16
5 -22 8 -8 30 -8 84 2 116 20 229 25 268 12 20 -6 52 -29 73 -50 l38 -39 -66
-65 c-62 -61 -69 -64 -123 -70 -32 -4 -83 -2 -113 3 -30 5 -104 17 -165 27
-261 40 -255 37 -214 92 37 50 2 81 -92 81 -41 0 -49 3 -49 18 0 24 -27 49
-68 63 -18 6 -32 14 -32 19 0 7 78 44 145 68 82 30 171 43 310 44 104 1 110 6
80 58 -21 37 -19 40 30 40 52 0 55 9 30 79 -15 45 -7 53 29 26z m-632 -20 c13
-29 -3 -55 -34 -55 -24 0 -33 25 -20 56 15 31 39 31 54 -1z m339 1 c-9 -11 -6
-17 14 -30 32 -21 32 -53 1 -68 -47 -21 -79 18 -36 44 26 17 25 28 -2 28 -20
0 -21 1 -3 20 20 22 44 28 26 6z m219 -12 c0 -8 -9 -14 -20 -14 -18 0 -19 3
-10 20 12 22 30 18 30 -6z m3580 -21 c0 -34 -21 -93 -33 -93 -7 0 -18 4 -26 9
-11 7 -9 11 8 20 18 10 21 18 15 47 -5 30 -4 34 15 34 13 0 21 -6 21 -17z
m-5713 -25 c13 -12 23 -27 23 -34 0 -18 -49 -74 -66 -74 -23 0 -34 33 -18 60
7 14 13 35 14 48 0 28 17 28 47 0z m183 -12 c22 -28 -13 -126 -45 -126 -37 0
-51 90 -21 135 18 27 38 24 66 -9z m537 17 c5 -15 -35 -56 -47 -48 -14 9 -12
39 2 53 15 15 40 12 45 -5z m-263 -22 c9 -16 12 -31 9 -35 -8 -7 -42 46 -36
57 7 12 12 8 27 -22z m1590 -3 c16 -41 13 -48 -25 -48 -27 0 -29 2 -29 40 0
33 3 40 20 40 13 0 25 -11 34 -32z m-1669 -8 c23 -26 14 -78 -22 -116 l-26
-28 -23 28 c-60 69 10 184 71 116z m285 -90 c0 -4 -7 -14 -16 -21 -14 -11 -18
-10 -30 6 -15 20 -18 38 -8 48 7 7 54 -22 54 -33z m877 14 c-9 -9 -28 6 -21
18 4 6 10 6 17 -1 6 -6 8 -13 4 -17z m-1657 -20 c0 -18 8 -27 28 -34 66 -24
75 -44 39 -85 -20 -23 -27 -26 -44 -17 -11 6 -28 27 -37 46 -16 34 -22 107
-10 119 12 11 24 -4 24 -29z m660 5 c15 -27 12 -60 -7 -81 -49 -55 -100 25
-53 85 22 28 44 27 60 -4z m1119 17 c9 -11 8 -15 -5 -20 -26 -10 -32 -7 -27
14 6 23 16 25 32 6z m-2864 -16 c3 -11 18 -29 33 -41 l27 -21 -55 -101 c-30
-56 -68 -130 -85 -164 -16 -34 -33 -62 -36 -62 -3 -1 -19 34 -35 76 -16 42
-41 93 -56 113 l-26 37 76 76 c67 65 121 105 144 107 4 0 9 -9 13 -20z m-1268
-15 c8 -22 -6 -33 -17 -15 -13 20 -12 30 0 30 6 0 13 -7 17 -15z m2280 -6 c-3
-11 1 -46 9 -76 19 -72 5 -92 -33 -49 -28 33 -27 78 2 122 19 30 29 31 22 3z
m5843 -4 c15 -18 6 -46 -27 -85 -27 -33 -63 -39 -83 -15 -27 33 22 115 70 115
15 0 33 -7 40 -15z m214 -1 c45 -17 -8 -98 -60 -92 -38 4 -44 41 -13 74 23 24
44 29 73 18z m-4794 -8 c0 -3 -12 -32 -27 -66 -21 -49 -34 -65 -64 -81 -74
-37 -89 -23 -52 50 25 47 43 65 43 41 0 -5 5 -10 10 -10 6 0 10 7 10 15 0 8
15 24 33 35 31 19 47 25 47 16z m3336 -8 c24 -8 34 -20 43 -49 15 -50 44 -70
90 -63 33 5 40 1 86 -45 27 -28 57 -51 67 -51 11 0 23 -13 31 -32 19 -44 43
-64 95 -78 33 -8 42 -15 38 -26 -3 -9 -6 -22 -6 -29 0 -9 -9 -5 -24 10 -23 23
-30 24 -103 19 -43 -3 -87 -7 -98 -9 -35 -4 -74 24 -111 80 -52 78 -87 88
-211 58 -69 -16 -73 -16 -93 2 -11 10 -20 24 -20 31 0 7 -11 26 -25 42 -22 27
-23 30 -8 45 16 15 18 15 35 1 28 -26 66 -20 105 17 19 19 41 46 49 62 17 31
17 31 60 15z m-4146 -31 c0 -7 -13 -21 -30 -30 -37 -23 -39 -14 -2 18 32 29
32 29 32 12z m-1830 -22 c34 -18 37 -28 44 -150 5 -97 58 -401 76 -435 14 -25
30 -26 30 -1 0 20 -23 220 -40 352 -5 41 -9 85 -9 99 0 25 0 25 16 5 27 -35
82 -160 101 -231 12 -46 22 -69 32 -69 11 0 15 11 13 42 l-2 41 27 -14 c14 -7
37 -11 49 -8 13 4 23 4 23 1 0 -2 -13 -33 -29 -68 -15 -35 -41 -102 -56 -148
-22 -67 -36 -92 -74 -130 -28 -28 -62 -79 -86 -129 -21 -45 -43 -81 -48 -79
-5 1 -39 58 -74 125 -60 114 -67 122 -94 122 -30 0 -34 -4 -82 -91 -10 -17
-20 -29 -23 -27 -2 3 -11 38 -20 79 -22 113 -31 129 -67 129 -18 0 -40 -9 -54
-22 -13 -12 -26 -18 -30 -15 -3 4 0 60 8 126 8 65 13 124 11 130 -6 19 -22 12
-34 -14 -14 -31 -22 -31 -36 -1 -8 19 -8 27 3 36 8 7 15 26 15 44 0 17 1 44 1
60 1 31 -14 46 -48 46 -13 0 -23 4 -23 9 0 19 125 123 181 152 110 55 231 69
299 34z m-3490 -3 c0 -2 -18 -34 -40 -71 l-40 -68 -49 24 -49 24 21 49 20 48
69 -1 c37 -1 68 -3 68 -5z m5188 -28 c2 -20 -4 -36 -17 -48 -26 -23 -41 -13
-41 28 0 59 52 78 58 20z m-4079 -13 c58 -38 135 -116 127 -129 -3 -6 -20 -13
-36 -17 -16 -4 -32 -10 -34 -13 -9 -16 15 -52 46 -68 71 -36 72 -40 21 -102
-50 -62 -73 -108 -73 -147 0 -18 -20 -47 -68 -98 -38 -40 -76 -84 -86 -100
-10 -15 -23 -27 -30 -27 -6 0 -31 27 -54 60 -59 81 -81 81 -117 3 -26 -56 -27
-57 -37 -33 -5 14 -12 68 -16 120 -6 85 -9 96 -30 106 -23 11 -23 16 -24 137
0 125 13 197 35 197 7 0 31 -9 53 -19 42 -19 79 -62 160 -186 36 -56 74 -83
74 -54 0 14 -61 134 -97 192 -31 49 -17 47 87 -12 81 -48 105 -55 94 -28 -6
16 -110 85 -184 122 l-54 27 27 22 c15 12 27 31 27 43 0 25 15 30 89 32 44 1
63 -4 100 -28z m4293 5 c14 -32 -16 -87 -55 -100 -39 -14 -51 2 -38 49 19 71
70 99 93 51z m308 6 c0 -10 -14 -40 -32 -68 l-31 -49 -12 28 c-10 25 -8 31 24
67 40 43 51 48 51 22z m-169 -41 c35 -35 37 -55 7 -75 -32 -23 -47 -20 -59 11
-12 31 -4 93 12 93 6 0 24 -13 40 -29z m5022 15 c3 -8 24 -22 46 -32 44 -19
48 -31 27 -72 -34 -66 -88 -80 -115 -31 -13 24 -13 33 4 88 18 61 28 73 38 47z
m241 -22 c9 -8 16 -20 16 -25 0 -19 -60 -71 -77 -67 -27 5 -29 62 -4 87 25 25
44 26 65 5z m-1617 -26 c-3 -11 3 -49 14 -85 11 -35 19 -68 17 -73 -2 -5 -34
10 -71 34 l-69 43 37 21 c27 17 35 27 30 41 -6 21 21 55 37 45 5 -3 7 -15 5
-26z m1821 -11 c2 -20 -5 -35 -27 -57 -35 -36 -46 -37 -65 -7 -21 32 -10 74
23 86 43 16 66 9 69 -22z m-6009 -46 c6 -21 18 -44 26 -51 22 -18 19 -24 -24
-48 -80 -45 -127 -14 -102 67 12 42 54 83 75 75 7 -3 18 -22 25 -43z m142 -1
c23 0 6 -19 -22 -25 -26 -6 -36 -2 -58 19 -25 26 -25 28 -7 41 17 13 22 12 48
-10 16 -14 34 -25 39 -25z m914 13 c-5 -21 -11 -54 -14 -73 -7 -39 -119 -212
-132 -204 -10 6 -12 75 -3 99 4 9 26 25 50 36 42 18 57 43 32 52 -14 4 -113
-20 -140 -34 -47 -25 -16 73 38 121 41 35 53 37 87 10 30 -24 37 -25 37 -5 0
13 26 34 44 35 4 0 5 -17 1 -37z m1888 3 c18 -7 44 -27 59 -43 l28 -29 -50
-37 c-62 -46 -130 -131 -130 -163 0 -13 9 -28 21 -34 22 -12 27 -10 97 54 37
35 39 29 13 -39 -40 -107 -36 -175 12 -175 19 0 28 15 60 98 42 106 95 202
112 202 6 0 42 -39 81 -86 38 -48 81 -101 97 -119 15 -18 27 -37 27 -42 0 -6
-46 -13 -102 -17 -180 -13 -189 -16 -203 -79 l-5 -27 -38 18 c-54 28 -92 35
-97 20 -3 -7 1 -41 8 -75 8 -35 13 -63 12 -63 -1 0 -33 14 -70 31 -38 17 -97
37 -131 44 -34 7 -67 16 -72 19 -5 3 -13 26 -16 50 -4 24 -16 52 -26 61 -13
12 -20 31 -20 56 0 87 -34 116 -110 93 -24 -7 -46 -11 -48 -9 -3 2 10 27 28
55 64 100 206 201 331 234 69 19 92 19 132 2z m2118 -2 c14 -13 16 -20 7 -40
-12 -25 -41 -40 -58 -29 -14 9 -13 58 2 73 16 16 28 15 49 -4z m304 -4 l33
-20 -19 -37 c-12 -23 -16 -46 -12 -62 11 -48 44 -102 68 -113 15 -7 25 -22 30
-44 3 -19 20 -50 36 -69 l31 -35 -21 -26 c-12 -15 -21 -35 -21 -46 0 -43 51
-108 100 -126 22 -8 25 -15 25 -65 1 -55 0 -57 -30 -67 -17 -5 -65 -30 -107
-55 -43 -25 -82 -45 -87 -45 -13 0 -117 149 -136 194 -24 56 -46 164 -46 220
-1 28 -9 70 -19 92 l-18 42 29 21 c22 17 29 30 29 56 0 30 5 37 33 48 57 24
72 62 53 130 -10 33 3 35 49 7z m-8945 -2 c-1 -59 -14 -90 -46 -105 -32 -16
-64 -13 -64 7 0 5 12 10 26 10 27 0 28 11 9 62 -4 10 5 18 27 25 45 15 48 15
48 1z m9700 -26 c0 -7 -4 -10 -10 -7 -5 3 -10 16 -10 28 0 18 2 19 10 7 5 -8
10 -21 10 -28z m-11285 8 c4 -6 -10 -27 -31 -48 -42 -41 -52 -34 -29 21 15 37
46 50 60 27z m10415 -3 c0 -7 -7 -23 -16 -35 -22 -31 -59 -26 -59 8 0 24 11
30 68 39 4 0 7 -5 7 -12z m-3948 -16 c18 -6 11 -9 -33 -15 -29 -3 -73 -9 -96
-12 -45 -7 -57 7 -30 35 13 14 115 9 159 -8z m-1017 -11 c10 -32 -13 -86 -51
-120 l-35 -31 -31 33 c-29 31 -31 31 -44 14 -12 -17 -14 -17 -20 -3 -10 28 3
47 34 47 49 0 92 20 108 51 17 34 30 37 39 9z m4591 4 c18 -14 18 -14 -6 -3
-31 14 -36 19 -24 19 6 0 19 -7 30 -16z m-780 -35 c78 -49 122 -96 116 -125
-3 -19 0 -24 15 -24 10 0 24 5 30 11 8 8 32 4 86 -15 42 -14 82 -26 91 -26 33
0 13 -17 -64 -54 -91 -44 -115 -65 -105 -95 8 -26 52 -38 175 -46 l95 -7 102
72 c57 39 107 79 113 89 16 30 36 31 111 6 93 -32 113 -32 104 -2 -4 12 -11
26 -16 31 -18 20 -8 23 26 8 39 -18 36 -6 39 -172 1 -82 3 -89 60 -205 l59
-120 5 -111 c3 -72 0 -118 -7 -132 -6 -11 -72 -73 -146 -137 -78 -67 -163
-152 -201 -199 -65 -83 -162 -233 -185 -287 -6 -16 -16 -28 -22 -26 -5 1 -28
45 -51 97 -49 110 -135 255 -211 355 -29 39 -120 136 -202 216 -129 127 -155
148 -203 164 -30 10 -65 18 -78 17 -18 -1 -24 5 -29 29 -3 17 -21 45 -39 63
-25 24 -34 42 -34 66 0 18 -11 53 -26 77 l-25 43 37 45 c42 52 50 53 167 28
92 -20 106 -13 84 39 -8 20 -20 39 -26 42 -18 12 -53 87 -47 102 3 8 18 14 34
14 49 0 92 20 98 46 3 13 0 46 -7 73 -10 41 -10 53 0 65 18 21 19 21 77 -15z
m437 -8 c14 -21 45 -54 68 -72 70 -57 101 -88 97 -102 -6 -17 -77 -54 -114
-60 -35 -5 -64 6 -45 17 16 11 13 54 -5 64 -9 5 -23 43 -35 97 -23 106 -22 95
-5 95 7 0 25 -18 39 -39z m1387 -37 c0 -25 -43 -64 -69 -64 -46 0 -55 62 -15
110 l27 31 28 -27 c16 -15 29 -38 29 -50z m-5116 -2 c-1 -86 -1 -85 -23 -111
-28 -33 -39 -19 -30 36 6 42 43 143 51 143 2 0 3 -30 2 -68z m3627 27 c4 -19
9 -51 12 -73 l6 -39 -43 6 c-24 4 -62 14 -85 23 -40 16 -41 17 -41 65 l0 48
63 3 c83 5 81 6 88 -33z m1078 10 c38 -37 38 -42 5 -68 -35 -28 -58 -26 -72 4
-24 53 -16 76 35 94 1 1 15 -13 32 -30z m-5079 8 c0 -20 -47 -60 -63 -54 -13
5 -29 52 -21 60 2 2 22 4 44 5 27 1 40 -2 40 -11z m128 3 l27 0 -26 -25 c-30
-31 -59 -25 -59 12 0 19 4 24 16 19 9 -3 28 -6 42 -6z m5144 -26 c-5 -27 -42
-64 -64 -64 -26 0 -22 14 13 55 33 37 56 41 51 9z m-7716 -22 c-4 -3 -12 0
-19 7 -9 9 -9 14 3 21 11 7 16 5 18 -6 2 -9 1 -18 -2 -22z m3755 -30 c16 -29
4 -52 -36 -65 -25 -9 -32 -6 -52 17 -29 34 -29 51 0 85 l22 28 27 -21 c14 -12
32 -31 39 -44z m4366 52 c8 -21 -50 -79 -71 -71 -22 9 -20 39 4 65 24 26 58
29 67 6z m-8595 -56 c84 -38 91 -39 179 -36 l92 3 60 -83 c32 -46 70 -88 83
-94 14 -6 28 -26 35 -47 6 -20 22 -55 35 -78 28 -48 30 -63 9 -63 -9 0 -30 -7
-47 -16 l-31 -16 7 25 c8 34 -9 43 -28 15 -42 -59 4 -158 134 -290 97 -98 93
-120 -27 -178 -48 -23 -55 -29 -39 -35 16 -7 50 -1 117 21 14 5 17 -5 21 -58
3 -34 4 -65 2 -66 -1 -2 -25 14 -53 36 -61 49 -124 64 -261 66 -113 1 -134 -8
-230 -99 -77 -73 -116 -98 -189 -119 -98 -29 -218 -13 -329 43 -86 44 -113 79
-171 225 -64 160 -67 210 -20 301 18 33 47 81 65 106 53 73 64 108 64 208 0
86 1 92 30 125 37 42 191 120 275 139 78 18 112 13 217 -35z m3928 45 c0 -11
-59 -113 -66 -113 -3 0 -19 7 -36 16 -59 30 -87 34 -130 17 -43 -17 -53 -13
-63 28 -7 27 -6 27 67 39 40 6 80 13 88 15 33 6 140 5 140 -2z m3705 -49 c-20
-31 -38 -22 -24 13 16 42 21 47 31 29 7 -12 5 -25 -7 -42z m-145 31 c15 -18 5
-65 -15 -65 -21 0 -27 17 -20 50 7 33 17 37 35 15z m-3941 -56 c1 -4 -10 -9
-24 -11 -29 -6 -31 -1 -8 31 16 23 17 23 24 5 4 -10 8 -22 8 -25z m849 26 c7
-7 -25 -35 -39 -35 -14 0 -39 32 -33 41 6 10 61 5 72 -6z m-1834 -36 c15 -26
16 -33 5 -40 -20 -13 -50 -7 -63 13 -8 13 -6 22 8 37 25 27 28 27 50 -10z
m4680 10 c19 -15 24 -25 17 -32 -13 -13 -61 17 -61 38 0 21 13 19 44 -6z m126
-21 c10 -24 17 -44 15 -46 -12 -13 -56 13 -73 42 -23 38 -20 46 15 46 19 0 28
-10 43 -42z m-2805 12 c0 -16 -50 -48 -61 -38 -4 4 1 19 10 33 18 27 51 31 51
5z m-1605 -20 c-16 -30 -77 -55 -96 -39 -25 21 -16 39 19 39 17 0 43 6 57 13
31 17 35 14 20 -13z m1705 14 c13 -5 14 -8 3 -15 -21 -14 -48 -10 -48 6 0 16
17 19 45 9z m225 -10 c0 -4 -14 -36 -32 -71 -25 -52 -30 -69 -22 -91 14 -40
44 -38 124 5 55 30 72 35 79 25 4 -8 14 -66 21 -131 10 -92 10 -122 0 -140 -6
-13 -9 -34 -6 -47 6 -23 5 -24 -54 -24 -69 0 -69 1 -46 -108 l14 -64 -37 8
c-72 14 -73 14 -87 -46 -13 -59 -80 -240 -93 -253 -20 -20 -40 32 -50 131 -15
143 -28 191 -57 204 -26 12 -32 29 -59 178 -10 52 -24 108 -32 123 -49 97 100
-20 172 -135 30 -48 45 -60 45 -34 0 23 -95 161 -131 189 l-34 27 36 0 c60 0
127 -29 184 -82 60 -55 73 -45 26 20 -38 52 -132 98 -225 111 -38 6 -73 8 -78
5 -4 -3 -8 1 -8 8 0 16 58 73 110 109 19 13 76 38 125 56 92 32 115 38 115 27z
m3400 -14 c27 -27 25 -44 -9 -82 -29 -32 -31 -33 -58 -18 -38 21 -42 62 -9 95
30 30 49 32 76 5z m-10957 -4 c25 -19 21 -41 -14 -70 -37 -31 -43 -32 -69 -6
-22 22 -27 76 -7 83 24 10 72 6 90 -7z m620 -17 c-10 -18 -32 -47 -48 -64 -25
-27 -36 -32 -58 -28 -32 6 -33 5 49 72 70 58 82 62 57 20z m5256 -30 c-8 -16
-89 -44 -107 -38 -6 2 15 26 46 53 55 48 57 48 63 25 3 -13 2 -31 -2 -40z
m5279 23 c4 -38 -29 -75 -61 -70 -16 2 -23 11 -25 34 -3 26 2 35 30 52 42 26
52 23 56 -16z m188 21 c22 -30 16 -60 -16 -83 -17 -12 -37 -19 -45 -16 -22 8
-18 59 6 90 24 30 37 33 55 9z m-567 -7 c15 -17 -2 -57 -31 -75 -18 -11 -25
-10 -47 7 -35 26 -39 59 -9 71 34 14 74 13 87 -3z m-3744 -53 c23 -15 67 -17
81 -4 5 6 18 3 34 -9 l24 -18 -19 -37 c-11 -21 -28 -40 -38 -43 -13 -3 -17
-11 -13 -26 4 -17 -1 -24 -24 -34 -16 -7 -54 -47 -86 -87 l-57 -75 -48 28
c-27 15 -49 30 -49 33 0 6 172 92 208 103 24 8 29 22 10 29 -21 7 -108 -22
-178 -59 -35 -19 -67 -34 -71 -34 -4 0 -12 14 -19 30 -7 17 -33 48 -58 70
l-46 38 40 9 c21 4 119 7 217 6 147 -2 177 0 177 12 0 18 -16 26 -102 55 -38
13 -68 24 -68 26 0 1 3 10 6 19 7 17 10 15 79 -32z m-1585 29 c0 -17 -49 -54
-66 -50 -35 6 -27 34 13 45 51 14 53 14 53 5z m812 -12 c20 -15 27 -32 32 -75
3 -30 9 -80 12 -111 8 -64 -10 -178 -36 -239 -10 -22 -43 -78 -74 -125 -31
-46 -56 -88 -56 -93 0 -5 12 -7 27 -5 25 3 28 -1 45 -57 28 -91 41 -195 29
-227 -15 -40 -71 -63 -205 -87 -66 -12 -123 -24 -127 -27 -19 -12 -30 45 -31
159 0 176 22 245 151 456 59 97 82 156 121 302 15 58 33 116 39 127 15 27 41
28 73 2z m4016 -44 c-3 -34 -24 -41 -41 -14 -8 12 -7 24 1 43 11 23 15 25 28
14 9 -7 14 -25 12 -43z m-3801 19 c67 -47 33 -225 -43 -233 -39 -4 -49 9 -69
83 -30 116 -14 165 54 165 20 0 46 -7 58 -15z m-6627 -9 c0 -17 -40 -89 -46
-83 -2 2 4 25 13 50 17 46 33 62 33 33z m867 -2 c9 -25 -9 -65 -39 -87 -27
-20 -28 -20 -48 -2 -26 23 -25 45 1 79 24 30 76 36 86 10z m-459 -29 c11 -23
9 -29 -13 -51 -32 -32 -56 -28 -77 15 -23 46 -14 61 36 61 36 0 45 -4 54 -25z
m218 -39 c-22 -35 -60 -58 -80 -50 -28 11 -17 34 31 64 53 34 77 27 49 -14z
m4834 37 c0 -15 -45 -53 -62 -53 -13 0 -18 8 -18 30 0 28 2 30 40 30 22 0 40
-3 40 -7z m4369 -23 c11 -6 8 -12 -13 -25 -22 -15 -35 -16 -79 -8 l-52 9 35
22 c34 22 71 23 109 2z m-9551 -70 c10 -20 30 -41 49 -50 40 -19 42 -35 5 -48
-23 -8 -31 -7 -40 8 -7 12 -30 19 -71 24 -50 6 -64 12 -77 31 -19 30 -12 55
16 55 11 0 34 13 52 29 33 30 33 30 41 8 5 -12 16 -38 25 -57z m10945 10 c0
-43 -42 -85 -76 -76 -51 12 -47 94 6 127 31 18 32 18 51 -1 11 -10 19 -33 19
-50z m-6892 37 c-13 -13 -26 -3 -16 12 3 6 11 8 17 5 6 -4 6 -10 -1 -17z
m7243 -1 c3 -13 8 -31 12 -39 4 -11 -1 -13 -21 -10 -32 7 -39 17 -31 49 8 31
32 31 40 0z m-526 -9 c4 -21 -24 -13 -32 9 -4 11 -1 14 11 12 10 -2 19 -11 21
-21z m-10974 7 c11 -4 16 -19 16 -46 0 -40 0 -40 -22 -26 -14 9 -24 28 -26 47
-3 31 3 36 32 25z m4470 -63 c-5 -47 -10 -61 -22 -59 -34 7 -36 34 -8 83 15
25 30 45 32 42 2 -2 1 -32 -2 -66z m6415 43 c25 -32 27 -61 5 -92 -20 -29 -55
-28 -83 2 -24 26 -23 49 7 94 19 29 46 28 71 -4z m-5391 4 c-6 -18 -28 -21
-28 -4 0 9 7 16 16 16 9 0 14 -5 12 -12z m5747 2 c-3 -5 -10 -10 -16 -10 -5 0
-9 5 -9 10 0 6 7 10 16 10 8 0 12 -4 9 -10z m-7028 -42 c-22 -53 -67 -90 -67
-55 0 15 70 100 77 94 2 -3 -2 -20 -10 -39z m6176 15 c13 -8 7 -45 -14 -79
-11 -19 -23 -34 -25 -34 -9 0 -44 85 -44 108 0 21 3 22 38 16 20 -4 40 -9 45
-11z m1031 -1 c3 -5 -2 -29 -12 -53 -13 -35 -21 -44 -37 -41 -46 9 -60 49 -28
84 16 18 68 25 77 10z m-10468 -131 c9 -30 25 -78 35 -108 18 -46 24 -53 47
-53 25 0 28 5 47 82 11 45 25 83 31 85 6 2 25 -15 42 -36 l32 -40 -20 -62
c-16 -46 -20 -78 -17 -127 6 -82 -12 -157 -62 -269 -80 -178 -97 -290 -61
-402 31 -99 33 -139 11 -257 -29 -153 -37 -279 -22 -356 25 -127 119 -257 222
-306 l61 -29 -94 -23 c-247 -61 -609 -215 -790 -337 -213 -142 -415 -357 -611
-648 -50 -75 -106 -251 -107 -337 -2 -110 -92 358 -125 647 -30 271 -37 452
-32 823 4 202 9 392 12 422 47 439 116 809 214 1150 36 122 52 164 62 161 59
-17 65 -15 88 38 12 28 25 51 30 51 19 0 29 -28 29 -80 1 -67 11 -97 53 -144
24 -28 32 -47 35 -86 2 -27 13 -68 24 -89 16 -33 18 -44 8 -66 -18 -40 5 -101
48 -127 26 -15 34 -26 34 -49 0 -59 43 -133 87 -150 13 -5 25 -20 28 -36 12
-56 26 -74 69 -94 70 -30 123 2 133 81 5 35 11 43 39 55 62 25 92 116 64 189
-7 21 -6 28 10 39 30 21 50 68 50 117 l0 45 47 0 c42 0 49 3 70 34 27 40 30
104 8 166 -8 22 -15 41 -15 41 0 1 22 16 50 34 61 39 100 84 100 114 0 32 14
43 18 14 2 -12 10 -47 18 -77z m10320 74 c18 -28 14 -49 -13 -63 -13 -7 -24
-6 -37 3 -18 14 -18 16 -2 50 20 42 30 44 52 10z m-10813 -10 c35 -18 38 -22
33 -50 -6 -28 -65 -95 -85 -95 -5 0 -21 16 -36 36 -23 30 -26 40 -16 53 6 9
21 31 32 49 12 18 24 31 28 30 3 -2 23 -12 44 -23z m228 -28 c3 -26 -4 -43
-23 -64 -26 -28 -55 -35 -73 -16 -25 25 -16 71 23 115 14 17 16 16 43 -3 16
-11 30 -26 30 -32z m4763 45 c8 -13 -32 -72 -49 -72 -17 0 -39 36 -31 55 4 12
24 19 63 24 6 0 14 -3 17 -7z m1288 -22 c29 -29 30 -34 26 -99 -4 -86 -44
-170 -132 -278 -76 -95 -131 -144 -151 -137 -7 3 -21 25 -30 48 l-16 41 53
110 c38 80 52 122 53 155 0 33 -4 45 -15 45 -33 0 -20 32 21 50 23 11 55 36
72 57 39 49 76 51 119 8z m510 2 c21 -36 45 -169 54 -299 7 -114 2 -123 -51
-103 -21 8 -33 7 -50 -4 -22 -14 -24 -13 -35 15 -7 16 -35 49 -61 72 -45 40
-49 46 -50 93 -2 42 4 62 32 110 40 71 105 144 128 144 9 0 24 -13 33 -28z
m3768 -37 c0 -3 -12 -5 -26 -5 -22 0 -25 3 -20 23 3 12 6 29 6 37 0 8 9 0 20
-18 11 -18 20 -35 20 -37z m490 50 c6 -8 9 -23 5 -34 -17 -56 -73 -40 -60 17
7 35 33 43 55 17z m-10700 -23 c0 -10 -21 -32 -31 -32 -4 0 -9 9 -12 20 -4 16
0 20 19 20 13 0 24 -4 24 -8z m7604 -17 c-6 -16 -24 -21 -24 -7 0 11 11 22 21
22 5 0 6 -7 3 -15z m-4014 -13 c0 -11 -28 -52 -58 -84 -32 -35 -71 -36 -100
-5 l-22 23 30 23 c27 20 33 20 51 8 26 -19 53 -12 69 19 13 23 30 33 30 16z
m4120 -12 c30 -30 26 -66 -11 -85 -24 -13 -34 -14 -45 -4 -14 12 -19 65 -8 93
8 22 40 20 64 -4z m139 -62 c1 -30 -16 -37 -37 -16 -17 17 -15 39 5 68 l17 24
7 -24 c4 -14 7 -37 8 -52z m-8559 30 c20 -18 44 -38 54 -43 17 -9 16 -12 -4
-38 -28 -36 -42 -34 -79 8 -31 35 -37 58 -25 89 8 22 11 21 54 -16z m4369 -36
c2 -55 -1 -62 -39 -111 -22 -28 -46 -51 -53 -51 -16 1 -67 46 -67 60 0 5 13
10 29 10 54 0 111 69 111 135 0 53 17 14 19 -43z m6918 42 c40 -30 40 -37 8
-69 -28 -28 -66 -32 -89 -9 -16 15 -22 84 -9 97 14 15 58 6 90 -19z m-2497
-19 c0 -24 -41 -65 -66 -65 -21 0 -17 12 17 58 32 44 49 47 49 7z m1566 -82
c-9 -23 -21 -14 -43 30 -16 33 -18 47 -9 66 10 23 11 22 34 -29 12 -29 21 -59
18 -67z m734 97 c9 -17 6 -25 -14 -45 -14 -14 -32 -25 -40 -25 -31 0 -42 63
-14 81 23 15 57 10 68 -11z m-4769 -31 c-6 -16 -10 -18 -10 -7 -1 22 12 55 16
42 2 -6 -1 -22 -6 -35z m-2335 -21 c-28 -59 -106 -91 -106 -43 0 20 5 25 25
25 16 0 34 12 52 35 33 42 52 31 29 -17z m6927 28 c34 -8 35 -29 2 -61 -27
-28 -50 -32 -59 -10 -3 8 -15 15 -26 15 -15 0 -20 7 -20 24 0 35 25 57 53 46
12 -5 34 -11 50 -14z m-6823 -26 c12 -23 27 -43 35 -47 21 -7 19 -23 -8 -56
-21 -27 -25 -28 -50 -16 -24 11 -27 16 -20 38 4 14 8 47 8 74 0 26 3 47 7 47
4 0 17 -18 28 -40z m7415 -74 c16 -56 23 -101 18 -105 -5 -3 -53 -37 -107 -75
-54 -38 -191 -116 -304 -173 -242 -123 -263 -136 -447 -270 -138 -100 -258
-212 -349 -326 -58 -72 -125 -210 -171 -350 -29 -89 -35 -123 -35 -195 l-1
-87 -55 60 c-84 93 -179 230 -234 340 -28 55 -50 107 -50 115 0 18 205 268
298 363 122 125 442 389 601 496 79 53 129 99 156 144 8 13 19 16 48 11 31 -6
42 -14 57 -45 21 -41 54 -69 81 -69 11 0 22 -13 29 -35 33 -99 149 -97 150 3
1 31 6 40 33 57 29 19 32 25 32 70 0 49 1 50 30 51 58 1 95 36 95 88 0 23 4
26 34 26 19 0 38 5 42 11 11 18 20 -2 49 -105z m-3242 85 c17 -6 17 -8 -3 -34
-12 -15 -28 -27 -35 -27 -19 0 -29 38 -15 55 13 16 25 18 53 6z m-310 -28 l32
-16 -31 -8 c-33 -9 -57 -49 -69 -113 -6 -27 -13 -38 -32 -42 -13 -4 -26 -4
-29 -1 -7 7 36 168 49 185 13 17 42 15 80 -5z m-7735 -24 c1 -8 -4 -23 -12
-34 -12 -16 -17 -17 -27 -8 -10 10 -10 18 -1 39 13 26 35 28 40 3z m2998 15
c12 -3 27 -17 33 -31 13 -29 7 -43 -11 -25 -7 7 -35 12 -64 12 -50 0 -64 9
-64 41 0 10 72 12 106 3z m3609 -26 c42 -19 46 -86 10 -161 -22 -47 -252 -305
-301 -339 -79 -55 -134 -28 -134 63 0 50 10 63 78 101 43 23 139 144 192 240
56 102 92 125 155 96z m1212 -22 c27 -23 27 -25 10 -43 -23 -27 -22 -99 3
-140 16 -26 17 -38 9 -62 -8 -23 -17 -30 -45 -33 -30 -4 -37 0 -48 21 -19 39
-27 89 -15 97 6 3 8 19 5 35 -5 26 1 56 26 122 13 33 19 34 55 3z m-1675 -45
c1 -16 -15 -55 -37 -91 -40 -66 -44 -88 -31 -157 6 -35 5 -43 -7 -43 -10 0
-20 23 -32 75 l-17 76 37 55 c20 30 43 75 52 101 13 37 18 42 25 29 5 -9 10
-29 10 -45z m4837 27 c13 -23 13 -29 -3 -52 -21 -34 -42 -42 -61 -26 -21 18
-19 53 6 84 24 31 38 30 58 -6z m-4914 -17 c-20 -58 -48 -108 -52 -94 -4 11
53 133 62 133 2 0 -2 -17 -10 -39z m2076 16 c-13 -13 -26 -3 -16 12 3 6 11 8
17 5 6 -4 6 -10 -1 -17z m339 -24 c0 -6 -14 -23 -32 -38 -27 -23 -33 -25 -46
-11 -20 20 -9 57 25 78 25 15 28 15 40 0 7 -10 13 -22 13 -29z m2344 32 c38
-29 10 -105 -39 -105 -50 0 -59 49 -18 92 31 32 32 32 57 13z m-10424 -14 c0
-33 -39 -72 -68 -69 -30 3 -53 39 -45 69 4 16 15 19 59 19 46 0 54 -3 54 -19z
m7885 -12 c23 -28 24 -34 12 -53 -20 -30 -65 -45 -78 -26 -29 45 -17 110 20
110 11 0 31 -14 46 -31z m375 -24 c0 -22 -29 -54 -67 -74 -37 -19 -43 -13 -43
43 0 52 1 54 38 68 33 13 39 13 55 0 9 -8 17 -25 17 -37z m-8516 36 c19 -7 19
-8 -2 -13 -11 -3 -29 0 -39 8 -17 13 -17 13 2 13 11 0 29 -4 39 -8z m10116
-103 c0 -8 -89 -78 -101 -78 -9 0 -11 168 -2 183 5 9 102 -89 103 -105z
m-7300 92 c0 -5 -4 -10 -10 -10 -5 0 -10 5 -10 10 0 6 5 10 10 10 6 0 10 -4
10 -10z m4966 -74 c-3 -14 -16 -31 -28 -37 -18 -10 -24 -8 -35 7 -17 24 -17
49 2 64 8 7 15 20 15 28 0 13 6 10 26 -10 20 -20 25 -32 20 -52z m-390 49 l31
-6 -20 -67 c-24 -81 -34 -94 -42 -56 -4 16 -13 49 -21 73 -19 59 -18 73 4 67
9 -2 31 -7 48 -11z m-3742 -18 c9 -15 6 -23 -18 -43 -25 -23 -30 -24 -50 -11
-44 30 -26 80 27 75 17 -2 35 -11 41 -21z m4336 -7 c17 -17 18 -24 10 -41 -17
-30 -71 -60 -105 -57 -29 3 -30 5 -30 53 0 49 0 50 35 56 60 11 69 10 90 -11z
m-8198 1 c4 -1 10 -10 13 -21 9 -27 -17 -65 -56 -86 -30 -15 -32 -15 -56 8
-28 25 -53 76 -47 93 4 8 102 12 146 6z m3108 -1 c0 -5 -4 -10 -10 -10 -5 0
-10 5 -10 10 0 6 5 10 10 10 6 0 10 -4 10 -10z m-2792 -22 c20 -20 14 -26 -28
-26 -44 -1 -53 13 -17 28 30 12 31 12 45 -2z m-155 -41 c-10 -17 -24 -32 -31
-35 -20 -6 -14 36 8 58 30 30 45 15 23 -23z m3885 31 c19 -19 14 -42 -13 -68
-21 -20 -30 -22 -53 -14 -18 6 -28 17 -30 35 -3 22 3 28 35 41 48 20 47 20 61
6z m-902 -13 c4 -8 3 -27 -1 -43 l-7 -27 -24 30 c-29 36 -29 42 -6 48 30 8 32
7 38 -8z m5755 -82 c194 -207 285 -351 432 -688 109 -250 148 -322 234 -437
141 -189 448 -473 541 -502 52 -17 76 -133 47 -232 -20 -69 -53 -109 -114
-136 -52 -24 -87 -19 -177 23 -115 55 -215 176 -326 393 -105 209 -165 289
-247 331 -113 58 -176 162 -240 399 -51 183 -82 259 -148 356 -83 122 -211
270 -233 270 -32 0 -23 29 14 44 49 20 69 64 64 138 -2 32 0 58 4 58 5 0 18
16 29 35 26 43 33 40 120 -52z m-7363 54 c8 -10 1 -13 -34 -13 -49 -2 -55 2
-21 16 31 12 43 12 55 -3z m9437 3 c9 -14 -13 -50 -30 -50 -18 0 -20 31 -3 48
15 15 25 15 33 2z m-10625 -19 c0 -5 -4 -21 -9 -35 -9 -22 -12 -23 -35 -13
-30 14 -32 20 -10 41 17 17 54 22 54 7z m8134 -2 c14 -7 23 -16 20 -20 -3 -5
-18 -2 -35 6 -46 24 -33 36 15 14z m-1689 -21 c29 -26 41 -78 31 -131 -10 -54
-68 -104 -183 -159 -109 -53 -172 -63 -200 -35 -14 13 -11 20 28 59 25 23 94
98 154 166 60 67 117 122 127 122 9 0 29 -10 43 -22z m945 2 c4 -8 14 -36 23
-62 l16 -47 -37 -11 c-81 -23 -110 -24 -114 -4 -5 24 11 105 24 121 19 24 77
26 88 3z m-6308 -12 c-29 -32 -44 -76 -37 -112 8 -40 45 -156 57 -180 19 -35
26 4 12 63 -25 106 -11 171 49 215 24 18 29 18 42 5 9 -8 18 -38 22 -67 6 -55
7 -54 -50 -66 -52 -12 -55 -46 -21 -223 9 -48 73 -80 102 -51 16 16 15 71 -2
112 -9 22 -11 38 -4 50 6 11 6 21 -1 29 -6 8 -6 18 -1 27 6 8 10 33 11 55 1
40 1 40 10 10 5 -16 13 -109 18 -205 6 -96 13 -185 16 -197 6 -18 2 -23 -18
-28 -42 -11 -92 12 -140 64 -132 141 -169 365 -81 499 8 12 20 22 26 22 6 0 2
-10 -10 -22z m2466 -39 c2 -23 -2 -40 -13 -49 -13 -11 -19 -9 -40 10 -41 38
-26 84 25 78 21 -3 26 -9 28 -39z m4750 35 c12 -4 22 -14 22 -24 0 -23 -55
-70 -81 -70 -28 0 -45 43 -31 75 12 26 41 32 90 19z m-204 -27 c8 -13 7 -24
-4 -45 -21 -36 -47 -40 -61 -9 -9 20 -8 30 6 51 20 29 42 31 59 3z m-376 -31
c7 -36 -57 -82 -90 -64 -33 17 -16 82 25 98 26 10 60 -8 65 -34z m216 22 c11
-16 12 -26 4 -42 -35 -69 -128 -76 -128 -9 0 17 12 28 48 46 60 31 58 31 76 5z
m-762 -20 c51 -21 58 -27 67 -63 18 -67 46 -101 115 -140 36 -20 66 -40 66
-44 0 -5 -32 -11 -72 -15 -63 -6 -104 -13 -228 -42 -14 -3 -63 -46 -111 -95
l-85 -89 -52 0 c-57 0 -156 -29 -212 -62 -86 -51 -160 -152 -160 -219 0 -58
47 -109 101 -109 10 0 52 27 92 61 109 92 195 146 272 169 82 25 155 60 285
135 106 61 144 75 211 75 67 0 93 -28 85 -88 -12 -86 -70 -183 -187 -312 -121
-132 -120 -130 -95 -246 16 -76 21 -84 51 -84 53 0 279 255 346 390 39 76 62
189 55 260 -10 103 -76 262 -158 383 -21 31 -36 62 -33 67 11 18 32 11 43 -15
6 -14 28 -33 47 -42 30 -14 38 -26 52 -72 9 -34 27 -66 44 -82 20 -19 32 -43
39 -79 13 -69 30 -102 59 -116 31 -16 41 -32 41 -69 0 -37 31 -90 62 -106 29
-15 38 -28 38 -57 0 -37 38 -101 73 -123 58 -35 77 -36 109 0 25 28 28 39 28
101 0 70 0 70 33 84 47 19 71 73 63 137 l-7 49 38 0 c24 0 45 7 60 22 13 12
24 20 26 17 15 -18 68 -101 82 -128 9 -18 34 -98 55 -176 63 -234 105 -317
204 -415 l54 -53 -23 -31 c-31 -41 -37 -65 -37 -144 0 -105 35 -209 113 -328
29 -44 43 -79 50 -125 9 -58 8 -67 -17 -122 -60 -135 -34 -306 72 -463 l43
-66 -20 -27 c-29 -39 -35 -100 -15 -157 14 -43 15 -49 1 -57 -42 -23 -57 -51
-79 -149 -4 -16 -13 -28 -20 -28 -45 0 -163 -163 -196 -269 -11 -35 -25 -117
-31 -183 -9 -102 -8 -129 6 -195 9 -42 25 -95 35 -119 l19 -43 -33 -19 c-66
-39 -122 -144 -162 -299 -19 -75 -24 -121 -24 -217 0 -143 9 -178 85 -326 30
-59 53 -109 50 -111 -2 -2 -8 -52 -13 -110 -12 -125 -25 -155 -116 -268 -90
-111 -111 -168 -109 -301 1 -58 3 -118 5 -134 3 -28 -4 -35 -82 -87 -94 -62
-188 -158 -219 -223 -25 -53 -51 -179 -51 -246 l0 -50 -69 0 c-81 0 -114 -10
-135 -42 -27 -41 -58 -215 -59 -334 -2 -105 -1 -113 28 -168 l31 -58 -71 -72
c-63 -62 -76 -83 -112 -171 -22 -55 -44 -114 -47 -131 -7 -31 -14 -35 -187
-104 -539 -215 -1214 -377 -1729 -415 -47 -3 -137 -10 -200 -15 -113 -10 -693
-6 -820 5 -151 13 -425 48 -562 70 -81 14 -149 25 -151 25 -8 0 -21 286 -19
420 3 201 11 399 16 435 8 43 33 330 43 470 15 228 2 874 -22 1060 -8 65 -15
138 -15 160 0 38 3 43 53 72 75 46 104 56 287 102 91 23 192 50 225 61 33 10
94 24 135 30 127 20 227 46 420 110 212 70 508 209 602 284 153 122 253 302
376 678 29 86 85 244 126 351 55 142 91 258 134 433 33 132 74 273 92 313 20
47 45 136 67 245 52 258 40 339 -77 509 -32 48 -69 100 -80 115 -12 15 -45 68
-73 117 -57 100 -59 114 -37 285 6 47 14 151 18 231 8 140 9 148 39 195 46 71
93 175 93 205 0 14 14 47 32 75 49 77 96 183 114 257 17 67 39 95 68 84 7 -3
17 -2 23 1 15 10 83 115 83 128 0 24 26 34 59 23 24 -8 35 -8 46 1 19 16 18
18 43 -65 32 -106 92 -175 153 -175 25 0 30 10 83 141 31 77 56 149 56 161 0
23 3 23 92 -14z m-7438 0 c8 -13 6 -23 -10 -45 -32 -43 -44 -40 -44 10 0 24 3
47 7 51 11 11 35 3 47 -16z m-140 -14 c11 -29 6 -44 -14 -44 -25 0 -36 25 -20
45 16 19 26 19 34 -1z m11504 -81 c49 -220 101 -537 117 -718 4 -38 8 -80 10
-93 10 -61 20 -330 20 -517 0 -390 -21 -674 -75 -1009 -188 -1174 -719 -2275
-1523 -3161 l-54 -60 -7 85 c-11 122 -42 295 -66 364 -11 33 -20 63 -20 68 0
4 31 8 70 8 83 0 102 15 126 98 21 71 12 149 -33 282 -46 140 -51 188 -24 274
27 86 27 167 1 225 -11 24 -20 48 -20 54 0 5 24 36 54 67 88 92 122 175 132
320 8 107 -7 211 -42 300 l-27 69 31 26 c57 48 85 164 57 236 -4 10 4 18 24
26 58 21 94 138 93 299 -1 132 -42 265 -109 356 l-44 59 26 21 c14 11 33 34
42 51 33 63 13 206 -38 279 -11 14 -19 28 -19 31 0 3 20 17 44 31 112 66 126
245 34 431 -33 68 -68 108 -149 171 l-57 43 45 118 c65 173 153 348 221 438
78 105 158 192 167 183 9 -8 9 -76 -1 -203 -6 -83 -4 -92 15 -109 32 -29 138
-27 163 4 10 12 18 32 18 44 0 12 8 33 18 46 24 35 23 249 -2 334 -9 32 -14
62 -9 66 85 71 210 149 392 243 142 73 296 162 346 201 11 8 23 16 26 16 3 0
15 -44 27 -97z m-11238 78 c0 -5 -7 -12 -16 -15 -14 -5 -15 -4 -4 9 14 17 20
19 20 6z m5992 -127 c-3 -39 0 -66 13 -94 l17 -38 -33 -41 c-18 -23 -36 -41
-39 -41 -12 0 -22 81 -20 165 1 83 12 105 50 105 14 0 16 -9 12 -56z m1667
-27 c52 -78 81 -130 81 -146 0 -6 -13 -17 -29 -25 -26 -14 -30 -14 -50 8 -11
12 -21 35 -21 50 0 35 -39 72 -114 112 -31 16 -56 32 -56 36 0 9 123 47 133
41 4 -2 29 -37 56 -76z m-7579 42 c0 -10 -15 -36 -33 -56 l-34 -36 -34 24
c-44 31 -49 38 -39 63 6 17 14 20 48 18 23 -2 49 1 59 6 22 13 33 7 33 -19z
m1280 14 c0 -5 -4 -15 -9 -23 -6 -8 -7 -19 -3 -25 4 -5 8 -21 9 -35 1 -14 5
-49 9 -77 5 -45 4 -53 -9 -53 -19 0 -41 36 -33 56 3 7 -1 34 -9 60 -18 61 -4
99 38 103 4 1 7 -2 7 -6z m6998 -5 c21 -21 13 -55 -19 -82 -33 -28 -58 -33
-77 -14 -19 19 -14 44 17 77 30 32 59 39 79 19z m-434 -9 c34 -16 40 -38 18
-69 -28 -36 -61 -33 -86 9 l-20 34 23 18 c27 22 32 23 65 8z m-8107 -25 c44
-25 45 -31 15 -66 -21 -25 -29 -23 -52 15 -19 31 -27 77 -13 77 3 0 26 -12 50
-26z m8338 0 c14 -14 14 -19 2 -38 -17 -26 -75 -66 -95 -66 -22 0 -8 67 19 96
26 28 51 30 74 8z m-8201 -123 c20 -21 13 -42 -22 -75 -38 -34 -48 -4 -26 77
7 22 27 22 48 -2z m6259 -21 c38 -40 85 -40 179 0 39 17 73 29 75 26 6 -5 -30
-93 -91 -220 -30 -63 -62 -143 -71 -178 -19 -74 -47 -125 -104 -190 -45 -51
-51 -68 -21 -68 21 0 21 0 0 -110 -10 -52 -18 -221 -25 -545 -3 -126 -10 -234
-15 -239 -13 -13 -27 1 -182 169 -70 77 -201 208 -290 290 -88 83 -170 162
-181 176 l-19 27 27 103 c22 86 28 138 35 297 5 106 12 197 15 202 6 10 85 14
85 5 0 -3 -7 -22 -15 -42 -8 -19 -15 -51 -15 -70 0 -38 21 -62 126 -149 56
-46 86 -100 106 -189 9 -42 18 -61 31 -63 13 -3 17 3 17 26 0 16 9 58 21 93
24 73 26 157 4 198 -8 16 -37 48 -66 73 l-51 44 8 53 9 54 75 32 c79 34 179
115 203 163 11 24 66 60 92 62 6 0 23 -13 38 -30z m2217 -17 c0 -20 -28 -53
-47 -53 -16 0 -17 42 -1 58 18 18 48 15 48 -5z m-2536 -30 c-10 -58 -28 -80
-86 -101 -107 -39 -100 -40 -93 15 8 51 25 73 60 73 12 0 42 11 66 24 59 33
61 32 53 -11z m1711 7 c36 -38 25 -50 -49 -50 -27 0 -65 -5 -86 -11 -31 -10
-42 -8 -78 10 -51 26 -59 39 -30 46 181 43 207 43 243 5z m415 -7 c0 -21 -29
-53 -47 -53 -12 0 -33 38 -33 61 0 15 43 28 63 17 9 -5 17 -16 17 -25z m220
12 l23 -25 -22 -24 c-29 -31 -97 -52 -117 -35 -24 20 -12 51 31 81 49 34 56
34 85 3z m-5576 0 c18 -14 15 -15 -35 -15 -58 0 -103 -20 -84 -38 15 -15 267
-23 262 -8 -5 17 -48 36 -82 36 -23 0 -27 3 -15 10 44 28 95 -1 125 -72 22
-53 19 -92 -9 -125 l-24 -28 -11 28 c-6 16 -11 36 -11 45 0 10 -7 28 -16 40
-13 19 -24 22 -79 22 -63 0 -65 -1 -81 -32 -20 -41 -54 -78 -69 -78 -19 0
-105 97 -105 119 0 21 69 83 111 100 36 15 101 12 123 -4z m5120 -82 c9 -26
16 -61 16 -79 0 -26 -5 -33 -25 -36 -30 -6 -35 -2 -35 32 0 15 -11 43 -25 63
l-24 37 22 15 c37 26 54 19 71 -32z m-2107 10 c-13 -63 -26 -83 -54 -84 -16 0
-37 -2 -47 -4 -54 -10 -91 -9 -88 4 8 37 49 72 107 91 83 26 89 26 82 -7z
m1641 7 c22 -11 45 -20 51 -20 40 0 -14 -46 -117 -99 -23 -12 -92 -5 -92 10 0
11 99 129 108 129 5 0 27 -9 50 -20z m-2043 -41 c7 -10 -31 -59 -46 -59 -10 0
-29 57 -22 64 11 10 61 7 68 -5z m-81 -52 c18 -43 18 -49 4 -63 -13 -14 -19
-14 -50 -1 -25 11 -38 25 -50 56 -17 41 -16 42 5 51 46 19 70 8 91 -43z m234
-14 c-16 -32 -42 -71 -57 -86 l-28 -29 -7 48 c-7 54 5 73 64 105 55 29 60 23
28 -38z m-358 2 c7 -14 11 -27 8 -30 -9 -9 -118 -13 -118 -4 0 10 71 59 86 59
6 0 17 -11 24 -25z m3250 10 c0 -25 -46 -65 -75 -65 -14 0 -25 4 -25 8 0 16
71 71 93 72 4 0 7 -7 7 -15z m-214 -9 c18 -14 18 -17 4 -43 -9 -15 -24 -28
-34 -28 -27 0 -46 35 -35 63 10 25 36 29 65 8z m2284 -71 c0 -49 -4 -60 -34
-93 -19 -20 -37 -34 -40 -31 -3 3 -8 31 -12 63 -7 56 -6 58 27 86 50 43 59 39
59 -25z m-8975 26 l50 -6 -1 -85 c-1 -47 -2 -120 -3 -163 -5 -187 112 -292
349 -312 67 -6 187 -42 214 -64 6 -5 38 -17 71 -26 48 -14 81 -16 175 -11 147
8 159 2 104 -56 -69 -71 -199 -291 -192 -324 5 -21 18 -6 88 98 36 53 66 95
68 94 1 -2 -9 -28 -23 -59 -45 -98 -113 -413 -100 -464 4 -18 11 -23 28 -21
18 3 24 15 38 78 9 41 20 92 23 113 4 20 11 37 17 37 24 0 121 -118 160 -197
l43 -83 2 -160 c1 -143 0 -161 -17 -176 -13 -12 -28 -15 -54 -10 -28 6 -48 22
-100 84 -36 42 -94 99 -128 125 -71 55 -256 149 -467 235 -155 64 -261 119
-344 179 -60 43 -331 267 -340 281 -3 5 4 18 15 28 49 44 63 92 69 225 6 136
1 121 100 308 l45 83 3 122 c4 123 12 152 41 140 9 -3 39 -9 66 -13z m4344
-23 c-9 -33 -48 -73 -82 -84 -27 -9 -29 -2 -11 50 17 48 37 64 81 65 20 1 21
-2 12 -31z m1393 14 c7 -7 -8 -16 -48 -27 -33 -10 -85 -30 -117 -46 -67 -34
-75 -34 -125 -13 l-37 15 25 20 c46 35 169 70 234 65 32 -2 63 -9 68 -14z
m-1839 -48 c7 -36 -10 -102 -35 -137 l-22 -30 -18 42 c-19 46 -19 48 29 124
26 41 38 41 46 1z m2467 -49 c-15 -50 -51 -120 -83 -163 l-26 -34 -16 31 c-15
31 -15 33 19 89 19 31 42 76 51 98 19 49 58 74 63 41 2 -12 -2 -39 -8 -62z
m426 -9 c17 -14 18 -17 4 -42 -8 -15 -21 -29 -27 -32 -19 -6 -35 45 -23 69 13
23 20 24 46 5z m-2384 -102 c1 -30 1 -59 -1 -65 -1 -5 -26 12 -55 38 -28 27
-62 55 -76 64 l-25 17 36 15 c20 8 40 20 43 26 5 7 19 2 41 -14 29 -23 34 -32
37 -81z m1001 90 c26 -9 47 -18 47 -21 0 -3 -12 -15 -27 -27 -15 -11 -50 -41
-77 -64 -43 -39 -50 -42 -64 -29 -13 13 -13 20 -2 47 12 28 66 110 73 110 2 0
24 -7 50 -16z m-1593 -127 c0 -11 -16 -35 -35 -54 -30 -30 -40 -35 -67 -29
-44 9 -47 15 -16 37 14 11 41 42 59 71 l33 51 13 -29 c6 -16 12 -37 13 -47z
m5160 46 c0 -3 -5 -35 -11 -70 -9 -50 -17 -68 -36 -80 -36 -24 -44 -7 -31 68
9 57 14 67 37 76 33 14 41 15 41 6z m-5034 -169 c-3 -12 -22 -41 -42 -65 -72
-86 -90 -146 -150 -498 -53 -316 -84 -413 -207 -656 -25 -49 -51 -109 -58
-132 -9 -33 -17 -43 -33 -43 -29 0 -38 8 -84 68 -43 58 -44 67 -21 185 12 63
11 226 -1 304 -22 135 -123 386 -201 500 -18 26 -73 89 -121 139 -69 71 -85
93 -72 98 30 11 199 6 269 -9 39 -8 109 -15 158 -15 94 0 101 -5 70 -50 -14
-19 -18 -45 -18 -106 0 -76 3 -88 40 -160 23 -43 46 -79 51 -81 7 -2 13 16 16
42 4 33 18 62 47 103 65 89 74 116 68 198 l-6 70 62 29 c75 34 163 119 203
196 l29 54 3 -75 c2 -41 1 -84 -2 -96z m521 84 c-7 -57 -16 -77 -27 -57 -4 8
-3 43 3 78 8 49 12 59 20 46 5 -10 7 -40 4 -67z m1747 -4 c13 -34 4 -64 -36
-117 -24 -31 -45 -57 -49 -57 -3 0 -4 27 -3 61 1 54 5 64 35 95 37 38 44 41
53 18z m-2836 -1 c-2 -5 -17 -32 -33 -61 -29 -51 -31 -53 -65 -48 -82 12 -153
26 -159 31 -3 4 13 24 36 46 l42 39 91 0 c51 0 90 -3 88 -7z m195 -46 c53 -17
97 -35 97 -39 0 -14 -69 -37 -133 -45 -75 -10 -177 -5 -177 9 0 5 17 33 38 63
29 42 41 53 57 49 11 -3 64 -20 118 -37z m-493 15 c0 -21 -34 -52 -63 -56
-103 -16 -129 -17 -122 -6 18 29 185 85 185 62z m2968 -158 l-12 -29 -4 33
c-4 38 21 81 26 45 2 -10 -3 -33 -10 -49z m-2448 -34 c0 -24 -4 -25 -35 -4
-13 9 -29 13 -35 9 -6 -4 3 -16 22 -29 37 -25 44 -43 24 -69 -13 -17 -15 -17
-49 3 -34 20 -35 23 -25 53 5 18 11 38 14 45 2 7 20 12 44 12 33 0 40 -3 40
-20z m414 -130 c25 -40 83 -101 179 -189 169 -153 271 -259 431 -444 154 -177
258 -258 359 -276 40 -7 42 -8 39 -42 -1 -18 -20 -86 -41 -149 -22 -63 -71
-218 -111 -345 -196 -627 -282 -857 -441 -1172 -139 -276 -183 -333 -333 -428
-106 -67 -315 -154 -516 -215 -212 -64 -310 -87 -527 -125 -79 -14 -220 -48
-314 -76 -94 -28 -176 -48 -183 -46 -6 2 -17 35 -24 73 -7 38 -30 141 -51 229
-31 125 -41 190 -46 297 l-7 137 68 44 c38 25 107 64 154 88 47 23 117 64 155
89 96 64 203 122 208 113 2 -5 7 -24 11 -44 7 -42 26 -62 79 -84 76 -31 246
-7 308 44 l34 29 0 102 c0 91 2 103 20 112 36 19 180 172 198 210 19 41 22
122 5 188 -6 25 -11 86 -12 135 -1 78 -5 98 -28 144 -22 41 -28 67 -28 114 0
40 -8 78 -20 105 -19 42 -19 44 -1 80 10 20 37 89 61 152 24 63 62 154 86 202
106 218 187 507 209 748 10 120 32 260 39 260 2 0 20 -27 40 -60z m-1035 -37
c113 -122 207 -332 245 -543 17 -93 17 -384 0 -399 -5 -5 -61 -11 -126 -14
l-116 -6 -6 47 c-4 26 -8 65 -11 87 -3 22 -9 74 -14 115 -6 41 -12 161 -15
266 -5 159 -17 315 -40 492 -3 17 -1 32 4 32 4 0 40 -35 79 -77z m550 50 l22
-18 -30 -55 -30 -54 -10 27 c-20 51 -11 117 14 117 7 0 23 -8 34 -17z m4134
-86 c53 -41 88 -97 177 -276 174 -352 304 -471 542 -496 77 -8 91 -21 109
-104 14 -66 -9 -153 -46 -177 -60 -39 -212 9 -421 133 -163 96 -197 123 -251
196 -40 55 -42 61 -26 72 17 13 17 15 -3 37 -11 13 -31 52 -44 88 -12 36 -49
105 -81 153 -41 62 -61 105 -70 145 -19 94 -1 204 43 259 11 14 17 12 71 -30z
m-8073 -243 c61 -63 332 -289 399 -332 75 -48 215 -112 341 -157 141 -50 341
-137 407 -177 69 -42 155 -128 128 -128 -10 0 -33 5 -51 12 -48 17 -87 -2 -82
-40 4 -36 46 -57 82 -41 21 10 37 9 86 -6 75 -23 97 -45 84 -83 -7 -19 -17
-28 -37 -30 -29 -4 -56 -44 -50 -74 9 -38 75 -30 88 11 3 10 15 27 26 37 20
18 21 18 49 -16 16 -19 48 -69 71 -110 86 -154 111 -180 150 -160 27 15 23 65
-17 212 -16 59 -26 109 -22 113 10 10 89 -15 95 -31 8 -21 51 -17 63 5 14 27
13 47 -6 65 -12 12 -20 14 -36 5 -15 -8 -31 -6 -71 11 -63 27 -87 47 -87 72 0
10 27 46 60 80 33 33 60 62 60 64 0 2 -5 15 -12 29 -17 37 -43 31 -78 -20 -17
-25 -35 -45 -40 -45 -15 0 -32 81 -25 114 18 86 16 112 -14 206 -17 52 -29 95
-27 97 1 2 30 -8 64 -22 34 -14 68 -25 76 -25 21 0 160 -74 303 -161 65 -40
181 -106 258 -147 188 -101 704 -357 749 -372 20 -6 36 -18 36 -26 0 -7 -20
-45 -45 -84 -25 -39 -66 -108 -91 -155 -25 -47 -58 -93 -72 -103 -43 -30 -329
-182 -343 -182 -4 0 -19 19 -34 43 -41 61 -132 147 -164 153 -38 8 -67 -8
-256 -141 -212 -149 -289 -199 -620 -410 -351 -223 -478 -307 -537 -357 l-46
-38 -36 57 c-80 127 -157 304 -242 553 -88 261 -166 465 -209 549 -36 71 -136
218 -197 288 -90 103 -230 213 -273 213 -24 0 -17 -26 13 -46 49 -32 143 -127
207 -209 158 -204 207 -309 396 -845 80 -228 164 -416 231 -519 l37 -56 -83
-85 c-96 -98 -138 -160 -189 -281 -39 -92 -127 -421 -127 -476 0 -32 17 -46
24 -20 75 264 182 498 300 654 41 54 85 108 98 120 l24 23 12 -105 c8 -74 22
-132 48 -202 69 -183 118 -272 140 -250 3 2 -13 50 -35 106 -60 148 -101 296
-108 382 l-6 75 179 120 c99 67 337 226 529 356 193 129 414 280 492 335 156
111 222 153 244 153 22 0 78 -74 151 -202 37 -65 90 -151 117 -191 66 -97 113
-193 145 -297 87 -287 103 -573 45 -802 -8 -31 -29 -52 -138 -137 -71 -55
-180 -133 -242 -172 -63 -39 -159 -101 -214 -137 -55 -36 -158 -101 -230 -145
-71 -44 -179 -114 -240 -155 -195 -135 -221 -151 -336 -215 -63 -35 -170 -97
-239 -137 -69 -40 -185 -102 -259 -138 -113 -55 -145 -66 -200 -70 -79 -5
-216 19 -310 54 -36 14 -129 41 -206 59 -263 63 -406 125 -557 243 -48 37 -99
75 -112 84 -55 40 -328 419 -480 667 -258 423 -479 909 -616 1354 -40 131 -41
132 -35 252 11 221 49 379 116 490 106 175 346 447 514 582 188 151 419 268
897 454 48 19 88 40 88 47 0 21 15 13 60 -34z m8124 -555 c52 -67 103 -107
238 -187 188 -112 264 -142 415 -165 l78 -12 28 -60 c51 -106 70 -202 65 -334
-3 -64 -10 -129 -17 -146 l-12 -30 -36 67 c-43 83 -125 174 -209 234 -35 25
-139 84 -231 130 -92 47 -187 100 -212 119 -112 83 -161 162 -169 276 -5 71 4
159 17 159 4 0 24 -23 45 -51z m-4258 -344 c20 -13 23 -23 22 -66 0 -43 4 -55
28 -80 27 -28 29 -36 30 -112 0 -70 4 -89 28 -132 24 -45 26 -57 21 -111 -5
-44 -2 -78 10 -122 11 -38 15 -78 12 -103 -11 -84 -141 -236 -248 -290 -34
-16 -137 -52 -230 -79 -112 -32 -184 -58 -216 -79 -27 -17 -125 -69 -218 -115
-94 -47 -194 -100 -224 -120 -29 -20 -56 -36 -60 -36 -3 0 -18 48 -33 108 -53
216 -87 287 -243 507 -19 27 -35 53 -35 56 0 6 170 93 298 152 45 21 97 75
111 113 7 22 44 86 81 144 37 58 79 128 93 156 38 74 114 139 194 164 71 22
128 26 138 10 11 -18 64 -11 128 17 34 14 81 32 105 38 53 14 174 2 208 -20z
m-2313 -48 c15 -10 47 -102 47 -132 -1 -11 -90 126 -90 138 0 11 24 8 43 -6z
m6818 -178 c96 -51 199 -109 230 -130 87 -59 181 -167 233 -270 l46 -90 -27
-76 c-25 -71 -64 -133 -84 -133 -5 0 -21 19 -35 43 -148 235 -204 300 -398
466 -132 112 -164 145 -169 171 -9 42 5 110 21 110 5 0 88 -41 183 -91z m-74
-282 c165 -147 287 -283 354 -393 51 -85 78 -110 128 -120 17 -4 32 -13 36
-22 12 -31 5 -307 -9 -373 -20 -95 -87 -219 -117 -219 -4 0 -19 35 -33 78 -39
116 -100 219 -368 621 -70 105 -136 208 -147 228 -26 52 -42 167 -31 224 10
53 30 99 42 99 5 0 70 -55 145 -123z m-276 -134 c29 -93 132 -266 303 -513
156 -224 235 -373 266 -496 11 -45 31 -106 45 -136 36 -78 41 -134 20 -212
-22 -81 -16 -155 21 -270 36 -109 40 -262 8 -316 -11 -19 -27 -36 -36 -38 -26
-5 -94 71 -133 147 -19 39 -53 131 -75 204 -46 153 -114 337 -154 415 -53 104
-220 378 -265 435 -87 110 -101 132 -123 202 -19 57 -23 92 -22 190 0 66 6
145 12 175 13 57 100 250 113 250 4 0 13 -17 20 -37z m-99 -810 c90 -119 232
-348 285 -459 23 -50 74 -184 112 -297 80 -239 95 -273 169 -385 67 -104 78
-142 102 -367 18 -166 18 -188 4 -280 -28 -187 -9 -159 -265 -393 l-46 -41
-21 102 c-11 56 -30 149 -42 207 -48 241 -77 348 -155 587 -93 282 -135 379
-223 515 -34 51 -77 128 -97 170 -34 70 -37 86 -42 190 -5 97 -2 128 20 224
14 61 38 142 53 180 27 68 64 134 75 134 3 0 35 -39 71 -87z m-5085 -785 c-4
-84 -9 -164 -11 -178 -2 -14 -7 -63 -11 -110 -11 -149 -31 -309 -51 -415 -17
-83 -130 -534 -234 -930 -33 -126 -60 -238 -60 -249 0 -16 2 -16 16 -5 23 19
48 74 73 159 12 41 60 197 106 345 159 511 196 668 215 915 12 143 20 178 21
89 0 -30 3 -65 6 -79 3 -14 6 -324 7 -690 1 -485 -3 -696 -12 -779 -14 -120
-17 -701 -5 -820 l6 -63 -44 7 c-77 13 -399 102 -554 153 -874 289 -1708 793
-2338 1411 l-97 96 0 67 c0 38 4 68 9 68 29 0 351 -84 421 -110 103 -38 328
-74 420 -67 57 4 87 16 245 95 99 50 223 116 275 148 52 31 144 83 203 115 60
33 170 102 245 155 75 53 207 139 292 192 85 52 207 130 270 172 63 42 147 97
185 121 39 24 123 83 188 132 65 48 131 94 147 102 18 9 33 28 40 52 29 90 34
72 27 -99z m5016 -236 c25 -59 80 -209 121 -334 59 -179 83 -269 111 -420 20
-106 38 -201 41 -210 8 -25 46 -238 51 -284 l5 -41 -122 -97 c-67 -53 -124
-96 -128 -96 -4 0 -19 51 -34 113 -56 233 -147 471 -236 619 -27 46 -57 101
-66 122 -55 132 -14 303 105 441 73 85 89 123 89 223 0 47 4 81 9 78 5 -4 30
-54 54 -114z m-8043 -741 c15 -9 16 -31 5 -80 l-6 -24 -26 24 c-14 13 -52 54
-85 91 l-60 67 79 -35 c43 -19 85 -39 93 -43z m7834 -146 c85 -172 172 -445
195 -612 l8 -52 -130 -88 -129 -88 -21 26 c-12 15 -52 62 -88 105 -97 115
-199 254 -216 294 -18 42 -19 157 -2 226 28 115 106 224 229 321 l55 43 17
-23 c10 -12 47 -80 82 -152z m-450 -449 c32 -65 154 -239 223 -317 62 -71 97
-119 90 -125 -13 -13 -272 -164 -282 -164 -13 0 -179 168 -194 197 -22 44 8
355 41 416 9 18 60 46 84 47 7 0 24 -24 38 -54z m-131 -610 c26 -30 47 -57 47
-60 0 -3 -46 -29 -101 -57 l-102 -50 7 28 c11 41 83 193 93 193 4 0 29 -25 56
-54z"/>
<path d="M3507 9833 c-13 -13 -7 -42 23 -98 52 -99 143 -227 205 -290 l60 -61
-75 13 c-92 15 -170 16 -204 3 -44 -16 -29 -26 42 -28 59 -1 155 -22 289 -63
32 -10 48 -10 65 -2 13 6 35 14 51 17 33 8 34 15 3 61 -14 20 -48 109 -76 198
-28 89 -57 173 -63 187 -15 30 -54 39 -64 14 -7 -19 19 -138 53 -236 12 -38
19 -68 15 -68 -22 0 -154 162 -235 288 -44 67 -69 86 -89 65z"/>
<path d="M1195 8719 c-9 -29 4 -38 21 -15 18 25 18 36 0 36 -8 0 -18 -9 -21
-21z"/>
<path d="M4205 8759 c-43 -52 -87 -147 -83 -182 5 -48 27 -39 61 23 16 30 49
79 73 108 47 58 48 82 4 82 -19 0 -37 -10 -55 -31z"/>
<path d="M9597 8133 c-12 -11 -8 -23 8 -23 8 0 15 7 15 15 0 16 -12 20 -23 8z"/>
<path d="M3350 8319 c-119 -13 -320 -95 -320 -129 0 -16 60 -11 130 11 73 23
199 35 253 25 20 -4 63 -27 97 -52 73 -54 108 -60 127 -24 17 34 3 54 -83 112
-78 54 -125 67 -204 57z"/>
<path d="M3345 8153 c-73 -7 -175 -47 -175 -68 0 -30 97 -97 174 -119 l41 -12
-37 -18 c-37 -18 -50 -36 -25 -36 29 0 171 40 192 54 22 15 42 52 32 62 -2 2
-23 -2 -46 -11 l-42 -15 7 48 c3 26 8 48 9 50 1 1 21 -13 45 -33 67 -56 85
-43 23 17 -61 58 -132 87 -198 81z m-2 -68 c-13 -28 -14 -39 -5 -60 10 -22 9
-25 -7 -25 -22 0 -116 61 -116 75 0 7 105 41 137 44 4 1 0 -15 -9 -34z"/>
<path d="M3543 7768 c-27 -30 -32 -48 -22 -75 11 -31 27 -29 22 2 -3 14 4 38
17 60 24 39 14 47 -17 13z"/>
<path d="M3633 7718 c-31 -15 -29 -46 3 -60 40 -18 109 8 109 42 0 23 -4 25
-45 27 -25 1 -55 -3 -67 -9z"/>
<path d="M5378 6269 c-2 -7 6 -73 19 -148 12 -75 25 -185 29 -244 5 -71 11
-106 18 -104 15 5 13 196 -3 307 -19 135 -50 228 -63 189z"/>
</g>
</svg>
