<?xml version="1.0" standalone="no"?>
<!DOCTYPE svg PUBLIC "-//W3C//DTD SVG 20010904//EN"
 "http://www.w3.org/TR/2001/REC-SVG-20010904/DTD/svg10.dtd">
<svg version="1.0" xmlns="http://www.w3.org/2000/svg"
 width="1249.000000pt" height="1249.000000pt" viewBox="0 0 1249.000000 1249.000000"
 preserveAspectRatio="xMidYMid meet">
<metadata>
Created by potrace 1.16, written by Peter Selinger 2001-2019
</metadata>
<g transform="translate(0.000000,1249.000000) scale(0.100000,-0.100000)"
fill="#000000" stroke="none">
<path d="M0 6245 l0 -6245 6245 0 6245 0 0 6245 0 6245 -6245 0 -6245 0 0
-6245z m6022 5859 c4 -159 12 -397 17 -529 5 -132 10 -323 11 -424 1 -178 5
-238 35 -536 20 -197 23 -243 30 -385 4 -69 8 -143 10 -165 21 -234 26 -1279
6 -1520 -6 -77 -16 -215 -23 -306 l-11 -166 24 -49 c19 -40 34 -54 75 -73 l51
-25 10 -64 c5 -37 6 -65 0 -69 -5 -3 -61 -9 -125 -14 -237 -18 -323 -36 -461
-96 -12 -5 -13 20 -7 168 4 96 11 282 16 414 5 132 13 267 19 300 40 236 50
780 37 1945 -5 405 -4 447 9 385 37 -188 48 -317 60 -675 3 -91 8 -178 10
-195 2 -16 7 -60 10 -97 7 -68 19 -94 29 -61 3 10 1 223 -4 473 -9 498 -10
506 -89 832 -37 153 -48 225 -56 388 -3 69 -10 195 -15 280 -5 85 -12 239 -16
342 l-7 187 24 5 c25 6 283 23 309 20 13 -1 16 -44 22 -290z m653 282 c17 -3
66 -7 110 -11 212 -15 535 -65 786 -121 873 -193 1710 -582 2404 -1117 l131
-101 23 -230 c29 -296 65 -523 145 -921 66 -327 80 -420 91 -605 7 -128 14
-215 20 -255 2 -16 7 -68 11 -115 3 -47 15 -141 25 -210 11 -69 25 -172 33
-230 8 -58 22 -161 32 -230 9 -69 18 -141 18 -159 1 -35 1 -35 -59 -47 -84
-18 -322 -48 -370 -48 -363 3 -460 8 -780 39 -88 9 -212 18 -275 21 -63 2
-223 9 -355 14 -132 5 -265 7 -295 5 -30 -2 -140 -7 -245 -10 -104 -3 -215 -8
-245 -11 -87 -8 -363 -45 -370 -49 -9 -6 -420 -62 -500 -69 -69 -6 -512 9
-570 19 -19 3 -72 12 -117 20 -45 8 -96 21 -113 30 -53 27 -55 45 -37 243 9
97 20 240 23 317 3 77 8 151 11 165 11 48 13 1115 2 1230 -5 63 -12 144 -15
180 -3 36 -7 85 -9 110 -2 25 -7 83 -10 130 -5 75 -18 206 -30 310 -2 19 -7
76 -10 125 -3 50 -8 115 -10 145 -5 62 -12 318 -21 745 -3 159 -8 298 -10 308
-2 15 -6 345 -4 391 0 9 520 1 585 -8z m-1051 -218 c3 -112 9 -414 12 -673 3
-258 7 -501 9 -540 8 -202 20 -1080 20 -1498 0 -394 -2 -479 -14 -486 -18 -11
-106 -20 -211 -22 -81 0 -328 -19 -530 -38 -52 -6 -144 -13 -205 -16 -60 -3
-150 -10 -200 -15 -54 -5 -278 -5 -555 0 -411 8 -475 11 -553 29 -48 11 -92
23 -98 26 -18 12 -106 200 -133 284 -35 110 -70 312 -101 586 -14 121 -32 270
-40 330 -80 582 -125 1006 -125 1164 0 110 1 117 23 130 674 423 1374 706
2102 850 133 26 439 74 535 84 19 2 40 5 46 5 8 2 13 -61 18 -200z m-2784
-868 c0 -33 6 -106 14 -162 8 -57 18 -152 21 -213 3 -60 8 -123 11 -140 2 -16
11 -97 19 -180 15 -147 32 -282 60 -480 8 -55 22 -172 30 -260 18 -174 32
-291 41 -344 l7 -34 -269 6 c-148 4 -270 7 -272 7 -2 0 -1 28 2 63 3 34 8 328
11 652 3 325 8 669 11 765 6 173 6 175 31 195 80 62 269 192 276 188 4 -2 7
-31 7 -63z m-373 -237 c-4 -21 -9 -254 -12 -518 -3 -264 -7 -592 -10 -728 -7
-374 -41 -572 -44 -257 -1 187 -21 485 -42 630 -10 74 -26 196 -35 270 -9 74
-22 146 -30 160 -13 22 -14 9 -8 -125 3 -82 7 -152 9 -155 3 -5 11 -131 21
-335 3 -71 7 -132 9 -135 2 -3 6 -63 9 -135 4 -71 9 -146 11 -165 2 -19 7 -73
11 -120 3 -47 9 -115 13 -152 8 -71 6 -74 -31 -59 -13 5 -54 16 -91 25 -81 18
-257 72 -275 84 -11 7 -9 31 7 128 18 112 23 146 36 269 12 110 35 544 41 775
l8 245 84 75 c118 106 305 260 316 260 5 0 6 -17 3 -37z m7810 -177 c10 -14 8
4 16 -191 4 -93 9 -222 12 -285 3 -63 7 -191 10 -285 5 -162 4 -167 -10 -115
-19 74 -90 493 -110 655 -9 72 -23 173 -31 225 -7 52 -14 99 -14 103 0 10 115
-87 127 -107z m299 -274 c1018 -1013 1637 -2302 1789 -3730 30 -282 39 -705
22 -1019 -41 -739 -241 -1526 -566 -2223 -746 -1602 -2168 -2820 -3865 -3311
-625 -181 -1252 -258 -1928 -238 -733 23 -1463 182 -2163 471 -180 74 -560
264 -731 365 -1147 678 -2043 1696 -2557 2904 -354 832 -525 1754 -487 2629
11 260 12 281 41 525 144 1213 647 2348 1459 3290 52 60 150 166 218 235 l123
125 -5 -75 c-10 -140 -26 -465 -31 -615 -5 -175 -21 -472 -30 -530 -3 -22 -8
-57 -11 -77 -5 -35 -3 -38 33 -56 54 -28 369 -129 426 -137 26 -4 47 -11 47
-15 0 -4 -6 -26 -14 -48 -8 -22 -24 -86 -36 -141 -27 -129 -89 -297 -143 -386
-50 -83 -149 -192 -230 -251 -106 -78 -371 -165 -418 -136 -27 17 -93 14 -179
-8 -105 -28 -132 -40 -157 -69 -21 -26 -21 -26 -155 -22 -73 2 -184 4 -246 5
-113 1 -114 1 -138 -27 -13 -15 -24 -37 -24 -48 0 -13 -12 -24 -39 -35 -27
-10 -45 -26 -55 -49 -21 -43 -20 -58 4 -104 27 -53 70 -87 175 -137 109 -53
224 -75 466 -89 339 -21 499 -58 859 -201 102 -40 281 -105 396 -144 287 -96
358 -97 471 -4 62 51 86 103 90 194 2 41 6 123 8 182 4 84 9 116 26 148 20 39
21 50 14 187 -4 80 -12 154 -18 164 -11 18 -3 112 29 328 13 90 123 491 134
491 3 0 14 -16 25 -36 11 -20 29 -43 41 -51 12 -7 98 -26 190 -40 163 -25 184
-26 589 -25 386 1 523 8 566 26 26 11 29 -32 24 -314 -6 -372 -32 -515 -131
-720 -130 -270 -252 -406 -454 -509 -80 -41 -132 -61 -156 -61 -44 0 -132 -34
-287 -112 -107 -53 -120 -62 -135 -98 -14 -32 -33 -49 -102 -91 -156 -94 -276
-145 -437 -184 -98 -23 -127 -52 -120 -117 4 -32 1 -57 -8 -75 -8 -16 -15 -52
-15 -80 0 -60 16 -83 74 -104 20 -7 36 -16 36 -21 0 -4 -26 -8 -57 -10 -57 -3
-85 -23 -41 -30 15 -2 22 -9 20 -20 -4 -24 19 -23 67 2 55 28 111 35 135 17
19 -14 19 -15 -10 -29 -16 -9 -46 -18 -66 -22 -41 -7 -56 -22 -40 -38 6 -6 8
-17 5 -24 -10 -28 28 -26 74 4 55 35 217 72 234 55 12 -12 -64 -73 -90 -73
-12 -1 -11 -5 6 -19 20 -16 28 -17 100 -5 43 7 120 22 172 34 52 11 98 19 104
17 5 -1 -9 -15 -31 -30 -49 -35 -87 -75 -79 -84 4 -3 24 1 44 10 21 8 65 18
98 22 33 3 104 16 158 29 53 13 97 20 97 16 0 -16 -38 -39 -83 -50 -26 -7 -50
-16 -53 -21 -6 -11 118 -5 136 6 19 12 248 55 293 55 32 0 50 8 91 43 28 24
56 46 62 50 6 4 70 13 142 22 144 17 163 21 156 38 -3 10 98 85 130 96 6 2 25
16 41 31 24 23 43 30 99 36 l70 7 -37 -33 c-36 -31 -46 -53 -29 -64 5 -3 45
21 89 54 l80 59 119 16 c66 9 136 14 157 11 34 -6 43 -1 103 45 65 52 65 52
162 60 137 12 182 19 182 28 0 5 -22 8 -50 7 -27 -1 -50 0 -50 3 0 18 48 51
74 51 41 0 76 10 76 21 0 5 -16 9 -35 9 -43 0 -44 8 -6 44 26 25 29 34 30 102
1 84 -18 143 -49 151 -13 4 -21 17 -25 42 -4 20 -19 74 -35 121 -15 47 -31
105 -33 129 -7 52 -71 186 -100 206 -19 13 -20 26 -21 262 l-1 248 43 180 c23
99 51 207 61 240 11 33 24 78 30 100 l11 40 -6 -44 c-2 -24 -11 -148 -19 -275
-31 -500 -37 -629 -28 -642 14 -18 75 -51 163 -89 89 -37 244 -78 441 -115 63
-12 120 -25 126 -28 16 -10 -19 -313 -52 -449 -71 -297 -146 -430 -313 -555
-77 -58 -118 -79 -352 -176 -146 -61 -285 -119 -309 -130 -33 -15 -51 -18 -68
-11 -13 5 -33 9 -44 9 -48 0 -453 -215 -486 -259 -7 -9 -13 -25 -13 -37 0 -24
-46 -52 -141 -88 -85 -32 -85 -31 -569 -61 -41 -3 -85 -10 -97 -17 -47 -24
-66 -114 -39 -188 12 -33 11 -37 -13 -63 -22 -24 -26 -37 -26 -93 0 -61 2 -68
32 -94 19 -17 27 -30 20 -33 -9 -3 -8 -9 3 -21 13 -16 12 -20 -4 -32 -11 -8
-30 -11 -47 -7 -28 5 -40 -9 -19 -22 7 -4 6 -13 -1 -26 -15 -29 -5 -34 26 -13
23 15 32 16 80 4 73 -18 80 -23 64 -48 -20 -32 -4 -37 35 -13 29 18 39 20 56
11 12 -6 31 -10 43 -8 21 3 20 5 -8 20 -26 14 -27 17 -12 23 13 6 115 -25 136
-41 2 -2 -10 -14 -25 -28 -33 -29 -18 -34 29 -9 18 9 45 16 60 15 24 -2 27 1
23 16 -5 15 2 23 33 37 35 15 45 16 90 4 48 -12 50 -13 44 -43 l-6 -31 24 18
c39 28 43 29 120 9 59 -14 74 -22 74 -37 0 -24 16 -29 39 -12 14 10 31 11 73
4 30 -5 57 -6 61 -2 4 4 2 10 -4 12 -6 2 -19 10 -30 17 -17 13 -16 15 14 34
32 19 35 19 110 2 69 -15 77 -19 75 -38 -3 -26 22 -30 48 -6 15 14 23 14 79
-1 34 -9 72 -14 84 -12 16 3 8 10 -38 32 -54 26 -58 29 -41 41 10 8 29 14 42
14 45 0 198 -41 210 -57 8 -10 20 -13 36 -9 14 3 46 -1 73 -9 61 -18 80 -4 29
23 l-38 19 58 33 c58 33 59 33 119 21 34 -7 87 -22 120 -32 l58 -20 37 25 c92
63 94 63 232 17 140 -46 143 -47 135 -26 -4 11 7 22 37 36 l43 21 85 -27 c46
-14 88 -33 92 -41 5 -8 13 -12 18 -8 6 3 31 1 55 -6 50 -14 67 -7 38 15 -19
15 -19 15 0 30 11 8 31 15 44 15 36 0 106 -22 115 -36 4 -7 24 -13 45 -13 20
1 73 -12 117 -27 82 -27 114 -32 124 -17 11 16 99 63 117 63 9 0 62 -14 117
-31 70 -21 103 -27 110 -20 7 7 0 15 -26 26 -20 8 -37 19 -36 23 0 4 14 18 31
31 l30 24 72 -17 c39 -9 76 -20 83 -24 8 -5 -6 -22 -42 -50 -35 -27 -57 -51
-60 -69 -4 -16 -15 -46 -25 -68 -45 -100 -34 -181 35 -244 24 -22 49 -41 55
-41 25 0 5 -20 -56 -56 -75 -44 -136 -106 -128 -129 8 -20 11 -20 80 13 98 47
119 53 167 50 l46 -3 -65 -48 c-90 -67 -85 -83 21 -79 44 2 114 10 155 18 102
19 109 18 70 -11 -43 -32 -51 -45 -39 -67 12 -23 30 -23 60 1 13 10 62 40 109
65 l85 47 58 -12 c31 -7 56 -18 54 -24 -2 -5 -57 -24 -122 -41 -65 -16 -121
-36 -123 -42 -4 -13 38 -32 72 -32 17 0 22 -6 21 -26 0 -53 27 -52 104 5 63
46 82 54 167 71 102 21 189 26 198 11 7 -10 -89 -86 -121 -96 -44 -13 -13 -44
40 -39 67 7 291 54 380 80 18 6 18 5 2 -20 -18 -28 -14 -56 8 -56 7 0 56 27
107 60 76 49 101 60 136 60 28 0 44 -5 48 -15 4 -10 20 -15 51 -15 l45 0 -16
-25 c-17 -26 -12 -45 13 -45 9 0 48 24 87 54 52 40 93 62 151 80 97 31 105 32
105 6 0 -31 23 -24 89 29 72 58 182 101 206 81 12 -10 26 -2 76 41 57 49 66
53 118 55 31 2 126 19 211 39 85 20 168 36 184 36 16 -1 40 6 54 15 14 9 104
42 200 73 174 56 217 79 182 101 -19 12 -11 15 113 38 95 18 112 17 82 -8 -8
-7 -15 -16 -15 -21 0 -21 46 -6 100 32 53 37 107 58 152 59 11 0 15 -6 11 -20
-4 -14 0 -20 11 -20 9 0 16 5 16 11 0 5 25 21 55 35 30 14 53 29 50 34 -7 11
152 159 183 171 13 5 41 9 63 9 28 0 39 4 39 15 0 10 -10 15 -30 15 -36 0 -37
6 -9 36 23 25 20 54 -7 54 -9 0 -45 -22 -80 -50 -52 -41 -71 -50 -103 -50 -34
0 -38 3 -34 20 7 26 -6 25 -45 -4 -23 -17 -52 -25 -103 -30 -86 -9 -99 -13
-92 -32 3 -9 21 -14 56 -14 72 0 48 -18 -44 -34 -41 -7 -76 -11 -78 -9 -3 1 5
13 17 26 12 13 22 31 22 40 0 32 -42 17 -121 -42 -63 -47 -88 -60 -129 -66
-40 -6 -55 -4 -69 9 -23 21 -26 21 -74 -13 -24 -17 -67 -35 -102 -41 -88 -18
-185 -49 -185 -60 0 -14 45 -12 115 5 32 8 62 12 65 9 7 -8 -72 -74 -82 -68
-4 3 -50 -6 -103 -20 -52 -13 -95 -21 -95 -17 0 4 11 18 25 31 46 43 21 84
-33 56 -15 -8 -53 -41 -84 -74 -46 -48 -98 -82 -124 -82 -2 0 -1 14 3 30 8 42
-18 40 -76 -7 -25 -21 46 54 159 167 743 744 869 879 895 960 4 12 4 59 0 103
l-7 82 -64 62 c-54 53 -69 74 -100 152 -19 49 -52 116 -72 148 -30 49 -37 70
-43 140 -6 72 -15 99 -70 219 -73 160 -94 192 -137 219 -17 11 -34 29 -38 40
-4 11 -15 38 -25 60 -92 207 -185 481 -233 692 l-14 61 77 27 c101 36 229 104
252 134 28 35 25 105 -15 353 -19 117 -37 240 -41 273 -3 33 -8 74 -10 90 -2
17 -9 82 -15 145 -6 63 -22 179 -35 258 -26 153 -40 259 -51 387 -3 44 -9 84
-11 88 -3 5 -9 217 -14 470 -5 254 -11 473 -14 487 -9 47 -14 250 -6 250 5 0
80 -71 167 -158z m-7928 -1200 c9 -6 6 -14 -11 -30 l-24 -22 -11 24 c-11 25
-9 27 28 35 3 0 11 -3 18 -7z m123 -26 c-17 -16 -25 -18 -38 -10 -28 17 -26
32 4 36 47 6 57 -2 34 -26z m-243 12 c-6 -18 -28 -21 -28 -4 0 9 7 16 16 16 9
0 14 -5 12 -12z m385 -9 c-23 -23 -53 -20 -53 6 0 11 10 15 37 15 l37 0 -21
-21z m141 2 c8 -12 -21 -34 -34 -26 -17 11 -11 35 9 35 11 0 22 -4 25 -9z
m-353 -32 c9 -17 7 -25 -12 -45 -17 -18 -25 -21 -36 -13 -18 16 -16 29 9 56
26 28 25 28 39 2z m-126 -39 c-25 -28 -44 -10 -25 25 12 23 15 24 29 11 13
-14 13 -18 -4 -36z m262 34 c3 -8 -4 -25 -18 -40 -20 -22 -25 -23 -38 -9 -13
13 -12 17 9 40 27 29 38 31 47 9z m152 -3 c8 -14 4 -24 -20 -47 -30 -28 -31
-28 -45 -10 -13 18 -11 23 13 48 31 33 39 34 52 9z m85 -47 c10 -25 -1 -29
-14 -5 -6 12 -7 21 -1 21 5 0 12 -7 15 -16z m-444 -12 c0 -4 15 -25 34 -45 23
-25 39 -35 50 -31 15 6 15 8 -1 19 -17 13 -17 14 1 34 11 12 23 21 28 21 4 0
24 -18 44 -40 41 -45 57 -51 49 -17 -4 16 2 27 21 41 l26 18 42 -46 c46 -50
61 -57 51 -26 -4 14 2 27 22 45 l28 24 23 -27 c40 -47 53 -69 76 -133 l22 -62
-38 -126 c-74 -244 -138 -523 -161 -703 l-24 -177 -104 -101 c-132 -128 -215
-185 -393 -270 -216 -104 -310 -136 -275 -93 9 10 5 13 -19 13 -17 0 -34 6
-38 12 -6 9 -10 6 -14 -10 -5 -21 -7 -22 -25 -9 -16 12 -17 18 -7 30 11 13 7
15 -25 20 -24 3 -44 -1 -54 -10 -15 -12 -19 -11 -35 9 -11 13 -32 31 -47 41
-28 18 -29 18 -34 -2 -5 -21 -23 -28 -36 -14 -4 3 -2 12 4 20 9 10 7 13 -8 13
-11 0 -35 8 -54 17 -19 10 -42 16 -53 14 -10 -1 -33 5 -51 15 -28 15 -37 30
-65 113 -20 62 -32 119 -33 160 l-2 64 95 19 c209 40 349 107 452 214 64 67
157 205 208 309 54 109 112 311 129 449 5 43 14 83 20 89 6 6 11 27 11 46 0
35 23 71 46 71 8 0 12 -11 11 -27 -2 -22 3 -28 19 -29 12 -1 27 -5 34 -9 10
-6 12 -2 7 15 -6 25 11 60 30 60 7 0 13 -4 13 -8z m2925 -412 c-3 -5 -10 -10
-16 -10 -5 0 -9 5 -9 10 0 6 7 10 16 10 8 0 12 -4 9 -10z m-227 -21 c4 -22
-45 -46 -61 -30 -9 10 -7 16 12 32 26 21 44 21 49 -2z m122 13 c0 -13 -23 -32
-39 -32 -11 0 -10 4 4 20 19 21 35 26 35 12z m-495 -26 c0 -5 -8 -14 -17 -20
-20 -12 -45 5 -33 24 8 13 50 10 50 -4z m112 -3 c5 -13 -25 -26 -38 -17 -6 3
-5 11 2 20 13 16 31 14 36 -3z m133 10 c0 -5 -11 -16 -25 -26 -29 -21 -47 -3
-19 18 21 16 44 19 44 8z m-372 -15 c-3 -7 -11 -13 -18 -13 -7 0 -15 6 -17 13
-3 7 4 12 17 12 13 0 20 -5 18 -12z m-159 -22 c7 -8 8 -17 3 -20 -6 -3 -12 3
-15 14 -6 24 -4 25 12 6z m95 -37 c-17 -19 -34 -17 -34 5 0 22 22 37 37 24 11
-9 11 -14 -3 -29z m252 15 c-3 -8 -9 -21 -12 -29 -8 -19 23 -32 39 -16 6 6 22
11 35 11 13 0 21 4 17 10 -8 13 14 42 26 34 5 -3 9 -16 9 -29 0 -20 5 -24 33
-24 17 -1 50 -2 72 -3 22 -1 48 2 59 7 16 7 17 5 11 -13 -6 -20 -3 -22 39 -22
34 0 44 3 40 14 -3 7 7 21 21 30 25 17 26 17 23 -6 -3 -25 4 -29 44 -21 17 3
28 13 30 26 3 22 33 45 44 34 4 -4 -10 -80 -30 -169 -96 -416 -127 -613 -127
-821 l0 -142 -20 38 c-20 37 -59 55 -44 20 24 -55 45 -127 55 -185 9 -57 7
-75 -10 -130 -28 -91 -62 -136 -181 -240 -103 -90 -119 -106 -119 -120 0 -20
32 -2 135 76 126 95 179 150 206 216 l18 45 0 -35 c2 -89 -64 -249 -164 -400
-74 -111 -92 -130 -106 -110 -8 13 -12 12 -26 -7 -16 -23 -59 -31 -65 -13 -4
14 -58 -11 -58 -26 0 -15 -19 -30 -47 -38 -20 -6 -23 -4 -23 18 0 31 -15 34
-30 6 -6 -11 -21 -22 -33 -25 -13 -4 -27 -16 -32 -27 -16 -35 -37 -36 -29 -2
l7 29 -32 -28 c-36 -30 -42 -32 -57 -17 -7 7 -17 3 -32 -10 -28 -26 -69 -26
-77 0 -20 64 -106 192 -176 263 -68 68 -90 83 -193 132 -107 50 -136 61 -221
80 -29 6 -27 8 50 48 45 23 103 59 131 79 166 122 328 374 402 623 47 157 55
234 56 539 1 249 3 280 18 289 13 9 23 4 49 -24 30 -31 33 -32 37 -14 2 11 11
25 19 32 13 10 22 7 48 -12 27 -22 70 -36 52 -19 -3 4 4 14 16 24 21 17 23 17
50 -2 36 -26 47 -15 17 17 -22 24 -23 26 -6 44 19 21 51 17 42 -5z m364 18 c0
-11 -41 -34 -48 -28 -3 4 3 13 14 21 21 16 34 19 34 7z m-495 -12 c3 -5 1 -19
-6 -31 -10 -19 -12 -20 -27 -6 -13 13 -13 19 -2 31 14 18 26 20 35 6z m369 1
c3 -4 -3 -16 -14 -26 -26 -23 -52 -6 -30 20 14 17 36 20 44 6z m-4404 -795 c0
-8 -6 -16 -12 -18 -20 -7 -158 3 -158 11 0 17 17 21 92 21 60 0 78 -3 78 -14z
m331 -26 c0 -14 2 -32 3 -40 2 -8 7 -45 10 -82 l8 -68 -27 0 c-19 0 -29 6 -32
21 -5 16 -11 19 -27 13 -37 -12 -101 -10 -99 4 4 17 -47 15 -67 -3 -15 -14
-20 -14 -45 -1 -20 11 -32 12 -45 4 -13 -9 -24 -6 -49 13 -25 18 -34 21 -40
10 -6 -10 -16 -6 -42 17 -19 16 -39 27 -45 25 -11 -4 -34 46 -34 74 0 10 5 11
19 3 11 -5 56 -10 100 -10 74 0 82 2 96 24 16 24 18 25 166 23 l149 -2 1 -25z
m7075 -16 c19 -46 13 -51 -25 -23 -30 22 -38 39 -24 52 15 16 35 4 49 -29z
m212 24 c-6 -18 -28 -21 -28 -4 0 9 7 16 16 16 9 0 14 -5 12 -12z m-458 -7 c0
-13 -26 -32 -33 -24 -14 13 -6 33 13 33 11 0 20 -4 20 -9z m943 -3 c2 -7 0
-22 -6 -32 -9 -18 -10 -18 -23 5 -7 13 -13 27 -14 32 0 12 38 8 43 -5z m167
-10 c20 -22 20 -23 3 -36 -16 -11 -21 -9 -40 15 -16 20 -19 29 -10 35 18 12
24 10 47 -14z m-455 -8 c19 -21 14 -50 -8 -50 -22 0 -39 27 -32 50 8 25 17 25
40 0z m-829 -16 c8 -31 -14 -58 -39 -48 -19 7 -33 47 -22 63 3 6 17 11 30 11
18 0 26 -7 31 -26z m287 -30 c-8 -21 -18 -17 -31 11 -19 41 -14 50 12 26 14
-13 22 -29 19 -37z m-398 36 c3 -5 -1 -10 -9 -10 -9 0 -16 5 -16 10 0 6 4 10
9 10 6 0 13 -4 16 -10z m800 -10 c16 -18 17 -23 4 -35 -12 -12 -17 -12 -39 5
-20 15 -22 20 -11 34 17 21 24 20 46 -4z m732 5 c2 -6 -6 -16 -18 -23 -28 -18
-49 -1 -29 23 14 17 41 17 47 0z m127 6 c3 -4 -3 -16 -12 -25 -16 -13 -21 -14
-37 -2 -10 7 -15 18 -11 24 8 14 52 16 60 3z m-1004 -76 c-12 -15 -15 -13 -31
17 -29 53 -23 67 13 31 27 -28 30 -34 18 -48z m1135 66 c3 -6 -3 -15 -13 -20
-15 -8 -23 -6 -37 9 -18 19 -17 20 13 20 17 0 33 -4 37 -9z m-1893 -36 c6 -27
1 -30 -21 -16 -8 5 -11 16 -6 30 8 26 21 20 27 -14z m418 8 c0 -13 -3 -13 -15
-3 -8 7 -12 16 -9 21 8 13 24 1 24 -18z m1580 12 c-10 -12 -16 -13 -26 -4 -20
16 -18 19 12 19 22 0 25 -2 14 -15z m-2060 1 c0 -3 -4 -8 -10 -11 -5 -3 -10
-1 -10 4 0 6 5 11 10 11 6 0 10 -2 10 -4z m2135 -7 c4 -6 -3 -21 -16 -35 -17
-18 -25 -21 -35 -13 -11 9 -10 15 4 35 18 25 37 30 47 13z m160 -3 c17 -13 18
-17 6 -40 -18 -34 -8 -43 24 -22 20 13 30 14 46 5 29 -15 36 -3 13 22 -18 20
-18 21 -1 34 10 7 27 11 38 8 18 -5 19 -7 4 -29 -28 -43 -10 -61 27 -27 17 15
21 15 57 -5 48 -27 57 -27 64 -2 7 26 19 25 44 -2 14 -16 38 -95 78 -253 61
-247 153 -512 230 -666 43 -84 48 -102 66 -236 10 -80 19 -148 18 -152 0 -3
-13 44 -29 105 -28 113 -76 234 -91 234 -14 0 -11 -19 15 -110 47 -163 58
-292 35 -400 -13 -60 -86 -174 -153 -240 -54 -52 -60 -80 -17 -80 24 0 42 14
98 76 37 42 76 89 87 105 10 17 20 29 21 27 2 -2 -3 -55 -10 -118 -7 -63 -15
-149 -18 -190 -10 -131 -28 -261 -50 -363 -20 -94 -22 -98 -44 -94 -20 4 -27
-3 -43 -34 -15 -28 -27 -38 -47 -41 -21 -2 -34 -14 -51 -45 -15 -28 -30 -43
-43 -43 -22 0 -26 -18 -5 -26 16 -6 9 -57 -8 -51 -6 2 -10 11 -8 21 3 17 -23
22 -33 6 -3 -5 -19 -10 -35 -10 -24 0 -33 -7 -50 -40 -11 -22 -25 -40 -31 -40
-8 0 -7 -5 1 -15 7 -9 9 -19 5 -23 -4 -4 -19 9 -34 28 -114 151 -291 276 -528
371 -179 72 -259 88 -520 105 -57 3 -103 9 -103 13 0 4 14 20 31 37 96 90 247
294 295 399 26 57 97 335 113 440 30 206 21 429 -25 650 -33 156 -111 414
-164 540 -57 137 -58 140 -32 126 29 -16 36 -14 47 12 6 12 17 22 25 22 8 0
19 -10 25 -22 13 -30 25 -29 66 8 l34 30 22 -25 c27 -32 55 -33 68 -4 22 49
79 28 68 -25 -5 -27 -4 -29 13 -22 10 4 29 10 42 12 12 3 22 10 22 17 0 6 4
17 9 25 8 12 12 12 25 2 12 -10 13 -17 3 -31 -16 -26 -2 -36 28 -20 20 10 28
11 37 2 17 -17 49 -15 82 7 29 19 29 19 68 -6 48 -32 64 -21 20 14 -32 24 -32
26 -16 44 20 23 43 24 69 5z m260 -17 c-8 -12 -32 -12 -40 1 -11 18 5 31 26
20 11 -6 17 -15 14 -21z m-2180 -19 c0 -27 -23 -20 -34 11 -11 31 -10 31 12
16 12 -8 22 -20 22 -27z m955 -1 c0 -11 -4 -19 -9 -19 -16 0 -33 30 -27 46 5
13 9 14 21 4 8 -7 15 -21 15 -31z m-2476 22 c5 -1 3 -8 -4 -16 -10 -12 -16
-13 -26 -4 -19 16 -17 28 4 24 9 -2 21 -4 26 -4z m1090 -27 c9 -34 2 -40 -29
-26 -22 10 -24 15 -15 32 15 28 37 25 44 -6z m186 16 c0 -5 -4 -10 -10 -10 -5
0 -10 5 -10 10 0 6 5 10 10 10 6 0 10 -4 10 -10z m-1195 -10 c-3 -5 -10 -10
-16 -10 -5 0 -9 5 -9 10 0 6 7 10 16 10 8 0 12 -4 9 -10z m755 0 c13 -9 11
-14 -13 -35 -33 -30 -43 -31 -52 -8 -4 12 1 24 15 35 26 21 30 21 50 8z m925
-20 c8 -16 15 -34 15 -40 0 -16 -25 -12 -49 8 -20 16 -21 18 -6 40 20 28 21
28 40 -8z m-1593 8 c-9 -9 -15 -9 -24 0 -9 9 -7 12 12 12 19 0 21 -3 12 -12z
m536 -25 c-10 -13 -14 -12 -25 3 -16 22 4 39 24 22 10 -8 11 -14 1 -25z m232
29 c0 -5 -6 -16 -13 -27 -10 -13 -16 -15 -21 -6 -4 6 -2 18 4 26 13 16 30 20
30 7z m1240 -26 c0 -5 -7 -3 -15 4 -8 7 -12 17 -9 22 7 10 24 -9 24 -26z
m-2137 10 c3 -8 -2 -21 -12 -30 -17 -16 -19 -16 -25 0 -6 16 9 44 24 44 4 0
10 -6 13 -14z m201 -3 c4 -10 -1 -25 -14 -37 -19 -19 -21 -19 -37 -3 -16 15
-16 18 2 37 22 24 41 26 49 3z m116 1 c11 -13 10 -19 -8 -37 -21 -20 -23 -20
-39 -4 -16 15 -16 18 2 37 22 24 29 25 45 4z m110 -8 c0 -22 -29 -41 -42 -28
-9 9 -7 17 7 32 18 20 35 18 35 -4z m130 14 c0 -5 -7 -10 -15 -10 -8 0 -15 5
-15 10 0 6 7 10 15 10 8 0 15 -4 15 -10z m753 -30 c6 -23 -2 -25 -28 -6 -12 8
-16 19 -12 31 6 13 10 15 21 6 8 -7 16 -21 19 -31z m-1228 -1 c0 -16 6 -24 17
-24 9 0 30 -13 46 -28 31 -30 42 -33 42 -14 0 6 11 20 25 29 23 18 24 17 55
-22 33 -41 67 -66 78 -56 3 3 -4 17 -16 29 -22 23 -22 24 -4 40 30 27 45 22
37 -14 -7 -31 -6 -31 20 -25 19 5 33 2 46 -10 15 -14 22 -15 31 -6 15 15 55
16 63 2 3 -5 11 -10 17 -10 6 0 3 9 -7 20 -17 19 -17 22 -3 36 20 20 38 10 38
-21 0 -18 4 -22 19 -18 10 3 22 0 25 -6 4 -6 11 -11 17 -11 5 0 4 9 -3 20 -10
15 -10 22 -1 31 14 14 43 -4 43 -27 0 -7 9 -18 20 -24 16 -9 20 -8 20 5 0 25
46 41 74 25 21 -11 28 -10 55 9 37 27 36 33 17 -127 -8 -64 -17 -151 -20 -192
-3 -41 -10 -131 -17 -200 -13 -146 -7 -554 12 -735 l12 -120 -67 -118 c-38
-65 -88 -144 -112 -176 -60 -80 -520 -530 -599 -587 -67 -47 -121 -69 -130
-53 -9 13 -25 11 -25 -4 0 -7 -24 -23 -54 -36 -53 -21 -56 -22 -81 -5 -17 11
-29 14 -33 7 -4 -5 -29 -17 -56 -26 -48 -16 -50 -16 -71 3 -26 25 -46 25 -108
3 -47 -17 -49 -17 -90 5 -40 21 -46 22 -83 8 -22 -7 -54 -11 -70 -8 -26 5 -27
3 -16 -11 11 -13 10 -18 -13 -33 -20 -13 -29 -14 -38 -5 -9 10 -7 16 11 31 12
10 22 21 22 24 0 15 -59 4 -97 -18 -37 -21 -43 -22 -55 -9 -10 12 -9 17 5 24
20 12 23 39 4 39 -7 0 -22 -7 -33 -15 -28 -21 -32 -19 -39 28 -11 66 -84 327
-106 376 -11 25 -33 66 -49 93 l-30 48 23 9 c180 69 502 207 622 268 103 52
129 69 205 134 48 41 61 60 98 147 40 95 118 369 141 497 24 129 32 335 21
503 -6 90 -15 184 -20 209 -8 33 -7 49 1 60 10 12 16 10 39 -12 31 -30 40 -31
40 -6 0 10 7 24 15 31 13 11 20 9 38 -9 33 -30 42 -26 17 9 -12 16 -18 35 -15
40 11 18 30 5 30 -21z m1909 3 c9 -18 11 -33 6 -43 -8 -12 -13 -11 -31 7 -17
18 -19 25 -10 43 15 27 18 27 35 -7z m-834 3 c34 -18 36 -22 15 -52 -20 -28
-41 -20 -54 19 -19 54 -12 59 39 33z m-646 -4 c3 -5 -1 -14 -8 -20 -16 -13
-32 2 -21 19 8 12 22 13 29 1z m104 -14 c4 -21 -25 -34 -40 -19 -8 8 -8 16 2
27 16 19 34 15 38 -8z m922 -24 c0 -7 -4 -13 -9 -13 -16 0 -33 30 -26 47 6 17
7 17 21 -1 8 -11 14 -26 14 -33z m-830 -7 c-7 -9 -16 -16 -20 -16 -15 0 -20
32 -9 47 11 12 14 12 27 -1 13 -12 13 -18 2 -30z m134 35 c8 -12 -41 -54 -54
-46 -8 5 -5 15 11 31 24 25 35 29 43 15z m1533 -6 c3 -9 3 -18 1 -21 -9 -9
-38 8 -38 22 0 19 29 18 37 -1z m-532 -11 c15 -11 17 -18 9 -32 -15 -24 -27
-19 -42 17 -14 36 -2 41 33 15z m399 -25 c-8 -13 -24 -1 -24 18 0 13 3 13 15
3 8 -7 12 -16 9 -21z m-1774 9 c0 -7 -5 -20 -10 -28 -7 -12 -12 -12 -21 -3 -9
9 -9 16 1 28 15 18 30 20 30 3z m938 4 c17 -11 4 -42 -14 -35 -8 3 -14 14 -14
24 0 20 8 23 28 11z m691 -16 c9 -11 9 -16 0 -21 -10 -7 -28 10 -29 28 0 12
17 8 29 -7z m466 5 c3 -5 1 -12 -5 -16 -5 -3 -10 1 -10 9 0 18 6 21 15 7z
m-1578 -58 c-13 -12 -24 9 -19 34 l5 28 10 -28 c5 -16 7 -31 4 -34z m300 33
c-6 -17 -21 -13 -25 6 -3 13 1 16 13 12 9 -4 14 -12 12 -18z m-6527 4 c0 -5
-2 -10 -4 -10 -3 0 -8 5 -11 10 -3 6 -1 10 4 10 6 0 11 -4 11 -10z m6894 -6
c9 -23 8 -24 -14 -24 -19 0 -27 20 -13 33 11 11 20 8 27 -9z m-556 -38 c8 -15
11 -34 8 -42 -5 -13 -9 -13 -36 1 -33 17 -36 26 -19 56 13 26 30 20 47 -15z
m-1230 7 c-2 -10 -12 -18 -23 -18 -11 0 -21 8 -23 18 -3 13 3 17 23 17 20 0
26 -4 23 -17z m-4591 -20 c-3 -3 -11 -2 -17 2 -9 6 -9 10 1 16 14 8 27 -7 16
-18z m4469 11 c-3 -9 -6 -18 -6 -20 0 -2 -7 -4 -15 -4 -18 0 -20 26 -2 33 23
10 29 7 23 -9z m1612 -7 c2 -12 -3 -17 -17 -17 -23 0 -24 1 -15 25 8 19 28 15
32 -8z m-1712 -24 c-10 -10 -19 5 -10 18 6 11 8 11 12 0 2 -7 1 -15 -2 -18z
m-106 3 c0 -17 -34 -31 -50 -21 -16 10 8 35 31 35 11 0 19 -6 19 -14z m3074
-88 c15 -57 47 -156 72 -221 80 -214 116 -469 95 -662 -6 -49 -22 -151 -35
-227 -24 -131 -28 -143 -119 -331 -52 -107 -110 -212 -129 -233 -19 -22 -55
-66 -80 -99 -79 -102 -117 -133 -191 -154 -80 -22 -127 -56 -296 -219 -73 -71
-121 -124 -117 -131 14 -22 -5 -47 -62 -81 -31 -18 -82 -48 -112 -67 -76 -45
-150 -69 -321 -103 -80 -16 -158 -34 -173 -39 -20 -8 -34 -7 -54 3 -15 7 -51
21 -80 30 l-52 18 61 60 c70 68 100 129 103 200 1 45 -2 53 -32 78 -32 27 -33
29 -23 66 18 63 14 270 -6 339 -10 35 -18 100 -19 155 -1 68 -9 119 -27 180
-13 47 -27 111 -31 144 -7 65 -20 96 -40 96 -8 0 -18 6 -24 13 -12 15 -19 409
-9 572 12 192 53 534 65 547 12 10 432 97 526 107 49 6 184 13 300 16 116 4
261 11 321 17 61 6 187 14 280 18 94 3 173 7 176 8 3 1 18 -44 33 -100z
m-7184 47 c11 -13 10 -14 -4 -9 -9 3 -16 10 -16 15 0 13 6 11 20 -6z m1060
-16 c0 -48 -23 -166 -37 -187 -8 -13 -43 -37 -78 -54 -50 -23 -68 -27 -84 -19
-13 7 -17 17 -14 32 5 19 4 20 -16 9 -28 -14 -53 -6 -45 15 8 20 -10 19 -42
-1 -18 -12 -28 -14 -36 -6 -11 11 -4 16 107 70 73 35 177 105 209 141 24 27
36 27 36 0z m3372 -1 c-7 -7 -12 -8 -12 -2 0 14 12 26 19 19 2 -3 -1 -11 -7
-17z m-84 -10 c-5 -15 -48 -24 -48 -10 0 14 12 22 33 22 10 0 17 -5 15 -12z
m-398 -8 c0 -5 -5 -10 -11 -10 -5 0 -7 5 -4 10 3 6 8 10 11 10 2 0 4 -4 4 -10z
m150 2 c0 -5 -6 -17 -14 -28 -11 -15 -17 -16 -27 -7 -16 16 -4 43 21 43 11 0
20 -4 20 -8z m128 -9 c2 -8 -6 -13 -22 -13 -26 0 -40 12 -29 24 11 11 46 2 51
-11z m-4104 -9 c5 -14 4 -15 -9 -4 -17 14 -19 20 -6 20 5 0 12 -7 15 -16z
m111 -24 c3 -5 -1 -10 -9 -10 -9 0 -16 5 -16 10 0 6 4 10 9 10 6 0 13 -4 16
-10z m4205 -9 c0 -6 -4 -13 -10 -16 -5 -3 -10 1 -10 9 0 9 5 16 10 16 6 0 10
-4 10 -9z m-3765 -171 c3 -5 1 -10 -4 -10 -6 0 -11 5 -11 10 0 6 2 10 4 10 3
0 8 -4 11 -10z m100 0 c3 -5 2 -10 -4 -10 -5 0 -13 5 -16 10 -3 6 -2 10 4 10
5 0 13 -4 16 -10z m2934 -358 c-4 -18 -15 -44 -24 -59 -15 -23 -19 -24 -27 -9
-8 14 3 58 40 156 9 24 18 -51 11 -88z m-1832 -108 c190 -30 350 -148 427
-314 30 -64 33 -90 10 -90 -9 0 -23 -8 -30 -17 -13 -17 -13 -17 -14 0 0 21
-23 22 -40 2 -7 -8 -27 -17 -46 -21 -24 -4 -34 -12 -34 -25 0 -24 -12 -24 -27
0 -7 10 -29 21 -53 25 l-41 6 22 40 c13 23 45 55 78 76 62 41 55 56 -14 29
-57 -21 -97 -67 -119 -139 -15 -46 -22 -56 -35 -51 -39 17 -49 15 -80 -14 -38
-36 -41 -37 -41 -15 0 12 -7 15 -27 11 -31 -6 -53 1 -53 15 0 7 20 8 57 4 49
-6 59 -4 80 15 32 31 29 45 -14 67 l-37 19 52 34 c53 35 64 49 37 49 -46 0
-177 -96 -205 -149 -11 -23 -29 -41 -43 -45 -13 -3 -36 -17 -52 -32 -16 -15
-30 -21 -34 -15 -8 12 -83 10 -93 -4 -10 -14 -32 10 -23 25 5 9 25 11 61 7 87
-9 117 40 45 74 l-34 16 79 42 c44 23 86 49 94 58 13 14 12 15 -14 9 -16 -4
-67 -26 -114 -48 -73 -36 -91 -50 -127 -100 -36 -48 -45 -55 -55 -43 -17 21
-37 19 -50 -5 -18 -33 -29 -23 -36 30 -6 45 -11 53 -42 69 l-34 18 27 21 c15
12 46 27 69 32 96 24 173 53 204 76 51 40 27 47 -40 13 -34 -17 -103 -41 -155
-54 -95 -24 -122 -39 -167 -92 -23 -27 -31 -30 -65 -26 -33 5 -39 2 -44 -17
-3 -12 -10 -19 -16 -16 -6 4 -7 14 -4 22 5 13 -1 15 -33 12 -34 -3 -41 1 -61
31 -33 49 -28 98 6 57 18 -22 97 -39 147 -32 52 7 120 41 129 65 6 15 -9 32
-51 57 -15 9 -4 16 74 49 51 21 158 76 240 122 l147 84 92 -6 c51 -3 105 -8
120 -11z m1323 -154 c0 -5 -9 -10 -20 -10 -11 0 -20 5 -20 10 0 6 9 10 20 10
11 0 20 -4 20 -10z m-150 -61 c0 -5 -7 -9 -15 -9 -15 0 -20 12 -9 23 8 8 24
-1 24 -14z m665 11 c-3 -5 -11 -10 -16 -10 -6 0 -7 5 -4 10 3 6 11 10 16 10 6
0 7 -4 4 -10z m-2542 -49 c25 -11 48 -24 51 -29 8 -14 -95 -52 -139 -52 -38 0
-115 27 -115 41 0 12 37 30 90 45 61 17 62 17 113 -5z m2507 10 c0 -24 -34
-51 -63 -51 l-32 1 33 28 c29 25 62 37 62 22z m-190 -51 c-8 -5 -26 -9 -40 -9
l-25 1 25 8 c14 4 32 8 40 9 13 1 13 0 0 -9z m-70 -57 c-1 -22 -52 -41 -125
-47 -44 -4 -93 -9 -110 -12 l-30 -4 37 35 c38 35 38 35 133 35 52 0 95 -3 95
-7z m-350 -58 c-8 -8 -42 -17 -75 -20 l-60 -6 55 20 c30 10 64 19 75 20 17 1
17 -1 5 -14z m-1185 -17 c16 -15 -26 -39 -64 -36 -44 4 -50 22 -14 42 28 15
59 13 78 -6z m-594 2 c44 -24 2 -90 -57 -90 -40 0 -46 15 -27 63 16 39 43 48
84 27z m317 -34 c3 -3 -1 -12 -8 -21 -9 -11 -22 -14 -49 -9 -45 8 -47 10 -30
30 9 11 23 14 47 10 19 -3 37 -7 40 -10z m499 -10 c18 -18 -43 -48 -69 -34
-21 10 -24 34 -5 41 13 6 66 1 74 -7z m573 -66 c-8 -5 -22 -10 -30 -10 -13 0
-13 1 0 10 8 5 22 10 30 10 13 0 13 -1 0 -10z m-96 -79 c-35 -32 -61 -41 -120
-41 -46 0 -56 3 -46 13 12 12 127 44 166 46 19 1 19 1 0 -18z m6382 -198 c19
-118 14 -212 -14 -276 -19 -43 -24 -48 -44 -42 -13 4 -24 8 -26 10 -1 1 5 37
14 81 9 47 15 127 15 199 -1 66 2 136 6 155 l6 35 14 -32 c7 -18 20 -77 29
-130z m-7528 82 c-2 -1 -16 -5 -32 -9 -25 -6 -28 -5 -17 7 6 8 21 13 32 10 11
-3 18 -7 17 -8z m785 -10 c-20 -28 -23 -29 -147 -50 -114 -19 -114 -19 -86 10
31 33 120 59 218 64 l33 1 -18 -25z m-463 -14 c21 -6 15 -9 -33 -20 -67 -15
-82 -10 -40 13 31 17 36 17 73 7z m3783 -393 c3 -13 12 -62 18 -110 12 -79 11
-91 -7 -144 -29 -88 -154 -216 -154 -158 0 24 -57 10 -86 -21 -22 -24 -44 -33
-44 -18 0 3 7 15 17 25 21 23 10 34 -19 21 -17 -7 -29 -6 -45 5 -20 13 -23 13
-23 -1 0 -8 6 -18 13 -20 8 -4 3 -14 -16 -31 -32 -29 -47 -33 -47 -11 0 8 5
15 10 15 6 0 10 7 10 15 0 10 -8 13 -27 9 -21 -4 -31 0 -40 15 -11 18 -8 23
26 48 61 44 354 318 376 352 24 37 31 38 38 9z m-2679 -164 c27 -71 35 -273
11 -297 -22 -23 -46 -21 -52 4 -5 17 -10 19 -32 13 -14 -4 -40 -7 -58 -7 -19
1 -34 -4 -37 -13 -3 -8 -12 -14 -21 -14 -20 0 -19 10 3 26 15 12 13 13 -22 14
-22 0 -47 -6 -55 -13 -9 -7 -29 -19 -44 -25 -26 -11 -29 -10 -34 8 -7 25 -4
25 -64 -1 -43 -19 -53 -20 -74 -9 -19 10 -30 11 -50 2 -41 -19 -64 -15 -71 13
-6 24 -7 24 -42 9 -35 -14 -38 -14 -55 7 -16 20 -21 21 -39 10 -19 -12 -23
-10 -38 9 -10 14 -24 21 -33 17 -10 -4 -23 9 -41 43 -35 65 -33 73 12 50 40
-21 219 -46 259 -35 27 6 43 40 43 89 l0 33 73 5 c75 5 114 15 307 77 63 21
119 37 125 36 5 -1 19 -24 29 -51z m-581 -64 c5 -4 10 -21 13 -37 8 -52 -12
-59 -130 -45 -109 12 -151 25 -161 50 -7 20 2 28 45 40 38 10 220 4 233 -8z
m6257 -99 c0 -22 -15 -35 -29 -27 -13 9 -1 46 15 46 8 0 14 -9 14 -19z m-85
-73 c-9 -28 -32 -54 -41 -46 -3 4 -3 20 1 37 5 22 12 31 26 31 16 0 19 -4 14
-22z m-4476 -7 c14 -25 5 -31 -41 -31 -45 0 -48 9 -10 32 35 22 39 22 51 -1z
m472 -2 c-18 -11 -38 -18 -45 -16 -6 3 5 12 24 20 50 23 61 21 21 -4z m-286
-9 c0 -11 -14 -16 -55 -17 l-55 -3 35 20 c40 22 75 22 75 0z m165 15 c0 -7
-58 -35 -72 -35 -7 1 3 9 22 20 35 19 50 24 50 15z m750 -62 c-17 -12 -24 -12
-35 -3 -20 17 -19 37 3 49 13 8 21 6 35 -11 17 -20 17 -21 -3 -35z m-713 21
c-3 -3 -12 -4 -19 -1 -8 3 -5 6 6 6 11 1 17 -2 13 -5z m869 -51 c-26 -22 -46
-30 -46 -18 0 12 55 53 64 47 5 -3 -3 -16 -18 -29z m-3086 17 c0 -5 -4 -10 -9
-10 -6 0 -13 5 -16 10 -3 6 1 10 9 10 9 0 16 -4 16 -10z m100 -31 c0 -12 -27
-11 -35 1 -11 17 5 32 21 19 8 -6 14 -15 14 -20z m543 16 c-4 -15 -26 -12 -31
3 -3 9 2 13 14 10 11 -2 18 -8 17 -13z m2225 6 c10 -6 10 -10 -3 -21 -12 -10
-18 -10 -30 0 -26 22 3 41 33 21z m112 -5 c0 -22 -29 -41 -42 -28 -8 8 -8 15
2 27 16 19 40 20 40 1z m-2635 -6 c-3 -5 -16 -10 -28 -10 -18 0 -19 2 -7 10
20 13 43 13 35 0z m-127 -12 c-5 -13 -48 -22 -48 -10 0 14 12 22 33 22 10 0
17 -5 15 -12z m512 8 c0 -3 -4 -8 -10 -11 -5 -3 -10 -1 -10 4 0 6 5 11 10 11
6 0 10 -2 10 -4z m2085 -16 c3 -5 -1 -10 -9 -10 -9 0 -16 5 -16 10 0 6 4 10 9
10 6 0 13 -4 16 -10z m3305 -25 c0 -24 -12 -45 -26 -45 -15 0 -17 12 -8 47 6
23 34 21 34 -2z m60 -4 c0 -5 -7 -14 -15 -21 -16 -14 -18 -10 -9 14 6 17 24
22 24 7z m-1802 -33 c262 11 310 3 596 -92 215 -73 601 -253 647 -303 41 -44
66 -100 33 -72 -14 12 -20 9 -46 -21 -22 -27 -31 -32 -37 -21 -11 17 -45 0
-62 -30 -10 -19 -12 -19 -28 -5 -19 17 -41 21 -41 7 0 -5 7 -14 15 -21 20 -16
19 -36 -1 -44 -24 -9 -36 3 -29 31 5 21 4 23 -14 13 -13 -7 -22 -7 -26 0 -12
19 -25 10 -19 -14 8 -34 -11 -41 -30 -11 -20 30 -37 32 -61 5 -10 -11 -24 -20
-31 -20 -7 0 -16 9 -19 20 -9 30 -26 25 -60 -17 l-30 -38 -5 30 c-4 22 -15 35
-42 48 -21 10 -38 23 -38 29 0 12 37 66 62 91 18 18 24 37 11 37 -38 0 -119
-88 -153 -165 -9 -22 -25 -47 -35 -55 -17 -14 -18 -13 -13 8 4 14 2 22 -7 22
-7 0 -21 3 -31 7 -14 5 -16 2 -12 -15 8 -29 -9 -38 -31 -18 -10 9 -23 16 -30
16 -8 0 -10 7 -6 19 7 22 -36 61 -66 61 -26 0 -24 12 7 41 40 37 68 89 56 101
-14 14 -176 -133 -193 -174 -13 -31 -19 -34 -36 -17 -13 13 -51 -6 -86 -43
-15 -15 -22 -16 -33 -7 -9 7 -27 9 -50 4 l-37 -6 37 34 c20 19 36 42 36 51 0
17 -24 43 -56 62 -17 10 -11 15 53 47 69 35 91 52 80 64 -10 10 -181 -67 -237
-107 -30 -22 -75 -50 -100 -62 -25 -13 -51 -32 -59 -42 -14 -18 -15 -18 -28 0
-13 17 -15 17 -67 -8 -46 -23 -56 -25 -66 -13 -16 19 -6 31 41 55 47 25 49 40
8 75 -17 14 -30 27 -28 29 2 2 64 23 136 46 120 37 153 53 141 66 -8 7 -381
-92 -418 -111 -14 -7 -38 -25 -53 -39 -33 -30 -58 -35 -32 -6 10 11 13 20 7
20 -6 0 -14 -4 -17 -10 -10 -16 -35 -12 -35 6 0 11 -5 14 -16 10 -45 -17 -66
-18 -84 -1 -24 22 -44 11 -28 -15 21 -34 -2 -36 -28 -2 -14 18 -35 32 -46 32
-47 0 -63 68 -27 114 l22 27 36 -35 c40 -39 96 -66 138 -66 15 0 61 10 101 21
53 16 72 26 72 39 0 17 -50 93 -69 105 -17 10 -13 25 7 25 9 0 76 18 147 39
127 39 260 102 327 155 25 20 39 25 58 19 14 -4 40 -6 58 -5z m1708 -55 c-10
-10 -19 5 -10 18 6 11 8 11 12 0 2 -7 1 -15 -2 -18z m-4161 -23 c-3 -5 -15
-10 -25 -10 -10 0 -22 5 -25 10 -4 6 7 10 25 10 18 0 29 -4 25 -10z m-145 -17
c33 -9 60 -19 60 -23 0 -3 -14 -17 -31 -29 l-31 -23 -80 23 -81 24 49 22 c27
13 50 23 52 23 1 0 29 -7 62 -17z m-229 -2 c-8 -5 -20 -7 -28 -4 -21 8 -15 13
15 13 20 0 23 -3 13 -9z m579 -8 c33 -10 60 -21 60 -24 0 -3 -10 -15 -23 -27
l-23 -22 -83 32 c-78 30 -81 32 -59 44 31 18 58 17 128 -3z m340 -11 l62 -29
-32 -15 c-29 -14 -36 -13 -98 9 -37 13 -69 26 -71 29 -4 3 57 33 70 34 4 0 34
-13 69 -28z m-1069 -3 c38 -12 69 -22 69 -24 0 -2 -21 -16 -47 -31 l-47 -27
-71 18 c-38 10 -81 22 -95 27 -24 9 -24 10 -5 21 30 16 87 36 108 37 11 0 50
-9 88 -21z m-1441 -41 c0 -13 -33 -9 -86 8 -59 20 -62 23 -45 33 14 9 131 -28
131 -41z m2805 23 c29 -7 29 -7 8 -19 -17 -9 -28 -9 -57 3 -20 9 -36 17 -36
20 0 7 48 4 85 -4z m515 1 c0 -5 -11 -19 -24 -31 -20 -19 -31 -22 -60 -17 -45
9 -45 18 -3 39 34 17 87 22 87 9z m-2264 -22 l27 -11 -22 -15 c-22 -16 -32
-15 -116 8 l-40 12 35 7 c54 10 86 10 116 -1z m1959 -3 c55 -15 56 -21 13 -54
l-30 -21 -56 19 c-75 26 -82 35 -41 53 43 18 53 19 114 3z m4397 -15 c-11 -15
-45 -51 -75 -80 -42 -39 -63 -52 -86 -52 -16 0 -38 -3 -48 -6 -10 -3 21 33 68
80 77 77 90 86 123 86 l37 0 -19 -28z m-7164 -7 c2 -2 -5 -8 -15 -13 -13 -7
-30 -4 -58 9 l-40 18 55 -6 c30 -3 57 -7 58 -8z m502 -2 c0 -5 -12 -16 -26
-24 -24 -14 -32 -15 -78 -1 -28 8 -54 17 -58 21 -4 3 31 7 78 9 46 1 84 -1 84
-5z m3071 -82 c22 -22 39 -45 37 -52 -5 -16 -82 -39 -139 -40 -37 -1 -56 5
-93 30 -25 18 -46 36 -46 41 0 14 38 32 95 46 84 21 100 18 146 -25z m3316
-15 c-57 -53 -60 -54 -143 -66 -47 -7 -87 -10 -90 -7 -10 10 121 97 155 103
20 3 52 10 71 14 64 15 65 9 7 -44z m-302 -41 c-55 -47 -100 -73 -135 -79
l-35 -5 55 49 c54 48 69 56 120 59 l25 1 -30 -25z m-2817 -145 c17 -11 32 -24
32 -28 0 -9 -75 -42 -94 -42 -20 0 -76 34 -76 46 0 15 53 42 85 43 11 1 35 -8
53 -19z m2487 12 c-6 -5 -33 -30 -62 -56 -46 -42 -63 -51 -145 -72 -123 -31
-128 -31 -87 12 44 46 48 48 176 89 115 36 133 40 118 27z m161 -10 c-9 -11
-35 -24 -57 -31 -23 -7 -48 -15 -58 -18 -9 -3 0 10 18 30 29 31 42 37 75 37
37 0 38 -1 22 -18z m-2941 -22 c3 -6 -1 -13 -10 -16 -19 -8 -30 0 -20 15 8 14
22 14 30 1z m690 -14 c39 -17 44 -35 16 -60 -18 -16 -22 -16 -71 0 l-53 17 32
29 c37 33 32 32 76 14z m1270 -15 c-3 -6 -11 -11 -17 -11 -6 0 -6 6 2 15 14
17 26 13 15 -4z m-1772 -26 c51 -22 57 -29 30 -40 -12 -4 -23 1 -34 14 -9 10
-24 19 -35 18 -11 -1 -20 6 -22 17 -2 10 0 17 5 15 5 -2 30 -13 56 -24z m895
-12 c18 -11 20 -17 12 -33 -6 -11 -14 -20 -18 -21 -4 0 -15 -2 -25 -4 -26 -5
-77 14 -77 29 0 6 7 22 16 34 17 24 48 23 92 -5z m782 -3 c0 -5 -5 -10 -11
-10 -5 0 -7 5 -4 10 3 6 8 10 11 10 2 0 4 -4 4 -10z m-1364 -27 c-10 -10 -19
5 -10 18 6 11 8 11 12 0 2 -7 1 -15 -2 -18z m899 15 c27 -12 34 -45 13 -66
-31 -31 -85 8 -74 53 7 28 22 31 61 13z m-751 -18 c18 -18 -10 -37 -34 -22
-10 6 -26 9 -35 6 -11 -4 -15 0 -15 16 0 20 4 22 37 17 20 -4 41 -11 47 -17z
m1699 -24 c-27 -33 -51 -47 -103 -61 -24 -7 -23 -5 10 30 59 63 143 91 93 31z
m-1963 9 c0 -8 -4 -15 -9 -15 -13 0 -22 16 -14 24 11 11 23 6 23 -9z m490 6
c0 -6 -4 -13 -10 -16 -5 -3 -10 1 -10 9 0 9 5 16 10 16 6 0 10 -4 10 -9z m658
-19 c2 -7 -3 -12 -12 -12 -9 0 -16 7 -16 16 0 17 22 14 28 -4z m-428 -17 c-7
-8 -20 -15 -29 -14 -11 0 -9 3 7 9 12 5 22 15 22 21 0 7 3 9 6 6 4 -4 1 -13
-6 -22z m-370 -5 c-8 -5 -17 -7 -19 -4 -3 3 1 9 9 14 8 5 17 7 19 4 3 -3 -1
-9 -9 -14z m270 10 c5 0 16 -7 24 -16 20 -20 10 -40 -11 -22 -9 7 -23 13 -32
13 -8 0 -17 9 -19 19 -3 14 0 17 13 12 9 -3 20 -6 25 -6z m140 -26 c0 -8 -4
-12 -10 -9 -5 3 -10 10 -10 16 0 5 5 9 10 9 6 0 10 -7 10 -16z m70 6 c0 -5 -5
-10 -11 -10 -5 0 -7 5 -4 10 3 6 8 10 11 10 2 0 4 -4 4 -10z m894 -51 c-29
-28 -57 -50 -64 -47 -9 3 94 95 110 97 3 1 -18 -22 -46 -50z m-2204 -29 c-19
-13 -30 -13 -30 0 0 6 10 10 23 10 18 0 19 -2 7 -10z m174 -56 c26 -9 45 -18
43 -20 -3 -3 -26 -7 -53 -10 -27 -3 -65 -10 -84 -15 -63 -16 -66 -9 -10 25 30
19 55 35 56 35 0 1 22 -6 48 -15z m789 -181 c-7 -2 -19 -2 -25 0 -7 3 -2 5 12
5 14 0 19 -2 13 -5z"/>
<path d="M1001 6888 c-79 -35 -97 -39 -136 -34 -25 4 -45 11 -45 17 0 5 5 9
10 9 15 0 12 27 -3 33 -7 3 -73 -22 -146 -54 -73 -32 -144 -59 -157 -59 -13 0
-24 -6 -24 -13 0 -7 -16 -21 -35 -30 -27 -13 -40 -14 -65 -5 -36 12 -53 2 -28
-16 11 -8 15 -20 11 -34 -6 -24 3 -27 40 -13 19 8 63 -3 206 -50 165 -54 250
-72 237 -51 -2 4 -45 21 -95 37 -50 16 -91 32 -91 35 0 3 20 16 45 28 40 19
51 21 93 12 100 -23 122 -31 122 -47 0 -11 6 -14 23 -9 12 3 37 6 56 6 24 0
32 4 28 14 -4 9 14 22 53 39 59 25 60 25 120 9 49 -13 62 -21 67 -40 4 -19 10
-22 27 -17 11 4 33 9 49 12 15 3 27 9 27 14 0 17 94 57 115 49 69 -25 117 -16
54 10 l-31 13 27 15 c29 15 110 11 128 -7 4 -4 -18 -21 -50 -37 -57 -29 -83
-64 -47 -64 10 0 58 16 106 36 74 31 94 35 132 30 41 -6 44 -9 34 -25 -14 -22
-4 -51 17 -51 9 0 33 9 55 20 22 11 48 20 60 20 11 0 20 4 20 9 0 5 17 16 39
24 31 13 46 14 74 5 32 -10 35 -14 30 -40 -6 -33 6 -36 52 -12 21 11 44 14 78
9 30 -4 47 -2 47 5 0 6 -7 13 -15 16 -21 8 -10 21 29 34 46 15 116 -2 116 -29
0 -27 9 -30 45 -16 24 11 42 12 66 5 19 -6 43 -10 54 -10 18 0 18 2 -5 20
l-25 19 36 15 c76 32 115 30 74 -4 -41 -34 5 -41 66 -10 31 16 50 19 89 14 36
-5 50 -3 50 6 0 6 -9 14 -21 17 -19 5 -19 7 8 24 15 11 43 19 61 19 17 0 32 5
32 10 0 6 -7 10 -15 10 -8 0 -23 4 -33 9 -18 9 -112 29 -177 37 -37 5 -39 4
-21 -10 23 -18 24 -17 -33 -39 -54 -20 -136 -7 -164 26 -21 23 -16 24 -152
-30 -59 -24 -115 -16 -115 16 0 39 -34 35 -158 -17 -40 -17 -79 -29 -87 -27
-48 15 -49 15 -37 27 35 35 -6 55 -68 33 -23 -8 -58 -15 -76 -15 -23 0 -34 -5
-34 -15 0 -8 -14 -22 -30 -30 -25 -13 -38 -14 -73 -4 -60 16 -62 19 -28 40 33
20 41 46 16 55 -8 3 -45 -6 -83 -21 -60 -23 -74 -25 -108 -16 -21 6 -45 11
-51 11 -22 0 -14 -19 14 -33 l26 -14 -25 -17 c-25 -16 -33 -16 -91 6 l-28 11
30 20 c17 10 31 28 31 38 0 26 -41 24 -109 -5 l-53 -23 -69 20 c-51 15 -69 25
-69 37 0 32 -26 29 -119 -12z m152 -50 c26 -6 47 -14 47 -18 0 -4 -16 -15 -35
-25 -34 -19 -35 -19 -97 1 l-63 21 35 21 c19 12 42 19 50 16 8 -3 36 -10 63
-16z m-339 -8 c14 -5 26 -13 26 -18 0 -4 -23 -19 -51 -34 -44 -22 -55 -24 -90
-16 -21 6 -39 14 -39 19 0 10 95 57 117 58 6 1 23 -3 37 -9z m2016 -20 c-45
-25 -62 -25 -30 0 14 11 34 19 45 19 15 0 11 -5 -15 -19z m-258 -19 c22 -8 22
-9 -11 -26 -29 -14 -40 -15 -73 -6 -45 14 -48 23 -10 37 28 11 55 10 94 -5z
m-1566 -18 c35 -9 64 -20 64 -23 0 -4 -22 -17 -49 -30 -51 -24 -64 -23 -155 1
l-41 11 55 29 c30 15 57 28 58 29 2 0 33 -8 68 -17z m355 5 c22 -6 39 -14 39
-18 0 -3 -19 -15 -42 -26 -40 -19 -46 -20 -90 -6 -27 9 -48 19 -48 22 0 8 68
38 89 39 7 1 31 -4 52 -11z m907 3 c20 -13 -14 -35 -54 -35 -46 0 -66 20 -33
33 30 12 70 13 87 2z m-321 -7 c26 -7 21 -21 -13 -34 -15 -6 -35 -5 -56 2
l-33 12 30 12 c35 15 42 16 72 8z m-1289 -38 l33 -12 -39 -22 c-42 -23 -40
-23 -122 10 l-25 10 30 14 c37 16 79 16 123 0z"/>
<path d="M5238 3920 c-228 -36 -429 -146 -557 -304 -59 -74 -76 -124 -62 -185
10 -48 105 -206 128 -215 9 -4 71 -9 138 -13 159 -8 186 4 285 122 136 163
293 258 495 300 95 19 139 14 162 -21 34 -53 -22 -214 -133 -379 -95 -142
-336 -415 -648 -735 -202 -207 -376 -407 -422 -485 -39 -67 -74 -169 -74 -216
0 -22 9 -58 20 -79 38 -75 132 -225 158 -254 44 -47 150 -87 272 -100 25 -3
101 -13 170 -23 154 -21 505 -23 823 -5 225 13 264 20 252 50 -4 9 -22 75 -40
145 -41 157 -51 174 -107 182 -160 23 -558 30 -773 13 -143 -11 -183 -3 -164
34 22 43 191 237 508 582 252 275 467 527 523 611 72 109 129 231 141 300 15
87 -6 165 -94 343 -140 288 -217 322 -764 336 -99 3 -206 1 -237 -4z"/>
<path d="M3383 3802 c-88 -77 -155 -152 -198 -221 -30 -48 -105 -241 -105
-269 0 -14 71 -198 127 -329 3 -7 9 -13 14 -13 4 0 50 43 101 96 51 53 114
113 139 134 l45 39 -2 -42 c-1 -23 -5 -136 -8 -251 -4 -115 -9 -212 -12 -217
-9 -15 -4 -752 6 -868 15 -161 24 -210 67 -338 34 -101 40 -114 67 -123 16 -5
39 -10 52 -10 13 0 84 -13 157 -30 181 -40 171 -42 163 28 -42 351 -53 759
-31 1117 7 116 16 368 19 560 4 193 9 382 12 420 5 66 3 77 -41 190 -25 66
-52 126 -58 132 -12 12 -58 20 -247 43 -41 5 -100 12 -131 16 l-56 6 -80 -70z"/>
<path d="M2350 8348 c-35 -48 -70 -153 -70 -209 0 -74 43 -145 101 -170 46
-18 46 -4 1 45 -23 25 -43 59 -47 78 -8 45 17 164 49 226 14 28 26 56 26 62 0
24 -32 7 -60 -32z"/>
<path d="M6980 6540 c0 -25 5 -74 11 -109 24 -153 -62 -318 -206 -392 -36 -19
-65 -38 -65 -42 0 -39 145 16 205 77 93 96 123 224 90 391 -21 110 -34 138
-35 75z"/>
</g>
</svg>
