<?xml version="1.0" standalone="no"?>
<!DOCTYPE svg PUBLIC "-//W3C//DTD SVG 20010904//EN"
 "http://www.w3.org/TR/2001/REC-SVG-20010904/DTD/svg10.dtd">
<svg version="1.0" xmlns="http://www.w3.org/2000/svg"
 width="1249.000000pt" height="1249.000000pt" viewBox="0 0 1249.000000 1249.000000"
 preserveAspectRatio="xMidYMid meet">
<metadata>
Created by potrace 1.16, written by Peter Selinger 2001-2019
</metadata>
<g transform="translate(0.000000,1249.000000) scale(0.100000,-0.100000)"
fill="#000000" stroke="none">
<path d="M0 6245 l0 -6245 6245 0 6245 0 0 6245 0 6245 -6245 0 -6245 0 0
-6245z m6605 6155 c1358 -81 2623 -594 3665 -1486 143 -123 506 -484 626 -624
792 -922 1284 -2004 1448 -3180 22 -156 30 -240 51 -499 8 -97 8 -627 0 -722
-34 -414 -53 -564 -106 -833 -176 -892 -547 -1733 -1087 -2466 -334 -453 -782
-907 -1232 -1249 -747 -568 -1599 -953 -2510 -1135 -175 -35 -462 -79 -595
-91 -38 -3 -93 -8 -122 -11 -125 -13 -394 -22 -588 -18 -1051 20 -2034 284
-2925 787 -503 284 -904 590 -1330 1016 -381 381 -616 675 -888 1108 -764
1221 -1074 2715 -861 4158 293 1984 1551 3717 3344 4605 302 150 498 231 795
330 752 251 1536 356 2315 310z"/>
<path d="M6060 12178 c-3 -3 -77 -8 -164 -12 -319 -13 -716 -72 -1061 -157
-774 -192 -1482 -529 -2130 -1014 -1092 -817 -1880 -2022 -2190 -3351 -62
-264 -112 -574 -130 -799 -4 -44 -9 -91 -11 -105 -13 -68 -16 -630 -5 -800 83
-1293 541 -2441 1374 -3444 133 -160 549 -575 712 -710 814 -677 1743 -1111
2756 -1290 166 -29 252 -41 534 -71 171 -18 640 -25 845 -12 368 24 715 76
1050 158 889 219 1677 618 2395 1215 167 139 581 552 718 717 759 917 1205
1955 1342 3124 25 215 30 333 29 713 -1 300 -5 400 -23 561 -75 689 -259 1339
-551 1946 -425 885 -1093 1675 -1899 2247 -534 378 -1143 673 -1759 850 -365
106 -801 187 -1127 212 -44 3 -96 7 -115 10 -57 6 -585 17 -590 12z m631 -98
c793 -61 1601 -298 2294 -672 256 -138 515 -300 515 -323 0 -41 -201 -537
-369 -910 -65 -143 -137 -309 -160 -369 -45 -115 -101 -289 -101 -313 0 -8
-47 -64 -105 -123 -158 -164 -286 -379 -375 -628 -29 -81 -70 -186 -91 -234
-64 -146 -98 -254 -155 -488 -75 -311 -63 -284 -146 -326 -52 -26 -100 -65
-194 -155 -68 -65 -128 -119 -134 -119 -6 0 -57 -46 -113 -102 -56 -57 -125
-121 -152 -143 -130 -103 -232 -259 -242 -371 -4 -52 -1 -66 26 -117 l32 -58
-25 -32 c-68 -89 -91 -190 -64 -280 30 -99 170 -200 300 -215 67 -8 67 -9 151
-89 91 -88 118 -100 262 -123 128 -21 200 -5 423 90 83 35 127 49 135 42 7 -5
38 -30 70 -56 135 -108 206 -105 492 17 44 19 127 46 184 61 204 52 380 140
567 282 67 51 155 114 195 140 108 69 210 149 325 253 95 85 105 91 145 91 91
0 173 70 205 175 10 36 16 118 20 290 5 260 18 379 65 575 52 221 89 342 143
475 88 213 91 226 90 355 0 104 -4 125 -36 220 -64 187 -142 335 -228 434
l-29 33 32 46 c56 81 252 336 258 336 9 1 159 -212 247 -351 321 -507 572
-1087 717 -1653 61 -240 89 -383 129 -645 3 -20 15 -125 27 -235 24 -219 32
-703 16 -965 -8 -126 -41 -427 -52 -477 -4 -19 -28 -29 -153 -68 -276 -87
-427 -137 -657 -220 -245 -89 -405 -137 -600 -180 -66 -14 -169 -40 -228 -57
l-108 -31 -77 18 c-124 30 -370 25 -532 -9 -69 -15 -156 -39 -195 -52 -105
-38 -160 -51 -277 -68 -129 -19 -224 -50 -385 -126 -67 -32 -141 -61 -165 -65
-24 -4 -68 -16 -98 -26 -48 -16 -79 -18 -235 -15 -134 3 -193 8 -230 20 -87
30 -193 46 -298 46 -56 0 -118 4 -137 10 -125 34 -265 30 -375 -11 -58 -22
-136 -87 -182 -154 -19 -27 -27 -30 -101 -36 -108 -9 -171 -32 -227 -81 -73
-64 -104 -146 -82 -212 5 -16 27 -57 48 -92 44 -72 46 -82 23 -126 -26 -51
-15 -168 24 -252 42 -90 71 -125 230 -288 130 -132 135 -139 143 -190 12 -76
92 -229 157 -299 71 -77 152 -126 418 -255 120 -58 264 -127 319 -154 55 -26
116 -53 135 -59 83 -25 232 -43 347 -42 l122 0 27 -50 c46 -84 170 -148 261
-135 92 12 340 120 516 224 71 42 171 76 321 111 97 22 172 63 311 171 120 93
172 116 335 151 314 68 529 275 610 587 6 24 20 48 33 56 25 15 317 80 325 72
6 -7 -104 -200 -212 -369 -428 -674 -1010 -1265 -1686 -1712 -246 -163 -409
-256 -674 -386 -616 -300 -1207 -469 -1950 -554 -177 -21 -742 -28 -996 -13
-221 14 -513 53 -758 104 -1762 362 -3273 1541 -4052 3159 -357 741 -544 1493
-576 2323 l-7 172 34 -7 c83 -16 378 -92 411 -106 l37 -16 -1 -89 c-1 -138 31
-229 164 -470 100 -180 135 -256 188 -409 56 -159 99 -235 179 -318 78 -81 93
-101 152 -210 23 -44 57 -102 75 -130 17 -27 59 -104 92 -171 36 -73 73 -132
92 -147 85 -72 229 -58 331 31 l35 31 151 -114 c83 -62 191 -134 240 -160 48
-26 147 -81 218 -121 101 -57 157 -81 251 -108 153 -44 222 -72 315 -128 176
-106 338 -164 496 -178 72 -6 133 -20 210 -45 129 -44 195 -47 271 -15 84 36
171 148 172 221 0 14 6 32 13 41 16 20 108 37 243 44 189 10 243 25 342 92 48
32 95 72 105 90 10 17 22 62 25 99 7 66 8 67 54 101 l48 34 52 -20 c80 -29
124 -34 186 -22 109 22 168 76 202 182 8 26 26 48 61 73 58 41 111 120 133
196 8 30 20 106 26 169 6 63 13 140 16 170 5 58 21 80 59 80 46 0 123 31 163
66 102 87 131 239 97 509 -8 66 -24 161 -35 210 -28 125 -67 335 -81 430 -14
100 -56 230 -107 331 -22 44 -44 95 -50 115 -7 28 -100 158 -246 346 -10 13
-17 25 -15 27 2 1 51 17 109 35 196 61 267 108 322 213 51 97 19 237 -69 304
-79 60 -294 137 -418 149 -121 12 -143 22 -241 117 -64 62 -108 95 -150 114
-32 14 -96 50 -141 81 -59 39 -113 64 -190 89 -140 46 -204 86 -334 210 -88
84 -124 111 -193 144 -153 74 -328 94 -603 69 -124 -12 -134 -11 -153 6 -60
54 -257 732 -330 1136 -11 62 -36 181 -55 264 -19 82 -43 204 -55 270 -12 66
-32 165 -46 220 -22 88 -140 394 -248 642 l-35 83 57 38 c457 310 1087 593
1662 747 346 93 748 163 1050 181 58 4 107 8 109 10 10 9 678 3 802 -6z
m-3761 -1257 c161 -393 207 -541 281 -902 58 -284 81 -380 150 -621 66 -229
223 -704 260 -787 34 -75 36 -93 12 -94 -10 -1 -43 -3 -73 -5 -70 -4 -197 -43
-205 -62 -5 -13 7 -14 82 -8 101 7 556 9 591 2 13 -3 98 -8 190 -11 92 -4 184
-11 205 -16 59 -15 150 -73 250 -161 119 -104 131 -111 262 -154 121 -41 226
-89 295 -138 25 -17 71 -44 103 -60 40 -19 77 -50 123 -101 37 -40 83 -82 104
-94 38 -21 50 -38 50 -71 0 -10 11 -28 26 -39 29 -23 257 -101 295 -101 15 0
53 14 84 30 31 17 65 30 75 30 31 0 77 -63 85 -117 7 -57 -3 -89 -41 -124 -43
-39 -206 -109 -287 -124 -95 -16 -298 -19 -367 -4 -172 36 -278 72 -432 150
-88 44 -181 88 -208 99 -194 76 -263 134 -339 280 -24 45 -48 79 -54 77 -7 -2
-11 -13 -9 -23 5 -25 84 -190 113 -232 l22 -33 -63 3 c-44 2 -64 -1 -67 -9 -3
-8 3 -13 14 -13 11 0 23 -4 29 -9 15 -14 133 -33 165 -26 29 7 35 5 309 -121
52 -23 120 -52 150 -64 30 -12 71 -30 90 -41 64 -35 279 -90 380 -97 l95 -7
36 -68 c42 -75 75 -119 166 -221 64 -71 85 -109 172 -301 65 -146 83 -207 140
-485 69 -329 74 -371 75 -580 1 -176 0 -187 -23 -233 -45 -91 -133 -131 -213
-95 -89 40 -114 82 -181 303 -57 185 -64 214 -72 293 -7 67 -13 74 -33 42 -7
-12 -16 -18 -21 -16 -15 10 -109 210 -116 246 -3 19 -8 44 -10 55 -2 11 -4 28
-4 37 -1 10 -18 29 -39 42 -30 19 -55 52 -106 142 -91 159 -108 213 -107 337
1 106 1 108 33 239 12 48 18 91 15 95 -14 13 -38 -24 -61 -93 -71 -212 -57
-380 46 -563 45 -80 106 -170 144 -212 21 -24 34 -52 39 -80 8 -56 102 -251
149 -309 22 -27 36 -56 36 -73 0 -98 62 -284 134 -408 53 -90 80 -177 73 -231
-3 -22 -19 -72 -35 -111 -17 -40 -39 -111 -50 -159 -23 -96 -65 -198 -92 -223
-37 -33 -141 10 -195 81 -62 81 -128 354 -113 469 4 33 4 103 0 155 -8 118 -7
138 12 159 29 32 65 127 77 200 28 185 -31 343 -180 484 -75 71 -133 97 -211
97 -54 0 -66 8 -109 72 -68 101 -146 139 -291 139 -88 0 -145 -14 -208 -51
-18 -11 -37 -20 -41 -20 -5 0 -21 25 -35 55 -53 106 -208 212 -345 234 -122
20 -255 -11 -365 -84 -66 -44 -100 -89 -117 -157 -8 -31 -18 -48 -28 -48 -29
0 -323 309 -428 450 -114 154 -197 237 -300 303 -40 26 -79 57 -87 69 -28 43
-29 100 -5 234 27 152 30 209 10 209 -8 0 -19 -18 -26 -40 -6 -22 -24 -64 -39
-93 -27 -53 -28 -54 -47 -36 -11 10 -53 86 -94 168 -401 822 -643 1295 -765
1501 -45 77 -147 249 -226 382 -79 133 -144 247 -144 254 0 16 128 193 249
343 298 371 621 686 1017 991 60 46 112 84 115 84 4 1 39 -79 79 -176z m6793
115 c369 -279 697 -590 984 -935 l94 -113 -80 -110 c-45 -60 -120 -169 -168
-242 -47 -73 -87 -135 -89 -136 -1 -2 -44 33 -96 78 -89 78 -259 200 -279 200
-24 0 -4 -29 52 -75 140 -115 437 -440 521 -569 54 -84 97 -203 104 -290 9
-99 -6 -173 -83 -401 -109 -325 -164 -552 -179 -728 -4 -48 -10 -90 -15 -92
-4 -3 -20 2 -36 12 -68 39 -122 -25 -130 -157 -5 -71 -11 -55 99 -260 64 -119
65 -122 28 -164 -64 -72 -135 -57 -255 56 -78 72 -137 156 -172 240 -65 162
-114 442 -96 556 15 91 45 167 93 230 22 29 40 57 40 62 0 19 -32 10 -76 -22
-56 -40 -64 -32 -64 68 0 94 30 208 85 322 25 52 45 98 45 103 0 22 -44 6 -85
-32 l-44 -40 -5 33 c-3 18 -10 67 -16 109 -16 129 -85 299 -120 299 -11 0 -20
-1 -20 -3 0 -2 11 -32 25 -66 15 -35 38 -136 54 -229 16 -92 34 -179 40 -194
8 -21 7 -39 -4 -75 -24 -78 -29 -195 -15 -304 13 -95 12 -103 -8 -162 -43
-122 -38 -314 13 -525 44 -181 112 -300 251 -436 l74 -73 -62 -59 c-77 -74
-197 -169 -297 -237 -42 -28 -138 -97 -215 -154 -99 -74 -176 -122 -270 -168
-181 -89 -236 -104 -396 -116 -74 -5 -173 -19 -219 -30 -91 -21 -132 -19 -193
12 -72 37 -110 147 -74 217 18 35 237 248 296 289 70 47 117 68 251 112 68 22
145 53 169 69 63 40 144 132 177 201 27 56 31 60 93 85 95 38 193 114 230 178
25 44 30 64 30 120 0 78 -11 112 -48 151 -39 42 -92 66 -169 77 -37 5 -71 10
-75 10 -4 0 -23 24 -42 53 -65 97 -191 155 -311 144 -81 -8 -194 -49 -281
-103 -58 -35 -89 -47 -157 -59 -119 -21 -203 -54 -282 -109 -89 -64 -160 -139
-210 -222 -39 -65 -47 -72 -130 -116 -137 -74 -214 -162 -231 -266 -3 -21 -9
-44 -13 -49 -18 -28 -129 -98 -207 -131 -49 -21 -111 -50 -138 -65 -26 -14
-55 -23 -62 -20 -23 9 -54 78 -54 121 0 54 59 168 123 239 29 31 86 81 127
111 41 31 100 81 130 111 30 31 77 69 103 85 26 15 72 58 101 95 91 114 166
166 278 195 56 14 74 34 39 43 -12 3 -21 12 -21 20 0 8 29 125 64 261 54 209
75 271 134 404 39 87 85 204 103 260 41 134 92 267 135 349 74 140 212 286
367 387 68 44 79 64 39 70 -12 2 -22 9 -22 16 0 23 296 747 421 1027 78 176
124 288 183 447 15 39 30 72 32 72 3 0 42 -28 87 -62z m-8233 -1678 c57 -96
136 -224 175 -285 75 -115 209 -349 352 -613 193 -357 569 -1179 549 -1200 -3
-3 -61 30 -128 73 -575 366 -958 572 -1439 775 -134 57 -248 107 -253 111 -21
18 155 457 300 749 119 239 322 587 333 573 4 -4 54 -87 111 -183z m-530
-1388 c421 -182 650 -296 926 -460 109 -65 262 -154 339 -197 170 -96 548
-327 665 -406 90 -61 157 -126 312 -304 53 -60 128 -141 167 -180 39 -38 71
-72 71 -75 0 -3 -62 -5 -137 -5 -159 0 -197 -12 -278 -86 -60 -55 -83 -101
-91 -181 -15 -148 78 -317 230 -421 l27 -19 -46 -49 c-85 -91 -100 -181 -47
-294 60 -128 155 -185 307 -185 47 0 85 -1 85 -3 0 -1 -9 -30 -21 -62 -50
-143 29 -289 184 -342 68 -24 150 -66 272 -141 84 -51 111 -63 170 -72 39 -6
109 -18 156 -26 77 -14 86 -18 82 -35 -7 -25 8 -24 82 2 54 19 76 21 205 16
121 -3 158 -9 227 -31 228 -74 309 -147 321 -292 4 -57 3 -62 -22 -82 -30 -23
-64 -29 -206 -36 -122 -6 -168 -21 -198 -66 -30 -45 -51 -55 -139 -69 -106
-16 -106 -16 -130 33 -46 93 -146 173 -303 241 -176 76 -408 197 -490 257 -47
34 -124 87 -172 119 -47 32 -112 81 -145 110 -32 28 -85 67 -118 86 -33 19
-71 45 -85 58 -29 27 -119 65 -217 91 -131 36 -467 18 -481 -25 -3 -10 12 -11
74 -5 201 20 398 -12 554 -91 90 -45 232 -140 375 -250 229 -176 352 -250 542
-331 204 -86 263 -118 333 -181 72 -65 93 -109 98 -214 4 -84 3 -88 -21 -103
-46 -31 -81 -35 -173 -19 -73 13 -104 14 -169 5 -123 -18 -324 8 -435 56 -25
10 -82 44 -126 74 -74 50 -175 98 -208 98 -53 0 -403 161 -508 234 -35 24
-115 68 -178 99 -63 30 -147 79 -185 109 -169 128 -196 152 -191 168 3 8 14
40 25 70 11 31 27 100 37 153 21 128 10 236 -40 370 -20 52 -47 133 -61 180
-14 49 -41 111 -63 145 -21 33 -47 89 -57 123 -9 35 -24 73 -31 85 -8 12 -14
34 -13 50 0 16 -2 52 -6 80 -6 43 -3 63 25 136 23 61 31 94 26 113 -9 37 -21
24 -50 -60 -13 -38 -28 -71 -33 -72 -5 -2 -45 42 -88 96 -75 94 -105 119 -105
88 0 -8 32 -60 71 -116 77 -112 109 -173 109 -211 0 -40 59 -226 106 -335 23
-55 50 -130 58 -167 9 -37 32 -109 53 -160 37 -90 38 -97 37 -213 -2 -213 -41
-332 -146 -440 -55 -56 -69 -65 -100 -65 -21 0 -46 9 -63 21 -31 25 -31 28 9
214 14 66 26 136 26 156 0 70 -101 219 -150 219 -42 0 -59 -19 -81 -90 -11
-39 -24 -68 -28 -65 -5 2 -25 34 -46 70 -22 36 -62 86 -90 110 -76 65 -102
110 -155 268 -58 171 -90 242 -204 447 -116 208 -128 241 -134 371 -7 171 20
270 146 531 73 152 84 191 43 154 -21 -19 -201 -336 -201 -354 0 -21 -17 -20
-86 4 -107 39 -317 99 -437 125 l-109 23 6 100 c32 510 92 885 207 1298 l41
146 76 -33 c43 -18 129 -55 192 -83z m8165 -162 c-26 -29 -13 -34 43 -16 66
22 113 3 62 -24 -34 -18 -24 -32 19 -25 23 4 42 2 45 -4 8 -13 -18 -26 -69
-36 -42 -7 -142 -51 -190 -84 l-30 -20 -42 53 c-32 42 -53 58 -94 74 l-53 19
29 16 c58 29 145 51 156 40 8 -8 23 -6 53 8 22 10 52 19 65 19 23 0 24 -1 6
-20z m-3283 -164 c35 -13 89 -29 121 -36 31 -7 57 -17 57 -21 0 -16 -59 -39
-97 -38 -51 1 -244 69 -257 92 -27 44 63 45 176 3z m2792 9 c12 -9 42 -15 72
-15 61 0 114 -9 114 -20 0 -5 -18 -11 -40 -15 -24 -4 -40 -12 -40 -21 0 -10
14 -12 63 -8 75 6 101 -6 74 -33 -10 -10 -39 -22 -64 -28 -56 -12 -70 -35 -21
-35 l33 -1 -30 -25 c-78 -66 -284 -134 -406 -134 -242 0 -215 123 61 285 71
42 118 61 155 64 6 0 19 -6 29 -14z m638 -37 c3 -8 24 -8 84 2 43 6 97 10 119
8 l40 -4 -32 -8 c-18 -5 -38 -15 -45 -23 -10 -13 -1 -14 69 -8 59 6 82 4 88
-5 9 -15 -12 -30 -41 -30 -21 0 -52 -26 -42 -35 3 -3 27 -1 54 4 58 11 74 1
45 -28 -17 -17 -19 -24 -9 -40 24 -39 -61 -113 -185 -159 -32 -12 -62 -22 -67
-22 -5 0 -28 21 -52 46 -71 76 -157 115 -286 130 -31 3 -58 7 -60 9 -7 6 59
73 97 99 83 58 213 95 223 64z m1202 -57 c17 -19 20 -41 24 -189 l4 -167 -37
50 c-91 124 -113 186 -91 259 26 86 53 99 100 47z m-1579 -255 c22 0 73 3 113
8 86 10 98 -5 17 -23 -87 -20 -67 -32 39 -25 103 7 146 1 146 -21 0 -10 -11
-15 -37 -16 -48 -1 -86 -12 -90 -25 -2 -7 23 -9 77 -6 76 4 80 3 80 -17 0 -16
-10 -23 -45 -32 -24 -6 -50 -18 -57 -26 -11 -14 -7 -15 30 -8 56 9 56 -11 0
-60 -102 -87 -394 -185 -552 -185 -100 0 -186 49 -186 105 0 38 62 148 111
197 68 68 250 156 294 141 11 -3 38 -6 60 -7z m-693 -36 c18 -10 56 -24 85
-30 28 -6 54 -17 57 -25 3 -9 16 -12 45 -8 48 7 51 -1 14 -40 -19 -20 -24 -31
-15 -34 39 -14 -8 -74 -73 -91 -22 -5 -78 -22 -125 -37 -62 -20 -108 -27 -170
-28 -91 -1 -130 12 -130 42 0 28 71 131 124 179 35 33 132 91 153 92 1 0 17
-9 35 -20z m-347 -370 c51 -34 103 -42 243 -38 72 2 132 2 132 1 0 -10 -73
-35 -169 -58 -135 -32 -257 -90 -370 -175 -136 -103 -190 -180 -191 -272 l0
-48 -52 0 c-65 0 -122 25 -167 73 -28 30 -35 46 -39 91 -4 45 0 62 24 105 46
86 109 135 271 213 91 44 163 87 195 115 48 42 51 43 71 28 12 -8 36 -24 52
-35z m536 -56 c20 -25 85 -54 131 -59 24 -2 72 -7 107 -10 35 -2 66 -6 68 -9
2 -2 -22 -28 -54 -57 -127 -116 -207 -205 -231 -258 -21 -46 -24 -62 -18 -117
6 -63 6 -64 -21 -69 -65 -13 -110 -29 -153 -51 -45 -23 -46 -24 -123 -8 -84
17 -75 19 -207 -31 -70 -27 -170 -16 -218 22 -58 47 -94 113 -94 171 0 64 18
97 96 169 120 113 191 152 371 203 60 18 152 51 205 75 107 48 122 52 141 29z
m-4366 -394 c-15 -17 -16 -20 -3 -20 9 0 32 7 51 15 20 8 51 15 69 15 l33 -1
-27 -22 c-16 -13 -28 -28 -28 -35 0 -16 0 -16 55 8 50 21 91 25 114 11 11 -7
6 -13 -19 -26 -43 -22 -26 -37 28 -22 31 8 48 8 60 1 26 -17 25 -39 -3 -52
-27 -13 -34 -32 -10 -32 8 0 26 5 40 12 21 10 29 9 42 -5 16 -15 15 -18 -5
-40 -27 -29 -28 -37 -2 -37 24 0 26 -13 3 -31 -34 -28 -92 -132 -104 -185 -7
-30 -15 -57 -19 -59 -3 -2 -34 16 -69 40 -108 75 -277 136 -373 133 -27 0 -50
1 -51 3 -2 2 -17 21 -35 42 -42 49 -42 94 -2 163 29 51 93 114 116 114 7 0 14
-6 17 -12 3 -9 18 -5 53 14 27 15 58 28 68 28 18 0 18 -1 1 -20z m-711 -209
c-43 -26 -55 -46 -23 -38 132 33 163 38 184 33 33 -8 24 -22 -18 -30 -35 -7
-76 -31 -67 -40 3 -3 32 2 64 10 31 8 81 14 109 12 73 -4 73 -26 2 -61 -30
-15 -55 -32 -55 -38 0 -12 29 -5 74 19 17 8 43 18 58 23 49 14 82 -12 36 -27
-37 -11 -158 -135 -184 -187 -17 -33 -27 -72 -31 -128 l-6 -81 -71 4 c-88 4
-166 40 -234 106 -132 130 -126 324 13 400 53 30 89 40 135 41 l45 1 -31 -19z
m1548 -2 c20 -11 17 -13 -33 -38 -70 -34 -77 -56 -9 -30 106 40 172 11 80 -36
-28 -14 -50 -30 -50 -35 0 -14 16 -12 48 4 73 36 104 26 60 -21 -25 -26 -19
-40 10 -24 12 6 25 11 30 11 18 0 23 -33 7 -50 -20 -22 -19 -27 5 -33 18 -5
20 -11 14 -49 -19 -137 -86 -298 -124 -298 -4 0 -20 24 -34 54 -64 132 -226
216 -413 216 l-65 0 7 33 c13 61 65 155 104 189 53 45 161 108 186 108 19 0
18 -2 -5 -20 -37 -28 -16 -36 38 -13 111 49 112 49 144 32z m3211 -74 c0 -5
-27 -21 -60 -34 -44 -19 -77 -25 -138 -25 -106 -1 -145 19 -54 27 35 3 84 14
109 26 47 22 147 26 143 6z m673 -24 c-11 -17 -90 -22 -136 -7 l-45 14 93 1
c52 1 91 -3 88 -8z m-3540 -116 c4 -9 -4 -23 -17 -35 -27 -22 -49 -26 -49 -7
0 6 -3 22 -6 35 -6 20 -3 22 30 22 23 0 39 -5 42 -15z m-1406 -50 c-22 -26 -4
-28 61 -6 81 29 105 21 58 -18 -47 -40 -29 -50 34 -18 54 28 82 33 105 18 16
-10 1 -24 -41 -40 -28 -11 -37 -31 -14 -31 7 0 40 9 73 20 47 16 67 18 87 11
36 -14 34 -24 -10 -47 -21 -11 -38 -27 -38 -35 0 -8 -31 -44 -68 -79 -72 -67
-100 -111 -127 -200 -15 -51 -19 -55 -46 -54 -44 2 -174 66 -212 105 -93 92
-96 195 -11 314 33 46 82 74 133 74 24 1 27 -1 16 -14z m1487 -10 c2 -13 -11
-30 -39 -50 -23 -16 -46 -38 -52 -47 -18 -29 3 -33 32 -6 15 14 40 34 56 44
28 18 29 18 47 -5 30 -36 24 -66 -16 -91 -19 -12 -35 -28 -35 -36 0 -20 8 -18
47 12 27 21 37 23 48 14 19 -16 19 -54 0 -70 -22 -18 -18 -33 6 -27 29 8 33
-11 20 -103 -12 -93 -45 -164 -95 -207 -49 -44 -95 -56 -190 -51 -66 4 -95 11
-158 41 -67 31 -78 39 -78 61 0 45 17 71 74 115 68 53 130 142 146 213 18 75
41 116 96 171 51 51 87 59 91 22z m-797 -210 c-7 -8 -18 -15 -24 -15 -6 0 -22
-7 -34 -16 -41 -28 -12 -33 53 -8 75 28 135 32 135 9 0 -8 -11 -17 -25 -21
-13 -3 -29 -12 -36 -20 -9 -11 -7 -14 12 -14 13 0 41 5 62 11 39 11 77 5 77
-12 0 -5 -20 -18 -45 -29 -25 -11 -45 -24 -45 -30 0 -13 5 -13 65 5 63 19 79
14 70 -24 -3 -17 -2 -32 4 -36 6 -3 11 -18 11 -33 0 -56 -22 -103 -75 -160
-90 -98 -203 -138 -361 -130 -132 7 -225 56 -288 152 -43 64 -32 157 26 226
37 44 128 105 195 131 27 10 27 10 8 -11 -29 -32 -10 -35 53 -7 57 26 119 44
156 46 15 1 16 -2 6 -14z m-970 -149 c0 -8 -4 -18 -10 -21 -22 -14 -8 -26 23
-20 27 5 36 2 55 -20 21 -24 107 -70 235 -124 26 -11 47 -24 47 -29 0 -5 -10
-24 -22 -42 -18 -25 -38 -39 -88 -55 -36 -12 -84 -32 -107 -44 -89 -45 -241
-64 -326 -40 -73 20 -157 120 -157 185 0 40 36 109 73 140 33 28 123 74 145
74 6 0 12 -6 12 -14 0 -26 16 -26 51 -1 39 27 69 32 69 11z m1316 -301 c-31
-52 -18 -59 23 -13 28 31 29 32 55 15 27 -18 33 -32 16 -42 -13 -8 -13 -45 0
-45 5 0 14 9 20 21 8 14 19 19 38 17 22 -2 27 -8 27 -30 1 -35 9 -42 25 -23
55 67 84 -93 35 -192 -49 -98 -171 -183 -263 -183 -58 0 -149 23 -217 54 -100
46 -211 157 -217 218 -3 21 1 23 67 29 113 10 231 70 339 170 66 62 87 64 52
4z m7114 10 c0 -17 -66 -311 -91 -405 -96 -360 -252 -780 -397 -1066 l-30 -59
-155 -23 c-85 -12 -192 -32 -237 -43 -45 -12 -84 -19 -86 -16 -3 3 8 49 25
104 43 141 75 273 67 280 -4 4 -13 0 -20 -8 -24 -25 -156 -349 -218 -534 -70
-211 -94 -259 -166 -331 -66 -66 -126 -95 -272 -134 -123 -32 -255 -90 -330
-145 -26 -19 -50 -35 -54 -35 -3 0 -6 27 -6 61 0 81 -19 74 -41 -14 -20 -80
-39 -111 -79 -132 l-29 -15 -3 72 c-2 57 -6 73 -18 73 -11 0 -18 -20 -26 -80
-11 -87 -24 -119 -51 -130 -10 -3 -57 -13 -104 -21 -55 -9 -114 -27 -163 -50
-42 -20 -80 -34 -83 -30 -3 3 -1 17 5 31 17 36 15 80 -3 95 -19 15 -78 1 -173
-41 -95 -42 -120 -64 -151 -133 -21 -46 -45 -77 -97 -124 -86 -78 -105 -84
-145 -46 -61 59 -60 154 6 291 49 104 86 154 200 272 173 179 301 273 428 316
94 31 134 31 222 -1 89 -32 87 -31 92 -17 3 10 -87 60 -139 77 -10 3 -18 9
-18 13 0 6 188 123 243 151 19 9 187 32 240 32 43 0 58 3 55 13 -6 15 -126 29
-191 22 -38 -5 -48 -3 -45 7 2 7 62 57 133 111 152 114 183 143 170 156 -6 6
-42 -7 -95 -33 -63 -31 -110 -66 -181 -132 -53 -49 -102 -99 -109 -112 -8 -12
-45 -40 -84 -61 -39 -22 -114 -67 -166 -101 -52 -33 -114 -66 -138 -72 -102
-26 -313 -185 -459 -348 -165 -183 -261 -329 -278 -420 l-6 -35 -207 1 c-235
0 -258 5 -401 88 -95 54 -191 96 -301 131 -103 33 -244 104 -294 148 -20 18
-56 66 -79 107 -24 41 -65 109 -91 151 -28 45 -50 94 -53 117 -5 37 -2 44 41
90 63 68 126 94 226 94 102 0 284 -43 375 -89 51 -25 85 -35 125 -37 30 -1 98
-15 150 -30 88 -26 110 -29 296 -32 110 -1 221 -8 247 -14 48 -10 97 -5 97 11
0 21 -90 33 -295 39 -166 5 -232 11 -270 24 -27 9 -102 26 -165 37 -63 11
-129 29 -146 40 -17 10 -51 26 -75 34 -57 20 -238 61 -310 70 -107 13 -228
-36 -319 -130 -18 -19 -39 -35 -44 -35 -6 0 -43 31 -83 69 -69 64 -72 70 -66
103 10 66 -12 105 -86 153 -50 31 -79 59 -109 104 -61 92 -69 122 -42 174 54
105 123 142 252 135 66 -4 102 -12 172 -41 104 -43 385 -195 501 -273 66 -43
92 -54 146 -63 95 -13 239 -68 427 -162 127 -64 169 -90 193 -120 31 -40 49
-49 49 -26 0 22 -77 94 -142 133 -124 73 -264 143 -308 154 -131 32 -268 75
-290 90 -14 10 -59 34 -100 55 -41 20 -95 52 -120 69 -61 43 -195 119 -292
166 -150 73 -290 87 -395 40 l-45 -20 -74 56 c-70 52 -90 83 -65 98 5 4 19 26
31 51 41 85 100 115 226 115 94 0 156 -20 299 -95 210 -110 317 -140 546 -154
165 -11 252 -29 390 -83 110 -43 120 -60 113 -182 -5 -88 -4 -93 25 -143 66
-112 265 -222 482 -268 104 -22 274 -30 354 -16 90 15 186 62 225 109 54 66
39 160 -42 248 -107 116 -292 212 -472 243 -78 14 -271 14 -338 0 -29 -6 -83
-26 -120 -44 l-67 -32 -25 38 c-48 71 -243 140 -456 160 -329 30 -371 41 -493
123 -46 30 -117 71 -160 92 -83 39 -90 50 -63 102 16 31 61 74 93 91 12 6 55
11 95 11 81 0 317 -32 361 -49 39 -15 67 -14 67 3 0 11 10 11 63 0 34 -7 118
-18 186 -25 149 -13 188 -26 264 -86 59 -46 77 -51 58 -15 -6 12 -11 25 -11
30 0 13 177 71 238 79 26 3 67 16 92 28 77 39 328 114 485 146 83 17 232 57
332 90 270 87 418 97 633 39 157 -41 251 -62 258 -55 4 4 -6 17 -23 30 -34 28
-36 27 85 50 280 54 490 118 1090 327 47 17 153 47 235 68 165 42 165 42 165
35z m-6522 -111 c11 -51 11 -77 3 -99 -23 -65 -23 -112 -2 -224 24 -125 70
-265 107 -322 30 -47 89 -88 152 -105 45 -11 47 -13 44 -43 -3 -46 -37 -106
-72 -131 -46 -32 -95 -35 -170 -10 -100 33 -107 40 -115 111 -8 69 -44 145
-105 221 -22 28 -40 56 -41 62 -1 6 0 50 1 98 1 48 -4 112 -11 143 -10 47 -10
63 2 93 9 24 13 69 11 125 -1 64 2 87 11 87 7 0 44 15 82 34 39 19 74 33 80
32 5 -1 16 -34 23 -72z m-1428 16 c0 -5 -18 -24 -40 -41 -40 -32 -50 -49 -29
-49 6 0 36 18 68 40 58 41 91 50 91 27 0 -7 -13 -26 -30 -42 -28 -27 -40 -55
-22 -55 4 0 29 16 56 35 54 38 73 42 102 21 18 -14 18 -16 -16 -44 -44 -37
-35 -50 14 -21 20 12 38 20 40 18 2 -2 13 -33 24 -69 22 -73 19 -87 -32 -133
-45 -40 -104 -74 -171 -97 -148 -51 -405 0 -459 91 -26 45 -23 120 8 173 30
52 64 76 108 76 21 0 48 12 72 30 51 39 102 40 64 2 -27 -27 3 -20 53 13 51
33 99 46 99 25z m1189 -437 c1 -97 -1 -98 -89 -55 -75 37 -74 56 10 125 77 63
77 63 79 -70z m-3327 70 c43 -45 68 -92 68 -128 0 -50 -41 -230 -56 -245 -8
-8 -14 -10 -14 -3 0 6 -19 51 -42 100 -39 79 -43 95 -43 163 0 72 22 150 42
150 5 0 25 -17 45 -37z m2506 3 c59 -100 279 -158 480 -127 87 14 168 -1 262
-49 81 -41 122 -79 174 -163 84 -137 69 -173 -87 -207 -47 -10 -50 -9 -108 29
-81 54 -179 99 -268 123 -91 24 -297 36 -355 19 -34 -9 -57 -6 -173 24 -74 19
-158 35 -186 35 -39 0 -68 8 -112 31 -83 43 -115 62 -115 70 0 3 35 9 78 12
44 3 103 15 133 27 66 24 168 100 187 137 42 84 59 91 90 39z m1572 -71 c0
-73 -36 -189 -75 -239 -28 -36 -27 -8 4 81 16 48 33 106 36 128 9 55 13 65 25
65 5 0 10 -16 10 -35z m-930 -15 c0 -5 -7 -10 -15 -10 -8 0 -15 5 -15 10 0 6
7 10 15 10 8 0 15 -4 15 -10z m311 -479 c-25 -46 -132 -69 -139 -29 -2 12 9
19 45 26 26 6 59 15 73 20 31 12 35 9 21 -17z m1523 -207 c4 -11 1 -14 -11
-12 -9 2 -18 9 -21 16 -6 18 25 15 32 -4z m1971 -94 c50 -6 105 -13 124 -17
32 -5 33 -6 12 -17 -28 -16 -17 -26 28 -26 61 0 141 -12 141 -21 0 -5 -11 -9
-25 -9 -48 0 -24 -18 41 -31 64 -13 124 -40 124 -57 0 -5 -13 -7 -30 -4 -18 3
-30 0 -30 -7 0 -6 3 -12 8 -12 4 -1 16 -3 27 -4 41 -6 115 -44 115 -61 0 -14
-7 -16 -50 -10 -68 9 -65 -9 6 -30 41 -12 54 -20 52 -32 -3 -13 -14 -17 -51
-16 -52 0 -56 -3 -30 -22 24 -17 16 -22 -53 -35 -85 -16 -196 -6 -377 35 -165
37 -248 68 -323 121 -150 107 -116 215 79 250 91 17 103 17 212 5z m-3740 -30
c-45 -28 -140 -50 -217 -50 -97 0 -90 28 12 49 51 11 73 13 190 18 l45 2 -30
-19z m1898 -318 c36 -24 55 -60 42 -81 -6 -10 -125 108 -134 132 -4 11 5 6 92
-51z m-2604 -38 c26 -24 -144 -24 -209 -1 -44 16 -43 16 80 10 69 -3 127 -7
129 -9z m2903 -427 c20 -29 46 -73 58 -98 l22 -44 -32 30 c-17 17 -42 48 -55
70 -23 39 -42 95 -32 95 2 0 20 -24 39 -53z m2088 -476 c0 -34 -70 -117 -128
-152 -20 -12 -66 -41 -102 -65 -130 -84 -202 -99 -118 -24 30 27 61 64 68 82
29 75 42 94 74 116 47 32 145 71 179 72 23 0 27 -4 27 -29z"/>
</g>
</svg>
