<?xml version="1.0" standalone="no"?>
<!DOCTYPE svg PUBLIC "-//W3C//DTD SVG 20010904//EN"
 "http://www.w3.org/TR/2001/REC-SVG-20010904/DTD/svg10.dtd">
<svg version="1.0" xmlns="http://www.w3.org/2000/svg"
 width="1249.000000pt" height="1249.000000pt" viewBox="0 0 1249.000000 1249.000000"
 preserveAspectRatio="xMidYMid meet">
<metadata>
Created by potrace 1.16, written by Peter Selinger 2001-2019
</metadata>
<g transform="translate(0.000000,1249.000000) scale(0.100000,-0.100000)"
fill="#000000" stroke="none">
<path d="M0 6245 l0 -6245 6245 0 6245 0 0 6245 0 6245 -6245 0 -6245 0 0
-6245z m6617 6151 c10 -2 68 -7 128 -12 61 -4 113 -9 118 -10 4 -1 10 -2 15
-3 4 -1 -105 -30 -243 -66 -374 -96 -547 -153 -805 -267 -658 -290 -1380 -820
-1863 -1368 -218 -247 -450 -570 -604 -840 -75 -130 -215 -411 -273 -546 l-44
-102 -46 29 c-26 16 -76 42 -111 58 -83 37 -495 178 -693 236 -140 41 -301 97
-399 138 l-37 16 93 93 c71 71 109 120 161 206 75 127 91 166 106 258 6 35 21
85 35 110 29 54 32 90 9 115 -14 16 -13 25 15 111 34 109 68 282 70 369 1 18
211 189 391 320 715 517 1544 878 2410 1048 135 27 225 42 395 65 136 19 332
36 480 42 93 4 172 9 175 12 5 5 485 -6 517 -12z m895 -122 c386 -80 786 -207
1153 -364 160 -68 415 -191 415 -200 0 -4 -42 -10 -92 -14 -146 -10 -333 -45
-447 -82 -187 -61 -313 -149 -399 -278 -117 -175 -120 -295 -9 -350 39 -19 84
-17 224 10 30 6 32 4 44 -34 13 -43 7 -82 -15 -104 -34 -35 -610 -474 -634
-485 -15 -6 -71 -16 -124 -21 -103 -10 -135 -23 -165 -69 -23 -34 -22 -152 1
-205 25 -59 21 -81 -26 -124 -93 -85 -187 -121 -323 -123 -98 -2 -168 -14
-202 -36 -11 -8 -29 -35 -39 -60 -15 -40 -16 -68 -11 -218 7 -209 27 -332 61
-391 58 -99 194 -142 371 -117 244 34 384 141 530 405 80 145 224 249 409 296
89 22 117 24 163 7 40 -15 152 -107 254 -207 63 -63 80 -86 103 -146 31 -82
58 -101 124 -91 55 9 141 74 169 127 21 38 24 56 21 120 -2 41 -8 83 -12 94
-8 16 -7 17 13 7 34 -19 92 -81 107 -116 7 -18 18 -60 23 -95 13 -79 31 -107
75 -115 48 -10 74 1 122 51 51 52 139 83 260 91 100 7 118 -2 133 -63 42 -165
231 -420 394 -532 72 -49 81 -51 197 -40 58 5 48 -22 -40 -108 -61 -59 -191
-213 -195 -231 0 -1 -44 20 -97 47 -65 32 -131 56 -197 71 -98 22 -100 23
-106 55 -19 102 -166 98 -298 -6 -27 -22 -55 -40 -62 -40 -6 0 -56 -7 -111
-15 -128 -20 -315 -20 -401 0 -122 28 -250 112 -291 189 -12 23 -16 62 -17
156 -1 138 -13 182 -60 218 -81 64 -201 49 -308 -36 -90 -72 -178 -78 -300
-23 -51 24 -82 31 -132 32 -57 1 -72 -3 -132 -37 -225 -127 -299 -150 -489
-147 -157 2 -176 -6 -232 -98 -157 -258 -272 -417 -387 -538 -69 -72 -193
-182 -232 -204 -27 -17 -123 212 -123 294 0 16 8 32 21 41 l22 14 -23 44 -22
43 23 18 24 18 -23 88 c-27 105 -27 111 -2 143 26 33 26 104 -1 223 -12 54
-22 139 -24 207 -2 63 -10 160 -19 215 -9 55 -16 118 -16 140 -1 114 -76 296
-180 434 -69 91 -84 103 -195 159 -112 55 -166 66 -289 57 -107 -8 -158 -8
-322 -5 -165 4 -269 -39 -406 -168 -153 -144 -251 -356 -277 -600 -13 -118
-13 -273 -2 -382 12 -111 -26 -206 -100 -249 -21 -12 -28 -25 -32 -56 -2 -22
-12 -58 -20 -80 -9 -22 -16 -66 -17 -97 0 -59 10 -77 54 -103 15 -9 16 -17 6
-83 -7 -41 -9 -83 -6 -96 6 -24 -27 -138 -50 -175 -9 -13 -54 -41 -102 -63
-48 -22 -131 -60 -185 -86 -59 -28 -101 -42 -106 -36 -5 5 -65 127 -134 272
-69 145 -160 323 -201 396 -42 73 -76 139 -76 145 0 7 12 33 27 58 21 36 27
60 29 119 4 115 35 160 190 267 87 60 152 125 180 178 15 29 17 59 15 207 -1
96 -6 184 -11 198 -5 13 -34 47 -64 75 -64 60 -79 95 -78 191 1 111 57 209
237 418 105 122 514 530 531 530 7 0 16 -5 20 -11 12 -20 88 -47 179 -64 99
-19 133 -33 183 -76 18 -16 37 -29 41 -29 5 0 29 11 52 25 24 14 89 39 144 56
177 55 240 100 304 214 78 141 224 308 391 447 107 90 393 309 427 327 13 6
38 35 56 64 64 98 157 166 277 201 155 45 653 142 742 145 15 1 83 -11 150
-25z m-1422 -327 c-8 -8 -96 -81 -195 -163 -287 -237 -457 -417 -622 -656 -17
-26 -43 -54 -57 -63 -41 -27 -157 -40 -245 -26 -42 6 -112 16 -156 22 -94 13
-113 21 -121 55 -8 31 13 56 76 92 25 14 92 60 150 102 330 241 684 449 1004
591 126 57 200 77 166 46z m3356 -440 c847 -518 1570 -1247 2083 -2099 l22
-37 -58 -29 c-32 -16 -177 -82 -323 -147 -261 -115 -393 -180 -519 -257 -35
-22 -64 -38 -65 -36 -1 2 -8 23 -16 48 -10 28 -25 50 -42 59 -25 14 -32 13
-105 -17 -133 -55 -177 -41 -266 86 -30 42 -87 118 -126 167 -87 110 -94 130
-56 161 64 51 295 99 436 92 59 -4 88 -11 125 -31 123 -68 201 -100 254 -104
49 -4 60 -1 101 26 90 60 98 128 32 253 -68 131 -199 230 -321 245 -28 3 -52
9 -52 13 0 4 9 27 20 51 40 88 16 149 -80 203 -49 28 -64 31 -135 31 -74 0
-85 -3 -150 -38 -91 -50 -282 -187 -338 -243 -81 -80 -97 -152 -52 -239 13
-27 23 -50 22 -51 -1 -1 -36 -10 -77 -19 -51 -12 -131 -20 -251 -23 l-176 -4
-45 58 c-52 67 -182 188 -258 239 -71 48 -119 48 -166 1 -45 -45 -46 -96 -4
-181 37 -74 38 -107 4 -134 -36 -28 -50 -19 -164 109 -106 119 -146 154 -208
182 -124 56 -391 20 -550 -74 -86 -51 -168 -140 -276 -301 -107 -159 -156
-211 -237 -252 -80 -41 -137 -55 -225 -55 -96 0 -142 13 -149 43 -3 12 -16
112 -29 222 -30 251 -36 238 107 254 176 20 303 65 416 150 111 83 131 152 78
262 -47 98 -40 110 83 128 129 20 213 67 401 226 63 53 139 113 169 133 30 19
79 55 108 79 l54 43 48 -75 c70 -106 143 -157 253 -175 83 -13 199 6 283 46
74 36 153 115 190 190 26 53 27 60 17 118 -21 121 -115 307 -169 337 -34 18
-110 14 -142 -7 -38 -25 -49 -39 -86 -119 -39 -82 -60 -104 -109 -112 -38 -6
-128 19 -147 42 -6 7 -12 37 -14 67 -6 106 -42 128 -208 128 -62 0 -119 4
-127 9 -12 8 -8 19 20 66 92 154 278 255 572 310 63 12 342 43 488 54 8 0 69
-32 135 -72z m-436 -532 c0 -8 14 -56 31 -107 37 -112 34 -144 -17 -187 -108
-88 -207 -106 -309 -57 -59 29 -115 86 -115 116 0 11 3 20 8 21 4 0 52 1 108
2 91 2 104 5 142 30 51 33 97 94 119 158 16 44 33 56 33 24z m-6834 -194 c-21
-104 -73 -282 -85 -294 -21 -21 -23 50 -7 182 l18 136 41 37 c23 20 44 32 45
27 2 -5 -3 -45 -12 -88z m-579 -563 c-7 -56 -6 -99 6 -183 9 -60 19 -130 22
-155 3 -25 17 -69 30 -99 30 -63 29 -58 6 -70 -18 -10 -68 6 -328 109 l-82 33
32 45 c68 96 307 390 318 391 3 1 1 -32 -4 -71z m3721 -97 c51 -20 79 -20 67
-1 -9 15 45 25 137 25 84 0 88 -1 192 -54 126 -63 145 -84 238 -247 83 -146
94 -177 101 -284 3 -47 13 -130 22 -185 9 -55 16 -151 15 -213 0 -82 5 -134
20 -193 12 -45 19 -83 16 -86 -2 -3 -14 0 -25 7 -21 10 -21 9 -17 -72 2 -46 9
-107 16 -137 10 -47 9 -58 -6 -86 -12 -22 -15 -41 -9 -61 8 -34 8 -70 -1 -136
-7 -53 20 -157 62 -240 13 -26 24 -49 24 -51 0 -2 -48 20 -107 50 -99 49 -210
83 -315 99 l-38 5 1 97 c0 53 6 113 13 132 11 29 17 34 39 32 29 -4 45 20 66
99 7 25 30 68 52 95 67 84 79 107 79 150 0 23 7 58 15 77 8 20 15 53 15 73 0
20 5 65 12 100 9 50 9 66 -2 79 -21 25 -45 17 -84 -25 -33 -37 -55 -53 -41
-30 3 5 1 27 -5 49 -7 29 -7 46 1 65 15 31 15 31 58 5 18 -11 35 -18 38 -15
12 12 -11 43 -50 67 -54 33 -130 121 -158 183 -11 26 -19 49 -17 51 2 2 30 -3
63 -11 68 -16 145 -11 145 11 0 13 -12 16 -121 30 -65 8 -127 51 -192 133 -89
110 -127 134 -189 113 -39 -13 -85 -47 -77 -56 4 -3 19 -1 35 5 74 28 147 6
185 -57 13 -21 42 -58 66 -84 30 -32 45 -59 53 -94 6 -27 21 -65 32 -84 21
-33 21 -34 2 -26 -51 22 -166 46 -228 48 -55 2 -70 -1 -79 -15 -6 -9 -8 -20
-4 -24 4 -4 58 -11 120 -15 114 -7 169 -20 199 -46 9 -9 25 -12 36 -8 15 4 27
-3 47 -29 25 -33 26 -36 11 -65 -20 -38 -20 -60 -1 -81 18 -20 7 -60 -25 -95
-10 -11 -26 -40 -36 -65 -9 -25 -26 -58 -37 -74 -19 -27 -19 -30 -4 -41 25
-18 22 -22 -33 -40 -80 -26 -151 -24 -199 8 -22 15 -45 27 -51 27 -5 0 -10 15
-10 33 0 24 -9 42 -33 65 -45 44 -55 28 -12 -19 30 -34 33 -42 25 -64 -6 -15
-10 -28 -10 -30 0 -2 29 -20 63 -40 72 -40 121 -45 204 -20 72 21 106 51 99
85 -3 16 4 49 18 83 27 68 42 86 64 81 11 -2 32 15 60 51 41 53 62 62 62 29 0
-9 -14 -32 -31 -52 -36 -44 -89 -163 -89 -201 0 -15 -11 -65 -25 -111 -14 -46
-25 -94 -25 -106 0 -28 -28 -114 -42 -132 -9 -10 -14 -8 -25 8 -20 29 -31 25
-42 -17 -6 -21 -20 -53 -31 -70 -16 -28 -24 -32 -47 -27 -25 5 -30 1 -50 -38
-29 -60 -120 -159 -139 -151 -8 3 -25 -3 -37 -14 -21 -20 -60 -43 -71 -43 -3
0 -6 10 -6 23 0 33 -23 62 -44 54 -9 -4 -26 -22 -37 -42 -12 -19 -24 -35 -27
-35 -3 0 -21 14 -38 31 -24 24 -43 32 -74 34 -53 3 -91 39 -132 125 -38 80
-34 77 -57 56 -18 -16 -19 -16 -30 16 -7 18 -14 58 -18 88 -6 64 -16 79 -38
60 -21 -18 -27 -10 -69 100 -29 77 -36 108 -36 166 0 79 -37 240 -70 304 -31
61 -23 71 10 13 17 -29 35 -53 41 -53 6 0 9 6 6 13 -3 6 -14 36 -26 64 l-21
53 38 25 c20 14 42 25 48 25 15 0 6 -39 -14 -62 -21 -25 -10 -79 37 -171 21
-42 35 -80 30 -83 -16 -9 -10 -40 12 -60 12 -10 27 -31 35 -46 31 -60 119 -80
174 -40 18 13 31 17 37 11 9 -9 41 -4 121 17 17 5 15 24 -3 24 -14 0 -35 29
-35 50 0 6 15 17 33 25 31 13 68 45 53 45 -4 0 -24 -9 -46 -20 -44 -22 -61
-47 -54 -76 6 -24 -32 -46 -65 -37 -12 3 -32 -2 -46 -11 -13 -9 -38 -16 -54
-16 -33 0 -81 18 -81 31 0 4 -12 22 -26 39 -19 22 -24 34 -16 42 8 8 -3 37
-39 105 -52 101 -58 126 -33 154 9 11 16 35 16 64 0 39 5 52 40 92 53 62 84
111 98 159 9 32 23 47 68 76 32 20 93 62 137 92 87 60 127 75 151 55 8 -6 17
-9 20 -6 11 11 -8 46 -29 53 -54 19 -107 -5 -228 -103 -48 -39 -130 -92 -183
-119 -53 -27 -96 -52 -96 -56 0 -12 23 -9 70 7 24 8 45 13 48 10 8 -8 -62
-116 -104 -161 -23 -23 -67 -57 -97 -74 -31 -17 -61 -38 -68 -46 -17 -21 -20
-262 -3 -342 14 -67 56 -149 81 -159 17 -7 57 -93 79 -172 9 -31 23 -61 31
-68 12 -10 15 -33 14 -115 -1 -57 -4 -128 -7 -159 l-6 -56 -89 -11 c-60 -7
-117 -23 -177 -47 -110 -46 -132 -52 -132 -33 0 21 41 208 51 236 13 35 11 42
-12 42 -20 0 -21 4 -17 108 3 98 6 111 31 151 43 65 21 75 -41 17 -27 -25 -52
-46 -55 -46 -11 0 5 34 26 57 10 12 16 26 13 32 -4 6 8 26 27 44 18 19 44 61
57 93 13 32 30 64 37 69 9 8 10 29 4 91 -4 45 -5 124 -1 175 5 52 11 135 15
184 16 208 53 326 146 461 111 161 234 263 356 294 63 15 211 5 271 -19z
m5070 -101 c28 -17 31 -23 22 -40 -17 -31 -30 -117 -23 -151 8 -42 40 -60 134
-75 90 -14 155 -47 193 -97 26 -35 66 -111 66 -126 0 -5 -26 6 -57 25 -32 19
-94 47 -138 61 -72 25 -94 27 -225 27 -149 0 -151 0 -332 -60 -19 -7 -24 7
-36 95 -16 115 10 163 125 230 32 19 94 56 138 83 44 26 84 48 90 48 5 0 25
-9 43 -20z m-6740 -133 c7 -18 39 -76 72 -127 66 -102 80 -140 80 -213 0 -78
-40 -137 -145 -213 -22 -16 -77 -63 -122 -105 -45 -43 -102 -88 -125 -101 -59
-32 -72 -62 -52 -121 32 -93 17 -93 -78 -1 l-88 85 61 137 c99 225 354 692
377 692 5 0 13 -15 20 -33z m-2143 -290 c99 -36 234 -86 300 -110 66 -25 233
-79 370 -121 290 -88 576 -186 656 -227 195 -98 445 -314 526 -454 114 -197
264 -495 388 -771 35 -78 78 -165 95 -194 121 -205 315 -675 380 -918 12 -46
23 -71 232 -506 70 -148 127 -271 125 -273 -2 -2 -31 1 -64 5 -100 14 -178 0
-289 -50 -54 -25 -132 -56 -172 -68 -71 -20 -121 -41 -317 -127 -127 -57 -440
-159 -570 -188 -138 -30 -287 -86 -344 -131 -25 -19 -48 -31 -52 -27 -8 9 -12
39 -34 268 -16 168 -30 258 -70 465 -28 143 -61 347 -70 435 -4 33 -9 71 -12
85 -12 60 -10 552 3 685 21 219 44 412 60 505 20 118 19 229 -2 237 -29 11
-52 -31 -98 -182 -67 -221 -126 -605 -126 -821 0 -30 -4 -54 -8 -54 -35 0 -83
227 -99 471 -20 285 4 570 63 789 54 195 61 230 44 230 -20 0 -62 -94 -114
-251 -57 -173 -76 -272 -76 -404 -1 -92 -11 -277 -16 -273 -2 2 -17 73 -35
158 -31 156 -42 190 -59 190 -16 0 -15 -43 2 -170 32 -238 67 -416 113 -575
59 -203 93 -290 151 -389 40 -69 47 -90 60 -180 22 -164 53 -330 94 -511 38
-171 56 -275 47 -275 -9 0 -220 320 -276 416 -63 110 -126 257 -216 504 -37
102 -72 189 -77 195 -14 15 -28 -16 -22 -50 3 -16 30 -124 60 -240 48 -183 65
-229 128 -360 46 -93 120 -220 197 -335 158 -238 242 -399 264 -503 8 -43 27
-101 40 -128 27 -52 42 -60 116 -62 50 -1 43 13 109 -237 49 -185 81 -290 222
-734 l60 -190 -6 -95 c-3 -53 -9 -136 -12 -186 -9 -162 -44 -518 -60 -610 -8
-49 -20 -119 -25 -155 -6 -36 -21 -108 -34 -160 -13 -52 -39 -187 -59 -300
-19 -113 -62 -317 -96 -455 -63 -259 -99 -449 -87 -462 15 -14 27 17 65 177
23 91 57 219 77 285 67 218 86 288 125 485 69 345 69 345 67 -220 -1 -272 2
-538 6 -590 11 -129 36 -448 42 -540 8 -107 35 -369 41 -407 4 -18 3 -33 -1
-33 -4 0 -62 32 -129 72 -633 373 -1213 879 -1680 1465 -823 1031 -1282 2274
-1334 3608 -13 324 -1 616 39 960 108 926 435 1827 951 2622 l79 121 82 -33
c45 -18 163 -62 262 -98z m10218 -544 c551 -1087 767 -2251 642 -3456 -121
-1159 -582 -2280 -1310 -3187 -110 -137 -313 -370 -323 -370 -4 0 -2 71 4 157
6 87 9 205 6 263 -9 176 -8 189 31 280 48 112 370 919 459 1150 22 58 78 222
125 365 46 143 101 301 123 350 21 50 72 180 113 290 99 264 142 371 220 545
107 239 132 291 300 630 154 309 162 328 165 393 3 38 0 73 -5 78 -13 13 -21
-1 -158 -246 -202 -362 -261 -473 -412 -772 -53 -106 -98 -191 -100 -189 -3 2
0 39 6 82 11 85 17 183 26 394 3 74 8 160 10 190 2 30 7 114 10 185 3 72 8
146 10 165 2 19 6 82 10 140 6 110 9 153 25 365 9 111 6 211 -5 224 -9 8 -29
-15 -46 -55 -22 -49 -41 -178 -99 -664 -22 -190 -58 -451 -80 -580 -22 -129
-56 -341 -75 -470 -94 -613 -227 -1074 -518 -1795 -35 -88 -111 -284 -167
-435 -57 -151 -147 -369 -200 -485 -104 -224 -163 -360 -203 -465 -13 -36 -53
-128 -87 -205 -35 -77 -102 -235 -149 -352 l-87 -212 -84 -63 c-367 -275 -817
-532 -1251 -716 -252 -106 -222 -101 -326 -63 -50 18 -104 41 -121 52 l-32 19
0 88 c0 49 7 135 14 193 8 57 18 138 21 179 4 41 20 147 36 235 29 154 51 257
174 830 31 143 67 316 80 385 13 69 31 152 40 185 8 33 27 125 41 205 14 80
32 172 39 205 8 33 19 93 26 133 12 79 24 88 27 20 2 -24 11 -113 22 -198 20
-160 26 -213 35 -315 18 -179 33 -256 53 -268 4 -3 17 8 27 25 16 28 17 46 11
184 -17 398 -18 480 -7 639 6 94 11 209 12 256 1 47 8 126 15 175 7 49 20 161
29 249 8 88 24 216 35 285 11 69 30 184 41 255 41 260 279 1143 410 1525 45
129 152 444 239 700 87 256 185 528 218 605 32 77 84 209 115 292 69 186 145
377 183 458 51 109 215 346 304 438 195 204 334 294 875 568 299 152 311 157
326 138 9 -10 60 -103 112 -206z m-7054 18 c24 -85 38 -221 24 -221 -5 0 -20
21 -33 48 -20 40 -24 65 -27 162 -4 128 3 130 36 11z m1288 -53 c-4 -28 -19
-109 -33 -185 -6 -30 -53 -84 -54 -61 0 9 5 29 10 44 6 15 11 43 12 63 0 20 7
48 14 63 8 15 14 34 14 42 0 25 19 66 31 66 7 0 9 -12 6 -32z m2456 -49 c11
-34 17 -86 17 -152 0 -81 4 -109 21 -144 45 -93 185 -185 366 -239 73 -22 109
-27 213 -28 69 0 144 2 168 7 l44 7 -134 -147 c-152 -167 -184 -201 -221 -226
-37 -25 -103 -125 -135 -205 -24 -60 -32 -69 -72 -88 -29 -14 -123 -97 -265
-234 -121 -117 -281 -266 -355 -330 -74 -64 -191 -171 -260 -237 -122 -118
-126 -121 -151 -107 -14 7 -52 15 -84 18 -32 2 -61 8 -65 13 -107 124 -591
724 -624 774 -54 80 -230 207 -382 275 -46 21 -84 41 -84 44 1 3 21 21 46 40
141 108 367 377 519 616 114 178 101 170 248 166 185 -5 306 27 436 113 92 60
99 61 179 26 126 -56 209 -64 313 -31 35 11 89 36 119 56 63 43 101 64 116 64
6 0 18 -23 27 -51z m1265 -311 c24 -24 13 -66 -30 -117 -163 -192 -171 -200
-205 -194 -17 3 -41 2 -52 -2 -17 -5 -163 -108 -238 -168 -70 -54 191 267 297
367 118 111 193 149 228 114z m-4798 -211 c18 -37 31 -53 48 -55 13 -2 32 -19
46 -40 49 -78 156 -153 156 -110 0 7 15 -2 33 -19 29 -28 68 -53 81 -53 2 0
10 15 16 34 6 19 17 40 25 46 14 12 18 4 27 -55 5 -29 32 -30 75 -1 21 14 47
26 59 26 26 0 123 100 153 157 l21 42 30 -15 30 -15 0 -102 c0 -105 14 -177
44 -235 10 -19 15 -40 12 -47 -9 -23 -106 -73 -177 -90 -141 -35 -483 -41
-611 -11 -78 18 -222 86 -258 122 -20 19 -23 28 -14 42 12 18 100 59 109 50 3
-3 -4 -26 -16 -52 -27 -54 -17 -73 16 -32 43 54 59 136 59 308 1 87 3 158 6
158 3 0 16 -24 30 -53z m4920 -9 c126 -22 270 -76 270 -100 0 -5 -9 -27 -20
-48 -35 -69 -180 -410 -215 -504 -18 -50 -75 -199 -128 -331 -96 -244 -160
-411 -240 -635 -25 -69 -48 -125 -53 -125 -4 0 -12 14 -17 30 -30 98 -84 231
-123 302 -24 44 -44 86 -44 91 0 6 42 42 94 81 108 81 170 147 223 234 20 34
80 107 133 162 108 113 127 153 109 220 -11 42 -60 101 -91 111 -14 4 -18 16
-18 54 0 39 -7 58 -36 100 -35 51 -42 67 -43 102 -1 10 -17 35 -36 57 -19 21
-35 44 -35 51 0 7 30 48 66 91 l66 79 41 -6 c23 -3 67 -10 97 -16z m-363 -191
c-3 -32 -14 -63 -33 -90 -28 -40 -47 -56 -166 -140 -29 -21 -68 -51 -87 -67
l-33 -29 23 -48 c21 -41 24 -63 24 -150 0 -57 2 -103 5 -103 3 0 11 14 17 31
11 29 14 31 50 25 24 -5 54 -1 80 8 41 14 43 14 54 -5 19 -37 73 -52 136 -39
53 11 126 60 111 75 -3 4 -38 -7 -76 -24 -100 -44 -142 -39 -142 15 0 39 196
174 252 174 32 0 78 -51 78 -87 0 -42 -30 -92 -81 -135 -27 -23 -82 -84 -121
-137 -40 -52 -99 -123 -131 -157 -66 -71 -216 -182 -225 -168 -4 6 -24 35 -44
64 -57 85 -282 363 -311 387 -15 11 -27 28 -27 37 0 9 21 67 46 131 62 155 89
183 280 297 84 50 186 118 225 150 59 49 74 56 86 46 11 -9 14 -26 10 -61z
m83 -56 c18 -34 11 -77 -18 -117 -34 -47 -153 -159 -196 -185 -41 -25 -88 -24
-112 2 -18 20 -18 21 21 55 22 19 77 59 123 90 84 57 122 97 141 147 12 32 26
35 41 8z m-3651 -111 c92 -172 121 -352 101 -625 -13 -184 -33 -310 -89 -555
-22 -96 -38 -177 -35 -179 12 -13 28 33 83 244 105 405 117 489 108 748 -6
177 -25 274 -72 367 l-26 51 33 -17 c173 -89 237 -178 268 -369 21 -131 10
-433 -26 -692 -5 -37 -3 -53 4 -53 22 0 40 57 67 210 35 201 44 435 22 565 -9
49 -15 91 -13 92 5 5 64 -166 80 -232 8 -33 21 -105 30 -160 8 -55 18 -118 22
-140 3 -22 7 -164 9 -315 3 -215 0 -313 -15 -450 -33 -317 -74 -560 -131 -775
-16 -60 -40 -150 -53 -200 -61 -229 -242 -689 -536 -1365 -130 -300 -351 -726
-261 -503 58 143 229 709 217 720 -17 18 -49 -48 -100 -207 -74 -230 -156
-433 -259 -638 -80 -161 -187 -345 -207 -357 -14 -8 -14 -6 -43 205 -21 153
-37 224 -91 407 -36 122 -66 230 -66 241 0 11 46 84 101 163 338 480 401 604
578 1142 70 211 80 265 45 236 -23 -19 -40 -55 -94 -202 -105 -287 -152 -389
-283 -622 -82 -145 -363 -575 -377 -575 -4 0 -14 28 -23 63 -8 34 -35 109 -60
167 -24 58 -50 128 -57 155 l-12 50 62 135 c34 74 75 169 92 210 64 160 227
612 234 646 8 43 17 47 143 69 150 25 231 79 231 151 0 51 -27 64 -138 64 -92
0 -93 0 -86 23 3 12 8 24 9 25 2 2 58 17 124 33 145 34 177 49 198 93 29 63 1
127 -63 145 l-29 8 36 17 c41 19 62 52 61 95 -2 62 -38 93 -125 106 -26 4 -47
9 -47 11 0 2 23 59 51 126 117 277 314 849 379 1096 22 85 7 318 -25 397 -8
19 -15 37 -15 41 0 18 41 -33 69 -86z m3733 -67 c20 -46 20 -48 2 -80 -10 -20
-40 -47 -71 -66 -30 -18 -91 -60 -136 -93 -89 -67 -116 -79 -152 -70 -30 8
-39 37 -25 81 9 29 22 40 73 64 67 32 174 116 222 173 42 50 62 48 87 -9z
m-4958 -9 c109 -99 221 -159 341 -185 71 -15 218 -17 410 -6 166 9 220 20 297
58 32 16 62 29 68 29 15 0 12 -106 -6 -201 -21 -110 -211 -678 -322 -964 l-90
-230 -44 -6 c-115 -16 -138 -18 -138 -11 0 4 34 25 76 47 91 47 124 83 124
131 0 44 -24 91 -50 99 -56 18 -156 4 -293 -41 -43 -14 -80 -24 -82 -22 -2 2
6 30 17 63 36 107 4 266 -58 281 -60 15 -87 -13 -143 -145 -13 -31 -265 -301
-281 -301 -15 0 -141 285 -170 386 -57 194 -170 482 -282 717 -34 70 -59 129
-57 130 25 21 577 216 613 217 10 0 41 -21 70 -46z m1848 -202 c136 -71 175
-102 282 -232 57 -69 139 -163 181 -210 43 -47 114 -130 159 -185 44 -55 148
-176 229 -268 82 -93 155 -184 163 -203 30 -71 14 -167 -50 -307 -43 -95 -32
-125 22 -63 75 86 128 249 118 364 l-6 72 29 -15 c61 -31 95 -105 86 -186 -11
-93 -17 -116 -42 -191 -15 -43 -23 -81 -19 -85 11 -11 43 35 66 97 37 100 44
176 25 292 l-7 46 163 164 c90 90 247 236 349 324 203 175 284 252 382 362
l65 74 93 -109 c117 -135 286 -361 338 -450 76 -130 200 -389 225 -470 27 -83
26 -108 -3 -163 -15 -27 -37 -47 -215 -191 -275 -221 -492 -373 -750 -524
-125 -74 -397 -201 -473 -221 -105 -27 -309 -11 -512 40 -179 46 -534 177
-544 201 -3 8 -19 108 -36 222 -17 114 -33 210 -35 213 -15 25 -26 181 -31
455 -5 280 -11 352 -28 334 -4 -4 -10 -78 -21 -236 -9 -122 -17 -176 -25 -166
-4 4 -33 78 -65 163 l-57 155 -9 195 c-13 310 -50 525 -118 674 -36 79 -31 81
71 28z m-1581 -804 c20 -38 15 -175 -9 -242 -31 -85 -41 -97 -121 -140 -70
-39 -99 -62 -89 -71 3 -3 70 26 149 64 250 119 411 159 460 115 27 -24 24 -70
-6 -100 -24 -24 -194 -111 -326 -167 -36 -15 -81 -41 -100 -57 l-34 -29 27 -1
c15 0 96 18 180 39 246 63 393 76 472 40 59 -27 36 -102 -40 -127 -21 -7 -93
-25 -159 -38 -311 -65 -405 -89 -405 -104 0 -19 105 -10 304 26 254 46 301 48
327 15 34 -42 7 -100 -59 -128 -18 -7 -130 -34 -250 -58 -119 -25 -227 -47
-239 -50 -13 -3 -23 -12 -23 -21 0 -8 -7 -17 -15 -20 -8 -4 -15 -13 -15 -21 0
-12 10 -13 58 -7 31 5 68 8 82 7 76 -2 279 -3 286 -1 5 1 24 -1 42 -5 22 -4
32 -12 32 -25 0 -60 -191 -127 -394 -138 -93 -6 -133 -14 -251 -51 -133 -43
-145 -45 -230 -40 -49 2 -107 11 -128 20 -44 19 -59 46 -33 61 10 6 78 50 151
98 127 82 134 89 145 129 21 76 9 112 -148 442 -66 141 -69 130 62 256 127
124 171 181 196 256 12 36 28 72 37 80 21 22 50 18 64 -7z m1693 -483 c85
-419 141 -758 170 -1025 9 -80 19 -163 21 -185 7 -54 34 -399 40 -510 3 -49 8
-124 11 -165 2 -41 9 -181 14 -310 5 -129 11 -260 14 -290 3 -30 8 -111 11
-180 3 -69 9 -150 15 -180 5 -30 14 -113 20 -185 6 -71 12 -152 15 -180 2 -27
7 -102 10 -165 3 -63 8 -126 10 -140 3 -14 11 -88 20 -165 8 -77 17 -156 20
-175 9 -81 15 -140 21 -225 3 -49 8 -93 10 -96 2 -3 6 -82 9 -175 4 -93 8
-182 11 -199 2 -16 7 -208 9 -425 5 -379 18 -902 31 -1231 l6 -157 -28 -6
c-57 -11 -263 -30 -499 -46 -123 -8 -630 -5 -720 4 -27 3 -114 11 -191 17 -78
6 -146 14 -151 18 -5 3 -15 78 -21 166 -7 88 -21 198 -31 245 -24 105 -91 301
-136 395 -41 86 -58 147 -56 202 2 74 -28 266 -60 378 -28 100 -31 126 -35
290 -11 460 -15 550 -34 690 -11 83 -25 227 -30 320 -10 196 -23 159 119 344
304 393 421 614 754 1426 103 250 171 428 236 610 19 52 156 516 196 660 7 28
18 79 24 115 5 36 21 117 35 181 27 122 51 290 61 424 9 126 16 168 25 159 5
-5 29 -108 54 -229z m2568 -542 c-103 -318 -159 -501 -171 -562 -7 -30 -29
-111 -51 -180 -21 -69 -49 -160 -61 -201 l-22 -75 -24 53 c-14 29 -36 101 -50
160 -65 279 -99 343 -222 427 -41 28 -75 53 -75 57 -1 4 64 50 144 101 181
116 365 250 495 360 55 46 102 83 104 81 2 -2 -28 -101 -67 -221z m-4012 -2
c0 -17 -26 -27 -55 -21 -20 5 -25 9 -15 13 49 18 70 21 70 8z m-901 -215 c6
-7 36 -101 67 -207 30 -106 75 -252 99 -324 24 -71 55 -173 69 -225 l26 -94
-30 32 c-55 61 -71 36 -28 -44 133 -250 179 -367 302 -775 56 -186 181 -777
200 -944 19 -168 27 -315 41 -685 25 -705 37 -821 121 -1148 35 -138 42 -196
23 -208 -16 -10 -8 -40 65 -242 74 -206 130 -403 145 -507 13 -87 22 -216 16
-225 -5 -8 -18 -6 -255 36 -207 36 -220 40 -220 68 0 12 -42 86 -92 163 -51
78 -106 163 -123 189 -16 26 -36 50 -44 52 -29 9 7 -91 71 -200 35 -60 30 -60
-110 -8 -75 28 -109 37 -116 29 -11 -11 21 -46 73 -79 23 -16 23 -17 7 -48
-19 -36 -11 -37 -153 7 l-88 27 3 145 c7 271 1 241 86 418 69 142 77 167 77
217 0 70 -8 90 -91 234 -165 282 -389 731 -479 956 -100 251 -158 435 -236
744 -70 276 -97 364 -182 581 -18 48 -31 94 -27 102 3 9 -27 83 -69 169 -42
84 -89 191 -106 238 -136 379 -234 663 -251 731 -20 78 -73 220 -127 342 -25
54 -25 58 -9 76 40 44 234 121 370 146 109 21 435 121 548 168 101 43 208 75
308 92 101 17 106 17 119 1z m777 -83 c-8 -16 -41 -98 -75 -183 -84 -214 -315
-639 -331 -609 -4 8 -15 46 -24 85 l-18 72 30 93 c39 122 54 218 56 353 l2
110 110 43 c97 39 172 58 242 62 21 1 22 0 8 -26z m2035 -154 c348 -135 602
-183 767 -144 66 16 303 108 432 168 l75 35 25 -22 c14 -12 55 -43 91 -69 119
-83 150 -134 156 -257 3 -53 16 -123 34 -186 16 -56 29 -111 29 -122 0 -12
-27 -51 -60 -88 -77 -87 -142 -243 -142 -341 0 -83 35 -157 105 -226 30 -28
66 -69 82 -90 l28 -38 -26 -117 c-15 -64 -34 -162 -42 -217 -18 -120 -55 -296
-134 -625 -78 -324 -194 -839 -233 -1029 l-13 -64 -295 6 c-284 6 -418 17
-651 53 -123 19 -114 9 -124 124 -3 36 -8 72 -10 80 -2 8 -11 87 -20 175 -8
88 -24 234 -35 325 -34 293 -64 621 -75 815 -3 55 -10 161 -15 235 -5 74 -12
187 -15 250 -3 63 -8 140 -10 170 -2 30 -7 123 -11 205 -3 83 -7 157 -9 165
-1 8 -6 56 -10 105 -4 50 -9 98 -10 107 -3 16 -7 54 -21 243 -14 196 -34 334
-60 423 -3 12 -2 22 4 22 5 0 92 -32 193 -71z m-2354 -711 c-23 -60 -47 -87
-47 -52 0 16 57 114 66 114 2 0 -7 -28 -19 -62z m4113 1 c-10 -33 -80 -428
-80 -449 0 -22 -30 -8 -79 38 -57 54 -60 65 -36 155 23 88 59 150 132 227 36
39 67 69 69 67 2 -2 -1 -19 -6 -38z m-5498 -901 l40 -57 -43 -105 c-24 -58
-47 -106 -51 -106 -5 0 -8 75 -8 166 0 119 3 165 11 162 6 -2 29 -29 51 -60z
m140 -409 c32 -112 101 -382 153 -599 103 -425 148 -583 196 -686 17 -36 29
-67 27 -69 -11 -9 -165 -86 -230 -114 -71 -31 -80 -32 -109 -21 -62 26 -87
142 -90 415 -1 83 -7 193 -14 245 -8 52 -12 97 -9 99 2 2 13 -8 25 -23 39 -50
51 -59 60 -44 5 7 0 25 -12 43 -73 108 -144 311 -159 453 -9 84 1 230 21 306
25 99 64 206 73 203 5 -2 36 -95 68 -208z m-181 -578 c4 -20 11 -70 15 -111 3
-41 8 -78 11 -83 2 -4 8 -123 13 -265 9 -276 19 -335 68 -425 14 -27 37 -57
51 -65 23 -15 23 -19 17 -101 -3 -48 -15 -144 -26 -215 -11 -71 -20 -158 -20
-193 0 -69 -38 -349 -50 -372 -8 -15 -34 119 -45 224 -3 33 -8 83 -10 110 -9
87 -14 232 -20 510 -3 149 -7 320 -10 380 -3 61 -7 207 -10 325 -3 118 -8 247
-10 285 -4 56 -3 66 6 51 7 -11 15 -35 20 -55z m7349 -600 c-23 -172 -39 -297
-45 -361 -6 -60 -10 -69 -53 -114 -79 -82 -263 -248 -269 -243 -3 3 33 92 80
199 47 106 121 276 165 378 44 102 90 208 103 235 22 48 23 49 27 21 2 -15 -2
-67 -8 -115z m-6735 -303 c77 -181 117 -252 313 -560 l132 -206 2 -79 c2 -70
-1 -84 -29 -138 -66 -129 -102 -309 -103 -522 0 -54 -4 -73 -13 -73 -32 0
-409 154 -614 251 l-83 38 5 43 c26 220 52 486 60 618 3 52 8 111 10 130 2 19
7 73 10 120 21 296 21 300 59 314 17 6 74 32 126 58 52 26 98 47 101 47 3 1
14 -18 24 -41z m3540 -33 c94 -8 302 -24 463 -34 162 -11 296 -21 298 -24 3
-2 -6 -53 -20 -113 -110 -484 -180 -1003 -159 -1180 10 -76 14 -89 44 -120
l32 -33 -13 -56 -13 -55 -66 -19 c-217 -64 -405 -110 -611 -150 l-145 -27 -6
29 c-8 35 -16 174 -29 492 -6 132 -12 265 -16 295 -3 30 -6 273 -7 539 l-2
483 40 -5 c22 -3 117 -13 210 -22z m-2671 -1657 c18 -26 21 -58 5 -58 -11 0
-102 21 -107 25 -1 1 2 14 7 29 9 21 17 26 45 26 25 0 39 -7 50 -22z"/>
<path d="M7171 11139 c-49 -10 -83 -39 -110 -93 l-24 -49 21 -91 c32 -131 42
-215 42 -349 0 -112 1 -119 25 -142 13 -14 32 -25 42 -25 33 0 297 41 366 57
136 30 202 139 149 244 -20 39 -374 424 -401 434 -36 16 -78 21 -110 14z m367
-518 c5 -14 -51 -32 -132 -42 -44 -5 -92 -14 -105 -20 -35 -15 -60 -2 -66 34
-3 18 -6 104 -7 192 l-3 161 155 -159 c85 -88 156 -162 158 -166z"/>
<path d="M6802 10760 c-75 -38 -168 -134 -177 -184 -18 -92 109 -236 207 -236
47 0 126 49 186 115 48 52 52 60 52 106 0 111 -90 229 -176 229 -17 0 -58 -14
-92 -30z m135 -75 c35 -25 47 -76 28 -121 -21 -52 -42 -73 -92 -96 -50 -22
-85 -16 -113 19 -42 54 -15 147 54 188 47 28 92 32 123 10z"/>
<path d="M5006 9483 c-54 -13 -112 -33 -127 -44 -29 -20 -55 -57 -46 -65 2 -2
32 10 67 28 58 30 72 33 174 36 61 2 115 7 119 11 13 13 -26 50 -58 54 -16 2
-75 -7 -129 -20z"/>
<path d="M5230 9400 c0 -6 7 -25 17 -43 20 -39 30 -19 13 24 -12 28 -30 40
-30 19z"/>
<path d="M5403 9398 c-7 -7 -16 -26 -22 -41 -15 -39 13 -37 29 2 14 36 10 60
-7 39z"/>
<path d="M5009 9379 c-56 -8 -109 -34 -109 -53 0 -8 22 -28 50 -46 42 -27 57
-31 92 -27 66 7 148 31 148 42 0 21 -68 77 -101 84 -19 4 -55 4 -80 0z m-37
-64 c6 -28 1 -30 -24 -11 -21 15 -23 32 -5 39 18 6 24 0 29 -28z m93 15 c-3
-5 -10 -10 -16 -10 -5 0 -9 5 -9 10 0 6 7 10 16 10 8 0 12 -4 9 -10z m85 -9
c8 -16 6 -21 -11 -26 -26 -9 -33 -2 -24 24 8 26 21 27 35 2z"/>
<path d="M5504 9350 c-26 -10 -76 -69 -71 -84 10 -31 210 -41 265 -12 17 9 32
23 32 32 0 22 -46 61 -81 68 -43 8 -120 6 -145 -4z m16 -56 c0 -20 -4 -25 -16
-20 -9 3 -23 6 -32 6 -14 1 -12 5 7 20 31 27 41 25 41 -6z m164 20 c23 -9 20
-41 -4 -47 -17 -4 -20 0 -20 24 0 31 1 32 24 23z m-86 -16 c-6 -18 -28 -21
-28 -4 0 9 7 16 16 16 9 0 14 -5 12 -12z"/>
<path d="M5210 9278 c0 -6 -7 -20 -17 -30 -22 -25 -8 -36 17 -13 21 19 27 55
10 55 -5 0 -10 -5 -10 -12z"/>
<path d="M5400 9265 c0 -26 30 -75 45 -75 8 0 15 5 15 10 0 6 -5 10 -11 10 -5
0 -17 16 -25 35 -15 38 -24 44 -24 20z"/>
<path d="M5260 9103 c0 -22 2 -25 10 -13 13 20 13 40 0 40 -5 0 -10 -12 -10
-27z"/>
<path d="M5190 8951 c0 -5 25 -19 56 -31 47 -20 60 -21 92 -11 20 6 44 15 52
20 25 17 1 25 -33 13 -43 -16 -76 -15 -107 3 -28 16 -60 19 -60 6z"/>
<path d="M5036 8808 c4 -7 7 -51 6 -98 -2 -112 19 -170 66 -184 30 -8 36 -6
67 24 33 32 36 33 112 31 75 -2 79 -3 110 -36 20 -22 37 -33 47 -29 23 9 20
23 -8 33 -28 11 -40 39 -25 58 18 21 2 28 -34 15 -51 -18 -136 -14 -186 8 -50
23 -63 19 -36 -10 17 -19 17 -21 -1 -42 -10 -13 -20 -25 -21 -27 -1 -2 -9 1
-16 7 -8 7 -16 9 -20 6 -3 -3 -12 7 -20 23 -18 34 -31 159 -18 168 5 3 30 -12
55 -34 59 -51 102 -65 208 -65 77 0 92 3 147 31 34 17 61 30 61 28 0 -1 -7
-20 -16 -41 -9 -22 -16 -53 -16 -71 1 -17 -5 -37 -13 -43 -19 -16 -19 -30 0
-30 8 0 18 17 25 43 6 23 17 63 25 89 8 26 15 60 15 75 0 16 5 34 12 41 13 13
9 15 -42 13 -19 -1 -51 3 -70 10 -51 16 -423 23 -414 7z m301 -37 c57 -4 106
-10 109 -14 3 -3 -2 -19 -12 -36 -16 -27 -23 -30 -78 -33 -79 -4 -172 7 -191
22 -11 9 -12 17 -4 32 8 15 7 23 -8 34 -16 13 -13 14 32 9 28 -3 96 -9 152
-14z"/>
<path d="M5215 8709 c19 -7 132 -13 124 -5 -2 2 -35 6 -74 8 -40 3 -61 2 -50
-3z"/>
</g>
</svg>
