<?xml version="1.0" standalone="no"?>
<!DOCTYPE svg PUBLIC "-//W3C//DTD SVG 20010904//EN"
 "http://www.w3.org/TR/2001/REC-SVG-20010904/DTD/svg10.dtd">
<svg version="1.0" xmlns="http://www.w3.org/2000/svg"
 width="1249.000000pt" height="1249.000000pt" viewBox="0 0 1249.000000 1249.000000"
 preserveAspectRatio="xMidYMid meet">
<metadata>
Created by potrace 1.16, written by Peter Selinger 2001-2019
</metadata>
<g transform="translate(0.000000,1249.000000) scale(0.100000,-0.100000)"
fill="#000000" stroke="none">
<path d="M0 6245 l0 -6245 6245 0 6245 0 0 6245 0 6245 -6245 0 -6245 0 0
-6245z m6585 6149 c1162 -60 2313 -468 3260 -1154 1653 -1199 2603 -3112 2551
-5135 -4 -143 -9 -285 -12 -315 -21 -234 -39 -380 -65 -540 -274 -1679 -1236
-3171 -2658 -4123 -861 -576 -1837 -919 -2881 -1013 -269 -24 -932 -24 -1080
0 -14 3 -61 7 -105 11 -459 38 -1112 197 -1603 391 -1967 776 -3416 2524
-3797 4584 -77 416 -103 701 -103 1145 0 328 6 446 34 693 l18 152 165 99 c91
55 211 134 266 176 55 42 136 99 180 125 44 26 129 78 189 115 125 77 228 126
325 155 85 25 99 25 208 -1 48 -11 152 -26 229 -34 129 -12 148 -17 213 -50
40 -20 105 -47 144 -62 40 -14 102 -41 140 -59 37 -19 87 -36 112 -39 30 -3
65 -18 107 -45 111 -72 377 -199 492 -235 61 -19 163 -44 226 -56 63 -11 153
-30 200 -40 99 -23 233 -26 335 -7 39 8 120 13 180 12 98 -1 119 -4 194 -32
45 -18 122 -39 170 -47 239 -42 657 -129 741 -155 52 -16 142 -41 199 -55 108
-27 155 -48 367 -164 134 -74 169 -103 180 -149 31 -125 194 -322 321 -386 81
-41 224 -41 368 -1 85 24 145 96 188 224 30 88 41 101 86 101 20 0 70 8 112
18 160 39 202 82 242 249 20 82 27 137 28 228 1 117 0 123 -36 214 -41 103
-74 163 -128 234 -56 74 -79 146 -78 252 1 50 -3 169 -9 265 -5 96 -12 240
-14 320 -5 164 -26 265 -101 483 -89 257 -110 290 -296 472 -72 72 -186 198
-252 280 -66 83 -179 209 -251 280 -188 186 -323 341 -358 410 -42 83 -109
185 -155 236 -65 72 -222 126 -332 113 l-57 -6 -38 46 c-48 59 -101 89 -201
116 -44 12 -116 33 -160 48 -78 25 -88 26 -330 27 l-250 0 -85 -31 c-47 -17
-164 -62 -260 -101 -185 -75 -378 -139 -598 -197 -72 -20 -149 -44 -170 -55
-21 -11 -67 -25 -103 -31 -81 -15 -476 -117 -634 -165 -66 -20 -170 -60 -230
-90 -152 -74 -266 -116 -432 -159 -78 -20 -160 -43 -182 -51 -52 -18 -51 -17
60 125 172 220 281 343 519 581 428 428 789 707 1290 996 845 489 1852 780
2800 809 113 4 207 8 209 11 5 3 211 -3 396 -13z m-2100 -1783 c139 -17 267
-64 314 -114 50 -55 166 -231 256 -392 43 -77 97 -165 120 -195 23 -30 59 -82
80 -115 54 -85 113 -153 165 -188 62 -43 95 -79 155 -172 128 -199 194 -369
300 -766 25 -93 56 -199 69 -233 31 -82 59 -220 51 -247 -6 -19 -101 -188
-111 -198 -2 -3 -10 1 -16 7 -20 20 -26 14 -53 -42 -14 -30 -37 -61 -50 -70
-29 -19 -30 -14 -10 44 18 50 20 84 4 75 -6 -4 -42 -72 -81 -151 -39 -79 -72
-143 -74 -142 -1 2 11 41 26 88 32 96 39 134 25 138 -6 2 -22 -30 -36 -71 -42
-119 -245 -484 -275 -494 -6 -2 17 52 52 120 70 137 164 365 164 397 0 41 -17
17 -58 -82 -23 -57 -69 -152 -102 -213 -33 -60 -82 -153 -109 -206 -51 -99
-88 -140 -219 -241 -45 -35 -66 -44 -130 -54 -104 -17 -228 -17 -288 0 -27 8
-78 20 -114 27 -78 14 -157 49 -190 84 -20 21 -21 27 -9 41 11 13 27 15 85 12
57 -4 84 -11 129 -37 41 -23 61 -29 68 -22 8 8 8 14 -1 23 -7 7 -12 22 -12 34
0 17 -8 24 -32 29 -61 12 -98 27 -92 36 3 5 18 16 33 24 27 14 31 13 72 -19
43 -34 102 -56 147 -56 37 0 25 27 -20 42 -52 18 -57 30 -20 56 48 35 78 37
106 9 20 -20 39 -26 95 -32 60 -6 71 -5 71 8 0 9 -16 21 -36 27 -37 13 -43 34
-12 53 12 8 24 5 51 -16 20 -15 40 -27 46 -27 22 0 10 33 -24 71 -19 22 -35
46 -35 54 0 8 34 43 76 77 42 34 83 76 91 93 8 16 24 40 35 52 20 21 20 32 16
213 l-5 192 26 -5 c14 -2 55 -12 90 -22 42 -11 67 -13 73 -7 16 16 2 29 -49
42 -62 15 -74 26 -66 59 12 53 33 81 58 81 28 0 30 7 10 34 -12 16 -12 22 0
47 29 56 5 68 -25 13 -15 -26 -22 -29 -66 -29 l-49 0 3 39 c4 53 19 79 40 71
9 -3 29 -9 45 -12 47 -9 34 25 -18 47 -32 14 -45 25 -45 40 0 11 -4 20 -10 20
-5 0 -10 -4 -10 -10 0 -15 -46 -12 -59 3 -8 10 -7 27 4 65 18 61 27 68 66 52
22 -9 33 -10 41 -2 8 8 1 16 -23 31 -56 33 -61 40 -54 80 19 112 11 133 -13
36 -13 -50 -34 -77 -55 -70 -7 2 -31 9 -55 15 -46 12 -47 13 -20 83 9 24 15
27 39 22 34 -8 39 9 9 27 -11 7 -20 22 -20 33 0 11 9 53 20 93 22 79 24 96 11
88 -4 -3 -20 -39 -36 -81 -15 -41 -31 -77 -35 -80 -14 -8 -108 25 -114 40 -8
23 14 115 28 115 7 0 21 -7 32 -15 10 -8 25 -15 32 -15 25 0 11 29 -30 65 -54
47 -108 74 -161 83 -39 6 -44 11 -69 62 -15 30 -28 60 -28 67 0 16 51 1 91
-28 21 -14 34 -18 41 -11 19 19 -12 52 -82 87 -53 27 -76 46 -101 82 -45 68
-70 93 -90 93 -28 0 -28 -22 2 -70 14 -25 43 -97 63 -160 21 -66 66 -170 105
-245 145 -274 163 -312 215 -449 103 -266 147 -460 150 -651 2 -149 -22 -253
-69 -298 -28 -27 -199 -127 -218 -127 -2 0 -7 9 -10 20 -9 34 -44 23 -142 -45
-93 -65 -135 -84 -100 -45 10 12 34 30 52 41 36 22 44 49 15 49 -21 0 -84 -43
-145 -97 -60 -53 -57 -29 3 32 45 45 51 55 36 61 -12 5 -38 -14 -95 -70 -54
-52 -86 -76 -103 -76 -13 0 -58 -17 -99 -37 -67 -35 -81 -38 -154 -38 -71 0
-89 4 -147 33 -82 40 -110 72 -106 121 3 31 7 36 31 39 19 2 29 -2 33 -15 15
-49 35 -83 49 -83 18 0 19 11 1 78 -12 46 -12 54 1 67 20 21 26 19 52 -16 27
-37 47 -27 31 15 -10 28 -2 56 27 84 19 20 7 32 -25 26 -23 -5 -30 -1 -40 21
-23 50 -14 90 34 147 12 15 24 32 26 39 3 8 18 8 61 -1 97 -20 100 7 5 45 -70
28 -81 47 -46 82 l27 26 53 -36 c57 -39 72 -44 84 -25 5 7 -15 31 -51 63 l-58
52 41 63 c41 61 52 90 32 90 -5 0 -26 15 -46 34 -34 32 -36 36 -25 67 22 64 6
83 -22 24 -9 -19 -21 -35 -27 -35 -24 0 -91 34 -87 44 2 6 12 36 22 66 10 30
23 62 30 70 7 8 16 35 20 60 4 25 12 53 17 63 5 10 7 23 5 30 -3 7 -8 4 -12
-8 -17 -48 -41 -85 -55 -85 -24 0 -118 58 -130 79 -16 30 -1 79 33 105 l30 24
-21 29 c-16 23 -29 30 -57 31 -19 1 -56 13 -81 28 -44 26 -46 29 -40 62 9 56
18 59 96 33 70 -22 90 -21 90 3 0 25 -244 106 -319 106 -20 0 -31 9 -46 38
-13 24 -27 37 -40 37 -17 0 -20 -6 -18 -41 2 -45 121 -364 202 -542 76 -166
122 -388 137 -656 8 -129 -5 -171 -54 -182 -15 -3 -67 -25 -117 -49 -114 -55
-187 -74 -317 -81 -127 -6 -130 -7 -126 -41 3 -28 4 -28 103 -38 l100 -10 -35
-22 c-46 -28 -119 -44 -200 -44 -72 1 -70 0 -255 65 -113 40 -135 52 -172 89
-79 83 -86 214 -9 163 22 -14 24 -19 15 -48 -13 -45 -12 -91 2 -82 6 3 19 26
29 50 16 37 24 44 48 44 15 0 37 -6 47 -14 17 -12 17 -18 7 -71 -7 -31 -9 -61
-6 -66 8 -13 24 -11 24 4 0 6 21 59 46 117 50 113 94 235 94 258 0 35 -27 -3
-66 -92 -23 -55 -48 -102 -55 -106 -17 -10 -89 18 -89 34 0 6 34 84 76 174 43
89 74 165 71 168 -16 16 -40 -12 -82 -96 -25 -49 -50 -90 -56 -90 -14 0 -48
41 -49 58 0 7 11 18 25 24 26 12 30 24 16 46 -10 17 49 162 86 210 16 21 22
37 16 43 -21 21 -48 -9 -94 -107 -26 -56 -53 -105 -59 -109 -15 -9 -47 20 -54
51 -7 28 5 57 42 96 14 16 22 33 19 42 -9 22 8 61 43 106 32 41 38 60 17 60
-15 0 -65 -51 -91 -94 l-18 -28 -26 25 c-24 24 -25 29 -14 64 6 22 27 57 47
80 36 43 44 63 23 63 -20 -1 -53 -31 -82 -74 -22 -32 -26 -35 -26 -17 0 33 25
74 65 110 20 18 29 31 21 31 -36 0 -69 -23 -98 -70 -30 -49 -49 -59 -78 -40
-12 8 -12 13 2 42 8 18 32 54 51 80 20 26 32 50 27 53 -16 10 -49 -5 -60 -26
-13 -24 -40 -25 -40 -1 0 9 27 53 60 96 57 76 72 106 51 106 -6 0 -43 -42 -84
-92 -42 -51 -89 -106 -107 -123 -40 -38 -60 -76 -60 -115 0 -38 25 -41 35 -2
7 29 32 62 48 62 5 0 7 -10 3 -23 -3 -13 -6 -64 -7 -114 -1 -81 -10 -126 -22
-113 -8 9 -69 146 -93 207 -13 34 -30 113 -38 178 -7 64 -18 121 -23 126 -28
28 -58 -63 -47 -148 4 -35 3 -53 -4 -53 -6 0 -41 27 -79 60 -66 58 -103 75
-103 46 0 -7 31 -41 70 -75 74 -66 90 -92 40 -66 -33 17 -66 20 -75 5 -3 -5
-24 -10 -45 -10 -47 0 -91 34 -121 92 -29 57 -54 49 -54 -17 l0 -50 -43 3
c-31 3 -42 0 -42 -11 0 -9 20 -18 58 -26 31 -7 65 -21 76 -30 17 -15 14 -16
-50 -21 l-69 -5 30 -16 c17 -9 57 -20 90 -24 61 -7 119 -34 128 -59 5 -12 -10
-14 -75 -13 -47 1 -82 -2 -84 -8 -2 -6 50 -20 118 -32 l121 -21 96 -97 96 -97
-51 7 c-61 8 -80 -8 -44 -35 52 -40 140 -48 140 -14 0 17 14 18 41 4 25 -14
24 -42 -2 -58 -38 -24 -187 -13 -281 19 -45 16 -86 29 -90 29 -16 0 -7 -27 17
-50 19 -18 22 -26 14 -37 -16 -18 -35 -16 -96 9 -43 17 -56 19 -66 9 -12 -13
-9 -17 40 -47 23 -15 8 -45 -32 -59 -29 -10 -36 -5 -76 55 l-16 24 -64 -24
c-35 -14 -71 -23 -79 -21 -8 1 -42 29 -75 61 -66 63 -149 110 -192 110 l-28
-1 21 -17 c12 -9 37 -25 55 -35 30 -17 31 -20 16 -29 -10 -5 -58 -15 -107 -21
l-90 -11 -48 47 c-70 69 -102 58 -42 -14 16 -20 26 -39 23 -43 -3 -3 -32 -6
-64 -6 -58 0 -59 0 -128 65 -38 37 -72 61 -76 56 -8 -13 10 -48 42 -82 13 -15
23 -35 21 -44 -2 -12 6 -21 27 -28 39 -13 145 -77 145 -88 0 -15 -18 -11 -137
33 -95 35 -112 44 -99 54 28 20 -2 31 -94 36 -64 4 -99 12 -141 32 -76 35
-119 44 -119 22 0 -9 4 -16 9 -16 16 0 143 -61 138 -66 -3 -3 -42 2 -86 11
-44 9 -100 15 -123 13 l-43 -4 30 -13 c17 -7 73 -22 125 -33 175 -38 167 -35
174 -69 6 -29 7 -30 49 -24 34 5 61 0 142 -30 55 -21 104 -41 109 -46 5 -4
-23 -23 -65 -42 -41 -19 -138 -72 -216 -118 -78 -46 -206 -120 -285 -163 -79
-44 -200 -112 -271 -152 -70 -39 -127 -67 -127 -60 0 6 14 79 30 161 138 681
388 1325 753 1938 63 106 72 117 98 117 19 0 29 5 29 15 0 19 6 19 69 -2 86
-27 79 11 -7 43 -26 10 -50 20 -54 23 -4 4 7 28 24 54 l30 47 222 1 c220 1
253 2 264 13 20 21 -30 27 -211 24 -108 -2 -193 0 -189 4 4 3 43 16 87 27 44
12 105 28 135 36 63 17 157 19 262 5 114 -15 188 -18 194 -9 8 14 -12 18 -130
28 -60 5 -113 14 -118 19 -12 12 86 39 172 47 36 3 101 10 145 15 44 6 150 12
235 14 85 3 156 5 157 5 1 1 0 8 -3 16 -5 12 -29 15 -125 15 -65 0 -119 4
-119 8 0 4 25 20 55 35 52 25 64 27 198 28 144 1 192 7 192 24 0 6 -36 15 -79
20 l-79 10 37 18 c32 15 77 18 309 23 279 5 317 8 317 23 0 13 -82 21 -221 21
-71 0 -129 4 -129 9 0 15 95 50 162 60 35 6 79 15 98 20 20 7 137 11 280 11
233 0 297 7 253 25 -10 4 -67 11 -128 14 -152 9 -110 25 95 37 357 19 373 15
524 -139 114 -116 254 -237 291 -251 17 -7 29 -6 36 1 17 17 -9 48 -107 133
-95 82 -143 128 -221 214 -74 81 -138 108 -270 114 -57 3 -103 8 -103 11 0 4
69 39 153 78 123 58 169 75 242 87 50 8 101 17 115 20 34 6 250 -2 335 -13z
m760 -273 c90 -58 103 -73 159 -188 26 -52 62 -114 79 -137 120 -157 169 -213
267 -304 134 -126 205 -206 360 -409 66 -85 139 -172 163 -192 25 -21 59 -63
77 -95 18 -32 52 -85 75 -118 59 -83 69 -106 100 -219 17 -64 25 -112 21 -134
-4 -27 -1 -38 16 -52 24 -19 22 -36 -15 -121 -14 -30 -14 -39 -3 -54 12 -17
14 -16 32 13 10 18 22 32 26 32 4 0 13 -18 19 -40 9 -31 9 -49 -1 -86 -13 -45
-12 -48 8 -62 32 -21 29 -90 -8 -172 -30 -67 -27 -90 8 -71 42 22 43 -23 3
-137 -28 -79 -26 -107 4 -82 8 6 19 9 25 5 20 -13 9 -73 -26 -140 -25 -47 -33
-70 -25 -78 7 -7 16 -6 29 6 10 9 22 17 25 17 14 0 7 -49 -14 -99 -20 -48 -21
-53 -5 -69 23 -27 21 -37 -30 -124 -42 -71 -45 -81 -31 -95 13 -14 17 -13 36
6 44 44 42 12 -4 -65 l-35 -58 22 -23 22 -24 -23 -45 c-34 -64 -50 -69 -107
-39 -33 18 -64 25 -103 26 -31 0 -76 4 -101 7 -41 6 -45 9 -45 36 0 41 -18 42
-38 4 -9 -18 -26 -45 -38 -59 -12 -15 -25 -46 -29 -70 -5 -24 -27 -75 -49
-114 -40 -70 -111 -260 -111 -296 0 -30 27 -76 72 -125 23 -25 39 -46 36 -49
-9 -9 -128 98 -157 142 -43 65 -54 126 -56 327 l-2 179 22 -26 c11 -15 26 -27
33 -27 20 0 14 32 -23 108 -25 53 -32 78 -26 94 l8 22 12 -21 c6 -12 11 -28
11 -36 0 -8 7 -17 15 -21 22 -8 19 29 -9 97 -23 56 -23 58 -5 68 17 8 19 21
18 92 0 45 3 126 8 179 8 87 12 101 43 145 33 45 35 55 42 153 5 58 8 118 8
133 1 19 17 48 50 88 28 33 50 64 50 70 0 17 -19 9 -55 -22 l-35 -31 0 31 c0
23 11 44 40 75 22 24 40 48 40 53 0 6 10 17 21 25 12 8 20 21 17 29 -3 10 -18
0 -48 -34 -24 -26 -45 -46 -47 -44 -2 2 4 21 13 43 11 27 15 58 12 104 l-5 65
54 69 c29 37 53 72 53 77 0 25 -43 4 -76 -37 -35 -42 -39 -44 -51 -28 -7 10
-13 24 -13 31 0 13 47 60 110 111 17 14 22 24 15 31 -7 7 -30 -3 -73 -31 -36
-24 -66 -37 -71 -32 -15 17 -41 95 -35 105 3 5 46 39 95 75 49 36 89 70 89 75
0 22 -40 5 -113 -46 -42 -30 -82 -55 -87 -55 -6 0 -10 9 -10 19 0 13 22 33 65
60 101 64 82 99 -22 41 -30 -17 -58 -28 -63 -25 -5 3 -19 38 -31 78 -12 40
-29 92 -39 117 -9 25 -23 68 -29 95 -21 86 -176 375 -272 505 -27 38 -69 80
-98 98 -67 44 -130 117 -188 221 -26 47 -60 99 -74 116 -33 39 -77 109 -169
269 -87 153 -87 154 41 145 78 -5 89 -8 154 -51z m-392 -1191 c28 -22 28 -22
12 -59 -8 -21 -17 -38 -20 -38 -6 0 -65 102 -65 113 0 15 46 6 73 -16z m-1166
-107 c17 0 16 -9 -2 -54 -8 -20 -21 -36 -29 -36 -18 0 -42 29 -61 73 -25 61
-21 67 32 41 25 -13 52 -24 60 -24z m1281 -142 c9 -12 -1 -58 -12 -58 -6 0
-36 55 -36 65 0 10 38 5 48 -7z m-1191 -54 l55 -26 -7 -45 c-8 -52 -14 -73
-24 -73 -3 1 -26 11 -51 23 -43 21 -45 24 -48 71 -3 48 2 76 13 76 4 0 31 -12
62 -26z m1305 -145 c16 -9 19 -17 14 -42 -3 -17 -13 -42 -22 -55 -19 -29 -28
-20 -45 41 -5 21 -13 45 -16 53 -6 17 38 20 69 3z m-1292 -75 c0 -9 -5 -14
-12 -12 -18 6 -21 28 -4 28 9 0 16 -7 16 -16z m125 -36 c36 -18 65 -36 65 -40
0 -19 -50 -118 -60 -118 -17 0 -85 37 -99 54 -9 10 -11 28 -6 52 7 42 22 84
30 84 2 0 34 -14 70 -32z m-1730 7 c72 -9 102 -23 124 -59 27 -43 42 -84 32
-90 -12 -8 -104 39 -125 63 -11 12 -38 30 -60 40 -23 10 -50 28 -61 41 l-20
22 30 -5 c17 -4 53 -9 80 -12z m410 -115 c0 -7 -6 -15 -12 -17 -8 -3 -13 4
-13 17 0 13 5 20 13 18 6 -3 12 -11 12 -18z m2546 10 c10 -6 19 -16 19 -23 0
-25 -21 -87 -30 -87 -8 0 -40 89 -40 112 0 11 28 10 51 -2z m-2501 -80 c0 -11
-8 -37 -17 -58 -9 -20 -20 -53 -23 -72 -7 -49 -25 -34 -24 21 2 69 64 175 64
109z m1238 -22 c16 -16 15 -53 -2 -67 -12 -10 -16 -6 -25 25 -14 50 -1 70 27
42z m-1488 -34 c7 -19 10 -38 7 -40 -8 -8 -77 57 -71 67 3 5 16 9 29 9 18 0
26 -8 35 -36z m318 -7 c21 -23 22 -25 7 -60 -29 -69 -76 -31 -54 43 7 22 15
40 19 40 4 0 16 -11 28 -23z m1287 -14 c41 -20 43 -31 13 -84 -23 -42 -49 -49
-80 -25 -22 16 -23 45 -4 91 17 40 22 41 71 18z m1235 -33 c13 -8 11 -16 -12
-57 -31 -55 -48 -60 -60 -18 -12 42 -2 73 25 78 12 2 24 5 27 5 3 1 12 -3 20
-8z m-1115 -23 c17 -13 17 -16 -14 -60 -37 -54 -42 -58 -61 -47 -11 7 -11 16
5 52 31 72 38 77 70 55z m-1449 -93 c4 -17 1 -31 -10 -42 -14 -15 -17 -15 -32
-1 -10 11 -13 24 -8 42 8 36 41 36 50 1z m1271 -30 c8 -21 -15 -70 -27 -58 -5
5 -13 24 -16 42 -6 28 -4 32 15 32 12 0 24 -7 28 -16z m-1177 -76 c0 -14 -37
-9 -50 7 -7 8 -9 22 -6 31 6 15 9 14 31 -6 14 -13 25 -27 25 -32z m1256 38 c6
-15 -43 -86 -58 -86 -14 0 -8 35 12 68 21 34 37 41 46 18z m-2406 -62 c52 -52
50 -56 -43 -88 l-55 -19 -65 36 c-97 55 -100 63 -30 82 32 9 69 20 83 25 48
16 66 10 110 -36z m1020 20 c0 -8 -4 -12 -10 -9 -5 3 -10 13 -10 21 0 8 5 12
10 9 6 -3 10 -13 10 -21z m-461 -3 c12 -8 12 -12 2 -25 -14 -16 -42 -21 -54
-9 -7 6 21 43 32 43 3 0 12 -4 20 -9z m-817 -78 c46 -31 84 -58 86 -59 2 -1
-2 -12 -8 -24 -9 -18 -17 -20 -43 -14 -42 9 -104 40 -114 58 -4 8 -25 28 -47
45 -39 31 -38 36 14 44 14 2 26 5 27 6 1 0 39 -25 85 -56z m968 47 c0 -15 -46
-34 -65 -26 -14 5 -15 9 -5 21 14 17 70 21 70 5z m406 -21 c10 -17 -38 -109
-58 -109 -9 0 -19 4 -22 8 -5 9 17 102 28 121 8 12 40 0 52 -20z m-254 -1 c-7
-7 -12 -8 -12 -2 0 14 12 26 19 19 2 -3 -1 -11 -7 -17z m-608 -30 c36 -51 2
-77 -62 -48 -49 22 -52 34 -14 54 38 21 58 19 76 -6z m206 -12 c0 -16 -27 -29
-41 -20 -13 8 9 34 27 34 8 0 14 -6 14 -14z m440 -19 c0 -16 -40 -61 -47 -53
-5 5 34 66 43 66 2 0 4 -6 4 -13z m300 -12 l24 -25 -22 -45 c-23 -49 -35 -54
-70 -29 -27 19 -27 20 -2 78 24 52 37 56 70 21z m-1091 -31 c40 -20 51 -30 51
-50 0 -22 -4 -24 -44 -24 -53 0 -93 14 -123 42 -25 23 -22 35 11 48 34 14 51
11 105 -16z m701 23 c0 -2 -10 -12 -22 -23 l-23 -19 19 23 c18 21 26 27 26 19z
m138 -93 c6 -18 6 -37 1 -45 -14 -23 -10 -35 15 -47 33 -15 38 -46 14 -78 -17
-21 -19 -27 -7 -35 8 -5 17 -9 21 -9 4 0 35 -25 70 -56 68 -60 133 -97 188
-109 19 -4 73 -23 120 -42 l85 -35 180 4 c99 3 232 13 296 23 115 18 117 18
150 -1 44 -26 36 -40 -22 -36 -97 7 -289 -33 -289 -59 0 -12 34 -11 90 2 96
22 149 27 215 19 44 -5 76 -5 88 1 13 8 28 5 54 -8 20 -11 38 -24 40 -30 2 -6
-38 -20 -89 -33 -126 -30 -373 -40 -444 -17 -27 9 -89 23 -139 32 -213 39
-404 104 -516 177 -35 22 -80 46 -101 54 -20 7 -68 31 -105 54 -37 22 -113 55
-168 72 -151 47 -295 123 -280 148 8 12 195 72 209 67 6 -2 -6 -14 -26 -27
-79 -47 -24 -56 59 -10 29 17 55 30 58 30 12 0 3 -21 -21 -50 -19 -23 -24 -34
-16 -42 8 -8 21 -4 46 15 43 33 48 33 40 2 -10 -42 11 -29 82 50 73 81 81 83
102 19z m-1014 40 c24 -9 19 -24 -8 -24 -26 0 -40 12 -29 24 8 8 17 8 37 0z
m906 -7 c0 -2 -12 -14 -27 -28 l-26 -24 19 27 c16 23 34 36 34 25z m3310 -66
c0 -12 -61 -63 -67 -57 -10 10 9 44 30 54 28 14 37 14 37 3z m-1830 -128 c0
-18 -29 -28 -42 -15 -8 8 -8 19 1 39 12 27 13 27 27 8 8 -10 14 -25 14 -32z
m1770 13 c0 -14 -58 -76 -71 -76 -16 0 5 42 33 65 34 29 38 30 38 11z m290 -9
c0 -25 -26 -67 -41 -67 -14 0 -11 38 7 65 20 31 34 32 34 2z m-132 -49 c-2 -6
-10 -14 -16 -16 -7 -2 -10 2 -6 12 7 18 28 22 22 4z m-2018 -6 c0 -13 -12 -22
-22 -16 -10 6 -1 24 13 24 5 0 9 -4 9 -8z m1920 -83 c0 -5 -7 -9 -15 -9 -15 0
-20 12 -9 23 8 8 24 -1 24 -14z m150 14 c0 -14 -19 -38 -25 -32 -8 8 5 39 16
39 5 0 9 -3 9 -7z m-2163 -34 c6 -6 9 -18 6 -25 -7 -18 -43 0 -43 21 0 18 21
20 37 4z m-127 -43 c0 -14 -42 -26 -93 -26 -39 0 -28 11 31 31 50 17 62 16 62
-5z m1280 7 c0 -21 -42 -73 -58 -73 -33 0 -33 13 0 47 30 31 58 43 58 26z
m874 -21 c3 -5 -17 -73 -45 -152 -27 -78 -49 -156 -49 -172 0 -50 23 -27 47
48 13 38 35 98 50 133 26 61 27 63 35 35 4 -15 5 -42 3 -58 -23 -156 -37 -294
-42 -416 -3 -80 -9 -149 -13 -153 -4 -5 -43 9 -86 31 -44 22 -96 45 -116 51
-21 7 -67 32 -102 56 -59 41 -125 76 -169 89 -27 9 -31 33 -12 76 21 47 52 61
73 34 14 -19 14 -19 25 0 20 34 55 66 72 66 13 0 15 -6 10 -31 -11 -49 25 -34
55 24 30 57 45 61 34 10 -25 -126 4 -117 60 19 33 78 57 121 78 140 29 25 30
30 19 51 -10 20 -10 30 4 63 20 50 55 78 69 56z m-124 -67 c0 -17 -31 -75 -39
-75 -14 0 -14 4 3 45 8 19 20 35 25 35 6 0 11 -2 11 -5z m-80 -29 c0 -42 -60
-100 -82 -78 -11 11 15 67 34 75 15 6 48 9 48 3z m1239 -63 c23 -27 58 -79 78
-118 38 -70 38 -70 41 -210 4 -153 -13 -270 -46 -315 -30 -41 -85 -62 -178
-68 l-84 -5 0 28 c0 16 18 107 41 204 46 201 56 266 58 404 1 54 5 104 8 112
10 28 41 15 82 -32z m-2464 2 c0 -27 -41 -46 -71 -33 -30 14 -30 23 -1 43 30
21 72 16 72 -10z m-91 -81 c49 -39 72 -74 49 -74 -20 0 -266 79 -275 88 -22
22 5 32 87 32 l83 0 56 -46z m1244 -12 c4 -13 -45 -28 -56 -17 -8 8 28 37 42
32 5 -2 11 -8 14 -15z m-104 -11 c10 -15 -4 -38 -30 -50 -20 -9 -26 -8 -30 3
-13 34 42 77 60 47z m-140 -111 c-47 -121 -40 -112 -81 -104 -48 9 -75 22 -68
35 9 14 167 140 171 136 2 -1 -8 -32 -22 -67z m1210 -234 c54 -22 73 -57 82
-144 9 -102 -6 -190 -50 -298 -56 -135 -67 -154 -100 -171 -96 -49 -346 64
-346 156 0 65 135 375 181 418 49 44 171 65 233 39z"/>
<path d="M9894 7355 c-11 -29 19 -87 80 -153 121 -132 167 -219 192 -365 24
-140 16 -208 -36 -304 -24 -43 -53 -92 -66 -109 -48 -62 -66 -122 -71 -228 -5
-115 6 -149 49 -154 22 -3 31 4 51 40 14 24 32 64 42 90 11 30 49 83 101 143
147 168 217 308 217 441 1 117 -26 167 -171 313 -62 63 -127 134 -143 157 -32
48 -56 64 -90 64 -12 0 -41 18 -65 40 -45 41 -80 51 -90 25z m431 -515 c10
-20 15 -59 15 -127 0 -85 -3 -104 -26 -148 -30 -58 -71 -112 -79 -103 -3 3 7
27 24 52 43 69 55 131 48 253 -4 56 -5 103 -2 103 2 0 11 -13 20 -30z"/>
<path d="M10652 6816 c-18 -24 -54 -98 -80 -164 -67 -167 -100 -217 -242 -366
-256 -268 -280 -308 -283 -468 -2 -81 2 -114 17 -153 42 -109 121 -188 221
-219 63 -20 264 -38 327 -30 55 7 83 32 75 66 -4 16 -26 32 -74 55 -89 41
-128 81 -175 178 -70 146 -84 292 -39 398 11 26 53 100 92 165 86 139 137 246
190 394 43 121 51 188 21 188 -10 0 -33 -20 -50 -44z m-418 -861 c19 -170 36
-232 87 -323 17 -30 28 -56 25 -59 -12 -12 -49 13 -91 62 -26 30 -56 55 -68
57 -26 4 -36 41 -39 143 -1 50 4 80 16 105 17 33 57 83 62 77 1 -1 5 -29 8
-62z"/>
<path d="M9893 6138 c-5 -7 -17 -44 -27 -83 -9 -38 -34 -107 -55 -151 -21 -45
-42 -97 -46 -115 -4 -19 -23 -70 -43 -114 -30 -66 -37 -93 -38 -155 -4 -147
27 -288 71 -330 14 -13 44 -52 67 -87 44 -68 102 -114 213 -171 80 -40 411
-159 494 -178 77 -17 176 -51 209 -72 36 -23 70 -91 82 -164 16 -88 -6 -195
-53 -264 -54 -79 -263 -185 -366 -185 -46 0 -217 53 -292 92 -63 32 -293 185
-315 210 -32 35 -131 227 -144 279 -29 111 -74 160 -265 292 -115 80 -427 247
-518 279 -43 15 -81 30 -85 33 -3 4 -7 26 -9 49 -6 81 -70 235 -115 277 -62
59 -161 93 -468 165 -170 39 -302 47 -845 50 -280 1 -591 3 -691 4 l-181 1
-31 30 c-18 17 -40 30 -50 30 -20 0 -52 -29 -52 -48 0 -6 -3 -13 -8 -16 -4 -2
-92 -18 -196 -35 -131 -22 -226 -44 -310 -72 -145 -49 -170 -62 -261 -128 -38
-28 -88 -58 -110 -66 -22 -8 -85 -31 -140 -51 -55 -20 -136 -55 -180 -79 -44
-24 -120 -59 -170 -80 -120 -49 -226 -106 -367 -197 -96 -63 -123 -86 -156
-135 -84 -124 -142 -247 -162 -338 -4 -22 -18 -76 -29 -120 -43 -157 -22 -422
53 -695 65 -237 159 -471 220 -550 57 -73 156 -224 156 -238 0 -16 -60 -116
-72 -121 -6 -2 -29 -21 -52 -41 -22 -21 -72 -67 -110 -102 -37 -35 -77 -80
-87 -100 -10 -21 -26 -84 -35 -140 -9 -57 -21 -109 -26 -116 -6 -6 -27 -12
-47 -12 -48 0 -128 -20 -296 -73 -77 -24 -221 -63 -320 -87 -99 -23 -238 -59
-310 -80 -164 -48 -165 -48 -266 -56 -141 -11 -164 -17 -167 -42 -3 -22 10
-27 68 -25 61 2 302 46 363 67 42 14 109 33 149 42 143 32 445 115 559 154 63
22 127 40 142 40 14 0 29 4 32 10 7 12 45 14 45 2 0 -4 -38 -45 -84 -91 l-83
-83 -37 10 c-82 23 -160 -33 -176 -126 -5 -32 -9 -37 -30 -35 -14 1 -59 5
-100 8 -41 3 -106 11 -145 17 -93 15 -127 15 -132 2 -6 -19 79 -45 182 -55 55
-5 104 -14 109 -19 8 -8 0 -12 -71 -25 -16 -3 -80 -21 -143 -39 -198 -59 -302
-85 -380 -96 -41 -6 -102 -15 -135 -21 -75 -11 -353 -90 -418 -118 -49 -21
-67 -45 -49 -63 7 -7 39 -1 104 20 174 58 353 103 423 109 75 6 391 85 515
129 56 19 254 64 286 64 2 0 8 -18 15 -39 8 -26 9 -58 3 -97 -9 -67 -9 -71 0
-100 6 -20 3 -20 -86 -16 -51 2 -173 17 -271 33 -97 17 -198 31 -222 32 -42 1
-77 -15 -63 -29 7 -6 228 -46 408 -73 63 -9 109 -20 103 -24 -7 -4 -49 -12
-95 -18 -46 -5 -119 -18 -163 -29 -44 -10 -96 -22 -115 -26 -19 -4 -69 -21
-110 -40 -41 -18 -147 -51 -235 -74 -266 -70 -315 -90 -315 -126 0 -28 24 -42
44 -25 21 17 117 48 289 92 88 23 188 54 223 69 91 41 186 66 386 100 98 16
194 36 214 45 20 8 44 15 53 15 22 0 191 -65 261 -100 32 -16 78 -34 104 -41
45 -11 59 -26 34 -33 -7 -2 -49 -16 -94 -30 -98 -31 -146 -33 -208 -6 -56 25
-192 53 -218 44 -45 -14 -2 -34 123 -59 15 -2 37 -13 50 -24 l24 -20 -38 -16
c-60 -25 -216 -63 -287 -70 -125 -12 -283 -45 -413 -86 -159 -50 -187 -63
-187 -89 0 -31 35 -26 198 29 143 48 197 59 372 81 113 15 266 51 368 89 46
17 98 31 115 31 37 0 142 -19 294 -54 60 -14 129 -26 155 -27 101 -5 77 -23
-77 -59 -125 -29 -192 -51 -410 -140 -207 -85 -289 -113 -387 -130 -71 -13
-88 -23 -88 -53 0 -18 5 -19 63 -15 83 7 287 75 478 159 108 48 207 82 325
114 93 25 223 61 289 81 76 22 131 33 150 30 17 -3 73 -14 125 -26 124 -26
304 -37 353 -21 51 17 77 53 77 109 l0 44 58 -7 c89 -12 95 -12 134 -2 29 7
47 5 82 -9 l44 -19 -56 -21 c-31 -12 -93 -38 -137 -57 -91 -41 -314 -107 -360
-107 -16 0 -60 -8 -96 -19 -36 -10 -90 -22 -120 -25 -105 -13 -196 -40 -389
-114 -266 -103 -288 -117 -228 -151 22 -13 28 -12 54 7 16 11 108 52 204 91
169 68 367 121 640 170 109 20 210 51 305 94 89 41 91 41 232 45 119 3 151 1
195 -15 122 -42 340 -8 354 55 13 59 13 59 52 59 21 0 56 10 79 22 23 11 88
34 145 50 57 16 123 36 148 44 87 29 186 47 300 53 94 6 126 11 175 34 33 14
66 34 74 43 21 26 43 20 90 -25 l44 -43 -54 -6 c-83 -9 -261 -57 -377 -101
-126 -47 -333 -106 -499 -142 -67 -15 -175 -45 -240 -67 -65 -22 -190 -58
-278 -80 -311 -78 -368 -101 -334 -135 13 -13 23 -12 80 6 35 12 145 41 244
66 99 25 225 61 280 80 55 20 183 55 285 79 102 24 298 80 435 125 306 100
381 120 457 120 44 0 66 -5 88 -21 26 -19 36 -21 102 -15 102 10 164 41 257
130 92 87 110 92 192 50 47 -25 54 -26 103 -15 l52 11 -4 70 -4 70 43 20 c56
25 90 25 123 -1 29 -23 34 -60 11 -79 -18 -15 -20 -71 -3 -88 24 -24 58 -14
79 23 20 33 23 35 78 35 44 0 73 8 131 36 41 19 89 46 107 60 40 30 51 30 65
0 16 -37 40 -41 63 -12 19 24 21 24 50 9 36 -19 46 -32 42 -58 -1 -15 5 -21
25 -23 22 -3 30 2 37 21 5 14 15 27 22 29 23 8 140 -20 159 -37 26 -24 50 -12
50 24 0 35 10 43 70 52 53 8 154 -19 174 -47 27 -36 136 14 136 63 0 10 -19
65 -43 123 -39 96 -45 105 -72 110 -50 10 -128 50 -167 88 -35 34 -38 35 -56
19 -28 -26 -39 -21 -93 37 -63 69 -116 91 -195 82 -76 -9 -85 0 -77 78 5 54 2
71 -27 139 -18 43 -29 81 -25 85 7 7 39 7 520 4 411 -3 522 8 715 73 104 35
393 182 501 255 31 21 80 50 110 65 29 15 62 38 72 52 10 13 41 36 68 52 131
74 411 294 462 363 14 18 37 58 52 88 15 30 52 88 81 129 38 51 54 83 54 105
0 60 21 109 69 160 81 86 221 312 242 389 10 40 13 471 3 549 -8 63 -31 129
-63 179 -15 25 -47 80 -70 124 -60 111 -92 154 -157 214 -70 64 -120 90 -254
129 -261 77 -428 80 -705 11 -96 -25 -142 -31 -230 -31 -154 -1 -205 12 -323
82 -88 52 -104 66 -130 112 -17 29 -39 85 -50 123 -35 118 -36 169 -7 372 7
51 -9 83 -44 83 -15 0 -33 -6 -38 -12z m-2033 -508 c102 -17 226 -35 275 -39
50 -5 110 -14 135 -21 86 -23 260 -123 260 -148 0 -4 -15 -7 -32 -8 -300 -8
-297 -7 -331 -50 -11 -15 -36 -33 -56 -41 -20 -9 -53 -31 -74 -49 -24 -22 -47
-34 -66 -34 -23 0 -33 -7 -43 -27 -9 -19 -22 -29 -42 -31 -57 -7 -50 13 48
129 52 63 96 120 96 127 0 26 -49 12 -82 -25 -144 -159 -193 -201 -225 -189
-12 5 -5 17 36 61 48 51 66 95 38 95 -7 0 -42 -30 -77 -66 -91 -92 -98 -95
-222 -88 -57 3 -260 1 -453 -4 l-350 -10 -55 33 c-66 39 -127 58 -137 43 -6
-11 3 -20 63 -62 23 -16 24 -20 11 -28 -27 -15 -81 -12 -119 6 -50 24 -64 42
-49 60 17 20 17 76 0 87 -23 14 -76 10 -93 -7 -26 -25 -19 -54 24 -100 34 -37
39 -47 30 -64 -6 -11 -15 -20 -20 -20 -22 0 -158 55 -190 76 -32 22 -60 31
-60 19 0 -3 7 -17 16 -31 9 -13 14 -27 11 -31 -4 -3 -48 -7 -99 -9 -51 -2
-131 -6 -178 -9 -94 -6 -130 7 -130 47 0 16 5 19 23 15 168 -39 211 -44 290
-31 66 11 35 29 -64 37 -53 4 -138 18 -190 30 l-94 22 -3 34 c-5 49 14 86 72
137 109 99 204 135 424 162 79 10 144 16 146 14 2 -2 -2 -15 -10 -30 -8 -15
-14 -32 -14 -38 0 -20 30 -38 73 -43 37 -5 42 -10 47 -35 6 -36 29 -51 63 -42
18 4 27 13 27 27 0 28 -18 59 -35 59 -24 0 -45 30 -45 64 0 37 12 51 50 59 14
3 288 4 610 2 l585 -3 185 -32z m2024 -52 c34 -92 130 -174 331 -284 l90 -49
105 2 c84 1 134 8 250 36 255 63 385 73 521 38 41 -10 99 -21 129 -25 72 -9
138 -42 230 -116 94 -76 105 -90 184 -241 92 -176 98 -202 102 -459 6 -306 -3
-335 -145 -488 -109 -117 -231 -210 -231 -176 0 12 24 50 46 74 13 14 37 53
53 87 17 34 39 67 50 75 20 14 65 151 53 162 -12 12 -22 5 -38 -26 -28 -54
-115 -138 -189 -181 l-70 -42 -145 -5 c-117 -4 -157 -2 -209 12 -35 10 -66 19
-68 21 -2 3 33 35 78 72 109 90 135 146 91 198 -24 28 -40 20 -73 -33 -17 -28
-36 -49 -43 -47 -8 3 -11 56 -11 173 l0 169 -33 68 c-46 92 -125 176 -211 221
-38 20 -132 54 -210 76 -191 55 -252 79 -420 163 -195 98 -239 143 -275 283
-26 105 -25 223 4 299 10 27 11 27 24 9 7 -10 20 -40 30 -66z m-4218 -79 c3
-6 -10 -27 -29 -47 -45 -47 -57 -79 -57 -150 1 -73 14 -101 77 -165 47 -48 63
-56 195 -105 78 -29 168 -57 198 -62 30 -5 75 -16 99 -25 25 -9 135 -30 245
-47 157 -25 234 -31 351 -32 215 0 587 13 675 24 41 5 109 12 150 15 41 4 145
21 230 40 85 19 195 41 243 50 93 17 192 47 242 72 17 9 81 52 144 96 125 89
135 103 171 242 22 87 42 93 78 23 50 -97 40 -187 -33 -294 -25 -36 -45 -69
-45 -73 0 -14 -215 -170 -261 -190 -39 -17 -125 -39 -399 -102 -47 -11 -126
-24 -175 -28 -50 -5 -118 -16 -150 -24 -127 -33 -422 -46 -878 -39 l-138 2
-35 36 -36 36 -29 -28 c-25 -24 -33 -26 -71 -20 -25 4 -54 17 -69 32 -23 22
-29 24 -53 13 -33 -15 -173 6 -374 57 -177 44 -201 52 -237 78 -16 12 -51 34
-76 49 -61 34 -105 86 -142 165 -29 63 -29 64 -17 140 7 42 20 96 29 119 23
60 85 131 124 142 44 13 45 13 53 0z m2840 -154 c-19 -28 -63 -34 -73 -9 -8
21 8 35 49 43 39 9 46 -1 24 -34z m-128 8 c-2 -14 -19 -20 -70 -27 -37 -4 -75
-5 -84 -2 -15 6 -15 8 1 26 15 16 31 20 87 20 61 0 69 -2 66 -17z m-2008 -43
c0 -5 -4 -10 -10 -10 -5 0 -10 5 -10 10 0 6 5 10 10 10 6 0 10 -4 10 -10z
m2078 -28 c21 -14 -21 -43 -69 -49 l-43 -6 35 31 c35 32 54 38 77 24z m-180
-11 c19 -11 -29 -49 -72 -56 -47 -7 -109 -1 -113 11 -3 9 37 31 87 48 25 8 84
6 98 -3z m-2920 -38 c3 -21 -1 -23 -42 -23 -51 0 -68 16 -40 37 29 21 78 13
82 -14z m-163 -23 c-3 -5 -14 -10 -23 -10 -15 0 -15 2 -2 10 20 13 33 13 25 0z
m169 -66 c21 -30 13 -42 -29 -44 -47 -3 -52 -1 -58 21 -8 30 1 47 26 51 30 5
39 1 61 -28z m2706 19 c0 -9 -70 -33 -96 -33 -22 0 -25 2 -14 15 20 25 110 40
110 18z m250 3 c0 -14 -35 -36 -56 -36 -26 0 -31 9 -12 28 11 11 68 18 68 8z
m-3100 -20 c21 -27 8 -60 -27 -67 -36 -7 -53 5 -53 36 0 35 58 57 80 31z
m1048 -2 c12 -8 22 -21 22 -28 0 -15 -116 -10 -170 7 l-35 11 65 11 c91 17 93
17 118 -1z m-226 -21 c10 -9 18 -20 18 -25 0 -14 -85 -9 -106 6 -18 14 -18 15
6 25 37 15 61 13 82 -6z m-995 -13 c33 0 45 -5 54 -22 10 -19 8 -25 -15 -44
-53 -46 -28 -55 71 -25 54 17 65 17 89 5 24 -13 29 -13 45 5 10 11 33 22 50
26 27 6 36 3 51 -15 23 -28 23 -57 1 -64 -10 -3 -52 -8 -93 -11 -91 -7 -139
-19 -165 -40 -19 -15 -14 -16 60 -9 44 4 116 8 160 8 l80 1 18 -39 c10 -21 15
-42 10 -46 -4 -4 -48 -17 -98 -29 -111 -27 -147 -40 -142 -55 5 -15 32 -13
159 9 105 19 108 19 121 0 15 -19 37 -13 37 11 0 8 4 14 9 14 5 0 22 3 38 6
21 4 35 1 46 -11 26 -26 21 -31 -44 -45 -33 -7 -70 -21 -82 -32 -21 -17 -21
-19 -4 -32 15 -11 27 -11 80 0 34 7 76 13 92 14 38 0 105 -44 105 -70 0 -29
59 -37 122 -16 28 9 72 16 99 16 48 0 49 -1 49 -30 0 -35 2 -35 83 -14 38 10
77 13 104 9 29 -4 49 -2 65 8 28 18 118 32 118 19 0 -6 -22 -15 -49 -22 -56
-13 -67 -29 -47 -68 35 -68 89 -82 94 -24 3 34 12 38 44 21 27 -14 64 -4 71
20 9 37 72 44 437 46 190 2 354 5 365 8 11 2 56 8 100 11 100 9 187 23 245 41
25 7 79 16 120 19 41 3 118 17 170 31 52 15 147 37 210 50 135 28 142 30 271
95 125 63 207 126 208 159 1 29 47 81 72 81 40 0 283 -87 379 -135 58 -30 121
-57 140 -60 80 -16 193 -95 216 -151 44 -105 -16 -251 -158 -386 -67 -63 -78
-88 -40 -88 22 0 127 90 168 144 17 22 46 78 65 123 l33 82 32 -73 c18 -40 42
-104 53 -143 27 -89 67 -144 139 -191 31 -20 87 -58 123 -85 62 -44 166 -97
190 -97 6 0 44 -14 85 -31 79 -33 102 -57 32 -34 -38 13 -167 35 -293 52 -55
7 -119 -12 -158 -47 -31 -27 -32 -31 -32 -107 1 -72 4 -83 38 -140 48 -79 98
-121 205 -173 105 -51 144 -70 245 -124 l79 -41 211 -6 c186 -5 235 -10 326
-36 28 -7 -5 -20 -79 -31 -41 -5 -88 -10 -105 -11 -96 -1 -405 -20 -413 -25
-17 -11 -202 -8 -215 3 -8 6 -55 71 -106 145 -102 148 -217 268 -292 303 -102
48 -291 57 -467 22 -141 -28 -329 -24 -410 9 -63 26 -163 29 -262 7 -36 -8
-99 -14 -141 -15 -42 0 -100 -4 -129 -10 -211 -40 -338 -49 -382 -26 -15 8
-48 17 -74 21 -67 9 -98 28 -128 79 -33 57 -66 83 -132 102 -48 14 -56 14 -83
0 -16 -9 -39 -16 -51 -16 -17 0 -20 6 -20 43 0 24 -5 48 -12 55 -18 18 -52 14
-82 -9 l-27 -21 -24 22 c-24 22 -25 45 -2 37 21 -8 47 13 47 37 0 15 -9 27
-25 34 -39 18 -55 15 -65 -13 -5 -14 -12 -25 -15 -25 -3 0 -31 16 -62 36 -50
32 -55 38 -50 63 7 31 -7 48 -55 69 -26 11 -26 13 -13 38 10 20 11 32 3 49
-19 42 -84 41 -94 -1 -7 -28 -23 -30 -64 -9 -25 13 -30 22 -30 51 0 35 -35 84
-60 84 -27 0 -50 -23 -56 -55 -9 -52 -64 -71 -64 -23 0 26 -53 78 -79 78 -22
0 -51 -35 -51 -61 0 -9 10 -28 21 -43 17 -21 19 -30 10 -39 -13 -13 -80 -14
-152 -2 -30 5 -60 3 -85 -5 -34 -12 -39 -11 -49 5 -15 28 -53 65 -65 65 -22 0
-50 -41 -50 -72 0 -38 8 -52 34 -61 14 -6 17 -13 11 -35 -10 -40 -22 -48 -43
-29 -10 9 -28 17 -40 17 -31 0 -29 -33 4 -63 l26 -24 -23 -17 c-35 -24 -49
-20 -49 14 0 53 -65 91 -98 58 -15 -15 -16 -64 -2 -73 21 -13 9 -34 -27 -46
-22 -7 -58 -35 -92 -70 -30 -33 -61 -59 -69 -59 -22 0 -313 90 -347 107 -16 9
-50 30 -75 48 -25 18 -100 60 -167 95 -67 34 -149 84 -182 111 -34 27 -63 49
-66 49 -3 0 -5 -12 -5 -27 0 -44 80 -111 225 -188 72 -37 144 -78 160 -91 50
-38 150 -80 272 -115 119 -35 153 -58 139 -94 -8 -23 -67 -44 -145 -54 -95
-12 -120 -27 -167 -99 -23 -35 -54 -77 -70 -93 -30 -32 -148 -129 -156 -129
-7 0 -63 152 -88 238 -14 51 -25 72 -37 72 -26 0 -10 -118 33 -249 24 -73 33
-116 27 -122 -13 -13 -91 48 -225 179 -120 117 -115 105 -143 311 -20 144 -24
161 -41 161 -23 0 -27 -45 -15 -148 7 -53 14 -105 16 -114 5 -28 -14 -21 -55
20 -37 37 -42 50 -64 180 -5 30 -4 32 24 32 36 0 37 3 5 44 -31 41 -45 111
-34 174 14 75 16 78 42 53 27 -25 57 -28 57 -6 0 9 -18 39 -40 68 -45 61 -113
204 -106 224 4 10 14 7 42 -12 20 -14 40 -25 45 -25 4 0 16 -13 26 -30 18 -31
50 -40 59 -17 3 8 -13 41 -36 74 -50 76 -55 101 -40 210 14 101 37 162 76 198
35 32 52 32 66 -2 11 -27 12 -26 18 24 3 28 8 53 10 55 53 35 230 117 245 113
11 -3 39 -5 62 -5z m433 -120 c0 -5 -2 -10 -4 -10 -3 0 -8 5 -11 10 -3 6 -1
10 4 10 6 0 11 -4 11 -10z m78 -93 c29 -27 28 -47 -3 -47 -14 0 -28 -1 -32 -2
-12 -4 -35 51 -29 67 6 18 32 10 64 -18z m203 -107 c28 -15 23 -30 -9 -30 -27
0 -52 15 -52 32 0 11 38 10 61 -2z m227 -86 c33 -9 27 -22 -15 -29 -21 -3 -62
-10 -92 -15 -46 -8 -57 -7 -73 7 -38 34 -23 43 70 43 48 0 97 -3 110 -6z
m-1509 -329 c22 -44 22 -47 6 -95 -9 -28 -18 -50 -21 -50 -11 0 -34 63 -34 93
0 45 11 97 19 97 4 0 18 -20 30 -45z m1651 -95 c0 -5 -5 -10 -11 -10 -5 0 -7
5 -4 10 3 6 8 10 11 10 2 0 4 -4 4 -10z m606 -55 c27 -14 85 -57 129 -95 44
-39 98 -80 120 -91 22 -11 63 -42 90 -68 153 -145 209 -172 312 -150 32 7 64
14 72 15 16 3 53 -34 121 -120 81 -103 85 -106 133 -106 36 0 59 -10 128 -54
124 -80 135 -90 148 -140 10 -41 48 -86 73 -86 5 0 38 -20 72 -45 58 -41 64
-49 79 -105 22 -78 78 -140 167 -185 72 -36 84 -48 124 -118 19 -33 53 -67
114 -112 81 -60 90 -70 132 -152 38 -75 53 -93 95 -120 84 -54 102 -71 124
-118 35 -75 36 -97 7 -132 -14 -17 -29 -46 -33 -65 -3 -18 -12 -42 -20 -53 -7
-11 -13 -25 -13 -32 0 -19 40 -16 63 5 19 16 20 16 36 -8 9 -14 35 -43 59 -64
38 -36 43 -44 40 -80 l-3 -39 49 -2 c51 -3 66 -14 117 -87 14 -19 19 -21 33
-9 9 7 16 20 16 28 0 24 -88 110 -120 116 -22 5 -31 14 -36 34 -4 15 -16 35
-27 44 -12 10 -17 21 -12 28 5 9 10 10 18 2 16 -16 38 -14 58 5 17 15 21 15
56 -2 27 -14 46 -34 67 -72 l28 -54 50 7 c40 6 50 4 46 -6 -2 -8 -18 -20 -34
-28 -16 -8 -33 -19 -37 -25 -13 -18 1 -77 24 -102 l22 -24 -54 -25 c-67 -31
-91 -31 -156 0 -43 20 -53 29 -53 49 0 14 -8 29 -17 35 -26 13 -167 33 -242
34 -63 0 -65 0 -101 -41 -35 -39 -39 -41 -68 -30 -32 12 -31 12 -103 -27 -24
-14 -33 -13 -93 10 -40 15 -87 25 -119 25 -72 0 -150 -38 -178 -85 -12 -19
-29 -40 -39 -45 -9 -5 -55 -7 -102 -3 -56 4 -92 2 -106 -6 -12 -7 -41 -41 -63
-77 -23 -35 -49 -69 -59 -74 -10 -6 -44 -10 -74 -10 -48 0 -62 5 -102 35 -81
62 -117 37 -43 -30 22 -20 39 -39 36 -41 -7 -7 -103 64 -152 114 -24 23 -57
45 -74 48 -17 4 -28 10 -25 15 8 13 46 11 93 -6 34 -12 41 -12 41 0 0 19 -64
56 -108 62 -22 3 -53 -1 -75 -10 -31 -13 -38 -23 -48 -62 -15 -58 -33 -69
-137 -86 -80 -12 -115 -10 -252 16 -8 2 -106 0 -216 -4 l-202 -7 -115 -57
c-151 -75 -173 -77 -331 -37 -70 18 -130 30 -133 27 -10 -10 82 -50 152 -67
50 -11 71 -21 73 -33 7 -35 -31 -29 -164 28 -120 51 -166 63 -138 35 18 -17
215 -101 252 -107 36 -6 72 -28 72 -45 0 -12 -87 -10 -132 4 -22 6 -59 29 -83
50 -25 22 -83 55 -138 78 -52 21 -124 55 -159 75 -58 31 -97 38 -98 16 0 -3
-7 -14 -14 -24 -13 -17 -15 -17 -50 -1 -42 21 -48 44 -10 44 18 0 40 15 75 53
47 51 63 85 35 74 -8 -3 -52 -31 -99 -61 -105 -70 -125 -71 -203 -13 -79 58
-90 72 -74 93 27 31 99 66 125 60 23 -6 25 -4 20 16 -5 20 3 28 57 60 69 40
108 73 108 89 0 15 -16 8 -109 -50 -44 -28 -87 -51 -95 -51 -17 0 -176 132
-170 141 2 4 38 23 79 44 75 37 85 49 42 51 -12 1 -37 5 -54 9 -31 7 -34 5
-48 -28 -8 -20 -24 -39 -36 -42 -31 -10 -89 40 -119 103 -19 40 -30 52 -47 52
-42 0 -23 18 61 59 73 35 107 64 92 78 -2 2 -19 -5 -37 -16 -45 -27 -70 -26
-99 4 -19 20 -21 27 -10 40 18 21 5 45 -25 45 -33 0 -65 17 -65 34 0 13 85 56
109 56 19 0 12 28 -11 44 -32 23 -48 20 -48 -8 0 -48 -67 -71 -105 -36 l-24
22 -3 -33 c-2 -26 -8 -35 -25 -37 -28 -4 -54 41 -35 60 31 31 -8 108 -54 108
-31 0 -41 -25 -20 -49 9 -10 16 -32 16 -50 0 -17 7 -43 16 -56 16 -25 16 -25
-17 -39 -61 -25 -95 -28 -109 -11 -18 21 -27 19 -34 -9 -5 -20 -14 -25 -63
-32 -52 -7 -83 -7 -91 0 -2 3 27 78 34 85 2 2 45 11 95 20 56 10 94 21 97 29
3 11 -16 13 -89 10 l-94 -3 -3 29 c-6 46 7 76 36 88 21 9 23 12 10 15 -26 6
-22 27 11 62 21 23 38 31 63 31 47 0 131 24 136 38 4 14 -27 15 -78 3 -20 -4
-44 -5 -54 -1 -16 5 -14 10 18 38 44 39 72 46 136 38 26 -4 68 -2 92 3 114 26
368 47 394 34 49 -26 60 21 12 54 -27 19 -34 21 -47 9 -9 -8 -34 -17 -56 -20
-35 -6 -43 -4 -63 18 -31 36 -62 35 -62 -3 0 -17 -6 -31 -15 -35 -24 -9 -176
-26 -217 -24 -37 1 -51 19 -28 33 6 3 10 17 10 30 0 18 12 32 43 52 42 28 44
28 247 34 209 5 240 10 240 36 0 12 -12 13 -67 8 -38 -4 -70 -7 -73 -7 -3 0
-56 0 -119 1 l-114 1 23 25 c14 14 48 44 77 67 63 48 86 47 143 -12 22 -22 42
-40 45 -40 19 0 45 23 45 41 0 25 -25 35 -59 23 -22 -9 -30 -6 -53 21 -15 16
-28 36 -28 43 0 19 83 133 142 194 28 29 75 90 104 135 29 45 65 90 80 100 19
12 57 20 120 25 50 3 103 12 117 20 32 17 141 141 174 198 14 25 30 48 35 51
5 3 53 21 106 39 141 48 163 65 213 167 41 86 69 106 133 98 37 -4 89 3 186
24 74 16 142 30 151 30 8 1 37 -10 65 -24z m-2280 -122 c3 -18 3 -41 -1 -50
-6 -16 -8 -16 -15 3 -5 12 -11 43 -15 70 -6 45 -5 48 9 30 9 -11 19 -34 22
-53z m6221 -150 c-9 -9 -19 -14 -23 -11 -10 10 6 28 24 28 15 0 15 -1 -1 -17z
m-773 -39 c22 -8 10 -24 -19 -24 -12 0 -25 -7 -29 -15 -7 -19 -30 -19 -45 -1
-8 10 -8 16 1 24 22 17 67 25 92 16z m591 -14 c18 -8 18 -9 -5 -8 -14 0 -38 4
-55 8 l-30 8 35 0 c19 0 44 -3 55 -8z m535 -39 c77 -18 220 -14 295 10 37 11
70 18 73 15 12 -13 -37 -62 -79 -78 -76 -28 -175 -42 -209 -28 -25 10 -37 8
-93 -14 -106 -42 -187 -52 -324 -38 -100 11 -150 24 -132 34 195 120 293 141
469 99z m-960 14 c0 -11 -60 -34 -74 -29 -21 8 -20 21 2 27 24 7 72 8 72 2z
m188 -26 c82 -20 82 -44 0 -47 -22 -1 -62 -8 -89 -16 -27 -8 -49 -12 -49 -8 0
6 80 81 88 82 2 0 24 -5 50 -11z m-328 -29 c8 -5 12 -12 9 -15 -8 -8 -39 5
-39 16 0 11 11 11 30 -1z m117 -57 c5 -15 -36 -28 -49 -15 -6 6 -7 15 -3 22 9
14 47 9 52 -7z m-112 -18 c29 -24 28 -48 -2 -29 -20 13 -49 54 -37 54 5 -1 22
-12 39 -25z m1533 -57 c9 -78 -98 -183 -219 -214 -35 -9 -74 -22 -87 -31 -13
-8 -31 -12 -40 -10 -13 3 -9 8 17 23 78 45 115 79 181 170 69 93 72 95 108 92
32 -3 37 -7 40 -30z m-1588 12 c0 -5 -2 -10 -4 -10 -3 0 -8 5 -11 10 -3 6 -1
10 4 10 6 0 11 -4 11 -10z m1390 -14 c0 -23 -68 -104 -113 -134 -62 -42 -179
-92 -214 -92 -17 0 -37 -7 -44 -16 -15 -18 -57 -16 -174 10 -38 8 -126 20
-195 26 -91 8 -148 19 -210 41 -47 17 -118 40 -159 52 -41 12 -76 28 -78 34
-3 7 13 20 34 29 21 9 58 26 81 36 54 25 79 23 332 -26 105 -20 215 -36 255
-36 119 0 250 18 322 45 58 21 126 40 156 44 4 1 7 -5 7 -13z m-6643 -45 c23
-23 45 -58 52 -83 21 -69 54 -172 59 -185 2 -8 -4 -13 -16 -13 -37 0 -102 107
-141 234 -11 37 -21 72 -21 77 0 20 30 7 67 -30z m3968 3 c95 -41 137 -52 216
-58 41 -3 101 -8 134 -12 46 -4 86 0 170 19 170 39 293 52 357 37 75 -18 90
-27 83 -51 -4 -11 -54 -97 -111 -192 -57 -95 -104 -178 -104 -184 0 -51 82 60
191 260 30 53 57 97 62 97 4 0 20 -8 35 -18 15 -11 46 -31 69 -45 23 -14 53
-42 67 -60 l26 -34 -56 -84 c-31 -46 -73 -102 -93 -124 -21 -22 -53 -60 -71
-85 -44 -60 -102 -120 -114 -120 -14 0 -56 41 -56 54 0 6 30 45 66 86 36 41
80 94 96 118 28 40 98 182 98 198 0 12 -61 -70 -96 -130 -42 -71 -159 -203
-188 -212 -12 -4 -54 -25 -94 -48 -57 -31 -81 -52 -108 -93 -19 -28 -68 -95
-110 -147 -70 -89 -81 -99 -151 -131 -42 -19 -79 -35 -84 -35 -4 0 -11 9 -14
21 -11 32 -63 87 -124 129 -73 50 -105 85 -129 141 -18 40 -29 51 -95 87 -121
67 -185 143 -187 222 -1 27 -24 58 -67 89 -24 17 -46 31 -50 31 -23 1 -59 44
-73 86 -13 42 -22 52 -83 88 -37 23 -68 45 -70 51 -1 5 18 10 43 12 24 1 54 4
66 7 11 3 86 13 165 21 79 9 160 20 179 24 69 17 142 12 205 -15z m-3692 -268
c59 -49 107 -92 107 -95 -1 -11 -25 -37 -49 -53 -22 -16 -26 -16 -62 3 -48 24
-62 45 -94 139 -26 75 -31 104 -17 98 4 -1 55 -43 115 -92z m4925 -38 c6 -7
18 -32 27 -55 l17 -42 -48 -63 c-27 -35 -91 -107 -144 -161 -95 -98 -95 -98
-127 -86 -18 6 -33 16 -33 22 0 7 46 71 101 142 56 72 119 158 141 193 43 65
49 70 66 50z m1342 -68 c0 -16 -38 -32 -241 -100 -214 -72 -217 -74 -333 -167
-72 -60 -108 -80 -193 -115 -18 -7 -33 -17 -33 -21 0 -5 15 -6 33 -2 l32 6
-45 -41 c-74 -67 -124 -99 -219 -135 -88 -34 -138 -44 -127 -26 4 5 52 44 109
86 56 42 131 103 167 135 36 33 83 75 105 94 22 19 37 38 33 42 -14 13 -103
-29 -138 -66 -19 -21 -113 -99 -208 -175 -159 -127 -177 -138 -221 -143 -65
-6 -72 11 -19 44 69 43 166 123 189 156 l22 30 -35 -19 c-19 -10 -89 -56 -156
-103 -158 -109 -178 -120 -232 -121 -25 0 -68 -4 -96 -8 -53 -7 -119 4 -109
18 3 5 14 7 25 4 24 -6 25 0 4 32 -15 23 -12 26 137 197 84 95 175 201 202
236 52 67 67 75 67 39 0 -31 -20 -59 -106 -147 l-73 -75 3 -55 c2 -39 7 -56
18 -58 19 -4 183 167 234 243 58 88 82 98 233 100 69 1 146 5 171 8 25 4 83 9
130 12 113 8 191 21 334 57 176 43 336 62 336 38z m-150 -118 c0 -11 -139 -94
-220 -131 -71 -33 -130 -49 -130 -34 0 4 19 30 43 57 41 48 44 49 172 81 72
18 131 33 133 34 1 1 2 -3 2 -7z m-1616 -173 c25 -30 26 -31 9 -60 -9 -15 -34
-48 -54 -71 l-36 -43 -21 34 c-23 38 -23 39 32 124 17 26 34 47 37 47 4 0 19
-14 33 -31z m145 -95 c2 -1 -25 -37 -60 -78 -51 -60 -69 -75 -89 -73 -41 3
-35 32 25 112 l55 75 33 -16 c17 -9 34 -18 36 -20z m1041 21 c-7 -8 -19 -15
-27 -15 -13 0 -13 3 -3 15 7 8 19 15 27 15 13 0 13 -3 3 -15z m-1327 -63 c29
-31 36 -65 21 -94 -18 -34 -44 -36 -71 -5 -34 38 -35 46 -7 82 30 40 35 42 57
17z m-98 -112 c10 -16 82 -50 106 -50 12 0 31 7 41 17 15 13 23 14 43 5 26
-12 33 -36 15 -47 -25 -15 -280 -5 -280 11 0 9 55 74 62 74 4 0 10 -5 13 -10z
m-4223 -447 c38 -37 68 -73 68 -79 0 -7 -14 -17 -31 -23 -39 -13 -44 -9 -111
78 -37 50 -45 67 -37 77 21 25 43 15 111 -53z m-123 -19 c16 -23 40 -57 53
-74 l23 -31 -25 -19 c-48 -38 -73 -27 -140 58 -34 42 -62 81 -63 87 -2 11 81
33 106 27 9 -2 30 -24 46 -48z m-163 -36 c64 -70 97 -117 91 -131 -3 -8 -32
-21 -64 -29 -32 -9 -65 -18 -73 -22 -22 -9 -93 46 -97 75 -6 38 -51 99 -73 99
-16 0 -20 -7 -20 -35 0 -21 -5 -35 -12 -36 -120 -6 -148 -4 -148 11 0 21 58
80 79 81 9 0 59 6 111 13 157 23 162 22 206 -26z m-142 -139 c44 -52 34 -62
-81 -85 -34 -7 -93 20 -93 42 0 24 36 54 75 63 64 14 72 13 99 -20z m494 -50
c42 -45 78 -85 80 -89 2 -5 -7 -11 -19 -15 -16 -5 -28 0 -46 19 -26 29 -68 35
-77 11 -3 -8 -1 -15 3 -15 5 0 12 -8 15 -17 3 -10 -23 14 -59 52 -35 39 -65
76 -65 82 0 11 64 51 83 53 4 0 43 -36 85 -81z m-708 11 c31 -29 37 -59 14
-67 -7 -2 -30 15 -52 39 l-41 43 -9 -25 c-9 -22 -11 -23 -17 -7 -22 54 52 66
105 17z m-122 -74 c-3 -19 -10 -21 -73 -22 -89 -1 -105 7 -105 52 l0 36 49 -7
c30 -4 57 -2 68 4 14 8 22 6 41 -15 13 -15 22 -36 20 -48z m610 50 c28 -1 42
-11 83 -61 27 -33 49 -63 49 -66 0 -7 -38 -22 -90 -36 -34 -9 -37 -7 -112 61
-43 39 -78 76 -78 83 0 16 58 33 90 26 14 -3 40 -6 58 -7z m-121 -112 c40 -42
71 -79 68 -84 -3 -5 -38 -11 -79 -15 -58 -6 -79 -4 -105 9 -40 21 -49 43 -25
61 18 13 17 14 -11 15 -31 0 -75 24 -75 40 0 6 9 6 24 0 20 -7 28 -4 52 21 44
46 67 39 151 -47z m-283 14 c14 -23 9 -26 -51 -34 -46 -6 -52 -4 -62 15 -10
18 -9 23 11 31 34 14 89 7 102 -12z m-226 -35 c-3 -15 -14 -18 -61 -18 -66 0
-81 17 -22 26 75 12 87 10 83 -8z m1027 -18 c17 -13 52 -43 80 -68 58 -51 56
-59 -25 -97 -46 -22 -52 -22 -66 -8 -15 14 -13 17 20 28 39 12 43 19 24 38
-18 18 -45 15 -68 -8 l-21 -21 -54 55 c-30 30 -55 59 -55 64 0 6 19 19 43 31
48 25 77 21 122 -14z m4427 -18 c41 -40 78 -107 59 -107 -5 0 -21 18 -36 40
-33 47 -49 53 -140 48 -83 -4 -93 10 -28 39 73 32 93 29 145 -20z m-5220 -12
c25 -28 46 -32 55 -10 5 14 8 14 24 -1 27 -24 24 -31 -16 -44 -44 -14 -67 -7
-100 32 -20 24 -23 33 -13 39 20 13 26 11 50 -16z m-92 -22 c11 -14 19 -31 17
-37 -6 -19 -60 -19 -94 0 -31 16 -34 16 -51 1 -29 -26 -78 -22 -98 8 -31 47
-16 55 100 55 101 0 105 -1 126 -27z m747 -54 c43 -44 79 -86 81 -93 3 -14
-46 -36 -78 -36 -9 0 -38 16 -63 35 -35 27 -46 42 -49 67 -3 30 -7 33 -38 36
-97 9 -70 69 32 71 33 1 44 -7 115 -80z m-170 -56 c49 -42 90 -78 92 -80 9 -6
-6 -12 -45 -19 -37 -5 -44 -3 -79 30 -21 20 -41 36 -45 36 -19 0 -17 -17 5
-46 14 -18 22 -35 18 -37 -38 -20 -47 -16 -129 65 -46 45 -84 87 -84 94 0 7
17 16 38 19 20 4 44 8 52 10 8 1 32 3 52 4 33 1 48 -8 125 -76z m-298 5 c70
-75 111 -129 106 -138 -11 -18 -59 7 -144 77 -50 41 -91 78 -91 83 0 8 44 28
68 29 7 1 35 -23 61 -51z m-191 8 c30 -16 68 -54 60 -61 -2 -3 -68 -1 -146 3
-109 6 -146 12 -158 24 -9 9 -13 21 -10 27 10 16 57 13 80 -4 25 -19 50 -19
66 -1 6 8 24 17 38 19 15 2 31 5 35 6 4 0 20 -5 35 -13z m4323 -47 c-29 -23
-64 -21 -69 4 -2 12 7 22 30 31 29 13 35 13 48 0 13 -14 12 -17 -9 -35z
m-4630 24 c13 -15 11 -16 -16 -9 -41 10 -56 26 -23 26 14 0 32 -7 39 -17z
m341 -93 c37 -37 33 -60 -12 -75 -38 -13 -59 -8 -97 28 -27 24 -29 40 -7 61
26 27 81 20 116 -14z m823 -23 c50 -39 63 -57 64 -89 1 -27 -35 -22 -93 13
-66 40 -96 68 -96 89 0 20 38 40 60 32 8 -3 38 -23 65 -45z m-688 -13 c-9 -9
-28 6 -21 18 4 6 10 6 17 -1 6 -6 8 -13 4 -17z m496 -10 c29 -15 79 -45 111
-67 l59 -40 -24 -18 c-47 -37 -55 -34 -154 46 -52 41 -95 80 -95 85 0 7 17 15
43 19 4 0 31 -11 60 -25z m-88 -65 c44 -33 85 -63 91 -67 15 -9 22 -26 12 -29
-5 -2 -7 -1 -5 2 1 3 -41 29 -93 58 -114 63 -142 82 -133 90 17 18 56 2 128
-54z m-315 21 c13 -8 13 -11 0 -23 -48 -45 -170 -39 -170 9 0 20 142 32 170
14z m165 -10 c23 -26 8 -26 -25 0 -18 14 -21 20 -9 20 9 0 24 -9 34 -20z
m2075 -45 c0 -2 -51 -20 -112 -39 -62 -18 -135 -41 -163 -49 -27 -9 -68 -22
-90 -31 -22 -8 -67 -15 -101 -16 -33 0 -65 -5 -71 -11 -13 -13 -33 -4 -33 16
0 8 18 19 43 25 23 7 60 21 83 32 32 16 51 19 84 14 35 -6 41 -4 37 9 -9 23
24 35 100 36 37 0 88 4 113 8 53 10 110 13 110 6z m-1322 -53 c26 -17 29 -32
5 -32 -20 0 -113 58 -113 71 0 10 72 -16 108 -39z m128 27 c36 -22 45 -49 17
-49 -25 1 -103 37 -103 48 0 28 41 29 86 1z m-728 -9 c38 -24 40 -37 7 -52
-32 -14 -54 3 -53 43 1 34 3 35 46 9z m-265 -41 c12 -7 38 -25 57 -42 19 -16
59 -41 89 -55 46 -21 52 -27 36 -33 -32 -12 -269 -8 -332 6 -265 58 -264 58
-251 70 7 7 42 22 77 34 55 18 68 19 85 8 39 -25 52 -25 102 -1 53 26 103 30
137 13z m522 1 c-3 -5 -14 -10 -23 -10 -15 0 -15 2 -2 10 20 13 33 13 25 0z
m55 -75 c0 -20 5 -25 24 -25 13 0 29 -7 36 -15 16 -19 33 -9 25 16 -7 22 14
26 46 9 23 -13 24 -33 3 -65 -14 -22 -18 -23 -37 -11 -22 14 -28 16 -103 36
-50 12 -61 33 -34 60 27 27 40 25 40 -5z m-132 -81 c35 -24 26 -32 -25 -23
-57 11 -63 16 -32 28 32 13 32 13 57 -5z"/>
<path d="M6382 4834 c-24 -17 -29 -56 -9 -71 6 -5 23 -7 37 -4 19 5 26 14 28
38 4 41 -24 60 -56 37z"/>
<path d="M6206 4514 c-17 -45 2 -84 52 -98 18 -6 22 -15 22 -45 0 -47 18 -63
62 -59 30 3 33 6 36 39 4 42 -17 69 -53 69 -22 0 -24 3 -19 29 5 23 1 35 -19
55 -29 29 -72 34 -81 10z"/>
<path d="M6553 4484 c-4 -11 1 -22 13 -31 27 -20 49 -12 49 17 0 20 -6 26 -28
28 -18 2 -29 -2 -34 -14z"/>
<path d="M7037 4243 c-14 -13 -6 -70 11 -86 35 -32 72 -14 72 33 0 42 -58 79
-83 53z"/>
<path d="M6540 3950 c0 -5 5 -10 10 -10 6 0 10 5 10 10 0 6 -4 10 -10 10 -5 0
-10 -4 -10 -10z"/>
<path d="M6356 3841 c-4 -5 -2 -12 3 -15 5 -4 12 -2 15 3 4 5 2 12 -3 15 -5 4
-12 2 -15 -3z"/>
<path d="M6067 3834 c-8 -8 1 -24 14 -24 5 0 9 7 9 15 0 15 -12 20 -23 9z"/>
<path d="M6586 3753 c-11 -11 -6 -23 9 -23 8 0 15 4 15 9 0 13 -16 22 -24 14z"/>
<path d="M5930 3722 c0 -14 11 -21 26 -15 21 8 17 23 -6 23 -11 0 -20 -4 -20
-8z"/>
<path d="M6164 3646 c-10 -26 1 -51 24 -54 24 -4 27 4 12 42 -11 29 -28 34
-36 12z"/>
<path d="M5780 3550 c0 -5 5 -10 10 -10 6 0 10 5 10 10 0 6 -4 10 -10 10 -5 0
-10 -4 -10 -10z"/>
<path d="M7140 3531 c-14 -27 -13 -31 8 -31 21 0 42 18 42 37 0 20 -38 15 -50
-6z"/>
<path d="M5575 3520 c-3 -6 1 -13 10 -16 19 -8 30 0 20 15 -8 14 -22 14 -30 1z"/>
<path d="M6130 3491 c0 -28 70 -45 85 -21 12 19 -16 40 -51 40 -27 0 -34 -4
-34 -19z"/>
<path d="M6738 3487 c-41 -24 -44 -40 -9 -45 36 -6 80 45 54 61 -5 3 -25 -5
-45 -16z"/>
<path d="M7430 3475 c0 -8 9 -15 20 -15 11 0 20 7 20 15 0 8 -9 15 -20 15 -11
0 -20 -7 -20 -15z"/>
<path d="M6315 3470 c-9 -14 3 -30 24 -30 18 0 41 18 41 32 0 12 -58 10 -65
-2z"/>
<path d="M5380 3440 c0 -24 21 -49 36 -43 23 9 13 47 -13 51 -13 2 -23 -2 -23
-8z"/>
<path d="M6915 3434 c-20 -21 -7 -37 26 -32 31 4 41 48 10 48 -11 0 -27 -7
-36 -16z"/>
<path d="M5800 3410 c0 -5 7 -10 15 -10 8 0 15 5 15 10 0 6 -7 10 -15 10 -8 0
-15 -4 -15 -10z"/>
<path d="M5480 3391 c0 -13 50 -71 61 -71 21 0 20 32 -1 56 -23 24 -60 33 -60
15z"/>
<path d="M5980 3385 c0 -8 9 -15 20 -15 11 0 20 7 20 15 0 8 -9 15 -20 15 -11
0 -20 -7 -20 -15z"/>
<path d="M5643 3295 c-8 -21 5 -35 33 -35 23 0 43 24 31 37 -13 12 -58 11 -64
-2z"/>
<path d="M7698 3279 c-10 -5 -18 -14 -18 -19 0 -14 34 -12 48 2 26 26 5 38
-30 17z"/>
<path d="M5413 3264 c-6 -15 11 -34 32 -34 6 0 16 4 24 9 21 14 5 41 -24 41
-14 0 -28 -7 -32 -16z"/>
<path d="M5880 3265 c0 -9 5 -15 10 -13 12 4 11 16 -1 24 -5 3 -9 -2 -9 -11z"/>
<path d="M5805 3170 c-4 -7 -3 -16 3 -22 14 -14 57 -6 57 12 0 18 -50 26 -60
10z"/>
<path d="M5567 3114 c-9 -10 2 -24 19 -24 8 0 14 7 14 15 0 15 -21 21 -33 9z"/>
<path d="M6117 3083 c-12 -11 -8 -23 8 -23 8 0 15 7 15 15 0 16 -12 20 -23 8z"/>
<path d="M5407 3024 c-16 -16 -6 -34 19 -34 19 0 25 5 22 17 -3 19 -29 29 -41
17z"/>
<path d="M5547 2964 c-4 -4 -2 -13 3 -20 13 -14 52 -6 47 10 -4 13 -40 20 -50
10z"/>
<path d="M5925 2960 c3 -5 8 -10 11 -10 2 0 4 5 4 10 0 6 -5 10 -11 10 -5 0
-7 -4 -4 -10z"/>
<path d="M6280 2810 c0 -5 5 -10 10 -10 6 0 10 5 10 10 0 6 -4 10 -10 10 -5 0
-10 -4 -10 -10z"/>
<path d="M5702 2783 c2 -10 14 -19 26 -21 19 -3 23 1 20 15 -2 10 -14 19 -26
21 -19 3 -23 -1 -20 -15z"/>
<path d="M5420 2771 c0 -13 50 -51 67 -51 23 0 28 31 8 46 -21 16 -75 19 -75
5z"/>
<path d="M4937 2683 c-4 -3 -7 -14 -7 -23 0 -30 -23 -38 -135 -50 -142 -14
-246 -30 -265 -41 -25 -14 109 -10 263 7 159 18 149 18 197 9 32 -6 37 -4 48
19 15 34 18 29 -26 60 -38 26 -62 32 -75 19z"/>
<path d="M5660 2665 c0 -18 48 -31 62 -17 16 16 0 32 -33 32 -19 0 -29 -5 -29
-15z"/>
<path d="M5890 2665 c0 -8 7 -15 15 -15 8 0 15 7 15 15 0 8 -7 15 -15 15 -8 0
-15 -7 -15 -15z"/>
<path d="M6380 2610 c0 -5 7 -10 15 -10 8 0 15 5 15 10 0 6 -7 10 -15 10 -8 0
-15 -4 -15 -10z"/>
<path d="M5473 2598 c2 -7 7 -13 12 -13 5 0 10 6 13 13 2 6 -4 12 -13 12 -9 0
-15 -6 -12 -12z"/>
<path d="M6080 2570 c0 -13 32 -28 48 -23 25 9 12 33 -18 33 -16 0 -30 -4 -30
-10z"/>
<path d="M5733 2528 c-14 -17 -25 -68 -16 -68 13 0 73 39 73 48 0 12 -22 32
-36 32 -6 0 -16 -6 -21 -12z"/>
<path d="M5247 2523 c-4 -3 -7 -15 -7 -25 0 -21 53 -48 95 -48 20 0 25 5 25
24 0 14 -10 32 -22 40 -23 16 -79 22 -91 9z"/>
<path d="M5893 2443 c-23 -8 -14 -30 17 -43 33 -13 64 -7 58 12 -5 15 -59 37
-75 31z"/>
<path d="M5474 2425 c-8 -20 4 -35 26 -35 23 0 32 13 24 34 -8 20 -43 21 -50
1z"/>
<path d="M6350 2400 c0 -5 7 -10 15 -10 8 0 15 5 15 10 0 6 -7 10 -15 10 -8 0
-15 -4 -15 -10z"/>
<path d="M6550 2350 c0 -5 5 -10 10 -10 6 0 10 5 10 10 0 6 -4 10 -10 10 -5 0
-10 -4 -10 -10z"/>
<path d="M8845 2270 c-10 -16 4 -50 21 -50 11 0 14 8 12 27 -3 28 -22 41 -33
23z"/>
<path d="M5830 2250 c0 -22 28 -40 64 -40 36 0 40 15 10 39 -35 27 -74 28 -74
1z"/>
<path d="M5505 2250 c-3 -5 1 -10 10 -10 9 0 13 5 10 10 -3 6 -8 10 -10 10 -2
0 -7 -4 -10 -10z"/>
<path d="M6035 2240 c-11 -18 15 -40 46 -40 32 0 37 11 13 34 -18 18 -50 21
-59 6z"/>
<path d="M5296 2233 c-12 -12 -6 -33 9 -33 8 0 15 6 15 14 0 17 -14 28 -24 19z"/>
<path d="M6310 2230 c0 -5 5 -10 10 -10 6 0 10 5 10 10 0 6 -4 10 -10 10 -5 0
-10 -4 -10 -10z"/>
<path d="M6970 2214 c0 -8 5 -12 10 -9 6 4 8 11 5 16 -9 14 -15 11 -15 -7z"/>
<path d="M5585 2119 c-10 -46 8 -57 34 -20 24 33 21 51 -9 51 -12 0 -21 -10
-25 -31z"/>
<path d="M6217 2093 c-13 -12 -7 -42 11 -52 16 -8 89 -15 142 -12 21 1 22 3
10 15 -16 14 -122 56 -144 56 -7 0 -16 -3 -19 -7z"/>
<path d="M7012 2053 c4 -24 83 -27 83 -3 0 11 -13 16 -43 18 -38 3 -43 1 -40
-15z"/>
<path d="M6484 2035 c-9 -22 4 -35 36 -35 36 0 49 19 25 37 -25 17 -54 17 -61
-2z"/>
<path d="M8960 2034 c0 -8 5 -12 10 -9 6 4 8 11 5 16 -9 14 -15 11 -15 -7z"/>
<path d="M5724 2009 c-10 -17 13 -36 27 -22 12 12 4 33 -11 33 -5 0 -12 -5
-16 -11z"/>
<path d="M5963 1983 c-26 -9 -12 -32 24 -42 20 -6 40 -8 45 -5 7 5 12 34 5 34
-1 0 -16 4 -32 8 -17 5 -36 7 -42 5z"/>
<path d="M8900 1975 c0 -9 5 -15 10 -13 12 4 11 16 -1 24 -5 3 -9 -2 -9 -11z"/>
<path d="M7935 1930 c-3 -5 1 -10 9 -10 9 0 16 5 16 10 0 6 -4 10 -9 10 -6 0
-13 -4 -16 -10z"/>
<path d="M8610 1915 c0 -8 4 -15 9 -15 5 0 14 7 21 15 10 13 9 15 -9 15 -12 0
-21 -6 -21 -15z"/>
<path d="M6778 1909 c-10 -5 -18 -17 -18 -25 0 -12 10 -14 43 -12 34 2 42 7
42 23 0 23 -39 31 -67 14z"/>
<path d="M5680 1895 c0 -8 5 -15 10 -15 6 0 10 7 10 15 0 8 -4 15 -10 15 -5 0
-10 -7 -10 -15z"/>
<path d="M7062 1888 c7 -19 38 -22 38 -4 0 10 -9 16 -21 16 -12 0 -19 -5 -17
-12z"/>
<path d="M7461 1886 c-15 -18 8 -37 37 -29 27 7 28 19 3 33 -25 13 -26 13 -40
-4z"/>
<path d="M7660 1885 c0 -8 5 -15 10 -15 6 0 10 7 10 15 0 8 -4 15 -10 15 -5 0
-10 -7 -10 -15z"/>
<path d="M8130 1884 c0 -9 5 -14 12 -12 18 6 21 28 4 28 -9 0 -16 -7 -16 -16z"/>
<path d="M6140 1850 c0 -5 7 -10 15 -10 8 0 15 5 15 10 0 6 -7 10 -15 10 -8 0
-15 -4 -15 -10z"/>
<path d="M7332 1838 c6 -18 28 -21 28 -4 0 9 -7 16 -16 16 -9 0 -14 -5 -12
-12z"/>
<path d="M8597 1844 c-8 -8 1 -24 14 -24 5 0 9 7 9 15 0 15 -12 20 -23 9z"/>
<path d="M8700 1840 c-18 -11 -4 -42 17 -38 10 2 19 10 21 19 4 19 -19 31 -38
19z"/>
<path d="M6360 1796 c0 -19 11 -28 60 -50 67 -30 95 -31 95 -1 0 24 -86 74
-127 75 -23 0 -28 -4 -28 -24z"/>
<path d="M7812 1808 c6 -18 28 -21 28 -4 0 9 -7 16 -16 16 -9 0 -14 -5 -12
-12z"/>
<path d="M7102 1782 c-7 -2 -12 -10 -12 -18 0 -16 65 -20 75 -5 10 17 -34 33
-63 23z"/>
<path d="M8080 1764 c0 -17 22 -14 28 4 2 7 -3 12 -12 12 -9 0 -16 -7 -16 -16z"/>
<path d="M5693 1763 c-7 -2 -13 -13 -13 -24 0 -14 7 -19 25 -19 29 0 45 28 24
41 -15 10 -18 10 -36 2z"/>
<path d="M7703 1760 c-45 -18 -17 -48 33 -36 17 5 24 12 22 24 -4 20 -24 24
-55 12z"/>
<path d="M6845 1750 c-11 -18 5 -30 41 -30 22 0 34 5 34 14 0 24 -62 37 -75
16z"/>
<path d="M5810 1700 c-13 -9 -12 -13 9 -30 31 -27 91 -27 91 -1 0 12 -9 20
-27 24 -16 3 -35 8 -43 11 -8 3 -22 1 -30 -4z"/>
<path d="M6100 1695 c-18 -21 -5 -32 51 -44 56 -12 69 -9 69 18 0 35 -95 56
-120 26z"/>
<path d="M6677 1693 c-13 -12 -7 -33 8 -33 8 0 15 9 15 20 0 20 -11 26 -23 13z"/>
<path d="M6540 1670 c0 -19 20 -27 33 -13 8 7 -11 33 -24 33 -5 0 -9 -9 -9
-20z"/>
<path d="M6280 1630 c0 -5 5 -10 10 -10 6 0 10 5 10 10 0 6 -4 10 -10 10 -5 0
-10 -4 -10 -10z"/>
<path d="M7075 1631 c-8 -15 3 -31 21 -31 9 0 14 7 12 17 -4 20 -24 28 -33 14z"/>
<path d="M7700 1616 c0 -11 9 -16 26 -16 31 0 28 23 -4 28 -15 2 -22 -2 -22
-12z"/>
<path d="M4602 2103 c4 -22 43 -25 43 -3 0 8 -11 16 -23 18 -19 3 -23 0 -20
-15z"/>
<path d="M6233 6088 c-22 -28 -22 -49 -2 -69 36 -36 71 -2 48 46 -16 33 -32
41 -46 23z"/>
<path d="M6384 6016 c-8 -22 2 -46 21 -46 19 0 20 34 0 50 -12 10 -16 9 -21
-4z"/>
<path d="M6207 5973 c-13 -12 -7 -81 8 -93 40 -33 82 27 51 74 -16 25 -45 34
-59 19z"/>
<path d="M6472 5962 c-35 -35 -8 -97 40 -90 19 3 23 9 23 42 0 29 -6 42 -22
53 -19 13 -24 12 -41 -5z"/>
<path d="M6332 5913 c3 -32 32 -43 42 -17 7 19 -10 44 -31 44 -10 0 -13 -9
-11 -27z"/>
<path d="M2717 10086 c-39 -14 -108 -58 -128 -82 -13 -16 -4 -34 18 -34 8 0
28 9 43 20 81 58 198 67 306 25 38 -15 85 -36 105 -46 52 -26 194 -182 224
-246 24 -50 66 -86 82 -70 23 24 -60 165 -163 276 -68 73 -127 109 -251 152
-66 22 -179 25 -236 5z"/>
<path d="M4065 8730 c-3 -6 1 -7 9 -4 18 7 21 14 7 14 -6 0 -13 -4 -16 -10z"/>
</g>
</svg>
