<?xml version="1.0" standalone="no"?>
<!DOCTYPE svg PUBLIC "-//W3C//DTD SVG 20010904//EN"
 "http://www.w3.org/TR/2001/REC-SVG-20010904/DTD/svg10.dtd">
<svg version="1.0" xmlns="http://www.w3.org/2000/svg"
 width="1249.000000pt" height="1249.000000pt" viewBox="0 0 1249.000000 1249.000000"
 preserveAspectRatio="xMidYMid meet">
<metadata>
Created by potrace 1.16, written by Peter Selinger 2001-2019
</metadata>
<g transform="translate(0.000000,1249.000000) scale(0.100000,-0.100000)"
fill="#000000" stroke="none">
<path d="M0 6245 l0 -6245 6245 0 6245 0 0 6245 0 6245 -6245 0 -6245 0 0
-6245z m6675 6140 c240 -22 309 -30 455 -50 1856 -264 3514 -1389 4455 -3025
124 -215 296 -567 366 -749 9 -22 8 -23 -23 -17 -17 3 -147 15 -287 26 -318
25 -356 34 -463 112 -138 100 -245 138 -396 138 -111 0 -131 12 -187 109 -79
137 -173 205 -327 237 -40 8 -84 23 -98 34 -165 129 -348 190 -570 190 -77 0
-83 2 -192 58 -131 67 -293 123 -428 148 -52 10 -96 18 -98 19 -1 1 36 80 82
176 137 282 233 528 315 799 69 230 84 310 84 455 0 186 -23 228 -160 291
-183 84 -383 123 -526 104 -83 -12 -365 -109 -483 -167 -104 -51 -174 -156
-174 -263 0 -50 -13 -73 -106 -188 -71 -88 -81 -168 -29 -230 20 -24 31 -67
64 -243 23 -118 45 -250 51 -294 12 -97 15 -273 5 -337 -7 -45 -8 -47 -49 -53
-22 -4 -66 -13 -98 -22 l-56 -15 15 -36 c8 -19 12 -43 10 -54 -6 -22 -9 -22
39 1 22 11 52 23 67 26 24 6 26 5 20 -11 -12 -33 -95 -158 -142 -213 -75 -89
-205 -187 -396 -303 l-90 -54 -105 27 c-58 15 -119 28 -136 28 -54 1 -128 -27
-169 -65 l-40 -37 -245 7 c-135 3 -311 11 -392 18 -126 10 -148 14 -148 28 0
61 129 84 520 95 124 4 227 8 230 10 3 1 76 6 164 10 87 4 167 8 176 10 10 2
76 7 147 10 70 4 130 9 132 11 2 2 -15 11 -38 20 -22 9 -41 21 -41 27 0 22 71
94 118 120 28 15 75 30 104 34 65 7 89 21 117 69 19 32 20 36 4 30 -34 -13
-138 -35 -225 -47 -77 -11 -93 -16 -128 -47 -45 -38 -70 -79 -70 -115 0 -14
-8 -34 -17 -45 -17 -19 -37 -21 -483 -32 -256 -6 -487 -14 -515 -16 -122 -12
-192 -27 -244 -52 -49 -23 -56 -31 -59 -59 -4 -42 23 -68 90 -87 56 -16 326
-35 518 -37 154 -1 161 -3 111 -39 -21 -16 -45 -37 -53 -48 -7 -11 -31 -27
-53 -36 -58 -25 -103 -62 -125 -106 l-20 -39 -74 35 c-57 27 -92 37 -150 41
-97 7 -117 22 -208 150 -80 113 -185 224 -244 259 -65 38 -177 56 -379 60
-315 5 -580 -48 -810 -163 -205 -103 -260 -158 -373 -373 -116 -221 -149 -366
-139 -609 12 -284 120 -661 244 -849 86 -130 164 -188 455 -333 81 -41 148
-77 148 -81 0 -4 -17 -16 -38 -27 -45 -23 -220 -179 -278 -247 -31 -37 -52
-52 -85 -61 -55 -15 -313 -204 -367 -270 -42 -51 -113 -102 -220 -158 -40 -21
-86 -54 -103 -74 -18 -20 -63 -68 -101 -108 l-69 -72 -172 -16 c-95 -8 -200
-20 -232 -25 -119 -20 -274 -20 -375 1 -116 23 -367 25 -445 3 -39 -10 -115
-12 -355 -9 -168 3 -318 6 -335 8 -16 2 -102 -2 -191 -9 -157 -12 -162 -13
-266 -58 -58 -25 -115 -46 -126 -46 -12 0 -38 21 -65 52 l-44 51 -99 11 c-103
11 -408 12 -450 2 -13 -4 -39 -20 -59 -37 -31 -27 -35 -29 -35 -12 0 53 -70
72 -205 54 -48 -7 -89 -10 -91 -9 -17 18 -25 687 -11 918 8 135 9 145 37 385
116 966 490 1938 1060 2750 l97 139 49 -2 c27 -2 96 -7 154 -12 58 -6 130 -12
160 -15 237 -21 266 -26 318 -51 52 -25 66 -40 125 -134 50 -78 161 -99 672
-125 245 -12 601 -39 995 -75 423 -39 498 -44 825 -55 146 -5 426 -19 600 -30
39 -2 131 -7 205 -10 74 -3 230 -10 345 -15 525 -25 1169 -23 1347 5 12 2 52
6 88 9 216 21 440 55 510 78 79 25 107 67 80 118 -16 30 -107 52 -305 74 -60
6 -68 12 -98 71 -37 69 -101 114 -229 160 -182 65 -307 76 -668 62 l-55 -2 -2
83 c-5 232 -111 348 -357 393 l-68 13 9 55 c15 104 9 192 -19 251 -47 103
-117 151 -251 172 -92 14 -176 -3 -254 -51 -71 -44 -95 -41 -119 12 -10 23
-51 74 -91 114 l-73 72 0 68 c-1 209 -88 371 -239 446 -61 30 -73 32 -177 33
l-112 2 -53 42 c-101 81 -253 132 -429 146 -197 15 -321 -48 -440 -224 -29
-42 -60 -83 -68 -89 -10 -8 -48 -13 -102 -13 -106 0 -176 -18 -282 -71 -161
-81 -207 -130 -208 -221 0 -55 -7 -65 -72 -100 -66 -35 -100 -73 -123 -137
-21 -59 -19 -113 6 -170 17 -41 49 -71 75 -71 3 0 2 26 -2 58 -13 115 35 201
138 251 l63 30 1 53 c1 63 19 101 71 152 46 45 193 119 285 143 65 17 70 17
140 -1 83 -22 75 -26 137 84 47 82 136 171 203 203 77 36 138 49 243 50 159 1
277 -49 369 -157 27 -31 58 -59 70 -62 12 -3 46 4 74 15 97 38 170 23 245 -52
21 -21 52 -66 68 -100 29 -60 30 -66 27 -193 -3 -148 0 -157 74 -195 50 -26
105 -81 124 -127 8 -20 17 -66 20 -101 6 -80 21 -112 58 -124 26 -9 32 -7 45
14 8 13 42 51 75 84 128 128 309 155 385 59 53 -68 50 -166 -9 -291 -33 -72
-36 -90 -18 -128 14 -32 45 -40 106 -29 26 5 81 9 122 9 64 0 82 -4 122 -28
107 -62 135 -149 107 -328 -22 -141 19 -169 192 -134 85 17 275 35 322 30 18
-2 65 -6 104 -10 134 -12 285 -65 344 -121 19 -18 29 -40 33 -75 9 -67 28 -78
152 -86 133 -8 193 -37 136 -67 -66 -34 -432 -83 -772 -103 -227 -13 -946 -6
-1280 13 -52 3 -126 7 -165 9 -38 2 -167 9 -285 15 -118 5 -300 15 -405 20
-104 6 -237 13 -295 15 -58 3 -139 8 -180 10 -276 18 -397 27 -485 36 -307 30
-524 48 -630 54 -66 4 -131 8 -145 10 -14 2 -108 6 -210 10 -211 7 -409 22
-482 35 -72 14 -105 38 -145 103 -64 106 -156 138 -458 162 -38 3 -92 7 -120
10 -27 2 -81 7 -120 11 -38 3 -72 8 -74 10 -5 4 218 281 248 308 28 25 182 34
287 16 l75 -13 48 54 c66 74 133 109 224 117 40 4 90 5 113 2 50 -7 64 -3 64
18 0 8 7 42 16 73 33 118 134 192 259 193 39 1 84 -2 100 -7 22 -5 18 -1 -15
15 -37 19 -62 23 -140 23 -82 0 -103 -4 -152 -27 -66 -31 -115 -90 -125 -150
-11 -72 -27 -81 -144 -88 -123 -7 -186 -31 -267 -104 l-53 -46 -100 1 c-55 1
-102 5 -105 10 -3 5 45 62 107 126 796 839 1806 1435 2929 1727 373 98 905
178 1220 185 46 1 87 4 90 7 6 7 569 -3 655 -11z m2288 -1110 c47 -8 72 -42
62 -82 -8 -33 -33 -63 -52 -63 -18 0 -17 4 13 51 34 54 21 64 -21 15 -21 -25
-37 -36 -45 -31 -9 5 -29 -10 -61 -44 -63 -68 -82 -57 -28 15 23 30 39 58 35
61 -4 4 -36 -24 -72 -62 -58 -62 -66 -65 -47 -17 11 27 -51 -1 -88 -41 -43
-45 -68 -43 -43 4 27 53 9 56 -21 4 -16 -28 -41 -65 -57 -83 -15 -17 -39 -57
-52 -87 -14 -30 -34 -63 -43 -72 -10 -10 -29 -33 -41 -51 -24 -33 -59 -58 -70
-48 -3 3 5 17 18 31 13 14 21 28 17 31 -11 11 -56 -24 -72 -55 -16 -32 -23
-36 -104 -51 -78 -15 -121 0 -121 42 0 16 7 44 15 62 18 37 73 106 84 106 5 0
11 -26 15 -57 9 -77 17 -89 45 -71 42 25 151 181 138 195 -7 6 -82 -89 -110
-139 -27 -46 -37 -48 -38 -5 -2 56 2 75 27 139 31 80 31 121 -1 55 -29 -61
-40 -71 -32 -30 4 18 2 35 -3 38 -6 3 -10 17 -10 30 0 63 256 183 463 218 74
12 198 9 300 -8z m237 -330 c-24 -79 -111 -185 -185 -223 -11 -5 -42 -14 -70
-18 l-50 -8 35 -7 c70 -15 124 7 196 78 26 26 45 41 42 33 -3 -8 -17 -58 -32
-110 -39 -135 -44 -146 -82 -175 -64 -49 -117 -66 -178 -59 -47 6 -56 4 -56
-9 0 -33 147 -35 210 -2 17 9 30 12 30 7 0 -4 -14 -48 -30 -97 -44 -130 -102
-183 -187 -171 -33 4 -43 2 -43 -9 0 -19 58 -29 115 -21 l44 7 -13 -43 c-7
-24 -21 -69 -30 -100 -21 -73 -51 -98 -117 -98 -48 0 -64 -12 -33 -24 9 -3 33
-6 55 -6 49 0 49 -9 4 -86 -41 -68 -72 -97 -96 -91 -22 6 -43 -8 -35 -22 4 -6
18 -11 32 -11 29 0 30 -12 4 -67 -18 -41 -26 -47 -60 -44 -8 0 -22 -4 -30 -9
-13 -9 -13 -12 4 -25 18 -13 18 -15 -4 -44 -12 -17 -33 -34 -46 -37 -20 -5
-24 -11 -20 -29 4 -14 -3 -32 -17 -51 -53 -72 -170 -204 -200 -227 -17 -13
-70 -59 -116 -101 -47 -42 -93 -76 -103 -76 -24 0 -23 16 4 34 43 30 301 323
346 393 150 230 202 346 222 489 6 44 20 132 31 195 38 211 41 278 24 671 -8
176 -9 173 70 176 92 5 159 34 250 108 31 25 71 52 88 59 l32 13 3 -61 c2 -34
-2 -80 -8 -102z m-512 -57 c7 -7 12 -24 12 -39 0 -15 7 -58 16 -96 13 -56 15
-107 11 -283 -3 -118 -8 -226 -11 -240 -4 -14 -11 -82 -16 -151 -17 -220 -65
-367 -166 -511 -30 -42 -54 -79 -54 -83 0 -16 -135 -213 -169 -245 -20 -20
-76 -79 -124 -133 -81 -89 -172 -165 -242 -201 -21 -11 -34 -12 -49 -4 -26 13
-55 48 -56 66 0 14 131 146 207 209 25 20 56 36 73 38 36 3 49 13 31 24 -11 7
-10 15 5 40 19 32 52 48 79 37 19 -7 19 3 0 24 -14 15 -12 22 23 66 79 102
141 217 122 229 -12 7 -26 -8 -115 -131 -40 -56 -77 -104 -82 -107 -11 -7 -83
27 -94 44 -4 6 2 33 13 60 20 47 21 48 47 35 26 -14 52 -19 84 -17 27 2 20 18
-10 24 -16 4 -42 15 -60 26 -31 20 -31 20 -19 63 15 48 13 47 76 29 34 -10 53
-10 82 -2 55 17 46 30 -15 24 -38 -4 -62 -1 -84 10 l-30 16 1 162 1 163 56 -3
c83 -4 130 20 194 96 51 60 68 93 46 93 -5 0 -35 -30 -67 -66 -67 -76 -97 -94
-156 -94 -69 0 -88 20 -88 90 l0 60 59 -6 c102 -11 123 -2 222 93 49 47 89 90
89 94 0 23 -35 4 -92 -50 -121 -112 -167 -130 -238 -93 -35 19 -42 34 -54 115
l-7 47 43 -6 c60 -8 163 19 213 56 22 17 77 55 123 85 75 51 99 75 71 75 -17
0 -127 -67 -188 -115 -88 -69 -225 -96 -267 -53 -11 11 -53 142 -54 169 0 3
51 3 113 1 l112 -4 91 46 c97 49 181 120 227 194 28 43 44 51 65 30z m342
-1365 c149 -32 281 -82 405 -152 l100 -56 150 -1 c125 0 161 -4 215 -22 75
-25 158 -72 227 -131 42 -35 60 -43 130 -55 152 -26 229 -81 308 -217 69 -119
92 -131 263 -139 164 -8 210 -23 318 -105 121 -91 209 -120 394 -129 58 -3
152 -8 210 -11 100 -5 229 -20 235 -27 1 -2 14 -34 28 -72 l26 -68 -117 7
c-123 7 -279 21 -602 54 -107 11 -231 23 -275 27 -44 3 -93 8 -110 10 -48 6
-436 5 -501 -2 -32 -3 -111 -12 -174 -20 -148 -18 -273 -18 -337 1 -28 8 -78
35 -110 59 -72 54 -109 73 -164 85 -88 20 -381 40 -649 46 -491 10 -584 18
-721 61 -87 27 -133 56 -160 99 l-18 31 182 121 c101 67 207 143 237 170 72
64 150 171 246 336 l79 137 35 -6 c19 -3 87 -17 150 -31z m-888 -142 c14 -5 7
-18 -41 -76 -32 -39 -99 -107 -149 -153 -87 -80 -92 -83 -124 -74 -18 4 -33
13 -33 18 0 5 46 51 103 103 67 60 114 113 134 148 29 51 32 54 62 47 17 -4
39 -9 48 -13z m-319 -328 c11 -7 -18 -38 -74 -79 -53 -39 -69 -42 -93 -15 -16
17 -15 19 10 36 17 11 36 15 55 11 33 -6 47 8 22 22 -15 9 -15 12 -3 26 12 16
56 15 83 -1z m-2303 -29 c49 -9 70 -22 70 -42 0 -27 -88 -170 -113 -184 -14
-7 -97 -15 -222 -19 -110 -4 -218 -13 -240 -19 -22 -6 -56 -15 -77 -20 -44
-12 -207 -77 -222 -89 -6 -5 -36 -19 -67 -30 -131 -49 -255 -174 -326 -329
-29 -62 -40 -104 -57 -219 -11 -79 -24 -143 -28 -143 -8 0 -3 218 8 318 12
118 101 353 171 455 24 34 74 77 159 134 46 32 235 111 318 133 39 11 134 27
211 35 77 9 158 20 180 25 40 9 169 5 235 -6z m2587 -80 c2 -5 -23 -24 -54
-40 -32 -17 -76 -42 -97 -54 -73 -44 -33 3 50 57 76 51 94 58 101 37z m-476
-4 c28 -15 24 -28 -16 -47 -27 -13 -38 -14 -47 -5 -9 9 -6 18 12 37 27 29 25
28 51 15z m189 -9 c0 -5 11 -23 25 -39 l24 -29 -40 -23 -41 -22 -29 28 c-37
35 -37 47 4 73 34 22 57 27 57 12z m-2126 -58 c-10 -90 -9 -93 24 -93 23 -1
34 -11 67 -66 22 -37 49 -72 60 -79 46 -30 190 -58 327 -64 130 -6 139 -8 161
-31 28 -29 57 -99 57 -138 0 -49 11 -74 30 -69 19 5 20 8 -11 -85 l-12 -37
-29 15 c-28 14 -29 17 -14 33 19 21 21 52 3 45 -7 -2 -20 9 -29 24 -17 28 -17
30 2 47 23 20 26 44 8 46 -43 4 -73 -18 -82 -62 -7 -37 6 -65 35 -74 16 -5 18
-10 8 -21 -19 -23 -67 -17 -95 12 -22 21 -25 31 -20 60 8 37 -7 46 -24 15 -17
-32 -11 -68 16 -100 l25 -30 -25 -7 c-24 -6 -36 -23 -18 -25 145 -16 215 -74
257 -214 28 -90 30 -117 14 -164 -8 -24 -8 -35 1 -46 11 -14 15 -14 30 0 22
20 26 14 33 -55 9 -79 -26 -168 -74 -192 -19 -9 -48 -17 -66 -18 -23 0 -33 -6
-38 -21 -6 -17 -13 -20 -38 -15 -18 3 -56 8 -84 12 -56 7 -65 17 -33 34 11 6
20 15 20 20 0 18 -26 10 -50 -15 -17 -18 -34 -25 -63 -25 -30 0 -40 -4 -44
-19 -6 -24 -32 -36 -47 -21 -7 7 -6 14 2 22 7 7 12 19 12 28 0 9 -10 3 -28
-18 -25 -30 -30 -32 -56 -22 -30 11 -30 13 18 68 36 41 -7 25 -49 -18 -44 -45
-61 -50 -70 -19 -5 15 5 37 35 80 65 92 42 100 -29 9 l-19 -25 -13 28 c-9 20
-9 33 -2 50 10 21 9 23 -16 20 -14 -2 -33 1 -41 6 -12 9 -12 12 1 28 25 28 30
41 20 48 -6 3 -29 -18 -52 -47 -41 -53 -72 -77 -98 -78 -11 0 -9 6 6 23 11 12
30 38 43 57 21 30 21 33 5 20 -46 -33 -68 -57 -86 -91 -16 -33 -62 -60 -76
-46 -2 3 16 38 42 80 25 41 45 77 45 81 0 20 -24 -3 -66 -64 -26 -38 -49 -68
-51 -66 -2 1 6 24 18 50 27 61 18 70 -17 17 -24 -38 -28 -40 -40 -24 -20 27
-17 44 20 124 43 91 51 119 36 119 -6 0 -27 -34 -47 -75 -19 -41 -39 -77 -43
-80 -8 -5 -40 65 -40 88 0 6 13 46 30 87 31 79 35 100 21 100 -5 0 -19 -27
-31 -60 -12 -33 -26 -60 -31 -60 -18 0 -21 70 -5 116 22 66 21 87 -5 79 -19
-6 -20 -3 -18 85 1 51 8 127 16 169 8 42 16 91 18 110 5 44 90 169 120 177 34
8 101 84 115 129 13 42 43 96 64 118 7 7 18 22 25 35 6 12 18 22 26 22 12 0
14 -11 9 -57z m-64 27 c0 -11 -32 -65 -77 -132 -25 -38 -43 -48 -43 -27 0 13
65 125 88 152 17 19 32 22 32 7z m209 -100 c26 -31 32 -46 27 -65 -4 -14 -10
-25 -15 -25 -25 0 -91 121 -91 164 1 19 2 19 23 -7 12 -15 37 -46 56 -67z
m1350 65 c30 -15 81 -70 81 -86 0 -14 -26 -10 -40 6 -12 14 -15 14 -31 -1 -18
-16 -19 -16 -20 2 -3 53 -11 57 -40 20 -21 -27 -22 -29 -5 -55 9 -14 37 -66
61 -114 37 -73 41 -86 24 -76 -29 15 -65 4 -85 -26 -22 -34 -44 -31 -89 12
-34 33 -105 166 -105 197 0 21 67 120 87 127 32 13 133 10 162 -6z m346 5 c10
-16 -43 -36 -58 -21 -9 9 -9 14 3 21 20 13 47 13 55 0z m183 -35 c12 -19 22
-37 22 -40 0 -2 -17 -13 -39 -24 l-38 -20 -27 28 c-34 36 -34 64 2 78 44 18
56 15 80 -22z m-277 -25 c-13 -11 -31 -20 -40 -20 -12 0 -10 5 9 20 34 27 63
26 31 0z m139 1 c0 -5 11 -23 25 -39 l25 -30 -34 -16 c-19 -9 -38 -16 -44 -16
-14 0 -29 21 -37 52 -6 22 -2 29 22 42 33 18 43 19 43 7z m298 -3 c-5 -15 -48
-24 -48 -10 0 14 12 22 33 22 10 0 17 -5 15 -12z m-968 -62 c0 -57 50 -180 90
-221 34 -35 79 -61 120 -69 30 -6 130 -92 130 -111 0 -29 -19 -24 -40 10 -23
37 -64 55 -83 36 -18 -18 -42 -13 -68 15 -13 14 -87 71 -164 126 -136 96 -158
118 -147 146 5 14 139 112 154 112 4 0 8 -20 8 -44z m578 -57 c-22 -14 -65
-10 -72 7 -13 35 -6 51 32 66 l37 14 8 -39 c7 -30 5 -42 -5 -48z m297 72 c7
-13 -27 -31 -57 -31 -15 0 -27 -8 -33 -22 -6 -15 -21 -24 -39 -26 -16 -2 -39
-10 -52 -18 -14 -9 -24 -11 -28 -5 -8 12 -5 13 104 67 95 47 96 48 105 35z
m299 -18 c36 -71 108 -109 271 -148 131 -32 283 -43 660 -50 550 -9 674 -27
771 -107 120 -99 278 -123 569 -84 66 8 154 18 195 22 102 10 380 10 460 0 36
-4 128 -14 205 -21 77 -8 223 -24 325 -35 102 -11 239 -25 305 -31 66 -6 142
-13 170 -17 l49 -7 49 -150 c165 -511 267 -1097 283 -1615 3 -102 7 -193 9
-203 4 -22 -12 -498 -19 -548 -3 -19 -7 -65 -11 -104 -32 -377 -129 -850 -255
-1254 -45 -143 -144 -418 -154 -428 -2 -3 -39 1 -81 7 -82 12 -160 37 -295 94
-47 20 -93 36 -102 36 -9 0 -29 11 -45 24 -17 14 -68 34 -126 50 -126 33 -211
69 -356 150 -127 71 -223 110 -346 144 -44 12 -123 33 -175 47 -52 14 -124 42
-160 62 -36 20 -125 67 -199 106 l-134 70 -61 -8 c-96 -11 -109 -9 -131 19
-39 49 -258 137 -412 166 -60 11 -133 26 -163 35 -30 8 -91 15 -136 15 -87 0
-129 10 -184 46 -19 12 -52 25 -72 28 -20 4 -81 27 -135 52 -139 65 -284 111
-388 124 -49 6 -114 19 -144 28 -51 16 -54 19 -72 70 -19 57 -50 112 -99 178
-21 27 -38 71 -55 138 -13 53 -36 122 -50 153 -29 64 -99 165 -144 207 l-30
29 35 40 c68 74 84 155 64 317 l-12 102 48 50 c27 27 135 107 239 178 105 71
228 164 275 207 47 43 157 142 246 219 198 175 285 269 375 402 125 187 182
326 182 449 0 73 -4 90 -33 149 -71 145 -250 275 -488 354 -99 32 -249 66
-500 110 -242 43 -233 36 -132 103 47 31 88 56 92 57 4 0 14 -12 22 -27z
m-704 -29 c15 -40 12 -53 -15 -60 -33 -8 -55 11 -55 47 0 27 3 29 53 38 4 0
12 -11 17 -25z m-1443 -8 c15 -13 25 -27 22 -30 -10 -10 -76 28 -72 42 7 18
18 15 50 -12z m-793 -13 c-13 -10 -20 -10 -23 -2 -4 14 19 30 33 22 5 -3 1
-12 -10 -20z m99 20 c11 -10 -13 -33 -34 -33 -22 0 -24 11 -7 28 13 13 31 16
41 5z m127 -7 c0 -8 -7 -16 -15 -20 -17 -6 -18 -4 -9 18 8 20 24 21 24 2z m88
-13 c-2 -10 -11 -19 -21 -21 -16 -3 -17 -1 -5 17 16 25 31 27 26 4z m1822 -14
c0 -26 -3 -30 -22 -27 -17 2 -24 11 -26 31 -3 23 0 27 22 27 22 0 26 -4 26
-31z m-2253 -4 c-34 -30 -52 -33 -37 -6 10 20 25 29 50 30 10 0 5 -9 -13 -24z
m-113 -30 c-10 -16 -20 -23 -22 -16 -4 12 28 55 35 47 3 -2 -3 -17 -13 -31z
m1796 -17 c10 -23 54 -59 146 -123 143 -98 257 -190 262 -211 2 -8 -20 2 -48
21 -29 19 -58 35 -64 35 -13 0 -38 -22 -59 -52 -11 -16 -17 -15 -91 11 -65 23
-82 33 -95 59 -9 18 -31 48 -50 67 -28 30 -39 35 -76 35 -40 0 -45 3 -61 35
-15 33 -15 36 3 67 18 30 24 33 61 30 42 -2 57 10 26 22 -13 5 -14 9 -4 21 19
23 34 18 50 -17z m820 9 c0 -27 -136 -77 -212 -77 -31 0 -38 4 -38 19 0 15 9
19 58 23 31 3 84 16 117 30 61 25 75 26 75 5z m-2690 3 c0 -17 -47 -60 -65
-60 -14 0 -14 3 0 29 8 16 25 32 37 34 13 2 24 5 26 6 1 0 2 -4 2 -9z m458 4
c17 -5 21 -11 16 -23 -31 -75 -58 -171 -85 -306 -35 -179 -34 -220 7 -344 14
-41 29 -104 33 -140 10 -75 24 -116 44 -128 16 -10 67 -84 95 -139 12 -23 30
-44 42 -47 29 -7 134 19 193 49 41 20 53 22 63 12 7 -7 27 -60 44 -118 18 -58
50 -145 72 -193 22 -48 42 -103 45 -122 5 -32 3 -35 -44 -58 -106 -54 -179
-69 -357 -70 l-164 -2 -47 78 c-73 122 -94 95 -24 -32 l40 -75 -16 -54 -17
-53 -24 22 c-13 12 -29 38 -35 58 -6 20 -17 43 -25 51 -7 8 -24 46 -37 83 -14
38 -28 71 -31 74 -3 4 -14 -1 -24 -10 -10 -10 -35 -17 -56 -17 -31 0 -40 5
-57 35 -23 39 -41 37 -37 -3 3 -24 -1 -27 -29 -30 -28 -3 -35 2 -59 37 -54 82
-56 38 -4 -73 35 -74 37 -86 10 -86 -11 0 -20 -4 -20 -10 0 -5 11 -10 24 -10
14 0 38 -11 53 -25 l28 -25 -53 20 c-29 11 -54 20 -56 20 -11 0 -70 108 -111
202 -50 115 -84 162 -70 98 4 -19 23 -75 41 -124 19 -49 33 -94 31 -100 -2 -6
-27 12 -55 38 -46 43 -55 59 -78 132 -14 46 -29 86 -35 89 -13 9 -11 -14 6
-70 8 -27 12 -51 9 -54 -8 -8 -114 102 -139 144 -68 117 -106 285 -99 440 9
191 10 197 65 330 63 155 79 179 175 255 176 140 208 157 489 260 51 19 213
27 263 14z m717 -4 c3 -5 -1 -10 -9 -10 -9 0 -16 5 -16 10 0 6 4 10 9 10 6 0
13 -4 16 -10z m-1275 -25 c0 -10 -49 -83 -60 -90 -30 -18 -22 27 11 69 18 23
49 36 49 21z m2980 -90 c38 -24 82 -51 97 -58 37 -20 192 -61 200 -54 12 12
-7 37 -39 52 l-33 14 50 -5 c28 -3 75 -12 105 -19 30 -8 129 -28 220 -45 110
-21 180 -40 211 -57 31 -16 54 -23 68 -18 28 9 192 -82 264 -146 59 -52 84
-109 94 -209 4 -45 0 -68 -20 -118 -44 -110 -110 -214 -192 -302 -44 -48 -109
-119 -143 -159 -83 -94 -435 -413 -537 -487 -44 -32 -119 -85 -167 -118 -48
-34 -120 -88 -161 -122 -66 -54 -77 -60 -111 -56 -31 4 -45 14 -83 61 -58 73
-60 78 -32 107 l23 24 -22 28 c-12 15 -35 49 -50 75 -15 27 -48 79 -74 115
-33 45 -48 77 -48 97 0 47 -21 69 -66 70 -27 0 -38 4 -36 13 1 7 8 33 14 57
10 38 9 49 -7 86 l-19 42 34 29 c19 16 73 48 120 71 216 105 377 206 450 281
49 51 52 52 74 30 12 -11 13 -20 6 -34 -18 -34 -11 -44 15 -20 24 23 25 23 46
5 12 -11 18 -27 15 -38 -3 -14 0 -16 15 -12 19 6 79 -28 79 -45 0 -4 -21 -31
-46 -59 -59 -65 -42 -66 27 -1 29 28 54 50 55 50 2 0 15 -5 29 -10 l26 -10
-20 -29 c-29 -40 -15 -45 29 -10 34 28 42 30 84 24 57 -9 116 1 116 20 0 16
-15 21 -95 30 -108 12 -190 52 -290 138 -39 34 -39 36 -22 54 17 20 23 43 10
43 -4 0 -17 -10 -29 -21 l-23 -21 -30 22 c-25 17 -29 25 -21 40 12 22 -6 38
-23 21 -15 -15 -57 -14 -57 2 0 6 12 23 26 37 36 34 12 38 -35 6 -33 -23 -71
-34 -71 -21 0 3 5 14 12 25 18 29 1 37 -25 12 -24 -23 -61 -29 -72 -12 -3 5
10 32 30 61 36 53 38 84 3 52 -11 -10 -34 -37 -50 -60 -28 -42 -48 -55 -48
-32 0 7 14 34 30 61 35 56 35 58 15 58 -8 0 -31 -25 -51 -55 -20 -30 -43 -55
-50 -55 -18 0 -18 3 6 42 26 43 25 51 -5 44 -22 -6 -24 -4 -16 16 4 13 11 42
15 66 9 57 -19 59 -34 2 -17 -63 -49 -133 -73 -158 -53 -57 -173 -97 -317
-107 -52 -3 -113 -10 -135 -15 -76 -18 -113 -12 -209 35 -173 84 -229 156
-195 253 8 22 18 32 37 34 24 3 28 10 41 66 14 59 13 66 -4 98 -21 39 -16 49
18 40 30 -7 83 -86 92 -136 3 -19 0 -64 -8 -100 -7 -36 -12 -71 -9 -78 5 -17
49 -15 56 3 9 25 24 17 18 -10 -4 -25 11 -34 24 -14 4 8 9 7 15 -2 7 -11 11
-10 23 6 13 17 17 18 25 5 8 -12 12 -12 29 3 10 9 29 17 42 17 12 0 33 11 45
24 15 16 30 23 43 19 22 -5 71 17 91 41 8 9 32 21 54 27 46 12 87 37 87 52 0
5 16 29 35 52 19 23 40 54 46 69 21 46 216 155 277 156 13 0 54 -20 92 -45z
m-3114 -19 c-15 -36 -63 -92 -72 -83 -6 6 33 75 59 104 27 30 31 23 13 -21z
m2611 7 c14 -20 14 -23 -1 -29 -21 -8 -46 13 -46 38 0 26 28 20 47 -9z m93
-18 c-14 -17 -30 -20 -30 -6 0 5 8 12 18 14 9 3 19 5 21 6 2 0 -2 -6 -9 -14z
m-740 -49 c0 -6 -10 -34 -22 -63 l-22 -53 -28 27 c-37 35 -35 50 9 95 35 35
39 37 50 21 7 -9 13 -22 13 -27z m-2078 -18 c-7 -7 -12 -22 -12 -33 0 -12 -11
-32 -25 -45 -20 -19 -25 -20 -25 -7 0 26 20 71 37 85 21 16 41 16 25 0z m2818
-48 c-12 -23 -30 -27 -30 -7 0 17 10 27 27 27 11 0 11 -5 3 -20z m-130 -37
c31 -34 31 -37 14 -50 -27 -20 -43 -16 -50 12 -3 13 -12 29 -20 36 -11 9 -11
15 -3 25 17 20 24 18 59 -23z m-575 -37 c-5 -22 -13 -36 -22 -36 -12 0 -14 8
-8 37 9 47 15 57 27 45 5 -5 6 -26 3 -46z m-2251 -91 c-50 -104 -57 -98 -15
13 16 42 32 86 36 97 7 20 7 20 15 0 6 -15 -4 -45 -36 -110z m2690 84 c41 -24
42 -26 16 -57 l-18 -22 -36 21 c-41 24 -42 26 -20 57 18 27 15 27 58 1z m-207
-19 l33 -20 -16 -33 c-15 -32 -18 -34 -45 -23 -26 9 -29 15 -29 53 0 49 9 53
57 23z m101 -52 c18 -18 15 -48 -6 -48 -28 0 -56 25 -49 44 7 19 38 21 55 4z
m-628 -18 c0 -5 -4 -10 -10 -10 -5 0 -10 5 -10 10 0 6 5 10 10 10 6 0 10 -4
10 -10z m191 -30 c-21 -98 44 -190 184 -262 47 -24 83 -47 82 -53 -5 -15 -75
-23 -116 -14 -82 18 -190 193 -177 287 6 41 24 88 31 80 2 -2 0 -19 -4 -38z
m1046 -240 c103 -27 223 -70 223 -80 0 -4 -13 -25 -29 -47 -33 -46 -102 -99
-180 -138 -30 -15 -76 -42 -103 -60 -26 -19 -65 -39 -85 -45 -21 -7 -57 -23
-80 -36 l-43 -25 -29 22 c-37 27 -113 23 -184 -11 -63 -30 -70 -20 -14 19 46
31 134 127 158 171 7 14 13 56 13 96 l0 70 76 26 c41 14 93 32 115 41 53 21
70 21 162 -3z m-413 -501 c14 -17 26 -38 26 -47 0 -9 10 -33 21 -52 19 -31 21
-44 15 -122 -7 -98 -7 -99 56 -83 25 6 29 2 53 -47 15 -29 42 -69 60 -88 32
-35 105 -162 105 -184 0 -6 -9 -17 -20 -24 -11 -7 -20 -16 -20 -20 0 -4 18
-31 40 -61 22 -29 40 -59 40 -65 0 -7 8 -20 18 -29 10 -9 32 -44 49 -79 26
-52 35 -87 49 -196 12 -101 14 -136 5 -145 -16 -16 -89 -37 -131 -37 -34 0
-36 1 -59 68 -32 88 -57 127 -120 184 -45 40 -51 49 -42 67 6 11 11 27 11 35
0 8 12 27 26 41 31 32 28 64 -17 167 -16 36 -29 69 -29 73 0 8 -95 198 -153
305 -48 91 -102 176 -115 184 -6 3 -25 24 -42 45 l-31 40 23 22 c20 18 129 76
150 78 3 1 18 -13 32 -30z m-227 -141 c40 -38 123 -147 123 -163 0 -3 40 -81
89 -173 95 -178 151 -307 151 -348 0 -50 -51 -40 -65 13 -3 15 -15 37 -25 51
-11 13 -22 40 -26 61 -11 65 -90 213 -161 300 -37 46 -85 105 -106 132 -20 26
-58 60 -82 75 -25 14 -44 31 -42 38 5 15 66 56 84 56 7 0 34 -19 60 -42z
m-120 -90 c29 -18 66 -51 82 -73 17 -22 49 -62 72 -90 22 -27 62 -95 88 -150
82 -169 92 -189 111 -225 43 -82 70 -143 70 -161 0 -26 -23 -69 -49 -93 -18
-16 -25 -17 -46 -8 -14 7 -28 20 -32 29 -16 49 -56 130 -73 148 -10 11 -53 81
-95 155 -92 160 -177 281 -234 332 -23 20 -41 45 -41 56 0 27 68 111 90 112 3
0 29 -15 57 -32z m-750 -78 c36 -16 76 -30 88 -30 12 0 28 -6 34 -14 7 -8 28
-16 49 -19 109 -17 141 -25 180 -49 51 -30 88 -80 97 -132 8 -40 28 -66 51
-66 7 0 16 -12 20 -27 26 -119 52 -174 109 -240 24 -29 45 -43 61 -43 34 0 30
19 -19 82 -24 31 -54 79 -65 107 -44 100 -66 276 -42 322 31 56 97 -3 205
-185 46 -77 91 -150 100 -160 8 -11 18 -34 21 -53 6 -29 0 -40 -49 -101 -173
-208 -387 -377 -586 -462 l-94 -40 -82 83 c-44 45 -107 107 -140 137 -33 30
-88 88 -122 129 -81 97 -222 215 -298 251 -33 15 -113 42 -177 60 -65 18 -118
34 -118 37 0 3 16 24 36 46 29 35 35 49 33 82 -1 22 -1 48 0 57 1 21 50 48 86
48 22 0 25 -3 20 -20 -3 -11 -4 -20 -1 -20 3 0 15 9 26 20 20 20 70 28 70 12
0 -11 -51 -83 -97 -136 -33 -39 -42 -66 -23 -66 6 0 39 39 73 86 34 48 69 95
77 106 15 19 87 41 94 29 3 -4 -22 -46 -55 -94 -32 -49 -59 -92 -59 -97 0 -25
23 -2 95 94 70 94 81 105 120 115 24 6 47 11 50 11 9 0 -53 -84 -117 -159 -60
-68 -67 -81 -45 -80 14 0 167 181 189 224 21 40 53 68 72 63 13 -2 5 -19 -34
-77 -27 -41 -50 -82 -50 -93 0 -29 17 -13 69 67 53 81 77 149 68 195 -8 37 -3
37 80 0z m-952 -62 c10 -31 16 -60 13 -63 -4 -4 -20 -4 -37 0 -23 5 -35 17
-55 57 -14 28 -23 55 -20 60 3 5 22 8 42 6 35 -3 38 -6 57 -60z m-130 2 l25
-50 -34 0 c-36 0 -65 28 -80 78 -7 20 -4 22 28 22 33 0 38 -4 61 -50z m60
-117 c15 -23 15 -26 -2 -39 -21 -16 -24 -16 -39 -6 -13 8 -44 69 -38 75 12 12
65 -8 79 -30z m128 -18 c22 -45 22 -45 -7 -45 -16 0 -32 11 -45 29 -28 39 -26
51 7 51 23 0 32 -7 45 -35z m-73 -72 c13 -13 12 -14 -10 -8 -14 4 -32 14 -40
22 -13 13 -12 14 10 8 14 -4 32 -14 40 -22z m131 -3 c10 -6 19 -17 19 -24 0
-24 -28 -26 -55 -4 -21 16 -24 23 -13 29 17 11 25 11 49 -1z m32 -184 c12 -8
49 -21 82 -30 90 -23 224 -74 259 -99 76 -53 185 -153 229 -210 26 -34 130
-142 230 -240 157 -154 180 -180 166 -190 -28 -20 -59 -80 -59 -112 0 -40 16
-55 57 -55 28 0 35 6 53 40 11 21 20 46 20 55 0 20 16 19 25 -2 25 -57 -26
-122 -200 -257 -27 -22 -75 -63 -105 -91 -93 -87 -151 -104 -165 -47 -3 14
-15 38 -25 52 -11 15 -30 56 -43 91 -26 74 -104 209 -157 273 -108 130 -389
369 -460 391 -14 4 -59 27 -100 51 -79 46 -203 84 -274 84 -62 0 -74 12 -47
47 42 54 186 172 262 217 75 43 208 60 252 32z m1774 -184 c32 -50 63 -116 63
-137 0 -28 -141 -148 -274 -233 -41 -26 -102 -65 -136 -87 -35 -22 -84 -58
-109 -79 -25 -22 -66 -48 -91 -59 -25 -11 -53 -26 -62 -34 -12 -11 -21 -12
-36 -4 -22 12 -117 119 -111 125 2 1 36 14 74 27 107 37 326 189 458 318 59
58 124 130 144 159 20 28 39 52 42 52 4 0 20 -21 38 -48z m268 -114 c100 -84
135 -158 135 -289 0 -63 -3 -74 -36 -124 -20 -30 -43 -55 -50 -55 -8 0 -23 18
-34 40 -25 49 -157 207 -210 252 l-39 33 41 43 c22 24 53 48 69 54 16 5 38 25
50 44 11 19 24 34 28 34 3 0 24 -15 46 -32z m-2483 -112 c149 -44 217 -74 362
-162 172 -105 236 -156 344 -274 89 -96 121 -157 187 -348 l29 -82 -29 -30
c-32 -34 -198 -156 -248 -182 -17 -10 -44 -32 -60 -50 -26 -32 -28 -32 -42
-14 -8 11 -15 28 -15 38 0 30 -97 270 -131 323 -17 28 -48 70 -69 95 -20 25
-61 81 -90 125 -77 116 -114 159 -181 211 -105 81 -228 125 -414 148 -119 14
-122 19 -51 101 117 135 209 158 408 101z m2266 -114 c59 -60 159 -208 177
-263 l17 -51 -68 -69 c-69 -70 -291 -229 -320 -229 -8 0 -22 17 -30 38 -34 88
-83 162 -157 242 -68 74 -77 86 -62 95 10 5 96 70 193 143 96 72 184 132 194
132 10 0 35 -17 56 -38z m510 -249 c60 -57 124 -158 165 -261 23 -59 22 -133
-4 -185 -41 -81 -138 -191 -155 -175 -2 3 -15 47 -28 99 -27 105 -94 270 -124
303 -28 30 -62 101 -62 129 0 41 90 147 126 147 12 0 47 -24 82 -57z m-2993
13 c114 -34 238 -94 293 -141 24 -21 66 -72 94 -114 28 -42 64 -92 80 -112 15
-20 42 -70 59 -110 80 -192 94 -230 115 -306 27 -99 42 -132 70 -149 18 -13
29 -7 120 57 54 39 131 99 169 133 93 82 143 113 151 93 8 -23 -19 -58 -91
-117 -67 -54 -97 -90 -74 -90 7 0 47 32 90 70 73 66 79 69 89 50 9 -17 2 -28
-60 -89 -64 -63 -83 -91 -62 -91 4 0 39 28 77 61 67 60 69 61 79 39 11 -24 6
-29 -61 -78 -14 -10 -24 -24 -22 -31 3 -8 18 -1 44 18 67 51 89 39 28 -14 -40
-34 -39 -61 1 -45 13 5 27 6 31 2 4 -4 5 -1 3 7 -1 7 2 15 8 18 18 6 24 -46 7
-62 -10 -11 -31 -14 -76 -11 -284 20 -259 21 -287 -9 -24 -26 -25 -27 -6 -41
26 -19 85 -29 98 -16 6 6 -1 13 -21 20 -73 25 -12 27 214 6 76 -7 115 6 115
41 0 14 3 25 8 25 19 0 35 -51 38 -124 3 -70 1 -81 -16 -93 -28 -20 -25 -34 8
-31 24 3 27 -1 30 -27 2 -26 -6 -37 -63 -84 -36 -29 -65 -60 -65 -67 0 -27 32
-13 87 38 52 50 56 52 69 33 8 -10 14 -24 14 -31 0 -7 3 -19 6 -28 4 -10 -4
-19 -28 -29 -18 -8 -62 -44 -97 -81 -53 -53 -62 -66 -47 -72 15 -6 79 42 154
113 22 21 32 15 49 -24 8 -21 24 -50 34 -65 20 -28 25 -73 9 -83 -5 -3 -10
-20 -10 -38 0 -25 -12 -44 -62 -94 -70 -71 -66 -85 6 -22 26 23 48 40 50 38 2
-2 6 -23 9 -47 5 -40 3 -45 -31 -75 -67 -58 -112 -108 -112 -122 0 -23 7 -19
78 45 37 33 70 60 73 60 8 0 29 -56 29 -74 0 -7 -12 -19 -27 -28 -16 -10 -43
-32 -62 -50 -46 -43 -22 -49 35 -8 25 17 51 30 58 27 14 -6 26 -59 26 -118 0
-31 -6 -40 -40 -64 -64 -44 -120 -115 -92 -115 4 0 34 22 67 50 32 27 61 47
65 45 4 -3 10 -24 13 -47 4 -24 9 -53 13 -64 5 -18 -7 -30 -70 -74 -41 -29
-77 -59 -80 -66 -11 -30 15 -20 86 31 42 30 80 55 85 55 10 0 43 -57 43 -75 0
-7 -21 -30 -47 -50 -63 -50 -133 -117 -133 -127 0 -17 20 -5 104 63 101 80
122 83 113 17 -5 -38 -17 -53 -110 -143 -96 -92 -140 -145 -120 -145 5 0 48
34 96 75 48 41 89 75 91 75 2 0 6 -30 8 -67 l5 -68 -94 -90 c-84 -81 -113
-125 -82 -125 7 0 47 34 90 75 43 41 85 75 94 75 14 0 45 -48 45 -69 0 -6 -21
-24 -47 -42 -90 -60 -149 -129 -112 -129 7 0 44 25 83 57 39 31 77 61 84 66 9
7 18 6 29 -5 24 -25 8 -69 -47 -123 -28 -27 -50 -55 -50 -62 0 -19 8 -16 42
12 16 14 34 25 39 25 5 0 9 -23 9 -51 0 -45 -5 -57 -35 -90 -34 -38 -54 -84
-41 -96 4 -4 26 13 50 36 l44 43 16 -30 c23 -44 20 -59 -13 -77 -16 -8 -39
-27 -50 -41 -45 -57 -16 -59 67 -4 l59 40 49 -21 c40 -18 60 -21 123 -16 167
13 352 66 399 114 13 12 31 23 40 23 126 3 257 55 452 181 46 29 129 73 184
96 54 24 117 57 139 73 50 37 57 37 57 4 0 -51 -41 -123 -94 -165 -28 -22 -68
-64 -89 -92 -22 -29 -96 -111 -166 -182 -100 -102 -149 -163 -223 -276 -163
-248 -284 -468 -344 -624 -29 -78 -107 -276 -161 -412 -3 -7 2 -13 11 -13 28
0 59 64 177 363 138 350 418 788 621 972 35 31 86 86 113 123 39 52 57 68 80
70 36 5 57 -20 48 -57 -15 -62 -140 -276 -195 -335 -32 -34 -58 -66 -58 -72 0
-6 -9 -19 -20 -29 -11 -10 -33 -41 -49 -69 -15 -28 -53 -91 -83 -141 -104
-170 -288 -540 -329 -662 -44 -130 -89 -303 -113 -432 -16 -82 -22 -190 -10
-178 3 3 26 86 50 184 79 321 124 443 259 708 169 333 188 360 126 183 -65
-187 -91 -379 -86 -643 4 -241 41 -498 115 -810 22 -93 27 -130 19 -136 -15
-9 -301 -55 -459 -73 -311 -36 -650 -49 -949 -36 -135 6 -253 12 -261 14 -8 3
-53 7 -100 11 -424 32 -1042 170 -1475 328 l-90 33 2 46 c2 26 16 105 32 175
16 70 43 189 60 263 33 148 122 432 181 580 21 52 48 131 60 175 12 44 42 136
67 205 41 114 45 134 48 230 2 69 10 131 24 180 54 191 154 637 171 760 14
101 38 228 61 325 28 117 27 431 0 492 l-19 42 26 26 c15 15 39 36 54 46 l26
19 7 -29 c4 -18 -4 -72 -20 -141 -15 -61 -25 -114 -22 -117 12 -11 26 9 32 47
10 59 25 49 25 -17 0 -37 -14 -106 -39 -190 -38 -130 -41 -179 -6 -87 25 65
35 43 24 -51 -6 -56 -20 -103 -45 -157 -37 -81 -53 -151 -37 -161 6 -4 18 22
29 56 l19 62 3 -55 c1 -30 -4 -80 -12 -110 -16 -63 -12 -75 14 -42 32 40 62
133 56 174 -3 20 0 81 8 135 46 306 48 347 31 537 -9 98 -13 181 -10 185 4 3
14 6 23 6 10 0 21 13 28 35 6 19 16 36 23 38 15 5 14 -7 -4 -58 -21 -59 -18
-71 7 -31 20 31 22 32 35 15 18 -25 17 -36 -13 -107 -54 -127 -50 -153 8 -45
32 60 32 61 40 32 13 -43 4 -84 -37 -175 -20 -44 -34 -83 -31 -86 9 -9 33 15
46 47 7 16 16 28 20 25 14 -9 -10 -113 -44 -186 -18 -41 -48 -104 -65 -142
-35 -77 -35 -77 -18 -77 6 0 31 36 55 80 24 44 46 80 49 80 3 0 3 -28 0 -63
-7 -71 -48 -209 -84 -280 -13 -27 -23 -58 -21 -70 4 -20 6 -19 24 10 38 64 38
51 2 -157 -10 -63 -25 -140 -33 -170 -20 -83 -53 -321 -61 -442 -5 -91 -4
-108 8 -108 18 0 30 51 59 245 11 77 29 187 39 245 101 562 129 772 137 1017
7 215 -5 283 -83 460 -3 6 28 47 68 90 131 138 191 214 178 227 -18 18 -117
-41 -191 -115 -71 -70 -91 -106 -68 -120 23 -14 -27 -58 -64 -57 -24 1 -38 -8
-66 -41 -20 -23 -40 -41 -46 -41 -5 0 -22 -20 -37 -43 -16 -24 -52 -67 -80
-95 -29 -28 -65 -66 -80 -84 -14 -18 -29 -30 -33 -27 -3 4 5 19 18 35 13 16
27 37 30 47 4 9 7 158 7 330 1 263 -2 321 -15 367 -13 40 -15 72 -10 125 5 57
3 74 -8 84 -8 6 -18 28 -22 49 -9 46 -21 62 -50 62 -38 0 -46 21 -44 123 1 52
-3 102 -7 110 -5 9 -34 33 -64 54 -29 21 -70 62 -90 91 -78 112 -121 141 -243
163 -55 10 -86 10 -160 0 -108 -15 -165 -38 -229 -92 -52 -43 -60 -46 -78 -24
-10 12 -5 24 28 69 47 61 82 85 174 120 92 35 169 46 304 47 149 0 252 -15
323 -46 68 -29 93 -34 98 -18 3 8 -14 21 -41 33 -25 11 -67 30 -93 42 -27 12
-77 27 -113 33 -74 13 -300 9 -345 -6 -16 -6 -43 -13 -60 -16 -16 -2 -58 -13
-93 -23 -58 -18 -92 -18 -92 0 0 10 91 95 118 109 13 7 46 14 74 17 28 3 69
14 91 26 60 30 220 46 295 29 100 -23 122 -25 122 -8 0 9 -25 22 -69 37 -62
20 -83 21 -198 16 l-128 -6 42 20 c100 48 328 50 478 6z m1998 -68 c9 -13 41
-50 72 -83 64 -67 122 -176 130 -245 8 -61 -16 -97 -97 -146 -34 -21 -83 -55
-108 -75 -25 -20 -80 -58 -124 -85 -60 -36 -83 -45 -95 -37 -9 5 -41 60 -72
121 -31 61 -75 139 -98 172 l-42 61 83 83 c46 46 104 106 129 135 31 35 53 51
70 51 13 0 44 16 68 35 51 41 63 43 84 13z m-358 -37 c-9 -17 -20 -29 -25 -26
-14 9 -12 27 6 54 24 34 40 11 19 -28z m1166 -170 c6 -20 20 -54 30 -76 36
-77 59 -159 71 -246 10 -77 9 -90 -5 -113 -27 -40 -241 -201 -323 -242 -86
-44 -100 -41 -119 21 -6 22 -23 63 -37 90 -14 28 -31 68 -38 90 -7 22 -28 77
-46 123 -19 45 -34 90 -34 100 0 10 16 37 35 59 36 42 259 220 342 273 l48 31
32 -37 c18 -20 38 -53 44 -73z m-4556 28 c33 -6 85 -17 115 -25 75 -19 128
-17 410 15 135 15 247 26 249 25 2 -2 -7 -21 -21 -41 -34 -51 -94 -187 -108
-244 -9 -37 -9 -57 4 -104 8 -32 13 -62 11 -66 -3 -4 -37 -15 -77 -24 -74 -18
-230 -90 -323 -150 -28 -17 -84 -63 -125 -101 -64 -59 -95 -78 -215 -133 -77
-35 -183 -90 -235 -121 -132 -80 -163 -94 -260 -119 -289 -77 -361 -110 -390
-181 l-13 -31 -81 3 -81 3 3 35 c2 19 4 92 4 162 l2 126 91 8 c49 5 106 8 125
7 113 -5 361 -4 370 2 40 25 -19 41 -220 61 -152 15 -235 14 -327 -2 -54 -10
-42 26 34 108 36 40 123 140 192 223 69 82 173 201 230 265 57 63 119 138 137
166 42 65 81 98 142 118 103 35 213 39 357 15z m-2467 -39 c3 -32 -3 -40 -55
-85 -78 -68 -149 -125 -155 -125 -6 0 -32 220 -26 225 5 6 170 23 203 21 27
-1 30 -5 33 -36z m655 18 c11 -6 41 -33 66 -60 39 -43 53 -51 91 -55 40 -4 52
0 112 40 38 25 90 50 117 57 83 20 806 17 839 -4 6 -4 12 -23 12 -42 0 -28
-12 -47 -65 -107 -63 -70 -135 -155 -336 -396 -53 -64 -139 -158 -192 -208
l-94 -93 -82 -1 c-44 -1 -84 -2 -88 -3 -5 -1 -73 -6 -153 -10 -144 -7 -201
-13 -208 -21 -3 -2 -2 -12 2 -21 6 -16 25 -16 244 -9 130 4 264 8 297 9 l60 1
-1 -120 c0 -129 -11 -222 -26 -232 -10 -6 -184 -6 -563 -1 -115 2 -259 -1
-318 -6 -103 -9 -318 6 -346 23 -26 16 -156 536 -201 805 l-22 130 158 150
c86 83 167 158 178 166 36 26 474 33 519 8z m5186 -302 c54 -109 82 -196 70
-217 -9 -18 -188 -131 -244 -155 -74 -31 -111 -14 -135 59 -7 22 -30 78 -53
125 -45 97 -76 180 -69 186 2 3 15 1 29 -5 60 -23 118 3 223 98 l74 66 32 -38
c18 -20 51 -74 73 -119z m-2179 138 c0 -3 -31 -40 -70 -82 -38 -42 -70 -79
-70 -83 0 -23 51 15 119 89 47 51 83 82 90 78 7 -5 -6 -27 -39 -64 -27 -31
-50 -60 -50 -64 0 -21 28 -3 81 53 61 63 90 73 113 37 9 -15 1 -26 -47 -69
-54 -48 -69 -69 -48 -69 5 0 33 20 63 45 57 47 87 55 108 30 10 -12 2 -26 -44
-78 -31 -35 -56 -67 -56 -71 0 -21 35 2 84 55 55 59 58 61 76 44 11 -10 20
-22 20 -27 0 -5 -27 -41 -60 -80 -56 -67 -72 -98 -51 -98 5 0 38 32 75 70 36
39 71 70 79 70 19 0 57 -29 57 -45 0 -7 -22 -38 -50 -68 -27 -30 -50 -58 -50
-61 0 -17 30 -1 65 34 21 22 43 40 47 40 4 0 8 -28 8 -62 0 -62 0 -62 -56
-119 -67 -68 -69 -99 -2 -40 25 23 49 41 52 41 3 0 14 -20 25 -45 22 -49 23
-50 52 -35 31 17 22 5 -43 -58 -35 -33 -60 -64 -56 -68 9 -8 40 12 104 67 28
24 50 37 52 30 5 -15 -1 -23 -125 -167 -96 -110 -118 -144 -93 -144 5 0 49 45
96 100 48 55 91 100 96 100 4 0 8 -20 8 -44 0 -37 -7 -52 -51 -107 -59 -74
-48 -92 18 -28 43 42 45 43 59 25 8 -11 14 -25 14 -31 0 -6 -45 -55 -100 -110
-55 -55 -100 -107 -100 -115 0 -8 -24 -34 -53 -57 -33 -26 -78 -77 -117 -135
-35 -51 -76 -110 -92 -130 -28 -36 -208 -172 -269 -204 l-30 -15 31 53 c75
129 153 336 148 391 -4 44 -21 33 -35 -24 -16 -61 -86 -230 -125 -299 -35 -62
-110 -159 -160 -207 -33 -31 -173 -113 -194 -113 -6 0 -19 30 -28 66 -9 37
-32 106 -50 153 -18 47 -46 124 -62 170 -16 46 -47 112 -69 147 -123 191 -151
222 -178 195 -7 -7 -3 -16 16 -31 14 -11 29 -30 32 -41 4 -12 31 -57 61 -102
29 -44 65 -114 80 -156 15 -42 45 -123 67 -181 50 -132 79 -253 73 -305 -3
-22 -2 -58 2 -80 5 -23 3 -70 -5 -110 -6 -38 -12 -113 -13 -165 0 -125 -33
-341 -57 -383 -16 -26 -24 -31 -49 -29 -17 2 -35 -3 -41 -10 -11 -13 -53 -176
-55 -214 -1 -11 10 -38 25 -61 46 -73 33 -110 -41 -120 -35 -5 -47 0 -95 35
-70 53 -90 78 -123 162 -23 59 -25 73 -15 101 6 17 11 54 11 80 0 27 7 91 16
141 12 72 15 124 9 229 l-7 136 50 99 c31 63 64 153 91 247 43 154 47 177 32
177 -13 0 -47 -92 -78 -210 -28 -104 -77 -220 -94 -220 -7 0 -8 7 -4 18 4 9 9
78 11 152 4 153 10 232 22 308 6 32 5 55 0 58 -31 20 -60 -117 -63 -301 -1
-82 -8 -181 -15 -218 -7 -38 -9 -87 -6 -109 l7 -41 -43 7 c-72 12 -75 23 -31
104 40 74 40 101 -2 62 -21 -20 -25 -21 -31 -7 -3 10 7 32 27 56 39 49 32 64
-13 26 -29 -25 -33 -26 -38 -9 -4 10 0 30 9 45 18 31 9 48 -14 29 -24 -20 -31
-2 -11 31 28 48 9 47 -33 -1 -36 -42 -39 -43 -49 -24 -12 23 -5 37 55 108 32
38 44 76 24 76 -6 0 -29 -23 -52 -50 -55 -65 -74 -52 -30 20 39 64 31 79 -14
26 -37 -44 -54 -36 -25 12 29 47 6 48 -32 2 -22 -28 -38 -40 -50 -37 -13 4
-18 -1 -18 -18 0 -12 -7 -28 -15 -35 -13 -10 -15 -9 -15 9 0 38 29 80 68 100
20 10 48 31 61 45 19 20 34 26 69 26 35 0 61 10 127 50 83 50 140 103 129 121
-9 16 -22 10 -101 -41 -41 -28 -78 -49 -80 -46 -2 2 2 17 10 33 8 15 18 43 22
61 13 60 -21 37 -61 -43 -21 -41 -46 -83 -57 -93 -19 -17 -20 -16 -13 13 14
65 19 202 7 210 -18 11 -22 3 -27 -61 -8 -106 -24 -163 -56 -200 -16 -19 -34
-34 -38 -34 -5 0 -8 24 -8 53 1 58 -19 107 -54 131 -47 33 -52 9 -9 -35 36
-35 40 -57 25 -129 -12 -64 -32 -100 -55 -100 -9 0 -28 -9 -42 -20 -14 -11
-36 -20 -50 -20 -17 0 -41 -18 -80 -60 -30 -33 -62 -60 -71 -60 -22 0 -20 13
4 35 11 10 17 22 14 27 -4 5 -21 -5 -40 -23 -38 -37 -55 -33 -30 7 24 35 12
42 -24 16 -38 -29 -43 -28 -75 10 l-27 32 28 23 c43 34 109 63 160 70 60 8 74
24 74 83 0 40 -4 51 -21 61 -23 12 -107 14 -139 4 -18 -6 -19 -4 -9 19 7 14
27 35 46 46 30 17 32 22 21 39 -10 17 -9 28 10 65 12 25 36 62 55 83 18 21 45
55 61 76 15 21 50 50 77 65 51 28 59 39 34 48 -39 15 -120 -39 -171 -116 -13
-19 -38 -53 -54 -74 -17 -22 -37 -64 -46 -93 -9 -29 -26 -66 -38 -81 -13 -15
-33 -47 -46 -72 -12 -25 -30 -54 -39 -65 -10 -11 -26 -42 -36 -70 -10 -27 -25
-58 -33 -68 -14 -16 -14 -21 2 -53 28 -59 114 -143 159 -155 57 -15 92 -6 180
51 43 27 82 50 86 50 4 0 6 -48 3 -106 l-5 -106 66 -66 c75 -77 111 -143 132
-242 18 -86 36 -123 72 -147 55 -36 129 -120 161 -181 19 -35 32 -66 29 -68
-3 -3 -30 4 -62 15 -46 16 -75 19 -149 16 -50 -2 -112 -11 -139 -19 l-47 -14
-49 38 c-63 50 -65 54 -46 90 18 34 4 41 -27 13 -18 -16 -20 -16 -40 5 l-21
21 41 42 c23 23 42 45 42 50 0 23 -24 16 -63 -21 -24 -22 -49 -40 -54 -40 -5
0 -41 32 -79 72 -73 76 -147 145 -183 170 -20 14 -21 18 -9 37 7 12 18 21 24
21 5 0 23 14 40 31 28 30 28 31 4 19 -14 -7 -42 -26 -62 -43 -40 -32 -51 -30
-73 13 -35 68 -45 153 -46 391 0 129 2 245 5 258 3 13 10 98 16 190 14 210 25
298 40 316 15 18 96 41 225 66 55 11 125 28 155 38 53 19 218 35 336 34 28 -1
95 -13 148 -28 94 -27 98 -30 147 -86 77 -89 110 -76 46 17 -45 65 -78 86
-183 115 -95 26 -197 31 -310 15 -72 -10 -90 3 -41 31 17 10 111 54 207 97
184 83 270 132 360 210 30 26 93 71 140 101 71 45 105 58 210 85 185 47 233
32 352 -104 71 -81 91 -122 116 -242 12 -56 21 -79 32 -79 24 0 17 145 -10
219 -33 86 -160 226 -235 256 -30 12 -55 26 -55 30 0 5 22 27 49 49 48 40 112
144 152 245 11 28 27 47 49 58 19 10 36 16 38 13 2 -2 -19 -34 -47 -71 -28
-37 -51 -71 -51 -75 0 -20 21 -6 57 37 85 103 106 124 119 124 8 0 14 -3 14
-6z m3827 -104 c40 -24 47 -39 63 -124 17 -92 6 -284 -19 -342 -11 -23 -39
-58 -67 -80 -26 -21 -67 -56 -91 -78 -50 -45 -49 -46 -57 80 -3 50 -10 104
-17 120 -9 26 -26 99 -45 201 -6 29 0 39 56 100 34 37 74 85 88 106 28 42 44
45 89 17z m-1004 -49 c29 -34 149 -371 149 -419 0 -18 -6 -39 -12 -47 -17 -20
-218 -162 -296 -208 -98 -59 -111 -54 -158 64 -85 212 -108 266 -122 291 -32
60 -13 100 73 148 32 18 85 54 118 79 163 127 205 143 248 92z m1457 -178
c130 -22 285 -77 380 -133 47 -27 92 -50 101 -50 26 0 64 -36 83 -79 10 -22
24 -42 30 -44 6 -2 40 0 76 5 112 17 300 3 430 -31 129 -33 235 -72 235 -87 0
-5 -11 -11 -25 -13 -44 -6 -141 -55 -320 -163 -201 -120 -266 -158 -274 -158
-15 0 -3 23 29 59 41 45 43 51 11 51 -17 0 -49 -27 -113 -94 -94 -98 -135
-125 -219 -145 -54 -13 -103 -40 -150 -82 -68 -60 -74 -72 -90 -175 -15 -101
-48 -241 -58 -252 -8 -7 -239 27 -249 37 -5 5 -3 28 4 52 22 76 15 251 -14
351 -21 72 -23 94 -15 135 14 73 11 229 -5 309 -9 39 -32 111 -52 159 -35 85
-36 92 -29 164 4 42 9 79 10 84 1 4 2 34 3 67 l1 59 68 -5 c37 -3 105 -12 152
-21z m-757 -37 c50 -51 97 -351 67 -430 -5 -14 -26 -37 -47 -51 -21 -14 -76
-51 -123 -81 -46 -31 -108 -76 -138 -100 -30 -24 -58 -44 -63 -44 -32 0 -111
254 -113 360 l-1 74 49 36 c27 19 114 83 193 143 79 59 148 107 153 107 5 0
15 -6 23 -14z m-1209 -107 c19 -23 41 -58 47 -78 6 -20 29 -73 50 -118 21 -46
50 -115 64 -155 31 -87 34 -82 -105 -159 -203 -112 -241 -125 -291 -99 -24 13
-63 91 -101 200 -22 62 -31 111 -35 182 l-6 96 31 16 c17 9 37 16 45 16 8 0
66 31 128 69 63 39 119 70 126 70 6 1 27 -18 47 -40z m703 -253 c10 -12 29
-59 41 -102 13 -43 34 -115 48 -160 13 -44 24 -97 24 -117 0 -32 -6 -41 -53
-76 -62 -47 -345 -194 -358 -185 -29 18 -85 160 -128 330 -11 41 9 87 46 110
35 21 139 90 252 167 47 31 91 57 98 57 6 0 20 -11 30 -24z m868 18 c19 -8 58
-82 74 -139 6 -22 15 -83 21 -135 13 -120 3 -182 -36 -220 -37 -36 -122 -80
-140 -73 -17 6 -44 55 -44 79 0 10 -20 78 -45 151 -25 73 -45 143 -45 157 0
25 40 68 135 145 54 43 55 44 80 35z m2156 -146 c46 -23 117 -61 156 -85 97
-59 165 -86 314 -123 197 -49 243 -66 438 -163 161 -80 180 -92 152 -95 -18
-2 -63 1 -101 7 -86 14 -150 14 -150 1 0 -11 -3 -10 200 -49 478 -92 454 -86
567 -140 104 -49 204 -81 249 -81 53 0 55 -7 19 -88 -79 -184 -84 -191 -162
-255 -97 -81 -212 -160 -293 -203 -36 -19 -108 -66 -160 -105 -91 -67 -97 -70
-135 -63 -22 4 -87 8 -145 8 l-105 1 -95 49 c-134 69 -270 118 -270 97 0 -5
42 -25 93 -45 51 -21 140 -64 197 -97 88 -50 112 -59 153 -59 27 0 57 5 67 10
18 10 90 -10 114 -31 5 -5 -8 -45 -31 -96 -22 -48 -46 -105 -53 -125 -6 -21
-18 -42 -27 -46 -19 -11 -131 19 -143 38 -5 8 -7 37 -4 64 4 51 4 51 -10 21
-9 -16 -15 -40 -16 -53 0 -40 -18 -62 -50 -62 -60 0 -471 140 -615 210 -77 37
-180 82 -230 100 -49 18 -162 65 -250 105 -88 40 -182 80 -208 90 -61 22 -55
29 11 14 72 -15 98 -7 49 15 -63 28 -196 55 -325 66 -149 13 -253 39 -341 84
-36 19 -120 61 -185 94 -78 39 -123 68 -131 83 -13 24 -30 193 -27 258 3 48
11 55 36 33 11 -11 35 -26 51 -35 38 -18 216 -59 224 -51 11 11 -33 35 -104
56 -90 27 -161 62 -169 85 -4 10 1 27 12 43 20 26 32 33 182 104 52 25 169 89
260 142 242 141 457 250 526 268 34 9 88 16 120 17 33 0 84 7 114 14 103 23
140 19 231 -27z m-2420 -80 c6 -12 34 -87 60 -167 58 -171 62 -217 22 -260
-34 -36 -320 -211 -345 -211 -18 0 -58 65 -58 94 0 8 -16 65 -35 126 -19 62
-37 128 -40 148 -6 36 -4 38 72 98 120 94 271 194 293 194 11 0 25 -10 31 -22z
m-3015 -66 c-7 -20 -132 -109 -141 -100 -2 2 27 32 66 67 72 63 86 69 75 33z
m555 -49 c-33 -46 -131 -138 -131 -123 0 14 130 150 144 150 4 0 -2 -12 -13
-27z m1353 6 c48 -38 112 -204 119 -312 l5 -67 -41 -22 c-23 -11 -73 -40 -110
-65 -38 -24 -89 -48 -115 -55 -68 -16 -149 -37 -166 -44 -22 -9 -73 51 -96
113 -42 112 -42 255 0 297 32 33 313 175 346 175 18 1 43 -8 58 -20z m-1930
-95 c10 -26 7 -79 -6 -92 -9 -9 -16 -8 -30 5 -22 20 -23 35 -3 73 17 33 30 38
39 14z m-2850 -60 c12 -5 -2 -17 -51 -46 -112 -65 -182 -148 -183 -215 0 -14
-17 -34 -49 -58 -59 -43 -83 -79 -115 -172 -13 -37 -41 -111 -64 -163 -22 -52
-57 -144 -78 -205 -20 -60 -40 -113 -43 -117 -3 -4 -44 -2 -90 3 -79 9 -106 7
-213 -17 -22 -5 -29 -1 -42 25 l-17 31 36 0 c28 0 35 4 35 20 0 22 -21 35 -71
45 -36 7 -38 10 -112 163 -113 234 -127 269 -133 336 -7 70 9 192 35 269 l18
52 44 -2 c157 -8 219 -5 314 17 72 17 132 24 215 24 l115 1 71 -42 c93 -57
129 -57 187 -4 23 21 56 43 72 49 34 12 96 15 119 6z m2736 -2 c0 -5 -9 -17
-20 -27 -16 -14 -20 -15 -20 -4 0 16 19 39 32 39 4 0 8 -4 8 -8z m2708 -99
c22 -43 49 -114 61 -158 43 -166 38 -182 -66 -251 -89 -58 -273 -154 -296
-154 -27 0 -75 49 -82 83 -4 17 -15 60 -25 93 -24 80 -35 191 -22 225 7 17 32
39 69 59 32 18 65 39 74 47 23 19 222 131 235 132 7 1 30 -34 52 -76z m-6718
-12 c5 -20 10 -47 10 -60 0 -40 -17 -13 -45 69 l-25 73 25 -23 c14 -13 29 -40
35 -59z m4060 44 c11 -20 11 -27 0 -40 -17 -21 -37 -19 -50 5 -8 14 -8 26 0
40 14 27 34 25 50 -5z m3453 -53 c10 -10 24 -40 33 -67 31 -89 1 -289 -51
-341 -42 -42 -80 -23 -90 44 -3 20 -17 84 -30 142 -14 58 -25 119 -25 136 0
35 28 65 80 88 46 20 64 20 83 -2z m-3391 -38 l21 -46 -26 -54 c-15 -30 -27
-60 -27 -67 0 -6 -11 -35 -24 -63 -20 -42 -34 -57 -82 -85 -49 -28 -69 -34
-120 -34 -36 0 -74 7 -95 16 -19 9 -45 22 -59 28 -28 13 -72 70 -64 83 12 19
43 5 73 -32 51 -64 73 -46 26 22 -50 73 -20 95 50 37 45 -37 75 -49 75 -30 0
5 -23 31 -51 58 l-50 48 25 24 25 23 49 -46 c27 -25 54 -46 61 -46 19 0 12 33
-14 60 -18 19 -22 29 -14 40 8 13 12 12 26 -7 21 -31 40 -29 59 8 12 25 21 30
40 26 20 -3 24 0 24 20 0 29 20 63 37 63 7 0 23 -21 35 -46z m-2688 5 c-1 -13
-5 -69 -8 -124 -4 -55 -11 -158 -16 -230 -12 -189 3 -517 27 -575 31 -74 41
-87 114 -145 110 -88 349 -332 343 -350 -4 -8 -10 -15 -15 -15 -15 0 -127 58
-134 69 -3 6 2 22 11 36 19 29 2 35 -27 9 -11 -10 -25 -14 -35 -10 -15 6 -14
10 11 36 23 24 25 30 12 35 -8 4 -29 -1 -46 -9 -40 -21 -41 -21 -35 13 6 28 4
30 -32 37 -22 4 -44 14 -50 22 -9 13 -16 11 -51 -9 -72 -41 -110 -6 -148 134
-12 45 -39 121 -59 169 -20 49 -45 130 -56 180 -11 51 -26 118 -35 148 -28
103 -15 395 21 466 9 19 35 43 63 57 25 14 64 39 86 56 45 35 61 35 59 0z
m2554 -3 c6 -29 -15 -43 -35 -24 -14 14 -14 20 -3 33 16 19 34 15 38 -9z
m3301 -112 c36 -46 62 -134 68 -229 5 -87 4 -91 -23 -126 -41 -52 -193 -161
-254 -182 -67 -22 -87 -15 -111 38 -27 61 -61 268 -49 300 5 13 33 40 62 59
59 39 269 163 280 165 4 0 16 -11 27 -25z m-1071 -46 c5 -7 13 -40 17 -73 3
-33 15 -94 26 -137 27 -108 26 -178 -4 -207 -25 -22 -281 -139 -354 -161 -54
-16 -86 -7 -119 34 -39 48 -84 188 -83 256 2 108 3 108 109 146 52 18 124 46
160 63 220 99 229 102 248 79z m-5071 -240 c-2 -142 1 -183 16 -228 15 -47 31
-120 53 -240 4 -18 -6 -38 -35 -75 -69 -86 -69 -84 -33 -193 18 -53 32 -105
32 -116 0 -18 141 -159 224 -221 64 -49 119 -169 90 -197 -3 -4 -42 33 -86 80
-44 48 -88 91 -98 96 -23 11 -145 -38 -164 -66 -10 -14 -20 -17 -41 -12 -46
11 -183 245 -275 469 l-37 90 39 115 c22 63 68 180 103 260 35 80 68 172 75
205 18 95 19 97 78 153 31 28 57 52 58 52 1 0 1 -78 1 -172z m715 108 c12 -17
10 -24 -10 -44 -11 -11 -37 -22 -58 -25 -22 -4 -65 -22 -97 -41 -31 -19 -57
-31 -57 -27 0 4 13 28 29 53 30 48 82 93 116 101 26 6 68 -3 77 -17z m1703 4
c3 -5 0 -10 -9 -10 -8 0 -23 -3 -33 -6 -16 -6 -16 -5 2 9 24 19 32 21 40 7z
m3276 -135 c53 -160 69 -215 69 -241 0 -52 -21 -106 -52 -134 -47 -43 -171
-110 -264 -142 -80 -28 -87 -28 -109 -14 -36 24 -51 60 -69 167 -17 102 -11
179 15 204 8 7 64 39 124 70 61 32 139 77 175 101 36 23 72 42 80 41 8 -1 22
-25 31 -52z m-2681 -10 c0 -76 -86 -595 -101 -610 -6 -6 -109 -10 -282 -10
l-272 0 -90 33 c-77 28 -208 72 -295 99 -22 8 -24 13 -22 63 7 147 24 213 60
238 15 11 114 63 219 116 l193 96 50 -25 c146 -74 324 -73 470 4 30 16 58 30
63 30 4 1 7 -15 7 -34z m3630 2 c30 -7 71 -22 90 -33 19 -12 53 -27 75 -34 22
-7 71 -26 109 -43 l68 -31 44 23 c52 28 59 26 198 -56 106 -62 174 -86 323
-113 114 -20 168 -37 418 -129 278 -103 637 -264 688 -309 9 -8 17 -27 17 -42
0 -55 -31 -77 -320 -227 -47 -25 -107 -54 -135 -66 -67 -29 -154 -79 -203
-119 -22 -18 -75 -55 -117 -81 -42 -27 -108 -80 -148 -118 -39 -39 -101 -86
-136 -106 -36 -20 -80 -51 -98 -70 -34 -33 -34 -33 -71 -17 -20 8 -71 34 -112
56 -177 98 -173 97 -322 88 -55 -3 -65 0 -210 73 -84 42 -158 77 -164 77 -6 0
-44 22 -85 48 -41 27 -112 71 -159 97 -47 27 -86 49 -88 50 -4 3 28 167 44
222 8 29 43 94 78 145 138 205 175 408 112 617 -15 47 -26 93 -26 104 0 21 6
21 130 -6z m-5580 -37 c0 -16 -23 -60 -32 -60 -12 0 -10 44 4 58 14 14 28 16
28 2z m5329 -36 c31 -39 35 -81 24 -245 -8 -126 -14 -156 -35 -196 -18 -36
-30 -49 -50 -51 -34 -4 -40 12 -48 143 -4 61 -13 147 -20 191 -7 45 -10 92 -7
105 6 23 79 79 104 79 6 0 21 -12 32 -26z m-3271 -80 c-4 -37 -10 -70 -14 -73
-6 -6 6 119 13 132 9 15 9 5 1 -59z m-2053 16 c-5 -16 -10 -19 -18 -11 -7 7
-6 15 3 26 7 8 15 13 17 11 3 -2 2 -14 -2 -26z m-85 -32 c0 -14 -60 -78 -74
-78 -5 0 -2 8 7 18 8 9 20 29 26 45 10 27 41 38 41 15z m5216 -3 c52 -36 58
-357 9 -442 -41 -69 -181 -157 -270 -170 -40 -5 -45 -3 -53 18 -5 13 -12 51
-16 84 -3 33 -9 85 -12 115 -3 30 -3 88 1 128 l7 73 76 51 c43 28 97 68 122
89 40 33 96 68 110 69 3 0 15 -7 26 -15z m-5272 -10 c3 -8 1 -15 -4 -15 -6 0
-10 7 -10 15 0 8 2 15 4 15 2 0 6 -7 10 -15z m168 -52 c-9 -14 -10 -14 -16 5
-9 29 3 51 16 28 5 -10 5 -23 0 -33z m71 5 c-10 -11 -19 -15 -21 -8 -5 15 18
41 30 34 5 -3 1 -15 -9 -26z m4000 -35 c23 -34 26 -52 32 -164 5 -88 4 -133
-4 -147 -17 -32 -63 -52 -206 -89 -71 -18 -155 -40 -185 -48 -30 -8 -71 -15
-91 -15 -32 0 -38 4 -53 38 -20 46 -36 130 -36 193 0 72 21 89 185 150 77 29
174 67 215 85 99 42 112 42 143 -3z m-2066 -5 c-3 -7 -5 -2 -5 12 0 14 2 19 5
13 2 -7 2 -19 0 -25z m6955 -80 c-55 -103 -209 -369 -220 -380 -4 -4 -41 9
-82 30 -82 40 -107 73 -95 120 10 39 90 112 171 154 39 21 115 67 170 102 54
36 101 66 102 66 2 0 -18 -42 -46 -92z m-8943 65 c0 -5 -3 -9 -9 -11 -5 -2
-10 4 -10 13 0 16 16 14 19 -2z m91 -7 c0 -8 -7 -19 -15 -26 -12 -10 -16 -9
-21 4 -7 18 13 49 27 40 5 -3 9 -11 9 -18z m-137 -91 c61 -100 101 -141 145
-151 118 -26 127 -38 126 -168 0 -55 -6 -120 -13 -144 -10 -37 -14 -42 -27
-31 -9 7 -22 25 -30 41 -8 15 -37 43 -65 62 -65 44 -76 60 -99 150 -28 111
-59 174 -118 244 -44 51 -51 66 -42 78 7 8 24 14 39 14 23 0 35 -13 84 -95z
m87 14 c0 -6 -4 -7 -10 -4 -5 3 -10 11 -10 16 0 6 5 7 10 4 6 -3 10 -11 10
-16z m80 12 c0 -19 -20 -61 -29 -61 -13 0 -20 35 -9 54 10 17 38 22 38 7z
m4524 -125 c13 -13 32 -49 42 -80 16 -50 17 -69 7 -166 -15 -154 -35 -185
-152 -245 -111 -55 -207 -88 -238 -81 -34 9 -51 43 -63 126 -11 80 -15 256 -5
280 3 8 58 40 123 70 64 30 144 69 177 87 74 38 80 39 109 9z m-6298 -27 l44
-11 0 -67 c0 -60 -4 -72 -36 -120 -43 -64 -37 -68 -128 84 l-65 110 42 6 c70
10 96 10 143 -2z m2774 -164 c193 -54 189 -52 197 -84 6 -24 7 -57 5 -271 -1
-47 0 -105 1 -129 2 -41 -1 -47 -32 -68 -18 -12 -65 -33 -104 -45 -44 -15 -85
-36 -111 -59 l-41 -37 60 13 c33 7 93 18 134 24 41 6 94 20 117 30 l43 19 17
-74 c15 -70 15 -78 -1 -119 -17 -46 -69 -100 -113 -116 -65 -25 -263 -18 -392
14 -28 7 -177 11 -390 12 -402 1 -406 2 -625 60 -76 20 -132 27 -235 31 -187
6 -255 13 -275 28 -20 15 -24 103 -8 183 6 35 7 72 0 108 -5 31 -6 67 -2 82
l6 26 37 -36 c52 -50 287 -157 424 -192 98 -26 199 -35 273 -24 65 9 69 8 84
-13 74 -108 170 -168 265 -168 109 1 197 64 237 170 26 66 82 339 104 499 25
184 24 179 54 183 53 6 119 -5 271 -47z m7439 -24 c20 -15 55 -38 78 -50 23
-11 44 -24 47 -29 5 -8 -140 -231 -169 -261 -11 -11 -20 -8 -58 19 -60 43 -74
75 -57 138 7 26 20 61 28 77 17 35 83 135 90 135 2 0 21 -13 41 -29z m-4446 4
c24 -24 45 -103 52 -200 10 -124 9 -156 -8 -197 -13 -31 -23 -38 -88 -61 -167
-58 -185 -61 -286 -50 -107 12 -120 20 -154 96 -19 42 -24 69 -23 137 0 48 7
102 15 125 16 44 9 41 204 102 214 67 262 75 288 48z m-2336 -77 c-3 -23 -13
-45 -21 -50 -9 -5 -28 -20 -44 -33 -22 -20 -24 -26 -13 -34 9 -6 24 -6 38 0
21 8 23 6 18 -14 -3 -12 -21 -98 -40 -192 -37 -186 -113 -532 -120 -554 -8
-22 -13 -10 -35 77 -11 45 -29 96 -39 114 -27 47 -39 93 -45 173 -3 39 -10
134 -17 211 -9 125 -9 149 6 205 10 35 20 78 23 94 2 17 10 33 16 37 6 4 71 8
145 8 l134 0 -6 -42z m-3212 -253 c91 -191 128 -235 211 -256 32 -8 65 -28
106 -65 90 -80 155 -108 250 -109 l78 0 0 -50 c0 -61 -31 -297 -40 -308 -15
-18 -336 337 -526 581 -103 132 -254 344 -254 357 0 3 15 24 32 46 l33 40 14
-33 c9 -18 52 -109 96 -203z m9071 38 c-28 -43 -73 -107 -100 -143 -65 -86
-91 -147 -111 -253 -20 -111 -48 -183 -85 -222 -40 -42 -51 -75 -59 -190 -4
-55 -14 -113 -22 -130 -15 -30 -15 -30 -94 -28 -89 1 -121 11 -338 101 -111
46 -133 58 -116 64 12 5 37 6 55 2 18 -3 41 -1 51 4 16 10 14 12 -18 26 -20 8
-91 22 -157 29 -93 11 -127 19 -151 36 -17 12 -31 29 -31 37 0 15 85 74 107
74 15 0 153 135 153 149 0 8 175 145 313 247 23 17 78 43 122 59 44 15 127 52
185 83 58 30 127 67 154 81 44 23 133 48 177 50 12 1 2 -20 -35 -76z m536 53
c85 -31 111 -49 201 -131 l76 -70 -116 -145 c-224 -280 -496 -568 -746 -789
-115 -102 -118 -103 -147 -91 -17 7 -44 28 -60 47 -37 42 -39 89 -10 213 24
98 69 241 81 254 9 11 22 -52 23 -119 1 -43 4 -50 23 -53 38 -6 40 67 8 303
-7 53 15 168 45 232 36 78 76 128 142 178 74 57 346 194 385 195 18 0 61 -11
95 -24z m-7565 -43 c7 -19 -14 -210 -26 -231 -6 -11 -13 -6 -29 19 -20 32 -20
37 -6 99 28 125 45 156 61 113z m-917 -53 c0 -5 -2 -10 -4 -10 -3 0 -8 5 -11
10 -3 6 -1 10 4 10 6 0 11 -4 11 -10z m423 -42 c36 -14 34 -34 -9 -74 -40 -39
-50 -41 -84 -17 -33 22 -105 86 -105 93 0 20 145 19 198 -2z m-1010 -104 c39
-42 73 -82 75 -89 2 -7 -10 -22 -26 -33 l-28 -21 -43 25 c-81 46 -160 115
-161 141 0 12 72 50 98 52 6 1 45 -33 85 -75z m6142 -43 c36 -17 65 -33 65
-36 0 -4 -8 -19 -19 -33 -42 -60 -197 -414 -291 -665 -55 -147 -132 -212 -222
-187 l-35 10 32 143 c59 256 121 404 214 508 73 82 126 162 151 229 12 33 26
60 31 60 5 0 39 -13 74 -29z m319 -196 c85 -58 182 -107 274 -136 76 -24 142
-69 142 -97 0 -9 22 -61 50 -117 55 -110 70 -177 50 -224 -7 -17 -41 -56 -77
-87 -44 -39 -76 -79 -103 -128 -50 -90 -76 -115 -138 -131 -40 -11 -59 -11
-108 1 -32 7 -103 14 -157 14 -65 0 -110 5 -134 15 -42 18 -137 78 -171 109
-34 30 -68 102 -83 173 -16 80 -6 116 104 379 l84 199 74 37 c41 20 86 37 100
37 16 1 53 -17 93 -44z m-5983 -272 c85 -2 116 0 140 13 32 16 33 16 258 -12
63 -8 166 -17 230 -20 64 -4 124 -11 134 -16 20 -10 23 -87 6 -153 -5 -22 -13
-110 -18 -195 -6 -139 -10 -161 -35 -215 -30 -66 -63 -105 -116 -138 -30 -19
-47 -21 -137 -19 -64 2 -103 -1 -103 -7 0 -6 25 -29 55 -52 58 -44 74 -64 28
-34 -146 94 -484 363 -656 523 l-49 44 30 137 c17 75 35 148 41 163 l10 28 37
-22 c29 -17 56 -22 145 -25z m6752 7 c70 -34 78 -47 50 -73 -25 -22 -175 -89
-188 -83 -6 2 -17 22 -25 45 -24 73 16 153 74 147 12 -2 52 -18 89 -36z
m-5408 -40 c28 -6 106 -12 175 -13 108 -2 131 -5 171 -25 42 -20 148 -120 214
-199 l26 -32 -21 -78 c-52 -188 -154 -519 -163 -530 -13 -17 -96 -16 -210 2
-113 17 -208 21 -307 10 -93 -9 -133 1 -268 67 -107 53 -142 84 -142 124 0 28
-3 28 50 9 52 -18 154 -21 148 -3 -5 13 -10 16 -101 58 -103 48 -110 63 -103
230 3 74 12 173 21 219 33 172 45 179 283 176 97 -1 200 -8 227 -15z m5795
-203 c317 -142 375 -179 414 -260 26 -55 61 -208 49 -215 -5 -4 -61 -44 -124
-89 -157 -112 -323 -217 -521 -330 l-167 -95 -81 27 c-83 28 -162 78 -306 196
-84 69 -124 113 -124 139 0 25 95 207 172 331 84 134 128 183 191 212 28 13
83 46 122 72 94 64 163 96 195 88 14 -3 95 -37 180 -76z m634 -312 c11 -8 18
-16 15 -18 -2 -2 -25 -20 -51 -41 -51 -41 -53 -40 -50 23 2 48 46 66 86 36z
m-2328 -70 c46 -19 169 -77 272 -129 104 -52 222 -104 263 -117 113 -33 161
-62 253 -149 47 -44 123 -104 169 -134 56 -36 87 -63 95 -83 21 -52 34 -115
25 -123 -17 -15 -274 -124 -439 -185 -197 -74 -261 -82 -364 -44 -30 11 -107
38 -170 60 -89 31 -352 147 -367 162 -1 2 -12 52 -23 112 -29 150 -46 322 -42
441 l3 101 57 27 c32 15 77 43 102 61 25 19 53 34 63 34 10 1 56 -15 103 -34z
m-4636 -274 c15 -29 12 -104 -6 -129 -8 -12 -25 -22 -37 -22 -13 0 -71 30
-130 67 l-107 68 82 13 c45 7 84 14 86 17 3 3 27 5 53 5 38 0 51 -4 59 -19z
m315 -120 c72 -11 162 -22 200 -26 39 -4 81 -9 95 -11 42 -7 235 -6 265 2 23
6 27 4 22 -9 -20 -53 -97 -339 -97 -362 0 -28 0 -28 -52 -22 -37 4 -104 29
-217 81 -148 69 -428 214 -458 238 -13 11 -6 75 11 97 28 35 60 37 231 12z
m4180 -543 c58 -23 79 -38 68 -49 -4 -4 -35 -17 -67 -28 -62 -21 -75 -18 -76
19 0 8 -3 33 -7 54 -6 36 -5 39 13 31 10 -4 42 -16 69 -27z m314 -124 c8 -3
12 -6 10 -9 -8 -7 -313 -85 -334 -85 -18 0 -17 2 7 27 21 20 52 32 145 53 108
25 131 27 172 14z"/>
<path d="M8267 10945 c-17 -23 -40 -75 -33 -75 2 0 15 18 30 41 29 44 32 72 3
34z"/>
<path d="M8311 10840 c-37 -48 -51 -74 -44 -81 15 -15 109 117 101 142 -2 6
-28 -22 -57 -61z"/>
<path d="M8190 9867 c0 -7 12 -20 28 -29 33 -20 117 -34 107 -19 -3 6 -11 11
-17 11 -5 0 -32 11 -60 25 -58 29 -58 29 -58 12z"/>
<path d="M8010 9107 c0 -20 47 -60 60 -52 8 5 3 16 -16 36 -30 32 -44 36 -44
16z"/>
<path d="M7910 9018 c0 -22 26 -58 43 -58 13 0 7 16 -18 50 -25 33 -25 33 -25
8z"/>
<path d="M5606 8638 c-7 -13 -21 -46 -30 -75 -10 -28 -30 -69 -46 -91 -70 -97
-69 -93 -26 -307 14 -71 26 -130 26 -132 0 -2 9 -3 20 -3 25 0 26 28 2 166
-20 119 -17 146 31 216 43 63 66 125 69 183 2 65 -19 85 -46 43z"/>
<path d="M6070 8473 c0 -5 16 -15 34 -21 19 -7 38 -22 41 -32 4 -14 15 -20 36
-20 l30 0 -28 35 c-15 19 -33 35 -39 35 -6 0 -26 3 -43 6 -17 4 -31 2 -31 -3z"/>
<path d="M5883 8430 c23 -26 25 -36 20 -85 -4 -35 -2 -55 5 -55 12 0 23 63 17
100 -2 14 -4 28 -4 32 -2 13 -33 38 -48 38 -11 0 -8 -8 10 -30z"/>
<path d="M5758 8420 c-62 -19 -96 -49 -117 -106 -31 -81 -28 -125 14 -242 3
-9 17 -7 56 8 55 21 99 56 129 105 23 37 43 181 29 207 -19 35 -56 45 -111 28z
m73 -105 c-3 -83 -15 -105 -41 -73 l-17 21 -7 -26 c-10 -40 -46 -37 -46 3 0
25 -4 30 -25 30 -31 0 -32 17 -2 61 24 36 74 60 116 56 24 -2 25 -4 22 -72z
m-141 -105 c0 -5 -4 -10 -10 -10 -5 0 -10 5 -10 10 0 6 5 10 10 10 6 0 10 -4
10 -10z"/>
<path d="M5402 6888 c-7 -7 -12 -17 -12 -23 0 -6 -9 -19 -21 -28 -11 -10 -18
-21 -15 -24 6 -7 75 66 76 80 0 11 -15 8 -28 -5z"/>
<path d="M5840 5593 c-17 -26 -30 -57 -30 -68 0 -28 28 -53 67 -61 46 -9 73
31 73 106 0 62 -7 70 -56 70 -18 0 -32 -12 -54 -47z m70 -42 c0 -22 -26 -46
-34 -32 -8 13 15 62 25 55 5 -3 9 -13 9 -23z"/>
<path d="M5733 4740 c-89 -31 -189 -86 -198 -109 -17 -45 119 -38 177 9 l23
19 -40 -10 c-68 -16 -105 -22 -105 -16 0 11 89 59 167 88 137 53 118 68 -24
19z"/>
<path d="M2159 3163 c-50 -47 -51 -80 -1 -38 34 28 57 63 48 72 -2 3 -24 -13
-47 -34z"/>
<path d="M2224 3132 c-21 -16 -48 -39 -58 -51 -17 -19 -18 -21 -2 -21 19 0
114 85 105 94 -3 4 -23 -7 -45 -22z"/>
<path d="M2258 3044 c-40 -26 -50 -54 -20 -54 17 0 82 58 82 73 0 13 -25 6
-62 -19z"/>
<path d="M2321 2974 c-22 -26 -38 -51 -35 -56 6 -10 104 79 104 94 0 21 -32 3
-69 -38z"/>
<path d="M3340 2800 c0 -19 3 -21 12 -12 9 9 9 15 0 24 -9 9 -12 7 -12 -12z"/>
</g>
</svg>
