<?xml version="1.0" encoding="UTF-8"?><svg id="a" xmlns="http://www.w3.org/2000/svg" viewBox="0 0 99.29 24.34"><defs><style>.b{fill:#fff;}</style></defs><path class="b" d="M12.36.03c.59.07,1.27.56.85,1.21-.3.46-1.55.54-2.1.7-.2.06-1.08.3-.84.65s1.56-.11,1.93-.15c.97-.11,3.58-.04,4.43.4.64.33.5.9,0,1.28-1.22.08-3.17-.33-4.27.24-.57.3.08.51.43.55.49.05.95-.04,1.49.02,1.17.13,2.67.54,3.74,1.02.7.31,1.19.54.97,1.45-.2.83-1.07.52-1.63.38-.97-.23-2.08-.72-3.08-.78-.32-.02-.72-.07-.95.23.43.45,1.11.56,1.66.82.73.35,2.84,1.5,3.21,2.14.53.92-.22,1.94-1.23,1.68-.21-.05-1.36-1-1.66-1.21-1.49-1.02-3.03-1.84-4.85-2.1.75.92,1.5,2.43.71,3.54-.69.98-1.31-.79-1.63-1.28-.9-1.33-2.27-2.13-3.91-1.71-1.46.37-1.91,1.63-2.27,2.95s-.26,3.67-1.72,4.22c-1.07.4-1.16-.55-1.34-1.33C-1.28,8.05,3.48.66,10.72.03c.4-.03,1.25-.05,1.63,0Z"/><path class="b" d="M14.04,22.05c.06-.06.12-.31.08-.37-.66-.23-1.33.11-1.99.19-.95.11-3.56.04-4.39-.38-.62-.31-.53-.92-.03-1.29,1.03-.05,2.07.12,3.1.03.25-.02,1.52-.22,1.41-.6-.42-.39-1.1-.16-1.59-.18-1.05-.02-4.04-.78-4.9-1.38-.39-.27-.52-.7-.39-1.15.27-.91,1.22-.5,1.88-.33.88.22,1.86.63,2.76.7.23.02,1.27.06.94-.35-.17-.22-1.23-.51-1.55-.67-.76-.36-2.77-1.49-3.21-2.14-.61-.9.25-1.99,1.23-1.69.28.09,1.25.93,1.58,1.16,1.52,1.04,3.09,1.89,4.95,2.14-.74-.81-1.34-2.07-.93-3.17.69-1.83,1.64.73,2.1,1.31.95,1.18,2.37,1.71,3.85,1.24,2.1-.66,2.13-3.9,2.57-5.65.15-.62.52-1.16,1.11-1.43.74-.34,1.02-.05,1.24.61,1.6,4.82-.53,10.66-4.66,13.5-1.73,1.19-5.57,2.69-7.62,2.02-.78-.26-.74-1.18.09-1.45.52-.17,2.03-.33,2.36-.67Z"/><path class="b" d="M79.53,9.55s.16.1.19.13c.37,1.23.58,2.52.89,3.78l1.14-3.78c.05-.08.11-.11.2-.13.2-.04,1.23-.03,1.37.06.07.04.16.18.19.26l.98,3.65.86-3.64c0-.09.21-.34.25-.34h1.67l-1.87,6c-.31-.06-1.6.09-1.76-.07l-1.11-3.85-1.14,3.82c-.21.21-1.41.04-1.76.09l-1.84-5.99c.5.07,1.27-.1,1.73,0Z"/><path class="b" d="M73.69,6.88v3.13c.97-.85,2.77-.83,3.39.43.05.1.27.71.27.77v4.33h-1.83v-3.94c0-.09-.2-.53-.28-.6-.24-.22-.69-.18-.98-.07-.11.04-.57.34-.57.41v4.2h-1.83V6.88h1.83Z"/><path class="b" d="M99.29,9.68l-3.19,7.48c-.05.16-.35.35-.5.35h-1.47c.27-.86.82-1.65,1.11-2.5l-2.35-5.45h1.86c.14,0,.27.28.33.39.43.91.74,2.05,1.08,3,.49-.51.89-2.97,1.3-3.3.28-.22,1.42-.02,1.83-.09v.13Z"/><path class="b" d="M92.7,15.55h-1.27c-.15,0-.31-.58-.39-.59-1.17,1.14-3.76,1.02-3.69-1.01.05-1.59,2.29-1.94,3.53-1.92.02-.86-.27-1.32-1.19-1.16-.41.07-.81.5-1.25.44-.38-.05-.65-.64-.82-.94,1.4-1.28,4.47-1.53,5,.74.02.09.09.5.09.56v3.88ZM90.87,13.13c-.49.01-1.78.12-1.74.81s1.03.5,1.44.23c.44-.3.29-.56.31-1.03Z"/><path class="b" d="M56.57,12.74v2.8h-2.02V7.07c1.75.12,4.63-.47,5.87,1.09.94,1.18.68,3.23-.61,4.06-.27.17-1.14.52-1.44.52h-1.8ZM56.57,11.24h1.21s.34-.09.41-.12c.9-.33,1.03-1.79.24-2.28-.08-.05-.45-.21-.51-.21h-1.34v2.61Z"/><path class="b" d="M66.44,15.55h-1.21c-.16,0-.38-.42-.36-.59-.35.15-.61.42-.98.55-.97.35-2.39.19-2.71-.94-.59-2.06,1.94-2.53,3.43-2.58.07-.82-.28-1.26-1.13-1.12-.64.1-1.16.83-1.75.15-.46-.55-.39-.71.18-1.06,1.03-.64,2.96-.85,3.87.09.26.27.65,1.07.65,1.43v4.07ZM64.61,13.13c-.4.01-1.55.11-1.68.57-.25.83.73.82,1.26.54s.43-.57.42-1.11Z"/><path class="b" d="M26.79,15.55V7.07c1.58.1,3.42-.22,4.93.26,3.64,1.16,3.76,6.6.18,7.94-.18.07-.82.28-.96.28h-4.15ZM28.82,13.98h1.8c.36,0,1.04-.47,1.26-.76,1.15-1.49.58-4.58-1.65-4.58h-1.4v5.35Z"/><path class="b" d="M49.65,9.55h1.44v1.3h-1.37v4.69h-1.83v-4.76c-.16.04-.85-.14-.85-.29v-.95h.85c-.16-1.49.68-2.52,2.18-2.61.19-.01.95-.01,1.05.13.05.06-.05,1.01-.1,1.08-.16.23-.59.12-.84.2-.48.15-.56.77-.53,1.2Z"/><path class="b" d="M36.85,12.87c.17.98.69,1.51,1.73,1.36.7-.1,1.04-.88,1.73-.16.51.53.47.6-.11,1-1.11.77-2.99.83-4.07-.02-1.31-1.04-1.52-3.41-.42-4.66,1.45-1.65,4.71-1.18,4.99,1.21.02.2.07,1.26-.16,1.26h-3.69ZM39.07,11.76c-.16-1.43-1.93-1.36-2.16,0h2.16Z"/><path class="b" d="M46.45,15.55h-1.21c-.08,0-.37-.46-.36-.59-.27.12-.45.34-.74.47-1.46.65-3.28.07-2.97-1.79.21-1.26,2.39-1.65,3.45-1.61.05-.45-.02-1.08-.56-1.17-1.09-.18-2.02,1.36-2.63-.48,1.15-1.14,3.81-1.49,4.7.11.08.14.32.67.32.79v4.27ZM44.62,13.13c-.45.04-1.62.11-1.7.69-.13.98,1.6.55,1.7.06.04-.22-.03-.52,0-.75Z"/><path class="b" d="M69.64,7.79v1.76h1.5v1.3h-1.5v3.03s.17.26.24.28c.31.1.55-.23.8-.02.05.04.57.81.58.86.07.27-.7.52-.9.57-1.14.28-2.41-.04-2.55-1.37-.11-1.06.08-2.28,0-3.36-1.01.13-.87-.39-.85-1.17.17,0,.87-.09.95-.2.15-.2.22-1.23.4-1.55.03-.06.13-.15.18-.15h1.14Z"/><path class="b" d="M66.73,16.91c.66.06,1.31.32,1.34,1.08.02.5-.25.72-.59,1.01.85.07.84,1.31.29,1.76-.07.06-.6.32-.65.32h-2.12v-4.17c.56.04,1.18-.05,1.73,0ZM65.92,17.63v1.04c.45,0,1.28.12,1.24-.55-.04-.59-.82-.49-1.24-.49ZM65.92,20.37h.95c.06,0,.32-.22.35-.31.25-.84-.75-.76-1.29-.74v1.04Z"/><path class="b" d="M62.19,19.02c0,1.19-.97,2.16-2.17,2.16s-2.17-.97-2.17-2.16.97-2.16,2.17-2.16,2.17.97,2.17,2.16ZM59.69,17.71c-1.29.24-1.17,2.93.56,2.64,1.46-.24,1.31-2.99-.56-2.64Z"/><path class="b" d="M50.11,20.73c-1.85,1.08-3.95.09-3.65-2.21.21-1.64,2.57-2.11,3.69-1.08-.37,1.02-.65.35-1.25.27-2.04-.28-1.98,2.66-.32,2.73.1,0,.72-.11.74-.14.02-.02.03-.62,0-.65-.13-.13-.87.35-.65-.72h1.44v1.79Z"/><path class="b" d="M73.03,16.92l1.57,4.16c-.22-.04-.75.07-.92-.03-.15-.09-.25-.88-.43-.94h-1.52c-.22.83-.29,1.1-1.25.97l1.58-4.16h.96ZM73.1,19.46l-.56-1.5-.56,1.5h1.11Z"/><polygon class="b" points="53.96 16.91 53.96 20.37 55.53 20.37 55.53 21.09 53.05 21.09 53.05 16.91 53.96 16.91"/><polygon class="b" points="78.13 16.91 78.13 20.37 79.7 20.37 79.7 21.09 77.21 21.09 77.21 16.91 78.13 16.91"/></svg>