<?xml version="1.0" encoding="UTF-8"?><svg id="a" xmlns="http://www.w3.org/2000/svg" viewBox="0 0 28.01 27.98"><defs><style>.b{fill:#fff;}</style></defs><path class="b" d="M13.75.02c.52.03,1.44.14,1.54.8.08.56-.25.84-.75.98-.62.18-2.31.37-2.71.82-.13.15-.14.36.05.46.43.24,1.71-.2,2.23-.26,1.14-.13,3.02-.02,4.16.2.71.14,1.67.38,1.2,1.32-.17.35-.38.41-.75.4-1.4-.05-2.77-.3-4.16.12-.24.07-.86.28-.54.61.31.31,1.4.14,1.82.17,1.35.07,2.96.51,4.22.98.91.34,2.19.68,1.75,1.95-.25.71-.8.6-1.4.47-1.3-.28-3.15-1.1-4.43-1.02-.18.01-.73.13-.61.39.13.28,1.44.69,1.77.83.97.43,2.63,1.39,3.42,2.09,1.17,1.04.45,2.63-1.07,2.3-.99-.7-1.93-1.47-2.96-2.1-1.38-.84-2.95-1.46-4.56-1.69.8.97,1.49,2.23,1.13,3.52-.16.58-.66,1.31-1.23.61-.51-.62-.8-1.48-1.36-2.14-1.17-1.36-3.12-1.95-4.78-1.09-1.42.73-1.92,3.09-2.2,4.54-.25,1.28-.21,3.02-1.73,3.5-1.02.32-1.14-.39-1.34-1.18C-1.45,10.09,2.8,2.47,10.31.47c.72-.19,1.7-.4,2.44-.46.29-.02.72-.02,1.01,0Z"/><path class="b" d="M27.99,13.19c.02.5.02,1.12,0,1.62-.31,6.68-5.32,12.05-11.88,13.05-.78.12-3.85.46-3.36-1.09.11-.34.37-.47.69-.57.64-.18,2.28-.36,2.71-.81.15-.16.16-.4-.07-.49-.51-.2-1.64.22-2.21.28-.7.07-1.58.04-2.29,0s-2.45-.16-2.98-.63c-.31-.28-.16-.89.12-1.15.17-.16.31-.16.54-.15,1.41.04,2.78.31,4.19-.12.25-.08.94-.34.5-.65-.37-.26-1.32-.1-1.78-.13-1.54-.08-3.49-.64-4.91-1.25-.75-.32-1.39-.66-1.08-1.64.24-.74.79-.65,1.41-.52,1.31.28,3.14,1.09,4.43,1.02.18,0,.7-.12.62-.37-.08-.28-1.48-.72-1.8-.86-.89-.4-3.08-1.63-3.67-2.35-.85-1.03.1-2.43,1.35-2.03.9.64,1.76,1.35,2.7,1.94,1.45.92,3.1,1.6,4.8,1.85-.8-.97-1.49-2.23-1.13-3.52.11-.42.52-1.19,1.05-.8.33.25.81,1.29,1.08,1.69,1.11,1.7,3,2.64,4.99,1.83,1.64-.66,2.15-3.09,2.45-4.65.18-.92.19-2.14.81-2.86.49-.57,1.7-1.2,2.06-.19s.59,2.5.64,3.52Z"/></svg>